G04 (created by PCBNEW-RS274X (2011-aug-04)-testing) date Mon 22 Aug 2011 04:43:08 PM CEST*
G01*
G70*
G90*
%MOIN*%
G04 Gerber Fmt 3.4, Leading zero omitted, Abs format*
%FSLAX34Y34*%
G04 APERTURE LIST*
%ADD10C,0.010000*%
%ADD11C,0.015000*%
%ADD12R,0.070000X0.070000*%
%ADD13C,0.070000*%
%ADD14R,0.060000X0.060000*%
%ADD15C,0.060000*%
%ADD16R,0.080000X0.080000*%
%ADD17C,0.080000*%
%ADD18R,0.055000X0.055000*%
%ADD19C,0.055000*%
%ADD20C,0.160000*%
%ADD21R,0.045000X0.025000*%
%ADD22R,0.025000X0.045000*%
G04 APERTURE END LIST*
G54D10*
G54D11*
X28200Y-64000D02*
X29000Y-64000D01*
X28200Y-49500D02*
X28200Y-64000D01*
X29000Y-49500D02*
X28200Y-49500D01*
X135900Y-64000D02*
X135800Y-64000D01*
X135900Y-49500D02*
X135900Y-64000D01*
X135800Y-49500D02*
X135900Y-49500D01*
X135800Y-49500D02*
X135100Y-49500D01*
X135100Y-64000D02*
X135800Y-64000D01*
X29000Y-64000D02*
X29100Y-64000D01*
X29000Y-64000D02*
X135100Y-64000D01*
X29000Y-49500D02*
X135100Y-49500D01*
%LPC*%
G54D12*
X129300Y-57700D03*
G54D13*
X129300Y-55700D03*
G54D12*
X34800Y-57700D03*
G54D13*
X34800Y-55700D03*
G54D14*
X30000Y-53200D03*
G54D15*
X31000Y-53200D03*
X30000Y-54200D03*
X31000Y-54200D03*
X30000Y-55200D03*
X31000Y-55200D03*
X30000Y-56200D03*
X31000Y-56200D03*
X30000Y-57200D03*
X31000Y-57200D03*
X30000Y-58200D03*
X31000Y-58200D03*
X30000Y-59200D03*
X31000Y-59200D03*
X30000Y-60200D03*
X31000Y-60200D03*
G54D14*
X133100Y-53200D03*
G54D15*
X134100Y-53200D03*
X133100Y-54200D03*
X134100Y-54200D03*
X133100Y-55200D03*
X134100Y-55200D03*
X133100Y-56200D03*
X134100Y-56200D03*
X133100Y-57200D03*
X134100Y-57200D03*
X133100Y-58200D03*
X134100Y-58200D03*
X133100Y-59200D03*
X134100Y-59200D03*
X133100Y-60200D03*
X134100Y-60200D03*
G54D16*
X56500Y-58000D03*
G54D17*
X56500Y-60000D03*
X58500Y-60000D03*
X58500Y-58000D03*
G54D16*
X56500Y-53500D03*
G54D17*
X56500Y-55500D03*
X58500Y-55500D03*
X58500Y-53500D03*
G54D16*
X38500Y-53500D03*
G54D17*
X38500Y-55500D03*
X40500Y-55500D03*
X40500Y-53500D03*
G54D16*
X38500Y-58000D03*
G54D17*
X38500Y-60000D03*
X40500Y-60000D03*
X40500Y-58000D03*
G54D16*
X45000Y-55500D03*
G54D17*
X45000Y-53500D03*
X43000Y-53500D03*
X43000Y-55500D03*
G54D16*
X45000Y-60000D03*
G54D17*
X45000Y-58000D03*
X43000Y-58000D03*
X43000Y-60000D03*
G54D14*
X83100Y-55000D03*
G54D15*
X83100Y-56000D03*
X82100Y-55000D03*
X82100Y-56000D03*
X81100Y-55000D03*
X81100Y-56000D03*
X86100Y-51975D03*
X88650Y-51975D03*
X86100Y-53725D03*
X88650Y-53725D03*
X80700Y-51975D03*
X83250Y-51975D03*
X80700Y-53725D03*
X83250Y-53725D03*
X75300Y-51975D03*
X77850Y-51975D03*
X75300Y-53725D03*
X77850Y-53725D03*
G54D18*
X79800Y-52800D03*
G54D19*
X78800Y-52800D03*
G54D17*
X89100Y-60100D03*
X85100Y-59100D03*
X89100Y-58100D03*
G54D20*
X36650Y-51750D03*
X127450Y-61750D03*
X127450Y-51750D03*
X95300Y-61750D03*
X95300Y-51750D03*
X68800Y-61750D03*
X68800Y-51750D03*
X36650Y-61750D03*
G54D16*
X47500Y-58000D03*
G54D17*
X47500Y-60000D03*
X49500Y-60000D03*
X49500Y-58000D03*
G54D16*
X47500Y-53500D03*
G54D17*
X47500Y-55500D03*
X49500Y-55500D03*
X49500Y-53500D03*
G54D16*
X54000Y-55500D03*
G54D17*
X54000Y-53500D03*
X52000Y-53500D03*
X52000Y-55500D03*
G54D16*
X54000Y-60000D03*
G54D17*
X54000Y-58000D03*
X52000Y-58000D03*
X52000Y-60000D03*
G54D16*
X63000Y-55500D03*
G54D17*
X63000Y-53500D03*
X61000Y-53500D03*
X61000Y-55500D03*
G54D16*
X63000Y-60000D03*
G54D17*
X63000Y-58000D03*
X61000Y-58000D03*
X61000Y-60000D03*
G54D16*
X65500Y-58000D03*
G54D17*
X65500Y-60000D03*
X67500Y-60000D03*
X67500Y-58000D03*
G54D16*
X65500Y-53500D03*
G54D17*
X65500Y-55500D03*
X67500Y-55500D03*
X67500Y-53500D03*
G54D16*
X72000Y-55500D03*
G54D17*
X72000Y-53500D03*
X70000Y-53500D03*
X70000Y-55500D03*
G54D16*
X72000Y-60000D03*
G54D17*
X72000Y-58000D03*
X70000Y-58000D03*
X70000Y-60000D03*
G54D16*
X92100Y-58000D03*
G54D17*
X92100Y-60000D03*
X94100Y-60000D03*
X94100Y-58000D03*
G54D16*
X92100Y-53500D03*
G54D17*
X92100Y-55500D03*
X94100Y-55500D03*
X94100Y-53500D03*
G54D16*
X98600Y-55500D03*
G54D17*
X98600Y-53500D03*
X96600Y-53500D03*
X96600Y-55500D03*
G54D16*
X98600Y-60000D03*
G54D17*
X98600Y-58000D03*
X96600Y-58000D03*
X96600Y-60000D03*
G54D16*
X101100Y-58000D03*
G54D17*
X101100Y-60000D03*
X103100Y-60000D03*
X103100Y-58000D03*
G54D16*
X101100Y-53500D03*
G54D17*
X101100Y-55500D03*
X103100Y-55500D03*
X103100Y-53500D03*
G54D16*
X107600Y-55500D03*
G54D17*
X107600Y-53500D03*
X105600Y-53500D03*
X105600Y-55500D03*
G54D16*
X107600Y-60000D03*
G54D17*
X107600Y-58000D03*
X105600Y-58000D03*
X105600Y-60000D03*
G54D16*
X110100Y-58000D03*
G54D17*
X110100Y-60000D03*
X112100Y-60000D03*
X112100Y-58000D03*
G54D16*
X110100Y-53500D03*
G54D17*
X110100Y-55500D03*
X112100Y-55500D03*
X112100Y-53500D03*
G54D16*
X116600Y-55500D03*
G54D17*
X116600Y-53500D03*
X114600Y-53500D03*
X114600Y-55500D03*
G54D16*
X116600Y-60000D03*
G54D17*
X116600Y-58000D03*
X114600Y-58000D03*
X114600Y-60000D03*
G54D16*
X119100Y-58000D03*
G54D17*
X119100Y-60000D03*
X121100Y-60000D03*
X121100Y-58000D03*
G54D16*
X119100Y-53500D03*
G54D17*
X119100Y-55500D03*
X121100Y-55500D03*
X121100Y-53500D03*
G54D16*
X125600Y-55500D03*
G54D17*
X125600Y-53500D03*
X123600Y-53500D03*
X123600Y-55500D03*
G54D16*
X125600Y-60000D03*
G54D17*
X125600Y-58000D03*
X123600Y-58000D03*
X123600Y-60000D03*
G54D14*
X134100Y-61700D03*
G54D15*
X131100Y-61700D03*
G54D14*
X30000Y-61700D03*
G54D15*
X33000Y-61700D03*
G54D21*
X76000Y-55400D03*
X76000Y-56000D03*
X76000Y-57300D03*
X76000Y-57900D03*
X76000Y-59800D03*
X76000Y-59200D03*
X77300Y-59200D03*
X77300Y-59800D03*
G54D22*
X77000Y-58200D03*
X77600Y-58200D03*
X77000Y-57000D03*
X77600Y-57000D03*
G54D21*
X77300Y-55400D03*
X77300Y-56000D03*
G54D14*
X133100Y-51600D03*
G54D15*
X134100Y-51600D03*
M02*
