M48
INCH,TZ
T1C0.025
T2C0.032
T3C0.039
T4C0.040
T5C0.050
T6C0.120
%
G90
G05
T1
X072952Y-054828
X073950Y-058515
X074109Y-057816
X074118Y-055286
X074584Y-060850
X075086Y-061350
X075996Y-057162
X076593Y-056550
X076789Y-057755
X077185Y-058177
X077325Y-059388
X077732Y-057446
X077740Y-056051
X077740Y-059420
X079145Y-056593
X079330Y-058444
X079631Y-059417
X079919Y-059027
X080268Y-060452
X082291Y-053071
X083300Y-052626
X083816Y-056422
X083945Y-056008
X084600Y-056861
X087421Y-057950
X087800Y-050900
X088184Y-054116
X088421Y-056858
X090543Y-055692
X092647Y-056674
X093005Y-056313
T2
X078800Y-052400
X079800Y-052400
T3
X033600Y-055200
X033600Y-058200
X038500Y-053500
X038500Y-055500
X038500Y-058000
X038500Y-060000
X040500Y-053500
X040500Y-055500
X040500Y-058000
X040500Y-060000
X043000Y-053500
X043000Y-055500
X043000Y-058000
X043000Y-060000
X045000Y-053500
X045000Y-055500
X045000Y-058000
X045000Y-060000
X047500Y-053500
X047500Y-055500
X047500Y-058000
X047500Y-060000
X049500Y-053500
X049500Y-055500
X049500Y-058000
X049500Y-060000
X052000Y-053500
X052000Y-055500
X052000Y-058000
X052000Y-060000
X054000Y-053500
X054000Y-055500
X054000Y-058000
X054000Y-060000
X056500Y-053500
X056500Y-055500
X056500Y-058000
X056500Y-060000
X058500Y-053500
X058500Y-055500
X058500Y-058000
X058500Y-060000
X061000Y-053500
X061000Y-055500
X061000Y-058000
X061000Y-060000
X063000Y-053500
X063000Y-055500
X063000Y-058000
X063000Y-060000
X065500Y-053500
X065500Y-055500
X065500Y-058000
X065500Y-060000
X067500Y-053500
X067500Y-055500
X067500Y-058000
X067500Y-060000
X070000Y-053500
X070000Y-055500
X070000Y-058000
X070000Y-060000
X072000Y-053500
X072000Y-055500
X072000Y-058000
X072000Y-060000
X092000Y-053500
X092000Y-055500
X092000Y-058000
X092000Y-060000
X094000Y-053500
X094000Y-055500
X094000Y-058000
X094000Y-060000
X096500Y-053500
X096500Y-055500
X096500Y-058000
X096500Y-060000
X098500Y-053500
X098500Y-055500
X098500Y-058000
X098500Y-060000
X100900Y-053500
X100900Y-055500
X100900Y-058000
X100900Y-060000
X102900Y-053500
X102900Y-055500
X102900Y-058000
X102900Y-060000
X105500Y-053500
X105500Y-055500
X105500Y-058000
X105500Y-060000
X107500Y-053500
X107500Y-055500
X107500Y-058000
X107500Y-060000
X110000Y-053500
X110000Y-055500
X110000Y-058000
X110000Y-060000
X112000Y-053500
X112000Y-055500
X112000Y-058000
X112000Y-060000
X114600Y-053500
X114600Y-055500
X114600Y-058000
X114600Y-060000
X116600Y-053500
X116600Y-055500
X116600Y-058000
X116600Y-060000
X119000Y-053500
X119000Y-055500
X119000Y-058000
X119000Y-060000
X121000Y-053500
X121000Y-055500
X121000Y-058000
X121000Y-060000
X123500Y-053500
X123500Y-055500
X123500Y-058000
X123500Y-060000
X125500Y-053500
X125500Y-055500
X125500Y-058000
X125500Y-060000
X130500Y-055200
X130500Y-058200
T4
X027800Y-053200
X027800Y-054200
X027800Y-055200
X027800Y-056200
X027800Y-057200
X027800Y-058200
X027800Y-059200
X027800Y-060200
X028800Y-053200
X028800Y-054200
X028800Y-055200
X028800Y-056200
X028800Y-057200
X028800Y-058200
X028800Y-059200
X028800Y-060200
X075300Y-051575
X075300Y-053325
X077850Y-051575
X077850Y-053325
X080700Y-051575
X080700Y-053325
X081100Y-055200
X081100Y-056200
X082100Y-055200
X082100Y-056200
X083100Y-055200
X083100Y-056200
X083250Y-051575
X083250Y-053325
X086100Y-051575
X086100Y-053325
X088650Y-051575
X088650Y-053325
X135300Y-053200
X135300Y-054200
X135300Y-055200
X135300Y-056200
X135300Y-057200
X135300Y-058200
X135300Y-059200
X135300Y-060200
X136300Y-053200
X136300Y-054200
X136300Y-055200
X136300Y-056200
X136300Y-057200
X136300Y-058200
X136300Y-059200
X136300Y-060200
T5
X085100Y-059100
X089100Y-058100
X089100Y-060100
T6
X036500Y-052000
X036500Y-061500
X068500Y-052000
X068500Y-061500
X095500Y-052000
X095500Y-061500
X127500Y-052000
X127500Y-061500
T0
M30
