M48
INCH,TZ
T1C0.025
T2C0.032
T3C0.039
T4C0.040
T5C0.050
T6C0.120
%
G90
G05
T1
X073400Y-055294
X075401Y-061220
X075628Y-061982
X075684Y-056887
X075785Y-058778
X075854Y-056404
X075920Y-058307
X076610Y-056407
X076670Y-055656
X076728Y-059741
X077045Y-053496
X077225Y-057643
X077403Y-054709
X077689Y-057512
X077819Y-054278
X077911Y-052306
X077918Y-060287
X078535Y-060774
X079152Y-060647
X079800Y-058323
X080211Y-059199
X080225Y-059656
X080334Y-055509
X082225Y-053112
X082682Y-053713
X083735Y-057125
X083864Y-060175
X084417Y-060124
X086526Y-060124
X086618Y-052053
X087800Y-050900
X087838Y-057200
X088440Y-062350
X088519Y-061592
X090668Y-056307
X090972Y-055537
X132251Y-051622
T2
X030000Y-061700
X033000Y-061700
X078800Y-052400
X079800Y-052400
X131100Y-061700
X134100Y-061700
T3
X038500Y-053500
X038500Y-055500
X038500Y-058000
X038500Y-060000
X040500Y-053500
X040500Y-055500
X040500Y-058000
X040500Y-060000
X043000Y-053500
X043000Y-055500
X043000Y-058000
X043000Y-060000
X045000Y-053500
X045000Y-055500
X045000Y-058000
X045000Y-060000
X047500Y-053500
X047500Y-055500
X047500Y-058000
X047500Y-060000
X049500Y-053500
X049500Y-055500
X049500Y-058000
X049500Y-060000
X052000Y-053500
X052000Y-055500
X052000Y-058000
X052000Y-060000
X054000Y-053500
X054000Y-055500
X054000Y-058000
X054000Y-060000
X056500Y-053500
X056500Y-055500
X056500Y-058000
X056500Y-060000
X058500Y-053500
X058500Y-055500
X058500Y-058000
X058500Y-060000
X061000Y-053500
X061000Y-055500
X061000Y-058000
X061000Y-060000
X063000Y-053500
X063000Y-055500
X063000Y-058000
X063000Y-060000
X065500Y-053500
X065500Y-055500
X065515Y-057471
X065515Y-059471
X067500Y-053500
X067500Y-055500
X067515Y-057471
X067515Y-059471
X070000Y-053500
X070000Y-055500
X070000Y-058000
X070000Y-060000
X072000Y-053500
X072000Y-055500
X072000Y-058000
X072000Y-060000
X092000Y-053500
X092000Y-055500
X092000Y-058000
X092000Y-060000
X094000Y-053500
X094000Y-055500
X094000Y-058000
X094000Y-060000
X096500Y-053500
X096500Y-055500
X096500Y-058000
X096500Y-060000
X098500Y-053500
X098500Y-055500
X098500Y-058000
X098500Y-060000
X100900Y-053500
X100900Y-055500
X100900Y-058000
X100900Y-060000
X102900Y-053500
X102900Y-055500
X102900Y-058000
X102900Y-060000
X105500Y-053500
X105500Y-055500
X105500Y-058000
X105500Y-060000
X107500Y-053500
X107500Y-055500
X107500Y-058000
X107500Y-060000
X110000Y-053500
X110000Y-055500
X110000Y-058000
X110000Y-060000
X112000Y-053500
X112000Y-055500
X112000Y-058000
X112000Y-060000
X114600Y-053500
X114600Y-055500
X114600Y-058000
X114600Y-060000
X116600Y-053500
X116600Y-055500
X116600Y-058000
X116600Y-060000
X119000Y-053500
X119000Y-055500
X119000Y-058000
X119000Y-060000
X121000Y-053500
X121000Y-055500
X121000Y-058000
X121000Y-060000
X123500Y-053500
X123500Y-055500
X123500Y-058000
X123500Y-060000
X125500Y-053500
X125500Y-055500
X125500Y-058000
X125500Y-060000
T4
X030000Y-053200
X030000Y-054200
X030000Y-055200
X030000Y-056200
X030000Y-057200
X030000Y-058200
X030000Y-059200
X030000Y-060200
X031000Y-053200
X031000Y-054200
X031000Y-055200
X031000Y-056200
X031000Y-057200
X031000Y-058200
X031000Y-059200
X031000Y-060200
X034800Y-055700
X034800Y-057700
X075300Y-051575
X075300Y-053325
X077850Y-051575
X077850Y-053325
X080700Y-051575
X080700Y-053325
X081100Y-055000
X081100Y-056000
X082100Y-055000
X082100Y-056000
X083100Y-055000
X083100Y-056000
X083250Y-051575
X083250Y-053325
X086100Y-051575
X086100Y-053325
X088650Y-051575
X088650Y-053325
X129300Y-055700
X129300Y-057700
X133100Y-051600
X133100Y-053200
X133100Y-054200
X133100Y-055200
X133100Y-056200
X133100Y-057200
X133100Y-058200
X133100Y-059200
X133100Y-060200
X134100Y-051600
X134100Y-053200
X134100Y-054200
X134100Y-055200
X134100Y-056200
X134100Y-057200
X134100Y-058200
X134100Y-059200
X134100Y-060200
T5
X085100Y-059100
X089100Y-058100
X089100Y-060100
T6
X036500Y-052000
X036500Y-061500
X068500Y-052000
X068500Y-061500
X095500Y-052000
X095500Y-061500
X127500Y-052000
X127500Y-061500
T0
M30
