M48
INCH,TZ
T1C0.025
T2C0.039
T3C0.040
T4C0.050
T5C0.120
%
G90
G05
T1
X032870Y-054567
X033771Y-051108
X069245Y-057141
X073200Y-060260
X073250Y-056618
X073526Y-058783
X073963Y-054559
X074689Y-054419
X075502Y-058146
X075815Y-058781
X075987Y-056407
X076704Y-058659
X076820Y-059527
X077096Y-056496
X077122Y-052321
X077622Y-056417
X078813Y-060281
X079135Y-054903
X079314Y-058365
X079422Y-056181
X079725Y-060466
X079779Y-058391
X080145Y-054012
X080166Y-052796
X080211Y-059644
X080373Y-056885
X080586Y-053064
X082836Y-052428
X083822Y-059556
X084141Y-057756
X084425Y-054335
X084844Y-058102
X085200Y-051200
X086077Y-057470
X086113Y-058912
X086569Y-058891
X087400Y-052900
X087696Y-057644
X087900Y-056200
X088102Y-056641
X090461Y-059297
T2
X038500Y-053500
X038500Y-055500
X038500Y-058000
X038500Y-060000
X040500Y-053500
X040500Y-055500
X040500Y-058000
X040500Y-060000
X043000Y-053500
X043000Y-055500
X043000Y-058000
X043000Y-060000
X045000Y-053500
X045000Y-055500
X045000Y-058000
X045000Y-060000
X047500Y-053500
X047500Y-055500
X047500Y-058000
X047500Y-060000
X049500Y-053500
X049500Y-055500
X049500Y-058000
X049500Y-060000
X052000Y-053500
X052000Y-055500
X052000Y-058000
X052000Y-060000
X054000Y-053500
X054000Y-055500
X054000Y-058000
X054000Y-060000
X056500Y-053500
X056500Y-055500
X056500Y-058000
X056500Y-060000
X058500Y-053500
X058500Y-055500
X058500Y-058000
X058500Y-060000
X061000Y-053500
X061000Y-055500
X061000Y-058000
X061000Y-060000
X063000Y-053500
X063000Y-055500
X063000Y-058000
X063000Y-060000
X065500Y-053500
X065500Y-055500
X065500Y-058000
X065500Y-060000
X067500Y-053500
X067500Y-055500
X067500Y-058000
X067500Y-060000
X070000Y-053500
X070000Y-055500
X070000Y-058000
X070000Y-060000
X072000Y-053500
X072000Y-055500
X072000Y-058000
X072000Y-060000
X092100Y-053500
X092100Y-055500
X092100Y-058000
X092100Y-060000
X094100Y-053500
X094100Y-055500
X094100Y-058000
X094100Y-060000
X096600Y-053500
X096600Y-055500
X096600Y-058000
X096600Y-060000
X098600Y-053500
X098600Y-055500
X098600Y-058000
X098600Y-060000
X101100Y-053500
X101100Y-055500
X101100Y-058000
X101100Y-060000
X103100Y-053500
X103100Y-055500
X103100Y-058000
X103100Y-060000
X105600Y-053500
X105600Y-055500
X105600Y-058000
X105600Y-060000
X107600Y-053500
X107600Y-055500
X107600Y-058000
X107600Y-060000
X110100Y-053500
X110100Y-055500
X110100Y-058000
X110100Y-060000
X112100Y-053500
X112100Y-055500
X112100Y-058000
X112100Y-060000
X114600Y-053500
X114600Y-055500
X114600Y-058000
X114600Y-060000
X116600Y-053500
X116600Y-055500
X116600Y-058000
X116600Y-060000
X119100Y-053500
X119100Y-055500
X119100Y-058000
X119100Y-060000
X121100Y-053500
X121100Y-055500
X121100Y-058000
X121100Y-060000
X123600Y-053500
X123600Y-055500
X123600Y-058000
X123600Y-060000
X125600Y-053500
X125600Y-055500
X125600Y-058000
X125600Y-060000
T3
X030000Y-053200
X030000Y-054200
X030000Y-055200
X030000Y-056200
X030000Y-057200
X030000Y-058200
X030000Y-059200
X030000Y-060200
X031000Y-053200
X031000Y-054200
X031000Y-055200
X031000Y-056200
X031000Y-057200
X031000Y-058200
X031000Y-059200
X031000Y-060200
X034800Y-055700
X034800Y-057700
X075300Y-051975
X075300Y-053725
X077850Y-051975
X077850Y-053725
X080700Y-051975
X080700Y-053725
X081100Y-055100
X081100Y-056100
X082100Y-055100
X082100Y-056100
X083100Y-055100
X083100Y-056100
X083250Y-051975
X083250Y-053725
X086100Y-051975
X086100Y-053725
X088650Y-051975
X088650Y-053725
X129300Y-055700
X129300Y-057700
X130600Y-051500
X130600Y-052500
X133100Y-053200
X133100Y-054200
X133100Y-055200
X133100Y-056200
X133100Y-057200
X133100Y-058200
X133100Y-059200
X133100Y-060200
X134100Y-053200
X134100Y-054200
X134100Y-055200
X134100Y-056200
X134100Y-057200
X134100Y-058200
X134100Y-059200
X134100Y-060200
T4
X085100Y-059100
X089100Y-058100
X089100Y-060100
T5
X036650Y-051750
X036650Y-061750
X068800Y-051750
X095300Y-051750
X127450Y-051750
X127450Y-061750
T0
M30
