M48
INCH,TZ
T1C0.025
T2C0.032
T3C0.039
T4C0.040
T5C0.050
T6C0.120
%
G05
T1
X029544Y-056699
X059751Y-056259
X071714Y-054746
X071886Y-058317
X072321Y-056536
X072516Y-062037
X073452Y-056373
X073719Y-059504
X073906Y-056346
X073961Y-054780
X074227Y-058215
X075032Y-058237
X075357Y-052199
X075915Y-057562
X076673Y-058455
X077150Y-061723
X077482Y-056205
X078078Y-062521
X078126Y-052737
X078237Y-055640
X078311Y-058498
X078347Y-060249
X078515Y-061742
X078516Y-057860
X078699Y-059076
X078721Y-059733
X080000Y-056600
X080144Y-061626
X080147Y-058854
X080172Y-059661
X080197Y-058291
X080204Y-060939
X081428Y-057060
X081702Y-060736
X082000Y-057100
X082137Y-059980
X083887Y-059188
X084084Y-059798
X084368Y-061669
X087295Y-054583
X090654Y-054753
X134270Y-057237
T2
X027800Y-053200
X027800Y-054200
X027800Y-055200
X027800Y-056200
X027800Y-057200
X027800Y-058200
X027800Y-059200
X027800Y-060200
X078800Y-052400
X079800Y-052400
X136300Y-053200
X136300Y-054200
X136300Y-055200
X136300Y-056200
X136300Y-057200
X136300Y-058200
X136300Y-059200
X136300Y-060200
T3
X033600Y-055200
X033600Y-058200
X039499Y-053500
X039499Y-055500
X039500Y-058000
X039500Y-060000
X044000Y-053500
X044000Y-055500
X044000Y-058000
X044000Y-060000
X048500Y-053500
X048500Y-055500
X048500Y-058000
X048500Y-060000
X053000Y-053500
X053000Y-055500
X053000Y-058000
X053000Y-060000
X057500Y-053500
X057500Y-055500
X057500Y-058000
X057500Y-060000
X062000Y-053500
X062000Y-055500
X062000Y-058000
X062000Y-060000
X066500Y-053500
X066500Y-055500
X066500Y-058000
X066500Y-060000
X071000Y-053500
X071000Y-055500
X071000Y-058000
X071000Y-060000
X093000Y-053500
X093000Y-055500
X093000Y-058000
X093000Y-060000
X097500Y-053500
X097500Y-055500
X097500Y-058000
X097500Y-060000
X102000Y-053500
X102000Y-055500
X102000Y-058000
X102000Y-060000
X106500Y-053500
X106500Y-055500
X106500Y-058000
X106500Y-060000
X111000Y-053500
X111000Y-055500
X111000Y-057900
X111000Y-059900
X115600Y-053500
X115600Y-055500
X115600Y-058000
X115600Y-060000
X120000Y-053500
X120000Y-055500
X120000Y-058000
X120000Y-060000
X124500Y-053500
X124500Y-055500
X124500Y-058000
X124500Y-060000
X130500Y-055200
X130500Y-058200
T4
X074700Y-059900
X074700Y-060900
X075300Y-051575
X075300Y-053325
X075700Y-059900
X075700Y-060900
X076700Y-059900
X076700Y-060900
X077850Y-051575
X077850Y-053325
X080700Y-051575
X080700Y-053325
X083250Y-051575
X083250Y-053325
X084800Y-055200
X084800Y-056200
X084800Y-057200
X085800Y-055200
X085800Y-056200
X085800Y-057200
X086100Y-051575
X086100Y-053325
X086800Y-055200
X086800Y-056200
X086800Y-057200
X087800Y-055200
X087800Y-056200
X087800Y-057200
X088650Y-051575
X088650Y-053325
X088800Y-055200
X088800Y-056200
X088800Y-057200
X089800Y-055200
X089800Y-056200
X089800Y-057200
T5
X085100Y-060200
X089100Y-059200
X089100Y-061200
T6
X036500Y-052000
X036500Y-061500
X068500Y-052000
X068500Y-061500
X095500Y-052000
X095500Y-061500
X127500Y-052000
X127500Y-061500
T0
M30
