G04 (created by PCBNEW-RS274X (2011-aug-04)-stable) date Fri 12 Aug 2011 06:26:45 AM CEST*
G01*
G70*
G90*
%MOIN*%
G04 Gerber Fmt 3.4, Leading zero omitted, Abs format*
%FSLAX34Y34*%
G04 APERTURE LIST*
%ADD10C,0.010000*%
%ADD11C,0.015000*%
%ADD12C,0.008000*%
%ADD13C,0.000100*%
%ADD14C,0.005000*%
%ADD15C,0.004500*%
%ADD16R,0.070000X0.070000*%
%ADD17C,0.070000*%
%ADD18R,0.060000X0.060000*%
%ADD19C,0.060000*%
%ADD20R,0.080000X0.080000*%
%ADD21C,0.080000*%
%ADD22R,0.055000X0.055000*%
%ADD23C,0.055000*%
%ADD24C,0.160000*%
%ADD25R,0.045000X0.025000*%
%ADD26R,0.025000X0.045000*%
G04 APERTURE END LIST*
G54D10*
G54D11*
X102400Y-51800D02*
X119600Y-51800D01*
X118300Y-50900D02*
X118300Y-52700D01*
X119600Y-52700D02*
X102400Y-52700D01*
X102400Y-50900D02*
X119600Y-50900D01*
X119600Y-50900D02*
X119600Y-52700D01*
X116400Y-50900D02*
X116400Y-52700D01*
X113400Y-50900D02*
X113400Y-52700D01*
X111500Y-50900D02*
X111500Y-52700D01*
X109700Y-52700D02*
X109700Y-50900D01*
X106700Y-52700D02*
X106700Y-50900D01*
X104100Y-50900D02*
X104100Y-52700D01*
X102100Y-50600D02*
X103200Y-50600D01*
X102100Y-51800D02*
X102100Y-50600D01*
X102400Y-50900D02*
X102400Y-52700D01*
G54D12*
X119376Y-52002D02*
X119210Y-52502D01*
X119043Y-52002D01*
X118876Y-52312D02*
X118495Y-52312D01*
X118685Y-52502D02*
X118685Y-52121D01*
X119376Y-51102D02*
X119210Y-51602D01*
X119043Y-51102D01*
X118876Y-51412D02*
X118495Y-51412D01*
X118685Y-51602D02*
X118685Y-51221D01*
X117681Y-52026D02*
X117729Y-52002D01*
X117800Y-52002D01*
X117872Y-52026D01*
X117919Y-52074D01*
X117943Y-52121D01*
X117967Y-52217D01*
X117967Y-52288D01*
X117943Y-52383D01*
X117919Y-52431D01*
X117872Y-52479D01*
X117800Y-52502D01*
X117752Y-52502D01*
X117681Y-52479D01*
X117657Y-52455D01*
X117657Y-52288D01*
X117752Y-52288D01*
X117443Y-52502D02*
X117443Y-52002D01*
X117157Y-52502D01*
X117157Y-52002D01*
X116919Y-52502D02*
X116919Y-52002D01*
X116800Y-52002D01*
X116728Y-52026D01*
X116681Y-52074D01*
X116657Y-52121D01*
X116633Y-52217D01*
X116633Y-52288D01*
X116657Y-52383D01*
X116681Y-52431D01*
X116728Y-52479D01*
X116800Y-52502D01*
X116919Y-52502D01*
X117681Y-51126D02*
X117729Y-51102D01*
X117800Y-51102D01*
X117872Y-51126D01*
X117919Y-51174D01*
X117943Y-51221D01*
X117967Y-51317D01*
X117967Y-51388D01*
X117943Y-51483D01*
X117919Y-51531D01*
X117872Y-51579D01*
X117800Y-51602D01*
X117752Y-51602D01*
X117681Y-51579D01*
X117657Y-51555D01*
X117657Y-51388D01*
X117752Y-51388D01*
X117443Y-51602D02*
X117443Y-51102D01*
X117157Y-51602D01*
X117157Y-51102D01*
X116919Y-51602D02*
X116919Y-51102D01*
X116800Y-51102D01*
X116728Y-51126D01*
X116681Y-51174D01*
X116657Y-51221D01*
X116633Y-51317D01*
X116633Y-51388D01*
X116657Y-51483D01*
X116681Y-51531D01*
X116728Y-51579D01*
X116800Y-51602D01*
X116919Y-51602D01*
X115852Y-52502D02*
X116019Y-52264D01*
X116138Y-52502D02*
X116138Y-52002D01*
X115947Y-52002D01*
X115900Y-52026D01*
X115876Y-52050D01*
X115852Y-52098D01*
X115852Y-52169D01*
X115876Y-52217D01*
X115900Y-52240D01*
X115947Y-52264D01*
X116138Y-52264D01*
X115686Y-52002D02*
X115352Y-52502D01*
X115352Y-52002D02*
X115686Y-52502D01*
X115281Y-52550D02*
X114900Y-52550D01*
X114543Y-52502D02*
X114781Y-52502D01*
X114781Y-52002D01*
X114376Y-52240D02*
X114209Y-52240D01*
X114138Y-52502D02*
X114376Y-52502D01*
X114376Y-52002D01*
X114138Y-52002D01*
X113924Y-52502D02*
X113924Y-52002D01*
X113805Y-52002D01*
X113733Y-52026D01*
X113686Y-52074D01*
X113662Y-52121D01*
X113638Y-52217D01*
X113638Y-52288D01*
X113662Y-52383D01*
X113686Y-52431D01*
X113733Y-52479D01*
X113805Y-52502D01*
X113924Y-52502D01*
X115174Y-51079D02*
X115602Y-51721D01*
X115007Y-51340D02*
X114840Y-51340D01*
X114769Y-51602D02*
X115007Y-51602D01*
X115007Y-51102D01*
X114769Y-51102D01*
X114555Y-51602D02*
X114555Y-51102D01*
X114269Y-51602D01*
X114269Y-51102D01*
X113019Y-52502D02*
X113019Y-52002D01*
X112828Y-52002D01*
X112781Y-52026D01*
X112757Y-52050D01*
X112733Y-52098D01*
X112733Y-52169D01*
X112757Y-52217D01*
X112781Y-52240D01*
X112828Y-52264D01*
X113019Y-52264D01*
X112352Y-52240D02*
X112281Y-52264D01*
X112257Y-52288D01*
X112233Y-52336D01*
X112233Y-52407D01*
X112257Y-52455D01*
X112281Y-52479D01*
X112328Y-52502D01*
X112519Y-52502D01*
X112519Y-52002D01*
X112352Y-52002D01*
X112305Y-52026D01*
X112281Y-52050D01*
X112257Y-52098D01*
X112257Y-52145D01*
X112281Y-52193D01*
X112305Y-52217D01*
X112352Y-52240D01*
X112519Y-52240D01*
X111757Y-52502D02*
X112043Y-52502D01*
X111900Y-52502D02*
X111900Y-52002D01*
X111948Y-52074D01*
X111995Y-52121D01*
X112043Y-52145D01*
X112774Y-51079D02*
X113202Y-51721D01*
X112321Y-51555D02*
X112345Y-51579D01*
X112416Y-51602D01*
X112464Y-51602D01*
X112536Y-51579D01*
X112583Y-51531D01*
X112607Y-51483D01*
X112631Y-51388D01*
X112631Y-51317D01*
X112607Y-51221D01*
X112583Y-51174D01*
X112536Y-51126D01*
X112464Y-51102D01*
X112416Y-51102D01*
X112345Y-51126D01*
X112321Y-51150D01*
X112131Y-51579D02*
X112059Y-51602D01*
X111940Y-51602D01*
X111893Y-51579D01*
X111869Y-51555D01*
X111845Y-51507D01*
X111845Y-51460D01*
X111869Y-51412D01*
X111893Y-51388D01*
X111940Y-51364D01*
X112036Y-51340D01*
X112083Y-51317D01*
X112107Y-51293D01*
X112131Y-51245D01*
X112131Y-51198D01*
X112107Y-51150D01*
X112083Y-51126D01*
X112036Y-51102D01*
X111916Y-51102D01*
X111845Y-51126D01*
X111219Y-52502D02*
X111219Y-52002D01*
X111028Y-52002D01*
X110981Y-52026D01*
X110957Y-52050D01*
X110933Y-52098D01*
X110933Y-52169D01*
X110957Y-52217D01*
X110981Y-52240D01*
X111028Y-52264D01*
X111219Y-52264D01*
X110552Y-52240D02*
X110481Y-52264D01*
X110457Y-52288D01*
X110433Y-52336D01*
X110433Y-52407D01*
X110457Y-52455D01*
X110481Y-52479D01*
X110528Y-52502D01*
X110719Y-52502D01*
X110719Y-52002D01*
X110552Y-52002D01*
X110505Y-52026D01*
X110481Y-52050D01*
X110457Y-52098D01*
X110457Y-52145D01*
X110481Y-52193D01*
X110505Y-52217D01*
X110552Y-52240D01*
X110719Y-52240D01*
X110124Y-52002D02*
X110076Y-52002D01*
X110028Y-52026D01*
X110005Y-52050D01*
X109981Y-52098D01*
X109957Y-52193D01*
X109957Y-52312D01*
X109981Y-52407D01*
X110005Y-52455D01*
X110028Y-52479D01*
X110076Y-52502D01*
X110124Y-52502D01*
X110171Y-52479D01*
X110195Y-52455D01*
X110219Y-52407D01*
X110243Y-52312D01*
X110243Y-52193D01*
X110219Y-52098D01*
X110195Y-52050D01*
X110171Y-52026D01*
X110124Y-52002D01*
X110897Y-51555D02*
X110921Y-51579D01*
X110992Y-51602D01*
X111040Y-51602D01*
X111112Y-51579D01*
X111159Y-51531D01*
X111183Y-51483D01*
X111207Y-51388D01*
X111207Y-51317D01*
X111183Y-51221D01*
X111159Y-51174D01*
X111112Y-51126D01*
X111040Y-51102D01*
X110992Y-51102D01*
X110921Y-51126D01*
X110897Y-51150D01*
X110445Y-51602D02*
X110683Y-51602D01*
X110683Y-51102D01*
X110278Y-51602D02*
X110278Y-51102D01*
X109992Y-51602D02*
X110207Y-51317D01*
X109992Y-51102D02*
X110278Y-51388D01*
X109449Y-52002D02*
X109164Y-52002D01*
X109307Y-52502D02*
X109307Y-52002D01*
X109045Y-52002D02*
X108711Y-52502D01*
X108711Y-52002D02*
X109045Y-52502D01*
X108640Y-52550D02*
X108259Y-52550D01*
X107902Y-52502D02*
X108140Y-52502D01*
X108140Y-52002D01*
X107735Y-52240D02*
X107568Y-52240D01*
X107497Y-52502D02*
X107735Y-52502D01*
X107735Y-52002D01*
X107497Y-52002D01*
X107283Y-52502D02*
X107283Y-52002D01*
X107164Y-52002D01*
X107092Y-52026D01*
X107045Y-52074D01*
X107021Y-52121D01*
X106997Y-52217D01*
X106997Y-52288D01*
X107021Y-52383D01*
X107045Y-52431D01*
X107092Y-52479D01*
X107164Y-52502D01*
X107283Y-52502D01*
X108885Y-51602D02*
X108885Y-51102D01*
X108718Y-51460D01*
X108552Y-51102D01*
X108552Y-51602D01*
X108314Y-51602D02*
X108314Y-51102D01*
X108100Y-51579D02*
X108028Y-51602D01*
X107909Y-51602D01*
X107862Y-51579D01*
X107838Y-51555D01*
X107814Y-51507D01*
X107814Y-51460D01*
X107838Y-51412D01*
X107862Y-51388D01*
X107909Y-51364D01*
X108005Y-51340D01*
X108052Y-51317D01*
X108076Y-51293D01*
X108100Y-51245D01*
X108100Y-51198D01*
X108076Y-51150D01*
X108052Y-51126D01*
X108005Y-51102D01*
X107885Y-51102D01*
X107814Y-51126D01*
X107505Y-51102D02*
X107409Y-51102D01*
X107362Y-51126D01*
X107314Y-51174D01*
X107290Y-51269D01*
X107290Y-51436D01*
X107314Y-51531D01*
X107362Y-51579D01*
X107409Y-51602D01*
X107505Y-51602D01*
X107552Y-51579D01*
X107600Y-51531D01*
X107624Y-51436D01*
X107624Y-51269D01*
X107600Y-51174D01*
X107552Y-51126D01*
X107505Y-51102D01*
X106412Y-52479D02*
X106340Y-52502D01*
X106221Y-52502D01*
X106174Y-52479D01*
X106150Y-52455D01*
X106126Y-52407D01*
X106126Y-52360D01*
X106150Y-52312D01*
X106174Y-52288D01*
X106221Y-52264D01*
X106317Y-52240D01*
X106364Y-52217D01*
X106388Y-52193D01*
X106412Y-52145D01*
X106412Y-52098D01*
X106388Y-52050D01*
X106364Y-52026D01*
X106317Y-52002D01*
X106197Y-52002D01*
X106126Y-52026D01*
X106031Y-52550D02*
X105650Y-52550D01*
X105293Y-52502D02*
X105531Y-52502D01*
X105531Y-52002D01*
X105126Y-52240D02*
X104959Y-52240D01*
X104888Y-52502D02*
X105126Y-52502D01*
X105126Y-52002D01*
X104888Y-52002D01*
X104674Y-52502D02*
X104674Y-52002D01*
X104555Y-52002D01*
X104483Y-52026D01*
X104436Y-52074D01*
X104412Y-52121D01*
X104388Y-52217D01*
X104388Y-52288D01*
X104412Y-52383D01*
X104436Y-52431D01*
X104483Y-52479D01*
X104555Y-52502D01*
X104674Y-52502D01*
X103842Y-52002D02*
X103557Y-52002D01*
X103700Y-52502D02*
X103700Y-52002D01*
X103438Y-52002D02*
X103104Y-52502D01*
X103104Y-52002D02*
X103438Y-52502D01*
X102819Y-52002D02*
X102723Y-52002D01*
X102676Y-52026D01*
X102628Y-52074D01*
X102604Y-52169D01*
X102604Y-52336D01*
X102628Y-52431D01*
X102676Y-52479D01*
X102723Y-52502D01*
X102819Y-52502D01*
X102866Y-52479D01*
X102914Y-52431D01*
X102938Y-52336D01*
X102938Y-52169D01*
X102914Y-52074D01*
X102866Y-52026D01*
X102819Y-52002D01*
X106185Y-51602D02*
X106185Y-51102D01*
X106018Y-51460D01*
X105852Y-51102D01*
X105852Y-51602D01*
X105519Y-51102D02*
X105423Y-51102D01*
X105376Y-51126D01*
X105328Y-51174D01*
X105304Y-51269D01*
X105304Y-51436D01*
X105328Y-51531D01*
X105376Y-51579D01*
X105423Y-51602D01*
X105519Y-51602D01*
X105566Y-51579D01*
X105614Y-51531D01*
X105638Y-51436D01*
X105638Y-51269D01*
X105614Y-51174D01*
X105566Y-51126D01*
X105519Y-51102D01*
X105114Y-51579D02*
X105042Y-51602D01*
X104923Y-51602D01*
X104876Y-51579D01*
X104852Y-51555D01*
X104828Y-51507D01*
X104828Y-51460D01*
X104852Y-51412D01*
X104876Y-51388D01*
X104923Y-51364D01*
X105019Y-51340D01*
X105066Y-51317D01*
X105090Y-51293D01*
X105114Y-51245D01*
X105114Y-51198D01*
X105090Y-51150D01*
X105066Y-51126D01*
X105019Y-51102D01*
X104899Y-51102D01*
X104828Y-51126D01*
X104614Y-51602D02*
X104614Y-51102D01*
X103402Y-51602D02*
X103569Y-51364D01*
X103688Y-51602D02*
X103688Y-51102D01*
X103497Y-51102D01*
X103450Y-51126D01*
X103426Y-51150D01*
X103402Y-51198D01*
X103402Y-51269D01*
X103426Y-51317D01*
X103450Y-51340D01*
X103497Y-51364D01*
X103688Y-51364D01*
X103236Y-51102D02*
X102902Y-51602D01*
X102902Y-51102D02*
X103236Y-51602D01*
X102712Y-51602D02*
X102712Y-51102D01*
G54D13*
G36*
X121636Y-62684D02*
X121648Y-62678D01*
X121673Y-62662D01*
X121710Y-62638D01*
X121753Y-62609D01*
X121797Y-62579D01*
X121832Y-62555D01*
X121857Y-62539D01*
X121868Y-62534D01*
X121873Y-62536D01*
X121894Y-62546D01*
X121924Y-62561D01*
X121941Y-62570D01*
X121969Y-62582D01*
X121982Y-62584D01*
X121985Y-62581D01*
X121995Y-62560D01*
X122010Y-62524D01*
X122031Y-62476D01*
X122055Y-62421D01*
X122080Y-62361D01*
X122106Y-62300D01*
X122130Y-62241D01*
X122151Y-62189D01*
X122168Y-62146D01*
X122180Y-62117D01*
X122184Y-62104D01*
X122183Y-62101D01*
X122169Y-62088D01*
X122145Y-62070D01*
X122093Y-62028D01*
X122042Y-61964D01*
X122011Y-61891D01*
X122000Y-61811D01*
X122009Y-61736D01*
X122039Y-61664D01*
X122089Y-61600D01*
X122149Y-61552D01*
X122220Y-61521D01*
X122300Y-61512D01*
X122376Y-61520D01*
X122449Y-61549D01*
X122514Y-61598D01*
X122541Y-61630D01*
X122579Y-61695D01*
X122600Y-61765D01*
X122603Y-61783D01*
X122599Y-61860D01*
X122577Y-61933D01*
X122536Y-61999D01*
X122480Y-62053D01*
X122473Y-62059D01*
X122446Y-62078D01*
X122429Y-62092D01*
X122415Y-62103D01*
X122513Y-62339D01*
X122529Y-62376D01*
X122556Y-62441D01*
X122579Y-62496D01*
X122598Y-62540D01*
X122611Y-62570D01*
X122617Y-62582D01*
X122618Y-62582D01*
X122626Y-62584D01*
X122644Y-62577D01*
X122677Y-62561D01*
X122699Y-62550D01*
X122724Y-62538D01*
X122735Y-62534D01*
X122745Y-62539D01*
X122769Y-62554D01*
X122804Y-62578D01*
X122846Y-62607D01*
X122886Y-62634D01*
X122923Y-62658D01*
X122950Y-62675D01*
X122963Y-62682D01*
X122965Y-62682D01*
X122977Y-62676D01*
X122998Y-62658D01*
X123030Y-62628D01*
X123076Y-62583D01*
X123083Y-62576D01*
X123120Y-62538D01*
X123150Y-62506D01*
X123171Y-62484D01*
X123178Y-62473D01*
X123178Y-62473D01*
X123171Y-62460D01*
X123154Y-62434D01*
X123130Y-62396D01*
X123100Y-62352D01*
X123022Y-62239D01*
X123065Y-62132D01*
X123078Y-62099D01*
X123095Y-62059D01*
X123107Y-62031D01*
X123113Y-62018D01*
X123125Y-62014D01*
X123154Y-62007D01*
X123197Y-61998D01*
X123248Y-61989D01*
X123296Y-61980D01*
X123339Y-61972D01*
X123371Y-61966D01*
X123385Y-61963D01*
X123389Y-61961D01*
X123391Y-61954D01*
X123393Y-61939D01*
X123394Y-61913D01*
X123395Y-61871D01*
X123395Y-61811D01*
X123395Y-61804D01*
X123394Y-61746D01*
X123393Y-61701D01*
X123392Y-61671D01*
X123390Y-61659D01*
X123390Y-61659D01*
X123376Y-61656D01*
X123345Y-61649D01*
X123302Y-61641D01*
X123250Y-61631D01*
X123246Y-61630D01*
X123195Y-61620D01*
X123151Y-61611D01*
X123121Y-61604D01*
X123108Y-61600D01*
X123105Y-61596D01*
X123095Y-61576D01*
X123080Y-61544D01*
X123063Y-61505D01*
X123046Y-61464D01*
X123031Y-61428D01*
X123021Y-61400D01*
X123018Y-61388D01*
X123019Y-61388D01*
X123026Y-61375D01*
X123044Y-61348D01*
X123069Y-61311D01*
X123100Y-61267D01*
X123102Y-61264D01*
X123132Y-61220D01*
X123156Y-61183D01*
X123172Y-61156D01*
X123178Y-61144D01*
X123178Y-61144D01*
X123168Y-61131D01*
X123146Y-61106D01*
X123114Y-61072D01*
X123075Y-61034D01*
X123063Y-61022D01*
X123021Y-60980D01*
X122991Y-60953D01*
X122973Y-60938D01*
X122964Y-60935D01*
X122963Y-60935D01*
X122950Y-60943D01*
X122923Y-60961D01*
X122885Y-60987D01*
X122841Y-61017D01*
X122838Y-61019D01*
X122794Y-61049D01*
X122757Y-61074D01*
X122731Y-61091D01*
X122720Y-61098D01*
X122718Y-61098D01*
X122700Y-61092D01*
X122669Y-61081D01*
X122631Y-61067D01*
X122590Y-61050D01*
X122554Y-61035D01*
X122526Y-61022D01*
X122513Y-61015D01*
X122513Y-61014D01*
X122508Y-60999D01*
X122500Y-60966D01*
X122491Y-60921D01*
X122481Y-60867D01*
X122479Y-60858D01*
X122469Y-60806D01*
X122461Y-60763D01*
X122455Y-60733D01*
X122452Y-60721D01*
X122444Y-60719D01*
X122419Y-60717D01*
X122380Y-60716D01*
X122333Y-60716D01*
X122284Y-60716D01*
X122235Y-60717D01*
X122194Y-60719D01*
X122164Y-60721D01*
X122152Y-60723D01*
X122152Y-60724D01*
X122147Y-60740D01*
X122140Y-60773D01*
X122131Y-60818D01*
X122120Y-60872D01*
X122118Y-60882D01*
X122109Y-60934D01*
X122100Y-60976D01*
X122094Y-61006D01*
X122090Y-61017D01*
X122086Y-61020D01*
X122064Y-61029D01*
X122029Y-61044D01*
X121986Y-61061D01*
X121886Y-61102D01*
X121763Y-61017D01*
X121751Y-61010D01*
X121707Y-60980D01*
X121671Y-60955D01*
X121646Y-60939D01*
X121635Y-60933D01*
X121634Y-60934D01*
X121622Y-60944D01*
X121598Y-60967D01*
X121564Y-61000D01*
X121526Y-61038D01*
X121497Y-61067D01*
X121463Y-61101D01*
X121442Y-61124D01*
X121430Y-61139D01*
X121426Y-61148D01*
X121427Y-61154D01*
X121435Y-61167D01*
X121453Y-61194D01*
X121478Y-61231D01*
X121508Y-61275D01*
X121533Y-61311D01*
X121559Y-61352D01*
X121577Y-61382D01*
X121583Y-61396D01*
X121581Y-61402D01*
X121573Y-61426D01*
X121558Y-61463D01*
X121540Y-61506D01*
X121497Y-61603D01*
X121433Y-61616D01*
X121394Y-61623D01*
X121340Y-61633D01*
X121289Y-61643D01*
X121208Y-61659D01*
X121205Y-61955D01*
X121217Y-61961D01*
X121229Y-61964D01*
X121259Y-61971D01*
X121302Y-61979D01*
X121352Y-61989D01*
X121395Y-61997D01*
X121439Y-62005D01*
X121470Y-62011D01*
X121484Y-62014D01*
X121487Y-62018D01*
X121498Y-62039D01*
X121513Y-62073D01*
X121530Y-62113D01*
X121548Y-62154D01*
X121563Y-62193D01*
X121574Y-62222D01*
X121578Y-62237D01*
X121572Y-62248D01*
X121555Y-62274D01*
X121531Y-62310D01*
X121502Y-62353D01*
X121473Y-62396D01*
X121448Y-62433D01*
X121431Y-62459D01*
X121423Y-62471D01*
X121427Y-62480D01*
X121444Y-62500D01*
X121477Y-62534D01*
X121525Y-62582D01*
X121533Y-62589D01*
X121571Y-62626D01*
X121604Y-62656D01*
X121626Y-62676D01*
X121636Y-62684D01*
X121636Y-62684D01*
G37*
G36*
X41036Y-62684D02*
X41048Y-62678D01*
X41073Y-62662D01*
X41110Y-62638D01*
X41153Y-62609D01*
X41197Y-62579D01*
X41232Y-62555D01*
X41257Y-62539D01*
X41268Y-62534D01*
X41273Y-62536D01*
X41294Y-62546D01*
X41324Y-62561D01*
X41341Y-62570D01*
X41369Y-62582D01*
X41382Y-62584D01*
X41385Y-62581D01*
X41395Y-62560D01*
X41410Y-62524D01*
X41431Y-62476D01*
X41455Y-62421D01*
X41480Y-62361D01*
X41506Y-62300D01*
X41530Y-62241D01*
X41551Y-62189D01*
X41568Y-62146D01*
X41580Y-62117D01*
X41584Y-62104D01*
X41583Y-62101D01*
X41569Y-62088D01*
X41545Y-62070D01*
X41493Y-62028D01*
X41442Y-61964D01*
X41411Y-61891D01*
X41400Y-61811D01*
X41409Y-61736D01*
X41439Y-61664D01*
X41489Y-61600D01*
X41549Y-61552D01*
X41620Y-61521D01*
X41700Y-61512D01*
X41776Y-61520D01*
X41849Y-61549D01*
X41914Y-61598D01*
X41941Y-61630D01*
X41979Y-61695D01*
X42000Y-61765D01*
X42003Y-61783D01*
X41999Y-61860D01*
X41977Y-61933D01*
X41936Y-61999D01*
X41880Y-62053D01*
X41873Y-62059D01*
X41846Y-62078D01*
X41829Y-62092D01*
X41815Y-62103D01*
X41913Y-62339D01*
X41929Y-62376D01*
X41956Y-62441D01*
X41979Y-62496D01*
X41998Y-62540D01*
X42011Y-62570D01*
X42017Y-62582D01*
X42018Y-62582D01*
X42026Y-62584D01*
X42044Y-62577D01*
X42077Y-62561D01*
X42099Y-62550D01*
X42124Y-62538D01*
X42135Y-62534D01*
X42145Y-62539D01*
X42169Y-62554D01*
X42204Y-62578D01*
X42246Y-62607D01*
X42286Y-62634D01*
X42323Y-62658D01*
X42350Y-62675D01*
X42363Y-62682D01*
X42365Y-62682D01*
X42377Y-62676D01*
X42398Y-62658D01*
X42430Y-62628D01*
X42476Y-62583D01*
X42483Y-62576D01*
X42520Y-62538D01*
X42550Y-62506D01*
X42571Y-62484D01*
X42578Y-62473D01*
X42578Y-62473D01*
X42571Y-62460D01*
X42554Y-62434D01*
X42530Y-62396D01*
X42500Y-62352D01*
X42422Y-62239D01*
X42465Y-62132D01*
X42478Y-62099D01*
X42495Y-62059D01*
X42507Y-62031D01*
X42513Y-62018D01*
X42525Y-62014D01*
X42554Y-62007D01*
X42597Y-61998D01*
X42648Y-61989D01*
X42696Y-61980D01*
X42739Y-61972D01*
X42771Y-61966D01*
X42785Y-61963D01*
X42789Y-61961D01*
X42791Y-61954D01*
X42793Y-61939D01*
X42794Y-61913D01*
X42795Y-61871D01*
X42795Y-61811D01*
X42795Y-61804D01*
X42794Y-61746D01*
X42793Y-61701D01*
X42792Y-61671D01*
X42790Y-61659D01*
X42790Y-61659D01*
X42776Y-61656D01*
X42745Y-61649D01*
X42702Y-61641D01*
X42650Y-61631D01*
X42646Y-61630D01*
X42595Y-61620D01*
X42551Y-61611D01*
X42521Y-61604D01*
X42508Y-61600D01*
X42505Y-61596D01*
X42495Y-61576D01*
X42480Y-61544D01*
X42463Y-61505D01*
X42446Y-61464D01*
X42431Y-61428D01*
X42421Y-61400D01*
X42418Y-61388D01*
X42419Y-61388D01*
X42426Y-61375D01*
X42444Y-61348D01*
X42469Y-61311D01*
X42500Y-61267D01*
X42502Y-61264D01*
X42532Y-61220D01*
X42556Y-61183D01*
X42572Y-61156D01*
X42578Y-61144D01*
X42578Y-61144D01*
X42568Y-61131D01*
X42546Y-61106D01*
X42514Y-61072D01*
X42475Y-61034D01*
X42463Y-61022D01*
X42421Y-60980D01*
X42391Y-60953D01*
X42373Y-60938D01*
X42364Y-60935D01*
X42363Y-60935D01*
X42350Y-60943D01*
X42323Y-60961D01*
X42285Y-60987D01*
X42241Y-61017D01*
X42238Y-61019D01*
X42194Y-61049D01*
X42157Y-61074D01*
X42131Y-61091D01*
X42120Y-61098D01*
X42118Y-61098D01*
X42100Y-61092D01*
X42069Y-61081D01*
X42031Y-61067D01*
X41990Y-61050D01*
X41954Y-61035D01*
X41926Y-61022D01*
X41913Y-61015D01*
X41913Y-61014D01*
X41908Y-60999D01*
X41900Y-60966D01*
X41891Y-60921D01*
X41881Y-60867D01*
X41879Y-60858D01*
X41869Y-60806D01*
X41861Y-60763D01*
X41855Y-60733D01*
X41852Y-60721D01*
X41844Y-60719D01*
X41819Y-60717D01*
X41780Y-60716D01*
X41733Y-60716D01*
X41684Y-60716D01*
X41635Y-60717D01*
X41594Y-60719D01*
X41564Y-60721D01*
X41552Y-60723D01*
X41552Y-60724D01*
X41547Y-60740D01*
X41540Y-60773D01*
X41531Y-60818D01*
X41520Y-60872D01*
X41518Y-60882D01*
X41509Y-60934D01*
X41500Y-60976D01*
X41494Y-61006D01*
X41490Y-61017D01*
X41486Y-61020D01*
X41464Y-61029D01*
X41429Y-61044D01*
X41386Y-61061D01*
X41286Y-61102D01*
X41163Y-61017D01*
X41151Y-61010D01*
X41107Y-60980D01*
X41071Y-60955D01*
X41046Y-60939D01*
X41035Y-60933D01*
X41034Y-60934D01*
X41022Y-60944D01*
X40998Y-60967D01*
X40964Y-61000D01*
X40926Y-61038D01*
X40897Y-61067D01*
X40863Y-61101D01*
X40842Y-61124D01*
X40830Y-61139D01*
X40826Y-61148D01*
X40827Y-61154D01*
X40835Y-61167D01*
X40853Y-61194D01*
X40878Y-61231D01*
X40908Y-61275D01*
X40933Y-61311D01*
X40959Y-61352D01*
X40977Y-61382D01*
X40983Y-61396D01*
X40981Y-61402D01*
X40973Y-61426D01*
X40958Y-61463D01*
X40940Y-61506D01*
X40897Y-61603D01*
X40833Y-61616D01*
X40794Y-61623D01*
X40740Y-61633D01*
X40689Y-61643D01*
X40608Y-61659D01*
X40605Y-61955D01*
X40617Y-61961D01*
X40629Y-61964D01*
X40659Y-61971D01*
X40702Y-61979D01*
X40752Y-61989D01*
X40795Y-61997D01*
X40839Y-62005D01*
X40870Y-62011D01*
X40884Y-62014D01*
X40887Y-62018D01*
X40898Y-62039D01*
X40913Y-62073D01*
X40930Y-62113D01*
X40948Y-62154D01*
X40963Y-62193D01*
X40974Y-62222D01*
X40978Y-62237D01*
X40972Y-62248D01*
X40955Y-62274D01*
X40931Y-62310D01*
X40902Y-62353D01*
X40873Y-62396D01*
X40848Y-62433D01*
X40831Y-62459D01*
X40823Y-62471D01*
X40827Y-62480D01*
X40844Y-62500D01*
X40877Y-62534D01*
X40925Y-62582D01*
X40933Y-62589D01*
X40971Y-62626D01*
X41004Y-62656D01*
X41026Y-62676D01*
X41036Y-62684D01*
X41036Y-62684D01*
G37*
G54D14*
X75750Y-55250D02*
X75750Y-56150D01*
X75750Y-56150D02*
X76250Y-56150D01*
X76250Y-56150D02*
X76250Y-55250D01*
X76250Y-55250D02*
X75750Y-55250D01*
X75750Y-57150D02*
X75750Y-58050D01*
X75750Y-58050D02*
X76250Y-58050D01*
X76250Y-58050D02*
X76250Y-57150D01*
X76250Y-57150D02*
X75750Y-57150D01*
X76250Y-59950D02*
X76250Y-59050D01*
X76250Y-59050D02*
X75750Y-59050D01*
X75750Y-59050D02*
X75750Y-59950D01*
X75750Y-59950D02*
X76250Y-59950D01*
X77050Y-59050D02*
X77050Y-59950D01*
X77050Y-59950D02*
X77550Y-59950D01*
X77550Y-59950D02*
X77550Y-59050D01*
X77550Y-59050D02*
X77050Y-59050D01*
X76850Y-58450D02*
X77750Y-58450D01*
X77750Y-58450D02*
X77750Y-57950D01*
X77750Y-57950D02*
X76850Y-57950D01*
X76850Y-57950D02*
X76850Y-58450D01*
X76850Y-57250D02*
X77750Y-57250D01*
X77750Y-57250D02*
X77750Y-56750D01*
X77750Y-56750D02*
X76850Y-56750D01*
X76850Y-56750D02*
X76850Y-57250D01*
X77050Y-55250D02*
X77050Y-56150D01*
X77050Y-56150D02*
X77550Y-56150D01*
X77550Y-56150D02*
X77550Y-55250D01*
X77550Y-55250D02*
X77050Y-55250D01*
G54D15*
X76029Y-56613D02*
X76089Y-56480D01*
X76132Y-56613D02*
X76132Y-56333D01*
X76064Y-56333D01*
X76046Y-56347D01*
X76038Y-56360D01*
X76029Y-56387D01*
X76029Y-56427D01*
X76038Y-56453D01*
X76046Y-56467D01*
X76064Y-56480D01*
X76132Y-56480D01*
X75875Y-56427D02*
X75875Y-56613D01*
X75918Y-56320D02*
X75961Y-56520D01*
X75849Y-56520D01*
X76029Y-57013D02*
X76089Y-56880D01*
X76132Y-57013D02*
X76132Y-56733D01*
X76064Y-56733D01*
X76046Y-56747D01*
X76038Y-56760D01*
X76029Y-56787D01*
X76029Y-56827D01*
X76038Y-56853D01*
X76046Y-56867D01*
X76064Y-56880D01*
X76132Y-56880D01*
X75866Y-56733D02*
X75952Y-56733D01*
X75961Y-56867D01*
X75952Y-56853D01*
X75935Y-56840D01*
X75892Y-56840D01*
X75875Y-56853D01*
X75866Y-56867D01*
X75858Y-56893D01*
X75858Y-56960D01*
X75866Y-56987D01*
X75875Y-57000D01*
X75892Y-57013D01*
X75935Y-57013D01*
X75952Y-57000D01*
X75961Y-56987D01*
X75529Y-59613D02*
X75589Y-59480D01*
X75632Y-59613D02*
X75632Y-59333D01*
X75564Y-59333D01*
X75546Y-59347D01*
X75538Y-59360D01*
X75529Y-59387D01*
X75529Y-59427D01*
X75538Y-59453D01*
X75546Y-59467D01*
X75564Y-59480D01*
X75632Y-59480D01*
X75469Y-59333D02*
X75349Y-59333D01*
X75426Y-59613D01*
X77415Y-58913D02*
X77475Y-58780D01*
X77518Y-58913D02*
X77518Y-58633D01*
X77450Y-58633D01*
X77432Y-58647D01*
X77424Y-58660D01*
X77415Y-58687D01*
X77415Y-58727D01*
X77424Y-58753D01*
X77432Y-58767D01*
X77450Y-58780D01*
X77518Y-58780D01*
X77244Y-58913D02*
X77347Y-58913D01*
X77295Y-58913D02*
X77295Y-58633D01*
X77312Y-58673D01*
X77330Y-58700D01*
X77347Y-58713D01*
X77133Y-58633D02*
X77116Y-58633D01*
X77099Y-58647D01*
X77090Y-58660D01*
X77081Y-58687D01*
X77073Y-58740D01*
X77073Y-58807D01*
X77081Y-58860D01*
X77090Y-58887D01*
X77099Y-58900D01*
X77116Y-58913D01*
X77133Y-58913D01*
X77150Y-58900D01*
X77159Y-58887D01*
X77167Y-58860D01*
X77176Y-58807D01*
X77176Y-58740D01*
X77167Y-58687D01*
X77159Y-58660D01*
X77150Y-58647D01*
X77133Y-58633D01*
X76713Y-58085D02*
X76580Y-58025D01*
X76713Y-57982D02*
X76433Y-57982D01*
X76433Y-58050D01*
X76447Y-58068D01*
X76460Y-58076D01*
X76487Y-58085D01*
X76527Y-58085D01*
X76553Y-58076D01*
X76567Y-58068D01*
X76580Y-58050D01*
X76580Y-57982D01*
X76713Y-58256D02*
X76713Y-58153D01*
X76713Y-58205D02*
X76433Y-58205D01*
X76473Y-58188D01*
X76500Y-58170D01*
X76513Y-58153D01*
X76460Y-58324D02*
X76447Y-58333D01*
X76433Y-58350D01*
X76433Y-58393D01*
X76447Y-58410D01*
X76460Y-58419D01*
X76487Y-58427D01*
X76513Y-58427D01*
X76553Y-58419D01*
X76713Y-58316D01*
X76713Y-58427D01*
X76713Y-56885D02*
X76580Y-56825D01*
X76713Y-56782D02*
X76433Y-56782D01*
X76433Y-56850D01*
X76447Y-56868D01*
X76460Y-56876D01*
X76487Y-56885D01*
X76527Y-56885D01*
X76553Y-56876D01*
X76567Y-56868D01*
X76580Y-56850D01*
X76580Y-56782D01*
X76713Y-57056D02*
X76713Y-56953D01*
X76713Y-57005D02*
X76433Y-57005D01*
X76473Y-56988D01*
X76500Y-56970D01*
X76513Y-56953D01*
X76527Y-57210D02*
X76713Y-57210D01*
X76420Y-57167D02*
X76620Y-57124D01*
X76620Y-57236D01*
X77415Y-55113D02*
X77475Y-54980D01*
X77518Y-55113D02*
X77518Y-54833D01*
X77450Y-54833D01*
X77432Y-54847D01*
X77424Y-54860D01*
X77415Y-54887D01*
X77415Y-54927D01*
X77424Y-54953D01*
X77432Y-54967D01*
X77450Y-54980D01*
X77518Y-54980D01*
X77244Y-55113D02*
X77347Y-55113D01*
X77295Y-55113D02*
X77295Y-54833D01*
X77312Y-54873D01*
X77330Y-54900D01*
X77347Y-54913D01*
X77090Y-54833D02*
X77124Y-54833D01*
X77141Y-54847D01*
X77150Y-54860D01*
X77167Y-54900D01*
X77176Y-54953D01*
X77176Y-55060D01*
X77167Y-55087D01*
X77159Y-55100D01*
X77141Y-55113D01*
X77107Y-55113D01*
X77090Y-55100D01*
X77081Y-55087D01*
X77073Y-55060D01*
X77073Y-54993D01*
X77081Y-54967D01*
X77090Y-54953D01*
X77107Y-54940D01*
X77141Y-54940D01*
X77159Y-54953D01*
X77167Y-54967D01*
X77176Y-54993D01*
%LPC*%
G54D16*
X129300Y-57700D03*
G54D17*
X129300Y-55700D03*
G54D16*
X34800Y-57700D03*
G54D17*
X34800Y-55700D03*
G54D18*
X30000Y-53200D03*
G54D19*
X31000Y-53200D03*
X30000Y-54200D03*
X31000Y-54200D03*
X30000Y-55200D03*
X31000Y-55200D03*
X30000Y-56200D03*
X31000Y-56200D03*
X30000Y-57200D03*
X31000Y-57200D03*
X30000Y-58200D03*
X31000Y-58200D03*
X30000Y-59200D03*
X31000Y-59200D03*
X30000Y-60200D03*
X31000Y-60200D03*
G54D18*
X133100Y-53200D03*
G54D19*
X134100Y-53200D03*
X133100Y-54200D03*
X134100Y-54200D03*
X133100Y-55200D03*
X134100Y-55200D03*
X133100Y-56200D03*
X134100Y-56200D03*
X133100Y-57200D03*
X134100Y-57200D03*
X133100Y-58200D03*
X134100Y-58200D03*
X133100Y-59200D03*
X134100Y-59200D03*
X133100Y-60200D03*
X134100Y-60200D03*
G54D20*
X56500Y-58000D03*
G54D21*
X56500Y-60000D03*
X58500Y-60000D03*
X58500Y-58000D03*
G54D20*
X56500Y-53500D03*
G54D21*
X56500Y-55500D03*
X58500Y-55500D03*
X58500Y-53500D03*
G54D20*
X38500Y-53500D03*
G54D21*
X38500Y-55500D03*
X40500Y-55500D03*
X40500Y-53500D03*
G54D20*
X38500Y-58000D03*
G54D21*
X38500Y-60000D03*
X40500Y-60000D03*
X40500Y-58000D03*
G54D20*
X45000Y-55500D03*
G54D21*
X45000Y-53500D03*
X43000Y-53500D03*
X43000Y-55500D03*
G54D20*
X45000Y-60000D03*
G54D21*
X45000Y-58000D03*
X43000Y-58000D03*
X43000Y-60000D03*
G54D18*
X83100Y-55000D03*
G54D19*
X83100Y-56000D03*
X82100Y-55000D03*
X82100Y-56000D03*
X81100Y-55000D03*
X81100Y-56000D03*
X86100Y-51975D03*
X88650Y-51975D03*
X86100Y-53725D03*
X88650Y-53725D03*
X80700Y-51975D03*
X83250Y-51975D03*
X80700Y-53725D03*
X83250Y-53725D03*
X75300Y-51975D03*
X77850Y-51975D03*
X75300Y-53725D03*
X77850Y-53725D03*
G54D22*
X79800Y-52800D03*
G54D23*
X78800Y-52800D03*
G54D21*
X89100Y-60100D03*
X85100Y-59100D03*
X89100Y-58100D03*
G54D24*
X36650Y-51750D03*
X127450Y-61750D03*
X127450Y-51750D03*
X95300Y-61750D03*
X95300Y-51750D03*
X68800Y-61750D03*
X68800Y-51750D03*
X36650Y-61750D03*
G54D20*
X47500Y-58000D03*
G54D21*
X47500Y-60000D03*
X49500Y-60000D03*
X49500Y-58000D03*
G54D20*
X47500Y-53500D03*
G54D21*
X47500Y-55500D03*
X49500Y-55500D03*
X49500Y-53500D03*
G54D20*
X54000Y-55500D03*
G54D21*
X54000Y-53500D03*
X52000Y-53500D03*
X52000Y-55500D03*
G54D20*
X54000Y-60000D03*
G54D21*
X54000Y-58000D03*
X52000Y-58000D03*
X52000Y-60000D03*
G54D20*
X63000Y-55500D03*
G54D21*
X63000Y-53500D03*
X61000Y-53500D03*
X61000Y-55500D03*
G54D20*
X63000Y-60000D03*
G54D21*
X63000Y-58000D03*
X61000Y-58000D03*
X61000Y-60000D03*
G54D20*
X65500Y-58000D03*
G54D21*
X65500Y-60000D03*
X67500Y-60000D03*
X67500Y-58000D03*
G54D20*
X65500Y-53500D03*
G54D21*
X65500Y-55500D03*
X67500Y-55500D03*
X67500Y-53500D03*
G54D20*
X72000Y-55500D03*
G54D21*
X72000Y-53500D03*
X70000Y-53500D03*
X70000Y-55500D03*
G54D20*
X72000Y-60000D03*
G54D21*
X72000Y-58000D03*
X70000Y-58000D03*
X70000Y-60000D03*
G54D20*
X92000Y-58000D03*
G54D21*
X92000Y-60000D03*
X94000Y-60000D03*
X94000Y-58000D03*
G54D20*
X92000Y-53500D03*
G54D21*
X92000Y-55500D03*
X94000Y-55500D03*
X94000Y-53500D03*
G54D20*
X98500Y-55500D03*
G54D21*
X98500Y-53500D03*
X96500Y-53500D03*
X96500Y-55500D03*
G54D20*
X98500Y-60000D03*
G54D21*
X98500Y-58000D03*
X96500Y-58000D03*
X96500Y-60000D03*
G54D20*
X100900Y-58000D03*
G54D21*
X100900Y-60000D03*
X102900Y-60000D03*
X102900Y-58000D03*
G54D20*
X100900Y-53500D03*
G54D21*
X100900Y-55500D03*
X102900Y-55500D03*
X102900Y-53500D03*
G54D20*
X107500Y-55500D03*
G54D21*
X107500Y-53500D03*
X105500Y-53500D03*
X105500Y-55500D03*
G54D20*
X107500Y-60000D03*
G54D21*
X107500Y-58000D03*
X105500Y-58000D03*
X105500Y-60000D03*
G54D20*
X110000Y-58000D03*
G54D21*
X110000Y-60000D03*
X112000Y-60000D03*
X112000Y-58000D03*
G54D20*
X110000Y-53500D03*
G54D21*
X110000Y-55500D03*
X112000Y-55500D03*
X112000Y-53500D03*
G54D20*
X116600Y-55500D03*
G54D21*
X116600Y-53500D03*
X114600Y-53500D03*
X114600Y-55500D03*
G54D20*
X116600Y-60000D03*
G54D21*
X116600Y-58000D03*
X114600Y-58000D03*
X114600Y-60000D03*
G54D20*
X119000Y-58000D03*
G54D21*
X119000Y-60000D03*
X121000Y-60000D03*
X121000Y-58000D03*
G54D20*
X119000Y-53500D03*
G54D21*
X119000Y-55500D03*
X121000Y-55500D03*
X121000Y-53500D03*
G54D20*
X125500Y-55500D03*
G54D21*
X125500Y-53500D03*
X123500Y-53500D03*
X123500Y-55500D03*
G54D20*
X125500Y-60000D03*
G54D21*
X125500Y-58000D03*
X123500Y-58000D03*
X123500Y-60000D03*
G54D22*
X134100Y-61700D03*
G54D23*
X131100Y-61700D03*
G54D22*
X30000Y-61700D03*
G54D23*
X33000Y-61700D03*
G54D25*
X76000Y-55400D03*
X76000Y-56000D03*
X76000Y-57300D03*
X76000Y-57900D03*
X76000Y-59800D03*
X76000Y-59200D03*
X77300Y-59200D03*
X77300Y-59800D03*
G54D26*
X77000Y-58200D03*
X77600Y-58200D03*
X77000Y-57000D03*
X77600Y-57000D03*
G54D25*
X77300Y-55400D03*
X77300Y-56000D03*
G54D18*
X133100Y-51600D03*
G54D19*
X134100Y-51600D03*
M02*
