G04 (created by PCBNEW-RS274X (2011-aug-04)-testing) date Sun 21 Aug 2011 07:51:07 PM CEST*
G01*
G70*
G90*
%MOIN*%
G04 Gerber Fmt 3.4, Leading zero omitted, Abs format*
%FSLAX34Y34*%
G04 APERTURE LIST*
%ADD10C,0.010000*%
%ADD11R,0.070000X0.070000*%
%ADD12C,0.070000*%
%ADD13R,0.060000X0.060000*%
%ADD14C,0.060000*%
%ADD15R,0.080000X0.080000*%
%ADD16C,0.080000*%
%ADD17R,0.055000X0.055000*%
%ADD18C,0.055000*%
%ADD19R,0.051100X0.059000*%
%ADD20R,0.059000X0.051100*%
%ADD21R,0.070800X0.062900*%
%ADD22R,0.062900X0.070800*%
%ADD23R,0.086600X0.023600*%
%ADD24C,0.160000*%
%ADD25R,0.045000X0.025000*%
%ADD26R,0.025000X0.045000*%
%ADD27R,0.047200X0.047200*%
%ADD28C,0.035000*%
%ADD29C,0.006000*%
%ADD30C,0.020000*%
%ADD31C,0.012000*%
%ADD32C,0.080000*%
%ADD33C,0.040000*%
G04 APERTURE END LIST*
G54D10*
G54D11*
X129300Y-57700D03*
G54D12*
X129300Y-55700D03*
G54D11*
X34800Y-57700D03*
G54D12*
X34800Y-55700D03*
G54D13*
X30000Y-53200D03*
G54D14*
X31000Y-53200D03*
X30000Y-54200D03*
X31000Y-54200D03*
X30000Y-55200D03*
X31000Y-55200D03*
X30000Y-56200D03*
X31000Y-56200D03*
X30000Y-57200D03*
X31000Y-57200D03*
X30000Y-58200D03*
X31000Y-58200D03*
X30000Y-59200D03*
X31000Y-59200D03*
X30000Y-60200D03*
X31000Y-60200D03*
G54D13*
X133100Y-53200D03*
G54D14*
X134100Y-53200D03*
X133100Y-54200D03*
X134100Y-54200D03*
X133100Y-55200D03*
X134100Y-55200D03*
X133100Y-56200D03*
X134100Y-56200D03*
X133100Y-57200D03*
X134100Y-57200D03*
X133100Y-58200D03*
X134100Y-58200D03*
X133100Y-59200D03*
X134100Y-59200D03*
X133100Y-60200D03*
X134100Y-60200D03*
G54D15*
X56500Y-58000D03*
G54D16*
X56500Y-60000D03*
X58500Y-60000D03*
X58500Y-58000D03*
G54D15*
X56500Y-53500D03*
G54D16*
X56500Y-55500D03*
X58500Y-55500D03*
X58500Y-53500D03*
G54D15*
X38500Y-53500D03*
G54D16*
X38500Y-55500D03*
X40500Y-55500D03*
X40500Y-53500D03*
G54D15*
X38500Y-58000D03*
G54D16*
X38500Y-60000D03*
X40500Y-60000D03*
X40500Y-58000D03*
G54D15*
X45000Y-55500D03*
G54D16*
X45000Y-53500D03*
X43000Y-53500D03*
X43000Y-55500D03*
G54D15*
X45000Y-60000D03*
G54D16*
X45000Y-58000D03*
X43000Y-58000D03*
X43000Y-60000D03*
G54D13*
X83100Y-55000D03*
G54D14*
X83100Y-56000D03*
X82100Y-55000D03*
X82100Y-56000D03*
X81100Y-55000D03*
X81100Y-56000D03*
X86100Y-51975D03*
X88650Y-51975D03*
X86100Y-53725D03*
X88650Y-53725D03*
X80700Y-51975D03*
X83250Y-51975D03*
X80700Y-53725D03*
X83250Y-53725D03*
X75300Y-51975D03*
X77850Y-51975D03*
X75300Y-53725D03*
X77850Y-53725D03*
G54D17*
X79800Y-52800D03*
G54D18*
X78800Y-52800D03*
G54D19*
X82626Y-57700D03*
X83374Y-57700D03*
G54D20*
X84300Y-52774D03*
X84300Y-52026D03*
G54D21*
X90000Y-56251D03*
X90000Y-55149D03*
X85600Y-56251D03*
X85600Y-55149D03*
G54D22*
X81651Y-57700D03*
X80549Y-57700D03*
G54D21*
X84600Y-55149D03*
X84600Y-56251D03*
G54D16*
X89100Y-60100D03*
X85100Y-59100D03*
X89100Y-58100D03*
G54D23*
X80977Y-58850D03*
X80977Y-59350D03*
X80977Y-59850D03*
X80977Y-60350D03*
X80977Y-60850D03*
X80977Y-61350D03*
X80977Y-61850D03*
X80977Y-62350D03*
X83023Y-62350D03*
X83023Y-61850D03*
X83023Y-61350D03*
X83023Y-60850D03*
X83023Y-60350D03*
X83023Y-59850D03*
X83023Y-59350D03*
X83023Y-58850D03*
G54D24*
X36650Y-51750D03*
G54D23*
X88823Y-56450D03*
X88823Y-55950D03*
X88823Y-55450D03*
X88823Y-54950D03*
X86777Y-54950D03*
X86777Y-55450D03*
X86777Y-55950D03*
X86777Y-56450D03*
G54D24*
X127450Y-61750D03*
X127450Y-51750D03*
X95300Y-61750D03*
X95300Y-51750D03*
X68800Y-61750D03*
X68800Y-51750D03*
X36650Y-61750D03*
G54D23*
X74789Y-55350D03*
X74789Y-55850D03*
X74789Y-56350D03*
X74789Y-56850D03*
X74789Y-57350D03*
X74789Y-57850D03*
X74789Y-58350D03*
X74789Y-58850D03*
X74789Y-59350D03*
X74789Y-59850D03*
X78411Y-59850D03*
X78411Y-59350D03*
X78411Y-58850D03*
X78411Y-58350D03*
X78411Y-57850D03*
X78411Y-57350D03*
X78411Y-56850D03*
X78411Y-56350D03*
X78411Y-55850D03*
X78411Y-55350D03*
G54D15*
X47500Y-58000D03*
G54D16*
X47500Y-60000D03*
X49500Y-60000D03*
X49500Y-58000D03*
G54D15*
X47500Y-53500D03*
G54D16*
X47500Y-55500D03*
X49500Y-55500D03*
X49500Y-53500D03*
G54D15*
X54000Y-55500D03*
G54D16*
X54000Y-53500D03*
X52000Y-53500D03*
X52000Y-55500D03*
G54D15*
X54000Y-60000D03*
G54D16*
X54000Y-58000D03*
X52000Y-58000D03*
X52000Y-60000D03*
G54D15*
X63000Y-55500D03*
G54D16*
X63000Y-53500D03*
X61000Y-53500D03*
X61000Y-55500D03*
G54D15*
X63000Y-60000D03*
G54D16*
X63000Y-58000D03*
X61000Y-58000D03*
X61000Y-60000D03*
G54D15*
X65500Y-58000D03*
G54D16*
X65500Y-60000D03*
X67500Y-60000D03*
X67500Y-58000D03*
G54D15*
X65500Y-53500D03*
G54D16*
X65500Y-55500D03*
X67500Y-55500D03*
X67500Y-53500D03*
G54D15*
X72000Y-55500D03*
G54D16*
X72000Y-53500D03*
X70000Y-53500D03*
X70000Y-55500D03*
G54D15*
X72000Y-60000D03*
G54D16*
X72000Y-58000D03*
X70000Y-58000D03*
X70000Y-60000D03*
G54D15*
X92100Y-58000D03*
G54D16*
X92100Y-60000D03*
X94100Y-60000D03*
X94100Y-58000D03*
G54D15*
X92100Y-53500D03*
G54D16*
X92100Y-55500D03*
X94100Y-55500D03*
X94100Y-53500D03*
G54D15*
X98600Y-55500D03*
G54D16*
X98600Y-53500D03*
X96600Y-53500D03*
X96600Y-55500D03*
G54D15*
X98600Y-60000D03*
G54D16*
X98600Y-58000D03*
X96600Y-58000D03*
X96600Y-60000D03*
G54D15*
X101100Y-58000D03*
G54D16*
X101100Y-60000D03*
X103100Y-60000D03*
X103100Y-58000D03*
G54D15*
X101100Y-53500D03*
G54D16*
X101100Y-55500D03*
X103100Y-55500D03*
X103100Y-53500D03*
G54D15*
X107600Y-55500D03*
G54D16*
X107600Y-53500D03*
X105600Y-53500D03*
X105600Y-55500D03*
G54D15*
X107600Y-60000D03*
G54D16*
X107600Y-58000D03*
X105600Y-58000D03*
X105600Y-60000D03*
G54D15*
X110100Y-58000D03*
G54D16*
X110100Y-60000D03*
X112100Y-60000D03*
X112100Y-58000D03*
G54D15*
X110100Y-53500D03*
G54D16*
X110100Y-55500D03*
X112100Y-55500D03*
X112100Y-53500D03*
G54D15*
X116600Y-55500D03*
G54D16*
X116600Y-53500D03*
X114600Y-53500D03*
X114600Y-55500D03*
G54D15*
X116600Y-60000D03*
G54D16*
X116600Y-58000D03*
X114600Y-58000D03*
X114600Y-60000D03*
G54D15*
X119100Y-58000D03*
G54D16*
X119100Y-60000D03*
X121100Y-60000D03*
X121100Y-58000D03*
G54D15*
X119100Y-53500D03*
G54D16*
X119100Y-55500D03*
X121100Y-55500D03*
X121100Y-53500D03*
G54D15*
X125600Y-55500D03*
G54D16*
X125600Y-53500D03*
X123600Y-53500D03*
X123600Y-55500D03*
G54D15*
X125600Y-60000D03*
G54D16*
X125600Y-58000D03*
X123600Y-58000D03*
X123600Y-60000D03*
G54D17*
X134100Y-61700D03*
G54D18*
X131100Y-61700D03*
G54D17*
X30000Y-61700D03*
G54D18*
X33000Y-61700D03*
G54D25*
X85200Y-52800D03*
X85200Y-52200D03*
G54D26*
X73400Y-55800D03*
X74000Y-55800D03*
X73349Y-57601D03*
X73949Y-57601D03*
X73341Y-58278D03*
X73941Y-58278D03*
X79800Y-59900D03*
X79200Y-59900D03*
X79800Y-58900D03*
X79200Y-58900D03*
X79800Y-57800D03*
X79200Y-57800D03*
X79800Y-56800D03*
X79200Y-56800D03*
X79800Y-55800D03*
X79200Y-55800D03*
X79000Y-54300D03*
X79600Y-54300D03*
G54D13*
X133100Y-51600D03*
G54D14*
X134100Y-51600D03*
G54D25*
X32400Y-54100D03*
X32400Y-53500D03*
X33200Y-54100D03*
X33200Y-53500D03*
G54D26*
X78200Y-51100D03*
X77600Y-51100D03*
X83600Y-51100D03*
X83000Y-51100D03*
X89000Y-51100D03*
X88400Y-51100D03*
G54D27*
X32400Y-51913D03*
X32400Y-51087D03*
X33200Y-51913D03*
X33200Y-51087D03*
X76187Y-51100D03*
X77013Y-51100D03*
X81587Y-51100D03*
X82413Y-51100D03*
X86987Y-51100D03*
X87813Y-51100D03*
G54D28*
X86800Y-59054D03*
X87778Y-57806D03*
X82710Y-56443D03*
X80261Y-60053D03*
X76500Y-54040D03*
X88930Y-57026D03*
X78195Y-60484D03*
X83871Y-59550D03*
X79472Y-58419D03*
X80263Y-60593D03*
X87514Y-59217D03*
X87460Y-58131D03*
X88238Y-56828D03*
X79486Y-61479D03*
X79844Y-61893D03*
X88467Y-61288D03*
X84308Y-58473D03*
X86011Y-57845D03*
X75367Y-60218D03*
X79926Y-58395D03*
X82360Y-53882D03*
X84401Y-59948D03*
X73054Y-57063D03*
X72910Y-56283D03*
X76716Y-57720D03*
X33814Y-53842D03*
X73286Y-54950D03*
X84404Y-57796D03*
X85237Y-57781D03*
X127863Y-56637D03*
X32910Y-54810D03*
X73628Y-58740D03*
X75838Y-54954D03*
X84574Y-54388D03*
X79528Y-60384D03*
X39452Y-56913D03*
X33734Y-55281D03*
X87900Y-56200D03*
X76683Y-58700D03*
X33954Y-52293D03*
X90632Y-55149D03*
X84043Y-56867D03*
X85200Y-51200D03*
X87400Y-52900D03*
X75506Y-56288D03*
X76845Y-59504D03*
X77670Y-57504D03*
X77654Y-56420D03*
X75529Y-58773D03*
X76198Y-58305D03*
X80550Y-55350D03*
X76457Y-51622D03*
X81587Y-51623D03*
X83726Y-52774D03*
X85538Y-50884D03*
G54D29*
X82710Y-56443D02*
X82710Y-56310D01*
X86800Y-59054D02*
X86801Y-59054D01*
X86801Y-58355D02*
X86801Y-59054D01*
X87350Y-57806D02*
X86801Y-58355D01*
X87778Y-57806D02*
X87350Y-57806D01*
X82600Y-56200D02*
X82600Y-55798D01*
X82710Y-56310D02*
X82600Y-56200D01*
X81534Y-55566D02*
X81734Y-55566D01*
X81734Y-55566D02*
X81800Y-55500D01*
X81800Y-55500D02*
X82302Y-55500D01*
X82302Y-55500D02*
X82368Y-55566D01*
X82368Y-55566D02*
X82600Y-55798D01*
X81100Y-56000D02*
X81534Y-55566D01*
X80261Y-60000D02*
X80261Y-60053D01*
X80411Y-59850D02*
X80261Y-60000D01*
X80977Y-59850D02*
X80411Y-59850D01*
X79800Y-55800D02*
X80058Y-55800D01*
X80258Y-56000D02*
X81100Y-56000D01*
X80058Y-55800D02*
X80258Y-56000D01*
G54D30*
X43000Y-53500D02*
X40500Y-53500D01*
X52000Y-53500D02*
X49500Y-53500D01*
X61000Y-53500D02*
X58500Y-53500D01*
X70000Y-53500D02*
X67500Y-53500D01*
X96600Y-53500D02*
X94100Y-53500D01*
X105600Y-53500D02*
X103100Y-53500D01*
X114600Y-53500D02*
X112100Y-53500D01*
X123600Y-53500D02*
X121100Y-53500D01*
G54D29*
X31800Y-54110D02*
X31800Y-54400D01*
X29442Y-52758D02*
X29600Y-52600D01*
X29600Y-52600D02*
X31500Y-52600D01*
X31500Y-52600D02*
X31800Y-52900D01*
X31800Y-52900D02*
X31800Y-54110D01*
X76356Y-54184D02*
X76500Y-54040D01*
X37432Y-54184D02*
X76356Y-54184D01*
X35363Y-56253D02*
X37432Y-54184D01*
X34130Y-56253D02*
X35363Y-56253D01*
X33406Y-55529D02*
X34130Y-56253D01*
X33406Y-54871D02*
X33406Y-55529D01*
X29442Y-52758D02*
X29442Y-52900D01*
X33406Y-54856D02*
X33406Y-54871D01*
X33050Y-54500D02*
X33406Y-54856D01*
X31900Y-54500D02*
X33050Y-54500D01*
X31800Y-54400D02*
X31900Y-54500D01*
X131797Y-55200D02*
X133100Y-55200D01*
X130349Y-56648D02*
X131797Y-55200D01*
X128310Y-56648D02*
X130349Y-56648D01*
X127991Y-56329D02*
X128310Y-56648D01*
X127736Y-56329D02*
X127991Y-56329D01*
X127655Y-56410D02*
X127736Y-56329D01*
X91131Y-56410D02*
X127655Y-56410D01*
X90515Y-57026D02*
X91131Y-56410D01*
X88930Y-57026D02*
X90515Y-57026D01*
X29442Y-54642D02*
X29442Y-52900D01*
X30000Y-55200D02*
X29442Y-54642D01*
X29442Y-52900D02*
X29442Y-52894D01*
X80977Y-59350D02*
X80411Y-59350D01*
X83100Y-56629D02*
X83100Y-56000D01*
X82523Y-57206D02*
X83100Y-56629D01*
X80175Y-57206D02*
X82523Y-57206D01*
X80100Y-57281D02*
X80175Y-57206D01*
X80100Y-58132D02*
X80100Y-57281D01*
X80315Y-58347D02*
X80100Y-58132D01*
X80315Y-59254D02*
X80315Y-58347D01*
X80411Y-59350D02*
X80315Y-59254D01*
X30441Y-58641D02*
X31491Y-58641D01*
X30000Y-58200D02*
X30441Y-58641D01*
X72259Y-58841D02*
X74309Y-60891D01*
X74309Y-60891D02*
X77788Y-60891D01*
X77788Y-60891D02*
X78195Y-60484D01*
X31691Y-58841D02*
X72259Y-58841D01*
X31491Y-58641D02*
X31691Y-58841D01*
X132859Y-58441D02*
X133100Y-58200D01*
X130257Y-58441D02*
X132859Y-58441D01*
X130257Y-58442D02*
X130257Y-58441D01*
X130235Y-58464D02*
X130257Y-58442D01*
X130207Y-58464D02*
X130235Y-58464D01*
X130162Y-58419D02*
X130207Y-58464D01*
X130162Y-58372D02*
X130162Y-58419D01*
X130161Y-58372D02*
X130162Y-58372D01*
X130139Y-58350D02*
X130161Y-58372D01*
X130139Y-58349D02*
X130139Y-58350D01*
X128359Y-58349D02*
X130139Y-58349D01*
X127313Y-57303D02*
X128359Y-58349D01*
X91388Y-57303D02*
X127313Y-57303D01*
X89690Y-59001D02*
X91388Y-57303D01*
X88396Y-59001D02*
X89690Y-59001D01*
X87686Y-59711D02*
X88396Y-59001D01*
X84860Y-59711D02*
X87686Y-59711D01*
X84778Y-59629D02*
X84860Y-59711D01*
X83931Y-59629D02*
X84778Y-59629D01*
X83589Y-59971D02*
X83589Y-60350D01*
X83931Y-59629D02*
X83589Y-59971D01*
X83931Y-59610D02*
X83931Y-59629D01*
X83871Y-59550D02*
X83931Y-59610D01*
X83023Y-60350D02*
X83589Y-60350D01*
X79542Y-58349D02*
X79472Y-58419D01*
X79542Y-57800D02*
X79542Y-58349D01*
X79800Y-57800D02*
X79542Y-57800D01*
X30000Y-57200D02*
X30150Y-57200D01*
X30150Y-57200D02*
X30650Y-57700D01*
X72608Y-57708D02*
X72150Y-57250D01*
X72150Y-57250D02*
X72083Y-57250D01*
X72083Y-57250D02*
X72057Y-57224D01*
X72716Y-58984D02*
X72716Y-57816D01*
X80069Y-60787D02*
X80263Y-60593D01*
X80069Y-60787D02*
X78934Y-60787D01*
X78934Y-60787D02*
X78323Y-60176D01*
X78323Y-60176D02*
X77686Y-60176D01*
X77686Y-60176D02*
X77135Y-60727D01*
X77135Y-60727D02*
X74459Y-60727D01*
X74459Y-60727D02*
X72716Y-58984D01*
X72057Y-57224D02*
X39328Y-57224D01*
X39328Y-57224D02*
X39319Y-57215D01*
X39319Y-57215D02*
X33490Y-57215D01*
X33490Y-57215D02*
X32941Y-57700D01*
X32941Y-57700D02*
X30650Y-57700D01*
X72716Y-57816D02*
X72608Y-57708D01*
X132874Y-56974D02*
X133100Y-57200D01*
X128194Y-56974D02*
X132874Y-56974D01*
X127873Y-57295D02*
X128194Y-56974D01*
X127851Y-57295D02*
X127873Y-57295D01*
X127532Y-56976D02*
X127851Y-57295D01*
X91255Y-56976D02*
X127532Y-56976D01*
X89565Y-58666D02*
X91255Y-56976D01*
X87983Y-58666D02*
X89565Y-58666D01*
X87460Y-58143D02*
X87460Y-58131D01*
X87983Y-58666D02*
X87460Y-58143D01*
X87514Y-59135D02*
X87514Y-59217D01*
X87983Y-58666D02*
X87514Y-59135D01*
X80411Y-60445D02*
X80263Y-60593D01*
X80411Y-60350D02*
X80411Y-60445D01*
X80977Y-60350D02*
X80411Y-60350D01*
X90594Y-56717D02*
X90533Y-56717D01*
X90594Y-56717D02*
X91064Y-56247D01*
X91064Y-56247D02*
X127588Y-56247D01*
X127588Y-56247D02*
X127669Y-56166D01*
X127669Y-56166D02*
X128058Y-56166D01*
X128058Y-56166D02*
X128377Y-56485D01*
X128377Y-56485D02*
X130282Y-56485D01*
X130282Y-56485D02*
X132567Y-54200D01*
X132567Y-54200D02*
X133100Y-54200D01*
X88572Y-56828D02*
X88238Y-56828D01*
X88700Y-56700D02*
X88572Y-56828D01*
X89150Y-56700D02*
X88700Y-56700D01*
X89300Y-56850D02*
X89150Y-56700D01*
X90400Y-56850D02*
X89300Y-56850D01*
X90533Y-56717D02*
X90400Y-56850D01*
X81300Y-56800D02*
X80058Y-56800D01*
X82100Y-56000D02*
X81300Y-56800D01*
X79800Y-56800D02*
X80058Y-56800D01*
G54D30*
X80807Y-61020D02*
X80977Y-60850D01*
X79399Y-61020D02*
X80807Y-61020D01*
X79165Y-61254D02*
X79399Y-61020D01*
X74341Y-61254D02*
X79165Y-61254D01*
X72339Y-59252D02*
X74341Y-61254D01*
X46351Y-59252D02*
X72339Y-59252D01*
X45603Y-60000D02*
X46351Y-59252D01*
X45000Y-60000D02*
X45603Y-60000D01*
X80212Y-61479D02*
X79486Y-61479D01*
X80341Y-61350D02*
X80212Y-61479D01*
X80977Y-61350D02*
X80341Y-61350D01*
X79887Y-61850D02*
X79844Y-61893D01*
X80977Y-61850D02*
X79887Y-61850D01*
X72000Y-60000D02*
X72603Y-60000D01*
X74953Y-62350D02*
X72603Y-60000D01*
X80977Y-62350D02*
X74953Y-62350D01*
X97294Y-59397D02*
X97897Y-60000D01*
X91512Y-59397D02*
X97294Y-59397D01*
X88559Y-62350D02*
X91512Y-59397D01*
X83659Y-62350D02*
X88559Y-62350D01*
X98600Y-60000D02*
X97897Y-60000D01*
X83023Y-62350D02*
X83659Y-62350D01*
X105991Y-59094D02*
X106897Y-60000D01*
X91387Y-59094D02*
X105991Y-59094D01*
X88631Y-61850D02*
X91387Y-59094D01*
X83659Y-61850D02*
X88631Y-61850D01*
X107600Y-60000D02*
X106897Y-60000D01*
X83023Y-61850D02*
X83659Y-61850D01*
X88405Y-61350D02*
X88467Y-61288D01*
X83023Y-61350D02*
X88405Y-61350D01*
X123688Y-58791D02*
X124897Y-60000D01*
X91262Y-58791D02*
X123688Y-58791D01*
X89203Y-60850D02*
X91262Y-58791D01*
X83659Y-60850D02*
X89203Y-60850D01*
X125600Y-60000D02*
X124897Y-60000D01*
X83023Y-60850D02*
X83659Y-60850D01*
G54D29*
X85243Y-58473D02*
X84308Y-58473D01*
X86295Y-59525D02*
X85243Y-58473D01*
X87642Y-59525D02*
X86295Y-59525D01*
X88329Y-58838D02*
X87642Y-59525D01*
X89623Y-58838D02*
X88329Y-58838D01*
X91322Y-57139D02*
X89623Y-58838D01*
X127380Y-57139D02*
X91322Y-57139D01*
X127710Y-57469D02*
X127380Y-57139D01*
X127929Y-57469D02*
X127710Y-57469D01*
X128261Y-57137D02*
X127929Y-57469D01*
X129924Y-57137D02*
X128261Y-57137D01*
X130422Y-57635D02*
X129924Y-57137D01*
X134333Y-57635D02*
X130422Y-57635D01*
X134546Y-57422D02*
X134333Y-57635D01*
X134546Y-56646D02*
X134546Y-57422D01*
X134100Y-56200D02*
X134546Y-56646D01*
X133639Y-56739D02*
X134100Y-57200D01*
X130488Y-56739D02*
X133639Y-56739D01*
X130416Y-56811D02*
X130488Y-56739D01*
X128127Y-56811D02*
X130416Y-56811D01*
X127874Y-57064D02*
X128127Y-56811D01*
X127852Y-57064D02*
X127874Y-57064D01*
X127601Y-56813D02*
X127852Y-57064D01*
X91188Y-56813D02*
X127601Y-56813D01*
X90504Y-57497D02*
X91188Y-56813D01*
X86359Y-57497D02*
X90504Y-57497D01*
X86011Y-57845D02*
X86359Y-57497D01*
X31398Y-56802D02*
X31000Y-57200D01*
X39128Y-56802D02*
X31398Y-56802D01*
X39325Y-56605D02*
X39128Y-56802D01*
X39580Y-56605D02*
X39325Y-56605D01*
X39631Y-56656D02*
X39580Y-56605D01*
X72210Y-56656D02*
X39631Y-56656D01*
X73047Y-57493D02*
X72210Y-56656D01*
X73047Y-58846D02*
X73047Y-57493D01*
X74419Y-60218D02*
X73047Y-58846D01*
X75367Y-60218D02*
X74419Y-60218D01*
X79800Y-58521D02*
X79926Y-58395D01*
X79800Y-58900D02*
X79800Y-58521D01*
X85200Y-52200D02*
X85542Y-52200D01*
X85646Y-52996D02*
X85646Y-52304D01*
X85646Y-52304D02*
X85542Y-52200D01*
X82543Y-53882D02*
X82360Y-53882D01*
X82885Y-54224D02*
X82543Y-53882D01*
X83520Y-54224D02*
X82885Y-54224D01*
X84280Y-53464D02*
X83520Y-54224D01*
X85178Y-53464D02*
X84280Y-53464D01*
X85558Y-53084D02*
X85178Y-53464D01*
X85558Y-53084D02*
X85646Y-52996D01*
X77395Y-55350D02*
X75355Y-55350D01*
X77761Y-54984D02*
X77395Y-55350D01*
X80323Y-54984D02*
X77761Y-54984D01*
X80755Y-54552D02*
X80323Y-54984D01*
X81652Y-54552D02*
X80755Y-54552D01*
X82100Y-55000D02*
X81652Y-54552D01*
X74789Y-55350D02*
X75355Y-55350D01*
X88632Y-54569D02*
X90496Y-54569D01*
X86286Y-52586D02*
X87686Y-52586D01*
X87900Y-52800D02*
X87900Y-53837D01*
X87686Y-52586D02*
X87900Y-52800D01*
X79285Y-53284D02*
X79285Y-52365D01*
X80463Y-52513D02*
X80463Y-52588D01*
X132667Y-53870D02*
X132667Y-53200D01*
X132667Y-53200D02*
X133100Y-53200D01*
X87900Y-53837D02*
X88632Y-54569D01*
X90621Y-54694D02*
X91457Y-55530D01*
X91457Y-55530D02*
X91457Y-56017D01*
X91457Y-56017D02*
X91524Y-56084D01*
X91524Y-56084D02*
X127521Y-56084D01*
X127521Y-56084D02*
X127602Y-56003D01*
X127602Y-56003D02*
X128125Y-56003D01*
X128125Y-56003D02*
X128444Y-56322D01*
X128444Y-56322D02*
X130215Y-56322D01*
X130215Y-56322D02*
X132667Y-53870D01*
X84395Y-53662D02*
X85210Y-53662D01*
X83670Y-54387D02*
X84395Y-53662D01*
X82737Y-54387D02*
X83670Y-54387D01*
X82574Y-54224D02*
X82737Y-54387D01*
X82099Y-54224D02*
X82574Y-54224D01*
X80463Y-52588D02*
X82099Y-54224D01*
X80250Y-52300D02*
X80463Y-52513D01*
X79350Y-52300D02*
X80250Y-52300D01*
X79285Y-52365D02*
X79350Y-52300D01*
X85210Y-53662D02*
X86286Y-52586D01*
X90496Y-54569D02*
X90621Y-54694D01*
X30066Y-53716D02*
X30366Y-53716D01*
X30000Y-53650D02*
X30066Y-53716D01*
X30600Y-55700D02*
X30500Y-55600D01*
X30000Y-53200D02*
X30000Y-53633D01*
X30600Y-55700D02*
X31300Y-55700D01*
X31300Y-55700D02*
X31918Y-56416D01*
X31918Y-56416D02*
X35444Y-56416D01*
X35444Y-56416D02*
X37512Y-54348D01*
X37512Y-54348D02*
X73907Y-54348D01*
X30000Y-53633D02*
X30000Y-53650D01*
X30500Y-53850D02*
X30500Y-55600D01*
X30366Y-53716D02*
X30500Y-53850D01*
X78221Y-54348D02*
X79285Y-53284D01*
X73907Y-54348D02*
X78221Y-54348D01*
X79285Y-53284D02*
X79285Y-53284D01*
X73400Y-55373D02*
X73400Y-55800D01*
X73907Y-54866D02*
X73400Y-55373D01*
X73907Y-54348D02*
X73907Y-54866D01*
X29483Y-57433D02*
X29483Y-56767D01*
X72706Y-56487D02*
X72705Y-56487D01*
X72705Y-56487D02*
X39692Y-56487D01*
X39692Y-56487D02*
X39647Y-56442D01*
X39647Y-56442D02*
X36867Y-56442D01*
X36867Y-56442D02*
X36670Y-56639D01*
X36670Y-56639D02*
X31450Y-56639D01*
X29483Y-57433D02*
X29750Y-57700D01*
X29750Y-57700D02*
X30250Y-57700D01*
X30250Y-57700D02*
X30731Y-58200D01*
X30731Y-58200D02*
X31000Y-58200D01*
X31311Y-56639D02*
X31450Y-56639D01*
X31240Y-56710D02*
X31311Y-56639D01*
X29540Y-56710D02*
X31240Y-56710D01*
X29483Y-56767D02*
X29540Y-56710D01*
X84661Y-59948D02*
X84401Y-59948D01*
X84736Y-60023D02*
X84661Y-59948D01*
X72952Y-56961D02*
X73054Y-57063D01*
X72952Y-56734D02*
X72952Y-56961D01*
X72706Y-56487D02*
X72952Y-56734D01*
X72706Y-56487D02*
X72910Y-56283D01*
X87637Y-60023D02*
X84736Y-60023D01*
X88496Y-59164D02*
X87637Y-60023D01*
X89849Y-59164D02*
X88496Y-59164D01*
X91546Y-57467D02*
X89849Y-59164D01*
X127240Y-57467D02*
X91546Y-57467D01*
X128406Y-58633D02*
X127240Y-57467D01*
X133667Y-58633D02*
X128406Y-58633D01*
X134100Y-58200D02*
X133667Y-58633D01*
X77346Y-58350D02*
X78411Y-58350D01*
X76716Y-57720D02*
X77346Y-58350D01*
X32400Y-53842D02*
X33814Y-53842D01*
X32400Y-54100D02*
X32400Y-53842D01*
X73140Y-55096D02*
X73286Y-54950D01*
X73140Y-56078D02*
X73140Y-55096D01*
X73362Y-56300D02*
X73140Y-56078D01*
X73362Y-57230D02*
X73362Y-56300D01*
X73349Y-57243D02*
X73362Y-57230D01*
X73349Y-57601D02*
X73349Y-57243D01*
X85113Y-57087D02*
X84404Y-57796D01*
X85113Y-54712D02*
X85113Y-57087D01*
X86100Y-53725D02*
X85113Y-54712D01*
X85237Y-57781D02*
X85684Y-57334D01*
X85684Y-57334D02*
X90437Y-57334D01*
X90437Y-57334D02*
X91134Y-56637D01*
X91134Y-56637D02*
X127863Y-56637D01*
X31610Y-54810D02*
X32910Y-54810D01*
X31000Y-54200D02*
X31610Y-54810D01*
X73341Y-58278D02*
X73341Y-58636D01*
X73524Y-58636D02*
X73628Y-58740D01*
X73341Y-58636D02*
X73524Y-58636D01*
X79000Y-54300D02*
X78742Y-54300D01*
X73690Y-58027D02*
X73941Y-58278D01*
X73690Y-55345D02*
X73690Y-58027D01*
X74523Y-54512D02*
X73690Y-55345D01*
X78530Y-54512D02*
X74523Y-54512D01*
X78742Y-54300D02*
X78530Y-54512D01*
X74789Y-59350D02*
X74223Y-59350D01*
X73941Y-59068D02*
X73941Y-58278D01*
X74223Y-59350D02*
X73941Y-59068D01*
X84412Y-54550D02*
X84574Y-54388D01*
X82670Y-54550D02*
X84412Y-54550D01*
X82508Y-54388D02*
X82670Y-54550D01*
X80181Y-54388D02*
X82508Y-54388D01*
X79864Y-54705D02*
X80181Y-54388D01*
X76087Y-54705D02*
X79864Y-54705D01*
X75838Y-54954D02*
X76087Y-54705D01*
X79542Y-60370D02*
X79528Y-60384D01*
X79542Y-59900D02*
X79542Y-60370D01*
X79800Y-59900D02*
X79542Y-59900D01*
X72900Y-58936D02*
X72898Y-58936D01*
X72090Y-56913D02*
X39452Y-56913D01*
X72705Y-57528D02*
X72090Y-56913D01*
X74495Y-60531D02*
X72900Y-58936D01*
X75533Y-60531D02*
X74495Y-60531D01*
X76214Y-59850D02*
X75533Y-60531D01*
X78411Y-59850D02*
X76214Y-59850D01*
X72885Y-57708D02*
X72705Y-57528D01*
X72885Y-58923D02*
X72885Y-57708D01*
X72898Y-58936D02*
X72885Y-58923D01*
X33200Y-54358D02*
X33734Y-54892D01*
X33734Y-54892D02*
X33734Y-55281D01*
X33200Y-54100D02*
X33200Y-54358D01*
X78461Y-59900D02*
X78411Y-59850D01*
X79200Y-59900D02*
X78942Y-59900D01*
X78942Y-59900D02*
X78461Y-59900D01*
G54D31*
X86250Y-56450D02*
X86777Y-56450D01*
X86051Y-56251D02*
X86250Y-56450D01*
X85600Y-56251D02*
X86051Y-56251D01*
X87650Y-56450D02*
X87900Y-56200D01*
X86777Y-56450D02*
X87650Y-56450D01*
X84300Y-52026D02*
X84624Y-52026D01*
X88325Y-51650D02*
X88650Y-51975D01*
X85473Y-51727D02*
X85800Y-51400D01*
X85800Y-51400D02*
X86400Y-51400D01*
X86400Y-51400D02*
X86650Y-51650D01*
X86650Y-51650D02*
X88325Y-51650D01*
X84923Y-51727D02*
X85473Y-51727D01*
X84624Y-52026D02*
X84923Y-51727D01*
X75533Y-59850D02*
X74789Y-59850D01*
X76683Y-58700D02*
X75533Y-59850D01*
X33954Y-51442D02*
X33954Y-52293D01*
X33599Y-51087D02*
X33954Y-51442D01*
X33200Y-51087D02*
X33599Y-51087D01*
X32400Y-51087D02*
X33200Y-51087D01*
X84043Y-56291D02*
X84043Y-56867D01*
X84083Y-56251D02*
X84043Y-56291D01*
X84300Y-52026D02*
X83842Y-52026D01*
X83791Y-51975D02*
X83842Y-52026D01*
X83250Y-51975D02*
X83791Y-51975D01*
X90517Y-55149D02*
X90632Y-55149D01*
X90000Y-55149D02*
X90517Y-55149D01*
X88823Y-55950D02*
X89419Y-55950D01*
X89419Y-55703D02*
X89419Y-55950D01*
X89166Y-55450D02*
X89419Y-55703D01*
X89098Y-55450D02*
X89166Y-55450D01*
X89098Y-55450D02*
X89419Y-55450D01*
X88823Y-55450D02*
X89098Y-55450D01*
X84600Y-56251D02*
X84083Y-56251D01*
X90000Y-55149D02*
X89483Y-55149D01*
X89419Y-55213D02*
X89419Y-55450D01*
X89483Y-55149D02*
X89419Y-55213D01*
G54D32*
X134100Y-59200D02*
X135200Y-59200D01*
X133100Y-59200D02*
X134100Y-59200D01*
X30000Y-59200D02*
X31000Y-59200D01*
X28900Y-59200D02*
X30000Y-59200D01*
X81950Y-63300D02*
X82000Y-63300D01*
X81950Y-58850D02*
X81950Y-63300D01*
X129200Y-50300D02*
X129300Y-50200D01*
X129200Y-50200D02*
X129200Y-50300D01*
X85200Y-50200D02*
X129200Y-50200D01*
X34800Y-50200D02*
X85200Y-50200D01*
X81950Y-63300D02*
X82000Y-63300D01*
X28900Y-63300D02*
X81950Y-63300D01*
X28900Y-59200D02*
X28900Y-63300D01*
G54D33*
X80977Y-58850D02*
X81950Y-58850D01*
G54D31*
X80549Y-58422D02*
X80977Y-58850D01*
X80549Y-57700D02*
X80549Y-58422D01*
X83374Y-58226D02*
X83374Y-57700D01*
X83200Y-58400D02*
X83374Y-58226D01*
X82400Y-58400D02*
X83200Y-58400D01*
X81950Y-58850D02*
X82400Y-58400D01*
X86150Y-55450D02*
X86777Y-55450D01*
X85849Y-55149D02*
X86150Y-55450D01*
X85600Y-55149D02*
X85849Y-55149D01*
X86777Y-55450D02*
X86777Y-55950D01*
G54D32*
X129300Y-55700D02*
X129300Y-50200D01*
X34800Y-55700D02*
X34800Y-50200D01*
X28900Y-50200D02*
X28900Y-59200D01*
X34800Y-50200D02*
X28900Y-50200D01*
X135200Y-50200D02*
X135200Y-59200D01*
X129300Y-50200D02*
X135200Y-50200D01*
X135200Y-63300D02*
X82000Y-63300D01*
X135200Y-59200D02*
X135200Y-63300D01*
G54D31*
X85200Y-51200D02*
X85200Y-50200D01*
X87500Y-53000D02*
X87400Y-52900D01*
X87500Y-55300D02*
X87500Y-53000D01*
X87350Y-55450D02*
X87500Y-55300D01*
X86777Y-55450D02*
X87350Y-55450D01*
G54D29*
X79800Y-52800D02*
X79800Y-53208D01*
X79600Y-53408D02*
X79600Y-54300D01*
X79800Y-53208D02*
X79600Y-53408D01*
X78200Y-51100D02*
X78200Y-51458D01*
X78391Y-53184D02*
X77850Y-53725D01*
X78391Y-51649D02*
X78391Y-53184D01*
X78200Y-51458D02*
X78391Y-51649D01*
X89000Y-51100D02*
X89258Y-51100D01*
X89258Y-53117D02*
X89258Y-51100D01*
X88650Y-53725D02*
X89258Y-53117D01*
X83250Y-53725D02*
X83075Y-53725D01*
X83600Y-51450D02*
X83600Y-51100D01*
X83550Y-51500D02*
X83600Y-51450D01*
X82950Y-51500D02*
X83550Y-51500D01*
X82700Y-51750D02*
X82950Y-51500D01*
X82700Y-53350D02*
X82700Y-51750D01*
X83075Y-53725D02*
X82700Y-53350D01*
X74789Y-56350D02*
X75355Y-56350D01*
X75417Y-56288D02*
X75355Y-56350D01*
X75506Y-56288D02*
X75417Y-56288D01*
X74789Y-58350D02*
X74223Y-58350D01*
X73949Y-57601D02*
X74207Y-57601D01*
X74207Y-58334D02*
X74223Y-58350D01*
X74207Y-57601D02*
X74207Y-58334D01*
X76845Y-59503D02*
X76845Y-59504D01*
X77692Y-59503D02*
X76845Y-59503D01*
X77845Y-59350D02*
X77692Y-59503D01*
X78411Y-59350D02*
X77845Y-59350D01*
X77691Y-57504D02*
X77670Y-57504D01*
X77845Y-57350D02*
X77691Y-57504D01*
X78411Y-57350D02*
X77845Y-57350D01*
X78411Y-56350D02*
X77845Y-56350D01*
X77775Y-56420D02*
X77845Y-56350D01*
X77654Y-56420D02*
X77775Y-56420D01*
X83839Y-59100D02*
X83589Y-59350D01*
X85100Y-59100D02*
X83839Y-59100D01*
X83023Y-59350D02*
X83589Y-59350D01*
X87813Y-51100D02*
X88400Y-51100D01*
X77013Y-51100D02*
X77600Y-51100D01*
X74789Y-55850D02*
X74223Y-55850D01*
X74173Y-55800D02*
X74223Y-55850D01*
X74000Y-55800D02*
X74173Y-55800D01*
X75432Y-58773D02*
X75529Y-58773D01*
X75355Y-58850D02*
X75432Y-58773D01*
X74789Y-58850D02*
X75355Y-58850D01*
X75743Y-57850D02*
X74789Y-57850D01*
X76198Y-58305D02*
X75743Y-57850D01*
X78411Y-55850D02*
X78977Y-55850D01*
X79027Y-55800D02*
X78977Y-55850D01*
X79200Y-55800D02*
X79027Y-55800D01*
X78411Y-56850D02*
X78977Y-56850D01*
X79027Y-56800D02*
X78977Y-56850D01*
X79200Y-56800D02*
X79027Y-56800D01*
X78411Y-57850D02*
X78977Y-57850D01*
X79027Y-57800D02*
X78977Y-57850D01*
X79200Y-57800D02*
X79027Y-57800D01*
X78411Y-58850D02*
X78977Y-58850D01*
X79027Y-58900D02*
X78977Y-58850D01*
X79200Y-58900D02*
X79027Y-58900D01*
X82413Y-51100D02*
X83000Y-51100D01*
X33200Y-51913D02*
X33200Y-53500D01*
X32400Y-51913D02*
X32400Y-53500D01*
G54D31*
X85200Y-52800D02*
X84812Y-52800D01*
X84786Y-52774D02*
X84812Y-52800D01*
X84300Y-52774D02*
X84786Y-52774D01*
X83726Y-52774D02*
X84300Y-52774D01*
X80550Y-55350D02*
X78411Y-55350D01*
X76187Y-51100D02*
X76187Y-51499D01*
X76334Y-51499D02*
X76187Y-51499D01*
X76457Y-51622D02*
X76334Y-51499D01*
X83100Y-55000D02*
X83563Y-55000D01*
X83583Y-55932D02*
X83583Y-57116D01*
X83808Y-55707D02*
X83583Y-55932D01*
X84366Y-55149D02*
X83808Y-55707D01*
X83563Y-55463D02*
X83808Y-55707D01*
X83563Y-55000D02*
X83563Y-55463D01*
X81587Y-51623D02*
X81587Y-51100D01*
X88823Y-56450D02*
X89419Y-56450D01*
X90000Y-56251D02*
X89483Y-56251D01*
X89419Y-56315D02*
X89483Y-56251D01*
X89419Y-56450D02*
X89419Y-56315D01*
X83023Y-58850D02*
X83619Y-58850D01*
X83001Y-57116D02*
X82626Y-57491D01*
X83583Y-57116D02*
X83001Y-57116D01*
X82337Y-57491D02*
X82128Y-57700D01*
X82626Y-57491D02*
X82337Y-57491D01*
X84600Y-55149D02*
X84366Y-55149D01*
X81651Y-57700D02*
X82128Y-57700D01*
X82626Y-57700D02*
X82626Y-57491D01*
X86987Y-51100D02*
X86588Y-51100D01*
X88137Y-56450D02*
X88823Y-56450D01*
X87771Y-56816D02*
X88137Y-56450D01*
X85663Y-56816D02*
X87771Y-56816D01*
X84772Y-57707D02*
X85663Y-56816D01*
X84772Y-57907D02*
X84772Y-57707D01*
X84545Y-58134D02*
X84772Y-57907D01*
X83805Y-58134D02*
X84545Y-58134D01*
X83805Y-57338D02*
X83805Y-58134D01*
X83583Y-57116D02*
X83805Y-57338D01*
X83805Y-58664D02*
X83619Y-58850D01*
X83805Y-58134D02*
X83805Y-58664D01*
X85754Y-51100D02*
X85538Y-50884D01*
X86588Y-51100D02*
X85754Y-51100D01*
M02*
