M48
INCH,TZ
T1C0.025
T2C0.032
T3C0.039
T4C0.040
T5C0.050
T6C0.120
%
G90
G05
T1
X071316Y-058218
X072733Y-058151
X073925Y-060350
X074023Y-057361
X075203Y-062600
X075499Y-057851
X075507Y-056310
X075537Y-059182
X076274Y-054290
X076635Y-056879
X076635Y-059782
X076664Y-059189
X077471Y-056366
X077539Y-057734
X077723Y-060076
X078655Y-054243
X079284Y-058437
X079921Y-059400
X083700Y-060224
X086112Y-059893
X086408Y-056888
X086621Y-058678
X087109Y-057810
X087800Y-050900
T2
X030000Y-061700
X033000Y-061700
X078800Y-052400
X079800Y-052400
X131100Y-061700
X134100Y-061700
T3
X038500Y-053500
X038500Y-055500
X038500Y-058000
X038500Y-060000
X040500Y-053500
X040500Y-055500
X040500Y-058000
X040500Y-060000
X043000Y-053500
X043000Y-055500
X043000Y-058000
X043000Y-060000
X045000Y-053500
X045000Y-055500
X045000Y-058000
X045000Y-060000
X047500Y-053500
X047500Y-055500
X047500Y-058000
X047500Y-060000
X049500Y-053500
X049500Y-055500
X049500Y-058000
X049500Y-060000
X052000Y-053500
X052000Y-055500
X052000Y-058000
X052000Y-060000
X054000Y-053500
X054000Y-055500
X054000Y-058000
X054000Y-060000
X056500Y-053500
X056500Y-055500
X056500Y-058000
X056500Y-060000
X058500Y-053500
X058500Y-055500
X058500Y-058000
X058500Y-060000
X061000Y-053500
X061000Y-055500
X061000Y-058000
X061000Y-060000
X063000Y-053500
X063000Y-055500
X063000Y-058000
X063000Y-060000
X065500Y-053500
X065500Y-055500
X065500Y-058000
X065500Y-060000
X067500Y-053500
X067500Y-055500
X067500Y-058000
X067500Y-060000
X070000Y-053500
X070000Y-055500
X070000Y-058000
X070000Y-060000
X072000Y-053500
X072000Y-055500
X072000Y-058000
X072000Y-060000
X092000Y-053500
X092000Y-055500
X092000Y-058000
X092000Y-060000
X094000Y-053500
X094000Y-055500
X094000Y-058000
X094000Y-060000
X096500Y-053500
X096500Y-055500
X096500Y-058000
X096500Y-060000
X098500Y-053500
X098500Y-055500
X098500Y-058000
X098500Y-060000
X100900Y-053500
X100900Y-055500
X100900Y-058000
X100900Y-060000
X102900Y-053500
X102900Y-055500
X102900Y-058000
X102900Y-060000
X105500Y-053500
X105500Y-055500
X105500Y-058000
X105500Y-060000
X107500Y-053500
X107500Y-055500
X107500Y-058000
X107500Y-060000
X110000Y-053500
X110000Y-055500
X110000Y-058000
X110000Y-060000
X112000Y-053500
X112000Y-055500
X112000Y-058000
X112000Y-060000
X114600Y-053500
X114600Y-055500
X114600Y-058000
X114600Y-060000
X116600Y-053500
X116600Y-055500
X116600Y-058000
X116600Y-060000
X119000Y-053500
X119000Y-055500
X119000Y-058000
X119000Y-060000
X121000Y-053500
X121000Y-055500
X121000Y-058000
X121000Y-060000
X123500Y-053500
X123500Y-055500
X123500Y-058000
X123500Y-060000
X125500Y-053500
X125500Y-055500
X125500Y-058000
X125500Y-060000
T4
X030000Y-053200
X030000Y-054200
X030000Y-055200
X030000Y-056200
X030000Y-057200
X030000Y-058200
X030000Y-059200
X030000Y-060200
X031000Y-053200
X031000Y-054200
X031000Y-055200
X031000Y-056200
X031000Y-057200
X031000Y-058200
X031000Y-059200
X031000Y-060200
X034800Y-055700
X034800Y-057700
X075300Y-051575
X075300Y-053325
X077850Y-051575
X077850Y-053325
X080700Y-051575
X080700Y-053325
X081100Y-055000
X081100Y-056000
X082100Y-055000
X082100Y-056000
X083100Y-055000
X083100Y-056000
X083250Y-051575
X083250Y-053325
X086100Y-051575
X086100Y-053325
X088650Y-051575
X088650Y-053325
X129300Y-055700
X129300Y-057700
X133100Y-051600
X133100Y-053200
X133100Y-054200
X133100Y-055200
X133100Y-056200
X133100Y-057200
X133100Y-058200
X133100Y-059200
X133100Y-060200
X134100Y-051600
X134100Y-053200
X134100Y-054200
X134100Y-055200
X134100Y-056200
X134100Y-057200
X134100Y-058200
X134100Y-059200
X134100Y-060200
T5
X085100Y-059100
X089100Y-058100
X089100Y-060100
T6
X036500Y-052000
X036500Y-061500
X068500Y-052000
X068500Y-061500
X095500Y-052000
X095500Y-061500
X127500Y-052000
X127500Y-061500
T0
M30
