M48
INCH,TZ
T1C0.025
T2C0.032
T3C0.039
T4C0.040
T5C0.050
T6C0.120
%
G90
G05
T1
X071093Y-062619
X072540Y-060320
X072685Y-061142
X072997Y-060320
X074664Y-060353
X074666Y-060861
X074682Y-061473
X075268Y-060166
X076569Y-060846
X076702Y-061548
X076836Y-057507
X076930Y-058058
X076955Y-059308
X077859Y-056436
X078035Y-055598
X078271Y-060812
X078279Y-058794
X078665Y-058433
X079596Y-062092
X079597Y-061638
X079611Y-061184
X079700Y-059347
X080000Y-056000
X080046Y-062386
X080129Y-057744
X080159Y-060490
X081300Y-058100
X082218Y-056921
X082360Y-058594
X083782Y-060061
X084383Y-055249
X090644Y-056594
X090650Y-062350
X092712Y-061350
X093399Y-061850
X132092Y-058866
T2
X078800Y-052400
X079800Y-052400
T3
X033600Y-055200
X033600Y-058200
X039499Y-053500
X039499Y-055500
X039500Y-058000
X039500Y-060000
X044000Y-053500
X044000Y-055500
X044000Y-058000
X044000Y-060000
X048500Y-053500
X048500Y-055500
X048500Y-058000
X048500Y-060000
X053000Y-053500
X053000Y-055500
X053000Y-058000
X053000Y-060000
X057500Y-053500
X057500Y-055500
X057500Y-058000
X057500Y-060000
X062000Y-053500
X062000Y-055500
X062000Y-058000
X062000Y-060000
X066500Y-053500
X066500Y-055500
X066500Y-058000
X066500Y-060000
X071000Y-053500
X071000Y-055500
X071000Y-058000
X071000Y-060000
X093000Y-053500
X093000Y-055500
X093000Y-058000
X093000Y-060000
X097500Y-053500
X097500Y-055500
X097500Y-058000
X097500Y-060000
X102000Y-053500
X102000Y-055500
X102000Y-058000
X102000Y-060000
X106500Y-053500
X106500Y-055500
X106500Y-058000
X106500Y-060000
X111000Y-053500
X111000Y-055500
X111000Y-057900
X111000Y-059900
X115600Y-053500
X115600Y-055500
X115600Y-058000
X115600Y-060000
X120000Y-053500
X120000Y-055500
X120000Y-058000
X120000Y-060000
X124500Y-053500
X124500Y-055500
X124500Y-058000
X124500Y-060000
X130500Y-055200
X130500Y-058200
T4
X027800Y-053200
X027800Y-054200
X027800Y-055200
X027800Y-056200
X027800Y-057200
X027800Y-058200
X027800Y-059200
X027800Y-060200
X028800Y-053200
X028800Y-054200
X028800Y-055200
X028800Y-056200
X028800Y-057200
X028800Y-058200
X028800Y-059200
X028800Y-060200
X074800Y-054900
X074800Y-055900
X075300Y-051575
X075300Y-053325
X075800Y-054900
X075800Y-055900
X076800Y-054900
X076800Y-055900
X077850Y-051575
X077850Y-053325
X080700Y-051575
X080700Y-053325
X083250Y-051575
X083250Y-053325
X086100Y-051575
X086100Y-053325
X088650Y-051575
X088650Y-053325
X135300Y-053200
X135300Y-054200
X135300Y-055200
X135300Y-056200
X135300Y-057200
X135300Y-058200
X135300Y-059200
X135300Y-060200
X136300Y-053200
X136300Y-054200
X136300Y-055200
X136300Y-056200
X136300Y-057200
X136300Y-058200
X136300Y-059200
X136300Y-060200
T5
X085100Y-057800
X089100Y-056800
X089100Y-058800
T6
X036500Y-052000
X036500Y-061500
X068500Y-052000
X068500Y-061500
X095500Y-052000
X095500Y-061500
X127500Y-052000
X127500Y-061500
T0
M30
