G04 (created by PCBNEW-RS274X (2010-04-21 BZR 23xx)-stable) date Tue 15 Mar 2011 07:35:12 PM CET*
G01*
G70*
G90*
%MOIN*%
G04 Gerber Fmt 3.4, Leading zero omitted, Abs format*
%FSLAX34Y34*%
G04 APERTURE LIST*
%ADD10C,0.006000*%
%ADD11C,0.015000*%
%ADD12R,0.080000X0.080000*%
%ADD13C,0.080000*%
%ADD14R,0.043600X0.106600*%
%ADD15O,0.072000X0.124000*%
%ADD16R,0.098700X0.051400*%
%ADD17C,0.120000*%
%ADD18R,0.079000X0.071100*%
%ADD19R,0.071100X0.079000*%
%ADD20R,0.075000X0.075000*%
%ADD21C,0.075000*%
%ADD22R,0.090800X0.082900*%
%ADD23R,0.082900X0.090800*%
%ADD24C,0.100000*%
%ADD25R,0.106600X0.043600*%
%ADD26C,0.180000*%
G04 APERTURE END LIST*
G54D10*
G54D11*
X08000Y-11500D02*
X108000Y-11500D01*
X08000Y-24000D02*
X08000Y-11500D01*
X09000Y-24000D02*
X08000Y-24000D01*
X108000Y-24000D02*
X107000Y-24000D01*
X108000Y-11500D02*
X108000Y-24000D01*
X107000Y-24000D02*
X09000Y-24000D01*
G54D12*
X59500Y-17300D03*
G54D13*
X59500Y-16300D03*
X60500Y-17300D03*
X60500Y-16300D03*
X61500Y-17300D03*
X61500Y-16300D03*
G54D14*
X67900Y-16277D03*
X67400Y-16277D03*
X66900Y-16277D03*
X66400Y-16277D03*
X65900Y-16277D03*
X65400Y-16277D03*
X64900Y-16277D03*
X64900Y-18323D03*
X65400Y-18323D03*
X65900Y-18323D03*
X66400Y-18323D03*
X66900Y-18323D03*
X67400Y-18323D03*
X67900Y-18323D03*
G54D15*
X67436Y-21035D03*
X66452Y-21035D03*
X65468Y-21035D03*
G54D16*
X52178Y-17165D03*
X52178Y-16665D03*
X52178Y-16165D03*
X52178Y-15665D03*
X48364Y-15665D03*
X48364Y-16165D03*
X48364Y-16665D03*
X48364Y-17165D03*
G54D17*
X44000Y-21000D03*
X44000Y-19000D03*
X12500Y-19000D03*
X12500Y-21000D03*
X12500Y-14500D03*
X12500Y-16500D03*
X17000Y-16500D03*
X17000Y-14500D03*
X17000Y-21000D03*
X17000Y-19000D03*
X21500Y-19000D03*
X21500Y-21000D03*
X21500Y-14500D03*
X21500Y-16500D03*
X26000Y-16500D03*
X26000Y-14500D03*
X26000Y-21000D03*
X26000Y-19000D03*
X30500Y-19000D03*
X30500Y-21000D03*
X30500Y-14500D03*
X30500Y-16500D03*
X35000Y-16500D03*
X35000Y-14500D03*
X35000Y-21000D03*
X35000Y-19000D03*
X39500Y-19000D03*
X39500Y-21000D03*
X39500Y-14500D03*
X39500Y-16500D03*
X44000Y-16500D03*
X44000Y-14500D03*
G54D18*
X51000Y-13774D03*
X51000Y-13026D03*
X52100Y-13026D03*
X52100Y-13774D03*
X53200Y-13026D03*
X53200Y-13774D03*
X54300Y-13774D03*
X54300Y-13026D03*
X49900Y-13774D03*
X49900Y-13026D03*
X48800Y-13026D03*
X48800Y-13774D03*
X46600Y-13026D03*
X46600Y-13774D03*
X47700Y-13774D03*
X47700Y-13026D03*
G54D19*
X67574Y-13600D03*
X66826Y-13600D03*
G54D13*
X62700Y-12575D03*
X65250Y-12575D03*
X62700Y-14325D03*
X65250Y-14325D03*
X59200Y-12575D03*
X61750Y-12575D03*
X59200Y-14325D03*
X61750Y-14325D03*
X55700Y-12575D03*
X58250Y-12575D03*
X55700Y-14325D03*
X58250Y-14325D03*
G54D18*
X57200Y-15977D03*
X57200Y-16725D03*
G54D17*
X103500Y-21000D03*
X103500Y-19000D03*
X103500Y-16500D03*
X103500Y-14500D03*
X99000Y-14500D03*
X99000Y-16500D03*
X99000Y-19000D03*
X99000Y-21000D03*
X94500Y-21000D03*
X94500Y-19000D03*
X94500Y-16500D03*
X94500Y-14500D03*
X90000Y-14500D03*
X90000Y-16500D03*
X90000Y-19000D03*
X90000Y-21000D03*
X85500Y-21000D03*
X85500Y-19000D03*
X85500Y-16500D03*
X85500Y-14500D03*
X81000Y-14500D03*
X81000Y-16500D03*
X81000Y-19000D03*
X81000Y-21000D03*
X76500Y-21000D03*
X76500Y-19000D03*
X76500Y-16500D03*
X76500Y-14500D03*
X72000Y-14500D03*
X72000Y-16500D03*
X72000Y-19000D03*
X72000Y-21000D03*
G54D20*
X55285Y-16021D03*
G54D21*
X55285Y-17021D03*
G54D18*
X63300Y-19126D03*
X63300Y-19874D03*
X63300Y-17674D03*
X63300Y-16926D03*
G54D22*
X53477Y-16939D03*
X53477Y-15837D03*
X46400Y-17551D03*
X46400Y-16449D03*
G54D23*
X55949Y-19800D03*
X57051Y-19800D03*
G54D22*
X69300Y-16649D03*
X69300Y-17751D03*
G54D24*
X52495Y-21720D03*
X48495Y-20720D03*
X52495Y-19720D03*
G54D25*
X59477Y-19250D03*
X59477Y-19750D03*
X59477Y-20250D03*
X59477Y-20750D03*
X59477Y-21250D03*
X59477Y-21750D03*
X59477Y-22250D03*
X59477Y-22750D03*
X61523Y-22750D03*
X61523Y-22250D03*
X61523Y-21750D03*
X61523Y-21250D03*
X61523Y-20750D03*
X61523Y-20250D03*
X61523Y-19750D03*
X61523Y-19250D03*
G54D12*
X09000Y-20500D03*
G54D13*
X09000Y-19500D03*
X09000Y-18500D03*
X09000Y-17500D03*
X09000Y-16500D03*
X09000Y-15500D03*
G54D12*
X107000Y-20500D03*
G54D13*
X107000Y-19500D03*
X107000Y-18500D03*
X107000Y-17500D03*
X107000Y-16500D03*
X107000Y-15500D03*
G54D26*
X106500Y-22500D03*
X09500Y-13000D03*
X09500Y-22500D03*
X106500Y-13000D03*
X74500Y-13000D03*
X41500Y-13000D03*
M02*
