M48
INCH,TZ
T1C0.025
T2C0.032
T3C0.039
T4C0.040
T5C0.050
T6C0.120
%
G90
G05
T1
X073242Y-061807
X074098Y-056050
X074113Y-058614
X075123Y-054614
X075471Y-057648
X075501Y-058759
X075884Y-057340
X076049Y-058446
X076307Y-059045
X076373Y-054367
X076859Y-059093
X077165Y-052658
X077727Y-058570
X079084Y-056733
X079093Y-058549
X079556Y-058282
X079561Y-056852
X079582Y-057647
X083706Y-059718
X087800Y-050900
X090640Y-056285
X090650Y-062350
T2
X078800Y-052400
X079800Y-052400
T3
X033600Y-055200
X033600Y-058200
X039499Y-053500
X039499Y-055500
X039500Y-058000
X039500Y-060000
X044000Y-053500
X044000Y-055500
X044000Y-058000
X044000Y-060000
X048500Y-053500
X048500Y-055500
X048500Y-058000
X048500Y-060000
X053000Y-053500
X053000Y-055500
X053000Y-058000
X053000Y-060000
X057500Y-053500
X057500Y-055500
X057500Y-058000
X057500Y-060000
X062000Y-053500
X062000Y-055500
X062000Y-058000
X062000Y-060000
X066500Y-053500
X066500Y-055500
X066500Y-058000
X066500Y-060000
X071000Y-053500
X071000Y-055500
X071000Y-058000
X071000Y-060000
X093000Y-053500
X093000Y-055500
X093000Y-058000
X093000Y-060000
X097500Y-053500
X097500Y-055500
X097500Y-058000
X097500Y-060000
X102000Y-053500
X102000Y-055500
X102000Y-058000
X102000Y-060000
X106500Y-053500
X106500Y-055500
X106500Y-058000
X106500Y-060000
X111000Y-053500
X111000Y-055500
X111000Y-057900
X111000Y-059900
X115600Y-053500
X115600Y-055500
X115600Y-058000
X115600Y-060000
X120000Y-053500
X120000Y-055500
X120000Y-058000
X120000Y-060000
X124500Y-053500
X124500Y-055500
X124500Y-058000
X124500Y-060000
X130500Y-055200
X130500Y-058200
T4
X027800Y-053200
X027800Y-054200
X027800Y-055200
X027800Y-056200
X027800Y-057200
X027800Y-058200
X027800Y-059200
X027800Y-060200
X028800Y-053200
X028800Y-054200
X028800Y-055200
X028800Y-056200
X028800Y-057200
X028800Y-058200
X028800Y-059200
X028800Y-060200
X075300Y-051575
X075300Y-053325
X077850Y-051575
X077850Y-053325
X080700Y-051575
X080700Y-053325
X081100Y-055200
X081100Y-056200
X082100Y-055200
X082100Y-056200
X083100Y-055200
X083100Y-056200
X083250Y-051575
X083250Y-053325
X086100Y-051575
X086100Y-053325
X088650Y-051575
X088650Y-053325
X135300Y-053200
X135300Y-054200
X135300Y-055200
X135300Y-056200
X135300Y-057200
X135300Y-058200
X135300Y-059200
X135300Y-060200
X136300Y-053200
X136300Y-054200
X136300Y-055200
X136300Y-056200
X136300Y-057200
X136300Y-058200
X136300Y-059200
X136300Y-060200
T5
X085100Y-059100
X089100Y-058100
X089100Y-060100
T6
X036500Y-052000
X036500Y-061500
X068500Y-052000
X068500Y-061500
X095500Y-052000
X095500Y-061500
X127500Y-052000
X127500Y-061500
T0
M30
