G04 (created by PCBNEW (2010-04-21 BZR 23xx)-stable) date Wed 16 Mar 2011 01:38:37 AM CET*
G01*
G70*
G90*
%MOIN*%
G04 Gerber Fmt 3.4, Leading zero omitted, Abs format*
%FSLAX34Y34*%
G04 APERTURE LIST*
%ADD10C,0.001000*%
%ADD11C,0.015000*%
%ADD12C,0.008000*%
G04 APERTURE END LIST*
G54D10*
G54D11*
X08000Y-11500D02*
X108000Y-11500D01*
X08000Y-24000D02*
X08000Y-11500D01*
X09000Y-24000D02*
X08000Y-24000D01*
X108000Y-24000D02*
X107000Y-24000D01*
X108000Y-11500D02*
X108000Y-24000D01*
X107000Y-24000D02*
X09000Y-24000D01*
G54D10*
X44631Y-22700D02*
X44881Y-22950D01*
X44881Y-22700D02*
X44631Y-22950D01*
X46124Y-18170D02*
X46374Y-18420D01*
X46374Y-18170D02*
X46124Y-18420D01*
X50080Y-12316D02*
X50330Y-12566D01*
X50330Y-12316D02*
X50080Y-12566D01*
X50530Y-23202D02*
X50780Y-23452D01*
X50780Y-23202D02*
X50530Y-23452D01*
X56374Y-16198D02*
X56624Y-16448D01*
X56624Y-16198D02*
X56374Y-16448D01*
X57248Y-14182D02*
X57498Y-14432D01*
X57498Y-14182D02*
X57248Y-14432D01*
X57852Y-19717D02*
X58102Y-19967D01*
X58102Y-19717D02*
X57852Y-19967D01*
X58089Y-16768D02*
X58339Y-17018D01*
X58339Y-16768D02*
X58089Y-17018D01*
X58638Y-19726D02*
X58888Y-19976D01*
X58888Y-19726D02*
X58638Y-19976D01*
X60195Y-21606D02*
X60445Y-21856D01*
X60445Y-21606D02*
X60195Y-21856D01*
X60264Y-19671D02*
X60514Y-19921D01*
X60514Y-19671D02*
X60264Y-19921D01*
X60331Y-20192D02*
X60581Y-20442D01*
X60581Y-20192D02*
X60331Y-20442D01*
X63595Y-18456D02*
X63845Y-18706D01*
X63845Y-18456D02*
X63595Y-18706D01*
X63926Y-17778D02*
X64176Y-18028D01*
X64176Y-17778D02*
X63926Y-18028D01*
X64612Y-17052D02*
X64862Y-17302D01*
X64862Y-17052D02*
X64612Y-17302D01*
X66072Y-15416D02*
X66322Y-15666D01*
X66322Y-15416D02*
X66072Y-15666D01*
X66193Y-14362D02*
X66443Y-14612D01*
X66443Y-14362D02*
X66193Y-14612D01*
X66781Y-17176D02*
X67031Y-17426D01*
X67031Y-17176D02*
X66781Y-17426D01*
X67296Y-16886D02*
X67546Y-17136D01*
X67546Y-16886D02*
X67296Y-17136D01*
X67505Y-19158D02*
X67755Y-19408D01*
X67755Y-19158D02*
X67505Y-19408D01*
X70602Y-15840D02*
X70852Y-16090D01*
X70852Y-15840D02*
X70602Y-16090D01*
X70770Y-17367D02*
X71020Y-17617D01*
X71020Y-17367D02*
X70770Y-17617D01*
X70858Y-22618D02*
X71108Y-22868D01*
X71108Y-22618D02*
X70858Y-22868D01*
X105204Y-18375D02*
X105454Y-18625D01*
X105454Y-18375D02*
X105204Y-18625D01*
X55445Y-16021D02*
X55441Y-16052D01*
X55432Y-16081D01*
X55418Y-16109D01*
X55398Y-16133D01*
X55374Y-16153D01*
X55347Y-16168D01*
X55317Y-16177D01*
X55286Y-16180D01*
X55256Y-16178D01*
X55226Y-16169D01*
X55198Y-16154D01*
X55174Y-16135D01*
X55153Y-16111D01*
X55138Y-16084D01*
X55129Y-16054D01*
X55126Y-16023D01*
X55128Y-15993D01*
X55137Y-15963D01*
X55151Y-15935D01*
X55170Y-15910D01*
X55194Y-15890D01*
X55221Y-15875D01*
X55251Y-15865D01*
X55282Y-15862D01*
X55312Y-15864D01*
X55342Y-15872D01*
X55370Y-15886D01*
X55395Y-15906D01*
X55415Y-15929D01*
X55431Y-15956D01*
X55441Y-15986D01*
X55444Y-16017D01*
X55445Y-16021D01*
X55445Y-17021D02*
X55441Y-17052D01*
X55432Y-17081D01*
X55418Y-17109D01*
X55398Y-17133D01*
X55374Y-17153D01*
X55347Y-17168D01*
X55317Y-17177D01*
X55286Y-17180D01*
X55256Y-17178D01*
X55226Y-17169D01*
X55198Y-17154D01*
X55174Y-17135D01*
X55153Y-17111D01*
X55138Y-17084D01*
X55129Y-17054D01*
X55126Y-17023D01*
X55128Y-16993D01*
X55137Y-16963D01*
X55151Y-16935D01*
X55170Y-16910D01*
X55194Y-16890D01*
X55221Y-16875D01*
X55251Y-16865D01*
X55282Y-16862D01*
X55312Y-16864D01*
X55342Y-16872D01*
X55370Y-16886D01*
X55395Y-16906D01*
X55415Y-16929D01*
X55431Y-16956D01*
X55441Y-16986D01*
X55444Y-17017D01*
X55445Y-17021D01*
X65628Y-21035D02*
X65624Y-21066D01*
X65615Y-21095D01*
X65601Y-21123D01*
X65581Y-21147D01*
X65557Y-21167D01*
X65530Y-21182D01*
X65500Y-21191D01*
X65469Y-21194D01*
X65439Y-21192D01*
X65409Y-21183D01*
X65381Y-21168D01*
X65357Y-21149D01*
X65336Y-21125D01*
X65321Y-21098D01*
X65312Y-21068D01*
X65309Y-21037D01*
X65311Y-21007D01*
X65320Y-20977D01*
X65334Y-20949D01*
X65353Y-20924D01*
X65377Y-20904D01*
X65404Y-20889D01*
X65434Y-20879D01*
X65465Y-20876D01*
X65495Y-20878D01*
X65525Y-20886D01*
X65553Y-20900D01*
X65578Y-20920D01*
X65598Y-20943D01*
X65614Y-20970D01*
X65624Y-21000D01*
X65627Y-21031D01*
X65628Y-21035D01*
X66612Y-21035D02*
X66608Y-21066D01*
X66599Y-21095D01*
X66585Y-21123D01*
X66565Y-21147D01*
X66541Y-21167D01*
X66514Y-21182D01*
X66484Y-21191D01*
X66453Y-21194D01*
X66423Y-21192D01*
X66393Y-21183D01*
X66365Y-21168D01*
X66341Y-21149D01*
X66320Y-21125D01*
X66305Y-21098D01*
X66296Y-21068D01*
X66293Y-21037D01*
X66295Y-21007D01*
X66304Y-20977D01*
X66318Y-20949D01*
X66337Y-20924D01*
X66361Y-20904D01*
X66388Y-20889D01*
X66418Y-20879D01*
X66449Y-20876D01*
X66479Y-20878D01*
X66509Y-20886D01*
X66537Y-20900D01*
X66562Y-20920D01*
X66582Y-20943D01*
X66598Y-20970D01*
X66608Y-21000D01*
X66611Y-21031D01*
X66612Y-21035D01*
X67596Y-21035D02*
X67592Y-21066D01*
X67583Y-21095D01*
X67569Y-21123D01*
X67549Y-21147D01*
X67525Y-21167D01*
X67498Y-21182D01*
X67468Y-21191D01*
X67437Y-21194D01*
X67407Y-21192D01*
X67377Y-21183D01*
X67349Y-21168D01*
X67325Y-21149D01*
X67304Y-21125D01*
X67289Y-21098D01*
X67280Y-21068D01*
X67277Y-21037D01*
X67279Y-21007D01*
X67288Y-20977D01*
X67302Y-20949D01*
X67321Y-20924D01*
X67345Y-20904D01*
X67372Y-20889D01*
X67402Y-20879D01*
X67433Y-20876D01*
X67463Y-20878D01*
X67493Y-20886D01*
X67521Y-20900D01*
X67546Y-20920D01*
X67566Y-20943D01*
X67582Y-20970D01*
X67592Y-21000D01*
X67595Y-21031D01*
X67596Y-21035D01*
X12500Y-14303D02*
X12500Y-14697D01*
X12697Y-14500D02*
X12303Y-14500D01*
X12500Y-16303D02*
X12500Y-16697D01*
X12697Y-16500D02*
X12303Y-16500D01*
X12500Y-18803D02*
X12500Y-19197D01*
X12697Y-19000D02*
X12303Y-19000D01*
X12500Y-20803D02*
X12500Y-21197D01*
X12697Y-21000D02*
X12303Y-21000D01*
X17000Y-14303D02*
X17000Y-14697D01*
X17197Y-14500D02*
X16803Y-14500D01*
X17000Y-16303D02*
X17000Y-16697D01*
X17197Y-16500D02*
X16803Y-16500D01*
X17000Y-18803D02*
X17000Y-19197D01*
X17197Y-19000D02*
X16803Y-19000D01*
X17000Y-20803D02*
X17000Y-21197D01*
X17197Y-21000D02*
X16803Y-21000D01*
X21500Y-14303D02*
X21500Y-14697D01*
X21697Y-14500D02*
X21303Y-14500D01*
X21500Y-16303D02*
X21500Y-16697D01*
X21697Y-16500D02*
X21303Y-16500D01*
X21500Y-18803D02*
X21500Y-19197D01*
X21697Y-19000D02*
X21303Y-19000D01*
X21500Y-20803D02*
X21500Y-21197D01*
X21697Y-21000D02*
X21303Y-21000D01*
X26000Y-14303D02*
X26000Y-14697D01*
X26197Y-14500D02*
X25803Y-14500D01*
X26000Y-16303D02*
X26000Y-16697D01*
X26197Y-16500D02*
X25803Y-16500D01*
X26000Y-18803D02*
X26000Y-19197D01*
X26197Y-19000D02*
X25803Y-19000D01*
X26000Y-20803D02*
X26000Y-21197D01*
X26197Y-21000D02*
X25803Y-21000D01*
X30500Y-14303D02*
X30500Y-14697D01*
X30697Y-14500D02*
X30303Y-14500D01*
X30500Y-16303D02*
X30500Y-16697D01*
X30697Y-16500D02*
X30303Y-16500D01*
X30500Y-18803D02*
X30500Y-19197D01*
X30697Y-19000D02*
X30303Y-19000D01*
X30500Y-20803D02*
X30500Y-21197D01*
X30697Y-21000D02*
X30303Y-21000D01*
X35000Y-14303D02*
X35000Y-14697D01*
X35197Y-14500D02*
X34803Y-14500D01*
X35000Y-16303D02*
X35000Y-16697D01*
X35197Y-16500D02*
X34803Y-16500D01*
X35000Y-18803D02*
X35000Y-19197D01*
X35197Y-19000D02*
X34803Y-19000D01*
X35000Y-20803D02*
X35000Y-21197D01*
X35197Y-21000D02*
X34803Y-21000D01*
X39500Y-14303D02*
X39500Y-14697D01*
X39697Y-14500D02*
X39303Y-14500D01*
X39500Y-16303D02*
X39500Y-16697D01*
X39697Y-16500D02*
X39303Y-16500D01*
X39500Y-18803D02*
X39500Y-19197D01*
X39697Y-19000D02*
X39303Y-19000D01*
X39500Y-20803D02*
X39500Y-21197D01*
X39697Y-21000D02*
X39303Y-21000D01*
X44000Y-14303D02*
X44000Y-14697D01*
X44197Y-14500D02*
X43803Y-14500D01*
X44000Y-16303D02*
X44000Y-16697D01*
X44197Y-16500D02*
X43803Y-16500D01*
X44000Y-18803D02*
X44000Y-19197D01*
X44197Y-19000D02*
X43803Y-19000D01*
X44000Y-20803D02*
X44000Y-21197D01*
X44197Y-21000D02*
X43803Y-21000D01*
X72000Y-14303D02*
X72000Y-14697D01*
X72197Y-14500D02*
X71803Y-14500D01*
X72000Y-16303D02*
X72000Y-16697D01*
X72197Y-16500D02*
X71803Y-16500D01*
X72000Y-18803D02*
X72000Y-19197D01*
X72197Y-19000D02*
X71803Y-19000D01*
X72000Y-20803D02*
X72000Y-21197D01*
X72197Y-21000D02*
X71803Y-21000D01*
X76500Y-14303D02*
X76500Y-14697D01*
X76697Y-14500D02*
X76303Y-14500D01*
X76500Y-16303D02*
X76500Y-16697D01*
X76697Y-16500D02*
X76303Y-16500D01*
X76500Y-18803D02*
X76500Y-19197D01*
X76697Y-19000D02*
X76303Y-19000D01*
X76500Y-20803D02*
X76500Y-21197D01*
X76697Y-21000D02*
X76303Y-21000D01*
X81000Y-14303D02*
X81000Y-14697D01*
X81197Y-14500D02*
X80803Y-14500D01*
X81000Y-16303D02*
X81000Y-16697D01*
X81197Y-16500D02*
X80803Y-16500D01*
X81000Y-18803D02*
X81000Y-19197D01*
X81197Y-19000D02*
X80803Y-19000D01*
X81000Y-20803D02*
X81000Y-21197D01*
X81197Y-21000D02*
X80803Y-21000D01*
X85500Y-14303D02*
X85500Y-14697D01*
X85697Y-14500D02*
X85303Y-14500D01*
X85500Y-16303D02*
X85500Y-16697D01*
X85697Y-16500D02*
X85303Y-16500D01*
X85500Y-18803D02*
X85500Y-19197D01*
X85697Y-19000D02*
X85303Y-19000D01*
X85500Y-20803D02*
X85500Y-21197D01*
X85697Y-21000D02*
X85303Y-21000D01*
X90000Y-14303D02*
X90000Y-14697D01*
X90197Y-14500D02*
X89803Y-14500D01*
X90000Y-16303D02*
X90000Y-16697D01*
X90197Y-16500D02*
X89803Y-16500D01*
X90000Y-18803D02*
X90000Y-19197D01*
X90197Y-19000D02*
X89803Y-19000D01*
X90000Y-20803D02*
X90000Y-21197D01*
X90197Y-21000D02*
X89803Y-21000D01*
X94500Y-14303D02*
X94500Y-14697D01*
X94697Y-14500D02*
X94303Y-14500D01*
X94500Y-16303D02*
X94500Y-16697D01*
X94697Y-16500D02*
X94303Y-16500D01*
X94500Y-18803D02*
X94500Y-19197D01*
X94697Y-19000D02*
X94303Y-19000D01*
X94500Y-20803D02*
X94500Y-21197D01*
X94697Y-21000D02*
X94303Y-21000D01*
X99000Y-14303D02*
X99000Y-14697D01*
X99197Y-14500D02*
X98803Y-14500D01*
X99000Y-16303D02*
X99000Y-16697D01*
X99197Y-16500D02*
X98803Y-16500D01*
X99000Y-18803D02*
X99000Y-19197D01*
X99197Y-19000D02*
X98803Y-19000D01*
X99000Y-20803D02*
X99000Y-21197D01*
X99197Y-21000D02*
X98803Y-21000D01*
X103500Y-14303D02*
X103500Y-14697D01*
X103697Y-14500D02*
X103303Y-14500D01*
X103500Y-16303D02*
X103500Y-16697D01*
X103697Y-16500D02*
X103303Y-16500D01*
X103500Y-18803D02*
X103500Y-19197D01*
X103697Y-19000D02*
X103303Y-19000D01*
X103500Y-20803D02*
X103500Y-21197D01*
X103697Y-21000D02*
X103303Y-21000D01*
X09200Y-15500D02*
X09196Y-15538D01*
X09184Y-15576D01*
X09166Y-15610D01*
X09141Y-15640D01*
X09111Y-15665D01*
X09077Y-15684D01*
X09040Y-15695D01*
X09001Y-15699D01*
X08963Y-15696D01*
X08926Y-15685D01*
X08891Y-15667D01*
X08861Y-15642D01*
X08835Y-15612D01*
X08817Y-15578D01*
X08805Y-15541D01*
X08801Y-15502D01*
X08804Y-15464D01*
X08815Y-15427D01*
X08832Y-15392D01*
X08857Y-15362D01*
X08886Y-15336D01*
X08920Y-15317D01*
X08958Y-15305D01*
X08996Y-15301D01*
X09034Y-15304D01*
X09072Y-15314D01*
X09107Y-15332D01*
X09137Y-15356D01*
X09163Y-15385D01*
X09182Y-15419D01*
X09195Y-15456D01*
X09199Y-15495D01*
X09200Y-15500D01*
X08800Y-15300D02*
X09200Y-15700D01*
X09200Y-15300D02*
X08800Y-15700D01*
X09200Y-16500D02*
X09196Y-16538D01*
X09184Y-16576D01*
X09166Y-16610D01*
X09141Y-16640D01*
X09111Y-16665D01*
X09077Y-16684D01*
X09040Y-16695D01*
X09001Y-16699D01*
X08963Y-16696D01*
X08926Y-16685D01*
X08891Y-16667D01*
X08861Y-16642D01*
X08835Y-16612D01*
X08817Y-16578D01*
X08805Y-16541D01*
X08801Y-16502D01*
X08804Y-16464D01*
X08815Y-16427D01*
X08832Y-16392D01*
X08857Y-16362D01*
X08886Y-16336D01*
X08920Y-16317D01*
X08958Y-16305D01*
X08996Y-16301D01*
X09034Y-16304D01*
X09072Y-16314D01*
X09107Y-16332D01*
X09137Y-16356D01*
X09163Y-16385D01*
X09182Y-16419D01*
X09195Y-16456D01*
X09199Y-16495D01*
X09200Y-16500D01*
X08800Y-16300D02*
X09200Y-16700D01*
X09200Y-16300D02*
X08800Y-16700D01*
X09200Y-17500D02*
X09196Y-17538D01*
X09184Y-17576D01*
X09166Y-17610D01*
X09141Y-17640D01*
X09111Y-17665D01*
X09077Y-17684D01*
X09040Y-17695D01*
X09001Y-17699D01*
X08963Y-17696D01*
X08926Y-17685D01*
X08891Y-17667D01*
X08861Y-17642D01*
X08835Y-17612D01*
X08817Y-17578D01*
X08805Y-17541D01*
X08801Y-17502D01*
X08804Y-17464D01*
X08815Y-17427D01*
X08832Y-17392D01*
X08857Y-17362D01*
X08886Y-17336D01*
X08920Y-17317D01*
X08958Y-17305D01*
X08996Y-17301D01*
X09034Y-17304D01*
X09072Y-17314D01*
X09107Y-17332D01*
X09137Y-17356D01*
X09163Y-17385D01*
X09182Y-17419D01*
X09195Y-17456D01*
X09199Y-17495D01*
X09200Y-17500D01*
X08800Y-17300D02*
X09200Y-17700D01*
X09200Y-17300D02*
X08800Y-17700D01*
X09200Y-18500D02*
X09196Y-18538D01*
X09184Y-18576D01*
X09166Y-18610D01*
X09141Y-18640D01*
X09111Y-18665D01*
X09077Y-18684D01*
X09040Y-18695D01*
X09001Y-18699D01*
X08963Y-18696D01*
X08926Y-18685D01*
X08891Y-18667D01*
X08861Y-18642D01*
X08835Y-18612D01*
X08817Y-18578D01*
X08805Y-18541D01*
X08801Y-18502D01*
X08804Y-18464D01*
X08815Y-18427D01*
X08832Y-18392D01*
X08857Y-18362D01*
X08886Y-18336D01*
X08920Y-18317D01*
X08958Y-18305D01*
X08996Y-18301D01*
X09034Y-18304D01*
X09072Y-18314D01*
X09107Y-18332D01*
X09137Y-18356D01*
X09163Y-18385D01*
X09182Y-18419D01*
X09195Y-18456D01*
X09199Y-18495D01*
X09200Y-18500D01*
X08800Y-18300D02*
X09200Y-18700D01*
X09200Y-18300D02*
X08800Y-18700D01*
X09200Y-19500D02*
X09196Y-19538D01*
X09184Y-19576D01*
X09166Y-19610D01*
X09141Y-19640D01*
X09111Y-19665D01*
X09077Y-19684D01*
X09040Y-19695D01*
X09001Y-19699D01*
X08963Y-19696D01*
X08926Y-19685D01*
X08891Y-19667D01*
X08861Y-19642D01*
X08835Y-19612D01*
X08817Y-19578D01*
X08805Y-19541D01*
X08801Y-19502D01*
X08804Y-19464D01*
X08815Y-19427D01*
X08832Y-19392D01*
X08857Y-19362D01*
X08886Y-19336D01*
X08920Y-19317D01*
X08958Y-19305D01*
X08996Y-19301D01*
X09034Y-19304D01*
X09072Y-19314D01*
X09107Y-19332D01*
X09137Y-19356D01*
X09163Y-19385D01*
X09182Y-19419D01*
X09195Y-19456D01*
X09199Y-19495D01*
X09200Y-19500D01*
X08800Y-19300D02*
X09200Y-19700D01*
X09200Y-19300D02*
X08800Y-19700D01*
X09200Y-20500D02*
X09196Y-20538D01*
X09184Y-20576D01*
X09166Y-20610D01*
X09141Y-20640D01*
X09111Y-20665D01*
X09077Y-20684D01*
X09040Y-20695D01*
X09001Y-20699D01*
X08963Y-20696D01*
X08926Y-20685D01*
X08891Y-20667D01*
X08861Y-20642D01*
X08835Y-20612D01*
X08817Y-20578D01*
X08805Y-20541D01*
X08801Y-20502D01*
X08804Y-20464D01*
X08815Y-20427D01*
X08832Y-20392D01*
X08857Y-20362D01*
X08886Y-20336D01*
X08920Y-20317D01*
X08958Y-20305D01*
X08996Y-20301D01*
X09034Y-20304D01*
X09072Y-20314D01*
X09107Y-20332D01*
X09137Y-20356D01*
X09163Y-20385D01*
X09182Y-20419D01*
X09195Y-20456D01*
X09199Y-20495D01*
X09200Y-20500D01*
X08800Y-20300D02*
X09200Y-20700D01*
X09200Y-20300D02*
X08800Y-20700D01*
X55900Y-12575D02*
X55896Y-12613D01*
X55884Y-12651D01*
X55866Y-12685D01*
X55841Y-12715D01*
X55811Y-12740D01*
X55777Y-12759D01*
X55740Y-12770D01*
X55701Y-12774D01*
X55663Y-12771D01*
X55626Y-12760D01*
X55591Y-12742D01*
X55561Y-12717D01*
X55535Y-12687D01*
X55517Y-12653D01*
X55505Y-12616D01*
X55501Y-12577D01*
X55504Y-12539D01*
X55515Y-12502D01*
X55532Y-12467D01*
X55557Y-12437D01*
X55586Y-12411D01*
X55620Y-12392D01*
X55658Y-12380D01*
X55696Y-12376D01*
X55734Y-12379D01*
X55772Y-12389D01*
X55807Y-12407D01*
X55837Y-12431D01*
X55863Y-12460D01*
X55882Y-12494D01*
X55895Y-12531D01*
X55899Y-12570D01*
X55900Y-12575D01*
X55500Y-12375D02*
X55900Y-12775D01*
X55900Y-12375D02*
X55500Y-12775D01*
X55900Y-14325D02*
X55896Y-14363D01*
X55884Y-14401D01*
X55866Y-14435D01*
X55841Y-14465D01*
X55811Y-14490D01*
X55777Y-14509D01*
X55740Y-14520D01*
X55701Y-14524D01*
X55663Y-14521D01*
X55626Y-14510D01*
X55591Y-14492D01*
X55561Y-14467D01*
X55535Y-14437D01*
X55517Y-14403D01*
X55505Y-14366D01*
X55501Y-14327D01*
X55504Y-14289D01*
X55515Y-14252D01*
X55532Y-14217D01*
X55557Y-14187D01*
X55586Y-14161D01*
X55620Y-14142D01*
X55658Y-14130D01*
X55696Y-14126D01*
X55734Y-14129D01*
X55772Y-14139D01*
X55807Y-14157D01*
X55837Y-14181D01*
X55863Y-14210D01*
X55882Y-14244D01*
X55895Y-14281D01*
X55899Y-14320D01*
X55900Y-14325D01*
X55500Y-14125D02*
X55900Y-14525D01*
X55900Y-14125D02*
X55500Y-14525D01*
X58450Y-12575D02*
X58446Y-12613D01*
X58434Y-12651D01*
X58416Y-12685D01*
X58391Y-12715D01*
X58361Y-12740D01*
X58327Y-12759D01*
X58290Y-12770D01*
X58251Y-12774D01*
X58213Y-12771D01*
X58176Y-12760D01*
X58141Y-12742D01*
X58111Y-12717D01*
X58085Y-12687D01*
X58067Y-12653D01*
X58055Y-12616D01*
X58051Y-12577D01*
X58054Y-12539D01*
X58065Y-12502D01*
X58082Y-12467D01*
X58107Y-12437D01*
X58136Y-12411D01*
X58170Y-12392D01*
X58208Y-12380D01*
X58246Y-12376D01*
X58284Y-12379D01*
X58322Y-12389D01*
X58357Y-12407D01*
X58387Y-12431D01*
X58413Y-12460D01*
X58432Y-12494D01*
X58445Y-12531D01*
X58449Y-12570D01*
X58450Y-12575D01*
X58050Y-12375D02*
X58450Y-12775D01*
X58450Y-12375D02*
X58050Y-12775D01*
X58450Y-14325D02*
X58446Y-14363D01*
X58434Y-14401D01*
X58416Y-14435D01*
X58391Y-14465D01*
X58361Y-14490D01*
X58327Y-14509D01*
X58290Y-14520D01*
X58251Y-14524D01*
X58213Y-14521D01*
X58176Y-14510D01*
X58141Y-14492D01*
X58111Y-14467D01*
X58085Y-14437D01*
X58067Y-14403D01*
X58055Y-14366D01*
X58051Y-14327D01*
X58054Y-14289D01*
X58065Y-14252D01*
X58082Y-14217D01*
X58107Y-14187D01*
X58136Y-14161D01*
X58170Y-14142D01*
X58208Y-14130D01*
X58246Y-14126D01*
X58284Y-14129D01*
X58322Y-14139D01*
X58357Y-14157D01*
X58387Y-14181D01*
X58413Y-14210D01*
X58432Y-14244D01*
X58445Y-14281D01*
X58449Y-14320D01*
X58450Y-14325D01*
X58050Y-14125D02*
X58450Y-14525D01*
X58450Y-14125D02*
X58050Y-14525D01*
X59400Y-12575D02*
X59396Y-12613D01*
X59384Y-12651D01*
X59366Y-12685D01*
X59341Y-12715D01*
X59311Y-12740D01*
X59277Y-12759D01*
X59240Y-12770D01*
X59201Y-12774D01*
X59163Y-12771D01*
X59126Y-12760D01*
X59091Y-12742D01*
X59061Y-12717D01*
X59035Y-12687D01*
X59017Y-12653D01*
X59005Y-12616D01*
X59001Y-12577D01*
X59004Y-12539D01*
X59015Y-12502D01*
X59032Y-12467D01*
X59057Y-12437D01*
X59086Y-12411D01*
X59120Y-12392D01*
X59158Y-12380D01*
X59196Y-12376D01*
X59234Y-12379D01*
X59272Y-12389D01*
X59307Y-12407D01*
X59337Y-12431D01*
X59363Y-12460D01*
X59382Y-12494D01*
X59395Y-12531D01*
X59399Y-12570D01*
X59400Y-12575D01*
X59000Y-12375D02*
X59400Y-12775D01*
X59400Y-12375D02*
X59000Y-12775D01*
X59400Y-14325D02*
X59396Y-14363D01*
X59384Y-14401D01*
X59366Y-14435D01*
X59341Y-14465D01*
X59311Y-14490D01*
X59277Y-14509D01*
X59240Y-14520D01*
X59201Y-14524D01*
X59163Y-14521D01*
X59126Y-14510D01*
X59091Y-14492D01*
X59061Y-14467D01*
X59035Y-14437D01*
X59017Y-14403D01*
X59005Y-14366D01*
X59001Y-14327D01*
X59004Y-14289D01*
X59015Y-14252D01*
X59032Y-14217D01*
X59057Y-14187D01*
X59086Y-14161D01*
X59120Y-14142D01*
X59158Y-14130D01*
X59196Y-14126D01*
X59234Y-14129D01*
X59272Y-14139D01*
X59307Y-14157D01*
X59337Y-14181D01*
X59363Y-14210D01*
X59382Y-14244D01*
X59395Y-14281D01*
X59399Y-14320D01*
X59400Y-14325D01*
X59000Y-14125D02*
X59400Y-14525D01*
X59400Y-14125D02*
X59000Y-14525D01*
X59700Y-16300D02*
X59696Y-16338D01*
X59684Y-16376D01*
X59666Y-16410D01*
X59641Y-16440D01*
X59611Y-16465D01*
X59577Y-16484D01*
X59540Y-16495D01*
X59501Y-16499D01*
X59463Y-16496D01*
X59426Y-16485D01*
X59391Y-16467D01*
X59361Y-16442D01*
X59335Y-16412D01*
X59317Y-16378D01*
X59305Y-16341D01*
X59301Y-16302D01*
X59304Y-16264D01*
X59315Y-16227D01*
X59332Y-16192D01*
X59357Y-16162D01*
X59386Y-16136D01*
X59420Y-16117D01*
X59458Y-16105D01*
X59496Y-16101D01*
X59534Y-16104D01*
X59572Y-16114D01*
X59607Y-16132D01*
X59637Y-16156D01*
X59663Y-16185D01*
X59682Y-16219D01*
X59695Y-16256D01*
X59699Y-16295D01*
X59700Y-16300D01*
X59300Y-16100D02*
X59700Y-16500D01*
X59700Y-16100D02*
X59300Y-16500D01*
X59700Y-17300D02*
X59696Y-17338D01*
X59684Y-17376D01*
X59666Y-17410D01*
X59641Y-17440D01*
X59611Y-17465D01*
X59577Y-17484D01*
X59540Y-17495D01*
X59501Y-17499D01*
X59463Y-17496D01*
X59426Y-17485D01*
X59391Y-17467D01*
X59361Y-17442D01*
X59335Y-17412D01*
X59317Y-17378D01*
X59305Y-17341D01*
X59301Y-17302D01*
X59304Y-17264D01*
X59315Y-17227D01*
X59332Y-17192D01*
X59357Y-17162D01*
X59386Y-17136D01*
X59420Y-17117D01*
X59458Y-17105D01*
X59496Y-17101D01*
X59534Y-17104D01*
X59572Y-17114D01*
X59607Y-17132D01*
X59637Y-17156D01*
X59663Y-17185D01*
X59682Y-17219D01*
X59695Y-17256D01*
X59699Y-17295D01*
X59700Y-17300D01*
X59300Y-17100D02*
X59700Y-17500D01*
X59700Y-17100D02*
X59300Y-17500D01*
X60700Y-16300D02*
X60696Y-16338D01*
X60684Y-16376D01*
X60666Y-16410D01*
X60641Y-16440D01*
X60611Y-16465D01*
X60577Y-16484D01*
X60540Y-16495D01*
X60501Y-16499D01*
X60463Y-16496D01*
X60426Y-16485D01*
X60391Y-16467D01*
X60361Y-16442D01*
X60335Y-16412D01*
X60317Y-16378D01*
X60305Y-16341D01*
X60301Y-16302D01*
X60304Y-16264D01*
X60315Y-16227D01*
X60332Y-16192D01*
X60357Y-16162D01*
X60386Y-16136D01*
X60420Y-16117D01*
X60458Y-16105D01*
X60496Y-16101D01*
X60534Y-16104D01*
X60572Y-16114D01*
X60607Y-16132D01*
X60637Y-16156D01*
X60663Y-16185D01*
X60682Y-16219D01*
X60695Y-16256D01*
X60699Y-16295D01*
X60700Y-16300D01*
X60300Y-16100D02*
X60700Y-16500D01*
X60700Y-16100D02*
X60300Y-16500D01*
X60700Y-17300D02*
X60696Y-17338D01*
X60684Y-17376D01*
X60666Y-17410D01*
X60641Y-17440D01*
X60611Y-17465D01*
X60577Y-17484D01*
X60540Y-17495D01*
X60501Y-17499D01*
X60463Y-17496D01*
X60426Y-17485D01*
X60391Y-17467D01*
X60361Y-17442D01*
X60335Y-17412D01*
X60317Y-17378D01*
X60305Y-17341D01*
X60301Y-17302D01*
X60304Y-17264D01*
X60315Y-17227D01*
X60332Y-17192D01*
X60357Y-17162D01*
X60386Y-17136D01*
X60420Y-17117D01*
X60458Y-17105D01*
X60496Y-17101D01*
X60534Y-17104D01*
X60572Y-17114D01*
X60607Y-17132D01*
X60637Y-17156D01*
X60663Y-17185D01*
X60682Y-17219D01*
X60695Y-17256D01*
X60699Y-17295D01*
X60700Y-17300D01*
X60300Y-17100D02*
X60700Y-17500D01*
X60700Y-17100D02*
X60300Y-17500D01*
X61700Y-16300D02*
X61696Y-16338D01*
X61684Y-16376D01*
X61666Y-16410D01*
X61641Y-16440D01*
X61611Y-16465D01*
X61577Y-16484D01*
X61540Y-16495D01*
X61501Y-16499D01*
X61463Y-16496D01*
X61426Y-16485D01*
X61391Y-16467D01*
X61361Y-16442D01*
X61335Y-16412D01*
X61317Y-16378D01*
X61305Y-16341D01*
X61301Y-16302D01*
X61304Y-16264D01*
X61315Y-16227D01*
X61332Y-16192D01*
X61357Y-16162D01*
X61386Y-16136D01*
X61420Y-16117D01*
X61458Y-16105D01*
X61496Y-16101D01*
X61534Y-16104D01*
X61572Y-16114D01*
X61607Y-16132D01*
X61637Y-16156D01*
X61663Y-16185D01*
X61682Y-16219D01*
X61695Y-16256D01*
X61699Y-16295D01*
X61700Y-16300D01*
X61300Y-16100D02*
X61700Y-16500D01*
X61700Y-16100D02*
X61300Y-16500D01*
X61700Y-17300D02*
X61696Y-17338D01*
X61684Y-17376D01*
X61666Y-17410D01*
X61641Y-17440D01*
X61611Y-17465D01*
X61577Y-17484D01*
X61540Y-17495D01*
X61501Y-17499D01*
X61463Y-17496D01*
X61426Y-17485D01*
X61391Y-17467D01*
X61361Y-17442D01*
X61335Y-17412D01*
X61317Y-17378D01*
X61305Y-17341D01*
X61301Y-17302D01*
X61304Y-17264D01*
X61315Y-17227D01*
X61332Y-17192D01*
X61357Y-17162D01*
X61386Y-17136D01*
X61420Y-17117D01*
X61458Y-17105D01*
X61496Y-17101D01*
X61534Y-17104D01*
X61572Y-17114D01*
X61607Y-17132D01*
X61637Y-17156D01*
X61663Y-17185D01*
X61682Y-17219D01*
X61695Y-17256D01*
X61699Y-17295D01*
X61700Y-17300D01*
X61300Y-17100D02*
X61700Y-17500D01*
X61700Y-17100D02*
X61300Y-17500D01*
X61950Y-12575D02*
X61946Y-12613D01*
X61934Y-12651D01*
X61916Y-12685D01*
X61891Y-12715D01*
X61861Y-12740D01*
X61827Y-12759D01*
X61790Y-12770D01*
X61751Y-12774D01*
X61713Y-12771D01*
X61676Y-12760D01*
X61641Y-12742D01*
X61611Y-12717D01*
X61585Y-12687D01*
X61567Y-12653D01*
X61555Y-12616D01*
X61551Y-12577D01*
X61554Y-12539D01*
X61565Y-12502D01*
X61582Y-12467D01*
X61607Y-12437D01*
X61636Y-12411D01*
X61670Y-12392D01*
X61708Y-12380D01*
X61746Y-12376D01*
X61784Y-12379D01*
X61822Y-12389D01*
X61857Y-12407D01*
X61887Y-12431D01*
X61913Y-12460D01*
X61932Y-12494D01*
X61945Y-12531D01*
X61949Y-12570D01*
X61950Y-12575D01*
X61550Y-12375D02*
X61950Y-12775D01*
X61950Y-12375D02*
X61550Y-12775D01*
X61950Y-14325D02*
X61946Y-14363D01*
X61934Y-14401D01*
X61916Y-14435D01*
X61891Y-14465D01*
X61861Y-14490D01*
X61827Y-14509D01*
X61790Y-14520D01*
X61751Y-14524D01*
X61713Y-14521D01*
X61676Y-14510D01*
X61641Y-14492D01*
X61611Y-14467D01*
X61585Y-14437D01*
X61567Y-14403D01*
X61555Y-14366D01*
X61551Y-14327D01*
X61554Y-14289D01*
X61565Y-14252D01*
X61582Y-14217D01*
X61607Y-14187D01*
X61636Y-14161D01*
X61670Y-14142D01*
X61708Y-14130D01*
X61746Y-14126D01*
X61784Y-14129D01*
X61822Y-14139D01*
X61857Y-14157D01*
X61887Y-14181D01*
X61913Y-14210D01*
X61932Y-14244D01*
X61945Y-14281D01*
X61949Y-14320D01*
X61950Y-14325D01*
X61550Y-14125D02*
X61950Y-14525D01*
X61950Y-14125D02*
X61550Y-14525D01*
X62900Y-12575D02*
X62896Y-12613D01*
X62884Y-12651D01*
X62866Y-12685D01*
X62841Y-12715D01*
X62811Y-12740D01*
X62777Y-12759D01*
X62740Y-12770D01*
X62701Y-12774D01*
X62663Y-12771D01*
X62626Y-12760D01*
X62591Y-12742D01*
X62561Y-12717D01*
X62535Y-12687D01*
X62517Y-12653D01*
X62505Y-12616D01*
X62501Y-12577D01*
X62504Y-12539D01*
X62515Y-12502D01*
X62532Y-12467D01*
X62557Y-12437D01*
X62586Y-12411D01*
X62620Y-12392D01*
X62658Y-12380D01*
X62696Y-12376D01*
X62734Y-12379D01*
X62772Y-12389D01*
X62807Y-12407D01*
X62837Y-12431D01*
X62863Y-12460D01*
X62882Y-12494D01*
X62895Y-12531D01*
X62899Y-12570D01*
X62900Y-12575D01*
X62500Y-12375D02*
X62900Y-12775D01*
X62900Y-12375D02*
X62500Y-12775D01*
X62900Y-14325D02*
X62896Y-14363D01*
X62884Y-14401D01*
X62866Y-14435D01*
X62841Y-14465D01*
X62811Y-14490D01*
X62777Y-14509D01*
X62740Y-14520D01*
X62701Y-14524D01*
X62663Y-14521D01*
X62626Y-14510D01*
X62591Y-14492D01*
X62561Y-14467D01*
X62535Y-14437D01*
X62517Y-14403D01*
X62505Y-14366D01*
X62501Y-14327D01*
X62504Y-14289D01*
X62515Y-14252D01*
X62532Y-14217D01*
X62557Y-14187D01*
X62586Y-14161D01*
X62620Y-14142D01*
X62658Y-14130D01*
X62696Y-14126D01*
X62734Y-14129D01*
X62772Y-14139D01*
X62807Y-14157D01*
X62837Y-14181D01*
X62863Y-14210D01*
X62882Y-14244D01*
X62895Y-14281D01*
X62899Y-14320D01*
X62900Y-14325D01*
X62500Y-14125D02*
X62900Y-14525D01*
X62900Y-14125D02*
X62500Y-14525D01*
X65450Y-12575D02*
X65446Y-12613D01*
X65434Y-12651D01*
X65416Y-12685D01*
X65391Y-12715D01*
X65361Y-12740D01*
X65327Y-12759D01*
X65290Y-12770D01*
X65251Y-12774D01*
X65213Y-12771D01*
X65176Y-12760D01*
X65141Y-12742D01*
X65111Y-12717D01*
X65085Y-12687D01*
X65067Y-12653D01*
X65055Y-12616D01*
X65051Y-12577D01*
X65054Y-12539D01*
X65065Y-12502D01*
X65082Y-12467D01*
X65107Y-12437D01*
X65136Y-12411D01*
X65170Y-12392D01*
X65208Y-12380D01*
X65246Y-12376D01*
X65284Y-12379D01*
X65322Y-12389D01*
X65357Y-12407D01*
X65387Y-12431D01*
X65413Y-12460D01*
X65432Y-12494D01*
X65445Y-12531D01*
X65449Y-12570D01*
X65450Y-12575D01*
X65050Y-12375D02*
X65450Y-12775D01*
X65450Y-12375D02*
X65050Y-12775D01*
X65450Y-14325D02*
X65446Y-14363D01*
X65434Y-14401D01*
X65416Y-14435D01*
X65391Y-14465D01*
X65361Y-14490D01*
X65327Y-14509D01*
X65290Y-14520D01*
X65251Y-14524D01*
X65213Y-14521D01*
X65176Y-14510D01*
X65141Y-14492D01*
X65111Y-14467D01*
X65085Y-14437D01*
X65067Y-14403D01*
X65055Y-14366D01*
X65051Y-14327D01*
X65054Y-14289D01*
X65065Y-14252D01*
X65082Y-14217D01*
X65107Y-14187D01*
X65136Y-14161D01*
X65170Y-14142D01*
X65208Y-14130D01*
X65246Y-14126D01*
X65284Y-14129D01*
X65322Y-14139D01*
X65357Y-14157D01*
X65387Y-14181D01*
X65413Y-14210D01*
X65432Y-14244D01*
X65445Y-14281D01*
X65449Y-14320D01*
X65450Y-14325D01*
X65050Y-14125D02*
X65450Y-14525D01*
X65450Y-14125D02*
X65050Y-14525D01*
X107200Y-15500D02*
X107196Y-15538D01*
X107184Y-15576D01*
X107166Y-15610D01*
X107141Y-15640D01*
X107111Y-15665D01*
X107077Y-15684D01*
X107040Y-15695D01*
X107001Y-15699D01*
X106963Y-15696D01*
X106926Y-15685D01*
X106891Y-15667D01*
X106861Y-15642D01*
X106835Y-15612D01*
X106817Y-15578D01*
X106805Y-15541D01*
X106801Y-15502D01*
X106804Y-15464D01*
X106815Y-15427D01*
X106832Y-15392D01*
X106857Y-15362D01*
X106886Y-15336D01*
X106920Y-15317D01*
X106958Y-15305D01*
X106996Y-15301D01*
X107034Y-15304D01*
X107072Y-15314D01*
X107107Y-15332D01*
X107137Y-15356D01*
X107163Y-15385D01*
X107182Y-15419D01*
X107195Y-15456D01*
X107199Y-15495D01*
X107200Y-15500D01*
X106800Y-15300D02*
X107200Y-15700D01*
X107200Y-15300D02*
X106800Y-15700D01*
X107200Y-16500D02*
X107196Y-16538D01*
X107184Y-16576D01*
X107166Y-16610D01*
X107141Y-16640D01*
X107111Y-16665D01*
X107077Y-16684D01*
X107040Y-16695D01*
X107001Y-16699D01*
X106963Y-16696D01*
X106926Y-16685D01*
X106891Y-16667D01*
X106861Y-16642D01*
X106835Y-16612D01*
X106817Y-16578D01*
X106805Y-16541D01*
X106801Y-16502D01*
X106804Y-16464D01*
X106815Y-16427D01*
X106832Y-16392D01*
X106857Y-16362D01*
X106886Y-16336D01*
X106920Y-16317D01*
X106958Y-16305D01*
X106996Y-16301D01*
X107034Y-16304D01*
X107072Y-16314D01*
X107107Y-16332D01*
X107137Y-16356D01*
X107163Y-16385D01*
X107182Y-16419D01*
X107195Y-16456D01*
X107199Y-16495D01*
X107200Y-16500D01*
X106800Y-16300D02*
X107200Y-16700D01*
X107200Y-16300D02*
X106800Y-16700D01*
X107200Y-17500D02*
X107196Y-17538D01*
X107184Y-17576D01*
X107166Y-17610D01*
X107141Y-17640D01*
X107111Y-17665D01*
X107077Y-17684D01*
X107040Y-17695D01*
X107001Y-17699D01*
X106963Y-17696D01*
X106926Y-17685D01*
X106891Y-17667D01*
X106861Y-17642D01*
X106835Y-17612D01*
X106817Y-17578D01*
X106805Y-17541D01*
X106801Y-17502D01*
X106804Y-17464D01*
X106815Y-17427D01*
X106832Y-17392D01*
X106857Y-17362D01*
X106886Y-17336D01*
X106920Y-17317D01*
X106958Y-17305D01*
X106996Y-17301D01*
X107034Y-17304D01*
X107072Y-17314D01*
X107107Y-17332D01*
X107137Y-17356D01*
X107163Y-17385D01*
X107182Y-17419D01*
X107195Y-17456D01*
X107199Y-17495D01*
X107200Y-17500D01*
X106800Y-17300D02*
X107200Y-17700D01*
X107200Y-17300D02*
X106800Y-17700D01*
X107200Y-18500D02*
X107196Y-18538D01*
X107184Y-18576D01*
X107166Y-18610D01*
X107141Y-18640D01*
X107111Y-18665D01*
X107077Y-18684D01*
X107040Y-18695D01*
X107001Y-18699D01*
X106963Y-18696D01*
X106926Y-18685D01*
X106891Y-18667D01*
X106861Y-18642D01*
X106835Y-18612D01*
X106817Y-18578D01*
X106805Y-18541D01*
X106801Y-18502D01*
X106804Y-18464D01*
X106815Y-18427D01*
X106832Y-18392D01*
X106857Y-18362D01*
X106886Y-18336D01*
X106920Y-18317D01*
X106958Y-18305D01*
X106996Y-18301D01*
X107034Y-18304D01*
X107072Y-18314D01*
X107107Y-18332D01*
X107137Y-18356D01*
X107163Y-18385D01*
X107182Y-18419D01*
X107195Y-18456D01*
X107199Y-18495D01*
X107200Y-18500D01*
X106800Y-18300D02*
X107200Y-18700D01*
X107200Y-18300D02*
X106800Y-18700D01*
X107200Y-19500D02*
X107196Y-19538D01*
X107184Y-19576D01*
X107166Y-19610D01*
X107141Y-19640D01*
X107111Y-19665D01*
X107077Y-19684D01*
X107040Y-19695D01*
X107001Y-19699D01*
X106963Y-19696D01*
X106926Y-19685D01*
X106891Y-19667D01*
X106861Y-19642D01*
X106835Y-19612D01*
X106817Y-19578D01*
X106805Y-19541D01*
X106801Y-19502D01*
X106804Y-19464D01*
X106815Y-19427D01*
X106832Y-19392D01*
X106857Y-19362D01*
X106886Y-19336D01*
X106920Y-19317D01*
X106958Y-19305D01*
X106996Y-19301D01*
X107034Y-19304D01*
X107072Y-19314D01*
X107107Y-19332D01*
X107137Y-19356D01*
X107163Y-19385D01*
X107182Y-19419D01*
X107195Y-19456D01*
X107199Y-19495D01*
X107200Y-19500D01*
X106800Y-19300D02*
X107200Y-19700D01*
X107200Y-19300D02*
X106800Y-19700D01*
X107200Y-20500D02*
X107196Y-20538D01*
X107184Y-20576D01*
X107166Y-20610D01*
X107141Y-20640D01*
X107111Y-20665D01*
X107077Y-20684D01*
X107040Y-20695D01*
X107001Y-20699D01*
X106963Y-20696D01*
X106926Y-20685D01*
X106891Y-20667D01*
X106861Y-20642D01*
X106835Y-20612D01*
X106817Y-20578D01*
X106805Y-20541D01*
X106801Y-20502D01*
X106804Y-20464D01*
X106815Y-20427D01*
X106832Y-20392D01*
X106857Y-20362D01*
X106886Y-20336D01*
X106920Y-20317D01*
X106958Y-20305D01*
X106996Y-20301D01*
X107034Y-20304D01*
X107072Y-20314D01*
X107107Y-20332D01*
X107137Y-20356D01*
X107163Y-20385D01*
X107182Y-20419D01*
X107195Y-20456D01*
X107199Y-20495D01*
X107200Y-20500D01*
X106800Y-20300D02*
X107200Y-20700D01*
X107200Y-20300D02*
X106800Y-20700D01*
X48745Y-20720D02*
X48740Y-20768D01*
X48726Y-20815D01*
X48703Y-20858D01*
X48672Y-20896D01*
X48634Y-20927D01*
X48591Y-20950D01*
X48545Y-20964D01*
X48496Y-20969D01*
X48449Y-20965D01*
X48402Y-20951D01*
X48359Y-20929D01*
X48321Y-20898D01*
X48289Y-20861D01*
X48266Y-20818D01*
X48251Y-20771D01*
X48246Y-20723D01*
X48250Y-20675D01*
X48263Y-20628D01*
X48285Y-20585D01*
X48316Y-20547D01*
X48353Y-20515D01*
X48395Y-20491D01*
X48442Y-20476D01*
X48490Y-20471D01*
X48538Y-20474D01*
X48585Y-20487D01*
X48628Y-20509D01*
X48667Y-20539D01*
X48699Y-20576D01*
X48723Y-20619D01*
X48738Y-20665D01*
X48744Y-20714D01*
X48745Y-20720D01*
X48245Y-20720D02*
X48745Y-20720D01*
X52745Y-19720D02*
X52740Y-19768D01*
X52726Y-19815D01*
X52703Y-19858D01*
X52672Y-19896D01*
X52634Y-19927D01*
X52591Y-19950D01*
X52545Y-19964D01*
X52496Y-19969D01*
X52449Y-19965D01*
X52402Y-19951D01*
X52359Y-19929D01*
X52321Y-19898D01*
X52289Y-19861D01*
X52266Y-19818D01*
X52251Y-19771D01*
X52246Y-19723D01*
X52250Y-19675D01*
X52263Y-19628D01*
X52285Y-19585D01*
X52316Y-19547D01*
X52353Y-19515D01*
X52395Y-19491D01*
X52442Y-19476D01*
X52490Y-19471D01*
X52538Y-19474D01*
X52585Y-19487D01*
X52628Y-19509D01*
X52667Y-19539D01*
X52699Y-19576D01*
X52723Y-19619D01*
X52738Y-19665D01*
X52744Y-19714D01*
X52745Y-19720D01*
X52245Y-19720D02*
X52745Y-19720D01*
X52745Y-21720D02*
X52740Y-21768D01*
X52726Y-21815D01*
X52703Y-21858D01*
X52672Y-21896D01*
X52634Y-21927D01*
X52591Y-21950D01*
X52545Y-21964D01*
X52496Y-21969D01*
X52449Y-21965D01*
X52402Y-21951D01*
X52359Y-21929D01*
X52321Y-21898D01*
X52289Y-21861D01*
X52266Y-21818D01*
X52251Y-21771D01*
X52246Y-21723D01*
X52250Y-21675D01*
X52263Y-21628D01*
X52285Y-21585D01*
X52316Y-21547D01*
X52353Y-21515D01*
X52395Y-21491D01*
X52442Y-21476D01*
X52490Y-21471D01*
X52538Y-21474D01*
X52585Y-21487D01*
X52628Y-21509D01*
X52667Y-21539D01*
X52699Y-21576D01*
X52723Y-21619D01*
X52738Y-21665D01*
X52744Y-21714D01*
X52745Y-21720D01*
X52245Y-21720D02*
X52745Y-21720D01*
X10100Y-13000D02*
X10088Y-13116D01*
X10054Y-13228D01*
X09999Y-13332D01*
X09925Y-13422D01*
X09835Y-13497D01*
X09732Y-13553D01*
X09620Y-13587D01*
X09504Y-13599D01*
X09388Y-13589D01*
X09276Y-13556D01*
X09172Y-13502D01*
X09081Y-13428D01*
X09005Y-13338D01*
X08949Y-13236D01*
X08914Y-13124D01*
X08901Y-13008D01*
X08910Y-12892D01*
X08943Y-12780D01*
X08996Y-12675D01*
X09069Y-12584D01*
X09158Y-12508D01*
X09260Y-12451D01*
X09372Y-12414D01*
X09488Y-12401D01*
X09604Y-12410D01*
X09716Y-12441D01*
X09821Y-12494D01*
X09913Y-12566D01*
X09990Y-12655D01*
X10048Y-12756D01*
X10085Y-12868D01*
X10099Y-12984D01*
X10100Y-13000D01*
X09500Y-12400D02*
X09500Y-13600D01*
X10100Y-22500D02*
X10088Y-22616D01*
X10054Y-22728D01*
X09999Y-22832D01*
X09925Y-22922D01*
X09835Y-22997D01*
X09732Y-23053D01*
X09620Y-23087D01*
X09504Y-23099D01*
X09388Y-23089D01*
X09276Y-23056D01*
X09172Y-23002D01*
X09081Y-22928D01*
X09005Y-22838D01*
X08949Y-22736D01*
X08914Y-22624D01*
X08901Y-22508D01*
X08910Y-22392D01*
X08943Y-22280D01*
X08996Y-22175D01*
X09069Y-22084D01*
X09158Y-22008D01*
X09260Y-21951D01*
X09372Y-21914D01*
X09488Y-21901D01*
X09604Y-21910D01*
X09716Y-21941D01*
X09821Y-21994D01*
X09913Y-22066D01*
X09990Y-22155D01*
X10048Y-22256D01*
X10085Y-22368D01*
X10099Y-22484D01*
X10100Y-22500D01*
X09500Y-21900D02*
X09500Y-23100D01*
X42100Y-13000D02*
X42088Y-13116D01*
X42054Y-13228D01*
X41999Y-13332D01*
X41925Y-13422D01*
X41835Y-13497D01*
X41732Y-13553D01*
X41620Y-13587D01*
X41504Y-13599D01*
X41388Y-13589D01*
X41276Y-13556D01*
X41172Y-13502D01*
X41081Y-13428D01*
X41005Y-13338D01*
X40949Y-13236D01*
X40914Y-13124D01*
X40901Y-13008D01*
X40910Y-12892D01*
X40943Y-12780D01*
X40996Y-12675D01*
X41069Y-12584D01*
X41158Y-12508D01*
X41260Y-12451D01*
X41372Y-12414D01*
X41488Y-12401D01*
X41604Y-12410D01*
X41716Y-12441D01*
X41821Y-12494D01*
X41913Y-12566D01*
X41990Y-12655D01*
X42048Y-12756D01*
X42085Y-12868D01*
X42099Y-12984D01*
X42100Y-13000D01*
X41500Y-12400D02*
X41500Y-13600D01*
X75100Y-13000D02*
X75088Y-13116D01*
X75054Y-13228D01*
X74999Y-13332D01*
X74925Y-13422D01*
X74835Y-13497D01*
X74732Y-13553D01*
X74620Y-13587D01*
X74504Y-13599D01*
X74388Y-13589D01*
X74276Y-13556D01*
X74172Y-13502D01*
X74081Y-13428D01*
X74005Y-13338D01*
X73949Y-13236D01*
X73914Y-13124D01*
X73901Y-13008D01*
X73910Y-12892D01*
X73943Y-12780D01*
X73996Y-12675D01*
X74069Y-12584D01*
X74158Y-12508D01*
X74260Y-12451D01*
X74372Y-12414D01*
X74488Y-12401D01*
X74604Y-12410D01*
X74716Y-12441D01*
X74821Y-12494D01*
X74913Y-12566D01*
X74990Y-12655D01*
X75048Y-12756D01*
X75085Y-12868D01*
X75099Y-12984D01*
X75100Y-13000D01*
X74500Y-12400D02*
X74500Y-13600D01*
X107100Y-13000D02*
X107088Y-13116D01*
X107054Y-13228D01*
X106999Y-13332D01*
X106925Y-13422D01*
X106835Y-13497D01*
X106732Y-13553D01*
X106620Y-13587D01*
X106504Y-13599D01*
X106388Y-13589D01*
X106276Y-13556D01*
X106172Y-13502D01*
X106081Y-13428D01*
X106005Y-13338D01*
X105949Y-13236D01*
X105914Y-13124D01*
X105901Y-13008D01*
X105910Y-12892D01*
X105943Y-12780D01*
X105996Y-12675D01*
X106069Y-12584D01*
X106158Y-12508D01*
X106260Y-12451D01*
X106372Y-12414D01*
X106488Y-12401D01*
X106604Y-12410D01*
X106716Y-12441D01*
X106821Y-12494D01*
X106913Y-12566D01*
X106990Y-12655D01*
X107048Y-12756D01*
X107085Y-12868D01*
X107099Y-12984D01*
X107100Y-13000D01*
X106500Y-12400D02*
X106500Y-13600D01*
X107100Y-22500D02*
X107088Y-22616D01*
X107054Y-22728D01*
X106999Y-22832D01*
X106925Y-22922D01*
X106835Y-22997D01*
X106732Y-23053D01*
X106620Y-23087D01*
X106504Y-23099D01*
X106388Y-23089D01*
X106276Y-23056D01*
X106172Y-23002D01*
X106081Y-22928D01*
X106005Y-22838D01*
X105949Y-22736D01*
X105914Y-22624D01*
X105901Y-22508D01*
X105910Y-22392D01*
X105943Y-22280D01*
X105996Y-22175D01*
X106069Y-22084D01*
X106158Y-22008D01*
X106260Y-21951D01*
X106372Y-21914D01*
X106488Y-21901D01*
X106604Y-21910D01*
X106716Y-21941D01*
X106821Y-21994D01*
X106913Y-22066D01*
X106990Y-22155D01*
X107048Y-22256D01*
X107085Y-22368D01*
X107099Y-22484D01*
X107100Y-22500D01*
X106500Y-21900D02*
X106500Y-23100D01*
G54D12*
X08200Y-25280D02*
X08200Y-24480D01*
X08391Y-24480D01*
X08505Y-24518D01*
X08581Y-24594D01*
X08620Y-24670D01*
X08658Y-24823D01*
X08658Y-24937D01*
X08620Y-25089D01*
X08581Y-25166D01*
X08505Y-25242D01*
X08391Y-25280D01*
X08200Y-25280D01*
X09000Y-25280D02*
X09000Y-24746D01*
X09000Y-24899D02*
X09039Y-24823D01*
X09077Y-24785D01*
X09153Y-24746D01*
X09229Y-24746D01*
X09495Y-25280D02*
X09495Y-24746D01*
X09495Y-24480D02*
X09457Y-24518D01*
X09495Y-24556D01*
X09534Y-24518D01*
X09495Y-24480D01*
X09495Y-24556D01*
X09991Y-25280D02*
X09915Y-25242D01*
X09876Y-25166D01*
X09876Y-24480D01*
X10410Y-25280D02*
X10334Y-25242D01*
X10295Y-25166D01*
X10295Y-24480D01*
X11324Y-25280D02*
X11324Y-24480D01*
X11591Y-25051D01*
X11858Y-24480D01*
X11858Y-25280D01*
X12581Y-25280D02*
X12581Y-24861D01*
X12543Y-24785D01*
X12467Y-24746D01*
X12315Y-24746D01*
X12238Y-24785D01*
X12581Y-25242D02*
X12505Y-25280D01*
X12315Y-25280D01*
X12238Y-25242D01*
X12200Y-25166D01*
X12200Y-25089D01*
X12238Y-25013D01*
X12315Y-24975D01*
X12505Y-24975D01*
X12581Y-24937D01*
X12962Y-24746D02*
X12962Y-25546D01*
X12962Y-24785D02*
X13039Y-24746D01*
X13191Y-24746D01*
X13267Y-24785D01*
X13305Y-24823D01*
X13343Y-24899D01*
X13343Y-25127D01*
X13305Y-25204D01*
X13267Y-25242D01*
X13191Y-25280D01*
X13039Y-25280D01*
X12962Y-25242D01*
X13686Y-25204D02*
X13725Y-25242D01*
X13686Y-25280D01*
X13648Y-25242D01*
X13686Y-25204D01*
X13686Y-25280D01*
X13686Y-24785D02*
X13725Y-24823D01*
X13686Y-24861D01*
X13648Y-24823D01*
X13686Y-24785D01*
X13686Y-24861D01*
X07560Y-26511D02*
X07810Y-26761D01*
X07810Y-26511D02*
X07560Y-26761D01*
X08353Y-26160D02*
X08429Y-26160D01*
X08505Y-26198D01*
X08543Y-26236D01*
X08581Y-26312D01*
X08620Y-26465D01*
X08620Y-26655D01*
X08581Y-26807D01*
X08543Y-26884D01*
X08505Y-26922D01*
X08429Y-26960D01*
X08353Y-26960D01*
X08277Y-26922D01*
X08239Y-26884D01*
X08200Y-26807D01*
X08162Y-26655D01*
X08162Y-26465D01*
X08200Y-26312D01*
X08239Y-26236D01*
X08277Y-26198D01*
X08353Y-26160D01*
X08962Y-26884D02*
X09001Y-26922D01*
X08962Y-26960D01*
X08924Y-26922D01*
X08962Y-26884D01*
X08962Y-26960D01*
X09496Y-26160D02*
X09572Y-26160D01*
X09648Y-26198D01*
X09686Y-26236D01*
X09724Y-26312D01*
X09763Y-26465D01*
X09763Y-26655D01*
X09724Y-26807D01*
X09686Y-26884D01*
X09648Y-26922D01*
X09572Y-26960D01*
X09496Y-26960D01*
X09420Y-26922D01*
X09382Y-26884D01*
X09343Y-26807D01*
X09305Y-26655D01*
X09305Y-26465D01*
X09343Y-26312D01*
X09382Y-26236D01*
X09420Y-26198D01*
X09496Y-26160D01*
X10067Y-26236D02*
X10105Y-26198D01*
X10182Y-26160D01*
X10372Y-26160D01*
X10448Y-26198D01*
X10486Y-26236D01*
X10525Y-26312D01*
X10525Y-26388D01*
X10486Y-26503D01*
X10029Y-26960D01*
X10525Y-26960D01*
X11248Y-26160D02*
X10867Y-26160D01*
X10829Y-26541D01*
X10867Y-26503D01*
X10944Y-26465D01*
X11134Y-26465D01*
X11210Y-26503D01*
X11248Y-26541D01*
X11287Y-26617D01*
X11287Y-26807D01*
X11248Y-26884D01*
X11210Y-26922D01*
X11134Y-26960D01*
X10944Y-26960D01*
X10867Y-26922D01*
X10829Y-26884D01*
X11591Y-26160D02*
X11591Y-26312D01*
X11896Y-26160D02*
X11896Y-26312D01*
X13421Y-26122D02*
X12735Y-27150D01*
X14450Y-26160D02*
X14526Y-26160D01*
X14602Y-26198D01*
X14640Y-26236D01*
X14678Y-26312D01*
X14717Y-26465D01*
X14717Y-26655D01*
X14678Y-26807D01*
X14640Y-26884D01*
X14602Y-26922D01*
X14526Y-26960D01*
X14450Y-26960D01*
X14374Y-26922D01*
X14336Y-26884D01*
X14297Y-26807D01*
X14259Y-26655D01*
X14259Y-26465D01*
X14297Y-26312D01*
X14336Y-26236D01*
X14374Y-26198D01*
X14450Y-26160D01*
X15059Y-26884D02*
X15098Y-26922D01*
X15059Y-26960D01*
X15021Y-26922D01*
X15059Y-26884D01*
X15059Y-26960D01*
X15783Y-26160D02*
X15631Y-26160D01*
X15555Y-26198D01*
X15517Y-26236D01*
X15440Y-26350D01*
X15402Y-26503D01*
X15402Y-26807D01*
X15440Y-26884D01*
X15479Y-26922D01*
X15555Y-26960D01*
X15707Y-26960D01*
X15783Y-26922D01*
X15821Y-26884D01*
X15860Y-26807D01*
X15860Y-26617D01*
X15821Y-26541D01*
X15783Y-26503D01*
X15707Y-26465D01*
X15555Y-26465D01*
X15479Y-26503D01*
X15440Y-26541D01*
X15402Y-26617D01*
X16545Y-26426D02*
X16545Y-26960D01*
X16355Y-26122D02*
X16164Y-26693D01*
X16660Y-26693D01*
X16964Y-26960D02*
X16964Y-26426D01*
X16964Y-26503D02*
X17003Y-26465D01*
X17079Y-26426D01*
X17193Y-26426D01*
X17269Y-26465D01*
X17307Y-26541D01*
X17307Y-26960D01*
X17307Y-26541D02*
X17345Y-26465D01*
X17422Y-26426D01*
X17536Y-26426D01*
X17612Y-26465D01*
X17650Y-26541D01*
X17650Y-26960D01*
X18031Y-26960D02*
X18031Y-26426D01*
X18031Y-26503D02*
X18070Y-26465D01*
X18146Y-26426D01*
X18260Y-26426D01*
X18336Y-26465D01*
X18374Y-26541D01*
X18374Y-26960D01*
X18374Y-26541D02*
X18412Y-26465D01*
X18489Y-26426D01*
X18603Y-26426D01*
X18679Y-26465D01*
X18717Y-26541D01*
X18717Y-26960D01*
X19937Y-27265D02*
X19899Y-27226D01*
X19823Y-27112D01*
X19785Y-27036D01*
X19747Y-26922D01*
X19708Y-26731D01*
X19708Y-26579D01*
X19747Y-26388D01*
X19785Y-26274D01*
X19823Y-26198D01*
X19899Y-26084D01*
X19937Y-26046D01*
X20203Y-26236D02*
X20241Y-26198D01*
X20318Y-26160D01*
X20508Y-26160D01*
X20584Y-26198D01*
X20622Y-26236D01*
X20661Y-26312D01*
X20661Y-26388D01*
X20622Y-26503D01*
X20165Y-26960D01*
X20661Y-26960D01*
X21346Y-26426D02*
X21346Y-26960D01*
X21156Y-26122D02*
X20965Y-26693D01*
X21461Y-26693D01*
X22375Y-26960D02*
X22375Y-26160D01*
X22718Y-26960D02*
X22718Y-26541D01*
X22680Y-26465D01*
X22604Y-26426D01*
X22490Y-26426D01*
X22414Y-26465D01*
X22375Y-26503D01*
X23214Y-26960D02*
X23138Y-26922D01*
X23099Y-26884D01*
X23061Y-26807D01*
X23061Y-26579D01*
X23099Y-26503D01*
X23138Y-26465D01*
X23214Y-26426D01*
X23328Y-26426D01*
X23404Y-26465D01*
X23442Y-26503D01*
X23480Y-26579D01*
X23480Y-26807D01*
X23442Y-26884D01*
X23404Y-26922D01*
X23328Y-26960D01*
X23214Y-26960D01*
X23938Y-26960D02*
X23862Y-26922D01*
X23823Y-26846D01*
X23823Y-26160D01*
X24547Y-26922D02*
X24471Y-26960D01*
X24319Y-26960D01*
X24242Y-26922D01*
X24204Y-26846D01*
X24204Y-26541D01*
X24242Y-26465D01*
X24319Y-26426D01*
X24471Y-26426D01*
X24547Y-26465D01*
X24585Y-26541D01*
X24585Y-26617D01*
X24204Y-26693D01*
X24890Y-26922D02*
X24967Y-26960D01*
X25119Y-26960D01*
X25195Y-26922D01*
X25233Y-26846D01*
X25233Y-26807D01*
X25195Y-26731D01*
X25119Y-26693D01*
X25005Y-26693D01*
X24928Y-26655D01*
X24890Y-26579D01*
X24890Y-26541D01*
X24928Y-26465D01*
X25005Y-26426D01*
X25119Y-26426D01*
X25195Y-26465D01*
X25500Y-27265D02*
X25538Y-27226D01*
X25615Y-27112D01*
X25653Y-27036D01*
X25691Y-26922D01*
X25729Y-26731D01*
X25729Y-26579D01*
X25691Y-26388D01*
X25653Y-26274D01*
X25615Y-26198D01*
X25538Y-26084D01*
X25500Y-26046D01*
G54D10*
X07810Y-27691D02*
X07806Y-27722D01*
X07797Y-27751D01*
X07783Y-27779D01*
X07763Y-27803D01*
X07739Y-27823D01*
X07712Y-27838D01*
X07682Y-27847D01*
X07651Y-27850D01*
X07621Y-27848D01*
X07591Y-27839D01*
X07563Y-27824D01*
X07539Y-27805D01*
X07518Y-27781D01*
X07503Y-27754D01*
X07494Y-27724D01*
X07491Y-27693D01*
X07493Y-27663D01*
X07502Y-27633D01*
X07516Y-27605D01*
X07535Y-27580D01*
X07559Y-27560D01*
X07586Y-27545D01*
X07616Y-27535D01*
X07647Y-27532D01*
X07677Y-27534D01*
X07707Y-27542D01*
X07735Y-27556D01*
X07760Y-27576D01*
X07780Y-27599D01*
X07796Y-27626D01*
X07806Y-27656D01*
X07809Y-27687D01*
X07810Y-27691D01*
G54D12*
X08353Y-27215D02*
X08429Y-27215D01*
X08505Y-27253D01*
X08543Y-27291D01*
X08581Y-27367D01*
X08620Y-27520D01*
X08620Y-27710D01*
X08581Y-27862D01*
X08543Y-27939D01*
X08505Y-27977D01*
X08429Y-28015D01*
X08353Y-28015D01*
X08277Y-27977D01*
X08239Y-27939D01*
X08200Y-27862D01*
X08162Y-27710D01*
X08162Y-27520D01*
X08200Y-27367D01*
X08239Y-27291D01*
X08277Y-27253D01*
X08353Y-27215D01*
X08962Y-27939D02*
X09001Y-27977D01*
X08962Y-28015D01*
X08924Y-27977D01*
X08962Y-27939D01*
X08962Y-28015D01*
X09496Y-27215D02*
X09572Y-27215D01*
X09648Y-27253D01*
X09686Y-27291D01*
X09724Y-27367D01*
X09763Y-27520D01*
X09763Y-27710D01*
X09724Y-27862D01*
X09686Y-27939D01*
X09648Y-27977D01*
X09572Y-28015D01*
X09496Y-28015D01*
X09420Y-27977D01*
X09382Y-27939D01*
X09343Y-27862D01*
X09305Y-27710D01*
X09305Y-27520D01*
X09343Y-27367D01*
X09382Y-27291D01*
X09420Y-27253D01*
X09496Y-27215D01*
X10029Y-27215D02*
X10525Y-27215D01*
X10258Y-27520D01*
X10372Y-27520D01*
X10448Y-27558D01*
X10486Y-27596D01*
X10525Y-27672D01*
X10525Y-27862D01*
X10486Y-27939D01*
X10448Y-27977D01*
X10372Y-28015D01*
X10144Y-28015D01*
X10067Y-27977D01*
X10029Y-27939D01*
X10829Y-27291D02*
X10867Y-27253D01*
X10944Y-27215D01*
X11134Y-27215D01*
X11210Y-27253D01*
X11248Y-27291D01*
X11287Y-27367D01*
X11287Y-27443D01*
X11248Y-27558D01*
X10791Y-28015D01*
X11287Y-28015D01*
X11591Y-27215D02*
X11591Y-27367D01*
X11896Y-27215D02*
X11896Y-27367D01*
X13421Y-27177D02*
X12735Y-28205D01*
X14450Y-27215D02*
X14526Y-27215D01*
X14602Y-27253D01*
X14640Y-27291D01*
X14678Y-27367D01*
X14717Y-27520D01*
X14717Y-27710D01*
X14678Y-27862D01*
X14640Y-27939D01*
X14602Y-27977D01*
X14526Y-28015D01*
X14450Y-28015D01*
X14374Y-27977D01*
X14336Y-27939D01*
X14297Y-27862D01*
X14259Y-27710D01*
X14259Y-27520D01*
X14297Y-27367D01*
X14336Y-27291D01*
X14374Y-27253D01*
X14450Y-27215D01*
X15059Y-27939D02*
X15098Y-27977D01*
X15059Y-28015D01*
X15021Y-27977D01*
X15059Y-27939D01*
X15059Y-28015D01*
X15555Y-27558D02*
X15479Y-27520D01*
X15440Y-27481D01*
X15402Y-27405D01*
X15402Y-27367D01*
X15440Y-27291D01*
X15479Y-27253D01*
X15555Y-27215D01*
X15707Y-27215D01*
X15783Y-27253D01*
X15821Y-27291D01*
X15860Y-27367D01*
X15860Y-27405D01*
X15821Y-27481D01*
X15783Y-27520D01*
X15707Y-27558D01*
X15555Y-27558D01*
X15479Y-27596D01*
X15440Y-27634D01*
X15402Y-27710D01*
X15402Y-27862D01*
X15440Y-27939D01*
X15479Y-27977D01*
X15555Y-28015D01*
X15707Y-28015D01*
X15783Y-27977D01*
X15821Y-27939D01*
X15860Y-27862D01*
X15860Y-27710D01*
X15821Y-27634D01*
X15783Y-27596D01*
X15707Y-27558D01*
X16622Y-28015D02*
X16164Y-28015D01*
X16393Y-28015D02*
X16393Y-27215D01*
X16317Y-27329D01*
X16241Y-27405D01*
X16164Y-27443D01*
X16964Y-28015D02*
X16964Y-27481D01*
X16964Y-27558D02*
X17003Y-27520D01*
X17079Y-27481D01*
X17193Y-27481D01*
X17269Y-27520D01*
X17307Y-27596D01*
X17307Y-28015D01*
X17307Y-27596D02*
X17345Y-27520D01*
X17422Y-27481D01*
X17536Y-27481D01*
X17612Y-27520D01*
X17650Y-27596D01*
X17650Y-28015D01*
X18031Y-28015D02*
X18031Y-27481D01*
X18031Y-27558D02*
X18070Y-27520D01*
X18146Y-27481D01*
X18260Y-27481D01*
X18336Y-27520D01*
X18374Y-27596D01*
X18374Y-28015D01*
X18374Y-27596D02*
X18412Y-27520D01*
X18489Y-27481D01*
X18603Y-27481D01*
X18679Y-27520D01*
X18717Y-27596D01*
X18717Y-28015D01*
X19937Y-28320D02*
X19899Y-28281D01*
X19823Y-28167D01*
X19785Y-28091D01*
X19747Y-27977D01*
X19708Y-27786D01*
X19708Y-27634D01*
X19747Y-27443D01*
X19785Y-27329D01*
X19823Y-27253D01*
X19899Y-27139D01*
X19937Y-27101D01*
X20622Y-27215D02*
X20241Y-27215D01*
X20203Y-27596D01*
X20241Y-27558D01*
X20318Y-27520D01*
X20508Y-27520D01*
X20584Y-27558D01*
X20622Y-27596D01*
X20661Y-27672D01*
X20661Y-27862D01*
X20622Y-27939D01*
X20584Y-27977D01*
X20508Y-28015D01*
X20318Y-28015D01*
X20241Y-27977D01*
X20203Y-27939D01*
X21613Y-28015D02*
X21613Y-27215D01*
X21956Y-28015D02*
X21956Y-27596D01*
X21918Y-27520D01*
X21842Y-27481D01*
X21728Y-27481D01*
X21652Y-27520D01*
X21613Y-27558D01*
X22452Y-28015D02*
X22376Y-27977D01*
X22337Y-27939D01*
X22299Y-27862D01*
X22299Y-27634D01*
X22337Y-27558D01*
X22376Y-27520D01*
X22452Y-27481D01*
X22566Y-27481D01*
X22642Y-27520D01*
X22680Y-27558D01*
X22718Y-27634D01*
X22718Y-27862D01*
X22680Y-27939D01*
X22642Y-27977D01*
X22566Y-28015D01*
X22452Y-28015D01*
X23176Y-28015D02*
X23100Y-27977D01*
X23061Y-27901D01*
X23061Y-27215D01*
X23785Y-27977D02*
X23709Y-28015D01*
X23557Y-28015D01*
X23480Y-27977D01*
X23442Y-27901D01*
X23442Y-27596D01*
X23480Y-27520D01*
X23557Y-27481D01*
X23709Y-27481D01*
X23785Y-27520D01*
X23823Y-27596D01*
X23823Y-27672D01*
X23442Y-27748D01*
X24128Y-27977D02*
X24205Y-28015D01*
X24357Y-28015D01*
X24433Y-27977D01*
X24471Y-27901D01*
X24471Y-27862D01*
X24433Y-27786D01*
X24357Y-27748D01*
X24243Y-27748D01*
X24166Y-27710D01*
X24128Y-27634D01*
X24128Y-27596D01*
X24166Y-27520D01*
X24243Y-27481D01*
X24357Y-27481D01*
X24433Y-27520D01*
X24738Y-28320D02*
X24776Y-28281D01*
X24853Y-28167D01*
X24891Y-28091D01*
X24929Y-27977D01*
X24967Y-27786D01*
X24967Y-27634D01*
X24929Y-27443D01*
X24891Y-27329D01*
X24853Y-27253D01*
X24776Y-27139D01*
X24738Y-27101D01*
X07613Y-28549D02*
X07613Y-28943D01*
X07810Y-28746D02*
X07416Y-28746D01*
X08353Y-28270D02*
X08429Y-28270D01*
X08505Y-28308D01*
X08543Y-28346D01*
X08581Y-28422D01*
X08620Y-28575D01*
X08620Y-28765D01*
X08581Y-28917D01*
X08543Y-28994D01*
X08505Y-29032D01*
X08429Y-29070D01*
X08353Y-29070D01*
X08277Y-29032D01*
X08239Y-28994D01*
X08200Y-28917D01*
X08162Y-28765D01*
X08162Y-28575D01*
X08200Y-28422D01*
X08239Y-28346D01*
X08277Y-28308D01*
X08353Y-28270D01*
X08962Y-28994D02*
X09001Y-29032D01*
X08962Y-29070D01*
X08924Y-29032D01*
X08962Y-28994D01*
X08962Y-29070D01*
X09496Y-28270D02*
X09572Y-28270D01*
X09648Y-28308D01*
X09686Y-28346D01*
X09724Y-28422D01*
X09763Y-28575D01*
X09763Y-28765D01*
X09724Y-28917D01*
X09686Y-28994D01*
X09648Y-29032D01*
X09572Y-29070D01*
X09496Y-29070D01*
X09420Y-29032D01*
X09382Y-28994D01*
X09343Y-28917D01*
X09305Y-28765D01*
X09305Y-28575D01*
X09343Y-28422D01*
X09382Y-28346D01*
X09420Y-28308D01*
X09496Y-28270D01*
X10029Y-28270D02*
X10525Y-28270D01*
X10258Y-28575D01*
X10372Y-28575D01*
X10448Y-28613D01*
X10486Y-28651D01*
X10525Y-28727D01*
X10525Y-28917D01*
X10486Y-28994D01*
X10448Y-29032D01*
X10372Y-29070D01*
X10144Y-29070D01*
X10067Y-29032D01*
X10029Y-28994D01*
X10906Y-29070D02*
X11058Y-29070D01*
X11134Y-29032D01*
X11172Y-28994D01*
X11248Y-28879D01*
X11287Y-28727D01*
X11287Y-28422D01*
X11248Y-28346D01*
X11210Y-28308D01*
X11134Y-28270D01*
X10982Y-28270D01*
X10906Y-28308D01*
X10867Y-28346D01*
X10829Y-28422D01*
X10829Y-28613D01*
X10867Y-28689D01*
X10906Y-28727D01*
X10982Y-28765D01*
X11134Y-28765D01*
X11210Y-28727D01*
X11248Y-28689D01*
X11287Y-28613D01*
X11591Y-28270D02*
X11591Y-28422D01*
X11896Y-28270D02*
X11896Y-28422D01*
X13421Y-28232D02*
X12735Y-29260D01*
X14717Y-29070D02*
X14259Y-29070D01*
X14488Y-29070D02*
X14488Y-28270D01*
X14412Y-28384D01*
X14336Y-28460D01*
X14259Y-28498D01*
X15059Y-28994D02*
X15098Y-29032D01*
X15059Y-29070D01*
X15021Y-29032D01*
X15059Y-28994D01*
X15059Y-29070D01*
X15593Y-28270D02*
X15669Y-28270D01*
X15745Y-28308D01*
X15783Y-28346D01*
X15821Y-28422D01*
X15860Y-28575D01*
X15860Y-28765D01*
X15821Y-28917D01*
X15783Y-28994D01*
X15745Y-29032D01*
X15669Y-29070D01*
X15593Y-29070D01*
X15517Y-29032D01*
X15479Y-28994D01*
X15440Y-28917D01*
X15402Y-28765D01*
X15402Y-28575D01*
X15440Y-28422D01*
X15479Y-28346D01*
X15517Y-28308D01*
X15593Y-28270D01*
X16355Y-28270D02*
X16431Y-28270D01*
X16507Y-28308D01*
X16545Y-28346D01*
X16583Y-28422D01*
X16622Y-28575D01*
X16622Y-28765D01*
X16583Y-28917D01*
X16545Y-28994D01*
X16507Y-29032D01*
X16431Y-29070D01*
X16355Y-29070D01*
X16279Y-29032D01*
X16241Y-28994D01*
X16202Y-28917D01*
X16164Y-28765D01*
X16164Y-28575D01*
X16202Y-28422D01*
X16241Y-28346D01*
X16279Y-28308D01*
X16355Y-28270D01*
X16964Y-29070D02*
X16964Y-28536D01*
X16964Y-28613D02*
X17003Y-28575D01*
X17079Y-28536D01*
X17193Y-28536D01*
X17269Y-28575D01*
X17307Y-28651D01*
X17307Y-29070D01*
X17307Y-28651D02*
X17345Y-28575D01*
X17422Y-28536D01*
X17536Y-28536D01*
X17612Y-28575D01*
X17650Y-28651D01*
X17650Y-29070D01*
X18031Y-29070D02*
X18031Y-28536D01*
X18031Y-28613D02*
X18070Y-28575D01*
X18146Y-28536D01*
X18260Y-28536D01*
X18336Y-28575D01*
X18374Y-28651D01*
X18374Y-29070D01*
X18374Y-28651D02*
X18412Y-28575D01*
X18489Y-28536D01*
X18603Y-28536D01*
X18679Y-28575D01*
X18717Y-28651D01*
X18717Y-29070D01*
X19937Y-29375D02*
X19899Y-29336D01*
X19823Y-29222D01*
X19785Y-29146D01*
X19747Y-29032D01*
X19708Y-28841D01*
X19708Y-28689D01*
X19747Y-28498D01*
X19785Y-28384D01*
X19823Y-28308D01*
X19899Y-28194D01*
X19937Y-28156D01*
X20584Y-28270D02*
X20432Y-28270D01*
X20356Y-28308D01*
X20318Y-28346D01*
X20241Y-28460D01*
X20203Y-28613D01*
X20203Y-28917D01*
X20241Y-28994D01*
X20280Y-29032D01*
X20356Y-29070D01*
X20508Y-29070D01*
X20584Y-29032D01*
X20622Y-28994D01*
X20661Y-28917D01*
X20661Y-28727D01*
X20622Y-28651D01*
X20584Y-28613D01*
X20508Y-28575D01*
X20356Y-28575D01*
X20280Y-28613D01*
X20241Y-28651D01*
X20203Y-28727D01*
X21346Y-28536D02*
X21346Y-29070D01*
X21156Y-28232D02*
X20965Y-28803D01*
X21461Y-28803D01*
X22375Y-29070D02*
X22375Y-28270D01*
X22718Y-29070D02*
X22718Y-28651D01*
X22680Y-28575D01*
X22604Y-28536D01*
X22490Y-28536D01*
X22414Y-28575D01*
X22375Y-28613D01*
X23214Y-29070D02*
X23138Y-29032D01*
X23099Y-28994D01*
X23061Y-28917D01*
X23061Y-28689D01*
X23099Y-28613D01*
X23138Y-28575D01*
X23214Y-28536D01*
X23328Y-28536D01*
X23404Y-28575D01*
X23442Y-28613D01*
X23480Y-28689D01*
X23480Y-28917D01*
X23442Y-28994D01*
X23404Y-29032D01*
X23328Y-29070D01*
X23214Y-29070D01*
X23938Y-29070D02*
X23862Y-29032D01*
X23823Y-28956D01*
X23823Y-28270D01*
X24547Y-29032D02*
X24471Y-29070D01*
X24319Y-29070D01*
X24242Y-29032D01*
X24204Y-28956D01*
X24204Y-28651D01*
X24242Y-28575D01*
X24319Y-28536D01*
X24471Y-28536D01*
X24547Y-28575D01*
X24585Y-28651D01*
X24585Y-28727D01*
X24204Y-28803D01*
X24890Y-29032D02*
X24967Y-29070D01*
X25119Y-29070D01*
X25195Y-29032D01*
X25233Y-28956D01*
X25233Y-28917D01*
X25195Y-28841D01*
X25119Y-28803D01*
X25005Y-28803D01*
X24928Y-28765D01*
X24890Y-28689D01*
X24890Y-28651D01*
X24928Y-28575D01*
X25005Y-28536D01*
X25119Y-28536D01*
X25195Y-28575D01*
X25500Y-29375D02*
X25538Y-29336D01*
X25615Y-29222D01*
X25653Y-29146D01*
X25691Y-29032D01*
X25729Y-28841D01*
X25729Y-28689D01*
X25691Y-28498D01*
X25653Y-28384D01*
X25615Y-28308D01*
X25538Y-28194D01*
X25500Y-28156D01*
G54D10*
X07810Y-29801D02*
X07806Y-29839D01*
X07794Y-29877D01*
X07776Y-29911D01*
X07751Y-29941D01*
X07721Y-29966D01*
X07687Y-29985D01*
X07650Y-29996D01*
X07611Y-30000D01*
X07573Y-29997D01*
X07536Y-29986D01*
X07501Y-29968D01*
X07471Y-29943D01*
X07445Y-29913D01*
X07427Y-29879D01*
X07415Y-29842D01*
X07411Y-29803D01*
X07414Y-29765D01*
X07425Y-29728D01*
X07442Y-29693D01*
X07467Y-29663D01*
X07496Y-29637D01*
X07530Y-29618D01*
X07568Y-29606D01*
X07606Y-29602D01*
X07644Y-29605D01*
X07682Y-29615D01*
X07717Y-29633D01*
X07747Y-29657D01*
X07773Y-29686D01*
X07792Y-29720D01*
X07805Y-29757D01*
X07809Y-29796D01*
X07810Y-29801D01*
X07410Y-29601D02*
X07810Y-30001D01*
X07810Y-29601D02*
X07410Y-30001D01*
G54D12*
X08353Y-29325D02*
X08429Y-29325D01*
X08505Y-29363D01*
X08543Y-29401D01*
X08581Y-29477D01*
X08620Y-29630D01*
X08620Y-29820D01*
X08581Y-29972D01*
X08543Y-30049D01*
X08505Y-30087D01*
X08429Y-30125D01*
X08353Y-30125D01*
X08277Y-30087D01*
X08239Y-30049D01*
X08200Y-29972D01*
X08162Y-29820D01*
X08162Y-29630D01*
X08200Y-29477D01*
X08239Y-29401D01*
X08277Y-29363D01*
X08353Y-29325D01*
X08962Y-30049D02*
X09001Y-30087D01*
X08962Y-30125D01*
X08924Y-30087D01*
X08962Y-30049D01*
X08962Y-30125D01*
X09496Y-29325D02*
X09572Y-29325D01*
X09648Y-29363D01*
X09686Y-29401D01*
X09724Y-29477D01*
X09763Y-29630D01*
X09763Y-29820D01*
X09724Y-29972D01*
X09686Y-30049D01*
X09648Y-30087D01*
X09572Y-30125D01*
X09496Y-30125D01*
X09420Y-30087D01*
X09382Y-30049D01*
X09343Y-29972D01*
X09305Y-29820D01*
X09305Y-29630D01*
X09343Y-29477D01*
X09382Y-29401D01*
X09420Y-29363D01*
X09496Y-29325D01*
X10448Y-29591D02*
X10448Y-30125D01*
X10258Y-29287D02*
X10067Y-29858D01*
X10563Y-29858D01*
X11020Y-29325D02*
X11096Y-29325D01*
X11172Y-29363D01*
X11210Y-29401D01*
X11248Y-29477D01*
X11287Y-29630D01*
X11287Y-29820D01*
X11248Y-29972D01*
X11210Y-30049D01*
X11172Y-30087D01*
X11096Y-30125D01*
X11020Y-30125D01*
X10944Y-30087D01*
X10906Y-30049D01*
X10867Y-29972D01*
X10829Y-29820D01*
X10829Y-29630D01*
X10867Y-29477D01*
X10906Y-29401D01*
X10944Y-29363D01*
X11020Y-29325D01*
X11591Y-29325D02*
X11591Y-29477D01*
X11896Y-29325D02*
X11896Y-29477D01*
X13421Y-29287D02*
X12735Y-30315D01*
X14717Y-30125D02*
X14259Y-30125D01*
X14488Y-30125D02*
X14488Y-29325D01*
X14412Y-29439D01*
X14336Y-29515D01*
X14259Y-29553D01*
X15059Y-30049D02*
X15098Y-30087D01*
X15059Y-30125D01*
X15021Y-30087D01*
X15059Y-30049D01*
X15059Y-30125D01*
X15593Y-29325D02*
X15669Y-29325D01*
X15745Y-29363D01*
X15783Y-29401D01*
X15821Y-29477D01*
X15860Y-29630D01*
X15860Y-29820D01*
X15821Y-29972D01*
X15783Y-30049D01*
X15745Y-30087D01*
X15669Y-30125D01*
X15593Y-30125D01*
X15517Y-30087D01*
X15479Y-30049D01*
X15440Y-29972D01*
X15402Y-29820D01*
X15402Y-29630D01*
X15440Y-29477D01*
X15479Y-29401D01*
X15517Y-29363D01*
X15593Y-29325D01*
X16164Y-29401D02*
X16202Y-29363D01*
X16279Y-29325D01*
X16469Y-29325D01*
X16545Y-29363D01*
X16583Y-29401D01*
X16622Y-29477D01*
X16622Y-29553D01*
X16583Y-29668D01*
X16126Y-30125D01*
X16622Y-30125D01*
X16964Y-30125D02*
X16964Y-29591D01*
X16964Y-29668D02*
X17003Y-29630D01*
X17079Y-29591D01*
X17193Y-29591D01*
X17269Y-29630D01*
X17307Y-29706D01*
X17307Y-30125D01*
X17307Y-29706D02*
X17345Y-29630D01*
X17422Y-29591D01*
X17536Y-29591D01*
X17612Y-29630D01*
X17650Y-29706D01*
X17650Y-30125D01*
X18031Y-30125D02*
X18031Y-29591D01*
X18031Y-29668D02*
X18070Y-29630D01*
X18146Y-29591D01*
X18260Y-29591D01*
X18336Y-29630D01*
X18374Y-29706D01*
X18374Y-30125D01*
X18374Y-29706D02*
X18412Y-29630D01*
X18489Y-29591D01*
X18603Y-29591D01*
X18679Y-29630D01*
X18717Y-29706D01*
X18717Y-30125D01*
X19937Y-30430D02*
X19899Y-30391D01*
X19823Y-30277D01*
X19785Y-30201D01*
X19747Y-30087D01*
X19708Y-29896D01*
X19708Y-29744D01*
X19747Y-29553D01*
X19785Y-29439D01*
X19823Y-29363D01*
X19899Y-29249D01*
X19937Y-29211D01*
X20165Y-29325D02*
X20661Y-29325D01*
X20394Y-29630D01*
X20508Y-29630D01*
X20584Y-29668D01*
X20622Y-29706D01*
X20661Y-29782D01*
X20661Y-29972D01*
X20622Y-30049D01*
X20584Y-30087D01*
X20508Y-30125D01*
X20280Y-30125D01*
X20203Y-30087D01*
X20165Y-30049D01*
X21156Y-29325D02*
X21232Y-29325D01*
X21308Y-29363D01*
X21346Y-29401D01*
X21384Y-29477D01*
X21423Y-29630D01*
X21423Y-29820D01*
X21384Y-29972D01*
X21346Y-30049D01*
X21308Y-30087D01*
X21232Y-30125D01*
X21156Y-30125D01*
X21080Y-30087D01*
X21042Y-30049D01*
X21003Y-29972D01*
X20965Y-29820D01*
X20965Y-29630D01*
X21003Y-29477D01*
X21042Y-29401D01*
X21080Y-29363D01*
X21156Y-29325D01*
X22375Y-30125D02*
X22375Y-29325D01*
X22718Y-30125D02*
X22718Y-29706D01*
X22680Y-29630D01*
X22604Y-29591D01*
X22490Y-29591D01*
X22414Y-29630D01*
X22375Y-29668D01*
X23214Y-30125D02*
X23138Y-30087D01*
X23099Y-30049D01*
X23061Y-29972D01*
X23061Y-29744D01*
X23099Y-29668D01*
X23138Y-29630D01*
X23214Y-29591D01*
X23328Y-29591D01*
X23404Y-29630D01*
X23442Y-29668D01*
X23480Y-29744D01*
X23480Y-29972D01*
X23442Y-30049D01*
X23404Y-30087D01*
X23328Y-30125D01*
X23214Y-30125D01*
X23938Y-30125D02*
X23862Y-30087D01*
X23823Y-30011D01*
X23823Y-29325D01*
X24547Y-30087D02*
X24471Y-30125D01*
X24319Y-30125D01*
X24242Y-30087D01*
X24204Y-30011D01*
X24204Y-29706D01*
X24242Y-29630D01*
X24319Y-29591D01*
X24471Y-29591D01*
X24547Y-29630D01*
X24585Y-29706D01*
X24585Y-29782D01*
X24204Y-29858D01*
X24890Y-30087D02*
X24967Y-30125D01*
X25119Y-30125D01*
X25195Y-30087D01*
X25233Y-30011D01*
X25233Y-29972D01*
X25195Y-29896D01*
X25119Y-29858D01*
X25005Y-29858D01*
X24928Y-29820D01*
X24890Y-29744D01*
X24890Y-29706D01*
X24928Y-29630D01*
X25005Y-29591D01*
X25119Y-29591D01*
X25195Y-29630D01*
X25500Y-30430D02*
X25538Y-30391D01*
X25615Y-30277D01*
X25653Y-30201D01*
X25691Y-30087D01*
X25729Y-29896D01*
X25729Y-29744D01*
X25691Y-29553D01*
X25653Y-29439D01*
X25615Y-29363D01*
X25538Y-29249D01*
X25500Y-29211D01*
G54D10*
X07810Y-30856D02*
X07805Y-30904D01*
X07791Y-30951D01*
X07768Y-30994D01*
X07737Y-31032D01*
X07699Y-31063D01*
X07656Y-31086D01*
X07610Y-31100D01*
X07561Y-31105D01*
X07514Y-31101D01*
X07467Y-31087D01*
X07424Y-31065D01*
X07386Y-31034D01*
X07354Y-30997D01*
X07331Y-30954D01*
X07316Y-30907D01*
X07311Y-30859D01*
X07315Y-30811D01*
X07328Y-30764D01*
X07350Y-30721D01*
X07381Y-30683D01*
X07418Y-30651D01*
X07460Y-30627D01*
X07507Y-30612D01*
X07555Y-30607D01*
X07603Y-30610D01*
X07650Y-30623D01*
X07693Y-30645D01*
X07732Y-30675D01*
X07764Y-30712D01*
X07788Y-30755D01*
X07803Y-30801D01*
X07809Y-30850D01*
X07810Y-30856D01*
X07310Y-30856D02*
X07810Y-30856D01*
G54D12*
X08353Y-30380D02*
X08429Y-30380D01*
X08505Y-30418D01*
X08543Y-30456D01*
X08581Y-30532D01*
X08620Y-30685D01*
X08620Y-30875D01*
X08581Y-31027D01*
X08543Y-31104D01*
X08505Y-31142D01*
X08429Y-31180D01*
X08353Y-31180D01*
X08277Y-31142D01*
X08239Y-31104D01*
X08200Y-31027D01*
X08162Y-30875D01*
X08162Y-30685D01*
X08200Y-30532D01*
X08239Y-30456D01*
X08277Y-30418D01*
X08353Y-30380D01*
X08962Y-31104D02*
X09001Y-31142D01*
X08962Y-31180D01*
X08924Y-31142D01*
X08962Y-31104D01*
X08962Y-31180D01*
X09496Y-30380D02*
X09572Y-30380D01*
X09648Y-30418D01*
X09686Y-30456D01*
X09724Y-30532D01*
X09763Y-30685D01*
X09763Y-30875D01*
X09724Y-31027D01*
X09686Y-31104D01*
X09648Y-31142D01*
X09572Y-31180D01*
X09496Y-31180D01*
X09420Y-31142D01*
X09382Y-31104D01*
X09343Y-31027D01*
X09305Y-30875D01*
X09305Y-30685D01*
X09343Y-30532D01*
X09382Y-30456D01*
X09420Y-30418D01*
X09496Y-30380D01*
X10486Y-30380D02*
X10105Y-30380D01*
X10067Y-30761D01*
X10105Y-30723D01*
X10182Y-30685D01*
X10372Y-30685D01*
X10448Y-30723D01*
X10486Y-30761D01*
X10525Y-30837D01*
X10525Y-31027D01*
X10486Y-31104D01*
X10448Y-31142D01*
X10372Y-31180D01*
X10182Y-31180D01*
X10105Y-31142D01*
X10067Y-31104D01*
X11020Y-30380D02*
X11096Y-30380D01*
X11172Y-30418D01*
X11210Y-30456D01*
X11248Y-30532D01*
X11287Y-30685D01*
X11287Y-30875D01*
X11248Y-31027D01*
X11210Y-31104D01*
X11172Y-31142D01*
X11096Y-31180D01*
X11020Y-31180D01*
X10944Y-31142D01*
X10906Y-31104D01*
X10867Y-31027D01*
X10829Y-30875D01*
X10829Y-30685D01*
X10867Y-30532D01*
X10906Y-30456D01*
X10944Y-30418D01*
X11020Y-30380D01*
X11591Y-30380D02*
X11591Y-30532D01*
X11896Y-30380D02*
X11896Y-30532D01*
X13421Y-30342D02*
X12735Y-31370D01*
X14717Y-31180D02*
X14259Y-31180D01*
X14488Y-31180D02*
X14488Y-30380D01*
X14412Y-30494D01*
X14336Y-30570D01*
X14259Y-30608D01*
X15059Y-31104D02*
X15098Y-31142D01*
X15059Y-31180D01*
X15021Y-31142D01*
X15059Y-31104D01*
X15059Y-31180D01*
X15402Y-30456D02*
X15440Y-30418D01*
X15517Y-30380D01*
X15707Y-30380D01*
X15783Y-30418D01*
X15821Y-30456D01*
X15860Y-30532D01*
X15860Y-30608D01*
X15821Y-30723D01*
X15364Y-31180D01*
X15860Y-31180D01*
X16126Y-30380D02*
X16660Y-30380D01*
X16317Y-31180D01*
X16964Y-31180D02*
X16964Y-30646D01*
X16964Y-30723D02*
X17003Y-30685D01*
X17079Y-30646D01*
X17193Y-30646D01*
X17269Y-30685D01*
X17307Y-30761D01*
X17307Y-31180D01*
X17307Y-30761D02*
X17345Y-30685D01*
X17422Y-30646D01*
X17536Y-30646D01*
X17612Y-30685D01*
X17650Y-30761D01*
X17650Y-31180D01*
X18031Y-31180D02*
X18031Y-30646D01*
X18031Y-30723D02*
X18070Y-30685D01*
X18146Y-30646D01*
X18260Y-30646D01*
X18336Y-30685D01*
X18374Y-30761D01*
X18374Y-31180D01*
X18374Y-30761D02*
X18412Y-30685D01*
X18489Y-30646D01*
X18603Y-30646D01*
X18679Y-30685D01*
X18717Y-30761D01*
X18717Y-31180D01*
X19937Y-31485D02*
X19899Y-31446D01*
X19823Y-31332D01*
X19785Y-31256D01*
X19747Y-31142D01*
X19708Y-30951D01*
X19708Y-30799D01*
X19747Y-30608D01*
X19785Y-30494D01*
X19823Y-30418D01*
X19899Y-30304D01*
X19937Y-30266D01*
X20165Y-30380D02*
X20661Y-30380D01*
X20394Y-30685D01*
X20508Y-30685D01*
X20584Y-30723D01*
X20622Y-30761D01*
X20661Y-30837D01*
X20661Y-31027D01*
X20622Y-31104D01*
X20584Y-31142D01*
X20508Y-31180D01*
X20280Y-31180D01*
X20203Y-31142D01*
X20165Y-31104D01*
X21613Y-31180D02*
X21613Y-30380D01*
X21956Y-31180D02*
X21956Y-30761D01*
X21918Y-30685D01*
X21842Y-30646D01*
X21728Y-30646D01*
X21652Y-30685D01*
X21613Y-30723D01*
X22452Y-31180D02*
X22376Y-31142D01*
X22337Y-31104D01*
X22299Y-31027D01*
X22299Y-30799D01*
X22337Y-30723D01*
X22376Y-30685D01*
X22452Y-30646D01*
X22566Y-30646D01*
X22642Y-30685D01*
X22680Y-30723D01*
X22718Y-30799D01*
X22718Y-31027D01*
X22680Y-31104D01*
X22642Y-31142D01*
X22566Y-31180D01*
X22452Y-31180D01*
X23176Y-31180D02*
X23100Y-31142D01*
X23061Y-31066D01*
X23061Y-30380D01*
X23785Y-31142D02*
X23709Y-31180D01*
X23557Y-31180D01*
X23480Y-31142D01*
X23442Y-31066D01*
X23442Y-30761D01*
X23480Y-30685D01*
X23557Y-30646D01*
X23709Y-30646D01*
X23785Y-30685D01*
X23823Y-30761D01*
X23823Y-30837D01*
X23442Y-30913D01*
X24128Y-31142D02*
X24205Y-31180D01*
X24357Y-31180D01*
X24433Y-31142D01*
X24471Y-31066D01*
X24471Y-31027D01*
X24433Y-30951D01*
X24357Y-30913D01*
X24243Y-30913D01*
X24166Y-30875D01*
X24128Y-30799D01*
X24128Y-30761D01*
X24166Y-30685D01*
X24243Y-30646D01*
X24357Y-30646D01*
X24433Y-30685D01*
X24738Y-31485D02*
X24776Y-31446D01*
X24853Y-31332D01*
X24891Y-31256D01*
X24929Y-31142D01*
X24967Y-30951D01*
X24967Y-30799D01*
X24929Y-30608D01*
X24891Y-30494D01*
X24853Y-30418D01*
X24776Y-30304D01*
X24738Y-30266D01*
G54D10*
X07810Y-31911D02*
X07798Y-32027D01*
X07764Y-32139D01*
X07709Y-32243D01*
X07635Y-32333D01*
X07545Y-32408D01*
X07442Y-32464D01*
X07330Y-32498D01*
X07214Y-32510D01*
X07098Y-32500D01*
X06986Y-32467D01*
X06882Y-32413D01*
X06791Y-32339D01*
X06715Y-32249D01*
X06659Y-32147D01*
X06624Y-32035D01*
X06611Y-31919D01*
X06620Y-31803D01*
X06653Y-31691D01*
X06706Y-31586D01*
X06779Y-31495D01*
X06868Y-31419D01*
X06970Y-31362D01*
X07082Y-31325D01*
X07198Y-31312D01*
X07314Y-31321D01*
X07426Y-31352D01*
X07531Y-31405D01*
X07623Y-31477D01*
X07700Y-31566D01*
X07758Y-31667D01*
X07795Y-31779D01*
X07809Y-31895D01*
X07810Y-31911D01*
X07210Y-31311D02*
X07210Y-32511D01*
G54D12*
X08353Y-31435D02*
X08429Y-31435D01*
X08505Y-31473D01*
X08543Y-31511D01*
X08581Y-31587D01*
X08620Y-31740D01*
X08620Y-31930D01*
X08581Y-32082D01*
X08543Y-32159D01*
X08505Y-32197D01*
X08429Y-32235D01*
X08353Y-32235D01*
X08277Y-32197D01*
X08239Y-32159D01*
X08200Y-32082D01*
X08162Y-31930D01*
X08162Y-31740D01*
X08200Y-31587D01*
X08239Y-31511D01*
X08277Y-31473D01*
X08353Y-31435D01*
X08962Y-32159D02*
X09001Y-32197D01*
X08962Y-32235D01*
X08924Y-32197D01*
X08962Y-32159D01*
X08962Y-32235D01*
X09763Y-32235D02*
X09305Y-32235D01*
X09534Y-32235D02*
X09534Y-31435D01*
X09458Y-31549D01*
X09382Y-31625D01*
X09305Y-31663D01*
X10067Y-31511D02*
X10105Y-31473D01*
X10182Y-31435D01*
X10372Y-31435D01*
X10448Y-31473D01*
X10486Y-31511D01*
X10525Y-31587D01*
X10525Y-31663D01*
X10486Y-31778D01*
X10029Y-32235D01*
X10525Y-32235D01*
X11020Y-31435D02*
X11096Y-31435D01*
X11172Y-31473D01*
X11210Y-31511D01*
X11248Y-31587D01*
X11287Y-31740D01*
X11287Y-31930D01*
X11248Y-32082D01*
X11210Y-32159D01*
X11172Y-32197D01*
X11096Y-32235D01*
X11020Y-32235D01*
X10944Y-32197D01*
X10906Y-32159D01*
X10867Y-32082D01*
X10829Y-31930D01*
X10829Y-31740D01*
X10867Y-31587D01*
X10906Y-31511D01*
X10944Y-31473D01*
X11020Y-31435D01*
X11591Y-31435D02*
X11591Y-31587D01*
X11896Y-31435D02*
X11896Y-31587D01*
X13421Y-31397D02*
X12735Y-32425D01*
X14221Y-31435D02*
X14717Y-31435D01*
X14450Y-31740D01*
X14564Y-31740D01*
X14640Y-31778D01*
X14678Y-31816D01*
X14717Y-31892D01*
X14717Y-32082D01*
X14678Y-32159D01*
X14640Y-32197D01*
X14564Y-32235D01*
X14336Y-32235D01*
X14259Y-32197D01*
X14221Y-32159D01*
X15059Y-32159D02*
X15098Y-32197D01*
X15059Y-32235D01*
X15021Y-32197D01*
X15059Y-32159D01*
X15059Y-32235D01*
X15593Y-31435D02*
X15669Y-31435D01*
X15745Y-31473D01*
X15783Y-31511D01*
X15821Y-31587D01*
X15860Y-31740D01*
X15860Y-31930D01*
X15821Y-32082D01*
X15783Y-32159D01*
X15745Y-32197D01*
X15669Y-32235D01*
X15593Y-32235D01*
X15517Y-32197D01*
X15479Y-32159D01*
X15440Y-32082D01*
X15402Y-31930D01*
X15402Y-31740D01*
X15440Y-31587D01*
X15479Y-31511D01*
X15517Y-31473D01*
X15593Y-31435D01*
X16583Y-31435D02*
X16202Y-31435D01*
X16164Y-31816D01*
X16202Y-31778D01*
X16279Y-31740D01*
X16469Y-31740D01*
X16545Y-31778D01*
X16583Y-31816D01*
X16622Y-31892D01*
X16622Y-32082D01*
X16583Y-32159D01*
X16545Y-32197D01*
X16469Y-32235D01*
X16279Y-32235D01*
X16202Y-32197D01*
X16164Y-32159D01*
X16964Y-32235D02*
X16964Y-31701D01*
X16964Y-31778D02*
X17003Y-31740D01*
X17079Y-31701D01*
X17193Y-31701D01*
X17269Y-31740D01*
X17307Y-31816D01*
X17307Y-32235D01*
X17307Y-31816D02*
X17345Y-31740D01*
X17422Y-31701D01*
X17536Y-31701D01*
X17612Y-31740D01*
X17650Y-31816D01*
X17650Y-32235D01*
X18031Y-32235D02*
X18031Y-31701D01*
X18031Y-31778D02*
X18070Y-31740D01*
X18146Y-31701D01*
X18260Y-31701D01*
X18336Y-31740D01*
X18374Y-31816D01*
X18374Y-32235D01*
X18374Y-31816D02*
X18412Y-31740D01*
X18489Y-31701D01*
X18603Y-31701D01*
X18679Y-31740D01*
X18717Y-31816D01*
X18717Y-32235D01*
X19937Y-32540D02*
X19899Y-32501D01*
X19823Y-32387D01*
X19785Y-32311D01*
X19747Y-32197D01*
X19708Y-32006D01*
X19708Y-31854D01*
X19747Y-31663D01*
X19785Y-31549D01*
X19823Y-31473D01*
X19899Y-31359D01*
X19937Y-31321D01*
X20584Y-31435D02*
X20432Y-31435D01*
X20356Y-31473D01*
X20318Y-31511D01*
X20241Y-31625D01*
X20203Y-31778D01*
X20203Y-32082D01*
X20241Y-32159D01*
X20280Y-32197D01*
X20356Y-32235D01*
X20508Y-32235D01*
X20584Y-32197D01*
X20622Y-32159D01*
X20661Y-32082D01*
X20661Y-31892D01*
X20622Y-31816D01*
X20584Y-31778D01*
X20508Y-31740D01*
X20356Y-31740D01*
X20280Y-31778D01*
X20241Y-31816D01*
X20203Y-31892D01*
X21613Y-32235D02*
X21613Y-31435D01*
X21956Y-32235D02*
X21956Y-31816D01*
X21918Y-31740D01*
X21842Y-31701D01*
X21728Y-31701D01*
X21652Y-31740D01*
X21613Y-31778D01*
X22452Y-32235D02*
X22376Y-32197D01*
X22337Y-32159D01*
X22299Y-32082D01*
X22299Y-31854D01*
X22337Y-31778D01*
X22376Y-31740D01*
X22452Y-31701D01*
X22566Y-31701D01*
X22642Y-31740D01*
X22680Y-31778D01*
X22718Y-31854D01*
X22718Y-32082D01*
X22680Y-32159D01*
X22642Y-32197D01*
X22566Y-32235D01*
X22452Y-32235D01*
X23176Y-32235D02*
X23100Y-32197D01*
X23061Y-32121D01*
X23061Y-31435D01*
X23785Y-32197D02*
X23709Y-32235D01*
X23557Y-32235D01*
X23480Y-32197D01*
X23442Y-32121D01*
X23442Y-31816D01*
X23480Y-31740D01*
X23557Y-31701D01*
X23709Y-31701D01*
X23785Y-31740D01*
X23823Y-31816D01*
X23823Y-31892D01*
X23442Y-31968D01*
X24128Y-32197D02*
X24205Y-32235D01*
X24357Y-32235D01*
X24433Y-32197D01*
X24471Y-32121D01*
X24471Y-32082D01*
X24433Y-32006D01*
X24357Y-31968D01*
X24243Y-31968D01*
X24166Y-31930D01*
X24128Y-31854D01*
X24128Y-31816D01*
X24166Y-31740D01*
X24243Y-31701D01*
X24357Y-31701D01*
X24433Y-31740D01*
X24738Y-32540D02*
X24776Y-32501D01*
X24853Y-32387D01*
X24891Y-32311D01*
X24929Y-32197D01*
X24967Y-32006D01*
X24967Y-31854D01*
X24929Y-31663D01*
X24891Y-31549D01*
X24853Y-31473D01*
X24776Y-31359D01*
X24738Y-31321D01*
M02*
