G04 (created by PCBNEW-RS274X (2010-04-21 BZR 23xx)-stable) date Sun 20 Mar 2011 12:37:44 AM CET*
G01*
G70*
G90*
%MOIN*%
G04 Gerber Fmt 3.4, Leading zero omitted, Abs format*
%FSLAX34Y34*%
G04 APERTURE LIST*
%ADD10C,0.006000*%
%ADD11C,0.002600*%
%ADD12C,0.002000*%
%ADD13C,0.004000*%
%ADD14C,0.008000*%
G04 APERTURE END LIST*
G54D10*
G54D11*
X61125Y-13240D02*
X61125Y-12985D01*
X61125Y-12985D02*
X61676Y-12985D01*
X61676Y-13240D02*
X61676Y-12985D01*
X61125Y-13240D02*
X61676Y-13240D01*
X61125Y-13820D02*
X61125Y-13564D01*
X61125Y-13564D02*
X61676Y-13564D01*
X61676Y-13820D02*
X61676Y-13564D01*
X61125Y-13820D02*
X61676Y-13820D01*
X61204Y-13478D02*
X61204Y-13322D01*
X61204Y-13322D02*
X61596Y-13322D01*
X61596Y-13478D02*
X61596Y-13322D01*
X61204Y-13478D02*
X61596Y-13478D01*
G54D10*
X61650Y-13561D02*
X61650Y-13239D01*
X61150Y-13561D02*
X61150Y-13239D01*
G54D12*
X61787Y-14176D02*
X61787Y-12624D01*
X61787Y-12624D02*
X61013Y-12624D01*
X61013Y-12624D02*
X61013Y-14176D01*
X61013Y-14176D02*
X61787Y-14176D01*
G54D11*
X63375Y-13560D02*
X63375Y-13815D01*
X63375Y-13815D02*
X62824Y-13815D01*
X62824Y-13560D02*
X62824Y-13815D01*
X63375Y-13560D02*
X62824Y-13560D01*
X63375Y-12980D02*
X63375Y-13236D01*
X63375Y-13236D02*
X62824Y-13236D01*
X62824Y-12980D02*
X62824Y-13236D01*
X63375Y-12980D02*
X62824Y-12980D01*
X63296Y-13322D02*
X63296Y-13478D01*
X63296Y-13478D02*
X62904Y-13478D01*
X62904Y-13322D02*
X62904Y-13478D01*
X63296Y-13322D02*
X62904Y-13322D01*
G54D10*
X62850Y-13239D02*
X62850Y-13561D01*
X63350Y-13239D02*
X63350Y-13561D01*
G54D12*
X62713Y-12624D02*
X62713Y-14176D01*
X62713Y-14176D02*
X63487Y-14176D01*
X63487Y-14176D02*
X63487Y-12624D01*
X63487Y-12624D02*
X62713Y-12624D01*
G54D11*
X64275Y-13560D02*
X64275Y-13815D01*
X64275Y-13815D02*
X63724Y-13815D01*
X63724Y-13560D02*
X63724Y-13815D01*
X64275Y-13560D02*
X63724Y-13560D01*
X64275Y-12980D02*
X64275Y-13236D01*
X64275Y-13236D02*
X63724Y-13236D01*
X63724Y-12980D02*
X63724Y-13236D01*
X64275Y-12980D02*
X63724Y-12980D01*
X64196Y-13322D02*
X64196Y-13478D01*
X64196Y-13478D02*
X63804Y-13478D01*
X63804Y-13322D02*
X63804Y-13478D01*
X64196Y-13322D02*
X63804Y-13322D01*
G54D10*
X63750Y-13239D02*
X63750Y-13561D01*
X64250Y-13239D02*
X64250Y-13561D01*
G54D12*
X63613Y-12624D02*
X63613Y-14176D01*
X63613Y-14176D02*
X64387Y-14176D01*
X64387Y-14176D02*
X64387Y-12624D01*
X64387Y-12624D02*
X63613Y-12624D01*
G54D11*
X65425Y-13240D02*
X65425Y-12985D01*
X65425Y-12985D02*
X65976Y-12985D01*
X65976Y-13240D02*
X65976Y-12985D01*
X65425Y-13240D02*
X65976Y-13240D01*
X65425Y-13820D02*
X65425Y-13564D01*
X65425Y-13564D02*
X65976Y-13564D01*
X65976Y-13820D02*
X65976Y-13564D01*
X65425Y-13820D02*
X65976Y-13820D01*
X65504Y-13478D02*
X65504Y-13322D01*
X65504Y-13322D02*
X65896Y-13322D01*
X65896Y-13478D02*
X65896Y-13322D01*
X65504Y-13478D02*
X65896Y-13478D01*
G54D10*
X65950Y-13561D02*
X65950Y-13239D01*
X65450Y-13561D02*
X65450Y-13239D01*
G54D12*
X66087Y-14176D02*
X66087Y-12624D01*
X66087Y-12624D02*
X65313Y-12624D01*
X65313Y-12624D02*
X65313Y-14176D01*
X65313Y-14176D02*
X66087Y-14176D01*
G54D11*
X58675Y-13560D02*
X58675Y-13815D01*
X58675Y-13815D02*
X58124Y-13815D01*
X58124Y-13560D02*
X58124Y-13815D01*
X58675Y-13560D02*
X58124Y-13560D01*
X58675Y-12980D02*
X58675Y-13236D01*
X58675Y-13236D02*
X58124Y-13236D01*
X58124Y-12980D02*
X58124Y-13236D01*
X58675Y-12980D02*
X58124Y-12980D01*
X58596Y-13322D02*
X58596Y-13478D01*
X58596Y-13478D02*
X58204Y-13478D01*
X58204Y-13322D02*
X58204Y-13478D01*
X58596Y-13322D02*
X58204Y-13322D01*
G54D10*
X58150Y-13239D02*
X58150Y-13561D01*
X58650Y-13239D02*
X58650Y-13561D01*
G54D12*
X58013Y-12624D02*
X58013Y-14176D01*
X58013Y-14176D02*
X58787Y-14176D01*
X58787Y-14176D02*
X58787Y-12624D01*
X58787Y-12624D02*
X58013Y-12624D01*
G54D11*
X57225Y-13240D02*
X57225Y-12985D01*
X57225Y-12985D02*
X57776Y-12985D01*
X57776Y-13240D02*
X57776Y-12985D01*
X57225Y-13240D02*
X57776Y-13240D01*
X57225Y-13820D02*
X57225Y-13564D01*
X57225Y-13564D02*
X57776Y-13564D01*
X57776Y-13820D02*
X57776Y-13564D01*
X57225Y-13820D02*
X57776Y-13820D01*
X57304Y-13478D02*
X57304Y-13322D01*
X57304Y-13322D02*
X57696Y-13322D01*
X57696Y-13478D02*
X57696Y-13322D01*
X57304Y-13478D02*
X57696Y-13478D01*
G54D10*
X57750Y-13561D02*
X57750Y-13239D01*
X57250Y-13561D02*
X57250Y-13239D01*
G54D12*
X57887Y-14176D02*
X57887Y-12624D01*
X57887Y-12624D02*
X57113Y-12624D01*
X57113Y-12624D02*
X57113Y-14176D01*
X57113Y-14176D02*
X57887Y-14176D01*
G54D11*
X52725Y-13240D02*
X52725Y-12985D01*
X52725Y-12985D02*
X53276Y-12985D01*
X53276Y-13240D02*
X53276Y-12985D01*
X52725Y-13240D02*
X53276Y-13240D01*
X52725Y-13820D02*
X52725Y-13564D01*
X52725Y-13564D02*
X53276Y-13564D01*
X53276Y-13820D02*
X53276Y-13564D01*
X52725Y-13820D02*
X53276Y-13820D01*
X52804Y-13478D02*
X52804Y-13322D01*
X52804Y-13322D02*
X53196Y-13322D01*
X53196Y-13478D02*
X53196Y-13322D01*
X52804Y-13478D02*
X53196Y-13478D01*
G54D10*
X53250Y-13561D02*
X53250Y-13239D01*
X52750Y-13561D02*
X52750Y-13239D01*
G54D12*
X53387Y-14176D02*
X53387Y-12624D01*
X53387Y-12624D02*
X52613Y-12624D01*
X52613Y-12624D02*
X52613Y-14176D01*
X52613Y-14176D02*
X53387Y-14176D01*
G54D11*
X51825Y-13240D02*
X51825Y-12985D01*
X51825Y-12985D02*
X52376Y-12985D01*
X52376Y-13240D02*
X52376Y-12985D01*
X51825Y-13240D02*
X52376Y-13240D01*
X51825Y-13820D02*
X51825Y-13564D01*
X51825Y-13564D02*
X52376Y-13564D01*
X52376Y-13820D02*
X52376Y-13564D01*
X51825Y-13820D02*
X52376Y-13820D01*
X51904Y-13478D02*
X51904Y-13322D01*
X51904Y-13322D02*
X52296Y-13322D01*
X52296Y-13478D02*
X52296Y-13322D01*
X51904Y-13478D02*
X52296Y-13478D01*
G54D10*
X52350Y-13561D02*
X52350Y-13239D01*
X51850Y-13561D02*
X51850Y-13239D01*
G54D12*
X52487Y-14176D02*
X52487Y-12624D01*
X52487Y-12624D02*
X51713Y-12624D01*
X51713Y-12624D02*
X51713Y-14176D01*
X51713Y-14176D02*
X52487Y-14176D01*
G54D11*
X51540Y-17975D02*
X51285Y-17975D01*
X51285Y-17975D02*
X51285Y-17424D01*
X51540Y-17424D02*
X51285Y-17424D01*
X51540Y-17975D02*
X51540Y-17424D01*
X52120Y-17975D02*
X51864Y-17975D01*
X51864Y-17975D02*
X51864Y-17424D01*
X52120Y-17424D02*
X51864Y-17424D01*
X52120Y-17975D02*
X52120Y-17424D01*
X51778Y-17896D02*
X51622Y-17896D01*
X51622Y-17896D02*
X51622Y-17504D01*
X51778Y-17504D02*
X51622Y-17504D01*
X51778Y-17896D02*
X51778Y-17504D01*
G54D10*
X51861Y-17450D02*
X51539Y-17450D01*
X51861Y-17950D02*
X51539Y-17950D01*
G54D12*
X52476Y-17313D02*
X50924Y-17313D01*
X50924Y-17313D02*
X50924Y-18087D01*
X50924Y-18087D02*
X52476Y-18087D01*
X52476Y-18087D02*
X52476Y-17313D01*
G54D11*
X50675Y-13560D02*
X50675Y-13815D01*
X50675Y-13815D02*
X50124Y-13815D01*
X50124Y-13560D02*
X50124Y-13815D01*
X50675Y-13560D02*
X50124Y-13560D01*
X50675Y-12980D02*
X50675Y-13236D01*
X50675Y-13236D02*
X50124Y-13236D01*
X50124Y-12980D02*
X50124Y-13236D01*
X50675Y-12980D02*
X50124Y-12980D01*
X50596Y-13322D02*
X50596Y-13478D01*
X50596Y-13478D02*
X50204Y-13478D01*
X50204Y-13322D02*
X50204Y-13478D01*
X50596Y-13322D02*
X50204Y-13322D01*
G54D10*
X50150Y-13239D02*
X50150Y-13561D01*
X50650Y-13239D02*
X50650Y-13561D01*
G54D12*
X50013Y-12624D02*
X50013Y-14176D01*
X50013Y-14176D02*
X50787Y-14176D01*
X50787Y-14176D02*
X50787Y-12624D01*
X50787Y-12624D02*
X50013Y-12624D01*
G54D11*
X58429Y-20885D02*
X58134Y-20885D01*
X58134Y-20885D02*
X58134Y-20315D01*
X58429Y-20315D02*
X58134Y-20315D01*
X58429Y-20885D02*
X58429Y-20315D01*
X57860Y-20885D02*
X57565Y-20885D01*
X57565Y-20885D02*
X57565Y-20315D01*
X57860Y-20315D02*
X57565Y-20315D01*
X57860Y-20885D02*
X57860Y-20315D01*
X58039Y-20757D02*
X57961Y-20757D01*
X57961Y-20757D02*
X57961Y-20443D01*
X58039Y-20443D02*
X57961Y-20443D01*
X58039Y-20757D02*
X58039Y-20443D01*
G54D12*
X58776Y-20213D02*
X57224Y-20213D01*
X57224Y-20987D02*
X58776Y-20987D01*
X58776Y-20987D02*
X58776Y-20213D01*
G54D13*
X58150Y-20341D02*
X57850Y-20341D01*
X58140Y-20859D02*
X57850Y-20859D01*
G54D12*
X57224Y-20213D02*
X57224Y-20987D01*
G54D11*
X51271Y-15415D02*
X51566Y-15415D01*
X51566Y-15415D02*
X51566Y-15985D01*
X51271Y-15985D02*
X51566Y-15985D01*
X51271Y-15415D02*
X51271Y-15985D01*
X51840Y-15415D02*
X52135Y-15415D01*
X52135Y-15415D02*
X52135Y-15985D01*
X51840Y-15985D02*
X52135Y-15985D01*
X51840Y-15415D02*
X51840Y-15985D01*
X51661Y-15543D02*
X51739Y-15543D01*
X51739Y-15543D02*
X51739Y-15857D01*
X51661Y-15857D02*
X51739Y-15857D01*
X51661Y-15543D02*
X51661Y-15857D01*
G54D12*
X50924Y-16087D02*
X52476Y-16087D01*
X52476Y-15313D02*
X50924Y-15313D01*
X50924Y-15313D02*
X50924Y-16087D01*
G54D13*
X51550Y-15959D02*
X51850Y-15959D01*
X51560Y-15441D02*
X51850Y-15441D01*
G54D12*
X52476Y-16087D02*
X52476Y-15313D01*
G54D11*
X58335Y-16130D02*
X58335Y-16426D01*
X58335Y-16426D02*
X57666Y-16426D01*
X57666Y-16130D02*
X57666Y-16426D01*
X58335Y-16130D02*
X57666Y-16130D01*
X58334Y-17174D02*
X58334Y-17470D01*
X58334Y-17470D02*
X57665Y-17470D01*
X57665Y-17174D02*
X57665Y-17470D01*
X58334Y-17174D02*
X57665Y-17174D01*
X58157Y-16722D02*
X58157Y-16878D01*
X58157Y-16878D02*
X57843Y-16878D01*
X57843Y-16722D02*
X57843Y-16878D01*
X58157Y-16722D02*
X57843Y-16722D01*
G54D12*
X57613Y-15827D02*
X57613Y-17773D01*
X58387Y-17773D02*
X58387Y-15827D01*
X58387Y-15827D02*
X57613Y-15827D01*
X57613Y-17773D02*
X58387Y-17773D01*
G54D13*
X57691Y-16421D02*
X57691Y-17179D01*
X58309Y-16421D02*
X58309Y-17179D01*
G54D11*
X58670Y-19935D02*
X58374Y-19935D01*
X58374Y-19935D02*
X58374Y-19266D01*
X58670Y-19266D02*
X58374Y-19266D01*
X58670Y-19935D02*
X58670Y-19266D01*
X57626Y-19934D02*
X57330Y-19934D01*
X57330Y-19934D02*
X57330Y-19265D01*
X57626Y-19265D02*
X57330Y-19265D01*
X57626Y-19934D02*
X57626Y-19265D01*
X58078Y-19757D02*
X57922Y-19757D01*
X57922Y-19757D02*
X57922Y-19443D01*
X58078Y-19443D02*
X57922Y-19443D01*
X58078Y-19757D02*
X58078Y-19443D01*
G54D12*
X58973Y-19213D02*
X57027Y-19213D01*
X57027Y-19987D02*
X58973Y-19987D01*
X58973Y-19987D02*
X58973Y-19213D01*
X57027Y-19213D02*
X57027Y-19987D01*
G54D13*
X58379Y-19291D02*
X57621Y-19291D01*
X58379Y-19909D02*
X57621Y-19909D01*
G54D11*
X51030Y-16365D02*
X51326Y-16365D01*
X51326Y-16365D02*
X51326Y-17034D01*
X51030Y-17034D02*
X51326Y-17034D01*
X51030Y-16365D02*
X51030Y-17034D01*
X52074Y-16366D02*
X52370Y-16366D01*
X52370Y-16366D02*
X52370Y-17035D01*
X52074Y-17035D02*
X52370Y-17035D01*
X52074Y-16366D02*
X52074Y-17035D01*
X51622Y-16543D02*
X51778Y-16543D01*
X51778Y-16543D02*
X51778Y-16857D01*
X51622Y-16857D02*
X51778Y-16857D01*
X51622Y-16543D02*
X51622Y-16857D01*
G54D12*
X50727Y-17087D02*
X52673Y-17087D01*
X52673Y-16313D02*
X50727Y-16313D01*
X50727Y-16313D02*
X50727Y-17087D01*
X52673Y-17087D02*
X52673Y-16313D01*
G54D13*
X51321Y-17009D02*
X52079Y-17009D01*
X51321Y-16391D02*
X52079Y-16391D01*
G54D14*
X61483Y-12402D02*
X61650Y-12164D01*
X61769Y-12402D02*
X61769Y-11902D01*
X61578Y-11902D01*
X61531Y-11926D01*
X61507Y-11950D01*
X61483Y-11998D01*
X61483Y-12069D01*
X61507Y-12117D01*
X61531Y-12140D01*
X61578Y-12164D01*
X61769Y-12164D01*
X61245Y-12402D02*
X61150Y-12402D01*
X61102Y-12379D01*
X61078Y-12355D01*
X61031Y-12283D01*
X61007Y-12188D01*
X61007Y-11998D01*
X61031Y-11950D01*
X61055Y-11926D01*
X61102Y-11902D01*
X61198Y-11902D01*
X61245Y-11926D01*
X61269Y-11950D01*
X61293Y-11998D01*
X61293Y-12117D01*
X61269Y-12164D01*
X61245Y-12188D01*
X61198Y-12212D01*
X61102Y-12212D01*
X61055Y-12188D01*
X61031Y-12164D01*
X61007Y-12117D01*
X63183Y-12402D02*
X63350Y-12164D01*
X63469Y-12402D02*
X63469Y-11902D01*
X63278Y-11902D01*
X63231Y-11926D01*
X63207Y-11950D01*
X63183Y-11998D01*
X63183Y-12069D01*
X63207Y-12117D01*
X63231Y-12140D01*
X63278Y-12164D01*
X63469Y-12164D01*
X62898Y-12117D02*
X62945Y-12093D01*
X62969Y-12069D01*
X62993Y-12021D01*
X62993Y-11998D01*
X62969Y-11950D01*
X62945Y-11926D01*
X62898Y-11902D01*
X62802Y-11902D01*
X62755Y-11926D01*
X62731Y-11950D01*
X62707Y-11998D01*
X62707Y-12021D01*
X62731Y-12069D01*
X62755Y-12093D01*
X62802Y-12117D01*
X62898Y-12117D01*
X62945Y-12140D01*
X62969Y-12164D01*
X62993Y-12212D01*
X62993Y-12307D01*
X62969Y-12355D01*
X62945Y-12379D01*
X62898Y-12402D01*
X62802Y-12402D01*
X62755Y-12379D01*
X62731Y-12355D01*
X62707Y-12307D01*
X62707Y-12212D01*
X62731Y-12164D01*
X62755Y-12140D01*
X62802Y-12117D01*
X64083Y-12402D02*
X64250Y-12164D01*
X64369Y-12402D02*
X64369Y-11902D01*
X64178Y-11902D01*
X64131Y-11926D01*
X64107Y-11950D01*
X64083Y-11998D01*
X64083Y-12069D01*
X64107Y-12117D01*
X64131Y-12140D01*
X64178Y-12164D01*
X64369Y-12164D01*
X63917Y-11902D02*
X63583Y-11902D01*
X63798Y-12402D01*
X65783Y-12402D02*
X65950Y-12164D01*
X66069Y-12402D02*
X66069Y-11902D01*
X65878Y-11902D01*
X65831Y-11926D01*
X65807Y-11950D01*
X65783Y-11998D01*
X65783Y-12069D01*
X65807Y-12117D01*
X65831Y-12140D01*
X65878Y-12164D01*
X66069Y-12164D01*
X65355Y-11902D02*
X65450Y-11902D01*
X65498Y-11926D01*
X65521Y-11950D01*
X65569Y-12021D01*
X65593Y-12117D01*
X65593Y-12307D01*
X65569Y-12355D01*
X65545Y-12379D01*
X65498Y-12402D01*
X65402Y-12402D01*
X65355Y-12379D01*
X65331Y-12355D01*
X65307Y-12307D01*
X65307Y-12188D01*
X65331Y-12140D01*
X65355Y-12117D01*
X65402Y-12093D01*
X65498Y-12093D01*
X65545Y-12117D01*
X65569Y-12140D01*
X65593Y-12188D01*
X58483Y-14802D02*
X58650Y-14564D01*
X58769Y-14802D02*
X58769Y-14302D01*
X58578Y-14302D01*
X58531Y-14326D01*
X58507Y-14350D01*
X58483Y-14398D01*
X58483Y-14469D01*
X58507Y-14517D01*
X58531Y-14540D01*
X58578Y-14564D01*
X58769Y-14564D01*
X58031Y-14302D02*
X58269Y-14302D01*
X58293Y-14540D01*
X58269Y-14517D01*
X58221Y-14493D01*
X58102Y-14493D01*
X58055Y-14517D01*
X58031Y-14540D01*
X58007Y-14588D01*
X58007Y-14707D01*
X58031Y-14755D01*
X58055Y-14779D01*
X58102Y-14802D01*
X58221Y-14802D01*
X58269Y-14779D01*
X58293Y-14755D01*
X57583Y-14802D02*
X57750Y-14564D01*
X57869Y-14802D02*
X57869Y-14302D01*
X57678Y-14302D01*
X57631Y-14326D01*
X57607Y-14350D01*
X57583Y-14398D01*
X57583Y-14469D01*
X57607Y-14517D01*
X57631Y-14540D01*
X57678Y-14564D01*
X57869Y-14564D01*
X57155Y-14469D02*
X57155Y-14802D01*
X57274Y-14279D02*
X57393Y-14636D01*
X57083Y-14636D01*
X53083Y-14802D02*
X53250Y-14564D01*
X53369Y-14802D02*
X53369Y-14302D01*
X53178Y-14302D01*
X53131Y-14326D01*
X53107Y-14350D01*
X53083Y-14398D01*
X53083Y-14469D01*
X53107Y-14517D01*
X53131Y-14540D01*
X53178Y-14564D01*
X53369Y-14564D01*
X52917Y-14302D02*
X52607Y-14302D01*
X52774Y-14493D01*
X52702Y-14493D01*
X52655Y-14517D01*
X52631Y-14540D01*
X52607Y-14588D01*
X52607Y-14707D01*
X52631Y-14755D01*
X52655Y-14779D01*
X52702Y-14802D01*
X52845Y-14802D01*
X52893Y-14779D01*
X52917Y-14755D01*
X52183Y-12402D02*
X52350Y-12164D01*
X52469Y-12402D02*
X52469Y-11902D01*
X52278Y-11902D01*
X52231Y-11926D01*
X52207Y-11950D01*
X52183Y-11998D01*
X52183Y-12069D01*
X52207Y-12117D01*
X52231Y-12140D01*
X52278Y-12164D01*
X52469Y-12164D01*
X51993Y-11950D02*
X51969Y-11926D01*
X51921Y-11902D01*
X51802Y-11902D01*
X51755Y-11926D01*
X51731Y-11950D01*
X51707Y-11998D01*
X51707Y-12045D01*
X51731Y-12117D01*
X52017Y-12402D01*
X51707Y-12402D01*
X53083Y-17902D02*
X53250Y-17664D01*
X53369Y-17902D02*
X53369Y-17402D01*
X53178Y-17402D01*
X53131Y-17426D01*
X53107Y-17450D01*
X53083Y-17498D01*
X53083Y-17569D01*
X53107Y-17617D01*
X53131Y-17640D01*
X53178Y-17664D01*
X53369Y-17664D01*
X52607Y-17902D02*
X52893Y-17902D01*
X52750Y-17902D02*
X52750Y-17402D01*
X52798Y-17474D01*
X52845Y-17521D01*
X52893Y-17545D01*
X50602Y-14628D02*
X50364Y-14461D01*
X50602Y-14342D02*
X50102Y-14342D01*
X50102Y-14533D01*
X50126Y-14580D01*
X50150Y-14604D01*
X50198Y-14628D01*
X50269Y-14628D01*
X50317Y-14604D01*
X50340Y-14580D01*
X50364Y-14533D01*
X50364Y-14342D01*
X50602Y-15104D02*
X50602Y-14818D01*
X50602Y-14961D02*
X50102Y-14961D01*
X50174Y-14913D01*
X50221Y-14866D01*
X50245Y-14818D01*
X50102Y-15413D02*
X50102Y-15461D01*
X50126Y-15509D01*
X50150Y-15532D01*
X50198Y-15556D01*
X50293Y-15580D01*
X50412Y-15580D01*
X50507Y-15556D01*
X50555Y-15532D01*
X50579Y-15509D01*
X50602Y-15461D01*
X50602Y-15413D01*
X50579Y-15366D01*
X50555Y-15342D01*
X50507Y-15318D01*
X50412Y-15294D01*
X50293Y-15294D01*
X50198Y-15318D01*
X50150Y-15342D01*
X50126Y-15366D01*
X50102Y-15413D01*
X56683Y-20655D02*
X56707Y-20679D01*
X56778Y-20702D01*
X56826Y-20702D01*
X56898Y-20679D01*
X56945Y-20631D01*
X56969Y-20583D01*
X56993Y-20488D01*
X56993Y-20417D01*
X56969Y-20321D01*
X56945Y-20274D01*
X56898Y-20226D01*
X56826Y-20202D01*
X56778Y-20202D01*
X56707Y-20226D01*
X56683Y-20250D01*
X56517Y-20202D02*
X56207Y-20202D01*
X56374Y-20393D01*
X56302Y-20393D01*
X56255Y-20417D01*
X56231Y-20440D01*
X56207Y-20488D01*
X56207Y-20607D01*
X56231Y-20655D01*
X56255Y-20679D01*
X56302Y-20702D01*
X56445Y-20702D01*
X56493Y-20679D01*
X56517Y-20655D01*
X53083Y-15855D02*
X53107Y-15879D01*
X53178Y-15902D01*
X53226Y-15902D01*
X53298Y-15879D01*
X53345Y-15831D01*
X53369Y-15783D01*
X53393Y-15688D01*
X53393Y-15617D01*
X53369Y-15521D01*
X53345Y-15474D01*
X53298Y-15426D01*
X53226Y-15402D01*
X53178Y-15402D01*
X53107Y-15426D01*
X53083Y-15450D01*
X52607Y-15902D02*
X52893Y-15902D01*
X52750Y-15902D02*
X52750Y-15402D01*
X52798Y-15474D01*
X52845Y-15521D01*
X52893Y-15545D01*
X58106Y-15443D02*
X58130Y-15467D01*
X58201Y-15490D01*
X58249Y-15490D01*
X58321Y-15467D01*
X58368Y-15419D01*
X58392Y-15371D01*
X58416Y-15276D01*
X58416Y-15205D01*
X58392Y-15109D01*
X58368Y-15062D01*
X58321Y-15014D01*
X58249Y-14990D01*
X58201Y-14990D01*
X58130Y-15014D01*
X58106Y-15038D01*
X57678Y-14990D02*
X57773Y-14990D01*
X57821Y-15014D01*
X57844Y-15038D01*
X57892Y-15109D01*
X57916Y-15205D01*
X57916Y-15395D01*
X57892Y-15443D01*
X57868Y-15467D01*
X57821Y-15490D01*
X57725Y-15490D01*
X57678Y-15467D01*
X57654Y-15443D01*
X57630Y-15395D01*
X57630Y-15276D01*
X57654Y-15228D01*
X57678Y-15205D01*
X57725Y-15181D01*
X57821Y-15181D01*
X57868Y-15205D01*
X57892Y-15228D01*
X57916Y-15276D01*
X56583Y-19755D02*
X56607Y-19779D01*
X56678Y-19802D01*
X56726Y-19802D01*
X56798Y-19779D01*
X56845Y-19731D01*
X56869Y-19683D01*
X56893Y-19588D01*
X56893Y-19517D01*
X56869Y-19421D01*
X56845Y-19374D01*
X56798Y-19326D01*
X56726Y-19302D01*
X56678Y-19302D01*
X56607Y-19326D01*
X56583Y-19350D01*
X56155Y-19469D02*
X56155Y-19802D01*
X56274Y-19279D02*
X56393Y-19636D01*
X56083Y-19636D01*
X53283Y-16855D02*
X53307Y-16879D01*
X53378Y-16902D01*
X53426Y-16902D01*
X53498Y-16879D01*
X53545Y-16831D01*
X53569Y-16783D01*
X53593Y-16688D01*
X53593Y-16617D01*
X53569Y-16521D01*
X53545Y-16474D01*
X53498Y-16426D01*
X53426Y-16402D01*
X53378Y-16402D01*
X53307Y-16426D01*
X53283Y-16450D01*
X53093Y-16450D02*
X53069Y-16426D01*
X53021Y-16402D01*
X52902Y-16402D01*
X52855Y-16426D01*
X52831Y-16450D01*
X52807Y-16498D01*
X52807Y-16545D01*
X52831Y-16617D01*
X53117Y-16902D01*
X52807Y-16902D01*
M02*
