M48
INCH,TZ
T1C0.025
T2C0.032
T3C0.039
T4C0.040
T5C0.050
T6C0.120
%
G05
T1
X13180Y-17134
X45750Y-20434
X49446Y-16832
X49927Y-21782
X49933Y-17666
X50198Y-12438
X50766Y-15282
X51271Y-13187
X51664Y-18273
X51743Y-15081
X52722Y-15255
X53194Y-14352
X53474Y-15777
X53541Y-17340
X53578Y-13450
X54100Y-18008
X54267Y-21069
X54278Y-18795
X54305Y-22661
X54314Y-20319
X54344Y-21555
X54349Y-22009
X54452Y-15696
X54502Y-12482
X55459Y-19967
X55750Y-22871
X55844Y-21312
X56000Y-17000
X56000Y-18700
X56111Y-20228
X56165Y-22115
X57766Y-18512
X58295Y-22089
X59777Y-17082
X59815Y-19200
X59864Y-21740
X60554Y-21223
X67191Y-19221
X72375Y-16608
X73347Y-19798
T2
X54800Y-13400
X55800Y-13400
T3
X15499Y-14500
X15499Y-16500
X15500Y-19000
X15500Y-21000
X20000Y-14500
X20000Y-16500
X20000Y-19000
X20000Y-21000
X24500Y-14500
X24500Y-16500
X24500Y-19000
X24500Y-21000
X29000Y-14500
X29000Y-16500
X29000Y-19000
X29000Y-21000
X33500Y-14500
X33500Y-16500
X33500Y-19000
X33500Y-21000
X38000Y-14500
X38000Y-16500
X38000Y-19000
X38000Y-21000
X42500Y-14500
X42500Y-16500
X42500Y-19000
X42500Y-21000
X47000Y-14500
X47000Y-16500
X47000Y-19000
X47000Y-21000
X69000Y-14500
X69000Y-16500
X69000Y-19000
X69000Y-21000
X73500Y-14500
X73500Y-16500
X73500Y-19000
X73500Y-21000
X78000Y-14500
X78000Y-16500
X78000Y-19000
X78000Y-21000
X82500Y-14500
X82500Y-16500
X82500Y-19000
X82500Y-21000
X87000Y-14500
X87000Y-16500
X87000Y-18900
X87000Y-20900
X91600Y-14500
X91600Y-16500
X91600Y-19000
X91600Y-21000
X96000Y-14500
X96000Y-16500
X96000Y-19000
X96000Y-21000
X100500Y-14500
X100500Y-16500
X100500Y-19000
X100500Y-21000
T4
X12000Y-15100
X12000Y-16100
X12000Y-17100
X12000Y-18100
X12000Y-19100
X12000Y-20100
X50700Y-20100
X50700Y-21100
X51300Y-12575
X51300Y-14325
X51700Y-20100
X51700Y-21100
X52700Y-20100
X52700Y-21100
X53850Y-12575
X53850Y-14325
X56700Y-12575
X56700Y-14325
X59250Y-12575
X59250Y-14325
X60800Y-16200
X60800Y-17200
X60800Y-18200
X60800Y-19200
X61800Y-16200
X61800Y-17200
X61800Y-18200
X61800Y-19200
X62300Y-12575
X62300Y-14325
X62800Y-16200
X62800Y-17200
X62800Y-18200
X62800Y-19200
X63800Y-16200
X63800Y-17200
X63800Y-18200
X63800Y-19200
X64800Y-16200
X64800Y-17200
X64800Y-18200
X64800Y-19200
X64850Y-12575
X64850Y-14325
X65800Y-16200
X65800Y-17200
X65800Y-18200
X65800Y-19200
X104000Y-15100
X104000Y-16100
X104000Y-17100
X104000Y-18100
X104000Y-19100
X104000Y-20100
T5
X61100Y-21800
X65100Y-20800
X65100Y-22800
T6
X12500Y-13000
X12500Y-22500
X44500Y-13000
X44500Y-22500
X71500Y-13000
X71500Y-22500
X103500Y-13000
X103500Y-22500
T0
M30
