G04 (created by PCBNEW (2010-04-21 BZR 23xx)-stable) date Tue 15 Mar 2011 06:31:42 AM CET*
G01*
G70*
G90*
%MOIN*%
G04 Gerber Fmt 3.4, Leading zero omitted, Abs format*
%FSLAX34Y34*%
G04 APERTURE LIST*
%ADD10C,0.001000*%
%ADD11C,0.015000*%
%ADD12C,0.008000*%
G04 APERTURE END LIST*
G54D10*
G54D11*
X08000Y-11500D02*
X108000Y-11500D01*
X08000Y-24000D02*
X08000Y-11500D01*
X09000Y-24000D02*
X08000Y-24000D01*
X108000Y-24000D02*
X107000Y-24000D01*
X108000Y-11500D02*
X108000Y-24000D01*
X107000Y-24000D02*
X09000Y-24000D01*
G54D10*
X26976Y-16910D02*
X27226Y-17160D01*
X27226Y-16910D02*
X26976Y-17160D01*
X29273Y-22559D02*
X29523Y-22809D01*
X29523Y-22559D02*
X29273Y-22809D01*
X46976Y-14630D02*
X47226Y-14880D01*
X47226Y-14630D02*
X46976Y-14880D01*
X47470Y-17803D02*
X47720Y-18053D01*
X47720Y-17803D02*
X47470Y-18053D01*
X47546Y-22840D02*
X47796Y-23090D01*
X47796Y-22840D02*
X47546Y-23090D01*
X49221Y-15822D02*
X49471Y-16072D01*
X49471Y-15822D02*
X49221Y-16072D01*
X50118Y-12302D02*
X50368Y-12552D01*
X50368Y-12302D02*
X50118Y-12552D01*
X54392Y-20416D02*
X54642Y-20666D01*
X54642Y-20416D02*
X54392Y-20666D01*
X57259Y-20373D02*
X57509Y-20623D01*
X57509Y-20373D02*
X57259Y-20623D01*
X58346Y-22579D02*
X58596Y-22829D01*
X58596Y-22579D02*
X58346Y-22829D01*
X58455Y-20108D02*
X58705Y-20358D01*
X58705Y-20108D02*
X58455Y-20358D01*
X58567Y-19615D02*
X58817Y-19865D01*
X58817Y-19615D02*
X58567Y-19865D01*
X60391Y-21855D02*
X60641Y-22105D01*
X60641Y-21855D02*
X60391Y-22105D01*
X61050Y-18517D02*
X61300Y-18767D01*
X61300Y-18517D02*
X61050Y-18767D01*
X61505Y-18463D02*
X61755Y-18713D01*
X61755Y-18463D02*
X61505Y-18713D01*
X62210Y-18187D02*
X62460Y-18437D01*
X62460Y-18187D02*
X62210Y-18437D01*
X62740Y-22260D02*
X62990Y-22510D01*
X62990Y-22260D02*
X62740Y-22510D01*
X63474Y-20993D02*
X63724Y-21243D01*
X63724Y-20993D02*
X63474Y-21243D01*
X63786Y-16503D02*
X64036Y-16753D01*
X64036Y-16503D02*
X63786Y-16753D01*
X64070Y-19512D02*
X64320Y-19762D01*
X64320Y-19512D02*
X64070Y-19762D01*
X64110Y-16967D02*
X64360Y-17217D01*
X64360Y-16967D02*
X64110Y-17217D01*
X65451Y-22082D02*
X65701Y-22332D01*
X65701Y-22082D02*
X65451Y-22332D01*
X66038Y-17371D02*
X66288Y-17621D01*
X66288Y-17371D02*
X66038Y-17621D01*
X66603Y-15032D02*
X66853Y-15282D01*
X66853Y-15032D02*
X66603Y-15282D01*
X66733Y-17216D02*
X66983Y-17466D01*
X66983Y-17216D02*
X66733Y-17466D01*
X67821Y-17131D02*
X68071Y-17381D01*
X68071Y-17131D02*
X67821Y-17381D01*
X67825Y-19085D02*
X68075Y-19335D01*
X68075Y-19085D02*
X67825Y-19335D01*
X68349Y-15212D02*
X68599Y-15462D01*
X68599Y-15212D02*
X68349Y-15462D01*
X69544Y-20139D02*
X69794Y-20389D01*
X69794Y-20139D02*
X69544Y-20389D01*
X69748Y-14007D02*
X69998Y-14257D01*
X69998Y-14007D02*
X69748Y-14257D01*
X71045Y-23111D02*
X71295Y-23361D01*
X71295Y-23111D02*
X71045Y-23361D01*
X72625Y-22806D02*
X72875Y-23056D01*
X72875Y-22806D02*
X72625Y-23056D01*
X73871Y-19547D02*
X74121Y-19797D01*
X74121Y-19547D02*
X73871Y-19797D01*
X105175Y-18787D02*
X105425Y-19037D01*
X105425Y-18787D02*
X105175Y-19037D01*
X55445Y-16021D02*
X55441Y-16052D01*
X55432Y-16081D01*
X55418Y-16109D01*
X55398Y-16133D01*
X55374Y-16153D01*
X55347Y-16168D01*
X55317Y-16177D01*
X55286Y-16180D01*
X55256Y-16178D01*
X55226Y-16169D01*
X55198Y-16154D01*
X55174Y-16135D01*
X55153Y-16111D01*
X55138Y-16084D01*
X55129Y-16054D01*
X55126Y-16023D01*
X55128Y-15993D01*
X55137Y-15963D01*
X55151Y-15935D01*
X55170Y-15910D01*
X55194Y-15890D01*
X55221Y-15875D01*
X55251Y-15865D01*
X55282Y-15862D01*
X55312Y-15864D01*
X55342Y-15872D01*
X55370Y-15886D01*
X55395Y-15906D01*
X55415Y-15929D01*
X55431Y-15956D01*
X55441Y-15986D01*
X55444Y-16017D01*
X55445Y-16021D01*
X55445Y-17021D02*
X55441Y-17052D01*
X55432Y-17081D01*
X55418Y-17109D01*
X55398Y-17133D01*
X55374Y-17153D01*
X55347Y-17168D01*
X55317Y-17177D01*
X55286Y-17180D01*
X55256Y-17178D01*
X55226Y-17169D01*
X55198Y-17154D01*
X55174Y-17135D01*
X55153Y-17111D01*
X55138Y-17084D01*
X55129Y-17054D01*
X55126Y-17023D01*
X55128Y-16993D01*
X55137Y-16963D01*
X55151Y-16935D01*
X55170Y-16910D01*
X55194Y-16890D01*
X55221Y-16875D01*
X55251Y-16865D01*
X55282Y-16862D01*
X55312Y-16864D01*
X55342Y-16872D01*
X55370Y-16886D01*
X55395Y-16906D01*
X55415Y-16929D01*
X55431Y-16956D01*
X55441Y-16986D01*
X55444Y-17017D01*
X55445Y-17021D01*
X65676Y-20800D02*
X65672Y-20831D01*
X65663Y-20860D01*
X65649Y-20888D01*
X65629Y-20912D01*
X65605Y-20932D01*
X65578Y-20947D01*
X65548Y-20956D01*
X65517Y-20959D01*
X65487Y-20957D01*
X65457Y-20948D01*
X65429Y-20933D01*
X65405Y-20914D01*
X65384Y-20890D01*
X65369Y-20863D01*
X65360Y-20833D01*
X65357Y-20802D01*
X65359Y-20772D01*
X65368Y-20742D01*
X65382Y-20714D01*
X65401Y-20689D01*
X65425Y-20669D01*
X65452Y-20654D01*
X65482Y-20644D01*
X65513Y-20641D01*
X65543Y-20643D01*
X65573Y-20651D01*
X65601Y-20665D01*
X65626Y-20685D01*
X65646Y-20708D01*
X65662Y-20735D01*
X65672Y-20765D01*
X65675Y-20796D01*
X65676Y-20800D01*
X66660Y-20800D02*
X66656Y-20831D01*
X66647Y-20860D01*
X66633Y-20888D01*
X66613Y-20912D01*
X66589Y-20932D01*
X66562Y-20947D01*
X66532Y-20956D01*
X66501Y-20959D01*
X66471Y-20957D01*
X66441Y-20948D01*
X66413Y-20933D01*
X66389Y-20914D01*
X66368Y-20890D01*
X66353Y-20863D01*
X66344Y-20833D01*
X66341Y-20802D01*
X66343Y-20772D01*
X66352Y-20742D01*
X66366Y-20714D01*
X66385Y-20689D01*
X66409Y-20669D01*
X66436Y-20654D01*
X66466Y-20644D01*
X66497Y-20641D01*
X66527Y-20643D01*
X66557Y-20651D01*
X66585Y-20665D01*
X66610Y-20685D01*
X66630Y-20708D01*
X66646Y-20735D01*
X66656Y-20765D01*
X66659Y-20796D01*
X66660Y-20800D01*
X67644Y-20800D02*
X67640Y-20831D01*
X67631Y-20860D01*
X67617Y-20888D01*
X67597Y-20912D01*
X67573Y-20932D01*
X67546Y-20947D01*
X67516Y-20956D01*
X67485Y-20959D01*
X67455Y-20957D01*
X67425Y-20948D01*
X67397Y-20933D01*
X67373Y-20914D01*
X67352Y-20890D01*
X67337Y-20863D01*
X67328Y-20833D01*
X67325Y-20802D01*
X67327Y-20772D01*
X67336Y-20742D01*
X67350Y-20714D01*
X67369Y-20689D01*
X67393Y-20669D01*
X67420Y-20654D01*
X67450Y-20644D01*
X67481Y-20641D01*
X67511Y-20643D01*
X67541Y-20651D01*
X67569Y-20665D01*
X67594Y-20685D01*
X67614Y-20708D01*
X67630Y-20735D01*
X67640Y-20765D01*
X67643Y-20796D01*
X67644Y-20800D01*
X12500Y-14303D02*
X12500Y-14697D01*
X12697Y-14500D02*
X12303Y-14500D01*
X12500Y-16303D02*
X12500Y-16697D01*
X12697Y-16500D02*
X12303Y-16500D01*
X12500Y-18803D02*
X12500Y-19197D01*
X12697Y-19000D02*
X12303Y-19000D01*
X12500Y-20803D02*
X12500Y-21197D01*
X12697Y-21000D02*
X12303Y-21000D01*
X17000Y-14303D02*
X17000Y-14697D01*
X17197Y-14500D02*
X16803Y-14500D01*
X17000Y-16303D02*
X17000Y-16697D01*
X17197Y-16500D02*
X16803Y-16500D01*
X17000Y-18803D02*
X17000Y-19197D01*
X17197Y-19000D02*
X16803Y-19000D01*
X17000Y-20803D02*
X17000Y-21197D01*
X17197Y-21000D02*
X16803Y-21000D01*
X21500Y-14303D02*
X21500Y-14697D01*
X21697Y-14500D02*
X21303Y-14500D01*
X21500Y-16303D02*
X21500Y-16697D01*
X21697Y-16500D02*
X21303Y-16500D01*
X21500Y-18803D02*
X21500Y-19197D01*
X21697Y-19000D02*
X21303Y-19000D01*
X21500Y-20803D02*
X21500Y-21197D01*
X21697Y-21000D02*
X21303Y-21000D01*
X26000Y-14303D02*
X26000Y-14697D01*
X26197Y-14500D02*
X25803Y-14500D01*
X26000Y-16303D02*
X26000Y-16697D01*
X26197Y-16500D02*
X25803Y-16500D01*
X26000Y-18803D02*
X26000Y-19197D01*
X26197Y-19000D02*
X25803Y-19000D01*
X26000Y-20803D02*
X26000Y-21197D01*
X26197Y-21000D02*
X25803Y-21000D01*
X30500Y-14303D02*
X30500Y-14697D01*
X30697Y-14500D02*
X30303Y-14500D01*
X30500Y-16303D02*
X30500Y-16697D01*
X30697Y-16500D02*
X30303Y-16500D01*
X30500Y-18803D02*
X30500Y-19197D01*
X30697Y-19000D02*
X30303Y-19000D01*
X30500Y-20803D02*
X30500Y-21197D01*
X30697Y-21000D02*
X30303Y-21000D01*
X35000Y-14303D02*
X35000Y-14697D01*
X35197Y-14500D02*
X34803Y-14500D01*
X35000Y-16303D02*
X35000Y-16697D01*
X35197Y-16500D02*
X34803Y-16500D01*
X35000Y-18803D02*
X35000Y-19197D01*
X35197Y-19000D02*
X34803Y-19000D01*
X35000Y-20803D02*
X35000Y-21197D01*
X35197Y-21000D02*
X34803Y-21000D01*
X39500Y-14303D02*
X39500Y-14697D01*
X39697Y-14500D02*
X39303Y-14500D01*
X39500Y-16303D02*
X39500Y-16697D01*
X39697Y-16500D02*
X39303Y-16500D01*
X39500Y-18803D02*
X39500Y-19197D01*
X39697Y-19000D02*
X39303Y-19000D01*
X39500Y-20803D02*
X39500Y-21197D01*
X39697Y-21000D02*
X39303Y-21000D01*
X44000Y-14303D02*
X44000Y-14697D01*
X44197Y-14500D02*
X43803Y-14500D01*
X44000Y-16303D02*
X44000Y-16697D01*
X44197Y-16500D02*
X43803Y-16500D01*
X44000Y-18803D02*
X44000Y-19197D01*
X44197Y-19000D02*
X43803Y-19000D01*
X44000Y-20803D02*
X44000Y-21197D01*
X44197Y-21000D02*
X43803Y-21000D01*
X72000Y-14303D02*
X72000Y-14697D01*
X72197Y-14500D02*
X71803Y-14500D01*
X72000Y-16303D02*
X72000Y-16697D01*
X72197Y-16500D02*
X71803Y-16500D01*
X72000Y-18803D02*
X72000Y-19197D01*
X72197Y-19000D02*
X71803Y-19000D01*
X72000Y-20803D02*
X72000Y-21197D01*
X72197Y-21000D02*
X71803Y-21000D01*
X76500Y-14303D02*
X76500Y-14697D01*
X76697Y-14500D02*
X76303Y-14500D01*
X76500Y-16303D02*
X76500Y-16697D01*
X76697Y-16500D02*
X76303Y-16500D01*
X76500Y-18803D02*
X76500Y-19197D01*
X76697Y-19000D02*
X76303Y-19000D01*
X76500Y-20803D02*
X76500Y-21197D01*
X76697Y-21000D02*
X76303Y-21000D01*
X81000Y-14303D02*
X81000Y-14697D01*
X81197Y-14500D02*
X80803Y-14500D01*
X81000Y-16303D02*
X81000Y-16697D01*
X81197Y-16500D02*
X80803Y-16500D01*
X81000Y-18803D02*
X81000Y-19197D01*
X81197Y-19000D02*
X80803Y-19000D01*
X81000Y-20803D02*
X81000Y-21197D01*
X81197Y-21000D02*
X80803Y-21000D01*
X85500Y-14303D02*
X85500Y-14697D01*
X85697Y-14500D02*
X85303Y-14500D01*
X85500Y-16303D02*
X85500Y-16697D01*
X85697Y-16500D02*
X85303Y-16500D01*
X85500Y-18803D02*
X85500Y-19197D01*
X85697Y-19000D02*
X85303Y-19000D01*
X85500Y-20803D02*
X85500Y-21197D01*
X85697Y-21000D02*
X85303Y-21000D01*
X90000Y-14303D02*
X90000Y-14697D01*
X90197Y-14500D02*
X89803Y-14500D01*
X90000Y-16303D02*
X90000Y-16697D01*
X90197Y-16500D02*
X89803Y-16500D01*
X90000Y-18803D02*
X90000Y-19197D01*
X90197Y-19000D02*
X89803Y-19000D01*
X90000Y-20803D02*
X90000Y-21197D01*
X90197Y-21000D02*
X89803Y-21000D01*
X94500Y-14303D02*
X94500Y-14697D01*
X94697Y-14500D02*
X94303Y-14500D01*
X94500Y-16303D02*
X94500Y-16697D01*
X94697Y-16500D02*
X94303Y-16500D01*
X94500Y-18803D02*
X94500Y-19197D01*
X94697Y-19000D02*
X94303Y-19000D01*
X94500Y-20803D02*
X94500Y-21197D01*
X94697Y-21000D02*
X94303Y-21000D01*
X99000Y-14303D02*
X99000Y-14697D01*
X99197Y-14500D02*
X98803Y-14500D01*
X99000Y-16303D02*
X99000Y-16697D01*
X99197Y-16500D02*
X98803Y-16500D01*
X99000Y-18803D02*
X99000Y-19197D01*
X99197Y-19000D02*
X98803Y-19000D01*
X99000Y-20803D02*
X99000Y-21197D01*
X99197Y-21000D02*
X98803Y-21000D01*
X103500Y-14303D02*
X103500Y-14697D01*
X103697Y-14500D02*
X103303Y-14500D01*
X103500Y-16303D02*
X103500Y-16697D01*
X103697Y-16500D02*
X103303Y-16500D01*
X103500Y-18803D02*
X103500Y-19197D01*
X103697Y-19000D02*
X103303Y-19000D01*
X103500Y-20803D02*
X103500Y-21197D01*
X103697Y-21000D02*
X103303Y-21000D01*
X09200Y-15500D02*
X09196Y-15538D01*
X09184Y-15576D01*
X09166Y-15610D01*
X09141Y-15640D01*
X09111Y-15665D01*
X09077Y-15684D01*
X09040Y-15695D01*
X09001Y-15699D01*
X08963Y-15696D01*
X08926Y-15685D01*
X08891Y-15667D01*
X08861Y-15642D01*
X08835Y-15612D01*
X08817Y-15578D01*
X08805Y-15541D01*
X08801Y-15502D01*
X08804Y-15464D01*
X08815Y-15427D01*
X08832Y-15392D01*
X08857Y-15362D01*
X08886Y-15336D01*
X08920Y-15317D01*
X08958Y-15305D01*
X08996Y-15301D01*
X09034Y-15304D01*
X09072Y-15314D01*
X09107Y-15332D01*
X09137Y-15356D01*
X09163Y-15385D01*
X09182Y-15419D01*
X09195Y-15456D01*
X09199Y-15495D01*
X09200Y-15500D01*
X08800Y-15300D02*
X09200Y-15700D01*
X09200Y-15300D02*
X08800Y-15700D01*
X09200Y-16500D02*
X09196Y-16538D01*
X09184Y-16576D01*
X09166Y-16610D01*
X09141Y-16640D01*
X09111Y-16665D01*
X09077Y-16684D01*
X09040Y-16695D01*
X09001Y-16699D01*
X08963Y-16696D01*
X08926Y-16685D01*
X08891Y-16667D01*
X08861Y-16642D01*
X08835Y-16612D01*
X08817Y-16578D01*
X08805Y-16541D01*
X08801Y-16502D01*
X08804Y-16464D01*
X08815Y-16427D01*
X08832Y-16392D01*
X08857Y-16362D01*
X08886Y-16336D01*
X08920Y-16317D01*
X08958Y-16305D01*
X08996Y-16301D01*
X09034Y-16304D01*
X09072Y-16314D01*
X09107Y-16332D01*
X09137Y-16356D01*
X09163Y-16385D01*
X09182Y-16419D01*
X09195Y-16456D01*
X09199Y-16495D01*
X09200Y-16500D01*
X08800Y-16300D02*
X09200Y-16700D01*
X09200Y-16300D02*
X08800Y-16700D01*
X09200Y-17500D02*
X09196Y-17538D01*
X09184Y-17576D01*
X09166Y-17610D01*
X09141Y-17640D01*
X09111Y-17665D01*
X09077Y-17684D01*
X09040Y-17695D01*
X09001Y-17699D01*
X08963Y-17696D01*
X08926Y-17685D01*
X08891Y-17667D01*
X08861Y-17642D01*
X08835Y-17612D01*
X08817Y-17578D01*
X08805Y-17541D01*
X08801Y-17502D01*
X08804Y-17464D01*
X08815Y-17427D01*
X08832Y-17392D01*
X08857Y-17362D01*
X08886Y-17336D01*
X08920Y-17317D01*
X08958Y-17305D01*
X08996Y-17301D01*
X09034Y-17304D01*
X09072Y-17314D01*
X09107Y-17332D01*
X09137Y-17356D01*
X09163Y-17385D01*
X09182Y-17419D01*
X09195Y-17456D01*
X09199Y-17495D01*
X09200Y-17500D01*
X08800Y-17300D02*
X09200Y-17700D01*
X09200Y-17300D02*
X08800Y-17700D01*
X09200Y-18500D02*
X09196Y-18538D01*
X09184Y-18576D01*
X09166Y-18610D01*
X09141Y-18640D01*
X09111Y-18665D01*
X09077Y-18684D01*
X09040Y-18695D01*
X09001Y-18699D01*
X08963Y-18696D01*
X08926Y-18685D01*
X08891Y-18667D01*
X08861Y-18642D01*
X08835Y-18612D01*
X08817Y-18578D01*
X08805Y-18541D01*
X08801Y-18502D01*
X08804Y-18464D01*
X08815Y-18427D01*
X08832Y-18392D01*
X08857Y-18362D01*
X08886Y-18336D01*
X08920Y-18317D01*
X08958Y-18305D01*
X08996Y-18301D01*
X09034Y-18304D01*
X09072Y-18314D01*
X09107Y-18332D01*
X09137Y-18356D01*
X09163Y-18385D01*
X09182Y-18419D01*
X09195Y-18456D01*
X09199Y-18495D01*
X09200Y-18500D01*
X08800Y-18300D02*
X09200Y-18700D01*
X09200Y-18300D02*
X08800Y-18700D01*
X09200Y-19500D02*
X09196Y-19538D01*
X09184Y-19576D01*
X09166Y-19610D01*
X09141Y-19640D01*
X09111Y-19665D01*
X09077Y-19684D01*
X09040Y-19695D01*
X09001Y-19699D01*
X08963Y-19696D01*
X08926Y-19685D01*
X08891Y-19667D01*
X08861Y-19642D01*
X08835Y-19612D01*
X08817Y-19578D01*
X08805Y-19541D01*
X08801Y-19502D01*
X08804Y-19464D01*
X08815Y-19427D01*
X08832Y-19392D01*
X08857Y-19362D01*
X08886Y-19336D01*
X08920Y-19317D01*
X08958Y-19305D01*
X08996Y-19301D01*
X09034Y-19304D01*
X09072Y-19314D01*
X09107Y-19332D01*
X09137Y-19356D01*
X09163Y-19385D01*
X09182Y-19419D01*
X09195Y-19456D01*
X09199Y-19495D01*
X09200Y-19500D01*
X08800Y-19300D02*
X09200Y-19700D01*
X09200Y-19300D02*
X08800Y-19700D01*
X09200Y-20500D02*
X09196Y-20538D01*
X09184Y-20576D01*
X09166Y-20610D01*
X09141Y-20640D01*
X09111Y-20665D01*
X09077Y-20684D01*
X09040Y-20695D01*
X09001Y-20699D01*
X08963Y-20696D01*
X08926Y-20685D01*
X08891Y-20667D01*
X08861Y-20642D01*
X08835Y-20612D01*
X08817Y-20578D01*
X08805Y-20541D01*
X08801Y-20502D01*
X08804Y-20464D01*
X08815Y-20427D01*
X08832Y-20392D01*
X08857Y-20362D01*
X08886Y-20336D01*
X08920Y-20317D01*
X08958Y-20305D01*
X08996Y-20301D01*
X09034Y-20304D01*
X09072Y-20314D01*
X09107Y-20332D01*
X09137Y-20356D01*
X09163Y-20385D01*
X09182Y-20419D01*
X09195Y-20456D01*
X09199Y-20495D01*
X09200Y-20500D01*
X08800Y-20300D02*
X09200Y-20700D01*
X09200Y-20300D02*
X08800Y-20700D01*
X55900Y-12575D02*
X55896Y-12613D01*
X55884Y-12651D01*
X55866Y-12685D01*
X55841Y-12715D01*
X55811Y-12740D01*
X55777Y-12759D01*
X55740Y-12770D01*
X55701Y-12774D01*
X55663Y-12771D01*
X55626Y-12760D01*
X55591Y-12742D01*
X55561Y-12717D01*
X55535Y-12687D01*
X55517Y-12653D01*
X55505Y-12616D01*
X55501Y-12577D01*
X55504Y-12539D01*
X55515Y-12502D01*
X55532Y-12467D01*
X55557Y-12437D01*
X55586Y-12411D01*
X55620Y-12392D01*
X55658Y-12380D01*
X55696Y-12376D01*
X55734Y-12379D01*
X55772Y-12389D01*
X55807Y-12407D01*
X55837Y-12431D01*
X55863Y-12460D01*
X55882Y-12494D01*
X55895Y-12531D01*
X55899Y-12570D01*
X55900Y-12575D01*
X55500Y-12375D02*
X55900Y-12775D01*
X55900Y-12375D02*
X55500Y-12775D01*
X55900Y-14325D02*
X55896Y-14363D01*
X55884Y-14401D01*
X55866Y-14435D01*
X55841Y-14465D01*
X55811Y-14490D01*
X55777Y-14509D01*
X55740Y-14520D01*
X55701Y-14524D01*
X55663Y-14521D01*
X55626Y-14510D01*
X55591Y-14492D01*
X55561Y-14467D01*
X55535Y-14437D01*
X55517Y-14403D01*
X55505Y-14366D01*
X55501Y-14327D01*
X55504Y-14289D01*
X55515Y-14252D01*
X55532Y-14217D01*
X55557Y-14187D01*
X55586Y-14161D01*
X55620Y-14142D01*
X55658Y-14130D01*
X55696Y-14126D01*
X55734Y-14129D01*
X55772Y-14139D01*
X55807Y-14157D01*
X55837Y-14181D01*
X55863Y-14210D01*
X55882Y-14244D01*
X55895Y-14281D01*
X55899Y-14320D01*
X55900Y-14325D01*
X55500Y-14125D02*
X55900Y-14525D01*
X55900Y-14125D02*
X55500Y-14525D01*
X58450Y-12575D02*
X58446Y-12613D01*
X58434Y-12651D01*
X58416Y-12685D01*
X58391Y-12715D01*
X58361Y-12740D01*
X58327Y-12759D01*
X58290Y-12770D01*
X58251Y-12774D01*
X58213Y-12771D01*
X58176Y-12760D01*
X58141Y-12742D01*
X58111Y-12717D01*
X58085Y-12687D01*
X58067Y-12653D01*
X58055Y-12616D01*
X58051Y-12577D01*
X58054Y-12539D01*
X58065Y-12502D01*
X58082Y-12467D01*
X58107Y-12437D01*
X58136Y-12411D01*
X58170Y-12392D01*
X58208Y-12380D01*
X58246Y-12376D01*
X58284Y-12379D01*
X58322Y-12389D01*
X58357Y-12407D01*
X58387Y-12431D01*
X58413Y-12460D01*
X58432Y-12494D01*
X58445Y-12531D01*
X58449Y-12570D01*
X58450Y-12575D01*
X58050Y-12375D02*
X58450Y-12775D01*
X58450Y-12375D02*
X58050Y-12775D01*
X58450Y-14325D02*
X58446Y-14363D01*
X58434Y-14401D01*
X58416Y-14435D01*
X58391Y-14465D01*
X58361Y-14490D01*
X58327Y-14509D01*
X58290Y-14520D01*
X58251Y-14524D01*
X58213Y-14521D01*
X58176Y-14510D01*
X58141Y-14492D01*
X58111Y-14467D01*
X58085Y-14437D01*
X58067Y-14403D01*
X58055Y-14366D01*
X58051Y-14327D01*
X58054Y-14289D01*
X58065Y-14252D01*
X58082Y-14217D01*
X58107Y-14187D01*
X58136Y-14161D01*
X58170Y-14142D01*
X58208Y-14130D01*
X58246Y-14126D01*
X58284Y-14129D01*
X58322Y-14139D01*
X58357Y-14157D01*
X58387Y-14181D01*
X58413Y-14210D01*
X58432Y-14244D01*
X58445Y-14281D01*
X58449Y-14320D01*
X58450Y-14325D01*
X58050Y-14125D02*
X58450Y-14525D01*
X58450Y-14125D02*
X58050Y-14525D01*
X59400Y-12575D02*
X59396Y-12613D01*
X59384Y-12651D01*
X59366Y-12685D01*
X59341Y-12715D01*
X59311Y-12740D01*
X59277Y-12759D01*
X59240Y-12770D01*
X59201Y-12774D01*
X59163Y-12771D01*
X59126Y-12760D01*
X59091Y-12742D01*
X59061Y-12717D01*
X59035Y-12687D01*
X59017Y-12653D01*
X59005Y-12616D01*
X59001Y-12577D01*
X59004Y-12539D01*
X59015Y-12502D01*
X59032Y-12467D01*
X59057Y-12437D01*
X59086Y-12411D01*
X59120Y-12392D01*
X59158Y-12380D01*
X59196Y-12376D01*
X59234Y-12379D01*
X59272Y-12389D01*
X59307Y-12407D01*
X59337Y-12431D01*
X59363Y-12460D01*
X59382Y-12494D01*
X59395Y-12531D01*
X59399Y-12570D01*
X59400Y-12575D01*
X59000Y-12375D02*
X59400Y-12775D01*
X59400Y-12375D02*
X59000Y-12775D01*
X59400Y-14325D02*
X59396Y-14363D01*
X59384Y-14401D01*
X59366Y-14435D01*
X59341Y-14465D01*
X59311Y-14490D01*
X59277Y-14509D01*
X59240Y-14520D01*
X59201Y-14524D01*
X59163Y-14521D01*
X59126Y-14510D01*
X59091Y-14492D01*
X59061Y-14467D01*
X59035Y-14437D01*
X59017Y-14403D01*
X59005Y-14366D01*
X59001Y-14327D01*
X59004Y-14289D01*
X59015Y-14252D01*
X59032Y-14217D01*
X59057Y-14187D01*
X59086Y-14161D01*
X59120Y-14142D01*
X59158Y-14130D01*
X59196Y-14126D01*
X59234Y-14129D01*
X59272Y-14139D01*
X59307Y-14157D01*
X59337Y-14181D01*
X59363Y-14210D01*
X59382Y-14244D01*
X59395Y-14281D01*
X59399Y-14320D01*
X59400Y-14325D01*
X59000Y-14125D02*
X59400Y-14525D01*
X59400Y-14125D02*
X59000Y-14525D01*
X59700Y-16500D02*
X59696Y-16538D01*
X59684Y-16576D01*
X59666Y-16610D01*
X59641Y-16640D01*
X59611Y-16665D01*
X59577Y-16684D01*
X59540Y-16695D01*
X59501Y-16699D01*
X59463Y-16696D01*
X59426Y-16685D01*
X59391Y-16667D01*
X59361Y-16642D01*
X59335Y-16612D01*
X59317Y-16578D01*
X59305Y-16541D01*
X59301Y-16502D01*
X59304Y-16464D01*
X59315Y-16427D01*
X59332Y-16392D01*
X59357Y-16362D01*
X59386Y-16336D01*
X59420Y-16317D01*
X59458Y-16305D01*
X59496Y-16301D01*
X59534Y-16304D01*
X59572Y-16314D01*
X59607Y-16332D01*
X59637Y-16356D01*
X59663Y-16385D01*
X59682Y-16419D01*
X59695Y-16456D01*
X59699Y-16495D01*
X59700Y-16500D01*
X59300Y-16300D02*
X59700Y-16700D01*
X59700Y-16300D02*
X59300Y-16700D01*
X59700Y-17500D02*
X59696Y-17538D01*
X59684Y-17576D01*
X59666Y-17610D01*
X59641Y-17640D01*
X59611Y-17665D01*
X59577Y-17684D01*
X59540Y-17695D01*
X59501Y-17699D01*
X59463Y-17696D01*
X59426Y-17685D01*
X59391Y-17667D01*
X59361Y-17642D01*
X59335Y-17612D01*
X59317Y-17578D01*
X59305Y-17541D01*
X59301Y-17502D01*
X59304Y-17464D01*
X59315Y-17427D01*
X59332Y-17392D01*
X59357Y-17362D01*
X59386Y-17336D01*
X59420Y-17317D01*
X59458Y-17305D01*
X59496Y-17301D01*
X59534Y-17304D01*
X59572Y-17314D01*
X59607Y-17332D01*
X59637Y-17356D01*
X59663Y-17385D01*
X59682Y-17419D01*
X59695Y-17456D01*
X59699Y-17495D01*
X59700Y-17500D01*
X59300Y-17300D02*
X59700Y-17700D01*
X59700Y-17300D02*
X59300Y-17700D01*
X60700Y-16500D02*
X60696Y-16538D01*
X60684Y-16576D01*
X60666Y-16610D01*
X60641Y-16640D01*
X60611Y-16665D01*
X60577Y-16684D01*
X60540Y-16695D01*
X60501Y-16699D01*
X60463Y-16696D01*
X60426Y-16685D01*
X60391Y-16667D01*
X60361Y-16642D01*
X60335Y-16612D01*
X60317Y-16578D01*
X60305Y-16541D01*
X60301Y-16502D01*
X60304Y-16464D01*
X60315Y-16427D01*
X60332Y-16392D01*
X60357Y-16362D01*
X60386Y-16336D01*
X60420Y-16317D01*
X60458Y-16305D01*
X60496Y-16301D01*
X60534Y-16304D01*
X60572Y-16314D01*
X60607Y-16332D01*
X60637Y-16356D01*
X60663Y-16385D01*
X60682Y-16419D01*
X60695Y-16456D01*
X60699Y-16495D01*
X60700Y-16500D01*
X60300Y-16300D02*
X60700Y-16700D01*
X60700Y-16300D02*
X60300Y-16700D01*
X60700Y-17500D02*
X60696Y-17538D01*
X60684Y-17576D01*
X60666Y-17610D01*
X60641Y-17640D01*
X60611Y-17665D01*
X60577Y-17684D01*
X60540Y-17695D01*
X60501Y-17699D01*
X60463Y-17696D01*
X60426Y-17685D01*
X60391Y-17667D01*
X60361Y-17642D01*
X60335Y-17612D01*
X60317Y-17578D01*
X60305Y-17541D01*
X60301Y-17502D01*
X60304Y-17464D01*
X60315Y-17427D01*
X60332Y-17392D01*
X60357Y-17362D01*
X60386Y-17336D01*
X60420Y-17317D01*
X60458Y-17305D01*
X60496Y-17301D01*
X60534Y-17304D01*
X60572Y-17314D01*
X60607Y-17332D01*
X60637Y-17356D01*
X60663Y-17385D01*
X60682Y-17419D01*
X60695Y-17456D01*
X60699Y-17495D01*
X60700Y-17500D01*
X60300Y-17300D02*
X60700Y-17700D01*
X60700Y-17300D02*
X60300Y-17700D01*
X61700Y-16500D02*
X61696Y-16538D01*
X61684Y-16576D01*
X61666Y-16610D01*
X61641Y-16640D01*
X61611Y-16665D01*
X61577Y-16684D01*
X61540Y-16695D01*
X61501Y-16699D01*
X61463Y-16696D01*
X61426Y-16685D01*
X61391Y-16667D01*
X61361Y-16642D01*
X61335Y-16612D01*
X61317Y-16578D01*
X61305Y-16541D01*
X61301Y-16502D01*
X61304Y-16464D01*
X61315Y-16427D01*
X61332Y-16392D01*
X61357Y-16362D01*
X61386Y-16336D01*
X61420Y-16317D01*
X61458Y-16305D01*
X61496Y-16301D01*
X61534Y-16304D01*
X61572Y-16314D01*
X61607Y-16332D01*
X61637Y-16356D01*
X61663Y-16385D01*
X61682Y-16419D01*
X61695Y-16456D01*
X61699Y-16495D01*
X61700Y-16500D01*
X61300Y-16300D02*
X61700Y-16700D01*
X61700Y-16300D02*
X61300Y-16700D01*
X61700Y-17500D02*
X61696Y-17538D01*
X61684Y-17576D01*
X61666Y-17610D01*
X61641Y-17640D01*
X61611Y-17665D01*
X61577Y-17684D01*
X61540Y-17695D01*
X61501Y-17699D01*
X61463Y-17696D01*
X61426Y-17685D01*
X61391Y-17667D01*
X61361Y-17642D01*
X61335Y-17612D01*
X61317Y-17578D01*
X61305Y-17541D01*
X61301Y-17502D01*
X61304Y-17464D01*
X61315Y-17427D01*
X61332Y-17392D01*
X61357Y-17362D01*
X61386Y-17336D01*
X61420Y-17317D01*
X61458Y-17305D01*
X61496Y-17301D01*
X61534Y-17304D01*
X61572Y-17314D01*
X61607Y-17332D01*
X61637Y-17356D01*
X61663Y-17385D01*
X61682Y-17419D01*
X61695Y-17456D01*
X61699Y-17495D01*
X61700Y-17500D01*
X61300Y-17300D02*
X61700Y-17700D01*
X61700Y-17300D02*
X61300Y-17700D01*
X61950Y-12575D02*
X61946Y-12613D01*
X61934Y-12651D01*
X61916Y-12685D01*
X61891Y-12715D01*
X61861Y-12740D01*
X61827Y-12759D01*
X61790Y-12770D01*
X61751Y-12774D01*
X61713Y-12771D01*
X61676Y-12760D01*
X61641Y-12742D01*
X61611Y-12717D01*
X61585Y-12687D01*
X61567Y-12653D01*
X61555Y-12616D01*
X61551Y-12577D01*
X61554Y-12539D01*
X61565Y-12502D01*
X61582Y-12467D01*
X61607Y-12437D01*
X61636Y-12411D01*
X61670Y-12392D01*
X61708Y-12380D01*
X61746Y-12376D01*
X61784Y-12379D01*
X61822Y-12389D01*
X61857Y-12407D01*
X61887Y-12431D01*
X61913Y-12460D01*
X61932Y-12494D01*
X61945Y-12531D01*
X61949Y-12570D01*
X61950Y-12575D01*
X61550Y-12375D02*
X61950Y-12775D01*
X61950Y-12375D02*
X61550Y-12775D01*
X61950Y-14325D02*
X61946Y-14363D01*
X61934Y-14401D01*
X61916Y-14435D01*
X61891Y-14465D01*
X61861Y-14490D01*
X61827Y-14509D01*
X61790Y-14520D01*
X61751Y-14524D01*
X61713Y-14521D01*
X61676Y-14510D01*
X61641Y-14492D01*
X61611Y-14467D01*
X61585Y-14437D01*
X61567Y-14403D01*
X61555Y-14366D01*
X61551Y-14327D01*
X61554Y-14289D01*
X61565Y-14252D01*
X61582Y-14217D01*
X61607Y-14187D01*
X61636Y-14161D01*
X61670Y-14142D01*
X61708Y-14130D01*
X61746Y-14126D01*
X61784Y-14129D01*
X61822Y-14139D01*
X61857Y-14157D01*
X61887Y-14181D01*
X61913Y-14210D01*
X61932Y-14244D01*
X61945Y-14281D01*
X61949Y-14320D01*
X61950Y-14325D01*
X61550Y-14125D02*
X61950Y-14525D01*
X61950Y-14125D02*
X61550Y-14525D01*
X62900Y-12575D02*
X62896Y-12613D01*
X62884Y-12651D01*
X62866Y-12685D01*
X62841Y-12715D01*
X62811Y-12740D01*
X62777Y-12759D01*
X62740Y-12770D01*
X62701Y-12774D01*
X62663Y-12771D01*
X62626Y-12760D01*
X62591Y-12742D01*
X62561Y-12717D01*
X62535Y-12687D01*
X62517Y-12653D01*
X62505Y-12616D01*
X62501Y-12577D01*
X62504Y-12539D01*
X62515Y-12502D01*
X62532Y-12467D01*
X62557Y-12437D01*
X62586Y-12411D01*
X62620Y-12392D01*
X62658Y-12380D01*
X62696Y-12376D01*
X62734Y-12379D01*
X62772Y-12389D01*
X62807Y-12407D01*
X62837Y-12431D01*
X62863Y-12460D01*
X62882Y-12494D01*
X62895Y-12531D01*
X62899Y-12570D01*
X62900Y-12575D01*
X62500Y-12375D02*
X62900Y-12775D01*
X62900Y-12375D02*
X62500Y-12775D01*
X62900Y-14325D02*
X62896Y-14363D01*
X62884Y-14401D01*
X62866Y-14435D01*
X62841Y-14465D01*
X62811Y-14490D01*
X62777Y-14509D01*
X62740Y-14520D01*
X62701Y-14524D01*
X62663Y-14521D01*
X62626Y-14510D01*
X62591Y-14492D01*
X62561Y-14467D01*
X62535Y-14437D01*
X62517Y-14403D01*
X62505Y-14366D01*
X62501Y-14327D01*
X62504Y-14289D01*
X62515Y-14252D01*
X62532Y-14217D01*
X62557Y-14187D01*
X62586Y-14161D01*
X62620Y-14142D01*
X62658Y-14130D01*
X62696Y-14126D01*
X62734Y-14129D01*
X62772Y-14139D01*
X62807Y-14157D01*
X62837Y-14181D01*
X62863Y-14210D01*
X62882Y-14244D01*
X62895Y-14281D01*
X62899Y-14320D01*
X62900Y-14325D01*
X62500Y-14125D02*
X62900Y-14525D01*
X62900Y-14125D02*
X62500Y-14525D01*
X65450Y-12575D02*
X65446Y-12613D01*
X65434Y-12651D01*
X65416Y-12685D01*
X65391Y-12715D01*
X65361Y-12740D01*
X65327Y-12759D01*
X65290Y-12770D01*
X65251Y-12774D01*
X65213Y-12771D01*
X65176Y-12760D01*
X65141Y-12742D01*
X65111Y-12717D01*
X65085Y-12687D01*
X65067Y-12653D01*
X65055Y-12616D01*
X65051Y-12577D01*
X65054Y-12539D01*
X65065Y-12502D01*
X65082Y-12467D01*
X65107Y-12437D01*
X65136Y-12411D01*
X65170Y-12392D01*
X65208Y-12380D01*
X65246Y-12376D01*
X65284Y-12379D01*
X65322Y-12389D01*
X65357Y-12407D01*
X65387Y-12431D01*
X65413Y-12460D01*
X65432Y-12494D01*
X65445Y-12531D01*
X65449Y-12570D01*
X65450Y-12575D01*
X65050Y-12375D02*
X65450Y-12775D01*
X65450Y-12375D02*
X65050Y-12775D01*
X65450Y-14325D02*
X65446Y-14363D01*
X65434Y-14401D01*
X65416Y-14435D01*
X65391Y-14465D01*
X65361Y-14490D01*
X65327Y-14509D01*
X65290Y-14520D01*
X65251Y-14524D01*
X65213Y-14521D01*
X65176Y-14510D01*
X65141Y-14492D01*
X65111Y-14467D01*
X65085Y-14437D01*
X65067Y-14403D01*
X65055Y-14366D01*
X65051Y-14327D01*
X65054Y-14289D01*
X65065Y-14252D01*
X65082Y-14217D01*
X65107Y-14187D01*
X65136Y-14161D01*
X65170Y-14142D01*
X65208Y-14130D01*
X65246Y-14126D01*
X65284Y-14129D01*
X65322Y-14139D01*
X65357Y-14157D01*
X65387Y-14181D01*
X65413Y-14210D01*
X65432Y-14244D01*
X65445Y-14281D01*
X65449Y-14320D01*
X65450Y-14325D01*
X65050Y-14125D02*
X65450Y-14525D01*
X65450Y-14125D02*
X65050Y-14525D01*
X107200Y-15500D02*
X107196Y-15538D01*
X107184Y-15576D01*
X107166Y-15610D01*
X107141Y-15640D01*
X107111Y-15665D01*
X107077Y-15684D01*
X107040Y-15695D01*
X107001Y-15699D01*
X106963Y-15696D01*
X106926Y-15685D01*
X106891Y-15667D01*
X106861Y-15642D01*
X106835Y-15612D01*
X106817Y-15578D01*
X106805Y-15541D01*
X106801Y-15502D01*
X106804Y-15464D01*
X106815Y-15427D01*
X106832Y-15392D01*
X106857Y-15362D01*
X106886Y-15336D01*
X106920Y-15317D01*
X106958Y-15305D01*
X106996Y-15301D01*
X107034Y-15304D01*
X107072Y-15314D01*
X107107Y-15332D01*
X107137Y-15356D01*
X107163Y-15385D01*
X107182Y-15419D01*
X107195Y-15456D01*
X107199Y-15495D01*
X107200Y-15500D01*
X106800Y-15300D02*
X107200Y-15700D01*
X107200Y-15300D02*
X106800Y-15700D01*
X107200Y-16500D02*
X107196Y-16538D01*
X107184Y-16576D01*
X107166Y-16610D01*
X107141Y-16640D01*
X107111Y-16665D01*
X107077Y-16684D01*
X107040Y-16695D01*
X107001Y-16699D01*
X106963Y-16696D01*
X106926Y-16685D01*
X106891Y-16667D01*
X106861Y-16642D01*
X106835Y-16612D01*
X106817Y-16578D01*
X106805Y-16541D01*
X106801Y-16502D01*
X106804Y-16464D01*
X106815Y-16427D01*
X106832Y-16392D01*
X106857Y-16362D01*
X106886Y-16336D01*
X106920Y-16317D01*
X106958Y-16305D01*
X106996Y-16301D01*
X107034Y-16304D01*
X107072Y-16314D01*
X107107Y-16332D01*
X107137Y-16356D01*
X107163Y-16385D01*
X107182Y-16419D01*
X107195Y-16456D01*
X107199Y-16495D01*
X107200Y-16500D01*
X106800Y-16300D02*
X107200Y-16700D01*
X107200Y-16300D02*
X106800Y-16700D01*
X107200Y-17500D02*
X107196Y-17538D01*
X107184Y-17576D01*
X107166Y-17610D01*
X107141Y-17640D01*
X107111Y-17665D01*
X107077Y-17684D01*
X107040Y-17695D01*
X107001Y-17699D01*
X106963Y-17696D01*
X106926Y-17685D01*
X106891Y-17667D01*
X106861Y-17642D01*
X106835Y-17612D01*
X106817Y-17578D01*
X106805Y-17541D01*
X106801Y-17502D01*
X106804Y-17464D01*
X106815Y-17427D01*
X106832Y-17392D01*
X106857Y-17362D01*
X106886Y-17336D01*
X106920Y-17317D01*
X106958Y-17305D01*
X106996Y-17301D01*
X107034Y-17304D01*
X107072Y-17314D01*
X107107Y-17332D01*
X107137Y-17356D01*
X107163Y-17385D01*
X107182Y-17419D01*
X107195Y-17456D01*
X107199Y-17495D01*
X107200Y-17500D01*
X106800Y-17300D02*
X107200Y-17700D01*
X107200Y-17300D02*
X106800Y-17700D01*
X107200Y-18500D02*
X107196Y-18538D01*
X107184Y-18576D01*
X107166Y-18610D01*
X107141Y-18640D01*
X107111Y-18665D01*
X107077Y-18684D01*
X107040Y-18695D01*
X107001Y-18699D01*
X106963Y-18696D01*
X106926Y-18685D01*
X106891Y-18667D01*
X106861Y-18642D01*
X106835Y-18612D01*
X106817Y-18578D01*
X106805Y-18541D01*
X106801Y-18502D01*
X106804Y-18464D01*
X106815Y-18427D01*
X106832Y-18392D01*
X106857Y-18362D01*
X106886Y-18336D01*
X106920Y-18317D01*
X106958Y-18305D01*
X106996Y-18301D01*
X107034Y-18304D01*
X107072Y-18314D01*
X107107Y-18332D01*
X107137Y-18356D01*
X107163Y-18385D01*
X107182Y-18419D01*
X107195Y-18456D01*
X107199Y-18495D01*
X107200Y-18500D01*
X106800Y-18300D02*
X107200Y-18700D01*
X107200Y-18300D02*
X106800Y-18700D01*
X107200Y-19500D02*
X107196Y-19538D01*
X107184Y-19576D01*
X107166Y-19610D01*
X107141Y-19640D01*
X107111Y-19665D01*
X107077Y-19684D01*
X107040Y-19695D01*
X107001Y-19699D01*
X106963Y-19696D01*
X106926Y-19685D01*
X106891Y-19667D01*
X106861Y-19642D01*
X106835Y-19612D01*
X106817Y-19578D01*
X106805Y-19541D01*
X106801Y-19502D01*
X106804Y-19464D01*
X106815Y-19427D01*
X106832Y-19392D01*
X106857Y-19362D01*
X106886Y-19336D01*
X106920Y-19317D01*
X106958Y-19305D01*
X106996Y-19301D01*
X107034Y-19304D01*
X107072Y-19314D01*
X107107Y-19332D01*
X107137Y-19356D01*
X107163Y-19385D01*
X107182Y-19419D01*
X107195Y-19456D01*
X107199Y-19495D01*
X107200Y-19500D01*
X106800Y-19300D02*
X107200Y-19700D01*
X107200Y-19300D02*
X106800Y-19700D01*
X107200Y-20500D02*
X107196Y-20538D01*
X107184Y-20576D01*
X107166Y-20610D01*
X107141Y-20640D01*
X107111Y-20665D01*
X107077Y-20684D01*
X107040Y-20695D01*
X107001Y-20699D01*
X106963Y-20696D01*
X106926Y-20685D01*
X106891Y-20667D01*
X106861Y-20642D01*
X106835Y-20612D01*
X106817Y-20578D01*
X106805Y-20541D01*
X106801Y-20502D01*
X106804Y-20464D01*
X106815Y-20427D01*
X106832Y-20392D01*
X106857Y-20362D01*
X106886Y-20336D01*
X106920Y-20317D01*
X106958Y-20305D01*
X106996Y-20301D01*
X107034Y-20304D01*
X107072Y-20314D01*
X107107Y-20332D01*
X107137Y-20356D01*
X107163Y-20385D01*
X107182Y-20419D01*
X107195Y-20456D01*
X107199Y-20495D01*
X107200Y-20500D01*
X106800Y-20300D02*
X107200Y-20700D01*
X107200Y-20300D02*
X106800Y-20700D01*
X48745Y-20720D02*
X48740Y-20768D01*
X48726Y-20815D01*
X48703Y-20858D01*
X48672Y-20896D01*
X48634Y-20927D01*
X48591Y-20950D01*
X48545Y-20964D01*
X48496Y-20969D01*
X48449Y-20965D01*
X48402Y-20951D01*
X48359Y-20929D01*
X48321Y-20898D01*
X48289Y-20861D01*
X48266Y-20818D01*
X48251Y-20771D01*
X48246Y-20723D01*
X48250Y-20675D01*
X48263Y-20628D01*
X48285Y-20585D01*
X48316Y-20547D01*
X48353Y-20515D01*
X48395Y-20491D01*
X48442Y-20476D01*
X48490Y-20471D01*
X48538Y-20474D01*
X48585Y-20487D01*
X48628Y-20509D01*
X48667Y-20539D01*
X48699Y-20576D01*
X48723Y-20619D01*
X48738Y-20665D01*
X48744Y-20714D01*
X48745Y-20720D01*
X48245Y-20720D02*
X48745Y-20720D01*
X52745Y-19720D02*
X52740Y-19768D01*
X52726Y-19815D01*
X52703Y-19858D01*
X52672Y-19896D01*
X52634Y-19927D01*
X52591Y-19950D01*
X52545Y-19964D01*
X52496Y-19969D01*
X52449Y-19965D01*
X52402Y-19951D01*
X52359Y-19929D01*
X52321Y-19898D01*
X52289Y-19861D01*
X52266Y-19818D01*
X52251Y-19771D01*
X52246Y-19723D01*
X52250Y-19675D01*
X52263Y-19628D01*
X52285Y-19585D01*
X52316Y-19547D01*
X52353Y-19515D01*
X52395Y-19491D01*
X52442Y-19476D01*
X52490Y-19471D01*
X52538Y-19474D01*
X52585Y-19487D01*
X52628Y-19509D01*
X52667Y-19539D01*
X52699Y-19576D01*
X52723Y-19619D01*
X52738Y-19665D01*
X52744Y-19714D01*
X52745Y-19720D01*
X52245Y-19720D02*
X52745Y-19720D01*
X52745Y-21720D02*
X52740Y-21768D01*
X52726Y-21815D01*
X52703Y-21858D01*
X52672Y-21896D01*
X52634Y-21927D01*
X52591Y-21950D01*
X52545Y-21964D01*
X52496Y-21969D01*
X52449Y-21965D01*
X52402Y-21951D01*
X52359Y-21929D01*
X52321Y-21898D01*
X52289Y-21861D01*
X52266Y-21818D01*
X52251Y-21771D01*
X52246Y-21723D01*
X52250Y-21675D01*
X52263Y-21628D01*
X52285Y-21585D01*
X52316Y-21547D01*
X52353Y-21515D01*
X52395Y-21491D01*
X52442Y-21476D01*
X52490Y-21471D01*
X52538Y-21474D01*
X52585Y-21487D01*
X52628Y-21509D01*
X52667Y-21539D01*
X52699Y-21576D01*
X52723Y-21619D01*
X52738Y-21665D01*
X52744Y-21714D01*
X52745Y-21720D01*
X52245Y-21720D02*
X52745Y-21720D01*
X10100Y-13000D02*
X10088Y-13116D01*
X10054Y-13228D01*
X09999Y-13332D01*
X09925Y-13422D01*
X09835Y-13497D01*
X09732Y-13553D01*
X09620Y-13587D01*
X09504Y-13599D01*
X09388Y-13589D01*
X09276Y-13556D01*
X09172Y-13502D01*
X09081Y-13428D01*
X09005Y-13338D01*
X08949Y-13236D01*
X08914Y-13124D01*
X08901Y-13008D01*
X08910Y-12892D01*
X08943Y-12780D01*
X08996Y-12675D01*
X09069Y-12584D01*
X09158Y-12508D01*
X09260Y-12451D01*
X09372Y-12414D01*
X09488Y-12401D01*
X09604Y-12410D01*
X09716Y-12441D01*
X09821Y-12494D01*
X09913Y-12566D01*
X09990Y-12655D01*
X10048Y-12756D01*
X10085Y-12868D01*
X10099Y-12984D01*
X10100Y-13000D01*
X09500Y-12400D02*
X09500Y-13600D01*
X10100Y-22500D02*
X10088Y-22616D01*
X10054Y-22728D01*
X09999Y-22832D01*
X09925Y-22922D01*
X09835Y-22997D01*
X09732Y-23053D01*
X09620Y-23087D01*
X09504Y-23099D01*
X09388Y-23089D01*
X09276Y-23056D01*
X09172Y-23002D01*
X09081Y-22928D01*
X09005Y-22838D01*
X08949Y-22736D01*
X08914Y-22624D01*
X08901Y-22508D01*
X08910Y-22392D01*
X08943Y-22280D01*
X08996Y-22175D01*
X09069Y-22084D01*
X09158Y-22008D01*
X09260Y-21951D01*
X09372Y-21914D01*
X09488Y-21901D01*
X09604Y-21910D01*
X09716Y-21941D01*
X09821Y-21994D01*
X09913Y-22066D01*
X09990Y-22155D01*
X10048Y-22256D01*
X10085Y-22368D01*
X10099Y-22484D01*
X10100Y-22500D01*
X09500Y-21900D02*
X09500Y-23100D01*
X42100Y-13000D02*
X42088Y-13116D01*
X42054Y-13228D01*
X41999Y-13332D01*
X41925Y-13422D01*
X41835Y-13497D01*
X41732Y-13553D01*
X41620Y-13587D01*
X41504Y-13599D01*
X41388Y-13589D01*
X41276Y-13556D01*
X41172Y-13502D01*
X41081Y-13428D01*
X41005Y-13338D01*
X40949Y-13236D01*
X40914Y-13124D01*
X40901Y-13008D01*
X40910Y-12892D01*
X40943Y-12780D01*
X40996Y-12675D01*
X41069Y-12584D01*
X41158Y-12508D01*
X41260Y-12451D01*
X41372Y-12414D01*
X41488Y-12401D01*
X41604Y-12410D01*
X41716Y-12441D01*
X41821Y-12494D01*
X41913Y-12566D01*
X41990Y-12655D01*
X42048Y-12756D01*
X42085Y-12868D01*
X42099Y-12984D01*
X42100Y-13000D01*
X41500Y-12400D02*
X41500Y-13600D01*
X75100Y-13000D02*
X75088Y-13116D01*
X75054Y-13228D01*
X74999Y-13332D01*
X74925Y-13422D01*
X74835Y-13497D01*
X74732Y-13553D01*
X74620Y-13587D01*
X74504Y-13599D01*
X74388Y-13589D01*
X74276Y-13556D01*
X74172Y-13502D01*
X74081Y-13428D01*
X74005Y-13338D01*
X73949Y-13236D01*
X73914Y-13124D01*
X73901Y-13008D01*
X73910Y-12892D01*
X73943Y-12780D01*
X73996Y-12675D01*
X74069Y-12584D01*
X74158Y-12508D01*
X74260Y-12451D01*
X74372Y-12414D01*
X74488Y-12401D01*
X74604Y-12410D01*
X74716Y-12441D01*
X74821Y-12494D01*
X74913Y-12566D01*
X74990Y-12655D01*
X75048Y-12756D01*
X75085Y-12868D01*
X75099Y-12984D01*
X75100Y-13000D01*
X74500Y-12400D02*
X74500Y-13600D01*
X107100Y-13000D02*
X107088Y-13116D01*
X107054Y-13228D01*
X106999Y-13332D01*
X106925Y-13422D01*
X106835Y-13497D01*
X106732Y-13553D01*
X106620Y-13587D01*
X106504Y-13599D01*
X106388Y-13589D01*
X106276Y-13556D01*
X106172Y-13502D01*
X106081Y-13428D01*
X106005Y-13338D01*
X105949Y-13236D01*
X105914Y-13124D01*
X105901Y-13008D01*
X105910Y-12892D01*
X105943Y-12780D01*
X105996Y-12675D01*
X106069Y-12584D01*
X106158Y-12508D01*
X106260Y-12451D01*
X106372Y-12414D01*
X106488Y-12401D01*
X106604Y-12410D01*
X106716Y-12441D01*
X106821Y-12494D01*
X106913Y-12566D01*
X106990Y-12655D01*
X107048Y-12756D01*
X107085Y-12868D01*
X107099Y-12984D01*
X107100Y-13000D01*
X106500Y-12400D02*
X106500Y-13600D01*
X107100Y-22500D02*
X107088Y-22616D01*
X107054Y-22728D01*
X106999Y-22832D01*
X106925Y-22922D01*
X106835Y-22997D01*
X106732Y-23053D01*
X106620Y-23087D01*
X106504Y-23099D01*
X106388Y-23089D01*
X106276Y-23056D01*
X106172Y-23002D01*
X106081Y-22928D01*
X106005Y-22838D01*
X105949Y-22736D01*
X105914Y-22624D01*
X105901Y-22508D01*
X105910Y-22392D01*
X105943Y-22280D01*
X105996Y-22175D01*
X106069Y-22084D01*
X106158Y-22008D01*
X106260Y-21951D01*
X106372Y-21914D01*
X106488Y-21901D01*
X106604Y-21910D01*
X106716Y-21941D01*
X106821Y-21994D01*
X106913Y-22066D01*
X106990Y-22155D01*
X107048Y-22256D01*
X107085Y-22368D01*
X107099Y-22484D01*
X107100Y-22500D01*
X106500Y-21900D02*
X106500Y-23100D01*
G54D12*
X08200Y-26424D02*
X08200Y-25624D01*
X08391Y-25624D01*
X08505Y-25662D01*
X08581Y-25738D01*
X08620Y-25814D01*
X08658Y-25967D01*
X08658Y-26081D01*
X08620Y-26233D01*
X08581Y-26310D01*
X08505Y-26386D01*
X08391Y-26424D01*
X08200Y-26424D01*
X09000Y-26424D02*
X09000Y-25890D01*
X09000Y-26043D02*
X09039Y-25967D01*
X09077Y-25929D01*
X09153Y-25890D01*
X09229Y-25890D01*
X09495Y-26424D02*
X09495Y-25890D01*
X09495Y-25624D02*
X09457Y-25662D01*
X09495Y-25700D01*
X09534Y-25662D01*
X09495Y-25624D01*
X09495Y-25700D01*
X09991Y-26424D02*
X09915Y-26386D01*
X09876Y-26310D01*
X09876Y-25624D01*
X10410Y-26424D02*
X10334Y-26386D01*
X10295Y-26310D01*
X10295Y-25624D01*
X11324Y-26424D02*
X11324Y-25624D01*
X11591Y-26195D01*
X11858Y-25624D01*
X11858Y-26424D01*
X12581Y-26424D02*
X12581Y-26005D01*
X12543Y-25929D01*
X12467Y-25890D01*
X12315Y-25890D01*
X12238Y-25929D01*
X12581Y-26386D02*
X12505Y-26424D01*
X12315Y-26424D01*
X12238Y-26386D01*
X12200Y-26310D01*
X12200Y-26233D01*
X12238Y-26157D01*
X12315Y-26119D01*
X12505Y-26119D01*
X12581Y-26081D01*
X12962Y-25890D02*
X12962Y-26690D01*
X12962Y-25929D02*
X13039Y-25890D01*
X13191Y-25890D01*
X13267Y-25929D01*
X13305Y-25967D01*
X13343Y-26043D01*
X13343Y-26271D01*
X13305Y-26348D01*
X13267Y-26386D01*
X13191Y-26424D01*
X13039Y-26424D01*
X12962Y-26386D01*
X13686Y-26348D02*
X13725Y-26386D01*
X13686Y-26424D01*
X13648Y-26386D01*
X13686Y-26348D01*
X13686Y-26424D01*
X13686Y-25929D02*
X13725Y-25967D01*
X13686Y-26005D01*
X13648Y-25967D01*
X13686Y-25929D01*
X13686Y-26005D01*
X07560Y-27655D02*
X07810Y-27905D01*
X07810Y-27655D02*
X07560Y-27905D01*
X08353Y-27304D02*
X08429Y-27304D01*
X08505Y-27342D01*
X08543Y-27380D01*
X08581Y-27456D01*
X08620Y-27609D01*
X08620Y-27799D01*
X08581Y-27951D01*
X08543Y-28028D01*
X08505Y-28066D01*
X08429Y-28104D01*
X08353Y-28104D01*
X08277Y-28066D01*
X08239Y-28028D01*
X08200Y-27951D01*
X08162Y-27799D01*
X08162Y-27609D01*
X08200Y-27456D01*
X08239Y-27380D01*
X08277Y-27342D01*
X08353Y-27304D01*
X08962Y-28028D02*
X09001Y-28066D01*
X08962Y-28104D01*
X08924Y-28066D01*
X08962Y-28028D01*
X08962Y-28104D01*
X09496Y-27304D02*
X09572Y-27304D01*
X09648Y-27342D01*
X09686Y-27380D01*
X09724Y-27456D01*
X09763Y-27609D01*
X09763Y-27799D01*
X09724Y-27951D01*
X09686Y-28028D01*
X09648Y-28066D01*
X09572Y-28104D01*
X09496Y-28104D01*
X09420Y-28066D01*
X09382Y-28028D01*
X09343Y-27951D01*
X09305Y-27799D01*
X09305Y-27609D01*
X09343Y-27456D01*
X09382Y-27380D01*
X09420Y-27342D01*
X09496Y-27304D01*
X10067Y-27380D02*
X10105Y-27342D01*
X10182Y-27304D01*
X10372Y-27304D01*
X10448Y-27342D01*
X10486Y-27380D01*
X10525Y-27456D01*
X10525Y-27532D01*
X10486Y-27647D01*
X10029Y-28104D01*
X10525Y-28104D01*
X11248Y-27304D02*
X10867Y-27304D01*
X10829Y-27685D01*
X10867Y-27647D01*
X10944Y-27609D01*
X11134Y-27609D01*
X11210Y-27647D01*
X11248Y-27685D01*
X11287Y-27761D01*
X11287Y-27951D01*
X11248Y-28028D01*
X11210Y-28066D01*
X11134Y-28104D01*
X10944Y-28104D01*
X10867Y-28066D01*
X10829Y-28028D01*
X11591Y-27304D02*
X11591Y-27456D01*
X11896Y-27304D02*
X11896Y-27456D01*
X13421Y-27266D02*
X12735Y-28294D01*
X14450Y-27304D02*
X14526Y-27304D01*
X14602Y-27342D01*
X14640Y-27380D01*
X14678Y-27456D01*
X14717Y-27609D01*
X14717Y-27799D01*
X14678Y-27951D01*
X14640Y-28028D01*
X14602Y-28066D01*
X14526Y-28104D01*
X14450Y-28104D01*
X14374Y-28066D01*
X14336Y-28028D01*
X14297Y-27951D01*
X14259Y-27799D01*
X14259Y-27609D01*
X14297Y-27456D01*
X14336Y-27380D01*
X14374Y-27342D01*
X14450Y-27304D01*
X15059Y-28028D02*
X15098Y-28066D01*
X15059Y-28104D01*
X15021Y-28066D01*
X15059Y-28028D01*
X15059Y-28104D01*
X15783Y-27304D02*
X15631Y-27304D01*
X15555Y-27342D01*
X15517Y-27380D01*
X15440Y-27494D01*
X15402Y-27647D01*
X15402Y-27951D01*
X15440Y-28028D01*
X15479Y-28066D01*
X15555Y-28104D01*
X15707Y-28104D01*
X15783Y-28066D01*
X15821Y-28028D01*
X15860Y-27951D01*
X15860Y-27761D01*
X15821Y-27685D01*
X15783Y-27647D01*
X15707Y-27609D01*
X15555Y-27609D01*
X15479Y-27647D01*
X15440Y-27685D01*
X15402Y-27761D01*
X16545Y-27570D02*
X16545Y-28104D01*
X16355Y-27266D02*
X16164Y-27837D01*
X16660Y-27837D01*
X16964Y-28104D02*
X16964Y-27570D01*
X16964Y-27647D02*
X17003Y-27609D01*
X17079Y-27570D01*
X17193Y-27570D01*
X17269Y-27609D01*
X17307Y-27685D01*
X17307Y-28104D01*
X17307Y-27685D02*
X17345Y-27609D01*
X17422Y-27570D01*
X17536Y-27570D01*
X17612Y-27609D01*
X17650Y-27685D01*
X17650Y-28104D01*
X18031Y-28104D02*
X18031Y-27570D01*
X18031Y-27647D02*
X18070Y-27609D01*
X18146Y-27570D01*
X18260Y-27570D01*
X18336Y-27609D01*
X18374Y-27685D01*
X18374Y-28104D01*
X18374Y-27685D02*
X18412Y-27609D01*
X18489Y-27570D01*
X18603Y-27570D01*
X18679Y-27609D01*
X18717Y-27685D01*
X18717Y-28104D01*
X19937Y-28409D02*
X19899Y-28370D01*
X19823Y-28256D01*
X19785Y-28180D01*
X19747Y-28066D01*
X19708Y-27875D01*
X19708Y-27723D01*
X19747Y-27532D01*
X19785Y-27418D01*
X19823Y-27342D01*
X19899Y-27228D01*
X19937Y-27190D01*
X20165Y-27304D02*
X20661Y-27304D01*
X20394Y-27609D01*
X20508Y-27609D01*
X20584Y-27647D01*
X20622Y-27685D01*
X20661Y-27761D01*
X20661Y-27951D01*
X20622Y-28028D01*
X20584Y-28066D01*
X20508Y-28104D01*
X20280Y-28104D01*
X20203Y-28066D01*
X20165Y-28028D01*
X21346Y-27570D02*
X21346Y-28104D01*
X21156Y-27266D02*
X20965Y-27837D01*
X21461Y-27837D01*
X22375Y-28104D02*
X22375Y-27304D01*
X22718Y-28104D02*
X22718Y-27685D01*
X22680Y-27609D01*
X22604Y-27570D01*
X22490Y-27570D01*
X22414Y-27609D01*
X22375Y-27647D01*
X23214Y-28104D02*
X23138Y-28066D01*
X23099Y-28028D01*
X23061Y-27951D01*
X23061Y-27723D01*
X23099Y-27647D01*
X23138Y-27609D01*
X23214Y-27570D01*
X23328Y-27570D01*
X23404Y-27609D01*
X23442Y-27647D01*
X23480Y-27723D01*
X23480Y-27951D01*
X23442Y-28028D01*
X23404Y-28066D01*
X23328Y-28104D01*
X23214Y-28104D01*
X23938Y-28104D02*
X23862Y-28066D01*
X23823Y-27990D01*
X23823Y-27304D01*
X24547Y-28066D02*
X24471Y-28104D01*
X24319Y-28104D01*
X24242Y-28066D01*
X24204Y-27990D01*
X24204Y-27685D01*
X24242Y-27609D01*
X24319Y-27570D01*
X24471Y-27570D01*
X24547Y-27609D01*
X24585Y-27685D01*
X24585Y-27761D01*
X24204Y-27837D01*
X24890Y-28066D02*
X24967Y-28104D01*
X25119Y-28104D01*
X25195Y-28066D01*
X25233Y-27990D01*
X25233Y-27951D01*
X25195Y-27875D01*
X25119Y-27837D01*
X25005Y-27837D01*
X24928Y-27799D01*
X24890Y-27723D01*
X24890Y-27685D01*
X24928Y-27609D01*
X25005Y-27570D01*
X25119Y-27570D01*
X25195Y-27609D01*
X25500Y-28409D02*
X25538Y-28370D01*
X25615Y-28256D01*
X25653Y-28180D01*
X25691Y-28066D01*
X25729Y-27875D01*
X25729Y-27723D01*
X25691Y-27532D01*
X25653Y-27418D01*
X25615Y-27342D01*
X25538Y-27228D01*
X25500Y-27190D01*
G54D10*
X07810Y-28835D02*
X07806Y-28866D01*
X07797Y-28895D01*
X07783Y-28923D01*
X07763Y-28947D01*
X07739Y-28967D01*
X07712Y-28982D01*
X07682Y-28991D01*
X07651Y-28994D01*
X07621Y-28992D01*
X07591Y-28983D01*
X07563Y-28968D01*
X07539Y-28949D01*
X07518Y-28925D01*
X07503Y-28898D01*
X07494Y-28868D01*
X07491Y-28837D01*
X07493Y-28807D01*
X07502Y-28777D01*
X07516Y-28749D01*
X07535Y-28724D01*
X07559Y-28704D01*
X07586Y-28689D01*
X07616Y-28679D01*
X07647Y-28676D01*
X07677Y-28678D01*
X07707Y-28686D01*
X07735Y-28700D01*
X07760Y-28720D01*
X07780Y-28743D01*
X07796Y-28770D01*
X07806Y-28800D01*
X07809Y-28831D01*
X07810Y-28835D01*
G54D12*
X08353Y-28359D02*
X08429Y-28359D01*
X08505Y-28397D01*
X08543Y-28435D01*
X08581Y-28511D01*
X08620Y-28664D01*
X08620Y-28854D01*
X08581Y-29006D01*
X08543Y-29083D01*
X08505Y-29121D01*
X08429Y-29159D01*
X08353Y-29159D01*
X08277Y-29121D01*
X08239Y-29083D01*
X08200Y-29006D01*
X08162Y-28854D01*
X08162Y-28664D01*
X08200Y-28511D01*
X08239Y-28435D01*
X08277Y-28397D01*
X08353Y-28359D01*
X08962Y-29083D02*
X09001Y-29121D01*
X08962Y-29159D01*
X08924Y-29121D01*
X08962Y-29083D01*
X08962Y-29159D01*
X09496Y-28359D02*
X09572Y-28359D01*
X09648Y-28397D01*
X09686Y-28435D01*
X09724Y-28511D01*
X09763Y-28664D01*
X09763Y-28854D01*
X09724Y-29006D01*
X09686Y-29083D01*
X09648Y-29121D01*
X09572Y-29159D01*
X09496Y-29159D01*
X09420Y-29121D01*
X09382Y-29083D01*
X09343Y-29006D01*
X09305Y-28854D01*
X09305Y-28664D01*
X09343Y-28511D01*
X09382Y-28435D01*
X09420Y-28397D01*
X09496Y-28359D01*
X10029Y-28359D02*
X10525Y-28359D01*
X10258Y-28664D01*
X10372Y-28664D01*
X10448Y-28702D01*
X10486Y-28740D01*
X10525Y-28816D01*
X10525Y-29006D01*
X10486Y-29083D01*
X10448Y-29121D01*
X10372Y-29159D01*
X10144Y-29159D01*
X10067Y-29121D01*
X10029Y-29083D01*
X10829Y-28435D02*
X10867Y-28397D01*
X10944Y-28359D01*
X11134Y-28359D01*
X11210Y-28397D01*
X11248Y-28435D01*
X11287Y-28511D01*
X11287Y-28587D01*
X11248Y-28702D01*
X10791Y-29159D01*
X11287Y-29159D01*
X11591Y-28359D02*
X11591Y-28511D01*
X11896Y-28359D02*
X11896Y-28511D01*
X13421Y-28321D02*
X12735Y-29349D01*
X14450Y-28359D02*
X14526Y-28359D01*
X14602Y-28397D01*
X14640Y-28435D01*
X14678Y-28511D01*
X14717Y-28664D01*
X14717Y-28854D01*
X14678Y-29006D01*
X14640Y-29083D01*
X14602Y-29121D01*
X14526Y-29159D01*
X14450Y-29159D01*
X14374Y-29121D01*
X14336Y-29083D01*
X14297Y-29006D01*
X14259Y-28854D01*
X14259Y-28664D01*
X14297Y-28511D01*
X14336Y-28435D01*
X14374Y-28397D01*
X14450Y-28359D01*
X15059Y-29083D02*
X15098Y-29121D01*
X15059Y-29159D01*
X15021Y-29121D01*
X15059Y-29083D01*
X15059Y-29159D01*
X15555Y-28702D02*
X15479Y-28664D01*
X15440Y-28625D01*
X15402Y-28549D01*
X15402Y-28511D01*
X15440Y-28435D01*
X15479Y-28397D01*
X15555Y-28359D01*
X15707Y-28359D01*
X15783Y-28397D01*
X15821Y-28435D01*
X15860Y-28511D01*
X15860Y-28549D01*
X15821Y-28625D01*
X15783Y-28664D01*
X15707Y-28702D01*
X15555Y-28702D01*
X15479Y-28740D01*
X15440Y-28778D01*
X15402Y-28854D01*
X15402Y-29006D01*
X15440Y-29083D01*
X15479Y-29121D01*
X15555Y-29159D01*
X15707Y-29159D01*
X15783Y-29121D01*
X15821Y-29083D01*
X15860Y-29006D01*
X15860Y-28854D01*
X15821Y-28778D01*
X15783Y-28740D01*
X15707Y-28702D01*
X16622Y-29159D02*
X16164Y-29159D01*
X16393Y-29159D02*
X16393Y-28359D01*
X16317Y-28473D01*
X16241Y-28549D01*
X16164Y-28587D01*
X16964Y-29159D02*
X16964Y-28625D01*
X16964Y-28702D02*
X17003Y-28664D01*
X17079Y-28625D01*
X17193Y-28625D01*
X17269Y-28664D01*
X17307Y-28740D01*
X17307Y-29159D01*
X17307Y-28740D02*
X17345Y-28664D01*
X17422Y-28625D01*
X17536Y-28625D01*
X17612Y-28664D01*
X17650Y-28740D01*
X17650Y-29159D01*
X18031Y-29159D02*
X18031Y-28625D01*
X18031Y-28702D02*
X18070Y-28664D01*
X18146Y-28625D01*
X18260Y-28625D01*
X18336Y-28664D01*
X18374Y-28740D01*
X18374Y-29159D01*
X18374Y-28740D02*
X18412Y-28664D01*
X18489Y-28625D01*
X18603Y-28625D01*
X18679Y-28664D01*
X18717Y-28740D01*
X18717Y-29159D01*
X19937Y-29464D02*
X19899Y-29425D01*
X19823Y-29311D01*
X19785Y-29235D01*
X19747Y-29121D01*
X19708Y-28930D01*
X19708Y-28778D01*
X19747Y-28587D01*
X19785Y-28473D01*
X19823Y-28397D01*
X19899Y-28283D01*
X19937Y-28245D01*
X20622Y-28359D02*
X20241Y-28359D01*
X20203Y-28740D01*
X20241Y-28702D01*
X20318Y-28664D01*
X20508Y-28664D01*
X20584Y-28702D01*
X20622Y-28740D01*
X20661Y-28816D01*
X20661Y-29006D01*
X20622Y-29083D01*
X20584Y-29121D01*
X20508Y-29159D01*
X20318Y-29159D01*
X20241Y-29121D01*
X20203Y-29083D01*
X21613Y-29159D02*
X21613Y-28359D01*
X21956Y-29159D02*
X21956Y-28740D01*
X21918Y-28664D01*
X21842Y-28625D01*
X21728Y-28625D01*
X21652Y-28664D01*
X21613Y-28702D01*
X22452Y-29159D02*
X22376Y-29121D01*
X22337Y-29083D01*
X22299Y-29006D01*
X22299Y-28778D01*
X22337Y-28702D01*
X22376Y-28664D01*
X22452Y-28625D01*
X22566Y-28625D01*
X22642Y-28664D01*
X22680Y-28702D01*
X22718Y-28778D01*
X22718Y-29006D01*
X22680Y-29083D01*
X22642Y-29121D01*
X22566Y-29159D01*
X22452Y-29159D01*
X23176Y-29159D02*
X23100Y-29121D01*
X23061Y-29045D01*
X23061Y-28359D01*
X23785Y-29121D02*
X23709Y-29159D01*
X23557Y-29159D01*
X23480Y-29121D01*
X23442Y-29045D01*
X23442Y-28740D01*
X23480Y-28664D01*
X23557Y-28625D01*
X23709Y-28625D01*
X23785Y-28664D01*
X23823Y-28740D01*
X23823Y-28816D01*
X23442Y-28892D01*
X24128Y-29121D02*
X24205Y-29159D01*
X24357Y-29159D01*
X24433Y-29121D01*
X24471Y-29045D01*
X24471Y-29006D01*
X24433Y-28930D01*
X24357Y-28892D01*
X24243Y-28892D01*
X24166Y-28854D01*
X24128Y-28778D01*
X24128Y-28740D01*
X24166Y-28664D01*
X24243Y-28625D01*
X24357Y-28625D01*
X24433Y-28664D01*
X24738Y-29464D02*
X24776Y-29425D01*
X24853Y-29311D01*
X24891Y-29235D01*
X24929Y-29121D01*
X24967Y-28930D01*
X24967Y-28778D01*
X24929Y-28587D01*
X24891Y-28473D01*
X24853Y-28397D01*
X24776Y-28283D01*
X24738Y-28245D01*
X07613Y-29693D02*
X07613Y-30087D01*
X07810Y-29890D02*
X07416Y-29890D01*
X08353Y-29414D02*
X08429Y-29414D01*
X08505Y-29452D01*
X08543Y-29490D01*
X08581Y-29566D01*
X08620Y-29719D01*
X08620Y-29909D01*
X08581Y-30061D01*
X08543Y-30138D01*
X08505Y-30176D01*
X08429Y-30214D01*
X08353Y-30214D01*
X08277Y-30176D01*
X08239Y-30138D01*
X08200Y-30061D01*
X08162Y-29909D01*
X08162Y-29719D01*
X08200Y-29566D01*
X08239Y-29490D01*
X08277Y-29452D01*
X08353Y-29414D01*
X08962Y-30138D02*
X09001Y-30176D01*
X08962Y-30214D01*
X08924Y-30176D01*
X08962Y-30138D01*
X08962Y-30214D01*
X09496Y-29414D02*
X09572Y-29414D01*
X09648Y-29452D01*
X09686Y-29490D01*
X09724Y-29566D01*
X09763Y-29719D01*
X09763Y-29909D01*
X09724Y-30061D01*
X09686Y-30138D01*
X09648Y-30176D01*
X09572Y-30214D01*
X09496Y-30214D01*
X09420Y-30176D01*
X09382Y-30138D01*
X09343Y-30061D01*
X09305Y-29909D01*
X09305Y-29719D01*
X09343Y-29566D01*
X09382Y-29490D01*
X09420Y-29452D01*
X09496Y-29414D01*
X10029Y-29414D02*
X10525Y-29414D01*
X10258Y-29719D01*
X10372Y-29719D01*
X10448Y-29757D01*
X10486Y-29795D01*
X10525Y-29871D01*
X10525Y-30061D01*
X10486Y-30138D01*
X10448Y-30176D01*
X10372Y-30214D01*
X10144Y-30214D01*
X10067Y-30176D01*
X10029Y-30138D01*
X10906Y-30214D02*
X11058Y-30214D01*
X11134Y-30176D01*
X11172Y-30138D01*
X11248Y-30023D01*
X11287Y-29871D01*
X11287Y-29566D01*
X11248Y-29490D01*
X11210Y-29452D01*
X11134Y-29414D01*
X10982Y-29414D01*
X10906Y-29452D01*
X10867Y-29490D01*
X10829Y-29566D01*
X10829Y-29757D01*
X10867Y-29833D01*
X10906Y-29871D01*
X10982Y-29909D01*
X11134Y-29909D01*
X11210Y-29871D01*
X11248Y-29833D01*
X11287Y-29757D01*
X11591Y-29414D02*
X11591Y-29566D01*
X11896Y-29414D02*
X11896Y-29566D01*
X13421Y-29376D02*
X12735Y-30404D01*
X14717Y-30214D02*
X14259Y-30214D01*
X14488Y-30214D02*
X14488Y-29414D01*
X14412Y-29528D01*
X14336Y-29604D01*
X14259Y-29642D01*
X15059Y-30138D02*
X15098Y-30176D01*
X15059Y-30214D01*
X15021Y-30176D01*
X15059Y-30138D01*
X15059Y-30214D01*
X15593Y-29414D02*
X15669Y-29414D01*
X15745Y-29452D01*
X15783Y-29490D01*
X15821Y-29566D01*
X15860Y-29719D01*
X15860Y-29909D01*
X15821Y-30061D01*
X15783Y-30138D01*
X15745Y-30176D01*
X15669Y-30214D01*
X15593Y-30214D01*
X15517Y-30176D01*
X15479Y-30138D01*
X15440Y-30061D01*
X15402Y-29909D01*
X15402Y-29719D01*
X15440Y-29566D01*
X15479Y-29490D01*
X15517Y-29452D01*
X15593Y-29414D01*
X16355Y-29414D02*
X16431Y-29414D01*
X16507Y-29452D01*
X16545Y-29490D01*
X16583Y-29566D01*
X16622Y-29719D01*
X16622Y-29909D01*
X16583Y-30061D01*
X16545Y-30138D01*
X16507Y-30176D01*
X16431Y-30214D01*
X16355Y-30214D01*
X16279Y-30176D01*
X16241Y-30138D01*
X16202Y-30061D01*
X16164Y-29909D01*
X16164Y-29719D01*
X16202Y-29566D01*
X16241Y-29490D01*
X16279Y-29452D01*
X16355Y-29414D01*
X16964Y-30214D02*
X16964Y-29680D01*
X16964Y-29757D02*
X17003Y-29719D01*
X17079Y-29680D01*
X17193Y-29680D01*
X17269Y-29719D01*
X17307Y-29795D01*
X17307Y-30214D01*
X17307Y-29795D02*
X17345Y-29719D01*
X17422Y-29680D01*
X17536Y-29680D01*
X17612Y-29719D01*
X17650Y-29795D01*
X17650Y-30214D01*
X18031Y-30214D02*
X18031Y-29680D01*
X18031Y-29757D02*
X18070Y-29719D01*
X18146Y-29680D01*
X18260Y-29680D01*
X18336Y-29719D01*
X18374Y-29795D01*
X18374Y-30214D01*
X18374Y-29795D02*
X18412Y-29719D01*
X18489Y-29680D01*
X18603Y-29680D01*
X18679Y-29719D01*
X18717Y-29795D01*
X18717Y-30214D01*
X19937Y-30519D02*
X19899Y-30480D01*
X19823Y-30366D01*
X19785Y-30290D01*
X19747Y-30176D01*
X19708Y-29985D01*
X19708Y-29833D01*
X19747Y-29642D01*
X19785Y-29528D01*
X19823Y-29452D01*
X19899Y-29338D01*
X19937Y-29300D01*
X20584Y-29414D02*
X20432Y-29414D01*
X20356Y-29452D01*
X20318Y-29490D01*
X20241Y-29604D01*
X20203Y-29757D01*
X20203Y-30061D01*
X20241Y-30138D01*
X20280Y-30176D01*
X20356Y-30214D01*
X20508Y-30214D01*
X20584Y-30176D01*
X20622Y-30138D01*
X20661Y-30061D01*
X20661Y-29871D01*
X20622Y-29795D01*
X20584Y-29757D01*
X20508Y-29719D01*
X20356Y-29719D01*
X20280Y-29757D01*
X20241Y-29795D01*
X20203Y-29871D01*
X21346Y-29680D02*
X21346Y-30214D01*
X21156Y-29376D02*
X20965Y-29947D01*
X21461Y-29947D01*
X22375Y-30214D02*
X22375Y-29414D01*
X22718Y-30214D02*
X22718Y-29795D01*
X22680Y-29719D01*
X22604Y-29680D01*
X22490Y-29680D01*
X22414Y-29719D01*
X22375Y-29757D01*
X23214Y-30214D02*
X23138Y-30176D01*
X23099Y-30138D01*
X23061Y-30061D01*
X23061Y-29833D01*
X23099Y-29757D01*
X23138Y-29719D01*
X23214Y-29680D01*
X23328Y-29680D01*
X23404Y-29719D01*
X23442Y-29757D01*
X23480Y-29833D01*
X23480Y-30061D01*
X23442Y-30138D01*
X23404Y-30176D01*
X23328Y-30214D01*
X23214Y-30214D01*
X23938Y-30214D02*
X23862Y-30176D01*
X23823Y-30100D01*
X23823Y-29414D01*
X24547Y-30176D02*
X24471Y-30214D01*
X24319Y-30214D01*
X24242Y-30176D01*
X24204Y-30100D01*
X24204Y-29795D01*
X24242Y-29719D01*
X24319Y-29680D01*
X24471Y-29680D01*
X24547Y-29719D01*
X24585Y-29795D01*
X24585Y-29871D01*
X24204Y-29947D01*
X24890Y-30176D02*
X24967Y-30214D01*
X25119Y-30214D01*
X25195Y-30176D01*
X25233Y-30100D01*
X25233Y-30061D01*
X25195Y-29985D01*
X25119Y-29947D01*
X25005Y-29947D01*
X24928Y-29909D01*
X24890Y-29833D01*
X24890Y-29795D01*
X24928Y-29719D01*
X25005Y-29680D01*
X25119Y-29680D01*
X25195Y-29719D01*
X25500Y-30519D02*
X25538Y-30480D01*
X25615Y-30366D01*
X25653Y-30290D01*
X25691Y-30176D01*
X25729Y-29985D01*
X25729Y-29833D01*
X25691Y-29642D01*
X25653Y-29528D01*
X25615Y-29452D01*
X25538Y-29338D01*
X25500Y-29300D01*
G54D10*
X07810Y-30945D02*
X07806Y-30983D01*
X07794Y-31021D01*
X07776Y-31055D01*
X07751Y-31085D01*
X07721Y-31110D01*
X07687Y-31129D01*
X07650Y-31140D01*
X07611Y-31144D01*
X07573Y-31141D01*
X07536Y-31130D01*
X07501Y-31112D01*
X07471Y-31087D01*
X07445Y-31057D01*
X07427Y-31023D01*
X07415Y-30986D01*
X07411Y-30947D01*
X07414Y-30909D01*
X07425Y-30872D01*
X07442Y-30837D01*
X07467Y-30807D01*
X07496Y-30781D01*
X07530Y-30762D01*
X07568Y-30750D01*
X07606Y-30746D01*
X07644Y-30749D01*
X07682Y-30759D01*
X07717Y-30777D01*
X07747Y-30801D01*
X07773Y-30830D01*
X07792Y-30864D01*
X07805Y-30901D01*
X07809Y-30940D01*
X07810Y-30945D01*
X07410Y-30745D02*
X07810Y-31145D01*
X07810Y-30745D02*
X07410Y-31145D01*
G54D12*
X08353Y-30469D02*
X08429Y-30469D01*
X08505Y-30507D01*
X08543Y-30545D01*
X08581Y-30621D01*
X08620Y-30774D01*
X08620Y-30964D01*
X08581Y-31116D01*
X08543Y-31193D01*
X08505Y-31231D01*
X08429Y-31269D01*
X08353Y-31269D01*
X08277Y-31231D01*
X08239Y-31193D01*
X08200Y-31116D01*
X08162Y-30964D01*
X08162Y-30774D01*
X08200Y-30621D01*
X08239Y-30545D01*
X08277Y-30507D01*
X08353Y-30469D01*
X08962Y-31193D02*
X09001Y-31231D01*
X08962Y-31269D01*
X08924Y-31231D01*
X08962Y-31193D01*
X08962Y-31269D01*
X09496Y-30469D02*
X09572Y-30469D01*
X09648Y-30507D01*
X09686Y-30545D01*
X09724Y-30621D01*
X09763Y-30774D01*
X09763Y-30964D01*
X09724Y-31116D01*
X09686Y-31193D01*
X09648Y-31231D01*
X09572Y-31269D01*
X09496Y-31269D01*
X09420Y-31231D01*
X09382Y-31193D01*
X09343Y-31116D01*
X09305Y-30964D01*
X09305Y-30774D01*
X09343Y-30621D01*
X09382Y-30545D01*
X09420Y-30507D01*
X09496Y-30469D01*
X10448Y-30735D02*
X10448Y-31269D01*
X10258Y-30431D02*
X10067Y-31002D01*
X10563Y-31002D01*
X11020Y-30469D02*
X11096Y-30469D01*
X11172Y-30507D01*
X11210Y-30545D01*
X11248Y-30621D01*
X11287Y-30774D01*
X11287Y-30964D01*
X11248Y-31116D01*
X11210Y-31193D01*
X11172Y-31231D01*
X11096Y-31269D01*
X11020Y-31269D01*
X10944Y-31231D01*
X10906Y-31193D01*
X10867Y-31116D01*
X10829Y-30964D01*
X10829Y-30774D01*
X10867Y-30621D01*
X10906Y-30545D01*
X10944Y-30507D01*
X11020Y-30469D01*
X11591Y-30469D02*
X11591Y-30621D01*
X11896Y-30469D02*
X11896Y-30621D01*
X13421Y-30431D02*
X12735Y-31459D01*
X14717Y-31269D02*
X14259Y-31269D01*
X14488Y-31269D02*
X14488Y-30469D01*
X14412Y-30583D01*
X14336Y-30659D01*
X14259Y-30697D01*
X15059Y-31193D02*
X15098Y-31231D01*
X15059Y-31269D01*
X15021Y-31231D01*
X15059Y-31193D01*
X15059Y-31269D01*
X15593Y-30469D02*
X15669Y-30469D01*
X15745Y-30507D01*
X15783Y-30545D01*
X15821Y-30621D01*
X15860Y-30774D01*
X15860Y-30964D01*
X15821Y-31116D01*
X15783Y-31193D01*
X15745Y-31231D01*
X15669Y-31269D01*
X15593Y-31269D01*
X15517Y-31231D01*
X15479Y-31193D01*
X15440Y-31116D01*
X15402Y-30964D01*
X15402Y-30774D01*
X15440Y-30621D01*
X15479Y-30545D01*
X15517Y-30507D01*
X15593Y-30469D01*
X16164Y-30545D02*
X16202Y-30507D01*
X16279Y-30469D01*
X16469Y-30469D01*
X16545Y-30507D01*
X16583Y-30545D01*
X16622Y-30621D01*
X16622Y-30697D01*
X16583Y-30812D01*
X16126Y-31269D01*
X16622Y-31269D01*
X16964Y-31269D02*
X16964Y-30735D01*
X16964Y-30812D02*
X17003Y-30774D01*
X17079Y-30735D01*
X17193Y-30735D01*
X17269Y-30774D01*
X17307Y-30850D01*
X17307Y-31269D01*
X17307Y-30850D02*
X17345Y-30774D01*
X17422Y-30735D01*
X17536Y-30735D01*
X17612Y-30774D01*
X17650Y-30850D01*
X17650Y-31269D01*
X18031Y-31269D02*
X18031Y-30735D01*
X18031Y-30812D02*
X18070Y-30774D01*
X18146Y-30735D01*
X18260Y-30735D01*
X18336Y-30774D01*
X18374Y-30850D01*
X18374Y-31269D01*
X18374Y-30850D02*
X18412Y-30774D01*
X18489Y-30735D01*
X18603Y-30735D01*
X18679Y-30774D01*
X18717Y-30850D01*
X18717Y-31269D01*
X19937Y-31574D02*
X19899Y-31535D01*
X19823Y-31421D01*
X19785Y-31345D01*
X19747Y-31231D01*
X19708Y-31040D01*
X19708Y-30888D01*
X19747Y-30697D01*
X19785Y-30583D01*
X19823Y-30507D01*
X19899Y-30393D01*
X19937Y-30355D01*
X20165Y-30469D02*
X20661Y-30469D01*
X20394Y-30774D01*
X20508Y-30774D01*
X20584Y-30812D01*
X20622Y-30850D01*
X20661Y-30926D01*
X20661Y-31116D01*
X20622Y-31193D01*
X20584Y-31231D01*
X20508Y-31269D01*
X20280Y-31269D01*
X20203Y-31231D01*
X20165Y-31193D01*
X21156Y-30469D02*
X21232Y-30469D01*
X21308Y-30507D01*
X21346Y-30545D01*
X21384Y-30621D01*
X21423Y-30774D01*
X21423Y-30964D01*
X21384Y-31116D01*
X21346Y-31193D01*
X21308Y-31231D01*
X21232Y-31269D01*
X21156Y-31269D01*
X21080Y-31231D01*
X21042Y-31193D01*
X21003Y-31116D01*
X20965Y-30964D01*
X20965Y-30774D01*
X21003Y-30621D01*
X21042Y-30545D01*
X21080Y-30507D01*
X21156Y-30469D01*
X22375Y-31269D02*
X22375Y-30469D01*
X22718Y-31269D02*
X22718Y-30850D01*
X22680Y-30774D01*
X22604Y-30735D01*
X22490Y-30735D01*
X22414Y-30774D01*
X22375Y-30812D01*
X23214Y-31269D02*
X23138Y-31231D01*
X23099Y-31193D01*
X23061Y-31116D01*
X23061Y-30888D01*
X23099Y-30812D01*
X23138Y-30774D01*
X23214Y-30735D01*
X23328Y-30735D01*
X23404Y-30774D01*
X23442Y-30812D01*
X23480Y-30888D01*
X23480Y-31116D01*
X23442Y-31193D01*
X23404Y-31231D01*
X23328Y-31269D01*
X23214Y-31269D01*
X23938Y-31269D02*
X23862Y-31231D01*
X23823Y-31155D01*
X23823Y-30469D01*
X24547Y-31231D02*
X24471Y-31269D01*
X24319Y-31269D01*
X24242Y-31231D01*
X24204Y-31155D01*
X24204Y-30850D01*
X24242Y-30774D01*
X24319Y-30735D01*
X24471Y-30735D01*
X24547Y-30774D01*
X24585Y-30850D01*
X24585Y-30926D01*
X24204Y-31002D01*
X24890Y-31231D02*
X24967Y-31269D01*
X25119Y-31269D01*
X25195Y-31231D01*
X25233Y-31155D01*
X25233Y-31116D01*
X25195Y-31040D01*
X25119Y-31002D01*
X25005Y-31002D01*
X24928Y-30964D01*
X24890Y-30888D01*
X24890Y-30850D01*
X24928Y-30774D01*
X25005Y-30735D01*
X25119Y-30735D01*
X25195Y-30774D01*
X25500Y-31574D02*
X25538Y-31535D01*
X25615Y-31421D01*
X25653Y-31345D01*
X25691Y-31231D01*
X25729Y-31040D01*
X25729Y-30888D01*
X25691Y-30697D01*
X25653Y-30583D01*
X25615Y-30507D01*
X25538Y-30393D01*
X25500Y-30355D01*
G54D10*
X07810Y-32000D02*
X07805Y-32048D01*
X07791Y-32095D01*
X07768Y-32138D01*
X07737Y-32176D01*
X07699Y-32207D01*
X07656Y-32230D01*
X07610Y-32244D01*
X07561Y-32249D01*
X07514Y-32245D01*
X07467Y-32231D01*
X07424Y-32209D01*
X07386Y-32178D01*
X07354Y-32141D01*
X07331Y-32098D01*
X07316Y-32051D01*
X07311Y-32003D01*
X07315Y-31955D01*
X07328Y-31908D01*
X07350Y-31865D01*
X07381Y-31827D01*
X07418Y-31795D01*
X07460Y-31771D01*
X07507Y-31756D01*
X07555Y-31751D01*
X07603Y-31754D01*
X07650Y-31767D01*
X07693Y-31789D01*
X07732Y-31819D01*
X07764Y-31856D01*
X07788Y-31899D01*
X07803Y-31945D01*
X07809Y-31994D01*
X07810Y-32000D01*
X07310Y-32000D02*
X07810Y-32000D01*
G54D12*
X08353Y-31524D02*
X08429Y-31524D01*
X08505Y-31562D01*
X08543Y-31600D01*
X08581Y-31676D01*
X08620Y-31829D01*
X08620Y-32019D01*
X08581Y-32171D01*
X08543Y-32248D01*
X08505Y-32286D01*
X08429Y-32324D01*
X08353Y-32324D01*
X08277Y-32286D01*
X08239Y-32248D01*
X08200Y-32171D01*
X08162Y-32019D01*
X08162Y-31829D01*
X08200Y-31676D01*
X08239Y-31600D01*
X08277Y-31562D01*
X08353Y-31524D01*
X08962Y-32248D02*
X09001Y-32286D01*
X08962Y-32324D01*
X08924Y-32286D01*
X08962Y-32248D01*
X08962Y-32324D01*
X09496Y-31524D02*
X09572Y-31524D01*
X09648Y-31562D01*
X09686Y-31600D01*
X09724Y-31676D01*
X09763Y-31829D01*
X09763Y-32019D01*
X09724Y-32171D01*
X09686Y-32248D01*
X09648Y-32286D01*
X09572Y-32324D01*
X09496Y-32324D01*
X09420Y-32286D01*
X09382Y-32248D01*
X09343Y-32171D01*
X09305Y-32019D01*
X09305Y-31829D01*
X09343Y-31676D01*
X09382Y-31600D01*
X09420Y-31562D01*
X09496Y-31524D01*
X10486Y-31524D02*
X10105Y-31524D01*
X10067Y-31905D01*
X10105Y-31867D01*
X10182Y-31829D01*
X10372Y-31829D01*
X10448Y-31867D01*
X10486Y-31905D01*
X10525Y-31981D01*
X10525Y-32171D01*
X10486Y-32248D01*
X10448Y-32286D01*
X10372Y-32324D01*
X10182Y-32324D01*
X10105Y-32286D01*
X10067Y-32248D01*
X11020Y-31524D02*
X11096Y-31524D01*
X11172Y-31562D01*
X11210Y-31600D01*
X11248Y-31676D01*
X11287Y-31829D01*
X11287Y-32019D01*
X11248Y-32171D01*
X11210Y-32248D01*
X11172Y-32286D01*
X11096Y-32324D01*
X11020Y-32324D01*
X10944Y-32286D01*
X10906Y-32248D01*
X10867Y-32171D01*
X10829Y-32019D01*
X10829Y-31829D01*
X10867Y-31676D01*
X10906Y-31600D01*
X10944Y-31562D01*
X11020Y-31524D01*
X11591Y-31524D02*
X11591Y-31676D01*
X11896Y-31524D02*
X11896Y-31676D01*
X13421Y-31486D02*
X12735Y-32514D01*
X14717Y-32324D02*
X14259Y-32324D01*
X14488Y-32324D02*
X14488Y-31524D01*
X14412Y-31638D01*
X14336Y-31714D01*
X14259Y-31752D01*
X15059Y-32248D02*
X15098Y-32286D01*
X15059Y-32324D01*
X15021Y-32286D01*
X15059Y-32248D01*
X15059Y-32324D01*
X15402Y-31600D02*
X15440Y-31562D01*
X15517Y-31524D01*
X15707Y-31524D01*
X15783Y-31562D01*
X15821Y-31600D01*
X15860Y-31676D01*
X15860Y-31752D01*
X15821Y-31867D01*
X15364Y-32324D01*
X15860Y-32324D01*
X16126Y-31524D02*
X16660Y-31524D01*
X16317Y-32324D01*
X16964Y-32324D02*
X16964Y-31790D01*
X16964Y-31867D02*
X17003Y-31829D01*
X17079Y-31790D01*
X17193Y-31790D01*
X17269Y-31829D01*
X17307Y-31905D01*
X17307Y-32324D01*
X17307Y-31905D02*
X17345Y-31829D01*
X17422Y-31790D01*
X17536Y-31790D01*
X17612Y-31829D01*
X17650Y-31905D01*
X17650Y-32324D01*
X18031Y-32324D02*
X18031Y-31790D01*
X18031Y-31867D02*
X18070Y-31829D01*
X18146Y-31790D01*
X18260Y-31790D01*
X18336Y-31829D01*
X18374Y-31905D01*
X18374Y-32324D01*
X18374Y-31905D02*
X18412Y-31829D01*
X18489Y-31790D01*
X18603Y-31790D01*
X18679Y-31829D01*
X18717Y-31905D01*
X18717Y-32324D01*
X19937Y-32629D02*
X19899Y-32590D01*
X19823Y-32476D01*
X19785Y-32400D01*
X19747Y-32286D01*
X19708Y-32095D01*
X19708Y-31943D01*
X19747Y-31752D01*
X19785Y-31638D01*
X19823Y-31562D01*
X19899Y-31448D01*
X19937Y-31410D01*
X20165Y-31524D02*
X20661Y-31524D01*
X20394Y-31829D01*
X20508Y-31829D01*
X20584Y-31867D01*
X20622Y-31905D01*
X20661Y-31981D01*
X20661Y-32171D01*
X20622Y-32248D01*
X20584Y-32286D01*
X20508Y-32324D01*
X20280Y-32324D01*
X20203Y-32286D01*
X20165Y-32248D01*
X21613Y-32324D02*
X21613Y-31524D01*
X21956Y-32324D02*
X21956Y-31905D01*
X21918Y-31829D01*
X21842Y-31790D01*
X21728Y-31790D01*
X21652Y-31829D01*
X21613Y-31867D01*
X22452Y-32324D02*
X22376Y-32286D01*
X22337Y-32248D01*
X22299Y-32171D01*
X22299Y-31943D01*
X22337Y-31867D01*
X22376Y-31829D01*
X22452Y-31790D01*
X22566Y-31790D01*
X22642Y-31829D01*
X22680Y-31867D01*
X22718Y-31943D01*
X22718Y-32171D01*
X22680Y-32248D01*
X22642Y-32286D01*
X22566Y-32324D01*
X22452Y-32324D01*
X23176Y-32324D02*
X23100Y-32286D01*
X23061Y-32210D01*
X23061Y-31524D01*
X23785Y-32286D02*
X23709Y-32324D01*
X23557Y-32324D01*
X23480Y-32286D01*
X23442Y-32210D01*
X23442Y-31905D01*
X23480Y-31829D01*
X23557Y-31790D01*
X23709Y-31790D01*
X23785Y-31829D01*
X23823Y-31905D01*
X23823Y-31981D01*
X23442Y-32057D01*
X24128Y-32286D02*
X24205Y-32324D01*
X24357Y-32324D01*
X24433Y-32286D01*
X24471Y-32210D01*
X24471Y-32171D01*
X24433Y-32095D01*
X24357Y-32057D01*
X24243Y-32057D01*
X24166Y-32019D01*
X24128Y-31943D01*
X24128Y-31905D01*
X24166Y-31829D01*
X24243Y-31790D01*
X24357Y-31790D01*
X24433Y-31829D01*
X24738Y-32629D02*
X24776Y-32590D01*
X24853Y-32476D01*
X24891Y-32400D01*
X24929Y-32286D01*
X24967Y-32095D01*
X24967Y-31943D01*
X24929Y-31752D01*
X24891Y-31638D01*
X24853Y-31562D01*
X24776Y-31448D01*
X24738Y-31410D01*
G54D10*
X07810Y-33055D02*
X07798Y-33171D01*
X07764Y-33283D01*
X07709Y-33387D01*
X07635Y-33477D01*
X07545Y-33552D01*
X07442Y-33608D01*
X07330Y-33642D01*
X07214Y-33654D01*
X07098Y-33644D01*
X06986Y-33611D01*
X06882Y-33557D01*
X06791Y-33483D01*
X06715Y-33393D01*
X06659Y-33291D01*
X06624Y-33179D01*
X06611Y-33063D01*
X06620Y-32947D01*
X06653Y-32835D01*
X06706Y-32730D01*
X06779Y-32639D01*
X06868Y-32563D01*
X06970Y-32506D01*
X07082Y-32469D01*
X07198Y-32456D01*
X07314Y-32465D01*
X07426Y-32496D01*
X07531Y-32549D01*
X07623Y-32621D01*
X07700Y-32710D01*
X07758Y-32811D01*
X07795Y-32923D01*
X07809Y-33039D01*
X07810Y-33055D01*
X07210Y-32455D02*
X07210Y-33655D01*
G54D12*
X08353Y-32579D02*
X08429Y-32579D01*
X08505Y-32617D01*
X08543Y-32655D01*
X08581Y-32731D01*
X08620Y-32884D01*
X08620Y-33074D01*
X08581Y-33226D01*
X08543Y-33303D01*
X08505Y-33341D01*
X08429Y-33379D01*
X08353Y-33379D01*
X08277Y-33341D01*
X08239Y-33303D01*
X08200Y-33226D01*
X08162Y-33074D01*
X08162Y-32884D01*
X08200Y-32731D01*
X08239Y-32655D01*
X08277Y-32617D01*
X08353Y-32579D01*
X08962Y-33303D02*
X09001Y-33341D01*
X08962Y-33379D01*
X08924Y-33341D01*
X08962Y-33303D01*
X08962Y-33379D01*
X09763Y-33379D02*
X09305Y-33379D01*
X09534Y-33379D02*
X09534Y-32579D01*
X09458Y-32693D01*
X09382Y-32769D01*
X09305Y-32807D01*
X10067Y-32655D02*
X10105Y-32617D01*
X10182Y-32579D01*
X10372Y-32579D01*
X10448Y-32617D01*
X10486Y-32655D01*
X10525Y-32731D01*
X10525Y-32807D01*
X10486Y-32922D01*
X10029Y-33379D01*
X10525Y-33379D01*
X11020Y-32579D02*
X11096Y-32579D01*
X11172Y-32617D01*
X11210Y-32655D01*
X11248Y-32731D01*
X11287Y-32884D01*
X11287Y-33074D01*
X11248Y-33226D01*
X11210Y-33303D01*
X11172Y-33341D01*
X11096Y-33379D01*
X11020Y-33379D01*
X10944Y-33341D01*
X10906Y-33303D01*
X10867Y-33226D01*
X10829Y-33074D01*
X10829Y-32884D01*
X10867Y-32731D01*
X10906Y-32655D01*
X10944Y-32617D01*
X11020Y-32579D01*
X11591Y-32579D02*
X11591Y-32731D01*
X11896Y-32579D02*
X11896Y-32731D01*
X13421Y-32541D02*
X12735Y-33569D01*
X14221Y-32579D02*
X14717Y-32579D01*
X14450Y-32884D01*
X14564Y-32884D01*
X14640Y-32922D01*
X14678Y-32960D01*
X14717Y-33036D01*
X14717Y-33226D01*
X14678Y-33303D01*
X14640Y-33341D01*
X14564Y-33379D01*
X14336Y-33379D01*
X14259Y-33341D01*
X14221Y-33303D01*
X15059Y-33303D02*
X15098Y-33341D01*
X15059Y-33379D01*
X15021Y-33341D01*
X15059Y-33303D01*
X15059Y-33379D01*
X15593Y-32579D02*
X15669Y-32579D01*
X15745Y-32617D01*
X15783Y-32655D01*
X15821Y-32731D01*
X15860Y-32884D01*
X15860Y-33074D01*
X15821Y-33226D01*
X15783Y-33303D01*
X15745Y-33341D01*
X15669Y-33379D01*
X15593Y-33379D01*
X15517Y-33341D01*
X15479Y-33303D01*
X15440Y-33226D01*
X15402Y-33074D01*
X15402Y-32884D01*
X15440Y-32731D01*
X15479Y-32655D01*
X15517Y-32617D01*
X15593Y-32579D01*
X16583Y-32579D02*
X16202Y-32579D01*
X16164Y-32960D01*
X16202Y-32922D01*
X16279Y-32884D01*
X16469Y-32884D01*
X16545Y-32922D01*
X16583Y-32960D01*
X16622Y-33036D01*
X16622Y-33226D01*
X16583Y-33303D01*
X16545Y-33341D01*
X16469Y-33379D01*
X16279Y-33379D01*
X16202Y-33341D01*
X16164Y-33303D01*
X16964Y-33379D02*
X16964Y-32845D01*
X16964Y-32922D02*
X17003Y-32884D01*
X17079Y-32845D01*
X17193Y-32845D01*
X17269Y-32884D01*
X17307Y-32960D01*
X17307Y-33379D01*
X17307Y-32960D02*
X17345Y-32884D01*
X17422Y-32845D01*
X17536Y-32845D01*
X17612Y-32884D01*
X17650Y-32960D01*
X17650Y-33379D01*
X18031Y-33379D02*
X18031Y-32845D01*
X18031Y-32922D02*
X18070Y-32884D01*
X18146Y-32845D01*
X18260Y-32845D01*
X18336Y-32884D01*
X18374Y-32960D01*
X18374Y-33379D01*
X18374Y-32960D02*
X18412Y-32884D01*
X18489Y-32845D01*
X18603Y-32845D01*
X18679Y-32884D01*
X18717Y-32960D01*
X18717Y-33379D01*
X19937Y-33684D02*
X19899Y-33645D01*
X19823Y-33531D01*
X19785Y-33455D01*
X19747Y-33341D01*
X19708Y-33150D01*
X19708Y-32998D01*
X19747Y-32807D01*
X19785Y-32693D01*
X19823Y-32617D01*
X19899Y-32503D01*
X19937Y-32465D01*
X20584Y-32579D02*
X20432Y-32579D01*
X20356Y-32617D01*
X20318Y-32655D01*
X20241Y-32769D01*
X20203Y-32922D01*
X20203Y-33226D01*
X20241Y-33303D01*
X20280Y-33341D01*
X20356Y-33379D01*
X20508Y-33379D01*
X20584Y-33341D01*
X20622Y-33303D01*
X20661Y-33226D01*
X20661Y-33036D01*
X20622Y-32960D01*
X20584Y-32922D01*
X20508Y-32884D01*
X20356Y-32884D01*
X20280Y-32922D01*
X20241Y-32960D01*
X20203Y-33036D01*
X21613Y-33379D02*
X21613Y-32579D01*
X21956Y-33379D02*
X21956Y-32960D01*
X21918Y-32884D01*
X21842Y-32845D01*
X21728Y-32845D01*
X21652Y-32884D01*
X21613Y-32922D01*
X22452Y-33379D02*
X22376Y-33341D01*
X22337Y-33303D01*
X22299Y-33226D01*
X22299Y-32998D01*
X22337Y-32922D01*
X22376Y-32884D01*
X22452Y-32845D01*
X22566Y-32845D01*
X22642Y-32884D01*
X22680Y-32922D01*
X22718Y-32998D01*
X22718Y-33226D01*
X22680Y-33303D01*
X22642Y-33341D01*
X22566Y-33379D01*
X22452Y-33379D01*
X23176Y-33379D02*
X23100Y-33341D01*
X23061Y-33265D01*
X23061Y-32579D01*
X23785Y-33341D02*
X23709Y-33379D01*
X23557Y-33379D01*
X23480Y-33341D01*
X23442Y-33265D01*
X23442Y-32960D01*
X23480Y-32884D01*
X23557Y-32845D01*
X23709Y-32845D01*
X23785Y-32884D01*
X23823Y-32960D01*
X23823Y-33036D01*
X23442Y-33112D01*
X24128Y-33341D02*
X24205Y-33379D01*
X24357Y-33379D01*
X24433Y-33341D01*
X24471Y-33265D01*
X24471Y-33226D01*
X24433Y-33150D01*
X24357Y-33112D01*
X24243Y-33112D01*
X24166Y-33074D01*
X24128Y-32998D01*
X24128Y-32960D01*
X24166Y-32884D01*
X24243Y-32845D01*
X24357Y-32845D01*
X24433Y-32884D01*
X24738Y-33684D02*
X24776Y-33645D01*
X24853Y-33531D01*
X24891Y-33455D01*
X24929Y-33341D01*
X24967Y-33150D01*
X24967Y-32998D01*
X24929Y-32807D01*
X24891Y-32693D01*
X24853Y-32617D01*
X24776Y-32503D01*
X24738Y-32465D01*
M02*
