G04 (created by PCBNEW-RS274X (2010-04-21 BZR 23xx)-stable) date Tue 15 Mar 2011 06:31:09 AM CET*
G01*
G70*
G90*
%MOIN*%
G04 Gerber Fmt 3.4, Leading zero omitted, Abs format*
%FSLAX34Y34*%
G04 APERTURE LIST*
%ADD10C,0.006000*%
%ADD11C,0.015000*%
%ADD12R,0.060000X0.060000*%
%ADD13C,0.060000*%
%ADD14C,0.100000*%
%ADD15O,0.052000X0.104000*%
%ADD16R,0.055000X0.055000*%
%ADD17C,0.055000*%
%ADD18C,0.080000*%
%ADD19C,0.160000*%
%ADD20C,0.035000*%
%ADD21C,0.012000*%
%ADD22C,0.028000*%
%ADD23C,0.080000*%
%ADD24C,0.010000*%
G04 APERTURE END LIST*
G54D10*
G54D11*
X08000Y-11500D02*
X108000Y-11500D01*
X08000Y-24000D02*
X08000Y-11500D01*
X09000Y-24000D02*
X08000Y-24000D01*
X108000Y-24000D02*
X107000Y-24000D01*
X108000Y-11500D02*
X108000Y-24000D01*
X107000Y-24000D02*
X09000Y-24000D01*
G54D12*
X61500Y-16500D03*
G54D13*
X61500Y-17500D03*
X60500Y-16500D03*
X60500Y-17500D03*
X59500Y-16500D03*
X59500Y-17500D03*
G54D14*
X44000Y-21000D03*
X44000Y-19000D03*
X12500Y-19000D03*
X12500Y-21000D03*
X12500Y-14500D03*
X12500Y-16500D03*
X17000Y-16500D03*
X17000Y-14500D03*
X17000Y-21000D03*
X17000Y-19000D03*
X21500Y-19000D03*
X21500Y-21000D03*
X21500Y-14500D03*
X21500Y-16500D03*
X26000Y-16500D03*
X26000Y-14500D03*
X26000Y-21000D03*
X26000Y-19000D03*
X30500Y-19000D03*
X30500Y-21000D03*
X30500Y-14500D03*
X30500Y-16500D03*
X35000Y-16500D03*
X35000Y-14500D03*
X35000Y-21000D03*
X35000Y-19000D03*
X39500Y-19000D03*
X39500Y-21000D03*
X39500Y-14500D03*
X39500Y-16500D03*
X44000Y-16500D03*
X44000Y-14500D03*
G54D15*
X67484Y-20800D03*
X66500Y-20800D03*
X65516Y-20800D03*
G54D13*
X62700Y-12575D03*
X65250Y-12575D03*
X62700Y-14325D03*
X65250Y-14325D03*
X59200Y-12575D03*
X61750Y-12575D03*
X59200Y-14325D03*
X61750Y-14325D03*
X55700Y-12575D03*
X58250Y-12575D03*
X55700Y-14325D03*
X58250Y-14325D03*
G54D14*
X103500Y-21000D03*
X103500Y-19000D03*
X103500Y-16500D03*
X103500Y-14500D03*
X99000Y-14500D03*
X99000Y-16500D03*
X99000Y-19000D03*
X99000Y-21000D03*
X94500Y-21000D03*
X94500Y-19000D03*
X94500Y-16500D03*
X94500Y-14500D03*
X90000Y-14500D03*
X90000Y-16500D03*
X90000Y-19000D03*
X90000Y-21000D03*
X85500Y-21000D03*
X85500Y-19000D03*
X85500Y-16500D03*
X85500Y-14500D03*
X81000Y-14500D03*
X81000Y-16500D03*
X81000Y-19000D03*
X81000Y-21000D03*
X76500Y-21000D03*
X76500Y-19000D03*
X76500Y-16500D03*
X76500Y-14500D03*
X72000Y-14500D03*
X72000Y-16500D03*
X72000Y-19000D03*
X72000Y-21000D03*
G54D16*
X55285Y-16021D03*
G54D17*
X55285Y-17021D03*
G54D18*
X52495Y-21720D03*
X48495Y-20720D03*
X52495Y-19720D03*
G54D12*
X09000Y-20500D03*
G54D13*
X09000Y-19500D03*
X09000Y-18500D03*
X09000Y-17500D03*
X09000Y-16500D03*
X09000Y-15500D03*
G54D12*
X107000Y-20500D03*
G54D13*
X107000Y-19500D03*
X107000Y-18500D03*
X107000Y-17500D03*
X107000Y-16500D03*
X107000Y-15500D03*
G54D19*
X106500Y-22500D03*
X09500Y-13000D03*
X09500Y-22500D03*
X106500Y-13000D03*
X74500Y-13000D03*
X41500Y-13000D03*
G54D20*
X58580Y-20233D03*
X61175Y-18642D03*
X62335Y-18312D03*
X58692Y-19740D03*
X29398Y-22684D03*
X47671Y-22965D03*
X58471Y-22704D03*
X72750Y-22931D03*
X62865Y-22385D03*
X63599Y-21118D03*
X65576Y-22207D03*
X73996Y-19672D03*
X71170Y-23236D03*
X69669Y-20264D03*
X69873Y-14132D03*
X47595Y-17928D03*
X67946Y-17256D03*
X66163Y-17496D03*
X63911Y-16628D03*
X67950Y-19210D03*
X54517Y-20541D03*
X57384Y-20498D03*
X64195Y-19637D03*
X105300Y-18912D03*
X49346Y-15947D03*
X47101Y-14755D03*
X50243Y-12427D03*
X27101Y-17035D03*
X66858Y-17341D03*
X68474Y-15337D03*
X60516Y-21980D03*
X66728Y-15157D03*
X64235Y-17092D03*
X61630Y-18588D03*
G54D21*
X60827Y-18642D02*
X59964Y-17779D01*
X61175Y-18642D02*
X60827Y-18642D01*
X59964Y-17036D02*
X59964Y-17779D01*
X60500Y-16500D02*
X59964Y-17036D01*
X58229Y-19882D02*
X58580Y-20233D01*
X58229Y-19514D02*
X58229Y-19882D01*
X59964Y-17779D02*
X58229Y-19514D01*
X61500Y-16500D02*
X61500Y-16837D01*
X62335Y-17672D02*
X62335Y-18312D01*
X61500Y-16837D02*
X62335Y-17672D01*
X61349Y-19740D02*
X58692Y-19740D01*
X62335Y-18754D02*
X61349Y-19740D01*
X62335Y-18312D02*
X62335Y-18754D01*
G54D22*
X27684Y-22684D02*
X26000Y-21000D01*
X29398Y-22684D02*
X27684Y-22684D01*
X36965Y-22965D02*
X35000Y-21000D01*
X47671Y-22965D02*
X36965Y-22965D01*
X46888Y-21000D02*
X44000Y-21000D01*
X48592Y-22704D02*
X46888Y-21000D01*
X58471Y-22704D02*
X48592Y-22704D01*
X74681Y-21000D02*
X76500Y-21000D01*
X72750Y-22931D02*
X74681Y-21000D01*
X82844Y-23656D02*
X85500Y-21000D01*
X64136Y-23656D02*
X82844Y-23656D01*
X62865Y-22385D02*
X64136Y-23656D01*
X64487Y-21118D02*
X65576Y-22207D01*
X63599Y-21118D02*
X64487Y-21118D01*
G54D21*
X73996Y-20410D02*
X71170Y-23236D01*
X73996Y-19672D02*
X73996Y-20410D01*
X69669Y-14336D02*
X69873Y-14132D01*
X69669Y-20264D02*
X69669Y-14336D01*
G54D23*
X86750Y-17750D02*
X90000Y-21000D01*
X84250Y-17750D02*
X86750Y-17750D01*
X81000Y-21000D02*
X84250Y-17750D01*
X97984Y-22016D02*
X99000Y-21000D01*
X91016Y-22016D02*
X97984Y-22016D01*
X90000Y-21000D02*
X91016Y-22016D01*
X20490Y-22010D02*
X21500Y-21000D01*
X13510Y-22010D02*
X20490Y-22010D01*
X12500Y-21000D02*
X13510Y-22010D01*
X09000Y-18500D02*
X09000Y-17500D01*
X27496Y-17996D02*
X30500Y-21000D01*
X24504Y-17996D02*
X27496Y-17996D01*
X21500Y-21000D02*
X24504Y-17996D01*
X33504Y-17996D02*
X30500Y-21000D01*
X36496Y-17996D02*
X33504Y-17996D01*
X39500Y-21000D02*
X36496Y-17996D01*
X42572Y-17928D02*
X39500Y-21000D01*
X47595Y-17928D02*
X42572Y-17928D01*
X72000Y-20709D02*
X72000Y-21000D01*
X74959Y-17750D02*
X72000Y-20709D01*
X77750Y-17750D02*
X74959Y-17750D01*
X81000Y-21000D02*
X77750Y-17750D01*
X53183Y-17928D02*
X47595Y-17928D01*
X56516Y-21261D02*
X53183Y-17928D01*
X62701Y-21261D02*
X56516Y-21261D01*
X64452Y-23012D02*
X62701Y-21261D01*
X69988Y-23012D02*
X64452Y-23012D01*
X72000Y-21000D02*
X69988Y-23012D01*
X107000Y-17500D02*
X107000Y-17974D01*
X107000Y-17974D02*
X107000Y-18500D01*
X102026Y-17974D02*
X99000Y-21000D01*
X107000Y-17974D02*
X102026Y-17974D01*
G54D21*
X68472Y-20235D02*
X67907Y-20800D01*
X68472Y-17782D02*
X68472Y-20235D01*
X67946Y-17256D02*
X68472Y-17782D01*
X67484Y-20800D02*
X67907Y-20800D01*
X66163Y-20153D02*
X65516Y-20800D01*
X66163Y-17496D02*
X66163Y-20153D01*
X63911Y-13204D02*
X63911Y-16628D01*
X62379Y-13204D02*
X63911Y-13204D01*
X61750Y-12575D02*
X62379Y-13204D01*
X64621Y-13204D02*
X65250Y-12575D01*
X63911Y-13204D02*
X64621Y-13204D01*
X66923Y-20237D02*
X67950Y-19210D01*
X66923Y-20800D02*
X66923Y-20237D01*
X66500Y-20800D02*
X66923Y-20800D01*
X55285Y-17021D02*
X57632Y-19368D01*
X57632Y-19368D02*
X59500Y-17500D01*
X66500Y-20800D02*
X66077Y-20800D01*
X66077Y-21101D02*
X66077Y-20800D01*
X65540Y-21638D02*
X66077Y-21101D01*
X65492Y-21638D02*
X65540Y-21638D01*
X64528Y-20674D02*
X65492Y-21638D01*
X58056Y-20674D02*
X64528Y-20674D01*
X57632Y-20250D02*
X58056Y-20674D01*
X57384Y-20498D02*
X57632Y-20250D01*
X57632Y-20250D02*
X57632Y-19368D01*
X53338Y-21720D02*
X54517Y-20541D01*
X52495Y-21720D02*
X53338Y-21720D01*
G54D23*
X74500Y-13000D02*
X106500Y-13000D01*
X107000Y-15500D02*
X107000Y-16500D01*
X09000Y-13500D02*
X09000Y-15500D01*
X09500Y-13000D02*
X09000Y-13500D01*
X09000Y-15500D02*
X09000Y-16500D01*
X09473Y-16500D02*
X09000Y-16500D01*
X09903Y-16930D02*
X09473Y-16500D01*
X09903Y-22097D02*
X09903Y-16930D01*
X09500Y-22500D02*
X09903Y-22097D01*
X64195Y-18164D02*
X64195Y-19637D01*
X105300Y-21300D02*
X105300Y-18912D01*
X106500Y-22500D02*
X105300Y-21300D01*
X62454Y-16423D02*
X64195Y-18164D01*
X62454Y-15897D02*
X62454Y-16423D01*
X62136Y-15579D02*
X62454Y-15897D01*
X58128Y-15579D02*
X62136Y-15579D01*
X56056Y-13507D02*
X58128Y-15579D01*
X51753Y-13507D02*
X56056Y-13507D01*
X49346Y-15914D02*
X51753Y-13507D01*
X49346Y-15914D02*
X49346Y-15947D01*
X65541Y-16818D02*
X64195Y-18164D01*
X66034Y-16818D02*
X65541Y-16818D01*
X69852Y-13000D02*
X66034Y-16818D01*
X74500Y-13000D02*
X69852Y-13000D01*
X46432Y-13000D02*
X41500Y-13000D01*
X49346Y-15914D02*
X46432Y-13000D01*
X41500Y-13000D02*
X09500Y-13000D01*
X107000Y-13500D02*
X107000Y-15500D01*
X106500Y-13000D02*
X107000Y-13500D01*
G54D22*
X90000Y-19000D02*
X90000Y-16500D01*
X94500Y-16500D02*
X94500Y-19000D01*
X99000Y-19000D02*
X99000Y-16500D01*
X81000Y-19000D02*
X81000Y-16500D01*
G54D21*
X48857Y-16511D02*
X47101Y-14755D01*
X53514Y-16511D02*
X48857Y-16511D01*
X55700Y-14325D02*
X53514Y-16511D01*
X50813Y-11857D02*
X50243Y-12427D01*
X56732Y-11857D02*
X50813Y-11857D01*
X59200Y-14325D02*
X56732Y-11857D01*
G54D22*
X72000Y-19000D02*
X72000Y-16500D01*
X21500Y-16500D02*
X21500Y-19000D01*
X26535Y-17035D02*
X26000Y-16500D01*
X27101Y-17035D02*
X26535Y-17035D01*
G54D21*
X68474Y-15725D02*
X68474Y-15337D01*
X66858Y-17341D02*
X68474Y-15725D01*
G54D22*
X12500Y-16500D02*
X12500Y-19000D01*
X17000Y-19000D02*
X17000Y-16500D01*
G54D21*
X60212Y-22284D02*
X60516Y-21980D01*
X50059Y-22284D02*
X60212Y-22284D01*
X48495Y-20720D02*
X50059Y-22284D01*
X66170Y-15157D02*
X64235Y-17092D01*
X66728Y-15157D02*
X66170Y-15157D01*
X61630Y-17630D02*
X61630Y-18588D01*
X61500Y-17500D02*
X61630Y-17630D01*
G54D10*
G36*
X107725Y-23725D02*
X107725Y-11775D01*
X57088Y-11775D01*
X57723Y-12410D01*
X57785Y-12264D01*
X57939Y-12110D01*
X58141Y-12026D01*
X58359Y-12026D01*
X58561Y-12110D01*
X58715Y-12264D01*
X58725Y-12288D01*
X58735Y-12264D01*
X58889Y-12110D01*
X59091Y-12026D01*
X59309Y-12026D01*
X59511Y-12110D01*
X59665Y-12264D01*
X59749Y-12466D01*
X59749Y-12684D01*
X59665Y-12886D01*
X59511Y-13040D01*
X59309Y-13124D01*
X59091Y-13124D01*
X58889Y-13040D01*
X58735Y-12886D01*
X58725Y-12861D01*
X58715Y-12886D01*
X58561Y-13040D01*
X58414Y-13101D01*
X59089Y-13776D01*
X59309Y-13776D01*
X59511Y-13860D01*
X59665Y-14014D01*
X59749Y-14216D01*
X59749Y-14434D01*
X59665Y-14636D01*
X59511Y-14790D01*
X59309Y-14874D01*
X59091Y-14874D01*
X58889Y-14790D01*
X58735Y-14636D01*
X58725Y-14611D01*
X58715Y-14636D01*
X58561Y-14790D01*
X58359Y-14874D01*
X58141Y-14874D01*
X57939Y-14790D01*
X57785Y-14636D01*
X57701Y-14434D01*
X57701Y-14216D01*
X57785Y-14014D01*
X57939Y-13860D01*
X58141Y-13776D01*
X58213Y-13776D01*
X56604Y-12167D01*
X56068Y-12167D01*
X56165Y-12264D01*
X56249Y-12466D01*
X56249Y-12684D01*
X56165Y-12886D01*
X56011Y-13040D01*
X55809Y-13124D01*
X55591Y-13124D01*
X55389Y-13040D01*
X55235Y-12886D01*
X55151Y-12684D01*
X55151Y-12466D01*
X55235Y-12264D01*
X55332Y-12167D01*
X50941Y-12167D01*
X50668Y-12440D01*
X50668Y-12512D01*
X50603Y-12668D01*
X50483Y-12788D01*
X50327Y-12852D01*
X50158Y-12852D01*
X50002Y-12787D01*
X49882Y-12667D01*
X49818Y-12511D01*
X49818Y-12342D01*
X49883Y-12186D01*
X50003Y-12066D01*
X50159Y-12002D01*
X50229Y-12002D01*
X50456Y-11775D01*
X08275Y-11775D01*
X08275Y-23725D01*
X08650Y-23725D01*
X08767Y-23725D01*
X08767Y-23162D01*
X08650Y-23092D01*
X08623Y-23076D01*
X08473Y-22714D01*
X08470Y-22304D01*
X08623Y-21924D01*
X08650Y-21907D01*
X08650Y-21049D01*
X08559Y-21011D01*
X08489Y-20941D01*
X08451Y-20849D01*
X08451Y-20150D01*
X08489Y-20059D01*
X08559Y-19989D01*
X08651Y-19951D01*
X08675Y-19951D01*
X08535Y-19811D01*
X08451Y-19609D01*
X08451Y-19391D01*
X08535Y-19189D01*
X08674Y-19049D01*
X08540Y-18960D01*
X08399Y-18749D01*
X08350Y-18500D01*
X08350Y-17500D01*
X08399Y-17251D01*
X08540Y-17040D01*
X08622Y-16985D01*
X08622Y-16808D01*
X08528Y-16781D01*
X08468Y-16634D01*
X08457Y-16421D01*
X08528Y-16219D01*
X08622Y-16192D01*
X08622Y-15808D01*
X08528Y-15781D01*
X08468Y-15634D01*
X08457Y-15421D01*
X08528Y-15219D01*
X08622Y-15192D01*
X08929Y-15500D01*
X08622Y-15808D01*
X08622Y-16192D01*
X08929Y-16500D01*
X08622Y-16808D01*
X08622Y-16985D01*
X08706Y-16928D01*
X08692Y-16878D01*
X09000Y-16571D01*
X09000Y-16429D01*
X08692Y-16122D01*
X08719Y-16028D01*
X08792Y-15997D01*
X08719Y-15972D01*
X08692Y-15878D01*
X09000Y-15571D01*
X09000Y-15429D01*
X08692Y-15122D01*
X08719Y-15028D01*
X08767Y-15008D01*
X08767Y-13662D01*
X08623Y-13576D01*
X08473Y-13214D01*
X08470Y-12804D01*
X08623Y-12424D01*
X08767Y-12338D01*
X09429Y-13000D01*
X08767Y-13662D01*
X08767Y-15008D01*
X08866Y-14968D01*
X09079Y-14957D01*
X09281Y-15028D01*
X09304Y-15108D01*
X09304Y-14030D01*
X08924Y-13877D01*
X08838Y-13733D01*
X09500Y-13071D01*
X09500Y-12929D01*
X08838Y-12267D01*
X08924Y-12123D01*
X09286Y-11973D01*
X09696Y-11970D01*
X10076Y-12123D01*
X10162Y-12267D01*
X09500Y-12929D01*
X09500Y-13071D01*
X10162Y-13733D01*
X10076Y-13877D01*
X09714Y-14027D01*
X09304Y-14030D01*
X09304Y-15108D01*
X09308Y-15122D01*
X09000Y-15429D01*
X09000Y-15571D01*
X09308Y-15878D01*
X09281Y-15972D01*
X09207Y-16002D01*
X09281Y-16028D01*
X09308Y-16122D01*
X09000Y-16429D01*
X09000Y-16571D01*
X09308Y-16878D01*
X09293Y-16928D01*
X09378Y-16985D01*
X09378Y-16808D01*
X09071Y-16500D01*
X09378Y-16192D01*
X09378Y-15808D01*
X09071Y-15500D01*
X09378Y-15192D01*
X09472Y-15219D01*
X09532Y-15366D01*
X09543Y-15579D01*
X09472Y-15781D01*
X09378Y-15808D01*
X09378Y-16192D01*
X09472Y-16219D01*
X09532Y-16366D01*
X09543Y-16579D01*
X09472Y-16781D01*
X09378Y-16808D01*
X09378Y-16985D01*
X09460Y-17040D01*
X09601Y-17251D01*
X09650Y-17500D01*
X09650Y-18500D01*
X09601Y-18749D01*
X09460Y-18960D01*
X09325Y-19049D01*
X09465Y-19189D01*
X09549Y-19391D01*
X09549Y-19609D01*
X09465Y-19811D01*
X09324Y-19951D01*
X09350Y-19951D01*
X09441Y-19989D01*
X09511Y-20059D01*
X09549Y-20151D01*
X09549Y-20850D01*
X09511Y-20941D01*
X09441Y-21011D01*
X09349Y-21049D01*
X08650Y-21049D01*
X08650Y-21907D01*
X08767Y-21838D01*
X09429Y-22500D01*
X08767Y-23162D01*
X08767Y-23725D01*
X09304Y-23725D01*
X09304Y-23530D01*
X08924Y-23377D01*
X08838Y-23233D01*
X09500Y-22571D01*
X09500Y-22429D01*
X08838Y-21767D01*
X08924Y-21623D01*
X09286Y-21473D01*
X09696Y-21470D01*
X10076Y-21623D01*
X10162Y-21767D01*
X09500Y-22429D01*
X09500Y-22571D01*
X10162Y-23233D01*
X10076Y-23377D01*
X09714Y-23527D01*
X09304Y-23530D01*
X09304Y-23725D01*
X10233Y-23725D01*
X10233Y-23162D01*
X09571Y-22500D01*
X10233Y-21838D01*
X10233Y-13662D01*
X09571Y-13000D01*
X10233Y-12338D01*
X10377Y-12424D01*
X10527Y-12786D01*
X10530Y-13196D01*
X10377Y-13576D01*
X10233Y-13662D01*
X10233Y-21838D01*
X10377Y-21924D01*
X10527Y-22286D01*
X10530Y-22696D01*
X10377Y-23076D01*
X10233Y-23162D01*
X10233Y-23725D01*
X29313Y-23725D01*
X29313Y-23109D01*
X29229Y-23074D01*
X27684Y-23074D01*
X27534Y-23044D01*
X27408Y-22960D01*
X27406Y-22957D01*
X26182Y-21734D01*
X26148Y-21749D01*
X25850Y-21749D01*
X25575Y-21634D01*
X25365Y-21423D01*
X25251Y-21148D01*
X25251Y-20850D01*
X25366Y-20575D01*
X25577Y-20365D01*
X25852Y-20251D01*
X26150Y-20251D01*
X26425Y-20366D01*
X26635Y-20577D01*
X26749Y-20852D01*
X26749Y-21150D01*
X26735Y-21183D01*
X27845Y-22294D01*
X29228Y-22294D01*
X29314Y-22259D01*
X29483Y-22259D01*
X29639Y-22324D01*
X29759Y-22444D01*
X29823Y-22600D01*
X29823Y-22769D01*
X29758Y-22925D01*
X29638Y-23045D01*
X29482Y-23109D01*
X29313Y-23109D01*
X29313Y-23725D01*
X47586Y-23725D01*
X47586Y-23390D01*
X47502Y-23355D01*
X36965Y-23355D01*
X36964Y-23354D01*
X36964Y-23355D01*
X36933Y-23348D01*
X36816Y-23325D01*
X36689Y-23241D01*
X36687Y-23238D01*
X35182Y-21734D01*
X35148Y-21749D01*
X34850Y-21749D01*
X34575Y-21634D01*
X34365Y-21423D01*
X34251Y-21148D01*
X34251Y-20850D01*
X34366Y-20575D01*
X34577Y-20365D01*
X34852Y-20251D01*
X35150Y-20251D01*
X35425Y-20366D01*
X35635Y-20577D01*
X35749Y-20852D01*
X35749Y-21150D01*
X35735Y-21183D01*
X37126Y-22575D01*
X47501Y-22575D01*
X47587Y-22540D01*
X47756Y-22540D01*
X47912Y-22605D01*
X48032Y-22725D01*
X48096Y-22881D01*
X48096Y-23050D01*
X48031Y-23206D01*
X47911Y-23326D01*
X47755Y-23390D01*
X47586Y-23390D01*
X47586Y-23725D01*
X63653Y-23725D01*
X62708Y-22780D01*
X62624Y-22745D01*
X62504Y-22625D01*
X62440Y-22469D01*
X62440Y-22300D01*
X62505Y-22144D01*
X62584Y-22064D01*
X62431Y-21911D01*
X60941Y-21911D01*
X60941Y-22065D01*
X60876Y-22221D01*
X60756Y-22341D01*
X60600Y-22405D01*
X60529Y-22405D01*
X60431Y-22503D01*
X60331Y-22570D01*
X60212Y-22594D01*
X58885Y-22594D01*
X58896Y-22620D01*
X58896Y-22789D01*
X58831Y-22945D01*
X58711Y-23065D01*
X58555Y-23129D01*
X58386Y-23129D01*
X58302Y-23094D01*
X48592Y-23094D01*
X48591Y-23093D01*
X48591Y-23094D01*
X48560Y-23087D01*
X48443Y-23064D01*
X48316Y-22980D01*
X48314Y-22977D01*
X46726Y-21390D01*
X44648Y-21390D01*
X44634Y-21425D01*
X44423Y-21635D01*
X44148Y-21749D01*
X43850Y-21749D01*
X43575Y-21634D01*
X43365Y-21423D01*
X43251Y-21148D01*
X43251Y-20850D01*
X43366Y-20575D01*
X43577Y-20365D01*
X43852Y-20251D01*
X44150Y-20251D01*
X44425Y-20366D01*
X44635Y-20577D01*
X44648Y-20610D01*
X46888Y-20610D01*
X47037Y-20640D01*
X47164Y-20724D01*
X48753Y-22314D01*
X49650Y-22314D01*
X48681Y-21345D01*
X48624Y-21369D01*
X48366Y-21369D01*
X48127Y-21270D01*
X47945Y-21088D01*
X47846Y-20849D01*
X47846Y-20591D01*
X47945Y-20352D01*
X48127Y-20170D01*
X48366Y-20071D01*
X48624Y-20071D01*
X48863Y-20170D01*
X49045Y-20352D01*
X49144Y-20591D01*
X49144Y-20849D01*
X49120Y-20906D01*
X50187Y-21974D01*
X51897Y-21974D01*
X51846Y-21849D01*
X51846Y-21591D01*
X51945Y-21352D01*
X52127Y-21170D01*
X52366Y-21071D01*
X52366Y-20369D01*
X52127Y-20270D01*
X51945Y-20088D01*
X51846Y-19849D01*
X51846Y-19591D01*
X51945Y-19352D01*
X52127Y-19170D01*
X52366Y-19071D01*
X52624Y-19071D01*
X52863Y-19170D01*
X53045Y-19352D01*
X53144Y-19591D01*
X53144Y-19849D01*
X53045Y-20088D01*
X52863Y-20270D01*
X52624Y-20369D01*
X52366Y-20369D01*
X52366Y-21071D01*
X52624Y-21071D01*
X52863Y-21170D01*
X53045Y-21352D01*
X53069Y-21410D01*
X53210Y-21410D01*
X54092Y-20528D01*
X54092Y-20456D01*
X54157Y-20300D01*
X54277Y-20180D01*
X54433Y-20116D01*
X54451Y-20116D01*
X52913Y-18578D01*
X44635Y-18578D01*
X44749Y-18852D01*
X44749Y-19150D01*
X44634Y-19425D01*
X44423Y-19635D01*
X44148Y-19749D01*
X43850Y-19749D01*
X43575Y-19634D01*
X43365Y-19423D01*
X43251Y-19148D01*
X43251Y-18850D01*
X43364Y-18578D01*
X42841Y-18578D01*
X40233Y-21185D01*
X40134Y-21425D01*
X39923Y-21635D01*
X39648Y-21749D01*
X39350Y-21749D01*
X39075Y-21634D01*
X38865Y-21423D01*
X38766Y-21185D01*
X36226Y-18646D01*
X35663Y-18646D01*
X35749Y-18852D01*
X35749Y-19150D01*
X35634Y-19425D01*
X35423Y-19635D01*
X35148Y-19749D01*
X34850Y-19749D01*
X34575Y-19634D01*
X34365Y-19423D01*
X34251Y-19148D01*
X34251Y-18850D01*
X34336Y-18646D01*
X33773Y-18646D01*
X31233Y-21185D01*
X31134Y-21425D01*
X30923Y-21635D01*
X30648Y-21749D01*
X30350Y-21749D01*
X30075Y-21634D01*
X29865Y-21423D01*
X29766Y-21185D01*
X27226Y-18646D01*
X26663Y-18646D01*
X26749Y-18852D01*
X26749Y-19150D01*
X26634Y-19425D01*
X26423Y-19635D01*
X26148Y-19749D01*
X25850Y-19749D01*
X25575Y-19634D01*
X25365Y-19423D01*
X25251Y-19148D01*
X25251Y-18850D01*
X25336Y-18646D01*
X24773Y-18646D01*
X22233Y-21185D01*
X22134Y-21425D01*
X21923Y-21635D01*
X21686Y-21733D01*
X20950Y-22470D01*
X20739Y-22611D01*
X20490Y-22661D01*
X20485Y-22660D01*
X13510Y-22660D01*
X13261Y-22611D01*
X13050Y-22470D01*
X13047Y-22466D01*
X12314Y-21734D01*
X12075Y-21634D01*
X11865Y-21423D01*
X11751Y-21148D01*
X11751Y-20850D01*
X11866Y-20575D01*
X12077Y-20365D01*
X12350Y-20251D01*
X12350Y-19749D01*
X12075Y-19634D01*
X11865Y-19423D01*
X11751Y-19148D01*
X11751Y-18850D01*
X11866Y-18575D01*
X12077Y-18365D01*
X12110Y-18351D01*
X12110Y-17148D01*
X12075Y-17134D01*
X11865Y-16923D01*
X11751Y-16648D01*
X11751Y-16350D01*
X11866Y-16075D01*
X12077Y-15865D01*
X12350Y-15751D01*
X12350Y-15249D01*
X12075Y-15134D01*
X11865Y-14923D01*
X11751Y-14648D01*
X11751Y-14350D01*
X11866Y-14075D01*
X12077Y-13865D01*
X12352Y-13751D01*
X12650Y-13751D01*
X12925Y-13866D01*
X13135Y-14077D01*
X13249Y-14352D01*
X13249Y-14650D01*
X13134Y-14925D01*
X12923Y-15135D01*
X12648Y-15249D01*
X12350Y-15249D01*
X12350Y-15751D01*
X12650Y-15751D01*
X12925Y-15866D01*
X13135Y-16077D01*
X13249Y-16352D01*
X13249Y-16650D01*
X13134Y-16925D01*
X12923Y-17135D01*
X12890Y-17148D01*
X12890Y-18351D01*
X12925Y-18366D01*
X13135Y-18577D01*
X13249Y-18852D01*
X13249Y-19150D01*
X13134Y-19425D01*
X12923Y-19635D01*
X12648Y-19749D01*
X12350Y-19749D01*
X12350Y-20251D01*
X12650Y-20251D01*
X12925Y-20366D01*
X13135Y-20577D01*
X13232Y-20813D01*
X13779Y-21360D01*
X16338Y-21360D01*
X16251Y-21148D01*
X16251Y-20850D01*
X16366Y-20575D01*
X16577Y-20365D01*
X16850Y-20251D01*
X16850Y-19749D01*
X16575Y-19634D01*
X16365Y-19423D01*
X16251Y-19148D01*
X16251Y-18850D01*
X16366Y-18575D01*
X16577Y-18365D01*
X16610Y-18351D01*
X16610Y-17148D01*
X16575Y-17134D01*
X16365Y-16923D01*
X16251Y-16648D01*
X16251Y-16350D01*
X16366Y-16075D01*
X16577Y-15865D01*
X16850Y-15751D01*
X16850Y-15249D01*
X16575Y-15134D01*
X16365Y-14923D01*
X16251Y-14648D01*
X16251Y-14350D01*
X16366Y-14075D01*
X16577Y-13865D01*
X16852Y-13751D01*
X17150Y-13751D01*
X17425Y-13866D01*
X17635Y-14077D01*
X17749Y-14352D01*
X17749Y-14650D01*
X17634Y-14925D01*
X17423Y-15135D01*
X17148Y-15249D01*
X16850Y-15249D01*
X16850Y-15751D01*
X17150Y-15751D01*
X17425Y-15866D01*
X17635Y-16077D01*
X17749Y-16352D01*
X17749Y-16650D01*
X17634Y-16925D01*
X17423Y-17135D01*
X17390Y-17148D01*
X17390Y-18351D01*
X17425Y-18366D01*
X17635Y-18577D01*
X17749Y-18852D01*
X17749Y-19150D01*
X17634Y-19425D01*
X17423Y-19635D01*
X17148Y-19749D01*
X16850Y-19749D01*
X16850Y-20251D01*
X17150Y-20251D01*
X17425Y-20366D01*
X17635Y-20577D01*
X17749Y-20852D01*
X17749Y-21150D01*
X17661Y-21360D01*
X20220Y-21360D01*
X20765Y-20815D01*
X20866Y-20575D01*
X21077Y-20365D01*
X21312Y-20267D01*
X21350Y-20230D01*
X21350Y-19749D01*
X21075Y-19634D01*
X20865Y-19423D01*
X20751Y-19148D01*
X20751Y-18850D01*
X20866Y-18575D01*
X21077Y-18365D01*
X21110Y-18351D01*
X21110Y-17148D01*
X21075Y-17134D01*
X20865Y-16923D01*
X20751Y-16648D01*
X20751Y-16350D01*
X20866Y-16075D01*
X21077Y-15865D01*
X21350Y-15751D01*
X21350Y-15249D01*
X21075Y-15134D01*
X20865Y-14923D01*
X20751Y-14648D01*
X20751Y-14350D01*
X20866Y-14075D01*
X21077Y-13865D01*
X21352Y-13751D01*
X21650Y-13751D01*
X21925Y-13866D01*
X22135Y-14077D01*
X22249Y-14352D01*
X22249Y-14650D01*
X22134Y-14925D01*
X21923Y-15135D01*
X21648Y-15249D01*
X21350Y-15249D01*
X21350Y-15751D01*
X21650Y-15751D01*
X21925Y-15866D01*
X22135Y-16077D01*
X22249Y-16352D01*
X22249Y-16650D01*
X22134Y-16925D01*
X21923Y-17135D01*
X21890Y-17148D01*
X21890Y-18351D01*
X21925Y-18366D01*
X22135Y-18577D01*
X22249Y-18852D01*
X22249Y-19150D01*
X22134Y-19425D01*
X21923Y-19635D01*
X21648Y-19749D01*
X21350Y-19749D01*
X21350Y-20230D01*
X24044Y-17536D01*
X24255Y-17395D01*
X24504Y-17346D01*
X26311Y-17346D01*
X26259Y-17311D01*
X26257Y-17308D01*
X26183Y-17234D01*
X26148Y-17249D01*
X25850Y-17249D01*
X25575Y-17134D01*
X25365Y-16923D01*
X25251Y-16648D01*
X25251Y-16350D01*
X25366Y-16075D01*
X25577Y-15865D01*
X25850Y-15751D01*
X25850Y-15249D01*
X25575Y-15134D01*
X25365Y-14923D01*
X25251Y-14648D01*
X25251Y-14350D01*
X25366Y-14075D01*
X25577Y-13865D01*
X25852Y-13751D01*
X26150Y-13751D01*
X26425Y-13866D01*
X26635Y-14077D01*
X26749Y-14352D01*
X26749Y-14650D01*
X26634Y-14925D01*
X26423Y-15135D01*
X26148Y-15249D01*
X25850Y-15249D01*
X25850Y-15751D01*
X26150Y-15751D01*
X26425Y-15866D01*
X26635Y-16077D01*
X26749Y-16352D01*
X26749Y-16645D01*
X26931Y-16645D01*
X27017Y-16610D01*
X27186Y-16610D01*
X27342Y-16675D01*
X27462Y-16795D01*
X27526Y-16951D01*
X27526Y-17120D01*
X27461Y-17276D01*
X27391Y-17346D01*
X27491Y-17346D01*
X27496Y-17345D01*
X27745Y-17395D01*
X27956Y-17536D01*
X30350Y-19930D01*
X30350Y-19749D01*
X30075Y-19634D01*
X29865Y-19423D01*
X29751Y-19148D01*
X29751Y-18850D01*
X29866Y-18575D01*
X30077Y-18365D01*
X30350Y-18251D01*
X30350Y-17249D01*
X30075Y-17134D01*
X29865Y-16923D01*
X29751Y-16648D01*
X29751Y-16350D01*
X29866Y-16075D01*
X30077Y-15865D01*
X30350Y-15751D01*
X30350Y-15249D01*
X30075Y-15134D01*
X29865Y-14923D01*
X29751Y-14648D01*
X29751Y-14350D01*
X29866Y-14075D01*
X30077Y-13865D01*
X30352Y-13751D01*
X30650Y-13751D01*
X30925Y-13866D01*
X31135Y-14077D01*
X31249Y-14352D01*
X31249Y-14650D01*
X31134Y-14925D01*
X30923Y-15135D01*
X30648Y-15249D01*
X30350Y-15249D01*
X30350Y-15751D01*
X30650Y-15751D01*
X30925Y-15866D01*
X31135Y-16077D01*
X31249Y-16352D01*
X31249Y-16650D01*
X31134Y-16925D01*
X30923Y-17135D01*
X30648Y-17249D01*
X30350Y-17249D01*
X30350Y-18251D01*
X30650Y-18251D01*
X30925Y-18366D01*
X31135Y-18577D01*
X31249Y-18852D01*
X31249Y-19150D01*
X31134Y-19425D01*
X30923Y-19635D01*
X30648Y-19749D01*
X30350Y-19749D01*
X30350Y-19930D01*
X30499Y-20080D01*
X33044Y-17536D01*
X33255Y-17395D01*
X33504Y-17346D01*
X34850Y-17346D01*
X34850Y-17249D01*
X34575Y-17134D01*
X34365Y-16923D01*
X34251Y-16648D01*
X34251Y-16350D01*
X34366Y-16075D01*
X34577Y-15865D01*
X34850Y-15751D01*
X34850Y-15249D01*
X34575Y-15134D01*
X34365Y-14923D01*
X34251Y-14648D01*
X34251Y-14350D01*
X34366Y-14075D01*
X34577Y-13865D01*
X34852Y-13751D01*
X35150Y-13751D01*
X35425Y-13866D01*
X35635Y-14077D01*
X35749Y-14352D01*
X35749Y-14650D01*
X35634Y-14925D01*
X35423Y-15135D01*
X35148Y-15249D01*
X34850Y-15249D01*
X34850Y-15751D01*
X35150Y-15751D01*
X35425Y-15866D01*
X35635Y-16077D01*
X35749Y-16352D01*
X35749Y-16650D01*
X35634Y-16925D01*
X35423Y-17135D01*
X35148Y-17249D01*
X34850Y-17249D01*
X34850Y-17346D01*
X36491Y-17346D01*
X36496Y-17345D01*
X36745Y-17395D01*
X36956Y-17536D01*
X39350Y-19930D01*
X39350Y-19749D01*
X39075Y-19634D01*
X38865Y-19423D01*
X38751Y-19148D01*
X38751Y-18850D01*
X38866Y-18575D01*
X39077Y-18365D01*
X39350Y-18251D01*
X39350Y-17249D01*
X39075Y-17134D01*
X38865Y-16923D01*
X38751Y-16648D01*
X38751Y-16350D01*
X38866Y-16075D01*
X39077Y-15865D01*
X39350Y-15751D01*
X39350Y-15249D01*
X39075Y-15134D01*
X38865Y-14923D01*
X38751Y-14648D01*
X38751Y-14350D01*
X38866Y-14075D01*
X39077Y-13865D01*
X39352Y-13751D01*
X39650Y-13751D01*
X39925Y-13866D01*
X40135Y-14077D01*
X40249Y-14352D01*
X40249Y-14650D01*
X40134Y-14925D01*
X39923Y-15135D01*
X39648Y-15249D01*
X39350Y-15249D01*
X39350Y-15751D01*
X39650Y-15751D01*
X39925Y-15866D01*
X40135Y-16077D01*
X40249Y-16352D01*
X40249Y-16650D01*
X40134Y-16925D01*
X39923Y-17135D01*
X39648Y-17249D01*
X39350Y-17249D01*
X39350Y-18251D01*
X39650Y-18251D01*
X39925Y-18366D01*
X40135Y-18577D01*
X40249Y-18852D01*
X40249Y-19150D01*
X40134Y-19425D01*
X39923Y-19635D01*
X39648Y-19749D01*
X39350Y-19749D01*
X39350Y-19930D01*
X39499Y-20080D01*
X40767Y-18812D01*
X40767Y-13662D01*
X40623Y-13576D01*
X40473Y-13214D01*
X40470Y-12804D01*
X40623Y-12424D01*
X40767Y-12338D01*
X41429Y-13000D01*
X40767Y-13662D01*
X40767Y-18812D01*
X41304Y-18275D01*
X41304Y-14030D01*
X40924Y-13877D01*
X40838Y-13733D01*
X41500Y-13071D01*
X41500Y-12929D01*
X40838Y-12267D01*
X40924Y-12123D01*
X41286Y-11973D01*
X41696Y-11970D01*
X42076Y-12123D01*
X42162Y-12267D01*
X41500Y-12929D01*
X41500Y-13071D01*
X42162Y-13733D01*
X42076Y-13877D01*
X41714Y-14027D01*
X41304Y-14030D01*
X41304Y-18275D01*
X42112Y-17468D01*
X42233Y-17387D01*
X42233Y-13662D01*
X41571Y-13000D01*
X42233Y-12338D01*
X42377Y-12424D01*
X42527Y-12786D01*
X42530Y-13196D01*
X42377Y-13576D01*
X42233Y-13662D01*
X42233Y-17387D01*
X42323Y-17327D01*
X42572Y-17278D01*
X43850Y-17278D01*
X43850Y-17249D01*
X43575Y-17134D01*
X43365Y-16923D01*
X43251Y-16648D01*
X43251Y-16350D01*
X43366Y-16075D01*
X43577Y-15865D01*
X43850Y-15751D01*
X43850Y-15249D01*
X43575Y-15134D01*
X43365Y-14923D01*
X43251Y-14648D01*
X43251Y-14350D01*
X43366Y-14075D01*
X43577Y-13865D01*
X43852Y-13751D01*
X44150Y-13751D01*
X44425Y-13866D01*
X44635Y-14077D01*
X44749Y-14352D01*
X44749Y-14650D01*
X44634Y-14925D01*
X44423Y-15135D01*
X44148Y-15249D01*
X43850Y-15249D01*
X43850Y-15751D01*
X44150Y-15751D01*
X44425Y-15866D01*
X44635Y-16077D01*
X44749Y-16352D01*
X44749Y-16650D01*
X44634Y-16925D01*
X44423Y-17135D01*
X44148Y-17249D01*
X43850Y-17249D01*
X43850Y-17278D01*
X53178Y-17278D01*
X53183Y-17277D01*
X53432Y-17327D01*
X53643Y-17468D01*
X56785Y-20611D01*
X56970Y-20611D01*
X56959Y-20582D01*
X56959Y-20413D01*
X57024Y-20257D01*
X57144Y-20137D01*
X57300Y-20073D01*
X57322Y-20073D01*
X57322Y-19496D01*
X55372Y-17546D01*
X55180Y-17546D01*
X54987Y-17466D01*
X54840Y-17318D01*
X54760Y-17125D01*
X54760Y-16916D01*
X54840Y-16723D01*
X54988Y-16576D01*
X55062Y-16545D01*
X54960Y-16545D01*
X54869Y-16507D01*
X54799Y-16437D01*
X54761Y-16345D01*
X54761Y-15702D01*
X53733Y-16730D01*
X53633Y-16797D01*
X53514Y-16821D01*
X48857Y-16821D01*
X48738Y-16797D01*
X48638Y-16730D01*
X47088Y-15180D01*
X47016Y-15180D01*
X46860Y-15115D01*
X46740Y-14995D01*
X46676Y-14839D01*
X46676Y-14670D01*
X46741Y-14514D01*
X46861Y-14394D01*
X47017Y-14330D01*
X47186Y-14330D01*
X47342Y-14395D01*
X47462Y-14515D01*
X47526Y-14671D01*
X47526Y-14742D01*
X48985Y-16201D01*
X53385Y-16201D01*
X55151Y-14434D01*
X55151Y-14216D01*
X55235Y-14014D01*
X55389Y-13860D01*
X55591Y-13776D01*
X55809Y-13776D01*
X56011Y-13860D01*
X56165Y-14014D01*
X56249Y-14216D01*
X56249Y-14434D01*
X56165Y-14636D01*
X56011Y-14790D01*
X55809Y-14874D01*
X55591Y-14874D01*
X55590Y-14873D01*
X54966Y-15497D01*
X55610Y-15497D01*
X55701Y-15535D01*
X55771Y-15605D01*
X55809Y-15697D01*
X55809Y-16346D01*
X55771Y-16437D01*
X55701Y-16507D01*
X55609Y-16545D01*
X55508Y-16545D01*
X55583Y-16576D01*
X55730Y-16724D01*
X55810Y-16917D01*
X55810Y-17108D01*
X57631Y-18929D01*
X58951Y-17609D01*
X58951Y-17391D01*
X59035Y-17189D01*
X59189Y-17035D01*
X59273Y-17000D01*
X59189Y-16965D01*
X59035Y-16811D01*
X58951Y-16609D01*
X58951Y-16391D01*
X59035Y-16189D01*
X59189Y-16035D01*
X59391Y-15951D01*
X59609Y-15951D01*
X59811Y-16035D01*
X59965Y-16189D01*
X60000Y-16273D01*
X60035Y-16189D01*
X60189Y-16035D01*
X60391Y-15951D01*
X60609Y-15951D01*
X60811Y-16035D01*
X60951Y-16175D01*
X60951Y-16150D01*
X60989Y-16059D01*
X61059Y-15989D01*
X61151Y-15951D01*
X61850Y-15951D01*
X61941Y-15989D01*
X62011Y-16059D01*
X62049Y-16151D01*
X62049Y-16850D01*
X62020Y-16918D01*
X62554Y-17452D01*
X62591Y-17507D01*
X62591Y-14874D01*
X62389Y-14790D01*
X62235Y-14636D01*
X62225Y-14611D01*
X62215Y-14636D01*
X62061Y-14790D01*
X61859Y-14874D01*
X61641Y-14874D01*
X61439Y-14790D01*
X61285Y-14636D01*
X61201Y-14434D01*
X61201Y-14216D01*
X61285Y-14014D01*
X61439Y-13860D01*
X61641Y-13776D01*
X61859Y-13776D01*
X62061Y-13860D01*
X62215Y-14014D01*
X62225Y-14038D01*
X62235Y-14014D01*
X62389Y-13860D01*
X62591Y-13776D01*
X62809Y-13776D01*
X63011Y-13860D01*
X63165Y-14014D01*
X63249Y-14216D01*
X63249Y-14434D01*
X63165Y-14636D01*
X63011Y-14790D01*
X62809Y-14874D01*
X62591Y-14874D01*
X62591Y-17507D01*
X62621Y-17553D01*
X62645Y-17672D01*
X62645Y-18021D01*
X62696Y-18072D01*
X62760Y-18228D01*
X62760Y-18397D01*
X62695Y-18553D01*
X62645Y-18603D01*
X62645Y-18754D01*
X62621Y-18873D01*
X62554Y-18973D01*
X61568Y-19959D01*
X61468Y-20026D01*
X61349Y-20050D01*
X58983Y-20050D01*
X58969Y-20063D01*
X59005Y-20149D01*
X59005Y-20318D01*
X58985Y-20364D01*
X64150Y-20364D01*
X64150Y-17517D01*
X63994Y-17452D01*
X63874Y-17332D01*
X63810Y-17176D01*
X63810Y-17046D01*
X63670Y-16988D01*
X63550Y-16868D01*
X63486Y-16712D01*
X63486Y-16543D01*
X63551Y-16387D01*
X63601Y-16337D01*
X63601Y-13514D01*
X62379Y-13514D01*
X62260Y-13490D01*
X62209Y-13456D01*
X62159Y-13423D01*
X61860Y-13123D01*
X61859Y-13124D01*
X61641Y-13124D01*
X61439Y-13040D01*
X61285Y-12886D01*
X61201Y-12684D01*
X61201Y-12466D01*
X61285Y-12264D01*
X61439Y-12110D01*
X61641Y-12026D01*
X61859Y-12026D01*
X62061Y-12110D01*
X62215Y-12264D01*
X62225Y-12288D01*
X62235Y-12264D01*
X62389Y-12110D01*
X62591Y-12026D01*
X62809Y-12026D01*
X63011Y-12110D01*
X63165Y-12264D01*
X63249Y-12466D01*
X63249Y-12684D01*
X63165Y-12886D01*
X63157Y-12894D01*
X64492Y-12894D01*
X64701Y-12685D01*
X64701Y-12466D01*
X64785Y-12264D01*
X64939Y-12110D01*
X65141Y-12026D01*
X65359Y-12026D01*
X65561Y-12110D01*
X65715Y-12264D01*
X65799Y-12466D01*
X65799Y-12684D01*
X65715Y-12886D01*
X65561Y-13040D01*
X65359Y-13124D01*
X65141Y-13124D01*
X65139Y-13123D01*
X64840Y-13423D01*
X64740Y-13490D01*
X64621Y-13514D01*
X64221Y-13514D01*
X64221Y-16337D01*
X64272Y-16388D01*
X64336Y-16544D01*
X64336Y-16552D01*
X65141Y-15747D01*
X65141Y-14874D01*
X64939Y-14790D01*
X64785Y-14636D01*
X64701Y-14434D01*
X64701Y-14216D01*
X64785Y-14014D01*
X64939Y-13860D01*
X65141Y-13776D01*
X65359Y-13776D01*
X65561Y-13860D01*
X65715Y-14014D01*
X65799Y-14216D01*
X65799Y-14434D01*
X65715Y-14636D01*
X65561Y-14790D01*
X65359Y-14874D01*
X65141Y-14874D01*
X65141Y-15747D01*
X65950Y-14938D01*
X66001Y-14904D01*
X66051Y-14871D01*
X66170Y-14847D01*
X66437Y-14847D01*
X66488Y-14796D01*
X66644Y-14732D01*
X66813Y-14732D01*
X66969Y-14797D01*
X67089Y-14917D01*
X67153Y-15073D01*
X67153Y-15242D01*
X67088Y-15398D01*
X66968Y-15518D01*
X66812Y-15582D01*
X66643Y-15582D01*
X66487Y-15517D01*
X66437Y-15467D01*
X66298Y-15467D01*
X64660Y-17105D01*
X64660Y-17177D01*
X64595Y-17333D01*
X64475Y-17453D01*
X64319Y-17517D01*
X64150Y-17517D01*
X64150Y-20364D01*
X64528Y-20364D01*
X64647Y-20388D01*
X64747Y-20455D01*
X65016Y-20724D01*
X65016Y-20425D01*
X65092Y-20241D01*
X65233Y-20101D01*
X65417Y-20025D01*
X65616Y-20025D01*
X65783Y-20094D01*
X65853Y-20025D01*
X65853Y-17787D01*
X65802Y-17736D01*
X65738Y-17580D01*
X65738Y-17411D01*
X65803Y-17255D01*
X65923Y-17135D01*
X66079Y-17071D01*
X66248Y-17071D01*
X66404Y-17136D01*
X66459Y-17191D01*
X66498Y-17100D01*
X66618Y-16980D01*
X66774Y-16916D01*
X66845Y-16916D01*
X68148Y-15612D01*
X68113Y-15577D01*
X68049Y-15421D01*
X68049Y-15252D01*
X68114Y-15096D01*
X68234Y-14976D01*
X68390Y-14912D01*
X68559Y-14912D01*
X68715Y-14977D01*
X68835Y-15097D01*
X68899Y-15253D01*
X68899Y-15422D01*
X68834Y-15578D01*
X68784Y-15628D01*
X68784Y-15725D01*
X68760Y-15844D01*
X68693Y-15944D01*
X67767Y-16869D01*
X67862Y-16831D01*
X68031Y-16831D01*
X68187Y-16896D01*
X68307Y-17016D01*
X68371Y-17172D01*
X68371Y-17242D01*
X68691Y-17562D01*
X68758Y-17663D01*
X68782Y-17782D01*
X68782Y-20235D01*
X68758Y-20354D01*
X68691Y-20454D01*
X68126Y-21019D01*
X68026Y-21086D01*
X67984Y-21094D01*
X67984Y-21175D01*
X67908Y-21359D01*
X67767Y-21499D01*
X67583Y-21575D01*
X67384Y-21575D01*
X67200Y-21499D01*
X67060Y-21358D01*
X66992Y-21193D01*
X66924Y-21359D01*
X66783Y-21499D01*
X66599Y-21575D01*
X66400Y-21575D01*
X66216Y-21499D01*
X66167Y-21449D01*
X65783Y-21832D01*
X65817Y-21847D01*
X65937Y-21967D01*
X66001Y-22123D01*
X66001Y-22292D01*
X65971Y-22362D01*
X69584Y-22362D01*
X69584Y-20689D01*
X69428Y-20624D01*
X69308Y-20504D01*
X69244Y-20348D01*
X69244Y-20179D01*
X69309Y-20023D01*
X69359Y-19973D01*
X69359Y-14336D01*
X69383Y-14217D01*
X69448Y-14119D01*
X69448Y-14047D01*
X69513Y-13891D01*
X69633Y-13771D01*
X69789Y-13707D01*
X69958Y-13707D01*
X70114Y-13772D01*
X70234Y-13892D01*
X70298Y-14048D01*
X70298Y-14217D01*
X70233Y-14373D01*
X70113Y-14493D01*
X69979Y-14547D01*
X69979Y-19973D01*
X70030Y-20024D01*
X70094Y-20180D01*
X70094Y-20349D01*
X70029Y-20505D01*
X69909Y-20625D01*
X69753Y-20689D01*
X69584Y-20689D01*
X69584Y-22362D01*
X69718Y-22362D01*
X71265Y-20815D01*
X71366Y-20575D01*
X71378Y-20562D01*
X71399Y-20460D01*
X71540Y-20249D01*
X72040Y-19749D01*
X71850Y-19749D01*
X71575Y-19634D01*
X71365Y-19423D01*
X71251Y-19148D01*
X71251Y-18850D01*
X71366Y-18575D01*
X71577Y-18365D01*
X71610Y-18351D01*
X71610Y-17148D01*
X71575Y-17134D01*
X71365Y-16923D01*
X71251Y-16648D01*
X71251Y-16350D01*
X71366Y-16075D01*
X71577Y-15865D01*
X71850Y-15751D01*
X71850Y-15249D01*
X71575Y-15134D01*
X71365Y-14923D01*
X71251Y-14648D01*
X71251Y-14350D01*
X71366Y-14075D01*
X71577Y-13865D01*
X71852Y-13751D01*
X72150Y-13751D01*
X72425Y-13866D01*
X72635Y-14077D01*
X72749Y-14352D01*
X72749Y-14650D01*
X72634Y-14925D01*
X72423Y-15135D01*
X72148Y-15249D01*
X71850Y-15249D01*
X71850Y-15751D01*
X72150Y-15751D01*
X72425Y-15866D01*
X72635Y-16077D01*
X72749Y-16352D01*
X72749Y-16650D01*
X72634Y-16925D01*
X72423Y-17135D01*
X72390Y-17148D01*
X72390Y-18351D01*
X72425Y-18366D01*
X72635Y-18577D01*
X72749Y-18852D01*
X72749Y-19040D01*
X73767Y-18022D01*
X73767Y-13662D01*
X73623Y-13576D01*
X73473Y-13214D01*
X73470Y-12804D01*
X73623Y-12424D01*
X73767Y-12338D01*
X74429Y-13000D01*
X73767Y-13662D01*
X73767Y-18022D01*
X74304Y-17485D01*
X74304Y-14030D01*
X73924Y-13877D01*
X73838Y-13733D01*
X74500Y-13071D01*
X74500Y-12929D01*
X73838Y-12267D01*
X73924Y-12123D01*
X74286Y-11973D01*
X74696Y-11970D01*
X75076Y-12123D01*
X75162Y-12267D01*
X74500Y-12929D01*
X74500Y-13071D01*
X75162Y-13733D01*
X75076Y-13877D01*
X74714Y-14027D01*
X74304Y-14030D01*
X74304Y-17485D01*
X74499Y-17290D01*
X74710Y-17149D01*
X74959Y-17100D01*
X75233Y-17100D01*
X75233Y-13662D01*
X74571Y-13000D01*
X75233Y-12338D01*
X75377Y-12424D01*
X75527Y-12786D01*
X75530Y-13196D01*
X75377Y-13576D01*
X75233Y-13662D01*
X75233Y-17100D01*
X76041Y-17100D01*
X75865Y-16923D01*
X75751Y-16648D01*
X75751Y-16350D01*
X75866Y-16075D01*
X76077Y-15865D01*
X76350Y-15751D01*
X76350Y-15249D01*
X76075Y-15134D01*
X75865Y-14923D01*
X75751Y-14648D01*
X75751Y-14350D01*
X75866Y-14075D01*
X76077Y-13865D01*
X76352Y-13751D01*
X76650Y-13751D01*
X76925Y-13866D01*
X77135Y-14077D01*
X77249Y-14352D01*
X77249Y-14650D01*
X77134Y-14925D01*
X76923Y-15135D01*
X76648Y-15249D01*
X76350Y-15249D01*
X76350Y-15751D01*
X76650Y-15751D01*
X76925Y-15866D01*
X77135Y-16077D01*
X77249Y-16352D01*
X77249Y-16650D01*
X77134Y-16925D01*
X76958Y-17100D01*
X77745Y-17100D01*
X77750Y-17099D01*
X77999Y-17149D01*
X78210Y-17290D01*
X80850Y-19930D01*
X80850Y-19749D01*
X80575Y-19634D01*
X80365Y-19423D01*
X80251Y-19148D01*
X80251Y-18850D01*
X80366Y-18575D01*
X80577Y-18365D01*
X80610Y-18351D01*
X80610Y-17148D01*
X80575Y-17134D01*
X80365Y-16923D01*
X80251Y-16648D01*
X80251Y-16350D01*
X80366Y-16075D01*
X80577Y-15865D01*
X80850Y-15751D01*
X80850Y-15249D01*
X80575Y-15134D01*
X80365Y-14923D01*
X80251Y-14648D01*
X80251Y-14350D01*
X80366Y-14075D01*
X80577Y-13865D01*
X80852Y-13751D01*
X81150Y-13751D01*
X81425Y-13866D01*
X81635Y-14077D01*
X81749Y-14352D01*
X81749Y-14650D01*
X81634Y-14925D01*
X81423Y-15135D01*
X81148Y-15249D01*
X80850Y-15249D01*
X80850Y-15751D01*
X81150Y-15751D01*
X81425Y-15866D01*
X81635Y-16077D01*
X81749Y-16352D01*
X81749Y-16650D01*
X81634Y-16925D01*
X81423Y-17135D01*
X81390Y-17148D01*
X81390Y-18351D01*
X81425Y-18366D01*
X81635Y-18577D01*
X81749Y-18852D01*
X81749Y-19150D01*
X81634Y-19425D01*
X81423Y-19635D01*
X81148Y-19749D01*
X80850Y-19749D01*
X80850Y-19930D01*
X80999Y-20080D01*
X83790Y-17290D01*
X84001Y-17149D01*
X84250Y-17100D01*
X85041Y-17100D01*
X84865Y-16923D01*
X84751Y-16648D01*
X84751Y-16350D01*
X84866Y-16075D01*
X85077Y-15865D01*
X85350Y-15751D01*
X85350Y-15249D01*
X85075Y-15134D01*
X84865Y-14923D01*
X84751Y-14648D01*
X84751Y-14350D01*
X84866Y-14075D01*
X85077Y-13865D01*
X85352Y-13751D01*
X85650Y-13751D01*
X85925Y-13866D01*
X86135Y-14077D01*
X86249Y-14352D01*
X86249Y-14650D01*
X86134Y-14925D01*
X85923Y-15135D01*
X85648Y-15249D01*
X85350Y-15249D01*
X85350Y-15751D01*
X85650Y-15751D01*
X85925Y-15866D01*
X86135Y-16077D01*
X86249Y-16352D01*
X86249Y-16650D01*
X86134Y-16925D01*
X85958Y-17100D01*
X86745Y-17100D01*
X86750Y-17099D01*
X86999Y-17149D01*
X87210Y-17290D01*
X89850Y-19930D01*
X89850Y-19749D01*
X89575Y-19634D01*
X89365Y-19423D01*
X89251Y-19148D01*
X89251Y-18850D01*
X89366Y-18575D01*
X89577Y-18365D01*
X89610Y-18351D01*
X89610Y-17148D01*
X89575Y-17134D01*
X89365Y-16923D01*
X89251Y-16648D01*
X89251Y-16350D01*
X89366Y-16075D01*
X89577Y-15865D01*
X89850Y-15751D01*
X89850Y-15249D01*
X89575Y-15134D01*
X89365Y-14923D01*
X89251Y-14648D01*
X89251Y-14350D01*
X89366Y-14075D01*
X89577Y-13865D01*
X89852Y-13751D01*
X90150Y-13751D01*
X90425Y-13866D01*
X90635Y-14077D01*
X90749Y-14352D01*
X90749Y-14650D01*
X90634Y-14925D01*
X90423Y-15135D01*
X90148Y-15249D01*
X89850Y-15249D01*
X89850Y-15751D01*
X90150Y-15751D01*
X90425Y-15866D01*
X90635Y-16077D01*
X90749Y-16352D01*
X90749Y-16650D01*
X90634Y-16925D01*
X90423Y-17135D01*
X90390Y-17148D01*
X90390Y-18351D01*
X90425Y-18366D01*
X90635Y-18577D01*
X90749Y-18852D01*
X90749Y-19150D01*
X90634Y-19425D01*
X90423Y-19635D01*
X90148Y-19749D01*
X89850Y-19749D01*
X89850Y-19930D01*
X90184Y-20265D01*
X90425Y-20366D01*
X90635Y-20577D01*
X90732Y-20813D01*
X91285Y-21366D01*
X93841Y-21366D01*
X93751Y-21148D01*
X93751Y-20850D01*
X93866Y-20575D01*
X94077Y-20365D01*
X94350Y-20251D01*
X94350Y-19749D01*
X94075Y-19634D01*
X93865Y-19423D01*
X93751Y-19148D01*
X93751Y-18850D01*
X93866Y-18575D01*
X94077Y-18365D01*
X94110Y-18351D01*
X94110Y-17148D01*
X94075Y-17134D01*
X93865Y-16923D01*
X93751Y-16648D01*
X93751Y-16350D01*
X93866Y-16075D01*
X94077Y-15865D01*
X94350Y-15751D01*
X94350Y-15249D01*
X94075Y-15134D01*
X93865Y-14923D01*
X93751Y-14648D01*
X93751Y-14350D01*
X93866Y-14075D01*
X94077Y-13865D01*
X94352Y-13751D01*
X94650Y-13751D01*
X94925Y-13866D01*
X95135Y-14077D01*
X95249Y-14352D01*
X95249Y-14650D01*
X95134Y-14925D01*
X94923Y-15135D01*
X94648Y-15249D01*
X94350Y-15249D01*
X94350Y-15751D01*
X94650Y-15751D01*
X94925Y-15866D01*
X95135Y-16077D01*
X95249Y-16352D01*
X95249Y-16650D01*
X95134Y-16925D01*
X94923Y-17135D01*
X94890Y-17148D01*
X94890Y-18351D01*
X94925Y-18366D01*
X95135Y-18577D01*
X95249Y-18852D01*
X95249Y-19150D01*
X95134Y-19425D01*
X94923Y-19635D01*
X94648Y-19749D01*
X94350Y-19749D01*
X94350Y-20251D01*
X94650Y-20251D01*
X94925Y-20366D01*
X95135Y-20577D01*
X95249Y-20852D01*
X95249Y-21150D01*
X95158Y-21366D01*
X97714Y-21366D01*
X98265Y-20815D01*
X98366Y-20575D01*
X98577Y-20365D01*
X98812Y-20267D01*
X98850Y-20230D01*
X98850Y-19749D01*
X98575Y-19634D01*
X98365Y-19423D01*
X98251Y-19148D01*
X98251Y-18850D01*
X98366Y-18575D01*
X98577Y-18365D01*
X98610Y-18351D01*
X98610Y-17148D01*
X98575Y-17134D01*
X98365Y-16923D01*
X98251Y-16648D01*
X98251Y-16350D01*
X98366Y-16075D01*
X98577Y-15865D01*
X98850Y-15751D01*
X98850Y-15249D01*
X98575Y-15134D01*
X98365Y-14923D01*
X98251Y-14648D01*
X98251Y-14350D01*
X98366Y-14075D01*
X98577Y-13865D01*
X98852Y-13751D01*
X99150Y-13751D01*
X99425Y-13866D01*
X99635Y-14077D01*
X99749Y-14352D01*
X99749Y-14650D01*
X99634Y-14925D01*
X99423Y-15135D01*
X99148Y-15249D01*
X98850Y-15249D01*
X98850Y-15751D01*
X99150Y-15751D01*
X99425Y-15866D01*
X99635Y-16077D01*
X99749Y-16352D01*
X99749Y-16650D01*
X99634Y-16925D01*
X99423Y-17135D01*
X99390Y-17148D01*
X99390Y-18351D01*
X99425Y-18366D01*
X99635Y-18577D01*
X99749Y-18852D01*
X99749Y-19150D01*
X99634Y-19425D01*
X99423Y-19635D01*
X99148Y-19749D01*
X98850Y-19749D01*
X98850Y-20230D01*
X101566Y-17514D01*
X101777Y-17373D01*
X102026Y-17324D01*
X103350Y-17324D01*
X103350Y-17249D01*
X103075Y-17134D01*
X102865Y-16923D01*
X102751Y-16648D01*
X102751Y-16350D01*
X102866Y-16075D01*
X103077Y-15865D01*
X103350Y-15751D01*
X103350Y-15249D01*
X103075Y-15134D01*
X102865Y-14923D01*
X102751Y-14648D01*
X102751Y-14350D01*
X102866Y-14075D01*
X103077Y-13865D01*
X103352Y-13751D01*
X103650Y-13751D01*
X103925Y-13866D01*
X104135Y-14077D01*
X104249Y-14352D01*
X104249Y-14650D01*
X104134Y-14925D01*
X103923Y-15135D01*
X103648Y-15249D01*
X103350Y-15249D01*
X103350Y-15751D01*
X103650Y-15751D01*
X103925Y-15866D01*
X104135Y-16077D01*
X104249Y-16352D01*
X104249Y-16650D01*
X104134Y-16925D01*
X103923Y-17135D01*
X103648Y-17249D01*
X103350Y-17249D01*
X103350Y-17324D01*
X105767Y-17324D01*
X105767Y-13662D01*
X105623Y-13576D01*
X105473Y-13214D01*
X105470Y-12804D01*
X105623Y-12424D01*
X105767Y-12338D01*
X106429Y-13000D01*
X105767Y-13662D01*
X105767Y-17324D01*
X106304Y-17324D01*
X106304Y-14030D01*
X105924Y-13877D01*
X105838Y-13733D01*
X106500Y-13071D01*
X106500Y-12929D01*
X105838Y-12267D01*
X105924Y-12123D01*
X106286Y-11973D01*
X106696Y-11970D01*
X107076Y-12123D01*
X107162Y-12267D01*
X106500Y-12929D01*
X106500Y-13071D01*
X107162Y-13733D01*
X107076Y-13877D01*
X106714Y-14027D01*
X106304Y-14030D01*
X106304Y-17324D01*
X106384Y-17324D01*
X106399Y-17251D01*
X106540Y-17040D01*
X106622Y-16985D01*
X106622Y-16808D01*
X106528Y-16781D01*
X106468Y-16634D01*
X106457Y-16421D01*
X106528Y-16219D01*
X106622Y-16192D01*
X106622Y-15808D01*
X106528Y-15781D01*
X106468Y-15634D01*
X106457Y-15421D01*
X106528Y-15219D01*
X106622Y-15192D01*
X106929Y-15500D01*
X106622Y-15808D01*
X106622Y-16192D01*
X106929Y-16500D01*
X106622Y-16808D01*
X106622Y-16985D01*
X106706Y-16928D01*
X106692Y-16878D01*
X107000Y-16571D01*
X107000Y-16429D01*
X106692Y-16122D01*
X106719Y-16028D01*
X106792Y-15997D01*
X106719Y-15972D01*
X106692Y-15878D01*
X107000Y-15571D01*
X107000Y-15429D01*
X106692Y-15122D01*
X106719Y-15028D01*
X106866Y-14968D01*
X107079Y-14957D01*
X107233Y-15011D01*
X107233Y-13662D01*
X106571Y-13000D01*
X107233Y-12338D01*
X107377Y-12424D01*
X107527Y-12786D01*
X107530Y-13196D01*
X107377Y-13576D01*
X107233Y-13662D01*
X107233Y-15011D01*
X107281Y-15028D01*
X107308Y-15122D01*
X107000Y-15429D01*
X107000Y-15571D01*
X107308Y-15878D01*
X107281Y-15972D01*
X107207Y-16002D01*
X107281Y-16028D01*
X107308Y-16122D01*
X107000Y-16429D01*
X107000Y-16571D01*
X107308Y-16878D01*
X107293Y-16928D01*
X107378Y-16985D01*
X107378Y-16808D01*
X107071Y-16500D01*
X107378Y-16192D01*
X107378Y-15808D01*
X107071Y-15500D01*
X107378Y-15192D01*
X107472Y-15219D01*
X107532Y-15366D01*
X107543Y-15579D01*
X107472Y-15781D01*
X107378Y-15808D01*
X107378Y-16192D01*
X107472Y-16219D01*
X107532Y-16366D01*
X107543Y-16579D01*
X107472Y-16781D01*
X107378Y-16808D01*
X107378Y-16985D01*
X107460Y-17040D01*
X107601Y-17251D01*
X107650Y-17500D01*
X107650Y-18500D01*
X107601Y-18749D01*
X107460Y-18960D01*
X107325Y-19049D01*
X107465Y-19189D01*
X107549Y-19391D01*
X107549Y-19609D01*
X107465Y-19811D01*
X107325Y-19951D01*
X107350Y-19951D01*
X107441Y-19989D01*
X107511Y-20059D01*
X107549Y-20151D01*
X107549Y-20850D01*
X107511Y-20941D01*
X107441Y-21011D01*
X107349Y-21049D01*
X106650Y-21049D01*
X106559Y-21011D01*
X106489Y-20941D01*
X106451Y-20849D01*
X106451Y-20150D01*
X106489Y-20059D01*
X106559Y-19989D01*
X106651Y-19951D01*
X106675Y-19951D01*
X106535Y-19811D01*
X106451Y-19609D01*
X106451Y-19391D01*
X106535Y-19189D01*
X106674Y-19049D01*
X106540Y-18960D01*
X106399Y-18749D01*
X106374Y-18624D01*
X104154Y-18624D01*
X104249Y-18852D01*
X104249Y-19150D01*
X104134Y-19425D01*
X103923Y-19635D01*
X103648Y-19749D01*
X103350Y-19749D01*
X103075Y-19634D01*
X102865Y-19423D01*
X102751Y-19148D01*
X102751Y-18850D01*
X102845Y-18624D01*
X102295Y-18624D01*
X99733Y-21185D01*
X99634Y-21425D01*
X99423Y-21635D01*
X99186Y-21733D01*
X98444Y-22476D01*
X98233Y-22617D01*
X97984Y-22667D01*
X97979Y-22666D01*
X91016Y-22666D01*
X91015Y-22665D01*
X91015Y-22666D01*
X90974Y-22657D01*
X90767Y-22617D01*
X90556Y-22476D01*
X90553Y-22472D01*
X89814Y-21734D01*
X89575Y-21634D01*
X89365Y-21423D01*
X89266Y-21185D01*
X86480Y-18400D01*
X85958Y-18400D01*
X86135Y-18577D01*
X86249Y-18852D01*
X86249Y-19150D01*
X86134Y-19425D01*
X85923Y-19635D01*
X85648Y-19749D01*
X85350Y-19749D01*
X85075Y-19634D01*
X84865Y-19423D01*
X84751Y-19148D01*
X84751Y-18850D01*
X84866Y-18575D01*
X85041Y-18400D01*
X84519Y-18400D01*
X81733Y-21185D01*
X81634Y-21425D01*
X81423Y-21635D01*
X81148Y-21749D01*
X80850Y-21749D01*
X80575Y-21634D01*
X80365Y-21423D01*
X80266Y-21185D01*
X77480Y-18400D01*
X76958Y-18400D01*
X77135Y-18577D01*
X77249Y-18852D01*
X77249Y-19150D01*
X77134Y-19425D01*
X76923Y-19635D01*
X76648Y-19749D01*
X76350Y-19749D01*
X76075Y-19634D01*
X75865Y-19423D01*
X75751Y-19148D01*
X75751Y-18850D01*
X75866Y-18575D01*
X76041Y-18400D01*
X75228Y-18400D01*
X74276Y-19351D01*
X74357Y-19432D01*
X74421Y-19588D01*
X74421Y-19757D01*
X74356Y-19913D01*
X74306Y-19963D01*
X74306Y-20410D01*
X74282Y-20529D01*
X74248Y-20578D01*
X74215Y-20630D01*
X71595Y-23249D01*
X71595Y-23266D01*
X72484Y-23266D01*
X72389Y-23171D01*
X72325Y-23015D01*
X72325Y-22846D01*
X72390Y-22690D01*
X72510Y-22570D01*
X72593Y-22535D01*
X74405Y-20724D01*
X74532Y-20640D01*
X74650Y-20616D01*
X74680Y-20610D01*
X75851Y-20610D01*
X75866Y-20575D01*
X76077Y-20365D01*
X76352Y-20251D01*
X76650Y-20251D01*
X76925Y-20366D01*
X77135Y-20577D01*
X77249Y-20852D01*
X77249Y-21150D01*
X77134Y-21425D01*
X76923Y-21635D01*
X76648Y-21749D01*
X76350Y-21749D01*
X76075Y-21634D01*
X75865Y-21423D01*
X75851Y-21390D01*
X74842Y-21390D01*
X73145Y-23087D01*
X73110Y-23172D01*
X73016Y-23266D01*
X82681Y-23266D01*
X84765Y-21182D01*
X84751Y-21148D01*
X84751Y-20850D01*
X84866Y-20575D01*
X85077Y-20365D01*
X85352Y-20251D01*
X85650Y-20251D01*
X85925Y-20366D01*
X86135Y-20577D01*
X86249Y-20852D01*
X86249Y-21150D01*
X86134Y-21425D01*
X85923Y-21635D01*
X85648Y-21749D01*
X85350Y-21749D01*
X85316Y-21735D01*
X83327Y-23725D01*
X103350Y-23725D01*
X103350Y-21749D01*
X103075Y-21634D01*
X102865Y-21423D01*
X102751Y-21148D01*
X102751Y-20850D01*
X102866Y-20575D01*
X103077Y-20365D01*
X103352Y-20251D01*
X103650Y-20251D01*
X103925Y-20366D01*
X104135Y-20577D01*
X104249Y-20852D01*
X104249Y-21150D01*
X104134Y-21425D01*
X103923Y-21635D01*
X103648Y-21749D01*
X103350Y-21749D01*
X103350Y-23725D01*
X105767Y-23725D01*
X105767Y-23162D01*
X105623Y-23076D01*
X105473Y-22714D01*
X105470Y-22304D01*
X105623Y-21924D01*
X105767Y-21838D01*
X106429Y-22500D01*
X105767Y-23162D01*
X105767Y-23725D01*
X106304Y-23725D01*
X106304Y-23530D01*
X105924Y-23377D01*
X105838Y-23233D01*
X106500Y-22571D01*
X106500Y-22429D01*
X105838Y-21767D01*
X105924Y-21623D01*
X106286Y-21473D01*
X106696Y-21470D01*
X107076Y-21623D01*
X107162Y-21767D01*
X106500Y-22429D01*
X106500Y-22571D01*
X107162Y-23233D01*
X107076Y-23377D01*
X106714Y-23527D01*
X106304Y-23530D01*
X106304Y-23725D01*
X107233Y-23725D01*
X107233Y-23162D01*
X106571Y-22500D01*
X107233Y-21838D01*
X107377Y-21924D01*
X107527Y-22286D01*
X107530Y-22696D01*
X107377Y-23076D01*
X107233Y-23162D01*
X107233Y-23725D01*
X107725Y-23725D01*
X107725Y-23725D01*
G37*
G54D24*
X107725Y-23725D02*
X107725Y-11775D01*
X57088Y-11775D01*
X57723Y-12410D01*
X57785Y-12264D01*
X57939Y-12110D01*
X58141Y-12026D01*
X58359Y-12026D01*
X58561Y-12110D01*
X58715Y-12264D01*
X58725Y-12288D01*
X58735Y-12264D01*
X58889Y-12110D01*
X59091Y-12026D01*
X59309Y-12026D01*
X59511Y-12110D01*
X59665Y-12264D01*
X59749Y-12466D01*
X59749Y-12684D01*
X59665Y-12886D01*
X59511Y-13040D01*
X59309Y-13124D01*
X59091Y-13124D01*
X58889Y-13040D01*
X58735Y-12886D01*
X58725Y-12861D01*
X58715Y-12886D01*
X58561Y-13040D01*
X58414Y-13101D01*
X59089Y-13776D01*
X59309Y-13776D01*
X59511Y-13860D01*
X59665Y-14014D01*
X59749Y-14216D01*
X59749Y-14434D01*
X59665Y-14636D01*
X59511Y-14790D01*
X59309Y-14874D01*
X59091Y-14874D01*
X58889Y-14790D01*
X58735Y-14636D01*
X58725Y-14611D01*
X58715Y-14636D01*
X58561Y-14790D01*
X58359Y-14874D01*
X58141Y-14874D01*
X57939Y-14790D01*
X57785Y-14636D01*
X57701Y-14434D01*
X57701Y-14216D01*
X57785Y-14014D01*
X57939Y-13860D01*
X58141Y-13776D01*
X58213Y-13776D01*
X56604Y-12167D01*
X56068Y-12167D01*
X56165Y-12264D01*
X56249Y-12466D01*
X56249Y-12684D01*
X56165Y-12886D01*
X56011Y-13040D01*
X55809Y-13124D01*
X55591Y-13124D01*
X55389Y-13040D01*
X55235Y-12886D01*
X55151Y-12684D01*
X55151Y-12466D01*
X55235Y-12264D01*
X55332Y-12167D01*
X50941Y-12167D01*
X50668Y-12440D01*
X50668Y-12512D01*
X50603Y-12668D01*
X50483Y-12788D01*
X50327Y-12852D01*
X50158Y-12852D01*
X50002Y-12787D01*
X49882Y-12667D01*
X49818Y-12511D01*
X49818Y-12342D01*
X49883Y-12186D01*
X50003Y-12066D01*
X50159Y-12002D01*
X50229Y-12002D01*
X50456Y-11775D01*
X08275Y-11775D01*
X08275Y-23725D01*
X08650Y-23725D01*
X08767Y-23725D01*
X08767Y-23162D01*
X08650Y-23092D01*
X08623Y-23076D01*
X08473Y-22714D01*
X08470Y-22304D01*
X08623Y-21924D01*
X08650Y-21907D01*
X08650Y-21049D01*
X08559Y-21011D01*
X08489Y-20941D01*
X08451Y-20849D01*
X08451Y-20150D01*
X08489Y-20059D01*
X08559Y-19989D01*
X08651Y-19951D01*
X08675Y-19951D01*
X08535Y-19811D01*
X08451Y-19609D01*
X08451Y-19391D01*
X08535Y-19189D01*
X08674Y-19049D01*
X08540Y-18960D01*
X08399Y-18749D01*
X08350Y-18500D01*
X08350Y-17500D01*
X08399Y-17251D01*
X08540Y-17040D01*
X08622Y-16985D01*
X08622Y-16808D01*
X08528Y-16781D01*
X08468Y-16634D01*
X08457Y-16421D01*
X08528Y-16219D01*
X08622Y-16192D01*
X08622Y-15808D01*
X08528Y-15781D01*
X08468Y-15634D01*
X08457Y-15421D01*
X08528Y-15219D01*
X08622Y-15192D01*
X08929Y-15500D01*
X08622Y-15808D01*
X08622Y-16192D01*
X08929Y-16500D01*
X08622Y-16808D01*
X08622Y-16985D01*
X08706Y-16928D01*
X08692Y-16878D01*
X09000Y-16571D01*
X09000Y-16429D01*
X08692Y-16122D01*
X08719Y-16028D01*
X08792Y-15997D01*
X08719Y-15972D01*
X08692Y-15878D01*
X09000Y-15571D01*
X09000Y-15429D01*
X08692Y-15122D01*
X08719Y-15028D01*
X08767Y-15008D01*
X08767Y-13662D01*
X08623Y-13576D01*
X08473Y-13214D01*
X08470Y-12804D01*
X08623Y-12424D01*
X08767Y-12338D01*
X09429Y-13000D01*
X08767Y-13662D01*
X08767Y-15008D01*
X08866Y-14968D01*
X09079Y-14957D01*
X09281Y-15028D01*
X09304Y-15108D01*
X09304Y-14030D01*
X08924Y-13877D01*
X08838Y-13733D01*
X09500Y-13071D01*
X09500Y-12929D01*
X08838Y-12267D01*
X08924Y-12123D01*
X09286Y-11973D01*
X09696Y-11970D01*
X10076Y-12123D01*
X10162Y-12267D01*
X09500Y-12929D01*
X09500Y-13071D01*
X10162Y-13733D01*
X10076Y-13877D01*
X09714Y-14027D01*
X09304Y-14030D01*
X09304Y-15108D01*
X09308Y-15122D01*
X09000Y-15429D01*
X09000Y-15571D01*
X09308Y-15878D01*
X09281Y-15972D01*
X09207Y-16002D01*
X09281Y-16028D01*
X09308Y-16122D01*
X09000Y-16429D01*
X09000Y-16571D01*
X09308Y-16878D01*
X09293Y-16928D01*
X09378Y-16985D01*
X09378Y-16808D01*
X09071Y-16500D01*
X09378Y-16192D01*
X09378Y-15808D01*
X09071Y-15500D01*
X09378Y-15192D01*
X09472Y-15219D01*
X09532Y-15366D01*
X09543Y-15579D01*
X09472Y-15781D01*
X09378Y-15808D01*
X09378Y-16192D01*
X09472Y-16219D01*
X09532Y-16366D01*
X09543Y-16579D01*
X09472Y-16781D01*
X09378Y-16808D01*
X09378Y-16985D01*
X09460Y-17040D01*
X09601Y-17251D01*
X09650Y-17500D01*
X09650Y-18500D01*
X09601Y-18749D01*
X09460Y-18960D01*
X09325Y-19049D01*
X09465Y-19189D01*
X09549Y-19391D01*
X09549Y-19609D01*
X09465Y-19811D01*
X09324Y-19951D01*
X09350Y-19951D01*
X09441Y-19989D01*
X09511Y-20059D01*
X09549Y-20151D01*
X09549Y-20850D01*
X09511Y-20941D01*
X09441Y-21011D01*
X09349Y-21049D01*
X08650Y-21049D01*
X08650Y-21907D01*
X08767Y-21838D01*
X09429Y-22500D01*
X08767Y-23162D01*
X08767Y-23725D01*
X09304Y-23725D01*
X09304Y-23530D01*
X08924Y-23377D01*
X08838Y-23233D01*
X09500Y-22571D01*
X09500Y-22429D01*
X08838Y-21767D01*
X08924Y-21623D01*
X09286Y-21473D01*
X09696Y-21470D01*
X10076Y-21623D01*
X10162Y-21767D01*
X09500Y-22429D01*
X09500Y-22571D01*
X10162Y-23233D01*
X10076Y-23377D01*
X09714Y-23527D01*
X09304Y-23530D01*
X09304Y-23725D01*
X10233Y-23725D01*
X10233Y-23162D01*
X09571Y-22500D01*
X10233Y-21838D01*
X10233Y-13662D01*
X09571Y-13000D01*
X10233Y-12338D01*
X10377Y-12424D01*
X10527Y-12786D01*
X10530Y-13196D01*
X10377Y-13576D01*
X10233Y-13662D01*
X10233Y-21838D01*
X10377Y-21924D01*
X10527Y-22286D01*
X10530Y-22696D01*
X10377Y-23076D01*
X10233Y-23162D01*
X10233Y-23725D01*
X29313Y-23725D01*
X29313Y-23109D01*
X29229Y-23074D01*
X27684Y-23074D01*
X27534Y-23044D01*
X27408Y-22960D01*
X27406Y-22957D01*
X26182Y-21734D01*
X26148Y-21749D01*
X25850Y-21749D01*
X25575Y-21634D01*
X25365Y-21423D01*
X25251Y-21148D01*
X25251Y-20850D01*
X25366Y-20575D01*
X25577Y-20365D01*
X25852Y-20251D01*
X26150Y-20251D01*
X26425Y-20366D01*
X26635Y-20577D01*
X26749Y-20852D01*
X26749Y-21150D01*
X26735Y-21183D01*
X27845Y-22294D01*
X29228Y-22294D01*
X29314Y-22259D01*
X29483Y-22259D01*
X29639Y-22324D01*
X29759Y-22444D01*
X29823Y-22600D01*
X29823Y-22769D01*
X29758Y-22925D01*
X29638Y-23045D01*
X29482Y-23109D01*
X29313Y-23109D01*
X29313Y-23725D01*
X47586Y-23725D01*
X47586Y-23390D01*
X47502Y-23355D01*
X36965Y-23355D01*
X36964Y-23354D01*
X36964Y-23355D01*
X36933Y-23348D01*
X36816Y-23325D01*
X36689Y-23241D01*
X36687Y-23238D01*
X35182Y-21734D01*
X35148Y-21749D01*
X34850Y-21749D01*
X34575Y-21634D01*
X34365Y-21423D01*
X34251Y-21148D01*
X34251Y-20850D01*
X34366Y-20575D01*
X34577Y-20365D01*
X34852Y-20251D01*
X35150Y-20251D01*
X35425Y-20366D01*
X35635Y-20577D01*
X35749Y-20852D01*
X35749Y-21150D01*
X35735Y-21183D01*
X37126Y-22575D01*
X47501Y-22575D01*
X47587Y-22540D01*
X47756Y-22540D01*
X47912Y-22605D01*
X48032Y-22725D01*
X48096Y-22881D01*
X48096Y-23050D01*
X48031Y-23206D01*
X47911Y-23326D01*
X47755Y-23390D01*
X47586Y-23390D01*
X47586Y-23725D01*
X63653Y-23725D01*
X62708Y-22780D01*
X62624Y-22745D01*
X62504Y-22625D01*
X62440Y-22469D01*
X62440Y-22300D01*
X62505Y-22144D01*
X62584Y-22064D01*
X62431Y-21911D01*
X60941Y-21911D01*
X60941Y-22065D01*
X60876Y-22221D01*
X60756Y-22341D01*
X60600Y-22405D01*
X60529Y-22405D01*
X60431Y-22503D01*
X60331Y-22570D01*
X60212Y-22594D01*
X58885Y-22594D01*
X58896Y-22620D01*
X58896Y-22789D01*
X58831Y-22945D01*
X58711Y-23065D01*
X58555Y-23129D01*
X58386Y-23129D01*
X58302Y-23094D01*
X48592Y-23094D01*
X48591Y-23093D01*
X48591Y-23094D01*
X48560Y-23087D01*
X48443Y-23064D01*
X48316Y-22980D01*
X48314Y-22977D01*
X46726Y-21390D01*
X44648Y-21390D01*
X44634Y-21425D01*
X44423Y-21635D01*
X44148Y-21749D01*
X43850Y-21749D01*
X43575Y-21634D01*
X43365Y-21423D01*
X43251Y-21148D01*
X43251Y-20850D01*
X43366Y-20575D01*
X43577Y-20365D01*
X43852Y-20251D01*
X44150Y-20251D01*
X44425Y-20366D01*
X44635Y-20577D01*
X44648Y-20610D01*
X46888Y-20610D01*
X47037Y-20640D01*
X47164Y-20724D01*
X48753Y-22314D01*
X49650Y-22314D01*
X48681Y-21345D01*
X48624Y-21369D01*
X48366Y-21369D01*
X48127Y-21270D01*
X47945Y-21088D01*
X47846Y-20849D01*
X47846Y-20591D01*
X47945Y-20352D01*
X48127Y-20170D01*
X48366Y-20071D01*
X48624Y-20071D01*
X48863Y-20170D01*
X49045Y-20352D01*
X49144Y-20591D01*
X49144Y-20849D01*
X49120Y-20906D01*
X50187Y-21974D01*
X51897Y-21974D01*
X51846Y-21849D01*
X51846Y-21591D01*
X51945Y-21352D01*
X52127Y-21170D01*
X52366Y-21071D01*
X52366Y-20369D01*
X52127Y-20270D01*
X51945Y-20088D01*
X51846Y-19849D01*
X51846Y-19591D01*
X51945Y-19352D01*
X52127Y-19170D01*
X52366Y-19071D01*
X52624Y-19071D01*
X52863Y-19170D01*
X53045Y-19352D01*
X53144Y-19591D01*
X53144Y-19849D01*
X53045Y-20088D01*
X52863Y-20270D01*
X52624Y-20369D01*
X52366Y-20369D01*
X52366Y-21071D01*
X52624Y-21071D01*
X52863Y-21170D01*
X53045Y-21352D01*
X53069Y-21410D01*
X53210Y-21410D01*
X54092Y-20528D01*
X54092Y-20456D01*
X54157Y-20300D01*
X54277Y-20180D01*
X54433Y-20116D01*
X54451Y-20116D01*
X52913Y-18578D01*
X44635Y-18578D01*
X44749Y-18852D01*
X44749Y-19150D01*
X44634Y-19425D01*
X44423Y-19635D01*
X44148Y-19749D01*
X43850Y-19749D01*
X43575Y-19634D01*
X43365Y-19423D01*
X43251Y-19148D01*
X43251Y-18850D01*
X43364Y-18578D01*
X42841Y-18578D01*
X40233Y-21185D01*
X40134Y-21425D01*
X39923Y-21635D01*
X39648Y-21749D01*
X39350Y-21749D01*
X39075Y-21634D01*
X38865Y-21423D01*
X38766Y-21185D01*
X36226Y-18646D01*
X35663Y-18646D01*
X35749Y-18852D01*
X35749Y-19150D01*
X35634Y-19425D01*
X35423Y-19635D01*
X35148Y-19749D01*
X34850Y-19749D01*
X34575Y-19634D01*
X34365Y-19423D01*
X34251Y-19148D01*
X34251Y-18850D01*
X34336Y-18646D01*
X33773Y-18646D01*
X31233Y-21185D01*
X31134Y-21425D01*
X30923Y-21635D01*
X30648Y-21749D01*
X30350Y-21749D01*
X30075Y-21634D01*
X29865Y-21423D01*
X29766Y-21185D01*
X27226Y-18646D01*
X26663Y-18646D01*
X26749Y-18852D01*
X26749Y-19150D01*
X26634Y-19425D01*
X26423Y-19635D01*
X26148Y-19749D01*
X25850Y-19749D01*
X25575Y-19634D01*
X25365Y-19423D01*
X25251Y-19148D01*
X25251Y-18850D01*
X25336Y-18646D01*
X24773Y-18646D01*
X22233Y-21185D01*
X22134Y-21425D01*
X21923Y-21635D01*
X21686Y-21733D01*
X20950Y-22470D01*
X20739Y-22611D01*
X20490Y-22661D01*
X20485Y-22660D01*
X13510Y-22660D01*
X13261Y-22611D01*
X13050Y-22470D01*
X13047Y-22466D01*
X12314Y-21734D01*
X12075Y-21634D01*
X11865Y-21423D01*
X11751Y-21148D01*
X11751Y-20850D01*
X11866Y-20575D01*
X12077Y-20365D01*
X12350Y-20251D01*
X12350Y-19749D01*
X12075Y-19634D01*
X11865Y-19423D01*
X11751Y-19148D01*
X11751Y-18850D01*
X11866Y-18575D01*
X12077Y-18365D01*
X12110Y-18351D01*
X12110Y-17148D01*
X12075Y-17134D01*
X11865Y-16923D01*
X11751Y-16648D01*
X11751Y-16350D01*
X11866Y-16075D01*
X12077Y-15865D01*
X12350Y-15751D01*
X12350Y-15249D01*
X12075Y-15134D01*
X11865Y-14923D01*
X11751Y-14648D01*
X11751Y-14350D01*
X11866Y-14075D01*
X12077Y-13865D01*
X12352Y-13751D01*
X12650Y-13751D01*
X12925Y-13866D01*
X13135Y-14077D01*
X13249Y-14352D01*
X13249Y-14650D01*
X13134Y-14925D01*
X12923Y-15135D01*
X12648Y-15249D01*
X12350Y-15249D01*
X12350Y-15751D01*
X12650Y-15751D01*
X12925Y-15866D01*
X13135Y-16077D01*
X13249Y-16352D01*
X13249Y-16650D01*
X13134Y-16925D01*
X12923Y-17135D01*
X12890Y-17148D01*
X12890Y-18351D01*
X12925Y-18366D01*
X13135Y-18577D01*
X13249Y-18852D01*
X13249Y-19150D01*
X13134Y-19425D01*
X12923Y-19635D01*
X12648Y-19749D01*
X12350Y-19749D01*
X12350Y-20251D01*
X12650Y-20251D01*
X12925Y-20366D01*
X13135Y-20577D01*
X13232Y-20813D01*
X13779Y-21360D01*
X16338Y-21360D01*
X16251Y-21148D01*
X16251Y-20850D01*
X16366Y-20575D01*
X16577Y-20365D01*
X16850Y-20251D01*
X16850Y-19749D01*
X16575Y-19634D01*
X16365Y-19423D01*
X16251Y-19148D01*
X16251Y-18850D01*
X16366Y-18575D01*
X16577Y-18365D01*
X16610Y-18351D01*
X16610Y-17148D01*
X16575Y-17134D01*
X16365Y-16923D01*
X16251Y-16648D01*
X16251Y-16350D01*
X16366Y-16075D01*
X16577Y-15865D01*
X16850Y-15751D01*
X16850Y-15249D01*
X16575Y-15134D01*
X16365Y-14923D01*
X16251Y-14648D01*
X16251Y-14350D01*
X16366Y-14075D01*
X16577Y-13865D01*
X16852Y-13751D01*
X17150Y-13751D01*
X17425Y-13866D01*
X17635Y-14077D01*
X17749Y-14352D01*
X17749Y-14650D01*
X17634Y-14925D01*
X17423Y-15135D01*
X17148Y-15249D01*
X16850Y-15249D01*
X16850Y-15751D01*
X17150Y-15751D01*
X17425Y-15866D01*
X17635Y-16077D01*
X17749Y-16352D01*
X17749Y-16650D01*
X17634Y-16925D01*
X17423Y-17135D01*
X17390Y-17148D01*
X17390Y-18351D01*
X17425Y-18366D01*
X17635Y-18577D01*
X17749Y-18852D01*
X17749Y-19150D01*
X17634Y-19425D01*
X17423Y-19635D01*
X17148Y-19749D01*
X16850Y-19749D01*
X16850Y-20251D01*
X17150Y-20251D01*
X17425Y-20366D01*
X17635Y-20577D01*
X17749Y-20852D01*
X17749Y-21150D01*
X17661Y-21360D01*
X20220Y-21360D01*
X20765Y-20815D01*
X20866Y-20575D01*
X21077Y-20365D01*
X21312Y-20267D01*
X21350Y-20230D01*
X21350Y-19749D01*
X21075Y-19634D01*
X20865Y-19423D01*
X20751Y-19148D01*
X20751Y-18850D01*
X20866Y-18575D01*
X21077Y-18365D01*
X21110Y-18351D01*
X21110Y-17148D01*
X21075Y-17134D01*
X20865Y-16923D01*
X20751Y-16648D01*
X20751Y-16350D01*
X20866Y-16075D01*
X21077Y-15865D01*
X21350Y-15751D01*
X21350Y-15249D01*
X21075Y-15134D01*
X20865Y-14923D01*
X20751Y-14648D01*
X20751Y-14350D01*
X20866Y-14075D01*
X21077Y-13865D01*
X21352Y-13751D01*
X21650Y-13751D01*
X21925Y-13866D01*
X22135Y-14077D01*
X22249Y-14352D01*
X22249Y-14650D01*
X22134Y-14925D01*
X21923Y-15135D01*
X21648Y-15249D01*
X21350Y-15249D01*
X21350Y-15751D01*
X21650Y-15751D01*
X21925Y-15866D01*
X22135Y-16077D01*
X22249Y-16352D01*
X22249Y-16650D01*
X22134Y-16925D01*
X21923Y-17135D01*
X21890Y-17148D01*
X21890Y-18351D01*
X21925Y-18366D01*
X22135Y-18577D01*
X22249Y-18852D01*
X22249Y-19150D01*
X22134Y-19425D01*
X21923Y-19635D01*
X21648Y-19749D01*
X21350Y-19749D01*
X21350Y-20230D01*
X24044Y-17536D01*
X24255Y-17395D01*
X24504Y-17346D01*
X26311Y-17346D01*
X26259Y-17311D01*
X26257Y-17308D01*
X26183Y-17234D01*
X26148Y-17249D01*
X25850Y-17249D01*
X25575Y-17134D01*
X25365Y-16923D01*
X25251Y-16648D01*
X25251Y-16350D01*
X25366Y-16075D01*
X25577Y-15865D01*
X25850Y-15751D01*
X25850Y-15249D01*
X25575Y-15134D01*
X25365Y-14923D01*
X25251Y-14648D01*
X25251Y-14350D01*
X25366Y-14075D01*
X25577Y-13865D01*
X25852Y-13751D01*
X26150Y-13751D01*
X26425Y-13866D01*
X26635Y-14077D01*
X26749Y-14352D01*
X26749Y-14650D01*
X26634Y-14925D01*
X26423Y-15135D01*
X26148Y-15249D01*
X25850Y-15249D01*
X25850Y-15751D01*
X26150Y-15751D01*
X26425Y-15866D01*
X26635Y-16077D01*
X26749Y-16352D01*
X26749Y-16645D01*
X26931Y-16645D01*
X27017Y-16610D01*
X27186Y-16610D01*
X27342Y-16675D01*
X27462Y-16795D01*
X27526Y-16951D01*
X27526Y-17120D01*
X27461Y-17276D01*
X27391Y-17346D01*
X27491Y-17346D01*
X27496Y-17345D01*
X27745Y-17395D01*
X27956Y-17536D01*
X30350Y-19930D01*
X30350Y-19749D01*
X30075Y-19634D01*
X29865Y-19423D01*
X29751Y-19148D01*
X29751Y-18850D01*
X29866Y-18575D01*
X30077Y-18365D01*
X30350Y-18251D01*
X30350Y-17249D01*
X30075Y-17134D01*
X29865Y-16923D01*
X29751Y-16648D01*
X29751Y-16350D01*
X29866Y-16075D01*
X30077Y-15865D01*
X30350Y-15751D01*
X30350Y-15249D01*
X30075Y-15134D01*
X29865Y-14923D01*
X29751Y-14648D01*
X29751Y-14350D01*
X29866Y-14075D01*
X30077Y-13865D01*
X30352Y-13751D01*
X30650Y-13751D01*
X30925Y-13866D01*
X31135Y-14077D01*
X31249Y-14352D01*
X31249Y-14650D01*
X31134Y-14925D01*
X30923Y-15135D01*
X30648Y-15249D01*
X30350Y-15249D01*
X30350Y-15751D01*
X30650Y-15751D01*
X30925Y-15866D01*
X31135Y-16077D01*
X31249Y-16352D01*
X31249Y-16650D01*
X31134Y-16925D01*
X30923Y-17135D01*
X30648Y-17249D01*
X30350Y-17249D01*
X30350Y-18251D01*
X30650Y-18251D01*
X30925Y-18366D01*
X31135Y-18577D01*
X31249Y-18852D01*
X31249Y-19150D01*
X31134Y-19425D01*
X30923Y-19635D01*
X30648Y-19749D01*
X30350Y-19749D01*
X30350Y-19930D01*
X30499Y-20080D01*
X33044Y-17536D01*
X33255Y-17395D01*
X33504Y-17346D01*
X34850Y-17346D01*
X34850Y-17249D01*
X34575Y-17134D01*
X34365Y-16923D01*
X34251Y-16648D01*
X34251Y-16350D01*
X34366Y-16075D01*
X34577Y-15865D01*
X34850Y-15751D01*
X34850Y-15249D01*
X34575Y-15134D01*
X34365Y-14923D01*
X34251Y-14648D01*
X34251Y-14350D01*
X34366Y-14075D01*
X34577Y-13865D01*
X34852Y-13751D01*
X35150Y-13751D01*
X35425Y-13866D01*
X35635Y-14077D01*
X35749Y-14352D01*
X35749Y-14650D01*
X35634Y-14925D01*
X35423Y-15135D01*
X35148Y-15249D01*
X34850Y-15249D01*
X34850Y-15751D01*
X35150Y-15751D01*
X35425Y-15866D01*
X35635Y-16077D01*
X35749Y-16352D01*
X35749Y-16650D01*
X35634Y-16925D01*
X35423Y-17135D01*
X35148Y-17249D01*
X34850Y-17249D01*
X34850Y-17346D01*
X36491Y-17346D01*
X36496Y-17345D01*
X36745Y-17395D01*
X36956Y-17536D01*
X39350Y-19930D01*
X39350Y-19749D01*
X39075Y-19634D01*
X38865Y-19423D01*
X38751Y-19148D01*
X38751Y-18850D01*
X38866Y-18575D01*
X39077Y-18365D01*
X39350Y-18251D01*
X39350Y-17249D01*
X39075Y-17134D01*
X38865Y-16923D01*
X38751Y-16648D01*
X38751Y-16350D01*
X38866Y-16075D01*
X39077Y-15865D01*
X39350Y-15751D01*
X39350Y-15249D01*
X39075Y-15134D01*
X38865Y-14923D01*
X38751Y-14648D01*
X38751Y-14350D01*
X38866Y-14075D01*
X39077Y-13865D01*
X39352Y-13751D01*
X39650Y-13751D01*
X39925Y-13866D01*
X40135Y-14077D01*
X40249Y-14352D01*
X40249Y-14650D01*
X40134Y-14925D01*
X39923Y-15135D01*
X39648Y-15249D01*
X39350Y-15249D01*
X39350Y-15751D01*
X39650Y-15751D01*
X39925Y-15866D01*
X40135Y-16077D01*
X40249Y-16352D01*
X40249Y-16650D01*
X40134Y-16925D01*
X39923Y-17135D01*
X39648Y-17249D01*
X39350Y-17249D01*
X39350Y-18251D01*
X39650Y-18251D01*
X39925Y-18366D01*
X40135Y-18577D01*
X40249Y-18852D01*
X40249Y-19150D01*
X40134Y-19425D01*
X39923Y-19635D01*
X39648Y-19749D01*
X39350Y-19749D01*
X39350Y-19930D01*
X39499Y-20080D01*
X40767Y-18812D01*
X40767Y-13662D01*
X40623Y-13576D01*
X40473Y-13214D01*
X40470Y-12804D01*
X40623Y-12424D01*
X40767Y-12338D01*
X41429Y-13000D01*
X40767Y-13662D01*
X40767Y-18812D01*
X41304Y-18275D01*
X41304Y-14030D01*
X40924Y-13877D01*
X40838Y-13733D01*
X41500Y-13071D01*
X41500Y-12929D01*
X40838Y-12267D01*
X40924Y-12123D01*
X41286Y-11973D01*
X41696Y-11970D01*
X42076Y-12123D01*
X42162Y-12267D01*
X41500Y-12929D01*
X41500Y-13071D01*
X42162Y-13733D01*
X42076Y-13877D01*
X41714Y-14027D01*
X41304Y-14030D01*
X41304Y-18275D01*
X42112Y-17468D01*
X42233Y-17387D01*
X42233Y-13662D01*
X41571Y-13000D01*
X42233Y-12338D01*
X42377Y-12424D01*
X42527Y-12786D01*
X42530Y-13196D01*
X42377Y-13576D01*
X42233Y-13662D01*
X42233Y-17387D01*
X42323Y-17327D01*
X42572Y-17278D01*
X43850Y-17278D01*
X43850Y-17249D01*
X43575Y-17134D01*
X43365Y-16923D01*
X43251Y-16648D01*
X43251Y-16350D01*
X43366Y-16075D01*
X43577Y-15865D01*
X43850Y-15751D01*
X43850Y-15249D01*
X43575Y-15134D01*
X43365Y-14923D01*
X43251Y-14648D01*
X43251Y-14350D01*
X43366Y-14075D01*
X43577Y-13865D01*
X43852Y-13751D01*
X44150Y-13751D01*
X44425Y-13866D01*
X44635Y-14077D01*
X44749Y-14352D01*
X44749Y-14650D01*
X44634Y-14925D01*
X44423Y-15135D01*
X44148Y-15249D01*
X43850Y-15249D01*
X43850Y-15751D01*
X44150Y-15751D01*
X44425Y-15866D01*
X44635Y-16077D01*
X44749Y-16352D01*
X44749Y-16650D01*
X44634Y-16925D01*
X44423Y-17135D01*
X44148Y-17249D01*
X43850Y-17249D01*
X43850Y-17278D01*
X53178Y-17278D01*
X53183Y-17277D01*
X53432Y-17327D01*
X53643Y-17468D01*
X56785Y-20611D01*
X56970Y-20611D01*
X56959Y-20582D01*
X56959Y-20413D01*
X57024Y-20257D01*
X57144Y-20137D01*
X57300Y-20073D01*
X57322Y-20073D01*
X57322Y-19496D01*
X55372Y-17546D01*
X55180Y-17546D01*
X54987Y-17466D01*
X54840Y-17318D01*
X54760Y-17125D01*
X54760Y-16916D01*
X54840Y-16723D01*
X54988Y-16576D01*
X55062Y-16545D01*
X54960Y-16545D01*
X54869Y-16507D01*
X54799Y-16437D01*
X54761Y-16345D01*
X54761Y-15702D01*
X53733Y-16730D01*
X53633Y-16797D01*
X53514Y-16821D01*
X48857Y-16821D01*
X48738Y-16797D01*
X48638Y-16730D01*
X47088Y-15180D01*
X47016Y-15180D01*
X46860Y-15115D01*
X46740Y-14995D01*
X46676Y-14839D01*
X46676Y-14670D01*
X46741Y-14514D01*
X46861Y-14394D01*
X47017Y-14330D01*
X47186Y-14330D01*
X47342Y-14395D01*
X47462Y-14515D01*
X47526Y-14671D01*
X47526Y-14742D01*
X48985Y-16201D01*
X53385Y-16201D01*
X55151Y-14434D01*
X55151Y-14216D01*
X55235Y-14014D01*
X55389Y-13860D01*
X55591Y-13776D01*
X55809Y-13776D01*
X56011Y-13860D01*
X56165Y-14014D01*
X56249Y-14216D01*
X56249Y-14434D01*
X56165Y-14636D01*
X56011Y-14790D01*
X55809Y-14874D01*
X55591Y-14874D01*
X55590Y-14873D01*
X54966Y-15497D01*
X55610Y-15497D01*
X55701Y-15535D01*
X55771Y-15605D01*
X55809Y-15697D01*
X55809Y-16346D01*
X55771Y-16437D01*
X55701Y-16507D01*
X55609Y-16545D01*
X55508Y-16545D01*
X55583Y-16576D01*
X55730Y-16724D01*
X55810Y-16917D01*
X55810Y-17108D01*
X57631Y-18929D01*
X58951Y-17609D01*
X58951Y-17391D01*
X59035Y-17189D01*
X59189Y-17035D01*
X59273Y-17000D01*
X59189Y-16965D01*
X59035Y-16811D01*
X58951Y-16609D01*
X58951Y-16391D01*
X59035Y-16189D01*
X59189Y-16035D01*
X59391Y-15951D01*
X59609Y-15951D01*
X59811Y-16035D01*
X59965Y-16189D01*
X60000Y-16273D01*
X60035Y-16189D01*
X60189Y-16035D01*
X60391Y-15951D01*
X60609Y-15951D01*
X60811Y-16035D01*
X60951Y-16175D01*
X60951Y-16150D01*
X60989Y-16059D01*
X61059Y-15989D01*
X61151Y-15951D01*
X61850Y-15951D01*
X61941Y-15989D01*
X62011Y-16059D01*
X62049Y-16151D01*
X62049Y-16850D01*
X62020Y-16918D01*
X62554Y-17452D01*
X62591Y-17507D01*
X62591Y-14874D01*
X62389Y-14790D01*
X62235Y-14636D01*
X62225Y-14611D01*
X62215Y-14636D01*
X62061Y-14790D01*
X61859Y-14874D01*
X61641Y-14874D01*
X61439Y-14790D01*
X61285Y-14636D01*
X61201Y-14434D01*
X61201Y-14216D01*
X61285Y-14014D01*
X61439Y-13860D01*
X61641Y-13776D01*
X61859Y-13776D01*
X62061Y-13860D01*
X62215Y-14014D01*
X62225Y-14038D01*
X62235Y-14014D01*
X62389Y-13860D01*
X62591Y-13776D01*
X62809Y-13776D01*
X63011Y-13860D01*
X63165Y-14014D01*
X63249Y-14216D01*
X63249Y-14434D01*
X63165Y-14636D01*
X63011Y-14790D01*
X62809Y-14874D01*
X62591Y-14874D01*
X62591Y-17507D01*
X62621Y-17553D01*
X62645Y-17672D01*
X62645Y-18021D01*
X62696Y-18072D01*
X62760Y-18228D01*
X62760Y-18397D01*
X62695Y-18553D01*
X62645Y-18603D01*
X62645Y-18754D01*
X62621Y-18873D01*
X62554Y-18973D01*
X61568Y-19959D01*
X61468Y-20026D01*
X61349Y-20050D01*
X58983Y-20050D01*
X58969Y-20063D01*
X59005Y-20149D01*
X59005Y-20318D01*
X58985Y-20364D01*
X64150Y-20364D01*
X64150Y-17517D01*
X63994Y-17452D01*
X63874Y-17332D01*
X63810Y-17176D01*
X63810Y-17046D01*
X63670Y-16988D01*
X63550Y-16868D01*
X63486Y-16712D01*
X63486Y-16543D01*
X63551Y-16387D01*
X63601Y-16337D01*
X63601Y-13514D01*
X62379Y-13514D01*
X62260Y-13490D01*
X62209Y-13456D01*
X62159Y-13423D01*
X61860Y-13123D01*
X61859Y-13124D01*
X61641Y-13124D01*
X61439Y-13040D01*
X61285Y-12886D01*
X61201Y-12684D01*
X61201Y-12466D01*
X61285Y-12264D01*
X61439Y-12110D01*
X61641Y-12026D01*
X61859Y-12026D01*
X62061Y-12110D01*
X62215Y-12264D01*
X62225Y-12288D01*
X62235Y-12264D01*
X62389Y-12110D01*
X62591Y-12026D01*
X62809Y-12026D01*
X63011Y-12110D01*
X63165Y-12264D01*
X63249Y-12466D01*
X63249Y-12684D01*
X63165Y-12886D01*
X63157Y-12894D01*
X64492Y-12894D01*
X64701Y-12685D01*
X64701Y-12466D01*
X64785Y-12264D01*
X64939Y-12110D01*
X65141Y-12026D01*
X65359Y-12026D01*
X65561Y-12110D01*
X65715Y-12264D01*
X65799Y-12466D01*
X65799Y-12684D01*
X65715Y-12886D01*
X65561Y-13040D01*
X65359Y-13124D01*
X65141Y-13124D01*
X65139Y-13123D01*
X64840Y-13423D01*
X64740Y-13490D01*
X64621Y-13514D01*
X64221Y-13514D01*
X64221Y-16337D01*
X64272Y-16388D01*
X64336Y-16544D01*
X64336Y-16552D01*
X65141Y-15747D01*
X65141Y-14874D01*
X64939Y-14790D01*
X64785Y-14636D01*
X64701Y-14434D01*
X64701Y-14216D01*
X64785Y-14014D01*
X64939Y-13860D01*
X65141Y-13776D01*
X65359Y-13776D01*
X65561Y-13860D01*
X65715Y-14014D01*
X65799Y-14216D01*
X65799Y-14434D01*
X65715Y-14636D01*
X65561Y-14790D01*
X65359Y-14874D01*
X65141Y-14874D01*
X65141Y-15747D01*
X65950Y-14938D01*
X66001Y-14904D01*
X66051Y-14871D01*
X66170Y-14847D01*
X66437Y-14847D01*
X66488Y-14796D01*
X66644Y-14732D01*
X66813Y-14732D01*
X66969Y-14797D01*
X67089Y-14917D01*
X67153Y-15073D01*
X67153Y-15242D01*
X67088Y-15398D01*
X66968Y-15518D01*
X66812Y-15582D01*
X66643Y-15582D01*
X66487Y-15517D01*
X66437Y-15467D01*
X66298Y-15467D01*
X64660Y-17105D01*
X64660Y-17177D01*
X64595Y-17333D01*
X64475Y-17453D01*
X64319Y-17517D01*
X64150Y-17517D01*
X64150Y-20364D01*
X64528Y-20364D01*
X64647Y-20388D01*
X64747Y-20455D01*
X65016Y-20724D01*
X65016Y-20425D01*
X65092Y-20241D01*
X65233Y-20101D01*
X65417Y-20025D01*
X65616Y-20025D01*
X65783Y-20094D01*
X65853Y-20025D01*
X65853Y-17787D01*
X65802Y-17736D01*
X65738Y-17580D01*
X65738Y-17411D01*
X65803Y-17255D01*
X65923Y-17135D01*
X66079Y-17071D01*
X66248Y-17071D01*
X66404Y-17136D01*
X66459Y-17191D01*
X66498Y-17100D01*
X66618Y-16980D01*
X66774Y-16916D01*
X66845Y-16916D01*
X68148Y-15612D01*
X68113Y-15577D01*
X68049Y-15421D01*
X68049Y-15252D01*
X68114Y-15096D01*
X68234Y-14976D01*
X68390Y-14912D01*
X68559Y-14912D01*
X68715Y-14977D01*
X68835Y-15097D01*
X68899Y-15253D01*
X68899Y-15422D01*
X68834Y-15578D01*
X68784Y-15628D01*
X68784Y-15725D01*
X68760Y-15844D01*
X68693Y-15944D01*
X67767Y-16869D01*
X67862Y-16831D01*
X68031Y-16831D01*
X68187Y-16896D01*
X68307Y-17016D01*
X68371Y-17172D01*
X68371Y-17242D01*
X68691Y-17562D01*
X68758Y-17663D01*
X68782Y-17782D01*
X68782Y-20235D01*
X68758Y-20354D01*
X68691Y-20454D01*
X68126Y-21019D01*
X68026Y-21086D01*
X67984Y-21094D01*
X67984Y-21175D01*
X67908Y-21359D01*
X67767Y-21499D01*
X67583Y-21575D01*
X67384Y-21575D01*
X67200Y-21499D01*
X67060Y-21358D01*
X66992Y-21193D01*
X66924Y-21359D01*
X66783Y-21499D01*
X66599Y-21575D01*
X66400Y-21575D01*
X66216Y-21499D01*
X66167Y-21449D01*
X65783Y-21832D01*
X65817Y-21847D01*
X65937Y-21967D01*
X66001Y-22123D01*
X66001Y-22292D01*
X65971Y-22362D01*
X69584Y-22362D01*
X69584Y-20689D01*
X69428Y-20624D01*
X69308Y-20504D01*
X69244Y-20348D01*
X69244Y-20179D01*
X69309Y-20023D01*
X69359Y-19973D01*
X69359Y-14336D01*
X69383Y-14217D01*
X69448Y-14119D01*
X69448Y-14047D01*
X69513Y-13891D01*
X69633Y-13771D01*
X69789Y-13707D01*
X69958Y-13707D01*
X70114Y-13772D01*
X70234Y-13892D01*
X70298Y-14048D01*
X70298Y-14217D01*
X70233Y-14373D01*
X70113Y-14493D01*
X69979Y-14547D01*
X69979Y-19973D01*
X70030Y-20024D01*
X70094Y-20180D01*
X70094Y-20349D01*
X70029Y-20505D01*
X69909Y-20625D01*
X69753Y-20689D01*
X69584Y-20689D01*
X69584Y-22362D01*
X69718Y-22362D01*
X71265Y-20815D01*
X71366Y-20575D01*
X71378Y-20562D01*
X71399Y-20460D01*
X71540Y-20249D01*
X72040Y-19749D01*
X71850Y-19749D01*
X71575Y-19634D01*
X71365Y-19423D01*
X71251Y-19148D01*
X71251Y-18850D01*
X71366Y-18575D01*
X71577Y-18365D01*
X71610Y-18351D01*
X71610Y-17148D01*
X71575Y-17134D01*
X71365Y-16923D01*
X71251Y-16648D01*
X71251Y-16350D01*
X71366Y-16075D01*
X71577Y-15865D01*
X71850Y-15751D01*
X71850Y-15249D01*
X71575Y-15134D01*
X71365Y-14923D01*
X71251Y-14648D01*
X71251Y-14350D01*
X71366Y-14075D01*
X71577Y-13865D01*
X71852Y-13751D01*
X72150Y-13751D01*
X72425Y-13866D01*
X72635Y-14077D01*
X72749Y-14352D01*
X72749Y-14650D01*
X72634Y-14925D01*
X72423Y-15135D01*
X72148Y-15249D01*
X71850Y-15249D01*
X71850Y-15751D01*
X72150Y-15751D01*
X72425Y-15866D01*
X72635Y-16077D01*
X72749Y-16352D01*
X72749Y-16650D01*
X72634Y-16925D01*
X72423Y-17135D01*
X72390Y-17148D01*
X72390Y-18351D01*
X72425Y-18366D01*
X72635Y-18577D01*
X72749Y-18852D01*
X72749Y-19040D01*
X73767Y-18022D01*
X73767Y-13662D01*
X73623Y-13576D01*
X73473Y-13214D01*
X73470Y-12804D01*
X73623Y-12424D01*
X73767Y-12338D01*
X74429Y-13000D01*
X73767Y-13662D01*
X73767Y-18022D01*
X74304Y-17485D01*
X74304Y-14030D01*
X73924Y-13877D01*
X73838Y-13733D01*
X74500Y-13071D01*
X74500Y-12929D01*
X73838Y-12267D01*
X73924Y-12123D01*
X74286Y-11973D01*
X74696Y-11970D01*
X75076Y-12123D01*
X75162Y-12267D01*
X74500Y-12929D01*
X74500Y-13071D01*
X75162Y-13733D01*
X75076Y-13877D01*
X74714Y-14027D01*
X74304Y-14030D01*
X74304Y-17485D01*
X74499Y-17290D01*
X74710Y-17149D01*
X74959Y-17100D01*
X75233Y-17100D01*
X75233Y-13662D01*
X74571Y-13000D01*
X75233Y-12338D01*
X75377Y-12424D01*
X75527Y-12786D01*
X75530Y-13196D01*
X75377Y-13576D01*
X75233Y-13662D01*
X75233Y-17100D01*
X76041Y-17100D01*
X75865Y-16923D01*
X75751Y-16648D01*
X75751Y-16350D01*
X75866Y-16075D01*
X76077Y-15865D01*
X76350Y-15751D01*
X76350Y-15249D01*
X76075Y-15134D01*
X75865Y-14923D01*
X75751Y-14648D01*
X75751Y-14350D01*
X75866Y-14075D01*
X76077Y-13865D01*
X76352Y-13751D01*
X76650Y-13751D01*
X76925Y-13866D01*
X77135Y-14077D01*
X77249Y-14352D01*
X77249Y-14650D01*
X77134Y-14925D01*
X76923Y-15135D01*
X76648Y-15249D01*
X76350Y-15249D01*
X76350Y-15751D01*
X76650Y-15751D01*
X76925Y-15866D01*
X77135Y-16077D01*
X77249Y-16352D01*
X77249Y-16650D01*
X77134Y-16925D01*
X76958Y-17100D01*
X77745Y-17100D01*
X77750Y-17099D01*
X77999Y-17149D01*
X78210Y-17290D01*
X80850Y-19930D01*
X80850Y-19749D01*
X80575Y-19634D01*
X80365Y-19423D01*
X80251Y-19148D01*
X80251Y-18850D01*
X80366Y-18575D01*
X80577Y-18365D01*
X80610Y-18351D01*
X80610Y-17148D01*
X80575Y-17134D01*
X80365Y-16923D01*
X80251Y-16648D01*
X80251Y-16350D01*
X80366Y-16075D01*
X80577Y-15865D01*
X80850Y-15751D01*
X80850Y-15249D01*
X80575Y-15134D01*
X80365Y-14923D01*
X80251Y-14648D01*
X80251Y-14350D01*
X80366Y-14075D01*
X80577Y-13865D01*
X80852Y-13751D01*
X81150Y-13751D01*
X81425Y-13866D01*
X81635Y-14077D01*
X81749Y-14352D01*
X81749Y-14650D01*
X81634Y-14925D01*
X81423Y-15135D01*
X81148Y-15249D01*
X80850Y-15249D01*
X80850Y-15751D01*
X81150Y-15751D01*
X81425Y-15866D01*
X81635Y-16077D01*
X81749Y-16352D01*
X81749Y-16650D01*
X81634Y-16925D01*
X81423Y-17135D01*
X81390Y-17148D01*
X81390Y-18351D01*
X81425Y-18366D01*
X81635Y-18577D01*
X81749Y-18852D01*
X81749Y-19150D01*
X81634Y-19425D01*
X81423Y-19635D01*
X81148Y-19749D01*
X80850Y-19749D01*
X80850Y-19930D01*
X80999Y-20080D01*
X83790Y-17290D01*
X84001Y-17149D01*
X84250Y-17100D01*
X85041Y-17100D01*
X84865Y-16923D01*
X84751Y-16648D01*
X84751Y-16350D01*
X84866Y-16075D01*
X85077Y-15865D01*
X85350Y-15751D01*
X85350Y-15249D01*
X85075Y-15134D01*
X84865Y-14923D01*
X84751Y-14648D01*
X84751Y-14350D01*
X84866Y-14075D01*
X85077Y-13865D01*
X85352Y-13751D01*
X85650Y-13751D01*
X85925Y-13866D01*
X86135Y-14077D01*
X86249Y-14352D01*
X86249Y-14650D01*
X86134Y-14925D01*
X85923Y-15135D01*
X85648Y-15249D01*
X85350Y-15249D01*
X85350Y-15751D01*
X85650Y-15751D01*
X85925Y-15866D01*
X86135Y-16077D01*
X86249Y-16352D01*
X86249Y-16650D01*
X86134Y-16925D01*
X85958Y-17100D01*
X86745Y-17100D01*
X86750Y-17099D01*
X86999Y-17149D01*
X87210Y-17290D01*
X89850Y-19930D01*
X89850Y-19749D01*
X89575Y-19634D01*
X89365Y-19423D01*
X89251Y-19148D01*
X89251Y-18850D01*
X89366Y-18575D01*
X89577Y-18365D01*
X89610Y-18351D01*
X89610Y-17148D01*
X89575Y-17134D01*
X89365Y-16923D01*
X89251Y-16648D01*
X89251Y-16350D01*
X89366Y-16075D01*
X89577Y-15865D01*
X89850Y-15751D01*
X89850Y-15249D01*
X89575Y-15134D01*
X89365Y-14923D01*
X89251Y-14648D01*
X89251Y-14350D01*
X89366Y-14075D01*
X89577Y-13865D01*
X89852Y-13751D01*
X90150Y-13751D01*
X90425Y-13866D01*
X90635Y-14077D01*
X90749Y-14352D01*
X90749Y-14650D01*
X90634Y-14925D01*
X90423Y-15135D01*
X90148Y-15249D01*
X89850Y-15249D01*
X89850Y-15751D01*
X90150Y-15751D01*
X90425Y-15866D01*
X90635Y-16077D01*
X90749Y-16352D01*
X90749Y-16650D01*
X90634Y-16925D01*
X90423Y-17135D01*
X90390Y-17148D01*
X90390Y-18351D01*
X90425Y-18366D01*
X90635Y-18577D01*
X90749Y-18852D01*
X90749Y-19150D01*
X90634Y-19425D01*
X90423Y-19635D01*
X90148Y-19749D01*
X89850Y-19749D01*
X89850Y-19930D01*
X90184Y-20265D01*
X90425Y-20366D01*
X90635Y-20577D01*
X90732Y-20813D01*
X91285Y-21366D01*
X93841Y-21366D01*
X93751Y-21148D01*
X93751Y-20850D01*
X93866Y-20575D01*
X94077Y-20365D01*
X94350Y-20251D01*
X94350Y-19749D01*
X94075Y-19634D01*
X93865Y-19423D01*
X93751Y-19148D01*
X93751Y-18850D01*
X93866Y-18575D01*
X94077Y-18365D01*
X94110Y-18351D01*
X94110Y-17148D01*
X94075Y-17134D01*
X93865Y-16923D01*
X93751Y-16648D01*
X93751Y-16350D01*
X93866Y-16075D01*
X94077Y-15865D01*
X94350Y-15751D01*
X94350Y-15249D01*
X94075Y-15134D01*
X93865Y-14923D01*
X93751Y-14648D01*
X93751Y-14350D01*
X93866Y-14075D01*
X94077Y-13865D01*
X94352Y-13751D01*
X94650Y-13751D01*
X94925Y-13866D01*
X95135Y-14077D01*
X95249Y-14352D01*
X95249Y-14650D01*
X95134Y-14925D01*
X94923Y-15135D01*
X94648Y-15249D01*
X94350Y-15249D01*
X94350Y-15751D01*
X94650Y-15751D01*
X94925Y-15866D01*
X95135Y-16077D01*
X95249Y-16352D01*
X95249Y-16650D01*
X95134Y-16925D01*
X94923Y-17135D01*
X94890Y-17148D01*
X94890Y-18351D01*
X94925Y-18366D01*
X95135Y-18577D01*
X95249Y-18852D01*
X95249Y-19150D01*
X95134Y-19425D01*
X94923Y-19635D01*
X94648Y-19749D01*
X94350Y-19749D01*
X94350Y-20251D01*
X94650Y-20251D01*
X94925Y-20366D01*
X95135Y-20577D01*
X95249Y-20852D01*
X95249Y-21150D01*
X95158Y-21366D01*
X97714Y-21366D01*
X98265Y-20815D01*
X98366Y-20575D01*
X98577Y-20365D01*
X98812Y-20267D01*
X98850Y-20230D01*
X98850Y-19749D01*
X98575Y-19634D01*
X98365Y-19423D01*
X98251Y-19148D01*
X98251Y-18850D01*
X98366Y-18575D01*
X98577Y-18365D01*
X98610Y-18351D01*
X98610Y-17148D01*
X98575Y-17134D01*
X98365Y-16923D01*
X98251Y-16648D01*
X98251Y-16350D01*
X98366Y-16075D01*
X98577Y-15865D01*
X98850Y-15751D01*
X98850Y-15249D01*
X98575Y-15134D01*
X98365Y-14923D01*
X98251Y-14648D01*
X98251Y-14350D01*
X98366Y-14075D01*
X98577Y-13865D01*
X98852Y-13751D01*
X99150Y-13751D01*
X99425Y-13866D01*
X99635Y-14077D01*
X99749Y-14352D01*
X99749Y-14650D01*
X99634Y-14925D01*
X99423Y-15135D01*
X99148Y-15249D01*
X98850Y-15249D01*
X98850Y-15751D01*
X99150Y-15751D01*
X99425Y-15866D01*
X99635Y-16077D01*
X99749Y-16352D01*
X99749Y-16650D01*
X99634Y-16925D01*
X99423Y-17135D01*
X99390Y-17148D01*
X99390Y-18351D01*
X99425Y-18366D01*
X99635Y-18577D01*
X99749Y-18852D01*
X99749Y-19150D01*
X99634Y-19425D01*
X99423Y-19635D01*
X99148Y-19749D01*
X98850Y-19749D01*
X98850Y-20230D01*
X101566Y-17514D01*
X101777Y-17373D01*
X102026Y-17324D01*
X103350Y-17324D01*
X103350Y-17249D01*
X103075Y-17134D01*
X102865Y-16923D01*
X102751Y-16648D01*
X102751Y-16350D01*
X102866Y-16075D01*
X103077Y-15865D01*
X103350Y-15751D01*
X103350Y-15249D01*
X103075Y-15134D01*
X102865Y-14923D01*
X102751Y-14648D01*
X102751Y-14350D01*
X102866Y-14075D01*
X103077Y-13865D01*
X103352Y-13751D01*
X103650Y-13751D01*
X103925Y-13866D01*
X104135Y-14077D01*
X104249Y-14352D01*
X104249Y-14650D01*
X104134Y-14925D01*
X103923Y-15135D01*
X103648Y-15249D01*
X103350Y-15249D01*
X103350Y-15751D01*
X103650Y-15751D01*
X103925Y-15866D01*
X104135Y-16077D01*
X104249Y-16352D01*
X104249Y-16650D01*
X104134Y-16925D01*
X103923Y-17135D01*
X103648Y-17249D01*
X103350Y-17249D01*
X103350Y-17324D01*
X105767Y-17324D01*
X105767Y-13662D01*
X105623Y-13576D01*
X105473Y-13214D01*
X105470Y-12804D01*
X105623Y-12424D01*
X105767Y-12338D01*
X106429Y-13000D01*
X105767Y-13662D01*
X105767Y-17324D01*
X106304Y-17324D01*
X106304Y-14030D01*
X105924Y-13877D01*
X105838Y-13733D01*
X106500Y-13071D01*
X106500Y-12929D01*
X105838Y-12267D01*
X105924Y-12123D01*
X106286Y-11973D01*
X106696Y-11970D01*
X107076Y-12123D01*
X107162Y-12267D01*
X106500Y-12929D01*
X106500Y-13071D01*
X107162Y-13733D01*
X107076Y-13877D01*
X106714Y-14027D01*
X106304Y-14030D01*
X106304Y-17324D01*
X106384Y-17324D01*
X106399Y-17251D01*
X106540Y-17040D01*
X106622Y-16985D01*
X106622Y-16808D01*
X106528Y-16781D01*
X106468Y-16634D01*
X106457Y-16421D01*
X106528Y-16219D01*
X106622Y-16192D01*
X106622Y-15808D01*
X106528Y-15781D01*
X106468Y-15634D01*
X106457Y-15421D01*
X106528Y-15219D01*
X106622Y-15192D01*
X106929Y-15500D01*
X106622Y-15808D01*
X106622Y-16192D01*
X106929Y-16500D01*
X106622Y-16808D01*
X106622Y-16985D01*
X106706Y-16928D01*
X106692Y-16878D01*
X107000Y-16571D01*
X107000Y-16429D01*
X106692Y-16122D01*
X106719Y-16028D01*
X106792Y-15997D01*
X106719Y-15972D01*
X106692Y-15878D01*
X107000Y-15571D01*
X107000Y-15429D01*
X106692Y-15122D01*
X106719Y-15028D01*
X106866Y-14968D01*
X107079Y-14957D01*
X107233Y-15011D01*
X107233Y-13662D01*
X106571Y-13000D01*
X107233Y-12338D01*
X107377Y-12424D01*
X107527Y-12786D01*
X107530Y-13196D01*
X107377Y-13576D01*
X107233Y-13662D01*
X107233Y-15011D01*
X107281Y-15028D01*
X107308Y-15122D01*
X107000Y-15429D01*
X107000Y-15571D01*
X107308Y-15878D01*
X107281Y-15972D01*
X107207Y-16002D01*
X107281Y-16028D01*
X107308Y-16122D01*
X107000Y-16429D01*
X107000Y-16571D01*
X107308Y-16878D01*
X107293Y-16928D01*
X107378Y-16985D01*
X107378Y-16808D01*
X107071Y-16500D01*
X107378Y-16192D01*
X107378Y-15808D01*
X107071Y-15500D01*
X107378Y-15192D01*
X107472Y-15219D01*
X107532Y-15366D01*
X107543Y-15579D01*
X107472Y-15781D01*
X107378Y-15808D01*
X107378Y-16192D01*
X107472Y-16219D01*
X107532Y-16366D01*
X107543Y-16579D01*
X107472Y-16781D01*
X107378Y-16808D01*
X107378Y-16985D01*
X107460Y-17040D01*
X107601Y-17251D01*
X107650Y-17500D01*
X107650Y-18500D01*
X107601Y-18749D01*
X107460Y-18960D01*
X107325Y-19049D01*
X107465Y-19189D01*
X107549Y-19391D01*
X107549Y-19609D01*
X107465Y-19811D01*
X107325Y-19951D01*
X107350Y-19951D01*
X107441Y-19989D01*
X107511Y-20059D01*
X107549Y-20151D01*
X107549Y-20850D01*
X107511Y-20941D01*
X107441Y-21011D01*
X107349Y-21049D01*
X106650Y-21049D01*
X106559Y-21011D01*
X106489Y-20941D01*
X106451Y-20849D01*
X106451Y-20150D01*
X106489Y-20059D01*
X106559Y-19989D01*
X106651Y-19951D01*
X106675Y-19951D01*
X106535Y-19811D01*
X106451Y-19609D01*
X106451Y-19391D01*
X106535Y-19189D01*
X106674Y-19049D01*
X106540Y-18960D01*
X106399Y-18749D01*
X106374Y-18624D01*
X104154Y-18624D01*
X104249Y-18852D01*
X104249Y-19150D01*
X104134Y-19425D01*
X103923Y-19635D01*
X103648Y-19749D01*
X103350Y-19749D01*
X103075Y-19634D01*
X102865Y-19423D01*
X102751Y-19148D01*
X102751Y-18850D01*
X102845Y-18624D01*
X102295Y-18624D01*
X99733Y-21185D01*
X99634Y-21425D01*
X99423Y-21635D01*
X99186Y-21733D01*
X98444Y-22476D01*
X98233Y-22617D01*
X97984Y-22667D01*
X97979Y-22666D01*
X91016Y-22666D01*
X91015Y-22665D01*
X91015Y-22666D01*
X90974Y-22657D01*
X90767Y-22617D01*
X90556Y-22476D01*
X90553Y-22472D01*
X89814Y-21734D01*
X89575Y-21634D01*
X89365Y-21423D01*
X89266Y-21185D01*
X86480Y-18400D01*
X85958Y-18400D01*
X86135Y-18577D01*
X86249Y-18852D01*
X86249Y-19150D01*
X86134Y-19425D01*
X85923Y-19635D01*
X85648Y-19749D01*
X85350Y-19749D01*
X85075Y-19634D01*
X84865Y-19423D01*
X84751Y-19148D01*
X84751Y-18850D01*
X84866Y-18575D01*
X85041Y-18400D01*
X84519Y-18400D01*
X81733Y-21185D01*
X81634Y-21425D01*
X81423Y-21635D01*
X81148Y-21749D01*
X80850Y-21749D01*
X80575Y-21634D01*
X80365Y-21423D01*
X80266Y-21185D01*
X77480Y-18400D01*
X76958Y-18400D01*
X77135Y-18577D01*
X77249Y-18852D01*
X77249Y-19150D01*
X77134Y-19425D01*
X76923Y-19635D01*
X76648Y-19749D01*
X76350Y-19749D01*
X76075Y-19634D01*
X75865Y-19423D01*
X75751Y-19148D01*
X75751Y-18850D01*
X75866Y-18575D01*
X76041Y-18400D01*
X75228Y-18400D01*
X74276Y-19351D01*
X74357Y-19432D01*
X74421Y-19588D01*
X74421Y-19757D01*
X74356Y-19913D01*
X74306Y-19963D01*
X74306Y-20410D01*
X74282Y-20529D01*
X74248Y-20578D01*
X74215Y-20630D01*
X71595Y-23249D01*
X71595Y-23266D01*
X72484Y-23266D01*
X72389Y-23171D01*
X72325Y-23015D01*
X72325Y-22846D01*
X72390Y-22690D01*
X72510Y-22570D01*
X72593Y-22535D01*
X74405Y-20724D01*
X74532Y-20640D01*
X74650Y-20616D01*
X74680Y-20610D01*
X75851Y-20610D01*
X75866Y-20575D01*
X76077Y-20365D01*
X76352Y-20251D01*
X76650Y-20251D01*
X76925Y-20366D01*
X77135Y-20577D01*
X77249Y-20852D01*
X77249Y-21150D01*
X77134Y-21425D01*
X76923Y-21635D01*
X76648Y-21749D01*
X76350Y-21749D01*
X76075Y-21634D01*
X75865Y-21423D01*
X75851Y-21390D01*
X74842Y-21390D01*
X73145Y-23087D01*
X73110Y-23172D01*
X73016Y-23266D01*
X82681Y-23266D01*
X84765Y-21182D01*
X84751Y-21148D01*
X84751Y-20850D01*
X84866Y-20575D01*
X85077Y-20365D01*
X85352Y-20251D01*
X85650Y-20251D01*
X85925Y-20366D01*
X86135Y-20577D01*
X86249Y-20852D01*
X86249Y-21150D01*
X86134Y-21425D01*
X85923Y-21635D01*
X85648Y-21749D01*
X85350Y-21749D01*
X85316Y-21735D01*
X83327Y-23725D01*
X103350Y-23725D01*
X103350Y-21749D01*
X103075Y-21634D01*
X102865Y-21423D01*
X102751Y-21148D01*
X102751Y-20850D01*
X102866Y-20575D01*
X103077Y-20365D01*
X103352Y-20251D01*
X103650Y-20251D01*
X103925Y-20366D01*
X104135Y-20577D01*
X104249Y-20852D01*
X104249Y-21150D01*
X104134Y-21425D01*
X103923Y-21635D01*
X103648Y-21749D01*
X103350Y-21749D01*
X103350Y-23725D01*
X105767Y-23725D01*
X105767Y-23162D01*
X105623Y-23076D01*
X105473Y-22714D01*
X105470Y-22304D01*
X105623Y-21924D01*
X105767Y-21838D01*
X106429Y-22500D01*
X105767Y-23162D01*
X105767Y-23725D01*
X106304Y-23725D01*
X106304Y-23530D01*
X105924Y-23377D01*
X105838Y-23233D01*
X106500Y-22571D01*
X106500Y-22429D01*
X105838Y-21767D01*
X105924Y-21623D01*
X106286Y-21473D01*
X106696Y-21470D01*
X107076Y-21623D01*
X107162Y-21767D01*
X106500Y-22429D01*
X106500Y-22571D01*
X107162Y-23233D01*
X107076Y-23377D01*
X106714Y-23527D01*
X106304Y-23530D01*
X106304Y-23725D01*
X107233Y-23725D01*
X107233Y-23162D01*
X106571Y-22500D01*
X107233Y-21838D01*
X107377Y-21924D01*
X107527Y-22286D01*
X107530Y-22696D01*
X107377Y-23076D01*
X107233Y-23162D01*
X107233Y-23725D01*
X107725Y-23725D01*
M02*
