M48
INCH,TZ
T1C0.025
T2C0.032
T3C0.039
T4C0.040
T5C0.050
T6C0.120
%
G05
T1
X036837Y-054834
X073027Y-053903
X073598Y-062052
X073761Y-057200
X073884Y-056300
X073962Y-054832
X074828Y-054246
X074976Y-052154
X075231Y-058209
X075624Y-057317
X076100Y-058537
X076122Y-058045
X076723Y-058114
X077436Y-054689
X077468Y-056702
X078046Y-059369
X078046Y-062052
X078055Y-056689
X078336Y-054549
X078676Y-062443
X078687Y-059840
X078714Y-061593
X078721Y-060354
X080000Y-056600
X080125Y-059750
X080162Y-058913
X080169Y-058358
X080259Y-060250
X080341Y-061566
X081696Y-060750
X082000Y-057100
X082309Y-059891
X083804Y-055722
T2
X027800Y-053200
X027800Y-054200
X027800Y-055200
X027800Y-056200
X027800Y-057200
X027800Y-058200
X027800Y-059200
X027800Y-060200
X078800Y-052400
X079800Y-052400
X136300Y-053200
X136300Y-054200
X136300Y-055200
X136300Y-056200
X136300Y-057200
X136300Y-058200
X136300Y-059200
X136300Y-060200
T3
X033600Y-055200
X033600Y-058200
X039499Y-053500
X039499Y-055500
X039500Y-058000
X039500Y-060000
X044000Y-053500
X044000Y-055500
X044000Y-058000
X044000Y-060000
X048500Y-053500
X048500Y-055500
X048500Y-058000
X048500Y-060000
X053000Y-053500
X053000Y-055500
X053000Y-058000
X053000Y-060000
X057500Y-053500
X057500Y-055500
X057500Y-058000
X057500Y-060000
X062000Y-053500
X062000Y-055500
X062000Y-058000
X062000Y-060000
X066500Y-053500
X066500Y-055500
X066500Y-058000
X066500Y-060000
X071000Y-053500
X071000Y-055500
X071000Y-058000
X071000Y-060000
X093000Y-053500
X093000Y-055500
X093000Y-058000
X093000Y-060000
X097500Y-053500
X097500Y-055500
X097500Y-058000
X097500Y-060000
X102000Y-053500
X102000Y-055500
X102000Y-058000
X102000Y-060000
X106500Y-053500
X106500Y-055500
X106500Y-058000
X106500Y-060000
X111000Y-053500
X111000Y-055500
X111000Y-057900
X111000Y-059900
X115600Y-053500
X115600Y-055500
X115600Y-058000
X115600Y-060000
X120000Y-053500
X120000Y-055500
X120000Y-058000
X120000Y-060000
X124500Y-053500
X124500Y-055500
X124500Y-058000
X124500Y-060000
X130500Y-055200
X130500Y-058200
T4
X074700Y-059900
X074700Y-060900
X075300Y-051575
X075300Y-053325
X075700Y-059900
X075700Y-060900
X076700Y-059900
X076700Y-060900
X077850Y-051575
X077850Y-053325
X080700Y-051575
X080700Y-053325
X083250Y-051575
X083250Y-053325
X084800Y-055200
X084800Y-056200
X084800Y-057200
X085800Y-055200
X085800Y-056200
X085800Y-057200
X086100Y-051575
X086100Y-053325
X086800Y-055200
X086800Y-056200
X086800Y-057200
X087800Y-055200
X087800Y-056200
X087800Y-057200
X088650Y-051575
X088650Y-053325
X088800Y-055200
X088800Y-056200
X088800Y-057200
X089800Y-055200
X089800Y-056200
X089800Y-057200
T5
X085100Y-060200
X089100Y-059200
X089100Y-061200
T6
X036500Y-052000
X036500Y-061500
X068500Y-052000
X068500Y-061500
X095500Y-052000
X095500Y-061500
X127500Y-052000
X127500Y-061500
T0
M30
