M48
INCH,TZ
T1C0.025
T2C0.032
T3C0.039
T4C0.040
T5C0.050
T6C0.120
%
G05
T1
X27101Y-17035
X29398Y-22684
X47101Y-14755
X47595Y-17928
X47671Y-22965
X49346Y-15947
X50243Y-12427
X54517Y-20541
X57384Y-20498
X58471Y-22704
X58580Y-20233
X58692Y-19740
X60516Y-21980
X61175Y-18642
X61630Y-18588
X62335Y-18312
X62865Y-22385
X63599Y-21118
X63911Y-16628
X64195Y-19637
X64235Y-17092
X65576Y-22207
X66163Y-17496
X66728Y-15157
X66858Y-17341
X67946Y-17256
X67950Y-19210
X68474Y-15337
X69669Y-20264
X69873Y-14132
X71170Y-23236
X72750Y-22931
X73996Y-19672
X105300Y-18912
T2
X55285Y-16021
X55285Y-17021
X65516Y-20800
X66500Y-20800
X67484Y-20800
T3
X12500Y-14500
X12500Y-16500
X12500Y-19000
X12500Y-21000
X17000Y-14500
X17000Y-16500
X17000Y-19000
X17000Y-21000
X21500Y-14500
X21500Y-16500
X21500Y-19000
X21500Y-21000
X26000Y-14500
X26000Y-16500
X26000Y-19000
X26000Y-21000
X30500Y-14500
X30500Y-16500
X30500Y-19000
X30500Y-21000
X35000Y-14500
X35000Y-16500
X35000Y-19000
X35000Y-21000
X39500Y-14500
X39500Y-16500
X39500Y-19000
X39500Y-21000
X44000Y-14500
X44000Y-16500
X44000Y-19000
X44000Y-21000
X72000Y-14500
X72000Y-16500
X72000Y-19000
X72000Y-21000
X76500Y-14500
X76500Y-16500
X76500Y-19000
X76500Y-21000
X81000Y-14500
X81000Y-16500
X81000Y-19000
X81000Y-21000
X85500Y-14500
X85500Y-16500
X85500Y-19000
X85500Y-21000
X90000Y-14500
X90000Y-16500
X90000Y-19000
X90000Y-21000
X94500Y-14500
X94500Y-16500
X94500Y-19000
X94500Y-21000
X99000Y-14500
X99000Y-16500
X99000Y-19000
X99000Y-21000
X103500Y-14500
X103500Y-16500
X103500Y-19000
X103500Y-21000
T4
X9000Y-15500
X9000Y-16500
X9000Y-17500
X9000Y-18500
X9000Y-19500
X9000Y-20500
X55700Y-12575
X55700Y-14325
X58250Y-12575
X58250Y-14325
X59200Y-12575
X59200Y-14325
X59500Y-16500
X59500Y-17500
X60500Y-16500
X60500Y-17500
X61500Y-16500
X61500Y-17500
X61750Y-12575
X61750Y-14325
X62700Y-12575
X62700Y-14325
X65250Y-12575
X65250Y-14325
X107000Y-15500
X107000Y-16500
X107000Y-17500
X107000Y-18500
X107000Y-19500
X107000Y-20500
T5
X48495Y-20720
X52495Y-19720
X52495Y-21720
T6
X9500Y-13000
X9500Y-22500
X41500Y-13000
X74500Y-13000
X106500Y-13000
X106500Y-22500
T0
M30
