G04 (created by PCBNEW-RS274X (2011-04-28)-stable) date Mon 01 Aug 2011 08:49:31 PM CEST*
G01*
G70*
G90*
%MOIN*%
G04 Gerber Fmt 3.4, Leading zero omitted, Abs format*
%FSLAX34Y34*%
G04 APERTURE LIST*
%ADD10C,0.010000*%
%ADD11C,0.015000*%
%ADD12C,0.008000*%
%ADD13C,0.005000*%
%ADD14C,0.004500*%
%ADD15R,0.070000X0.070000*%
%ADD16C,0.070000*%
%ADD17R,0.060000X0.060000*%
%ADD18C,0.060000*%
%ADD19R,0.080000X0.080000*%
%ADD20C,0.080000*%
%ADD21R,0.055000X0.055000*%
%ADD22C,0.055000*%
%ADD23C,0.160000*%
%ADD24R,0.045000X0.025000*%
%ADD25R,0.025000X0.045000*%
G04 APERTURE END LIST*
G54D10*
G54D11*
X102400Y-51800D02*
X119600Y-51800D01*
X118300Y-50900D02*
X118300Y-52700D01*
X119600Y-52700D02*
X102400Y-52700D01*
X102400Y-50900D02*
X119600Y-50900D01*
X119600Y-50900D02*
X119600Y-52700D01*
X116400Y-50900D02*
X116400Y-52700D01*
X113400Y-50900D02*
X113400Y-52700D01*
X111500Y-50900D02*
X111500Y-52700D01*
X109700Y-52700D02*
X109700Y-50900D01*
X106700Y-52700D02*
X106700Y-50900D01*
X104100Y-50900D02*
X104100Y-52700D01*
X102100Y-50600D02*
X103200Y-50600D01*
X102100Y-51800D02*
X102100Y-50600D01*
X102400Y-50900D02*
X102400Y-52700D01*
G54D12*
X119376Y-52002D02*
X119210Y-52502D01*
X119043Y-52002D01*
X118876Y-52312D02*
X118495Y-52312D01*
X118685Y-52502D02*
X118685Y-52121D01*
X119376Y-51102D02*
X119210Y-51602D01*
X119043Y-51102D01*
X118876Y-51412D02*
X118495Y-51412D01*
X118685Y-51602D02*
X118685Y-51221D01*
X117681Y-52026D02*
X117729Y-52002D01*
X117800Y-52002D01*
X117872Y-52026D01*
X117919Y-52074D01*
X117943Y-52121D01*
X117967Y-52217D01*
X117967Y-52288D01*
X117943Y-52383D01*
X117919Y-52431D01*
X117872Y-52479D01*
X117800Y-52502D01*
X117752Y-52502D01*
X117681Y-52479D01*
X117657Y-52455D01*
X117657Y-52288D01*
X117752Y-52288D01*
X117443Y-52502D02*
X117443Y-52002D01*
X117157Y-52502D01*
X117157Y-52002D01*
X116919Y-52502D02*
X116919Y-52002D01*
X116800Y-52002D01*
X116728Y-52026D01*
X116681Y-52074D01*
X116657Y-52121D01*
X116633Y-52217D01*
X116633Y-52288D01*
X116657Y-52383D01*
X116681Y-52431D01*
X116728Y-52479D01*
X116800Y-52502D01*
X116919Y-52502D01*
X117681Y-51126D02*
X117729Y-51102D01*
X117800Y-51102D01*
X117872Y-51126D01*
X117919Y-51174D01*
X117943Y-51221D01*
X117967Y-51317D01*
X117967Y-51388D01*
X117943Y-51483D01*
X117919Y-51531D01*
X117872Y-51579D01*
X117800Y-51602D01*
X117752Y-51602D01*
X117681Y-51579D01*
X117657Y-51555D01*
X117657Y-51388D01*
X117752Y-51388D01*
X117443Y-51602D02*
X117443Y-51102D01*
X117157Y-51602D01*
X117157Y-51102D01*
X116919Y-51602D02*
X116919Y-51102D01*
X116800Y-51102D01*
X116728Y-51126D01*
X116681Y-51174D01*
X116657Y-51221D01*
X116633Y-51317D01*
X116633Y-51388D01*
X116657Y-51483D01*
X116681Y-51531D01*
X116728Y-51579D01*
X116800Y-51602D01*
X116919Y-51602D01*
X115852Y-52502D02*
X116019Y-52264D01*
X116138Y-52502D02*
X116138Y-52002D01*
X115947Y-52002D01*
X115900Y-52026D01*
X115876Y-52050D01*
X115852Y-52098D01*
X115852Y-52169D01*
X115876Y-52217D01*
X115900Y-52240D01*
X115947Y-52264D01*
X116138Y-52264D01*
X115686Y-52002D02*
X115352Y-52502D01*
X115352Y-52002D02*
X115686Y-52502D01*
X115281Y-52550D02*
X114900Y-52550D01*
X114543Y-52502D02*
X114781Y-52502D01*
X114781Y-52002D01*
X114376Y-52240D02*
X114209Y-52240D01*
X114138Y-52502D02*
X114376Y-52502D01*
X114376Y-52002D01*
X114138Y-52002D01*
X113924Y-52502D02*
X113924Y-52002D01*
X113805Y-52002D01*
X113733Y-52026D01*
X113686Y-52074D01*
X113662Y-52121D01*
X113638Y-52217D01*
X113638Y-52288D01*
X113662Y-52383D01*
X113686Y-52431D01*
X113733Y-52479D01*
X113805Y-52502D01*
X113924Y-52502D01*
X115174Y-51079D02*
X115602Y-51721D01*
X115007Y-51340D02*
X114840Y-51340D01*
X114769Y-51602D02*
X115007Y-51602D01*
X115007Y-51102D01*
X114769Y-51102D01*
X114555Y-51602D02*
X114555Y-51102D01*
X114269Y-51602D01*
X114269Y-51102D01*
X113019Y-52502D02*
X113019Y-52002D01*
X112828Y-52002D01*
X112781Y-52026D01*
X112757Y-52050D01*
X112733Y-52098D01*
X112733Y-52169D01*
X112757Y-52217D01*
X112781Y-52240D01*
X112828Y-52264D01*
X113019Y-52264D01*
X112352Y-52240D02*
X112281Y-52264D01*
X112257Y-52288D01*
X112233Y-52336D01*
X112233Y-52407D01*
X112257Y-52455D01*
X112281Y-52479D01*
X112328Y-52502D01*
X112519Y-52502D01*
X112519Y-52002D01*
X112352Y-52002D01*
X112305Y-52026D01*
X112281Y-52050D01*
X112257Y-52098D01*
X112257Y-52145D01*
X112281Y-52193D01*
X112305Y-52217D01*
X112352Y-52240D01*
X112519Y-52240D01*
X111757Y-52502D02*
X112043Y-52502D01*
X111900Y-52502D02*
X111900Y-52002D01*
X111948Y-52074D01*
X111995Y-52121D01*
X112043Y-52145D01*
X112774Y-51079D02*
X113202Y-51721D01*
X112321Y-51555D02*
X112345Y-51579D01*
X112416Y-51602D01*
X112464Y-51602D01*
X112536Y-51579D01*
X112583Y-51531D01*
X112607Y-51483D01*
X112631Y-51388D01*
X112631Y-51317D01*
X112607Y-51221D01*
X112583Y-51174D01*
X112536Y-51126D01*
X112464Y-51102D01*
X112416Y-51102D01*
X112345Y-51126D01*
X112321Y-51150D01*
X112131Y-51579D02*
X112059Y-51602D01*
X111940Y-51602D01*
X111893Y-51579D01*
X111869Y-51555D01*
X111845Y-51507D01*
X111845Y-51460D01*
X111869Y-51412D01*
X111893Y-51388D01*
X111940Y-51364D01*
X112036Y-51340D01*
X112083Y-51317D01*
X112107Y-51293D01*
X112131Y-51245D01*
X112131Y-51198D01*
X112107Y-51150D01*
X112083Y-51126D01*
X112036Y-51102D01*
X111916Y-51102D01*
X111845Y-51126D01*
X111219Y-52502D02*
X111219Y-52002D01*
X111028Y-52002D01*
X110981Y-52026D01*
X110957Y-52050D01*
X110933Y-52098D01*
X110933Y-52169D01*
X110957Y-52217D01*
X110981Y-52240D01*
X111028Y-52264D01*
X111219Y-52264D01*
X110552Y-52240D02*
X110481Y-52264D01*
X110457Y-52288D01*
X110433Y-52336D01*
X110433Y-52407D01*
X110457Y-52455D01*
X110481Y-52479D01*
X110528Y-52502D01*
X110719Y-52502D01*
X110719Y-52002D01*
X110552Y-52002D01*
X110505Y-52026D01*
X110481Y-52050D01*
X110457Y-52098D01*
X110457Y-52145D01*
X110481Y-52193D01*
X110505Y-52217D01*
X110552Y-52240D01*
X110719Y-52240D01*
X110124Y-52002D02*
X110076Y-52002D01*
X110028Y-52026D01*
X110005Y-52050D01*
X109981Y-52098D01*
X109957Y-52193D01*
X109957Y-52312D01*
X109981Y-52407D01*
X110005Y-52455D01*
X110028Y-52479D01*
X110076Y-52502D01*
X110124Y-52502D01*
X110171Y-52479D01*
X110195Y-52455D01*
X110219Y-52407D01*
X110243Y-52312D01*
X110243Y-52193D01*
X110219Y-52098D01*
X110195Y-52050D01*
X110171Y-52026D01*
X110124Y-52002D01*
X110897Y-51555D02*
X110921Y-51579D01*
X110992Y-51602D01*
X111040Y-51602D01*
X111112Y-51579D01*
X111159Y-51531D01*
X111183Y-51483D01*
X111207Y-51388D01*
X111207Y-51317D01*
X111183Y-51221D01*
X111159Y-51174D01*
X111112Y-51126D01*
X111040Y-51102D01*
X110992Y-51102D01*
X110921Y-51126D01*
X110897Y-51150D01*
X110445Y-51602D02*
X110683Y-51602D01*
X110683Y-51102D01*
X110278Y-51602D02*
X110278Y-51102D01*
X109992Y-51602D02*
X110207Y-51317D01*
X109992Y-51102D02*
X110278Y-51388D01*
X109449Y-52002D02*
X109164Y-52002D01*
X109307Y-52502D02*
X109307Y-52002D01*
X109045Y-52002D02*
X108711Y-52502D01*
X108711Y-52002D02*
X109045Y-52502D01*
X108640Y-52550D02*
X108259Y-52550D01*
X107902Y-52502D02*
X108140Y-52502D01*
X108140Y-52002D01*
X107735Y-52240D02*
X107568Y-52240D01*
X107497Y-52502D02*
X107735Y-52502D01*
X107735Y-52002D01*
X107497Y-52002D01*
X107283Y-52502D02*
X107283Y-52002D01*
X107164Y-52002D01*
X107092Y-52026D01*
X107045Y-52074D01*
X107021Y-52121D01*
X106997Y-52217D01*
X106997Y-52288D01*
X107021Y-52383D01*
X107045Y-52431D01*
X107092Y-52479D01*
X107164Y-52502D01*
X107283Y-52502D01*
X108885Y-51602D02*
X108885Y-51102D01*
X108718Y-51460D01*
X108552Y-51102D01*
X108552Y-51602D01*
X108314Y-51602D02*
X108314Y-51102D01*
X108100Y-51579D02*
X108028Y-51602D01*
X107909Y-51602D01*
X107862Y-51579D01*
X107838Y-51555D01*
X107814Y-51507D01*
X107814Y-51460D01*
X107838Y-51412D01*
X107862Y-51388D01*
X107909Y-51364D01*
X108005Y-51340D01*
X108052Y-51317D01*
X108076Y-51293D01*
X108100Y-51245D01*
X108100Y-51198D01*
X108076Y-51150D01*
X108052Y-51126D01*
X108005Y-51102D01*
X107885Y-51102D01*
X107814Y-51126D01*
X107505Y-51102D02*
X107409Y-51102D01*
X107362Y-51126D01*
X107314Y-51174D01*
X107290Y-51269D01*
X107290Y-51436D01*
X107314Y-51531D01*
X107362Y-51579D01*
X107409Y-51602D01*
X107505Y-51602D01*
X107552Y-51579D01*
X107600Y-51531D01*
X107624Y-51436D01*
X107624Y-51269D01*
X107600Y-51174D01*
X107552Y-51126D01*
X107505Y-51102D01*
X106412Y-52479D02*
X106340Y-52502D01*
X106221Y-52502D01*
X106174Y-52479D01*
X106150Y-52455D01*
X106126Y-52407D01*
X106126Y-52360D01*
X106150Y-52312D01*
X106174Y-52288D01*
X106221Y-52264D01*
X106317Y-52240D01*
X106364Y-52217D01*
X106388Y-52193D01*
X106412Y-52145D01*
X106412Y-52098D01*
X106388Y-52050D01*
X106364Y-52026D01*
X106317Y-52002D01*
X106197Y-52002D01*
X106126Y-52026D01*
X106031Y-52550D02*
X105650Y-52550D01*
X105293Y-52502D02*
X105531Y-52502D01*
X105531Y-52002D01*
X105126Y-52240D02*
X104959Y-52240D01*
X104888Y-52502D02*
X105126Y-52502D01*
X105126Y-52002D01*
X104888Y-52002D01*
X104674Y-52502D02*
X104674Y-52002D01*
X104555Y-52002D01*
X104483Y-52026D01*
X104436Y-52074D01*
X104412Y-52121D01*
X104388Y-52217D01*
X104388Y-52288D01*
X104412Y-52383D01*
X104436Y-52431D01*
X104483Y-52479D01*
X104555Y-52502D01*
X104674Y-52502D01*
X103842Y-52002D02*
X103557Y-52002D01*
X103700Y-52502D02*
X103700Y-52002D01*
X103438Y-52002D02*
X103104Y-52502D01*
X103104Y-52002D02*
X103438Y-52502D01*
X102819Y-52002D02*
X102723Y-52002D01*
X102676Y-52026D01*
X102628Y-52074D01*
X102604Y-52169D01*
X102604Y-52336D01*
X102628Y-52431D01*
X102676Y-52479D01*
X102723Y-52502D01*
X102819Y-52502D01*
X102866Y-52479D01*
X102914Y-52431D01*
X102938Y-52336D01*
X102938Y-52169D01*
X102914Y-52074D01*
X102866Y-52026D01*
X102819Y-52002D01*
X106185Y-51602D02*
X106185Y-51102D01*
X106018Y-51460D01*
X105852Y-51102D01*
X105852Y-51602D01*
X105519Y-51102D02*
X105423Y-51102D01*
X105376Y-51126D01*
X105328Y-51174D01*
X105304Y-51269D01*
X105304Y-51436D01*
X105328Y-51531D01*
X105376Y-51579D01*
X105423Y-51602D01*
X105519Y-51602D01*
X105566Y-51579D01*
X105614Y-51531D01*
X105638Y-51436D01*
X105638Y-51269D01*
X105614Y-51174D01*
X105566Y-51126D01*
X105519Y-51102D01*
X105114Y-51579D02*
X105042Y-51602D01*
X104923Y-51602D01*
X104876Y-51579D01*
X104852Y-51555D01*
X104828Y-51507D01*
X104828Y-51460D01*
X104852Y-51412D01*
X104876Y-51388D01*
X104923Y-51364D01*
X105019Y-51340D01*
X105066Y-51317D01*
X105090Y-51293D01*
X105114Y-51245D01*
X105114Y-51198D01*
X105090Y-51150D01*
X105066Y-51126D01*
X105019Y-51102D01*
X104899Y-51102D01*
X104828Y-51126D01*
X104614Y-51602D02*
X104614Y-51102D01*
X103402Y-51602D02*
X103569Y-51364D01*
X103688Y-51602D02*
X103688Y-51102D01*
X103497Y-51102D01*
X103450Y-51126D01*
X103426Y-51150D01*
X103402Y-51198D01*
X103402Y-51269D01*
X103426Y-51317D01*
X103450Y-51340D01*
X103497Y-51364D01*
X103688Y-51364D01*
X103236Y-51102D02*
X102902Y-51602D01*
X102902Y-51102D02*
X103236Y-51602D01*
X102712Y-51602D02*
X102712Y-51102D01*
G54D13*
X75750Y-55250D02*
X75750Y-56150D01*
X75750Y-56150D02*
X76250Y-56150D01*
X76250Y-56150D02*
X76250Y-55250D01*
X76250Y-55250D02*
X75750Y-55250D01*
X75750Y-57150D02*
X75750Y-58050D01*
X75750Y-58050D02*
X76250Y-58050D01*
X76250Y-58050D02*
X76250Y-57150D01*
X76250Y-57150D02*
X75750Y-57150D01*
X76250Y-59950D02*
X76250Y-59050D01*
X76250Y-59050D02*
X75750Y-59050D01*
X75750Y-59050D02*
X75750Y-59950D01*
X75750Y-59950D02*
X76250Y-59950D01*
X77050Y-59050D02*
X77050Y-59950D01*
X77050Y-59950D02*
X77550Y-59950D01*
X77550Y-59950D02*
X77550Y-59050D01*
X77550Y-59050D02*
X77050Y-59050D01*
X76850Y-58450D02*
X77750Y-58450D01*
X77750Y-58450D02*
X77750Y-57950D01*
X77750Y-57950D02*
X76850Y-57950D01*
X76850Y-57950D02*
X76850Y-58450D01*
X76850Y-57250D02*
X77750Y-57250D01*
X77750Y-57250D02*
X77750Y-56750D01*
X77750Y-56750D02*
X76850Y-56750D01*
X76850Y-56750D02*
X76850Y-57250D01*
X77050Y-55250D02*
X77050Y-56150D01*
X77050Y-56150D02*
X77550Y-56150D01*
X77550Y-56150D02*
X77550Y-55250D01*
X77550Y-55250D02*
X77050Y-55250D01*
G54D14*
X76029Y-56613D02*
X76089Y-56480D01*
X76132Y-56613D02*
X76132Y-56333D01*
X76064Y-56333D01*
X76046Y-56347D01*
X76038Y-56360D01*
X76029Y-56387D01*
X76029Y-56427D01*
X76038Y-56453D01*
X76046Y-56467D01*
X76064Y-56480D01*
X76132Y-56480D01*
X75875Y-56427D02*
X75875Y-56613D01*
X75918Y-56320D02*
X75961Y-56520D01*
X75849Y-56520D01*
X76029Y-57013D02*
X76089Y-56880D01*
X76132Y-57013D02*
X76132Y-56733D01*
X76064Y-56733D01*
X76046Y-56747D01*
X76038Y-56760D01*
X76029Y-56787D01*
X76029Y-56827D01*
X76038Y-56853D01*
X76046Y-56867D01*
X76064Y-56880D01*
X76132Y-56880D01*
X75866Y-56733D02*
X75952Y-56733D01*
X75961Y-56867D01*
X75952Y-56853D01*
X75935Y-56840D01*
X75892Y-56840D01*
X75875Y-56853D01*
X75866Y-56867D01*
X75858Y-56893D01*
X75858Y-56960D01*
X75866Y-56987D01*
X75875Y-57000D01*
X75892Y-57013D01*
X75935Y-57013D01*
X75952Y-57000D01*
X75961Y-56987D01*
X75529Y-59613D02*
X75589Y-59480D01*
X75632Y-59613D02*
X75632Y-59333D01*
X75564Y-59333D01*
X75546Y-59347D01*
X75538Y-59360D01*
X75529Y-59387D01*
X75529Y-59427D01*
X75538Y-59453D01*
X75546Y-59467D01*
X75564Y-59480D01*
X75632Y-59480D01*
X75469Y-59333D02*
X75349Y-59333D01*
X75426Y-59613D01*
X77415Y-58913D02*
X77475Y-58780D01*
X77518Y-58913D02*
X77518Y-58633D01*
X77450Y-58633D01*
X77432Y-58647D01*
X77424Y-58660D01*
X77415Y-58687D01*
X77415Y-58727D01*
X77424Y-58753D01*
X77432Y-58767D01*
X77450Y-58780D01*
X77518Y-58780D01*
X77244Y-58913D02*
X77347Y-58913D01*
X77295Y-58913D02*
X77295Y-58633D01*
X77312Y-58673D01*
X77330Y-58700D01*
X77347Y-58713D01*
X77133Y-58633D02*
X77116Y-58633D01*
X77099Y-58647D01*
X77090Y-58660D01*
X77081Y-58687D01*
X77073Y-58740D01*
X77073Y-58807D01*
X77081Y-58860D01*
X77090Y-58887D01*
X77099Y-58900D01*
X77116Y-58913D01*
X77133Y-58913D01*
X77150Y-58900D01*
X77159Y-58887D01*
X77167Y-58860D01*
X77176Y-58807D01*
X77176Y-58740D01*
X77167Y-58687D01*
X77159Y-58660D01*
X77150Y-58647D01*
X77133Y-58633D01*
X76713Y-58085D02*
X76580Y-58025D01*
X76713Y-57982D02*
X76433Y-57982D01*
X76433Y-58050D01*
X76447Y-58068D01*
X76460Y-58076D01*
X76487Y-58085D01*
X76527Y-58085D01*
X76553Y-58076D01*
X76567Y-58068D01*
X76580Y-58050D01*
X76580Y-57982D01*
X76713Y-58256D02*
X76713Y-58153D01*
X76713Y-58205D02*
X76433Y-58205D01*
X76473Y-58188D01*
X76500Y-58170D01*
X76513Y-58153D01*
X76460Y-58324D02*
X76447Y-58333D01*
X76433Y-58350D01*
X76433Y-58393D01*
X76447Y-58410D01*
X76460Y-58419D01*
X76487Y-58427D01*
X76513Y-58427D01*
X76553Y-58419D01*
X76713Y-58316D01*
X76713Y-58427D01*
X76713Y-56885D02*
X76580Y-56825D01*
X76713Y-56782D02*
X76433Y-56782D01*
X76433Y-56850D01*
X76447Y-56868D01*
X76460Y-56876D01*
X76487Y-56885D01*
X76527Y-56885D01*
X76553Y-56876D01*
X76567Y-56868D01*
X76580Y-56850D01*
X76580Y-56782D01*
X76713Y-57056D02*
X76713Y-56953D01*
X76713Y-57005D02*
X76433Y-57005D01*
X76473Y-56988D01*
X76500Y-56970D01*
X76513Y-56953D01*
X76527Y-57210D02*
X76713Y-57210D01*
X76420Y-57167D02*
X76620Y-57124D01*
X76620Y-57236D01*
X77415Y-55113D02*
X77475Y-54980D01*
X77518Y-55113D02*
X77518Y-54833D01*
X77450Y-54833D01*
X77432Y-54847D01*
X77424Y-54860D01*
X77415Y-54887D01*
X77415Y-54927D01*
X77424Y-54953D01*
X77432Y-54967D01*
X77450Y-54980D01*
X77518Y-54980D01*
X77244Y-55113D02*
X77347Y-55113D01*
X77295Y-55113D02*
X77295Y-54833D01*
X77312Y-54873D01*
X77330Y-54900D01*
X77347Y-54913D01*
X77090Y-54833D02*
X77124Y-54833D01*
X77141Y-54847D01*
X77150Y-54860D01*
X77167Y-54900D01*
X77176Y-54953D01*
X77176Y-55060D01*
X77167Y-55087D01*
X77159Y-55100D01*
X77141Y-55113D01*
X77107Y-55113D01*
X77090Y-55100D01*
X77081Y-55087D01*
X77073Y-55060D01*
X77073Y-54993D01*
X77081Y-54967D01*
X77090Y-54953D01*
X77107Y-54940D01*
X77141Y-54940D01*
X77159Y-54953D01*
X77167Y-54967D01*
X77176Y-54993D01*
%LPC*%
G54D15*
X129300Y-57700D03*
G54D16*
X129300Y-55700D03*
G54D15*
X34800Y-57700D03*
G54D16*
X34800Y-55700D03*
G54D17*
X30000Y-53200D03*
G54D18*
X31000Y-53200D03*
X30000Y-54200D03*
X31000Y-54200D03*
X30000Y-55200D03*
X31000Y-55200D03*
X30000Y-56200D03*
X31000Y-56200D03*
X30000Y-57200D03*
X31000Y-57200D03*
X30000Y-58200D03*
X31000Y-58200D03*
X30000Y-59200D03*
X31000Y-59200D03*
X30000Y-60200D03*
X31000Y-60200D03*
G54D17*
X133100Y-53200D03*
G54D18*
X134100Y-53200D03*
X133100Y-54200D03*
X134100Y-54200D03*
X133100Y-55200D03*
X134100Y-55200D03*
X133100Y-56200D03*
X134100Y-56200D03*
X133100Y-57200D03*
X134100Y-57200D03*
X133100Y-58200D03*
X134100Y-58200D03*
X133100Y-59200D03*
X134100Y-59200D03*
X133100Y-60200D03*
X134100Y-60200D03*
G54D19*
X56500Y-58000D03*
G54D20*
X56500Y-60000D03*
X58500Y-60000D03*
X58500Y-58000D03*
G54D19*
X56500Y-53500D03*
G54D20*
X56500Y-55500D03*
X58500Y-55500D03*
X58500Y-53500D03*
G54D19*
X38500Y-53500D03*
G54D20*
X38500Y-55500D03*
X40500Y-55500D03*
X40500Y-53500D03*
G54D19*
X38500Y-58000D03*
G54D20*
X38500Y-60000D03*
X40500Y-60000D03*
X40500Y-58000D03*
G54D19*
X45000Y-55500D03*
G54D20*
X45000Y-53500D03*
X43000Y-53500D03*
X43000Y-55500D03*
G54D19*
X45000Y-60000D03*
G54D20*
X45000Y-58000D03*
X43000Y-58000D03*
X43000Y-60000D03*
G54D17*
X83100Y-55000D03*
G54D18*
X83100Y-56000D03*
X82100Y-55000D03*
X82100Y-56000D03*
X81100Y-55000D03*
X81100Y-56000D03*
X86100Y-51975D03*
X88650Y-51975D03*
X86100Y-53725D03*
X88650Y-53725D03*
X80700Y-51975D03*
X83250Y-51975D03*
X80700Y-53725D03*
X83250Y-53725D03*
X75300Y-51975D03*
X77850Y-51975D03*
X75300Y-53725D03*
X77850Y-53725D03*
G54D21*
X79800Y-52800D03*
G54D22*
X78800Y-52800D03*
G54D20*
X89100Y-60100D03*
X85100Y-59100D03*
X89100Y-58100D03*
G54D23*
X36650Y-51750D03*
X127450Y-61750D03*
X127450Y-51750D03*
X95300Y-61750D03*
X95300Y-51750D03*
X68800Y-61750D03*
X68800Y-51750D03*
X36650Y-61750D03*
G54D19*
X47500Y-58000D03*
G54D20*
X47500Y-60000D03*
X49500Y-60000D03*
X49500Y-58000D03*
G54D19*
X47500Y-53500D03*
G54D20*
X47500Y-55500D03*
X49500Y-55500D03*
X49500Y-53500D03*
G54D19*
X54000Y-55500D03*
G54D20*
X54000Y-53500D03*
X52000Y-53500D03*
X52000Y-55500D03*
G54D19*
X54000Y-60000D03*
G54D20*
X54000Y-58000D03*
X52000Y-58000D03*
X52000Y-60000D03*
G54D19*
X63000Y-55500D03*
G54D20*
X63000Y-53500D03*
X61000Y-53500D03*
X61000Y-55500D03*
G54D19*
X63000Y-60000D03*
G54D20*
X63000Y-58000D03*
X61000Y-58000D03*
X61000Y-60000D03*
G54D19*
X65500Y-58000D03*
G54D20*
X65500Y-60000D03*
X67500Y-60000D03*
X67500Y-58000D03*
G54D19*
X65500Y-53500D03*
G54D20*
X65500Y-55500D03*
X67500Y-55500D03*
X67500Y-53500D03*
G54D19*
X72000Y-55500D03*
G54D20*
X72000Y-53500D03*
X70000Y-53500D03*
X70000Y-55500D03*
G54D19*
X72000Y-60000D03*
G54D20*
X72000Y-58000D03*
X70000Y-58000D03*
X70000Y-60000D03*
G54D19*
X92000Y-58000D03*
G54D20*
X92000Y-60000D03*
X94000Y-60000D03*
X94000Y-58000D03*
G54D19*
X92000Y-53500D03*
G54D20*
X92000Y-55500D03*
X94000Y-55500D03*
X94000Y-53500D03*
G54D19*
X98500Y-55500D03*
G54D20*
X98500Y-53500D03*
X96500Y-53500D03*
X96500Y-55500D03*
G54D19*
X98500Y-60000D03*
G54D20*
X98500Y-58000D03*
X96500Y-58000D03*
X96500Y-60000D03*
G54D19*
X100900Y-58000D03*
G54D20*
X100900Y-60000D03*
X102900Y-60000D03*
X102900Y-58000D03*
G54D19*
X100900Y-53500D03*
G54D20*
X100900Y-55500D03*
X102900Y-55500D03*
X102900Y-53500D03*
G54D19*
X107500Y-55500D03*
G54D20*
X107500Y-53500D03*
X105500Y-53500D03*
X105500Y-55500D03*
G54D19*
X107500Y-60000D03*
G54D20*
X107500Y-58000D03*
X105500Y-58000D03*
X105500Y-60000D03*
G54D19*
X110000Y-58000D03*
G54D20*
X110000Y-60000D03*
X112000Y-60000D03*
X112000Y-58000D03*
G54D19*
X110000Y-53500D03*
G54D20*
X110000Y-55500D03*
X112000Y-55500D03*
X112000Y-53500D03*
G54D19*
X116600Y-55500D03*
G54D20*
X116600Y-53500D03*
X114600Y-53500D03*
X114600Y-55500D03*
G54D19*
X116600Y-60000D03*
G54D20*
X116600Y-58000D03*
X114600Y-58000D03*
X114600Y-60000D03*
G54D19*
X119000Y-58000D03*
G54D20*
X119000Y-60000D03*
X121000Y-60000D03*
X121000Y-58000D03*
G54D19*
X119000Y-53500D03*
G54D20*
X119000Y-55500D03*
X121000Y-55500D03*
X121000Y-53500D03*
G54D19*
X125500Y-55500D03*
G54D20*
X125500Y-53500D03*
X123500Y-53500D03*
X123500Y-55500D03*
G54D19*
X125500Y-60000D03*
G54D20*
X125500Y-58000D03*
X123500Y-58000D03*
X123500Y-60000D03*
G54D21*
X134100Y-61700D03*
G54D22*
X131100Y-61700D03*
G54D21*
X30000Y-61700D03*
G54D22*
X33000Y-61700D03*
G54D24*
X76000Y-55400D03*
X76000Y-56000D03*
X76000Y-57300D03*
X76000Y-57900D03*
X76000Y-59800D03*
X76000Y-59200D03*
X77300Y-59200D03*
X77300Y-59800D03*
G54D25*
X77000Y-58200D03*
X77600Y-58200D03*
X77000Y-57000D03*
X77600Y-57000D03*
G54D24*
X77300Y-55400D03*
X77300Y-56000D03*
G54D17*
X133100Y-51600D03*
G54D18*
X134100Y-51600D03*
M02*
