G04 (created by PCBNEW-RS274X (2011-04-28)-stable) date Fri 29 Jul 2011 06:50:13 PM CEST*
G01*
G70*
G90*
%MOIN*%
G04 Gerber Fmt 3.4, Leading zero omitted, Abs format*
%FSLAX34Y34*%
G04 APERTURE LIST*
%ADD10C,0.010000*%
%ADD11C,0.012000*%
%ADD12C,0.015000*%
%ADD13C,0.008000*%
%ADD14C,0.002600*%
%ADD15C,0.006000*%
%ADD16C,0.002000*%
%ADD17C,0.004000*%
%ADD18C,0.007800*%
%ADD19R,0.068000X0.068000*%
%ADD20C,0.068000*%
%ADD21C,0.108000*%
%ADD22R,0.067000X0.059100*%
%ADD23R,0.063000X0.063000*%
%ADD24C,0.063000*%
%ADD25R,0.059100X0.067000*%
%ADD26R,0.078800X0.070900*%
%ADD27R,0.070900X0.078800*%
%ADD28C,0.088000*%
%ADD29R,0.094600X0.031600*%
%ADD30C,0.168000*%
%ADD31R,0.108000X0.108000*%
G04 APERTURE END LIST*
G54D10*
X04000Y-04000D02*
X161350Y-04000D01*
X161350Y-113000D01*
X04000Y-113000D01*
X04000Y-04000D01*
X04700Y-04700D02*
X160650Y-04700D01*
X160650Y-112300D01*
X04700Y-112300D01*
X04700Y-04700D01*
X26470Y-04000D02*
X26470Y-04700D01*
X15383Y-04552D02*
X15097Y-04552D01*
X15240Y-04552D02*
X15240Y-04052D01*
X15192Y-04124D01*
X15145Y-04171D01*
X15097Y-04195D01*
X26470Y-113000D02*
X26470Y-112300D01*
X15383Y-112852D02*
X15097Y-112852D01*
X15240Y-112852D02*
X15240Y-112352D01*
X15192Y-112424D01*
X15145Y-112471D01*
X15097Y-112495D01*
X48940Y-04000D02*
X48940Y-04700D01*
X37567Y-04100D02*
X37591Y-04076D01*
X37639Y-04052D01*
X37758Y-04052D01*
X37805Y-04076D01*
X37829Y-04100D01*
X37853Y-04148D01*
X37853Y-04195D01*
X37829Y-04267D01*
X37543Y-04552D01*
X37853Y-04552D01*
X48940Y-113000D02*
X48940Y-112300D01*
X37567Y-112400D02*
X37591Y-112376D01*
X37639Y-112352D01*
X37758Y-112352D01*
X37805Y-112376D01*
X37829Y-112400D01*
X37853Y-112448D01*
X37853Y-112495D01*
X37829Y-112567D01*
X37543Y-112852D01*
X37853Y-112852D01*
X71410Y-04000D02*
X71410Y-04700D01*
X60013Y-04052D02*
X60323Y-04052D01*
X60156Y-04243D01*
X60228Y-04243D01*
X60275Y-04267D01*
X60299Y-04290D01*
X60323Y-04338D01*
X60323Y-04457D01*
X60299Y-04505D01*
X60275Y-04529D01*
X60228Y-04552D01*
X60085Y-04552D01*
X60037Y-04529D01*
X60013Y-04505D01*
X71410Y-113000D02*
X71410Y-112300D01*
X60013Y-112352D02*
X60323Y-112352D01*
X60156Y-112543D01*
X60228Y-112543D01*
X60275Y-112567D01*
X60299Y-112590D01*
X60323Y-112638D01*
X60323Y-112757D01*
X60299Y-112805D01*
X60275Y-112829D01*
X60228Y-112852D01*
X60085Y-112852D01*
X60037Y-112829D01*
X60013Y-112805D01*
X93880Y-04000D02*
X93880Y-04700D01*
X82745Y-04219D02*
X82745Y-04552D01*
X82626Y-04029D02*
X82507Y-04386D01*
X82817Y-04386D01*
X93880Y-113000D02*
X93880Y-112300D01*
X82745Y-112519D02*
X82745Y-112852D01*
X82626Y-112329D02*
X82507Y-112686D01*
X82817Y-112686D01*
X116350Y-04000D02*
X116350Y-04700D01*
X105239Y-04052D02*
X105001Y-04052D01*
X104977Y-04290D01*
X105001Y-04267D01*
X105049Y-04243D01*
X105168Y-04243D01*
X105215Y-04267D01*
X105239Y-04290D01*
X105263Y-04338D01*
X105263Y-04457D01*
X105239Y-04505D01*
X105215Y-04529D01*
X105168Y-04552D01*
X105049Y-04552D01*
X105001Y-04529D01*
X104977Y-04505D01*
X116350Y-113000D02*
X116350Y-112300D01*
X105239Y-112352D02*
X105001Y-112352D01*
X104977Y-112590D01*
X105001Y-112567D01*
X105049Y-112543D01*
X105168Y-112543D01*
X105215Y-112567D01*
X105239Y-112590D01*
X105263Y-112638D01*
X105263Y-112757D01*
X105239Y-112805D01*
X105215Y-112829D01*
X105168Y-112852D01*
X105049Y-112852D01*
X105001Y-112829D01*
X104977Y-112805D01*
X138820Y-04000D02*
X138820Y-04700D01*
X127685Y-04052D02*
X127590Y-04052D01*
X127542Y-04076D01*
X127519Y-04100D01*
X127471Y-04171D01*
X127447Y-04267D01*
X127447Y-04457D01*
X127471Y-04505D01*
X127495Y-04529D01*
X127542Y-04552D01*
X127638Y-04552D01*
X127685Y-04529D01*
X127709Y-04505D01*
X127733Y-04457D01*
X127733Y-04338D01*
X127709Y-04290D01*
X127685Y-04267D01*
X127638Y-04243D01*
X127542Y-04243D01*
X127495Y-04267D01*
X127471Y-04290D01*
X127447Y-04338D01*
X138820Y-113000D02*
X138820Y-112300D01*
X127685Y-112352D02*
X127590Y-112352D01*
X127542Y-112376D01*
X127519Y-112400D01*
X127471Y-112471D01*
X127447Y-112567D01*
X127447Y-112757D01*
X127471Y-112805D01*
X127495Y-112829D01*
X127542Y-112852D01*
X127638Y-112852D01*
X127685Y-112829D01*
X127709Y-112805D01*
X127733Y-112757D01*
X127733Y-112638D01*
X127709Y-112590D01*
X127685Y-112567D01*
X127638Y-112543D01*
X127542Y-112543D01*
X127495Y-112567D01*
X127471Y-112590D01*
X127447Y-112638D01*
X149893Y-04052D02*
X150227Y-04052D01*
X150012Y-04552D01*
X149893Y-112352D02*
X150227Y-112352D01*
X150012Y-112852D01*
X04000Y-25800D02*
X04700Y-25800D01*
X04231Y-14960D02*
X04469Y-14960D01*
X04184Y-15102D02*
X04350Y-14602D01*
X04517Y-15102D01*
X161350Y-25800D02*
X160650Y-25800D01*
X160881Y-14960D02*
X161119Y-14960D01*
X160834Y-15102D02*
X161000Y-14602D01*
X161167Y-15102D01*
X04000Y-47600D02*
X04700Y-47600D01*
X04386Y-36640D02*
X04457Y-36664D01*
X04481Y-36688D01*
X04505Y-36736D01*
X04505Y-36807D01*
X04481Y-36855D01*
X04457Y-36879D01*
X04410Y-36902D01*
X04219Y-36902D01*
X04219Y-36402D01*
X04386Y-36402D01*
X04433Y-36426D01*
X04457Y-36450D01*
X04481Y-36498D01*
X04481Y-36545D01*
X04457Y-36593D01*
X04433Y-36617D01*
X04386Y-36640D01*
X04219Y-36640D01*
X161350Y-47600D02*
X160650Y-47600D01*
X161036Y-36640D02*
X161107Y-36664D01*
X161131Y-36688D01*
X161155Y-36736D01*
X161155Y-36807D01*
X161131Y-36855D01*
X161107Y-36879D01*
X161060Y-36902D01*
X160869Y-36902D01*
X160869Y-36402D01*
X161036Y-36402D01*
X161083Y-36426D01*
X161107Y-36450D01*
X161131Y-36498D01*
X161131Y-36545D01*
X161107Y-36593D01*
X161083Y-36617D01*
X161036Y-36640D01*
X160869Y-36640D01*
X04000Y-69400D02*
X04700Y-69400D01*
X04505Y-58655D02*
X04481Y-58679D01*
X04410Y-58702D01*
X04362Y-58702D01*
X04290Y-58679D01*
X04243Y-58631D01*
X04219Y-58583D01*
X04195Y-58488D01*
X04195Y-58417D01*
X04219Y-58321D01*
X04243Y-58274D01*
X04290Y-58226D01*
X04362Y-58202D01*
X04410Y-58202D01*
X04481Y-58226D01*
X04505Y-58250D01*
X161350Y-69400D02*
X160650Y-69400D01*
X161155Y-58655D02*
X161131Y-58679D01*
X161060Y-58702D01*
X161012Y-58702D01*
X160940Y-58679D01*
X160893Y-58631D01*
X160869Y-58583D01*
X160845Y-58488D01*
X160845Y-58417D01*
X160869Y-58321D01*
X160893Y-58274D01*
X160940Y-58226D01*
X161012Y-58202D01*
X161060Y-58202D01*
X161131Y-58226D01*
X161155Y-58250D01*
X04000Y-91200D02*
X04700Y-91200D01*
X04219Y-80502D02*
X04219Y-80002D01*
X04338Y-80002D01*
X04410Y-80026D01*
X04457Y-80074D01*
X04481Y-80121D01*
X04505Y-80217D01*
X04505Y-80288D01*
X04481Y-80383D01*
X04457Y-80431D01*
X04410Y-80479D01*
X04338Y-80502D01*
X04219Y-80502D01*
X161350Y-91200D02*
X160650Y-91200D01*
X160869Y-80502D02*
X160869Y-80002D01*
X160988Y-80002D01*
X161060Y-80026D01*
X161107Y-80074D01*
X161131Y-80121D01*
X161155Y-80217D01*
X161155Y-80288D01*
X161131Y-80383D01*
X161107Y-80431D01*
X161060Y-80479D01*
X160988Y-80502D01*
X160869Y-80502D01*
X04243Y-102040D02*
X04410Y-102040D01*
X04481Y-102302D02*
X04243Y-102302D01*
X04243Y-101802D01*
X04481Y-101802D01*
X160893Y-102040D02*
X161060Y-102040D01*
X161131Y-102302D02*
X160893Y-102302D01*
X160893Y-101802D01*
X161131Y-101802D01*
G54D11*
X127793Y-110743D02*
X127793Y-110143D01*
X127936Y-110143D01*
X128021Y-110171D01*
X128079Y-110229D01*
X128107Y-110286D01*
X128136Y-110400D01*
X128136Y-110486D01*
X128107Y-110600D01*
X128079Y-110657D01*
X128021Y-110714D01*
X127936Y-110743D01*
X127793Y-110743D01*
X128650Y-110743D02*
X128650Y-110429D01*
X128621Y-110371D01*
X128564Y-110343D01*
X128450Y-110343D01*
X128393Y-110371D01*
X128650Y-110714D02*
X128593Y-110743D01*
X128450Y-110743D01*
X128393Y-110714D01*
X128364Y-110657D01*
X128364Y-110600D01*
X128393Y-110543D01*
X128450Y-110514D01*
X128593Y-110514D01*
X128650Y-110486D01*
X128850Y-110343D02*
X129079Y-110343D01*
X128936Y-110143D02*
X128936Y-110657D01*
X128964Y-110714D01*
X129022Y-110743D01*
X129079Y-110743D01*
X129507Y-110714D02*
X129450Y-110743D01*
X129336Y-110743D01*
X129279Y-110714D01*
X129250Y-110657D01*
X129250Y-110429D01*
X129279Y-110371D01*
X129336Y-110343D01*
X129450Y-110343D01*
X129507Y-110371D01*
X129536Y-110429D01*
X129536Y-110486D01*
X129250Y-110543D01*
X129793Y-110686D02*
X129821Y-110714D01*
X129793Y-110743D01*
X129764Y-110714D01*
X129793Y-110686D01*
X129793Y-110743D01*
X129793Y-110371D02*
X129821Y-110400D01*
X129793Y-110429D01*
X129764Y-110400D01*
X129793Y-110371D01*
X129793Y-110429D01*
X130507Y-110200D02*
X130536Y-110171D01*
X130593Y-110143D01*
X130736Y-110143D01*
X130793Y-110171D01*
X130822Y-110200D01*
X130850Y-110257D01*
X130850Y-110314D01*
X130822Y-110400D01*
X130479Y-110743D01*
X130850Y-110743D01*
X131135Y-110743D02*
X131250Y-110743D01*
X131307Y-110714D01*
X131335Y-110686D01*
X131393Y-110600D01*
X131421Y-110486D01*
X131421Y-110257D01*
X131393Y-110200D01*
X131364Y-110171D01*
X131307Y-110143D01*
X131193Y-110143D01*
X131135Y-110171D01*
X131107Y-110200D01*
X131078Y-110257D01*
X131078Y-110400D01*
X131107Y-110457D01*
X131135Y-110486D01*
X131193Y-110514D01*
X131307Y-110514D01*
X131364Y-110486D01*
X131393Y-110457D01*
X131421Y-110400D01*
X132135Y-110343D02*
X132135Y-110857D01*
X132106Y-110914D01*
X132049Y-110943D01*
X132021Y-110943D01*
X132135Y-110143D02*
X132106Y-110171D01*
X132135Y-110200D01*
X132163Y-110171D01*
X132135Y-110143D01*
X132135Y-110200D01*
X132678Y-110343D02*
X132678Y-110743D01*
X132421Y-110343D02*
X132421Y-110657D01*
X132449Y-110714D01*
X132507Y-110743D01*
X132592Y-110743D01*
X132649Y-110714D01*
X132678Y-110686D01*
X133050Y-110743D02*
X132992Y-110714D01*
X132964Y-110657D01*
X132964Y-110143D01*
X133706Y-110200D02*
X133735Y-110171D01*
X133792Y-110143D01*
X133935Y-110143D01*
X133992Y-110171D01*
X134021Y-110200D01*
X134049Y-110257D01*
X134049Y-110314D01*
X134021Y-110400D01*
X133678Y-110743D01*
X134049Y-110743D01*
X134420Y-110143D02*
X134477Y-110143D01*
X134534Y-110171D01*
X134563Y-110200D01*
X134592Y-110257D01*
X134620Y-110371D01*
X134620Y-110514D01*
X134592Y-110629D01*
X134563Y-110686D01*
X134534Y-110714D01*
X134477Y-110743D01*
X134420Y-110743D01*
X134363Y-110714D01*
X134334Y-110686D01*
X134306Y-110629D01*
X134277Y-110514D01*
X134277Y-110371D01*
X134306Y-110257D01*
X134334Y-110200D01*
X134363Y-110171D01*
X134420Y-110143D01*
X135191Y-110743D02*
X134848Y-110743D01*
X135020Y-110743D02*
X135020Y-110143D01*
X134963Y-110229D01*
X134905Y-110286D01*
X134848Y-110314D01*
X135762Y-110743D02*
X135419Y-110743D01*
X135591Y-110743D02*
X135591Y-110143D01*
X135534Y-110229D01*
X135476Y-110286D01*
X135419Y-110314D01*
G54D10*
X119393Y-111943D02*
X119393Y-111343D01*
X119736Y-111943D02*
X119479Y-111600D01*
X119736Y-111343D02*
X119393Y-111686D01*
X119993Y-111943D02*
X119993Y-111543D01*
X119993Y-111343D02*
X119964Y-111371D01*
X119993Y-111400D01*
X120021Y-111371D01*
X119993Y-111343D01*
X119993Y-111400D01*
X120622Y-111886D02*
X120593Y-111914D01*
X120507Y-111943D01*
X120450Y-111943D01*
X120365Y-111914D01*
X120307Y-111857D01*
X120279Y-111800D01*
X120250Y-111686D01*
X120250Y-111600D01*
X120279Y-111486D01*
X120307Y-111429D01*
X120365Y-111371D01*
X120450Y-111343D01*
X120507Y-111343D01*
X120593Y-111371D01*
X120622Y-111400D01*
X121136Y-111943D02*
X121136Y-111629D01*
X121107Y-111571D01*
X121050Y-111543D01*
X120936Y-111543D01*
X120879Y-111571D01*
X121136Y-111914D02*
X121079Y-111943D01*
X120936Y-111943D01*
X120879Y-111914D01*
X120850Y-111857D01*
X120850Y-111800D01*
X120879Y-111743D01*
X120936Y-111714D01*
X121079Y-111714D01*
X121136Y-111686D01*
X121679Y-111943D02*
X121679Y-111343D01*
X121679Y-111914D02*
X121622Y-111943D01*
X121508Y-111943D01*
X121450Y-111914D01*
X121422Y-111886D01*
X121393Y-111829D01*
X121393Y-111657D01*
X121422Y-111600D01*
X121450Y-111571D01*
X121508Y-111543D01*
X121622Y-111543D01*
X121679Y-111571D01*
X122422Y-111629D02*
X122622Y-111629D01*
X122708Y-111943D02*
X122422Y-111943D01*
X122422Y-111343D01*
X122708Y-111343D01*
X122965Y-111886D02*
X122993Y-111914D01*
X122965Y-111943D01*
X122936Y-111914D01*
X122965Y-111886D01*
X122965Y-111943D01*
X123251Y-111943D02*
X123251Y-111343D01*
X123394Y-111343D01*
X123479Y-111371D01*
X123537Y-111429D01*
X123565Y-111486D01*
X123594Y-111600D01*
X123594Y-111686D01*
X123565Y-111800D01*
X123537Y-111857D01*
X123479Y-111914D01*
X123394Y-111943D01*
X123251Y-111943D01*
X123851Y-111886D02*
X123879Y-111914D01*
X123851Y-111943D01*
X123822Y-111914D01*
X123851Y-111886D01*
X123851Y-111943D01*
X124108Y-111771D02*
X124394Y-111771D01*
X124051Y-111943D02*
X124251Y-111343D01*
X124451Y-111943D01*
X124651Y-111886D02*
X124679Y-111914D01*
X124651Y-111943D01*
X124622Y-111914D01*
X124651Y-111886D01*
X124651Y-111943D01*
G54D11*
X152936Y-110743D02*
X152736Y-110457D01*
X152593Y-110743D02*
X152593Y-110143D01*
X152821Y-110143D01*
X152879Y-110171D01*
X152907Y-110200D01*
X152936Y-110257D01*
X152936Y-110343D01*
X152907Y-110400D01*
X152879Y-110429D01*
X152821Y-110457D01*
X152593Y-110457D01*
X153421Y-110714D02*
X153364Y-110743D01*
X153250Y-110743D01*
X153193Y-110714D01*
X153164Y-110657D01*
X153164Y-110429D01*
X153193Y-110371D01*
X153250Y-110343D01*
X153364Y-110343D01*
X153421Y-110371D01*
X153450Y-110429D01*
X153450Y-110486D01*
X153164Y-110543D01*
X153650Y-110343D02*
X153793Y-110743D01*
X153935Y-110343D01*
X154164Y-110686D02*
X154192Y-110714D01*
X154164Y-110743D01*
X154135Y-110714D01*
X154164Y-110686D01*
X154164Y-110743D01*
X154164Y-110371D02*
X154192Y-110400D01*
X154164Y-110429D01*
X154135Y-110400D01*
X154164Y-110371D01*
X154164Y-110429D01*
X155221Y-110743D02*
X154878Y-110743D01*
X155050Y-110743D02*
X155050Y-110143D01*
X154993Y-110229D01*
X154935Y-110286D01*
X154878Y-110314D01*
X155478Y-110686D02*
X155506Y-110714D01*
X155478Y-110743D01*
X155449Y-110714D01*
X155478Y-110686D01*
X155478Y-110743D01*
X156078Y-110743D02*
X155735Y-110743D01*
X155907Y-110743D02*
X155907Y-110143D01*
X155850Y-110229D01*
X155792Y-110286D01*
X155735Y-110314D01*
X156449Y-110143D02*
X156506Y-110143D01*
X156563Y-110171D01*
X156592Y-110200D01*
X156621Y-110257D01*
X156649Y-110371D01*
X156649Y-110514D01*
X156621Y-110629D01*
X156592Y-110686D01*
X156563Y-110714D01*
X156506Y-110743D01*
X156449Y-110743D01*
X156392Y-110714D01*
X156363Y-110686D01*
X156335Y-110629D01*
X156306Y-110514D01*
X156306Y-110371D01*
X156335Y-110257D01*
X156363Y-110200D01*
X156392Y-110171D01*
X156449Y-110143D01*
G54D10*
X119364Y-110714D02*
X119450Y-110743D01*
X119593Y-110743D01*
X119650Y-110714D01*
X119679Y-110686D01*
X119707Y-110629D01*
X119707Y-110571D01*
X119679Y-110514D01*
X119650Y-110486D01*
X119593Y-110457D01*
X119479Y-110429D01*
X119421Y-110400D01*
X119393Y-110371D01*
X119364Y-110314D01*
X119364Y-110257D01*
X119393Y-110200D01*
X119421Y-110171D01*
X119479Y-110143D01*
X119621Y-110143D01*
X119707Y-110171D01*
X119964Y-110743D02*
X119964Y-110343D01*
X119964Y-110143D02*
X119935Y-110171D01*
X119964Y-110200D01*
X119992Y-110171D01*
X119964Y-110143D01*
X119964Y-110200D01*
X120193Y-110343D02*
X120507Y-110343D01*
X120193Y-110743D01*
X120507Y-110743D01*
X120964Y-110714D02*
X120907Y-110743D01*
X120793Y-110743D01*
X120736Y-110714D01*
X120707Y-110657D01*
X120707Y-110429D01*
X120736Y-110371D01*
X120793Y-110343D01*
X120907Y-110343D01*
X120964Y-110371D01*
X120993Y-110429D01*
X120993Y-110486D01*
X120707Y-110543D01*
X121250Y-110686D02*
X121278Y-110714D01*
X121250Y-110743D01*
X121221Y-110714D01*
X121250Y-110686D01*
X121250Y-110743D01*
X121250Y-110371D02*
X121278Y-110400D01*
X121250Y-110429D01*
X121221Y-110400D01*
X121250Y-110371D01*
X121250Y-110429D01*
X121964Y-110571D02*
X122250Y-110571D01*
X121907Y-110743D02*
X122107Y-110143D01*
X122307Y-110743D01*
X122450Y-110143D02*
X122821Y-110143D01*
X122621Y-110371D01*
X122707Y-110371D01*
X122764Y-110400D01*
X122793Y-110429D01*
X122821Y-110486D01*
X122821Y-110629D01*
X122793Y-110686D01*
X122764Y-110714D01*
X122707Y-110743D01*
X122535Y-110743D01*
X122478Y-110714D01*
X122450Y-110686D01*
X152593Y-111943D02*
X152593Y-111343D01*
X153136Y-111943D02*
X153136Y-111343D01*
X153136Y-111914D02*
X153079Y-111943D01*
X152965Y-111943D01*
X152907Y-111914D01*
X152879Y-111886D01*
X152850Y-111829D01*
X152850Y-111657D01*
X152879Y-111600D01*
X152907Y-111571D01*
X152965Y-111543D01*
X153079Y-111543D01*
X153136Y-111571D01*
X153422Y-111886D02*
X153450Y-111914D01*
X153422Y-111943D01*
X153393Y-111914D01*
X153422Y-111886D01*
X153422Y-111943D01*
X153422Y-111571D02*
X153450Y-111600D01*
X153422Y-111629D01*
X153393Y-111600D01*
X153422Y-111571D01*
X153422Y-111629D01*
X154479Y-111943D02*
X154136Y-111943D01*
X154308Y-111943D02*
X154308Y-111343D01*
X154251Y-111429D01*
X154193Y-111486D01*
X154136Y-111514D01*
X155164Y-111314D02*
X154650Y-112086D01*
X155679Y-111943D02*
X155336Y-111943D01*
X155508Y-111943D02*
X155508Y-111343D01*
X155451Y-111429D01*
X155393Y-111486D01*
X155336Y-111514D01*
G54D11*
X119307Y-108943D02*
X119650Y-108943D01*
X119479Y-109543D02*
X119479Y-108943D01*
X119850Y-109543D02*
X119850Y-109143D01*
X119850Y-108943D02*
X119821Y-108971D01*
X119850Y-109000D01*
X119878Y-108971D01*
X119850Y-108943D01*
X119850Y-109000D01*
X120050Y-109143D02*
X120279Y-109143D01*
X120136Y-108943D02*
X120136Y-109457D01*
X120164Y-109514D01*
X120222Y-109543D01*
X120279Y-109543D01*
X120565Y-109543D02*
X120507Y-109514D01*
X120479Y-109457D01*
X120479Y-108943D01*
X121021Y-109514D02*
X120964Y-109543D01*
X120850Y-109543D01*
X120793Y-109514D01*
X120764Y-109457D01*
X120764Y-109229D01*
X120793Y-109171D01*
X120850Y-109143D01*
X120964Y-109143D01*
X121021Y-109171D01*
X121050Y-109229D01*
X121050Y-109286D01*
X120764Y-109343D01*
X121307Y-109486D02*
X121335Y-109514D01*
X121307Y-109543D01*
X121278Y-109514D01*
X121307Y-109486D01*
X121307Y-109543D01*
X121307Y-109171D02*
X121335Y-109200D01*
X121307Y-109229D01*
X121278Y-109200D01*
X121307Y-109171D01*
X121307Y-109229D01*
X122250Y-109229D02*
X122336Y-109257D01*
X122364Y-109286D01*
X122393Y-109343D01*
X122393Y-109429D01*
X122364Y-109486D01*
X122336Y-109514D01*
X122278Y-109543D01*
X122050Y-109543D01*
X122050Y-108943D01*
X122250Y-108943D01*
X122307Y-108971D01*
X122336Y-109000D01*
X122364Y-109057D01*
X122364Y-109114D01*
X122336Y-109171D01*
X122307Y-109200D01*
X122250Y-109229D01*
X122050Y-109229D01*
X122878Y-109514D02*
X122821Y-109543D01*
X122707Y-109543D01*
X122650Y-109514D01*
X122621Y-109457D01*
X122621Y-109229D01*
X122650Y-109171D01*
X122707Y-109143D01*
X122821Y-109143D01*
X122878Y-109171D01*
X122907Y-109229D01*
X122907Y-109286D01*
X122621Y-109343D01*
X123135Y-109514D02*
X123192Y-109543D01*
X123307Y-109543D01*
X123364Y-109514D01*
X123392Y-109457D01*
X123392Y-109429D01*
X123364Y-109371D01*
X123307Y-109343D01*
X123221Y-109343D01*
X123164Y-109314D01*
X123135Y-109257D01*
X123135Y-109229D01*
X123164Y-109171D01*
X123221Y-109143D01*
X123307Y-109143D01*
X123364Y-109171D01*
X123564Y-109143D02*
X123793Y-109143D01*
X123650Y-108943D02*
X123650Y-109457D01*
X123678Y-109514D01*
X123736Y-109543D01*
X123793Y-109543D01*
X123993Y-109543D02*
X123993Y-108943D01*
X124336Y-109543D02*
X124079Y-109200D01*
X124336Y-108943D02*
X123993Y-109286D01*
X124593Y-109543D02*
X124593Y-109143D01*
X124593Y-108943D02*
X124564Y-108971D01*
X124593Y-109000D01*
X124621Y-108971D01*
X124593Y-108943D01*
X124593Y-109000D01*
X124793Y-109143D02*
X125022Y-109143D01*
X124879Y-108943D02*
X124879Y-109457D01*
X124907Y-109514D01*
X124965Y-109543D01*
X125022Y-109543D01*
X125479Y-109514D02*
X125422Y-109543D01*
X125308Y-109543D01*
X125250Y-109514D01*
X125222Y-109486D01*
X125193Y-109429D01*
X125193Y-109257D01*
X125222Y-109200D01*
X125250Y-109171D01*
X125308Y-109143D01*
X125422Y-109143D01*
X125479Y-109171D01*
X125736Y-109543D02*
X125736Y-108943D01*
X125993Y-109543D02*
X125993Y-109229D01*
X125964Y-109171D01*
X125907Y-109143D01*
X125822Y-109143D01*
X125764Y-109171D01*
X125736Y-109200D01*
X126507Y-109514D02*
X126450Y-109543D01*
X126336Y-109543D01*
X126279Y-109514D01*
X126250Y-109457D01*
X126250Y-109229D01*
X126279Y-109171D01*
X126336Y-109143D01*
X126450Y-109143D01*
X126507Y-109171D01*
X126536Y-109229D01*
X126536Y-109286D01*
X126250Y-109343D01*
X126793Y-109143D02*
X126793Y-109543D01*
X126793Y-109200D02*
X126821Y-109171D01*
X126879Y-109143D01*
X126964Y-109143D01*
X127021Y-109171D01*
X127050Y-109229D01*
X127050Y-109543D01*
X127622Y-109543D02*
X127336Y-109543D01*
X127336Y-108943D01*
X127822Y-109543D02*
X127822Y-109143D01*
X127822Y-108943D02*
X127793Y-108971D01*
X127822Y-109000D01*
X127850Y-108971D01*
X127822Y-108943D01*
X127822Y-109000D01*
X128365Y-109143D02*
X128365Y-109629D01*
X128336Y-109686D01*
X128308Y-109714D01*
X128251Y-109743D01*
X128165Y-109743D01*
X128108Y-109714D01*
X128365Y-109514D02*
X128308Y-109543D01*
X128194Y-109543D01*
X128136Y-109514D01*
X128108Y-109486D01*
X128079Y-109429D01*
X128079Y-109257D01*
X128108Y-109200D01*
X128136Y-109171D01*
X128194Y-109143D01*
X128308Y-109143D01*
X128365Y-109171D01*
X128651Y-109543D02*
X128651Y-108943D01*
X128908Y-109543D02*
X128908Y-109229D01*
X128879Y-109171D01*
X128822Y-109143D01*
X128737Y-109143D01*
X128679Y-109171D01*
X128651Y-109200D01*
X129108Y-109143D02*
X129337Y-109143D01*
X129194Y-108943D02*
X129194Y-109457D01*
X129222Y-109514D01*
X129280Y-109543D01*
X129337Y-109543D01*
X129508Y-109514D02*
X129565Y-109543D01*
X129680Y-109543D01*
X129737Y-109514D01*
X129765Y-109457D01*
X129765Y-109429D01*
X129737Y-109371D01*
X129680Y-109343D01*
X129594Y-109343D01*
X129537Y-109314D01*
X129508Y-109257D01*
X129508Y-109229D01*
X129537Y-109171D01*
X129594Y-109143D01*
X129680Y-109143D01*
X129737Y-109171D01*
X130023Y-109229D02*
X130223Y-109229D01*
X130309Y-109543D02*
X130023Y-109543D01*
X130023Y-108943D01*
X130309Y-108943D01*
X130509Y-109143D02*
X130652Y-109543D01*
X130794Y-109143D01*
X131251Y-109514D02*
X131194Y-109543D01*
X131080Y-109543D01*
X131023Y-109514D01*
X130994Y-109457D01*
X130994Y-109229D01*
X131023Y-109171D01*
X131080Y-109143D01*
X131194Y-109143D01*
X131251Y-109171D01*
X131280Y-109229D01*
X131280Y-109286D01*
X130994Y-109343D01*
X131537Y-109543D02*
X131537Y-109143D01*
X131537Y-109257D02*
X131565Y-109200D01*
X131594Y-109171D01*
X131651Y-109143D01*
X131708Y-109143D01*
X132079Y-109771D02*
X132051Y-109743D01*
X131994Y-109657D01*
X131965Y-109600D01*
X131936Y-109514D01*
X131908Y-109371D01*
X131908Y-109257D01*
X131936Y-109114D01*
X131965Y-109029D01*
X131994Y-108971D01*
X132051Y-108886D01*
X132079Y-108857D01*
X132222Y-109143D02*
X132451Y-109143D01*
X132308Y-108943D02*
X132308Y-109457D01*
X132336Y-109514D01*
X132394Y-109543D01*
X132451Y-109543D01*
X132651Y-109543D02*
X132651Y-109143D01*
X132651Y-109200D02*
X132679Y-109171D01*
X132737Y-109143D01*
X132822Y-109143D01*
X132879Y-109171D01*
X132908Y-109229D01*
X132908Y-109543D01*
X132908Y-109229D02*
X132937Y-109171D01*
X132994Y-109143D01*
X133079Y-109143D01*
X133137Y-109171D01*
X133165Y-109229D01*
X133165Y-109543D01*
X133394Y-109771D02*
X133422Y-109743D01*
X133479Y-109657D01*
X133508Y-109600D01*
X133537Y-109514D01*
X133565Y-109371D01*
X133565Y-109257D01*
X133537Y-109114D01*
X133508Y-109029D01*
X133479Y-108971D01*
X133422Y-108886D01*
X133394Y-108857D01*
G54D10*
X119593Y-106829D02*
X119393Y-106829D01*
X119393Y-107143D02*
X119393Y-106543D01*
X119679Y-106543D01*
X119907Y-107143D02*
X119907Y-106743D01*
X119907Y-106543D02*
X119878Y-106571D01*
X119907Y-106600D01*
X119935Y-106571D01*
X119907Y-106543D01*
X119907Y-106600D01*
X120279Y-107143D02*
X120221Y-107114D01*
X120193Y-107057D01*
X120193Y-106543D01*
X120735Y-107114D02*
X120678Y-107143D01*
X120564Y-107143D01*
X120507Y-107114D01*
X120478Y-107057D01*
X120478Y-106829D01*
X120507Y-106771D01*
X120564Y-106743D01*
X120678Y-106743D01*
X120735Y-106771D01*
X120764Y-106829D01*
X120764Y-106886D01*
X120478Y-106943D01*
X121021Y-107086D02*
X121049Y-107114D01*
X121021Y-107143D01*
X120992Y-107114D01*
X121021Y-107086D01*
X121021Y-107143D01*
X121021Y-106771D02*
X121049Y-106800D01*
X121021Y-106829D01*
X120992Y-106800D01*
X121021Y-106771D01*
X121021Y-106829D01*
X121764Y-107143D02*
X121764Y-106543D01*
X121821Y-106914D02*
X121992Y-107143D01*
X121992Y-106743D02*
X121764Y-106971D01*
X122250Y-107143D02*
X122250Y-106743D01*
X122250Y-106543D02*
X122221Y-106571D01*
X122250Y-106600D01*
X122278Y-106571D01*
X122250Y-106543D01*
X122250Y-106600D01*
X122450Y-106743D02*
X122679Y-106743D01*
X122536Y-106543D02*
X122536Y-107057D01*
X122564Y-107114D01*
X122622Y-107143D01*
X122679Y-107143D01*
X123136Y-107114D02*
X123079Y-107143D01*
X122965Y-107143D01*
X122907Y-107114D01*
X122879Y-107086D01*
X122850Y-107029D01*
X122850Y-106857D01*
X122879Y-106800D01*
X122907Y-106771D01*
X122965Y-106743D01*
X123079Y-106743D01*
X123136Y-106771D01*
X123393Y-107143D02*
X123393Y-106543D01*
X123650Y-107143D02*
X123650Y-106829D01*
X123621Y-106771D01*
X123564Y-106743D01*
X123479Y-106743D01*
X123421Y-106771D01*
X123393Y-106800D01*
X124164Y-107114D02*
X124107Y-107143D01*
X123993Y-107143D01*
X123936Y-107114D01*
X123907Y-107057D01*
X123907Y-106829D01*
X123936Y-106771D01*
X123993Y-106743D01*
X124107Y-106743D01*
X124164Y-106771D01*
X124193Y-106829D01*
X124193Y-106886D01*
X123907Y-106943D01*
X124450Y-106743D02*
X124450Y-107143D01*
X124450Y-106800D02*
X124478Y-106771D01*
X124536Y-106743D01*
X124621Y-106743D01*
X124678Y-106771D01*
X124707Y-106829D01*
X124707Y-107143D01*
X124850Y-107200D02*
X125307Y-107200D01*
X125536Y-107143D02*
X125478Y-107114D01*
X125450Y-107057D01*
X125450Y-106543D01*
X125764Y-107143D02*
X125764Y-106743D01*
X125764Y-106543D02*
X125735Y-106571D01*
X125764Y-106600D01*
X125792Y-106571D01*
X125764Y-106543D01*
X125764Y-106600D01*
X126307Y-106743D02*
X126307Y-107229D01*
X126278Y-107286D01*
X126250Y-107314D01*
X126193Y-107343D01*
X126107Y-107343D01*
X126050Y-107314D01*
X126307Y-107114D02*
X126250Y-107143D01*
X126136Y-107143D01*
X126078Y-107114D01*
X126050Y-107086D01*
X126021Y-107029D01*
X126021Y-106857D01*
X126050Y-106800D01*
X126078Y-106771D01*
X126136Y-106743D01*
X126250Y-106743D01*
X126307Y-106771D01*
X126593Y-107143D02*
X126593Y-106543D01*
X126850Y-107143D02*
X126850Y-106829D01*
X126821Y-106771D01*
X126764Y-106743D01*
X126679Y-106743D01*
X126621Y-106771D01*
X126593Y-106800D01*
X127050Y-106743D02*
X127279Y-106743D01*
X127136Y-106543D02*
X127136Y-107057D01*
X127164Y-107114D01*
X127222Y-107143D01*
X127279Y-107143D01*
X127450Y-107114D02*
X127507Y-107143D01*
X127622Y-107143D01*
X127679Y-107114D01*
X127707Y-107057D01*
X127707Y-107029D01*
X127679Y-106971D01*
X127622Y-106943D01*
X127536Y-106943D01*
X127479Y-106914D01*
X127450Y-106857D01*
X127450Y-106829D01*
X127479Y-106771D01*
X127536Y-106743D01*
X127622Y-106743D01*
X127679Y-106771D01*
X127965Y-107086D02*
X127993Y-107114D01*
X127965Y-107143D01*
X127936Y-107114D01*
X127965Y-107086D01*
X127965Y-107143D01*
X128251Y-107143D02*
X128251Y-106543D01*
X128251Y-106771D02*
X128308Y-106743D01*
X128422Y-106743D01*
X128479Y-106771D01*
X128508Y-106800D01*
X128537Y-106857D01*
X128537Y-107029D01*
X128508Y-107086D01*
X128479Y-107114D01*
X128422Y-107143D01*
X128308Y-107143D01*
X128251Y-107114D01*
X128794Y-107143D02*
X128794Y-106743D01*
X128794Y-106857D02*
X128822Y-106800D01*
X128851Y-106771D01*
X128908Y-106743D01*
X128965Y-106743D01*
X129422Y-107143D02*
X129422Y-106543D01*
X129422Y-107114D02*
X129365Y-107143D01*
X129251Y-107143D01*
X129193Y-107114D01*
X129165Y-107086D01*
X129136Y-107029D01*
X129136Y-106857D01*
X129165Y-106800D01*
X129193Y-106771D01*
X129251Y-106743D01*
X129365Y-106743D01*
X129422Y-106771D01*
X119364Y-108314D02*
X119450Y-108343D01*
X119593Y-108343D01*
X119650Y-108314D01*
X119679Y-108286D01*
X119707Y-108229D01*
X119707Y-108171D01*
X119679Y-108114D01*
X119650Y-108086D01*
X119593Y-108057D01*
X119479Y-108029D01*
X119421Y-108000D01*
X119393Y-107971D01*
X119364Y-107914D01*
X119364Y-107857D01*
X119393Y-107800D01*
X119421Y-107771D01*
X119479Y-107743D01*
X119621Y-107743D01*
X119707Y-107771D01*
X119964Y-108343D02*
X119964Y-107743D01*
X120221Y-108343D02*
X120221Y-108029D01*
X120192Y-107971D01*
X120135Y-107943D01*
X120050Y-107943D01*
X119992Y-107971D01*
X119964Y-108000D01*
X120735Y-108314D02*
X120678Y-108343D01*
X120564Y-108343D01*
X120507Y-108314D01*
X120478Y-108257D01*
X120478Y-108029D01*
X120507Y-107971D01*
X120564Y-107943D01*
X120678Y-107943D01*
X120735Y-107971D01*
X120764Y-108029D01*
X120764Y-108086D01*
X120478Y-108143D01*
X121249Y-108314D02*
X121192Y-108343D01*
X121078Y-108343D01*
X121021Y-108314D01*
X120992Y-108257D01*
X120992Y-108029D01*
X121021Y-107971D01*
X121078Y-107943D01*
X121192Y-107943D01*
X121249Y-107971D01*
X121278Y-108029D01*
X121278Y-108086D01*
X120992Y-108143D01*
X121449Y-107943D02*
X121678Y-107943D01*
X121535Y-107743D02*
X121535Y-108257D01*
X121563Y-108314D01*
X121621Y-108343D01*
X121678Y-108343D01*
X121878Y-108286D02*
X121906Y-108314D01*
X121878Y-108343D01*
X121849Y-108314D01*
X121878Y-108286D01*
X121878Y-108343D01*
X121878Y-107971D02*
X121906Y-108000D01*
X121878Y-108029D01*
X121849Y-108000D01*
X121878Y-107971D01*
X121878Y-108029D01*
X122935Y-108343D02*
X122592Y-108343D01*
X122764Y-108343D02*
X122764Y-107743D01*
X122707Y-107829D01*
X122649Y-107886D01*
X122592Y-107914D01*
X123620Y-107714D02*
X123106Y-108486D01*
X124135Y-108343D02*
X123792Y-108343D01*
X123964Y-108343D02*
X123964Y-107743D01*
X123907Y-107829D01*
X123849Y-107886D01*
X123792Y-107914D01*
G54D11*
X119393Y-105943D02*
X119393Y-105343D01*
X119593Y-105771D01*
X119793Y-105343D01*
X119793Y-105943D01*
X120022Y-105543D02*
X120165Y-105943D01*
X120307Y-105543D02*
X120165Y-105943D01*
X120107Y-106086D01*
X120079Y-106114D01*
X120022Y-106143D01*
X120964Y-105400D02*
X120993Y-105371D01*
X121050Y-105343D01*
X121193Y-105343D01*
X121250Y-105371D01*
X121279Y-105400D01*
X121307Y-105457D01*
X121307Y-105514D01*
X121279Y-105600D01*
X120936Y-105943D01*
X121307Y-105943D01*
X121564Y-105543D02*
X121564Y-106143D01*
X121850Y-105857D02*
X121878Y-105914D01*
X121935Y-105943D01*
X121564Y-105857D02*
X121592Y-105914D01*
X121650Y-105943D01*
X121764Y-105943D01*
X121821Y-105914D01*
X121850Y-105857D01*
X121850Y-105543D01*
X122393Y-105629D02*
X122193Y-105629D01*
X122193Y-105943D02*
X122193Y-105343D01*
X122479Y-105343D01*
X123364Y-105629D02*
X123450Y-105657D01*
X123478Y-105686D01*
X123507Y-105743D01*
X123507Y-105829D01*
X123478Y-105886D01*
X123450Y-105914D01*
X123392Y-105943D01*
X123164Y-105943D01*
X123164Y-105343D01*
X123364Y-105343D01*
X123421Y-105371D01*
X123450Y-105400D01*
X123478Y-105457D01*
X123478Y-105514D01*
X123450Y-105571D01*
X123421Y-105600D01*
X123364Y-105629D01*
X123164Y-105629D01*
X123850Y-105943D02*
X123792Y-105914D01*
X123764Y-105857D01*
X123764Y-105343D01*
X124164Y-105943D02*
X124106Y-105914D01*
X124078Y-105886D01*
X124049Y-105829D01*
X124049Y-105657D01*
X124078Y-105600D01*
X124106Y-105571D01*
X124164Y-105543D01*
X124249Y-105543D01*
X124306Y-105571D01*
X124335Y-105600D01*
X124364Y-105657D01*
X124364Y-105829D01*
X124335Y-105886D01*
X124306Y-105914D01*
X124249Y-105943D01*
X124164Y-105943D01*
X124878Y-105543D02*
X124878Y-106029D01*
X124849Y-106086D01*
X124821Y-106114D01*
X124764Y-106143D01*
X124678Y-106143D01*
X124621Y-106114D01*
X124878Y-105914D02*
X124821Y-105943D01*
X124707Y-105943D01*
X124649Y-105914D01*
X124621Y-105886D01*
X124592Y-105829D01*
X124592Y-105657D01*
X124621Y-105600D01*
X124649Y-105571D01*
X124707Y-105543D01*
X124821Y-105543D01*
X124878Y-105571D01*
X118650Y-105100D02*
X118650Y-112300D01*
X118650Y-106300D02*
X160650Y-106300D01*
X118650Y-105100D02*
X160650Y-105100D01*
X118650Y-108700D02*
X160650Y-108700D01*
X151850Y-109900D02*
X151850Y-112300D01*
X118650Y-111100D02*
X160650Y-111100D01*
X118650Y-109900D02*
X160650Y-109900D01*
X125250Y-109900D02*
X125250Y-111100D01*
G54D12*
X113650Y-60800D02*
X113649Y-60809D01*
X113646Y-60819D01*
X113641Y-60827D01*
X113635Y-60835D01*
X113627Y-60841D01*
X113619Y-60846D01*
X113610Y-60848D01*
X113600Y-60849D01*
X113591Y-60849D01*
X113582Y-60846D01*
X113573Y-60841D01*
X113566Y-60835D01*
X113559Y-60828D01*
X113555Y-60819D01*
X113552Y-60810D01*
X113551Y-60800D01*
X113551Y-60791D01*
X113554Y-60782D01*
X113558Y-60773D01*
X113565Y-60766D01*
X113572Y-60759D01*
X113580Y-60755D01*
X113590Y-60752D01*
X113599Y-60751D01*
X113608Y-60751D01*
X113618Y-60754D01*
X113626Y-60758D01*
X113634Y-60764D01*
X113640Y-60772D01*
X113645Y-60780D01*
X113648Y-60789D01*
X113649Y-60799D01*
X113650Y-60800D01*
X113900Y-60800D02*
X113899Y-60809D01*
X113896Y-60819D01*
X113891Y-60827D01*
X113885Y-60835D01*
X113877Y-60841D01*
X113869Y-60846D01*
X113860Y-60848D01*
X113850Y-60849D01*
X113841Y-60849D01*
X113832Y-60846D01*
X113823Y-60841D01*
X113816Y-60835D01*
X113809Y-60828D01*
X113805Y-60819D01*
X113802Y-60810D01*
X113801Y-60800D01*
X113801Y-60791D01*
X113804Y-60782D01*
X113808Y-60773D01*
X113815Y-60766D01*
X113822Y-60759D01*
X113830Y-60755D01*
X113840Y-60752D01*
X113849Y-60751D01*
X113858Y-60751D01*
X113868Y-60754D01*
X113876Y-60758D01*
X113884Y-60764D01*
X113890Y-60772D01*
X113895Y-60780D01*
X113898Y-60789D01*
X113899Y-60799D01*
X113900Y-60800D01*
X113650Y-61050D02*
X113649Y-61059D01*
X113646Y-61069D01*
X113641Y-61077D01*
X113635Y-61085D01*
X113627Y-61091D01*
X113619Y-61096D01*
X113610Y-61098D01*
X113600Y-61099D01*
X113591Y-61099D01*
X113582Y-61096D01*
X113573Y-61091D01*
X113566Y-61085D01*
X113559Y-61078D01*
X113555Y-61069D01*
X113552Y-61060D01*
X113551Y-61050D01*
X113551Y-61041D01*
X113554Y-61032D01*
X113558Y-61023D01*
X113565Y-61016D01*
X113572Y-61009D01*
X113580Y-61005D01*
X113590Y-61002D01*
X113599Y-61001D01*
X113608Y-61001D01*
X113618Y-61004D01*
X113626Y-61008D01*
X113634Y-61014D01*
X113640Y-61022D01*
X113645Y-61030D01*
X113648Y-61039D01*
X113649Y-61049D01*
X113650Y-61050D01*
X113900Y-61050D02*
X113899Y-61059D01*
X113896Y-61069D01*
X113891Y-61077D01*
X113885Y-61085D01*
X113877Y-61091D01*
X113869Y-61096D01*
X113860Y-61098D01*
X113850Y-61099D01*
X113841Y-61099D01*
X113832Y-61096D01*
X113823Y-61091D01*
X113816Y-61085D01*
X113809Y-61078D01*
X113805Y-61069D01*
X113802Y-61060D01*
X113801Y-61050D01*
X113801Y-61041D01*
X113804Y-61032D01*
X113808Y-61023D01*
X113815Y-61016D01*
X113822Y-61009D01*
X113830Y-61005D01*
X113840Y-61002D01*
X113849Y-61001D01*
X113858Y-61001D01*
X113868Y-61004D01*
X113876Y-61008D01*
X113884Y-61014D01*
X113890Y-61022D01*
X113895Y-61030D01*
X113898Y-61039D01*
X113899Y-61049D01*
X113900Y-61050D01*
X112900Y-61050D02*
X112899Y-61059D01*
X112896Y-61069D01*
X112891Y-61077D01*
X112885Y-61085D01*
X112877Y-61091D01*
X112869Y-61096D01*
X112860Y-61098D01*
X112850Y-61099D01*
X112841Y-61099D01*
X112832Y-61096D01*
X112823Y-61091D01*
X112816Y-61085D01*
X112809Y-61078D01*
X112805Y-61069D01*
X112802Y-61060D01*
X112801Y-61050D01*
X112801Y-61041D01*
X112804Y-61032D01*
X112808Y-61023D01*
X112815Y-61016D01*
X112822Y-61009D01*
X112830Y-61005D01*
X112840Y-61002D01*
X112849Y-61001D01*
X112858Y-61001D01*
X112868Y-61004D01*
X112876Y-61008D01*
X112884Y-61014D01*
X112890Y-61022D01*
X112895Y-61030D01*
X112898Y-61039D01*
X112899Y-61049D01*
X112900Y-61050D01*
X112650Y-61050D02*
X112649Y-61059D01*
X112646Y-61069D01*
X112641Y-61077D01*
X112635Y-61085D01*
X112627Y-61091D01*
X112619Y-61096D01*
X112610Y-61098D01*
X112600Y-61099D01*
X112591Y-61099D01*
X112582Y-61096D01*
X112573Y-61091D01*
X112566Y-61085D01*
X112559Y-61078D01*
X112555Y-61069D01*
X112552Y-61060D01*
X112551Y-61050D01*
X112551Y-61041D01*
X112554Y-61032D01*
X112558Y-61023D01*
X112565Y-61016D01*
X112572Y-61009D01*
X112580Y-61005D01*
X112590Y-61002D01*
X112599Y-61001D01*
X112608Y-61001D01*
X112618Y-61004D01*
X112626Y-61008D01*
X112634Y-61014D01*
X112640Y-61022D01*
X112645Y-61030D01*
X112648Y-61039D01*
X112649Y-61049D01*
X112650Y-61050D01*
X112650Y-60800D02*
X112649Y-60809D01*
X112646Y-60819D01*
X112641Y-60827D01*
X112635Y-60835D01*
X112627Y-60841D01*
X112619Y-60846D01*
X112610Y-60848D01*
X112600Y-60849D01*
X112591Y-60849D01*
X112582Y-60846D01*
X112573Y-60841D01*
X112566Y-60835D01*
X112559Y-60828D01*
X112555Y-60819D01*
X112552Y-60810D01*
X112551Y-60800D01*
X112551Y-60791D01*
X112554Y-60782D01*
X112558Y-60773D01*
X112565Y-60766D01*
X112572Y-60759D01*
X112580Y-60755D01*
X112590Y-60752D01*
X112599Y-60751D01*
X112608Y-60751D01*
X112618Y-60754D01*
X112626Y-60758D01*
X112634Y-60764D01*
X112640Y-60772D01*
X112645Y-60780D01*
X112648Y-60789D01*
X112649Y-60799D01*
X112650Y-60800D01*
X112900Y-60800D02*
X112899Y-60809D01*
X112896Y-60819D01*
X112891Y-60827D01*
X112885Y-60835D01*
X112877Y-60841D01*
X112869Y-60846D01*
X112860Y-60848D01*
X112850Y-60849D01*
X112841Y-60849D01*
X112832Y-60846D01*
X112823Y-60841D01*
X112816Y-60835D01*
X112809Y-60828D01*
X112805Y-60819D01*
X112802Y-60810D01*
X112801Y-60800D01*
X112801Y-60791D01*
X112804Y-60782D01*
X112808Y-60773D01*
X112815Y-60766D01*
X112822Y-60759D01*
X112830Y-60755D01*
X112840Y-60752D01*
X112849Y-60751D01*
X112858Y-60751D01*
X112868Y-60754D01*
X112876Y-60758D01*
X112884Y-60764D01*
X112890Y-60772D01*
X112895Y-60780D01*
X112898Y-60789D01*
X112899Y-60799D01*
X112900Y-60800D01*
X113150Y-61550D02*
X113149Y-61559D01*
X113146Y-61569D01*
X113141Y-61577D01*
X113135Y-61585D01*
X113127Y-61591D01*
X113119Y-61596D01*
X113110Y-61598D01*
X113100Y-61599D01*
X113091Y-61599D01*
X113082Y-61596D01*
X113073Y-61591D01*
X113066Y-61585D01*
X113059Y-61578D01*
X113055Y-61569D01*
X113052Y-61560D01*
X113051Y-61550D01*
X113051Y-61541D01*
X113054Y-61532D01*
X113058Y-61523D01*
X113065Y-61516D01*
X113072Y-61509D01*
X113080Y-61505D01*
X113090Y-61502D01*
X113099Y-61501D01*
X113108Y-61501D01*
X113118Y-61504D01*
X113126Y-61508D01*
X113134Y-61514D01*
X113140Y-61522D01*
X113145Y-61530D01*
X113148Y-61539D01*
X113149Y-61549D01*
X113150Y-61550D01*
X113400Y-61550D02*
X113399Y-61559D01*
X113396Y-61569D01*
X113391Y-61577D01*
X113385Y-61585D01*
X113377Y-61591D01*
X113369Y-61596D01*
X113360Y-61598D01*
X113350Y-61599D01*
X113341Y-61599D01*
X113332Y-61596D01*
X113323Y-61591D01*
X113316Y-61585D01*
X113309Y-61578D01*
X113305Y-61569D01*
X113302Y-61560D01*
X113301Y-61550D01*
X113301Y-61541D01*
X113304Y-61532D01*
X113308Y-61523D01*
X113315Y-61516D01*
X113322Y-61509D01*
X113330Y-61505D01*
X113340Y-61502D01*
X113349Y-61501D01*
X113358Y-61501D01*
X113368Y-61504D01*
X113376Y-61508D01*
X113384Y-61514D01*
X113390Y-61522D01*
X113395Y-61530D01*
X113398Y-61539D01*
X113399Y-61549D01*
X113400Y-61550D01*
X113150Y-61800D02*
X113149Y-61809D01*
X113146Y-61819D01*
X113141Y-61827D01*
X113135Y-61835D01*
X113127Y-61841D01*
X113119Y-61846D01*
X113110Y-61848D01*
X113100Y-61849D01*
X113091Y-61849D01*
X113082Y-61846D01*
X113073Y-61841D01*
X113066Y-61835D01*
X113059Y-61828D01*
X113055Y-61819D01*
X113052Y-61810D01*
X113051Y-61800D01*
X113051Y-61791D01*
X113054Y-61782D01*
X113058Y-61773D01*
X113065Y-61766D01*
X113072Y-61759D01*
X113080Y-61755D01*
X113090Y-61752D01*
X113099Y-61751D01*
X113108Y-61751D01*
X113118Y-61754D01*
X113126Y-61758D01*
X113134Y-61764D01*
X113140Y-61772D01*
X113145Y-61780D01*
X113148Y-61789D01*
X113149Y-61799D01*
X113150Y-61800D01*
X113400Y-61800D02*
X113399Y-61809D01*
X113396Y-61819D01*
X113391Y-61827D01*
X113385Y-61835D01*
X113377Y-61841D01*
X113369Y-61846D01*
X113360Y-61848D01*
X113350Y-61849D01*
X113341Y-61849D01*
X113332Y-61846D01*
X113323Y-61841D01*
X113316Y-61835D01*
X113309Y-61828D01*
X113305Y-61819D01*
X113302Y-61810D01*
X113301Y-61800D01*
X113301Y-61791D01*
X113304Y-61782D01*
X113308Y-61773D01*
X113315Y-61766D01*
X113322Y-61759D01*
X113330Y-61755D01*
X113340Y-61752D01*
X113349Y-61751D01*
X113358Y-61751D01*
X113368Y-61754D01*
X113376Y-61758D01*
X113384Y-61764D01*
X113390Y-61772D01*
X113395Y-61780D01*
X113398Y-61789D01*
X113399Y-61799D01*
X113400Y-61800D01*
X113150Y-62300D02*
X113149Y-62309D01*
X113146Y-62319D01*
X113141Y-62327D01*
X113135Y-62335D01*
X113127Y-62341D01*
X113119Y-62346D01*
X113110Y-62348D01*
X113100Y-62349D01*
X113091Y-62349D01*
X113082Y-62346D01*
X113073Y-62341D01*
X113066Y-62335D01*
X113059Y-62328D01*
X113055Y-62319D01*
X113052Y-62310D01*
X113051Y-62300D01*
X113051Y-62291D01*
X113054Y-62282D01*
X113058Y-62273D01*
X113065Y-62266D01*
X113072Y-62259D01*
X113080Y-62255D01*
X113090Y-62252D01*
X113099Y-62251D01*
X113108Y-62251D01*
X113118Y-62254D01*
X113126Y-62258D01*
X113134Y-62264D01*
X113140Y-62272D01*
X113145Y-62280D01*
X113148Y-62289D01*
X113149Y-62299D01*
X113150Y-62300D01*
X113400Y-62300D02*
X113399Y-62309D01*
X113396Y-62319D01*
X113391Y-62327D01*
X113385Y-62335D01*
X113377Y-62341D01*
X113369Y-62346D01*
X113360Y-62348D01*
X113350Y-62349D01*
X113341Y-62349D01*
X113332Y-62346D01*
X113323Y-62341D01*
X113316Y-62335D01*
X113309Y-62328D01*
X113305Y-62319D01*
X113302Y-62310D01*
X113301Y-62300D01*
X113301Y-62291D01*
X113304Y-62282D01*
X113308Y-62273D01*
X113315Y-62266D01*
X113322Y-62259D01*
X113330Y-62255D01*
X113340Y-62252D01*
X113349Y-62251D01*
X113358Y-62251D01*
X113368Y-62254D01*
X113376Y-62258D01*
X113384Y-62264D01*
X113390Y-62272D01*
X113395Y-62280D01*
X113398Y-62289D01*
X113399Y-62299D01*
X113400Y-62300D01*
X113650Y-62300D02*
X113649Y-62309D01*
X113646Y-62319D01*
X113641Y-62327D01*
X113635Y-62335D01*
X113627Y-62341D01*
X113619Y-62346D01*
X113610Y-62348D01*
X113600Y-62349D01*
X113591Y-62349D01*
X113582Y-62346D01*
X113573Y-62341D01*
X113566Y-62335D01*
X113559Y-62328D01*
X113555Y-62319D01*
X113552Y-62310D01*
X113551Y-62300D01*
X113551Y-62291D01*
X113554Y-62282D01*
X113558Y-62273D01*
X113565Y-62266D01*
X113572Y-62259D01*
X113580Y-62255D01*
X113590Y-62252D01*
X113599Y-62251D01*
X113608Y-62251D01*
X113618Y-62254D01*
X113626Y-62258D01*
X113634Y-62264D01*
X113640Y-62272D01*
X113645Y-62280D01*
X113648Y-62289D01*
X113649Y-62299D01*
X113650Y-62300D01*
X113900Y-62050D02*
X113899Y-62059D01*
X113896Y-62069D01*
X113891Y-62077D01*
X113885Y-62085D01*
X113877Y-62091D01*
X113869Y-62096D01*
X113860Y-62098D01*
X113850Y-62099D01*
X113841Y-62099D01*
X113832Y-62096D01*
X113823Y-62091D01*
X113816Y-62085D01*
X113809Y-62078D01*
X113805Y-62069D01*
X113802Y-62060D01*
X113801Y-62050D01*
X113801Y-62041D01*
X113804Y-62032D01*
X113808Y-62023D01*
X113815Y-62016D01*
X113822Y-62009D01*
X113830Y-62005D01*
X113840Y-62002D01*
X113849Y-62001D01*
X113858Y-62001D01*
X113868Y-62004D01*
X113876Y-62008D01*
X113884Y-62014D01*
X113890Y-62022D01*
X113895Y-62030D01*
X113898Y-62039D01*
X113899Y-62049D01*
X113900Y-62050D01*
X114150Y-61800D02*
X114149Y-61809D01*
X114146Y-61819D01*
X114141Y-61827D01*
X114135Y-61835D01*
X114127Y-61841D01*
X114119Y-61846D01*
X114110Y-61848D01*
X114100Y-61849D01*
X114091Y-61849D01*
X114082Y-61846D01*
X114073Y-61841D01*
X114066Y-61835D01*
X114059Y-61828D01*
X114055Y-61819D01*
X114052Y-61810D01*
X114051Y-61800D01*
X114051Y-61791D01*
X114054Y-61782D01*
X114058Y-61773D01*
X114065Y-61766D01*
X114072Y-61759D01*
X114080Y-61755D01*
X114090Y-61752D01*
X114099Y-61751D01*
X114108Y-61751D01*
X114118Y-61754D01*
X114126Y-61758D01*
X114134Y-61764D01*
X114140Y-61772D01*
X114145Y-61780D01*
X114148Y-61789D01*
X114149Y-61799D01*
X114150Y-61800D01*
X112900Y-62300D02*
X112899Y-62309D01*
X112896Y-62319D01*
X112891Y-62327D01*
X112885Y-62335D01*
X112877Y-62341D01*
X112869Y-62346D01*
X112860Y-62348D01*
X112850Y-62349D01*
X112841Y-62349D01*
X112832Y-62346D01*
X112823Y-62341D01*
X112816Y-62335D01*
X112809Y-62328D01*
X112805Y-62319D01*
X112802Y-62310D01*
X112801Y-62300D01*
X112801Y-62291D01*
X112804Y-62282D01*
X112808Y-62273D01*
X112815Y-62266D01*
X112822Y-62259D01*
X112830Y-62255D01*
X112840Y-62252D01*
X112849Y-62251D01*
X112858Y-62251D01*
X112868Y-62254D01*
X112876Y-62258D01*
X112884Y-62264D01*
X112890Y-62272D01*
X112895Y-62280D01*
X112898Y-62289D01*
X112899Y-62299D01*
X112900Y-62300D01*
X112650Y-62050D02*
X112649Y-62059D01*
X112646Y-62069D01*
X112641Y-62077D01*
X112635Y-62085D01*
X112627Y-62091D01*
X112619Y-62096D01*
X112610Y-62098D01*
X112600Y-62099D01*
X112591Y-62099D01*
X112582Y-62096D01*
X112573Y-62091D01*
X112566Y-62085D01*
X112559Y-62078D01*
X112555Y-62069D01*
X112552Y-62060D01*
X112551Y-62050D01*
X112551Y-62041D01*
X112554Y-62032D01*
X112558Y-62023D01*
X112565Y-62016D01*
X112572Y-62009D01*
X112580Y-62005D01*
X112590Y-62002D01*
X112599Y-62001D01*
X112608Y-62001D01*
X112618Y-62004D01*
X112626Y-62008D01*
X112634Y-62014D01*
X112640Y-62022D01*
X112645Y-62030D01*
X112648Y-62039D01*
X112649Y-62049D01*
X112650Y-62050D01*
X112400Y-61800D02*
X112399Y-61809D01*
X112396Y-61819D01*
X112391Y-61827D01*
X112385Y-61835D01*
X112377Y-61841D01*
X112369Y-61846D01*
X112360Y-61848D01*
X112350Y-61849D01*
X112341Y-61849D01*
X112332Y-61846D01*
X112323Y-61841D01*
X112316Y-61835D01*
X112309Y-61828D01*
X112305Y-61819D01*
X112302Y-61810D01*
X112301Y-61800D01*
X112301Y-61791D01*
X112304Y-61782D01*
X112308Y-61773D01*
X112315Y-61766D01*
X112322Y-61759D01*
X112330Y-61755D01*
X112340Y-61752D01*
X112349Y-61751D01*
X112358Y-61751D01*
X112368Y-61754D01*
X112376Y-61758D01*
X112384Y-61764D01*
X112390Y-61772D01*
X112395Y-61780D01*
X112398Y-61789D01*
X112399Y-61799D01*
X112400Y-61800D01*
X49900Y-61850D02*
X49899Y-61859D01*
X49896Y-61869D01*
X49891Y-61877D01*
X49885Y-61885D01*
X49877Y-61891D01*
X49869Y-61896D01*
X49860Y-61898D01*
X49850Y-61899D01*
X49841Y-61899D01*
X49832Y-61896D01*
X49823Y-61891D01*
X49816Y-61885D01*
X49809Y-61878D01*
X49805Y-61869D01*
X49802Y-61860D01*
X49801Y-61850D01*
X49801Y-61841D01*
X49804Y-61832D01*
X49808Y-61823D01*
X49815Y-61816D01*
X49822Y-61809D01*
X49830Y-61805D01*
X49840Y-61802D01*
X49849Y-61801D01*
X49858Y-61801D01*
X49868Y-61804D01*
X49876Y-61808D01*
X49884Y-61814D01*
X49890Y-61822D01*
X49895Y-61830D01*
X49898Y-61839D01*
X49899Y-61849D01*
X49900Y-61850D01*
X50150Y-62100D02*
X50149Y-62109D01*
X50146Y-62119D01*
X50141Y-62127D01*
X50135Y-62135D01*
X50127Y-62141D01*
X50119Y-62146D01*
X50110Y-62148D01*
X50100Y-62149D01*
X50091Y-62149D01*
X50082Y-62146D01*
X50073Y-62141D01*
X50066Y-62135D01*
X50059Y-62128D01*
X50055Y-62119D01*
X50052Y-62110D01*
X50051Y-62100D01*
X50051Y-62091D01*
X50054Y-62082D01*
X50058Y-62073D01*
X50065Y-62066D01*
X50072Y-62059D01*
X50080Y-62055D01*
X50090Y-62052D01*
X50099Y-62051D01*
X50108Y-62051D01*
X50118Y-62054D01*
X50126Y-62058D01*
X50134Y-62064D01*
X50140Y-62072D01*
X50145Y-62080D01*
X50148Y-62089D01*
X50149Y-62099D01*
X50150Y-62100D01*
X50400Y-62350D02*
X50399Y-62359D01*
X50396Y-62369D01*
X50391Y-62377D01*
X50385Y-62385D01*
X50377Y-62391D01*
X50369Y-62396D01*
X50360Y-62398D01*
X50350Y-62399D01*
X50341Y-62399D01*
X50332Y-62396D01*
X50323Y-62391D01*
X50316Y-62385D01*
X50309Y-62378D01*
X50305Y-62369D01*
X50302Y-62360D01*
X50301Y-62350D01*
X50301Y-62341D01*
X50304Y-62332D01*
X50308Y-62323D01*
X50315Y-62316D01*
X50322Y-62309D01*
X50330Y-62305D01*
X50340Y-62302D01*
X50349Y-62301D01*
X50358Y-62301D01*
X50368Y-62304D01*
X50376Y-62308D01*
X50384Y-62314D01*
X50390Y-62322D01*
X50395Y-62330D01*
X50398Y-62339D01*
X50399Y-62349D01*
X50400Y-62350D01*
X51650Y-61850D02*
X51649Y-61859D01*
X51646Y-61869D01*
X51641Y-61877D01*
X51635Y-61885D01*
X51627Y-61891D01*
X51619Y-61896D01*
X51610Y-61898D01*
X51600Y-61899D01*
X51591Y-61899D01*
X51582Y-61896D01*
X51573Y-61891D01*
X51566Y-61885D01*
X51559Y-61878D01*
X51555Y-61869D01*
X51552Y-61860D01*
X51551Y-61850D01*
X51551Y-61841D01*
X51554Y-61832D01*
X51558Y-61823D01*
X51565Y-61816D01*
X51572Y-61809D01*
X51580Y-61805D01*
X51590Y-61802D01*
X51599Y-61801D01*
X51608Y-61801D01*
X51618Y-61804D01*
X51626Y-61808D01*
X51634Y-61814D01*
X51640Y-61822D01*
X51645Y-61830D01*
X51648Y-61839D01*
X51649Y-61849D01*
X51650Y-61850D01*
X51400Y-62100D02*
X51399Y-62109D01*
X51396Y-62119D01*
X51391Y-62127D01*
X51385Y-62135D01*
X51377Y-62141D01*
X51369Y-62146D01*
X51360Y-62148D01*
X51350Y-62149D01*
X51341Y-62149D01*
X51332Y-62146D01*
X51323Y-62141D01*
X51316Y-62135D01*
X51309Y-62128D01*
X51305Y-62119D01*
X51302Y-62110D01*
X51301Y-62100D01*
X51301Y-62091D01*
X51304Y-62082D01*
X51308Y-62073D01*
X51315Y-62066D01*
X51322Y-62059D01*
X51330Y-62055D01*
X51340Y-62052D01*
X51349Y-62051D01*
X51358Y-62051D01*
X51368Y-62054D01*
X51376Y-62058D01*
X51384Y-62064D01*
X51390Y-62072D01*
X51395Y-62080D01*
X51398Y-62089D01*
X51399Y-62099D01*
X51400Y-62100D01*
X51150Y-62350D02*
X51149Y-62359D01*
X51146Y-62369D01*
X51141Y-62377D01*
X51135Y-62385D01*
X51127Y-62391D01*
X51119Y-62396D01*
X51110Y-62398D01*
X51100Y-62399D01*
X51091Y-62399D01*
X51082Y-62396D01*
X51073Y-62391D01*
X51066Y-62385D01*
X51059Y-62378D01*
X51055Y-62369D01*
X51052Y-62360D01*
X51051Y-62350D01*
X51051Y-62341D01*
X51054Y-62332D01*
X51058Y-62323D01*
X51065Y-62316D01*
X51072Y-62309D01*
X51080Y-62305D01*
X51090Y-62302D01*
X51099Y-62301D01*
X51108Y-62301D01*
X51118Y-62304D01*
X51126Y-62308D01*
X51134Y-62314D01*
X51140Y-62322D01*
X51145Y-62330D01*
X51148Y-62339D01*
X51149Y-62349D01*
X51150Y-62350D01*
X50900Y-62350D02*
X50899Y-62359D01*
X50896Y-62369D01*
X50891Y-62377D01*
X50885Y-62385D01*
X50877Y-62391D01*
X50869Y-62396D01*
X50860Y-62398D01*
X50850Y-62399D01*
X50841Y-62399D01*
X50832Y-62396D01*
X50823Y-62391D01*
X50816Y-62385D01*
X50809Y-62378D01*
X50805Y-62369D01*
X50802Y-62360D01*
X50801Y-62350D01*
X50801Y-62341D01*
X50804Y-62332D01*
X50808Y-62323D01*
X50815Y-62316D01*
X50822Y-62309D01*
X50830Y-62305D01*
X50840Y-62302D01*
X50849Y-62301D01*
X50858Y-62301D01*
X50868Y-62304D01*
X50876Y-62308D01*
X50884Y-62314D01*
X50890Y-62322D01*
X50895Y-62330D01*
X50898Y-62339D01*
X50899Y-62349D01*
X50900Y-62350D01*
X50650Y-62350D02*
X50649Y-62359D01*
X50646Y-62369D01*
X50641Y-62377D01*
X50635Y-62385D01*
X50627Y-62391D01*
X50619Y-62396D01*
X50610Y-62398D01*
X50600Y-62399D01*
X50591Y-62399D01*
X50582Y-62396D01*
X50573Y-62391D01*
X50566Y-62385D01*
X50559Y-62378D01*
X50555Y-62369D01*
X50552Y-62360D01*
X50551Y-62350D01*
X50551Y-62341D01*
X50554Y-62332D01*
X50558Y-62323D01*
X50565Y-62316D01*
X50572Y-62309D01*
X50580Y-62305D01*
X50590Y-62302D01*
X50599Y-62301D01*
X50608Y-62301D01*
X50618Y-62304D01*
X50626Y-62308D01*
X50634Y-62314D01*
X50640Y-62322D01*
X50645Y-62330D01*
X50648Y-62339D01*
X50649Y-62349D01*
X50650Y-62350D01*
X50900Y-61850D02*
X50899Y-61859D01*
X50896Y-61869D01*
X50891Y-61877D01*
X50885Y-61885D01*
X50877Y-61891D01*
X50869Y-61896D01*
X50860Y-61898D01*
X50850Y-61899D01*
X50841Y-61899D01*
X50832Y-61896D01*
X50823Y-61891D01*
X50816Y-61885D01*
X50809Y-61878D01*
X50805Y-61869D01*
X50802Y-61860D01*
X50801Y-61850D01*
X50801Y-61841D01*
X50804Y-61832D01*
X50808Y-61823D01*
X50815Y-61816D01*
X50822Y-61809D01*
X50830Y-61805D01*
X50840Y-61802D01*
X50849Y-61801D01*
X50858Y-61801D01*
X50868Y-61804D01*
X50876Y-61808D01*
X50884Y-61814D01*
X50890Y-61822D01*
X50895Y-61830D01*
X50898Y-61839D01*
X50899Y-61849D01*
X50900Y-61850D01*
X50650Y-61850D02*
X50649Y-61859D01*
X50646Y-61869D01*
X50641Y-61877D01*
X50635Y-61885D01*
X50627Y-61891D01*
X50619Y-61896D01*
X50610Y-61898D01*
X50600Y-61899D01*
X50591Y-61899D01*
X50582Y-61896D01*
X50573Y-61891D01*
X50566Y-61885D01*
X50559Y-61878D01*
X50555Y-61869D01*
X50552Y-61860D01*
X50551Y-61850D01*
X50551Y-61841D01*
X50554Y-61832D01*
X50558Y-61823D01*
X50565Y-61816D01*
X50572Y-61809D01*
X50580Y-61805D01*
X50590Y-61802D01*
X50599Y-61801D01*
X50608Y-61801D01*
X50618Y-61804D01*
X50626Y-61808D01*
X50634Y-61814D01*
X50640Y-61822D01*
X50645Y-61830D01*
X50648Y-61839D01*
X50649Y-61849D01*
X50650Y-61850D01*
X50900Y-61600D02*
X50899Y-61609D01*
X50896Y-61619D01*
X50891Y-61627D01*
X50885Y-61635D01*
X50877Y-61641D01*
X50869Y-61646D01*
X50860Y-61648D01*
X50850Y-61649D01*
X50841Y-61649D01*
X50832Y-61646D01*
X50823Y-61641D01*
X50816Y-61635D01*
X50809Y-61628D01*
X50805Y-61619D01*
X50802Y-61610D01*
X50801Y-61600D01*
X50801Y-61591D01*
X50804Y-61582D01*
X50808Y-61573D01*
X50815Y-61566D01*
X50822Y-61559D01*
X50830Y-61555D01*
X50840Y-61552D01*
X50849Y-61551D01*
X50858Y-61551D01*
X50868Y-61554D01*
X50876Y-61558D01*
X50884Y-61564D01*
X50890Y-61572D01*
X50895Y-61580D01*
X50898Y-61589D01*
X50899Y-61599D01*
X50900Y-61600D01*
X50650Y-61600D02*
X50649Y-61609D01*
X50646Y-61619D01*
X50641Y-61627D01*
X50635Y-61635D01*
X50627Y-61641D01*
X50619Y-61646D01*
X50610Y-61648D01*
X50600Y-61649D01*
X50591Y-61649D01*
X50582Y-61646D01*
X50573Y-61641D01*
X50566Y-61635D01*
X50559Y-61628D01*
X50555Y-61619D01*
X50552Y-61610D01*
X50551Y-61600D01*
X50551Y-61591D01*
X50554Y-61582D01*
X50558Y-61573D01*
X50565Y-61566D01*
X50572Y-61559D01*
X50580Y-61555D01*
X50590Y-61552D01*
X50599Y-61551D01*
X50608Y-61551D01*
X50618Y-61554D01*
X50626Y-61558D01*
X50634Y-61564D01*
X50640Y-61572D01*
X50645Y-61580D01*
X50648Y-61589D01*
X50649Y-61599D01*
X50650Y-61600D01*
X50400Y-60850D02*
X50399Y-60859D01*
X50396Y-60869D01*
X50391Y-60877D01*
X50385Y-60885D01*
X50377Y-60891D01*
X50369Y-60896D01*
X50360Y-60898D01*
X50350Y-60899D01*
X50341Y-60899D01*
X50332Y-60896D01*
X50323Y-60891D01*
X50316Y-60885D01*
X50309Y-60878D01*
X50305Y-60869D01*
X50302Y-60860D01*
X50301Y-60850D01*
X50301Y-60841D01*
X50304Y-60832D01*
X50308Y-60823D01*
X50315Y-60816D01*
X50322Y-60809D01*
X50330Y-60805D01*
X50340Y-60802D01*
X50349Y-60801D01*
X50358Y-60801D01*
X50368Y-60804D01*
X50376Y-60808D01*
X50384Y-60814D01*
X50390Y-60822D01*
X50395Y-60830D01*
X50398Y-60839D01*
X50399Y-60849D01*
X50400Y-60850D01*
X50150Y-60850D02*
X50149Y-60859D01*
X50146Y-60869D01*
X50141Y-60877D01*
X50135Y-60885D01*
X50127Y-60891D01*
X50119Y-60896D01*
X50110Y-60898D01*
X50100Y-60899D01*
X50091Y-60899D01*
X50082Y-60896D01*
X50073Y-60891D01*
X50066Y-60885D01*
X50059Y-60878D01*
X50055Y-60869D01*
X50052Y-60860D01*
X50051Y-60850D01*
X50051Y-60841D01*
X50054Y-60832D01*
X50058Y-60823D01*
X50065Y-60816D01*
X50072Y-60809D01*
X50080Y-60805D01*
X50090Y-60802D01*
X50099Y-60801D01*
X50108Y-60801D01*
X50118Y-60804D01*
X50126Y-60808D01*
X50134Y-60814D01*
X50140Y-60822D01*
X50145Y-60830D01*
X50148Y-60839D01*
X50149Y-60849D01*
X50150Y-60850D01*
X50150Y-61100D02*
X50149Y-61109D01*
X50146Y-61119D01*
X50141Y-61127D01*
X50135Y-61135D01*
X50127Y-61141D01*
X50119Y-61146D01*
X50110Y-61148D01*
X50100Y-61149D01*
X50091Y-61149D01*
X50082Y-61146D01*
X50073Y-61141D01*
X50066Y-61135D01*
X50059Y-61128D01*
X50055Y-61119D01*
X50052Y-61110D01*
X50051Y-61100D01*
X50051Y-61091D01*
X50054Y-61082D01*
X50058Y-61073D01*
X50065Y-61066D01*
X50072Y-61059D01*
X50080Y-61055D01*
X50090Y-61052D01*
X50099Y-61051D01*
X50108Y-61051D01*
X50118Y-61054D01*
X50126Y-61058D01*
X50134Y-61064D01*
X50140Y-61072D01*
X50145Y-61080D01*
X50148Y-61089D01*
X50149Y-61099D01*
X50150Y-61100D01*
X50400Y-61100D02*
X50399Y-61109D01*
X50396Y-61119D01*
X50391Y-61127D01*
X50385Y-61135D01*
X50377Y-61141D01*
X50369Y-61146D01*
X50360Y-61148D01*
X50350Y-61149D01*
X50341Y-61149D01*
X50332Y-61146D01*
X50323Y-61141D01*
X50316Y-61135D01*
X50309Y-61128D01*
X50305Y-61119D01*
X50302Y-61110D01*
X50301Y-61100D01*
X50301Y-61091D01*
X50304Y-61082D01*
X50308Y-61073D01*
X50315Y-61066D01*
X50322Y-61059D01*
X50330Y-61055D01*
X50340Y-61052D01*
X50349Y-61051D01*
X50358Y-61051D01*
X50368Y-61054D01*
X50376Y-61058D01*
X50384Y-61064D01*
X50390Y-61072D01*
X50395Y-61080D01*
X50398Y-61089D01*
X50399Y-61099D01*
X50400Y-61100D01*
X51400Y-61100D02*
X51399Y-61109D01*
X51396Y-61119D01*
X51391Y-61127D01*
X51385Y-61135D01*
X51377Y-61141D01*
X51369Y-61146D01*
X51360Y-61148D01*
X51350Y-61149D01*
X51341Y-61149D01*
X51332Y-61146D01*
X51323Y-61141D01*
X51316Y-61135D01*
X51309Y-61128D01*
X51305Y-61119D01*
X51302Y-61110D01*
X51301Y-61100D01*
X51301Y-61091D01*
X51304Y-61082D01*
X51308Y-61073D01*
X51315Y-61066D01*
X51322Y-61059D01*
X51330Y-61055D01*
X51340Y-61052D01*
X51349Y-61051D01*
X51358Y-61051D01*
X51368Y-61054D01*
X51376Y-61058D01*
X51384Y-61064D01*
X51390Y-61072D01*
X51395Y-61080D01*
X51398Y-61089D01*
X51399Y-61099D01*
X51400Y-61100D01*
X51150Y-61100D02*
X51149Y-61109D01*
X51146Y-61119D01*
X51141Y-61127D01*
X51135Y-61135D01*
X51127Y-61141D01*
X51119Y-61146D01*
X51110Y-61148D01*
X51100Y-61149D01*
X51091Y-61149D01*
X51082Y-61146D01*
X51073Y-61141D01*
X51066Y-61135D01*
X51059Y-61128D01*
X51055Y-61119D01*
X51052Y-61110D01*
X51051Y-61100D01*
X51051Y-61091D01*
X51054Y-61082D01*
X51058Y-61073D01*
X51065Y-61066D01*
X51072Y-61059D01*
X51080Y-61055D01*
X51090Y-61052D01*
X51099Y-61051D01*
X51108Y-61051D01*
X51118Y-61054D01*
X51126Y-61058D01*
X51134Y-61064D01*
X51140Y-61072D01*
X51145Y-61080D01*
X51148Y-61089D01*
X51149Y-61099D01*
X51150Y-61100D01*
X51400Y-60850D02*
X51399Y-60859D01*
X51396Y-60869D01*
X51391Y-60877D01*
X51385Y-60885D01*
X51377Y-60891D01*
X51369Y-60896D01*
X51360Y-60898D01*
X51350Y-60899D01*
X51341Y-60899D01*
X51332Y-60896D01*
X51323Y-60891D01*
X51316Y-60885D01*
X51309Y-60878D01*
X51305Y-60869D01*
X51302Y-60860D01*
X51301Y-60850D01*
X51301Y-60841D01*
X51304Y-60832D01*
X51308Y-60823D01*
X51315Y-60816D01*
X51322Y-60809D01*
X51330Y-60805D01*
X51340Y-60802D01*
X51349Y-60801D01*
X51358Y-60801D01*
X51368Y-60804D01*
X51376Y-60808D01*
X51384Y-60814D01*
X51390Y-60822D01*
X51395Y-60830D01*
X51398Y-60839D01*
X51399Y-60849D01*
X51400Y-60850D01*
X51150Y-60850D02*
X51149Y-60859D01*
X51146Y-60869D01*
X51141Y-60877D01*
X51135Y-60885D01*
X51127Y-60891D01*
X51119Y-60896D01*
X51110Y-60898D01*
X51100Y-60899D01*
X51091Y-60899D01*
X51082Y-60896D01*
X51073Y-60891D01*
X51066Y-60885D01*
X51059Y-60878D01*
X51055Y-60869D01*
X51052Y-60860D01*
X51051Y-60850D01*
X51051Y-60841D01*
X51054Y-60832D01*
X51058Y-60823D01*
X51065Y-60816D01*
X51072Y-60809D01*
X51080Y-60805D01*
X51090Y-60802D01*
X51099Y-60801D01*
X51108Y-60801D01*
X51118Y-60804D01*
X51126Y-60808D01*
X51134Y-60814D01*
X51140Y-60822D01*
X51145Y-60830D01*
X51148Y-60839D01*
X51149Y-60849D01*
X51150Y-60850D01*
X83900Y-54400D02*
X83900Y-55700D01*
X83900Y-54400D02*
X82600Y-54400D01*
G54D13*
X80600Y-54700D02*
X83600Y-54700D01*
X83600Y-56700D02*
X80600Y-56700D01*
X80600Y-56700D02*
X80600Y-54700D01*
X83600Y-54700D02*
X83600Y-56700D01*
G54D11*
X69917Y-58764D02*
X69917Y-58075D01*
X69917Y-59256D02*
X69917Y-60024D01*
X69917Y-59256D02*
X70193Y-58764D01*
X70193Y-58764D02*
X69661Y-58764D01*
X69661Y-58764D02*
X69917Y-59256D01*
X70193Y-59256D02*
X69661Y-59256D01*
X72909Y-59000D02*
X72872Y-59370D01*
X72764Y-59727D01*
X72590Y-60056D01*
X72354Y-60345D01*
X72067Y-60582D01*
X71739Y-60759D01*
X71383Y-60870D01*
X71013Y-60908D01*
X70643Y-60875D01*
X70285Y-60769D01*
X69955Y-60597D01*
X69665Y-60363D01*
X69425Y-60078D01*
X69246Y-59752D01*
X69133Y-59396D01*
X69092Y-59026D01*
X69123Y-58656D01*
X69226Y-58298D01*
X69396Y-57966D01*
X69627Y-57674D01*
X69911Y-57433D01*
X70236Y-57251D01*
X70591Y-57136D01*
X70961Y-57092D01*
X71331Y-57121D01*
X71690Y-57221D01*
X72022Y-57389D01*
X72316Y-57618D01*
X72559Y-57900D01*
X72743Y-58224D01*
X72861Y-58578D01*
X72908Y-58947D01*
X72909Y-59000D01*
X40583Y-59236D02*
X40583Y-59925D01*
X40583Y-58744D02*
X40583Y-57976D01*
X40583Y-58744D02*
X40307Y-59236D01*
X40307Y-59236D02*
X40839Y-59236D01*
X40839Y-59236D02*
X40583Y-58744D01*
X40307Y-58744D02*
X40839Y-58744D01*
X41409Y-59000D02*
X41372Y-59370D01*
X41264Y-59727D01*
X41090Y-60056D01*
X40854Y-60345D01*
X40567Y-60582D01*
X40239Y-60759D01*
X39883Y-60870D01*
X39513Y-60908D01*
X39143Y-60875D01*
X38785Y-60769D01*
X38455Y-60597D01*
X38165Y-60363D01*
X37925Y-60078D01*
X37746Y-59752D01*
X37633Y-59396D01*
X37592Y-59026D01*
X37623Y-58656D01*
X37726Y-58298D01*
X37896Y-57966D01*
X38127Y-57674D01*
X38411Y-57433D01*
X38736Y-57251D01*
X39091Y-57136D01*
X39461Y-57092D01*
X39831Y-57121D01*
X40190Y-57221D01*
X40522Y-57389D01*
X40816Y-57618D01*
X41059Y-57900D01*
X41243Y-58224D01*
X41361Y-58578D01*
X41408Y-58947D01*
X41409Y-59000D01*
X40582Y-54736D02*
X40582Y-55425D01*
X40582Y-54244D02*
X40582Y-53476D01*
X40582Y-54244D02*
X40306Y-54736D01*
X40306Y-54736D02*
X40838Y-54736D01*
X40838Y-54736D02*
X40582Y-54244D01*
X40306Y-54244D02*
X40838Y-54244D01*
X41408Y-54500D02*
X41371Y-54870D01*
X41263Y-55227D01*
X41089Y-55556D01*
X40853Y-55845D01*
X40566Y-56082D01*
X40238Y-56259D01*
X39882Y-56370D01*
X39512Y-56408D01*
X39142Y-56375D01*
X38784Y-56269D01*
X38454Y-56097D01*
X38164Y-55863D01*
X37924Y-55578D01*
X37745Y-55252D01*
X37632Y-54896D01*
X37591Y-54526D01*
X37622Y-54156D01*
X37725Y-53798D01*
X37895Y-53466D01*
X38126Y-53174D01*
X38410Y-52933D01*
X38735Y-52751D01*
X39090Y-52636D01*
X39460Y-52592D01*
X39830Y-52621D01*
X40189Y-52721D01*
X40521Y-52889D01*
X40815Y-53118D01*
X41058Y-53400D01*
X41242Y-53724D01*
X41360Y-54078D01*
X41407Y-54447D01*
X41408Y-54500D01*
X42917Y-54264D02*
X42917Y-53575D01*
X42917Y-54756D02*
X42917Y-55524D01*
X42917Y-54756D02*
X43193Y-54264D01*
X43193Y-54264D02*
X42661Y-54264D01*
X42661Y-54264D02*
X42917Y-54756D01*
X43193Y-54756D02*
X42661Y-54756D01*
X45909Y-54500D02*
X45872Y-54870D01*
X45764Y-55227D01*
X45590Y-55556D01*
X45354Y-55845D01*
X45067Y-56082D01*
X44739Y-56259D01*
X44383Y-56370D01*
X44013Y-56408D01*
X43643Y-56375D01*
X43285Y-56269D01*
X42955Y-56097D01*
X42665Y-55863D01*
X42425Y-55578D01*
X42246Y-55252D01*
X42133Y-54896D01*
X42092Y-54526D01*
X42123Y-54156D01*
X42226Y-53798D01*
X42396Y-53466D01*
X42627Y-53174D01*
X42911Y-52933D01*
X43236Y-52751D01*
X43591Y-52636D01*
X43961Y-52592D01*
X44331Y-52621D01*
X44690Y-52721D01*
X45022Y-52889D01*
X45316Y-53118D01*
X45559Y-53400D01*
X45743Y-53724D01*
X45861Y-54078D01*
X45908Y-54447D01*
X45909Y-54500D01*
X42917Y-58764D02*
X42917Y-58075D01*
X42917Y-59256D02*
X42917Y-60024D01*
X42917Y-59256D02*
X43193Y-58764D01*
X43193Y-58764D02*
X42661Y-58764D01*
X42661Y-58764D02*
X42917Y-59256D01*
X43193Y-59256D02*
X42661Y-59256D01*
X45909Y-59000D02*
X45872Y-59370D01*
X45764Y-59727D01*
X45590Y-60056D01*
X45354Y-60345D01*
X45067Y-60582D01*
X44739Y-60759D01*
X44383Y-60870D01*
X44013Y-60908D01*
X43643Y-60875D01*
X43285Y-60769D01*
X42955Y-60597D01*
X42665Y-60363D01*
X42425Y-60078D01*
X42246Y-59752D01*
X42133Y-59396D01*
X42092Y-59026D01*
X42123Y-58656D01*
X42226Y-58298D01*
X42396Y-57966D01*
X42627Y-57674D01*
X42911Y-57433D01*
X43236Y-57251D01*
X43591Y-57136D01*
X43961Y-57092D01*
X44331Y-57121D01*
X44690Y-57221D01*
X45022Y-57389D01*
X45316Y-57618D01*
X45559Y-57900D01*
X45743Y-58224D01*
X45861Y-58578D01*
X45908Y-58947D01*
X45909Y-59000D01*
X49583Y-59236D02*
X49583Y-59925D01*
X49583Y-58744D02*
X49583Y-57976D01*
X49583Y-58744D02*
X49307Y-59236D01*
X49307Y-59236D02*
X49839Y-59236D01*
X49839Y-59236D02*
X49583Y-58744D01*
X49307Y-58744D02*
X49839Y-58744D01*
X50409Y-59000D02*
X50372Y-59370D01*
X50264Y-59727D01*
X50090Y-60056D01*
X49854Y-60345D01*
X49567Y-60582D01*
X49239Y-60759D01*
X48883Y-60870D01*
X48513Y-60908D01*
X48143Y-60875D01*
X47785Y-60769D01*
X47455Y-60597D01*
X47165Y-60363D01*
X46925Y-60078D01*
X46746Y-59752D01*
X46633Y-59396D01*
X46592Y-59026D01*
X46623Y-58656D01*
X46726Y-58298D01*
X46896Y-57966D01*
X47127Y-57674D01*
X47411Y-57433D01*
X47736Y-57251D01*
X48091Y-57136D01*
X48461Y-57092D01*
X48831Y-57121D01*
X49190Y-57221D01*
X49522Y-57389D01*
X49816Y-57618D01*
X50059Y-57900D01*
X50243Y-58224D01*
X50361Y-58578D01*
X50408Y-58947D01*
X50409Y-59000D01*
X49583Y-54736D02*
X49583Y-55425D01*
X49583Y-54244D02*
X49583Y-53476D01*
X49583Y-54244D02*
X49307Y-54736D01*
X49307Y-54736D02*
X49839Y-54736D01*
X49839Y-54736D02*
X49583Y-54244D01*
X49307Y-54244D02*
X49839Y-54244D01*
X50409Y-54500D02*
X50372Y-54870D01*
X50264Y-55227D01*
X50090Y-55556D01*
X49854Y-55845D01*
X49567Y-56082D01*
X49239Y-56259D01*
X48883Y-56370D01*
X48513Y-56408D01*
X48143Y-56375D01*
X47785Y-56269D01*
X47455Y-56097D01*
X47165Y-55863D01*
X46925Y-55578D01*
X46746Y-55252D01*
X46633Y-54896D01*
X46592Y-54526D01*
X46623Y-54156D01*
X46726Y-53798D01*
X46896Y-53466D01*
X47127Y-53174D01*
X47411Y-52933D01*
X47736Y-52751D01*
X48091Y-52636D01*
X48461Y-52592D01*
X48831Y-52621D01*
X49190Y-52721D01*
X49522Y-52889D01*
X49816Y-53118D01*
X50059Y-53400D01*
X50243Y-53724D01*
X50361Y-54078D01*
X50408Y-54447D01*
X50409Y-54500D01*
X51917Y-54264D02*
X51917Y-53575D01*
X51917Y-54756D02*
X51917Y-55524D01*
X51917Y-54756D02*
X52193Y-54264D01*
X52193Y-54264D02*
X51661Y-54264D01*
X51661Y-54264D02*
X51917Y-54756D01*
X52193Y-54756D02*
X51661Y-54756D01*
X54909Y-54500D02*
X54872Y-54870D01*
X54764Y-55227D01*
X54590Y-55556D01*
X54354Y-55845D01*
X54067Y-56082D01*
X53739Y-56259D01*
X53383Y-56370D01*
X53013Y-56408D01*
X52643Y-56375D01*
X52285Y-56269D01*
X51955Y-56097D01*
X51665Y-55863D01*
X51425Y-55578D01*
X51246Y-55252D01*
X51133Y-54896D01*
X51092Y-54526D01*
X51123Y-54156D01*
X51226Y-53798D01*
X51396Y-53466D01*
X51627Y-53174D01*
X51911Y-52933D01*
X52236Y-52751D01*
X52591Y-52636D01*
X52961Y-52592D01*
X53331Y-52621D01*
X53690Y-52721D01*
X54022Y-52889D01*
X54316Y-53118D01*
X54559Y-53400D01*
X54743Y-53724D01*
X54861Y-54078D01*
X54908Y-54447D01*
X54909Y-54500D01*
X51917Y-58764D02*
X51917Y-58075D01*
X51917Y-59256D02*
X51917Y-60024D01*
X51917Y-59256D02*
X52193Y-58764D01*
X52193Y-58764D02*
X51661Y-58764D01*
X51661Y-58764D02*
X51917Y-59256D01*
X52193Y-59256D02*
X51661Y-59256D01*
X54909Y-59000D02*
X54872Y-59370D01*
X54764Y-59727D01*
X54590Y-60056D01*
X54354Y-60345D01*
X54067Y-60582D01*
X53739Y-60759D01*
X53383Y-60870D01*
X53013Y-60908D01*
X52643Y-60875D01*
X52285Y-60769D01*
X51955Y-60597D01*
X51665Y-60363D01*
X51425Y-60078D01*
X51246Y-59752D01*
X51133Y-59396D01*
X51092Y-59026D01*
X51123Y-58656D01*
X51226Y-58298D01*
X51396Y-57966D01*
X51627Y-57674D01*
X51911Y-57433D01*
X52236Y-57251D01*
X52591Y-57136D01*
X52961Y-57092D01*
X53331Y-57121D01*
X53690Y-57221D01*
X54022Y-57389D01*
X54316Y-57618D01*
X54559Y-57900D01*
X54743Y-58224D01*
X54861Y-58578D01*
X54908Y-58947D01*
X54909Y-59000D01*
X58583Y-59236D02*
X58583Y-59925D01*
X58583Y-58744D02*
X58583Y-57976D01*
X58583Y-58744D02*
X58307Y-59236D01*
X58307Y-59236D02*
X58839Y-59236D01*
X58839Y-59236D02*
X58583Y-58744D01*
X58307Y-58744D02*
X58839Y-58744D01*
X59409Y-59000D02*
X59372Y-59370D01*
X59264Y-59727D01*
X59090Y-60056D01*
X58854Y-60345D01*
X58567Y-60582D01*
X58239Y-60759D01*
X57883Y-60870D01*
X57513Y-60908D01*
X57143Y-60875D01*
X56785Y-60769D01*
X56455Y-60597D01*
X56165Y-60363D01*
X55925Y-60078D01*
X55746Y-59752D01*
X55633Y-59396D01*
X55592Y-59026D01*
X55623Y-58656D01*
X55726Y-58298D01*
X55896Y-57966D01*
X56127Y-57674D01*
X56411Y-57433D01*
X56736Y-57251D01*
X57091Y-57136D01*
X57461Y-57092D01*
X57831Y-57121D01*
X58190Y-57221D01*
X58522Y-57389D01*
X58816Y-57618D01*
X59059Y-57900D01*
X59243Y-58224D01*
X59361Y-58578D01*
X59408Y-58947D01*
X59409Y-59000D01*
X58583Y-54736D02*
X58583Y-55425D01*
X58583Y-54244D02*
X58583Y-53476D01*
X58583Y-54244D02*
X58307Y-54736D01*
X58307Y-54736D02*
X58839Y-54736D01*
X58839Y-54736D02*
X58583Y-54244D01*
X58307Y-54244D02*
X58839Y-54244D01*
X59409Y-54500D02*
X59372Y-54870D01*
X59264Y-55227D01*
X59090Y-55556D01*
X58854Y-55845D01*
X58567Y-56082D01*
X58239Y-56259D01*
X57883Y-56370D01*
X57513Y-56408D01*
X57143Y-56375D01*
X56785Y-56269D01*
X56455Y-56097D01*
X56165Y-55863D01*
X55925Y-55578D01*
X55746Y-55252D01*
X55633Y-54896D01*
X55592Y-54526D01*
X55623Y-54156D01*
X55726Y-53798D01*
X55896Y-53466D01*
X56127Y-53174D01*
X56411Y-52933D01*
X56736Y-52751D01*
X57091Y-52636D01*
X57461Y-52592D01*
X57831Y-52621D01*
X58190Y-52721D01*
X58522Y-52889D01*
X58816Y-53118D01*
X59059Y-53400D01*
X59243Y-53724D01*
X59361Y-54078D01*
X59408Y-54447D01*
X59409Y-54500D01*
X60917Y-54264D02*
X60917Y-53575D01*
X60917Y-54756D02*
X60917Y-55524D01*
X60917Y-54756D02*
X61193Y-54264D01*
X61193Y-54264D02*
X60661Y-54264D01*
X60661Y-54264D02*
X60917Y-54756D01*
X61193Y-54756D02*
X60661Y-54756D01*
X63909Y-54500D02*
X63872Y-54870D01*
X63764Y-55227D01*
X63590Y-55556D01*
X63354Y-55845D01*
X63067Y-56082D01*
X62739Y-56259D01*
X62383Y-56370D01*
X62013Y-56408D01*
X61643Y-56375D01*
X61285Y-56269D01*
X60955Y-56097D01*
X60665Y-55863D01*
X60425Y-55578D01*
X60246Y-55252D01*
X60133Y-54896D01*
X60092Y-54526D01*
X60123Y-54156D01*
X60226Y-53798D01*
X60396Y-53466D01*
X60627Y-53174D01*
X60911Y-52933D01*
X61236Y-52751D01*
X61591Y-52636D01*
X61961Y-52592D01*
X62331Y-52621D01*
X62690Y-52721D01*
X63022Y-52889D01*
X63316Y-53118D01*
X63559Y-53400D01*
X63743Y-53724D01*
X63861Y-54078D01*
X63908Y-54447D01*
X63909Y-54500D01*
X60917Y-58764D02*
X60917Y-58075D01*
X60917Y-59256D02*
X60917Y-60024D01*
X60917Y-59256D02*
X61193Y-58764D01*
X61193Y-58764D02*
X60661Y-58764D01*
X60661Y-58764D02*
X60917Y-59256D01*
X61193Y-59256D02*
X60661Y-59256D01*
X63909Y-59000D02*
X63872Y-59370D01*
X63764Y-59727D01*
X63590Y-60056D01*
X63354Y-60345D01*
X63067Y-60582D01*
X62739Y-60759D01*
X62383Y-60870D01*
X62013Y-60908D01*
X61643Y-60875D01*
X61285Y-60769D01*
X60955Y-60597D01*
X60665Y-60363D01*
X60425Y-60078D01*
X60246Y-59752D01*
X60133Y-59396D01*
X60092Y-59026D01*
X60123Y-58656D01*
X60226Y-58298D01*
X60396Y-57966D01*
X60627Y-57674D01*
X60911Y-57433D01*
X61236Y-57251D01*
X61591Y-57136D01*
X61961Y-57092D01*
X62331Y-57121D01*
X62690Y-57221D01*
X63022Y-57389D01*
X63316Y-57618D01*
X63559Y-57900D01*
X63743Y-58224D01*
X63861Y-58578D01*
X63908Y-58947D01*
X63909Y-59000D01*
X67583Y-59236D02*
X67583Y-59925D01*
X67583Y-58744D02*
X67583Y-57976D01*
X67583Y-58744D02*
X67307Y-59236D01*
X67307Y-59236D02*
X67839Y-59236D01*
X67839Y-59236D02*
X67583Y-58744D01*
X67307Y-58744D02*
X67839Y-58744D01*
X68409Y-59000D02*
X68372Y-59370D01*
X68264Y-59727D01*
X68090Y-60056D01*
X67854Y-60345D01*
X67567Y-60582D01*
X67239Y-60759D01*
X66883Y-60870D01*
X66513Y-60908D01*
X66143Y-60875D01*
X65785Y-60769D01*
X65455Y-60597D01*
X65165Y-60363D01*
X64925Y-60078D01*
X64746Y-59752D01*
X64633Y-59396D01*
X64592Y-59026D01*
X64623Y-58656D01*
X64726Y-58298D01*
X64896Y-57966D01*
X65127Y-57674D01*
X65411Y-57433D01*
X65736Y-57251D01*
X66091Y-57136D01*
X66461Y-57092D01*
X66831Y-57121D01*
X67190Y-57221D01*
X67522Y-57389D01*
X67816Y-57618D01*
X68059Y-57900D01*
X68243Y-58224D01*
X68361Y-58578D01*
X68408Y-58947D01*
X68409Y-59000D01*
X67583Y-54736D02*
X67583Y-55425D01*
X67583Y-54244D02*
X67583Y-53476D01*
X67583Y-54244D02*
X67307Y-54736D01*
X67307Y-54736D02*
X67839Y-54736D01*
X67839Y-54736D02*
X67583Y-54244D01*
X67307Y-54244D02*
X67839Y-54244D01*
X68409Y-54500D02*
X68372Y-54870D01*
X68264Y-55227D01*
X68090Y-55556D01*
X67854Y-55845D01*
X67567Y-56082D01*
X67239Y-56259D01*
X66883Y-56370D01*
X66513Y-56408D01*
X66143Y-56375D01*
X65785Y-56269D01*
X65455Y-56097D01*
X65165Y-55863D01*
X64925Y-55578D01*
X64746Y-55252D01*
X64633Y-54896D01*
X64592Y-54526D01*
X64623Y-54156D01*
X64726Y-53798D01*
X64896Y-53466D01*
X65127Y-53174D01*
X65411Y-52933D01*
X65736Y-52751D01*
X66091Y-52636D01*
X66461Y-52592D01*
X66831Y-52621D01*
X67190Y-52721D01*
X67522Y-52889D01*
X67816Y-53118D01*
X68059Y-53400D01*
X68243Y-53724D01*
X68361Y-54078D01*
X68408Y-54447D01*
X68409Y-54500D01*
X69917Y-54264D02*
X69917Y-53575D01*
X69917Y-54756D02*
X69917Y-55524D01*
X69917Y-54756D02*
X70193Y-54264D01*
X70193Y-54264D02*
X69661Y-54264D01*
X69661Y-54264D02*
X69917Y-54756D01*
X70193Y-54756D02*
X69661Y-54756D01*
X72909Y-54500D02*
X72872Y-54870D01*
X72764Y-55227D01*
X72590Y-55556D01*
X72354Y-55845D01*
X72067Y-56082D01*
X71739Y-56259D01*
X71383Y-56370D01*
X71013Y-56408D01*
X70643Y-56375D01*
X70285Y-56269D01*
X69955Y-56097D01*
X69665Y-55863D01*
X69425Y-55578D01*
X69246Y-55252D01*
X69133Y-54896D01*
X69092Y-54526D01*
X69123Y-54156D01*
X69226Y-53798D01*
X69396Y-53466D01*
X69627Y-53174D01*
X69911Y-52933D01*
X70236Y-52751D01*
X70591Y-52636D01*
X70961Y-52592D01*
X71331Y-52621D01*
X71690Y-52721D01*
X72022Y-52889D01*
X72316Y-53118D01*
X72559Y-53400D01*
X72743Y-53724D01*
X72861Y-54078D01*
X72908Y-54447D01*
X72909Y-54500D01*
G54D14*
X84975Y-52340D02*
X84975Y-52085D01*
X84975Y-52085D02*
X84424Y-52085D01*
X84424Y-52340D02*
X84424Y-52085D01*
X84975Y-52340D02*
X84424Y-52340D01*
X84975Y-52920D02*
X84975Y-52664D01*
X84975Y-52664D02*
X84424Y-52664D01*
X84424Y-52920D02*
X84424Y-52664D01*
X84975Y-52920D02*
X84424Y-52920D01*
X84896Y-52578D02*
X84896Y-52422D01*
X84896Y-52422D02*
X84504Y-52422D01*
X84504Y-52578D02*
X84504Y-52422D01*
X84896Y-52578D02*
X84504Y-52578D01*
G54D15*
X84450Y-52661D02*
X84450Y-52339D01*
X84950Y-52661D02*
X84950Y-52339D01*
G54D16*
X84313Y-53276D02*
X84313Y-51724D01*
X84313Y-51724D02*
X85087Y-51724D01*
X85087Y-51724D02*
X85087Y-53276D01*
X85087Y-53276D02*
X84313Y-53276D01*
G54D12*
X88560Y-52025D02*
X88560Y-52875D01*
X86525Y-53625D02*
X88225Y-53625D01*
X86200Y-52025D02*
X86200Y-52875D01*
X86525Y-51275D02*
X88225Y-51275D01*
X88050Y-52475D02*
X88037Y-52601D01*
X88000Y-52722D01*
X87941Y-52834D01*
X87861Y-52933D01*
X87763Y-53013D01*
X87651Y-53074D01*
X87530Y-53111D01*
X87404Y-53124D01*
X87279Y-53113D01*
X87157Y-53077D01*
X87045Y-53018D01*
X86946Y-52939D01*
X86864Y-52842D01*
X86803Y-52731D01*
X86765Y-52610D01*
X86751Y-52484D01*
X86761Y-52358D01*
X86796Y-52236D01*
X86854Y-52123D01*
X86933Y-52024D01*
X87030Y-51942D01*
X87140Y-51880D01*
X87261Y-51841D01*
X87387Y-51826D01*
X87512Y-51835D01*
X87635Y-51869D01*
X87748Y-51927D01*
X87848Y-52005D01*
X87931Y-52101D01*
X87993Y-52211D01*
X88033Y-52331D01*
X88049Y-52457D01*
X88050Y-52475D01*
X83160Y-52025D02*
X83160Y-52875D01*
X81125Y-53625D02*
X82825Y-53625D01*
X80800Y-52025D02*
X80800Y-52875D01*
X81125Y-51275D02*
X82825Y-51275D01*
X82650Y-52475D02*
X82637Y-52601D01*
X82600Y-52722D01*
X82541Y-52834D01*
X82461Y-52933D01*
X82363Y-53013D01*
X82251Y-53074D01*
X82130Y-53111D01*
X82004Y-53124D01*
X81879Y-53113D01*
X81757Y-53077D01*
X81645Y-53018D01*
X81546Y-52939D01*
X81464Y-52842D01*
X81403Y-52731D01*
X81365Y-52610D01*
X81351Y-52484D01*
X81361Y-52358D01*
X81396Y-52236D01*
X81454Y-52123D01*
X81533Y-52024D01*
X81630Y-51942D01*
X81740Y-51880D01*
X81861Y-51841D01*
X81987Y-51826D01*
X82112Y-51835D01*
X82235Y-51869D01*
X82348Y-51927D01*
X82448Y-52005D01*
X82531Y-52101D01*
X82593Y-52211D01*
X82633Y-52331D01*
X82649Y-52457D01*
X82650Y-52475D01*
X77760Y-52025D02*
X77760Y-52875D01*
X75725Y-53625D02*
X77425Y-53625D01*
X75400Y-52025D02*
X75400Y-52875D01*
X75725Y-51275D02*
X77425Y-51275D01*
X77250Y-52475D02*
X77237Y-52601D01*
X77200Y-52722D01*
X77141Y-52834D01*
X77061Y-52933D01*
X76963Y-53013D01*
X76851Y-53074D01*
X76730Y-53111D01*
X76604Y-53124D01*
X76479Y-53113D01*
X76357Y-53077D01*
X76245Y-53018D01*
X76146Y-52939D01*
X76064Y-52842D01*
X76003Y-52731D01*
X75965Y-52610D01*
X75951Y-52484D01*
X75961Y-52358D01*
X75996Y-52236D01*
X76054Y-52123D01*
X76133Y-52024D01*
X76230Y-51942D01*
X76340Y-51880D01*
X76461Y-51841D01*
X76587Y-51826D01*
X76712Y-51835D01*
X76835Y-51869D01*
X76948Y-51927D01*
X77048Y-52005D01*
X77131Y-52101D01*
X77193Y-52211D01*
X77233Y-52331D01*
X77249Y-52457D01*
X77250Y-52475D01*
G54D14*
X74675Y-52240D02*
X74675Y-51985D01*
X74675Y-51985D02*
X74124Y-51985D01*
X74124Y-52240D02*
X74124Y-51985D01*
X74675Y-52240D02*
X74124Y-52240D01*
X74675Y-52820D02*
X74675Y-52564D01*
X74675Y-52564D02*
X74124Y-52564D01*
X74124Y-52820D02*
X74124Y-52564D01*
X74675Y-52820D02*
X74124Y-52820D01*
X74596Y-52478D02*
X74596Y-52322D01*
X74596Y-52322D02*
X74204Y-52322D01*
X74204Y-52478D02*
X74204Y-52322D01*
X74596Y-52478D02*
X74204Y-52478D01*
G54D15*
X74150Y-52561D02*
X74150Y-52239D01*
X74650Y-52561D02*
X74650Y-52239D01*
G54D16*
X74013Y-53176D02*
X74013Y-51624D01*
X74013Y-51624D02*
X74787Y-51624D01*
X74787Y-51624D02*
X74787Y-53176D01*
X74787Y-53176D02*
X74013Y-53176D01*
G54D11*
X118917Y-58764D02*
X118917Y-58075D01*
X118917Y-59256D02*
X118917Y-60024D01*
X118917Y-59256D02*
X119193Y-58764D01*
X119193Y-58764D02*
X118661Y-58764D01*
X118661Y-58764D02*
X118917Y-59256D01*
X119193Y-59256D02*
X118661Y-59256D01*
X121909Y-59000D02*
X121872Y-59370D01*
X121764Y-59727D01*
X121590Y-60056D01*
X121354Y-60345D01*
X121067Y-60582D01*
X120739Y-60759D01*
X120383Y-60870D01*
X120013Y-60908D01*
X119643Y-60875D01*
X119285Y-60769D01*
X118955Y-60597D01*
X118665Y-60363D01*
X118425Y-60078D01*
X118246Y-59752D01*
X118133Y-59396D01*
X118092Y-59026D01*
X118123Y-58656D01*
X118226Y-58298D01*
X118396Y-57966D01*
X118627Y-57674D01*
X118911Y-57433D01*
X119236Y-57251D01*
X119591Y-57136D01*
X119961Y-57092D01*
X120331Y-57121D01*
X120690Y-57221D01*
X121022Y-57389D01*
X121316Y-57618D01*
X121559Y-57900D01*
X121743Y-58224D01*
X121861Y-58578D01*
X121908Y-58947D01*
X121909Y-59000D01*
X118917Y-54264D02*
X118917Y-53575D01*
X118917Y-54756D02*
X118917Y-55524D01*
X118917Y-54756D02*
X119193Y-54264D01*
X119193Y-54264D02*
X118661Y-54264D01*
X118661Y-54264D02*
X118917Y-54756D01*
X119193Y-54756D02*
X118661Y-54756D01*
X121909Y-54500D02*
X121872Y-54870D01*
X121764Y-55227D01*
X121590Y-55556D01*
X121354Y-55845D01*
X121067Y-56082D01*
X120739Y-56259D01*
X120383Y-56370D01*
X120013Y-56408D01*
X119643Y-56375D01*
X119285Y-56269D01*
X118955Y-56097D01*
X118665Y-55863D01*
X118425Y-55578D01*
X118246Y-55252D01*
X118133Y-54896D01*
X118092Y-54526D01*
X118123Y-54156D01*
X118226Y-53798D01*
X118396Y-53466D01*
X118627Y-53174D01*
X118911Y-52933D01*
X119236Y-52751D01*
X119591Y-52636D01*
X119961Y-52592D01*
X120331Y-52621D01*
X120690Y-52721D01*
X121022Y-52889D01*
X121316Y-53118D01*
X121559Y-53400D01*
X121743Y-53724D01*
X121861Y-54078D01*
X121908Y-54447D01*
X121909Y-54500D01*
X125583Y-54736D02*
X125583Y-55425D01*
X125583Y-54244D02*
X125583Y-53476D01*
X125583Y-54244D02*
X125307Y-54736D01*
X125307Y-54736D02*
X125839Y-54736D01*
X125839Y-54736D02*
X125583Y-54244D01*
X125307Y-54244D02*
X125839Y-54244D01*
X126409Y-54500D02*
X126372Y-54870D01*
X126264Y-55227D01*
X126090Y-55556D01*
X125854Y-55845D01*
X125567Y-56082D01*
X125239Y-56259D01*
X124883Y-56370D01*
X124513Y-56408D01*
X124143Y-56375D01*
X123785Y-56269D01*
X123455Y-56097D01*
X123165Y-55863D01*
X122925Y-55578D01*
X122746Y-55252D01*
X122633Y-54896D01*
X122592Y-54526D01*
X122623Y-54156D01*
X122726Y-53798D01*
X122896Y-53466D01*
X123127Y-53174D01*
X123411Y-52933D01*
X123736Y-52751D01*
X124091Y-52636D01*
X124461Y-52592D01*
X124831Y-52621D01*
X125190Y-52721D01*
X125522Y-52889D01*
X125816Y-53118D01*
X126059Y-53400D01*
X126243Y-53724D01*
X126361Y-54078D01*
X126408Y-54447D01*
X126409Y-54500D01*
X125583Y-59236D02*
X125583Y-59925D01*
X125583Y-58744D02*
X125583Y-57976D01*
X125583Y-58744D02*
X125307Y-59236D01*
X125307Y-59236D02*
X125839Y-59236D01*
X125839Y-59236D02*
X125583Y-58744D01*
X125307Y-58744D02*
X125839Y-58744D01*
X126409Y-59000D02*
X126372Y-59370D01*
X126264Y-59727D01*
X126090Y-60056D01*
X125854Y-60345D01*
X125567Y-60582D01*
X125239Y-60759D01*
X124883Y-60870D01*
X124513Y-60908D01*
X124143Y-60875D01*
X123785Y-60769D01*
X123455Y-60597D01*
X123165Y-60363D01*
X122925Y-60078D01*
X122746Y-59752D01*
X122633Y-59396D01*
X122592Y-59026D01*
X122623Y-58656D01*
X122726Y-58298D01*
X122896Y-57966D01*
X123127Y-57674D01*
X123411Y-57433D01*
X123736Y-57251D01*
X124091Y-57136D01*
X124461Y-57092D01*
X124831Y-57121D01*
X125190Y-57221D01*
X125522Y-57389D01*
X125816Y-57618D01*
X126059Y-57900D01*
X126243Y-58224D01*
X126361Y-58578D01*
X126408Y-58947D01*
X126409Y-59000D01*
X109917Y-58664D02*
X109917Y-57975D01*
X109917Y-59156D02*
X109917Y-59924D01*
X109917Y-59156D02*
X110193Y-58664D01*
X110193Y-58664D02*
X109661Y-58664D01*
X109661Y-58664D02*
X109917Y-59156D01*
X110193Y-59156D02*
X109661Y-59156D01*
X112909Y-58900D02*
X112872Y-59270D01*
X112764Y-59627D01*
X112590Y-59956D01*
X112354Y-60245D01*
X112067Y-60482D01*
X111739Y-60659D01*
X111383Y-60770D01*
X111013Y-60808D01*
X110643Y-60775D01*
X110285Y-60669D01*
X109955Y-60497D01*
X109665Y-60263D01*
X109425Y-59978D01*
X109246Y-59652D01*
X109133Y-59296D01*
X109092Y-58926D01*
X109123Y-58556D01*
X109226Y-58198D01*
X109396Y-57866D01*
X109627Y-57574D01*
X109911Y-57333D01*
X110236Y-57151D01*
X110591Y-57036D01*
X110961Y-56992D01*
X111331Y-57021D01*
X111690Y-57121D01*
X112022Y-57289D01*
X112316Y-57518D01*
X112559Y-57800D01*
X112743Y-58124D01*
X112861Y-58478D01*
X112908Y-58847D01*
X112909Y-58900D01*
X109917Y-54264D02*
X109917Y-53575D01*
X109917Y-54756D02*
X109917Y-55524D01*
X109917Y-54756D02*
X110193Y-54264D01*
X110193Y-54264D02*
X109661Y-54264D01*
X109661Y-54264D02*
X109917Y-54756D01*
X110193Y-54756D02*
X109661Y-54756D01*
X112909Y-54500D02*
X112872Y-54870D01*
X112764Y-55227D01*
X112590Y-55556D01*
X112354Y-55845D01*
X112067Y-56082D01*
X111739Y-56259D01*
X111383Y-56370D01*
X111013Y-56408D01*
X110643Y-56375D01*
X110285Y-56269D01*
X109955Y-56097D01*
X109665Y-55863D01*
X109425Y-55578D01*
X109246Y-55252D01*
X109133Y-54896D01*
X109092Y-54526D01*
X109123Y-54156D01*
X109226Y-53798D01*
X109396Y-53466D01*
X109627Y-53174D01*
X109911Y-52933D01*
X110236Y-52751D01*
X110591Y-52636D01*
X110961Y-52592D01*
X111331Y-52621D01*
X111690Y-52721D01*
X112022Y-52889D01*
X112316Y-53118D01*
X112559Y-53400D01*
X112743Y-53724D01*
X112861Y-54078D01*
X112908Y-54447D01*
X112909Y-54500D01*
X116683Y-54736D02*
X116683Y-55425D01*
X116683Y-54244D02*
X116683Y-53476D01*
X116683Y-54244D02*
X116407Y-54736D01*
X116407Y-54736D02*
X116939Y-54736D01*
X116939Y-54736D02*
X116683Y-54244D01*
X116407Y-54244D02*
X116939Y-54244D01*
X117509Y-54500D02*
X117472Y-54870D01*
X117364Y-55227D01*
X117190Y-55556D01*
X116954Y-55845D01*
X116667Y-56082D01*
X116339Y-56259D01*
X115983Y-56370D01*
X115613Y-56408D01*
X115243Y-56375D01*
X114885Y-56269D01*
X114555Y-56097D01*
X114265Y-55863D01*
X114025Y-55578D01*
X113846Y-55252D01*
X113733Y-54896D01*
X113692Y-54526D01*
X113723Y-54156D01*
X113826Y-53798D01*
X113996Y-53466D01*
X114227Y-53174D01*
X114511Y-52933D01*
X114836Y-52751D01*
X115191Y-52636D01*
X115561Y-52592D01*
X115931Y-52621D01*
X116290Y-52721D01*
X116622Y-52889D01*
X116916Y-53118D01*
X117159Y-53400D01*
X117343Y-53724D01*
X117461Y-54078D01*
X117508Y-54447D01*
X117509Y-54500D01*
X116683Y-59236D02*
X116683Y-59925D01*
X116683Y-58744D02*
X116683Y-57976D01*
X116683Y-58744D02*
X116407Y-59236D01*
X116407Y-59236D02*
X116939Y-59236D01*
X116939Y-59236D02*
X116683Y-58744D01*
X116407Y-58744D02*
X116939Y-58744D01*
X117509Y-59000D02*
X117472Y-59370D01*
X117364Y-59727D01*
X117190Y-60056D01*
X116954Y-60345D01*
X116667Y-60582D01*
X116339Y-60759D01*
X115983Y-60870D01*
X115613Y-60908D01*
X115243Y-60875D01*
X114885Y-60769D01*
X114555Y-60597D01*
X114265Y-60363D01*
X114025Y-60078D01*
X113846Y-59752D01*
X113733Y-59396D01*
X113692Y-59026D01*
X113723Y-58656D01*
X113826Y-58298D01*
X113996Y-57966D01*
X114227Y-57674D01*
X114511Y-57433D01*
X114836Y-57251D01*
X115191Y-57136D01*
X115561Y-57092D01*
X115931Y-57121D01*
X116290Y-57221D01*
X116622Y-57389D01*
X116916Y-57618D01*
X117159Y-57900D01*
X117343Y-58224D01*
X117461Y-58578D01*
X117508Y-58947D01*
X117509Y-59000D01*
X107583Y-59236D02*
X107583Y-59925D01*
X107583Y-58744D02*
X107583Y-57976D01*
X107583Y-58744D02*
X107307Y-59236D01*
X107307Y-59236D02*
X107839Y-59236D01*
X107839Y-59236D02*
X107583Y-58744D01*
X107307Y-58744D02*
X107839Y-58744D01*
X108409Y-59000D02*
X108372Y-59370D01*
X108264Y-59727D01*
X108090Y-60056D01*
X107854Y-60345D01*
X107567Y-60582D01*
X107239Y-60759D01*
X106883Y-60870D01*
X106513Y-60908D01*
X106143Y-60875D01*
X105785Y-60769D01*
X105455Y-60597D01*
X105165Y-60363D01*
X104925Y-60078D01*
X104746Y-59752D01*
X104633Y-59396D01*
X104592Y-59026D01*
X104623Y-58656D01*
X104726Y-58298D01*
X104896Y-57966D01*
X105127Y-57674D01*
X105411Y-57433D01*
X105736Y-57251D01*
X106091Y-57136D01*
X106461Y-57092D01*
X106831Y-57121D01*
X107190Y-57221D01*
X107522Y-57389D01*
X107816Y-57618D01*
X108059Y-57900D01*
X108243Y-58224D01*
X108361Y-58578D01*
X108408Y-58947D01*
X108409Y-59000D01*
X107583Y-54736D02*
X107583Y-55425D01*
X107583Y-54244D02*
X107583Y-53476D01*
X107583Y-54244D02*
X107307Y-54736D01*
X107307Y-54736D02*
X107839Y-54736D01*
X107839Y-54736D02*
X107583Y-54244D01*
X107307Y-54244D02*
X107839Y-54244D01*
X108409Y-54500D02*
X108372Y-54870D01*
X108264Y-55227D01*
X108090Y-55556D01*
X107854Y-55845D01*
X107567Y-56082D01*
X107239Y-56259D01*
X106883Y-56370D01*
X106513Y-56408D01*
X106143Y-56375D01*
X105785Y-56269D01*
X105455Y-56097D01*
X105165Y-55863D01*
X104925Y-55578D01*
X104746Y-55252D01*
X104633Y-54896D01*
X104592Y-54526D01*
X104623Y-54156D01*
X104726Y-53798D01*
X104896Y-53466D01*
X105127Y-53174D01*
X105411Y-52933D01*
X105736Y-52751D01*
X106091Y-52636D01*
X106461Y-52592D01*
X106831Y-52621D01*
X107190Y-52721D01*
X107522Y-52889D01*
X107816Y-53118D01*
X108059Y-53400D01*
X108243Y-53724D01*
X108361Y-54078D01*
X108408Y-54447D01*
X108409Y-54500D01*
X100917Y-54264D02*
X100917Y-53575D01*
X100917Y-54756D02*
X100917Y-55524D01*
X100917Y-54756D02*
X101193Y-54264D01*
X101193Y-54264D02*
X100661Y-54264D01*
X100661Y-54264D02*
X100917Y-54756D01*
X101193Y-54756D02*
X100661Y-54756D01*
X103909Y-54500D02*
X103872Y-54870D01*
X103764Y-55227D01*
X103590Y-55556D01*
X103354Y-55845D01*
X103067Y-56082D01*
X102739Y-56259D01*
X102383Y-56370D01*
X102013Y-56408D01*
X101643Y-56375D01*
X101285Y-56269D01*
X100955Y-56097D01*
X100665Y-55863D01*
X100425Y-55578D01*
X100246Y-55252D01*
X100133Y-54896D01*
X100092Y-54526D01*
X100123Y-54156D01*
X100226Y-53798D01*
X100396Y-53466D01*
X100627Y-53174D01*
X100911Y-52933D01*
X101236Y-52751D01*
X101591Y-52636D01*
X101961Y-52592D01*
X102331Y-52621D01*
X102690Y-52721D01*
X103022Y-52889D01*
X103316Y-53118D01*
X103559Y-53400D01*
X103743Y-53724D01*
X103861Y-54078D01*
X103908Y-54447D01*
X103909Y-54500D01*
X100917Y-58764D02*
X100917Y-58075D01*
X100917Y-59256D02*
X100917Y-60024D01*
X100917Y-59256D02*
X101193Y-58764D01*
X101193Y-58764D02*
X100661Y-58764D01*
X100661Y-58764D02*
X100917Y-59256D01*
X101193Y-59256D02*
X100661Y-59256D01*
X103909Y-59000D02*
X103872Y-59370D01*
X103764Y-59727D01*
X103590Y-60056D01*
X103354Y-60345D01*
X103067Y-60582D01*
X102739Y-60759D01*
X102383Y-60870D01*
X102013Y-60908D01*
X101643Y-60875D01*
X101285Y-60769D01*
X100955Y-60597D01*
X100665Y-60363D01*
X100425Y-60078D01*
X100246Y-59752D01*
X100133Y-59396D01*
X100092Y-59026D01*
X100123Y-58656D01*
X100226Y-58298D01*
X100396Y-57966D01*
X100627Y-57674D01*
X100911Y-57433D01*
X101236Y-57251D01*
X101591Y-57136D01*
X101961Y-57092D01*
X102331Y-57121D01*
X102690Y-57221D01*
X103022Y-57389D01*
X103316Y-57618D01*
X103559Y-57900D01*
X103743Y-58224D01*
X103861Y-58578D01*
X103908Y-58947D01*
X103909Y-59000D01*
X98583Y-59236D02*
X98583Y-59925D01*
X98583Y-58744D02*
X98583Y-57976D01*
X98583Y-58744D02*
X98307Y-59236D01*
X98307Y-59236D02*
X98839Y-59236D01*
X98839Y-59236D02*
X98583Y-58744D01*
X98307Y-58744D02*
X98839Y-58744D01*
X99409Y-59000D02*
X99372Y-59370D01*
X99264Y-59727D01*
X99090Y-60056D01*
X98854Y-60345D01*
X98567Y-60582D01*
X98239Y-60759D01*
X97883Y-60870D01*
X97513Y-60908D01*
X97143Y-60875D01*
X96785Y-60769D01*
X96455Y-60597D01*
X96165Y-60363D01*
X95925Y-60078D01*
X95746Y-59752D01*
X95633Y-59396D01*
X95592Y-59026D01*
X95623Y-58656D01*
X95726Y-58298D01*
X95896Y-57966D01*
X96127Y-57674D01*
X96411Y-57433D01*
X96736Y-57251D01*
X97091Y-57136D01*
X97461Y-57092D01*
X97831Y-57121D01*
X98190Y-57221D01*
X98522Y-57389D01*
X98816Y-57618D01*
X99059Y-57900D01*
X99243Y-58224D01*
X99361Y-58578D01*
X99408Y-58947D01*
X99409Y-59000D01*
X98583Y-54736D02*
X98583Y-55425D01*
X98583Y-54244D02*
X98583Y-53476D01*
X98583Y-54244D02*
X98307Y-54736D01*
X98307Y-54736D02*
X98839Y-54736D01*
X98839Y-54736D02*
X98583Y-54244D01*
X98307Y-54244D02*
X98839Y-54244D01*
X99409Y-54500D02*
X99372Y-54870D01*
X99264Y-55227D01*
X99090Y-55556D01*
X98854Y-55845D01*
X98567Y-56082D01*
X98239Y-56259D01*
X97883Y-56370D01*
X97513Y-56408D01*
X97143Y-56375D01*
X96785Y-56269D01*
X96455Y-56097D01*
X96165Y-55863D01*
X95925Y-55578D01*
X95746Y-55252D01*
X95633Y-54896D01*
X95592Y-54526D01*
X95623Y-54156D01*
X95726Y-53798D01*
X95896Y-53466D01*
X96127Y-53174D01*
X96411Y-52933D01*
X96736Y-52751D01*
X97091Y-52636D01*
X97461Y-52592D01*
X97831Y-52621D01*
X98190Y-52721D01*
X98522Y-52889D01*
X98816Y-53118D01*
X99059Y-53400D01*
X99243Y-53724D01*
X99361Y-54078D01*
X99408Y-54447D01*
X99409Y-54500D01*
X91917Y-54264D02*
X91917Y-53575D01*
X91917Y-54756D02*
X91917Y-55524D01*
X91917Y-54756D02*
X92193Y-54264D01*
X92193Y-54264D02*
X91661Y-54264D01*
X91661Y-54264D02*
X91917Y-54756D01*
X92193Y-54756D02*
X91661Y-54756D01*
X94909Y-54500D02*
X94872Y-54870D01*
X94764Y-55227D01*
X94590Y-55556D01*
X94354Y-55845D01*
X94067Y-56082D01*
X93739Y-56259D01*
X93383Y-56370D01*
X93013Y-56408D01*
X92643Y-56375D01*
X92285Y-56269D01*
X91955Y-56097D01*
X91665Y-55863D01*
X91425Y-55578D01*
X91246Y-55252D01*
X91133Y-54896D01*
X91092Y-54526D01*
X91123Y-54156D01*
X91226Y-53798D01*
X91396Y-53466D01*
X91627Y-53174D01*
X91911Y-52933D01*
X92236Y-52751D01*
X92591Y-52636D01*
X92961Y-52592D01*
X93331Y-52621D01*
X93690Y-52721D01*
X94022Y-52889D01*
X94316Y-53118D01*
X94559Y-53400D01*
X94743Y-53724D01*
X94861Y-54078D01*
X94908Y-54447D01*
X94909Y-54500D01*
X91917Y-58764D02*
X91917Y-58075D01*
X91917Y-59256D02*
X91917Y-60024D01*
X91917Y-59256D02*
X92193Y-58764D01*
X92193Y-58764D02*
X91661Y-58764D01*
X91661Y-58764D02*
X91917Y-59256D01*
X92193Y-59256D02*
X91661Y-59256D01*
X94909Y-59000D02*
X94872Y-59370D01*
X94764Y-59727D01*
X94590Y-60056D01*
X94354Y-60345D01*
X94067Y-60582D01*
X93739Y-60759D01*
X93383Y-60870D01*
X93013Y-60908D01*
X92643Y-60875D01*
X92285Y-60769D01*
X91955Y-60597D01*
X91665Y-60363D01*
X91425Y-60078D01*
X91246Y-59752D01*
X91133Y-59396D01*
X91092Y-59026D01*
X91123Y-58656D01*
X91226Y-58298D01*
X91396Y-57966D01*
X91627Y-57674D01*
X91911Y-57433D01*
X92236Y-57251D01*
X92591Y-57136D01*
X92961Y-57092D01*
X93331Y-57121D01*
X93690Y-57221D01*
X94022Y-57389D01*
X94316Y-57618D01*
X94559Y-57900D01*
X94743Y-58224D01*
X94861Y-58578D01*
X94908Y-58947D01*
X94909Y-59000D01*
X80300Y-52400D02*
X80280Y-52594D01*
X80224Y-52781D01*
X80132Y-52953D01*
X80009Y-53104D01*
X79859Y-53229D01*
X79687Y-53321D01*
X79501Y-53379D01*
X79306Y-53399D01*
X79113Y-53382D01*
X78926Y-53327D01*
X78753Y-53236D01*
X78601Y-53114D01*
X78475Y-52964D01*
X78381Y-52793D01*
X78322Y-52607D01*
X78301Y-52413D01*
X78317Y-52220D01*
X78371Y-52032D01*
X78460Y-51859D01*
X78581Y-51706D01*
X78730Y-51579D01*
X78900Y-51484D01*
X79086Y-51424D01*
X79280Y-51401D01*
X79473Y-51416D01*
X79661Y-51468D01*
X79835Y-51556D01*
X79989Y-51676D01*
X80117Y-51824D01*
X80213Y-51994D01*
X80275Y-52179D01*
X80299Y-52373D01*
X80300Y-52400D01*
X78300Y-52650D02*
X78550Y-52650D01*
X78550Y-52650D02*
X78550Y-52150D01*
X78550Y-52150D02*
X78300Y-52150D01*
G54D14*
X82571Y-57985D02*
X82866Y-57985D01*
X82866Y-57985D02*
X82866Y-57415D01*
X82571Y-57415D02*
X82866Y-57415D01*
X82571Y-57985D02*
X82571Y-57415D01*
X83140Y-57985D02*
X83435Y-57985D01*
X83435Y-57985D02*
X83435Y-57415D01*
X83140Y-57415D02*
X83435Y-57415D01*
X83140Y-57985D02*
X83140Y-57415D01*
X82961Y-57857D02*
X83039Y-57857D01*
X83039Y-57857D02*
X83039Y-57543D01*
X82961Y-57543D02*
X83039Y-57543D01*
X82961Y-57857D02*
X82961Y-57543D01*
G54D16*
X82224Y-57313D02*
X83776Y-57313D01*
X83776Y-58087D02*
X82224Y-58087D01*
X82224Y-58087D02*
X82224Y-57313D01*
G54D17*
X82850Y-57441D02*
X83150Y-57441D01*
X82860Y-57959D02*
X83150Y-57959D01*
G54D16*
X83776Y-57313D02*
X83776Y-58087D01*
G54D14*
X80285Y-56129D02*
X80285Y-55834D01*
X80285Y-55834D02*
X79715Y-55834D01*
X79715Y-56129D02*
X79715Y-55834D01*
X80285Y-56129D02*
X79715Y-56129D01*
X80285Y-55560D02*
X80285Y-55265D01*
X80285Y-55265D02*
X79715Y-55265D01*
X79715Y-55560D02*
X79715Y-55265D01*
X80285Y-55560D02*
X79715Y-55560D01*
X80157Y-55739D02*
X80157Y-55661D01*
X80157Y-55661D02*
X79843Y-55661D01*
X79843Y-55739D02*
X79843Y-55661D01*
X80157Y-55739D02*
X79843Y-55739D01*
G54D16*
X79613Y-56476D02*
X79613Y-54924D01*
X80387Y-54924D02*
X80387Y-56476D01*
X80387Y-56476D02*
X79613Y-56476D01*
G54D17*
X79741Y-55850D02*
X79741Y-55550D01*
X80259Y-55840D02*
X80259Y-55550D01*
G54D16*
X79613Y-54924D02*
X80387Y-54924D01*
G54D14*
X90335Y-56370D02*
X90335Y-56074D01*
X90335Y-56074D02*
X89666Y-56074D01*
X89666Y-56370D02*
X89666Y-56074D01*
X90335Y-56370D02*
X89666Y-56370D01*
X90334Y-55326D02*
X90334Y-55030D01*
X90334Y-55030D02*
X89665Y-55030D01*
X89665Y-55326D02*
X89665Y-55030D01*
X90334Y-55326D02*
X89665Y-55326D01*
X90157Y-55778D02*
X90157Y-55622D01*
X90157Y-55622D02*
X89843Y-55622D01*
X89843Y-55778D02*
X89843Y-55622D01*
X90157Y-55778D02*
X89843Y-55778D01*
G54D16*
X89613Y-56673D02*
X89613Y-54727D01*
X90387Y-54727D02*
X90387Y-56673D01*
X90387Y-56673D02*
X89613Y-56673D01*
X89613Y-54727D02*
X90387Y-54727D01*
G54D17*
X89691Y-56079D02*
X89691Y-55321D01*
X90309Y-56079D02*
X90309Y-55321D01*
G54D14*
X85935Y-56370D02*
X85935Y-56074D01*
X85935Y-56074D02*
X85266Y-56074D01*
X85266Y-56370D02*
X85266Y-56074D01*
X85935Y-56370D02*
X85266Y-56370D01*
X85934Y-55326D02*
X85934Y-55030D01*
X85934Y-55030D02*
X85265Y-55030D01*
X85265Y-55326D02*
X85265Y-55030D01*
X85934Y-55326D02*
X85265Y-55326D01*
X85757Y-55778D02*
X85757Y-55622D01*
X85757Y-55622D02*
X85443Y-55622D01*
X85443Y-55778D02*
X85443Y-55622D01*
X85757Y-55778D02*
X85443Y-55778D01*
G54D16*
X85213Y-56673D02*
X85213Y-54727D01*
X85987Y-54727D02*
X85987Y-56673D01*
X85987Y-56673D02*
X85213Y-56673D01*
X85213Y-54727D02*
X85987Y-54727D01*
G54D17*
X85291Y-56079D02*
X85291Y-55321D01*
X85909Y-56079D02*
X85909Y-55321D01*
G54D14*
X81770Y-57365D02*
X81474Y-57365D01*
X81474Y-57365D02*
X81474Y-58034D01*
X81770Y-58034D02*
X81474Y-58034D01*
X81770Y-57365D02*
X81770Y-58034D01*
X80726Y-57366D02*
X80430Y-57366D01*
X80430Y-57366D02*
X80430Y-58035D01*
X80726Y-58035D02*
X80430Y-58035D01*
X80726Y-57366D02*
X80726Y-58035D01*
X81178Y-57543D02*
X81022Y-57543D01*
X81022Y-57543D02*
X81022Y-57857D01*
X81178Y-57857D02*
X81022Y-57857D01*
X81178Y-57543D02*
X81178Y-57857D01*
G54D16*
X82073Y-58087D02*
X80127Y-58087D01*
X80127Y-57313D02*
X82073Y-57313D01*
X82073Y-57313D02*
X82073Y-58087D01*
X80127Y-58087D02*
X80127Y-57313D01*
G54D17*
X81479Y-58009D02*
X80721Y-58009D01*
X81479Y-57391D02*
X80721Y-57391D01*
G54D14*
X84265Y-55030D02*
X84265Y-55326D01*
X84265Y-55326D02*
X84934Y-55326D01*
X84934Y-55030D02*
X84934Y-55326D01*
X84265Y-55030D02*
X84934Y-55030D01*
X84266Y-56074D02*
X84266Y-56370D01*
X84266Y-56370D02*
X84935Y-56370D01*
X84935Y-56074D02*
X84935Y-56370D01*
X84266Y-56074D02*
X84935Y-56074D01*
X84443Y-55622D02*
X84443Y-55778D01*
X84443Y-55778D02*
X84757Y-55778D01*
X84757Y-55622D02*
X84757Y-55778D01*
X84443Y-55622D02*
X84757Y-55622D01*
G54D16*
X84987Y-54727D02*
X84987Y-56673D01*
X84213Y-56673D02*
X84213Y-54727D01*
X84213Y-54727D02*
X84987Y-54727D01*
X84987Y-56673D02*
X84213Y-56673D01*
G54D17*
X84909Y-55321D02*
X84909Y-56079D01*
X84291Y-55321D02*
X84291Y-56079D01*
G54D11*
X90100Y-60600D02*
X85600Y-60600D01*
X85600Y-60600D02*
X84600Y-59600D01*
X84600Y-59600D02*
X84600Y-58600D01*
X84600Y-58600D02*
X85600Y-57600D01*
X85600Y-57600D02*
X90100Y-57600D01*
X90100Y-57600D02*
X90100Y-60600D01*
X86800Y-60600D02*
X86350Y-60600D01*
X86450Y-57600D02*
X86800Y-57600D01*
X88100Y-59300D02*
X85150Y-59300D01*
X88100Y-58900D02*
X85150Y-58900D01*
X88120Y-59100D02*
X88091Y-59395D01*
X88005Y-59679D01*
X87866Y-59941D01*
X87678Y-60171D01*
X87449Y-60360D01*
X87189Y-60501D01*
X86905Y-60588D01*
X86610Y-60619D01*
X86316Y-60593D01*
X86031Y-60509D01*
X85768Y-60371D01*
X85537Y-60185D01*
X85346Y-59958D01*
X85203Y-59698D01*
X85114Y-59416D01*
X85081Y-59121D01*
X85105Y-58826D01*
X85187Y-58541D01*
X85323Y-58277D01*
X85507Y-58045D01*
X85733Y-57852D01*
X85992Y-57708D01*
X86274Y-57616D01*
X86569Y-57581D01*
X86863Y-57604D01*
X87149Y-57683D01*
X87414Y-57817D01*
X87648Y-58000D01*
X87842Y-58224D01*
X87988Y-58482D01*
X88082Y-58764D01*
X88119Y-59058D01*
X88120Y-59100D01*
G54D12*
X81650Y-59000D02*
X82000Y-59000D01*
X81650Y-59000D02*
X82000Y-58850D01*
X82000Y-58850D02*
X82000Y-59150D01*
X82000Y-59150D02*
X81650Y-59000D01*
X80780Y-58754D02*
X80780Y-58947D01*
X80780Y-58947D02*
X81213Y-58947D01*
X81213Y-58754D02*
X81213Y-58947D01*
X80780Y-58754D02*
X81213Y-58754D01*
X80780Y-59254D02*
X80780Y-59447D01*
X80780Y-59447D02*
X81213Y-59447D01*
X81213Y-59254D02*
X81213Y-59447D01*
X80780Y-59254D02*
X81213Y-59254D01*
X80780Y-59754D02*
X80780Y-59947D01*
X80780Y-59947D02*
X81213Y-59947D01*
X81213Y-59754D02*
X81213Y-59947D01*
X80780Y-59754D02*
X81213Y-59754D01*
X80780Y-60254D02*
X80780Y-60447D01*
X80780Y-60447D02*
X81213Y-60447D01*
X81213Y-60254D02*
X81213Y-60447D01*
X80780Y-60254D02*
X81213Y-60254D01*
X82787Y-61253D02*
X82787Y-61446D01*
X82787Y-61446D02*
X83220Y-61446D01*
X83220Y-61253D02*
X83220Y-61446D01*
X82787Y-61253D02*
X83220Y-61253D01*
X82787Y-60753D02*
X82787Y-60946D01*
X82787Y-60946D02*
X83220Y-60946D01*
X83220Y-60753D02*
X83220Y-60946D01*
X82787Y-60753D02*
X83220Y-60753D01*
X82787Y-60254D02*
X82787Y-60447D01*
X82787Y-60447D02*
X83220Y-60447D01*
X83220Y-60254D02*
X83220Y-60447D01*
X82787Y-60254D02*
X83220Y-60254D01*
X82787Y-59754D02*
X82787Y-59947D01*
X82787Y-59947D02*
X83220Y-59947D01*
X83220Y-59754D02*
X83220Y-59947D01*
X82787Y-59754D02*
X83220Y-59754D01*
X80780Y-60753D02*
X80780Y-60946D01*
X80780Y-60946D02*
X81213Y-60946D01*
X81213Y-60753D02*
X81213Y-60946D01*
X80780Y-60753D02*
X81213Y-60753D01*
X80780Y-61253D02*
X80780Y-61446D01*
X80780Y-61446D02*
X81213Y-61446D01*
X81213Y-61253D02*
X81213Y-61446D01*
X80780Y-61253D02*
X81213Y-61253D01*
X80780Y-61753D02*
X80780Y-61946D01*
X80780Y-61946D02*
X81213Y-61946D01*
X81213Y-61753D02*
X81213Y-61946D01*
X80780Y-61753D02*
X81213Y-61753D01*
X80780Y-62253D02*
X80780Y-62446D01*
X80780Y-62446D02*
X81213Y-62446D01*
X81213Y-62253D02*
X81213Y-62446D01*
X80780Y-62253D02*
X81213Y-62253D01*
X82787Y-62253D02*
X82787Y-62446D01*
X82787Y-62446D02*
X83220Y-62446D01*
X83220Y-62253D02*
X83220Y-62446D01*
X82787Y-62253D02*
X83220Y-62253D01*
X82787Y-61753D02*
X82787Y-61946D01*
X82787Y-61946D02*
X83220Y-61946D01*
X83220Y-61753D02*
X83220Y-61946D01*
X82787Y-61753D02*
X83220Y-61753D01*
X82787Y-59254D02*
X82787Y-59447D01*
X82787Y-59447D02*
X83220Y-59447D01*
X83220Y-59254D02*
X83220Y-59447D01*
X82787Y-59254D02*
X83220Y-59254D01*
X82787Y-58754D02*
X82787Y-58947D01*
X82787Y-58947D02*
X83220Y-58947D01*
X83220Y-58754D02*
X83220Y-58947D01*
X82787Y-58754D02*
X83220Y-58754D01*
X83535Y-58476D02*
X83535Y-62724D01*
X80465Y-62724D02*
X80465Y-58476D01*
X80465Y-58476D02*
X83535Y-58476D01*
X81252Y-62544D02*
X81252Y-58656D01*
X81252Y-58656D02*
X81449Y-58656D01*
X81449Y-58656D02*
X82748Y-58656D01*
X82748Y-58656D02*
X82748Y-62544D01*
X81449Y-62544D02*
X81449Y-58656D01*
X82748Y-62544D02*
X81449Y-62544D01*
X81449Y-62544D02*
X81252Y-62544D01*
X83535Y-62724D02*
X80465Y-62724D01*
X37400Y-52000D02*
X37382Y-52174D01*
X37332Y-52342D01*
X37249Y-52498D01*
X37138Y-52634D01*
X37003Y-52746D01*
X36848Y-52829D01*
X36680Y-52881D01*
X36506Y-52899D01*
X36332Y-52884D01*
X36163Y-52834D01*
X36008Y-52753D01*
X35871Y-52643D01*
X35758Y-52508D01*
X35673Y-52354D01*
X35620Y-52187D01*
X35601Y-52012D01*
X35615Y-51838D01*
X35664Y-51669D01*
X35744Y-51513D01*
X35853Y-51375D01*
X35987Y-51261D01*
X36140Y-51176D01*
X36307Y-51121D01*
X36482Y-51101D01*
X36656Y-51114D01*
X36825Y-51161D01*
X36982Y-51241D01*
X37120Y-51349D01*
X37235Y-51482D01*
X37322Y-51634D01*
X37377Y-51801D01*
X37399Y-51975D01*
X37400Y-52000D01*
G54D14*
X89020Y-56546D02*
X89020Y-56353D01*
X89020Y-56353D02*
X88587Y-56353D01*
X88587Y-56546D02*
X88587Y-56353D01*
X89020Y-56546D02*
X88587Y-56546D01*
X89020Y-56046D02*
X89020Y-55853D01*
X89020Y-55853D02*
X88587Y-55853D01*
X88587Y-56046D02*
X88587Y-55853D01*
X89020Y-56046D02*
X88587Y-56046D01*
X89020Y-55547D02*
X89020Y-55354D01*
X89020Y-55354D02*
X88587Y-55354D01*
X88587Y-55547D02*
X88587Y-55354D01*
X89020Y-55547D02*
X88587Y-55547D01*
X89020Y-55047D02*
X89020Y-54854D01*
X89020Y-54854D02*
X88587Y-54854D01*
X88587Y-55047D02*
X88587Y-54854D01*
X89020Y-55047D02*
X88587Y-55047D01*
X87013Y-55047D02*
X87013Y-54854D01*
X87013Y-54854D02*
X86580Y-54854D01*
X86580Y-55047D02*
X86580Y-54854D01*
X87013Y-55047D02*
X86580Y-55047D01*
X87013Y-55547D02*
X87013Y-55354D01*
X87013Y-55354D02*
X86580Y-55354D01*
X86580Y-55547D02*
X86580Y-55354D01*
X87013Y-55547D02*
X86580Y-55547D01*
X87013Y-56046D02*
X87013Y-55853D01*
X87013Y-55853D02*
X86580Y-55853D01*
X86580Y-56046D02*
X86580Y-55853D01*
X87013Y-56046D02*
X86580Y-56046D01*
X87013Y-56546D02*
X87013Y-56353D01*
X87013Y-56353D02*
X86580Y-56353D01*
X86580Y-56546D02*
X86580Y-56353D01*
X87013Y-56546D02*
X86580Y-56546D01*
X88193Y-56093D02*
X88193Y-55307D01*
X88193Y-55307D02*
X87407Y-55307D01*
X87407Y-56093D02*
X87407Y-55307D01*
X88193Y-56093D02*
X87407Y-56093D01*
G54D18*
X86265Y-56841D02*
X86265Y-54559D01*
X86265Y-54559D02*
X89335Y-54559D01*
X89335Y-54559D02*
X89335Y-56841D01*
X89335Y-56841D02*
X86265Y-56841D01*
G54D13*
X87052Y-54756D02*
X88351Y-54756D01*
X88351Y-54756D02*
X88548Y-54756D01*
X88548Y-54756D02*
X88548Y-56644D01*
X88548Y-56644D02*
X88351Y-56644D01*
X88351Y-56644D02*
X87052Y-56644D01*
X87052Y-56644D02*
X87052Y-54756D01*
X88351Y-54756D02*
X88351Y-56644D01*
G54D12*
X128400Y-61500D02*
X128382Y-61674D01*
X128332Y-61842D01*
X128249Y-61998D01*
X128138Y-62134D01*
X128003Y-62246D01*
X127848Y-62329D01*
X127680Y-62381D01*
X127506Y-62399D01*
X127332Y-62384D01*
X127163Y-62334D01*
X127008Y-62253D01*
X126871Y-62143D01*
X126758Y-62008D01*
X126673Y-61854D01*
X126620Y-61687D01*
X126601Y-61512D01*
X126615Y-61338D01*
X126664Y-61169D01*
X126744Y-61013D01*
X126853Y-60875D01*
X126987Y-60761D01*
X127140Y-60676D01*
X127307Y-60621D01*
X127482Y-60601D01*
X127656Y-60614D01*
X127825Y-60661D01*
X127982Y-60741D01*
X128120Y-60849D01*
X128235Y-60982D01*
X128322Y-61134D01*
X128377Y-61301D01*
X128399Y-61475D01*
X128400Y-61500D01*
X128400Y-52000D02*
X128382Y-52174D01*
X128332Y-52342D01*
X128249Y-52498D01*
X128138Y-52634D01*
X128003Y-52746D01*
X127848Y-52829D01*
X127680Y-52881D01*
X127506Y-52899D01*
X127332Y-52884D01*
X127163Y-52834D01*
X127008Y-52753D01*
X126871Y-52643D01*
X126758Y-52508D01*
X126673Y-52354D01*
X126620Y-52187D01*
X126601Y-52012D01*
X126615Y-51838D01*
X126664Y-51669D01*
X126744Y-51513D01*
X126853Y-51375D01*
X126987Y-51261D01*
X127140Y-51176D01*
X127307Y-51121D01*
X127482Y-51101D01*
X127656Y-51114D01*
X127825Y-51161D01*
X127982Y-51241D01*
X128120Y-51349D01*
X128235Y-51482D01*
X128322Y-51634D01*
X128377Y-51801D01*
X128399Y-51975D01*
X128400Y-52000D01*
X96400Y-61500D02*
X96382Y-61674D01*
X96332Y-61842D01*
X96249Y-61998D01*
X96138Y-62134D01*
X96003Y-62246D01*
X95848Y-62329D01*
X95680Y-62381D01*
X95506Y-62399D01*
X95332Y-62384D01*
X95163Y-62334D01*
X95008Y-62253D01*
X94871Y-62143D01*
X94758Y-62008D01*
X94673Y-61854D01*
X94620Y-61687D01*
X94601Y-61512D01*
X94615Y-61338D01*
X94664Y-61169D01*
X94744Y-61013D01*
X94853Y-60875D01*
X94987Y-60761D01*
X95140Y-60676D01*
X95307Y-60621D01*
X95482Y-60601D01*
X95656Y-60614D01*
X95825Y-60661D01*
X95982Y-60741D01*
X96120Y-60849D01*
X96235Y-60982D01*
X96322Y-61134D01*
X96377Y-61301D01*
X96399Y-61475D01*
X96400Y-61500D01*
X96400Y-52000D02*
X96382Y-52174D01*
X96332Y-52342D01*
X96249Y-52498D01*
X96138Y-52634D01*
X96003Y-52746D01*
X95848Y-52829D01*
X95680Y-52881D01*
X95506Y-52899D01*
X95332Y-52884D01*
X95163Y-52834D01*
X95008Y-52753D01*
X94871Y-52643D01*
X94758Y-52508D01*
X94673Y-52354D01*
X94620Y-52187D01*
X94601Y-52012D01*
X94615Y-51838D01*
X94664Y-51669D01*
X94744Y-51513D01*
X94853Y-51375D01*
X94987Y-51261D01*
X95140Y-51176D01*
X95307Y-51121D01*
X95482Y-51101D01*
X95656Y-51114D01*
X95825Y-51161D01*
X95982Y-51241D01*
X96120Y-51349D01*
X96235Y-51482D01*
X96322Y-51634D01*
X96377Y-51801D01*
X96399Y-51975D01*
X96400Y-52000D01*
X69400Y-61500D02*
X69382Y-61674D01*
X69332Y-61842D01*
X69249Y-61998D01*
X69138Y-62134D01*
X69003Y-62246D01*
X68848Y-62329D01*
X68680Y-62381D01*
X68506Y-62399D01*
X68332Y-62384D01*
X68163Y-62334D01*
X68008Y-62253D01*
X67871Y-62143D01*
X67758Y-62008D01*
X67673Y-61854D01*
X67620Y-61687D01*
X67601Y-61512D01*
X67615Y-61338D01*
X67664Y-61169D01*
X67744Y-61013D01*
X67853Y-60875D01*
X67987Y-60761D01*
X68140Y-60676D01*
X68307Y-60621D01*
X68482Y-60601D01*
X68656Y-60614D01*
X68825Y-60661D01*
X68982Y-60741D01*
X69120Y-60849D01*
X69235Y-60982D01*
X69322Y-61134D01*
X69377Y-61301D01*
X69399Y-61475D01*
X69400Y-61500D01*
X69400Y-52000D02*
X69382Y-52174D01*
X69332Y-52342D01*
X69249Y-52498D01*
X69138Y-52634D01*
X69003Y-52746D01*
X68848Y-52829D01*
X68680Y-52881D01*
X68506Y-52899D01*
X68332Y-52884D01*
X68163Y-52834D01*
X68008Y-52753D01*
X67871Y-52643D01*
X67758Y-52508D01*
X67673Y-52354D01*
X67620Y-52187D01*
X67601Y-52012D01*
X67615Y-51838D01*
X67664Y-51669D01*
X67744Y-51513D01*
X67853Y-51375D01*
X67987Y-51261D01*
X68140Y-51176D01*
X68307Y-51121D01*
X68482Y-51101D01*
X68656Y-51114D01*
X68825Y-51161D01*
X68982Y-51241D01*
X69120Y-51349D01*
X69235Y-51482D01*
X69322Y-51634D01*
X69377Y-51801D01*
X69399Y-51975D01*
X69400Y-52000D01*
X37400Y-61500D02*
X37382Y-61674D01*
X37332Y-61842D01*
X37249Y-61998D01*
X37138Y-62134D01*
X37003Y-62246D01*
X36848Y-62329D01*
X36680Y-62381D01*
X36506Y-62399D01*
X36332Y-62384D01*
X36163Y-62334D01*
X36008Y-62253D01*
X35871Y-62143D01*
X35758Y-62008D01*
X35673Y-61854D01*
X35620Y-61687D01*
X35601Y-61512D01*
X35615Y-61338D01*
X35664Y-61169D01*
X35744Y-61013D01*
X35853Y-60875D01*
X35987Y-60761D01*
X36140Y-60676D01*
X36307Y-60621D01*
X36482Y-60601D01*
X36656Y-60614D01*
X36825Y-60661D01*
X36982Y-60741D01*
X37120Y-60849D01*
X37235Y-60982D01*
X37322Y-61134D01*
X37377Y-61301D01*
X37399Y-61475D01*
X37400Y-61500D01*
X132200Y-55500D02*
X132200Y-54900D01*
X132200Y-58500D02*
X132200Y-57900D01*
X131900Y-58200D02*
X132500Y-58200D01*
X128700Y-57200D02*
X128700Y-58000D01*
X128700Y-56500D02*
X128700Y-55700D01*
X127900Y-56800D02*
X127900Y-56500D01*
X127900Y-56500D02*
X129500Y-56500D01*
X129500Y-56500D02*
X129500Y-56800D01*
X127900Y-56800D02*
X129500Y-56800D01*
X127900Y-57200D02*
X129500Y-57200D01*
X133800Y-56700D02*
X133737Y-57340D01*
X133551Y-57957D01*
X133248Y-58526D01*
X132841Y-59025D01*
X132345Y-59435D01*
X131778Y-59742D01*
X131163Y-59932D01*
X130523Y-59999D01*
X129882Y-59941D01*
X129264Y-59759D01*
X128694Y-59461D01*
X128192Y-59057D01*
X127778Y-58564D01*
X127467Y-58000D01*
X127273Y-57386D01*
X127201Y-56746D01*
X127255Y-56105D01*
X127432Y-55486D01*
X127727Y-54913D01*
X128127Y-54408D01*
X128617Y-53991D01*
X129179Y-53677D01*
X129792Y-53477D01*
X130431Y-53401D01*
X131073Y-53451D01*
X131693Y-53624D01*
X132268Y-53914D01*
X132775Y-54311D01*
X133196Y-54798D01*
X133514Y-55358D01*
X133717Y-55969D01*
X133798Y-56608D01*
X133800Y-56700D01*
X35300Y-55500D02*
X35300Y-54900D01*
X35300Y-58500D02*
X35300Y-57900D01*
X35000Y-58200D02*
X35600Y-58200D01*
X31800Y-57200D02*
X31800Y-58000D01*
X31800Y-56500D02*
X31800Y-55700D01*
X31000Y-56800D02*
X31000Y-56500D01*
X31000Y-56500D02*
X32600Y-56500D01*
X32600Y-56500D02*
X32600Y-56800D01*
X31000Y-56800D02*
X32600Y-56800D01*
X31000Y-57200D02*
X32600Y-57200D01*
X36900Y-56700D02*
X36837Y-57340D01*
X36651Y-57957D01*
X36348Y-58526D01*
X35941Y-59025D01*
X35445Y-59435D01*
X34878Y-59742D01*
X34263Y-59932D01*
X33623Y-59999D01*
X32982Y-59941D01*
X32364Y-59759D01*
X31794Y-59461D01*
X31292Y-59057D01*
X30878Y-58564D01*
X30567Y-58000D01*
X30373Y-57386D01*
X30301Y-56746D01*
X30355Y-56105D01*
X30532Y-55486D01*
X30827Y-54913D01*
X31227Y-54408D01*
X31717Y-53991D01*
X32279Y-53677D01*
X32892Y-53477D01*
X33531Y-53401D01*
X34173Y-53451D01*
X34793Y-53624D01*
X35368Y-53914D01*
X35875Y-54311D01*
X36296Y-54798D01*
X36614Y-55358D01*
X36817Y-55969D01*
X36898Y-56608D01*
X36900Y-56700D01*
G54D14*
X74506Y-54954D02*
X74506Y-55147D01*
X74506Y-55147D02*
X75104Y-55147D01*
X75104Y-54954D02*
X75104Y-55147D01*
X74506Y-54954D02*
X75104Y-54954D01*
X74506Y-55454D02*
X74506Y-55647D01*
X74506Y-55647D02*
X75104Y-55647D01*
X75104Y-55454D02*
X75104Y-55647D01*
X74506Y-55454D02*
X75104Y-55454D01*
X74506Y-55954D02*
X74506Y-56147D01*
X74506Y-56147D02*
X75104Y-56147D01*
X75104Y-55954D02*
X75104Y-56147D01*
X74506Y-55954D02*
X75104Y-55954D01*
X74506Y-56454D02*
X74506Y-56647D01*
X74506Y-56647D02*
X75104Y-56647D01*
X75104Y-56454D02*
X75104Y-56647D01*
X74506Y-56454D02*
X75104Y-56454D01*
X74506Y-56954D02*
X74506Y-57147D01*
X74506Y-57147D02*
X75104Y-57147D01*
X75104Y-56954D02*
X75104Y-57147D01*
X74506Y-56954D02*
X75104Y-56954D01*
X74506Y-57453D02*
X74506Y-57646D01*
X74506Y-57646D02*
X75104Y-57646D01*
X75104Y-57453D02*
X75104Y-57646D01*
X74506Y-57453D02*
X75104Y-57453D01*
X74506Y-57953D02*
X74506Y-58146D01*
X74506Y-58146D02*
X75104Y-58146D01*
X75104Y-57953D02*
X75104Y-58146D01*
X74506Y-57953D02*
X75104Y-57953D01*
X74506Y-58453D02*
X74506Y-58646D01*
X74506Y-58646D02*
X75104Y-58646D01*
X75104Y-58453D02*
X75104Y-58646D01*
X74506Y-58453D02*
X75104Y-58453D01*
X74506Y-58953D02*
X74506Y-59146D01*
X74506Y-59146D02*
X75104Y-59146D01*
X75104Y-58953D02*
X75104Y-59146D01*
X74506Y-58953D02*
X75104Y-58953D01*
X74506Y-59453D02*
X74506Y-59646D01*
X74506Y-59646D02*
X75104Y-59646D01*
X75104Y-59453D02*
X75104Y-59646D01*
X74506Y-59453D02*
X75104Y-59453D01*
X78096Y-59453D02*
X78096Y-59646D01*
X78096Y-59646D02*
X78694Y-59646D01*
X78694Y-59453D02*
X78694Y-59646D01*
X78096Y-59453D02*
X78694Y-59453D01*
X78096Y-58953D02*
X78096Y-59146D01*
X78096Y-59146D02*
X78694Y-59146D01*
X78694Y-58953D02*
X78694Y-59146D01*
X78096Y-58953D02*
X78694Y-58953D01*
X78096Y-58453D02*
X78096Y-58646D01*
X78096Y-58646D02*
X78694Y-58646D01*
X78694Y-58453D02*
X78694Y-58646D01*
X78096Y-58453D02*
X78694Y-58453D01*
X78096Y-57953D02*
X78096Y-58146D01*
X78096Y-58146D02*
X78694Y-58146D01*
X78694Y-57953D02*
X78694Y-58146D01*
X78096Y-57953D02*
X78694Y-57953D01*
X78096Y-57453D02*
X78096Y-57646D01*
X78096Y-57646D02*
X78694Y-57646D01*
X78694Y-57453D02*
X78694Y-57646D01*
X78096Y-57453D02*
X78694Y-57453D01*
X78096Y-56954D02*
X78096Y-57147D01*
X78096Y-57147D02*
X78694Y-57147D01*
X78694Y-56954D02*
X78694Y-57147D01*
X78096Y-56954D02*
X78694Y-56954D01*
X78096Y-56454D02*
X78096Y-56647D01*
X78096Y-56647D02*
X78694Y-56647D01*
X78694Y-56454D02*
X78694Y-56647D01*
X78096Y-56454D02*
X78694Y-56454D01*
X78096Y-55954D02*
X78096Y-56147D01*
X78096Y-56147D02*
X78694Y-56147D01*
X78694Y-55954D02*
X78694Y-56147D01*
X78096Y-55954D02*
X78694Y-55954D01*
X78096Y-55454D02*
X78096Y-55647D01*
X78096Y-55647D02*
X78694Y-55647D01*
X78694Y-55454D02*
X78694Y-55647D01*
X78096Y-55454D02*
X78694Y-55454D01*
X78096Y-54954D02*
X78096Y-55147D01*
X78096Y-55147D02*
X78694Y-55147D01*
X78694Y-54954D02*
X78694Y-55147D01*
X78096Y-54954D02*
X78694Y-54954D01*
G54D18*
X78922Y-54586D02*
X78922Y-60014D01*
X74278Y-60014D02*
X74278Y-54586D01*
X74278Y-54586D02*
X78922Y-54586D01*
G54D13*
X75144Y-59843D02*
X75144Y-54757D01*
X75144Y-54757D02*
X78056Y-54757D01*
X78056Y-54757D02*
X78056Y-59843D01*
X75341Y-59843D02*
X75341Y-54757D01*
X78056Y-59843D02*
X75144Y-59843D01*
G54D18*
X78922Y-60014D02*
X74278Y-60014D01*
G54D11*
X134900Y-52800D02*
X136700Y-52800D01*
X136700Y-52800D02*
X136700Y-60600D01*
X136700Y-60600D02*
X134900Y-60600D01*
X134900Y-60600D02*
X134900Y-52800D01*
X27400Y-52800D02*
X29200Y-52800D01*
X29200Y-52800D02*
X29200Y-60600D01*
X29200Y-60600D02*
X27400Y-60600D01*
X27400Y-60600D02*
X27400Y-52800D01*
G54D13*
X81710Y-54462D02*
X81710Y-54062D01*
X81881Y-54443D02*
X81938Y-54462D01*
X82034Y-54462D01*
X82072Y-54443D01*
X82091Y-54424D01*
X82110Y-54386D01*
X82110Y-54348D01*
X82091Y-54310D01*
X82072Y-54290D01*
X82034Y-54271D01*
X81957Y-54252D01*
X81919Y-54233D01*
X81900Y-54214D01*
X81881Y-54176D01*
X81881Y-54138D01*
X81900Y-54100D01*
X81919Y-54081D01*
X81957Y-54062D01*
X82053Y-54062D01*
X82110Y-54081D01*
X82281Y-54462D02*
X82281Y-54062D01*
X82434Y-54062D01*
X82472Y-54081D01*
X82491Y-54100D01*
X82510Y-54138D01*
X82510Y-54195D01*
X82491Y-54233D01*
X82472Y-54252D01*
X82434Y-54271D01*
X82281Y-54271D01*
G54D11*
X70172Y-62143D02*
X70172Y-61543D01*
X70315Y-61543D01*
X70400Y-61571D01*
X70458Y-61629D01*
X70486Y-61686D01*
X70515Y-61800D01*
X70515Y-61886D01*
X70486Y-62000D01*
X70458Y-62057D01*
X70400Y-62114D01*
X70315Y-62143D01*
X70172Y-62143D01*
X71086Y-62143D02*
X70743Y-62143D01*
X70915Y-62143D02*
X70915Y-61543D01*
X70858Y-61629D01*
X70800Y-61686D01*
X70743Y-61714D01*
X71600Y-61543D02*
X71486Y-61543D01*
X71429Y-61571D01*
X71400Y-61600D01*
X71343Y-61686D01*
X71314Y-61800D01*
X71314Y-62029D01*
X71343Y-62086D01*
X71371Y-62114D01*
X71429Y-62143D01*
X71543Y-62143D01*
X71600Y-62114D01*
X71629Y-62086D01*
X71657Y-62029D01*
X71657Y-61886D01*
X71629Y-61829D01*
X71600Y-61800D01*
X71543Y-61771D01*
X71429Y-61771D01*
X71371Y-61800D01*
X71343Y-61829D01*
X71314Y-61886D01*
X39058Y-62043D02*
X39058Y-61443D01*
X39201Y-61443D01*
X39286Y-61471D01*
X39344Y-61529D01*
X39372Y-61586D01*
X39401Y-61700D01*
X39401Y-61786D01*
X39372Y-61900D01*
X39344Y-61957D01*
X39286Y-62014D01*
X39201Y-62043D01*
X39058Y-62043D01*
X39972Y-62043D02*
X39629Y-62043D01*
X39801Y-62043D02*
X39801Y-61443D01*
X39744Y-61529D01*
X39686Y-61586D01*
X39629Y-61614D01*
X39058Y-52343D02*
X39058Y-51743D01*
X39201Y-51743D01*
X39286Y-51771D01*
X39344Y-51829D01*
X39372Y-51886D01*
X39401Y-52000D01*
X39401Y-52086D01*
X39372Y-52200D01*
X39344Y-52257D01*
X39286Y-52314D01*
X39201Y-52343D01*
X39058Y-52343D01*
X39629Y-51800D02*
X39658Y-51771D01*
X39715Y-51743D01*
X39858Y-51743D01*
X39915Y-51771D01*
X39944Y-51800D01*
X39972Y-51857D01*
X39972Y-51914D01*
X39944Y-52000D01*
X39601Y-52343D01*
X39972Y-52343D01*
X43558Y-52343D02*
X43558Y-51743D01*
X43701Y-51743D01*
X43786Y-51771D01*
X43844Y-51829D01*
X43872Y-51886D01*
X43901Y-52000D01*
X43901Y-52086D01*
X43872Y-52200D01*
X43844Y-52257D01*
X43786Y-52314D01*
X43701Y-52343D01*
X43558Y-52343D01*
X44101Y-51743D02*
X44472Y-51743D01*
X44272Y-51971D01*
X44358Y-51971D01*
X44415Y-52000D01*
X44444Y-52029D01*
X44472Y-52086D01*
X44472Y-52229D01*
X44444Y-52286D01*
X44415Y-52314D01*
X44358Y-52343D01*
X44186Y-52343D01*
X44129Y-52314D01*
X44101Y-52286D01*
X43558Y-62043D02*
X43558Y-61443D01*
X43701Y-61443D01*
X43786Y-61471D01*
X43844Y-61529D01*
X43872Y-61586D01*
X43901Y-61700D01*
X43901Y-61786D01*
X43872Y-61900D01*
X43844Y-61957D01*
X43786Y-62014D01*
X43701Y-62043D01*
X43558Y-62043D01*
X44415Y-61643D02*
X44415Y-62043D01*
X44272Y-61414D02*
X44129Y-61843D01*
X44501Y-61843D01*
X48158Y-62043D02*
X48158Y-61443D01*
X48301Y-61443D01*
X48386Y-61471D01*
X48444Y-61529D01*
X48472Y-61586D01*
X48501Y-61700D01*
X48501Y-61786D01*
X48472Y-61900D01*
X48444Y-61957D01*
X48386Y-62014D01*
X48301Y-62043D01*
X48158Y-62043D01*
X49044Y-61443D02*
X48758Y-61443D01*
X48729Y-61729D01*
X48758Y-61700D01*
X48815Y-61671D01*
X48958Y-61671D01*
X49015Y-61700D01*
X49044Y-61729D01*
X49072Y-61786D01*
X49072Y-61929D01*
X49044Y-61986D01*
X49015Y-62014D01*
X48958Y-62043D01*
X48815Y-62043D01*
X48758Y-62014D01*
X48729Y-61986D01*
X47958Y-52343D02*
X47958Y-51743D01*
X48101Y-51743D01*
X48186Y-51771D01*
X48244Y-51829D01*
X48272Y-51886D01*
X48301Y-52000D01*
X48301Y-52086D01*
X48272Y-52200D01*
X48244Y-52257D01*
X48186Y-52314D01*
X48101Y-52343D01*
X47958Y-52343D01*
X48815Y-51743D02*
X48701Y-51743D01*
X48644Y-51771D01*
X48615Y-51800D01*
X48558Y-51886D01*
X48529Y-52000D01*
X48529Y-52229D01*
X48558Y-52286D01*
X48586Y-52314D01*
X48644Y-52343D01*
X48758Y-52343D01*
X48815Y-52314D01*
X48844Y-52286D01*
X48872Y-52229D01*
X48872Y-52086D01*
X48844Y-52029D01*
X48815Y-52000D01*
X48758Y-51971D01*
X48644Y-51971D01*
X48586Y-52000D01*
X48558Y-52029D01*
X48529Y-52086D01*
X52458Y-51843D02*
X52458Y-51243D01*
X52601Y-51243D01*
X52686Y-51271D01*
X52744Y-51329D01*
X52772Y-51386D01*
X52801Y-51500D01*
X52801Y-51586D01*
X52772Y-51700D01*
X52744Y-51757D01*
X52686Y-51814D01*
X52601Y-51843D01*
X52458Y-51843D01*
X53001Y-51243D02*
X53401Y-51243D01*
X53144Y-51843D01*
X52558Y-62043D02*
X52558Y-61443D01*
X52701Y-61443D01*
X52786Y-61471D01*
X52844Y-61529D01*
X52872Y-61586D01*
X52901Y-61700D01*
X52901Y-61786D01*
X52872Y-61900D01*
X52844Y-61957D01*
X52786Y-62014D01*
X52701Y-62043D01*
X52558Y-62043D01*
X53244Y-61700D02*
X53186Y-61671D01*
X53158Y-61643D01*
X53129Y-61586D01*
X53129Y-61557D01*
X53158Y-61500D01*
X53186Y-61471D01*
X53244Y-61443D01*
X53358Y-61443D01*
X53415Y-61471D01*
X53444Y-61500D01*
X53472Y-61557D01*
X53472Y-61586D01*
X53444Y-61643D01*
X53415Y-61671D01*
X53358Y-61700D01*
X53244Y-61700D01*
X53186Y-61729D01*
X53158Y-61757D01*
X53129Y-61814D01*
X53129Y-61929D01*
X53158Y-61986D01*
X53186Y-62014D01*
X53244Y-62043D01*
X53358Y-62043D01*
X53415Y-62014D01*
X53444Y-61986D01*
X53472Y-61929D01*
X53472Y-61814D01*
X53444Y-61757D01*
X53415Y-61729D01*
X53358Y-61700D01*
X56958Y-62043D02*
X56958Y-61443D01*
X57101Y-61443D01*
X57186Y-61471D01*
X57244Y-61529D01*
X57272Y-61586D01*
X57301Y-61700D01*
X57301Y-61786D01*
X57272Y-61900D01*
X57244Y-61957D01*
X57186Y-62014D01*
X57101Y-62043D01*
X56958Y-62043D01*
X57586Y-62043D02*
X57701Y-62043D01*
X57758Y-62014D01*
X57786Y-61986D01*
X57844Y-61900D01*
X57872Y-61786D01*
X57872Y-61557D01*
X57844Y-61500D01*
X57815Y-61471D01*
X57758Y-61443D01*
X57644Y-61443D01*
X57586Y-61471D01*
X57558Y-61500D01*
X57529Y-61557D01*
X57529Y-61700D01*
X57558Y-61757D01*
X57586Y-61786D01*
X57644Y-61814D01*
X57758Y-61814D01*
X57815Y-61786D01*
X57844Y-61757D01*
X57872Y-61700D01*
X56772Y-51843D02*
X56772Y-51243D01*
X56915Y-51243D01*
X57000Y-51271D01*
X57058Y-51329D01*
X57086Y-51386D01*
X57115Y-51500D01*
X57115Y-51586D01*
X57086Y-51700D01*
X57058Y-51757D01*
X57000Y-51814D01*
X56915Y-51843D01*
X56772Y-51843D01*
X57686Y-51843D02*
X57343Y-51843D01*
X57515Y-51843D02*
X57515Y-51243D01*
X57458Y-51329D01*
X57400Y-51386D01*
X57343Y-51414D01*
X58057Y-51243D02*
X58114Y-51243D01*
X58171Y-51271D01*
X58200Y-51300D01*
X58229Y-51357D01*
X58257Y-51471D01*
X58257Y-51614D01*
X58229Y-51729D01*
X58200Y-51786D01*
X58171Y-51814D01*
X58114Y-51843D01*
X58057Y-51843D01*
X58000Y-51814D01*
X57971Y-51786D01*
X57943Y-51729D01*
X57914Y-51614D01*
X57914Y-51471D01*
X57943Y-51357D01*
X57971Y-51300D01*
X58000Y-51271D01*
X58057Y-51243D01*
X61172Y-51843D02*
X61172Y-51243D01*
X61315Y-51243D01*
X61400Y-51271D01*
X61458Y-51329D01*
X61486Y-51386D01*
X61515Y-51500D01*
X61515Y-51586D01*
X61486Y-51700D01*
X61458Y-51757D01*
X61400Y-51814D01*
X61315Y-51843D01*
X61172Y-51843D01*
X62086Y-51843D02*
X61743Y-51843D01*
X61915Y-51843D02*
X61915Y-51243D01*
X61858Y-51329D01*
X61800Y-51386D01*
X61743Y-51414D01*
X62657Y-51843D02*
X62314Y-51843D01*
X62486Y-51843D02*
X62486Y-51243D01*
X62429Y-51329D01*
X62371Y-51386D01*
X62314Y-51414D01*
X61172Y-62043D02*
X61172Y-61443D01*
X61315Y-61443D01*
X61400Y-61471D01*
X61458Y-61529D01*
X61486Y-61586D01*
X61515Y-61700D01*
X61515Y-61786D01*
X61486Y-61900D01*
X61458Y-61957D01*
X61400Y-62014D01*
X61315Y-62043D01*
X61172Y-62043D01*
X62086Y-62043D02*
X61743Y-62043D01*
X61915Y-62043D02*
X61915Y-61443D01*
X61858Y-61529D01*
X61800Y-61586D01*
X61743Y-61614D01*
X62314Y-61500D02*
X62343Y-61471D01*
X62400Y-61443D01*
X62543Y-61443D01*
X62600Y-61471D01*
X62629Y-61500D01*
X62657Y-61557D01*
X62657Y-61614D01*
X62629Y-61700D01*
X62286Y-62043D01*
X62657Y-62043D01*
X65672Y-62043D02*
X65672Y-61443D01*
X65815Y-61443D01*
X65900Y-61471D01*
X65958Y-61529D01*
X65986Y-61586D01*
X66015Y-61700D01*
X66015Y-61786D01*
X65986Y-61900D01*
X65958Y-61957D01*
X65900Y-62014D01*
X65815Y-62043D01*
X65672Y-62043D01*
X66586Y-62043D02*
X66243Y-62043D01*
X66415Y-62043D02*
X66415Y-61443D01*
X66358Y-61529D01*
X66300Y-61586D01*
X66243Y-61614D01*
X66786Y-61443D02*
X67157Y-61443D01*
X66957Y-61671D01*
X67043Y-61671D01*
X67100Y-61700D01*
X67129Y-61729D01*
X67157Y-61786D01*
X67157Y-61929D01*
X67129Y-61986D01*
X67100Y-62014D01*
X67043Y-62043D01*
X66871Y-62043D01*
X66814Y-62014D01*
X66786Y-61986D01*
X65772Y-51743D02*
X65772Y-51143D01*
X65915Y-51143D01*
X66000Y-51171D01*
X66058Y-51229D01*
X66086Y-51286D01*
X66115Y-51400D01*
X66115Y-51486D01*
X66086Y-51600D01*
X66058Y-51657D01*
X66000Y-51714D01*
X65915Y-51743D01*
X65772Y-51743D01*
X66686Y-51743D02*
X66343Y-51743D01*
X66515Y-51743D02*
X66515Y-51143D01*
X66458Y-51229D01*
X66400Y-51286D01*
X66343Y-51314D01*
X67200Y-51343D02*
X67200Y-51743D01*
X67057Y-51114D02*
X66914Y-51543D01*
X67286Y-51543D01*
X70172Y-51743D02*
X70172Y-51143D01*
X70315Y-51143D01*
X70400Y-51171D01*
X70458Y-51229D01*
X70486Y-51286D01*
X70515Y-51400D01*
X70515Y-51486D01*
X70486Y-51600D01*
X70458Y-51657D01*
X70400Y-51714D01*
X70315Y-51743D01*
X70172Y-51743D01*
X71086Y-51743D02*
X70743Y-51743D01*
X70915Y-51743D02*
X70915Y-51143D01*
X70858Y-51229D01*
X70800Y-51286D01*
X70743Y-51314D01*
X71629Y-51143D02*
X71343Y-51143D01*
X71314Y-51429D01*
X71343Y-51400D01*
X71400Y-51371D01*
X71543Y-51371D01*
X71600Y-51400D01*
X71629Y-51429D01*
X71657Y-51486D01*
X71657Y-51629D01*
X71629Y-51686D01*
X71600Y-51714D01*
X71543Y-51743D01*
X71400Y-51743D01*
X71343Y-51714D01*
X71314Y-51686D01*
G54D13*
X84617Y-51502D02*
X84450Y-51264D01*
X84331Y-51502D02*
X84331Y-51002D01*
X84522Y-51002D01*
X84569Y-51026D01*
X84593Y-51050D01*
X84617Y-51098D01*
X84617Y-51169D01*
X84593Y-51217D01*
X84569Y-51240D01*
X84522Y-51264D01*
X84331Y-51264D01*
X85093Y-51502D02*
X84807Y-51502D01*
X84950Y-51502D02*
X84950Y-51002D01*
X84902Y-51074D01*
X84855Y-51121D01*
X84807Y-51145D01*
X73879Y-51402D02*
X73712Y-51164D01*
X73593Y-51402D02*
X73593Y-50902D01*
X73784Y-50902D01*
X73831Y-50926D01*
X73855Y-50950D01*
X73879Y-50998D01*
X73879Y-51069D01*
X73855Y-51117D01*
X73831Y-51140D01*
X73784Y-51164D01*
X73593Y-51164D01*
X74355Y-51402D02*
X74069Y-51402D01*
X74212Y-51402D02*
X74212Y-50902D01*
X74164Y-50974D01*
X74117Y-51021D01*
X74069Y-51045D01*
X74664Y-50902D02*
X74712Y-50902D01*
X74760Y-50926D01*
X74783Y-50950D01*
X74807Y-50998D01*
X74831Y-51093D01*
X74831Y-51212D01*
X74807Y-51307D01*
X74783Y-51355D01*
X74760Y-51379D01*
X74712Y-51402D01*
X74664Y-51402D01*
X74617Y-51379D01*
X74593Y-51355D01*
X74569Y-51307D01*
X74545Y-51212D01*
X74545Y-51093D01*
X74569Y-50998D01*
X74593Y-50950D01*
X74617Y-50926D01*
X74664Y-50902D01*
G54D11*
X119272Y-62043D02*
X119272Y-61443D01*
X119415Y-61443D01*
X119500Y-61471D01*
X119558Y-61529D01*
X119586Y-61586D01*
X119615Y-61700D01*
X119615Y-61786D01*
X119586Y-61900D01*
X119558Y-61957D01*
X119500Y-62014D01*
X119415Y-62043D01*
X119272Y-62043D01*
X119815Y-61443D02*
X120186Y-61443D01*
X119986Y-61671D01*
X120072Y-61671D01*
X120129Y-61700D01*
X120158Y-61729D01*
X120186Y-61786D01*
X120186Y-61929D01*
X120158Y-61986D01*
X120129Y-62014D01*
X120072Y-62043D01*
X119900Y-62043D01*
X119843Y-62014D01*
X119815Y-61986D01*
X120414Y-61500D02*
X120443Y-61471D01*
X120500Y-61443D01*
X120643Y-61443D01*
X120700Y-61471D01*
X120729Y-61500D01*
X120757Y-61557D01*
X120757Y-61614D01*
X120729Y-61700D01*
X120386Y-62043D01*
X120757Y-62043D01*
X119272Y-51743D02*
X119272Y-51143D01*
X119415Y-51143D01*
X119500Y-51171D01*
X119558Y-51229D01*
X119586Y-51286D01*
X119615Y-51400D01*
X119615Y-51486D01*
X119586Y-51600D01*
X119558Y-51657D01*
X119500Y-51714D01*
X119415Y-51743D01*
X119272Y-51743D01*
X119815Y-51143D02*
X120186Y-51143D01*
X119986Y-51371D01*
X120072Y-51371D01*
X120129Y-51400D01*
X120158Y-51429D01*
X120186Y-51486D01*
X120186Y-51629D01*
X120158Y-51686D01*
X120129Y-51714D01*
X120072Y-51743D01*
X119900Y-51743D01*
X119843Y-51714D01*
X119815Y-51686D01*
X120757Y-51743D02*
X120414Y-51743D01*
X120586Y-51743D02*
X120586Y-51143D01*
X120529Y-51229D01*
X120471Y-51286D01*
X120414Y-51314D01*
X123872Y-51743D02*
X123872Y-51143D01*
X124015Y-51143D01*
X124100Y-51171D01*
X124158Y-51229D01*
X124186Y-51286D01*
X124215Y-51400D01*
X124215Y-51486D01*
X124186Y-51600D01*
X124158Y-51657D01*
X124100Y-51714D01*
X124015Y-51743D01*
X123872Y-51743D01*
X124415Y-51143D02*
X124786Y-51143D01*
X124586Y-51371D01*
X124672Y-51371D01*
X124729Y-51400D01*
X124758Y-51429D01*
X124786Y-51486D01*
X124786Y-51629D01*
X124758Y-51686D01*
X124729Y-51714D01*
X124672Y-51743D01*
X124500Y-51743D01*
X124443Y-51714D01*
X124415Y-51686D01*
X125157Y-51143D02*
X125214Y-51143D01*
X125271Y-51171D01*
X125300Y-51200D01*
X125329Y-51257D01*
X125357Y-51371D01*
X125357Y-51514D01*
X125329Y-51629D01*
X125300Y-51686D01*
X125271Y-51714D01*
X125214Y-51743D01*
X125157Y-51743D01*
X125100Y-51714D01*
X125071Y-51686D01*
X125043Y-51629D01*
X125014Y-51514D01*
X125014Y-51371D01*
X125043Y-51257D01*
X125071Y-51200D01*
X125100Y-51171D01*
X125157Y-51143D01*
X123672Y-62043D02*
X123672Y-61443D01*
X123815Y-61443D01*
X123900Y-61471D01*
X123958Y-61529D01*
X123986Y-61586D01*
X124015Y-61700D01*
X124015Y-61786D01*
X123986Y-61900D01*
X123958Y-61957D01*
X123900Y-62014D01*
X123815Y-62043D01*
X123672Y-62043D01*
X124243Y-61500D02*
X124272Y-61471D01*
X124329Y-61443D01*
X124472Y-61443D01*
X124529Y-61471D01*
X124558Y-61500D01*
X124586Y-61557D01*
X124586Y-61614D01*
X124558Y-61700D01*
X124215Y-62043D01*
X124586Y-62043D01*
X124871Y-62043D02*
X124986Y-62043D01*
X125043Y-62014D01*
X125071Y-61986D01*
X125129Y-61900D01*
X125157Y-61786D01*
X125157Y-61557D01*
X125129Y-61500D01*
X125100Y-61471D01*
X125043Y-61443D01*
X124929Y-61443D01*
X124871Y-61471D01*
X124843Y-61500D01*
X124814Y-61557D01*
X124814Y-61700D01*
X124843Y-61757D01*
X124871Y-61786D01*
X124929Y-61814D01*
X125043Y-61814D01*
X125100Y-61786D01*
X125129Y-61757D01*
X125157Y-61700D01*
X110272Y-62043D02*
X110272Y-61443D01*
X110415Y-61443D01*
X110500Y-61471D01*
X110558Y-61529D01*
X110586Y-61586D01*
X110615Y-61700D01*
X110615Y-61786D01*
X110586Y-61900D01*
X110558Y-61957D01*
X110500Y-62014D01*
X110415Y-62043D01*
X110272Y-62043D01*
X110843Y-61500D02*
X110872Y-61471D01*
X110929Y-61443D01*
X111072Y-61443D01*
X111129Y-61471D01*
X111158Y-61500D01*
X111186Y-61557D01*
X111186Y-61614D01*
X111158Y-61700D01*
X110815Y-62043D01*
X111186Y-62043D01*
X111529Y-61700D02*
X111471Y-61671D01*
X111443Y-61643D01*
X111414Y-61586D01*
X111414Y-61557D01*
X111443Y-61500D01*
X111471Y-61471D01*
X111529Y-61443D01*
X111643Y-61443D01*
X111700Y-61471D01*
X111729Y-61500D01*
X111757Y-61557D01*
X111757Y-61586D01*
X111729Y-61643D01*
X111700Y-61671D01*
X111643Y-61700D01*
X111529Y-61700D01*
X111471Y-61729D01*
X111443Y-61757D01*
X111414Y-61814D01*
X111414Y-61929D01*
X111443Y-61986D01*
X111471Y-62014D01*
X111529Y-62043D01*
X111643Y-62043D01*
X111700Y-62014D01*
X111729Y-61986D01*
X111757Y-61929D01*
X111757Y-61814D01*
X111729Y-61757D01*
X111700Y-61729D01*
X111643Y-61700D01*
X110372Y-51843D02*
X110372Y-51243D01*
X110515Y-51243D01*
X110600Y-51271D01*
X110658Y-51329D01*
X110686Y-51386D01*
X110715Y-51500D01*
X110715Y-51586D01*
X110686Y-51700D01*
X110658Y-51757D01*
X110600Y-51814D01*
X110515Y-51843D01*
X110372Y-51843D01*
X110943Y-51300D02*
X110972Y-51271D01*
X111029Y-51243D01*
X111172Y-51243D01*
X111229Y-51271D01*
X111258Y-51300D01*
X111286Y-51357D01*
X111286Y-51414D01*
X111258Y-51500D01*
X110915Y-51843D01*
X111286Y-51843D01*
X111486Y-51243D02*
X111886Y-51243D01*
X111629Y-51843D01*
X114872Y-51843D02*
X114872Y-51243D01*
X115015Y-51243D01*
X115100Y-51271D01*
X115158Y-51329D01*
X115186Y-51386D01*
X115215Y-51500D01*
X115215Y-51586D01*
X115186Y-51700D01*
X115158Y-51757D01*
X115100Y-51814D01*
X115015Y-51843D01*
X114872Y-51843D01*
X115443Y-51300D02*
X115472Y-51271D01*
X115529Y-51243D01*
X115672Y-51243D01*
X115729Y-51271D01*
X115758Y-51300D01*
X115786Y-51357D01*
X115786Y-51414D01*
X115758Y-51500D01*
X115415Y-51843D01*
X115786Y-51843D01*
X116300Y-51243D02*
X116186Y-51243D01*
X116129Y-51271D01*
X116100Y-51300D01*
X116043Y-51386D01*
X116014Y-51500D01*
X116014Y-51729D01*
X116043Y-51786D01*
X116071Y-51814D01*
X116129Y-51843D01*
X116243Y-51843D01*
X116300Y-51814D01*
X116329Y-51786D01*
X116357Y-51729D01*
X116357Y-51586D01*
X116329Y-51529D01*
X116300Y-51500D01*
X116243Y-51471D01*
X116129Y-51471D01*
X116071Y-51500D01*
X116043Y-51529D01*
X116014Y-51586D01*
X114772Y-62043D02*
X114772Y-61443D01*
X114915Y-61443D01*
X115000Y-61471D01*
X115058Y-61529D01*
X115086Y-61586D01*
X115115Y-61700D01*
X115115Y-61786D01*
X115086Y-61900D01*
X115058Y-61957D01*
X115000Y-62014D01*
X114915Y-62043D01*
X114772Y-62043D01*
X115343Y-61500D02*
X115372Y-61471D01*
X115429Y-61443D01*
X115572Y-61443D01*
X115629Y-61471D01*
X115658Y-61500D01*
X115686Y-61557D01*
X115686Y-61614D01*
X115658Y-61700D01*
X115315Y-62043D01*
X115686Y-62043D01*
X116229Y-61443D02*
X115943Y-61443D01*
X115914Y-61729D01*
X115943Y-61700D01*
X116000Y-61671D01*
X116143Y-61671D01*
X116200Y-61700D01*
X116229Y-61729D01*
X116257Y-61786D01*
X116257Y-61929D01*
X116229Y-61986D01*
X116200Y-62014D01*
X116143Y-62043D01*
X116000Y-62043D01*
X115943Y-62014D01*
X115914Y-61986D01*
X105772Y-62143D02*
X105772Y-61543D01*
X105915Y-61543D01*
X106000Y-61571D01*
X106058Y-61629D01*
X106086Y-61686D01*
X106115Y-61800D01*
X106115Y-61886D01*
X106086Y-62000D01*
X106058Y-62057D01*
X106000Y-62114D01*
X105915Y-62143D01*
X105772Y-62143D01*
X106343Y-61600D02*
X106372Y-61571D01*
X106429Y-61543D01*
X106572Y-61543D01*
X106629Y-61571D01*
X106658Y-61600D01*
X106686Y-61657D01*
X106686Y-61714D01*
X106658Y-61800D01*
X106315Y-62143D01*
X106686Y-62143D01*
X107257Y-62143D02*
X106914Y-62143D01*
X107086Y-62143D02*
X107086Y-61543D01*
X107029Y-61629D01*
X106971Y-61686D01*
X106914Y-61714D01*
X105772Y-51943D02*
X105772Y-51343D01*
X105915Y-51343D01*
X106000Y-51371D01*
X106058Y-51429D01*
X106086Y-51486D01*
X106115Y-51600D01*
X106115Y-51686D01*
X106086Y-51800D01*
X106058Y-51857D01*
X106000Y-51914D01*
X105915Y-51943D01*
X105772Y-51943D01*
X106343Y-51400D02*
X106372Y-51371D01*
X106429Y-51343D01*
X106572Y-51343D01*
X106629Y-51371D01*
X106658Y-51400D01*
X106686Y-51457D01*
X106686Y-51514D01*
X106658Y-51600D01*
X106315Y-51943D01*
X106686Y-51943D01*
X106914Y-51400D02*
X106943Y-51371D01*
X107000Y-51343D01*
X107143Y-51343D01*
X107200Y-51371D01*
X107229Y-51400D01*
X107257Y-51457D01*
X107257Y-51514D01*
X107229Y-51600D01*
X106886Y-51943D01*
X107257Y-51943D01*
X101272Y-51943D02*
X101272Y-51343D01*
X101415Y-51343D01*
X101500Y-51371D01*
X101558Y-51429D01*
X101586Y-51486D01*
X101615Y-51600D01*
X101615Y-51686D01*
X101586Y-51800D01*
X101558Y-51857D01*
X101500Y-51914D01*
X101415Y-51943D01*
X101272Y-51943D01*
X101843Y-51400D02*
X101872Y-51371D01*
X101929Y-51343D01*
X102072Y-51343D01*
X102129Y-51371D01*
X102158Y-51400D01*
X102186Y-51457D01*
X102186Y-51514D01*
X102158Y-51600D01*
X101815Y-51943D01*
X102186Y-51943D01*
X102386Y-51343D02*
X102757Y-51343D01*
X102557Y-51571D01*
X102643Y-51571D01*
X102700Y-51600D01*
X102729Y-51629D01*
X102757Y-51686D01*
X102757Y-51829D01*
X102729Y-51886D01*
X102700Y-51914D01*
X102643Y-51943D01*
X102471Y-51943D01*
X102414Y-51914D01*
X102386Y-51886D01*
X101172Y-62143D02*
X101172Y-61543D01*
X101315Y-61543D01*
X101400Y-61571D01*
X101458Y-61629D01*
X101486Y-61686D01*
X101515Y-61800D01*
X101515Y-61886D01*
X101486Y-62000D01*
X101458Y-62057D01*
X101400Y-62114D01*
X101315Y-62143D01*
X101172Y-62143D01*
X101743Y-61600D02*
X101772Y-61571D01*
X101829Y-61543D01*
X101972Y-61543D01*
X102029Y-61571D01*
X102058Y-61600D01*
X102086Y-61657D01*
X102086Y-61714D01*
X102058Y-61800D01*
X101715Y-62143D01*
X102086Y-62143D01*
X102600Y-61743D02*
X102600Y-62143D01*
X102457Y-61514D02*
X102314Y-61943D01*
X102686Y-61943D01*
X96772Y-62143D02*
X96772Y-61543D01*
X96915Y-61543D01*
X97000Y-61571D01*
X97058Y-61629D01*
X97086Y-61686D01*
X97115Y-61800D01*
X97115Y-61886D01*
X97086Y-62000D01*
X97058Y-62057D01*
X97000Y-62114D01*
X96915Y-62143D01*
X96772Y-62143D01*
X97686Y-62143D02*
X97343Y-62143D01*
X97515Y-62143D02*
X97515Y-61543D01*
X97458Y-61629D01*
X97400Y-61686D01*
X97343Y-61714D01*
X97886Y-61543D02*
X98286Y-61543D01*
X98029Y-62143D01*
X96772Y-51943D02*
X96772Y-51343D01*
X96915Y-51343D01*
X97000Y-51371D01*
X97058Y-51429D01*
X97086Y-51486D01*
X97115Y-51600D01*
X97115Y-51686D01*
X97086Y-51800D01*
X97058Y-51857D01*
X97000Y-51914D01*
X96915Y-51943D01*
X96772Y-51943D01*
X97686Y-51943D02*
X97343Y-51943D01*
X97515Y-51943D02*
X97515Y-51343D01*
X97458Y-51429D01*
X97400Y-51486D01*
X97343Y-51514D01*
X98029Y-51600D02*
X97971Y-51571D01*
X97943Y-51543D01*
X97914Y-51486D01*
X97914Y-51457D01*
X97943Y-51400D01*
X97971Y-51371D01*
X98029Y-51343D01*
X98143Y-51343D01*
X98200Y-51371D01*
X98229Y-51400D01*
X98257Y-51457D01*
X98257Y-51486D01*
X98229Y-51543D01*
X98200Y-51571D01*
X98143Y-51600D01*
X98029Y-51600D01*
X97971Y-51629D01*
X97943Y-51657D01*
X97914Y-51714D01*
X97914Y-51829D01*
X97943Y-51886D01*
X97971Y-51914D01*
X98029Y-51943D01*
X98143Y-51943D01*
X98200Y-51914D01*
X98229Y-51886D01*
X98257Y-51829D01*
X98257Y-51714D01*
X98229Y-51657D01*
X98200Y-51629D01*
X98143Y-51600D01*
X92272Y-51943D02*
X92272Y-51343D01*
X92415Y-51343D01*
X92500Y-51371D01*
X92558Y-51429D01*
X92586Y-51486D01*
X92615Y-51600D01*
X92615Y-51686D01*
X92586Y-51800D01*
X92558Y-51857D01*
X92500Y-51914D01*
X92415Y-51943D01*
X92272Y-51943D01*
X93186Y-51943D02*
X92843Y-51943D01*
X93015Y-51943D02*
X93015Y-51343D01*
X92958Y-51429D01*
X92900Y-51486D01*
X92843Y-51514D01*
X93471Y-51943D02*
X93586Y-51943D01*
X93643Y-51914D01*
X93671Y-51886D01*
X93729Y-51800D01*
X93757Y-51686D01*
X93757Y-51457D01*
X93729Y-51400D01*
X93700Y-51371D01*
X93643Y-51343D01*
X93529Y-51343D01*
X93471Y-51371D01*
X93443Y-51400D01*
X93414Y-51457D01*
X93414Y-51600D01*
X93443Y-51657D01*
X93471Y-51686D01*
X93529Y-51714D01*
X93643Y-51714D01*
X93700Y-51686D01*
X93729Y-51657D01*
X93757Y-51600D01*
X92272Y-62143D02*
X92272Y-61543D01*
X92415Y-61543D01*
X92500Y-61571D01*
X92558Y-61629D01*
X92586Y-61686D01*
X92615Y-61800D01*
X92615Y-61886D01*
X92586Y-62000D01*
X92558Y-62057D01*
X92500Y-62114D01*
X92415Y-62143D01*
X92272Y-62143D01*
X92843Y-61600D02*
X92872Y-61571D01*
X92929Y-61543D01*
X93072Y-61543D01*
X93129Y-61571D01*
X93158Y-61600D01*
X93186Y-61657D01*
X93186Y-61714D01*
X93158Y-61800D01*
X92815Y-62143D01*
X93186Y-62143D01*
X93557Y-61543D02*
X93614Y-61543D01*
X93671Y-61571D01*
X93700Y-61600D01*
X93729Y-61657D01*
X93757Y-61771D01*
X93757Y-61914D01*
X93729Y-62029D01*
X93700Y-62086D01*
X93671Y-62114D01*
X93614Y-62143D01*
X93557Y-62143D01*
X93500Y-62114D01*
X93471Y-62086D01*
X93443Y-62029D01*
X93414Y-61914D01*
X93414Y-61771D01*
X93443Y-61657D01*
X93471Y-61600D01*
X93500Y-61571D01*
X93557Y-61543D01*
G54D13*
X78593Y-54002D02*
X78593Y-53502D01*
X78712Y-53502D01*
X78784Y-53526D01*
X78831Y-53574D01*
X78855Y-53621D01*
X78879Y-53717D01*
X78879Y-53788D01*
X78855Y-53883D01*
X78831Y-53931D01*
X78784Y-53979D01*
X78712Y-54002D01*
X78593Y-54002D01*
X79045Y-53502D02*
X79355Y-53502D01*
X79188Y-53693D01*
X79260Y-53693D01*
X79307Y-53717D01*
X79331Y-53740D01*
X79355Y-53788D01*
X79355Y-53907D01*
X79331Y-53955D01*
X79307Y-53979D01*
X79260Y-54002D01*
X79117Y-54002D01*
X79069Y-53979D01*
X79045Y-53955D01*
X79521Y-53502D02*
X79831Y-53502D01*
X79664Y-53693D01*
X79736Y-53693D01*
X79783Y-53717D01*
X79807Y-53740D01*
X79831Y-53788D01*
X79831Y-53907D01*
X79807Y-53955D01*
X79783Y-53979D01*
X79736Y-54002D01*
X79593Y-54002D01*
X79545Y-53979D01*
X79521Y-53955D01*
X84217Y-57855D02*
X84193Y-57879D01*
X84122Y-57902D01*
X84074Y-57902D01*
X84002Y-57879D01*
X83955Y-57831D01*
X83931Y-57783D01*
X83907Y-57688D01*
X83907Y-57617D01*
X83931Y-57521D01*
X83955Y-57474D01*
X84002Y-57426D01*
X84074Y-57402D01*
X84122Y-57402D01*
X84193Y-57426D01*
X84217Y-57450D01*
X84383Y-57402D02*
X84693Y-57402D01*
X84526Y-57593D01*
X84598Y-57593D01*
X84645Y-57617D01*
X84669Y-57640D01*
X84693Y-57688D01*
X84693Y-57807D01*
X84669Y-57855D01*
X84645Y-57879D01*
X84598Y-57902D01*
X84455Y-57902D01*
X84407Y-57879D01*
X84383Y-57855D01*
X79917Y-54755D02*
X79893Y-54779D01*
X79822Y-54802D01*
X79774Y-54802D01*
X79702Y-54779D01*
X79655Y-54731D01*
X79631Y-54683D01*
X79607Y-54588D01*
X79607Y-54517D01*
X79631Y-54421D01*
X79655Y-54374D01*
X79702Y-54326D01*
X79774Y-54302D01*
X79822Y-54302D01*
X79893Y-54326D01*
X79917Y-54350D01*
X80393Y-54802D02*
X80107Y-54802D01*
X80250Y-54802D02*
X80250Y-54302D01*
X80202Y-54374D01*
X80155Y-54421D01*
X80107Y-54445D01*
X89917Y-54555D02*
X89893Y-54579D01*
X89822Y-54602D01*
X89774Y-54602D01*
X89702Y-54579D01*
X89655Y-54531D01*
X89631Y-54483D01*
X89607Y-54388D01*
X89607Y-54317D01*
X89631Y-54221D01*
X89655Y-54174D01*
X89702Y-54126D01*
X89774Y-54102D01*
X89822Y-54102D01*
X89893Y-54126D01*
X89917Y-54150D01*
X90345Y-54102D02*
X90250Y-54102D01*
X90202Y-54126D01*
X90179Y-54150D01*
X90131Y-54221D01*
X90107Y-54317D01*
X90107Y-54507D01*
X90131Y-54555D01*
X90155Y-54579D01*
X90202Y-54602D01*
X90298Y-54602D01*
X90345Y-54579D01*
X90369Y-54555D01*
X90393Y-54507D01*
X90393Y-54388D01*
X90369Y-54340D01*
X90345Y-54317D01*
X90298Y-54293D01*
X90202Y-54293D01*
X90155Y-54317D01*
X90131Y-54340D01*
X90107Y-54388D01*
X85517Y-54455D02*
X85493Y-54479D01*
X85422Y-54502D01*
X85374Y-54502D01*
X85302Y-54479D01*
X85255Y-54431D01*
X85231Y-54383D01*
X85207Y-54288D01*
X85207Y-54217D01*
X85231Y-54121D01*
X85255Y-54074D01*
X85302Y-54026D01*
X85374Y-54002D01*
X85422Y-54002D01*
X85493Y-54026D01*
X85517Y-54050D01*
X85969Y-54002D02*
X85731Y-54002D01*
X85707Y-54240D01*
X85731Y-54217D01*
X85779Y-54193D01*
X85898Y-54193D01*
X85945Y-54217D01*
X85969Y-54240D01*
X85993Y-54288D01*
X85993Y-54407D01*
X85969Y-54455D01*
X85945Y-54479D01*
X85898Y-54502D01*
X85779Y-54502D01*
X85731Y-54479D01*
X85707Y-54455D01*
X79517Y-57855D02*
X79493Y-57879D01*
X79422Y-57902D01*
X79374Y-57902D01*
X79302Y-57879D01*
X79255Y-57831D01*
X79231Y-57783D01*
X79207Y-57688D01*
X79207Y-57617D01*
X79231Y-57521D01*
X79255Y-57474D01*
X79302Y-57426D01*
X79374Y-57402D01*
X79422Y-57402D01*
X79493Y-57426D01*
X79517Y-57450D01*
X79945Y-57569D02*
X79945Y-57902D01*
X79826Y-57379D02*
X79707Y-57736D01*
X80017Y-57736D01*
X84517Y-54455D02*
X84493Y-54479D01*
X84422Y-54502D01*
X84374Y-54502D01*
X84302Y-54479D01*
X84255Y-54431D01*
X84231Y-54383D01*
X84207Y-54288D01*
X84207Y-54217D01*
X84231Y-54121D01*
X84255Y-54074D01*
X84302Y-54026D01*
X84374Y-54002D01*
X84422Y-54002D01*
X84493Y-54026D01*
X84517Y-54050D01*
X84707Y-54050D02*
X84731Y-54026D01*
X84779Y-54002D01*
X84898Y-54002D01*
X84945Y-54026D01*
X84969Y-54050D01*
X84993Y-54098D01*
X84993Y-54145D01*
X84969Y-54217D01*
X84683Y-54502D01*
X84993Y-54502D01*
X90923Y-59397D02*
X90661Y-59564D01*
X90923Y-59683D02*
X90373Y-59683D01*
X90373Y-59492D01*
X90399Y-59445D01*
X90425Y-59421D01*
X90477Y-59397D01*
X90556Y-59397D01*
X90608Y-59421D01*
X90635Y-59445D01*
X90661Y-59492D01*
X90661Y-59683D01*
X90373Y-59254D02*
X90923Y-59088D01*
X90373Y-58921D01*
X90923Y-58492D02*
X90923Y-58778D01*
X90923Y-58635D02*
X90373Y-58635D01*
X90451Y-58683D01*
X90504Y-58730D01*
X90530Y-58778D01*
X86419Y-61423D02*
X86419Y-60873D01*
X86538Y-61475D02*
X86919Y-61475D01*
X87324Y-61423D02*
X87157Y-61161D01*
X87038Y-61423D02*
X87038Y-60873D01*
X87229Y-60873D01*
X87276Y-60899D01*
X87300Y-60925D01*
X87324Y-60977D01*
X87324Y-61056D01*
X87300Y-61108D01*
X87276Y-61135D01*
X87229Y-61161D01*
X87038Y-61161D01*
X87538Y-61135D02*
X87705Y-61135D01*
X87776Y-61423D02*
X87538Y-61423D01*
X87538Y-60873D01*
X87776Y-60873D01*
X88157Y-61135D02*
X87990Y-61135D01*
X87990Y-61423D02*
X87990Y-60873D01*
X88228Y-60873D01*
X79212Y-59002D02*
X79212Y-58502D01*
X79736Y-58955D02*
X79712Y-58979D01*
X79641Y-59002D01*
X79593Y-59002D01*
X79521Y-58979D01*
X79474Y-58931D01*
X79450Y-58883D01*
X79426Y-58788D01*
X79426Y-58717D01*
X79450Y-58621D01*
X79474Y-58574D01*
X79521Y-58526D01*
X79593Y-58502D01*
X79641Y-58502D01*
X79712Y-58526D01*
X79736Y-58550D01*
X79926Y-58550D02*
X79950Y-58526D01*
X79998Y-58502D01*
X80117Y-58502D01*
X80164Y-58526D01*
X80188Y-58550D01*
X80212Y-58598D01*
X80212Y-58645D01*
X80188Y-58717D01*
X79902Y-59002D01*
X80212Y-59002D01*
X87312Y-54302D02*
X87312Y-53802D01*
X87836Y-54255D02*
X87812Y-54279D01*
X87741Y-54302D01*
X87693Y-54302D01*
X87621Y-54279D01*
X87574Y-54231D01*
X87550Y-54183D01*
X87526Y-54088D01*
X87526Y-54017D01*
X87550Y-53921D01*
X87574Y-53874D01*
X87621Y-53826D01*
X87693Y-53802D01*
X87741Y-53802D01*
X87812Y-53826D01*
X87836Y-53850D01*
X88002Y-53802D02*
X88312Y-53802D01*
X88145Y-53993D01*
X88217Y-53993D01*
X88264Y-54017D01*
X88288Y-54040D01*
X88312Y-54088D01*
X88312Y-54207D01*
X88288Y-54255D01*
X88264Y-54279D01*
X88217Y-54302D01*
X88074Y-54302D01*
X88026Y-54279D01*
X88002Y-54255D01*
G54D11*
X130401Y-52886D02*
X130372Y-52914D01*
X130286Y-52943D01*
X130229Y-52943D01*
X130144Y-52914D01*
X130086Y-52857D01*
X130058Y-52800D01*
X130029Y-52686D01*
X130029Y-52600D01*
X130058Y-52486D01*
X130086Y-52429D01*
X130144Y-52371D01*
X130229Y-52343D01*
X130286Y-52343D01*
X130372Y-52371D01*
X130401Y-52400D01*
X130744Y-52600D02*
X130686Y-52571D01*
X130658Y-52543D01*
X130629Y-52486D01*
X130629Y-52457D01*
X130658Y-52400D01*
X130686Y-52371D01*
X130744Y-52343D01*
X130858Y-52343D01*
X130915Y-52371D01*
X130944Y-52400D01*
X130972Y-52457D01*
X130972Y-52486D01*
X130944Y-52543D01*
X130915Y-52571D01*
X130858Y-52600D01*
X130744Y-52600D01*
X130686Y-52629D01*
X130658Y-52657D01*
X130629Y-52714D01*
X130629Y-52829D01*
X130658Y-52886D01*
X130686Y-52914D01*
X130744Y-52943D01*
X130858Y-52943D01*
X130915Y-52914D01*
X130944Y-52886D01*
X130972Y-52829D01*
X130972Y-52714D01*
X130944Y-52657D01*
X130915Y-52629D01*
X130858Y-52600D01*
X33501Y-52886D02*
X33472Y-52914D01*
X33386Y-52943D01*
X33329Y-52943D01*
X33244Y-52914D01*
X33186Y-52857D01*
X33158Y-52800D01*
X33129Y-52686D01*
X33129Y-52600D01*
X33158Y-52486D01*
X33186Y-52429D01*
X33244Y-52371D01*
X33329Y-52343D01*
X33386Y-52343D01*
X33472Y-52371D01*
X33501Y-52400D01*
X33701Y-52343D02*
X34101Y-52343D01*
X33844Y-52943D01*
G54D13*
X76112Y-54402D02*
X76112Y-53902D01*
X76636Y-54355D02*
X76612Y-54379D01*
X76541Y-54402D01*
X76493Y-54402D01*
X76421Y-54379D01*
X76374Y-54331D01*
X76350Y-54283D01*
X76326Y-54188D01*
X76326Y-54117D01*
X76350Y-54021D01*
X76374Y-53974D01*
X76421Y-53926D01*
X76493Y-53902D01*
X76541Y-53902D01*
X76612Y-53926D01*
X76636Y-53950D01*
X77112Y-54402D02*
X76826Y-54402D01*
X76969Y-54402D02*
X76969Y-53902D01*
X76921Y-53974D01*
X76874Y-54021D01*
X76826Y-54045D01*
%LPC*%
G54D19*
X83100Y-55200D03*
G54D20*
X83100Y-56200D03*
X82100Y-55200D03*
X82100Y-56200D03*
X81100Y-55200D03*
X81100Y-56200D03*
G54D21*
X71000Y-60000D03*
X71000Y-58000D03*
X39500Y-58000D03*
X39500Y-60000D03*
X39499Y-53500D03*
X39499Y-55500D03*
X44000Y-55500D03*
X44000Y-53500D03*
X44000Y-60000D03*
X44000Y-58000D03*
X48500Y-58000D03*
X48500Y-60000D03*
X48500Y-53500D03*
X48500Y-55500D03*
X53000Y-55500D03*
X53000Y-53500D03*
X53000Y-60000D03*
X53000Y-58000D03*
X57500Y-58000D03*
X57500Y-60000D03*
X57500Y-53500D03*
X57500Y-55500D03*
X62000Y-55500D03*
X62000Y-53500D03*
X62000Y-60000D03*
X62000Y-58000D03*
X66500Y-58000D03*
X66500Y-60000D03*
X66500Y-53500D03*
X66500Y-55500D03*
X71000Y-55500D03*
X71000Y-53500D03*
G54D22*
X84700Y-52874D03*
X84700Y-52126D03*
G54D20*
X86100Y-51575D03*
X88650Y-51575D03*
X86100Y-53325D03*
X88650Y-53325D03*
X80700Y-51575D03*
X83250Y-51575D03*
X80700Y-53325D03*
X83250Y-53325D03*
X75300Y-51575D03*
X77850Y-51575D03*
X75300Y-53325D03*
X77850Y-53325D03*
G54D22*
X74400Y-52774D03*
X74400Y-52026D03*
G54D21*
X120000Y-60000D03*
X120000Y-58000D03*
X120000Y-55500D03*
X120000Y-53500D03*
X124500Y-53500D03*
X124500Y-55500D03*
X124500Y-58000D03*
X124500Y-60000D03*
X111000Y-59900D03*
X111000Y-57900D03*
X111000Y-55500D03*
X111000Y-53500D03*
X115600Y-53500D03*
X115600Y-55500D03*
X115600Y-58000D03*
X115600Y-60000D03*
X106500Y-58000D03*
X106500Y-60000D03*
X106500Y-53500D03*
X106500Y-55500D03*
X102000Y-55500D03*
X102000Y-53500D03*
X102000Y-60000D03*
X102000Y-58000D03*
X97500Y-58000D03*
X97500Y-60000D03*
X97500Y-53500D03*
X97500Y-55500D03*
X93000Y-55500D03*
X93000Y-53500D03*
X93000Y-60000D03*
X93000Y-58000D03*
G54D23*
X79800Y-52400D03*
G54D24*
X78800Y-52400D03*
G54D25*
X82626Y-57700D03*
X83374Y-57700D03*
G54D22*
X80000Y-56074D03*
X80000Y-55326D03*
G54D26*
X90000Y-56251D03*
X90000Y-55149D03*
X85600Y-56251D03*
X85600Y-55149D03*
G54D27*
X81651Y-57700D03*
X80549Y-57700D03*
G54D26*
X84600Y-55149D03*
X84600Y-56251D03*
G54D28*
X89100Y-60100D03*
X85100Y-59100D03*
X89100Y-58100D03*
G54D29*
X80977Y-58850D03*
X80977Y-59350D03*
X80977Y-59850D03*
X80977Y-60350D03*
X80977Y-60850D03*
X80977Y-61350D03*
X80977Y-61850D03*
X80977Y-62350D03*
X83023Y-62350D03*
X83023Y-61850D03*
X83023Y-61350D03*
X83023Y-60850D03*
X83023Y-60350D03*
X83023Y-59850D03*
X83023Y-59350D03*
X83023Y-58850D03*
G54D30*
X36500Y-52000D03*
G54D29*
X88823Y-56450D03*
X88823Y-55950D03*
X88823Y-55450D03*
X88823Y-54950D03*
X86777Y-54950D03*
X86777Y-55450D03*
X86777Y-55950D03*
X86777Y-56450D03*
G54D30*
X127500Y-61500D03*
X127500Y-52000D03*
X95500Y-61500D03*
X95500Y-52000D03*
X68500Y-61500D03*
X68500Y-52000D03*
X36500Y-61500D03*
G54D31*
X130500Y-58200D03*
G54D21*
X130500Y-55200D03*
G54D31*
X33600Y-58200D03*
G54D21*
X33600Y-55200D03*
G54D29*
X74789Y-55050D03*
X74789Y-55550D03*
X74789Y-56050D03*
X74789Y-56550D03*
X74789Y-57050D03*
X74789Y-57550D03*
X74789Y-58050D03*
X74789Y-58550D03*
X74789Y-59050D03*
X74789Y-59550D03*
X78411Y-59550D03*
X78411Y-59050D03*
X78411Y-58550D03*
X78411Y-58050D03*
X78411Y-57550D03*
X78411Y-57050D03*
X78411Y-56550D03*
X78411Y-56050D03*
X78411Y-55550D03*
X78411Y-55050D03*
G54D19*
X135300Y-53200D03*
G54D20*
X136300Y-53200D03*
X135300Y-54200D03*
X136300Y-54200D03*
X135300Y-55200D03*
X136300Y-55200D03*
X135300Y-56200D03*
X136300Y-56200D03*
X135300Y-57200D03*
X136300Y-57200D03*
X135300Y-58200D03*
X136300Y-58200D03*
X135300Y-59200D03*
X136300Y-59200D03*
X135300Y-60200D03*
X136300Y-60200D03*
G54D19*
X27800Y-53200D03*
G54D20*
X28800Y-53200D03*
X27800Y-54200D03*
X28800Y-54200D03*
X27800Y-55200D03*
X28800Y-55200D03*
X27800Y-56200D03*
X28800Y-56200D03*
X27800Y-57200D03*
X28800Y-57200D03*
X27800Y-58200D03*
X28800Y-58200D03*
X27800Y-59200D03*
X28800Y-59200D03*
X27800Y-60200D03*
X28800Y-60200D03*
M02*
