G04 (created by PCBNEW-RS274X (2010-04-21 BZR 23xx)-stable) date Mon 21 Mar 2011 07:44:04 PM CET*
G01*
G70*
G90*
%MOIN*%
G04 Gerber Fmt 3.4, Leading zero omitted, Abs format*
%FSLAX34Y34*%
G04 APERTURE LIST*
%ADD10C,0.006000*%
%ADD11R,0.068000X0.068000*%
%ADD12C,0.068000*%
%ADD13R,0.094600X0.031600*%
%ADD14C,0.108000*%
%ADD15R,0.063000X0.063000*%
%ADD16C,0.063000*%
%ADD17R,0.078800X0.070900*%
%ADD18C,0.088000*%
%ADD19C,0.168000*%
G04 APERTURE END LIST*
G54D10*
G54D11*
X50700Y-21100D03*
G54D12*
X50700Y-20100D03*
X51700Y-21100D03*
X51700Y-20100D03*
X52700Y-21100D03*
X52700Y-20100D03*
G54D13*
X50677Y-15700D03*
X50677Y-16200D03*
X50677Y-16700D03*
X50677Y-17200D03*
X50677Y-17700D03*
X50677Y-18200D03*
X50677Y-18700D03*
X52723Y-18700D03*
X52723Y-18200D03*
X52723Y-17700D03*
X52723Y-17200D03*
X52723Y-16700D03*
X52723Y-16200D03*
X52723Y-15700D03*
G54D14*
X47000Y-21000D03*
X47000Y-19000D03*
X15500Y-19000D03*
X15500Y-21000D03*
X15499Y-14500D03*
X15499Y-16500D03*
X20000Y-16500D03*
X20000Y-14500D03*
X20000Y-21000D03*
X20000Y-19000D03*
X24500Y-19000D03*
X24500Y-21000D03*
X24500Y-14500D03*
X24500Y-16500D03*
X29000Y-16500D03*
X29000Y-14500D03*
X29000Y-21000D03*
X29000Y-19000D03*
X33500Y-19000D03*
X33500Y-21000D03*
X33500Y-14500D03*
X33500Y-16500D03*
X38000Y-16500D03*
X38000Y-14500D03*
X38000Y-21000D03*
X38000Y-19000D03*
X42500Y-19000D03*
X42500Y-21000D03*
X42500Y-14500D03*
X42500Y-16500D03*
X47000Y-16500D03*
X47000Y-14500D03*
G54D12*
X62300Y-12575D03*
X64850Y-12575D03*
X62300Y-14325D03*
X64850Y-14325D03*
X56700Y-12575D03*
X59250Y-12575D03*
X56700Y-14325D03*
X59250Y-14325D03*
X51300Y-12575D03*
X53850Y-12575D03*
X51300Y-14325D03*
X53850Y-14325D03*
G54D14*
X96000Y-21000D03*
X96000Y-19000D03*
X96000Y-16500D03*
X96000Y-14500D03*
X100500Y-14500D03*
X100500Y-16500D03*
X100500Y-19000D03*
X100500Y-21000D03*
X87000Y-20900D03*
X87000Y-18900D03*
X87000Y-16500D03*
X87000Y-14500D03*
X91600Y-14500D03*
X91600Y-16500D03*
X91600Y-19000D03*
X91600Y-21000D03*
X82500Y-19000D03*
X82500Y-21000D03*
X82500Y-14500D03*
X82500Y-16500D03*
X78000Y-16500D03*
X78000Y-14500D03*
X78000Y-21000D03*
X78000Y-19000D03*
X73500Y-19000D03*
X73500Y-21000D03*
X73500Y-14500D03*
X73500Y-16500D03*
X69000Y-16500D03*
X69000Y-14500D03*
X69000Y-21000D03*
X69000Y-19000D03*
G54D15*
X55800Y-13400D03*
G54D16*
X54800Y-13400D03*
G54D17*
X55200Y-17551D03*
X55200Y-16449D03*
G54D18*
X65100Y-22800D03*
X61100Y-21800D03*
X65100Y-20800D03*
G54D13*
X56977Y-19250D03*
X56977Y-19750D03*
X56977Y-20250D03*
X56977Y-20750D03*
X56977Y-21250D03*
X56977Y-21750D03*
X56977Y-22250D03*
X56977Y-22750D03*
X59023Y-22750D03*
X59023Y-22250D03*
X59023Y-21750D03*
X59023Y-21250D03*
X59023Y-20750D03*
X59023Y-20250D03*
X59023Y-19750D03*
X59023Y-19250D03*
G54D11*
X12000Y-20100D03*
G54D12*
X12000Y-19100D03*
X12000Y-18100D03*
X12000Y-17100D03*
X12000Y-16100D03*
X12000Y-15100D03*
G54D11*
X104000Y-20100D03*
G54D12*
X104000Y-19100D03*
X104000Y-18100D03*
X104000Y-17100D03*
X104000Y-16100D03*
X104000Y-15100D03*
G54D19*
X103500Y-22500D03*
X12500Y-13000D03*
X12500Y-22500D03*
X103500Y-13000D03*
X71500Y-13000D03*
X44500Y-13000D03*
G54D13*
X59023Y-17550D03*
X59023Y-17050D03*
X59023Y-16550D03*
X59023Y-16050D03*
X56977Y-16050D03*
X56977Y-16550D03*
X56977Y-17050D03*
X56977Y-17550D03*
G54D11*
X60800Y-19200D03*
G54D12*
X61800Y-19200D03*
X62800Y-19200D03*
X63800Y-19200D03*
X64800Y-19200D03*
X65800Y-19200D03*
G54D11*
X60800Y-18200D03*
G54D12*
X61800Y-18200D03*
X62800Y-18200D03*
X63800Y-18200D03*
X64800Y-18200D03*
X65800Y-18200D03*
G54D11*
X60800Y-16200D03*
G54D12*
X61800Y-16200D03*
X62800Y-16200D03*
X63800Y-16200D03*
X64800Y-16200D03*
X65800Y-16200D03*
G54D11*
X60800Y-17200D03*
G54D12*
X61800Y-17200D03*
X62800Y-17200D03*
X63800Y-17200D03*
X64800Y-17200D03*
X65800Y-17200D03*
G54D19*
X71500Y-22500D03*
X44500Y-22500D03*
M02*
