G04 (created by PCBNEW-RS274X (2010-04-21 BZR 23xx)-stable) date Mon 21 Mar 2011 07:44:04 PM CET*
G01*
G70*
G90*
%MOIN*%
G04 Gerber Fmt 3.4, Leading zero omitted, Abs format*
%FSLAX34Y34*%
G04 APERTURE LIST*
%ADD10C,0.006000*%
%ADD11C,0.012000*%
%ADD12R,0.060000X0.060000*%
%ADD13C,0.060000*%
%ADD14R,0.086600X0.023600*%
%ADD15C,0.100000*%
%ADD16R,0.055000X0.055000*%
%ADD17C,0.055000*%
%ADD18R,0.070800X0.062900*%
%ADD19C,0.080000*%
%ADD20C,0.160000*%
%ADD21C,0.035000*%
%ADD22C,0.020000*%
%ADD23C,0.050000*%
%ADD24C,0.010000*%
G04 APERTURE END LIST*
G54D10*
G54D11*
X17432Y-11950D02*
X17456Y-11926D01*
X17504Y-11902D01*
X17623Y-11902D01*
X17670Y-11926D01*
X17694Y-11950D01*
X17718Y-11998D01*
X17718Y-12045D01*
X17694Y-12117D01*
X17408Y-12402D01*
X17718Y-12402D01*
X18027Y-11902D02*
X18075Y-11902D01*
X18123Y-11926D01*
X18146Y-11950D01*
X18170Y-11998D01*
X18194Y-12093D01*
X18194Y-12212D01*
X18170Y-12307D01*
X18146Y-12355D01*
X18123Y-12379D01*
X18075Y-12402D01*
X18027Y-12402D01*
X17980Y-12379D01*
X17956Y-12355D01*
X17932Y-12307D01*
X17908Y-12212D01*
X17908Y-12093D01*
X17932Y-11998D01*
X17956Y-11950D01*
X17980Y-11926D01*
X18027Y-11902D01*
X18670Y-12402D02*
X18384Y-12402D01*
X18527Y-12402D02*
X18527Y-11902D01*
X18479Y-11974D01*
X18432Y-12021D01*
X18384Y-12045D01*
X19146Y-12402D02*
X18860Y-12402D01*
X19003Y-12402D02*
X19003Y-11902D01*
X18955Y-11974D01*
X18908Y-12021D01*
X18860Y-12045D01*
X19741Y-12402D02*
X19741Y-11902D01*
X19741Y-12093D02*
X19789Y-12069D01*
X19884Y-12069D01*
X19932Y-12093D01*
X19955Y-12117D01*
X19979Y-12164D01*
X19979Y-12307D01*
X19955Y-12355D01*
X19932Y-12379D01*
X19884Y-12402D01*
X19789Y-12402D01*
X19741Y-12379D01*
X20264Y-12402D02*
X20217Y-12379D01*
X20193Y-12331D01*
X20193Y-11902D01*
X20526Y-12402D02*
X20479Y-12379D01*
X20455Y-12355D01*
X20431Y-12307D01*
X20431Y-12164D01*
X20455Y-12117D01*
X20479Y-12093D01*
X20526Y-12069D01*
X20598Y-12069D01*
X20646Y-12093D01*
X20669Y-12117D01*
X20693Y-12164D01*
X20693Y-12307D01*
X20669Y-12355D01*
X20646Y-12379D01*
X20598Y-12402D01*
X20526Y-12402D01*
X21121Y-12069D02*
X21121Y-12474D01*
X21098Y-12521D01*
X21074Y-12545D01*
X21026Y-12569D01*
X20955Y-12569D01*
X20907Y-12545D01*
X21121Y-12379D02*
X21074Y-12402D01*
X20978Y-12402D01*
X20931Y-12379D01*
X20907Y-12355D01*
X20883Y-12307D01*
X20883Y-12164D01*
X20907Y-12117D01*
X20931Y-12093D01*
X20978Y-12069D01*
X21074Y-12069D01*
X21121Y-12093D01*
X21359Y-12355D02*
X21383Y-12379D01*
X21359Y-12402D01*
X21335Y-12379D01*
X21359Y-12355D01*
X21359Y-12402D01*
X21573Y-12379D02*
X21621Y-12402D01*
X21716Y-12402D01*
X21764Y-12379D01*
X21788Y-12331D01*
X21788Y-12307D01*
X21764Y-12260D01*
X21716Y-12236D01*
X21645Y-12236D01*
X21597Y-12212D01*
X21573Y-12164D01*
X21573Y-12140D01*
X21597Y-12093D01*
X21645Y-12069D01*
X21716Y-12069D01*
X21764Y-12093D01*
X22002Y-12069D02*
X22002Y-12569D01*
X22002Y-12093D02*
X22050Y-12069D01*
X22145Y-12069D01*
X22193Y-12093D01*
X22216Y-12117D01*
X22240Y-12164D01*
X22240Y-12307D01*
X22216Y-12355D01*
X22193Y-12379D01*
X22145Y-12402D01*
X22050Y-12402D01*
X22002Y-12379D01*
X22454Y-12402D02*
X22454Y-12069D01*
X22454Y-11902D02*
X22430Y-11926D01*
X22454Y-11950D01*
X22478Y-11926D01*
X22454Y-11902D01*
X22454Y-11950D01*
X22621Y-12069D02*
X22811Y-12069D01*
X22692Y-11902D02*
X22692Y-12331D01*
X22716Y-12379D01*
X22763Y-12402D01*
X22811Y-12402D01*
X22930Y-12069D02*
X23192Y-12069D01*
X22930Y-12402D01*
X23192Y-12402D01*
X23574Y-12379D02*
X23526Y-12402D01*
X23431Y-12402D01*
X23383Y-12379D01*
X23359Y-12331D01*
X23359Y-12140D01*
X23383Y-12093D01*
X23431Y-12069D01*
X23526Y-12069D01*
X23574Y-12093D01*
X23597Y-12140D01*
X23597Y-12188D01*
X23359Y-12236D01*
X23812Y-12069D02*
X23812Y-12402D01*
X23812Y-12117D02*
X23836Y-12093D01*
X23883Y-12069D01*
X23955Y-12069D01*
X24003Y-12093D01*
X24026Y-12140D01*
X24026Y-12402D01*
X24264Y-12069D02*
X24264Y-12569D01*
X24264Y-12093D02*
X24312Y-12069D01*
X24407Y-12069D01*
X24455Y-12093D01*
X24478Y-12117D01*
X24502Y-12164D01*
X24502Y-12307D01*
X24478Y-12355D01*
X24455Y-12379D01*
X24407Y-12402D01*
X24312Y-12402D01*
X24264Y-12379D01*
X24645Y-12069D02*
X24835Y-12069D01*
X24716Y-12402D02*
X24716Y-11974D01*
X24740Y-11926D01*
X24787Y-11902D01*
X24835Y-11902D01*
X25193Y-12379D02*
X25145Y-12402D01*
X25050Y-12402D01*
X25002Y-12379D01*
X24978Y-12331D01*
X24978Y-12140D01*
X25002Y-12093D01*
X25050Y-12069D01*
X25145Y-12069D01*
X25193Y-12093D01*
X25216Y-12140D01*
X25216Y-12188D01*
X24978Y-12236D01*
X25431Y-12402D02*
X25431Y-12069D01*
X25431Y-11902D02*
X25407Y-11926D01*
X25431Y-11950D01*
X25455Y-11926D01*
X25431Y-11902D01*
X25431Y-11950D01*
X25740Y-12402D02*
X25693Y-12379D01*
X25669Y-12331D01*
X25669Y-11902D01*
X25931Y-12355D02*
X25955Y-12379D01*
X25931Y-12402D01*
X25907Y-12379D01*
X25931Y-12355D01*
X25931Y-12402D01*
X26240Y-12402D02*
X26193Y-12379D01*
X26169Y-12355D01*
X26145Y-12307D01*
X26145Y-12164D01*
X26169Y-12117D01*
X26193Y-12093D01*
X26240Y-12069D01*
X26312Y-12069D01*
X26360Y-12093D01*
X26383Y-12117D01*
X26407Y-12164D01*
X26407Y-12307D01*
X26383Y-12355D01*
X26360Y-12379D01*
X26312Y-12402D01*
X26240Y-12402D01*
X26621Y-12402D02*
X26621Y-12069D01*
X26621Y-12164D02*
X26645Y-12117D01*
X26669Y-12093D01*
X26716Y-12069D01*
X26764Y-12069D01*
X27145Y-12069D02*
X27145Y-12474D01*
X27122Y-12521D01*
X27098Y-12545D01*
X27050Y-12569D01*
X26979Y-12569D01*
X26931Y-12545D01*
X27145Y-12379D02*
X27098Y-12402D01*
X27002Y-12402D01*
X26955Y-12379D01*
X26931Y-12355D01*
X26907Y-12307D01*
X26907Y-12164D01*
X26931Y-12117D01*
X26955Y-12093D01*
X27002Y-12069D01*
X27098Y-12069D01*
X27145Y-12093D01*
G54D12*
X50700Y-21100D03*
G54D13*
X50700Y-20100D03*
X51700Y-21100D03*
X51700Y-20100D03*
X52700Y-21100D03*
X52700Y-20100D03*
G54D14*
X50677Y-15700D03*
X50677Y-16200D03*
X50677Y-16700D03*
X50677Y-17200D03*
X50677Y-17700D03*
X50677Y-18200D03*
X50677Y-18700D03*
X52723Y-18700D03*
X52723Y-18200D03*
X52723Y-17700D03*
X52723Y-17200D03*
X52723Y-16700D03*
X52723Y-16200D03*
X52723Y-15700D03*
G54D15*
X47000Y-21000D03*
X47000Y-19000D03*
X15500Y-19000D03*
X15500Y-21000D03*
X15499Y-14500D03*
X15499Y-16500D03*
X20000Y-16500D03*
X20000Y-14500D03*
X20000Y-21000D03*
X20000Y-19000D03*
X24500Y-19000D03*
X24500Y-21000D03*
X24500Y-14500D03*
X24500Y-16500D03*
X29000Y-16500D03*
X29000Y-14500D03*
X29000Y-21000D03*
X29000Y-19000D03*
X33500Y-19000D03*
X33500Y-21000D03*
X33500Y-14500D03*
X33500Y-16500D03*
X38000Y-16500D03*
X38000Y-14500D03*
X38000Y-21000D03*
X38000Y-19000D03*
X42500Y-19000D03*
X42500Y-21000D03*
X42500Y-14500D03*
X42500Y-16500D03*
X47000Y-16500D03*
X47000Y-14500D03*
G54D13*
X62300Y-12575D03*
X64850Y-12575D03*
X62300Y-14325D03*
X64850Y-14325D03*
X56700Y-12575D03*
X59250Y-12575D03*
X56700Y-14325D03*
X59250Y-14325D03*
X51300Y-12575D03*
X53850Y-12575D03*
X51300Y-14325D03*
X53850Y-14325D03*
G54D15*
X96000Y-21000D03*
X96000Y-19000D03*
X96000Y-16500D03*
X96000Y-14500D03*
X100500Y-14500D03*
X100500Y-16500D03*
X100500Y-19000D03*
X100500Y-21000D03*
X87000Y-20900D03*
X87000Y-18900D03*
X87000Y-16500D03*
X87000Y-14500D03*
X91600Y-14500D03*
X91600Y-16500D03*
X91600Y-19000D03*
X91600Y-21000D03*
X82500Y-19000D03*
X82500Y-21000D03*
X82500Y-14500D03*
X82500Y-16500D03*
X78000Y-16500D03*
X78000Y-14500D03*
X78000Y-21000D03*
X78000Y-19000D03*
X73500Y-19000D03*
X73500Y-21000D03*
X73500Y-14500D03*
X73500Y-16500D03*
X69000Y-16500D03*
X69000Y-14500D03*
X69000Y-21000D03*
X69000Y-19000D03*
G54D16*
X55800Y-13400D03*
G54D17*
X54800Y-13400D03*
G54D18*
X55200Y-17551D03*
X55200Y-16449D03*
G54D19*
X65100Y-22800D03*
X61100Y-21800D03*
X65100Y-20800D03*
G54D14*
X56977Y-19250D03*
X56977Y-19750D03*
X56977Y-20250D03*
X56977Y-20750D03*
X56977Y-21250D03*
X56977Y-21750D03*
X56977Y-22250D03*
X56977Y-22750D03*
X59023Y-22750D03*
X59023Y-22250D03*
X59023Y-21750D03*
X59023Y-21250D03*
X59023Y-20750D03*
X59023Y-20250D03*
X59023Y-19750D03*
X59023Y-19250D03*
G54D12*
X12000Y-20100D03*
G54D13*
X12000Y-19100D03*
X12000Y-18100D03*
X12000Y-17100D03*
X12000Y-16100D03*
X12000Y-15100D03*
G54D12*
X104000Y-20100D03*
G54D13*
X104000Y-19100D03*
X104000Y-18100D03*
X104000Y-17100D03*
X104000Y-16100D03*
X104000Y-15100D03*
G54D20*
X103500Y-22500D03*
X12500Y-13000D03*
X12500Y-22500D03*
X103500Y-13000D03*
X71500Y-13000D03*
X44500Y-13000D03*
G54D14*
X59023Y-17550D03*
X59023Y-17050D03*
X59023Y-16550D03*
X59023Y-16050D03*
X56977Y-16050D03*
X56977Y-16550D03*
X56977Y-17050D03*
X56977Y-17550D03*
G54D12*
X60800Y-19200D03*
G54D13*
X61800Y-19200D03*
X62800Y-19200D03*
X63800Y-19200D03*
X64800Y-19200D03*
X65800Y-19200D03*
G54D12*
X60800Y-18200D03*
G54D13*
X61800Y-18200D03*
X62800Y-18200D03*
X63800Y-18200D03*
X64800Y-18200D03*
X65800Y-18200D03*
G54D12*
X60800Y-16200D03*
G54D13*
X61800Y-16200D03*
X62800Y-16200D03*
X63800Y-16200D03*
X64800Y-16200D03*
X65800Y-16200D03*
G54D12*
X60800Y-17200D03*
G54D13*
X61800Y-17200D03*
X62800Y-17200D03*
X63800Y-17200D03*
X64800Y-17200D03*
X65800Y-17200D03*
G54D20*
X71500Y-22500D03*
X44500Y-22500D03*
G54D21*
X56111Y-20228D03*
X54100Y-18008D03*
X51743Y-15081D03*
X57766Y-18512D03*
X55459Y-19967D03*
X49446Y-16832D03*
X49933Y-17666D03*
X55750Y-22871D03*
X54305Y-22661D03*
X55844Y-21312D03*
X54267Y-21069D03*
X45750Y-20434D03*
X56165Y-22115D03*
X54344Y-21555D03*
X49927Y-21782D03*
X58295Y-22089D03*
X54349Y-22009D03*
X67191Y-19221D03*
X73347Y-19798D03*
X59864Y-21740D03*
X72375Y-16608D03*
X60554Y-21223D03*
X54452Y-15696D03*
X54502Y-12482D03*
X50198Y-12438D03*
X13180Y-17134D03*
X53474Y-15777D03*
X53541Y-17340D03*
X51664Y-18273D03*
X54314Y-20319D03*
X53194Y-14352D03*
X54278Y-18795D03*
X59777Y-17082D03*
X52722Y-15255D03*
X56000Y-18700D03*
X56000Y-17000D03*
X51271Y-13187D03*
X53578Y-13450D03*
X50766Y-15282D03*
X59815Y-19200D03*
G54D11*
X56133Y-20250D02*
X56111Y-20228D01*
X56977Y-20250D02*
X56133Y-20250D01*
X52723Y-18200D02*
X53319Y-18200D01*
X53511Y-18008D02*
X54100Y-18008D01*
X53319Y-18200D02*
X53511Y-18008D01*
X52723Y-18700D02*
X53319Y-18700D01*
X50700Y-21100D02*
X51163Y-21100D01*
X56977Y-19750D02*
X57573Y-19750D01*
X53319Y-18700D02*
X53319Y-18925D01*
X51163Y-20876D02*
X51163Y-21100D01*
X51402Y-20637D02*
X51163Y-20876D01*
X51846Y-20637D02*
X51402Y-20637D01*
X52200Y-20283D02*
X51846Y-20637D01*
X52200Y-19840D02*
X52200Y-20283D01*
X53077Y-18963D02*
X52200Y-19840D01*
X53281Y-18963D02*
X53077Y-18963D01*
X53319Y-18925D02*
X53281Y-18963D01*
X57573Y-19056D02*
X57573Y-19750D01*
X56786Y-18269D02*
X57573Y-19056D01*
X55903Y-18269D02*
X56786Y-18269D01*
X55340Y-18832D02*
X55903Y-18269D01*
X54720Y-18832D02*
X55340Y-18832D01*
X54419Y-19133D02*
X54720Y-18832D01*
X53527Y-19133D02*
X54419Y-19133D01*
X53319Y-18925D02*
X53527Y-19133D01*
X51743Y-15730D02*
X51743Y-15081D01*
X51273Y-16200D02*
X51743Y-15730D01*
X58427Y-19173D02*
X58427Y-20750D01*
X57766Y-18512D02*
X58427Y-19173D01*
X59023Y-20750D02*
X58427Y-20750D01*
X50677Y-16200D02*
X51273Y-16200D01*
X49949Y-16832D02*
X50081Y-16700D01*
X49446Y-16832D02*
X49949Y-16832D01*
X50677Y-16700D02*
X50081Y-16700D01*
X56977Y-20750D02*
X56381Y-20750D01*
X56267Y-20636D02*
X56381Y-20750D01*
X56016Y-20636D02*
X56267Y-20636D01*
X55459Y-20079D02*
X56016Y-20636D01*
X55459Y-19967D02*
X55459Y-20079D01*
X50047Y-17666D02*
X50081Y-17700D01*
X49933Y-17666D02*
X50047Y-17666D01*
X50677Y-17700D02*
X50081Y-17700D01*
X50677Y-18700D02*
X51273Y-18700D01*
X51700Y-19127D02*
X51273Y-18700D01*
X51700Y-20100D02*
X51700Y-19127D01*
G54D22*
X55465Y-22586D02*
X55750Y-22871D01*
X55465Y-20957D02*
X55465Y-22586D01*
X55522Y-20900D02*
X55465Y-20957D01*
X55991Y-20900D02*
X55522Y-20900D01*
X56341Y-21250D02*
X55991Y-20900D01*
X23505Y-21000D02*
X20000Y-21000D01*
X32601Y-11904D02*
X23505Y-21000D01*
X44824Y-11904D02*
X32601Y-11904D01*
X45893Y-12973D02*
X44824Y-11904D01*
X45893Y-13053D02*
X45893Y-12973D01*
X45198Y-13748D02*
X45893Y-13053D01*
X45198Y-20607D02*
X45198Y-13748D01*
X47537Y-22946D02*
X45198Y-20607D01*
X54020Y-22946D02*
X47537Y-22946D01*
X54305Y-22661D02*
X54020Y-22946D01*
X56977Y-21250D02*
X56341Y-21250D01*
X56977Y-21750D02*
X56341Y-21750D01*
X55903Y-21312D02*
X55844Y-21312D01*
X56341Y-21750D02*
X55903Y-21312D01*
X46223Y-19961D02*
X45750Y-20434D01*
X48641Y-19961D02*
X46223Y-19961D01*
X50292Y-21612D02*
X48641Y-19961D01*
X52909Y-21612D02*
X50292Y-21612D01*
X53452Y-21069D02*
X52909Y-21612D01*
X54267Y-21069D02*
X53452Y-21069D01*
X56977Y-22250D02*
X56341Y-22250D01*
X56300Y-22250D02*
X56165Y-22115D01*
X56341Y-22250D02*
X56300Y-22250D01*
X50071Y-21926D02*
X49927Y-21782D01*
X53023Y-21926D02*
X50071Y-21926D01*
X53394Y-21555D02*
X53023Y-21926D01*
X54344Y-21555D02*
X53394Y-21555D01*
X57634Y-22750D02*
X58295Y-22089D01*
X56977Y-22750D02*
X57634Y-22750D01*
X53767Y-22591D02*
X54349Y-22009D01*
X48591Y-22591D02*
X53767Y-22591D01*
X47000Y-21000D02*
X48591Y-22591D01*
X68454Y-21546D02*
X69000Y-21000D01*
X63013Y-21546D02*
X68454Y-21546D01*
X61809Y-22750D02*
X63013Y-21546D01*
X59023Y-22750D02*
X61809Y-22750D01*
X66216Y-20196D02*
X67191Y-19221D01*
X63561Y-20196D02*
X66216Y-20196D01*
X61353Y-22404D02*
X63561Y-20196D01*
X59813Y-22404D02*
X61353Y-22404D01*
X59659Y-22250D02*
X59813Y-22404D01*
X74549Y-21000D02*
X78000Y-21000D01*
X73347Y-19798D02*
X74549Y-21000D01*
X59023Y-22250D02*
X59659Y-22250D01*
X59854Y-21750D02*
X59864Y-21740D01*
X59023Y-21750D02*
X59854Y-21750D01*
X86100Y-20000D02*
X87000Y-20900D01*
X75767Y-20000D02*
X86100Y-20000D01*
X72375Y-16608D02*
X75767Y-20000D01*
X59686Y-21223D02*
X60554Y-21223D01*
X59659Y-21250D02*
X59686Y-21223D01*
X59023Y-21250D02*
X59659Y-21250D01*
G54D11*
X53948Y-16200D02*
X52723Y-16200D01*
X54452Y-15696D02*
X53948Y-16200D01*
X50525Y-12111D02*
X50198Y-12438D01*
X54131Y-12111D02*
X50525Y-12111D01*
X54502Y-12482D02*
X54131Y-12111D01*
X13180Y-17920D02*
X12000Y-19100D01*
X13180Y-17134D02*
X13180Y-17920D01*
X60800Y-16200D02*
X60337Y-16200D01*
X52921Y-17002D02*
X52723Y-17200D01*
X53736Y-17002D02*
X52921Y-17002D01*
X55108Y-15630D02*
X53736Y-17002D01*
X59767Y-15630D02*
X55108Y-15630D01*
X60337Y-16200D02*
X59767Y-15630D01*
X53867Y-15777D02*
X53474Y-15777D01*
X54286Y-15358D02*
X53867Y-15777D01*
X60958Y-15358D02*
X54286Y-15358D01*
X61800Y-16200D02*
X60958Y-15358D01*
X53319Y-17562D02*
X53319Y-17700D01*
X53541Y-17340D02*
X53319Y-17562D01*
X52723Y-17700D02*
X53319Y-17700D01*
X60467Y-13867D02*
X62800Y-16200D01*
X60467Y-12951D02*
X60467Y-13867D01*
X59403Y-11887D02*
X60467Y-12951D01*
X49912Y-11887D02*
X59403Y-11887D01*
X48588Y-13211D02*
X49912Y-11887D01*
X48588Y-17284D02*
X48588Y-13211D01*
X49504Y-18200D02*
X48588Y-17284D01*
X50677Y-18200D02*
X49504Y-18200D01*
X50677Y-17200D02*
X51273Y-17200D01*
X51664Y-17591D02*
X51664Y-18273D01*
X51273Y-17200D02*
X51664Y-17591D01*
X53481Y-20319D02*
X54314Y-20319D01*
X52700Y-21100D02*
X53481Y-20319D01*
X52723Y-16700D02*
X52127Y-16700D01*
X52127Y-15203D02*
X52127Y-16700D01*
X52978Y-14352D02*
X52127Y-15203D01*
X53194Y-14352D02*
X52978Y-14352D01*
X55200Y-17551D02*
X55200Y-18400D01*
X56976Y-17551D02*
X56977Y-17550D01*
X55200Y-17551D02*
X56976Y-17551D01*
X54673Y-18400D02*
X54278Y-18795D01*
X55200Y-18400D02*
X54673Y-18400D01*
X59023Y-16550D02*
X59321Y-16550D01*
X59023Y-17050D02*
X59321Y-17050D01*
X59745Y-17050D02*
X59777Y-17082D01*
X59321Y-17050D02*
X59745Y-17050D01*
X59321Y-16550D02*
X59321Y-16700D01*
X59321Y-17050D02*
X59321Y-16700D01*
X64300Y-16700D02*
X64800Y-16200D01*
X59321Y-16700D02*
X64300Y-16700D01*
X65370Y-17666D02*
X67024Y-17666D01*
X65336Y-17632D02*
X65370Y-17666D01*
X65336Y-16736D02*
X65336Y-17632D01*
X64800Y-16200D02*
X65336Y-16736D01*
X67565Y-18207D02*
X67024Y-17666D01*
X67565Y-19730D02*
X67565Y-18207D01*
X66495Y-20800D02*
X67565Y-19730D01*
X65100Y-20800D02*
X66495Y-20800D01*
X67841Y-15566D02*
X64850Y-12575D01*
X67841Y-16849D02*
X67841Y-15566D01*
X67024Y-17666D02*
X67841Y-16849D01*
X57986Y-13839D02*
X55239Y-13839D01*
X59250Y-12575D02*
X57986Y-13839D01*
X55239Y-13839D02*
X54800Y-13400D01*
X52722Y-15258D02*
X52722Y-15255D01*
X52723Y-15258D02*
X52722Y-15258D01*
X53820Y-15258D02*
X52723Y-15258D01*
X55239Y-13839D02*
X53820Y-15258D01*
X52723Y-15258D02*
X52723Y-15700D01*
G54D23*
X103500Y-23400D02*
X102000Y-23400D01*
X103500Y-22500D02*
X103500Y-23400D01*
X54900Y-19250D02*
X54900Y-23400D01*
X56000Y-19250D02*
X54900Y-19250D01*
X44500Y-22500D02*
X44500Y-13000D01*
X44500Y-22500D02*
X44500Y-23400D01*
X12500Y-23400D02*
X14100Y-23400D01*
X12500Y-22500D02*
X12500Y-23400D01*
X44500Y-23400D02*
X54900Y-23400D01*
X69000Y-23400D02*
X71500Y-23400D01*
X68300Y-22000D02*
X69000Y-23400D01*
X64800Y-22000D02*
X68300Y-22000D01*
X63200Y-23400D02*
X64800Y-22000D01*
X54900Y-23400D02*
X63200Y-23400D01*
G54D11*
X56000Y-18700D02*
X56000Y-19250D01*
G54D23*
X56977Y-19250D02*
X56000Y-19250D01*
X102000Y-13000D02*
X103500Y-13000D01*
X102000Y-15100D02*
X102000Y-13000D01*
X14100Y-13000D02*
X14100Y-15100D01*
X12500Y-13000D02*
X14100Y-13000D01*
X14100Y-15100D02*
X12000Y-15100D01*
X14100Y-15100D02*
X14100Y-23400D01*
G54D11*
X56000Y-16550D02*
X56000Y-17000D01*
X56977Y-17050D02*
X56977Y-16550D01*
G54D23*
X14100Y-23400D02*
X44500Y-23400D01*
X104000Y-15100D02*
X104000Y-16100D01*
X12000Y-15100D02*
X12000Y-16100D01*
G54D11*
X56977Y-16550D02*
X56000Y-16550D01*
X55301Y-16550D02*
X55200Y-16449D01*
X56000Y-16550D02*
X55301Y-16550D01*
G54D23*
X104000Y-15100D02*
X102000Y-15100D01*
X102000Y-15100D02*
X102000Y-23400D01*
X71500Y-23400D02*
X102000Y-23400D01*
X71500Y-13000D02*
X71500Y-22500D01*
X71500Y-22500D02*
X71500Y-23400D01*
G54D11*
X51419Y-13039D02*
X51271Y-13187D01*
X54528Y-13039D02*
X51419Y-13039D01*
X54786Y-12781D02*
X54528Y-13039D01*
X54834Y-12781D02*
X54786Y-12781D01*
X55362Y-13309D02*
X54834Y-12781D01*
X55362Y-13400D02*
X55362Y-13309D01*
X55800Y-13400D02*
X55362Y-13400D01*
G54D22*
X91600Y-14500D02*
X87000Y-14500D01*
X100500Y-14500D02*
X96000Y-14500D01*
X78000Y-14500D02*
X82500Y-14500D01*
X29000Y-14500D02*
X24500Y-14500D01*
X38000Y-14500D02*
X33500Y-14500D01*
X20000Y-14500D02*
X15499Y-14500D01*
G54D11*
X52175Y-13450D02*
X53578Y-13450D01*
X51300Y-14325D02*
X52175Y-13450D01*
X59940Y-19750D02*
X59023Y-19750D01*
X61100Y-20910D02*
X59940Y-19750D01*
X61100Y-21800D02*
X61100Y-20910D01*
X51273Y-15439D02*
X51273Y-15700D01*
X51116Y-15282D02*
X51273Y-15439D01*
X50766Y-15282D02*
X51116Y-15282D01*
X50677Y-15700D02*
X51273Y-15700D01*
X59023Y-17550D02*
X58427Y-17550D01*
X58427Y-18654D02*
X59023Y-19250D01*
X58427Y-17550D02*
X58427Y-18654D01*
X59669Y-19200D02*
X59619Y-19250D01*
X59815Y-19200D02*
X59669Y-19200D01*
X59023Y-19250D02*
X59619Y-19250D01*
G54D10*
G36*
X104725Y-23625D02*
X104725Y-11875D01*
X59829Y-11875D01*
X60686Y-12731D01*
X60689Y-12734D01*
X60712Y-12764D01*
X60725Y-12779D01*
X60754Y-12833D01*
X60771Y-12891D01*
X60777Y-12951D01*
X60777Y-13739D01*
X62342Y-15304D01*
X62342Y-14875D01*
X62235Y-14873D01*
X62130Y-14850D01*
X62031Y-14807D01*
X61943Y-14745D01*
X61868Y-14668D01*
X61809Y-14577D01*
X61770Y-14477D01*
X61750Y-14371D01*
X61752Y-14264D01*
X61774Y-14158D01*
X61817Y-14059D01*
X61877Y-13971D01*
X61954Y-13895D01*
X62044Y-13836D01*
X62144Y-13796D01*
X62250Y-13776D01*
X62342Y-13776D01*
X62342Y-13125D01*
X62235Y-13123D01*
X62130Y-13100D01*
X62031Y-13057D01*
X61943Y-12995D01*
X61868Y-12918D01*
X61809Y-12827D01*
X61770Y-12727D01*
X61750Y-12621D01*
X61752Y-12514D01*
X61774Y-12408D01*
X61817Y-12309D01*
X61877Y-12221D01*
X61954Y-12145D01*
X62044Y-12086D01*
X62144Y-12046D01*
X62250Y-12026D01*
X62357Y-12026D01*
X62463Y-12048D01*
X62562Y-12090D01*
X62652Y-12150D01*
X62727Y-12226D01*
X62787Y-12316D01*
X62828Y-12415D01*
X62849Y-12521D01*
X62847Y-12644D01*
X62824Y-12749D01*
X62780Y-12847D01*
X62718Y-12935D01*
X62640Y-13010D01*
X62549Y-13067D01*
X62449Y-13106D01*
X62342Y-13125D01*
X62342Y-13776D01*
X62357Y-13776D01*
X62463Y-13798D01*
X62562Y-13840D01*
X62652Y-13900D01*
X62727Y-13976D01*
X62787Y-14066D01*
X62828Y-14165D01*
X62849Y-14271D01*
X62847Y-14394D01*
X62824Y-14499D01*
X62780Y-14597D01*
X62718Y-14685D01*
X62640Y-14760D01*
X62549Y-14817D01*
X62449Y-14856D01*
X62342Y-14875D01*
X62342Y-15304D01*
X62698Y-15660D01*
X62750Y-15651D01*
X62857Y-15651D01*
X62963Y-15673D01*
X63062Y-15715D01*
X63152Y-15775D01*
X63227Y-15851D01*
X63287Y-15941D01*
X63300Y-15972D01*
X63317Y-15934D01*
X63377Y-15846D01*
X63454Y-15770D01*
X63544Y-15711D01*
X63644Y-15671D01*
X63750Y-15651D01*
X63857Y-15651D01*
X63963Y-15673D01*
X64062Y-15715D01*
X64152Y-15775D01*
X64227Y-15851D01*
X64287Y-15941D01*
X64300Y-15972D01*
X64317Y-15934D01*
X64377Y-15846D01*
X64454Y-15770D01*
X64544Y-15711D01*
X64644Y-15671D01*
X64750Y-15651D01*
X64857Y-15651D01*
X64892Y-15658D01*
X64892Y-14875D01*
X64785Y-14873D01*
X64680Y-14850D01*
X64581Y-14807D01*
X64493Y-14745D01*
X64418Y-14668D01*
X64359Y-14577D01*
X64320Y-14477D01*
X64300Y-14371D01*
X64302Y-14264D01*
X64324Y-14158D01*
X64367Y-14059D01*
X64427Y-13971D01*
X64504Y-13895D01*
X64594Y-13836D01*
X64694Y-13796D01*
X64800Y-13776D01*
X64907Y-13776D01*
X65013Y-13798D01*
X65112Y-13840D01*
X65202Y-13900D01*
X65277Y-13976D01*
X65337Y-14066D01*
X65378Y-14165D01*
X65399Y-14271D01*
X65397Y-14394D01*
X65374Y-14499D01*
X65330Y-14597D01*
X65268Y-14685D01*
X65190Y-14760D01*
X65099Y-14817D01*
X64999Y-14856D01*
X64892Y-14875D01*
X64892Y-15658D01*
X64963Y-15673D01*
X65062Y-15715D01*
X65152Y-15775D01*
X65227Y-15851D01*
X65287Y-15941D01*
X65300Y-15972D01*
X65317Y-15934D01*
X65377Y-15846D01*
X65454Y-15770D01*
X65544Y-15711D01*
X65644Y-15671D01*
X65750Y-15651D01*
X65857Y-15651D01*
X65963Y-15673D01*
X66062Y-15715D01*
X66152Y-15775D01*
X66227Y-15851D01*
X66287Y-15941D01*
X66328Y-16040D01*
X66349Y-16146D01*
X66347Y-16269D01*
X66324Y-16374D01*
X66280Y-16472D01*
X66218Y-16560D01*
X66140Y-16635D01*
X66049Y-16692D01*
X66027Y-16700D01*
X66062Y-16715D01*
X66152Y-16775D01*
X66227Y-16851D01*
X66287Y-16941D01*
X66328Y-17040D01*
X66349Y-17146D01*
X66347Y-17269D01*
X66327Y-17356D01*
X66896Y-17356D01*
X67531Y-16721D01*
X67531Y-15694D01*
X64951Y-13114D01*
X64892Y-13125D01*
X64785Y-13123D01*
X64680Y-13100D01*
X64581Y-13057D01*
X64493Y-12995D01*
X64418Y-12918D01*
X64359Y-12827D01*
X64320Y-12727D01*
X64300Y-12621D01*
X64302Y-12514D01*
X64324Y-12408D01*
X64367Y-12309D01*
X64427Y-12221D01*
X64504Y-12145D01*
X64594Y-12086D01*
X64694Y-12046D01*
X64800Y-12026D01*
X64907Y-12026D01*
X65013Y-12048D01*
X65112Y-12090D01*
X65202Y-12150D01*
X65277Y-12226D01*
X65337Y-12316D01*
X65378Y-12415D01*
X65399Y-12521D01*
X65397Y-12644D01*
X65389Y-12676D01*
X68060Y-15346D01*
X68062Y-15349D01*
X68069Y-15358D01*
X68099Y-15394D01*
X68128Y-15448D01*
X68145Y-15506D01*
X68151Y-15566D01*
X68151Y-16853D01*
X68146Y-16889D01*
X68145Y-16910D01*
X68127Y-16969D01*
X68126Y-16970D01*
X68126Y-16971D01*
X68097Y-17024D01*
X68071Y-17053D01*
X68060Y-17068D01*
X68058Y-17070D01*
X67461Y-17665D01*
X67787Y-17991D01*
X67794Y-17999D01*
X67823Y-18035D01*
X67852Y-18089D01*
X67852Y-18091D01*
X67853Y-18092D01*
X67870Y-18150D01*
X67873Y-18191D01*
X67875Y-18207D01*
X67875Y-19734D01*
X67873Y-19747D01*
X67869Y-19791D01*
X67851Y-19850D01*
X67850Y-19851D01*
X67850Y-19852D01*
X67821Y-19905D01*
X67795Y-19935D01*
X67784Y-19949D01*
X66711Y-21022D01*
X66691Y-21038D01*
X66667Y-21058D01*
X66665Y-21058D01*
X66664Y-21060D01*
X66643Y-21070D01*
X66613Y-21087D01*
X66610Y-21087D01*
X66610Y-21088D01*
X66552Y-21105D01*
X66509Y-21108D01*
X66495Y-21110D01*
X65673Y-21110D01*
X65668Y-21122D01*
X65616Y-21196D01*
X68274Y-21196D01*
X68250Y-21063D01*
X68252Y-20916D01*
X68283Y-20772D01*
X68341Y-20637D01*
X68424Y-20516D01*
X68529Y-20413D01*
X68652Y-20333D01*
X68788Y-20278D01*
X68932Y-20251D01*
X69057Y-20251D01*
X69057Y-19750D01*
X68910Y-19747D01*
X68767Y-19716D01*
X68632Y-19657D01*
X68512Y-19573D01*
X68410Y-19467D01*
X68330Y-19344D01*
X68276Y-19207D01*
X68250Y-19063D01*
X68252Y-18916D01*
X68283Y-18772D01*
X68341Y-18637D01*
X68424Y-18516D01*
X68529Y-18413D01*
X68652Y-18333D01*
X68788Y-18278D01*
X68932Y-18251D01*
X69057Y-18251D01*
X69057Y-17250D01*
X68910Y-17247D01*
X68767Y-17216D01*
X68632Y-17157D01*
X68512Y-17073D01*
X68410Y-16967D01*
X68330Y-16844D01*
X68276Y-16707D01*
X68250Y-16563D01*
X68252Y-16416D01*
X68283Y-16272D01*
X68341Y-16137D01*
X68424Y-16016D01*
X68529Y-15913D01*
X68652Y-15833D01*
X68788Y-15778D01*
X68932Y-15751D01*
X69057Y-15751D01*
X69057Y-15250D01*
X68910Y-15247D01*
X68767Y-15216D01*
X68632Y-15157D01*
X68512Y-15073D01*
X68410Y-14967D01*
X68330Y-14844D01*
X68276Y-14707D01*
X68250Y-14563D01*
X68252Y-14416D01*
X68283Y-14272D01*
X68341Y-14137D01*
X68424Y-14016D01*
X68529Y-13913D01*
X68652Y-13833D01*
X68788Y-13778D01*
X68932Y-13751D01*
X69079Y-13752D01*
X69223Y-13781D01*
X69358Y-13838D01*
X69480Y-13920D01*
X69583Y-14025D01*
X69665Y-14147D01*
X69721Y-14283D01*
X69749Y-14427D01*
X69747Y-14595D01*
X69714Y-14738D01*
X69654Y-14872D01*
X69569Y-14992D01*
X69463Y-15093D01*
X69339Y-15172D01*
X69202Y-15225D01*
X69057Y-15250D01*
X69057Y-15751D01*
X69079Y-15752D01*
X69223Y-15781D01*
X69358Y-15838D01*
X69480Y-15920D01*
X69583Y-16025D01*
X69665Y-16147D01*
X69721Y-16283D01*
X69749Y-16427D01*
X69747Y-16595D01*
X69714Y-16738D01*
X69654Y-16872D01*
X69569Y-16992D01*
X69463Y-17093D01*
X69339Y-17172D01*
X69202Y-17225D01*
X69057Y-17250D01*
X69057Y-18251D01*
X69079Y-18252D01*
X69223Y-18281D01*
X69358Y-18338D01*
X69480Y-18420D01*
X69583Y-18525D01*
X69665Y-18647D01*
X69721Y-18783D01*
X69749Y-18927D01*
X69747Y-19095D01*
X69714Y-19238D01*
X69654Y-19372D01*
X69569Y-19492D01*
X69463Y-19593D01*
X69339Y-19672D01*
X69202Y-19725D01*
X69057Y-19750D01*
X69057Y-20251D01*
X69079Y-20252D01*
X69223Y-20281D01*
X69358Y-20338D01*
X69480Y-20420D01*
X69583Y-20525D01*
X69665Y-20647D01*
X69721Y-20783D01*
X69749Y-20927D01*
X69747Y-21095D01*
X69714Y-21238D01*
X69654Y-21372D01*
X69569Y-21492D01*
X69463Y-21593D01*
X69339Y-21672D01*
X69202Y-21725D01*
X69057Y-21750D01*
X68910Y-21747D01*
X68776Y-21717D01*
X68705Y-21788D01*
X68701Y-21794D01*
X68699Y-21795D01*
X68698Y-21797D01*
X68688Y-21804D01*
X68648Y-21838D01*
X68587Y-21870D01*
X68584Y-21870D01*
X68584Y-21871D01*
X68556Y-21878D01*
X68522Y-21889D01*
X68521Y-21889D01*
X68518Y-21890D01*
X68477Y-21893D01*
X68454Y-21896D01*
X63157Y-21896D01*
X62060Y-22992D01*
X62056Y-22998D01*
X62054Y-22999D01*
X62053Y-23001D01*
X62043Y-23008D01*
X62003Y-23042D01*
X61942Y-23074D01*
X61939Y-23074D01*
X61939Y-23075D01*
X61911Y-23083D01*
X61877Y-23093D01*
X61876Y-23093D01*
X61873Y-23094D01*
X61832Y-23097D01*
X61809Y-23100D01*
X59549Y-23100D01*
X59528Y-23109D01*
X59480Y-23118D01*
X58563Y-23118D01*
X58515Y-23108D01*
X58470Y-23089D01*
X58430Y-23061D01*
X58395Y-23026D01*
X58368Y-22985D01*
X58349Y-22940D01*
X58340Y-22892D01*
X58340Y-22605D01*
X58350Y-22557D01*
X58369Y-22512D01*
X58372Y-22506D01*
X58371Y-22506D01*
X57885Y-22992D01*
X57881Y-22998D01*
X57879Y-22999D01*
X57878Y-23001D01*
X57868Y-23008D01*
X57828Y-23042D01*
X57767Y-23074D01*
X57764Y-23074D01*
X57764Y-23075D01*
X57736Y-23082D01*
X57702Y-23093D01*
X57701Y-23093D01*
X57698Y-23094D01*
X57657Y-23097D01*
X57634Y-23100D01*
X57503Y-23100D01*
X57482Y-23109D01*
X57434Y-23118D01*
X56517Y-23118D01*
X56469Y-23108D01*
X56424Y-23089D01*
X56384Y-23061D01*
X56349Y-23026D01*
X56322Y-22985D01*
X56303Y-22940D01*
X56294Y-22892D01*
X56294Y-22605D01*
X56295Y-22600D01*
X56251Y-22594D01*
X56230Y-22593D01*
X56222Y-22590D01*
X56162Y-22572D01*
X56102Y-22539D01*
X56097Y-22535D01*
X56033Y-22521D01*
X55957Y-22488D01*
X55888Y-22440D01*
X55831Y-22381D01*
X55815Y-22356D01*
X55815Y-22441D01*
X55826Y-22452D01*
X55876Y-22463D01*
X55953Y-22495D01*
X56022Y-22542D01*
X56081Y-22601D01*
X56127Y-22670D01*
X56159Y-22747D01*
X56175Y-22829D01*
X56174Y-22924D01*
X56155Y-23005D01*
X56121Y-23082D01*
X56074Y-23150D01*
X56013Y-23207D01*
X55943Y-23252D01*
X55865Y-23282D01*
X55783Y-23297D01*
X55700Y-23295D01*
X55618Y-23277D01*
X55542Y-23244D01*
X55473Y-23196D01*
X55416Y-23137D01*
X55370Y-23067D01*
X55340Y-22989D01*
X55331Y-22947D01*
X55222Y-22837D01*
X55217Y-22833D01*
X55214Y-22830D01*
X55206Y-22820D01*
X55173Y-22780D01*
X55141Y-22719D01*
X55140Y-22716D01*
X55132Y-22688D01*
X55122Y-22654D01*
X55121Y-22653D01*
X55121Y-22650D01*
X55117Y-22610D01*
X55115Y-22586D01*
X55115Y-20952D01*
X55116Y-20940D01*
X55121Y-20888D01*
X55142Y-20822D01*
X55142Y-20821D01*
X55143Y-20819D01*
X55176Y-20759D01*
X55220Y-20707D01*
X55278Y-20649D01*
X55291Y-20638D01*
X55328Y-20608D01*
X55389Y-20576D01*
X55389Y-20575D01*
X55391Y-20575D01*
X55457Y-20556D01*
X55494Y-20552D01*
X55305Y-20363D01*
X55251Y-20340D01*
X55182Y-20292D01*
X55125Y-20233D01*
X55079Y-20163D01*
X55049Y-20085D01*
X55033Y-20003D01*
X55035Y-19920D01*
X55052Y-19838D01*
X55085Y-19762D01*
X55132Y-19693D01*
X55191Y-19634D01*
X55261Y-19589D01*
X55338Y-19557D01*
X55420Y-19542D01*
X55503Y-19542D01*
X55585Y-19559D01*
X55662Y-19591D01*
X55731Y-19638D01*
X55790Y-19697D01*
X55836Y-19766D01*
X55868Y-19843D01*
X55874Y-19874D01*
X55913Y-19850D01*
X55990Y-19818D01*
X56072Y-19803D01*
X56155Y-19803D01*
X56237Y-19820D01*
X56294Y-19843D01*
X56294Y-19605D01*
X56304Y-19557D01*
X56323Y-19512D01*
X56331Y-19499D01*
X56322Y-19485D01*
X56303Y-19440D01*
X56294Y-19392D01*
X56294Y-19362D01*
X56356Y-19300D01*
X56927Y-19300D01*
X57027Y-19300D01*
X57027Y-19200D01*
X56927Y-19200D01*
X56356Y-19200D01*
X56294Y-19138D01*
X56294Y-19108D01*
X56303Y-19060D01*
X56322Y-19015D01*
X56349Y-18974D01*
X56384Y-18939D01*
X56424Y-18911D01*
X56469Y-18892D01*
X56517Y-18882D01*
X56865Y-18882D01*
X56927Y-18944D01*
X56927Y-18932D01*
X57010Y-18932D01*
X56657Y-18579D01*
X56031Y-18579D01*
X55556Y-19054D01*
X55536Y-19069D01*
X55512Y-19090D01*
X55510Y-19090D01*
X55509Y-19092D01*
X55487Y-19102D01*
X55458Y-19119D01*
X55455Y-19119D01*
X55455Y-19120D01*
X55397Y-19137D01*
X55355Y-19140D01*
X55340Y-19142D01*
X54848Y-19142D01*
X54635Y-19355D01*
X54615Y-19370D01*
X54591Y-19391D01*
X54589Y-19391D01*
X54588Y-19393D01*
X54566Y-19403D01*
X54537Y-19420D01*
X54534Y-19420D01*
X54534Y-19421D01*
X54476Y-19438D01*
X54433Y-19441D01*
X54419Y-19443D01*
X53523Y-19443D01*
X53509Y-19441D01*
X53466Y-19437D01*
X53407Y-19419D01*
X53405Y-19418D01*
X53352Y-19389D01*
X53322Y-19363D01*
X53308Y-19352D01*
X53229Y-19273D01*
X53204Y-19273D01*
X52892Y-19585D01*
X52962Y-19615D01*
X53052Y-19675D01*
X53127Y-19751D01*
X53187Y-19841D01*
X53228Y-19940D01*
X53249Y-20046D01*
X53247Y-20113D01*
X53261Y-20100D01*
X53264Y-20097D01*
X53285Y-20080D01*
X53309Y-20061D01*
X53363Y-20032D01*
X53421Y-20015D01*
X53481Y-20009D01*
X54023Y-20009D01*
X54046Y-19986D01*
X54116Y-19941D01*
X54193Y-19909D01*
X54275Y-19894D01*
X54358Y-19894D01*
X54440Y-19911D01*
X54517Y-19943D01*
X54586Y-19990D01*
X54645Y-20049D01*
X54691Y-20118D01*
X54723Y-20195D01*
X54739Y-20277D01*
X54738Y-20372D01*
X54719Y-20453D01*
X54685Y-20530D01*
X54638Y-20598D01*
X54577Y-20655D01*
X54507Y-20700D01*
X54489Y-20706D01*
X54539Y-20740D01*
X54598Y-20799D01*
X54644Y-20868D01*
X54676Y-20945D01*
X54692Y-21027D01*
X54691Y-21122D01*
X54672Y-21203D01*
X54647Y-21257D01*
X54675Y-21285D01*
X54721Y-21354D01*
X54753Y-21431D01*
X54769Y-21513D01*
X54768Y-21608D01*
X54749Y-21689D01*
X54715Y-21766D01*
X54706Y-21778D01*
X54726Y-21808D01*
X54758Y-21885D01*
X54774Y-21967D01*
X54773Y-22062D01*
X54754Y-22143D01*
X54720Y-22220D01*
X54673Y-22288D01*
X54612Y-22345D01*
X54598Y-22353D01*
X54636Y-22391D01*
X54682Y-22460D01*
X54714Y-22537D01*
X54730Y-22619D01*
X54729Y-22714D01*
X54710Y-22795D01*
X54676Y-22872D01*
X54629Y-22940D01*
X54568Y-22997D01*
X54498Y-23042D01*
X54420Y-23072D01*
X54381Y-23079D01*
X54271Y-23188D01*
X54267Y-23194D01*
X54265Y-23195D01*
X54264Y-23197D01*
X54254Y-23204D01*
X54214Y-23238D01*
X54153Y-23270D01*
X54150Y-23270D01*
X54150Y-23271D01*
X54122Y-23278D01*
X54088Y-23289D01*
X54087Y-23289D01*
X54084Y-23290D01*
X54043Y-23293D01*
X54020Y-23296D01*
X47532Y-23296D01*
X47488Y-23290D01*
X47467Y-23289D01*
X47401Y-23269D01*
X47399Y-23268D01*
X47339Y-23235D01*
X47297Y-23200D01*
X47289Y-23193D01*
X44955Y-20858D01*
X44950Y-20854D01*
X44947Y-20851D01*
X44939Y-20841D01*
X44906Y-20801D01*
X44874Y-20740D01*
X44873Y-20737D01*
X44865Y-20709D01*
X44855Y-20675D01*
X44854Y-20674D01*
X44854Y-20671D01*
X44850Y-20630D01*
X44848Y-20607D01*
X44848Y-13984D01*
X44709Y-14027D01*
X44506Y-14048D01*
X44302Y-14030D01*
X44105Y-13972D01*
X43924Y-13877D01*
X43838Y-13733D01*
X44500Y-13071D01*
X44941Y-13512D01*
X44941Y-13511D01*
X44500Y-13071D01*
X44571Y-13000D01*
X45010Y-13440D01*
X45011Y-13440D01*
X44571Y-13000D01*
X44500Y-12929D01*
X44429Y-13000D01*
X43767Y-13662D01*
X43767Y-21838D01*
X44429Y-22500D01*
X43767Y-23162D01*
X43623Y-23076D01*
X43533Y-22905D01*
X43473Y-22709D01*
X43452Y-22506D01*
X43470Y-22302D01*
X43528Y-22105D01*
X43623Y-21924D01*
X43767Y-21838D01*
X43767Y-13662D01*
X43623Y-13576D01*
X43533Y-13405D01*
X43473Y-13209D01*
X43452Y-13006D01*
X43470Y-12802D01*
X43528Y-12605D01*
X43623Y-12424D01*
X43767Y-12338D01*
X44429Y-13000D01*
X43755Y-12325D01*
X43825Y-12255D01*
X44500Y-12929D01*
X43838Y-12267D01*
X43845Y-12254D01*
X32745Y-12254D01*
X29219Y-15780D01*
X29223Y-15781D01*
X29358Y-15838D01*
X29480Y-15920D01*
X29583Y-16025D01*
X29665Y-16147D01*
X29721Y-16283D01*
X29749Y-16427D01*
X29747Y-16595D01*
X29714Y-16738D01*
X29654Y-16872D01*
X29569Y-16992D01*
X29463Y-17093D01*
X29339Y-17172D01*
X29202Y-17225D01*
X29057Y-17250D01*
X28910Y-17247D01*
X28767Y-17216D01*
X28632Y-17157D01*
X28512Y-17073D01*
X28410Y-16967D01*
X28330Y-16844D01*
X28280Y-16718D01*
X24718Y-20280D01*
X24723Y-20281D01*
X24858Y-20338D01*
X24980Y-20420D01*
X25083Y-20525D01*
X25165Y-20647D01*
X25221Y-20783D01*
X25249Y-20927D01*
X25247Y-21095D01*
X25214Y-21238D01*
X25154Y-21372D01*
X25069Y-21492D01*
X24963Y-21593D01*
X24839Y-21672D01*
X24702Y-21725D01*
X24557Y-21750D01*
X24410Y-21747D01*
X24267Y-21716D01*
X24132Y-21657D01*
X24012Y-21573D01*
X23910Y-21467D01*
X23830Y-21344D01*
X23780Y-21218D01*
X23756Y-21242D01*
X23752Y-21248D01*
X23750Y-21249D01*
X23749Y-21251D01*
X23739Y-21258D01*
X23699Y-21292D01*
X23638Y-21324D01*
X23635Y-21324D01*
X23635Y-21325D01*
X23607Y-21333D01*
X23573Y-21343D01*
X23572Y-21343D01*
X23569Y-21344D01*
X23529Y-21347D01*
X23505Y-21350D01*
X20663Y-21350D01*
X20654Y-21372D01*
X20569Y-21492D01*
X20463Y-21593D01*
X20339Y-21672D01*
X20202Y-21725D01*
X20057Y-21750D01*
X19910Y-21747D01*
X19767Y-21716D01*
X19632Y-21657D01*
X19512Y-21573D01*
X19410Y-21467D01*
X19330Y-21344D01*
X19276Y-21207D01*
X19250Y-21063D01*
X19252Y-20916D01*
X19283Y-20772D01*
X19341Y-20637D01*
X19424Y-20516D01*
X19529Y-20413D01*
X19652Y-20333D01*
X19788Y-20278D01*
X19932Y-20251D01*
X20057Y-20251D01*
X20057Y-19750D01*
X19910Y-19747D01*
X19767Y-19716D01*
X19632Y-19657D01*
X19512Y-19573D01*
X19410Y-19467D01*
X19330Y-19344D01*
X19276Y-19207D01*
X19250Y-19063D01*
X19252Y-18916D01*
X19283Y-18772D01*
X19341Y-18637D01*
X19424Y-18516D01*
X19529Y-18413D01*
X19652Y-18333D01*
X19788Y-18278D01*
X19932Y-18251D01*
X20057Y-18251D01*
X20057Y-17250D01*
X19910Y-17247D01*
X19767Y-17216D01*
X19632Y-17157D01*
X19512Y-17073D01*
X19410Y-16967D01*
X19330Y-16844D01*
X19276Y-16707D01*
X19250Y-16563D01*
X19252Y-16416D01*
X19283Y-16272D01*
X19341Y-16137D01*
X19424Y-16016D01*
X19529Y-15913D01*
X19652Y-15833D01*
X19788Y-15778D01*
X19932Y-15751D01*
X20057Y-15751D01*
X20057Y-15250D01*
X19910Y-15247D01*
X19767Y-15216D01*
X19632Y-15157D01*
X19512Y-15073D01*
X19410Y-14967D01*
X19333Y-14850D01*
X16162Y-14850D01*
X16153Y-14872D01*
X16068Y-14992D01*
X15962Y-15093D01*
X15838Y-15172D01*
X15701Y-15225D01*
X15556Y-15250D01*
X15409Y-15247D01*
X15266Y-15216D01*
X15131Y-15157D01*
X15011Y-15073D01*
X14909Y-14967D01*
X14829Y-14844D01*
X14775Y-14707D01*
X14749Y-14563D01*
X14751Y-14416D01*
X14782Y-14272D01*
X14840Y-14137D01*
X14923Y-14016D01*
X15028Y-13913D01*
X15151Y-13833D01*
X15287Y-13778D01*
X15431Y-13751D01*
X15578Y-13752D01*
X15722Y-13781D01*
X15857Y-13838D01*
X15979Y-13920D01*
X16082Y-14025D01*
X16164Y-14147D01*
X16165Y-14150D01*
X19335Y-14150D01*
X19341Y-14137D01*
X19424Y-14016D01*
X19529Y-13913D01*
X19652Y-13833D01*
X19788Y-13778D01*
X19932Y-13751D01*
X20079Y-13752D01*
X20223Y-13781D01*
X20358Y-13838D01*
X20480Y-13920D01*
X20583Y-14025D01*
X20665Y-14147D01*
X20721Y-14283D01*
X20749Y-14427D01*
X20747Y-14595D01*
X20714Y-14738D01*
X20654Y-14872D01*
X20569Y-14992D01*
X20463Y-15093D01*
X20339Y-15172D01*
X20202Y-15225D01*
X20057Y-15250D01*
X20057Y-15751D01*
X20079Y-15752D01*
X20223Y-15781D01*
X20358Y-15838D01*
X20480Y-15920D01*
X20583Y-16025D01*
X20665Y-16147D01*
X20721Y-16283D01*
X20749Y-16427D01*
X20747Y-16595D01*
X20714Y-16738D01*
X20654Y-16872D01*
X20569Y-16992D01*
X20463Y-17093D01*
X20339Y-17172D01*
X20202Y-17225D01*
X20057Y-17250D01*
X20057Y-18251D01*
X20079Y-18252D01*
X20223Y-18281D01*
X20358Y-18338D01*
X20480Y-18420D01*
X20583Y-18525D01*
X20665Y-18647D01*
X20721Y-18783D01*
X20749Y-18927D01*
X20747Y-19095D01*
X20714Y-19238D01*
X20654Y-19372D01*
X20569Y-19492D01*
X20463Y-19593D01*
X20339Y-19672D01*
X20202Y-19725D01*
X20057Y-19750D01*
X20057Y-20251D01*
X20079Y-20252D01*
X20223Y-20281D01*
X20358Y-20338D01*
X20480Y-20420D01*
X20583Y-20525D01*
X20665Y-20647D01*
X20666Y-20650D01*
X23360Y-20650D01*
X24289Y-19720D01*
X24267Y-19716D01*
X24132Y-19657D01*
X24012Y-19573D01*
X23910Y-19467D01*
X23830Y-19344D01*
X23776Y-19207D01*
X23750Y-19063D01*
X23752Y-18916D01*
X23783Y-18772D01*
X23841Y-18637D01*
X23924Y-18516D01*
X24029Y-18413D01*
X24152Y-18333D01*
X24288Y-18278D01*
X24432Y-18251D01*
X24557Y-18251D01*
X24557Y-17250D01*
X24410Y-17247D01*
X24267Y-17216D01*
X24132Y-17157D01*
X24012Y-17073D01*
X23910Y-16967D01*
X23830Y-16844D01*
X23776Y-16707D01*
X23750Y-16563D01*
X23752Y-16416D01*
X23783Y-16272D01*
X23841Y-16137D01*
X23924Y-16016D01*
X24029Y-15913D01*
X24152Y-15833D01*
X24288Y-15778D01*
X24432Y-15751D01*
X24579Y-15752D01*
X24723Y-15781D01*
X24858Y-15838D01*
X24980Y-15920D01*
X25083Y-16025D01*
X25165Y-16147D01*
X25221Y-16283D01*
X25249Y-16427D01*
X25247Y-16595D01*
X25214Y-16738D01*
X25154Y-16872D01*
X25069Y-16992D01*
X24963Y-17093D01*
X24839Y-17172D01*
X24702Y-17225D01*
X24557Y-17250D01*
X24557Y-18251D01*
X24579Y-18252D01*
X24723Y-18281D01*
X24858Y-18338D01*
X24980Y-18420D01*
X25083Y-18525D01*
X25165Y-18647D01*
X25221Y-18783D01*
X25222Y-18788D01*
X28789Y-15220D01*
X28767Y-15216D01*
X28632Y-15157D01*
X28512Y-15073D01*
X28410Y-14967D01*
X28333Y-14850D01*
X25163Y-14850D01*
X25154Y-14872D01*
X25069Y-14992D01*
X24963Y-15093D01*
X24839Y-15172D01*
X24702Y-15225D01*
X24557Y-15250D01*
X24410Y-15247D01*
X24267Y-15216D01*
X24132Y-15157D01*
X24012Y-15073D01*
X23910Y-14967D01*
X23830Y-14844D01*
X23776Y-14707D01*
X23750Y-14563D01*
X23752Y-14416D01*
X23783Y-14272D01*
X23841Y-14137D01*
X23924Y-14016D01*
X24029Y-13913D01*
X24152Y-13833D01*
X24288Y-13778D01*
X24432Y-13751D01*
X24579Y-13752D01*
X24723Y-13781D01*
X24858Y-13838D01*
X24980Y-13920D01*
X25083Y-14025D01*
X25165Y-14147D01*
X25166Y-14150D01*
X28335Y-14150D01*
X28341Y-14137D01*
X28424Y-14016D01*
X28529Y-13913D01*
X28652Y-13833D01*
X28788Y-13778D01*
X28932Y-13751D01*
X29079Y-13752D01*
X29223Y-13781D01*
X29358Y-13838D01*
X29480Y-13920D01*
X29583Y-14025D01*
X29665Y-14147D01*
X29721Y-14283D01*
X29722Y-14288D01*
X32135Y-11875D01*
X27524Y-11875D01*
X27524Y-12810D01*
X16957Y-12810D01*
X16957Y-11875D01*
X11275Y-11875D01*
X11275Y-23625D01*
X11767Y-23625D01*
X11767Y-23162D01*
X11673Y-23105D01*
X11623Y-23076D01*
X11533Y-22905D01*
X11473Y-22709D01*
X11452Y-22506D01*
X11470Y-22302D01*
X11528Y-22105D01*
X11623Y-21924D01*
X11673Y-21894D01*
X11673Y-20650D01*
X11625Y-20640D01*
X11580Y-20621D01*
X11540Y-20593D01*
X11505Y-20558D01*
X11478Y-20517D01*
X11459Y-20472D01*
X11450Y-20424D01*
X11450Y-19773D01*
X11460Y-19725D01*
X11479Y-19680D01*
X11507Y-19640D01*
X11542Y-19605D01*
X11583Y-19578D01*
X11628Y-19559D01*
X11676Y-19550D01*
X11685Y-19550D01*
X11643Y-19520D01*
X11568Y-19443D01*
X11509Y-19352D01*
X11470Y-19252D01*
X11450Y-19146D01*
X11452Y-19039D01*
X11474Y-18933D01*
X11517Y-18834D01*
X11577Y-18746D01*
X11654Y-18670D01*
X11744Y-18611D01*
X11771Y-18599D01*
X11731Y-18582D01*
X11643Y-18520D01*
X11568Y-18443D01*
X11509Y-18352D01*
X11470Y-18252D01*
X11450Y-18146D01*
X11452Y-18039D01*
X11474Y-17933D01*
X11517Y-17834D01*
X11577Y-17746D01*
X11654Y-17670D01*
X11744Y-17611D01*
X11771Y-17599D01*
X11731Y-17582D01*
X11643Y-17520D01*
X11568Y-17443D01*
X11509Y-17352D01*
X11470Y-17252D01*
X11450Y-17146D01*
X11452Y-17039D01*
X11474Y-16933D01*
X11517Y-16834D01*
X11577Y-16746D01*
X11622Y-16701D01*
X11622Y-16408D01*
X11528Y-16381D01*
X11503Y-16334D01*
X11467Y-16233D01*
X11451Y-16127D01*
X11456Y-16020D01*
X11482Y-15916D01*
X11528Y-15819D01*
X11622Y-15792D01*
X11622Y-15408D01*
X11528Y-15381D01*
X11503Y-15334D01*
X11467Y-15233D01*
X11451Y-15127D01*
X11456Y-15020D01*
X11482Y-14916D01*
X11528Y-14819D01*
X11622Y-14792D01*
X11929Y-15100D01*
X11622Y-15408D01*
X11622Y-15792D01*
X11929Y-16100D01*
X11622Y-16408D01*
X11622Y-16701D01*
X11654Y-16670D01*
X11744Y-16611D01*
X11775Y-16598D01*
X11719Y-16572D01*
X11692Y-16478D01*
X12000Y-16171D01*
X12000Y-16029D01*
X11692Y-15722D01*
X11719Y-15628D01*
X11766Y-15603D01*
X11776Y-15599D01*
X11719Y-15572D01*
X11692Y-15478D01*
X12000Y-15171D01*
X12000Y-15029D01*
X11692Y-14722D01*
X11719Y-14628D01*
X11766Y-14603D01*
X11767Y-14602D01*
X11767Y-13662D01*
X11623Y-13576D01*
X11533Y-13405D01*
X11473Y-13209D01*
X11452Y-13006D01*
X11470Y-12802D01*
X11528Y-12605D01*
X11623Y-12424D01*
X11767Y-12338D01*
X12429Y-13000D01*
X11767Y-13662D01*
X11767Y-14602D01*
X11867Y-14567D01*
X11973Y-14551D01*
X12080Y-14556D01*
X12184Y-14582D01*
X12281Y-14628D01*
X12308Y-14722D01*
X12000Y-15029D01*
X12000Y-15171D01*
X12308Y-15478D01*
X12281Y-15572D01*
X12234Y-15597D01*
X12223Y-15600D01*
X12281Y-15628D01*
X12308Y-15722D01*
X12000Y-16029D01*
X12000Y-16171D01*
X12308Y-16478D01*
X12281Y-16572D01*
X12234Y-16597D01*
X12226Y-16599D01*
X12262Y-16615D01*
X12352Y-16675D01*
X12378Y-16701D01*
X12378Y-16408D01*
X12071Y-16100D01*
X12378Y-15792D01*
X12378Y-15408D01*
X12071Y-15100D01*
X12378Y-14792D01*
X12472Y-14819D01*
X12497Y-14866D01*
X12506Y-14891D01*
X12506Y-14048D01*
X12302Y-14030D01*
X12105Y-13972D01*
X11924Y-13877D01*
X11838Y-13733D01*
X12500Y-13071D01*
X12500Y-12929D01*
X11838Y-12267D01*
X11924Y-12123D01*
X12095Y-12033D01*
X12291Y-11973D01*
X12494Y-11952D01*
X12698Y-11970D01*
X12895Y-12028D01*
X13076Y-12123D01*
X13162Y-12267D01*
X12500Y-12929D01*
X12500Y-13071D01*
X13162Y-13733D01*
X13076Y-13877D01*
X12905Y-13967D01*
X12709Y-14027D01*
X12506Y-14048D01*
X12506Y-14891D01*
X12533Y-14967D01*
X12549Y-15073D01*
X12544Y-15180D01*
X12518Y-15284D01*
X12472Y-15381D01*
X12378Y-15408D01*
X12378Y-15792D01*
X12472Y-15819D01*
X12497Y-15866D01*
X12533Y-15967D01*
X12549Y-16073D01*
X12544Y-16180D01*
X12518Y-16284D01*
X12472Y-16381D01*
X12378Y-16408D01*
X12378Y-16701D01*
X12427Y-16751D01*
X12487Y-16841D01*
X12528Y-16940D01*
X12549Y-17046D01*
X12547Y-17169D01*
X12524Y-17274D01*
X12480Y-17372D01*
X12418Y-17460D01*
X12340Y-17535D01*
X12249Y-17592D01*
X12227Y-17600D01*
X12262Y-17615D01*
X12352Y-17675D01*
X12427Y-17751D01*
X12487Y-17841D01*
X12528Y-17940D01*
X12549Y-18046D01*
X12547Y-18113D01*
X12870Y-17791D01*
X12870Y-17424D01*
X12846Y-17400D01*
X12800Y-17330D01*
X12770Y-17252D01*
X12754Y-17170D01*
X12756Y-17087D01*
X12773Y-17005D01*
X12806Y-16929D01*
X12853Y-16860D01*
X12912Y-16801D01*
X12982Y-16756D01*
X13059Y-16724D01*
X13141Y-16709D01*
X13224Y-16709D01*
X13233Y-16710D01*
X13233Y-13662D01*
X12571Y-13000D01*
X13233Y-12338D01*
X13377Y-12424D01*
X13467Y-12595D01*
X13527Y-12791D01*
X13548Y-12994D01*
X13530Y-13198D01*
X13472Y-13395D01*
X13377Y-13576D01*
X13233Y-13662D01*
X13233Y-16710D01*
X13306Y-16726D01*
X13383Y-16758D01*
X13452Y-16805D01*
X13511Y-16864D01*
X13557Y-16933D01*
X13589Y-17010D01*
X13605Y-17092D01*
X13604Y-17187D01*
X13585Y-17268D01*
X13551Y-17345D01*
X13504Y-17413D01*
X13490Y-17426D01*
X13490Y-17924D01*
X13485Y-17960D01*
X13484Y-17981D01*
X13466Y-18040D01*
X13465Y-18041D01*
X13465Y-18042D01*
X13436Y-18095D01*
X13422Y-18110D01*
X13399Y-18140D01*
X12539Y-18998D01*
X12549Y-19046D01*
X12547Y-19169D01*
X12524Y-19274D01*
X12480Y-19372D01*
X12418Y-19460D01*
X12340Y-19535D01*
X12316Y-19550D01*
X12327Y-19550D01*
X12375Y-19560D01*
X12420Y-19579D01*
X12460Y-19607D01*
X12495Y-19642D01*
X12522Y-19683D01*
X12541Y-19728D01*
X12550Y-19776D01*
X12550Y-20427D01*
X12540Y-20475D01*
X12521Y-20520D01*
X12493Y-20560D01*
X12458Y-20595D01*
X12417Y-20622D01*
X12372Y-20641D01*
X12324Y-20650D01*
X11673Y-20650D01*
X11673Y-21894D01*
X11767Y-21838D01*
X12429Y-22500D01*
X11767Y-23162D01*
X11767Y-23625D01*
X12506Y-23625D01*
X12506Y-23548D01*
X12302Y-23530D01*
X12105Y-23472D01*
X11924Y-23377D01*
X11838Y-23233D01*
X12500Y-22571D01*
X12500Y-22429D01*
X11838Y-21767D01*
X11924Y-21623D01*
X12095Y-21533D01*
X12291Y-21473D01*
X12494Y-21452D01*
X12698Y-21470D01*
X12895Y-21528D01*
X13076Y-21623D01*
X13162Y-21767D01*
X12500Y-22429D01*
X12500Y-22571D01*
X13162Y-23233D01*
X13076Y-23377D01*
X12905Y-23467D01*
X12709Y-23527D01*
X12506Y-23548D01*
X12506Y-23625D01*
X13233Y-23625D01*
X13233Y-23162D01*
X12571Y-22500D01*
X13233Y-21838D01*
X13377Y-21924D01*
X13467Y-22095D01*
X13527Y-22291D01*
X13548Y-22494D01*
X13530Y-22698D01*
X13472Y-22895D01*
X13377Y-23076D01*
X13233Y-23162D01*
X13233Y-23625D01*
X15557Y-23625D01*
X15557Y-21750D01*
X15410Y-21747D01*
X15267Y-21716D01*
X15132Y-21657D01*
X15012Y-21573D01*
X14910Y-21467D01*
X14830Y-21344D01*
X14776Y-21207D01*
X14750Y-21063D01*
X14752Y-20916D01*
X14783Y-20772D01*
X14841Y-20637D01*
X14924Y-20516D01*
X15029Y-20413D01*
X15152Y-20333D01*
X15288Y-20278D01*
X15432Y-20251D01*
X15557Y-20251D01*
X15557Y-19750D01*
X15410Y-19747D01*
X15267Y-19716D01*
X15132Y-19657D01*
X15012Y-19573D01*
X14910Y-19467D01*
X14830Y-19344D01*
X14776Y-19207D01*
X14750Y-19063D01*
X14752Y-18916D01*
X14783Y-18772D01*
X14841Y-18637D01*
X14924Y-18516D01*
X15029Y-18413D01*
X15152Y-18333D01*
X15288Y-18278D01*
X15432Y-18251D01*
X15556Y-18251D01*
X15556Y-17250D01*
X15409Y-17247D01*
X15266Y-17216D01*
X15131Y-17157D01*
X15011Y-17073D01*
X14909Y-16967D01*
X14829Y-16844D01*
X14775Y-16707D01*
X14749Y-16563D01*
X14751Y-16416D01*
X14782Y-16272D01*
X14840Y-16137D01*
X14923Y-16016D01*
X15028Y-15913D01*
X15151Y-15833D01*
X15287Y-15778D01*
X15431Y-15751D01*
X15578Y-15752D01*
X15722Y-15781D01*
X15857Y-15838D01*
X15979Y-15920D01*
X16082Y-16025D01*
X16164Y-16147D01*
X16220Y-16283D01*
X16248Y-16427D01*
X16246Y-16595D01*
X16213Y-16738D01*
X16153Y-16872D01*
X16068Y-16992D01*
X15962Y-17093D01*
X15838Y-17172D01*
X15701Y-17225D01*
X15556Y-17250D01*
X15556Y-18251D01*
X15579Y-18252D01*
X15723Y-18281D01*
X15858Y-18338D01*
X15980Y-18420D01*
X16083Y-18525D01*
X16165Y-18647D01*
X16221Y-18783D01*
X16249Y-18927D01*
X16247Y-19095D01*
X16214Y-19238D01*
X16154Y-19372D01*
X16069Y-19492D01*
X15963Y-19593D01*
X15839Y-19672D01*
X15702Y-19725D01*
X15557Y-19750D01*
X15557Y-20251D01*
X15579Y-20252D01*
X15723Y-20281D01*
X15858Y-20338D01*
X15980Y-20420D01*
X16083Y-20525D01*
X16165Y-20647D01*
X16221Y-20783D01*
X16249Y-20927D01*
X16247Y-21095D01*
X16214Y-21238D01*
X16154Y-21372D01*
X16069Y-21492D01*
X15963Y-21593D01*
X15839Y-21672D01*
X15702Y-21725D01*
X15557Y-21750D01*
X15557Y-23625D01*
X29057Y-23625D01*
X29057Y-21750D01*
X28910Y-21747D01*
X28767Y-21716D01*
X28632Y-21657D01*
X28512Y-21573D01*
X28410Y-21467D01*
X28330Y-21344D01*
X28276Y-21207D01*
X28250Y-21063D01*
X28252Y-20916D01*
X28283Y-20772D01*
X28341Y-20637D01*
X28424Y-20516D01*
X28529Y-20413D01*
X28652Y-20333D01*
X28788Y-20278D01*
X28932Y-20251D01*
X29057Y-20251D01*
X29057Y-19750D01*
X28910Y-19747D01*
X28767Y-19716D01*
X28632Y-19657D01*
X28512Y-19573D01*
X28410Y-19467D01*
X28330Y-19344D01*
X28276Y-19207D01*
X28250Y-19063D01*
X28252Y-18916D01*
X28283Y-18772D01*
X28341Y-18637D01*
X28424Y-18516D01*
X28529Y-18413D01*
X28652Y-18333D01*
X28788Y-18278D01*
X28932Y-18251D01*
X29079Y-18252D01*
X29223Y-18281D01*
X29358Y-18338D01*
X29480Y-18420D01*
X29583Y-18525D01*
X29665Y-18647D01*
X29721Y-18783D01*
X29749Y-18927D01*
X29747Y-19095D01*
X29714Y-19238D01*
X29654Y-19372D01*
X29569Y-19492D01*
X29463Y-19593D01*
X29339Y-19672D01*
X29202Y-19725D01*
X29057Y-19750D01*
X29057Y-20251D01*
X29079Y-20252D01*
X29223Y-20281D01*
X29358Y-20338D01*
X29480Y-20420D01*
X29583Y-20525D01*
X29665Y-20647D01*
X29721Y-20783D01*
X29749Y-20927D01*
X29747Y-21095D01*
X29714Y-21238D01*
X29654Y-21372D01*
X29569Y-21492D01*
X29463Y-21593D01*
X29339Y-21672D01*
X29202Y-21725D01*
X29057Y-21750D01*
X29057Y-23625D01*
X33557Y-23625D01*
X33557Y-21750D01*
X33410Y-21747D01*
X33267Y-21716D01*
X33132Y-21657D01*
X33012Y-21573D01*
X32910Y-21467D01*
X32830Y-21344D01*
X32776Y-21207D01*
X32750Y-21063D01*
X32752Y-20916D01*
X32783Y-20772D01*
X32841Y-20637D01*
X32924Y-20516D01*
X33029Y-20413D01*
X33152Y-20333D01*
X33288Y-20278D01*
X33432Y-20251D01*
X33557Y-20251D01*
X33557Y-19750D01*
X33410Y-19747D01*
X33267Y-19716D01*
X33132Y-19657D01*
X33012Y-19573D01*
X32910Y-19467D01*
X32830Y-19344D01*
X32776Y-19207D01*
X32750Y-19063D01*
X32752Y-18916D01*
X32783Y-18772D01*
X32841Y-18637D01*
X32924Y-18516D01*
X33029Y-18413D01*
X33152Y-18333D01*
X33288Y-18278D01*
X33432Y-18251D01*
X33557Y-18251D01*
X33557Y-17250D01*
X33410Y-17247D01*
X33267Y-17216D01*
X33132Y-17157D01*
X33012Y-17073D01*
X32910Y-16967D01*
X32830Y-16844D01*
X32776Y-16707D01*
X32750Y-16563D01*
X32752Y-16416D01*
X32783Y-16272D01*
X32841Y-16137D01*
X32924Y-16016D01*
X33029Y-15913D01*
X33152Y-15833D01*
X33288Y-15778D01*
X33432Y-15751D01*
X33579Y-15752D01*
X33723Y-15781D01*
X33858Y-15838D01*
X33980Y-15920D01*
X34083Y-16025D01*
X34165Y-16147D01*
X34221Y-16283D01*
X34249Y-16427D01*
X34247Y-16595D01*
X34214Y-16738D01*
X34154Y-16872D01*
X34069Y-16992D01*
X33963Y-17093D01*
X33839Y-17172D01*
X33702Y-17225D01*
X33557Y-17250D01*
X33557Y-18251D01*
X33579Y-18252D01*
X33723Y-18281D01*
X33858Y-18338D01*
X33980Y-18420D01*
X34083Y-18525D01*
X34165Y-18647D01*
X34221Y-18783D01*
X34249Y-18927D01*
X34247Y-19095D01*
X34214Y-19238D01*
X34154Y-19372D01*
X34069Y-19492D01*
X33963Y-19593D01*
X33839Y-19672D01*
X33702Y-19725D01*
X33557Y-19750D01*
X33557Y-20251D01*
X33579Y-20252D01*
X33723Y-20281D01*
X33858Y-20338D01*
X33980Y-20420D01*
X34083Y-20525D01*
X34165Y-20647D01*
X34221Y-20783D01*
X34249Y-20927D01*
X34247Y-21095D01*
X34214Y-21238D01*
X34154Y-21372D01*
X34069Y-21492D01*
X33963Y-21593D01*
X33839Y-21672D01*
X33702Y-21725D01*
X33557Y-21750D01*
X33557Y-23625D01*
X38057Y-23625D01*
X38057Y-21750D01*
X37910Y-21747D01*
X37767Y-21716D01*
X37632Y-21657D01*
X37512Y-21573D01*
X37410Y-21467D01*
X37330Y-21344D01*
X37276Y-21207D01*
X37250Y-21063D01*
X37252Y-20916D01*
X37283Y-20772D01*
X37341Y-20637D01*
X37424Y-20516D01*
X37529Y-20413D01*
X37652Y-20333D01*
X37788Y-20278D01*
X37932Y-20251D01*
X38057Y-20251D01*
X38057Y-19750D01*
X37910Y-19747D01*
X37767Y-19716D01*
X37632Y-19657D01*
X37512Y-19573D01*
X37410Y-19467D01*
X37330Y-19344D01*
X37276Y-19207D01*
X37250Y-19063D01*
X37252Y-18916D01*
X37283Y-18772D01*
X37341Y-18637D01*
X37424Y-18516D01*
X37529Y-18413D01*
X37652Y-18333D01*
X37788Y-18278D01*
X37932Y-18251D01*
X38057Y-18251D01*
X38057Y-17250D01*
X37910Y-17247D01*
X37767Y-17216D01*
X37632Y-17157D01*
X37512Y-17073D01*
X37410Y-16967D01*
X37330Y-16844D01*
X37276Y-16707D01*
X37250Y-16563D01*
X37252Y-16416D01*
X37283Y-16272D01*
X37341Y-16137D01*
X37424Y-16016D01*
X37529Y-15913D01*
X37652Y-15833D01*
X37788Y-15778D01*
X37932Y-15751D01*
X38057Y-15751D01*
X38057Y-15250D01*
X37910Y-15247D01*
X37767Y-15216D01*
X37632Y-15157D01*
X37512Y-15073D01*
X37410Y-14967D01*
X37333Y-14850D01*
X34163Y-14850D01*
X34154Y-14872D01*
X34069Y-14992D01*
X33963Y-15093D01*
X33839Y-15172D01*
X33702Y-15225D01*
X33557Y-15250D01*
X33410Y-15247D01*
X33267Y-15216D01*
X33132Y-15157D01*
X33012Y-15073D01*
X32910Y-14967D01*
X32830Y-14844D01*
X32776Y-14707D01*
X32750Y-14563D01*
X32752Y-14416D01*
X32783Y-14272D01*
X32841Y-14137D01*
X32924Y-14016D01*
X33029Y-13913D01*
X33152Y-13833D01*
X33288Y-13778D01*
X33432Y-13751D01*
X33579Y-13752D01*
X33723Y-13781D01*
X33858Y-13838D01*
X33980Y-13920D01*
X34083Y-14025D01*
X34165Y-14147D01*
X34166Y-14150D01*
X37335Y-14150D01*
X37341Y-14137D01*
X37424Y-14016D01*
X37529Y-13913D01*
X37652Y-13833D01*
X37788Y-13778D01*
X37932Y-13751D01*
X38079Y-13752D01*
X38223Y-13781D01*
X38358Y-13838D01*
X38480Y-13920D01*
X38583Y-14025D01*
X38665Y-14147D01*
X38721Y-14283D01*
X38749Y-14427D01*
X38747Y-14595D01*
X38714Y-14738D01*
X38654Y-14872D01*
X38569Y-14992D01*
X38463Y-15093D01*
X38339Y-15172D01*
X38202Y-15225D01*
X38057Y-15250D01*
X38057Y-15751D01*
X38079Y-15752D01*
X38223Y-15781D01*
X38358Y-15838D01*
X38480Y-15920D01*
X38583Y-16025D01*
X38665Y-16147D01*
X38721Y-16283D01*
X38749Y-16427D01*
X38747Y-16595D01*
X38714Y-16738D01*
X38654Y-16872D01*
X38569Y-16992D01*
X38463Y-17093D01*
X38339Y-17172D01*
X38202Y-17225D01*
X38057Y-17250D01*
X38057Y-18251D01*
X38079Y-18252D01*
X38223Y-18281D01*
X38358Y-18338D01*
X38480Y-18420D01*
X38583Y-18525D01*
X38665Y-18647D01*
X38721Y-18783D01*
X38749Y-18927D01*
X38747Y-19095D01*
X38714Y-19238D01*
X38654Y-19372D01*
X38569Y-19492D01*
X38463Y-19593D01*
X38339Y-19672D01*
X38202Y-19725D01*
X38057Y-19750D01*
X38057Y-20251D01*
X38079Y-20252D01*
X38223Y-20281D01*
X38358Y-20338D01*
X38480Y-20420D01*
X38583Y-20525D01*
X38665Y-20647D01*
X38721Y-20783D01*
X38749Y-20927D01*
X38747Y-21095D01*
X38714Y-21238D01*
X38654Y-21372D01*
X38569Y-21492D01*
X38463Y-21593D01*
X38339Y-21672D01*
X38202Y-21725D01*
X38057Y-21750D01*
X38057Y-23625D01*
X42557Y-23625D01*
X42557Y-21750D01*
X42410Y-21747D01*
X42267Y-21716D01*
X42132Y-21657D01*
X42012Y-21573D01*
X41910Y-21467D01*
X41830Y-21344D01*
X41776Y-21207D01*
X41750Y-21063D01*
X41752Y-20916D01*
X41783Y-20772D01*
X41841Y-20637D01*
X41924Y-20516D01*
X42029Y-20413D01*
X42152Y-20333D01*
X42288Y-20278D01*
X42432Y-20251D01*
X42557Y-20251D01*
X42557Y-19750D01*
X42410Y-19747D01*
X42267Y-19716D01*
X42132Y-19657D01*
X42012Y-19573D01*
X41910Y-19467D01*
X41830Y-19344D01*
X41776Y-19207D01*
X41750Y-19063D01*
X41752Y-18916D01*
X41783Y-18772D01*
X41841Y-18637D01*
X41924Y-18516D01*
X42029Y-18413D01*
X42152Y-18333D01*
X42288Y-18278D01*
X42432Y-18251D01*
X42557Y-18251D01*
X42557Y-17250D01*
X42410Y-17247D01*
X42267Y-17216D01*
X42132Y-17157D01*
X42012Y-17073D01*
X41910Y-16967D01*
X41830Y-16844D01*
X41776Y-16707D01*
X41750Y-16563D01*
X41752Y-16416D01*
X41783Y-16272D01*
X41841Y-16137D01*
X41924Y-16016D01*
X42029Y-15913D01*
X42152Y-15833D01*
X42288Y-15778D01*
X42432Y-15751D01*
X42557Y-15751D01*
X42557Y-15250D01*
X42410Y-15247D01*
X42267Y-15216D01*
X42132Y-15157D01*
X42012Y-15073D01*
X41910Y-14967D01*
X41830Y-14844D01*
X41776Y-14707D01*
X41750Y-14563D01*
X41752Y-14416D01*
X41783Y-14272D01*
X41841Y-14137D01*
X41924Y-14016D01*
X42029Y-13913D01*
X42152Y-13833D01*
X42288Y-13778D01*
X42432Y-13751D01*
X42579Y-13752D01*
X42723Y-13781D01*
X42858Y-13838D01*
X42980Y-13920D01*
X43083Y-14025D01*
X43165Y-14147D01*
X43221Y-14283D01*
X43249Y-14427D01*
X43247Y-14595D01*
X43214Y-14738D01*
X43154Y-14872D01*
X43069Y-14992D01*
X42963Y-15093D01*
X42839Y-15172D01*
X42702Y-15225D01*
X42557Y-15250D01*
X42557Y-15751D01*
X42579Y-15752D01*
X42723Y-15781D01*
X42858Y-15838D01*
X42980Y-15920D01*
X43083Y-16025D01*
X43165Y-16147D01*
X43221Y-16283D01*
X43249Y-16427D01*
X43247Y-16595D01*
X43214Y-16738D01*
X43154Y-16872D01*
X43069Y-16992D01*
X42963Y-17093D01*
X42839Y-17172D01*
X42702Y-17225D01*
X42557Y-17250D01*
X42557Y-18251D01*
X42579Y-18252D01*
X42723Y-18281D01*
X42858Y-18338D01*
X42980Y-18420D01*
X43083Y-18525D01*
X43165Y-18647D01*
X43221Y-18783D01*
X43249Y-18927D01*
X43247Y-19095D01*
X43214Y-19238D01*
X43154Y-19372D01*
X43069Y-19492D01*
X42963Y-19593D01*
X42839Y-19672D01*
X42702Y-19725D01*
X42557Y-19750D01*
X42557Y-20251D01*
X42579Y-20252D01*
X42723Y-20281D01*
X42858Y-20338D01*
X42980Y-20420D01*
X43083Y-20525D01*
X43165Y-20647D01*
X43221Y-20783D01*
X43249Y-20927D01*
X43247Y-21095D01*
X43214Y-21238D01*
X43154Y-21372D01*
X43069Y-21492D01*
X42963Y-21593D01*
X42839Y-21672D01*
X42702Y-21725D01*
X42557Y-21750D01*
X42557Y-23625D01*
X43767Y-23625D01*
X43767Y-23162D01*
X43767Y-23625D01*
X44506Y-23625D01*
X44506Y-23548D01*
X44302Y-23530D01*
X44105Y-23472D01*
X43924Y-23377D01*
X43838Y-23233D01*
X44500Y-22571D01*
X44500Y-22429D01*
X43838Y-21767D01*
X43924Y-21623D01*
X44095Y-21533D01*
X44291Y-21473D01*
X44494Y-21452D01*
X44698Y-21470D01*
X44895Y-21528D01*
X45076Y-21623D01*
X45162Y-21767D01*
X44500Y-22429D01*
X44500Y-22571D01*
X45162Y-23233D01*
X45076Y-23377D01*
X44905Y-23467D01*
X44709Y-23527D01*
X44506Y-23548D01*
X44506Y-23625D01*
X45233Y-23625D01*
X45233Y-23162D01*
X44571Y-22500D01*
X45233Y-21838D01*
X45377Y-21924D01*
X45467Y-22095D01*
X45527Y-22291D01*
X45548Y-22494D01*
X45530Y-22698D01*
X45472Y-22895D01*
X45377Y-23076D01*
X45233Y-23162D01*
X45233Y-23625D01*
X65150Y-23625D01*
X65150Y-23451D01*
X65023Y-23449D01*
X64898Y-23421D01*
X64782Y-23370D01*
X64677Y-23298D01*
X64588Y-23206D01*
X64519Y-23099D01*
X64472Y-22980D01*
X64449Y-22855D01*
X64451Y-22727D01*
X64477Y-22603D01*
X64528Y-22486D01*
X64599Y-22380D01*
X64691Y-22291D01*
X64797Y-22221D01*
X64915Y-22174D01*
X65041Y-22150D01*
X65168Y-22150D01*
X65293Y-22176D01*
X65410Y-22225D01*
X65516Y-22297D01*
X65606Y-22387D01*
X65677Y-22493D01*
X65725Y-22611D01*
X65750Y-22736D01*
X65748Y-22882D01*
X65720Y-23006D01*
X65668Y-23122D01*
X65595Y-23227D01*
X65502Y-23315D01*
X65395Y-23383D01*
X65276Y-23429D01*
X65150Y-23451D01*
X65150Y-23625D01*
X70767Y-23625D01*
X70767Y-23162D01*
X70623Y-23076D01*
X70533Y-22905D01*
X70473Y-22709D01*
X70452Y-22506D01*
X70470Y-22302D01*
X70528Y-22105D01*
X70623Y-21924D01*
X70767Y-21838D01*
X70767Y-13662D01*
X70623Y-13576D01*
X70533Y-13405D01*
X70473Y-13209D01*
X70452Y-13006D01*
X70470Y-12802D01*
X70528Y-12605D01*
X70623Y-12424D01*
X70767Y-12338D01*
X71429Y-13000D01*
X70767Y-13662D01*
X70767Y-21838D01*
X71429Y-22500D01*
X70767Y-23162D01*
X70767Y-23625D01*
X71506Y-23625D01*
X71506Y-23548D01*
X71302Y-23530D01*
X71105Y-23472D01*
X70924Y-23377D01*
X70838Y-23233D01*
X71500Y-22571D01*
X71500Y-22429D01*
X70838Y-21767D01*
X70924Y-21623D01*
X71095Y-21533D01*
X71291Y-21473D01*
X71494Y-21452D01*
X71506Y-21453D01*
X71506Y-14048D01*
X71302Y-14030D01*
X71105Y-13972D01*
X70924Y-13877D01*
X70838Y-13733D01*
X71500Y-13071D01*
X71500Y-12929D01*
X70838Y-12267D01*
X70924Y-12123D01*
X71095Y-12033D01*
X71291Y-11973D01*
X71494Y-11952D01*
X71698Y-11970D01*
X71895Y-12028D01*
X72076Y-12123D01*
X72162Y-12267D01*
X71500Y-12929D01*
X71500Y-13071D01*
X72162Y-13733D01*
X72076Y-13877D01*
X71905Y-13967D01*
X71709Y-14027D01*
X71506Y-14048D01*
X71506Y-21453D01*
X71698Y-21470D01*
X71895Y-21528D01*
X72076Y-21623D01*
X72162Y-21767D01*
X71500Y-22429D01*
X71500Y-22571D01*
X72162Y-23233D01*
X72076Y-23377D01*
X71905Y-23467D01*
X71709Y-23527D01*
X71506Y-23548D01*
X71506Y-23625D01*
X72233Y-23625D01*
X72233Y-23162D01*
X71571Y-22500D01*
X72233Y-21838D01*
X72377Y-21924D01*
X72467Y-22095D01*
X72527Y-22291D01*
X72548Y-22494D01*
X72530Y-22698D01*
X72472Y-22895D01*
X72377Y-23076D01*
X72233Y-23162D01*
X72233Y-23625D01*
X82557Y-23625D01*
X82557Y-21750D01*
X82410Y-21747D01*
X82267Y-21716D01*
X82132Y-21657D01*
X82012Y-21573D01*
X81910Y-21467D01*
X81830Y-21344D01*
X81776Y-21207D01*
X81750Y-21063D01*
X81752Y-20916D01*
X81783Y-20772D01*
X81841Y-20637D01*
X81924Y-20516D01*
X82029Y-20413D01*
X82125Y-20350D01*
X78375Y-20350D01*
X78480Y-20420D01*
X78583Y-20525D01*
X78665Y-20647D01*
X78721Y-20783D01*
X78749Y-20927D01*
X78747Y-21095D01*
X78714Y-21238D01*
X78654Y-21372D01*
X78569Y-21492D01*
X78463Y-21593D01*
X78339Y-21672D01*
X78202Y-21725D01*
X78057Y-21750D01*
X77910Y-21747D01*
X77767Y-21716D01*
X77632Y-21657D01*
X77512Y-21573D01*
X77410Y-21467D01*
X77333Y-21350D01*
X74544Y-21350D01*
X74500Y-21344D01*
X74479Y-21343D01*
X74413Y-21323D01*
X74411Y-21322D01*
X74351Y-21289D01*
X74309Y-21254D01*
X74301Y-21247D01*
X74228Y-21174D01*
X74214Y-21238D01*
X74154Y-21372D01*
X74069Y-21492D01*
X73963Y-21593D01*
X73839Y-21672D01*
X73702Y-21725D01*
X73557Y-21750D01*
X73410Y-21747D01*
X73267Y-21716D01*
X73132Y-21657D01*
X73012Y-21573D01*
X72910Y-21467D01*
X72830Y-21344D01*
X72776Y-21207D01*
X72750Y-21063D01*
X72752Y-20916D01*
X72783Y-20772D01*
X72841Y-20637D01*
X72924Y-20516D01*
X73029Y-20413D01*
X73152Y-20333D01*
X73288Y-20278D01*
X73325Y-20270D01*
X73271Y-20216D01*
X73215Y-20204D01*
X73139Y-20171D01*
X73070Y-20123D01*
X73013Y-20064D01*
X72967Y-19994D01*
X72937Y-19916D01*
X72921Y-19834D01*
X72923Y-19751D01*
X72940Y-19669D01*
X72973Y-19593D01*
X72997Y-19557D01*
X72910Y-19467D01*
X72830Y-19344D01*
X72776Y-19207D01*
X72750Y-19063D01*
X72752Y-18916D01*
X72783Y-18772D01*
X72841Y-18637D01*
X72924Y-18516D01*
X73029Y-18413D01*
X73152Y-18333D01*
X73288Y-18278D01*
X73432Y-18251D01*
X73524Y-18251D01*
X72299Y-17026D01*
X72243Y-17014D01*
X72167Y-16981D01*
X72098Y-16933D01*
X72041Y-16874D01*
X71995Y-16804D01*
X71965Y-16726D01*
X71949Y-16644D01*
X71951Y-16561D01*
X71968Y-16479D01*
X72001Y-16403D01*
X72048Y-16334D01*
X72107Y-16275D01*
X72177Y-16230D01*
X72233Y-16206D01*
X72233Y-13662D01*
X71571Y-13000D01*
X72233Y-12338D01*
X72377Y-12424D01*
X72467Y-12595D01*
X72527Y-12791D01*
X72548Y-12994D01*
X72530Y-13198D01*
X72472Y-13395D01*
X72377Y-13576D01*
X72233Y-13662D01*
X72233Y-16206D01*
X72254Y-16198D01*
X72336Y-16183D01*
X72419Y-16183D01*
X72501Y-16200D01*
X72578Y-16232D01*
X72647Y-16279D01*
X72706Y-16338D01*
X72752Y-16407D01*
X72753Y-16410D01*
X72783Y-16272D01*
X72841Y-16137D01*
X72924Y-16016D01*
X73029Y-15913D01*
X73152Y-15833D01*
X73288Y-15778D01*
X73432Y-15751D01*
X73557Y-15751D01*
X73557Y-15250D01*
X73410Y-15247D01*
X73267Y-15216D01*
X73132Y-15157D01*
X73012Y-15073D01*
X72910Y-14967D01*
X72830Y-14844D01*
X72776Y-14707D01*
X72750Y-14563D01*
X72752Y-14416D01*
X72783Y-14272D01*
X72841Y-14137D01*
X72924Y-14016D01*
X73029Y-13913D01*
X73152Y-13833D01*
X73288Y-13778D01*
X73432Y-13751D01*
X73579Y-13752D01*
X73723Y-13781D01*
X73858Y-13838D01*
X73980Y-13920D01*
X74083Y-14025D01*
X74165Y-14147D01*
X74221Y-14283D01*
X74249Y-14427D01*
X74247Y-14595D01*
X74214Y-14738D01*
X74154Y-14872D01*
X74069Y-14992D01*
X73963Y-15093D01*
X73839Y-15172D01*
X73702Y-15225D01*
X73557Y-15250D01*
X73557Y-15751D01*
X73579Y-15752D01*
X73723Y-15781D01*
X73858Y-15838D01*
X73980Y-15920D01*
X74083Y-16025D01*
X74165Y-16147D01*
X74221Y-16283D01*
X74249Y-16427D01*
X74247Y-16595D01*
X74214Y-16738D01*
X74154Y-16872D01*
X74069Y-16992D01*
X73963Y-17093D01*
X73839Y-17172D01*
X73702Y-17225D01*
X73557Y-17250D01*
X73510Y-17249D01*
X75911Y-19650D01*
X77622Y-19650D01*
X77512Y-19573D01*
X77410Y-19467D01*
X77330Y-19344D01*
X77276Y-19207D01*
X77250Y-19063D01*
X77252Y-18916D01*
X77283Y-18772D01*
X77341Y-18637D01*
X77424Y-18516D01*
X77529Y-18413D01*
X77652Y-18333D01*
X77788Y-18278D01*
X77932Y-18251D01*
X78057Y-18251D01*
X78057Y-17250D01*
X77910Y-17247D01*
X77767Y-17216D01*
X77632Y-17157D01*
X77512Y-17073D01*
X77410Y-16967D01*
X77330Y-16844D01*
X77276Y-16707D01*
X77250Y-16563D01*
X77252Y-16416D01*
X77283Y-16272D01*
X77341Y-16137D01*
X77424Y-16016D01*
X77529Y-15913D01*
X77652Y-15833D01*
X77788Y-15778D01*
X77932Y-15751D01*
X78079Y-15752D01*
X78223Y-15781D01*
X78358Y-15838D01*
X78480Y-15920D01*
X78583Y-16025D01*
X78665Y-16147D01*
X78721Y-16283D01*
X78749Y-16427D01*
X78747Y-16595D01*
X78714Y-16738D01*
X78654Y-16872D01*
X78569Y-16992D01*
X78463Y-17093D01*
X78339Y-17172D01*
X78202Y-17225D01*
X78057Y-17250D01*
X78057Y-18251D01*
X78079Y-18252D01*
X78223Y-18281D01*
X78358Y-18338D01*
X78480Y-18420D01*
X78583Y-18525D01*
X78665Y-18647D01*
X78721Y-18783D01*
X78749Y-18927D01*
X78747Y-19095D01*
X78714Y-19238D01*
X78654Y-19372D01*
X78569Y-19492D01*
X78463Y-19593D01*
X78373Y-19650D01*
X82122Y-19650D01*
X82012Y-19573D01*
X81910Y-19467D01*
X81830Y-19344D01*
X81776Y-19207D01*
X81750Y-19063D01*
X81752Y-18916D01*
X81783Y-18772D01*
X81841Y-18637D01*
X81924Y-18516D01*
X82029Y-18413D01*
X82152Y-18333D01*
X82288Y-18278D01*
X82432Y-18251D01*
X82557Y-18251D01*
X82557Y-17250D01*
X82410Y-17247D01*
X82267Y-17216D01*
X82132Y-17157D01*
X82012Y-17073D01*
X81910Y-16967D01*
X81830Y-16844D01*
X81776Y-16707D01*
X81750Y-16563D01*
X81752Y-16416D01*
X81783Y-16272D01*
X81841Y-16137D01*
X81924Y-16016D01*
X82029Y-15913D01*
X82152Y-15833D01*
X82288Y-15778D01*
X82432Y-15751D01*
X82557Y-15751D01*
X82557Y-15250D01*
X82410Y-15247D01*
X82267Y-15216D01*
X82132Y-15157D01*
X82012Y-15073D01*
X81910Y-14967D01*
X81833Y-14850D01*
X78663Y-14850D01*
X78654Y-14872D01*
X78569Y-14992D01*
X78463Y-15093D01*
X78339Y-15172D01*
X78202Y-15225D01*
X78057Y-15250D01*
X77910Y-15247D01*
X77767Y-15216D01*
X77632Y-15157D01*
X77512Y-15073D01*
X77410Y-14967D01*
X77330Y-14844D01*
X77276Y-14707D01*
X77250Y-14563D01*
X77252Y-14416D01*
X77283Y-14272D01*
X77341Y-14137D01*
X77424Y-14016D01*
X77529Y-13913D01*
X77652Y-13833D01*
X77788Y-13778D01*
X77932Y-13751D01*
X78079Y-13752D01*
X78223Y-13781D01*
X78358Y-13838D01*
X78480Y-13920D01*
X78583Y-14025D01*
X78665Y-14147D01*
X78666Y-14150D01*
X81835Y-14150D01*
X81841Y-14137D01*
X81924Y-14016D01*
X82029Y-13913D01*
X82152Y-13833D01*
X82288Y-13778D01*
X82432Y-13751D01*
X82579Y-13752D01*
X82723Y-13781D01*
X82858Y-13838D01*
X82980Y-13920D01*
X83083Y-14025D01*
X83165Y-14147D01*
X83221Y-14283D01*
X83249Y-14427D01*
X83247Y-14595D01*
X83214Y-14738D01*
X83154Y-14872D01*
X83069Y-14992D01*
X82963Y-15093D01*
X82839Y-15172D01*
X82702Y-15225D01*
X82557Y-15250D01*
X82557Y-15751D01*
X82579Y-15752D01*
X82723Y-15781D01*
X82858Y-15838D01*
X82980Y-15920D01*
X83083Y-16025D01*
X83165Y-16147D01*
X83221Y-16283D01*
X83249Y-16427D01*
X83247Y-16595D01*
X83214Y-16738D01*
X83154Y-16872D01*
X83069Y-16992D01*
X82963Y-17093D01*
X82839Y-17172D01*
X82702Y-17225D01*
X82557Y-17250D01*
X82557Y-18251D01*
X82579Y-18252D01*
X82723Y-18281D01*
X82858Y-18338D01*
X82980Y-18420D01*
X83083Y-18525D01*
X83165Y-18647D01*
X83221Y-18783D01*
X83249Y-18927D01*
X83247Y-19095D01*
X83214Y-19238D01*
X83154Y-19372D01*
X83069Y-19492D01*
X82963Y-19593D01*
X82873Y-19650D01*
X86105Y-19650D01*
X86117Y-19651D01*
X86169Y-19656D01*
X86235Y-19677D01*
X86238Y-19678D01*
X86298Y-19711D01*
X86350Y-19755D01*
X86354Y-19760D01*
X86776Y-20182D01*
X86788Y-20178D01*
X86932Y-20151D01*
X87057Y-20151D01*
X87057Y-19650D01*
X86910Y-19647D01*
X86767Y-19616D01*
X86632Y-19557D01*
X86512Y-19473D01*
X86410Y-19367D01*
X86330Y-19244D01*
X86276Y-19107D01*
X86250Y-18963D01*
X86252Y-18816D01*
X86283Y-18672D01*
X86341Y-18537D01*
X86424Y-18416D01*
X86529Y-18313D01*
X86652Y-18233D01*
X86788Y-18178D01*
X86932Y-18151D01*
X87057Y-18151D01*
X87057Y-17250D01*
X86910Y-17247D01*
X86767Y-17216D01*
X86632Y-17157D01*
X86512Y-17073D01*
X86410Y-16967D01*
X86330Y-16844D01*
X86276Y-16707D01*
X86250Y-16563D01*
X86252Y-16416D01*
X86283Y-16272D01*
X86341Y-16137D01*
X86424Y-16016D01*
X86529Y-15913D01*
X86652Y-15833D01*
X86788Y-15778D01*
X86932Y-15751D01*
X87079Y-15752D01*
X87223Y-15781D01*
X87358Y-15838D01*
X87480Y-15920D01*
X87583Y-16025D01*
X87665Y-16147D01*
X87721Y-16283D01*
X87749Y-16427D01*
X87747Y-16595D01*
X87714Y-16738D01*
X87654Y-16872D01*
X87569Y-16992D01*
X87463Y-17093D01*
X87339Y-17172D01*
X87202Y-17225D01*
X87057Y-17250D01*
X87057Y-18151D01*
X87079Y-18152D01*
X87223Y-18181D01*
X87358Y-18238D01*
X87480Y-18320D01*
X87583Y-18425D01*
X87665Y-18547D01*
X87721Y-18683D01*
X87749Y-18827D01*
X87747Y-18995D01*
X87714Y-19138D01*
X87654Y-19272D01*
X87569Y-19392D01*
X87463Y-19493D01*
X87339Y-19572D01*
X87202Y-19625D01*
X87057Y-19650D01*
X87057Y-20151D01*
X87079Y-20152D01*
X87223Y-20181D01*
X87358Y-20238D01*
X87480Y-20320D01*
X87583Y-20425D01*
X87665Y-20547D01*
X87721Y-20683D01*
X87749Y-20827D01*
X87747Y-20995D01*
X87714Y-21138D01*
X87654Y-21272D01*
X87569Y-21392D01*
X87463Y-21493D01*
X87339Y-21572D01*
X87202Y-21625D01*
X87057Y-21650D01*
X86910Y-21647D01*
X86767Y-21616D01*
X86632Y-21557D01*
X86512Y-21473D01*
X86410Y-21367D01*
X86330Y-21244D01*
X86276Y-21107D01*
X86250Y-20963D01*
X86252Y-20816D01*
X86282Y-20676D01*
X85955Y-20350D01*
X82875Y-20350D01*
X82980Y-20420D01*
X83083Y-20525D01*
X83165Y-20647D01*
X83221Y-20783D01*
X83249Y-20927D01*
X83247Y-21095D01*
X83214Y-21238D01*
X83154Y-21372D01*
X83069Y-21492D01*
X82963Y-21593D01*
X82839Y-21672D01*
X82702Y-21725D01*
X82557Y-21750D01*
X82557Y-23625D01*
X91657Y-23625D01*
X91657Y-21750D01*
X91510Y-21747D01*
X91367Y-21716D01*
X91232Y-21657D01*
X91112Y-21573D01*
X91010Y-21467D01*
X90930Y-21344D01*
X90876Y-21207D01*
X90850Y-21063D01*
X90852Y-20916D01*
X90883Y-20772D01*
X90941Y-20637D01*
X91024Y-20516D01*
X91129Y-20413D01*
X91252Y-20333D01*
X91388Y-20278D01*
X91532Y-20251D01*
X91657Y-20251D01*
X91657Y-19750D01*
X91510Y-19747D01*
X91367Y-19716D01*
X91232Y-19657D01*
X91112Y-19573D01*
X91010Y-19467D01*
X90930Y-19344D01*
X90876Y-19207D01*
X90850Y-19063D01*
X90852Y-18916D01*
X90883Y-18772D01*
X90941Y-18637D01*
X91024Y-18516D01*
X91129Y-18413D01*
X91252Y-18333D01*
X91388Y-18278D01*
X91532Y-18251D01*
X91657Y-18251D01*
X91657Y-17250D01*
X91510Y-17247D01*
X91367Y-17216D01*
X91232Y-17157D01*
X91112Y-17073D01*
X91010Y-16967D01*
X90930Y-16844D01*
X90876Y-16707D01*
X90850Y-16563D01*
X90852Y-16416D01*
X90883Y-16272D01*
X90941Y-16137D01*
X91024Y-16016D01*
X91129Y-15913D01*
X91252Y-15833D01*
X91388Y-15778D01*
X91532Y-15751D01*
X91657Y-15751D01*
X91657Y-15250D01*
X91510Y-15247D01*
X91367Y-15216D01*
X91232Y-15157D01*
X91112Y-15073D01*
X91010Y-14967D01*
X90933Y-14850D01*
X87663Y-14850D01*
X87654Y-14872D01*
X87569Y-14992D01*
X87463Y-15093D01*
X87339Y-15172D01*
X87202Y-15225D01*
X87057Y-15250D01*
X86910Y-15247D01*
X86767Y-15216D01*
X86632Y-15157D01*
X86512Y-15073D01*
X86410Y-14967D01*
X86330Y-14844D01*
X86276Y-14707D01*
X86250Y-14563D01*
X86252Y-14416D01*
X86283Y-14272D01*
X86341Y-14137D01*
X86424Y-14016D01*
X86529Y-13913D01*
X86652Y-13833D01*
X86788Y-13778D01*
X86932Y-13751D01*
X87079Y-13752D01*
X87223Y-13781D01*
X87358Y-13838D01*
X87480Y-13920D01*
X87583Y-14025D01*
X87665Y-14147D01*
X87666Y-14150D01*
X90935Y-14150D01*
X90941Y-14137D01*
X91024Y-14016D01*
X91129Y-13913D01*
X91252Y-13833D01*
X91388Y-13778D01*
X91532Y-13751D01*
X91679Y-13752D01*
X91823Y-13781D01*
X91958Y-13838D01*
X92080Y-13920D01*
X92183Y-14025D01*
X92265Y-14147D01*
X92321Y-14283D01*
X92349Y-14427D01*
X92347Y-14595D01*
X92314Y-14738D01*
X92254Y-14872D01*
X92169Y-14992D01*
X92063Y-15093D01*
X91939Y-15172D01*
X91802Y-15225D01*
X91657Y-15250D01*
X91657Y-15751D01*
X91679Y-15752D01*
X91823Y-15781D01*
X91958Y-15838D01*
X92080Y-15920D01*
X92183Y-16025D01*
X92265Y-16147D01*
X92321Y-16283D01*
X92349Y-16427D01*
X92347Y-16595D01*
X92314Y-16738D01*
X92254Y-16872D01*
X92169Y-16992D01*
X92063Y-17093D01*
X91939Y-17172D01*
X91802Y-17225D01*
X91657Y-17250D01*
X91657Y-18251D01*
X91679Y-18252D01*
X91823Y-18281D01*
X91958Y-18338D01*
X92080Y-18420D01*
X92183Y-18525D01*
X92265Y-18647D01*
X92321Y-18783D01*
X92349Y-18927D01*
X92347Y-19095D01*
X92314Y-19238D01*
X92254Y-19372D01*
X92169Y-19492D01*
X92063Y-19593D01*
X91939Y-19672D01*
X91802Y-19725D01*
X91657Y-19750D01*
X91657Y-20251D01*
X91679Y-20252D01*
X91823Y-20281D01*
X91958Y-20338D01*
X92080Y-20420D01*
X92183Y-20525D01*
X92265Y-20647D01*
X92321Y-20783D01*
X92349Y-20927D01*
X92347Y-21095D01*
X92314Y-21238D01*
X92254Y-21372D01*
X92169Y-21492D01*
X92063Y-21593D01*
X91939Y-21672D01*
X91802Y-21725D01*
X91657Y-21750D01*
X91657Y-23625D01*
X96057Y-23625D01*
X96057Y-21750D01*
X95910Y-21747D01*
X95767Y-21716D01*
X95632Y-21657D01*
X95512Y-21573D01*
X95410Y-21467D01*
X95330Y-21344D01*
X95276Y-21207D01*
X95250Y-21063D01*
X95252Y-20916D01*
X95283Y-20772D01*
X95341Y-20637D01*
X95424Y-20516D01*
X95529Y-20413D01*
X95652Y-20333D01*
X95788Y-20278D01*
X95932Y-20251D01*
X96057Y-20251D01*
X96057Y-19750D01*
X95910Y-19747D01*
X95767Y-19716D01*
X95632Y-19657D01*
X95512Y-19573D01*
X95410Y-19467D01*
X95330Y-19344D01*
X95276Y-19207D01*
X95250Y-19063D01*
X95252Y-18916D01*
X95283Y-18772D01*
X95341Y-18637D01*
X95424Y-18516D01*
X95529Y-18413D01*
X95652Y-18333D01*
X95788Y-18278D01*
X95932Y-18251D01*
X96057Y-18251D01*
X96057Y-17250D01*
X95910Y-17247D01*
X95767Y-17216D01*
X95632Y-17157D01*
X95512Y-17073D01*
X95410Y-16967D01*
X95330Y-16844D01*
X95276Y-16707D01*
X95250Y-16563D01*
X95252Y-16416D01*
X95283Y-16272D01*
X95341Y-16137D01*
X95424Y-16016D01*
X95529Y-15913D01*
X95652Y-15833D01*
X95788Y-15778D01*
X95932Y-15751D01*
X96079Y-15752D01*
X96223Y-15781D01*
X96358Y-15838D01*
X96480Y-15920D01*
X96583Y-16025D01*
X96665Y-16147D01*
X96721Y-16283D01*
X96749Y-16427D01*
X96747Y-16595D01*
X96714Y-16738D01*
X96654Y-16872D01*
X96569Y-16992D01*
X96463Y-17093D01*
X96339Y-17172D01*
X96202Y-17225D01*
X96057Y-17250D01*
X96057Y-18251D01*
X96079Y-18252D01*
X96223Y-18281D01*
X96358Y-18338D01*
X96480Y-18420D01*
X96583Y-18525D01*
X96665Y-18647D01*
X96721Y-18783D01*
X96749Y-18927D01*
X96747Y-19095D01*
X96714Y-19238D01*
X96654Y-19372D01*
X96569Y-19492D01*
X96463Y-19593D01*
X96339Y-19672D01*
X96202Y-19725D01*
X96057Y-19750D01*
X96057Y-20251D01*
X96079Y-20252D01*
X96223Y-20281D01*
X96358Y-20338D01*
X96480Y-20420D01*
X96583Y-20525D01*
X96665Y-20647D01*
X96721Y-20783D01*
X96749Y-20927D01*
X96747Y-21095D01*
X96714Y-21238D01*
X96654Y-21372D01*
X96569Y-21492D01*
X96463Y-21593D01*
X96339Y-21672D01*
X96202Y-21725D01*
X96057Y-21750D01*
X96057Y-23625D01*
X100557Y-23625D01*
X100557Y-21750D01*
X100410Y-21747D01*
X100267Y-21716D01*
X100132Y-21657D01*
X100012Y-21573D01*
X99910Y-21467D01*
X99830Y-21344D01*
X99776Y-21207D01*
X99750Y-21063D01*
X99752Y-20916D01*
X99783Y-20772D01*
X99841Y-20637D01*
X99924Y-20516D01*
X100029Y-20413D01*
X100152Y-20333D01*
X100288Y-20278D01*
X100432Y-20251D01*
X100557Y-20251D01*
X100557Y-19750D01*
X100410Y-19747D01*
X100267Y-19716D01*
X100132Y-19657D01*
X100012Y-19573D01*
X99910Y-19467D01*
X99830Y-19344D01*
X99776Y-19207D01*
X99750Y-19063D01*
X99752Y-18916D01*
X99783Y-18772D01*
X99841Y-18637D01*
X99924Y-18516D01*
X100029Y-18413D01*
X100152Y-18333D01*
X100288Y-18278D01*
X100432Y-18251D01*
X100557Y-18251D01*
X100557Y-17250D01*
X100410Y-17247D01*
X100267Y-17216D01*
X100132Y-17157D01*
X100012Y-17073D01*
X99910Y-16967D01*
X99830Y-16844D01*
X99776Y-16707D01*
X99750Y-16563D01*
X99752Y-16416D01*
X99783Y-16272D01*
X99841Y-16137D01*
X99924Y-16016D01*
X100029Y-15913D01*
X100152Y-15833D01*
X100288Y-15778D01*
X100432Y-15751D01*
X100557Y-15751D01*
X100557Y-15250D01*
X100410Y-15247D01*
X100267Y-15216D01*
X100132Y-15157D01*
X100012Y-15073D01*
X99910Y-14967D01*
X99833Y-14850D01*
X96663Y-14850D01*
X96654Y-14872D01*
X96569Y-14992D01*
X96463Y-15093D01*
X96339Y-15172D01*
X96202Y-15225D01*
X96057Y-15250D01*
X95910Y-15247D01*
X95767Y-15216D01*
X95632Y-15157D01*
X95512Y-15073D01*
X95410Y-14967D01*
X95330Y-14844D01*
X95276Y-14707D01*
X95250Y-14563D01*
X95252Y-14416D01*
X95283Y-14272D01*
X95341Y-14137D01*
X95424Y-14016D01*
X95529Y-13913D01*
X95652Y-13833D01*
X95788Y-13778D01*
X95932Y-13751D01*
X96079Y-13752D01*
X96223Y-13781D01*
X96358Y-13838D01*
X96480Y-13920D01*
X96583Y-14025D01*
X96665Y-14147D01*
X96666Y-14150D01*
X99835Y-14150D01*
X99841Y-14137D01*
X99924Y-14016D01*
X100029Y-13913D01*
X100152Y-13833D01*
X100288Y-13778D01*
X100432Y-13751D01*
X100579Y-13752D01*
X100723Y-13781D01*
X100858Y-13838D01*
X100980Y-13920D01*
X101083Y-14025D01*
X101165Y-14147D01*
X101221Y-14283D01*
X101249Y-14427D01*
X101247Y-14595D01*
X101214Y-14738D01*
X101154Y-14872D01*
X101069Y-14992D01*
X100963Y-15093D01*
X100839Y-15172D01*
X100702Y-15225D01*
X100557Y-15250D01*
X100557Y-15751D01*
X100579Y-15752D01*
X100723Y-15781D01*
X100858Y-15838D01*
X100980Y-15920D01*
X101083Y-16025D01*
X101165Y-16147D01*
X101221Y-16283D01*
X101249Y-16427D01*
X101247Y-16595D01*
X101214Y-16738D01*
X101154Y-16872D01*
X101069Y-16992D01*
X100963Y-17093D01*
X100839Y-17172D01*
X100702Y-17225D01*
X100557Y-17250D01*
X100557Y-18251D01*
X100579Y-18252D01*
X100723Y-18281D01*
X100858Y-18338D01*
X100980Y-18420D01*
X101083Y-18525D01*
X101165Y-18647D01*
X101221Y-18783D01*
X101249Y-18927D01*
X101247Y-19095D01*
X101214Y-19238D01*
X101154Y-19372D01*
X101069Y-19492D01*
X100963Y-19593D01*
X100839Y-19672D01*
X100702Y-19725D01*
X100557Y-19750D01*
X100557Y-20251D01*
X100579Y-20252D01*
X100723Y-20281D01*
X100858Y-20338D01*
X100980Y-20420D01*
X101083Y-20525D01*
X101165Y-20647D01*
X101221Y-20783D01*
X101249Y-20927D01*
X101247Y-21095D01*
X101214Y-21238D01*
X101154Y-21372D01*
X101069Y-21492D01*
X100963Y-21593D01*
X100839Y-21672D01*
X100702Y-21725D01*
X100557Y-21750D01*
X100557Y-23625D01*
X102767Y-23625D01*
X102767Y-23162D01*
X102623Y-23076D01*
X102533Y-22905D01*
X102473Y-22709D01*
X102452Y-22506D01*
X102470Y-22302D01*
X102528Y-22105D01*
X102623Y-21924D01*
X102767Y-21838D01*
X102767Y-13662D01*
X102623Y-13576D01*
X102533Y-13405D01*
X102473Y-13209D01*
X102452Y-13006D01*
X102470Y-12802D01*
X102528Y-12605D01*
X102623Y-12424D01*
X102767Y-12338D01*
X103429Y-13000D01*
X102767Y-13662D01*
X102767Y-21838D01*
X103429Y-22500D01*
X102767Y-23162D01*
X102767Y-23625D01*
X103506Y-23625D01*
X103506Y-23548D01*
X103302Y-23530D01*
X103105Y-23472D01*
X102924Y-23377D01*
X102838Y-23233D01*
X103500Y-22571D01*
X103500Y-22429D01*
X102838Y-21767D01*
X102924Y-21623D01*
X103095Y-21533D01*
X103291Y-21473D01*
X103494Y-21452D01*
X103673Y-21467D01*
X103673Y-20650D01*
X103625Y-20640D01*
X103580Y-20621D01*
X103540Y-20593D01*
X103505Y-20558D01*
X103478Y-20517D01*
X103459Y-20472D01*
X103450Y-20424D01*
X103450Y-19773D01*
X103460Y-19725D01*
X103479Y-19680D01*
X103507Y-19640D01*
X103542Y-19605D01*
X103583Y-19578D01*
X103628Y-19559D01*
X103676Y-19550D01*
X103685Y-19550D01*
X103643Y-19520D01*
X103568Y-19443D01*
X103509Y-19352D01*
X103470Y-19252D01*
X103450Y-19146D01*
X103452Y-19039D01*
X103474Y-18933D01*
X103517Y-18834D01*
X103577Y-18746D01*
X103654Y-18670D01*
X103744Y-18611D01*
X103771Y-18599D01*
X103731Y-18582D01*
X103643Y-18520D01*
X103568Y-18443D01*
X103509Y-18352D01*
X103470Y-18252D01*
X103450Y-18146D01*
X103452Y-18039D01*
X103474Y-17933D01*
X103517Y-17834D01*
X103577Y-17746D01*
X103654Y-17670D01*
X103744Y-17611D01*
X103771Y-17599D01*
X103731Y-17582D01*
X103643Y-17520D01*
X103568Y-17443D01*
X103509Y-17352D01*
X103470Y-17252D01*
X103450Y-17146D01*
X103452Y-17039D01*
X103474Y-16933D01*
X103517Y-16834D01*
X103577Y-16746D01*
X103622Y-16701D01*
X103622Y-16408D01*
X103528Y-16381D01*
X103503Y-16334D01*
X103467Y-16233D01*
X103451Y-16127D01*
X103456Y-16020D01*
X103482Y-15916D01*
X103528Y-15819D01*
X103622Y-15792D01*
X103622Y-15408D01*
X103528Y-15381D01*
X103503Y-15334D01*
X103467Y-15233D01*
X103451Y-15127D01*
X103456Y-15020D01*
X103482Y-14916D01*
X103506Y-14865D01*
X103506Y-14048D01*
X103302Y-14030D01*
X103105Y-13972D01*
X102924Y-13877D01*
X102838Y-13733D01*
X103500Y-13071D01*
X103500Y-12929D01*
X102838Y-12267D01*
X102924Y-12123D01*
X103095Y-12033D01*
X103291Y-11973D01*
X103494Y-11952D01*
X103698Y-11970D01*
X103895Y-12028D01*
X104076Y-12123D01*
X104162Y-12267D01*
X103500Y-12929D01*
X103500Y-13071D01*
X104162Y-13733D01*
X104076Y-13877D01*
X103905Y-13967D01*
X103709Y-14027D01*
X103506Y-14048D01*
X103506Y-14865D01*
X103528Y-14819D01*
X103622Y-14792D01*
X103929Y-15100D01*
X103622Y-15408D01*
X103622Y-15792D01*
X103929Y-16100D01*
X103622Y-16408D01*
X103622Y-16701D01*
X103654Y-16670D01*
X103744Y-16611D01*
X103775Y-16598D01*
X103719Y-16572D01*
X103692Y-16478D01*
X104000Y-16171D01*
X104000Y-16029D01*
X103692Y-15722D01*
X103719Y-15628D01*
X103766Y-15603D01*
X103776Y-15599D01*
X103719Y-15572D01*
X103692Y-15478D01*
X104000Y-15171D01*
X104000Y-15029D01*
X103692Y-14722D01*
X103719Y-14628D01*
X103766Y-14603D01*
X103867Y-14567D01*
X103973Y-14551D01*
X104080Y-14556D01*
X104184Y-14582D01*
X104233Y-14605D01*
X104233Y-13662D01*
X103571Y-13000D01*
X104233Y-12338D01*
X104377Y-12424D01*
X104467Y-12595D01*
X104527Y-12791D01*
X104548Y-12994D01*
X104530Y-13198D01*
X104472Y-13395D01*
X104377Y-13576D01*
X104233Y-13662D01*
X104233Y-14605D01*
X104281Y-14628D01*
X104308Y-14722D01*
X104000Y-15029D01*
X104000Y-15171D01*
X104308Y-15478D01*
X104281Y-15572D01*
X104234Y-15597D01*
X104223Y-15600D01*
X104281Y-15628D01*
X104308Y-15722D01*
X104000Y-16029D01*
X104000Y-16171D01*
X104308Y-16478D01*
X104281Y-16572D01*
X104234Y-16597D01*
X104226Y-16599D01*
X104262Y-16615D01*
X104352Y-16675D01*
X104378Y-16701D01*
X104378Y-16408D01*
X104071Y-16100D01*
X104378Y-15792D01*
X104378Y-15408D01*
X104071Y-15100D01*
X104378Y-14792D01*
X104472Y-14819D01*
X104497Y-14866D01*
X104533Y-14967D01*
X104549Y-15073D01*
X104544Y-15180D01*
X104518Y-15284D01*
X104472Y-15381D01*
X104378Y-15408D01*
X104378Y-15792D01*
X104472Y-15819D01*
X104497Y-15866D01*
X104533Y-15967D01*
X104549Y-16073D01*
X104544Y-16180D01*
X104518Y-16284D01*
X104472Y-16381D01*
X104378Y-16408D01*
X104378Y-16701D01*
X104427Y-16751D01*
X104487Y-16841D01*
X104528Y-16940D01*
X104549Y-17046D01*
X104547Y-17169D01*
X104524Y-17274D01*
X104480Y-17372D01*
X104418Y-17460D01*
X104340Y-17535D01*
X104249Y-17592D01*
X104227Y-17600D01*
X104262Y-17615D01*
X104352Y-17675D01*
X104427Y-17751D01*
X104487Y-17841D01*
X104528Y-17940D01*
X104549Y-18046D01*
X104547Y-18169D01*
X104524Y-18274D01*
X104480Y-18372D01*
X104418Y-18460D01*
X104340Y-18535D01*
X104249Y-18592D01*
X104227Y-18600D01*
X104262Y-18615D01*
X104352Y-18675D01*
X104427Y-18751D01*
X104487Y-18841D01*
X104528Y-18940D01*
X104549Y-19046D01*
X104547Y-19169D01*
X104524Y-19274D01*
X104480Y-19372D01*
X104418Y-19460D01*
X104340Y-19535D01*
X104316Y-19550D01*
X104327Y-19550D01*
X104375Y-19560D01*
X104420Y-19579D01*
X104460Y-19607D01*
X104495Y-19642D01*
X104522Y-19683D01*
X104541Y-19728D01*
X104550Y-19776D01*
X104550Y-20427D01*
X104540Y-20475D01*
X104521Y-20520D01*
X104493Y-20560D01*
X104458Y-20595D01*
X104417Y-20622D01*
X104372Y-20641D01*
X104324Y-20650D01*
X103673Y-20650D01*
X103673Y-21467D01*
X103698Y-21470D01*
X103895Y-21528D01*
X104076Y-21623D01*
X104162Y-21767D01*
X103500Y-22429D01*
X103500Y-22571D01*
X104162Y-23233D01*
X104076Y-23377D01*
X103905Y-23467D01*
X103709Y-23527D01*
X103673Y-23530D01*
X103506Y-23548D01*
X103506Y-23625D01*
X104233Y-23625D01*
X104233Y-23162D01*
X103571Y-22500D01*
X104233Y-21838D01*
X104377Y-21924D01*
X104467Y-22095D01*
X104527Y-22291D01*
X104548Y-22494D01*
X104530Y-22698D01*
X104472Y-22895D01*
X104377Y-23076D01*
X104233Y-23162D01*
X104233Y-23625D01*
X104725Y-23625D01*
X104725Y-23625D01*
G37*
G54D24*
X104725Y-23625D02*
X104725Y-11875D01*
X59829Y-11875D01*
X60686Y-12731D01*
X60689Y-12734D01*
X60712Y-12764D01*
X60725Y-12779D01*
X60754Y-12833D01*
X60771Y-12891D01*
X60777Y-12951D01*
X60777Y-13739D01*
X62342Y-15304D01*
X62342Y-14875D01*
X62235Y-14873D01*
X62130Y-14850D01*
X62031Y-14807D01*
X61943Y-14745D01*
X61868Y-14668D01*
X61809Y-14577D01*
X61770Y-14477D01*
X61750Y-14371D01*
X61752Y-14264D01*
X61774Y-14158D01*
X61817Y-14059D01*
X61877Y-13971D01*
X61954Y-13895D01*
X62044Y-13836D01*
X62144Y-13796D01*
X62250Y-13776D01*
X62342Y-13776D01*
X62342Y-13125D01*
X62235Y-13123D01*
X62130Y-13100D01*
X62031Y-13057D01*
X61943Y-12995D01*
X61868Y-12918D01*
X61809Y-12827D01*
X61770Y-12727D01*
X61750Y-12621D01*
X61752Y-12514D01*
X61774Y-12408D01*
X61817Y-12309D01*
X61877Y-12221D01*
X61954Y-12145D01*
X62044Y-12086D01*
X62144Y-12046D01*
X62250Y-12026D01*
X62357Y-12026D01*
X62463Y-12048D01*
X62562Y-12090D01*
X62652Y-12150D01*
X62727Y-12226D01*
X62787Y-12316D01*
X62828Y-12415D01*
X62849Y-12521D01*
X62847Y-12644D01*
X62824Y-12749D01*
X62780Y-12847D01*
X62718Y-12935D01*
X62640Y-13010D01*
X62549Y-13067D01*
X62449Y-13106D01*
X62342Y-13125D01*
X62342Y-13776D01*
X62357Y-13776D01*
X62463Y-13798D01*
X62562Y-13840D01*
X62652Y-13900D01*
X62727Y-13976D01*
X62787Y-14066D01*
X62828Y-14165D01*
X62849Y-14271D01*
X62847Y-14394D01*
X62824Y-14499D01*
X62780Y-14597D01*
X62718Y-14685D01*
X62640Y-14760D01*
X62549Y-14817D01*
X62449Y-14856D01*
X62342Y-14875D01*
X62342Y-15304D01*
X62698Y-15660D01*
X62750Y-15651D01*
X62857Y-15651D01*
X62963Y-15673D01*
X63062Y-15715D01*
X63152Y-15775D01*
X63227Y-15851D01*
X63287Y-15941D01*
X63300Y-15972D01*
X63317Y-15934D01*
X63377Y-15846D01*
X63454Y-15770D01*
X63544Y-15711D01*
X63644Y-15671D01*
X63750Y-15651D01*
X63857Y-15651D01*
X63963Y-15673D01*
X64062Y-15715D01*
X64152Y-15775D01*
X64227Y-15851D01*
X64287Y-15941D01*
X64300Y-15972D01*
X64317Y-15934D01*
X64377Y-15846D01*
X64454Y-15770D01*
X64544Y-15711D01*
X64644Y-15671D01*
X64750Y-15651D01*
X64857Y-15651D01*
X64892Y-15658D01*
X64892Y-14875D01*
X64785Y-14873D01*
X64680Y-14850D01*
X64581Y-14807D01*
X64493Y-14745D01*
X64418Y-14668D01*
X64359Y-14577D01*
X64320Y-14477D01*
X64300Y-14371D01*
X64302Y-14264D01*
X64324Y-14158D01*
X64367Y-14059D01*
X64427Y-13971D01*
X64504Y-13895D01*
X64594Y-13836D01*
X64694Y-13796D01*
X64800Y-13776D01*
X64907Y-13776D01*
X65013Y-13798D01*
X65112Y-13840D01*
X65202Y-13900D01*
X65277Y-13976D01*
X65337Y-14066D01*
X65378Y-14165D01*
X65399Y-14271D01*
X65397Y-14394D01*
X65374Y-14499D01*
X65330Y-14597D01*
X65268Y-14685D01*
X65190Y-14760D01*
X65099Y-14817D01*
X64999Y-14856D01*
X64892Y-14875D01*
X64892Y-15658D01*
X64963Y-15673D01*
X65062Y-15715D01*
X65152Y-15775D01*
X65227Y-15851D01*
X65287Y-15941D01*
X65300Y-15972D01*
X65317Y-15934D01*
X65377Y-15846D01*
X65454Y-15770D01*
X65544Y-15711D01*
X65644Y-15671D01*
X65750Y-15651D01*
X65857Y-15651D01*
X65963Y-15673D01*
X66062Y-15715D01*
X66152Y-15775D01*
X66227Y-15851D01*
X66287Y-15941D01*
X66328Y-16040D01*
X66349Y-16146D01*
X66347Y-16269D01*
X66324Y-16374D01*
X66280Y-16472D01*
X66218Y-16560D01*
X66140Y-16635D01*
X66049Y-16692D01*
X66027Y-16700D01*
X66062Y-16715D01*
X66152Y-16775D01*
X66227Y-16851D01*
X66287Y-16941D01*
X66328Y-17040D01*
X66349Y-17146D01*
X66347Y-17269D01*
X66327Y-17356D01*
X66896Y-17356D01*
X67531Y-16721D01*
X67531Y-15694D01*
X64951Y-13114D01*
X64892Y-13125D01*
X64785Y-13123D01*
X64680Y-13100D01*
X64581Y-13057D01*
X64493Y-12995D01*
X64418Y-12918D01*
X64359Y-12827D01*
X64320Y-12727D01*
X64300Y-12621D01*
X64302Y-12514D01*
X64324Y-12408D01*
X64367Y-12309D01*
X64427Y-12221D01*
X64504Y-12145D01*
X64594Y-12086D01*
X64694Y-12046D01*
X64800Y-12026D01*
X64907Y-12026D01*
X65013Y-12048D01*
X65112Y-12090D01*
X65202Y-12150D01*
X65277Y-12226D01*
X65337Y-12316D01*
X65378Y-12415D01*
X65399Y-12521D01*
X65397Y-12644D01*
X65389Y-12676D01*
X68060Y-15346D01*
X68062Y-15349D01*
X68069Y-15358D01*
X68099Y-15394D01*
X68128Y-15448D01*
X68145Y-15506D01*
X68151Y-15566D01*
X68151Y-16853D01*
X68146Y-16889D01*
X68145Y-16910D01*
X68127Y-16969D01*
X68126Y-16970D01*
X68126Y-16971D01*
X68097Y-17024D01*
X68071Y-17053D01*
X68060Y-17068D01*
X68058Y-17070D01*
X67461Y-17665D01*
X67787Y-17991D01*
X67794Y-17999D01*
X67823Y-18035D01*
X67852Y-18089D01*
X67852Y-18091D01*
X67853Y-18092D01*
X67870Y-18150D01*
X67873Y-18191D01*
X67875Y-18207D01*
X67875Y-19734D01*
X67873Y-19747D01*
X67869Y-19791D01*
X67851Y-19850D01*
X67850Y-19851D01*
X67850Y-19852D01*
X67821Y-19905D01*
X67795Y-19935D01*
X67784Y-19949D01*
X66711Y-21022D01*
X66691Y-21038D01*
X66667Y-21058D01*
X66665Y-21058D01*
X66664Y-21060D01*
X66643Y-21070D01*
X66613Y-21087D01*
X66610Y-21087D01*
X66610Y-21088D01*
X66552Y-21105D01*
X66509Y-21108D01*
X66495Y-21110D01*
X65673Y-21110D01*
X65668Y-21122D01*
X65616Y-21196D01*
X68274Y-21196D01*
X68250Y-21063D01*
X68252Y-20916D01*
X68283Y-20772D01*
X68341Y-20637D01*
X68424Y-20516D01*
X68529Y-20413D01*
X68652Y-20333D01*
X68788Y-20278D01*
X68932Y-20251D01*
X69057Y-20251D01*
X69057Y-19750D01*
X68910Y-19747D01*
X68767Y-19716D01*
X68632Y-19657D01*
X68512Y-19573D01*
X68410Y-19467D01*
X68330Y-19344D01*
X68276Y-19207D01*
X68250Y-19063D01*
X68252Y-18916D01*
X68283Y-18772D01*
X68341Y-18637D01*
X68424Y-18516D01*
X68529Y-18413D01*
X68652Y-18333D01*
X68788Y-18278D01*
X68932Y-18251D01*
X69057Y-18251D01*
X69057Y-17250D01*
X68910Y-17247D01*
X68767Y-17216D01*
X68632Y-17157D01*
X68512Y-17073D01*
X68410Y-16967D01*
X68330Y-16844D01*
X68276Y-16707D01*
X68250Y-16563D01*
X68252Y-16416D01*
X68283Y-16272D01*
X68341Y-16137D01*
X68424Y-16016D01*
X68529Y-15913D01*
X68652Y-15833D01*
X68788Y-15778D01*
X68932Y-15751D01*
X69057Y-15751D01*
X69057Y-15250D01*
X68910Y-15247D01*
X68767Y-15216D01*
X68632Y-15157D01*
X68512Y-15073D01*
X68410Y-14967D01*
X68330Y-14844D01*
X68276Y-14707D01*
X68250Y-14563D01*
X68252Y-14416D01*
X68283Y-14272D01*
X68341Y-14137D01*
X68424Y-14016D01*
X68529Y-13913D01*
X68652Y-13833D01*
X68788Y-13778D01*
X68932Y-13751D01*
X69079Y-13752D01*
X69223Y-13781D01*
X69358Y-13838D01*
X69480Y-13920D01*
X69583Y-14025D01*
X69665Y-14147D01*
X69721Y-14283D01*
X69749Y-14427D01*
X69747Y-14595D01*
X69714Y-14738D01*
X69654Y-14872D01*
X69569Y-14992D01*
X69463Y-15093D01*
X69339Y-15172D01*
X69202Y-15225D01*
X69057Y-15250D01*
X69057Y-15751D01*
X69079Y-15752D01*
X69223Y-15781D01*
X69358Y-15838D01*
X69480Y-15920D01*
X69583Y-16025D01*
X69665Y-16147D01*
X69721Y-16283D01*
X69749Y-16427D01*
X69747Y-16595D01*
X69714Y-16738D01*
X69654Y-16872D01*
X69569Y-16992D01*
X69463Y-17093D01*
X69339Y-17172D01*
X69202Y-17225D01*
X69057Y-17250D01*
X69057Y-18251D01*
X69079Y-18252D01*
X69223Y-18281D01*
X69358Y-18338D01*
X69480Y-18420D01*
X69583Y-18525D01*
X69665Y-18647D01*
X69721Y-18783D01*
X69749Y-18927D01*
X69747Y-19095D01*
X69714Y-19238D01*
X69654Y-19372D01*
X69569Y-19492D01*
X69463Y-19593D01*
X69339Y-19672D01*
X69202Y-19725D01*
X69057Y-19750D01*
X69057Y-20251D01*
X69079Y-20252D01*
X69223Y-20281D01*
X69358Y-20338D01*
X69480Y-20420D01*
X69583Y-20525D01*
X69665Y-20647D01*
X69721Y-20783D01*
X69749Y-20927D01*
X69747Y-21095D01*
X69714Y-21238D01*
X69654Y-21372D01*
X69569Y-21492D01*
X69463Y-21593D01*
X69339Y-21672D01*
X69202Y-21725D01*
X69057Y-21750D01*
X68910Y-21747D01*
X68776Y-21717D01*
X68705Y-21788D01*
X68701Y-21794D01*
X68699Y-21795D01*
X68698Y-21797D01*
X68688Y-21804D01*
X68648Y-21838D01*
X68587Y-21870D01*
X68584Y-21870D01*
X68584Y-21871D01*
X68556Y-21878D01*
X68522Y-21889D01*
X68521Y-21889D01*
X68518Y-21890D01*
X68477Y-21893D01*
X68454Y-21896D01*
X63157Y-21896D01*
X62060Y-22992D01*
X62056Y-22998D01*
X62054Y-22999D01*
X62053Y-23001D01*
X62043Y-23008D01*
X62003Y-23042D01*
X61942Y-23074D01*
X61939Y-23074D01*
X61939Y-23075D01*
X61911Y-23083D01*
X61877Y-23093D01*
X61876Y-23093D01*
X61873Y-23094D01*
X61832Y-23097D01*
X61809Y-23100D01*
X59549Y-23100D01*
X59528Y-23109D01*
X59480Y-23118D01*
X58563Y-23118D01*
X58515Y-23108D01*
X58470Y-23089D01*
X58430Y-23061D01*
X58395Y-23026D01*
X58368Y-22985D01*
X58349Y-22940D01*
X58340Y-22892D01*
X58340Y-22605D01*
X58350Y-22557D01*
X58369Y-22512D01*
X58372Y-22506D01*
X58371Y-22506D01*
X57885Y-22992D01*
X57881Y-22998D01*
X57879Y-22999D01*
X57878Y-23001D01*
X57868Y-23008D01*
X57828Y-23042D01*
X57767Y-23074D01*
X57764Y-23074D01*
X57764Y-23075D01*
X57736Y-23082D01*
X57702Y-23093D01*
X57701Y-23093D01*
X57698Y-23094D01*
X57657Y-23097D01*
X57634Y-23100D01*
X57503Y-23100D01*
X57482Y-23109D01*
X57434Y-23118D01*
X56517Y-23118D01*
X56469Y-23108D01*
X56424Y-23089D01*
X56384Y-23061D01*
X56349Y-23026D01*
X56322Y-22985D01*
X56303Y-22940D01*
X56294Y-22892D01*
X56294Y-22605D01*
X56295Y-22600D01*
X56251Y-22594D01*
X56230Y-22593D01*
X56222Y-22590D01*
X56162Y-22572D01*
X56102Y-22539D01*
X56097Y-22535D01*
X56033Y-22521D01*
X55957Y-22488D01*
X55888Y-22440D01*
X55831Y-22381D01*
X55815Y-22356D01*
X55815Y-22441D01*
X55826Y-22452D01*
X55876Y-22463D01*
X55953Y-22495D01*
X56022Y-22542D01*
X56081Y-22601D01*
X56127Y-22670D01*
X56159Y-22747D01*
X56175Y-22829D01*
X56174Y-22924D01*
X56155Y-23005D01*
X56121Y-23082D01*
X56074Y-23150D01*
X56013Y-23207D01*
X55943Y-23252D01*
X55865Y-23282D01*
X55783Y-23297D01*
X55700Y-23295D01*
X55618Y-23277D01*
X55542Y-23244D01*
X55473Y-23196D01*
X55416Y-23137D01*
X55370Y-23067D01*
X55340Y-22989D01*
X55331Y-22947D01*
X55222Y-22837D01*
X55217Y-22833D01*
X55214Y-22830D01*
X55206Y-22820D01*
X55173Y-22780D01*
X55141Y-22719D01*
X55140Y-22716D01*
X55132Y-22688D01*
X55122Y-22654D01*
X55121Y-22653D01*
X55121Y-22650D01*
X55117Y-22610D01*
X55115Y-22586D01*
X55115Y-20952D01*
X55116Y-20940D01*
X55121Y-20888D01*
X55142Y-20822D01*
X55142Y-20821D01*
X55143Y-20819D01*
X55176Y-20759D01*
X55220Y-20707D01*
X55278Y-20649D01*
X55291Y-20638D01*
X55328Y-20608D01*
X55389Y-20576D01*
X55389Y-20575D01*
X55391Y-20575D01*
X55457Y-20556D01*
X55494Y-20552D01*
X55305Y-20363D01*
X55251Y-20340D01*
X55182Y-20292D01*
X55125Y-20233D01*
X55079Y-20163D01*
X55049Y-20085D01*
X55033Y-20003D01*
X55035Y-19920D01*
X55052Y-19838D01*
X55085Y-19762D01*
X55132Y-19693D01*
X55191Y-19634D01*
X55261Y-19589D01*
X55338Y-19557D01*
X55420Y-19542D01*
X55503Y-19542D01*
X55585Y-19559D01*
X55662Y-19591D01*
X55731Y-19638D01*
X55790Y-19697D01*
X55836Y-19766D01*
X55868Y-19843D01*
X55874Y-19874D01*
X55913Y-19850D01*
X55990Y-19818D01*
X56072Y-19803D01*
X56155Y-19803D01*
X56237Y-19820D01*
X56294Y-19843D01*
X56294Y-19605D01*
X56304Y-19557D01*
X56323Y-19512D01*
X56331Y-19499D01*
X56322Y-19485D01*
X56303Y-19440D01*
X56294Y-19392D01*
X56294Y-19362D01*
X56356Y-19300D01*
X56927Y-19300D01*
X57027Y-19300D01*
X57027Y-19200D01*
X56927Y-19200D01*
X56356Y-19200D01*
X56294Y-19138D01*
X56294Y-19108D01*
X56303Y-19060D01*
X56322Y-19015D01*
X56349Y-18974D01*
X56384Y-18939D01*
X56424Y-18911D01*
X56469Y-18892D01*
X56517Y-18882D01*
X56865Y-18882D01*
X56927Y-18944D01*
X56927Y-18932D01*
X57010Y-18932D01*
X56657Y-18579D01*
X56031Y-18579D01*
X55556Y-19054D01*
X55536Y-19069D01*
X55512Y-19090D01*
X55510Y-19090D01*
X55509Y-19092D01*
X55487Y-19102D01*
X55458Y-19119D01*
X55455Y-19119D01*
X55455Y-19120D01*
X55397Y-19137D01*
X55355Y-19140D01*
X55340Y-19142D01*
X54848Y-19142D01*
X54635Y-19355D01*
X54615Y-19370D01*
X54591Y-19391D01*
X54589Y-19391D01*
X54588Y-19393D01*
X54566Y-19403D01*
X54537Y-19420D01*
X54534Y-19420D01*
X54534Y-19421D01*
X54476Y-19438D01*
X54433Y-19441D01*
X54419Y-19443D01*
X53523Y-19443D01*
X53509Y-19441D01*
X53466Y-19437D01*
X53407Y-19419D01*
X53405Y-19418D01*
X53352Y-19389D01*
X53322Y-19363D01*
X53308Y-19352D01*
X53229Y-19273D01*
X53204Y-19273D01*
X52892Y-19585D01*
X52962Y-19615D01*
X53052Y-19675D01*
X53127Y-19751D01*
X53187Y-19841D01*
X53228Y-19940D01*
X53249Y-20046D01*
X53247Y-20113D01*
X53261Y-20100D01*
X53264Y-20097D01*
X53285Y-20080D01*
X53309Y-20061D01*
X53363Y-20032D01*
X53421Y-20015D01*
X53481Y-20009D01*
X54023Y-20009D01*
X54046Y-19986D01*
X54116Y-19941D01*
X54193Y-19909D01*
X54275Y-19894D01*
X54358Y-19894D01*
X54440Y-19911D01*
X54517Y-19943D01*
X54586Y-19990D01*
X54645Y-20049D01*
X54691Y-20118D01*
X54723Y-20195D01*
X54739Y-20277D01*
X54738Y-20372D01*
X54719Y-20453D01*
X54685Y-20530D01*
X54638Y-20598D01*
X54577Y-20655D01*
X54507Y-20700D01*
X54489Y-20706D01*
X54539Y-20740D01*
X54598Y-20799D01*
X54644Y-20868D01*
X54676Y-20945D01*
X54692Y-21027D01*
X54691Y-21122D01*
X54672Y-21203D01*
X54647Y-21257D01*
X54675Y-21285D01*
X54721Y-21354D01*
X54753Y-21431D01*
X54769Y-21513D01*
X54768Y-21608D01*
X54749Y-21689D01*
X54715Y-21766D01*
X54706Y-21778D01*
X54726Y-21808D01*
X54758Y-21885D01*
X54774Y-21967D01*
X54773Y-22062D01*
X54754Y-22143D01*
X54720Y-22220D01*
X54673Y-22288D01*
X54612Y-22345D01*
X54598Y-22353D01*
X54636Y-22391D01*
X54682Y-22460D01*
X54714Y-22537D01*
X54730Y-22619D01*
X54729Y-22714D01*
X54710Y-22795D01*
X54676Y-22872D01*
X54629Y-22940D01*
X54568Y-22997D01*
X54498Y-23042D01*
X54420Y-23072D01*
X54381Y-23079D01*
X54271Y-23188D01*
X54267Y-23194D01*
X54265Y-23195D01*
X54264Y-23197D01*
X54254Y-23204D01*
X54214Y-23238D01*
X54153Y-23270D01*
X54150Y-23270D01*
X54150Y-23271D01*
X54122Y-23278D01*
X54088Y-23289D01*
X54087Y-23289D01*
X54084Y-23290D01*
X54043Y-23293D01*
X54020Y-23296D01*
X47532Y-23296D01*
X47488Y-23290D01*
X47467Y-23289D01*
X47401Y-23269D01*
X47399Y-23268D01*
X47339Y-23235D01*
X47297Y-23200D01*
X47289Y-23193D01*
X44955Y-20858D01*
X44950Y-20854D01*
X44947Y-20851D01*
X44939Y-20841D01*
X44906Y-20801D01*
X44874Y-20740D01*
X44873Y-20737D01*
X44865Y-20709D01*
X44855Y-20675D01*
X44854Y-20674D01*
X44854Y-20671D01*
X44850Y-20630D01*
X44848Y-20607D01*
X44848Y-13984D01*
X44709Y-14027D01*
X44506Y-14048D01*
X44302Y-14030D01*
X44105Y-13972D01*
X43924Y-13877D01*
X43838Y-13733D01*
X44500Y-13071D01*
X44941Y-13512D01*
X44941Y-13511D01*
X44500Y-13071D01*
X44571Y-13000D01*
X45010Y-13440D01*
X45011Y-13440D01*
X44571Y-13000D01*
X44500Y-12929D01*
X44429Y-13000D01*
X43767Y-13662D01*
X43767Y-21838D01*
X44429Y-22500D01*
X43767Y-23162D01*
X43623Y-23076D01*
X43533Y-22905D01*
X43473Y-22709D01*
X43452Y-22506D01*
X43470Y-22302D01*
X43528Y-22105D01*
X43623Y-21924D01*
X43767Y-21838D01*
X43767Y-13662D01*
X43623Y-13576D01*
X43533Y-13405D01*
X43473Y-13209D01*
X43452Y-13006D01*
X43470Y-12802D01*
X43528Y-12605D01*
X43623Y-12424D01*
X43767Y-12338D01*
X44429Y-13000D01*
X43755Y-12325D01*
X43825Y-12255D01*
X44500Y-12929D01*
X43838Y-12267D01*
X43845Y-12254D01*
X32745Y-12254D01*
X29219Y-15780D01*
X29223Y-15781D01*
X29358Y-15838D01*
X29480Y-15920D01*
X29583Y-16025D01*
X29665Y-16147D01*
X29721Y-16283D01*
X29749Y-16427D01*
X29747Y-16595D01*
X29714Y-16738D01*
X29654Y-16872D01*
X29569Y-16992D01*
X29463Y-17093D01*
X29339Y-17172D01*
X29202Y-17225D01*
X29057Y-17250D01*
X28910Y-17247D01*
X28767Y-17216D01*
X28632Y-17157D01*
X28512Y-17073D01*
X28410Y-16967D01*
X28330Y-16844D01*
X28280Y-16718D01*
X24718Y-20280D01*
X24723Y-20281D01*
X24858Y-20338D01*
X24980Y-20420D01*
X25083Y-20525D01*
X25165Y-20647D01*
X25221Y-20783D01*
X25249Y-20927D01*
X25247Y-21095D01*
X25214Y-21238D01*
X25154Y-21372D01*
X25069Y-21492D01*
X24963Y-21593D01*
X24839Y-21672D01*
X24702Y-21725D01*
X24557Y-21750D01*
X24410Y-21747D01*
X24267Y-21716D01*
X24132Y-21657D01*
X24012Y-21573D01*
X23910Y-21467D01*
X23830Y-21344D01*
X23780Y-21218D01*
X23756Y-21242D01*
X23752Y-21248D01*
X23750Y-21249D01*
X23749Y-21251D01*
X23739Y-21258D01*
X23699Y-21292D01*
X23638Y-21324D01*
X23635Y-21324D01*
X23635Y-21325D01*
X23607Y-21333D01*
X23573Y-21343D01*
X23572Y-21343D01*
X23569Y-21344D01*
X23529Y-21347D01*
X23505Y-21350D01*
X20663Y-21350D01*
X20654Y-21372D01*
X20569Y-21492D01*
X20463Y-21593D01*
X20339Y-21672D01*
X20202Y-21725D01*
X20057Y-21750D01*
X19910Y-21747D01*
X19767Y-21716D01*
X19632Y-21657D01*
X19512Y-21573D01*
X19410Y-21467D01*
X19330Y-21344D01*
X19276Y-21207D01*
X19250Y-21063D01*
X19252Y-20916D01*
X19283Y-20772D01*
X19341Y-20637D01*
X19424Y-20516D01*
X19529Y-20413D01*
X19652Y-20333D01*
X19788Y-20278D01*
X19932Y-20251D01*
X20057Y-20251D01*
X20057Y-19750D01*
X19910Y-19747D01*
X19767Y-19716D01*
X19632Y-19657D01*
X19512Y-19573D01*
X19410Y-19467D01*
X19330Y-19344D01*
X19276Y-19207D01*
X19250Y-19063D01*
X19252Y-18916D01*
X19283Y-18772D01*
X19341Y-18637D01*
X19424Y-18516D01*
X19529Y-18413D01*
X19652Y-18333D01*
X19788Y-18278D01*
X19932Y-18251D01*
X20057Y-18251D01*
X20057Y-17250D01*
X19910Y-17247D01*
X19767Y-17216D01*
X19632Y-17157D01*
X19512Y-17073D01*
X19410Y-16967D01*
X19330Y-16844D01*
X19276Y-16707D01*
X19250Y-16563D01*
X19252Y-16416D01*
X19283Y-16272D01*
X19341Y-16137D01*
X19424Y-16016D01*
X19529Y-15913D01*
X19652Y-15833D01*
X19788Y-15778D01*
X19932Y-15751D01*
X20057Y-15751D01*
X20057Y-15250D01*
X19910Y-15247D01*
X19767Y-15216D01*
X19632Y-15157D01*
X19512Y-15073D01*
X19410Y-14967D01*
X19333Y-14850D01*
X16162Y-14850D01*
X16153Y-14872D01*
X16068Y-14992D01*
X15962Y-15093D01*
X15838Y-15172D01*
X15701Y-15225D01*
X15556Y-15250D01*
X15409Y-15247D01*
X15266Y-15216D01*
X15131Y-15157D01*
X15011Y-15073D01*
X14909Y-14967D01*
X14829Y-14844D01*
X14775Y-14707D01*
X14749Y-14563D01*
X14751Y-14416D01*
X14782Y-14272D01*
X14840Y-14137D01*
X14923Y-14016D01*
X15028Y-13913D01*
X15151Y-13833D01*
X15287Y-13778D01*
X15431Y-13751D01*
X15578Y-13752D01*
X15722Y-13781D01*
X15857Y-13838D01*
X15979Y-13920D01*
X16082Y-14025D01*
X16164Y-14147D01*
X16165Y-14150D01*
X19335Y-14150D01*
X19341Y-14137D01*
X19424Y-14016D01*
X19529Y-13913D01*
X19652Y-13833D01*
X19788Y-13778D01*
X19932Y-13751D01*
X20079Y-13752D01*
X20223Y-13781D01*
X20358Y-13838D01*
X20480Y-13920D01*
X20583Y-14025D01*
X20665Y-14147D01*
X20721Y-14283D01*
X20749Y-14427D01*
X20747Y-14595D01*
X20714Y-14738D01*
X20654Y-14872D01*
X20569Y-14992D01*
X20463Y-15093D01*
X20339Y-15172D01*
X20202Y-15225D01*
X20057Y-15250D01*
X20057Y-15751D01*
X20079Y-15752D01*
X20223Y-15781D01*
X20358Y-15838D01*
X20480Y-15920D01*
X20583Y-16025D01*
X20665Y-16147D01*
X20721Y-16283D01*
X20749Y-16427D01*
X20747Y-16595D01*
X20714Y-16738D01*
X20654Y-16872D01*
X20569Y-16992D01*
X20463Y-17093D01*
X20339Y-17172D01*
X20202Y-17225D01*
X20057Y-17250D01*
X20057Y-18251D01*
X20079Y-18252D01*
X20223Y-18281D01*
X20358Y-18338D01*
X20480Y-18420D01*
X20583Y-18525D01*
X20665Y-18647D01*
X20721Y-18783D01*
X20749Y-18927D01*
X20747Y-19095D01*
X20714Y-19238D01*
X20654Y-19372D01*
X20569Y-19492D01*
X20463Y-19593D01*
X20339Y-19672D01*
X20202Y-19725D01*
X20057Y-19750D01*
X20057Y-20251D01*
X20079Y-20252D01*
X20223Y-20281D01*
X20358Y-20338D01*
X20480Y-20420D01*
X20583Y-20525D01*
X20665Y-20647D01*
X20666Y-20650D01*
X23360Y-20650D01*
X24289Y-19720D01*
X24267Y-19716D01*
X24132Y-19657D01*
X24012Y-19573D01*
X23910Y-19467D01*
X23830Y-19344D01*
X23776Y-19207D01*
X23750Y-19063D01*
X23752Y-18916D01*
X23783Y-18772D01*
X23841Y-18637D01*
X23924Y-18516D01*
X24029Y-18413D01*
X24152Y-18333D01*
X24288Y-18278D01*
X24432Y-18251D01*
X24557Y-18251D01*
X24557Y-17250D01*
X24410Y-17247D01*
X24267Y-17216D01*
X24132Y-17157D01*
X24012Y-17073D01*
X23910Y-16967D01*
X23830Y-16844D01*
X23776Y-16707D01*
X23750Y-16563D01*
X23752Y-16416D01*
X23783Y-16272D01*
X23841Y-16137D01*
X23924Y-16016D01*
X24029Y-15913D01*
X24152Y-15833D01*
X24288Y-15778D01*
X24432Y-15751D01*
X24579Y-15752D01*
X24723Y-15781D01*
X24858Y-15838D01*
X24980Y-15920D01*
X25083Y-16025D01*
X25165Y-16147D01*
X25221Y-16283D01*
X25249Y-16427D01*
X25247Y-16595D01*
X25214Y-16738D01*
X25154Y-16872D01*
X25069Y-16992D01*
X24963Y-17093D01*
X24839Y-17172D01*
X24702Y-17225D01*
X24557Y-17250D01*
X24557Y-18251D01*
X24579Y-18252D01*
X24723Y-18281D01*
X24858Y-18338D01*
X24980Y-18420D01*
X25083Y-18525D01*
X25165Y-18647D01*
X25221Y-18783D01*
X25222Y-18788D01*
X28789Y-15220D01*
X28767Y-15216D01*
X28632Y-15157D01*
X28512Y-15073D01*
X28410Y-14967D01*
X28333Y-14850D01*
X25163Y-14850D01*
X25154Y-14872D01*
X25069Y-14992D01*
X24963Y-15093D01*
X24839Y-15172D01*
X24702Y-15225D01*
X24557Y-15250D01*
X24410Y-15247D01*
X24267Y-15216D01*
X24132Y-15157D01*
X24012Y-15073D01*
X23910Y-14967D01*
X23830Y-14844D01*
X23776Y-14707D01*
X23750Y-14563D01*
X23752Y-14416D01*
X23783Y-14272D01*
X23841Y-14137D01*
X23924Y-14016D01*
X24029Y-13913D01*
X24152Y-13833D01*
X24288Y-13778D01*
X24432Y-13751D01*
X24579Y-13752D01*
X24723Y-13781D01*
X24858Y-13838D01*
X24980Y-13920D01*
X25083Y-14025D01*
X25165Y-14147D01*
X25166Y-14150D01*
X28335Y-14150D01*
X28341Y-14137D01*
X28424Y-14016D01*
X28529Y-13913D01*
X28652Y-13833D01*
X28788Y-13778D01*
X28932Y-13751D01*
X29079Y-13752D01*
X29223Y-13781D01*
X29358Y-13838D01*
X29480Y-13920D01*
X29583Y-14025D01*
X29665Y-14147D01*
X29721Y-14283D01*
X29722Y-14288D01*
X32135Y-11875D01*
X27524Y-11875D01*
X27524Y-12810D01*
X16957Y-12810D01*
X16957Y-11875D01*
X11275Y-11875D01*
X11275Y-23625D01*
X11767Y-23625D01*
X11767Y-23162D01*
X11673Y-23105D01*
X11623Y-23076D01*
X11533Y-22905D01*
X11473Y-22709D01*
X11452Y-22506D01*
X11470Y-22302D01*
X11528Y-22105D01*
X11623Y-21924D01*
X11673Y-21894D01*
X11673Y-20650D01*
X11625Y-20640D01*
X11580Y-20621D01*
X11540Y-20593D01*
X11505Y-20558D01*
X11478Y-20517D01*
X11459Y-20472D01*
X11450Y-20424D01*
X11450Y-19773D01*
X11460Y-19725D01*
X11479Y-19680D01*
X11507Y-19640D01*
X11542Y-19605D01*
X11583Y-19578D01*
X11628Y-19559D01*
X11676Y-19550D01*
X11685Y-19550D01*
X11643Y-19520D01*
X11568Y-19443D01*
X11509Y-19352D01*
X11470Y-19252D01*
X11450Y-19146D01*
X11452Y-19039D01*
X11474Y-18933D01*
X11517Y-18834D01*
X11577Y-18746D01*
X11654Y-18670D01*
X11744Y-18611D01*
X11771Y-18599D01*
X11731Y-18582D01*
X11643Y-18520D01*
X11568Y-18443D01*
X11509Y-18352D01*
X11470Y-18252D01*
X11450Y-18146D01*
X11452Y-18039D01*
X11474Y-17933D01*
X11517Y-17834D01*
X11577Y-17746D01*
X11654Y-17670D01*
X11744Y-17611D01*
X11771Y-17599D01*
X11731Y-17582D01*
X11643Y-17520D01*
X11568Y-17443D01*
X11509Y-17352D01*
X11470Y-17252D01*
X11450Y-17146D01*
X11452Y-17039D01*
X11474Y-16933D01*
X11517Y-16834D01*
X11577Y-16746D01*
X11622Y-16701D01*
X11622Y-16408D01*
X11528Y-16381D01*
X11503Y-16334D01*
X11467Y-16233D01*
X11451Y-16127D01*
X11456Y-16020D01*
X11482Y-15916D01*
X11528Y-15819D01*
X11622Y-15792D01*
X11622Y-15408D01*
X11528Y-15381D01*
X11503Y-15334D01*
X11467Y-15233D01*
X11451Y-15127D01*
X11456Y-15020D01*
X11482Y-14916D01*
X11528Y-14819D01*
X11622Y-14792D01*
X11929Y-15100D01*
X11622Y-15408D01*
X11622Y-15792D01*
X11929Y-16100D01*
X11622Y-16408D01*
X11622Y-16701D01*
X11654Y-16670D01*
X11744Y-16611D01*
X11775Y-16598D01*
X11719Y-16572D01*
X11692Y-16478D01*
X12000Y-16171D01*
X12000Y-16029D01*
X11692Y-15722D01*
X11719Y-15628D01*
X11766Y-15603D01*
X11776Y-15599D01*
X11719Y-15572D01*
X11692Y-15478D01*
X12000Y-15171D01*
X12000Y-15029D01*
X11692Y-14722D01*
X11719Y-14628D01*
X11766Y-14603D01*
X11767Y-14602D01*
X11767Y-13662D01*
X11623Y-13576D01*
X11533Y-13405D01*
X11473Y-13209D01*
X11452Y-13006D01*
X11470Y-12802D01*
X11528Y-12605D01*
X11623Y-12424D01*
X11767Y-12338D01*
X12429Y-13000D01*
X11767Y-13662D01*
X11767Y-14602D01*
X11867Y-14567D01*
X11973Y-14551D01*
X12080Y-14556D01*
X12184Y-14582D01*
X12281Y-14628D01*
X12308Y-14722D01*
X12000Y-15029D01*
X12000Y-15171D01*
X12308Y-15478D01*
X12281Y-15572D01*
X12234Y-15597D01*
X12223Y-15600D01*
X12281Y-15628D01*
X12308Y-15722D01*
X12000Y-16029D01*
X12000Y-16171D01*
X12308Y-16478D01*
X12281Y-16572D01*
X12234Y-16597D01*
X12226Y-16599D01*
X12262Y-16615D01*
X12352Y-16675D01*
X12378Y-16701D01*
X12378Y-16408D01*
X12071Y-16100D01*
X12378Y-15792D01*
X12378Y-15408D01*
X12071Y-15100D01*
X12378Y-14792D01*
X12472Y-14819D01*
X12497Y-14866D01*
X12506Y-14891D01*
X12506Y-14048D01*
X12302Y-14030D01*
X12105Y-13972D01*
X11924Y-13877D01*
X11838Y-13733D01*
X12500Y-13071D01*
X12500Y-12929D01*
X11838Y-12267D01*
X11924Y-12123D01*
X12095Y-12033D01*
X12291Y-11973D01*
X12494Y-11952D01*
X12698Y-11970D01*
X12895Y-12028D01*
X13076Y-12123D01*
X13162Y-12267D01*
X12500Y-12929D01*
X12500Y-13071D01*
X13162Y-13733D01*
X13076Y-13877D01*
X12905Y-13967D01*
X12709Y-14027D01*
X12506Y-14048D01*
X12506Y-14891D01*
X12533Y-14967D01*
X12549Y-15073D01*
X12544Y-15180D01*
X12518Y-15284D01*
X12472Y-15381D01*
X12378Y-15408D01*
X12378Y-15792D01*
X12472Y-15819D01*
X12497Y-15866D01*
X12533Y-15967D01*
X12549Y-16073D01*
X12544Y-16180D01*
X12518Y-16284D01*
X12472Y-16381D01*
X12378Y-16408D01*
X12378Y-16701D01*
X12427Y-16751D01*
X12487Y-16841D01*
X12528Y-16940D01*
X12549Y-17046D01*
X12547Y-17169D01*
X12524Y-17274D01*
X12480Y-17372D01*
X12418Y-17460D01*
X12340Y-17535D01*
X12249Y-17592D01*
X12227Y-17600D01*
X12262Y-17615D01*
X12352Y-17675D01*
X12427Y-17751D01*
X12487Y-17841D01*
X12528Y-17940D01*
X12549Y-18046D01*
X12547Y-18113D01*
X12870Y-17791D01*
X12870Y-17424D01*
X12846Y-17400D01*
X12800Y-17330D01*
X12770Y-17252D01*
X12754Y-17170D01*
X12756Y-17087D01*
X12773Y-17005D01*
X12806Y-16929D01*
X12853Y-16860D01*
X12912Y-16801D01*
X12982Y-16756D01*
X13059Y-16724D01*
X13141Y-16709D01*
X13224Y-16709D01*
X13233Y-16710D01*
X13233Y-13662D01*
X12571Y-13000D01*
X13233Y-12338D01*
X13377Y-12424D01*
X13467Y-12595D01*
X13527Y-12791D01*
X13548Y-12994D01*
X13530Y-13198D01*
X13472Y-13395D01*
X13377Y-13576D01*
X13233Y-13662D01*
X13233Y-16710D01*
X13306Y-16726D01*
X13383Y-16758D01*
X13452Y-16805D01*
X13511Y-16864D01*
X13557Y-16933D01*
X13589Y-17010D01*
X13605Y-17092D01*
X13604Y-17187D01*
X13585Y-17268D01*
X13551Y-17345D01*
X13504Y-17413D01*
X13490Y-17426D01*
X13490Y-17924D01*
X13485Y-17960D01*
X13484Y-17981D01*
X13466Y-18040D01*
X13465Y-18041D01*
X13465Y-18042D01*
X13436Y-18095D01*
X13422Y-18110D01*
X13399Y-18140D01*
X12539Y-18998D01*
X12549Y-19046D01*
X12547Y-19169D01*
X12524Y-19274D01*
X12480Y-19372D01*
X12418Y-19460D01*
X12340Y-19535D01*
X12316Y-19550D01*
X12327Y-19550D01*
X12375Y-19560D01*
X12420Y-19579D01*
X12460Y-19607D01*
X12495Y-19642D01*
X12522Y-19683D01*
X12541Y-19728D01*
X12550Y-19776D01*
X12550Y-20427D01*
X12540Y-20475D01*
X12521Y-20520D01*
X12493Y-20560D01*
X12458Y-20595D01*
X12417Y-20622D01*
X12372Y-20641D01*
X12324Y-20650D01*
X11673Y-20650D01*
X11673Y-21894D01*
X11767Y-21838D01*
X12429Y-22500D01*
X11767Y-23162D01*
X11767Y-23625D01*
X12506Y-23625D01*
X12506Y-23548D01*
X12302Y-23530D01*
X12105Y-23472D01*
X11924Y-23377D01*
X11838Y-23233D01*
X12500Y-22571D01*
X12500Y-22429D01*
X11838Y-21767D01*
X11924Y-21623D01*
X12095Y-21533D01*
X12291Y-21473D01*
X12494Y-21452D01*
X12698Y-21470D01*
X12895Y-21528D01*
X13076Y-21623D01*
X13162Y-21767D01*
X12500Y-22429D01*
X12500Y-22571D01*
X13162Y-23233D01*
X13076Y-23377D01*
X12905Y-23467D01*
X12709Y-23527D01*
X12506Y-23548D01*
X12506Y-23625D01*
X13233Y-23625D01*
X13233Y-23162D01*
X12571Y-22500D01*
X13233Y-21838D01*
X13377Y-21924D01*
X13467Y-22095D01*
X13527Y-22291D01*
X13548Y-22494D01*
X13530Y-22698D01*
X13472Y-22895D01*
X13377Y-23076D01*
X13233Y-23162D01*
X13233Y-23625D01*
X15557Y-23625D01*
X15557Y-21750D01*
X15410Y-21747D01*
X15267Y-21716D01*
X15132Y-21657D01*
X15012Y-21573D01*
X14910Y-21467D01*
X14830Y-21344D01*
X14776Y-21207D01*
X14750Y-21063D01*
X14752Y-20916D01*
X14783Y-20772D01*
X14841Y-20637D01*
X14924Y-20516D01*
X15029Y-20413D01*
X15152Y-20333D01*
X15288Y-20278D01*
X15432Y-20251D01*
X15557Y-20251D01*
X15557Y-19750D01*
X15410Y-19747D01*
X15267Y-19716D01*
X15132Y-19657D01*
X15012Y-19573D01*
X14910Y-19467D01*
X14830Y-19344D01*
X14776Y-19207D01*
X14750Y-19063D01*
X14752Y-18916D01*
X14783Y-18772D01*
X14841Y-18637D01*
X14924Y-18516D01*
X15029Y-18413D01*
X15152Y-18333D01*
X15288Y-18278D01*
X15432Y-18251D01*
X15556Y-18251D01*
X15556Y-17250D01*
X15409Y-17247D01*
X15266Y-17216D01*
X15131Y-17157D01*
X15011Y-17073D01*
X14909Y-16967D01*
X14829Y-16844D01*
X14775Y-16707D01*
X14749Y-16563D01*
X14751Y-16416D01*
X14782Y-16272D01*
X14840Y-16137D01*
X14923Y-16016D01*
X15028Y-15913D01*
X15151Y-15833D01*
X15287Y-15778D01*
X15431Y-15751D01*
X15578Y-15752D01*
X15722Y-15781D01*
X15857Y-15838D01*
X15979Y-15920D01*
X16082Y-16025D01*
X16164Y-16147D01*
X16220Y-16283D01*
X16248Y-16427D01*
X16246Y-16595D01*
X16213Y-16738D01*
X16153Y-16872D01*
X16068Y-16992D01*
X15962Y-17093D01*
X15838Y-17172D01*
X15701Y-17225D01*
X15556Y-17250D01*
X15556Y-18251D01*
X15579Y-18252D01*
X15723Y-18281D01*
X15858Y-18338D01*
X15980Y-18420D01*
X16083Y-18525D01*
X16165Y-18647D01*
X16221Y-18783D01*
X16249Y-18927D01*
X16247Y-19095D01*
X16214Y-19238D01*
X16154Y-19372D01*
X16069Y-19492D01*
X15963Y-19593D01*
X15839Y-19672D01*
X15702Y-19725D01*
X15557Y-19750D01*
X15557Y-20251D01*
X15579Y-20252D01*
X15723Y-20281D01*
X15858Y-20338D01*
X15980Y-20420D01*
X16083Y-20525D01*
X16165Y-20647D01*
X16221Y-20783D01*
X16249Y-20927D01*
X16247Y-21095D01*
X16214Y-21238D01*
X16154Y-21372D01*
X16069Y-21492D01*
X15963Y-21593D01*
X15839Y-21672D01*
X15702Y-21725D01*
X15557Y-21750D01*
X15557Y-23625D01*
X29057Y-23625D01*
X29057Y-21750D01*
X28910Y-21747D01*
X28767Y-21716D01*
X28632Y-21657D01*
X28512Y-21573D01*
X28410Y-21467D01*
X28330Y-21344D01*
X28276Y-21207D01*
X28250Y-21063D01*
X28252Y-20916D01*
X28283Y-20772D01*
X28341Y-20637D01*
X28424Y-20516D01*
X28529Y-20413D01*
X28652Y-20333D01*
X28788Y-20278D01*
X28932Y-20251D01*
X29057Y-20251D01*
X29057Y-19750D01*
X28910Y-19747D01*
X28767Y-19716D01*
X28632Y-19657D01*
X28512Y-19573D01*
X28410Y-19467D01*
X28330Y-19344D01*
X28276Y-19207D01*
X28250Y-19063D01*
X28252Y-18916D01*
X28283Y-18772D01*
X28341Y-18637D01*
X28424Y-18516D01*
X28529Y-18413D01*
X28652Y-18333D01*
X28788Y-18278D01*
X28932Y-18251D01*
X29079Y-18252D01*
X29223Y-18281D01*
X29358Y-18338D01*
X29480Y-18420D01*
X29583Y-18525D01*
X29665Y-18647D01*
X29721Y-18783D01*
X29749Y-18927D01*
X29747Y-19095D01*
X29714Y-19238D01*
X29654Y-19372D01*
X29569Y-19492D01*
X29463Y-19593D01*
X29339Y-19672D01*
X29202Y-19725D01*
X29057Y-19750D01*
X29057Y-20251D01*
X29079Y-20252D01*
X29223Y-20281D01*
X29358Y-20338D01*
X29480Y-20420D01*
X29583Y-20525D01*
X29665Y-20647D01*
X29721Y-20783D01*
X29749Y-20927D01*
X29747Y-21095D01*
X29714Y-21238D01*
X29654Y-21372D01*
X29569Y-21492D01*
X29463Y-21593D01*
X29339Y-21672D01*
X29202Y-21725D01*
X29057Y-21750D01*
X29057Y-23625D01*
X33557Y-23625D01*
X33557Y-21750D01*
X33410Y-21747D01*
X33267Y-21716D01*
X33132Y-21657D01*
X33012Y-21573D01*
X32910Y-21467D01*
X32830Y-21344D01*
X32776Y-21207D01*
X32750Y-21063D01*
X32752Y-20916D01*
X32783Y-20772D01*
X32841Y-20637D01*
X32924Y-20516D01*
X33029Y-20413D01*
X33152Y-20333D01*
X33288Y-20278D01*
X33432Y-20251D01*
X33557Y-20251D01*
X33557Y-19750D01*
X33410Y-19747D01*
X33267Y-19716D01*
X33132Y-19657D01*
X33012Y-19573D01*
X32910Y-19467D01*
X32830Y-19344D01*
X32776Y-19207D01*
X32750Y-19063D01*
X32752Y-18916D01*
X32783Y-18772D01*
X32841Y-18637D01*
X32924Y-18516D01*
X33029Y-18413D01*
X33152Y-18333D01*
X33288Y-18278D01*
X33432Y-18251D01*
X33557Y-18251D01*
X33557Y-17250D01*
X33410Y-17247D01*
X33267Y-17216D01*
X33132Y-17157D01*
X33012Y-17073D01*
X32910Y-16967D01*
X32830Y-16844D01*
X32776Y-16707D01*
X32750Y-16563D01*
X32752Y-16416D01*
X32783Y-16272D01*
X32841Y-16137D01*
X32924Y-16016D01*
X33029Y-15913D01*
X33152Y-15833D01*
X33288Y-15778D01*
X33432Y-15751D01*
X33579Y-15752D01*
X33723Y-15781D01*
X33858Y-15838D01*
X33980Y-15920D01*
X34083Y-16025D01*
X34165Y-16147D01*
X34221Y-16283D01*
X34249Y-16427D01*
X34247Y-16595D01*
X34214Y-16738D01*
X34154Y-16872D01*
X34069Y-16992D01*
X33963Y-17093D01*
X33839Y-17172D01*
X33702Y-17225D01*
X33557Y-17250D01*
X33557Y-18251D01*
X33579Y-18252D01*
X33723Y-18281D01*
X33858Y-18338D01*
X33980Y-18420D01*
X34083Y-18525D01*
X34165Y-18647D01*
X34221Y-18783D01*
X34249Y-18927D01*
X34247Y-19095D01*
X34214Y-19238D01*
X34154Y-19372D01*
X34069Y-19492D01*
X33963Y-19593D01*
X33839Y-19672D01*
X33702Y-19725D01*
X33557Y-19750D01*
X33557Y-20251D01*
X33579Y-20252D01*
X33723Y-20281D01*
X33858Y-20338D01*
X33980Y-20420D01*
X34083Y-20525D01*
X34165Y-20647D01*
X34221Y-20783D01*
X34249Y-20927D01*
X34247Y-21095D01*
X34214Y-21238D01*
X34154Y-21372D01*
X34069Y-21492D01*
X33963Y-21593D01*
X33839Y-21672D01*
X33702Y-21725D01*
X33557Y-21750D01*
X33557Y-23625D01*
X38057Y-23625D01*
X38057Y-21750D01*
X37910Y-21747D01*
X37767Y-21716D01*
X37632Y-21657D01*
X37512Y-21573D01*
X37410Y-21467D01*
X37330Y-21344D01*
X37276Y-21207D01*
X37250Y-21063D01*
X37252Y-20916D01*
X37283Y-20772D01*
X37341Y-20637D01*
X37424Y-20516D01*
X37529Y-20413D01*
X37652Y-20333D01*
X37788Y-20278D01*
X37932Y-20251D01*
X38057Y-20251D01*
X38057Y-19750D01*
X37910Y-19747D01*
X37767Y-19716D01*
X37632Y-19657D01*
X37512Y-19573D01*
X37410Y-19467D01*
X37330Y-19344D01*
X37276Y-19207D01*
X37250Y-19063D01*
X37252Y-18916D01*
X37283Y-18772D01*
X37341Y-18637D01*
X37424Y-18516D01*
X37529Y-18413D01*
X37652Y-18333D01*
X37788Y-18278D01*
X37932Y-18251D01*
X38057Y-18251D01*
X38057Y-17250D01*
X37910Y-17247D01*
X37767Y-17216D01*
X37632Y-17157D01*
X37512Y-17073D01*
X37410Y-16967D01*
X37330Y-16844D01*
X37276Y-16707D01*
X37250Y-16563D01*
X37252Y-16416D01*
X37283Y-16272D01*
X37341Y-16137D01*
X37424Y-16016D01*
X37529Y-15913D01*
X37652Y-15833D01*
X37788Y-15778D01*
X37932Y-15751D01*
X38057Y-15751D01*
X38057Y-15250D01*
X37910Y-15247D01*
X37767Y-15216D01*
X37632Y-15157D01*
X37512Y-15073D01*
X37410Y-14967D01*
X37333Y-14850D01*
X34163Y-14850D01*
X34154Y-14872D01*
X34069Y-14992D01*
X33963Y-15093D01*
X33839Y-15172D01*
X33702Y-15225D01*
X33557Y-15250D01*
X33410Y-15247D01*
X33267Y-15216D01*
X33132Y-15157D01*
X33012Y-15073D01*
X32910Y-14967D01*
X32830Y-14844D01*
X32776Y-14707D01*
X32750Y-14563D01*
X32752Y-14416D01*
X32783Y-14272D01*
X32841Y-14137D01*
X32924Y-14016D01*
X33029Y-13913D01*
X33152Y-13833D01*
X33288Y-13778D01*
X33432Y-13751D01*
X33579Y-13752D01*
X33723Y-13781D01*
X33858Y-13838D01*
X33980Y-13920D01*
X34083Y-14025D01*
X34165Y-14147D01*
X34166Y-14150D01*
X37335Y-14150D01*
X37341Y-14137D01*
X37424Y-14016D01*
X37529Y-13913D01*
X37652Y-13833D01*
X37788Y-13778D01*
X37932Y-13751D01*
X38079Y-13752D01*
X38223Y-13781D01*
X38358Y-13838D01*
X38480Y-13920D01*
X38583Y-14025D01*
X38665Y-14147D01*
X38721Y-14283D01*
X38749Y-14427D01*
X38747Y-14595D01*
X38714Y-14738D01*
X38654Y-14872D01*
X38569Y-14992D01*
X38463Y-15093D01*
X38339Y-15172D01*
X38202Y-15225D01*
X38057Y-15250D01*
X38057Y-15751D01*
X38079Y-15752D01*
X38223Y-15781D01*
X38358Y-15838D01*
X38480Y-15920D01*
X38583Y-16025D01*
X38665Y-16147D01*
X38721Y-16283D01*
X38749Y-16427D01*
X38747Y-16595D01*
X38714Y-16738D01*
X38654Y-16872D01*
X38569Y-16992D01*
X38463Y-17093D01*
X38339Y-17172D01*
X38202Y-17225D01*
X38057Y-17250D01*
X38057Y-18251D01*
X38079Y-18252D01*
X38223Y-18281D01*
X38358Y-18338D01*
X38480Y-18420D01*
X38583Y-18525D01*
X38665Y-18647D01*
X38721Y-18783D01*
X38749Y-18927D01*
X38747Y-19095D01*
X38714Y-19238D01*
X38654Y-19372D01*
X38569Y-19492D01*
X38463Y-19593D01*
X38339Y-19672D01*
X38202Y-19725D01*
X38057Y-19750D01*
X38057Y-20251D01*
X38079Y-20252D01*
X38223Y-20281D01*
X38358Y-20338D01*
X38480Y-20420D01*
X38583Y-20525D01*
X38665Y-20647D01*
X38721Y-20783D01*
X38749Y-20927D01*
X38747Y-21095D01*
X38714Y-21238D01*
X38654Y-21372D01*
X38569Y-21492D01*
X38463Y-21593D01*
X38339Y-21672D01*
X38202Y-21725D01*
X38057Y-21750D01*
X38057Y-23625D01*
X42557Y-23625D01*
X42557Y-21750D01*
X42410Y-21747D01*
X42267Y-21716D01*
X42132Y-21657D01*
X42012Y-21573D01*
X41910Y-21467D01*
X41830Y-21344D01*
X41776Y-21207D01*
X41750Y-21063D01*
X41752Y-20916D01*
X41783Y-20772D01*
X41841Y-20637D01*
X41924Y-20516D01*
X42029Y-20413D01*
X42152Y-20333D01*
X42288Y-20278D01*
X42432Y-20251D01*
X42557Y-20251D01*
X42557Y-19750D01*
X42410Y-19747D01*
X42267Y-19716D01*
X42132Y-19657D01*
X42012Y-19573D01*
X41910Y-19467D01*
X41830Y-19344D01*
X41776Y-19207D01*
X41750Y-19063D01*
X41752Y-18916D01*
X41783Y-18772D01*
X41841Y-18637D01*
X41924Y-18516D01*
X42029Y-18413D01*
X42152Y-18333D01*
X42288Y-18278D01*
X42432Y-18251D01*
X42557Y-18251D01*
X42557Y-17250D01*
X42410Y-17247D01*
X42267Y-17216D01*
X42132Y-17157D01*
X42012Y-17073D01*
X41910Y-16967D01*
X41830Y-16844D01*
X41776Y-16707D01*
X41750Y-16563D01*
X41752Y-16416D01*
X41783Y-16272D01*
X41841Y-16137D01*
X41924Y-16016D01*
X42029Y-15913D01*
X42152Y-15833D01*
X42288Y-15778D01*
X42432Y-15751D01*
X42557Y-15751D01*
X42557Y-15250D01*
X42410Y-15247D01*
X42267Y-15216D01*
X42132Y-15157D01*
X42012Y-15073D01*
X41910Y-14967D01*
X41830Y-14844D01*
X41776Y-14707D01*
X41750Y-14563D01*
X41752Y-14416D01*
X41783Y-14272D01*
X41841Y-14137D01*
X41924Y-14016D01*
X42029Y-13913D01*
X42152Y-13833D01*
X42288Y-13778D01*
X42432Y-13751D01*
X42579Y-13752D01*
X42723Y-13781D01*
X42858Y-13838D01*
X42980Y-13920D01*
X43083Y-14025D01*
X43165Y-14147D01*
X43221Y-14283D01*
X43249Y-14427D01*
X43247Y-14595D01*
X43214Y-14738D01*
X43154Y-14872D01*
X43069Y-14992D01*
X42963Y-15093D01*
X42839Y-15172D01*
X42702Y-15225D01*
X42557Y-15250D01*
X42557Y-15751D01*
X42579Y-15752D01*
X42723Y-15781D01*
X42858Y-15838D01*
X42980Y-15920D01*
X43083Y-16025D01*
X43165Y-16147D01*
X43221Y-16283D01*
X43249Y-16427D01*
X43247Y-16595D01*
X43214Y-16738D01*
X43154Y-16872D01*
X43069Y-16992D01*
X42963Y-17093D01*
X42839Y-17172D01*
X42702Y-17225D01*
X42557Y-17250D01*
X42557Y-18251D01*
X42579Y-18252D01*
X42723Y-18281D01*
X42858Y-18338D01*
X42980Y-18420D01*
X43083Y-18525D01*
X43165Y-18647D01*
X43221Y-18783D01*
X43249Y-18927D01*
X43247Y-19095D01*
X43214Y-19238D01*
X43154Y-19372D01*
X43069Y-19492D01*
X42963Y-19593D01*
X42839Y-19672D01*
X42702Y-19725D01*
X42557Y-19750D01*
X42557Y-20251D01*
X42579Y-20252D01*
X42723Y-20281D01*
X42858Y-20338D01*
X42980Y-20420D01*
X43083Y-20525D01*
X43165Y-20647D01*
X43221Y-20783D01*
X43249Y-20927D01*
X43247Y-21095D01*
X43214Y-21238D01*
X43154Y-21372D01*
X43069Y-21492D01*
X42963Y-21593D01*
X42839Y-21672D01*
X42702Y-21725D01*
X42557Y-21750D01*
X42557Y-23625D01*
X43767Y-23625D01*
X43767Y-23162D01*
X43767Y-23625D01*
X44506Y-23625D01*
X44506Y-23548D01*
X44302Y-23530D01*
X44105Y-23472D01*
X43924Y-23377D01*
X43838Y-23233D01*
X44500Y-22571D01*
X44500Y-22429D01*
X43838Y-21767D01*
X43924Y-21623D01*
X44095Y-21533D01*
X44291Y-21473D01*
X44494Y-21452D01*
X44698Y-21470D01*
X44895Y-21528D01*
X45076Y-21623D01*
X45162Y-21767D01*
X44500Y-22429D01*
X44500Y-22571D01*
X45162Y-23233D01*
X45076Y-23377D01*
X44905Y-23467D01*
X44709Y-23527D01*
X44506Y-23548D01*
X44506Y-23625D01*
X45233Y-23625D01*
X45233Y-23162D01*
X44571Y-22500D01*
X45233Y-21838D01*
X45377Y-21924D01*
X45467Y-22095D01*
X45527Y-22291D01*
X45548Y-22494D01*
X45530Y-22698D01*
X45472Y-22895D01*
X45377Y-23076D01*
X45233Y-23162D01*
X45233Y-23625D01*
X65150Y-23625D01*
X65150Y-23451D01*
X65023Y-23449D01*
X64898Y-23421D01*
X64782Y-23370D01*
X64677Y-23298D01*
X64588Y-23206D01*
X64519Y-23099D01*
X64472Y-22980D01*
X64449Y-22855D01*
X64451Y-22727D01*
X64477Y-22603D01*
X64528Y-22486D01*
X64599Y-22380D01*
X64691Y-22291D01*
X64797Y-22221D01*
X64915Y-22174D01*
X65041Y-22150D01*
X65168Y-22150D01*
X65293Y-22176D01*
X65410Y-22225D01*
X65516Y-22297D01*
X65606Y-22387D01*
X65677Y-22493D01*
X65725Y-22611D01*
X65750Y-22736D01*
X65748Y-22882D01*
X65720Y-23006D01*
X65668Y-23122D01*
X65595Y-23227D01*
X65502Y-23315D01*
X65395Y-23383D01*
X65276Y-23429D01*
X65150Y-23451D01*
X65150Y-23625D01*
X70767Y-23625D01*
X70767Y-23162D01*
X70623Y-23076D01*
X70533Y-22905D01*
X70473Y-22709D01*
X70452Y-22506D01*
X70470Y-22302D01*
X70528Y-22105D01*
X70623Y-21924D01*
X70767Y-21838D01*
X70767Y-13662D01*
X70623Y-13576D01*
X70533Y-13405D01*
X70473Y-13209D01*
X70452Y-13006D01*
X70470Y-12802D01*
X70528Y-12605D01*
X70623Y-12424D01*
X70767Y-12338D01*
X71429Y-13000D01*
X70767Y-13662D01*
X70767Y-21838D01*
X71429Y-22500D01*
X70767Y-23162D01*
X70767Y-23625D01*
X71506Y-23625D01*
X71506Y-23548D01*
X71302Y-23530D01*
X71105Y-23472D01*
X70924Y-23377D01*
X70838Y-23233D01*
X71500Y-22571D01*
X71500Y-22429D01*
X70838Y-21767D01*
X70924Y-21623D01*
X71095Y-21533D01*
X71291Y-21473D01*
X71494Y-21452D01*
X71506Y-21453D01*
X71506Y-14048D01*
X71302Y-14030D01*
X71105Y-13972D01*
X70924Y-13877D01*
X70838Y-13733D01*
X71500Y-13071D01*
X71500Y-12929D01*
X70838Y-12267D01*
X70924Y-12123D01*
X71095Y-12033D01*
X71291Y-11973D01*
X71494Y-11952D01*
X71698Y-11970D01*
X71895Y-12028D01*
X72076Y-12123D01*
X72162Y-12267D01*
X71500Y-12929D01*
X71500Y-13071D01*
X72162Y-13733D01*
X72076Y-13877D01*
X71905Y-13967D01*
X71709Y-14027D01*
X71506Y-14048D01*
X71506Y-21453D01*
X71698Y-21470D01*
X71895Y-21528D01*
X72076Y-21623D01*
X72162Y-21767D01*
X71500Y-22429D01*
X71500Y-22571D01*
X72162Y-23233D01*
X72076Y-23377D01*
X71905Y-23467D01*
X71709Y-23527D01*
X71506Y-23548D01*
X71506Y-23625D01*
X72233Y-23625D01*
X72233Y-23162D01*
X71571Y-22500D01*
X72233Y-21838D01*
X72377Y-21924D01*
X72467Y-22095D01*
X72527Y-22291D01*
X72548Y-22494D01*
X72530Y-22698D01*
X72472Y-22895D01*
X72377Y-23076D01*
X72233Y-23162D01*
X72233Y-23625D01*
X82557Y-23625D01*
X82557Y-21750D01*
X82410Y-21747D01*
X82267Y-21716D01*
X82132Y-21657D01*
X82012Y-21573D01*
X81910Y-21467D01*
X81830Y-21344D01*
X81776Y-21207D01*
X81750Y-21063D01*
X81752Y-20916D01*
X81783Y-20772D01*
X81841Y-20637D01*
X81924Y-20516D01*
X82029Y-20413D01*
X82125Y-20350D01*
X78375Y-20350D01*
X78480Y-20420D01*
X78583Y-20525D01*
X78665Y-20647D01*
X78721Y-20783D01*
X78749Y-20927D01*
X78747Y-21095D01*
X78714Y-21238D01*
X78654Y-21372D01*
X78569Y-21492D01*
X78463Y-21593D01*
X78339Y-21672D01*
X78202Y-21725D01*
X78057Y-21750D01*
X77910Y-21747D01*
X77767Y-21716D01*
X77632Y-21657D01*
X77512Y-21573D01*
X77410Y-21467D01*
X77333Y-21350D01*
X74544Y-21350D01*
X74500Y-21344D01*
X74479Y-21343D01*
X74413Y-21323D01*
X74411Y-21322D01*
X74351Y-21289D01*
X74309Y-21254D01*
X74301Y-21247D01*
X74228Y-21174D01*
X74214Y-21238D01*
X74154Y-21372D01*
X74069Y-21492D01*
X73963Y-21593D01*
X73839Y-21672D01*
X73702Y-21725D01*
X73557Y-21750D01*
X73410Y-21747D01*
X73267Y-21716D01*
X73132Y-21657D01*
X73012Y-21573D01*
X72910Y-21467D01*
X72830Y-21344D01*
X72776Y-21207D01*
X72750Y-21063D01*
X72752Y-20916D01*
X72783Y-20772D01*
X72841Y-20637D01*
X72924Y-20516D01*
X73029Y-20413D01*
X73152Y-20333D01*
X73288Y-20278D01*
X73325Y-20270D01*
X73271Y-20216D01*
X73215Y-20204D01*
X73139Y-20171D01*
X73070Y-20123D01*
X73013Y-20064D01*
X72967Y-19994D01*
X72937Y-19916D01*
X72921Y-19834D01*
X72923Y-19751D01*
X72940Y-19669D01*
X72973Y-19593D01*
X72997Y-19557D01*
X72910Y-19467D01*
X72830Y-19344D01*
X72776Y-19207D01*
X72750Y-19063D01*
X72752Y-18916D01*
X72783Y-18772D01*
X72841Y-18637D01*
X72924Y-18516D01*
X73029Y-18413D01*
X73152Y-18333D01*
X73288Y-18278D01*
X73432Y-18251D01*
X73524Y-18251D01*
X72299Y-17026D01*
X72243Y-17014D01*
X72167Y-16981D01*
X72098Y-16933D01*
X72041Y-16874D01*
X71995Y-16804D01*
X71965Y-16726D01*
X71949Y-16644D01*
X71951Y-16561D01*
X71968Y-16479D01*
X72001Y-16403D01*
X72048Y-16334D01*
X72107Y-16275D01*
X72177Y-16230D01*
X72233Y-16206D01*
X72233Y-13662D01*
X71571Y-13000D01*
X72233Y-12338D01*
X72377Y-12424D01*
X72467Y-12595D01*
X72527Y-12791D01*
X72548Y-12994D01*
X72530Y-13198D01*
X72472Y-13395D01*
X72377Y-13576D01*
X72233Y-13662D01*
X72233Y-16206D01*
X72254Y-16198D01*
X72336Y-16183D01*
X72419Y-16183D01*
X72501Y-16200D01*
X72578Y-16232D01*
X72647Y-16279D01*
X72706Y-16338D01*
X72752Y-16407D01*
X72753Y-16410D01*
X72783Y-16272D01*
X72841Y-16137D01*
X72924Y-16016D01*
X73029Y-15913D01*
X73152Y-15833D01*
X73288Y-15778D01*
X73432Y-15751D01*
X73557Y-15751D01*
X73557Y-15250D01*
X73410Y-15247D01*
X73267Y-15216D01*
X73132Y-15157D01*
X73012Y-15073D01*
X72910Y-14967D01*
X72830Y-14844D01*
X72776Y-14707D01*
X72750Y-14563D01*
X72752Y-14416D01*
X72783Y-14272D01*
X72841Y-14137D01*
X72924Y-14016D01*
X73029Y-13913D01*
X73152Y-13833D01*
X73288Y-13778D01*
X73432Y-13751D01*
X73579Y-13752D01*
X73723Y-13781D01*
X73858Y-13838D01*
X73980Y-13920D01*
X74083Y-14025D01*
X74165Y-14147D01*
X74221Y-14283D01*
X74249Y-14427D01*
X74247Y-14595D01*
X74214Y-14738D01*
X74154Y-14872D01*
X74069Y-14992D01*
X73963Y-15093D01*
X73839Y-15172D01*
X73702Y-15225D01*
X73557Y-15250D01*
X73557Y-15751D01*
X73579Y-15752D01*
X73723Y-15781D01*
X73858Y-15838D01*
X73980Y-15920D01*
X74083Y-16025D01*
X74165Y-16147D01*
X74221Y-16283D01*
X74249Y-16427D01*
X74247Y-16595D01*
X74214Y-16738D01*
X74154Y-16872D01*
X74069Y-16992D01*
X73963Y-17093D01*
X73839Y-17172D01*
X73702Y-17225D01*
X73557Y-17250D01*
X73510Y-17249D01*
X75911Y-19650D01*
X77622Y-19650D01*
X77512Y-19573D01*
X77410Y-19467D01*
X77330Y-19344D01*
X77276Y-19207D01*
X77250Y-19063D01*
X77252Y-18916D01*
X77283Y-18772D01*
X77341Y-18637D01*
X77424Y-18516D01*
X77529Y-18413D01*
X77652Y-18333D01*
X77788Y-18278D01*
X77932Y-18251D01*
X78057Y-18251D01*
X78057Y-17250D01*
X77910Y-17247D01*
X77767Y-17216D01*
X77632Y-17157D01*
X77512Y-17073D01*
X77410Y-16967D01*
X77330Y-16844D01*
X77276Y-16707D01*
X77250Y-16563D01*
X77252Y-16416D01*
X77283Y-16272D01*
X77341Y-16137D01*
X77424Y-16016D01*
X77529Y-15913D01*
X77652Y-15833D01*
X77788Y-15778D01*
X77932Y-15751D01*
X78079Y-15752D01*
X78223Y-15781D01*
X78358Y-15838D01*
X78480Y-15920D01*
X78583Y-16025D01*
X78665Y-16147D01*
X78721Y-16283D01*
X78749Y-16427D01*
X78747Y-16595D01*
X78714Y-16738D01*
X78654Y-16872D01*
X78569Y-16992D01*
X78463Y-17093D01*
X78339Y-17172D01*
X78202Y-17225D01*
X78057Y-17250D01*
X78057Y-18251D01*
X78079Y-18252D01*
X78223Y-18281D01*
X78358Y-18338D01*
X78480Y-18420D01*
X78583Y-18525D01*
X78665Y-18647D01*
X78721Y-18783D01*
X78749Y-18927D01*
X78747Y-19095D01*
X78714Y-19238D01*
X78654Y-19372D01*
X78569Y-19492D01*
X78463Y-19593D01*
X78373Y-19650D01*
X82122Y-19650D01*
X82012Y-19573D01*
X81910Y-19467D01*
X81830Y-19344D01*
X81776Y-19207D01*
X81750Y-19063D01*
X81752Y-18916D01*
X81783Y-18772D01*
X81841Y-18637D01*
X81924Y-18516D01*
X82029Y-18413D01*
X82152Y-18333D01*
X82288Y-18278D01*
X82432Y-18251D01*
X82557Y-18251D01*
X82557Y-17250D01*
X82410Y-17247D01*
X82267Y-17216D01*
X82132Y-17157D01*
X82012Y-17073D01*
X81910Y-16967D01*
X81830Y-16844D01*
X81776Y-16707D01*
X81750Y-16563D01*
X81752Y-16416D01*
X81783Y-16272D01*
X81841Y-16137D01*
X81924Y-16016D01*
X82029Y-15913D01*
X82152Y-15833D01*
X82288Y-15778D01*
X82432Y-15751D01*
X82557Y-15751D01*
X82557Y-15250D01*
X82410Y-15247D01*
X82267Y-15216D01*
X82132Y-15157D01*
X82012Y-15073D01*
X81910Y-14967D01*
X81833Y-14850D01*
X78663Y-14850D01*
X78654Y-14872D01*
X78569Y-14992D01*
X78463Y-15093D01*
X78339Y-15172D01*
X78202Y-15225D01*
X78057Y-15250D01*
X77910Y-15247D01*
X77767Y-15216D01*
X77632Y-15157D01*
X77512Y-15073D01*
X77410Y-14967D01*
X77330Y-14844D01*
X77276Y-14707D01*
X77250Y-14563D01*
X77252Y-14416D01*
X77283Y-14272D01*
X77341Y-14137D01*
X77424Y-14016D01*
X77529Y-13913D01*
X77652Y-13833D01*
X77788Y-13778D01*
X77932Y-13751D01*
X78079Y-13752D01*
X78223Y-13781D01*
X78358Y-13838D01*
X78480Y-13920D01*
X78583Y-14025D01*
X78665Y-14147D01*
X78666Y-14150D01*
X81835Y-14150D01*
X81841Y-14137D01*
X81924Y-14016D01*
X82029Y-13913D01*
X82152Y-13833D01*
X82288Y-13778D01*
X82432Y-13751D01*
X82579Y-13752D01*
X82723Y-13781D01*
X82858Y-13838D01*
X82980Y-13920D01*
X83083Y-14025D01*
X83165Y-14147D01*
X83221Y-14283D01*
X83249Y-14427D01*
X83247Y-14595D01*
X83214Y-14738D01*
X83154Y-14872D01*
X83069Y-14992D01*
X82963Y-15093D01*
X82839Y-15172D01*
X82702Y-15225D01*
X82557Y-15250D01*
X82557Y-15751D01*
X82579Y-15752D01*
X82723Y-15781D01*
X82858Y-15838D01*
X82980Y-15920D01*
X83083Y-16025D01*
X83165Y-16147D01*
X83221Y-16283D01*
X83249Y-16427D01*
X83247Y-16595D01*
X83214Y-16738D01*
X83154Y-16872D01*
X83069Y-16992D01*
X82963Y-17093D01*
X82839Y-17172D01*
X82702Y-17225D01*
X82557Y-17250D01*
X82557Y-18251D01*
X82579Y-18252D01*
X82723Y-18281D01*
X82858Y-18338D01*
X82980Y-18420D01*
X83083Y-18525D01*
X83165Y-18647D01*
X83221Y-18783D01*
X83249Y-18927D01*
X83247Y-19095D01*
X83214Y-19238D01*
X83154Y-19372D01*
X83069Y-19492D01*
X82963Y-19593D01*
X82873Y-19650D01*
X86105Y-19650D01*
X86117Y-19651D01*
X86169Y-19656D01*
X86235Y-19677D01*
X86238Y-19678D01*
X86298Y-19711D01*
X86350Y-19755D01*
X86354Y-19760D01*
X86776Y-20182D01*
X86788Y-20178D01*
X86932Y-20151D01*
X87057Y-20151D01*
X87057Y-19650D01*
X86910Y-19647D01*
X86767Y-19616D01*
X86632Y-19557D01*
X86512Y-19473D01*
X86410Y-19367D01*
X86330Y-19244D01*
X86276Y-19107D01*
X86250Y-18963D01*
X86252Y-18816D01*
X86283Y-18672D01*
X86341Y-18537D01*
X86424Y-18416D01*
X86529Y-18313D01*
X86652Y-18233D01*
X86788Y-18178D01*
X86932Y-18151D01*
X87057Y-18151D01*
X87057Y-17250D01*
X86910Y-17247D01*
X86767Y-17216D01*
X86632Y-17157D01*
X86512Y-17073D01*
X86410Y-16967D01*
X86330Y-16844D01*
X86276Y-16707D01*
X86250Y-16563D01*
X86252Y-16416D01*
X86283Y-16272D01*
X86341Y-16137D01*
X86424Y-16016D01*
X86529Y-15913D01*
X86652Y-15833D01*
X86788Y-15778D01*
X86932Y-15751D01*
X87079Y-15752D01*
X87223Y-15781D01*
X87358Y-15838D01*
X87480Y-15920D01*
X87583Y-16025D01*
X87665Y-16147D01*
X87721Y-16283D01*
X87749Y-16427D01*
X87747Y-16595D01*
X87714Y-16738D01*
X87654Y-16872D01*
X87569Y-16992D01*
X87463Y-17093D01*
X87339Y-17172D01*
X87202Y-17225D01*
X87057Y-17250D01*
X87057Y-18151D01*
X87079Y-18152D01*
X87223Y-18181D01*
X87358Y-18238D01*
X87480Y-18320D01*
X87583Y-18425D01*
X87665Y-18547D01*
X87721Y-18683D01*
X87749Y-18827D01*
X87747Y-18995D01*
X87714Y-19138D01*
X87654Y-19272D01*
X87569Y-19392D01*
X87463Y-19493D01*
X87339Y-19572D01*
X87202Y-19625D01*
X87057Y-19650D01*
X87057Y-20151D01*
X87079Y-20152D01*
X87223Y-20181D01*
X87358Y-20238D01*
X87480Y-20320D01*
X87583Y-20425D01*
X87665Y-20547D01*
X87721Y-20683D01*
X87749Y-20827D01*
X87747Y-20995D01*
X87714Y-21138D01*
X87654Y-21272D01*
X87569Y-21392D01*
X87463Y-21493D01*
X87339Y-21572D01*
X87202Y-21625D01*
X87057Y-21650D01*
X86910Y-21647D01*
X86767Y-21616D01*
X86632Y-21557D01*
X86512Y-21473D01*
X86410Y-21367D01*
X86330Y-21244D01*
X86276Y-21107D01*
X86250Y-20963D01*
X86252Y-20816D01*
X86282Y-20676D01*
X85955Y-20350D01*
X82875Y-20350D01*
X82980Y-20420D01*
X83083Y-20525D01*
X83165Y-20647D01*
X83221Y-20783D01*
X83249Y-20927D01*
X83247Y-21095D01*
X83214Y-21238D01*
X83154Y-21372D01*
X83069Y-21492D01*
X82963Y-21593D01*
X82839Y-21672D01*
X82702Y-21725D01*
X82557Y-21750D01*
X82557Y-23625D01*
X91657Y-23625D01*
X91657Y-21750D01*
X91510Y-21747D01*
X91367Y-21716D01*
X91232Y-21657D01*
X91112Y-21573D01*
X91010Y-21467D01*
X90930Y-21344D01*
X90876Y-21207D01*
X90850Y-21063D01*
X90852Y-20916D01*
X90883Y-20772D01*
X90941Y-20637D01*
X91024Y-20516D01*
X91129Y-20413D01*
X91252Y-20333D01*
X91388Y-20278D01*
X91532Y-20251D01*
X91657Y-20251D01*
X91657Y-19750D01*
X91510Y-19747D01*
X91367Y-19716D01*
X91232Y-19657D01*
X91112Y-19573D01*
X91010Y-19467D01*
X90930Y-19344D01*
X90876Y-19207D01*
X90850Y-19063D01*
X90852Y-18916D01*
X90883Y-18772D01*
X90941Y-18637D01*
X91024Y-18516D01*
X91129Y-18413D01*
X91252Y-18333D01*
X91388Y-18278D01*
X91532Y-18251D01*
X91657Y-18251D01*
X91657Y-17250D01*
X91510Y-17247D01*
X91367Y-17216D01*
X91232Y-17157D01*
X91112Y-17073D01*
X91010Y-16967D01*
X90930Y-16844D01*
X90876Y-16707D01*
X90850Y-16563D01*
X90852Y-16416D01*
X90883Y-16272D01*
X90941Y-16137D01*
X91024Y-16016D01*
X91129Y-15913D01*
X91252Y-15833D01*
X91388Y-15778D01*
X91532Y-15751D01*
X91657Y-15751D01*
X91657Y-15250D01*
X91510Y-15247D01*
X91367Y-15216D01*
X91232Y-15157D01*
X91112Y-15073D01*
X91010Y-14967D01*
X90933Y-14850D01*
X87663Y-14850D01*
X87654Y-14872D01*
X87569Y-14992D01*
X87463Y-15093D01*
X87339Y-15172D01*
X87202Y-15225D01*
X87057Y-15250D01*
X86910Y-15247D01*
X86767Y-15216D01*
X86632Y-15157D01*
X86512Y-15073D01*
X86410Y-14967D01*
X86330Y-14844D01*
X86276Y-14707D01*
X86250Y-14563D01*
X86252Y-14416D01*
X86283Y-14272D01*
X86341Y-14137D01*
X86424Y-14016D01*
X86529Y-13913D01*
X86652Y-13833D01*
X86788Y-13778D01*
X86932Y-13751D01*
X87079Y-13752D01*
X87223Y-13781D01*
X87358Y-13838D01*
X87480Y-13920D01*
X87583Y-14025D01*
X87665Y-14147D01*
X87666Y-14150D01*
X90935Y-14150D01*
X90941Y-14137D01*
X91024Y-14016D01*
X91129Y-13913D01*
X91252Y-13833D01*
X91388Y-13778D01*
X91532Y-13751D01*
X91679Y-13752D01*
X91823Y-13781D01*
X91958Y-13838D01*
X92080Y-13920D01*
X92183Y-14025D01*
X92265Y-14147D01*
X92321Y-14283D01*
X92349Y-14427D01*
X92347Y-14595D01*
X92314Y-14738D01*
X92254Y-14872D01*
X92169Y-14992D01*
X92063Y-15093D01*
X91939Y-15172D01*
X91802Y-15225D01*
X91657Y-15250D01*
X91657Y-15751D01*
X91679Y-15752D01*
X91823Y-15781D01*
X91958Y-15838D01*
X92080Y-15920D01*
X92183Y-16025D01*
X92265Y-16147D01*
X92321Y-16283D01*
X92349Y-16427D01*
X92347Y-16595D01*
X92314Y-16738D01*
X92254Y-16872D01*
X92169Y-16992D01*
X92063Y-17093D01*
X91939Y-17172D01*
X91802Y-17225D01*
X91657Y-17250D01*
X91657Y-18251D01*
X91679Y-18252D01*
X91823Y-18281D01*
X91958Y-18338D01*
X92080Y-18420D01*
X92183Y-18525D01*
X92265Y-18647D01*
X92321Y-18783D01*
X92349Y-18927D01*
X92347Y-19095D01*
X92314Y-19238D01*
X92254Y-19372D01*
X92169Y-19492D01*
X92063Y-19593D01*
X91939Y-19672D01*
X91802Y-19725D01*
X91657Y-19750D01*
X91657Y-20251D01*
X91679Y-20252D01*
X91823Y-20281D01*
X91958Y-20338D01*
X92080Y-20420D01*
X92183Y-20525D01*
X92265Y-20647D01*
X92321Y-20783D01*
X92349Y-20927D01*
X92347Y-21095D01*
X92314Y-21238D01*
X92254Y-21372D01*
X92169Y-21492D01*
X92063Y-21593D01*
X91939Y-21672D01*
X91802Y-21725D01*
X91657Y-21750D01*
X91657Y-23625D01*
X96057Y-23625D01*
X96057Y-21750D01*
X95910Y-21747D01*
X95767Y-21716D01*
X95632Y-21657D01*
X95512Y-21573D01*
X95410Y-21467D01*
X95330Y-21344D01*
X95276Y-21207D01*
X95250Y-21063D01*
X95252Y-20916D01*
X95283Y-20772D01*
X95341Y-20637D01*
X95424Y-20516D01*
X95529Y-20413D01*
X95652Y-20333D01*
X95788Y-20278D01*
X95932Y-20251D01*
X96057Y-20251D01*
X96057Y-19750D01*
X95910Y-19747D01*
X95767Y-19716D01*
X95632Y-19657D01*
X95512Y-19573D01*
X95410Y-19467D01*
X95330Y-19344D01*
X95276Y-19207D01*
X95250Y-19063D01*
X95252Y-18916D01*
X95283Y-18772D01*
X95341Y-18637D01*
X95424Y-18516D01*
X95529Y-18413D01*
X95652Y-18333D01*
X95788Y-18278D01*
X95932Y-18251D01*
X96057Y-18251D01*
X96057Y-17250D01*
X95910Y-17247D01*
X95767Y-17216D01*
X95632Y-17157D01*
X95512Y-17073D01*
X95410Y-16967D01*
X95330Y-16844D01*
X95276Y-16707D01*
X95250Y-16563D01*
X95252Y-16416D01*
X95283Y-16272D01*
X95341Y-16137D01*
X95424Y-16016D01*
X95529Y-15913D01*
X95652Y-15833D01*
X95788Y-15778D01*
X95932Y-15751D01*
X96079Y-15752D01*
X96223Y-15781D01*
X96358Y-15838D01*
X96480Y-15920D01*
X96583Y-16025D01*
X96665Y-16147D01*
X96721Y-16283D01*
X96749Y-16427D01*
X96747Y-16595D01*
X96714Y-16738D01*
X96654Y-16872D01*
X96569Y-16992D01*
X96463Y-17093D01*
X96339Y-17172D01*
X96202Y-17225D01*
X96057Y-17250D01*
X96057Y-18251D01*
X96079Y-18252D01*
X96223Y-18281D01*
X96358Y-18338D01*
X96480Y-18420D01*
X96583Y-18525D01*
X96665Y-18647D01*
X96721Y-18783D01*
X96749Y-18927D01*
X96747Y-19095D01*
X96714Y-19238D01*
X96654Y-19372D01*
X96569Y-19492D01*
X96463Y-19593D01*
X96339Y-19672D01*
X96202Y-19725D01*
X96057Y-19750D01*
X96057Y-20251D01*
X96079Y-20252D01*
X96223Y-20281D01*
X96358Y-20338D01*
X96480Y-20420D01*
X96583Y-20525D01*
X96665Y-20647D01*
X96721Y-20783D01*
X96749Y-20927D01*
X96747Y-21095D01*
X96714Y-21238D01*
X96654Y-21372D01*
X96569Y-21492D01*
X96463Y-21593D01*
X96339Y-21672D01*
X96202Y-21725D01*
X96057Y-21750D01*
X96057Y-23625D01*
X100557Y-23625D01*
X100557Y-21750D01*
X100410Y-21747D01*
X100267Y-21716D01*
X100132Y-21657D01*
X100012Y-21573D01*
X99910Y-21467D01*
X99830Y-21344D01*
X99776Y-21207D01*
X99750Y-21063D01*
X99752Y-20916D01*
X99783Y-20772D01*
X99841Y-20637D01*
X99924Y-20516D01*
X100029Y-20413D01*
X100152Y-20333D01*
X100288Y-20278D01*
X100432Y-20251D01*
X100557Y-20251D01*
X100557Y-19750D01*
X100410Y-19747D01*
X100267Y-19716D01*
X100132Y-19657D01*
X100012Y-19573D01*
X99910Y-19467D01*
X99830Y-19344D01*
X99776Y-19207D01*
X99750Y-19063D01*
X99752Y-18916D01*
X99783Y-18772D01*
X99841Y-18637D01*
X99924Y-18516D01*
X100029Y-18413D01*
X100152Y-18333D01*
X100288Y-18278D01*
X100432Y-18251D01*
X100557Y-18251D01*
X100557Y-17250D01*
X100410Y-17247D01*
X100267Y-17216D01*
X100132Y-17157D01*
X100012Y-17073D01*
X99910Y-16967D01*
X99830Y-16844D01*
X99776Y-16707D01*
X99750Y-16563D01*
X99752Y-16416D01*
X99783Y-16272D01*
X99841Y-16137D01*
X99924Y-16016D01*
X100029Y-15913D01*
X100152Y-15833D01*
X100288Y-15778D01*
X100432Y-15751D01*
X100557Y-15751D01*
X100557Y-15250D01*
X100410Y-15247D01*
X100267Y-15216D01*
X100132Y-15157D01*
X100012Y-15073D01*
X99910Y-14967D01*
X99833Y-14850D01*
X96663Y-14850D01*
X96654Y-14872D01*
X96569Y-14992D01*
X96463Y-15093D01*
X96339Y-15172D01*
X96202Y-15225D01*
X96057Y-15250D01*
X95910Y-15247D01*
X95767Y-15216D01*
X95632Y-15157D01*
X95512Y-15073D01*
X95410Y-14967D01*
X95330Y-14844D01*
X95276Y-14707D01*
X95250Y-14563D01*
X95252Y-14416D01*
X95283Y-14272D01*
X95341Y-14137D01*
X95424Y-14016D01*
X95529Y-13913D01*
X95652Y-13833D01*
X95788Y-13778D01*
X95932Y-13751D01*
X96079Y-13752D01*
X96223Y-13781D01*
X96358Y-13838D01*
X96480Y-13920D01*
X96583Y-14025D01*
X96665Y-14147D01*
X96666Y-14150D01*
X99835Y-14150D01*
X99841Y-14137D01*
X99924Y-14016D01*
X100029Y-13913D01*
X100152Y-13833D01*
X100288Y-13778D01*
X100432Y-13751D01*
X100579Y-13752D01*
X100723Y-13781D01*
X100858Y-13838D01*
X100980Y-13920D01*
X101083Y-14025D01*
X101165Y-14147D01*
X101221Y-14283D01*
X101249Y-14427D01*
X101247Y-14595D01*
X101214Y-14738D01*
X101154Y-14872D01*
X101069Y-14992D01*
X100963Y-15093D01*
X100839Y-15172D01*
X100702Y-15225D01*
X100557Y-15250D01*
X100557Y-15751D01*
X100579Y-15752D01*
X100723Y-15781D01*
X100858Y-15838D01*
X100980Y-15920D01*
X101083Y-16025D01*
X101165Y-16147D01*
X101221Y-16283D01*
X101249Y-16427D01*
X101247Y-16595D01*
X101214Y-16738D01*
X101154Y-16872D01*
X101069Y-16992D01*
X100963Y-17093D01*
X100839Y-17172D01*
X100702Y-17225D01*
X100557Y-17250D01*
X100557Y-18251D01*
X100579Y-18252D01*
X100723Y-18281D01*
X100858Y-18338D01*
X100980Y-18420D01*
X101083Y-18525D01*
X101165Y-18647D01*
X101221Y-18783D01*
X101249Y-18927D01*
X101247Y-19095D01*
X101214Y-19238D01*
X101154Y-19372D01*
X101069Y-19492D01*
X100963Y-19593D01*
X100839Y-19672D01*
X100702Y-19725D01*
X100557Y-19750D01*
X100557Y-20251D01*
X100579Y-20252D01*
X100723Y-20281D01*
X100858Y-20338D01*
X100980Y-20420D01*
X101083Y-20525D01*
X101165Y-20647D01*
X101221Y-20783D01*
X101249Y-20927D01*
X101247Y-21095D01*
X101214Y-21238D01*
X101154Y-21372D01*
X101069Y-21492D01*
X100963Y-21593D01*
X100839Y-21672D01*
X100702Y-21725D01*
X100557Y-21750D01*
X100557Y-23625D01*
X102767Y-23625D01*
X102767Y-23162D01*
X102623Y-23076D01*
X102533Y-22905D01*
X102473Y-22709D01*
X102452Y-22506D01*
X102470Y-22302D01*
X102528Y-22105D01*
X102623Y-21924D01*
X102767Y-21838D01*
X102767Y-13662D01*
X102623Y-13576D01*
X102533Y-13405D01*
X102473Y-13209D01*
X102452Y-13006D01*
X102470Y-12802D01*
X102528Y-12605D01*
X102623Y-12424D01*
X102767Y-12338D01*
X103429Y-13000D01*
X102767Y-13662D01*
X102767Y-21838D01*
X103429Y-22500D01*
X102767Y-23162D01*
X102767Y-23625D01*
X103506Y-23625D01*
X103506Y-23548D01*
X103302Y-23530D01*
X103105Y-23472D01*
X102924Y-23377D01*
X102838Y-23233D01*
X103500Y-22571D01*
X103500Y-22429D01*
X102838Y-21767D01*
X102924Y-21623D01*
X103095Y-21533D01*
X103291Y-21473D01*
X103494Y-21452D01*
X103673Y-21467D01*
X103673Y-20650D01*
X103625Y-20640D01*
X103580Y-20621D01*
X103540Y-20593D01*
X103505Y-20558D01*
X103478Y-20517D01*
X103459Y-20472D01*
X103450Y-20424D01*
X103450Y-19773D01*
X103460Y-19725D01*
X103479Y-19680D01*
X103507Y-19640D01*
X103542Y-19605D01*
X103583Y-19578D01*
X103628Y-19559D01*
X103676Y-19550D01*
X103685Y-19550D01*
X103643Y-19520D01*
X103568Y-19443D01*
X103509Y-19352D01*
X103470Y-19252D01*
X103450Y-19146D01*
X103452Y-19039D01*
X103474Y-18933D01*
X103517Y-18834D01*
X103577Y-18746D01*
X103654Y-18670D01*
X103744Y-18611D01*
X103771Y-18599D01*
X103731Y-18582D01*
X103643Y-18520D01*
X103568Y-18443D01*
X103509Y-18352D01*
X103470Y-18252D01*
X103450Y-18146D01*
X103452Y-18039D01*
X103474Y-17933D01*
X103517Y-17834D01*
X103577Y-17746D01*
X103654Y-17670D01*
X103744Y-17611D01*
X103771Y-17599D01*
X103731Y-17582D01*
X103643Y-17520D01*
X103568Y-17443D01*
X103509Y-17352D01*
X103470Y-17252D01*
X103450Y-17146D01*
X103452Y-17039D01*
X103474Y-16933D01*
X103517Y-16834D01*
X103577Y-16746D01*
X103622Y-16701D01*
X103622Y-16408D01*
X103528Y-16381D01*
X103503Y-16334D01*
X103467Y-16233D01*
X103451Y-16127D01*
X103456Y-16020D01*
X103482Y-15916D01*
X103528Y-15819D01*
X103622Y-15792D01*
X103622Y-15408D01*
X103528Y-15381D01*
X103503Y-15334D01*
X103467Y-15233D01*
X103451Y-15127D01*
X103456Y-15020D01*
X103482Y-14916D01*
X103506Y-14865D01*
X103506Y-14048D01*
X103302Y-14030D01*
X103105Y-13972D01*
X102924Y-13877D01*
X102838Y-13733D01*
X103500Y-13071D01*
X103500Y-12929D01*
X102838Y-12267D01*
X102924Y-12123D01*
X103095Y-12033D01*
X103291Y-11973D01*
X103494Y-11952D01*
X103698Y-11970D01*
X103895Y-12028D01*
X104076Y-12123D01*
X104162Y-12267D01*
X103500Y-12929D01*
X103500Y-13071D01*
X104162Y-13733D01*
X104076Y-13877D01*
X103905Y-13967D01*
X103709Y-14027D01*
X103506Y-14048D01*
X103506Y-14865D01*
X103528Y-14819D01*
X103622Y-14792D01*
X103929Y-15100D01*
X103622Y-15408D01*
X103622Y-15792D01*
X103929Y-16100D01*
X103622Y-16408D01*
X103622Y-16701D01*
X103654Y-16670D01*
X103744Y-16611D01*
X103775Y-16598D01*
X103719Y-16572D01*
X103692Y-16478D01*
X104000Y-16171D01*
X104000Y-16029D01*
X103692Y-15722D01*
X103719Y-15628D01*
X103766Y-15603D01*
X103776Y-15599D01*
X103719Y-15572D01*
X103692Y-15478D01*
X104000Y-15171D01*
X104000Y-15029D01*
X103692Y-14722D01*
X103719Y-14628D01*
X103766Y-14603D01*
X103867Y-14567D01*
X103973Y-14551D01*
X104080Y-14556D01*
X104184Y-14582D01*
X104233Y-14605D01*
X104233Y-13662D01*
X103571Y-13000D01*
X104233Y-12338D01*
X104377Y-12424D01*
X104467Y-12595D01*
X104527Y-12791D01*
X104548Y-12994D01*
X104530Y-13198D01*
X104472Y-13395D01*
X104377Y-13576D01*
X104233Y-13662D01*
X104233Y-14605D01*
X104281Y-14628D01*
X104308Y-14722D01*
X104000Y-15029D01*
X104000Y-15171D01*
X104308Y-15478D01*
X104281Y-15572D01*
X104234Y-15597D01*
X104223Y-15600D01*
X104281Y-15628D01*
X104308Y-15722D01*
X104000Y-16029D01*
X104000Y-16171D01*
X104308Y-16478D01*
X104281Y-16572D01*
X104234Y-16597D01*
X104226Y-16599D01*
X104262Y-16615D01*
X104352Y-16675D01*
X104378Y-16701D01*
X104378Y-16408D01*
X104071Y-16100D01*
X104378Y-15792D01*
X104378Y-15408D01*
X104071Y-15100D01*
X104378Y-14792D01*
X104472Y-14819D01*
X104497Y-14866D01*
X104533Y-14967D01*
X104549Y-15073D01*
X104544Y-15180D01*
X104518Y-15284D01*
X104472Y-15381D01*
X104378Y-15408D01*
X104378Y-15792D01*
X104472Y-15819D01*
X104497Y-15866D01*
X104533Y-15967D01*
X104549Y-16073D01*
X104544Y-16180D01*
X104518Y-16284D01*
X104472Y-16381D01*
X104378Y-16408D01*
X104378Y-16701D01*
X104427Y-16751D01*
X104487Y-16841D01*
X104528Y-16940D01*
X104549Y-17046D01*
X104547Y-17169D01*
X104524Y-17274D01*
X104480Y-17372D01*
X104418Y-17460D01*
X104340Y-17535D01*
X104249Y-17592D01*
X104227Y-17600D01*
X104262Y-17615D01*
X104352Y-17675D01*
X104427Y-17751D01*
X104487Y-17841D01*
X104528Y-17940D01*
X104549Y-18046D01*
X104547Y-18169D01*
X104524Y-18274D01*
X104480Y-18372D01*
X104418Y-18460D01*
X104340Y-18535D01*
X104249Y-18592D01*
X104227Y-18600D01*
X104262Y-18615D01*
X104352Y-18675D01*
X104427Y-18751D01*
X104487Y-18841D01*
X104528Y-18940D01*
X104549Y-19046D01*
X104547Y-19169D01*
X104524Y-19274D01*
X104480Y-19372D01*
X104418Y-19460D01*
X104340Y-19535D01*
X104316Y-19550D01*
X104327Y-19550D01*
X104375Y-19560D01*
X104420Y-19579D01*
X104460Y-19607D01*
X104495Y-19642D01*
X104522Y-19683D01*
X104541Y-19728D01*
X104550Y-19776D01*
X104550Y-20427D01*
X104540Y-20475D01*
X104521Y-20520D01*
X104493Y-20560D01*
X104458Y-20595D01*
X104417Y-20622D01*
X104372Y-20641D01*
X104324Y-20650D01*
X103673Y-20650D01*
X103673Y-21467D01*
X103698Y-21470D01*
X103895Y-21528D01*
X104076Y-21623D01*
X104162Y-21767D01*
X103500Y-22429D01*
X103500Y-22571D01*
X104162Y-23233D01*
X104076Y-23377D01*
X103905Y-23467D01*
X103709Y-23527D01*
X103673Y-23530D01*
X103506Y-23548D01*
X103506Y-23625D01*
X104233Y-23625D01*
X104233Y-23162D01*
X103571Y-22500D01*
X104233Y-21838D01*
X104377Y-21924D01*
X104467Y-22095D01*
X104527Y-22291D01*
X104548Y-22494D01*
X104530Y-22698D01*
X104472Y-22895D01*
X104377Y-23076D01*
X104233Y-23162D01*
X104233Y-23625D01*
X104725Y-23625D01*
G54D10*
G36*
X57355Y-18400D02*
X57359Y-18383D01*
X57392Y-18307D01*
X57439Y-18238D01*
X57498Y-18179D01*
X57568Y-18134D01*
X57645Y-18102D01*
X57727Y-18087D01*
X57810Y-18087D01*
X57892Y-18104D01*
X57969Y-18136D01*
X58038Y-18183D01*
X58097Y-18242D01*
X58117Y-18272D01*
X58117Y-17546D01*
X58118Y-17533D01*
X58123Y-17488D01*
X58141Y-17430D01*
X58141Y-17428D01*
X58142Y-17428D01*
X58171Y-17375D01*
X58201Y-17338D01*
X58209Y-17330D01*
X58209Y-17329D01*
X58210Y-17329D01*
X58219Y-17321D01*
X58255Y-17292D01*
X58309Y-17263D01*
X58344Y-17252D01*
X58353Y-17249D01*
X58349Y-17240D01*
X58340Y-17192D01*
X58340Y-16905D01*
X58350Y-16857D01*
X58369Y-16812D01*
X58377Y-16799D01*
X58368Y-16785D01*
X58349Y-16740D01*
X58340Y-16692D01*
X58340Y-16405D01*
X58350Y-16357D01*
X58369Y-16312D01*
X58377Y-16299D01*
X58368Y-16285D01*
X58349Y-16240D01*
X58340Y-16192D01*
X58340Y-15940D01*
X57660Y-15940D01*
X57660Y-16195D01*
X57650Y-16243D01*
X57631Y-16288D01*
X57622Y-16300D01*
X57632Y-16315D01*
X57651Y-16360D01*
X57660Y-16408D01*
X57660Y-16438D01*
X57598Y-16500D01*
X57027Y-16500D01*
X56927Y-16500D01*
X56356Y-16500D01*
X56294Y-16438D01*
X56294Y-16408D01*
X56303Y-16360D01*
X56322Y-16315D01*
X56331Y-16300D01*
X56322Y-16285D01*
X56303Y-16240D01*
X56294Y-16192D01*
X56294Y-15940D01*
X55711Y-15940D01*
X55714Y-15942D01*
X55749Y-15977D01*
X55776Y-16018D01*
X55795Y-16063D01*
X55804Y-16111D01*
X55804Y-16337D01*
X55742Y-16399D01*
X55250Y-16399D01*
X55150Y-16399D01*
X55150Y-16499D01*
X55250Y-16499D01*
X55742Y-16499D01*
X55804Y-16561D01*
X55804Y-16787D01*
X55795Y-16835D01*
X55776Y-16880D01*
X55749Y-16921D01*
X55714Y-16956D01*
X55674Y-16984D01*
X55636Y-17000D01*
X55674Y-17016D01*
X55714Y-17044D01*
X55749Y-17079D01*
X55776Y-17120D01*
X55795Y-17165D01*
X55804Y-17213D01*
X55804Y-17241D01*
X56303Y-17241D01*
X56303Y-17240D01*
X56294Y-17192D01*
X56294Y-17162D01*
X56356Y-17100D01*
X56356Y-17000D01*
X56294Y-16938D01*
X56294Y-16908D01*
X56303Y-16860D01*
X56322Y-16815D01*
X56331Y-16800D01*
X56322Y-16785D01*
X56303Y-16740D01*
X56294Y-16692D01*
X56294Y-16662D01*
X56356Y-16600D01*
X56927Y-16600D01*
X56927Y-17000D01*
X56356Y-17000D01*
X56356Y-17100D01*
X56927Y-17100D01*
X57027Y-17100D01*
X57027Y-17000D01*
X57027Y-16600D01*
X57598Y-16600D01*
X57660Y-16662D01*
X57660Y-16692D01*
X57651Y-16740D01*
X57632Y-16785D01*
X57622Y-16799D01*
X57632Y-16815D01*
X57651Y-16860D01*
X57660Y-16908D01*
X57660Y-16938D01*
X57598Y-17000D01*
X57027Y-17000D01*
X57027Y-17100D01*
X57598Y-17100D01*
X57660Y-17162D01*
X57660Y-17192D01*
X57651Y-17240D01*
X57632Y-17285D01*
X57622Y-17300D01*
X57632Y-17315D01*
X57651Y-17360D01*
X57660Y-17408D01*
X57660Y-17695D01*
X57650Y-17743D01*
X57631Y-17788D01*
X57603Y-17828D01*
X57568Y-17863D01*
X57527Y-17890D01*
X57482Y-17909D01*
X57434Y-17918D01*
X56517Y-17918D01*
X56469Y-17908D01*
X56424Y-17889D01*
X56384Y-17861D01*
X55804Y-17861D01*
X55804Y-17892D01*
X55794Y-17940D01*
X55775Y-17985D01*
X55772Y-17988D01*
X55785Y-17982D01*
X55787Y-17981D01*
X55788Y-17981D01*
X55846Y-17964D01*
X55888Y-17960D01*
X55903Y-17959D01*
X56790Y-17959D01*
X56807Y-17961D01*
X56847Y-17965D01*
X56906Y-17983D01*
X56907Y-17983D01*
X56908Y-17984D01*
X56961Y-18013D01*
X56990Y-18038D01*
X57005Y-18050D01*
X57355Y-18400D01*
X57355Y-18400D01*
G37*
G54D24*
X57355Y-18400D02*
X57359Y-18383D01*
X57392Y-18307D01*
X57439Y-18238D01*
X57498Y-18179D01*
X57568Y-18134D01*
X57645Y-18102D01*
X57727Y-18087D01*
X57810Y-18087D01*
X57892Y-18104D01*
X57969Y-18136D01*
X58038Y-18183D01*
X58097Y-18242D01*
X58117Y-18272D01*
X58117Y-17546D01*
X58118Y-17533D01*
X58123Y-17488D01*
X58141Y-17430D01*
X58141Y-17428D01*
X58142Y-17428D01*
X58171Y-17375D01*
X58201Y-17338D01*
X58209Y-17330D01*
X58209Y-17329D01*
X58210Y-17329D01*
X58219Y-17321D01*
X58255Y-17292D01*
X58309Y-17263D01*
X58344Y-17252D01*
X58353Y-17249D01*
X58349Y-17240D01*
X58340Y-17192D01*
X58340Y-16905D01*
X58350Y-16857D01*
X58369Y-16812D01*
X58377Y-16799D01*
X58368Y-16785D01*
X58349Y-16740D01*
X58340Y-16692D01*
X58340Y-16405D01*
X58350Y-16357D01*
X58369Y-16312D01*
X58377Y-16299D01*
X58368Y-16285D01*
X58349Y-16240D01*
X58340Y-16192D01*
X58340Y-15940D01*
X57660Y-15940D01*
X57660Y-16195D01*
X57650Y-16243D01*
X57631Y-16288D01*
X57622Y-16300D01*
X57632Y-16315D01*
X57651Y-16360D01*
X57660Y-16408D01*
X57660Y-16438D01*
X57598Y-16500D01*
X57027Y-16500D01*
X56927Y-16500D01*
X56356Y-16500D01*
X56294Y-16438D01*
X56294Y-16408D01*
X56303Y-16360D01*
X56322Y-16315D01*
X56331Y-16300D01*
X56322Y-16285D01*
X56303Y-16240D01*
X56294Y-16192D01*
X56294Y-15940D01*
X55711Y-15940D01*
X55714Y-15942D01*
X55749Y-15977D01*
X55776Y-16018D01*
X55795Y-16063D01*
X55804Y-16111D01*
X55804Y-16337D01*
X55742Y-16399D01*
X55250Y-16399D01*
X55150Y-16399D01*
X55150Y-16499D01*
X55250Y-16499D01*
X55742Y-16499D01*
X55804Y-16561D01*
X55804Y-16787D01*
X55795Y-16835D01*
X55776Y-16880D01*
X55749Y-16921D01*
X55714Y-16956D01*
X55674Y-16984D01*
X55636Y-17000D01*
X55674Y-17016D01*
X55714Y-17044D01*
X55749Y-17079D01*
X55776Y-17120D01*
X55795Y-17165D01*
X55804Y-17213D01*
X55804Y-17241D01*
X56303Y-17241D01*
X56303Y-17240D01*
X56294Y-17192D01*
X56294Y-17162D01*
X56356Y-17100D01*
X56356Y-17000D01*
X56294Y-16938D01*
X56294Y-16908D01*
X56303Y-16860D01*
X56322Y-16815D01*
X56331Y-16800D01*
X56322Y-16785D01*
X56303Y-16740D01*
X56294Y-16692D01*
X56294Y-16662D01*
X56356Y-16600D01*
X56927Y-16600D01*
X56927Y-17000D01*
X56356Y-17000D01*
X56356Y-17100D01*
X56927Y-17100D01*
X57027Y-17100D01*
X57027Y-17000D01*
X57027Y-16600D01*
X57598Y-16600D01*
X57660Y-16662D01*
X57660Y-16692D01*
X57651Y-16740D01*
X57632Y-16785D01*
X57622Y-16799D01*
X57632Y-16815D01*
X57651Y-16860D01*
X57660Y-16908D01*
X57660Y-16938D01*
X57598Y-17000D01*
X57027Y-17000D01*
X57027Y-17100D01*
X57598Y-17100D01*
X57660Y-17162D01*
X57660Y-17192D01*
X57651Y-17240D01*
X57632Y-17285D01*
X57622Y-17300D01*
X57632Y-17315D01*
X57651Y-17360D01*
X57660Y-17408D01*
X57660Y-17695D01*
X57650Y-17743D01*
X57631Y-17788D01*
X57603Y-17828D01*
X57568Y-17863D01*
X57527Y-17890D01*
X57482Y-17909D01*
X57434Y-17918D01*
X56517Y-17918D01*
X56469Y-17908D01*
X56424Y-17889D01*
X56384Y-17861D01*
X55804Y-17861D01*
X55804Y-17892D01*
X55794Y-17940D01*
X55775Y-17985D01*
X55772Y-17988D01*
X55785Y-17982D01*
X55787Y-17981D01*
X55788Y-17981D01*
X55846Y-17964D01*
X55888Y-17960D01*
X55903Y-17959D01*
X56790Y-17959D01*
X56807Y-17961D01*
X56847Y-17965D01*
X56906Y-17983D01*
X56907Y-17983D01*
X56908Y-17984D01*
X56961Y-18013D01*
X56990Y-18038D01*
X57005Y-18050D01*
X57355Y-18400D01*
M02*
