G04 (created by PCBNEW (2010-04-21 BZR 23xx)-stable) date Sat 05 Mar 2011 02:34:32 PM CET*
G01*
G70*
G90*
%MOIN*%
G04 Gerber Fmt 3.4, Leading zero omitted, Abs format*
%FSLAX34Y34*%
G04 APERTURE LIST*
%ADD10C,0.001000*%
%ADD11C,0.008000*%
G04 APERTURE END LIST*
G54D10*
G54D10*
X28303Y-45555D02*
X28697Y-45949D01*
X28697Y-45555D02*
X28303Y-45949D01*
X28308Y-45063D02*
X28308Y-46441D01*
X28692Y-45063D02*
X28692Y-46441D01*
X28308Y-46441D02*
X28309Y-46457D01*
X28311Y-46474D01*
X28315Y-46490D01*
X28320Y-46506D01*
X28326Y-46522D01*
X28334Y-46536D01*
X28343Y-46551D01*
X28353Y-46564D01*
X28365Y-46576D01*
X28377Y-46588D01*
X28390Y-46598D01*
X28404Y-46607D01*
X28419Y-46615D01*
X28435Y-46621D01*
X28451Y-46626D01*
X28467Y-46630D01*
X28484Y-46632D01*
X28500Y-46633D01*
X28516Y-46632D01*
X28533Y-46630D01*
X28549Y-46626D01*
X28565Y-46621D01*
X28581Y-46615D01*
X28596Y-46607D01*
X28610Y-46598D01*
X28623Y-46588D01*
X28635Y-46576D01*
X28647Y-46564D01*
X28657Y-46551D01*
X28666Y-46537D01*
X28674Y-46522D01*
X28680Y-46506D01*
X28685Y-46490D01*
X28689Y-46474D01*
X28691Y-46457D01*
X28692Y-46441D01*
X28692Y-45063D02*
X28691Y-45047D01*
X28689Y-45030D01*
X28685Y-45014D01*
X28680Y-44998D01*
X28674Y-44982D01*
X28666Y-44968D01*
X28657Y-44953D01*
X28647Y-44940D01*
X28635Y-44928D01*
X28623Y-44916D01*
X28610Y-44906D01*
X28596Y-44897D01*
X28581Y-44889D01*
X28565Y-44883D01*
X28549Y-44878D01*
X28533Y-44874D01*
X28516Y-44872D01*
X28500Y-44871D01*
X28484Y-44872D01*
X28467Y-44874D01*
X28451Y-44878D01*
X28435Y-44883D01*
X28419Y-44889D01*
X28405Y-44897D01*
X28390Y-44906D01*
X28377Y-44916D01*
X28365Y-44928D01*
X28353Y-44940D01*
X28343Y-44953D01*
X28334Y-44968D01*
X28326Y-44982D01*
X28320Y-44998D01*
X28315Y-45014D01*
X28311Y-45030D01*
X28309Y-45047D01*
X28308Y-45063D01*
X28303Y-47366D02*
X28697Y-47760D01*
X28697Y-47366D02*
X28303Y-47760D01*
X28308Y-47307D02*
X28308Y-47819D01*
X28692Y-47307D02*
X28692Y-47819D01*
X28308Y-47819D02*
X28309Y-47835D01*
X28311Y-47852D01*
X28315Y-47868D01*
X28320Y-47884D01*
X28326Y-47900D01*
X28334Y-47914D01*
X28343Y-47929D01*
X28353Y-47942D01*
X28365Y-47954D01*
X28377Y-47966D01*
X28390Y-47976D01*
X28404Y-47985D01*
X28419Y-47993D01*
X28435Y-47999D01*
X28451Y-48004D01*
X28467Y-48008D01*
X28484Y-48010D01*
X28500Y-48011D01*
X28516Y-48010D01*
X28533Y-48008D01*
X28549Y-48004D01*
X28565Y-47999D01*
X28581Y-47993D01*
X28596Y-47985D01*
X28610Y-47976D01*
X28623Y-47966D01*
X28635Y-47954D01*
X28647Y-47942D01*
X28657Y-47929D01*
X28666Y-47915D01*
X28674Y-47900D01*
X28680Y-47884D01*
X28685Y-47868D01*
X28689Y-47852D01*
X28691Y-47835D01*
X28692Y-47819D01*
X28692Y-47307D02*
X28691Y-47291D01*
X28689Y-47274D01*
X28685Y-47258D01*
X28680Y-47242D01*
X28674Y-47226D01*
X28666Y-47212D01*
X28657Y-47197D01*
X28647Y-47184D01*
X28635Y-47172D01*
X28623Y-47160D01*
X28610Y-47150D01*
X28596Y-47141D01*
X28581Y-47133D01*
X28565Y-47127D01*
X28549Y-47122D01*
X28533Y-47118D01*
X28516Y-47116D01*
X28500Y-47115D01*
X28484Y-47116D01*
X28467Y-47118D01*
X28451Y-47122D01*
X28435Y-47127D01*
X28419Y-47133D01*
X28405Y-47141D01*
X28390Y-47150D01*
X28377Y-47160D01*
X28365Y-47172D01*
X28353Y-47184D01*
X28343Y-47197D01*
X28334Y-47212D01*
X28326Y-47226D01*
X28320Y-47242D01*
X28315Y-47258D01*
X28311Y-47274D01*
X28309Y-47291D01*
X28308Y-47307D01*
X34303Y-44055D02*
X34697Y-44449D01*
X34697Y-44055D02*
X34303Y-44449D01*
X34308Y-43563D02*
X34308Y-44941D01*
X34692Y-43563D02*
X34692Y-44941D01*
X34308Y-44941D02*
X34309Y-44957D01*
X34311Y-44974D01*
X34315Y-44990D01*
X34320Y-45006D01*
X34326Y-45022D01*
X34334Y-45036D01*
X34343Y-45051D01*
X34353Y-45064D01*
X34365Y-45076D01*
X34377Y-45088D01*
X34390Y-45098D01*
X34404Y-45107D01*
X34419Y-45115D01*
X34435Y-45121D01*
X34451Y-45126D01*
X34467Y-45130D01*
X34484Y-45132D01*
X34500Y-45133D01*
X34516Y-45132D01*
X34533Y-45130D01*
X34549Y-45126D01*
X34565Y-45121D01*
X34581Y-45115D01*
X34596Y-45107D01*
X34610Y-45098D01*
X34623Y-45088D01*
X34635Y-45076D01*
X34647Y-45064D01*
X34657Y-45051D01*
X34666Y-45037D01*
X34674Y-45022D01*
X34680Y-45006D01*
X34685Y-44990D01*
X34689Y-44974D01*
X34691Y-44957D01*
X34692Y-44941D01*
X34692Y-43563D02*
X34691Y-43547D01*
X34689Y-43530D01*
X34685Y-43514D01*
X34680Y-43498D01*
X34674Y-43482D01*
X34666Y-43468D01*
X34657Y-43453D01*
X34647Y-43440D01*
X34635Y-43428D01*
X34623Y-43416D01*
X34610Y-43406D01*
X34596Y-43397D01*
X34581Y-43389D01*
X34565Y-43383D01*
X34549Y-43378D01*
X34533Y-43374D01*
X34516Y-43372D01*
X34500Y-43371D01*
X34484Y-43372D01*
X34467Y-43374D01*
X34451Y-43378D01*
X34435Y-43383D01*
X34419Y-43389D01*
X34405Y-43397D01*
X34390Y-43406D01*
X34377Y-43416D01*
X34365Y-43428D01*
X34353Y-43440D01*
X34343Y-43453D01*
X34334Y-43468D01*
X34326Y-43482D01*
X34320Y-43498D01*
X34315Y-43514D01*
X34311Y-43530D01*
X34309Y-43547D01*
X34308Y-43563D01*
X34303Y-45866D02*
X34697Y-46260D01*
X34697Y-45866D02*
X34303Y-46260D01*
X34308Y-45807D02*
X34308Y-46319D01*
X34692Y-45807D02*
X34692Y-46319D01*
X34308Y-46319D02*
X34309Y-46335D01*
X34311Y-46352D01*
X34315Y-46368D01*
X34320Y-46384D01*
X34326Y-46400D01*
X34334Y-46414D01*
X34343Y-46429D01*
X34353Y-46442D01*
X34365Y-46454D01*
X34377Y-46466D01*
X34390Y-46476D01*
X34404Y-46485D01*
X34419Y-46493D01*
X34435Y-46499D01*
X34451Y-46504D01*
X34467Y-46508D01*
X34484Y-46510D01*
X34500Y-46511D01*
X34516Y-46510D01*
X34533Y-46508D01*
X34549Y-46504D01*
X34565Y-46499D01*
X34581Y-46493D01*
X34596Y-46485D01*
X34610Y-46476D01*
X34623Y-46466D01*
X34635Y-46454D01*
X34647Y-46442D01*
X34657Y-46429D01*
X34666Y-46415D01*
X34674Y-46400D01*
X34680Y-46384D01*
X34685Y-46368D01*
X34689Y-46352D01*
X34691Y-46335D01*
X34692Y-46319D01*
X34692Y-45807D02*
X34691Y-45791D01*
X34689Y-45774D01*
X34685Y-45758D01*
X34680Y-45742D01*
X34674Y-45726D01*
X34666Y-45712D01*
X34657Y-45697D01*
X34647Y-45684D01*
X34635Y-45672D01*
X34623Y-45660D01*
X34610Y-45650D01*
X34596Y-45641D01*
X34581Y-45633D01*
X34565Y-45627D01*
X34549Y-45622D01*
X34533Y-45618D01*
X34516Y-45616D01*
X34500Y-45615D01*
X34484Y-45616D01*
X34467Y-45618D01*
X34451Y-45622D01*
X34435Y-45627D01*
X34419Y-45633D01*
X34405Y-45641D01*
X34390Y-45650D01*
X34377Y-45660D01*
X34365Y-45672D01*
X34353Y-45684D01*
X34343Y-45697D01*
X34334Y-45712D01*
X34326Y-45726D01*
X34320Y-45742D01*
X34315Y-45758D01*
X34311Y-45774D01*
X34309Y-45791D01*
X34308Y-45807D01*
X39803Y-45055D02*
X40197Y-45449D01*
X40197Y-45055D02*
X39803Y-45449D01*
X39808Y-44563D02*
X39808Y-45941D01*
X40192Y-44563D02*
X40192Y-45941D01*
X39808Y-45941D02*
X39809Y-45957D01*
X39811Y-45974D01*
X39815Y-45990D01*
X39820Y-46006D01*
X39826Y-46022D01*
X39834Y-46036D01*
X39843Y-46051D01*
X39853Y-46064D01*
X39865Y-46076D01*
X39877Y-46088D01*
X39890Y-46098D01*
X39904Y-46107D01*
X39919Y-46115D01*
X39935Y-46121D01*
X39951Y-46126D01*
X39967Y-46130D01*
X39984Y-46132D01*
X40000Y-46133D01*
X40016Y-46132D01*
X40033Y-46130D01*
X40049Y-46126D01*
X40065Y-46121D01*
X40081Y-46115D01*
X40096Y-46107D01*
X40110Y-46098D01*
X40123Y-46088D01*
X40135Y-46076D01*
X40147Y-46064D01*
X40157Y-46051D01*
X40166Y-46037D01*
X40174Y-46022D01*
X40180Y-46006D01*
X40185Y-45990D01*
X40189Y-45974D01*
X40191Y-45957D01*
X40192Y-45941D01*
X40192Y-44563D02*
X40191Y-44547D01*
X40189Y-44530D01*
X40185Y-44514D01*
X40180Y-44498D01*
X40174Y-44482D01*
X40166Y-44468D01*
X40157Y-44453D01*
X40147Y-44440D01*
X40135Y-44428D01*
X40123Y-44416D01*
X40110Y-44406D01*
X40096Y-44397D01*
X40081Y-44389D01*
X40065Y-44383D01*
X40049Y-44378D01*
X40033Y-44374D01*
X40016Y-44372D01*
X40000Y-44371D01*
X39984Y-44372D01*
X39967Y-44374D01*
X39951Y-44378D01*
X39935Y-44383D01*
X39919Y-44389D01*
X39905Y-44397D01*
X39890Y-44406D01*
X39877Y-44416D01*
X39865Y-44428D01*
X39853Y-44440D01*
X39843Y-44453D01*
X39834Y-44468D01*
X39826Y-44482D01*
X39820Y-44498D01*
X39815Y-44514D01*
X39811Y-44530D01*
X39809Y-44547D01*
X39808Y-44563D01*
X39803Y-46866D02*
X40197Y-47260D01*
X40197Y-46866D02*
X39803Y-47260D01*
X39808Y-46807D02*
X39808Y-47319D01*
X40192Y-46807D02*
X40192Y-47319D01*
X39808Y-47319D02*
X39809Y-47335D01*
X39811Y-47352D01*
X39815Y-47368D01*
X39820Y-47384D01*
X39826Y-47400D01*
X39834Y-47414D01*
X39843Y-47429D01*
X39853Y-47442D01*
X39865Y-47454D01*
X39877Y-47466D01*
X39890Y-47476D01*
X39904Y-47485D01*
X39919Y-47493D01*
X39935Y-47499D01*
X39951Y-47504D01*
X39967Y-47508D01*
X39984Y-47510D01*
X40000Y-47511D01*
X40016Y-47510D01*
X40033Y-47508D01*
X40049Y-47504D01*
X40065Y-47499D01*
X40081Y-47493D01*
X40096Y-47485D01*
X40110Y-47476D01*
X40123Y-47466D01*
X40135Y-47454D01*
X40147Y-47442D01*
X40157Y-47429D01*
X40166Y-47415D01*
X40174Y-47400D01*
X40180Y-47384D01*
X40185Y-47368D01*
X40189Y-47352D01*
X40191Y-47335D01*
X40192Y-47319D01*
X40192Y-46807D02*
X40191Y-46791D01*
X40189Y-46774D01*
X40185Y-46758D01*
X40180Y-46742D01*
X40174Y-46726D01*
X40166Y-46712D01*
X40157Y-46697D01*
X40147Y-46684D01*
X40135Y-46672D01*
X40123Y-46660D01*
X40110Y-46650D01*
X40096Y-46641D01*
X40081Y-46633D01*
X40065Y-46627D01*
X40049Y-46622D01*
X40033Y-46618D01*
X40016Y-46616D01*
X40000Y-46615D01*
X39984Y-46616D01*
X39967Y-46618D01*
X39951Y-46622D01*
X39935Y-46627D01*
X39919Y-46633D01*
X39905Y-46641D01*
X39890Y-46650D01*
X39877Y-46660D01*
X39865Y-46672D01*
X39853Y-46684D01*
X39843Y-46697D01*
X39834Y-46712D01*
X39826Y-46726D01*
X39820Y-46742D01*
X39815Y-46758D01*
X39811Y-46774D01*
X39809Y-46791D01*
X39808Y-46807D01*
X46303Y-45555D02*
X46697Y-45949D01*
X46697Y-45555D02*
X46303Y-45949D01*
X46308Y-45063D02*
X46308Y-46441D01*
X46692Y-45063D02*
X46692Y-46441D01*
X46308Y-46441D02*
X46309Y-46457D01*
X46311Y-46474D01*
X46315Y-46490D01*
X46320Y-46506D01*
X46326Y-46522D01*
X46334Y-46536D01*
X46343Y-46551D01*
X46353Y-46564D01*
X46365Y-46576D01*
X46377Y-46588D01*
X46390Y-46598D01*
X46404Y-46607D01*
X46419Y-46615D01*
X46435Y-46621D01*
X46451Y-46626D01*
X46467Y-46630D01*
X46484Y-46632D01*
X46500Y-46633D01*
X46516Y-46632D01*
X46533Y-46630D01*
X46549Y-46626D01*
X46565Y-46621D01*
X46581Y-46615D01*
X46596Y-46607D01*
X46610Y-46598D01*
X46623Y-46588D01*
X46635Y-46576D01*
X46647Y-46564D01*
X46657Y-46551D01*
X46666Y-46537D01*
X46674Y-46522D01*
X46680Y-46506D01*
X46685Y-46490D01*
X46689Y-46474D01*
X46691Y-46457D01*
X46692Y-46441D01*
X46692Y-45063D02*
X46691Y-45047D01*
X46689Y-45030D01*
X46685Y-45014D01*
X46680Y-44998D01*
X46674Y-44982D01*
X46666Y-44968D01*
X46657Y-44953D01*
X46647Y-44940D01*
X46635Y-44928D01*
X46623Y-44916D01*
X46610Y-44906D01*
X46596Y-44897D01*
X46581Y-44889D01*
X46565Y-44883D01*
X46549Y-44878D01*
X46533Y-44874D01*
X46516Y-44872D01*
X46500Y-44871D01*
X46484Y-44872D01*
X46467Y-44874D01*
X46451Y-44878D01*
X46435Y-44883D01*
X46419Y-44889D01*
X46405Y-44897D01*
X46390Y-44906D01*
X46377Y-44916D01*
X46365Y-44928D01*
X46353Y-44940D01*
X46343Y-44953D01*
X46334Y-44968D01*
X46326Y-44982D01*
X46320Y-44998D01*
X46315Y-45014D01*
X46311Y-45030D01*
X46309Y-45047D01*
X46308Y-45063D01*
X46303Y-47366D02*
X46697Y-47760D01*
X46697Y-47366D02*
X46303Y-47760D01*
X46308Y-47307D02*
X46308Y-47819D01*
X46692Y-47307D02*
X46692Y-47819D01*
X46308Y-47819D02*
X46309Y-47835D01*
X46311Y-47852D01*
X46315Y-47868D01*
X46320Y-47884D01*
X46326Y-47900D01*
X46334Y-47914D01*
X46343Y-47929D01*
X46353Y-47942D01*
X46365Y-47954D01*
X46377Y-47966D01*
X46390Y-47976D01*
X46404Y-47985D01*
X46419Y-47993D01*
X46435Y-47999D01*
X46451Y-48004D01*
X46467Y-48008D01*
X46484Y-48010D01*
X46500Y-48011D01*
X46516Y-48010D01*
X46533Y-48008D01*
X46549Y-48004D01*
X46565Y-47999D01*
X46581Y-47993D01*
X46596Y-47985D01*
X46610Y-47976D01*
X46623Y-47966D01*
X46635Y-47954D01*
X46647Y-47942D01*
X46657Y-47929D01*
X46666Y-47915D01*
X46674Y-47900D01*
X46680Y-47884D01*
X46685Y-47868D01*
X46689Y-47852D01*
X46691Y-47835D01*
X46692Y-47819D01*
X46692Y-47307D02*
X46691Y-47291D01*
X46689Y-47274D01*
X46685Y-47258D01*
X46680Y-47242D01*
X46674Y-47226D01*
X46666Y-47212D01*
X46657Y-47197D01*
X46647Y-47184D01*
X46635Y-47172D01*
X46623Y-47160D01*
X46610Y-47150D01*
X46596Y-47141D01*
X46581Y-47133D01*
X46565Y-47127D01*
X46549Y-47122D01*
X46533Y-47118D01*
X46516Y-47116D01*
X46500Y-47115D01*
X46484Y-47116D01*
X46467Y-47118D01*
X46451Y-47122D01*
X46435Y-47127D01*
X46419Y-47133D01*
X46405Y-47141D01*
X46390Y-47150D01*
X46377Y-47160D01*
X46365Y-47172D01*
X46353Y-47184D01*
X46343Y-47197D01*
X46334Y-47212D01*
X46326Y-47226D01*
X46320Y-47242D01*
X46315Y-47258D01*
X46311Y-47274D01*
X46309Y-47291D01*
X46308Y-47307D01*
X51803Y-45055D02*
X52197Y-45449D01*
X52197Y-45055D02*
X51803Y-45449D01*
X51808Y-44563D02*
X51808Y-45941D01*
X52192Y-44563D02*
X52192Y-45941D01*
X51808Y-45941D02*
X51809Y-45957D01*
X51811Y-45974D01*
X51815Y-45990D01*
X51820Y-46006D01*
X51826Y-46022D01*
X51834Y-46036D01*
X51843Y-46051D01*
X51853Y-46064D01*
X51865Y-46076D01*
X51877Y-46088D01*
X51890Y-46098D01*
X51904Y-46107D01*
X51919Y-46115D01*
X51935Y-46121D01*
X51951Y-46126D01*
X51967Y-46130D01*
X51984Y-46132D01*
X52000Y-46133D01*
X52016Y-46132D01*
X52033Y-46130D01*
X52049Y-46126D01*
X52065Y-46121D01*
X52081Y-46115D01*
X52096Y-46107D01*
X52110Y-46098D01*
X52123Y-46088D01*
X52135Y-46076D01*
X52147Y-46064D01*
X52157Y-46051D01*
X52166Y-46037D01*
X52174Y-46022D01*
X52180Y-46006D01*
X52185Y-45990D01*
X52189Y-45974D01*
X52191Y-45957D01*
X52192Y-45941D01*
X52192Y-44563D02*
X52191Y-44547D01*
X52189Y-44530D01*
X52185Y-44514D01*
X52180Y-44498D01*
X52174Y-44482D01*
X52166Y-44468D01*
X52157Y-44453D01*
X52147Y-44440D01*
X52135Y-44428D01*
X52123Y-44416D01*
X52110Y-44406D01*
X52096Y-44397D01*
X52081Y-44389D01*
X52065Y-44383D01*
X52049Y-44378D01*
X52033Y-44374D01*
X52016Y-44372D01*
X52000Y-44371D01*
X51984Y-44372D01*
X51967Y-44374D01*
X51951Y-44378D01*
X51935Y-44383D01*
X51919Y-44389D01*
X51905Y-44397D01*
X51890Y-44406D01*
X51877Y-44416D01*
X51865Y-44428D01*
X51853Y-44440D01*
X51843Y-44453D01*
X51834Y-44468D01*
X51826Y-44482D01*
X51820Y-44498D01*
X51815Y-44514D01*
X51811Y-44530D01*
X51809Y-44547D01*
X51808Y-44563D01*
X51803Y-46866D02*
X52197Y-47260D01*
X52197Y-46866D02*
X51803Y-47260D01*
X51808Y-46807D02*
X51808Y-47319D01*
X52192Y-46807D02*
X52192Y-47319D01*
X51808Y-47319D02*
X51809Y-47335D01*
X51811Y-47352D01*
X51815Y-47368D01*
X51820Y-47384D01*
X51826Y-47400D01*
X51834Y-47414D01*
X51843Y-47429D01*
X51853Y-47442D01*
X51865Y-47454D01*
X51877Y-47466D01*
X51890Y-47476D01*
X51904Y-47485D01*
X51919Y-47493D01*
X51935Y-47499D01*
X51951Y-47504D01*
X51967Y-47508D01*
X51984Y-47510D01*
X52000Y-47511D01*
X52016Y-47510D01*
X52033Y-47508D01*
X52049Y-47504D01*
X52065Y-47499D01*
X52081Y-47493D01*
X52096Y-47485D01*
X52110Y-47476D01*
X52123Y-47466D01*
X52135Y-47454D01*
X52147Y-47442D01*
X52157Y-47429D01*
X52166Y-47415D01*
X52174Y-47400D01*
X52180Y-47384D01*
X52185Y-47368D01*
X52189Y-47352D01*
X52191Y-47335D01*
X52192Y-47319D01*
X52192Y-46807D02*
X52191Y-46791D01*
X52189Y-46774D01*
X52185Y-46758D01*
X52180Y-46742D01*
X52174Y-46726D01*
X52166Y-46712D01*
X52157Y-46697D01*
X52147Y-46684D01*
X52135Y-46672D01*
X52123Y-46660D01*
X52110Y-46650D01*
X52096Y-46641D01*
X52081Y-46633D01*
X52065Y-46627D01*
X52049Y-46622D01*
X52033Y-46618D01*
X52016Y-46616D01*
X52000Y-46615D01*
X51984Y-46616D01*
X51967Y-46618D01*
X51951Y-46622D01*
X51935Y-46627D01*
X51919Y-46633D01*
X51905Y-46641D01*
X51890Y-46650D01*
X51877Y-46660D01*
X51865Y-46672D01*
X51853Y-46684D01*
X51843Y-46697D01*
X51834Y-46712D01*
X51826Y-46726D01*
X51820Y-46742D01*
X51815Y-46758D01*
X51811Y-46774D01*
X51809Y-46791D01*
X51808Y-46807D01*
X56803Y-61055D02*
X57197Y-61449D01*
X57197Y-61055D02*
X56803Y-61449D01*
X56808Y-60563D02*
X56808Y-61941D01*
X57192Y-60563D02*
X57192Y-61941D01*
X56808Y-61941D02*
X56809Y-61957D01*
X56811Y-61974D01*
X56815Y-61990D01*
X56820Y-62006D01*
X56826Y-62022D01*
X56834Y-62036D01*
X56843Y-62051D01*
X56853Y-62064D01*
X56865Y-62076D01*
X56877Y-62088D01*
X56890Y-62098D01*
X56904Y-62107D01*
X56919Y-62115D01*
X56935Y-62121D01*
X56951Y-62126D01*
X56967Y-62130D01*
X56984Y-62132D01*
X57000Y-62133D01*
X57016Y-62132D01*
X57033Y-62130D01*
X57049Y-62126D01*
X57065Y-62121D01*
X57081Y-62115D01*
X57096Y-62107D01*
X57110Y-62098D01*
X57123Y-62088D01*
X57135Y-62076D01*
X57147Y-62064D01*
X57157Y-62051D01*
X57166Y-62037D01*
X57174Y-62022D01*
X57180Y-62006D01*
X57185Y-61990D01*
X57189Y-61974D01*
X57191Y-61957D01*
X57192Y-61941D01*
X57192Y-60563D02*
X57191Y-60547D01*
X57189Y-60530D01*
X57185Y-60514D01*
X57180Y-60498D01*
X57174Y-60482D01*
X57166Y-60468D01*
X57157Y-60453D01*
X57147Y-60440D01*
X57135Y-60428D01*
X57123Y-60416D01*
X57110Y-60406D01*
X57096Y-60397D01*
X57081Y-60389D01*
X57065Y-60383D01*
X57049Y-60378D01*
X57033Y-60374D01*
X57016Y-60372D01*
X57000Y-60371D01*
X56984Y-60372D01*
X56967Y-60374D01*
X56951Y-60378D01*
X56935Y-60383D01*
X56919Y-60389D01*
X56905Y-60397D01*
X56890Y-60406D01*
X56877Y-60416D01*
X56865Y-60428D01*
X56853Y-60440D01*
X56843Y-60453D01*
X56834Y-60468D01*
X56826Y-60482D01*
X56820Y-60498D01*
X56815Y-60514D01*
X56811Y-60530D01*
X56809Y-60547D01*
X56808Y-60563D01*
X56803Y-62866D02*
X57197Y-63260D01*
X57197Y-62866D02*
X56803Y-63260D01*
X56808Y-62807D02*
X56808Y-63319D01*
X57192Y-62807D02*
X57192Y-63319D01*
X56808Y-63319D02*
X56809Y-63335D01*
X56811Y-63352D01*
X56815Y-63368D01*
X56820Y-63384D01*
X56826Y-63400D01*
X56834Y-63414D01*
X56843Y-63429D01*
X56853Y-63442D01*
X56865Y-63454D01*
X56877Y-63466D01*
X56890Y-63476D01*
X56904Y-63485D01*
X56919Y-63493D01*
X56935Y-63499D01*
X56951Y-63504D01*
X56967Y-63508D01*
X56984Y-63510D01*
X57000Y-63511D01*
X57016Y-63510D01*
X57033Y-63508D01*
X57049Y-63504D01*
X57065Y-63499D01*
X57081Y-63493D01*
X57096Y-63485D01*
X57110Y-63476D01*
X57123Y-63466D01*
X57135Y-63454D01*
X57147Y-63442D01*
X57157Y-63429D01*
X57166Y-63415D01*
X57174Y-63400D01*
X57180Y-63384D01*
X57185Y-63368D01*
X57189Y-63352D01*
X57191Y-63335D01*
X57192Y-63319D01*
X57192Y-62807D02*
X57191Y-62791D01*
X57189Y-62774D01*
X57185Y-62758D01*
X57180Y-62742D01*
X57174Y-62726D01*
X57166Y-62712D01*
X57157Y-62697D01*
X57147Y-62684D01*
X57135Y-62672D01*
X57123Y-62660D01*
X57110Y-62650D01*
X57096Y-62641D01*
X57081Y-62633D01*
X57065Y-62627D01*
X57049Y-62622D01*
X57033Y-62618D01*
X57016Y-62616D01*
X57000Y-62615D01*
X56984Y-62616D01*
X56967Y-62618D01*
X56951Y-62622D01*
X56935Y-62627D01*
X56919Y-62633D01*
X56905Y-62641D01*
X56890Y-62650D01*
X56877Y-62660D01*
X56865Y-62672D01*
X56853Y-62684D01*
X56843Y-62697D01*
X56834Y-62712D01*
X56826Y-62726D01*
X56820Y-62742D01*
X56815Y-62758D01*
X56811Y-62774D01*
X56809Y-62791D01*
X56808Y-62807D01*
X57803Y-46055D02*
X58197Y-46449D01*
X58197Y-46055D02*
X57803Y-46449D01*
X57808Y-45563D02*
X57808Y-46941D01*
X58192Y-45563D02*
X58192Y-46941D01*
X57808Y-46941D02*
X57809Y-46957D01*
X57811Y-46974D01*
X57815Y-46990D01*
X57820Y-47006D01*
X57826Y-47022D01*
X57834Y-47036D01*
X57843Y-47051D01*
X57853Y-47064D01*
X57865Y-47076D01*
X57877Y-47088D01*
X57890Y-47098D01*
X57904Y-47107D01*
X57919Y-47115D01*
X57935Y-47121D01*
X57951Y-47126D01*
X57967Y-47130D01*
X57984Y-47132D01*
X58000Y-47133D01*
X58016Y-47132D01*
X58033Y-47130D01*
X58049Y-47126D01*
X58065Y-47121D01*
X58081Y-47115D01*
X58096Y-47107D01*
X58110Y-47098D01*
X58123Y-47088D01*
X58135Y-47076D01*
X58147Y-47064D01*
X58157Y-47051D01*
X58166Y-47037D01*
X58174Y-47022D01*
X58180Y-47006D01*
X58185Y-46990D01*
X58189Y-46974D01*
X58191Y-46957D01*
X58192Y-46941D01*
X58192Y-45563D02*
X58191Y-45547D01*
X58189Y-45530D01*
X58185Y-45514D01*
X58180Y-45498D01*
X58174Y-45482D01*
X58166Y-45468D01*
X58157Y-45453D01*
X58147Y-45440D01*
X58135Y-45428D01*
X58123Y-45416D01*
X58110Y-45406D01*
X58096Y-45397D01*
X58081Y-45389D01*
X58065Y-45383D01*
X58049Y-45378D01*
X58033Y-45374D01*
X58016Y-45372D01*
X58000Y-45371D01*
X57984Y-45372D01*
X57967Y-45374D01*
X57951Y-45378D01*
X57935Y-45383D01*
X57919Y-45389D01*
X57905Y-45397D01*
X57890Y-45406D01*
X57877Y-45416D01*
X57865Y-45428D01*
X57853Y-45440D01*
X57843Y-45453D01*
X57834Y-45468D01*
X57826Y-45482D01*
X57820Y-45498D01*
X57815Y-45514D01*
X57811Y-45530D01*
X57809Y-45547D01*
X57808Y-45563D01*
X57803Y-47866D02*
X58197Y-48260D01*
X58197Y-47866D02*
X57803Y-48260D01*
X57808Y-47807D02*
X57808Y-48319D01*
X58192Y-47807D02*
X58192Y-48319D01*
X57808Y-48319D02*
X57809Y-48335D01*
X57811Y-48352D01*
X57815Y-48368D01*
X57820Y-48384D01*
X57826Y-48400D01*
X57834Y-48414D01*
X57843Y-48429D01*
X57853Y-48442D01*
X57865Y-48454D01*
X57877Y-48466D01*
X57890Y-48476D01*
X57904Y-48485D01*
X57919Y-48493D01*
X57935Y-48499D01*
X57951Y-48504D01*
X57967Y-48508D01*
X57984Y-48510D01*
X58000Y-48511D01*
X58016Y-48510D01*
X58033Y-48508D01*
X58049Y-48504D01*
X58065Y-48499D01*
X58081Y-48493D01*
X58096Y-48485D01*
X58110Y-48476D01*
X58123Y-48466D01*
X58135Y-48454D01*
X58147Y-48442D01*
X58157Y-48429D01*
X58166Y-48415D01*
X58174Y-48400D01*
X58180Y-48384D01*
X58185Y-48368D01*
X58189Y-48352D01*
X58191Y-48335D01*
X58192Y-48319D01*
X58192Y-47807D02*
X58191Y-47791D01*
X58189Y-47774D01*
X58185Y-47758D01*
X58180Y-47742D01*
X58174Y-47726D01*
X58166Y-47712D01*
X58157Y-47697D01*
X58147Y-47684D01*
X58135Y-47672D01*
X58123Y-47660D01*
X58110Y-47650D01*
X58096Y-47641D01*
X58081Y-47633D01*
X58065Y-47627D01*
X58049Y-47622D01*
X58033Y-47618D01*
X58016Y-47616D01*
X58000Y-47615D01*
X57984Y-47616D01*
X57967Y-47618D01*
X57951Y-47622D01*
X57935Y-47627D01*
X57919Y-47633D01*
X57905Y-47641D01*
X57890Y-47650D01*
X57877Y-47660D01*
X57865Y-47672D01*
X57853Y-47684D01*
X57843Y-47697D01*
X57834Y-47712D01*
X57826Y-47726D01*
X57820Y-47742D01*
X57815Y-47758D01*
X57811Y-47774D01*
X57809Y-47791D01*
X57808Y-47807D01*
X64303Y-46055D02*
X64697Y-46449D01*
X64697Y-46055D02*
X64303Y-46449D01*
X64308Y-45563D02*
X64308Y-46941D01*
X64692Y-45563D02*
X64692Y-46941D01*
X64308Y-46941D02*
X64309Y-46957D01*
X64311Y-46974D01*
X64315Y-46990D01*
X64320Y-47006D01*
X64326Y-47022D01*
X64334Y-47036D01*
X64343Y-47051D01*
X64353Y-47064D01*
X64365Y-47076D01*
X64377Y-47088D01*
X64390Y-47098D01*
X64404Y-47107D01*
X64419Y-47115D01*
X64435Y-47121D01*
X64451Y-47126D01*
X64467Y-47130D01*
X64484Y-47132D01*
X64500Y-47133D01*
X64516Y-47132D01*
X64533Y-47130D01*
X64549Y-47126D01*
X64565Y-47121D01*
X64581Y-47115D01*
X64596Y-47107D01*
X64610Y-47098D01*
X64623Y-47088D01*
X64635Y-47076D01*
X64647Y-47064D01*
X64657Y-47051D01*
X64666Y-47037D01*
X64674Y-47022D01*
X64680Y-47006D01*
X64685Y-46990D01*
X64689Y-46974D01*
X64691Y-46957D01*
X64692Y-46941D01*
X64692Y-45563D02*
X64691Y-45547D01*
X64689Y-45530D01*
X64685Y-45514D01*
X64680Y-45498D01*
X64674Y-45482D01*
X64666Y-45468D01*
X64657Y-45453D01*
X64647Y-45440D01*
X64635Y-45428D01*
X64623Y-45416D01*
X64610Y-45406D01*
X64596Y-45397D01*
X64581Y-45389D01*
X64565Y-45383D01*
X64549Y-45378D01*
X64533Y-45374D01*
X64516Y-45372D01*
X64500Y-45371D01*
X64484Y-45372D01*
X64467Y-45374D01*
X64451Y-45378D01*
X64435Y-45383D01*
X64419Y-45389D01*
X64405Y-45397D01*
X64390Y-45406D01*
X64377Y-45416D01*
X64365Y-45428D01*
X64353Y-45440D01*
X64343Y-45453D01*
X64334Y-45468D01*
X64326Y-45482D01*
X64320Y-45498D01*
X64315Y-45514D01*
X64311Y-45530D01*
X64309Y-45547D01*
X64308Y-45563D01*
X64303Y-47866D02*
X64697Y-48260D01*
X64697Y-47866D02*
X64303Y-48260D01*
X64308Y-47807D02*
X64308Y-48319D01*
X64692Y-47807D02*
X64692Y-48319D01*
X64308Y-48319D02*
X64309Y-48335D01*
X64311Y-48352D01*
X64315Y-48368D01*
X64320Y-48384D01*
X64326Y-48400D01*
X64334Y-48414D01*
X64343Y-48429D01*
X64353Y-48442D01*
X64365Y-48454D01*
X64377Y-48466D01*
X64390Y-48476D01*
X64404Y-48485D01*
X64419Y-48493D01*
X64435Y-48499D01*
X64451Y-48504D01*
X64467Y-48508D01*
X64484Y-48510D01*
X64500Y-48511D01*
X64516Y-48510D01*
X64533Y-48508D01*
X64549Y-48504D01*
X64565Y-48499D01*
X64581Y-48493D01*
X64596Y-48485D01*
X64610Y-48476D01*
X64623Y-48466D01*
X64635Y-48454D01*
X64647Y-48442D01*
X64657Y-48429D01*
X64666Y-48415D01*
X64674Y-48400D01*
X64680Y-48384D01*
X64685Y-48368D01*
X64689Y-48352D01*
X64691Y-48335D01*
X64692Y-48319D01*
X64692Y-47807D02*
X64691Y-47791D01*
X64689Y-47774D01*
X64685Y-47758D01*
X64680Y-47742D01*
X64674Y-47726D01*
X64666Y-47712D01*
X64657Y-47697D01*
X64647Y-47684D01*
X64635Y-47672D01*
X64623Y-47660D01*
X64610Y-47650D01*
X64596Y-47641D01*
X64581Y-47633D01*
X64565Y-47627D01*
X64549Y-47622D01*
X64533Y-47618D01*
X64516Y-47616D01*
X64500Y-47615D01*
X64484Y-47616D01*
X64467Y-47618D01*
X64451Y-47622D01*
X64435Y-47627D01*
X64419Y-47633D01*
X64405Y-47641D01*
X64390Y-47650D01*
X64377Y-47660D01*
X64365Y-47672D01*
X64353Y-47684D01*
X64343Y-47697D01*
X64334Y-47712D01*
X64326Y-47726D01*
X64320Y-47742D01*
X64315Y-47758D01*
X64311Y-47774D01*
X64309Y-47791D01*
X64308Y-47807D01*
X64803Y-62055D02*
X65197Y-62449D01*
X65197Y-62055D02*
X64803Y-62449D01*
X64808Y-61563D02*
X64808Y-62941D01*
X65192Y-61563D02*
X65192Y-62941D01*
X64808Y-62941D02*
X64809Y-62957D01*
X64811Y-62974D01*
X64815Y-62990D01*
X64820Y-63006D01*
X64826Y-63022D01*
X64834Y-63036D01*
X64843Y-63051D01*
X64853Y-63064D01*
X64865Y-63076D01*
X64877Y-63088D01*
X64890Y-63098D01*
X64904Y-63107D01*
X64919Y-63115D01*
X64935Y-63121D01*
X64951Y-63126D01*
X64967Y-63130D01*
X64984Y-63132D01*
X65000Y-63133D01*
X65016Y-63132D01*
X65033Y-63130D01*
X65049Y-63126D01*
X65065Y-63121D01*
X65081Y-63115D01*
X65096Y-63107D01*
X65110Y-63098D01*
X65123Y-63088D01*
X65135Y-63076D01*
X65147Y-63064D01*
X65157Y-63051D01*
X65166Y-63037D01*
X65174Y-63022D01*
X65180Y-63006D01*
X65185Y-62990D01*
X65189Y-62974D01*
X65191Y-62957D01*
X65192Y-62941D01*
X65192Y-61563D02*
X65191Y-61547D01*
X65189Y-61530D01*
X65185Y-61514D01*
X65180Y-61498D01*
X65174Y-61482D01*
X65166Y-61468D01*
X65157Y-61453D01*
X65147Y-61440D01*
X65135Y-61428D01*
X65123Y-61416D01*
X65110Y-61406D01*
X65096Y-61397D01*
X65081Y-61389D01*
X65065Y-61383D01*
X65049Y-61378D01*
X65033Y-61374D01*
X65016Y-61372D01*
X65000Y-61371D01*
X64984Y-61372D01*
X64967Y-61374D01*
X64951Y-61378D01*
X64935Y-61383D01*
X64919Y-61389D01*
X64905Y-61397D01*
X64890Y-61406D01*
X64877Y-61416D01*
X64865Y-61428D01*
X64853Y-61440D01*
X64843Y-61453D01*
X64834Y-61468D01*
X64826Y-61482D01*
X64820Y-61498D01*
X64815Y-61514D01*
X64811Y-61530D01*
X64809Y-61547D01*
X64808Y-61563D01*
X64803Y-63866D02*
X65197Y-64260D01*
X65197Y-63866D02*
X64803Y-64260D01*
X64808Y-63807D02*
X64808Y-64319D01*
X65192Y-63807D02*
X65192Y-64319D01*
X64808Y-64319D02*
X64809Y-64335D01*
X64811Y-64352D01*
X64815Y-64368D01*
X64820Y-64384D01*
X64826Y-64400D01*
X64834Y-64414D01*
X64843Y-64429D01*
X64853Y-64442D01*
X64865Y-64454D01*
X64877Y-64466D01*
X64890Y-64476D01*
X64904Y-64485D01*
X64919Y-64493D01*
X64935Y-64499D01*
X64951Y-64504D01*
X64967Y-64508D01*
X64984Y-64510D01*
X65000Y-64511D01*
X65016Y-64510D01*
X65033Y-64508D01*
X65049Y-64504D01*
X65065Y-64499D01*
X65081Y-64493D01*
X65096Y-64485D01*
X65110Y-64476D01*
X65123Y-64466D01*
X65135Y-64454D01*
X65147Y-64442D01*
X65157Y-64429D01*
X65166Y-64415D01*
X65174Y-64400D01*
X65180Y-64384D01*
X65185Y-64368D01*
X65189Y-64352D01*
X65191Y-64335D01*
X65192Y-64319D01*
X65192Y-63807D02*
X65191Y-63791D01*
X65189Y-63774D01*
X65185Y-63758D01*
X65180Y-63742D01*
X65174Y-63726D01*
X65166Y-63712D01*
X65157Y-63697D01*
X65147Y-63684D01*
X65135Y-63672D01*
X65123Y-63660D01*
X65110Y-63650D01*
X65096Y-63641D01*
X65081Y-63633D01*
X65065Y-63627D01*
X65049Y-63622D01*
X65033Y-63618D01*
X65016Y-63616D01*
X65000Y-63615D01*
X64984Y-63616D01*
X64967Y-63618D01*
X64951Y-63622D01*
X64935Y-63627D01*
X64919Y-63633D01*
X64905Y-63641D01*
X64890Y-63650D01*
X64877Y-63660D01*
X64865Y-63672D01*
X64853Y-63684D01*
X64843Y-63697D01*
X64834Y-63712D01*
X64826Y-63726D01*
X64820Y-63742D01*
X64815Y-63758D01*
X64811Y-63774D01*
X64809Y-63791D01*
X64808Y-63807D01*
X70303Y-45555D02*
X70697Y-45949D01*
X70697Y-45555D02*
X70303Y-45949D01*
X70308Y-45063D02*
X70308Y-46441D01*
X70692Y-45063D02*
X70692Y-46441D01*
X70308Y-46441D02*
X70309Y-46457D01*
X70311Y-46474D01*
X70315Y-46490D01*
X70320Y-46506D01*
X70326Y-46522D01*
X70334Y-46536D01*
X70343Y-46551D01*
X70353Y-46564D01*
X70365Y-46576D01*
X70377Y-46588D01*
X70390Y-46598D01*
X70404Y-46607D01*
X70419Y-46615D01*
X70435Y-46621D01*
X70451Y-46626D01*
X70467Y-46630D01*
X70484Y-46632D01*
X70500Y-46633D01*
X70516Y-46632D01*
X70533Y-46630D01*
X70549Y-46626D01*
X70565Y-46621D01*
X70581Y-46615D01*
X70596Y-46607D01*
X70610Y-46598D01*
X70623Y-46588D01*
X70635Y-46576D01*
X70647Y-46564D01*
X70657Y-46551D01*
X70666Y-46537D01*
X70674Y-46522D01*
X70680Y-46506D01*
X70685Y-46490D01*
X70689Y-46474D01*
X70691Y-46457D01*
X70692Y-46441D01*
X70692Y-45063D02*
X70691Y-45047D01*
X70689Y-45030D01*
X70685Y-45014D01*
X70680Y-44998D01*
X70674Y-44982D01*
X70666Y-44968D01*
X70657Y-44953D01*
X70647Y-44940D01*
X70635Y-44928D01*
X70623Y-44916D01*
X70610Y-44906D01*
X70596Y-44897D01*
X70581Y-44889D01*
X70565Y-44883D01*
X70549Y-44878D01*
X70533Y-44874D01*
X70516Y-44872D01*
X70500Y-44871D01*
X70484Y-44872D01*
X70467Y-44874D01*
X70451Y-44878D01*
X70435Y-44883D01*
X70419Y-44889D01*
X70405Y-44897D01*
X70390Y-44906D01*
X70377Y-44916D01*
X70365Y-44928D01*
X70353Y-44940D01*
X70343Y-44953D01*
X70334Y-44968D01*
X70326Y-44982D01*
X70320Y-44998D01*
X70315Y-45014D01*
X70311Y-45030D01*
X70309Y-45047D01*
X70308Y-45063D01*
X70303Y-47366D02*
X70697Y-47760D01*
X70697Y-47366D02*
X70303Y-47760D01*
X70308Y-47307D02*
X70308Y-47819D01*
X70692Y-47307D02*
X70692Y-47819D01*
X70308Y-47819D02*
X70309Y-47835D01*
X70311Y-47852D01*
X70315Y-47868D01*
X70320Y-47884D01*
X70326Y-47900D01*
X70334Y-47914D01*
X70343Y-47929D01*
X70353Y-47942D01*
X70365Y-47954D01*
X70377Y-47966D01*
X70390Y-47976D01*
X70404Y-47985D01*
X70419Y-47993D01*
X70435Y-47999D01*
X70451Y-48004D01*
X70467Y-48008D01*
X70484Y-48010D01*
X70500Y-48011D01*
X70516Y-48010D01*
X70533Y-48008D01*
X70549Y-48004D01*
X70565Y-47999D01*
X70581Y-47993D01*
X70596Y-47985D01*
X70610Y-47976D01*
X70623Y-47966D01*
X70635Y-47954D01*
X70647Y-47942D01*
X70657Y-47929D01*
X70666Y-47915D01*
X70674Y-47900D01*
X70680Y-47884D01*
X70685Y-47868D01*
X70689Y-47852D01*
X70691Y-47835D01*
X70692Y-47819D01*
X70692Y-47307D02*
X70691Y-47291D01*
X70689Y-47274D01*
X70685Y-47258D01*
X70680Y-47242D01*
X70674Y-47226D01*
X70666Y-47212D01*
X70657Y-47197D01*
X70647Y-47184D01*
X70635Y-47172D01*
X70623Y-47160D01*
X70610Y-47150D01*
X70596Y-47141D01*
X70581Y-47133D01*
X70565Y-47127D01*
X70549Y-47122D01*
X70533Y-47118D01*
X70516Y-47116D01*
X70500Y-47115D01*
X70484Y-47116D01*
X70467Y-47118D01*
X70451Y-47122D01*
X70435Y-47127D01*
X70419Y-47133D01*
X70405Y-47141D01*
X70390Y-47150D01*
X70377Y-47160D01*
X70365Y-47172D01*
X70353Y-47184D01*
X70343Y-47197D01*
X70334Y-47212D01*
X70326Y-47226D01*
X70320Y-47242D01*
X70315Y-47258D01*
X70311Y-47274D01*
X70309Y-47291D01*
X70308Y-47307D01*
X72303Y-62555D02*
X72697Y-62949D01*
X72697Y-62555D02*
X72303Y-62949D01*
X72308Y-62063D02*
X72308Y-63441D01*
X72692Y-62063D02*
X72692Y-63441D01*
X72308Y-63441D02*
X72309Y-63457D01*
X72311Y-63474D01*
X72315Y-63490D01*
X72320Y-63506D01*
X72326Y-63522D01*
X72334Y-63536D01*
X72343Y-63551D01*
X72353Y-63564D01*
X72365Y-63576D01*
X72377Y-63588D01*
X72390Y-63598D01*
X72404Y-63607D01*
X72419Y-63615D01*
X72435Y-63621D01*
X72451Y-63626D01*
X72467Y-63630D01*
X72484Y-63632D01*
X72500Y-63633D01*
X72516Y-63632D01*
X72533Y-63630D01*
X72549Y-63626D01*
X72565Y-63621D01*
X72581Y-63615D01*
X72596Y-63607D01*
X72610Y-63598D01*
X72623Y-63588D01*
X72635Y-63576D01*
X72647Y-63564D01*
X72657Y-63551D01*
X72666Y-63537D01*
X72674Y-63522D01*
X72680Y-63506D01*
X72685Y-63490D01*
X72689Y-63474D01*
X72691Y-63457D01*
X72692Y-63441D01*
X72692Y-62063D02*
X72691Y-62047D01*
X72689Y-62030D01*
X72685Y-62014D01*
X72680Y-61998D01*
X72674Y-61982D01*
X72666Y-61968D01*
X72657Y-61953D01*
X72647Y-61940D01*
X72635Y-61928D01*
X72623Y-61916D01*
X72610Y-61906D01*
X72596Y-61897D01*
X72581Y-61889D01*
X72565Y-61883D01*
X72549Y-61878D01*
X72533Y-61874D01*
X72516Y-61872D01*
X72500Y-61871D01*
X72484Y-61872D01*
X72467Y-61874D01*
X72451Y-61878D01*
X72435Y-61883D01*
X72419Y-61889D01*
X72405Y-61897D01*
X72390Y-61906D01*
X72377Y-61916D01*
X72365Y-61928D01*
X72353Y-61940D01*
X72343Y-61953D01*
X72334Y-61968D01*
X72326Y-61982D01*
X72320Y-61998D01*
X72315Y-62014D01*
X72311Y-62030D01*
X72309Y-62047D01*
X72308Y-62063D01*
X72303Y-64366D02*
X72697Y-64760D01*
X72697Y-64366D02*
X72303Y-64760D01*
X72308Y-64307D02*
X72308Y-64819D01*
X72692Y-64307D02*
X72692Y-64819D01*
X72308Y-64819D02*
X72309Y-64835D01*
X72311Y-64852D01*
X72315Y-64868D01*
X72320Y-64884D01*
X72326Y-64900D01*
X72334Y-64914D01*
X72343Y-64929D01*
X72353Y-64942D01*
X72365Y-64954D01*
X72377Y-64966D01*
X72390Y-64976D01*
X72404Y-64985D01*
X72419Y-64993D01*
X72435Y-64999D01*
X72451Y-65004D01*
X72467Y-65008D01*
X72484Y-65010D01*
X72500Y-65011D01*
X72516Y-65010D01*
X72533Y-65008D01*
X72549Y-65004D01*
X72565Y-64999D01*
X72581Y-64993D01*
X72596Y-64985D01*
X72610Y-64976D01*
X72623Y-64966D01*
X72635Y-64954D01*
X72647Y-64942D01*
X72657Y-64929D01*
X72666Y-64915D01*
X72674Y-64900D01*
X72680Y-64884D01*
X72685Y-64868D01*
X72689Y-64852D01*
X72691Y-64835D01*
X72692Y-64819D01*
X72692Y-64307D02*
X72691Y-64291D01*
X72689Y-64274D01*
X72685Y-64258D01*
X72680Y-64242D01*
X72674Y-64226D01*
X72666Y-64212D01*
X72657Y-64197D01*
X72647Y-64184D01*
X72635Y-64172D01*
X72623Y-64160D01*
X72610Y-64150D01*
X72596Y-64141D01*
X72581Y-64133D01*
X72565Y-64127D01*
X72549Y-64122D01*
X72533Y-64118D01*
X72516Y-64116D01*
X72500Y-64115D01*
X72484Y-64116D01*
X72467Y-64118D01*
X72451Y-64122D01*
X72435Y-64127D01*
X72419Y-64133D01*
X72405Y-64141D01*
X72390Y-64150D01*
X72377Y-64160D01*
X72365Y-64172D01*
X72353Y-64184D01*
X72343Y-64197D01*
X72334Y-64212D01*
X72326Y-64226D01*
X72320Y-64242D01*
X72315Y-64258D01*
X72311Y-64274D01*
X72309Y-64291D01*
X72308Y-64307D01*
X78803Y-62055D02*
X79197Y-62449D01*
X79197Y-62055D02*
X78803Y-62449D01*
X78808Y-61563D02*
X78808Y-62941D01*
X79192Y-61563D02*
X79192Y-62941D01*
X78808Y-62941D02*
X78809Y-62957D01*
X78811Y-62974D01*
X78815Y-62990D01*
X78820Y-63006D01*
X78826Y-63022D01*
X78834Y-63036D01*
X78843Y-63051D01*
X78853Y-63064D01*
X78865Y-63076D01*
X78877Y-63088D01*
X78890Y-63098D01*
X78904Y-63107D01*
X78919Y-63115D01*
X78935Y-63121D01*
X78951Y-63126D01*
X78967Y-63130D01*
X78984Y-63132D01*
X79000Y-63133D01*
X79016Y-63132D01*
X79033Y-63130D01*
X79049Y-63126D01*
X79065Y-63121D01*
X79081Y-63115D01*
X79096Y-63107D01*
X79110Y-63098D01*
X79123Y-63088D01*
X79135Y-63076D01*
X79147Y-63064D01*
X79157Y-63051D01*
X79166Y-63037D01*
X79174Y-63022D01*
X79180Y-63006D01*
X79185Y-62990D01*
X79189Y-62974D01*
X79191Y-62957D01*
X79192Y-62941D01*
X79192Y-61563D02*
X79191Y-61547D01*
X79189Y-61530D01*
X79185Y-61514D01*
X79180Y-61498D01*
X79174Y-61482D01*
X79166Y-61468D01*
X79157Y-61453D01*
X79147Y-61440D01*
X79135Y-61428D01*
X79123Y-61416D01*
X79110Y-61406D01*
X79096Y-61397D01*
X79081Y-61389D01*
X79065Y-61383D01*
X79049Y-61378D01*
X79033Y-61374D01*
X79016Y-61372D01*
X79000Y-61371D01*
X78984Y-61372D01*
X78967Y-61374D01*
X78951Y-61378D01*
X78935Y-61383D01*
X78919Y-61389D01*
X78905Y-61397D01*
X78890Y-61406D01*
X78877Y-61416D01*
X78865Y-61428D01*
X78853Y-61440D01*
X78843Y-61453D01*
X78834Y-61468D01*
X78826Y-61482D01*
X78820Y-61498D01*
X78815Y-61514D01*
X78811Y-61530D01*
X78809Y-61547D01*
X78808Y-61563D01*
X78803Y-63866D02*
X79197Y-64260D01*
X79197Y-63866D02*
X78803Y-64260D01*
X78808Y-63807D02*
X78808Y-64319D01*
X79192Y-63807D02*
X79192Y-64319D01*
X78808Y-64319D02*
X78809Y-64335D01*
X78811Y-64352D01*
X78815Y-64368D01*
X78820Y-64384D01*
X78826Y-64400D01*
X78834Y-64414D01*
X78843Y-64429D01*
X78853Y-64442D01*
X78865Y-64454D01*
X78877Y-64466D01*
X78890Y-64476D01*
X78904Y-64485D01*
X78919Y-64493D01*
X78935Y-64499D01*
X78951Y-64504D01*
X78967Y-64508D01*
X78984Y-64510D01*
X79000Y-64511D01*
X79016Y-64510D01*
X79033Y-64508D01*
X79049Y-64504D01*
X79065Y-64499D01*
X79081Y-64493D01*
X79096Y-64485D01*
X79110Y-64476D01*
X79123Y-64466D01*
X79135Y-64454D01*
X79147Y-64442D01*
X79157Y-64429D01*
X79166Y-64415D01*
X79174Y-64400D01*
X79180Y-64384D01*
X79185Y-64368D01*
X79189Y-64352D01*
X79191Y-64335D01*
X79192Y-64319D01*
X79192Y-63807D02*
X79191Y-63791D01*
X79189Y-63774D01*
X79185Y-63758D01*
X79180Y-63742D01*
X79174Y-63726D01*
X79166Y-63712D01*
X79157Y-63697D01*
X79147Y-63684D01*
X79135Y-63672D01*
X79123Y-63660D01*
X79110Y-63650D01*
X79096Y-63641D01*
X79081Y-63633D01*
X79065Y-63627D01*
X79049Y-63622D01*
X79033Y-63618D01*
X79016Y-63616D01*
X79000Y-63615D01*
X78984Y-63616D01*
X78967Y-63618D01*
X78951Y-63622D01*
X78935Y-63627D01*
X78919Y-63633D01*
X78905Y-63641D01*
X78890Y-63650D01*
X78877Y-63660D01*
X78865Y-63672D01*
X78853Y-63684D01*
X78843Y-63697D01*
X78834Y-63712D01*
X78826Y-63726D01*
X78820Y-63742D01*
X78815Y-63758D01*
X78811Y-63774D01*
X78809Y-63791D01*
X78808Y-63807D01*
X85303Y-61555D02*
X85697Y-61949D01*
X85697Y-61555D02*
X85303Y-61949D01*
X85308Y-61063D02*
X85308Y-62441D01*
X85692Y-61063D02*
X85692Y-62441D01*
X85308Y-62441D02*
X85309Y-62457D01*
X85311Y-62474D01*
X85315Y-62490D01*
X85320Y-62506D01*
X85326Y-62522D01*
X85334Y-62536D01*
X85343Y-62551D01*
X85353Y-62564D01*
X85365Y-62576D01*
X85377Y-62588D01*
X85390Y-62598D01*
X85404Y-62607D01*
X85419Y-62615D01*
X85435Y-62621D01*
X85451Y-62626D01*
X85467Y-62630D01*
X85484Y-62632D01*
X85500Y-62633D01*
X85516Y-62632D01*
X85533Y-62630D01*
X85549Y-62626D01*
X85565Y-62621D01*
X85581Y-62615D01*
X85596Y-62607D01*
X85610Y-62598D01*
X85623Y-62588D01*
X85635Y-62576D01*
X85647Y-62564D01*
X85657Y-62551D01*
X85666Y-62537D01*
X85674Y-62522D01*
X85680Y-62506D01*
X85685Y-62490D01*
X85689Y-62474D01*
X85691Y-62457D01*
X85692Y-62441D01*
X85692Y-61063D02*
X85691Y-61047D01*
X85689Y-61030D01*
X85685Y-61014D01*
X85680Y-60998D01*
X85674Y-60982D01*
X85666Y-60968D01*
X85657Y-60953D01*
X85647Y-60940D01*
X85635Y-60928D01*
X85623Y-60916D01*
X85610Y-60906D01*
X85596Y-60897D01*
X85581Y-60889D01*
X85565Y-60883D01*
X85549Y-60878D01*
X85533Y-60874D01*
X85516Y-60872D01*
X85500Y-60871D01*
X85484Y-60872D01*
X85467Y-60874D01*
X85451Y-60878D01*
X85435Y-60883D01*
X85419Y-60889D01*
X85405Y-60897D01*
X85390Y-60906D01*
X85377Y-60916D01*
X85365Y-60928D01*
X85353Y-60940D01*
X85343Y-60953D01*
X85334Y-60968D01*
X85326Y-60982D01*
X85320Y-60998D01*
X85315Y-61014D01*
X85311Y-61030D01*
X85309Y-61047D01*
X85308Y-61063D01*
X85303Y-63366D02*
X85697Y-63760D01*
X85697Y-63366D02*
X85303Y-63760D01*
X85308Y-63307D02*
X85308Y-63819D01*
X85692Y-63307D02*
X85692Y-63819D01*
X85308Y-63819D02*
X85309Y-63835D01*
X85311Y-63852D01*
X85315Y-63868D01*
X85320Y-63884D01*
X85326Y-63900D01*
X85334Y-63914D01*
X85343Y-63929D01*
X85353Y-63942D01*
X85365Y-63954D01*
X85377Y-63966D01*
X85390Y-63976D01*
X85404Y-63985D01*
X85419Y-63993D01*
X85435Y-63999D01*
X85451Y-64004D01*
X85467Y-64008D01*
X85484Y-64010D01*
X85500Y-64011D01*
X85516Y-64010D01*
X85533Y-64008D01*
X85549Y-64004D01*
X85565Y-63999D01*
X85581Y-63993D01*
X85596Y-63985D01*
X85610Y-63976D01*
X85623Y-63966D01*
X85635Y-63954D01*
X85647Y-63942D01*
X85657Y-63929D01*
X85666Y-63915D01*
X85674Y-63900D01*
X85680Y-63884D01*
X85685Y-63868D01*
X85689Y-63852D01*
X85691Y-63835D01*
X85692Y-63819D01*
X85692Y-63307D02*
X85691Y-63291D01*
X85689Y-63274D01*
X85685Y-63258D01*
X85680Y-63242D01*
X85674Y-63226D01*
X85666Y-63212D01*
X85657Y-63197D01*
X85647Y-63184D01*
X85635Y-63172D01*
X85623Y-63160D01*
X85610Y-63150D01*
X85596Y-63141D01*
X85581Y-63133D01*
X85565Y-63127D01*
X85549Y-63122D01*
X85533Y-63118D01*
X85516Y-63116D01*
X85500Y-63115D01*
X85484Y-63116D01*
X85467Y-63118D01*
X85451Y-63122D01*
X85435Y-63127D01*
X85419Y-63133D01*
X85405Y-63141D01*
X85390Y-63150D01*
X85377Y-63160D01*
X85365Y-63172D01*
X85353Y-63184D01*
X85343Y-63197D01*
X85334Y-63212D01*
X85326Y-63226D01*
X85320Y-63242D01*
X85315Y-63258D01*
X85311Y-63274D01*
X85309Y-63291D01*
X85308Y-63307D01*
X90803Y-61555D02*
X91197Y-61949D01*
X91197Y-61555D02*
X90803Y-61949D01*
X90808Y-61063D02*
X90808Y-62441D01*
X91192Y-61063D02*
X91192Y-62441D01*
X90808Y-62441D02*
X90809Y-62457D01*
X90811Y-62474D01*
X90815Y-62490D01*
X90820Y-62506D01*
X90826Y-62522D01*
X90834Y-62536D01*
X90843Y-62551D01*
X90853Y-62564D01*
X90865Y-62576D01*
X90877Y-62588D01*
X90890Y-62598D01*
X90904Y-62607D01*
X90919Y-62615D01*
X90935Y-62621D01*
X90951Y-62626D01*
X90967Y-62630D01*
X90984Y-62632D01*
X91000Y-62633D01*
X91016Y-62632D01*
X91033Y-62630D01*
X91049Y-62626D01*
X91065Y-62621D01*
X91081Y-62615D01*
X91096Y-62607D01*
X91110Y-62598D01*
X91123Y-62588D01*
X91135Y-62576D01*
X91147Y-62564D01*
X91157Y-62551D01*
X91166Y-62537D01*
X91174Y-62522D01*
X91180Y-62506D01*
X91185Y-62490D01*
X91189Y-62474D01*
X91191Y-62457D01*
X91192Y-62441D01*
X91192Y-61063D02*
X91191Y-61047D01*
X91189Y-61030D01*
X91185Y-61014D01*
X91180Y-60998D01*
X91174Y-60982D01*
X91166Y-60968D01*
X91157Y-60953D01*
X91147Y-60940D01*
X91135Y-60928D01*
X91123Y-60916D01*
X91110Y-60906D01*
X91096Y-60897D01*
X91081Y-60889D01*
X91065Y-60883D01*
X91049Y-60878D01*
X91033Y-60874D01*
X91016Y-60872D01*
X91000Y-60871D01*
X90984Y-60872D01*
X90967Y-60874D01*
X90951Y-60878D01*
X90935Y-60883D01*
X90919Y-60889D01*
X90905Y-60897D01*
X90890Y-60906D01*
X90877Y-60916D01*
X90865Y-60928D01*
X90853Y-60940D01*
X90843Y-60953D01*
X90834Y-60968D01*
X90826Y-60982D01*
X90820Y-60998D01*
X90815Y-61014D01*
X90811Y-61030D01*
X90809Y-61047D01*
X90808Y-61063D01*
X90803Y-63366D02*
X91197Y-63760D01*
X91197Y-63366D02*
X90803Y-63760D01*
X90808Y-63307D02*
X90808Y-63819D01*
X91192Y-63307D02*
X91192Y-63819D01*
X90808Y-63819D02*
X90809Y-63835D01*
X90811Y-63852D01*
X90815Y-63868D01*
X90820Y-63884D01*
X90826Y-63900D01*
X90834Y-63914D01*
X90843Y-63929D01*
X90853Y-63942D01*
X90865Y-63954D01*
X90877Y-63966D01*
X90890Y-63976D01*
X90904Y-63985D01*
X90919Y-63993D01*
X90935Y-63999D01*
X90951Y-64004D01*
X90967Y-64008D01*
X90984Y-64010D01*
X91000Y-64011D01*
X91016Y-64010D01*
X91033Y-64008D01*
X91049Y-64004D01*
X91065Y-63999D01*
X91081Y-63993D01*
X91096Y-63985D01*
X91110Y-63976D01*
X91123Y-63966D01*
X91135Y-63954D01*
X91147Y-63942D01*
X91157Y-63929D01*
X91166Y-63915D01*
X91174Y-63900D01*
X91180Y-63884D01*
X91185Y-63868D01*
X91189Y-63852D01*
X91191Y-63835D01*
X91192Y-63819D01*
X91192Y-63307D02*
X91191Y-63291D01*
X91189Y-63274D01*
X91185Y-63258D01*
X91180Y-63242D01*
X91174Y-63226D01*
X91166Y-63212D01*
X91157Y-63197D01*
X91147Y-63184D01*
X91135Y-63172D01*
X91123Y-63160D01*
X91110Y-63150D01*
X91096Y-63141D01*
X91081Y-63133D01*
X91065Y-63127D01*
X91049Y-63122D01*
X91033Y-63118D01*
X91016Y-63116D01*
X91000Y-63115D01*
X90984Y-63116D01*
X90967Y-63118D01*
X90951Y-63122D01*
X90935Y-63127D01*
X90919Y-63133D01*
X90905Y-63141D01*
X90890Y-63150D01*
X90877Y-63160D01*
X90865Y-63172D01*
X90853Y-63184D01*
X90843Y-63197D01*
X90834Y-63212D01*
X90826Y-63226D01*
X90820Y-63242D01*
X90815Y-63258D01*
X90811Y-63274D01*
X90809Y-63291D01*
X90808Y-63307D01*
X96803Y-62055D02*
X97197Y-62449D01*
X97197Y-62055D02*
X96803Y-62449D01*
X96808Y-61563D02*
X96808Y-62941D01*
X97192Y-61563D02*
X97192Y-62941D01*
X96808Y-62941D02*
X96809Y-62957D01*
X96811Y-62974D01*
X96815Y-62990D01*
X96820Y-63006D01*
X96826Y-63022D01*
X96834Y-63036D01*
X96843Y-63051D01*
X96853Y-63064D01*
X96865Y-63076D01*
X96877Y-63088D01*
X96890Y-63098D01*
X96904Y-63107D01*
X96919Y-63115D01*
X96935Y-63121D01*
X96951Y-63126D01*
X96967Y-63130D01*
X96984Y-63132D01*
X97000Y-63133D01*
X97016Y-63132D01*
X97033Y-63130D01*
X97049Y-63126D01*
X97065Y-63121D01*
X97081Y-63115D01*
X97096Y-63107D01*
X97110Y-63098D01*
X97123Y-63088D01*
X97135Y-63076D01*
X97147Y-63064D01*
X97157Y-63051D01*
X97166Y-63037D01*
X97174Y-63022D01*
X97180Y-63006D01*
X97185Y-62990D01*
X97189Y-62974D01*
X97191Y-62957D01*
X97192Y-62941D01*
X97192Y-61563D02*
X97191Y-61547D01*
X97189Y-61530D01*
X97185Y-61514D01*
X97180Y-61498D01*
X97174Y-61482D01*
X97166Y-61468D01*
X97157Y-61453D01*
X97147Y-61440D01*
X97135Y-61428D01*
X97123Y-61416D01*
X97110Y-61406D01*
X97096Y-61397D01*
X97081Y-61389D01*
X97065Y-61383D01*
X97049Y-61378D01*
X97033Y-61374D01*
X97016Y-61372D01*
X97000Y-61371D01*
X96984Y-61372D01*
X96967Y-61374D01*
X96951Y-61378D01*
X96935Y-61383D01*
X96919Y-61389D01*
X96905Y-61397D01*
X96890Y-61406D01*
X96877Y-61416D01*
X96865Y-61428D01*
X96853Y-61440D01*
X96843Y-61453D01*
X96834Y-61468D01*
X96826Y-61482D01*
X96820Y-61498D01*
X96815Y-61514D01*
X96811Y-61530D01*
X96809Y-61547D01*
X96808Y-61563D01*
X96803Y-63866D02*
X97197Y-64260D01*
X97197Y-63866D02*
X96803Y-64260D01*
X96808Y-63807D02*
X96808Y-64319D01*
X97192Y-63807D02*
X97192Y-64319D01*
X96808Y-64319D02*
X96809Y-64335D01*
X96811Y-64352D01*
X96815Y-64368D01*
X96820Y-64384D01*
X96826Y-64400D01*
X96834Y-64414D01*
X96843Y-64429D01*
X96853Y-64442D01*
X96865Y-64454D01*
X96877Y-64466D01*
X96890Y-64476D01*
X96904Y-64485D01*
X96919Y-64493D01*
X96935Y-64499D01*
X96951Y-64504D01*
X96967Y-64508D01*
X96984Y-64510D01*
X97000Y-64511D01*
X97016Y-64510D01*
X97033Y-64508D01*
X97049Y-64504D01*
X97065Y-64499D01*
X97081Y-64493D01*
X97096Y-64485D01*
X97110Y-64476D01*
X97123Y-64466D01*
X97135Y-64454D01*
X97147Y-64442D01*
X97157Y-64429D01*
X97166Y-64415D01*
X97174Y-64400D01*
X97180Y-64384D01*
X97185Y-64368D01*
X97189Y-64352D01*
X97191Y-64335D01*
X97192Y-64319D01*
X97192Y-63807D02*
X97191Y-63791D01*
X97189Y-63774D01*
X97185Y-63758D01*
X97180Y-63742D01*
X97174Y-63726D01*
X97166Y-63712D01*
X97157Y-63697D01*
X97147Y-63684D01*
X97135Y-63672D01*
X97123Y-63660D01*
X97110Y-63650D01*
X97096Y-63641D01*
X97081Y-63633D01*
X97065Y-63627D01*
X97049Y-63622D01*
X97033Y-63618D01*
X97016Y-63616D01*
X97000Y-63615D01*
X96984Y-63616D01*
X96967Y-63618D01*
X96951Y-63622D01*
X96935Y-63627D01*
X96919Y-63633D01*
X96905Y-63641D01*
X96890Y-63650D01*
X96877Y-63660D01*
X96865Y-63672D01*
X96853Y-63684D01*
X96843Y-63697D01*
X96834Y-63712D01*
X96826Y-63726D01*
X96820Y-63742D01*
X96815Y-63758D01*
X96811Y-63774D01*
X96809Y-63791D01*
X96808Y-63807D01*
X104303Y-63555D02*
X104697Y-63949D01*
X104697Y-63555D02*
X104303Y-63949D01*
X104308Y-63063D02*
X104308Y-64441D01*
X104692Y-63063D02*
X104692Y-64441D01*
X104308Y-64441D02*
X104309Y-64457D01*
X104311Y-64474D01*
X104315Y-64490D01*
X104320Y-64506D01*
X104326Y-64522D01*
X104334Y-64536D01*
X104343Y-64551D01*
X104353Y-64564D01*
X104365Y-64576D01*
X104377Y-64588D01*
X104390Y-64598D01*
X104404Y-64607D01*
X104419Y-64615D01*
X104435Y-64621D01*
X104451Y-64626D01*
X104467Y-64630D01*
X104484Y-64632D01*
X104500Y-64633D01*
X104516Y-64632D01*
X104533Y-64630D01*
X104549Y-64626D01*
X104565Y-64621D01*
X104581Y-64615D01*
X104596Y-64607D01*
X104610Y-64598D01*
X104623Y-64588D01*
X104635Y-64576D01*
X104647Y-64564D01*
X104657Y-64551D01*
X104666Y-64537D01*
X104674Y-64522D01*
X104680Y-64506D01*
X104685Y-64490D01*
X104689Y-64474D01*
X104691Y-64457D01*
X104692Y-64441D01*
X104692Y-63063D02*
X104691Y-63047D01*
X104689Y-63030D01*
X104685Y-63014D01*
X104680Y-62998D01*
X104674Y-62982D01*
X104666Y-62968D01*
X104657Y-62953D01*
X104647Y-62940D01*
X104635Y-62928D01*
X104623Y-62916D01*
X104610Y-62906D01*
X104596Y-62897D01*
X104581Y-62889D01*
X104565Y-62883D01*
X104549Y-62878D01*
X104533Y-62874D01*
X104516Y-62872D01*
X104500Y-62871D01*
X104484Y-62872D01*
X104467Y-62874D01*
X104451Y-62878D01*
X104435Y-62883D01*
X104419Y-62889D01*
X104405Y-62897D01*
X104390Y-62906D01*
X104377Y-62916D01*
X104365Y-62928D01*
X104353Y-62940D01*
X104343Y-62953D01*
X104334Y-62968D01*
X104326Y-62982D01*
X104320Y-62998D01*
X104315Y-63014D01*
X104311Y-63030D01*
X104309Y-63047D01*
X104308Y-63063D01*
X104303Y-65366D02*
X104697Y-65760D01*
X104697Y-65366D02*
X104303Y-65760D01*
X104308Y-65307D02*
X104308Y-65819D01*
X104692Y-65307D02*
X104692Y-65819D01*
X104308Y-65819D02*
X104309Y-65835D01*
X104311Y-65852D01*
X104315Y-65868D01*
X104320Y-65884D01*
X104326Y-65900D01*
X104334Y-65914D01*
X104343Y-65929D01*
X104353Y-65942D01*
X104365Y-65954D01*
X104377Y-65966D01*
X104390Y-65976D01*
X104404Y-65985D01*
X104419Y-65993D01*
X104435Y-65999D01*
X104451Y-66004D01*
X104467Y-66008D01*
X104484Y-66010D01*
X104500Y-66011D01*
X104516Y-66010D01*
X104533Y-66008D01*
X104549Y-66004D01*
X104565Y-65999D01*
X104581Y-65993D01*
X104596Y-65985D01*
X104610Y-65976D01*
X104623Y-65966D01*
X104635Y-65954D01*
X104647Y-65942D01*
X104657Y-65929D01*
X104666Y-65915D01*
X104674Y-65900D01*
X104680Y-65884D01*
X104685Y-65868D01*
X104689Y-65852D01*
X104691Y-65835D01*
X104692Y-65819D01*
X104692Y-65307D02*
X104691Y-65291D01*
X104689Y-65274D01*
X104685Y-65258D01*
X104680Y-65242D01*
X104674Y-65226D01*
X104666Y-65212D01*
X104657Y-65197D01*
X104647Y-65184D01*
X104635Y-65172D01*
X104623Y-65160D01*
X104610Y-65150D01*
X104596Y-65141D01*
X104581Y-65133D01*
X104565Y-65127D01*
X104549Y-65122D01*
X104533Y-65118D01*
X104516Y-65116D01*
X104500Y-65115D01*
X104484Y-65116D01*
X104467Y-65118D01*
X104451Y-65122D01*
X104435Y-65127D01*
X104419Y-65133D01*
X104405Y-65141D01*
X104390Y-65150D01*
X104377Y-65160D01*
X104365Y-65172D01*
X104353Y-65184D01*
X104343Y-65197D01*
X104334Y-65212D01*
X104326Y-65226D01*
X104320Y-65242D01*
X104315Y-65258D01*
X104311Y-65274D01*
X104309Y-65291D01*
X104308Y-65307D01*
X41200Y-19500D02*
X41196Y-19538D01*
X41184Y-19576D01*
X41166Y-19610D01*
X41141Y-19640D01*
X41111Y-19665D01*
X41077Y-19684D01*
X41040Y-19695D01*
X41001Y-19699D01*
X40963Y-19696D01*
X40926Y-19685D01*
X40891Y-19667D01*
X40861Y-19642D01*
X40835Y-19612D01*
X40817Y-19578D01*
X40805Y-19541D01*
X40801Y-19502D01*
X40804Y-19464D01*
X40815Y-19427D01*
X40832Y-19392D01*
X40857Y-19362D01*
X40886Y-19336D01*
X40920Y-19317D01*
X40958Y-19305D01*
X40996Y-19301D01*
X41034Y-19304D01*
X41072Y-19314D01*
X41107Y-19332D01*
X41137Y-19356D01*
X41163Y-19385D01*
X41182Y-19419D01*
X41195Y-19456D01*
X41199Y-19495D01*
X41200Y-19500D01*
X41200Y-20500D02*
X41196Y-20538D01*
X41184Y-20576D01*
X41166Y-20610D01*
X41141Y-20640D01*
X41111Y-20665D01*
X41077Y-20684D01*
X41040Y-20695D01*
X41001Y-20699D01*
X40963Y-20696D01*
X40926Y-20685D01*
X40891Y-20667D01*
X40861Y-20642D01*
X40835Y-20612D01*
X40817Y-20578D01*
X40805Y-20541D01*
X40801Y-20502D01*
X40804Y-20464D01*
X40815Y-20427D01*
X40832Y-20392D01*
X40857Y-20362D01*
X40886Y-20336D01*
X40920Y-20317D01*
X40958Y-20305D01*
X40996Y-20301D01*
X41034Y-20304D01*
X41072Y-20314D01*
X41107Y-20332D01*
X41137Y-20356D01*
X41163Y-20385D01*
X41182Y-20419D01*
X41195Y-20456D01*
X41199Y-20495D01*
X41200Y-20500D01*
X42200Y-19500D02*
X42196Y-19538D01*
X42184Y-19576D01*
X42166Y-19610D01*
X42141Y-19640D01*
X42111Y-19665D01*
X42077Y-19684D01*
X42040Y-19695D01*
X42001Y-19699D01*
X41963Y-19696D01*
X41926Y-19685D01*
X41891Y-19667D01*
X41861Y-19642D01*
X41835Y-19612D01*
X41817Y-19578D01*
X41805Y-19541D01*
X41801Y-19502D01*
X41804Y-19464D01*
X41815Y-19427D01*
X41832Y-19392D01*
X41857Y-19362D01*
X41886Y-19336D01*
X41920Y-19317D01*
X41958Y-19305D01*
X41996Y-19301D01*
X42034Y-19304D01*
X42072Y-19314D01*
X42107Y-19332D01*
X42137Y-19356D01*
X42163Y-19385D01*
X42182Y-19419D01*
X42195Y-19456D01*
X42199Y-19495D01*
X42200Y-19500D01*
X42200Y-20500D02*
X42196Y-20538D01*
X42184Y-20576D01*
X42166Y-20610D01*
X42141Y-20640D01*
X42111Y-20665D01*
X42077Y-20684D01*
X42040Y-20695D01*
X42001Y-20699D01*
X41963Y-20696D01*
X41926Y-20685D01*
X41891Y-20667D01*
X41861Y-20642D01*
X41835Y-20612D01*
X41817Y-20578D01*
X41805Y-20541D01*
X41801Y-20502D01*
X41804Y-20464D01*
X41815Y-20427D01*
X41832Y-20392D01*
X41857Y-20362D01*
X41886Y-20336D01*
X41920Y-20317D01*
X41958Y-20305D01*
X41996Y-20301D01*
X42034Y-20304D01*
X42072Y-20314D01*
X42107Y-20332D01*
X42137Y-20356D01*
X42163Y-20385D01*
X42182Y-20419D01*
X42195Y-20456D01*
X42199Y-20495D01*
X42200Y-20500D01*
X43200Y-19500D02*
X43196Y-19538D01*
X43184Y-19576D01*
X43166Y-19610D01*
X43141Y-19640D01*
X43111Y-19665D01*
X43077Y-19684D01*
X43040Y-19695D01*
X43001Y-19699D01*
X42963Y-19696D01*
X42926Y-19685D01*
X42891Y-19667D01*
X42861Y-19642D01*
X42835Y-19612D01*
X42817Y-19578D01*
X42805Y-19541D01*
X42801Y-19502D01*
X42804Y-19464D01*
X42815Y-19427D01*
X42832Y-19392D01*
X42857Y-19362D01*
X42886Y-19336D01*
X42920Y-19317D01*
X42958Y-19305D01*
X42996Y-19301D01*
X43034Y-19304D01*
X43072Y-19314D01*
X43107Y-19332D01*
X43137Y-19356D01*
X43163Y-19385D01*
X43182Y-19419D01*
X43195Y-19456D01*
X43199Y-19495D01*
X43200Y-19500D01*
X43200Y-20500D02*
X43196Y-20538D01*
X43184Y-20576D01*
X43166Y-20610D01*
X43141Y-20640D01*
X43111Y-20665D01*
X43077Y-20684D01*
X43040Y-20695D01*
X43001Y-20699D01*
X42963Y-20696D01*
X42926Y-20685D01*
X42891Y-20667D01*
X42861Y-20642D01*
X42835Y-20612D01*
X42817Y-20578D01*
X42805Y-20541D01*
X42801Y-20502D01*
X42804Y-20464D01*
X42815Y-20427D01*
X42832Y-20392D01*
X42857Y-20362D01*
X42886Y-20336D01*
X42920Y-20317D01*
X42958Y-20305D01*
X42996Y-20301D01*
X43034Y-20304D01*
X43072Y-20314D01*
X43107Y-20332D01*
X43137Y-20356D01*
X43163Y-20385D01*
X43182Y-20419D01*
X43195Y-20456D01*
X43199Y-20495D01*
X43200Y-20500D01*
G54D11*
X21736Y-67773D02*
X21736Y-66973D01*
X21927Y-66973D01*
X22041Y-67011D01*
X22117Y-67087D01*
X22156Y-67163D01*
X22194Y-67316D01*
X22194Y-67430D01*
X22156Y-67582D01*
X22117Y-67659D01*
X22041Y-67735D01*
X21927Y-67773D01*
X21736Y-67773D01*
X22536Y-67773D02*
X22536Y-67239D01*
X22536Y-67392D02*
X22575Y-67316D01*
X22613Y-67278D01*
X22689Y-67239D01*
X22765Y-67239D01*
X23031Y-67773D02*
X23031Y-67239D01*
X23031Y-66973D02*
X22993Y-67011D01*
X23031Y-67049D01*
X23070Y-67011D01*
X23031Y-66973D01*
X23031Y-67049D01*
X23527Y-67773D02*
X23451Y-67735D01*
X23412Y-67659D01*
X23412Y-66973D01*
X23946Y-67773D02*
X23870Y-67735D01*
X23831Y-67659D01*
X23831Y-66973D01*
X24860Y-67773D02*
X24860Y-66973D01*
X25127Y-67544D01*
X25394Y-66973D01*
X25394Y-67773D01*
X26117Y-67773D02*
X26117Y-67354D01*
X26079Y-67278D01*
X26003Y-67239D01*
X25851Y-67239D01*
X25774Y-67278D01*
X26117Y-67735D02*
X26041Y-67773D01*
X25851Y-67773D01*
X25774Y-67735D01*
X25736Y-67659D01*
X25736Y-67582D01*
X25774Y-67506D01*
X25851Y-67468D01*
X26041Y-67468D01*
X26117Y-67430D01*
X26498Y-67239D02*
X26498Y-68039D01*
X26498Y-67278D02*
X26575Y-67239D01*
X26727Y-67239D01*
X26803Y-67278D01*
X26841Y-67316D01*
X26879Y-67392D01*
X26879Y-67620D01*
X26841Y-67697D01*
X26803Y-67735D01*
X26727Y-67773D01*
X26575Y-67773D01*
X26498Y-67735D01*
X27222Y-67697D02*
X27261Y-67735D01*
X27222Y-67773D01*
X27184Y-67735D01*
X27222Y-67697D01*
X27222Y-67773D01*
X27222Y-67278D02*
X27261Y-67316D01*
X27222Y-67354D01*
X27184Y-67316D01*
X27222Y-67278D01*
X27222Y-67354D01*
X20952Y-68932D02*
X21346Y-69326D01*
X21346Y-68932D02*
X20952Y-69326D01*
X21889Y-68653D02*
X21965Y-68653D01*
X22041Y-68691D01*
X22079Y-68729D01*
X22117Y-68805D01*
X22156Y-68958D01*
X22156Y-69148D01*
X22117Y-69300D01*
X22079Y-69377D01*
X22041Y-69415D01*
X21965Y-69453D01*
X21889Y-69453D01*
X21813Y-69415D01*
X21775Y-69377D01*
X21736Y-69300D01*
X21698Y-69148D01*
X21698Y-68958D01*
X21736Y-68805D01*
X21775Y-68729D01*
X21813Y-68691D01*
X21889Y-68653D01*
X22498Y-69377D02*
X22537Y-69415D01*
X22498Y-69453D01*
X22460Y-69415D01*
X22498Y-69377D01*
X22498Y-69453D01*
X23032Y-68653D02*
X23108Y-68653D01*
X23184Y-68691D01*
X23222Y-68729D01*
X23260Y-68805D01*
X23299Y-68958D01*
X23299Y-69148D01*
X23260Y-69300D01*
X23222Y-69377D01*
X23184Y-69415D01*
X23108Y-69453D01*
X23032Y-69453D01*
X22956Y-69415D01*
X22918Y-69377D01*
X22879Y-69300D01*
X22841Y-69148D01*
X22841Y-68958D01*
X22879Y-68805D01*
X22918Y-68729D01*
X22956Y-68691D01*
X23032Y-68653D01*
X23565Y-68653D02*
X24061Y-68653D01*
X23794Y-68958D01*
X23908Y-68958D01*
X23984Y-68996D01*
X24022Y-69034D01*
X24061Y-69110D01*
X24061Y-69300D01*
X24022Y-69377D01*
X23984Y-69415D01*
X23908Y-69453D01*
X23680Y-69453D01*
X23603Y-69415D01*
X23565Y-69377D01*
X24442Y-69453D02*
X24594Y-69453D01*
X24670Y-69415D01*
X24708Y-69377D01*
X24784Y-69262D01*
X24823Y-69110D01*
X24823Y-68805D01*
X24784Y-68729D01*
X24746Y-68691D01*
X24670Y-68653D01*
X24518Y-68653D01*
X24442Y-68691D01*
X24403Y-68729D01*
X24365Y-68805D01*
X24365Y-68996D01*
X24403Y-69072D01*
X24442Y-69110D01*
X24518Y-69148D01*
X24670Y-69148D01*
X24746Y-69110D01*
X24784Y-69072D01*
X24823Y-68996D01*
X25127Y-68653D02*
X25127Y-68805D01*
X25432Y-68653D02*
X25432Y-68805D01*
X26957Y-68615D02*
X26271Y-69643D01*
X28253Y-69453D02*
X27795Y-69453D01*
X28024Y-69453D02*
X28024Y-68653D01*
X27948Y-68767D01*
X27872Y-68843D01*
X27795Y-68881D01*
X28595Y-69377D02*
X28634Y-69415D01*
X28595Y-69453D01*
X28557Y-69415D01*
X28595Y-69377D01*
X28595Y-69453D01*
X29129Y-68653D02*
X29205Y-68653D01*
X29281Y-68691D01*
X29319Y-68729D01*
X29357Y-68805D01*
X29396Y-68958D01*
X29396Y-69148D01*
X29357Y-69300D01*
X29319Y-69377D01*
X29281Y-69415D01*
X29205Y-69453D01*
X29129Y-69453D01*
X29053Y-69415D01*
X29015Y-69377D01*
X28976Y-69300D01*
X28938Y-69148D01*
X28938Y-68958D01*
X28976Y-68805D01*
X29015Y-68729D01*
X29053Y-68691D01*
X29129Y-68653D01*
X29891Y-68653D02*
X29967Y-68653D01*
X30043Y-68691D01*
X30081Y-68729D01*
X30119Y-68805D01*
X30158Y-68958D01*
X30158Y-69148D01*
X30119Y-69300D01*
X30081Y-69377D01*
X30043Y-69415D01*
X29967Y-69453D01*
X29891Y-69453D01*
X29815Y-69415D01*
X29777Y-69377D01*
X29738Y-69300D01*
X29700Y-69148D01*
X29700Y-68958D01*
X29738Y-68805D01*
X29777Y-68729D01*
X29815Y-68691D01*
X29891Y-68653D01*
X30500Y-69453D02*
X30500Y-68919D01*
X30500Y-68996D02*
X30539Y-68958D01*
X30615Y-68919D01*
X30729Y-68919D01*
X30805Y-68958D01*
X30843Y-69034D01*
X30843Y-69453D01*
X30843Y-69034D02*
X30881Y-68958D01*
X30958Y-68919D01*
X31072Y-68919D01*
X31148Y-68958D01*
X31186Y-69034D01*
X31186Y-69453D01*
X31567Y-69453D02*
X31567Y-68919D01*
X31567Y-68996D02*
X31606Y-68958D01*
X31682Y-68919D01*
X31796Y-68919D01*
X31872Y-68958D01*
X31910Y-69034D01*
X31910Y-69453D01*
X31910Y-69034D02*
X31948Y-68958D01*
X32025Y-68919D01*
X32139Y-68919D01*
X32215Y-68958D01*
X32253Y-69034D01*
X32253Y-69453D01*
X33473Y-69758D02*
X33435Y-69719D01*
X33359Y-69605D01*
X33321Y-69529D01*
X33283Y-69415D01*
X33244Y-69224D01*
X33244Y-69072D01*
X33283Y-68881D01*
X33321Y-68767D01*
X33359Y-68691D01*
X33435Y-68577D01*
X33473Y-68539D01*
X33930Y-68653D02*
X34006Y-68653D01*
X34082Y-68691D01*
X34120Y-68729D01*
X34158Y-68805D01*
X34197Y-68958D01*
X34197Y-69148D01*
X34158Y-69300D01*
X34120Y-69377D01*
X34082Y-69415D01*
X34006Y-69453D01*
X33930Y-69453D01*
X33854Y-69415D01*
X33816Y-69377D01*
X33777Y-69300D01*
X33739Y-69148D01*
X33739Y-68958D01*
X33777Y-68805D01*
X33816Y-68729D01*
X33854Y-68691D01*
X33930Y-68653D01*
X35149Y-69453D02*
X35149Y-68653D01*
X35492Y-69453D02*
X35492Y-69034D01*
X35454Y-68958D01*
X35378Y-68919D01*
X35264Y-68919D01*
X35188Y-68958D01*
X35149Y-68996D01*
X35988Y-69453D02*
X35912Y-69415D01*
X35873Y-69377D01*
X35835Y-69300D01*
X35835Y-69072D01*
X35873Y-68996D01*
X35912Y-68958D01*
X35988Y-68919D01*
X36102Y-68919D01*
X36178Y-68958D01*
X36216Y-68996D01*
X36254Y-69072D01*
X36254Y-69300D01*
X36216Y-69377D01*
X36178Y-69415D01*
X36102Y-69453D01*
X35988Y-69453D01*
X36712Y-69453D02*
X36636Y-69415D01*
X36597Y-69339D01*
X36597Y-68653D01*
X37321Y-69415D02*
X37245Y-69453D01*
X37093Y-69453D01*
X37016Y-69415D01*
X36978Y-69339D01*
X36978Y-69034D01*
X37016Y-68958D01*
X37093Y-68919D01*
X37245Y-68919D01*
X37321Y-68958D01*
X37359Y-69034D01*
X37359Y-69110D01*
X36978Y-69186D01*
X37664Y-69415D02*
X37741Y-69453D01*
X37893Y-69453D01*
X37969Y-69415D01*
X38007Y-69339D01*
X38007Y-69300D01*
X37969Y-69224D01*
X37893Y-69186D01*
X37779Y-69186D01*
X37702Y-69148D01*
X37664Y-69072D01*
X37664Y-69034D01*
X37702Y-68958D01*
X37779Y-68919D01*
X37893Y-68919D01*
X37969Y-68958D01*
X38960Y-69148D02*
X39570Y-69148D01*
X39265Y-69453D02*
X39265Y-68843D01*
X40484Y-68653D02*
X40980Y-68653D01*
X40713Y-68958D01*
X40827Y-68958D01*
X40903Y-68996D01*
X40941Y-69034D01*
X40980Y-69110D01*
X40980Y-69300D01*
X40941Y-69377D01*
X40903Y-69415D01*
X40827Y-69453D01*
X40599Y-69453D01*
X40522Y-69415D01*
X40484Y-69377D01*
X41284Y-68729D02*
X41322Y-68691D01*
X41399Y-68653D01*
X41589Y-68653D01*
X41665Y-68691D01*
X41703Y-68729D01*
X41742Y-68805D01*
X41742Y-68881D01*
X41703Y-68996D01*
X41246Y-69453D01*
X41742Y-69453D01*
X42656Y-69415D02*
X42733Y-69453D01*
X42885Y-69453D01*
X42961Y-69415D01*
X42999Y-69339D01*
X42999Y-69300D01*
X42961Y-69224D01*
X42885Y-69186D01*
X42771Y-69186D01*
X42694Y-69148D01*
X42656Y-69072D01*
X42656Y-69034D01*
X42694Y-68958D01*
X42771Y-68919D01*
X42885Y-68919D01*
X42961Y-68958D01*
X43457Y-69453D02*
X43381Y-69415D01*
X43342Y-69339D01*
X43342Y-68653D01*
X43876Y-69453D02*
X43800Y-69415D01*
X43761Y-69377D01*
X43723Y-69300D01*
X43723Y-69072D01*
X43761Y-68996D01*
X43800Y-68958D01*
X43876Y-68919D01*
X43990Y-68919D01*
X44066Y-68958D01*
X44104Y-68996D01*
X44142Y-69072D01*
X44142Y-69300D01*
X44104Y-69377D01*
X44066Y-69415D01*
X43990Y-69453D01*
X43876Y-69453D01*
X44371Y-68919D02*
X44676Y-68919D01*
X44485Y-68653D02*
X44485Y-69339D01*
X44524Y-69415D01*
X44600Y-69453D01*
X44676Y-69453D01*
X44904Y-69415D02*
X44981Y-69453D01*
X45133Y-69453D01*
X45209Y-69415D01*
X45247Y-69339D01*
X45247Y-69300D01*
X45209Y-69224D01*
X45133Y-69186D01*
X45019Y-69186D01*
X44942Y-69148D01*
X44904Y-69072D01*
X44904Y-69034D01*
X44942Y-68958D01*
X45019Y-68919D01*
X45133Y-68919D01*
X45209Y-68958D01*
X45514Y-69758D02*
X45552Y-69719D01*
X45629Y-69605D01*
X45667Y-69529D01*
X45705Y-69415D01*
X45743Y-69224D01*
X45743Y-69072D01*
X45705Y-68881D01*
X45667Y-68767D01*
X45629Y-68691D01*
X45552Y-68577D01*
X45514Y-68539D01*
G54D10*
X21346Y-70184D02*
X21342Y-70222D01*
X21330Y-70260D01*
X21312Y-70294D01*
X21287Y-70324D01*
X21257Y-70349D01*
X21223Y-70368D01*
X21186Y-70379D01*
X21147Y-70383D01*
X21109Y-70380D01*
X21072Y-70369D01*
X21037Y-70351D01*
X21007Y-70326D01*
X20981Y-70296D01*
X20963Y-70262D01*
X20951Y-70225D01*
X20947Y-70186D01*
X20950Y-70148D01*
X20961Y-70111D01*
X20978Y-70076D01*
X21003Y-70046D01*
X21032Y-70020D01*
X21066Y-70001D01*
X21104Y-69989D01*
X21142Y-69985D01*
X21180Y-69988D01*
X21218Y-69998D01*
X21253Y-70016D01*
X21283Y-70040D01*
X21309Y-70069D01*
X21328Y-70103D01*
X21341Y-70140D01*
X21345Y-70179D01*
X21346Y-70184D01*
G54D11*
X21889Y-69708D02*
X21965Y-69708D01*
X22041Y-69746D01*
X22079Y-69784D01*
X22117Y-69860D01*
X22156Y-70013D01*
X22156Y-70203D01*
X22117Y-70355D01*
X22079Y-70432D01*
X22041Y-70470D01*
X21965Y-70508D01*
X21889Y-70508D01*
X21813Y-70470D01*
X21775Y-70432D01*
X21736Y-70355D01*
X21698Y-70203D01*
X21698Y-70013D01*
X21736Y-69860D01*
X21775Y-69784D01*
X21813Y-69746D01*
X21889Y-69708D01*
X22498Y-70432D02*
X22537Y-70470D01*
X22498Y-70508D01*
X22460Y-70470D01*
X22498Y-70432D01*
X22498Y-70508D01*
X23032Y-69708D02*
X23108Y-69708D01*
X23184Y-69746D01*
X23222Y-69784D01*
X23260Y-69860D01*
X23299Y-70013D01*
X23299Y-70203D01*
X23260Y-70355D01*
X23222Y-70432D01*
X23184Y-70470D01*
X23108Y-70508D01*
X23032Y-70508D01*
X22956Y-70470D01*
X22918Y-70432D01*
X22879Y-70355D01*
X22841Y-70203D01*
X22841Y-70013D01*
X22879Y-69860D01*
X22918Y-69784D01*
X22956Y-69746D01*
X23032Y-69708D01*
X23984Y-69974D02*
X23984Y-70508D01*
X23794Y-69670D02*
X23603Y-70241D01*
X24099Y-70241D01*
X24556Y-69708D02*
X24632Y-69708D01*
X24708Y-69746D01*
X24746Y-69784D01*
X24784Y-69860D01*
X24823Y-70013D01*
X24823Y-70203D01*
X24784Y-70355D01*
X24746Y-70432D01*
X24708Y-70470D01*
X24632Y-70508D01*
X24556Y-70508D01*
X24480Y-70470D01*
X24442Y-70432D01*
X24403Y-70355D01*
X24365Y-70203D01*
X24365Y-70013D01*
X24403Y-69860D01*
X24442Y-69784D01*
X24480Y-69746D01*
X24556Y-69708D01*
X25127Y-69708D02*
X25127Y-69860D01*
X25432Y-69708D02*
X25432Y-69860D01*
X26957Y-69670D02*
X26271Y-70698D01*
X28253Y-70508D02*
X27795Y-70508D01*
X28024Y-70508D02*
X28024Y-69708D01*
X27948Y-69822D01*
X27872Y-69898D01*
X27795Y-69936D01*
X28595Y-70432D02*
X28634Y-70470D01*
X28595Y-70508D01*
X28557Y-70470D01*
X28595Y-70432D01*
X28595Y-70508D01*
X29129Y-69708D02*
X29205Y-69708D01*
X29281Y-69746D01*
X29319Y-69784D01*
X29357Y-69860D01*
X29396Y-70013D01*
X29396Y-70203D01*
X29357Y-70355D01*
X29319Y-70432D01*
X29281Y-70470D01*
X29205Y-70508D01*
X29129Y-70508D01*
X29053Y-70470D01*
X29015Y-70432D01*
X28976Y-70355D01*
X28938Y-70203D01*
X28938Y-70013D01*
X28976Y-69860D01*
X29015Y-69784D01*
X29053Y-69746D01*
X29129Y-69708D01*
X29700Y-69784D02*
X29738Y-69746D01*
X29815Y-69708D01*
X30005Y-69708D01*
X30081Y-69746D01*
X30119Y-69784D01*
X30158Y-69860D01*
X30158Y-69936D01*
X30119Y-70051D01*
X29662Y-70508D01*
X30158Y-70508D01*
X30500Y-70508D02*
X30500Y-69974D01*
X30500Y-70051D02*
X30539Y-70013D01*
X30615Y-69974D01*
X30729Y-69974D01*
X30805Y-70013D01*
X30843Y-70089D01*
X30843Y-70508D01*
X30843Y-70089D02*
X30881Y-70013D01*
X30958Y-69974D01*
X31072Y-69974D01*
X31148Y-70013D01*
X31186Y-70089D01*
X31186Y-70508D01*
X31567Y-70508D02*
X31567Y-69974D01*
X31567Y-70051D02*
X31606Y-70013D01*
X31682Y-69974D01*
X31796Y-69974D01*
X31872Y-70013D01*
X31910Y-70089D01*
X31910Y-70508D01*
X31910Y-70089D02*
X31948Y-70013D01*
X32025Y-69974D01*
X32139Y-69974D01*
X32215Y-70013D01*
X32253Y-70089D01*
X32253Y-70508D01*
X33473Y-70813D02*
X33435Y-70774D01*
X33359Y-70660D01*
X33321Y-70584D01*
X33283Y-70470D01*
X33244Y-70279D01*
X33244Y-70127D01*
X33283Y-69936D01*
X33321Y-69822D01*
X33359Y-69746D01*
X33435Y-69632D01*
X33473Y-69594D01*
X34120Y-69708D02*
X33968Y-69708D01*
X33892Y-69746D01*
X33854Y-69784D01*
X33777Y-69898D01*
X33739Y-70051D01*
X33739Y-70355D01*
X33777Y-70432D01*
X33816Y-70470D01*
X33892Y-70508D01*
X34044Y-70508D01*
X34120Y-70470D01*
X34158Y-70432D01*
X34197Y-70355D01*
X34197Y-70165D01*
X34158Y-70089D01*
X34120Y-70051D01*
X34044Y-70013D01*
X33892Y-70013D01*
X33816Y-70051D01*
X33777Y-70089D01*
X33739Y-70165D01*
X35149Y-70508D02*
X35149Y-69708D01*
X35492Y-70508D02*
X35492Y-70089D01*
X35454Y-70013D01*
X35378Y-69974D01*
X35264Y-69974D01*
X35188Y-70013D01*
X35149Y-70051D01*
X35988Y-70508D02*
X35912Y-70470D01*
X35873Y-70432D01*
X35835Y-70355D01*
X35835Y-70127D01*
X35873Y-70051D01*
X35912Y-70013D01*
X35988Y-69974D01*
X36102Y-69974D01*
X36178Y-70013D01*
X36216Y-70051D01*
X36254Y-70127D01*
X36254Y-70355D01*
X36216Y-70432D01*
X36178Y-70470D01*
X36102Y-70508D01*
X35988Y-70508D01*
X36712Y-70508D02*
X36636Y-70470D01*
X36597Y-70394D01*
X36597Y-69708D01*
X37321Y-70470D02*
X37245Y-70508D01*
X37093Y-70508D01*
X37016Y-70470D01*
X36978Y-70394D01*
X36978Y-70089D01*
X37016Y-70013D01*
X37093Y-69974D01*
X37245Y-69974D01*
X37321Y-70013D01*
X37359Y-70089D01*
X37359Y-70165D01*
X36978Y-70241D01*
X37664Y-70470D02*
X37741Y-70508D01*
X37893Y-70508D01*
X37969Y-70470D01*
X38007Y-70394D01*
X38007Y-70355D01*
X37969Y-70279D01*
X37893Y-70241D01*
X37779Y-70241D01*
X37702Y-70203D01*
X37664Y-70127D01*
X37664Y-70089D01*
X37702Y-70013D01*
X37779Y-69974D01*
X37893Y-69974D01*
X37969Y-70013D01*
X38274Y-70813D02*
X38312Y-70774D01*
X38389Y-70660D01*
X38427Y-70584D01*
X38465Y-70470D01*
X38503Y-70279D01*
X38503Y-70127D01*
X38465Y-69936D01*
X38427Y-69822D01*
X38389Y-69746D01*
X38312Y-69632D01*
X38274Y-69594D01*
M02*
