M48
INCH,TZ
T1C0.025
T2C0.032
T3C0.039
T4C0.040
T5C0.050
T6C0.120
%
G90
G05
T1
X032910Y-054810
X033734Y-055281
X033814Y-053842
X033954Y-052293
X039452Y-056913
X072910Y-056283
X073054Y-057063
X073286Y-054950
X073628Y-058740
X075367Y-060218
X075506Y-056288
X075529Y-058773
X075838Y-054954
X076198Y-058305
X076457Y-051622
X076500Y-054040
X076683Y-058700
X076716Y-057720
X076845Y-059504
X077654Y-056420
X077670Y-057504
X078195Y-060484
X079472Y-058419
X079486Y-061479
X079528Y-060384
X079844Y-061893
X079926Y-058395
X080261Y-060053
X080263Y-060593
X080550Y-055350
X081587Y-051623
X082360Y-053882
X082710Y-056443
X083726Y-052774
X083871Y-059550
X084043Y-056867
X084308Y-058473
X084401Y-059948
X084404Y-057796
X084574Y-054388
X085200Y-051200
X085237Y-057781
X085538Y-050884
X086011Y-057845
X086800Y-059054
X087400Y-052900
X087460Y-058131
X087514Y-059217
X087778Y-057806
X087900Y-056200
X088238Y-056828
X088467Y-061288
X088930Y-057026
X090632Y-055149
X127863Y-056637
T2
X030000Y-061700
X033000Y-061700
X078800Y-052800
X079800Y-052800
X131100Y-061700
X134100Y-061700
T3
X038500Y-053500
X038500Y-055500
X038500Y-058000
X038500Y-060000
X040500Y-053500
X040500Y-055500
X040500Y-058000
X040500Y-060000
X043000Y-053500
X043000Y-055500
X043000Y-058000
X043000Y-060000
X045000Y-053500
X045000Y-055500
X045000Y-058000
X045000Y-060000
X047500Y-053500
X047500Y-055500
X047500Y-058000
X047500Y-060000
X049500Y-053500
X049500Y-055500
X049500Y-058000
X049500Y-060000
X052000Y-053500
X052000Y-055500
X052000Y-058000
X052000Y-060000
X054000Y-053500
X054000Y-055500
X054000Y-058000
X054000Y-060000
X056500Y-053500
X056500Y-055500
X056500Y-058000
X056500Y-060000
X058500Y-053500
X058500Y-055500
X058500Y-058000
X058500Y-060000
X061000Y-053500
X061000Y-055500
X061000Y-058000
X061000Y-060000
X063000Y-053500
X063000Y-055500
X063000Y-058000
X063000Y-060000
X065500Y-053500
X065500Y-055500
X065500Y-058000
X065500Y-060000
X067500Y-053500
X067500Y-055500
X067500Y-058000
X067500Y-060000
X070000Y-053500
X070000Y-055500
X070000Y-058000
X070000Y-060000
X072000Y-053500
X072000Y-055500
X072000Y-058000
X072000Y-060000
X092100Y-053500
X092100Y-055500
X092100Y-058000
X092100Y-060000
X094100Y-053500
X094100Y-055500
X094100Y-058000
X094100Y-060000
X096600Y-053500
X096600Y-055500
X096600Y-058000
X096600Y-060000
X098600Y-053500
X098600Y-055500
X098600Y-058000
X098600Y-060000
X101100Y-053500
X101100Y-055500
X101100Y-058000
X101100Y-060000
X103100Y-053500
X103100Y-055500
X103100Y-058000
X103100Y-060000
X105600Y-053500
X105600Y-055500
X105600Y-058000
X105600Y-060000
X107600Y-053500
X107600Y-055500
X107600Y-058000
X107600Y-060000
X110100Y-053500
X110100Y-055500
X110100Y-058000
X110100Y-060000
X112100Y-053500
X112100Y-055500
X112100Y-058000
X112100Y-060000
X114600Y-053500
X114600Y-055500
X114600Y-058000
X114600Y-060000
X116600Y-053500
X116600Y-055500
X116600Y-058000
X116600Y-060000
X119100Y-053500
X119100Y-055500
X119100Y-058000
X119100Y-060000
X121100Y-053500
X121100Y-055500
X121100Y-058000
X121100Y-060000
X123600Y-053500
X123600Y-055500
X123600Y-058000
X123600Y-060000
X125600Y-053500
X125600Y-055500
X125600Y-058000
X125600Y-060000
T4
X030000Y-053200
X030000Y-054200
X030000Y-055200
X030000Y-056200
X030000Y-057200
X030000Y-058200
X030000Y-059200
X030000Y-060200
X031000Y-053200
X031000Y-054200
X031000Y-055200
X031000Y-056200
X031000Y-057200
X031000Y-058200
X031000Y-059200
X031000Y-060200
X034800Y-055700
X034800Y-057700
X075300Y-051975
X075300Y-053725
X077850Y-051975
X077850Y-053725
X080700Y-051975
X080700Y-053725
X081100Y-055000
X081100Y-056000
X082100Y-055000
X082100Y-056000
X083100Y-055000
X083100Y-056000
X083250Y-051975
X083250Y-053725
X086100Y-051975
X086100Y-053725
X088650Y-051975
X088650Y-053725
X129300Y-055700
X129300Y-057700
X133100Y-051600
X133100Y-053200
X133100Y-054200
X133100Y-055200
X133100Y-056200
X133100Y-057200
X133100Y-058200
X133100Y-059200
X133100Y-060200
X134100Y-051600
X134100Y-053200
X134100Y-054200
X134100Y-055200
X134100Y-056200
X134100Y-057200
X134100Y-058200
X134100Y-059200
X134100Y-060200
T5
X085100Y-059100
X089100Y-058100
X089100Y-060100
T6
X036650Y-051750
X036650Y-061750
X068800Y-051750
X068800Y-061750
X095300Y-051750
X095300Y-061750
X127450Y-051750
X127450Y-061750
T0
M30
