G04 (created by PCBNEW-RS274X (2010-04-21 BZR 23xx)-stable) date Wed 16 Mar 2011 01:54:05 AM CET*
G01*
G70*
G90*
%MOIN*%
G04 Gerber Fmt 3.4, Leading zero omitted, Abs format*
%FSLAX34Y34*%
G04 APERTURE LIST*
%ADD10C,0.006000*%
%ADD11C,0.012000*%
%ADD12C,0.015000*%
%ADD13R,0.060000X0.060000*%
%ADD14C,0.060000*%
%ADD15R,0.023600X0.086600*%
%ADD16O,0.052000X0.104000*%
%ADD17R,0.078700X0.031400*%
%ADD18C,0.100000*%
%ADD19R,0.059000X0.051100*%
%ADD20R,0.051100X0.059000*%
%ADD21R,0.055000X0.055000*%
%ADD22C,0.055000*%
%ADD23R,0.070800X0.062900*%
%ADD24R,0.062900X0.070800*%
%ADD25C,0.080000*%
%ADD26R,0.086600X0.023600*%
%ADD27C,0.160000*%
%ADD28C,0.035000*%
%ADD29C,0.020000*%
%ADD30C,0.050000*%
%ADD31C,0.031200*%
%ADD32C,0.010000*%
G04 APERTURE END LIST*
G54D10*
G54D11*
X12232Y-23050D02*
X12256Y-23026D01*
X12304Y-23002D01*
X12423Y-23002D01*
X12470Y-23026D01*
X12494Y-23050D01*
X12518Y-23098D01*
X12518Y-23145D01*
X12494Y-23217D01*
X12208Y-23502D01*
X12518Y-23502D01*
X12827Y-23002D02*
X12875Y-23002D01*
X12923Y-23026D01*
X12946Y-23050D01*
X12970Y-23098D01*
X12994Y-23193D01*
X12994Y-23312D01*
X12970Y-23407D01*
X12946Y-23455D01*
X12923Y-23479D01*
X12875Y-23502D01*
X12827Y-23502D01*
X12780Y-23479D01*
X12756Y-23455D01*
X12732Y-23407D01*
X12708Y-23312D01*
X12708Y-23193D01*
X12732Y-23098D01*
X12756Y-23050D01*
X12780Y-23026D01*
X12827Y-23002D01*
X13470Y-23502D02*
X13184Y-23502D01*
X13327Y-23502D02*
X13327Y-23002D01*
X13279Y-23074D01*
X13232Y-23121D01*
X13184Y-23145D01*
X13946Y-23502D02*
X13660Y-23502D01*
X13803Y-23502D02*
X13803Y-23002D01*
X13755Y-23074D01*
X13708Y-23121D01*
X13660Y-23145D01*
X14541Y-23502D02*
X14541Y-23002D01*
X14541Y-23193D02*
X14589Y-23169D01*
X14684Y-23169D01*
X14732Y-23193D01*
X14755Y-23217D01*
X14779Y-23264D01*
X14779Y-23407D01*
X14755Y-23455D01*
X14732Y-23479D01*
X14684Y-23502D01*
X14589Y-23502D01*
X14541Y-23479D01*
X15064Y-23502D02*
X15017Y-23479D01*
X14993Y-23431D01*
X14993Y-23002D01*
X15326Y-23502D02*
X15279Y-23479D01*
X15255Y-23455D01*
X15231Y-23407D01*
X15231Y-23264D01*
X15255Y-23217D01*
X15279Y-23193D01*
X15326Y-23169D01*
X15398Y-23169D01*
X15446Y-23193D01*
X15469Y-23217D01*
X15493Y-23264D01*
X15493Y-23407D01*
X15469Y-23455D01*
X15446Y-23479D01*
X15398Y-23502D01*
X15326Y-23502D01*
X15921Y-23169D02*
X15921Y-23574D01*
X15898Y-23621D01*
X15874Y-23645D01*
X15826Y-23669D01*
X15755Y-23669D01*
X15707Y-23645D01*
X15921Y-23479D02*
X15874Y-23502D01*
X15778Y-23502D01*
X15731Y-23479D01*
X15707Y-23455D01*
X15683Y-23407D01*
X15683Y-23264D01*
X15707Y-23217D01*
X15731Y-23193D01*
X15778Y-23169D01*
X15874Y-23169D01*
X15921Y-23193D01*
X16159Y-23455D02*
X16183Y-23479D01*
X16159Y-23502D01*
X16135Y-23479D01*
X16159Y-23455D01*
X16159Y-23502D01*
X16373Y-23479D02*
X16421Y-23502D01*
X16516Y-23502D01*
X16564Y-23479D01*
X16588Y-23431D01*
X16588Y-23407D01*
X16564Y-23360D01*
X16516Y-23336D01*
X16445Y-23336D01*
X16397Y-23312D01*
X16373Y-23264D01*
X16373Y-23240D01*
X16397Y-23193D01*
X16445Y-23169D01*
X16516Y-23169D01*
X16564Y-23193D01*
X16802Y-23169D02*
X16802Y-23669D01*
X16802Y-23193D02*
X16850Y-23169D01*
X16945Y-23169D01*
X16993Y-23193D01*
X17016Y-23217D01*
X17040Y-23264D01*
X17040Y-23407D01*
X17016Y-23455D01*
X16993Y-23479D01*
X16945Y-23502D01*
X16850Y-23502D01*
X16802Y-23479D01*
X17254Y-23502D02*
X17254Y-23169D01*
X17254Y-23002D02*
X17230Y-23026D01*
X17254Y-23050D01*
X17278Y-23026D01*
X17254Y-23002D01*
X17254Y-23050D01*
X17421Y-23169D02*
X17611Y-23169D01*
X17492Y-23002D02*
X17492Y-23431D01*
X17516Y-23479D01*
X17563Y-23502D01*
X17611Y-23502D01*
X17730Y-23169D02*
X17992Y-23169D01*
X17730Y-23502D01*
X17992Y-23502D01*
X18374Y-23479D02*
X18326Y-23502D01*
X18231Y-23502D01*
X18183Y-23479D01*
X18159Y-23431D01*
X18159Y-23240D01*
X18183Y-23193D01*
X18231Y-23169D01*
X18326Y-23169D01*
X18374Y-23193D01*
X18397Y-23240D01*
X18397Y-23288D01*
X18159Y-23336D01*
X18612Y-23169D02*
X18612Y-23502D01*
X18612Y-23217D02*
X18636Y-23193D01*
X18683Y-23169D01*
X18755Y-23169D01*
X18803Y-23193D01*
X18826Y-23240D01*
X18826Y-23502D01*
X19064Y-23169D02*
X19064Y-23669D01*
X19064Y-23193D02*
X19112Y-23169D01*
X19207Y-23169D01*
X19255Y-23193D01*
X19278Y-23217D01*
X19302Y-23264D01*
X19302Y-23407D01*
X19278Y-23455D01*
X19255Y-23479D01*
X19207Y-23502D01*
X19112Y-23502D01*
X19064Y-23479D01*
X19445Y-23169D02*
X19635Y-23169D01*
X19516Y-23502D02*
X19516Y-23074D01*
X19540Y-23026D01*
X19587Y-23002D01*
X19635Y-23002D01*
X19993Y-23479D02*
X19945Y-23502D01*
X19850Y-23502D01*
X19802Y-23479D01*
X19778Y-23431D01*
X19778Y-23240D01*
X19802Y-23193D01*
X19850Y-23169D01*
X19945Y-23169D01*
X19993Y-23193D01*
X20016Y-23240D01*
X20016Y-23288D01*
X19778Y-23336D01*
X20231Y-23502D02*
X20231Y-23169D01*
X20231Y-23002D02*
X20207Y-23026D01*
X20231Y-23050D01*
X20255Y-23026D01*
X20231Y-23002D01*
X20231Y-23050D01*
X20540Y-23502D02*
X20493Y-23479D01*
X20469Y-23431D01*
X20469Y-23002D01*
X20731Y-23455D02*
X20755Y-23479D01*
X20731Y-23502D01*
X20707Y-23479D01*
X20731Y-23455D01*
X20731Y-23502D01*
X21040Y-23502D02*
X20993Y-23479D01*
X20969Y-23455D01*
X20945Y-23407D01*
X20945Y-23264D01*
X20969Y-23217D01*
X20993Y-23193D01*
X21040Y-23169D01*
X21112Y-23169D01*
X21160Y-23193D01*
X21183Y-23217D01*
X21207Y-23264D01*
X21207Y-23407D01*
X21183Y-23455D01*
X21160Y-23479D01*
X21112Y-23502D01*
X21040Y-23502D01*
X21421Y-23502D02*
X21421Y-23169D01*
X21421Y-23264D02*
X21445Y-23217D01*
X21469Y-23193D01*
X21516Y-23169D01*
X21564Y-23169D01*
X21945Y-23169D02*
X21945Y-23574D01*
X21922Y-23621D01*
X21898Y-23645D01*
X21850Y-23669D01*
X21779Y-23669D01*
X21731Y-23645D01*
X21945Y-23479D02*
X21898Y-23502D01*
X21802Y-23502D01*
X21755Y-23479D01*
X21731Y-23455D01*
X21707Y-23407D01*
X21707Y-23264D01*
X21731Y-23217D01*
X21755Y-23193D01*
X21802Y-23169D01*
X21898Y-23169D01*
X21945Y-23193D01*
G54D12*
X08000Y-11500D02*
X108000Y-11500D01*
X08000Y-24000D02*
X08000Y-11500D01*
X09000Y-24000D02*
X08000Y-24000D01*
X108000Y-24000D02*
X107000Y-24000D01*
X108000Y-11500D02*
X108000Y-24000D01*
X107000Y-24000D02*
X09000Y-24000D01*
G54D13*
X59500Y-17300D03*
G54D14*
X59500Y-16300D03*
X60500Y-17300D03*
X60500Y-16300D03*
X61500Y-17300D03*
X61500Y-16300D03*
G54D15*
X67900Y-16277D03*
X67400Y-16277D03*
X66900Y-16277D03*
X66400Y-16277D03*
X65900Y-16277D03*
X65400Y-16277D03*
X64900Y-16277D03*
X64900Y-18323D03*
X65400Y-18323D03*
X65900Y-18323D03*
X66400Y-18323D03*
X66900Y-18323D03*
X67400Y-18323D03*
X67900Y-18323D03*
G54D16*
X67436Y-21035D03*
X66452Y-21035D03*
X65468Y-21035D03*
G54D17*
X52178Y-17165D03*
X52178Y-16665D03*
X52178Y-16165D03*
X52178Y-15665D03*
X48364Y-15665D03*
X48364Y-16165D03*
X48364Y-16665D03*
X48364Y-17165D03*
G54D18*
X44000Y-21000D03*
X44000Y-19000D03*
X12500Y-19000D03*
X12500Y-21000D03*
X12500Y-14500D03*
X12500Y-16500D03*
X17000Y-16500D03*
X17000Y-14500D03*
X17000Y-21000D03*
X17000Y-19000D03*
X21500Y-19000D03*
X21500Y-21000D03*
X21500Y-14500D03*
X21500Y-16500D03*
X26000Y-16500D03*
X26000Y-14500D03*
X26000Y-21000D03*
X26000Y-19000D03*
X30500Y-19000D03*
X30500Y-21000D03*
X30500Y-14500D03*
X30500Y-16500D03*
X35000Y-16500D03*
X35000Y-14500D03*
X35000Y-21000D03*
X35000Y-19000D03*
X39500Y-19000D03*
X39500Y-21000D03*
X39500Y-14500D03*
X39500Y-16500D03*
X44000Y-16500D03*
X44000Y-14500D03*
G54D19*
X51000Y-13774D03*
X51000Y-13026D03*
X52100Y-13026D03*
X52100Y-13774D03*
X53200Y-13026D03*
X53200Y-13774D03*
X54300Y-13774D03*
X54300Y-13026D03*
X49900Y-13774D03*
X49900Y-13026D03*
X48800Y-13026D03*
X48800Y-13774D03*
X46600Y-13026D03*
X46600Y-13774D03*
X47700Y-13774D03*
X47700Y-13026D03*
G54D20*
X67574Y-13600D03*
X66826Y-13600D03*
G54D14*
X62700Y-12575D03*
X65250Y-12575D03*
X62700Y-14325D03*
X65250Y-14325D03*
X59200Y-12575D03*
X61750Y-12575D03*
X59200Y-14325D03*
X61750Y-14325D03*
X55700Y-12575D03*
X58250Y-12575D03*
X55700Y-14325D03*
X58250Y-14325D03*
G54D19*
X57200Y-15977D03*
X57200Y-16725D03*
G54D18*
X103500Y-21000D03*
X103500Y-19000D03*
X103500Y-16500D03*
X103500Y-14500D03*
X99000Y-14500D03*
X99000Y-16500D03*
X99000Y-19000D03*
X99000Y-21000D03*
X94500Y-21000D03*
X94500Y-19000D03*
X94500Y-16500D03*
X94500Y-14500D03*
X90000Y-14500D03*
X90000Y-16500D03*
X90000Y-19000D03*
X90000Y-21000D03*
X85500Y-21000D03*
X85500Y-19000D03*
X85500Y-16500D03*
X85500Y-14500D03*
X81000Y-14500D03*
X81000Y-16500D03*
X81000Y-19000D03*
X81000Y-21000D03*
X76500Y-21000D03*
X76500Y-19000D03*
X76500Y-16500D03*
X76500Y-14500D03*
X72000Y-14500D03*
X72000Y-16500D03*
X72000Y-19000D03*
X72000Y-21000D03*
G54D21*
X55285Y-16021D03*
G54D22*
X55285Y-17021D03*
G54D19*
X63300Y-19126D03*
X63300Y-19874D03*
X63300Y-17674D03*
X63300Y-16926D03*
G54D23*
X53477Y-16939D03*
X53477Y-15837D03*
X46400Y-17551D03*
X46400Y-16449D03*
G54D24*
X55949Y-19800D03*
X57051Y-19800D03*
G54D23*
X69300Y-16649D03*
X69300Y-17751D03*
G54D25*
X52495Y-21720D03*
X48495Y-20720D03*
X52495Y-19720D03*
G54D26*
X59477Y-19250D03*
X59477Y-19750D03*
X59477Y-20250D03*
X59477Y-20750D03*
X59477Y-21250D03*
X59477Y-21750D03*
X59477Y-22250D03*
X59477Y-22750D03*
X61523Y-22750D03*
X61523Y-22250D03*
X61523Y-21750D03*
X61523Y-21250D03*
X61523Y-20750D03*
X61523Y-20250D03*
X61523Y-19750D03*
X61523Y-19250D03*
G54D13*
X09000Y-20500D03*
G54D14*
X09000Y-19500D03*
X09000Y-18500D03*
X09000Y-17500D03*
X09000Y-16500D03*
X09000Y-15500D03*
G54D13*
X107000Y-20500D03*
G54D14*
X107000Y-19500D03*
X107000Y-18500D03*
X107000Y-17500D03*
X107000Y-16500D03*
X107000Y-15500D03*
G54D27*
X106500Y-22500D03*
X09500Y-13000D03*
X09500Y-22500D03*
X106500Y-13000D03*
X74500Y-13000D03*
X41500Y-13000D03*
G54D28*
X63720Y-18581D03*
X60389Y-19796D03*
X58763Y-19851D03*
X64737Y-17177D03*
X60456Y-20317D03*
X44756Y-22825D03*
X50655Y-23327D03*
X70983Y-22743D03*
X66197Y-15541D03*
X66318Y-14487D03*
X70895Y-17492D03*
X70727Y-15965D03*
X46249Y-18295D03*
X67421Y-17011D03*
X66906Y-17301D03*
X67630Y-19283D03*
X56499Y-16323D03*
X105329Y-18500D03*
X57977Y-19842D03*
X50205Y-12441D03*
X64051Y-17903D03*
X58214Y-16893D03*
X60320Y-21731D03*
X57373Y-14307D03*
G54D11*
X65400Y-18323D02*
X65400Y-18919D01*
X64058Y-18919D02*
X63720Y-18581D01*
X65400Y-18919D02*
X64058Y-18919D01*
X60073Y-20112D02*
X60073Y-20250D01*
X60389Y-19796D02*
X60073Y-20112D01*
X59477Y-20250D02*
X60073Y-20250D01*
X59500Y-17300D02*
X59963Y-17300D01*
X58780Y-19851D02*
X58881Y-19750D01*
X58763Y-19851D02*
X58780Y-19851D01*
X59477Y-19750D02*
X58881Y-19750D01*
X59963Y-17451D02*
X59963Y-17300D01*
X60605Y-18093D02*
X59963Y-17451D01*
X63735Y-18093D02*
X60605Y-18093D01*
X63965Y-18323D02*
X63735Y-18093D01*
X64900Y-18323D02*
X63965Y-18323D01*
X65900Y-18323D02*
X65900Y-18919D01*
X64069Y-20750D02*
X61523Y-20750D01*
X65900Y-18919D02*
X64069Y-20750D01*
X65041Y-16873D02*
X64737Y-17177D01*
X65400Y-16873D02*
X65041Y-16873D01*
X60073Y-20700D02*
X60073Y-20750D01*
X60456Y-20317D02*
X60073Y-20700D01*
X59477Y-20750D02*
X60073Y-20750D01*
X65400Y-16277D02*
X65400Y-16873D01*
X61119Y-15681D02*
X64900Y-15681D01*
X60500Y-16300D02*
X61119Y-15681D01*
X64900Y-16277D02*
X64900Y-15681D01*
G54D29*
X17958Y-20042D02*
X17000Y-21000D01*
X51817Y-20042D02*
X17958Y-20042D01*
X53025Y-21250D02*
X51817Y-20042D01*
X59477Y-21250D02*
X53025Y-21250D01*
X27330Y-22330D02*
X26000Y-21000D01*
X55442Y-22330D02*
X27330Y-22330D01*
X56022Y-21750D02*
X55442Y-22330D01*
X59477Y-21750D02*
X56022Y-21750D01*
X56467Y-22825D02*
X44756Y-22825D01*
X57042Y-22250D02*
X56467Y-22825D01*
X59477Y-22250D02*
X57042Y-22250D01*
X58264Y-23327D02*
X50655Y-23327D01*
X58841Y-22750D02*
X58264Y-23327D01*
X59477Y-22750D02*
X58841Y-22750D01*
X70976Y-22750D02*
X70983Y-22743D01*
X61523Y-22750D02*
X70976Y-22750D01*
X84250Y-22250D02*
X85500Y-21000D01*
X62159Y-22250D02*
X84250Y-22250D01*
X61523Y-22250D02*
X62159Y-22250D01*
X92267Y-23233D02*
X94500Y-21000D01*
X61104Y-23233D02*
X92267Y-23233D01*
X60887Y-23016D02*
X61104Y-23233D01*
X60887Y-21750D02*
X60887Y-23016D01*
X61523Y-21750D02*
X60887Y-21750D01*
X102686Y-20186D02*
X103500Y-21000D01*
X65036Y-20186D02*
X102686Y-20186D01*
X63972Y-21250D02*
X65036Y-20186D01*
X61523Y-21250D02*
X63972Y-21250D01*
G54D11*
X67400Y-18323D02*
X67400Y-17727D01*
X71036Y-17154D02*
X69818Y-17154D01*
X71056Y-17174D02*
X71036Y-17154D01*
X77142Y-17174D02*
X71056Y-17174D01*
X79666Y-19698D02*
X77142Y-17174D01*
X106802Y-19698D02*
X79666Y-19698D01*
X107000Y-19500D02*
X106802Y-19698D01*
X67973Y-17154D02*
X67400Y-17727D01*
X69818Y-17154D02*
X67973Y-17154D01*
X69818Y-15000D02*
X69818Y-17154D01*
X67959Y-13141D02*
X69818Y-15000D01*
X65714Y-13141D02*
X67959Y-13141D01*
X63892Y-14963D02*
X65714Y-13141D01*
X51502Y-14963D02*
X63892Y-14963D01*
X46725Y-19740D02*
X51502Y-14963D01*
X16830Y-19740D02*
X46725Y-19740D01*
X14792Y-21778D02*
X16830Y-19740D01*
X11278Y-21778D02*
X14792Y-21778D01*
X09000Y-19500D02*
X11278Y-21778D01*
X66400Y-16277D02*
X66400Y-15681D01*
X66337Y-15681D02*
X66197Y-15541D01*
X66400Y-15681D02*
X66337Y-15681D01*
X66747Y-14058D02*
X66826Y-14058D01*
X66318Y-14487D02*
X66747Y-14058D01*
X66826Y-13600D02*
X66826Y-14058D01*
X107000Y-20500D02*
X106537Y-20500D01*
X47033Y-12817D02*
X47242Y-13026D01*
X46600Y-12817D02*
X47033Y-12817D01*
X66400Y-18323D02*
X66400Y-18919D01*
X46600Y-13026D02*
X46600Y-12921D01*
X46600Y-12921D02*
X46600Y-12817D01*
X08571Y-20037D02*
X09000Y-20037D01*
X08537Y-20003D02*
X08571Y-20037D01*
X08537Y-12057D02*
X08537Y-20003D01*
X08570Y-12024D02*
X08537Y-12057D01*
X45703Y-12024D02*
X08570Y-12024D01*
X46600Y-12921D02*
X45703Y-12024D01*
X09000Y-20500D02*
X09000Y-20037D01*
X47471Y-13026D02*
X47242Y-13026D01*
X47471Y-13026D02*
X47700Y-13026D01*
X48800Y-13026D02*
X48800Y-12817D01*
X47700Y-13026D02*
X48158Y-13026D01*
X51000Y-13774D02*
X50542Y-13774D01*
X70895Y-19922D02*
X70895Y-17492D01*
X105959Y-19922D02*
X70895Y-19922D01*
X106537Y-20500D02*
X105959Y-19922D01*
X67403Y-19922D02*
X66400Y-18919D01*
X70895Y-19922D02*
X67403Y-19922D01*
X48367Y-12817D02*
X48800Y-12817D01*
X48158Y-13026D02*
X48367Y-12817D01*
X50965Y-11878D02*
X50543Y-12300D01*
X67702Y-11878D02*
X50965Y-11878D01*
X70727Y-14903D02*
X67702Y-11878D01*
X70727Y-15965D02*
X70727Y-14903D01*
X50543Y-12602D02*
X50543Y-12300D01*
X50542Y-12603D02*
X50543Y-12602D01*
X50542Y-13774D02*
X50542Y-12603D01*
X49514Y-12103D02*
X48800Y-12817D01*
X50346Y-12103D02*
X49514Y-12103D01*
X50543Y-12300D02*
X50346Y-12103D01*
G54D30*
X46326Y-18218D02*
X46400Y-18218D01*
X46249Y-18295D02*
X46326Y-18218D01*
X46400Y-17551D02*
X46400Y-18218D01*
X47364Y-17551D02*
X46400Y-17551D01*
X47782Y-17133D02*
X47364Y-17551D01*
G54D31*
X47813Y-17165D02*
X48364Y-17165D01*
X47782Y-17133D02*
X47813Y-17165D01*
G54D30*
X11500Y-21000D02*
X12500Y-21000D01*
X09000Y-18500D02*
X11500Y-21000D01*
X09000Y-17500D02*
X09000Y-18500D01*
X31365Y-21865D02*
X30500Y-21000D01*
X38635Y-21865D02*
X31365Y-21865D01*
X39500Y-21000D02*
X38635Y-21865D01*
G54D11*
X67421Y-16894D02*
X67421Y-17011D01*
X67400Y-16873D02*
X67421Y-16894D01*
X67400Y-16277D02*
X67400Y-16873D01*
X66900Y-17295D02*
X66906Y-17301D01*
X66900Y-16277D02*
X66900Y-17295D01*
X68759Y-17727D02*
X68783Y-17751D01*
X67900Y-17727D02*
X68759Y-17727D01*
X69300Y-17751D02*
X68783Y-17751D01*
X67900Y-18025D02*
X67900Y-17727D01*
X67900Y-18025D02*
X67900Y-18323D01*
X67900Y-19013D02*
X67630Y-19283D01*
X67900Y-18323D02*
X67900Y-19013D01*
X52734Y-16063D02*
X52734Y-16165D01*
X52960Y-15837D02*
X52734Y-16063D01*
X53477Y-15837D02*
X52960Y-15837D01*
X52178Y-16165D02*
X52456Y-16165D01*
X52456Y-16165D02*
X52734Y-16165D01*
X52734Y-16379D02*
X52734Y-16665D01*
X52520Y-16165D02*
X52734Y-16379D01*
X52456Y-16165D02*
X52520Y-16165D01*
X52178Y-16665D02*
X52734Y-16665D01*
X55801Y-17021D02*
X55285Y-17021D01*
X56499Y-16323D02*
X55801Y-17021D01*
X54101Y-15837D02*
X53477Y-15837D01*
X55285Y-17021D02*
X54101Y-15837D01*
X58723Y-12102D02*
X58250Y-12575D01*
X61277Y-12102D02*
X58723Y-12102D01*
X61750Y-12575D02*
X61277Y-12102D01*
X63093Y-16300D02*
X63300Y-16507D01*
X61500Y-16300D02*
X63093Y-16300D01*
X63300Y-16926D02*
X63300Y-16507D01*
G54D30*
X74500Y-13000D02*
X106500Y-13000D01*
X46400Y-16449D02*
X47107Y-16449D01*
X105329Y-18171D02*
X107000Y-16500D01*
X105329Y-18500D02*
X105329Y-18171D01*
X46400Y-16449D02*
X46400Y-15781D01*
X63300Y-19874D02*
X62652Y-19874D01*
X62652Y-19120D02*
X62652Y-19874D01*
X62311Y-18779D02*
X62652Y-19120D01*
X60734Y-18779D02*
X62311Y-18779D01*
X60263Y-19250D02*
X60734Y-18779D01*
X45973Y-15354D02*
X46400Y-15781D01*
X43648Y-15354D02*
X45973Y-15354D01*
X41500Y-13206D02*
X43648Y-15354D01*
X41500Y-13000D02*
X41500Y-13206D01*
X41500Y-13000D02*
X09500Y-13000D01*
X47107Y-16449D02*
X48225Y-16449D01*
G54D31*
X48225Y-16304D02*
X48225Y-16449D01*
X48364Y-16165D02*
X48225Y-16304D01*
X48225Y-16526D02*
X48364Y-16665D01*
X48225Y-16449D02*
X48225Y-16526D01*
G54D30*
X57761Y-19842D02*
X57719Y-19800D01*
X57977Y-19842D02*
X57761Y-19842D01*
X57051Y-19800D02*
X57719Y-19800D01*
X59870Y-19250D02*
X60263Y-19250D01*
X59870Y-19250D02*
X59477Y-19250D01*
X58569Y-19250D02*
X57977Y-19842D01*
X59477Y-19250D02*
X58569Y-19250D01*
G54D29*
X90000Y-14500D02*
X94500Y-14500D01*
X99000Y-14500D02*
X103500Y-14500D01*
X103500Y-16500D02*
X103500Y-19000D01*
X81000Y-14500D02*
X85500Y-14500D01*
X72000Y-14500D02*
X76500Y-14500D01*
G54D11*
X54299Y-14193D02*
X52100Y-14193D01*
X54300Y-14192D02*
X54299Y-14193D01*
X54300Y-13774D02*
X54300Y-14192D01*
X52100Y-13774D02*
X52100Y-14193D01*
X47069Y-14662D02*
X46600Y-14193D01*
X55363Y-14662D02*
X47069Y-14662D01*
X55700Y-14325D02*
X55363Y-14662D01*
X46600Y-13774D02*
X46600Y-14193D01*
X50039Y-12607D02*
X49900Y-12607D01*
X50205Y-12441D02*
X50039Y-12607D01*
X49900Y-13026D02*
X49900Y-12607D01*
X48800Y-13774D02*
X49900Y-13774D01*
X52742Y-12639D02*
X52742Y-13774D01*
X52775Y-12606D02*
X52742Y-12639D01*
X55029Y-12606D02*
X52775Y-12606D01*
X55642Y-13219D02*
X55029Y-12606D01*
X61594Y-13219D02*
X55642Y-13219D01*
X62700Y-14325D02*
X61594Y-13219D01*
X53200Y-13774D02*
X52742Y-13774D01*
X54300Y-13026D02*
X53200Y-13026D01*
X57200Y-15977D02*
X56742Y-15977D01*
X55767Y-15977D02*
X55723Y-16021D01*
X56742Y-15977D02*
X55767Y-15977D01*
X55285Y-16021D02*
X55723Y-16021D01*
X52100Y-13026D02*
X51000Y-13026D01*
G54D29*
X26000Y-14500D02*
X21500Y-14500D01*
X35000Y-14500D02*
X30500Y-14500D01*
G54D11*
X64227Y-17727D02*
X64051Y-17903D01*
X66900Y-17727D02*
X64227Y-17727D01*
X57826Y-16893D02*
X57658Y-16725D01*
X58214Y-16893D02*
X57826Y-16893D01*
X57200Y-16725D02*
X57658Y-16725D01*
X66900Y-18323D02*
X66900Y-17727D01*
G54D29*
X17000Y-14500D02*
X12500Y-14500D01*
G54D11*
X60927Y-21124D02*
X60320Y-21731D01*
X60927Y-19750D02*
X60927Y-21124D01*
X61523Y-19750D02*
X60927Y-19750D01*
X67900Y-16277D02*
X67900Y-15681D01*
X69300Y-16649D02*
X69300Y-16172D01*
X63758Y-20279D02*
X63758Y-19126D01*
X63729Y-20308D02*
X63758Y-20279D01*
X62453Y-20308D02*
X63729Y-20308D01*
X62119Y-19974D02*
X62453Y-20308D01*
X62119Y-19250D02*
X62119Y-19974D01*
X63397Y-19126D02*
X63758Y-19126D01*
X61523Y-19250D02*
X62119Y-19250D01*
X47946Y-14438D02*
X47700Y-14192D01*
X54826Y-14438D02*
X47946Y-14438D01*
X55577Y-13687D02*
X54826Y-14438D01*
X56753Y-13687D02*
X55577Y-13687D01*
X57373Y-14307D02*
X56753Y-13687D01*
X47700Y-13774D02*
X47700Y-14192D01*
X55949Y-19800D02*
X56427Y-19800D01*
X63397Y-19126D02*
X63300Y-19126D01*
X53219Y-16939D02*
X52960Y-16939D01*
X53219Y-16939D02*
X53477Y-16939D01*
X53477Y-16939D02*
X53994Y-16939D01*
X63300Y-19126D02*
X63300Y-18708D01*
X62945Y-18353D02*
X63300Y-18708D01*
X58993Y-18353D02*
X62945Y-18353D01*
X52734Y-17165D02*
X52178Y-17165D01*
X52960Y-16939D02*
X52734Y-17165D01*
X53994Y-16939D02*
X56428Y-19372D01*
X56427Y-19373D02*
X56428Y-19372D01*
X56427Y-19800D02*
X56427Y-19373D01*
X57447Y-18353D02*
X58993Y-18353D01*
X56428Y-19372D02*
X57447Y-18353D01*
X67574Y-13600D02*
X67574Y-14058D01*
X68809Y-15681D02*
X69300Y-16172D01*
X67900Y-15681D02*
X68809Y-15681D01*
X67900Y-15681D02*
X66926Y-14706D01*
X66430Y-15202D02*
X66926Y-14706D01*
X60598Y-15202D02*
X66430Y-15202D01*
X59500Y-16300D02*
X60598Y-15202D01*
X66926Y-14706D02*
X67574Y-14058D01*
X60000Y-16800D02*
X59500Y-16300D01*
X61968Y-16800D02*
X60000Y-16800D01*
X62842Y-17674D02*
X61968Y-16800D01*
X63300Y-17674D02*
X62842Y-17674D01*
X58993Y-16807D02*
X59500Y-16300D01*
X58993Y-18353D02*
X58993Y-16807D01*
G54D10*
G36*
X107725Y-23725D02*
X107725Y-11775D01*
X68037Y-11775D01*
X70948Y-14686D01*
X70955Y-14695D01*
X70985Y-14731D01*
X71014Y-14785D01*
X71031Y-14843D01*
X71037Y-14903D01*
X71037Y-15674D01*
X71058Y-15695D01*
X71104Y-15764D01*
X71136Y-15841D01*
X71152Y-15923D01*
X71151Y-16018D01*
X71132Y-16099D01*
X71098Y-16176D01*
X71051Y-16244D01*
X70990Y-16301D01*
X70920Y-16346D01*
X70842Y-16376D01*
X70760Y-16391D01*
X70677Y-16389D01*
X70595Y-16371D01*
X70519Y-16338D01*
X70450Y-16290D01*
X70393Y-16231D01*
X70347Y-16161D01*
X70317Y-16083D01*
X70301Y-16001D01*
X70303Y-15918D01*
X70320Y-15836D01*
X70353Y-15760D01*
X70400Y-15691D01*
X70417Y-15674D01*
X70417Y-15031D01*
X67574Y-12188D01*
X65639Y-12188D01*
X65677Y-12226D01*
X65737Y-12316D01*
X65778Y-12415D01*
X65799Y-12521D01*
X65797Y-12644D01*
X65774Y-12749D01*
X65737Y-12831D01*
X67963Y-12831D01*
X67980Y-12833D01*
X68020Y-12837D01*
X68079Y-12855D01*
X68080Y-12855D01*
X68081Y-12856D01*
X68134Y-12885D01*
X68164Y-12910D01*
X68178Y-12922D01*
X70040Y-14784D01*
X70047Y-14792D01*
X70076Y-14828D01*
X70105Y-14882D01*
X70105Y-14884D01*
X70106Y-14885D01*
X70123Y-14943D01*
X70126Y-14985D01*
X70128Y-15000D01*
X70128Y-16844D01*
X71040Y-16844D01*
X71057Y-16846D01*
X71097Y-16850D01*
X71142Y-16864D01*
X71343Y-16864D01*
X71330Y-16844D01*
X71276Y-16707D01*
X71250Y-16563D01*
X71252Y-16416D01*
X71283Y-16272D01*
X71341Y-16137D01*
X71424Y-16016D01*
X71529Y-15913D01*
X71652Y-15833D01*
X71788Y-15778D01*
X71932Y-15751D01*
X72079Y-15752D01*
X72223Y-15781D01*
X72358Y-15838D01*
X72480Y-15920D01*
X72583Y-16025D01*
X72665Y-16147D01*
X72721Y-16283D01*
X72749Y-16427D01*
X72747Y-16595D01*
X72714Y-16738D01*
X72657Y-16864D01*
X75843Y-16864D01*
X75830Y-16844D01*
X75776Y-16707D01*
X75750Y-16563D01*
X75752Y-16416D01*
X75783Y-16272D01*
X75841Y-16137D01*
X75924Y-16016D01*
X76029Y-15913D01*
X76152Y-15833D01*
X76288Y-15778D01*
X76432Y-15751D01*
X76557Y-15751D01*
X76557Y-15250D01*
X76410Y-15247D01*
X76267Y-15216D01*
X76132Y-15157D01*
X76012Y-15073D01*
X75910Y-14967D01*
X75833Y-14850D01*
X72663Y-14850D01*
X72654Y-14872D01*
X72569Y-14992D01*
X72463Y-15093D01*
X72339Y-15172D01*
X72202Y-15225D01*
X72057Y-15250D01*
X71910Y-15247D01*
X71767Y-15216D01*
X71632Y-15157D01*
X71512Y-15073D01*
X71410Y-14967D01*
X71330Y-14844D01*
X71276Y-14707D01*
X71250Y-14563D01*
X71252Y-14416D01*
X71283Y-14272D01*
X71341Y-14137D01*
X71424Y-14016D01*
X71529Y-13913D01*
X71652Y-13833D01*
X71788Y-13778D01*
X71932Y-13751D01*
X72079Y-13752D01*
X72223Y-13781D01*
X72358Y-13838D01*
X72480Y-13920D01*
X72583Y-14025D01*
X72665Y-14147D01*
X72666Y-14150D01*
X75835Y-14150D01*
X75841Y-14137D01*
X75924Y-14016D01*
X76029Y-13913D01*
X76152Y-13833D01*
X76288Y-13778D01*
X76432Y-13751D01*
X76579Y-13752D01*
X76723Y-13781D01*
X76858Y-13838D01*
X76980Y-13920D01*
X77083Y-14025D01*
X77165Y-14147D01*
X77221Y-14283D01*
X77249Y-14427D01*
X77247Y-14595D01*
X77214Y-14738D01*
X77154Y-14872D01*
X77069Y-14992D01*
X76963Y-15093D01*
X76839Y-15172D01*
X76702Y-15225D01*
X76557Y-15250D01*
X76557Y-15751D01*
X76579Y-15752D01*
X76723Y-15781D01*
X76858Y-15838D01*
X76980Y-15920D01*
X77083Y-16025D01*
X77165Y-16147D01*
X77221Y-16283D01*
X77249Y-16427D01*
X77247Y-16595D01*
X77214Y-16738D01*
X77157Y-16865D01*
X77163Y-16866D01*
X77203Y-16870D01*
X77262Y-16888D01*
X77263Y-16888D01*
X77264Y-16889D01*
X77317Y-16918D01*
X77347Y-16943D01*
X77361Y-16955D01*
X79794Y-19388D01*
X80358Y-19388D01*
X80330Y-19344D01*
X80276Y-19207D01*
X80250Y-19063D01*
X80252Y-18916D01*
X80283Y-18772D01*
X80341Y-18637D01*
X80424Y-18516D01*
X80529Y-18413D01*
X80652Y-18333D01*
X80788Y-18278D01*
X80932Y-18251D01*
X81057Y-18251D01*
X81057Y-17250D01*
X80910Y-17247D01*
X80767Y-17216D01*
X80632Y-17157D01*
X80512Y-17073D01*
X80410Y-16967D01*
X80330Y-16844D01*
X80276Y-16707D01*
X80250Y-16563D01*
X80252Y-16416D01*
X80283Y-16272D01*
X80341Y-16137D01*
X80424Y-16016D01*
X80529Y-15913D01*
X80652Y-15833D01*
X80788Y-15778D01*
X80932Y-15751D01*
X81079Y-15752D01*
X81223Y-15781D01*
X81358Y-15838D01*
X81480Y-15920D01*
X81583Y-16025D01*
X81665Y-16147D01*
X81721Y-16283D01*
X81749Y-16427D01*
X81747Y-16595D01*
X81714Y-16738D01*
X81654Y-16872D01*
X81569Y-16992D01*
X81463Y-17093D01*
X81339Y-17172D01*
X81202Y-17225D01*
X81057Y-17250D01*
X81057Y-18251D01*
X81079Y-18252D01*
X81223Y-18281D01*
X81358Y-18338D01*
X81480Y-18420D01*
X81583Y-18525D01*
X81665Y-18647D01*
X81721Y-18783D01*
X81749Y-18927D01*
X81747Y-19095D01*
X81714Y-19238D01*
X81654Y-19372D01*
X81642Y-19388D01*
X84858Y-19388D01*
X84830Y-19344D01*
X84776Y-19207D01*
X84750Y-19063D01*
X84752Y-18916D01*
X84783Y-18772D01*
X84841Y-18637D01*
X84924Y-18516D01*
X85029Y-18413D01*
X85152Y-18333D01*
X85288Y-18278D01*
X85432Y-18251D01*
X85557Y-18251D01*
X85557Y-17250D01*
X85410Y-17247D01*
X85267Y-17216D01*
X85132Y-17157D01*
X85012Y-17073D01*
X84910Y-16967D01*
X84830Y-16844D01*
X84776Y-16707D01*
X84750Y-16563D01*
X84752Y-16416D01*
X84783Y-16272D01*
X84841Y-16137D01*
X84924Y-16016D01*
X85029Y-15913D01*
X85152Y-15833D01*
X85288Y-15778D01*
X85432Y-15751D01*
X85557Y-15751D01*
X85557Y-15250D01*
X85410Y-15247D01*
X85267Y-15216D01*
X85132Y-15157D01*
X85012Y-15073D01*
X84910Y-14967D01*
X84833Y-14850D01*
X81663Y-14850D01*
X81654Y-14872D01*
X81569Y-14992D01*
X81463Y-15093D01*
X81339Y-15172D01*
X81202Y-15225D01*
X81057Y-15250D01*
X80910Y-15247D01*
X80767Y-15216D01*
X80632Y-15157D01*
X80512Y-15073D01*
X80410Y-14967D01*
X80330Y-14844D01*
X80276Y-14707D01*
X80250Y-14563D01*
X80252Y-14416D01*
X80283Y-14272D01*
X80341Y-14137D01*
X80424Y-14016D01*
X80529Y-13913D01*
X80652Y-13833D01*
X80788Y-13778D01*
X80932Y-13751D01*
X81079Y-13752D01*
X81223Y-13781D01*
X81358Y-13838D01*
X81480Y-13920D01*
X81583Y-14025D01*
X81665Y-14147D01*
X81666Y-14150D01*
X84835Y-14150D01*
X84841Y-14137D01*
X84924Y-14016D01*
X85029Y-13913D01*
X85152Y-13833D01*
X85288Y-13778D01*
X85432Y-13751D01*
X85579Y-13752D01*
X85723Y-13781D01*
X85858Y-13838D01*
X85980Y-13920D01*
X86083Y-14025D01*
X86165Y-14147D01*
X86221Y-14283D01*
X86249Y-14427D01*
X86247Y-14595D01*
X86214Y-14738D01*
X86154Y-14872D01*
X86069Y-14992D01*
X85963Y-15093D01*
X85839Y-15172D01*
X85702Y-15225D01*
X85557Y-15250D01*
X85557Y-15751D01*
X85579Y-15752D01*
X85723Y-15781D01*
X85858Y-15838D01*
X85980Y-15920D01*
X86083Y-16025D01*
X86165Y-16147D01*
X86221Y-16283D01*
X86249Y-16427D01*
X86247Y-16595D01*
X86214Y-16738D01*
X86154Y-16872D01*
X86069Y-16992D01*
X85963Y-17093D01*
X85839Y-17172D01*
X85702Y-17225D01*
X85557Y-17250D01*
X85557Y-18251D01*
X85579Y-18252D01*
X85723Y-18281D01*
X85858Y-18338D01*
X85980Y-18420D01*
X86083Y-18525D01*
X86165Y-18647D01*
X86221Y-18783D01*
X86249Y-18927D01*
X86247Y-19095D01*
X86214Y-19238D01*
X86154Y-19372D01*
X86142Y-19388D01*
X89358Y-19388D01*
X89330Y-19344D01*
X89276Y-19207D01*
X89250Y-19063D01*
X89252Y-18916D01*
X89283Y-18772D01*
X89341Y-18637D01*
X89424Y-18516D01*
X89529Y-18413D01*
X89652Y-18333D01*
X89788Y-18278D01*
X89932Y-18251D01*
X90057Y-18251D01*
X90057Y-17250D01*
X89910Y-17247D01*
X89767Y-17216D01*
X89632Y-17157D01*
X89512Y-17073D01*
X89410Y-16967D01*
X89330Y-16844D01*
X89276Y-16707D01*
X89250Y-16563D01*
X89252Y-16416D01*
X89283Y-16272D01*
X89341Y-16137D01*
X89424Y-16016D01*
X89529Y-15913D01*
X89652Y-15833D01*
X89788Y-15778D01*
X89932Y-15751D01*
X90079Y-15752D01*
X90223Y-15781D01*
X90358Y-15838D01*
X90480Y-15920D01*
X90583Y-16025D01*
X90665Y-16147D01*
X90721Y-16283D01*
X90749Y-16427D01*
X90747Y-16595D01*
X90714Y-16738D01*
X90654Y-16872D01*
X90569Y-16992D01*
X90463Y-17093D01*
X90339Y-17172D01*
X90202Y-17225D01*
X90057Y-17250D01*
X90057Y-18251D01*
X90079Y-18252D01*
X90223Y-18281D01*
X90358Y-18338D01*
X90480Y-18420D01*
X90583Y-18525D01*
X90665Y-18647D01*
X90721Y-18783D01*
X90749Y-18927D01*
X90747Y-19095D01*
X90714Y-19238D01*
X90654Y-19372D01*
X90642Y-19388D01*
X93858Y-19388D01*
X93830Y-19344D01*
X93776Y-19207D01*
X93750Y-19063D01*
X93752Y-18916D01*
X93783Y-18772D01*
X93841Y-18637D01*
X93924Y-18516D01*
X94029Y-18413D01*
X94152Y-18333D01*
X94288Y-18278D01*
X94432Y-18251D01*
X94557Y-18251D01*
X94557Y-17250D01*
X94410Y-17247D01*
X94267Y-17216D01*
X94132Y-17157D01*
X94012Y-17073D01*
X93910Y-16967D01*
X93830Y-16844D01*
X93776Y-16707D01*
X93750Y-16563D01*
X93752Y-16416D01*
X93783Y-16272D01*
X93841Y-16137D01*
X93924Y-16016D01*
X94029Y-15913D01*
X94152Y-15833D01*
X94288Y-15778D01*
X94432Y-15751D01*
X94557Y-15751D01*
X94557Y-15250D01*
X94410Y-15247D01*
X94267Y-15216D01*
X94132Y-15157D01*
X94012Y-15073D01*
X93910Y-14967D01*
X93833Y-14850D01*
X90663Y-14850D01*
X90654Y-14872D01*
X90569Y-14992D01*
X90463Y-15093D01*
X90339Y-15172D01*
X90202Y-15225D01*
X90057Y-15250D01*
X89910Y-15247D01*
X89767Y-15216D01*
X89632Y-15157D01*
X89512Y-15073D01*
X89410Y-14967D01*
X89330Y-14844D01*
X89276Y-14707D01*
X89250Y-14563D01*
X89252Y-14416D01*
X89283Y-14272D01*
X89341Y-14137D01*
X89424Y-14016D01*
X89529Y-13913D01*
X89652Y-13833D01*
X89788Y-13778D01*
X89932Y-13751D01*
X90079Y-13752D01*
X90223Y-13781D01*
X90358Y-13838D01*
X90480Y-13920D01*
X90583Y-14025D01*
X90665Y-14147D01*
X90666Y-14150D01*
X93835Y-14150D01*
X93841Y-14137D01*
X93924Y-14016D01*
X94029Y-13913D01*
X94152Y-13833D01*
X94288Y-13778D01*
X94432Y-13751D01*
X94579Y-13752D01*
X94723Y-13781D01*
X94858Y-13838D01*
X94980Y-13920D01*
X95083Y-14025D01*
X95165Y-14147D01*
X95221Y-14283D01*
X95249Y-14427D01*
X95247Y-14595D01*
X95214Y-14738D01*
X95154Y-14872D01*
X95069Y-14992D01*
X94963Y-15093D01*
X94839Y-15172D01*
X94702Y-15225D01*
X94557Y-15250D01*
X94557Y-15751D01*
X94579Y-15752D01*
X94723Y-15781D01*
X94858Y-15838D01*
X94980Y-15920D01*
X95083Y-16025D01*
X95165Y-16147D01*
X95221Y-16283D01*
X95249Y-16427D01*
X95247Y-16595D01*
X95214Y-16738D01*
X95154Y-16872D01*
X95069Y-16992D01*
X94963Y-17093D01*
X94839Y-17172D01*
X94702Y-17225D01*
X94557Y-17250D01*
X94557Y-18251D01*
X94579Y-18252D01*
X94723Y-18281D01*
X94858Y-18338D01*
X94980Y-18420D01*
X95083Y-18525D01*
X95165Y-18647D01*
X95221Y-18783D01*
X95249Y-18927D01*
X95247Y-19095D01*
X95214Y-19238D01*
X95154Y-19372D01*
X95142Y-19388D01*
X98358Y-19388D01*
X98330Y-19344D01*
X98276Y-19207D01*
X98250Y-19063D01*
X98252Y-18916D01*
X98283Y-18772D01*
X98341Y-18637D01*
X98424Y-18516D01*
X98529Y-18413D01*
X98652Y-18333D01*
X98788Y-18278D01*
X98932Y-18251D01*
X99057Y-18251D01*
X99057Y-17250D01*
X98910Y-17247D01*
X98767Y-17216D01*
X98632Y-17157D01*
X98512Y-17073D01*
X98410Y-16967D01*
X98330Y-16844D01*
X98276Y-16707D01*
X98250Y-16563D01*
X98252Y-16416D01*
X98283Y-16272D01*
X98341Y-16137D01*
X98424Y-16016D01*
X98529Y-15913D01*
X98652Y-15833D01*
X98788Y-15778D01*
X98932Y-15751D01*
X99079Y-15752D01*
X99223Y-15781D01*
X99358Y-15838D01*
X99480Y-15920D01*
X99583Y-16025D01*
X99665Y-16147D01*
X99721Y-16283D01*
X99749Y-16427D01*
X99747Y-16595D01*
X99714Y-16738D01*
X99654Y-16872D01*
X99569Y-16992D01*
X99463Y-17093D01*
X99339Y-17172D01*
X99202Y-17225D01*
X99057Y-17250D01*
X99057Y-18251D01*
X99079Y-18252D01*
X99223Y-18281D01*
X99358Y-18338D01*
X99480Y-18420D01*
X99583Y-18525D01*
X99665Y-18647D01*
X99721Y-18783D01*
X99749Y-18927D01*
X99747Y-19095D01*
X99714Y-19238D01*
X99654Y-19372D01*
X99642Y-19388D01*
X102858Y-19388D01*
X102830Y-19344D01*
X102776Y-19207D01*
X102750Y-19063D01*
X102752Y-18916D01*
X102783Y-18772D01*
X102841Y-18637D01*
X102924Y-18516D01*
X103029Y-18413D01*
X103150Y-18334D01*
X103150Y-17164D01*
X103132Y-17157D01*
X103012Y-17073D01*
X102910Y-16967D01*
X102830Y-16844D01*
X102776Y-16707D01*
X102750Y-16563D01*
X102752Y-16416D01*
X102783Y-16272D01*
X102841Y-16137D01*
X102924Y-16016D01*
X103029Y-15913D01*
X103152Y-15833D01*
X103288Y-15778D01*
X103432Y-15751D01*
X103557Y-15751D01*
X103557Y-15250D01*
X103410Y-15247D01*
X103267Y-15216D01*
X103132Y-15157D01*
X103012Y-15073D01*
X102910Y-14967D01*
X102833Y-14850D01*
X99663Y-14850D01*
X99654Y-14872D01*
X99569Y-14992D01*
X99463Y-15093D01*
X99339Y-15172D01*
X99202Y-15225D01*
X99057Y-15250D01*
X98910Y-15247D01*
X98767Y-15216D01*
X98632Y-15157D01*
X98512Y-15073D01*
X98410Y-14967D01*
X98330Y-14844D01*
X98276Y-14707D01*
X98250Y-14563D01*
X98252Y-14416D01*
X98283Y-14272D01*
X98341Y-14137D01*
X98424Y-14016D01*
X98529Y-13913D01*
X98652Y-13833D01*
X98788Y-13778D01*
X98932Y-13751D01*
X99079Y-13752D01*
X99223Y-13781D01*
X99358Y-13838D01*
X99480Y-13920D01*
X99583Y-14025D01*
X99665Y-14147D01*
X99666Y-14150D01*
X102835Y-14150D01*
X102841Y-14137D01*
X102924Y-14016D01*
X103029Y-13913D01*
X103152Y-13833D01*
X103288Y-13778D01*
X103432Y-13751D01*
X103579Y-13752D01*
X103723Y-13781D01*
X103858Y-13838D01*
X103980Y-13920D01*
X104083Y-14025D01*
X104165Y-14147D01*
X104221Y-14283D01*
X104249Y-14427D01*
X104247Y-14595D01*
X104214Y-14738D01*
X104154Y-14872D01*
X104069Y-14992D01*
X103963Y-15093D01*
X103839Y-15172D01*
X103702Y-15225D01*
X103557Y-15250D01*
X103557Y-15751D01*
X103579Y-15752D01*
X103723Y-15781D01*
X103858Y-15838D01*
X103980Y-15920D01*
X104083Y-16025D01*
X104165Y-16147D01*
X104221Y-16283D01*
X104249Y-16427D01*
X104247Y-16595D01*
X104214Y-16738D01*
X104154Y-16872D01*
X104069Y-16992D01*
X103963Y-17093D01*
X103850Y-17164D01*
X103850Y-18334D01*
X103858Y-18338D01*
X103980Y-18420D01*
X104083Y-18525D01*
X104165Y-18647D01*
X104221Y-18783D01*
X104249Y-18927D01*
X104247Y-19095D01*
X104214Y-19238D01*
X104154Y-19372D01*
X104142Y-19388D01*
X106462Y-19388D01*
X106474Y-19333D01*
X106517Y-19234D01*
X106577Y-19146D01*
X106654Y-19070D01*
X106744Y-19011D01*
X106771Y-18999D01*
X106731Y-18982D01*
X106643Y-18920D01*
X106568Y-18843D01*
X106509Y-18752D01*
X106470Y-18652D01*
X106450Y-18546D01*
X106452Y-18439D01*
X106474Y-18333D01*
X106517Y-18234D01*
X106577Y-18146D01*
X106654Y-18070D01*
X106744Y-18011D01*
X106771Y-17999D01*
X106731Y-17982D01*
X106643Y-17920D01*
X106568Y-17843D01*
X106509Y-17752D01*
X106493Y-17713D01*
X105829Y-18378D01*
X105829Y-18507D01*
X105818Y-18604D01*
X105789Y-18697D01*
X105742Y-18782D01*
X105679Y-18857D01*
X105603Y-18918D01*
X105516Y-18964D01*
X105423Y-18991D01*
X105326Y-19000D01*
X105228Y-18990D01*
X105135Y-18961D01*
X105049Y-18915D01*
X104974Y-18852D01*
X104913Y-18777D01*
X104867Y-18691D01*
X104839Y-18597D01*
X104829Y-18500D01*
X104829Y-18164D01*
X104835Y-18107D01*
X104839Y-18073D01*
X104839Y-18071D01*
X104840Y-18067D01*
X104857Y-18010D01*
X104867Y-17979D01*
X104868Y-17977D01*
X104869Y-17974D01*
X104916Y-17889D01*
X104943Y-17856D01*
X104975Y-17817D01*
X106484Y-16308D01*
X106517Y-16234D01*
X106577Y-16146D01*
X106654Y-16070D01*
X106744Y-16011D01*
X106771Y-15999D01*
X106731Y-15982D01*
X106643Y-15920D01*
X106568Y-15843D01*
X106509Y-15752D01*
X106470Y-15652D01*
X106450Y-15546D01*
X106452Y-15439D01*
X106474Y-15333D01*
X106517Y-15234D01*
X106577Y-15146D01*
X106581Y-15142D01*
X106581Y-14052D01*
X106375Y-14048D01*
X106174Y-14003D01*
X105985Y-13921D01*
X105816Y-13803D01*
X105673Y-13655D01*
X105573Y-13500D01*
X75426Y-13500D01*
X75417Y-13521D01*
X75299Y-13689D01*
X75150Y-13831D01*
X74976Y-13942D01*
X74784Y-14016D01*
X74581Y-14052D01*
X74375Y-14048D01*
X74174Y-14003D01*
X73985Y-13921D01*
X73816Y-13803D01*
X73673Y-13655D01*
X73562Y-13482D01*
X73486Y-13291D01*
X73449Y-13088D01*
X73452Y-12882D01*
X73494Y-12681D01*
X73575Y-12492D01*
X73692Y-12322D01*
X73839Y-12178D01*
X74011Y-12065D01*
X74202Y-11988D01*
X74404Y-11949D01*
X74610Y-11951D01*
X74812Y-11992D01*
X75002Y-12072D01*
X75172Y-12187D01*
X75318Y-12333D01*
X75428Y-12500D01*
X105571Y-12500D01*
X105575Y-12492D01*
X105692Y-12322D01*
X105839Y-12178D01*
X106011Y-12065D01*
X106202Y-11988D01*
X106404Y-11949D01*
X106610Y-11951D01*
X106812Y-11992D01*
X107002Y-12072D01*
X107172Y-12187D01*
X107318Y-12333D01*
X107432Y-12505D01*
X107510Y-12695D01*
X107550Y-12897D01*
X107547Y-13132D01*
X107501Y-13333D01*
X107417Y-13521D01*
X107299Y-13689D01*
X107150Y-13831D01*
X106976Y-13942D01*
X106784Y-14016D01*
X106581Y-14052D01*
X106581Y-15142D01*
X106654Y-15070D01*
X106744Y-15011D01*
X106844Y-14971D01*
X106950Y-14951D01*
X107057Y-14951D01*
X107163Y-14973D01*
X107262Y-15015D01*
X107352Y-15075D01*
X107427Y-15151D01*
X107487Y-15241D01*
X107528Y-15340D01*
X107549Y-15446D01*
X107547Y-15569D01*
X107524Y-15674D01*
X107480Y-15772D01*
X107418Y-15860D01*
X107340Y-15935D01*
X107249Y-15992D01*
X107227Y-16000D01*
X107262Y-16015D01*
X107352Y-16075D01*
X107427Y-16151D01*
X107487Y-16241D01*
X107528Y-16340D01*
X107549Y-16446D01*
X107547Y-16569D01*
X107524Y-16674D01*
X107480Y-16772D01*
X107418Y-16860D01*
X107340Y-16935D01*
X107249Y-16992D01*
X107227Y-17000D01*
X107262Y-17015D01*
X107352Y-17075D01*
X107427Y-17151D01*
X107487Y-17241D01*
X107528Y-17340D01*
X107549Y-17446D01*
X107547Y-17569D01*
X107524Y-17674D01*
X107480Y-17772D01*
X107418Y-17860D01*
X107340Y-17935D01*
X107249Y-17992D01*
X107227Y-18000D01*
X107262Y-18015D01*
X107352Y-18075D01*
X107427Y-18151D01*
X107487Y-18241D01*
X107528Y-18340D01*
X107549Y-18446D01*
X107547Y-18569D01*
X107524Y-18674D01*
X107480Y-18772D01*
X107418Y-18860D01*
X107340Y-18935D01*
X107249Y-18992D01*
X107227Y-19000D01*
X107262Y-19015D01*
X107352Y-19075D01*
X107427Y-19151D01*
X107487Y-19241D01*
X107528Y-19340D01*
X107549Y-19446D01*
X107547Y-19569D01*
X107524Y-19674D01*
X107480Y-19772D01*
X107418Y-19860D01*
X107340Y-19935D01*
X107316Y-19950D01*
X107327Y-19950D01*
X107375Y-19960D01*
X107420Y-19979D01*
X107460Y-20007D01*
X107495Y-20042D01*
X107522Y-20083D01*
X107541Y-20128D01*
X107550Y-20176D01*
X107550Y-20827D01*
X107540Y-20875D01*
X107521Y-20920D01*
X107493Y-20960D01*
X107458Y-20995D01*
X107417Y-21022D01*
X107372Y-21041D01*
X107324Y-21050D01*
X106673Y-21050D01*
X106625Y-21040D01*
X106580Y-21021D01*
X106540Y-20993D01*
X106505Y-20958D01*
X106478Y-20917D01*
X106459Y-20872D01*
X106450Y-20824D01*
X106450Y-20796D01*
X106417Y-20786D01*
X106415Y-20785D01*
X106362Y-20756D01*
X106331Y-20730D01*
X106318Y-20719D01*
X106316Y-20717D01*
X105830Y-20232D01*
X103226Y-20232D01*
X103276Y-20282D01*
X103288Y-20278D01*
X103432Y-20251D01*
X103579Y-20252D01*
X103723Y-20281D01*
X103858Y-20338D01*
X103980Y-20420D01*
X104083Y-20525D01*
X104165Y-20647D01*
X104221Y-20783D01*
X104249Y-20927D01*
X104247Y-21095D01*
X104214Y-21238D01*
X104154Y-21372D01*
X104069Y-21492D01*
X103963Y-21593D01*
X103839Y-21672D01*
X103702Y-21725D01*
X103557Y-21750D01*
X103410Y-21747D01*
X103267Y-21716D01*
X103132Y-21657D01*
X103012Y-21573D01*
X102910Y-21467D01*
X102830Y-21344D01*
X102776Y-21207D01*
X102750Y-21063D01*
X102752Y-20916D01*
X102782Y-20776D01*
X102541Y-20536D01*
X99590Y-20536D01*
X99665Y-20647D01*
X99721Y-20783D01*
X99749Y-20927D01*
X99747Y-21095D01*
X99714Y-21238D01*
X99654Y-21372D01*
X99569Y-21492D01*
X99463Y-21593D01*
X99339Y-21672D01*
X99202Y-21725D01*
X99057Y-21750D01*
X98910Y-21747D01*
X98767Y-21716D01*
X98632Y-21657D01*
X98512Y-21573D01*
X98410Y-21467D01*
X98330Y-21344D01*
X98276Y-21207D01*
X98250Y-21063D01*
X98252Y-20916D01*
X98283Y-20772D01*
X98341Y-20637D01*
X98410Y-20536D01*
X95090Y-20536D01*
X95165Y-20647D01*
X95221Y-20783D01*
X95249Y-20927D01*
X95247Y-21095D01*
X95214Y-21238D01*
X95154Y-21372D01*
X95069Y-21492D01*
X94963Y-21593D01*
X94839Y-21672D01*
X94702Y-21725D01*
X94557Y-21750D01*
X94410Y-21747D01*
X94276Y-21718D01*
X92518Y-23475D01*
X92514Y-23481D01*
X92512Y-23482D01*
X92511Y-23484D01*
X92501Y-23491D01*
X92461Y-23525D01*
X92400Y-23557D01*
X92397Y-23557D01*
X92397Y-23558D01*
X92369Y-23565D01*
X92335Y-23576D01*
X92334Y-23576D01*
X92331Y-23577D01*
X92291Y-23580D01*
X92267Y-23583D01*
X61099Y-23583D01*
X61055Y-23577D01*
X61034Y-23576D01*
X60968Y-23556D01*
X60966Y-23555D01*
X60906Y-23522D01*
X60864Y-23487D01*
X60856Y-23480D01*
X60853Y-23477D01*
X60644Y-23267D01*
X60639Y-23263D01*
X60636Y-23260D01*
X60628Y-23250D01*
X60595Y-23210D01*
X60563Y-23149D01*
X60562Y-23146D01*
X60553Y-23118D01*
X60544Y-23084D01*
X60543Y-23083D01*
X60543Y-23080D01*
X60539Y-23040D01*
X60537Y-23016D01*
X60537Y-22096D01*
X60513Y-22112D01*
X60435Y-22142D01*
X60353Y-22157D01*
X60270Y-22155D01*
X60188Y-22137D01*
X60160Y-22124D01*
X60160Y-22395D01*
X60150Y-22443D01*
X60131Y-22488D01*
X60122Y-22500D01*
X60132Y-22515D01*
X60151Y-22560D01*
X60160Y-22608D01*
X60160Y-22895D01*
X60150Y-22943D01*
X60131Y-22988D01*
X60103Y-23028D01*
X60068Y-23063D01*
X60027Y-23090D01*
X59982Y-23109D01*
X59934Y-23118D01*
X59017Y-23118D01*
X58975Y-23109D01*
X58515Y-23569D01*
X58511Y-23575D01*
X58509Y-23576D01*
X58508Y-23578D01*
X58498Y-23585D01*
X58458Y-23619D01*
X58397Y-23651D01*
X58394Y-23651D01*
X58394Y-23652D01*
X58366Y-23660D01*
X58332Y-23670D01*
X58331Y-23670D01*
X58328Y-23671D01*
X58288Y-23674D01*
X58264Y-23677D01*
X50896Y-23677D01*
X50848Y-23708D01*
X50803Y-23725D01*
X106581Y-23725D01*
X106581Y-23552D01*
X106375Y-23548D01*
X106174Y-23503D01*
X105985Y-23421D01*
X105816Y-23303D01*
X105673Y-23155D01*
X105562Y-22982D01*
X105486Y-22791D01*
X105449Y-22588D01*
X105452Y-22382D01*
X105494Y-22181D01*
X105575Y-21992D01*
X105692Y-21822D01*
X105839Y-21678D01*
X106011Y-21565D01*
X106202Y-21488D01*
X106404Y-21449D01*
X106610Y-21451D01*
X106812Y-21492D01*
X107002Y-21572D01*
X107172Y-21687D01*
X107318Y-21833D01*
X107432Y-22005D01*
X107510Y-22195D01*
X107550Y-22397D01*
X107547Y-22632D01*
X107501Y-22833D01*
X107417Y-23021D01*
X107299Y-23189D01*
X107150Y-23331D01*
X106976Y-23442D01*
X106784Y-23516D01*
X106581Y-23552D01*
X106581Y-23725D01*
X107725Y-23725D01*
X107725Y-23725D01*
G37*
G54D32*
X107725Y-23725D02*
X107725Y-11775D01*
X68037Y-11775D01*
X70948Y-14686D01*
X70955Y-14695D01*
X70985Y-14731D01*
X71014Y-14785D01*
X71031Y-14843D01*
X71037Y-14903D01*
X71037Y-15674D01*
X71058Y-15695D01*
X71104Y-15764D01*
X71136Y-15841D01*
X71152Y-15923D01*
X71151Y-16018D01*
X71132Y-16099D01*
X71098Y-16176D01*
X71051Y-16244D01*
X70990Y-16301D01*
X70920Y-16346D01*
X70842Y-16376D01*
X70760Y-16391D01*
X70677Y-16389D01*
X70595Y-16371D01*
X70519Y-16338D01*
X70450Y-16290D01*
X70393Y-16231D01*
X70347Y-16161D01*
X70317Y-16083D01*
X70301Y-16001D01*
X70303Y-15918D01*
X70320Y-15836D01*
X70353Y-15760D01*
X70400Y-15691D01*
X70417Y-15674D01*
X70417Y-15031D01*
X67574Y-12188D01*
X65639Y-12188D01*
X65677Y-12226D01*
X65737Y-12316D01*
X65778Y-12415D01*
X65799Y-12521D01*
X65797Y-12644D01*
X65774Y-12749D01*
X65737Y-12831D01*
X67963Y-12831D01*
X67980Y-12833D01*
X68020Y-12837D01*
X68079Y-12855D01*
X68080Y-12855D01*
X68081Y-12856D01*
X68134Y-12885D01*
X68164Y-12910D01*
X68178Y-12922D01*
X70040Y-14784D01*
X70047Y-14792D01*
X70076Y-14828D01*
X70105Y-14882D01*
X70105Y-14884D01*
X70106Y-14885D01*
X70123Y-14943D01*
X70126Y-14985D01*
X70128Y-15000D01*
X70128Y-16844D01*
X71040Y-16844D01*
X71057Y-16846D01*
X71097Y-16850D01*
X71142Y-16864D01*
X71343Y-16864D01*
X71330Y-16844D01*
X71276Y-16707D01*
X71250Y-16563D01*
X71252Y-16416D01*
X71283Y-16272D01*
X71341Y-16137D01*
X71424Y-16016D01*
X71529Y-15913D01*
X71652Y-15833D01*
X71788Y-15778D01*
X71932Y-15751D01*
X72079Y-15752D01*
X72223Y-15781D01*
X72358Y-15838D01*
X72480Y-15920D01*
X72583Y-16025D01*
X72665Y-16147D01*
X72721Y-16283D01*
X72749Y-16427D01*
X72747Y-16595D01*
X72714Y-16738D01*
X72657Y-16864D01*
X75843Y-16864D01*
X75830Y-16844D01*
X75776Y-16707D01*
X75750Y-16563D01*
X75752Y-16416D01*
X75783Y-16272D01*
X75841Y-16137D01*
X75924Y-16016D01*
X76029Y-15913D01*
X76152Y-15833D01*
X76288Y-15778D01*
X76432Y-15751D01*
X76557Y-15751D01*
X76557Y-15250D01*
X76410Y-15247D01*
X76267Y-15216D01*
X76132Y-15157D01*
X76012Y-15073D01*
X75910Y-14967D01*
X75833Y-14850D01*
X72663Y-14850D01*
X72654Y-14872D01*
X72569Y-14992D01*
X72463Y-15093D01*
X72339Y-15172D01*
X72202Y-15225D01*
X72057Y-15250D01*
X71910Y-15247D01*
X71767Y-15216D01*
X71632Y-15157D01*
X71512Y-15073D01*
X71410Y-14967D01*
X71330Y-14844D01*
X71276Y-14707D01*
X71250Y-14563D01*
X71252Y-14416D01*
X71283Y-14272D01*
X71341Y-14137D01*
X71424Y-14016D01*
X71529Y-13913D01*
X71652Y-13833D01*
X71788Y-13778D01*
X71932Y-13751D01*
X72079Y-13752D01*
X72223Y-13781D01*
X72358Y-13838D01*
X72480Y-13920D01*
X72583Y-14025D01*
X72665Y-14147D01*
X72666Y-14150D01*
X75835Y-14150D01*
X75841Y-14137D01*
X75924Y-14016D01*
X76029Y-13913D01*
X76152Y-13833D01*
X76288Y-13778D01*
X76432Y-13751D01*
X76579Y-13752D01*
X76723Y-13781D01*
X76858Y-13838D01*
X76980Y-13920D01*
X77083Y-14025D01*
X77165Y-14147D01*
X77221Y-14283D01*
X77249Y-14427D01*
X77247Y-14595D01*
X77214Y-14738D01*
X77154Y-14872D01*
X77069Y-14992D01*
X76963Y-15093D01*
X76839Y-15172D01*
X76702Y-15225D01*
X76557Y-15250D01*
X76557Y-15751D01*
X76579Y-15752D01*
X76723Y-15781D01*
X76858Y-15838D01*
X76980Y-15920D01*
X77083Y-16025D01*
X77165Y-16147D01*
X77221Y-16283D01*
X77249Y-16427D01*
X77247Y-16595D01*
X77214Y-16738D01*
X77157Y-16865D01*
X77163Y-16866D01*
X77203Y-16870D01*
X77262Y-16888D01*
X77263Y-16888D01*
X77264Y-16889D01*
X77317Y-16918D01*
X77347Y-16943D01*
X77361Y-16955D01*
X79794Y-19388D01*
X80358Y-19388D01*
X80330Y-19344D01*
X80276Y-19207D01*
X80250Y-19063D01*
X80252Y-18916D01*
X80283Y-18772D01*
X80341Y-18637D01*
X80424Y-18516D01*
X80529Y-18413D01*
X80652Y-18333D01*
X80788Y-18278D01*
X80932Y-18251D01*
X81057Y-18251D01*
X81057Y-17250D01*
X80910Y-17247D01*
X80767Y-17216D01*
X80632Y-17157D01*
X80512Y-17073D01*
X80410Y-16967D01*
X80330Y-16844D01*
X80276Y-16707D01*
X80250Y-16563D01*
X80252Y-16416D01*
X80283Y-16272D01*
X80341Y-16137D01*
X80424Y-16016D01*
X80529Y-15913D01*
X80652Y-15833D01*
X80788Y-15778D01*
X80932Y-15751D01*
X81079Y-15752D01*
X81223Y-15781D01*
X81358Y-15838D01*
X81480Y-15920D01*
X81583Y-16025D01*
X81665Y-16147D01*
X81721Y-16283D01*
X81749Y-16427D01*
X81747Y-16595D01*
X81714Y-16738D01*
X81654Y-16872D01*
X81569Y-16992D01*
X81463Y-17093D01*
X81339Y-17172D01*
X81202Y-17225D01*
X81057Y-17250D01*
X81057Y-18251D01*
X81079Y-18252D01*
X81223Y-18281D01*
X81358Y-18338D01*
X81480Y-18420D01*
X81583Y-18525D01*
X81665Y-18647D01*
X81721Y-18783D01*
X81749Y-18927D01*
X81747Y-19095D01*
X81714Y-19238D01*
X81654Y-19372D01*
X81642Y-19388D01*
X84858Y-19388D01*
X84830Y-19344D01*
X84776Y-19207D01*
X84750Y-19063D01*
X84752Y-18916D01*
X84783Y-18772D01*
X84841Y-18637D01*
X84924Y-18516D01*
X85029Y-18413D01*
X85152Y-18333D01*
X85288Y-18278D01*
X85432Y-18251D01*
X85557Y-18251D01*
X85557Y-17250D01*
X85410Y-17247D01*
X85267Y-17216D01*
X85132Y-17157D01*
X85012Y-17073D01*
X84910Y-16967D01*
X84830Y-16844D01*
X84776Y-16707D01*
X84750Y-16563D01*
X84752Y-16416D01*
X84783Y-16272D01*
X84841Y-16137D01*
X84924Y-16016D01*
X85029Y-15913D01*
X85152Y-15833D01*
X85288Y-15778D01*
X85432Y-15751D01*
X85557Y-15751D01*
X85557Y-15250D01*
X85410Y-15247D01*
X85267Y-15216D01*
X85132Y-15157D01*
X85012Y-15073D01*
X84910Y-14967D01*
X84833Y-14850D01*
X81663Y-14850D01*
X81654Y-14872D01*
X81569Y-14992D01*
X81463Y-15093D01*
X81339Y-15172D01*
X81202Y-15225D01*
X81057Y-15250D01*
X80910Y-15247D01*
X80767Y-15216D01*
X80632Y-15157D01*
X80512Y-15073D01*
X80410Y-14967D01*
X80330Y-14844D01*
X80276Y-14707D01*
X80250Y-14563D01*
X80252Y-14416D01*
X80283Y-14272D01*
X80341Y-14137D01*
X80424Y-14016D01*
X80529Y-13913D01*
X80652Y-13833D01*
X80788Y-13778D01*
X80932Y-13751D01*
X81079Y-13752D01*
X81223Y-13781D01*
X81358Y-13838D01*
X81480Y-13920D01*
X81583Y-14025D01*
X81665Y-14147D01*
X81666Y-14150D01*
X84835Y-14150D01*
X84841Y-14137D01*
X84924Y-14016D01*
X85029Y-13913D01*
X85152Y-13833D01*
X85288Y-13778D01*
X85432Y-13751D01*
X85579Y-13752D01*
X85723Y-13781D01*
X85858Y-13838D01*
X85980Y-13920D01*
X86083Y-14025D01*
X86165Y-14147D01*
X86221Y-14283D01*
X86249Y-14427D01*
X86247Y-14595D01*
X86214Y-14738D01*
X86154Y-14872D01*
X86069Y-14992D01*
X85963Y-15093D01*
X85839Y-15172D01*
X85702Y-15225D01*
X85557Y-15250D01*
X85557Y-15751D01*
X85579Y-15752D01*
X85723Y-15781D01*
X85858Y-15838D01*
X85980Y-15920D01*
X86083Y-16025D01*
X86165Y-16147D01*
X86221Y-16283D01*
X86249Y-16427D01*
X86247Y-16595D01*
X86214Y-16738D01*
X86154Y-16872D01*
X86069Y-16992D01*
X85963Y-17093D01*
X85839Y-17172D01*
X85702Y-17225D01*
X85557Y-17250D01*
X85557Y-18251D01*
X85579Y-18252D01*
X85723Y-18281D01*
X85858Y-18338D01*
X85980Y-18420D01*
X86083Y-18525D01*
X86165Y-18647D01*
X86221Y-18783D01*
X86249Y-18927D01*
X86247Y-19095D01*
X86214Y-19238D01*
X86154Y-19372D01*
X86142Y-19388D01*
X89358Y-19388D01*
X89330Y-19344D01*
X89276Y-19207D01*
X89250Y-19063D01*
X89252Y-18916D01*
X89283Y-18772D01*
X89341Y-18637D01*
X89424Y-18516D01*
X89529Y-18413D01*
X89652Y-18333D01*
X89788Y-18278D01*
X89932Y-18251D01*
X90057Y-18251D01*
X90057Y-17250D01*
X89910Y-17247D01*
X89767Y-17216D01*
X89632Y-17157D01*
X89512Y-17073D01*
X89410Y-16967D01*
X89330Y-16844D01*
X89276Y-16707D01*
X89250Y-16563D01*
X89252Y-16416D01*
X89283Y-16272D01*
X89341Y-16137D01*
X89424Y-16016D01*
X89529Y-15913D01*
X89652Y-15833D01*
X89788Y-15778D01*
X89932Y-15751D01*
X90079Y-15752D01*
X90223Y-15781D01*
X90358Y-15838D01*
X90480Y-15920D01*
X90583Y-16025D01*
X90665Y-16147D01*
X90721Y-16283D01*
X90749Y-16427D01*
X90747Y-16595D01*
X90714Y-16738D01*
X90654Y-16872D01*
X90569Y-16992D01*
X90463Y-17093D01*
X90339Y-17172D01*
X90202Y-17225D01*
X90057Y-17250D01*
X90057Y-18251D01*
X90079Y-18252D01*
X90223Y-18281D01*
X90358Y-18338D01*
X90480Y-18420D01*
X90583Y-18525D01*
X90665Y-18647D01*
X90721Y-18783D01*
X90749Y-18927D01*
X90747Y-19095D01*
X90714Y-19238D01*
X90654Y-19372D01*
X90642Y-19388D01*
X93858Y-19388D01*
X93830Y-19344D01*
X93776Y-19207D01*
X93750Y-19063D01*
X93752Y-18916D01*
X93783Y-18772D01*
X93841Y-18637D01*
X93924Y-18516D01*
X94029Y-18413D01*
X94152Y-18333D01*
X94288Y-18278D01*
X94432Y-18251D01*
X94557Y-18251D01*
X94557Y-17250D01*
X94410Y-17247D01*
X94267Y-17216D01*
X94132Y-17157D01*
X94012Y-17073D01*
X93910Y-16967D01*
X93830Y-16844D01*
X93776Y-16707D01*
X93750Y-16563D01*
X93752Y-16416D01*
X93783Y-16272D01*
X93841Y-16137D01*
X93924Y-16016D01*
X94029Y-15913D01*
X94152Y-15833D01*
X94288Y-15778D01*
X94432Y-15751D01*
X94557Y-15751D01*
X94557Y-15250D01*
X94410Y-15247D01*
X94267Y-15216D01*
X94132Y-15157D01*
X94012Y-15073D01*
X93910Y-14967D01*
X93833Y-14850D01*
X90663Y-14850D01*
X90654Y-14872D01*
X90569Y-14992D01*
X90463Y-15093D01*
X90339Y-15172D01*
X90202Y-15225D01*
X90057Y-15250D01*
X89910Y-15247D01*
X89767Y-15216D01*
X89632Y-15157D01*
X89512Y-15073D01*
X89410Y-14967D01*
X89330Y-14844D01*
X89276Y-14707D01*
X89250Y-14563D01*
X89252Y-14416D01*
X89283Y-14272D01*
X89341Y-14137D01*
X89424Y-14016D01*
X89529Y-13913D01*
X89652Y-13833D01*
X89788Y-13778D01*
X89932Y-13751D01*
X90079Y-13752D01*
X90223Y-13781D01*
X90358Y-13838D01*
X90480Y-13920D01*
X90583Y-14025D01*
X90665Y-14147D01*
X90666Y-14150D01*
X93835Y-14150D01*
X93841Y-14137D01*
X93924Y-14016D01*
X94029Y-13913D01*
X94152Y-13833D01*
X94288Y-13778D01*
X94432Y-13751D01*
X94579Y-13752D01*
X94723Y-13781D01*
X94858Y-13838D01*
X94980Y-13920D01*
X95083Y-14025D01*
X95165Y-14147D01*
X95221Y-14283D01*
X95249Y-14427D01*
X95247Y-14595D01*
X95214Y-14738D01*
X95154Y-14872D01*
X95069Y-14992D01*
X94963Y-15093D01*
X94839Y-15172D01*
X94702Y-15225D01*
X94557Y-15250D01*
X94557Y-15751D01*
X94579Y-15752D01*
X94723Y-15781D01*
X94858Y-15838D01*
X94980Y-15920D01*
X95083Y-16025D01*
X95165Y-16147D01*
X95221Y-16283D01*
X95249Y-16427D01*
X95247Y-16595D01*
X95214Y-16738D01*
X95154Y-16872D01*
X95069Y-16992D01*
X94963Y-17093D01*
X94839Y-17172D01*
X94702Y-17225D01*
X94557Y-17250D01*
X94557Y-18251D01*
X94579Y-18252D01*
X94723Y-18281D01*
X94858Y-18338D01*
X94980Y-18420D01*
X95083Y-18525D01*
X95165Y-18647D01*
X95221Y-18783D01*
X95249Y-18927D01*
X95247Y-19095D01*
X95214Y-19238D01*
X95154Y-19372D01*
X95142Y-19388D01*
X98358Y-19388D01*
X98330Y-19344D01*
X98276Y-19207D01*
X98250Y-19063D01*
X98252Y-18916D01*
X98283Y-18772D01*
X98341Y-18637D01*
X98424Y-18516D01*
X98529Y-18413D01*
X98652Y-18333D01*
X98788Y-18278D01*
X98932Y-18251D01*
X99057Y-18251D01*
X99057Y-17250D01*
X98910Y-17247D01*
X98767Y-17216D01*
X98632Y-17157D01*
X98512Y-17073D01*
X98410Y-16967D01*
X98330Y-16844D01*
X98276Y-16707D01*
X98250Y-16563D01*
X98252Y-16416D01*
X98283Y-16272D01*
X98341Y-16137D01*
X98424Y-16016D01*
X98529Y-15913D01*
X98652Y-15833D01*
X98788Y-15778D01*
X98932Y-15751D01*
X99079Y-15752D01*
X99223Y-15781D01*
X99358Y-15838D01*
X99480Y-15920D01*
X99583Y-16025D01*
X99665Y-16147D01*
X99721Y-16283D01*
X99749Y-16427D01*
X99747Y-16595D01*
X99714Y-16738D01*
X99654Y-16872D01*
X99569Y-16992D01*
X99463Y-17093D01*
X99339Y-17172D01*
X99202Y-17225D01*
X99057Y-17250D01*
X99057Y-18251D01*
X99079Y-18252D01*
X99223Y-18281D01*
X99358Y-18338D01*
X99480Y-18420D01*
X99583Y-18525D01*
X99665Y-18647D01*
X99721Y-18783D01*
X99749Y-18927D01*
X99747Y-19095D01*
X99714Y-19238D01*
X99654Y-19372D01*
X99642Y-19388D01*
X102858Y-19388D01*
X102830Y-19344D01*
X102776Y-19207D01*
X102750Y-19063D01*
X102752Y-18916D01*
X102783Y-18772D01*
X102841Y-18637D01*
X102924Y-18516D01*
X103029Y-18413D01*
X103150Y-18334D01*
X103150Y-17164D01*
X103132Y-17157D01*
X103012Y-17073D01*
X102910Y-16967D01*
X102830Y-16844D01*
X102776Y-16707D01*
X102750Y-16563D01*
X102752Y-16416D01*
X102783Y-16272D01*
X102841Y-16137D01*
X102924Y-16016D01*
X103029Y-15913D01*
X103152Y-15833D01*
X103288Y-15778D01*
X103432Y-15751D01*
X103557Y-15751D01*
X103557Y-15250D01*
X103410Y-15247D01*
X103267Y-15216D01*
X103132Y-15157D01*
X103012Y-15073D01*
X102910Y-14967D01*
X102833Y-14850D01*
X99663Y-14850D01*
X99654Y-14872D01*
X99569Y-14992D01*
X99463Y-15093D01*
X99339Y-15172D01*
X99202Y-15225D01*
X99057Y-15250D01*
X98910Y-15247D01*
X98767Y-15216D01*
X98632Y-15157D01*
X98512Y-15073D01*
X98410Y-14967D01*
X98330Y-14844D01*
X98276Y-14707D01*
X98250Y-14563D01*
X98252Y-14416D01*
X98283Y-14272D01*
X98341Y-14137D01*
X98424Y-14016D01*
X98529Y-13913D01*
X98652Y-13833D01*
X98788Y-13778D01*
X98932Y-13751D01*
X99079Y-13752D01*
X99223Y-13781D01*
X99358Y-13838D01*
X99480Y-13920D01*
X99583Y-14025D01*
X99665Y-14147D01*
X99666Y-14150D01*
X102835Y-14150D01*
X102841Y-14137D01*
X102924Y-14016D01*
X103029Y-13913D01*
X103152Y-13833D01*
X103288Y-13778D01*
X103432Y-13751D01*
X103579Y-13752D01*
X103723Y-13781D01*
X103858Y-13838D01*
X103980Y-13920D01*
X104083Y-14025D01*
X104165Y-14147D01*
X104221Y-14283D01*
X104249Y-14427D01*
X104247Y-14595D01*
X104214Y-14738D01*
X104154Y-14872D01*
X104069Y-14992D01*
X103963Y-15093D01*
X103839Y-15172D01*
X103702Y-15225D01*
X103557Y-15250D01*
X103557Y-15751D01*
X103579Y-15752D01*
X103723Y-15781D01*
X103858Y-15838D01*
X103980Y-15920D01*
X104083Y-16025D01*
X104165Y-16147D01*
X104221Y-16283D01*
X104249Y-16427D01*
X104247Y-16595D01*
X104214Y-16738D01*
X104154Y-16872D01*
X104069Y-16992D01*
X103963Y-17093D01*
X103850Y-17164D01*
X103850Y-18334D01*
X103858Y-18338D01*
X103980Y-18420D01*
X104083Y-18525D01*
X104165Y-18647D01*
X104221Y-18783D01*
X104249Y-18927D01*
X104247Y-19095D01*
X104214Y-19238D01*
X104154Y-19372D01*
X104142Y-19388D01*
X106462Y-19388D01*
X106474Y-19333D01*
X106517Y-19234D01*
X106577Y-19146D01*
X106654Y-19070D01*
X106744Y-19011D01*
X106771Y-18999D01*
X106731Y-18982D01*
X106643Y-18920D01*
X106568Y-18843D01*
X106509Y-18752D01*
X106470Y-18652D01*
X106450Y-18546D01*
X106452Y-18439D01*
X106474Y-18333D01*
X106517Y-18234D01*
X106577Y-18146D01*
X106654Y-18070D01*
X106744Y-18011D01*
X106771Y-17999D01*
X106731Y-17982D01*
X106643Y-17920D01*
X106568Y-17843D01*
X106509Y-17752D01*
X106493Y-17713D01*
X105829Y-18378D01*
X105829Y-18507D01*
X105818Y-18604D01*
X105789Y-18697D01*
X105742Y-18782D01*
X105679Y-18857D01*
X105603Y-18918D01*
X105516Y-18964D01*
X105423Y-18991D01*
X105326Y-19000D01*
X105228Y-18990D01*
X105135Y-18961D01*
X105049Y-18915D01*
X104974Y-18852D01*
X104913Y-18777D01*
X104867Y-18691D01*
X104839Y-18597D01*
X104829Y-18500D01*
X104829Y-18164D01*
X104835Y-18107D01*
X104839Y-18073D01*
X104839Y-18071D01*
X104840Y-18067D01*
X104857Y-18010D01*
X104867Y-17979D01*
X104868Y-17977D01*
X104869Y-17974D01*
X104916Y-17889D01*
X104943Y-17856D01*
X104975Y-17817D01*
X106484Y-16308D01*
X106517Y-16234D01*
X106577Y-16146D01*
X106654Y-16070D01*
X106744Y-16011D01*
X106771Y-15999D01*
X106731Y-15982D01*
X106643Y-15920D01*
X106568Y-15843D01*
X106509Y-15752D01*
X106470Y-15652D01*
X106450Y-15546D01*
X106452Y-15439D01*
X106474Y-15333D01*
X106517Y-15234D01*
X106577Y-15146D01*
X106581Y-15142D01*
X106581Y-14052D01*
X106375Y-14048D01*
X106174Y-14003D01*
X105985Y-13921D01*
X105816Y-13803D01*
X105673Y-13655D01*
X105573Y-13500D01*
X75426Y-13500D01*
X75417Y-13521D01*
X75299Y-13689D01*
X75150Y-13831D01*
X74976Y-13942D01*
X74784Y-14016D01*
X74581Y-14052D01*
X74375Y-14048D01*
X74174Y-14003D01*
X73985Y-13921D01*
X73816Y-13803D01*
X73673Y-13655D01*
X73562Y-13482D01*
X73486Y-13291D01*
X73449Y-13088D01*
X73452Y-12882D01*
X73494Y-12681D01*
X73575Y-12492D01*
X73692Y-12322D01*
X73839Y-12178D01*
X74011Y-12065D01*
X74202Y-11988D01*
X74404Y-11949D01*
X74610Y-11951D01*
X74812Y-11992D01*
X75002Y-12072D01*
X75172Y-12187D01*
X75318Y-12333D01*
X75428Y-12500D01*
X105571Y-12500D01*
X105575Y-12492D01*
X105692Y-12322D01*
X105839Y-12178D01*
X106011Y-12065D01*
X106202Y-11988D01*
X106404Y-11949D01*
X106610Y-11951D01*
X106812Y-11992D01*
X107002Y-12072D01*
X107172Y-12187D01*
X107318Y-12333D01*
X107432Y-12505D01*
X107510Y-12695D01*
X107550Y-12897D01*
X107547Y-13132D01*
X107501Y-13333D01*
X107417Y-13521D01*
X107299Y-13689D01*
X107150Y-13831D01*
X106976Y-13942D01*
X106784Y-14016D01*
X106581Y-14052D01*
X106581Y-15142D01*
X106654Y-15070D01*
X106744Y-15011D01*
X106844Y-14971D01*
X106950Y-14951D01*
X107057Y-14951D01*
X107163Y-14973D01*
X107262Y-15015D01*
X107352Y-15075D01*
X107427Y-15151D01*
X107487Y-15241D01*
X107528Y-15340D01*
X107549Y-15446D01*
X107547Y-15569D01*
X107524Y-15674D01*
X107480Y-15772D01*
X107418Y-15860D01*
X107340Y-15935D01*
X107249Y-15992D01*
X107227Y-16000D01*
X107262Y-16015D01*
X107352Y-16075D01*
X107427Y-16151D01*
X107487Y-16241D01*
X107528Y-16340D01*
X107549Y-16446D01*
X107547Y-16569D01*
X107524Y-16674D01*
X107480Y-16772D01*
X107418Y-16860D01*
X107340Y-16935D01*
X107249Y-16992D01*
X107227Y-17000D01*
X107262Y-17015D01*
X107352Y-17075D01*
X107427Y-17151D01*
X107487Y-17241D01*
X107528Y-17340D01*
X107549Y-17446D01*
X107547Y-17569D01*
X107524Y-17674D01*
X107480Y-17772D01*
X107418Y-17860D01*
X107340Y-17935D01*
X107249Y-17992D01*
X107227Y-18000D01*
X107262Y-18015D01*
X107352Y-18075D01*
X107427Y-18151D01*
X107487Y-18241D01*
X107528Y-18340D01*
X107549Y-18446D01*
X107547Y-18569D01*
X107524Y-18674D01*
X107480Y-18772D01*
X107418Y-18860D01*
X107340Y-18935D01*
X107249Y-18992D01*
X107227Y-19000D01*
X107262Y-19015D01*
X107352Y-19075D01*
X107427Y-19151D01*
X107487Y-19241D01*
X107528Y-19340D01*
X107549Y-19446D01*
X107547Y-19569D01*
X107524Y-19674D01*
X107480Y-19772D01*
X107418Y-19860D01*
X107340Y-19935D01*
X107316Y-19950D01*
X107327Y-19950D01*
X107375Y-19960D01*
X107420Y-19979D01*
X107460Y-20007D01*
X107495Y-20042D01*
X107522Y-20083D01*
X107541Y-20128D01*
X107550Y-20176D01*
X107550Y-20827D01*
X107540Y-20875D01*
X107521Y-20920D01*
X107493Y-20960D01*
X107458Y-20995D01*
X107417Y-21022D01*
X107372Y-21041D01*
X107324Y-21050D01*
X106673Y-21050D01*
X106625Y-21040D01*
X106580Y-21021D01*
X106540Y-20993D01*
X106505Y-20958D01*
X106478Y-20917D01*
X106459Y-20872D01*
X106450Y-20824D01*
X106450Y-20796D01*
X106417Y-20786D01*
X106415Y-20785D01*
X106362Y-20756D01*
X106331Y-20730D01*
X106318Y-20719D01*
X106316Y-20717D01*
X105830Y-20232D01*
X103226Y-20232D01*
X103276Y-20282D01*
X103288Y-20278D01*
X103432Y-20251D01*
X103579Y-20252D01*
X103723Y-20281D01*
X103858Y-20338D01*
X103980Y-20420D01*
X104083Y-20525D01*
X104165Y-20647D01*
X104221Y-20783D01*
X104249Y-20927D01*
X104247Y-21095D01*
X104214Y-21238D01*
X104154Y-21372D01*
X104069Y-21492D01*
X103963Y-21593D01*
X103839Y-21672D01*
X103702Y-21725D01*
X103557Y-21750D01*
X103410Y-21747D01*
X103267Y-21716D01*
X103132Y-21657D01*
X103012Y-21573D01*
X102910Y-21467D01*
X102830Y-21344D01*
X102776Y-21207D01*
X102750Y-21063D01*
X102752Y-20916D01*
X102782Y-20776D01*
X102541Y-20536D01*
X99590Y-20536D01*
X99665Y-20647D01*
X99721Y-20783D01*
X99749Y-20927D01*
X99747Y-21095D01*
X99714Y-21238D01*
X99654Y-21372D01*
X99569Y-21492D01*
X99463Y-21593D01*
X99339Y-21672D01*
X99202Y-21725D01*
X99057Y-21750D01*
X98910Y-21747D01*
X98767Y-21716D01*
X98632Y-21657D01*
X98512Y-21573D01*
X98410Y-21467D01*
X98330Y-21344D01*
X98276Y-21207D01*
X98250Y-21063D01*
X98252Y-20916D01*
X98283Y-20772D01*
X98341Y-20637D01*
X98410Y-20536D01*
X95090Y-20536D01*
X95165Y-20647D01*
X95221Y-20783D01*
X95249Y-20927D01*
X95247Y-21095D01*
X95214Y-21238D01*
X95154Y-21372D01*
X95069Y-21492D01*
X94963Y-21593D01*
X94839Y-21672D01*
X94702Y-21725D01*
X94557Y-21750D01*
X94410Y-21747D01*
X94276Y-21718D01*
X92518Y-23475D01*
X92514Y-23481D01*
X92512Y-23482D01*
X92511Y-23484D01*
X92501Y-23491D01*
X92461Y-23525D01*
X92400Y-23557D01*
X92397Y-23557D01*
X92397Y-23558D01*
X92369Y-23565D01*
X92335Y-23576D01*
X92334Y-23576D01*
X92331Y-23577D01*
X92291Y-23580D01*
X92267Y-23583D01*
X61099Y-23583D01*
X61055Y-23577D01*
X61034Y-23576D01*
X60968Y-23556D01*
X60966Y-23555D01*
X60906Y-23522D01*
X60864Y-23487D01*
X60856Y-23480D01*
X60853Y-23477D01*
X60644Y-23267D01*
X60639Y-23263D01*
X60636Y-23260D01*
X60628Y-23250D01*
X60595Y-23210D01*
X60563Y-23149D01*
X60562Y-23146D01*
X60553Y-23118D01*
X60544Y-23084D01*
X60543Y-23083D01*
X60543Y-23080D01*
X60539Y-23040D01*
X60537Y-23016D01*
X60537Y-22096D01*
X60513Y-22112D01*
X60435Y-22142D01*
X60353Y-22157D01*
X60270Y-22155D01*
X60188Y-22137D01*
X60160Y-22124D01*
X60160Y-22395D01*
X60150Y-22443D01*
X60131Y-22488D01*
X60122Y-22500D01*
X60132Y-22515D01*
X60151Y-22560D01*
X60160Y-22608D01*
X60160Y-22895D01*
X60150Y-22943D01*
X60131Y-22988D01*
X60103Y-23028D01*
X60068Y-23063D01*
X60027Y-23090D01*
X59982Y-23109D01*
X59934Y-23118D01*
X59017Y-23118D01*
X58975Y-23109D01*
X58515Y-23569D01*
X58511Y-23575D01*
X58509Y-23576D01*
X58508Y-23578D01*
X58498Y-23585D01*
X58458Y-23619D01*
X58397Y-23651D01*
X58394Y-23651D01*
X58394Y-23652D01*
X58366Y-23660D01*
X58332Y-23670D01*
X58331Y-23670D01*
X58328Y-23671D01*
X58288Y-23674D01*
X58264Y-23677D01*
X50896Y-23677D01*
X50848Y-23708D01*
X50803Y-23725D01*
X106581Y-23725D01*
X106581Y-23552D01*
X106375Y-23548D01*
X106174Y-23503D01*
X105985Y-23421D01*
X105816Y-23303D01*
X105673Y-23155D01*
X105562Y-22982D01*
X105486Y-22791D01*
X105449Y-22588D01*
X105452Y-22382D01*
X105494Y-22181D01*
X105575Y-21992D01*
X105692Y-21822D01*
X105839Y-21678D01*
X106011Y-21565D01*
X106202Y-21488D01*
X106404Y-21449D01*
X106610Y-21451D01*
X106812Y-21492D01*
X107002Y-21572D01*
X107172Y-21687D01*
X107318Y-21833D01*
X107432Y-22005D01*
X107510Y-22195D01*
X107550Y-22397D01*
X107547Y-22632D01*
X107501Y-22833D01*
X107417Y-23021D01*
X107299Y-23189D01*
X107150Y-23331D01*
X106976Y-23442D01*
X106784Y-23516D01*
X106581Y-23552D01*
X106581Y-23725D01*
X107725Y-23725D01*
G54D10*
G36*
X50504Y-23725D02*
X50447Y-23700D01*
X50378Y-23652D01*
X50321Y-23593D01*
X50275Y-23523D01*
X50245Y-23445D01*
X50229Y-23363D01*
X50231Y-23280D01*
X50248Y-23198D01*
X50257Y-23175D01*
X44997Y-23175D01*
X44949Y-23206D01*
X44871Y-23236D01*
X44789Y-23251D01*
X44706Y-23249D01*
X44624Y-23231D01*
X44548Y-23198D01*
X44479Y-23150D01*
X44422Y-23091D01*
X44376Y-23021D01*
X44346Y-22943D01*
X44330Y-22861D01*
X44332Y-22778D01*
X44349Y-22696D01*
X44355Y-22680D01*
X27325Y-22680D01*
X27281Y-22674D01*
X27260Y-22673D01*
X27194Y-22653D01*
X27192Y-22652D01*
X27132Y-22619D01*
X27090Y-22584D01*
X27082Y-22577D01*
X26222Y-21717D01*
X26202Y-21725D01*
X26057Y-21750D01*
X25910Y-21747D01*
X25767Y-21716D01*
X25632Y-21657D01*
X25512Y-21573D01*
X25410Y-21467D01*
X25330Y-21344D01*
X25276Y-21207D01*
X25250Y-21063D01*
X25252Y-20916D01*
X25283Y-20772D01*
X25341Y-20637D01*
X25424Y-20516D01*
X25529Y-20413D01*
X25561Y-20392D01*
X21938Y-20392D01*
X21980Y-20420D01*
X22083Y-20525D01*
X22165Y-20647D01*
X22221Y-20783D01*
X22249Y-20927D01*
X22247Y-21095D01*
X22214Y-21238D01*
X22154Y-21372D01*
X22069Y-21492D01*
X21963Y-21593D01*
X21839Y-21672D01*
X21702Y-21725D01*
X21557Y-21750D01*
X21410Y-21747D01*
X21267Y-21716D01*
X21132Y-21657D01*
X21012Y-21573D01*
X20910Y-21467D01*
X20830Y-21344D01*
X20776Y-21207D01*
X20750Y-21063D01*
X20752Y-20916D01*
X20783Y-20772D01*
X20841Y-20637D01*
X20924Y-20516D01*
X21029Y-20413D01*
X21061Y-20392D01*
X18102Y-20392D01*
X17718Y-20776D01*
X17721Y-20783D01*
X17749Y-20927D01*
X17747Y-21095D01*
X17714Y-21238D01*
X17654Y-21372D01*
X17569Y-21492D01*
X17463Y-21593D01*
X17339Y-21672D01*
X17202Y-21725D01*
X17057Y-21750D01*
X16910Y-21747D01*
X16767Y-21716D01*
X16632Y-21657D01*
X16512Y-21573D01*
X16410Y-21467D01*
X16330Y-21344D01*
X16276Y-21207D01*
X16250Y-21063D01*
X16252Y-20916D01*
X16283Y-20772D01*
X16317Y-20689D01*
X15009Y-21998D01*
X15008Y-22000D01*
X14988Y-22016D01*
X14964Y-22036D01*
X14962Y-22036D01*
X14961Y-22038D01*
X14939Y-22048D01*
X14910Y-22065D01*
X14907Y-22065D01*
X14907Y-22066D01*
X14849Y-22083D01*
X14806Y-22086D01*
X14792Y-22088D01*
X11274Y-22088D01*
X11237Y-22083D01*
X11217Y-22082D01*
X11158Y-22064D01*
X11156Y-22063D01*
X11103Y-22034D01*
X11087Y-22020D01*
X11058Y-21997D01*
X09550Y-20488D01*
X09550Y-20827D01*
X09540Y-20875D01*
X09521Y-20920D01*
X09493Y-20960D01*
X09458Y-20995D01*
X09417Y-21022D01*
X09372Y-21041D01*
X09324Y-21050D01*
X08673Y-21050D01*
X08625Y-21040D01*
X08580Y-21021D01*
X08540Y-20993D01*
X08505Y-20958D01*
X08478Y-20917D01*
X08459Y-20872D01*
X08450Y-20824D01*
X08450Y-20322D01*
X08449Y-20322D01*
X08396Y-20293D01*
X08366Y-20267D01*
X08352Y-20256D01*
X08315Y-20219D01*
X08298Y-20199D01*
X08279Y-20175D01*
X08278Y-20173D01*
X08277Y-20172D01*
X08275Y-20168D01*
X08275Y-23725D01*
X09581Y-23725D01*
X09581Y-23552D01*
X09375Y-23548D01*
X09174Y-23503D01*
X08985Y-23421D01*
X08816Y-23303D01*
X08673Y-23155D01*
X08562Y-22982D01*
X08486Y-22791D01*
X08449Y-22588D01*
X08452Y-22382D01*
X08494Y-22181D01*
X08575Y-21992D01*
X08692Y-21822D01*
X08839Y-21678D01*
X09011Y-21565D01*
X09202Y-21488D01*
X09404Y-21449D01*
X09610Y-21451D01*
X09812Y-21492D01*
X10002Y-21572D01*
X10172Y-21687D01*
X10318Y-21833D01*
X10432Y-22005D01*
X10510Y-22195D01*
X10550Y-22397D01*
X10547Y-22632D01*
X10501Y-22833D01*
X10417Y-23021D01*
X10299Y-23189D01*
X10150Y-23331D01*
X09976Y-23442D01*
X09784Y-23516D01*
X09581Y-23552D01*
X09581Y-23725D01*
X11757Y-23725D01*
X11757Y-22570D01*
X22324Y-22570D01*
X22324Y-23725D01*
X50504Y-23725D01*
X50504Y-23725D01*
G37*
G54D32*
X50504Y-23725D02*
X50447Y-23700D01*
X50378Y-23652D01*
X50321Y-23593D01*
X50275Y-23523D01*
X50245Y-23445D01*
X50229Y-23363D01*
X50231Y-23280D01*
X50248Y-23198D01*
X50257Y-23175D01*
X44997Y-23175D01*
X44949Y-23206D01*
X44871Y-23236D01*
X44789Y-23251D01*
X44706Y-23249D01*
X44624Y-23231D01*
X44548Y-23198D01*
X44479Y-23150D01*
X44422Y-23091D01*
X44376Y-23021D01*
X44346Y-22943D01*
X44330Y-22861D01*
X44332Y-22778D01*
X44349Y-22696D01*
X44355Y-22680D01*
X27325Y-22680D01*
X27281Y-22674D01*
X27260Y-22673D01*
X27194Y-22653D01*
X27192Y-22652D01*
X27132Y-22619D01*
X27090Y-22584D01*
X27082Y-22577D01*
X26222Y-21717D01*
X26202Y-21725D01*
X26057Y-21750D01*
X25910Y-21747D01*
X25767Y-21716D01*
X25632Y-21657D01*
X25512Y-21573D01*
X25410Y-21467D01*
X25330Y-21344D01*
X25276Y-21207D01*
X25250Y-21063D01*
X25252Y-20916D01*
X25283Y-20772D01*
X25341Y-20637D01*
X25424Y-20516D01*
X25529Y-20413D01*
X25561Y-20392D01*
X21938Y-20392D01*
X21980Y-20420D01*
X22083Y-20525D01*
X22165Y-20647D01*
X22221Y-20783D01*
X22249Y-20927D01*
X22247Y-21095D01*
X22214Y-21238D01*
X22154Y-21372D01*
X22069Y-21492D01*
X21963Y-21593D01*
X21839Y-21672D01*
X21702Y-21725D01*
X21557Y-21750D01*
X21410Y-21747D01*
X21267Y-21716D01*
X21132Y-21657D01*
X21012Y-21573D01*
X20910Y-21467D01*
X20830Y-21344D01*
X20776Y-21207D01*
X20750Y-21063D01*
X20752Y-20916D01*
X20783Y-20772D01*
X20841Y-20637D01*
X20924Y-20516D01*
X21029Y-20413D01*
X21061Y-20392D01*
X18102Y-20392D01*
X17718Y-20776D01*
X17721Y-20783D01*
X17749Y-20927D01*
X17747Y-21095D01*
X17714Y-21238D01*
X17654Y-21372D01*
X17569Y-21492D01*
X17463Y-21593D01*
X17339Y-21672D01*
X17202Y-21725D01*
X17057Y-21750D01*
X16910Y-21747D01*
X16767Y-21716D01*
X16632Y-21657D01*
X16512Y-21573D01*
X16410Y-21467D01*
X16330Y-21344D01*
X16276Y-21207D01*
X16250Y-21063D01*
X16252Y-20916D01*
X16283Y-20772D01*
X16317Y-20689D01*
X15009Y-21998D01*
X15008Y-22000D01*
X14988Y-22016D01*
X14964Y-22036D01*
X14962Y-22036D01*
X14961Y-22038D01*
X14939Y-22048D01*
X14910Y-22065D01*
X14907Y-22065D01*
X14907Y-22066D01*
X14849Y-22083D01*
X14806Y-22086D01*
X14792Y-22088D01*
X11274Y-22088D01*
X11237Y-22083D01*
X11217Y-22082D01*
X11158Y-22064D01*
X11156Y-22063D01*
X11103Y-22034D01*
X11087Y-22020D01*
X11058Y-21997D01*
X09550Y-20488D01*
X09550Y-20827D01*
X09540Y-20875D01*
X09521Y-20920D01*
X09493Y-20960D01*
X09458Y-20995D01*
X09417Y-21022D01*
X09372Y-21041D01*
X09324Y-21050D01*
X08673Y-21050D01*
X08625Y-21040D01*
X08580Y-21021D01*
X08540Y-20993D01*
X08505Y-20958D01*
X08478Y-20917D01*
X08459Y-20872D01*
X08450Y-20824D01*
X08450Y-20322D01*
X08449Y-20322D01*
X08396Y-20293D01*
X08366Y-20267D01*
X08352Y-20256D01*
X08315Y-20219D01*
X08298Y-20199D01*
X08279Y-20175D01*
X08278Y-20173D01*
X08277Y-20172D01*
X08275Y-20168D01*
X08275Y-23725D01*
X09581Y-23725D01*
X09581Y-23552D01*
X09375Y-23548D01*
X09174Y-23503D01*
X08985Y-23421D01*
X08816Y-23303D01*
X08673Y-23155D01*
X08562Y-22982D01*
X08486Y-22791D01*
X08449Y-22588D01*
X08452Y-22382D01*
X08494Y-22181D01*
X08575Y-21992D01*
X08692Y-21822D01*
X08839Y-21678D01*
X09011Y-21565D01*
X09202Y-21488D01*
X09404Y-21449D01*
X09610Y-21451D01*
X09812Y-21492D01*
X10002Y-21572D01*
X10172Y-21687D01*
X10318Y-21833D01*
X10432Y-22005D01*
X10510Y-22195D01*
X10550Y-22397D01*
X10547Y-22632D01*
X10501Y-22833D01*
X10417Y-23021D01*
X10299Y-23189D01*
X10150Y-23331D01*
X09976Y-23442D01*
X09784Y-23516D01*
X09581Y-23552D01*
X09581Y-23725D01*
X11757Y-23725D01*
X11757Y-22570D01*
X22324Y-22570D01*
X22324Y-23725D01*
X50504Y-23725D01*
G54D10*
G36*
X58120Y-22977D02*
X58497Y-22600D01*
X57186Y-22600D01*
X56809Y-22977D01*
X58120Y-22977D01*
X58120Y-22977D01*
G37*
G54D32*
X58120Y-22977D02*
X58497Y-22600D01*
X57186Y-22600D01*
X56809Y-22977D01*
X58120Y-22977D01*
G54D10*
G36*
X92122Y-22883D02*
X93782Y-21222D01*
X93776Y-21207D01*
X93750Y-21063D01*
X93752Y-20916D01*
X93783Y-20772D01*
X93841Y-20637D01*
X93910Y-20536D01*
X90590Y-20536D01*
X90665Y-20647D01*
X90721Y-20783D01*
X90749Y-20927D01*
X90747Y-21095D01*
X90714Y-21238D01*
X90654Y-21372D01*
X90569Y-21492D01*
X90463Y-21593D01*
X90339Y-21672D01*
X90202Y-21725D01*
X90057Y-21750D01*
X89910Y-21747D01*
X89767Y-21716D01*
X89632Y-21657D01*
X89512Y-21573D01*
X89410Y-21467D01*
X89330Y-21344D01*
X89276Y-21207D01*
X89250Y-21063D01*
X89252Y-20916D01*
X89283Y-20772D01*
X89341Y-20637D01*
X89410Y-20536D01*
X86090Y-20536D01*
X86165Y-20647D01*
X86221Y-20783D01*
X86249Y-20927D01*
X86247Y-21095D01*
X86214Y-21238D01*
X86154Y-21372D01*
X86069Y-21492D01*
X85963Y-21593D01*
X85839Y-21672D01*
X85702Y-21725D01*
X85557Y-21750D01*
X85410Y-21747D01*
X85276Y-21718D01*
X84501Y-22492D01*
X84497Y-22498D01*
X84495Y-22499D01*
X84494Y-22501D01*
X84484Y-22508D01*
X84444Y-22542D01*
X84383Y-22574D01*
X84380Y-22574D01*
X84380Y-22575D01*
X84352Y-22583D01*
X84318Y-22593D01*
X84317Y-22593D01*
X84314Y-22594D01*
X84273Y-22597D01*
X84250Y-22600D01*
X71384Y-22600D01*
X71392Y-22619D01*
X71408Y-22701D01*
X71407Y-22796D01*
X71388Y-22877D01*
X71385Y-22883D01*
X92122Y-22883D01*
X92122Y-22883D01*
G37*
G54D32*
X92122Y-22883D02*
X93782Y-21222D01*
X93776Y-21207D01*
X93750Y-21063D01*
X93752Y-20916D01*
X93783Y-20772D01*
X93841Y-20637D01*
X93910Y-20536D01*
X90590Y-20536D01*
X90665Y-20647D01*
X90721Y-20783D01*
X90749Y-20927D01*
X90747Y-21095D01*
X90714Y-21238D01*
X90654Y-21372D01*
X90569Y-21492D01*
X90463Y-21593D01*
X90339Y-21672D01*
X90202Y-21725D01*
X90057Y-21750D01*
X89910Y-21747D01*
X89767Y-21716D01*
X89632Y-21657D01*
X89512Y-21573D01*
X89410Y-21467D01*
X89330Y-21344D01*
X89276Y-21207D01*
X89250Y-21063D01*
X89252Y-20916D01*
X89283Y-20772D01*
X89341Y-20637D01*
X89410Y-20536D01*
X86090Y-20536D01*
X86165Y-20647D01*
X86221Y-20783D01*
X86249Y-20927D01*
X86247Y-21095D01*
X86214Y-21238D01*
X86154Y-21372D01*
X86069Y-21492D01*
X85963Y-21593D01*
X85839Y-21672D01*
X85702Y-21725D01*
X85557Y-21750D01*
X85410Y-21747D01*
X85276Y-21718D01*
X84501Y-22492D01*
X84497Y-22498D01*
X84495Y-22499D01*
X84494Y-22501D01*
X84484Y-22508D01*
X84444Y-22542D01*
X84383Y-22574D01*
X84380Y-22574D01*
X84380Y-22575D01*
X84352Y-22583D01*
X84318Y-22593D01*
X84317Y-22593D01*
X84314Y-22594D01*
X84273Y-22597D01*
X84250Y-22600D01*
X71384Y-22600D01*
X71392Y-22619D01*
X71408Y-22701D01*
X71407Y-22796D01*
X71388Y-22877D01*
X71385Y-22883D01*
X92122Y-22883D01*
G54D10*
G36*
X56322Y-22475D02*
X56697Y-22100D01*
X56166Y-22100D01*
X55791Y-22475D01*
X56322Y-22475D01*
X56322Y-22475D01*
G37*
G54D32*
X56322Y-22475D02*
X56697Y-22100D01*
X56166Y-22100D01*
X55791Y-22475D01*
X56322Y-22475D01*
G54D10*
G36*
X55297Y-21980D02*
X55677Y-21600D01*
X53133Y-21600D01*
X53145Y-21656D01*
X53143Y-21802D01*
X53115Y-21926D01*
X53090Y-21980D01*
X55297Y-21980D01*
X55297Y-21980D01*
G37*
G54D32*
X55297Y-21980D02*
X55677Y-21600D01*
X53133Y-21600D01*
X53145Y-21656D01*
X53143Y-21802D01*
X53115Y-21926D01*
X53090Y-21980D01*
X55297Y-21980D01*
G54D10*
G36*
X51898Y-21980D02*
X51867Y-21900D01*
X51844Y-21775D01*
X51846Y-21647D01*
X51872Y-21523D01*
X51923Y-21406D01*
X51994Y-21300D01*
X52086Y-21211D01*
X52192Y-21141D01*
X52310Y-21094D01*
X52364Y-21083D01*
X51672Y-20392D01*
X49057Y-20392D01*
X49072Y-20413D01*
X49120Y-20531D01*
X49145Y-20656D01*
X49143Y-20802D01*
X49115Y-20926D01*
X49063Y-21042D01*
X48990Y-21147D01*
X48897Y-21235D01*
X48790Y-21303D01*
X48671Y-21349D01*
X48545Y-21371D01*
X48418Y-21369D01*
X48293Y-21341D01*
X48177Y-21290D01*
X48072Y-21218D01*
X47983Y-21126D01*
X47914Y-21019D01*
X47867Y-20900D01*
X47844Y-20775D01*
X47846Y-20647D01*
X47872Y-20523D01*
X47923Y-20406D01*
X47932Y-20392D01*
X44438Y-20392D01*
X44480Y-20420D01*
X44583Y-20525D01*
X44665Y-20647D01*
X44721Y-20783D01*
X44749Y-20927D01*
X44747Y-21095D01*
X44714Y-21238D01*
X44654Y-21372D01*
X44569Y-21492D01*
X44463Y-21593D01*
X44339Y-21672D01*
X44202Y-21725D01*
X44057Y-21750D01*
X43910Y-21747D01*
X43767Y-21716D01*
X43632Y-21657D01*
X43512Y-21573D01*
X43410Y-21467D01*
X43330Y-21344D01*
X43276Y-21207D01*
X43250Y-21063D01*
X43252Y-20916D01*
X43283Y-20772D01*
X43341Y-20637D01*
X43424Y-20516D01*
X43529Y-20413D01*
X43561Y-20392D01*
X39938Y-20392D01*
X39980Y-20420D01*
X40083Y-20525D01*
X40165Y-20647D01*
X40221Y-20783D01*
X40249Y-20927D01*
X40247Y-21095D01*
X40214Y-21238D01*
X40154Y-21372D01*
X40069Y-21492D01*
X39963Y-21593D01*
X39839Y-21672D01*
X39702Y-21725D01*
X39557Y-21750D01*
X39459Y-21748D01*
X39227Y-21980D01*
X51898Y-21980D01*
X51898Y-21980D01*
G37*
G54D32*
X51898Y-21980D02*
X51867Y-21900D01*
X51844Y-21775D01*
X51846Y-21647D01*
X51872Y-21523D01*
X51923Y-21406D01*
X51994Y-21300D01*
X52086Y-21211D01*
X52192Y-21141D01*
X52310Y-21094D01*
X52364Y-21083D01*
X51672Y-20392D01*
X49057Y-20392D01*
X49072Y-20413D01*
X49120Y-20531D01*
X49145Y-20656D01*
X49143Y-20802D01*
X49115Y-20926D01*
X49063Y-21042D01*
X48990Y-21147D01*
X48897Y-21235D01*
X48790Y-21303D01*
X48671Y-21349D01*
X48545Y-21371D01*
X48418Y-21369D01*
X48293Y-21341D01*
X48177Y-21290D01*
X48072Y-21218D01*
X47983Y-21126D01*
X47914Y-21019D01*
X47867Y-20900D01*
X47844Y-20775D01*
X47846Y-20647D01*
X47872Y-20523D01*
X47923Y-20406D01*
X47932Y-20392D01*
X44438Y-20392D01*
X44480Y-20420D01*
X44583Y-20525D01*
X44665Y-20647D01*
X44721Y-20783D01*
X44749Y-20927D01*
X44747Y-21095D01*
X44714Y-21238D01*
X44654Y-21372D01*
X44569Y-21492D01*
X44463Y-21593D01*
X44339Y-21672D01*
X44202Y-21725D01*
X44057Y-21750D01*
X43910Y-21747D01*
X43767Y-21716D01*
X43632Y-21657D01*
X43512Y-21573D01*
X43410Y-21467D01*
X43330Y-21344D01*
X43276Y-21207D01*
X43250Y-21063D01*
X43252Y-20916D01*
X43283Y-20772D01*
X43341Y-20637D01*
X43424Y-20516D01*
X43529Y-20413D01*
X43561Y-20392D01*
X39938Y-20392D01*
X39980Y-20420D01*
X40083Y-20525D01*
X40165Y-20647D01*
X40221Y-20783D01*
X40249Y-20927D01*
X40247Y-21095D01*
X40214Y-21238D01*
X40154Y-21372D01*
X40069Y-21492D01*
X39963Y-21593D01*
X39839Y-21672D01*
X39702Y-21725D01*
X39557Y-21750D01*
X39459Y-21748D01*
X39227Y-21980D01*
X51898Y-21980D01*
G54D10*
G36*
X30772Y-21980D02*
X30542Y-21749D01*
X30410Y-21747D01*
X30267Y-21716D01*
X30132Y-21657D01*
X30012Y-21573D01*
X29910Y-21467D01*
X29830Y-21344D01*
X29776Y-21207D01*
X29750Y-21063D01*
X29752Y-20916D01*
X29783Y-20772D01*
X29841Y-20637D01*
X29924Y-20516D01*
X30029Y-20413D01*
X30061Y-20392D01*
X26438Y-20392D01*
X26480Y-20420D01*
X26583Y-20525D01*
X26665Y-20647D01*
X26721Y-20783D01*
X26749Y-20927D01*
X26747Y-21095D01*
X26717Y-21223D01*
X27474Y-21980D01*
X30772Y-21980D01*
X30772Y-21980D01*
G37*
G54D32*
X30772Y-21980D02*
X30542Y-21749D01*
X30410Y-21747D01*
X30267Y-21716D01*
X30132Y-21657D01*
X30012Y-21573D01*
X29910Y-21467D01*
X29830Y-21344D01*
X29776Y-21207D01*
X29750Y-21063D01*
X29752Y-20916D01*
X29783Y-20772D01*
X29841Y-20637D01*
X29924Y-20516D01*
X30029Y-20413D01*
X30061Y-20392D01*
X26438Y-20392D01*
X26480Y-20420D01*
X26583Y-20525D01*
X26665Y-20647D01*
X26721Y-20783D01*
X26749Y-20927D01*
X26747Y-21095D01*
X26717Y-21223D01*
X27474Y-21980D01*
X30772Y-21980D01*
G54D10*
G36*
X84105Y-21900D02*
X84782Y-21223D01*
X84776Y-21207D01*
X84750Y-21063D01*
X84752Y-20916D01*
X84783Y-20772D01*
X84841Y-20637D01*
X84910Y-20536D01*
X81590Y-20536D01*
X81665Y-20647D01*
X81721Y-20783D01*
X81749Y-20927D01*
X81747Y-21095D01*
X81714Y-21238D01*
X81654Y-21372D01*
X81569Y-21492D01*
X81463Y-21593D01*
X81339Y-21672D01*
X81202Y-21725D01*
X81057Y-21750D01*
X80910Y-21747D01*
X80767Y-21716D01*
X80632Y-21657D01*
X80512Y-21573D01*
X80410Y-21467D01*
X80330Y-21344D01*
X80276Y-21207D01*
X80250Y-21063D01*
X80252Y-20916D01*
X80283Y-20772D01*
X80341Y-20637D01*
X80410Y-20536D01*
X77090Y-20536D01*
X77165Y-20647D01*
X77221Y-20783D01*
X77249Y-20927D01*
X77247Y-21095D01*
X77214Y-21238D01*
X77154Y-21372D01*
X77069Y-21492D01*
X76963Y-21593D01*
X76839Y-21672D01*
X76702Y-21725D01*
X76557Y-21750D01*
X76410Y-21747D01*
X76267Y-21716D01*
X76132Y-21657D01*
X76012Y-21573D01*
X75910Y-21467D01*
X75830Y-21344D01*
X75776Y-21207D01*
X75750Y-21063D01*
X75752Y-20916D01*
X75783Y-20772D01*
X75841Y-20637D01*
X75910Y-20536D01*
X72590Y-20536D01*
X72665Y-20647D01*
X72721Y-20783D01*
X72749Y-20927D01*
X72747Y-21095D01*
X72714Y-21238D01*
X72654Y-21372D01*
X72569Y-21492D01*
X72463Y-21593D01*
X72339Y-21672D01*
X72202Y-21725D01*
X72057Y-21750D01*
X71910Y-21747D01*
X71767Y-21716D01*
X71632Y-21657D01*
X71512Y-21573D01*
X71410Y-21467D01*
X71330Y-21344D01*
X71276Y-21207D01*
X71250Y-21063D01*
X71252Y-20916D01*
X71283Y-20772D01*
X71341Y-20637D01*
X71410Y-20536D01*
X67888Y-20536D01*
X67925Y-20624D01*
X67944Y-20722D01*
X67945Y-21255D01*
X67943Y-21355D01*
X67923Y-21452D01*
X67883Y-21544D01*
X67827Y-21626D01*
X67756Y-21696D01*
X67673Y-21750D01*
X67580Y-21788D01*
X67482Y-21806D01*
X67383Y-21806D01*
X67285Y-21786D01*
X67193Y-21747D01*
X67111Y-21691D01*
X67041Y-21621D01*
X66985Y-21538D01*
X66947Y-21446D01*
X66943Y-21429D01*
X66939Y-21452D01*
X66899Y-21544D01*
X66843Y-21626D01*
X66772Y-21696D01*
X66689Y-21750D01*
X66596Y-21788D01*
X66498Y-21806D01*
X66399Y-21806D01*
X66301Y-21786D01*
X66209Y-21747D01*
X66127Y-21691D01*
X66057Y-21621D01*
X66001Y-21538D01*
X65963Y-21446D01*
X65959Y-21429D01*
X65955Y-21452D01*
X65915Y-21544D01*
X65859Y-21626D01*
X65788Y-21696D01*
X65705Y-21750D01*
X65612Y-21788D01*
X65514Y-21806D01*
X65415Y-21806D01*
X65317Y-21786D01*
X65225Y-21747D01*
X65143Y-21691D01*
X65073Y-21621D01*
X65017Y-21538D01*
X64979Y-21446D01*
X64960Y-21348D01*
X64959Y-20815D01*
X64960Y-20756D01*
X64223Y-21492D01*
X64219Y-21498D01*
X64217Y-21499D01*
X64216Y-21501D01*
X64206Y-21508D01*
X64166Y-21542D01*
X64105Y-21574D01*
X64102Y-21574D01*
X64102Y-21575D01*
X64074Y-21582D01*
X64040Y-21593D01*
X64039Y-21593D01*
X64036Y-21594D01*
X63996Y-21597D01*
X63972Y-21600D01*
X62204Y-21600D01*
X62206Y-21608D01*
X62206Y-21895D01*
X62204Y-21900D01*
X84105Y-21900D01*
X84105Y-21900D01*
G37*
G54D32*
X84105Y-21900D02*
X84782Y-21223D01*
X84776Y-21207D01*
X84750Y-21063D01*
X84752Y-20916D01*
X84783Y-20772D01*
X84841Y-20637D01*
X84910Y-20536D01*
X81590Y-20536D01*
X81665Y-20647D01*
X81721Y-20783D01*
X81749Y-20927D01*
X81747Y-21095D01*
X81714Y-21238D01*
X81654Y-21372D01*
X81569Y-21492D01*
X81463Y-21593D01*
X81339Y-21672D01*
X81202Y-21725D01*
X81057Y-21750D01*
X80910Y-21747D01*
X80767Y-21716D01*
X80632Y-21657D01*
X80512Y-21573D01*
X80410Y-21467D01*
X80330Y-21344D01*
X80276Y-21207D01*
X80250Y-21063D01*
X80252Y-20916D01*
X80283Y-20772D01*
X80341Y-20637D01*
X80410Y-20536D01*
X77090Y-20536D01*
X77165Y-20647D01*
X77221Y-20783D01*
X77249Y-20927D01*
X77247Y-21095D01*
X77214Y-21238D01*
X77154Y-21372D01*
X77069Y-21492D01*
X76963Y-21593D01*
X76839Y-21672D01*
X76702Y-21725D01*
X76557Y-21750D01*
X76410Y-21747D01*
X76267Y-21716D01*
X76132Y-21657D01*
X76012Y-21573D01*
X75910Y-21467D01*
X75830Y-21344D01*
X75776Y-21207D01*
X75750Y-21063D01*
X75752Y-20916D01*
X75783Y-20772D01*
X75841Y-20637D01*
X75910Y-20536D01*
X72590Y-20536D01*
X72665Y-20647D01*
X72721Y-20783D01*
X72749Y-20927D01*
X72747Y-21095D01*
X72714Y-21238D01*
X72654Y-21372D01*
X72569Y-21492D01*
X72463Y-21593D01*
X72339Y-21672D01*
X72202Y-21725D01*
X72057Y-21750D01*
X71910Y-21747D01*
X71767Y-21716D01*
X71632Y-21657D01*
X71512Y-21573D01*
X71410Y-21467D01*
X71330Y-21344D01*
X71276Y-21207D01*
X71250Y-21063D01*
X71252Y-20916D01*
X71283Y-20772D01*
X71341Y-20637D01*
X71410Y-20536D01*
X67888Y-20536D01*
X67925Y-20624D01*
X67944Y-20722D01*
X67945Y-21255D01*
X67943Y-21355D01*
X67923Y-21452D01*
X67883Y-21544D01*
X67827Y-21626D01*
X67756Y-21696D01*
X67673Y-21750D01*
X67580Y-21788D01*
X67482Y-21806D01*
X67383Y-21806D01*
X67285Y-21786D01*
X67193Y-21747D01*
X67111Y-21691D01*
X67041Y-21621D01*
X66985Y-21538D01*
X66947Y-21446D01*
X66943Y-21429D01*
X66939Y-21452D01*
X66899Y-21544D01*
X66843Y-21626D01*
X66772Y-21696D01*
X66689Y-21750D01*
X66596Y-21788D01*
X66498Y-21806D01*
X66399Y-21806D01*
X66301Y-21786D01*
X66209Y-21747D01*
X66127Y-21691D01*
X66057Y-21621D01*
X66001Y-21538D01*
X65963Y-21446D01*
X65959Y-21429D01*
X65955Y-21452D01*
X65915Y-21544D01*
X65859Y-21626D01*
X65788Y-21696D01*
X65705Y-21750D01*
X65612Y-21788D01*
X65514Y-21806D01*
X65415Y-21806D01*
X65317Y-21786D01*
X65225Y-21747D01*
X65143Y-21691D01*
X65073Y-21621D01*
X65017Y-21538D01*
X64979Y-21446D01*
X64960Y-21348D01*
X64959Y-20815D01*
X64960Y-20756D01*
X64223Y-21492D01*
X64219Y-21498D01*
X64217Y-21499D01*
X64216Y-21501D01*
X64206Y-21508D01*
X64166Y-21542D01*
X64105Y-21574D01*
X64102Y-21574D01*
X64102Y-21575D01*
X64074Y-21582D01*
X64040Y-21593D01*
X64039Y-21593D01*
X64036Y-21594D01*
X63996Y-21597D01*
X63972Y-21600D01*
X62204Y-21600D01*
X62206Y-21608D01*
X62206Y-21895D01*
X62204Y-21900D01*
X84105Y-21900D01*
G54D10*
G36*
X14664Y-21468D02*
X16539Y-19592D01*
X16512Y-19573D01*
X16410Y-19467D01*
X16330Y-19344D01*
X16276Y-19207D01*
X16250Y-19063D01*
X16252Y-18916D01*
X16283Y-18772D01*
X16341Y-18637D01*
X16424Y-18516D01*
X16529Y-18413D01*
X16652Y-18333D01*
X16788Y-18278D01*
X16932Y-18251D01*
X17057Y-18251D01*
X17057Y-17250D01*
X16910Y-17247D01*
X16767Y-17216D01*
X16632Y-17157D01*
X16512Y-17073D01*
X16410Y-16967D01*
X16330Y-16844D01*
X16276Y-16707D01*
X16250Y-16563D01*
X16252Y-16416D01*
X16283Y-16272D01*
X16341Y-16137D01*
X16424Y-16016D01*
X16529Y-15913D01*
X16652Y-15833D01*
X16788Y-15778D01*
X16932Y-15751D01*
X17057Y-15751D01*
X17057Y-15250D01*
X16910Y-15247D01*
X16767Y-15216D01*
X16632Y-15157D01*
X16512Y-15073D01*
X16410Y-14967D01*
X16333Y-14850D01*
X13163Y-14850D01*
X13154Y-14872D01*
X13069Y-14992D01*
X12963Y-15093D01*
X12839Y-15172D01*
X12702Y-15225D01*
X12557Y-15250D01*
X12410Y-15247D01*
X12267Y-15216D01*
X12132Y-15157D01*
X12012Y-15073D01*
X11910Y-14967D01*
X11830Y-14844D01*
X11776Y-14707D01*
X11750Y-14563D01*
X11752Y-14416D01*
X11783Y-14272D01*
X11841Y-14137D01*
X11924Y-14016D01*
X12029Y-13913D01*
X12152Y-13833D01*
X12288Y-13778D01*
X12432Y-13751D01*
X12579Y-13752D01*
X12723Y-13781D01*
X12858Y-13838D01*
X12980Y-13920D01*
X13083Y-14025D01*
X13165Y-14147D01*
X13166Y-14150D01*
X16335Y-14150D01*
X16341Y-14137D01*
X16424Y-14016D01*
X16529Y-13913D01*
X16652Y-13833D01*
X16788Y-13778D01*
X16932Y-13751D01*
X17079Y-13752D01*
X17223Y-13781D01*
X17358Y-13838D01*
X17480Y-13920D01*
X17583Y-14025D01*
X17665Y-14147D01*
X17721Y-14283D01*
X17749Y-14427D01*
X17747Y-14595D01*
X17714Y-14738D01*
X17654Y-14872D01*
X17569Y-14992D01*
X17463Y-15093D01*
X17339Y-15172D01*
X17202Y-15225D01*
X17057Y-15250D01*
X17057Y-15751D01*
X17079Y-15752D01*
X17223Y-15781D01*
X17358Y-15838D01*
X17480Y-15920D01*
X17583Y-16025D01*
X17665Y-16147D01*
X17721Y-16283D01*
X17749Y-16427D01*
X17747Y-16595D01*
X17714Y-16738D01*
X17654Y-16872D01*
X17569Y-16992D01*
X17463Y-17093D01*
X17339Y-17172D01*
X17202Y-17225D01*
X17057Y-17250D01*
X17057Y-18251D01*
X17079Y-18252D01*
X17223Y-18281D01*
X17358Y-18338D01*
X17480Y-18420D01*
X17583Y-18525D01*
X17665Y-18647D01*
X17721Y-18783D01*
X17749Y-18927D01*
X17747Y-19095D01*
X17714Y-19238D01*
X17654Y-19372D01*
X17612Y-19430D01*
X20885Y-19430D01*
X20830Y-19344D01*
X20776Y-19207D01*
X20750Y-19063D01*
X20752Y-18916D01*
X20783Y-18772D01*
X20841Y-18637D01*
X20924Y-18516D01*
X21029Y-18413D01*
X21152Y-18333D01*
X21288Y-18278D01*
X21432Y-18251D01*
X21557Y-18251D01*
X21557Y-17250D01*
X21410Y-17247D01*
X21267Y-17216D01*
X21132Y-17157D01*
X21012Y-17073D01*
X20910Y-16967D01*
X20830Y-16844D01*
X20776Y-16707D01*
X20750Y-16563D01*
X20752Y-16416D01*
X20783Y-16272D01*
X20841Y-16137D01*
X20924Y-16016D01*
X21029Y-15913D01*
X21152Y-15833D01*
X21288Y-15778D01*
X21432Y-15751D01*
X21579Y-15752D01*
X21723Y-15781D01*
X21858Y-15838D01*
X21980Y-15920D01*
X22083Y-16025D01*
X22165Y-16147D01*
X22221Y-16283D01*
X22249Y-16427D01*
X22247Y-16595D01*
X22214Y-16738D01*
X22154Y-16872D01*
X22069Y-16992D01*
X21963Y-17093D01*
X21839Y-17172D01*
X21702Y-17225D01*
X21557Y-17250D01*
X21557Y-18251D01*
X21579Y-18252D01*
X21723Y-18281D01*
X21858Y-18338D01*
X21980Y-18420D01*
X22083Y-18525D01*
X22165Y-18647D01*
X22221Y-18783D01*
X22249Y-18927D01*
X22247Y-19095D01*
X22214Y-19238D01*
X22154Y-19372D01*
X22112Y-19430D01*
X25385Y-19430D01*
X25330Y-19344D01*
X25276Y-19207D01*
X25250Y-19063D01*
X25252Y-18916D01*
X25283Y-18772D01*
X25341Y-18637D01*
X25424Y-18516D01*
X25529Y-18413D01*
X25652Y-18333D01*
X25788Y-18278D01*
X25932Y-18251D01*
X26057Y-18251D01*
X26057Y-17250D01*
X25910Y-17247D01*
X25767Y-17216D01*
X25632Y-17157D01*
X25512Y-17073D01*
X25410Y-16967D01*
X25330Y-16844D01*
X25276Y-16707D01*
X25250Y-16563D01*
X25252Y-16416D01*
X25283Y-16272D01*
X25341Y-16137D01*
X25424Y-16016D01*
X25529Y-15913D01*
X25652Y-15833D01*
X25788Y-15778D01*
X25932Y-15751D01*
X26057Y-15751D01*
X26057Y-15250D01*
X25910Y-15247D01*
X25767Y-15216D01*
X25632Y-15157D01*
X25512Y-15073D01*
X25410Y-14967D01*
X25333Y-14850D01*
X22163Y-14850D01*
X22154Y-14872D01*
X22069Y-14992D01*
X21963Y-15093D01*
X21839Y-15172D01*
X21702Y-15225D01*
X21557Y-15250D01*
X21410Y-15247D01*
X21267Y-15216D01*
X21132Y-15157D01*
X21012Y-15073D01*
X20910Y-14967D01*
X20830Y-14844D01*
X20776Y-14707D01*
X20750Y-14563D01*
X20752Y-14416D01*
X20783Y-14272D01*
X20841Y-14137D01*
X20924Y-14016D01*
X21029Y-13913D01*
X21152Y-13833D01*
X21288Y-13778D01*
X21432Y-13751D01*
X21579Y-13752D01*
X21723Y-13781D01*
X21858Y-13838D01*
X21980Y-13920D01*
X22083Y-14025D01*
X22165Y-14147D01*
X22166Y-14150D01*
X25335Y-14150D01*
X25341Y-14137D01*
X25424Y-14016D01*
X25529Y-13913D01*
X25652Y-13833D01*
X25788Y-13778D01*
X25932Y-13751D01*
X26079Y-13752D01*
X26223Y-13781D01*
X26358Y-13838D01*
X26480Y-13920D01*
X26583Y-14025D01*
X26665Y-14147D01*
X26721Y-14283D01*
X26749Y-14427D01*
X26747Y-14595D01*
X26714Y-14738D01*
X26654Y-14872D01*
X26569Y-14992D01*
X26463Y-15093D01*
X26339Y-15172D01*
X26202Y-15225D01*
X26057Y-15250D01*
X26057Y-15751D01*
X26079Y-15752D01*
X26223Y-15781D01*
X26358Y-15838D01*
X26480Y-15920D01*
X26583Y-16025D01*
X26665Y-16147D01*
X26721Y-16283D01*
X26749Y-16427D01*
X26747Y-16595D01*
X26714Y-16738D01*
X26654Y-16872D01*
X26569Y-16992D01*
X26463Y-17093D01*
X26339Y-17172D01*
X26202Y-17225D01*
X26057Y-17250D01*
X26057Y-18251D01*
X26079Y-18252D01*
X26223Y-18281D01*
X26358Y-18338D01*
X26480Y-18420D01*
X26583Y-18525D01*
X26665Y-18647D01*
X26721Y-18783D01*
X26749Y-18927D01*
X26747Y-19095D01*
X26714Y-19238D01*
X26654Y-19372D01*
X26612Y-19430D01*
X29885Y-19430D01*
X29830Y-19344D01*
X29776Y-19207D01*
X29750Y-19063D01*
X29752Y-18916D01*
X29783Y-18772D01*
X29841Y-18637D01*
X29924Y-18516D01*
X30029Y-18413D01*
X30152Y-18333D01*
X30288Y-18278D01*
X30432Y-18251D01*
X30557Y-18251D01*
X30557Y-17250D01*
X30410Y-17247D01*
X30267Y-17216D01*
X30132Y-17157D01*
X30012Y-17073D01*
X29910Y-16967D01*
X29830Y-16844D01*
X29776Y-16707D01*
X29750Y-16563D01*
X29752Y-16416D01*
X29783Y-16272D01*
X29841Y-16137D01*
X29924Y-16016D01*
X30029Y-15913D01*
X30152Y-15833D01*
X30288Y-15778D01*
X30432Y-15751D01*
X30579Y-15752D01*
X30723Y-15781D01*
X30858Y-15838D01*
X30980Y-15920D01*
X31083Y-16025D01*
X31165Y-16147D01*
X31221Y-16283D01*
X31249Y-16427D01*
X31247Y-16595D01*
X31214Y-16738D01*
X31154Y-16872D01*
X31069Y-16992D01*
X30963Y-17093D01*
X30839Y-17172D01*
X30702Y-17225D01*
X30557Y-17250D01*
X30557Y-18251D01*
X30579Y-18252D01*
X30723Y-18281D01*
X30858Y-18338D01*
X30980Y-18420D01*
X31083Y-18525D01*
X31165Y-18647D01*
X31221Y-18783D01*
X31249Y-18927D01*
X31247Y-19095D01*
X31214Y-19238D01*
X31154Y-19372D01*
X31112Y-19430D01*
X34385Y-19430D01*
X34330Y-19344D01*
X34276Y-19207D01*
X34250Y-19063D01*
X34252Y-18916D01*
X34283Y-18772D01*
X34341Y-18637D01*
X34424Y-18516D01*
X34529Y-18413D01*
X34652Y-18333D01*
X34788Y-18278D01*
X34932Y-18251D01*
X35057Y-18251D01*
X35057Y-17250D01*
X34910Y-17247D01*
X34767Y-17216D01*
X34632Y-17157D01*
X34512Y-17073D01*
X34410Y-16967D01*
X34330Y-16844D01*
X34276Y-16707D01*
X34250Y-16563D01*
X34252Y-16416D01*
X34283Y-16272D01*
X34341Y-16137D01*
X34424Y-16016D01*
X34529Y-15913D01*
X34652Y-15833D01*
X34788Y-15778D01*
X34932Y-15751D01*
X35057Y-15751D01*
X35057Y-15250D01*
X34910Y-15247D01*
X34767Y-15216D01*
X34632Y-15157D01*
X34512Y-15073D01*
X34410Y-14967D01*
X34333Y-14850D01*
X31163Y-14850D01*
X31154Y-14872D01*
X31069Y-14992D01*
X30963Y-15093D01*
X30839Y-15172D01*
X30702Y-15225D01*
X30557Y-15250D01*
X30410Y-15247D01*
X30267Y-15216D01*
X30132Y-15157D01*
X30012Y-15073D01*
X29910Y-14967D01*
X29830Y-14844D01*
X29776Y-14707D01*
X29750Y-14563D01*
X29752Y-14416D01*
X29783Y-14272D01*
X29841Y-14137D01*
X29924Y-14016D01*
X30029Y-13913D01*
X30152Y-13833D01*
X30288Y-13778D01*
X30432Y-13751D01*
X30579Y-13752D01*
X30723Y-13781D01*
X30858Y-13838D01*
X30980Y-13920D01*
X31083Y-14025D01*
X31165Y-14147D01*
X31166Y-14150D01*
X34335Y-14150D01*
X34341Y-14137D01*
X34424Y-14016D01*
X34529Y-13913D01*
X34652Y-13833D01*
X34788Y-13778D01*
X34932Y-13751D01*
X35079Y-13752D01*
X35223Y-13781D01*
X35358Y-13838D01*
X35480Y-13920D01*
X35583Y-14025D01*
X35665Y-14147D01*
X35721Y-14283D01*
X35749Y-14427D01*
X35747Y-14595D01*
X35714Y-14738D01*
X35654Y-14872D01*
X35569Y-14992D01*
X35463Y-15093D01*
X35339Y-15172D01*
X35202Y-15225D01*
X35057Y-15250D01*
X35057Y-15751D01*
X35079Y-15752D01*
X35223Y-15781D01*
X35358Y-15838D01*
X35480Y-15920D01*
X35583Y-16025D01*
X35665Y-16147D01*
X35721Y-16283D01*
X35749Y-16427D01*
X35747Y-16595D01*
X35714Y-16738D01*
X35654Y-16872D01*
X35569Y-16992D01*
X35463Y-17093D01*
X35339Y-17172D01*
X35202Y-17225D01*
X35057Y-17250D01*
X35057Y-18251D01*
X35079Y-18252D01*
X35223Y-18281D01*
X35358Y-18338D01*
X35480Y-18420D01*
X35583Y-18525D01*
X35665Y-18647D01*
X35721Y-18783D01*
X35749Y-18927D01*
X35747Y-19095D01*
X35714Y-19238D01*
X35654Y-19372D01*
X35612Y-19430D01*
X38885Y-19430D01*
X38830Y-19344D01*
X38776Y-19207D01*
X38750Y-19063D01*
X38752Y-18916D01*
X38783Y-18772D01*
X38841Y-18637D01*
X38924Y-18516D01*
X39029Y-18413D01*
X39152Y-18333D01*
X39288Y-18278D01*
X39432Y-18251D01*
X39557Y-18251D01*
X39557Y-17250D01*
X39410Y-17247D01*
X39267Y-17216D01*
X39132Y-17157D01*
X39012Y-17073D01*
X38910Y-16967D01*
X38830Y-16844D01*
X38776Y-16707D01*
X38750Y-16563D01*
X38752Y-16416D01*
X38783Y-16272D01*
X38841Y-16137D01*
X38924Y-16016D01*
X39029Y-15913D01*
X39152Y-15833D01*
X39288Y-15778D01*
X39432Y-15751D01*
X39557Y-15751D01*
X39557Y-15250D01*
X39410Y-15247D01*
X39267Y-15216D01*
X39132Y-15157D01*
X39012Y-15073D01*
X38910Y-14967D01*
X38830Y-14844D01*
X38776Y-14707D01*
X38750Y-14563D01*
X38752Y-14416D01*
X38783Y-14272D01*
X38841Y-14137D01*
X38924Y-14016D01*
X39029Y-13913D01*
X39152Y-13833D01*
X39288Y-13778D01*
X39432Y-13751D01*
X39579Y-13752D01*
X39723Y-13781D01*
X39858Y-13838D01*
X39980Y-13920D01*
X40083Y-14025D01*
X40165Y-14147D01*
X40221Y-14283D01*
X40249Y-14427D01*
X40247Y-14595D01*
X40214Y-14738D01*
X40154Y-14872D01*
X40069Y-14992D01*
X39963Y-15093D01*
X39839Y-15172D01*
X39702Y-15225D01*
X39557Y-15250D01*
X39557Y-15751D01*
X39579Y-15752D01*
X39723Y-15781D01*
X39858Y-15838D01*
X39980Y-15920D01*
X40083Y-16025D01*
X40165Y-16147D01*
X40221Y-16283D01*
X40249Y-16427D01*
X40247Y-16595D01*
X40214Y-16738D01*
X40154Y-16872D01*
X40069Y-16992D01*
X39963Y-17093D01*
X39839Y-17172D01*
X39702Y-17225D01*
X39557Y-17250D01*
X39557Y-18251D01*
X39579Y-18252D01*
X39723Y-18281D01*
X39858Y-18338D01*
X39980Y-18420D01*
X40083Y-18525D01*
X40165Y-18647D01*
X40221Y-18783D01*
X40249Y-18927D01*
X40247Y-19095D01*
X40214Y-19238D01*
X40154Y-19372D01*
X40112Y-19430D01*
X43385Y-19430D01*
X43330Y-19344D01*
X43276Y-19207D01*
X43250Y-19063D01*
X43252Y-18916D01*
X43283Y-18772D01*
X43341Y-18637D01*
X43424Y-18516D01*
X43529Y-18413D01*
X43652Y-18333D01*
X43788Y-18278D01*
X43932Y-18251D01*
X44079Y-18252D01*
X44223Y-18281D01*
X44358Y-18338D01*
X44480Y-18420D01*
X44583Y-18525D01*
X44665Y-18647D01*
X44721Y-18783D01*
X44749Y-18927D01*
X44747Y-19095D01*
X44714Y-19238D01*
X44654Y-19372D01*
X44612Y-19430D01*
X46596Y-19430D01*
X48454Y-17572D01*
X48050Y-17572D01*
X47718Y-17905D01*
X47713Y-17910D01*
X47667Y-17945D01*
X47641Y-17967D01*
X47637Y-17968D01*
X47636Y-17970D01*
X47550Y-18016D01*
X47467Y-18039D01*
X47461Y-18041D01*
X47460Y-18041D01*
X47457Y-18042D01*
X47404Y-18046D01*
X47364Y-18051D01*
X46920Y-18051D01*
X46912Y-18060D01*
X46900Y-18067D01*
X46900Y-18225D01*
X46895Y-18260D01*
X46890Y-18319D01*
X46861Y-18412D01*
X46860Y-18412D01*
X46860Y-18415D01*
X46841Y-18448D01*
X46815Y-18498D01*
X46752Y-18573D01*
X46750Y-18573D01*
X46750Y-18575D01*
X46715Y-18602D01*
X46677Y-18634D01*
X46675Y-18634D01*
X46674Y-18636D01*
X46609Y-18669D01*
X46591Y-18680D01*
X46590Y-18680D01*
X46587Y-18682D01*
X46547Y-18693D01*
X46521Y-18714D01*
X46435Y-18760D01*
X46342Y-18786D01*
X46244Y-18795D01*
X46147Y-18784D01*
X46053Y-18755D01*
X45968Y-18709D01*
X45893Y-18646D01*
X45831Y-18570D01*
X45786Y-18484D01*
X45758Y-18390D01*
X45749Y-18293D01*
X45759Y-18197D01*
X45787Y-18103D01*
X45834Y-18017D01*
X45841Y-18008D01*
X45824Y-17982D01*
X45805Y-17937D01*
X45796Y-17889D01*
X45796Y-17210D01*
X45806Y-17162D01*
X45825Y-17117D01*
X45853Y-17077D01*
X45888Y-17042D01*
X45929Y-17015D01*
X45964Y-17000D01*
X45926Y-16984D01*
X45886Y-16956D01*
X45851Y-16921D01*
X45824Y-16880D01*
X45805Y-16835D01*
X45796Y-16787D01*
X45796Y-16108D01*
X45806Y-16060D01*
X45825Y-16015D01*
X45853Y-15975D01*
X45869Y-15958D01*
X45765Y-15854D01*
X44381Y-15854D01*
X44480Y-15920D01*
X44583Y-16025D01*
X44665Y-16147D01*
X44721Y-16283D01*
X44749Y-16427D01*
X44747Y-16595D01*
X44714Y-16738D01*
X44654Y-16872D01*
X44569Y-16992D01*
X44463Y-17093D01*
X44339Y-17172D01*
X44202Y-17225D01*
X44057Y-17250D01*
X43910Y-17247D01*
X43767Y-17216D01*
X43632Y-17157D01*
X43512Y-17073D01*
X43410Y-16967D01*
X43330Y-16844D01*
X43276Y-16707D01*
X43250Y-16563D01*
X43252Y-16416D01*
X43283Y-16272D01*
X43341Y-16137D01*
X43424Y-16016D01*
X43529Y-15913D01*
X43622Y-15851D01*
X43571Y-15846D01*
X43549Y-15844D01*
X43546Y-15843D01*
X43544Y-15843D01*
X43451Y-15814D01*
X43366Y-15767D01*
X43313Y-15723D01*
X43294Y-15707D01*
X41629Y-14043D01*
X41581Y-14052D01*
X41375Y-14048D01*
X41174Y-14003D01*
X40985Y-13921D01*
X40816Y-13803D01*
X40673Y-13655D01*
X40573Y-13500D01*
X10426Y-13500D01*
X10417Y-13521D01*
X10299Y-13689D01*
X10150Y-13831D01*
X09976Y-13942D01*
X09784Y-14016D01*
X09581Y-14052D01*
X09375Y-14048D01*
X09174Y-14003D01*
X08985Y-13921D01*
X08847Y-13824D01*
X08847Y-14970D01*
X08950Y-14951D01*
X09057Y-14951D01*
X09163Y-14973D01*
X09262Y-15015D01*
X09352Y-15075D01*
X09427Y-15151D01*
X09487Y-15241D01*
X09528Y-15340D01*
X09549Y-15446D01*
X09547Y-15569D01*
X09524Y-15674D01*
X09480Y-15772D01*
X09418Y-15860D01*
X09340Y-15935D01*
X09249Y-15992D01*
X09227Y-16000D01*
X09262Y-16015D01*
X09352Y-16075D01*
X09427Y-16151D01*
X09487Y-16241D01*
X09528Y-16340D01*
X09549Y-16446D01*
X09547Y-16569D01*
X09524Y-16674D01*
X09480Y-16772D01*
X09418Y-16860D01*
X09340Y-16935D01*
X09249Y-16992D01*
X09227Y-17000D01*
X09262Y-17015D01*
X09352Y-17075D01*
X09427Y-17151D01*
X09487Y-17241D01*
X09528Y-17340D01*
X09549Y-17446D01*
X09547Y-17569D01*
X09524Y-17674D01*
X09500Y-17727D01*
X09500Y-18272D01*
X09513Y-18305D01*
X11707Y-20500D01*
X11940Y-20500D01*
X12029Y-20413D01*
X12152Y-20333D01*
X12288Y-20278D01*
X12432Y-20251D01*
X12557Y-20251D01*
X12557Y-19750D01*
X12410Y-19747D01*
X12267Y-19716D01*
X12132Y-19657D01*
X12012Y-19573D01*
X11910Y-19467D01*
X11830Y-19344D01*
X11776Y-19207D01*
X11750Y-19063D01*
X11752Y-18916D01*
X11783Y-18772D01*
X11841Y-18637D01*
X11924Y-18516D01*
X12029Y-18413D01*
X12152Y-18333D01*
X12288Y-18278D01*
X12432Y-18251D01*
X12557Y-18251D01*
X12557Y-17250D01*
X12410Y-17247D01*
X12267Y-17216D01*
X12132Y-17157D01*
X12012Y-17073D01*
X11910Y-16967D01*
X11830Y-16844D01*
X11776Y-16707D01*
X11750Y-16563D01*
X11752Y-16416D01*
X11783Y-16272D01*
X11841Y-16137D01*
X11924Y-16016D01*
X12029Y-15913D01*
X12152Y-15833D01*
X12288Y-15778D01*
X12432Y-15751D01*
X12579Y-15752D01*
X12723Y-15781D01*
X12858Y-15838D01*
X12980Y-15920D01*
X13083Y-16025D01*
X13165Y-16147D01*
X13221Y-16283D01*
X13249Y-16427D01*
X13247Y-16595D01*
X13214Y-16738D01*
X13154Y-16872D01*
X13069Y-16992D01*
X12963Y-17093D01*
X12839Y-17172D01*
X12702Y-17225D01*
X12557Y-17250D01*
X12557Y-18251D01*
X12579Y-18252D01*
X12723Y-18281D01*
X12858Y-18338D01*
X12980Y-18420D01*
X13083Y-18525D01*
X13165Y-18647D01*
X13221Y-18783D01*
X13249Y-18927D01*
X13247Y-19095D01*
X13214Y-19238D01*
X13154Y-19372D01*
X13069Y-19492D01*
X12963Y-19593D01*
X12839Y-19672D01*
X12702Y-19725D01*
X12557Y-19750D01*
X12557Y-20251D01*
X12579Y-20252D01*
X12723Y-20281D01*
X12858Y-20338D01*
X12980Y-20420D01*
X13083Y-20525D01*
X13165Y-20647D01*
X13221Y-20783D01*
X13249Y-20927D01*
X13247Y-21095D01*
X13214Y-21238D01*
X13154Y-21372D01*
X13086Y-21468D01*
X14664Y-21468D01*
X14664Y-21468D01*
G37*
G54D32*
X14664Y-21468D02*
X16539Y-19592D01*
X16512Y-19573D01*
X16410Y-19467D01*
X16330Y-19344D01*
X16276Y-19207D01*
X16250Y-19063D01*
X16252Y-18916D01*
X16283Y-18772D01*
X16341Y-18637D01*
X16424Y-18516D01*
X16529Y-18413D01*
X16652Y-18333D01*
X16788Y-18278D01*
X16932Y-18251D01*
X17057Y-18251D01*
X17057Y-17250D01*
X16910Y-17247D01*
X16767Y-17216D01*
X16632Y-17157D01*
X16512Y-17073D01*
X16410Y-16967D01*
X16330Y-16844D01*
X16276Y-16707D01*
X16250Y-16563D01*
X16252Y-16416D01*
X16283Y-16272D01*
X16341Y-16137D01*
X16424Y-16016D01*
X16529Y-15913D01*
X16652Y-15833D01*
X16788Y-15778D01*
X16932Y-15751D01*
X17057Y-15751D01*
X17057Y-15250D01*
X16910Y-15247D01*
X16767Y-15216D01*
X16632Y-15157D01*
X16512Y-15073D01*
X16410Y-14967D01*
X16333Y-14850D01*
X13163Y-14850D01*
X13154Y-14872D01*
X13069Y-14992D01*
X12963Y-15093D01*
X12839Y-15172D01*
X12702Y-15225D01*
X12557Y-15250D01*
X12410Y-15247D01*
X12267Y-15216D01*
X12132Y-15157D01*
X12012Y-15073D01*
X11910Y-14967D01*
X11830Y-14844D01*
X11776Y-14707D01*
X11750Y-14563D01*
X11752Y-14416D01*
X11783Y-14272D01*
X11841Y-14137D01*
X11924Y-14016D01*
X12029Y-13913D01*
X12152Y-13833D01*
X12288Y-13778D01*
X12432Y-13751D01*
X12579Y-13752D01*
X12723Y-13781D01*
X12858Y-13838D01*
X12980Y-13920D01*
X13083Y-14025D01*
X13165Y-14147D01*
X13166Y-14150D01*
X16335Y-14150D01*
X16341Y-14137D01*
X16424Y-14016D01*
X16529Y-13913D01*
X16652Y-13833D01*
X16788Y-13778D01*
X16932Y-13751D01*
X17079Y-13752D01*
X17223Y-13781D01*
X17358Y-13838D01*
X17480Y-13920D01*
X17583Y-14025D01*
X17665Y-14147D01*
X17721Y-14283D01*
X17749Y-14427D01*
X17747Y-14595D01*
X17714Y-14738D01*
X17654Y-14872D01*
X17569Y-14992D01*
X17463Y-15093D01*
X17339Y-15172D01*
X17202Y-15225D01*
X17057Y-15250D01*
X17057Y-15751D01*
X17079Y-15752D01*
X17223Y-15781D01*
X17358Y-15838D01*
X17480Y-15920D01*
X17583Y-16025D01*
X17665Y-16147D01*
X17721Y-16283D01*
X17749Y-16427D01*
X17747Y-16595D01*
X17714Y-16738D01*
X17654Y-16872D01*
X17569Y-16992D01*
X17463Y-17093D01*
X17339Y-17172D01*
X17202Y-17225D01*
X17057Y-17250D01*
X17057Y-18251D01*
X17079Y-18252D01*
X17223Y-18281D01*
X17358Y-18338D01*
X17480Y-18420D01*
X17583Y-18525D01*
X17665Y-18647D01*
X17721Y-18783D01*
X17749Y-18927D01*
X17747Y-19095D01*
X17714Y-19238D01*
X17654Y-19372D01*
X17612Y-19430D01*
X20885Y-19430D01*
X20830Y-19344D01*
X20776Y-19207D01*
X20750Y-19063D01*
X20752Y-18916D01*
X20783Y-18772D01*
X20841Y-18637D01*
X20924Y-18516D01*
X21029Y-18413D01*
X21152Y-18333D01*
X21288Y-18278D01*
X21432Y-18251D01*
X21557Y-18251D01*
X21557Y-17250D01*
X21410Y-17247D01*
X21267Y-17216D01*
X21132Y-17157D01*
X21012Y-17073D01*
X20910Y-16967D01*
X20830Y-16844D01*
X20776Y-16707D01*
X20750Y-16563D01*
X20752Y-16416D01*
X20783Y-16272D01*
X20841Y-16137D01*
X20924Y-16016D01*
X21029Y-15913D01*
X21152Y-15833D01*
X21288Y-15778D01*
X21432Y-15751D01*
X21579Y-15752D01*
X21723Y-15781D01*
X21858Y-15838D01*
X21980Y-15920D01*
X22083Y-16025D01*
X22165Y-16147D01*
X22221Y-16283D01*
X22249Y-16427D01*
X22247Y-16595D01*
X22214Y-16738D01*
X22154Y-16872D01*
X22069Y-16992D01*
X21963Y-17093D01*
X21839Y-17172D01*
X21702Y-17225D01*
X21557Y-17250D01*
X21557Y-18251D01*
X21579Y-18252D01*
X21723Y-18281D01*
X21858Y-18338D01*
X21980Y-18420D01*
X22083Y-18525D01*
X22165Y-18647D01*
X22221Y-18783D01*
X22249Y-18927D01*
X22247Y-19095D01*
X22214Y-19238D01*
X22154Y-19372D01*
X22112Y-19430D01*
X25385Y-19430D01*
X25330Y-19344D01*
X25276Y-19207D01*
X25250Y-19063D01*
X25252Y-18916D01*
X25283Y-18772D01*
X25341Y-18637D01*
X25424Y-18516D01*
X25529Y-18413D01*
X25652Y-18333D01*
X25788Y-18278D01*
X25932Y-18251D01*
X26057Y-18251D01*
X26057Y-17250D01*
X25910Y-17247D01*
X25767Y-17216D01*
X25632Y-17157D01*
X25512Y-17073D01*
X25410Y-16967D01*
X25330Y-16844D01*
X25276Y-16707D01*
X25250Y-16563D01*
X25252Y-16416D01*
X25283Y-16272D01*
X25341Y-16137D01*
X25424Y-16016D01*
X25529Y-15913D01*
X25652Y-15833D01*
X25788Y-15778D01*
X25932Y-15751D01*
X26057Y-15751D01*
X26057Y-15250D01*
X25910Y-15247D01*
X25767Y-15216D01*
X25632Y-15157D01*
X25512Y-15073D01*
X25410Y-14967D01*
X25333Y-14850D01*
X22163Y-14850D01*
X22154Y-14872D01*
X22069Y-14992D01*
X21963Y-15093D01*
X21839Y-15172D01*
X21702Y-15225D01*
X21557Y-15250D01*
X21410Y-15247D01*
X21267Y-15216D01*
X21132Y-15157D01*
X21012Y-15073D01*
X20910Y-14967D01*
X20830Y-14844D01*
X20776Y-14707D01*
X20750Y-14563D01*
X20752Y-14416D01*
X20783Y-14272D01*
X20841Y-14137D01*
X20924Y-14016D01*
X21029Y-13913D01*
X21152Y-13833D01*
X21288Y-13778D01*
X21432Y-13751D01*
X21579Y-13752D01*
X21723Y-13781D01*
X21858Y-13838D01*
X21980Y-13920D01*
X22083Y-14025D01*
X22165Y-14147D01*
X22166Y-14150D01*
X25335Y-14150D01*
X25341Y-14137D01*
X25424Y-14016D01*
X25529Y-13913D01*
X25652Y-13833D01*
X25788Y-13778D01*
X25932Y-13751D01*
X26079Y-13752D01*
X26223Y-13781D01*
X26358Y-13838D01*
X26480Y-13920D01*
X26583Y-14025D01*
X26665Y-14147D01*
X26721Y-14283D01*
X26749Y-14427D01*
X26747Y-14595D01*
X26714Y-14738D01*
X26654Y-14872D01*
X26569Y-14992D01*
X26463Y-15093D01*
X26339Y-15172D01*
X26202Y-15225D01*
X26057Y-15250D01*
X26057Y-15751D01*
X26079Y-15752D01*
X26223Y-15781D01*
X26358Y-15838D01*
X26480Y-15920D01*
X26583Y-16025D01*
X26665Y-16147D01*
X26721Y-16283D01*
X26749Y-16427D01*
X26747Y-16595D01*
X26714Y-16738D01*
X26654Y-16872D01*
X26569Y-16992D01*
X26463Y-17093D01*
X26339Y-17172D01*
X26202Y-17225D01*
X26057Y-17250D01*
X26057Y-18251D01*
X26079Y-18252D01*
X26223Y-18281D01*
X26358Y-18338D01*
X26480Y-18420D01*
X26583Y-18525D01*
X26665Y-18647D01*
X26721Y-18783D01*
X26749Y-18927D01*
X26747Y-19095D01*
X26714Y-19238D01*
X26654Y-19372D01*
X26612Y-19430D01*
X29885Y-19430D01*
X29830Y-19344D01*
X29776Y-19207D01*
X29750Y-19063D01*
X29752Y-18916D01*
X29783Y-18772D01*
X29841Y-18637D01*
X29924Y-18516D01*
X30029Y-18413D01*
X30152Y-18333D01*
X30288Y-18278D01*
X30432Y-18251D01*
X30557Y-18251D01*
X30557Y-17250D01*
X30410Y-17247D01*
X30267Y-17216D01*
X30132Y-17157D01*
X30012Y-17073D01*
X29910Y-16967D01*
X29830Y-16844D01*
X29776Y-16707D01*
X29750Y-16563D01*
X29752Y-16416D01*
X29783Y-16272D01*
X29841Y-16137D01*
X29924Y-16016D01*
X30029Y-15913D01*
X30152Y-15833D01*
X30288Y-15778D01*
X30432Y-15751D01*
X30579Y-15752D01*
X30723Y-15781D01*
X30858Y-15838D01*
X30980Y-15920D01*
X31083Y-16025D01*
X31165Y-16147D01*
X31221Y-16283D01*
X31249Y-16427D01*
X31247Y-16595D01*
X31214Y-16738D01*
X31154Y-16872D01*
X31069Y-16992D01*
X30963Y-17093D01*
X30839Y-17172D01*
X30702Y-17225D01*
X30557Y-17250D01*
X30557Y-18251D01*
X30579Y-18252D01*
X30723Y-18281D01*
X30858Y-18338D01*
X30980Y-18420D01*
X31083Y-18525D01*
X31165Y-18647D01*
X31221Y-18783D01*
X31249Y-18927D01*
X31247Y-19095D01*
X31214Y-19238D01*
X31154Y-19372D01*
X31112Y-19430D01*
X34385Y-19430D01*
X34330Y-19344D01*
X34276Y-19207D01*
X34250Y-19063D01*
X34252Y-18916D01*
X34283Y-18772D01*
X34341Y-18637D01*
X34424Y-18516D01*
X34529Y-18413D01*
X34652Y-18333D01*
X34788Y-18278D01*
X34932Y-18251D01*
X35057Y-18251D01*
X35057Y-17250D01*
X34910Y-17247D01*
X34767Y-17216D01*
X34632Y-17157D01*
X34512Y-17073D01*
X34410Y-16967D01*
X34330Y-16844D01*
X34276Y-16707D01*
X34250Y-16563D01*
X34252Y-16416D01*
X34283Y-16272D01*
X34341Y-16137D01*
X34424Y-16016D01*
X34529Y-15913D01*
X34652Y-15833D01*
X34788Y-15778D01*
X34932Y-15751D01*
X35057Y-15751D01*
X35057Y-15250D01*
X34910Y-15247D01*
X34767Y-15216D01*
X34632Y-15157D01*
X34512Y-15073D01*
X34410Y-14967D01*
X34333Y-14850D01*
X31163Y-14850D01*
X31154Y-14872D01*
X31069Y-14992D01*
X30963Y-15093D01*
X30839Y-15172D01*
X30702Y-15225D01*
X30557Y-15250D01*
X30410Y-15247D01*
X30267Y-15216D01*
X30132Y-15157D01*
X30012Y-15073D01*
X29910Y-14967D01*
X29830Y-14844D01*
X29776Y-14707D01*
X29750Y-14563D01*
X29752Y-14416D01*
X29783Y-14272D01*
X29841Y-14137D01*
X29924Y-14016D01*
X30029Y-13913D01*
X30152Y-13833D01*
X30288Y-13778D01*
X30432Y-13751D01*
X30579Y-13752D01*
X30723Y-13781D01*
X30858Y-13838D01*
X30980Y-13920D01*
X31083Y-14025D01*
X31165Y-14147D01*
X31166Y-14150D01*
X34335Y-14150D01*
X34341Y-14137D01*
X34424Y-14016D01*
X34529Y-13913D01*
X34652Y-13833D01*
X34788Y-13778D01*
X34932Y-13751D01*
X35079Y-13752D01*
X35223Y-13781D01*
X35358Y-13838D01*
X35480Y-13920D01*
X35583Y-14025D01*
X35665Y-14147D01*
X35721Y-14283D01*
X35749Y-14427D01*
X35747Y-14595D01*
X35714Y-14738D01*
X35654Y-14872D01*
X35569Y-14992D01*
X35463Y-15093D01*
X35339Y-15172D01*
X35202Y-15225D01*
X35057Y-15250D01*
X35057Y-15751D01*
X35079Y-15752D01*
X35223Y-15781D01*
X35358Y-15838D01*
X35480Y-15920D01*
X35583Y-16025D01*
X35665Y-16147D01*
X35721Y-16283D01*
X35749Y-16427D01*
X35747Y-16595D01*
X35714Y-16738D01*
X35654Y-16872D01*
X35569Y-16992D01*
X35463Y-17093D01*
X35339Y-17172D01*
X35202Y-17225D01*
X35057Y-17250D01*
X35057Y-18251D01*
X35079Y-18252D01*
X35223Y-18281D01*
X35358Y-18338D01*
X35480Y-18420D01*
X35583Y-18525D01*
X35665Y-18647D01*
X35721Y-18783D01*
X35749Y-18927D01*
X35747Y-19095D01*
X35714Y-19238D01*
X35654Y-19372D01*
X35612Y-19430D01*
X38885Y-19430D01*
X38830Y-19344D01*
X38776Y-19207D01*
X38750Y-19063D01*
X38752Y-18916D01*
X38783Y-18772D01*
X38841Y-18637D01*
X38924Y-18516D01*
X39029Y-18413D01*
X39152Y-18333D01*
X39288Y-18278D01*
X39432Y-18251D01*
X39557Y-18251D01*
X39557Y-17250D01*
X39410Y-17247D01*
X39267Y-17216D01*
X39132Y-17157D01*
X39012Y-17073D01*
X38910Y-16967D01*
X38830Y-16844D01*
X38776Y-16707D01*
X38750Y-16563D01*
X38752Y-16416D01*
X38783Y-16272D01*
X38841Y-16137D01*
X38924Y-16016D01*
X39029Y-15913D01*
X39152Y-15833D01*
X39288Y-15778D01*
X39432Y-15751D01*
X39557Y-15751D01*
X39557Y-15250D01*
X39410Y-15247D01*
X39267Y-15216D01*
X39132Y-15157D01*
X39012Y-15073D01*
X38910Y-14967D01*
X38830Y-14844D01*
X38776Y-14707D01*
X38750Y-14563D01*
X38752Y-14416D01*
X38783Y-14272D01*
X38841Y-14137D01*
X38924Y-14016D01*
X39029Y-13913D01*
X39152Y-13833D01*
X39288Y-13778D01*
X39432Y-13751D01*
X39579Y-13752D01*
X39723Y-13781D01*
X39858Y-13838D01*
X39980Y-13920D01*
X40083Y-14025D01*
X40165Y-14147D01*
X40221Y-14283D01*
X40249Y-14427D01*
X40247Y-14595D01*
X40214Y-14738D01*
X40154Y-14872D01*
X40069Y-14992D01*
X39963Y-15093D01*
X39839Y-15172D01*
X39702Y-15225D01*
X39557Y-15250D01*
X39557Y-15751D01*
X39579Y-15752D01*
X39723Y-15781D01*
X39858Y-15838D01*
X39980Y-15920D01*
X40083Y-16025D01*
X40165Y-16147D01*
X40221Y-16283D01*
X40249Y-16427D01*
X40247Y-16595D01*
X40214Y-16738D01*
X40154Y-16872D01*
X40069Y-16992D01*
X39963Y-17093D01*
X39839Y-17172D01*
X39702Y-17225D01*
X39557Y-17250D01*
X39557Y-18251D01*
X39579Y-18252D01*
X39723Y-18281D01*
X39858Y-18338D01*
X39980Y-18420D01*
X40083Y-18525D01*
X40165Y-18647D01*
X40221Y-18783D01*
X40249Y-18927D01*
X40247Y-19095D01*
X40214Y-19238D01*
X40154Y-19372D01*
X40112Y-19430D01*
X43385Y-19430D01*
X43330Y-19344D01*
X43276Y-19207D01*
X43250Y-19063D01*
X43252Y-18916D01*
X43283Y-18772D01*
X43341Y-18637D01*
X43424Y-18516D01*
X43529Y-18413D01*
X43652Y-18333D01*
X43788Y-18278D01*
X43932Y-18251D01*
X44079Y-18252D01*
X44223Y-18281D01*
X44358Y-18338D01*
X44480Y-18420D01*
X44583Y-18525D01*
X44665Y-18647D01*
X44721Y-18783D01*
X44749Y-18927D01*
X44747Y-19095D01*
X44714Y-19238D01*
X44654Y-19372D01*
X44612Y-19430D01*
X46596Y-19430D01*
X48454Y-17572D01*
X48050Y-17572D01*
X47718Y-17905D01*
X47713Y-17910D01*
X47667Y-17945D01*
X47641Y-17967D01*
X47637Y-17968D01*
X47636Y-17970D01*
X47550Y-18016D01*
X47467Y-18039D01*
X47461Y-18041D01*
X47460Y-18041D01*
X47457Y-18042D01*
X47404Y-18046D01*
X47364Y-18051D01*
X46920Y-18051D01*
X46912Y-18060D01*
X46900Y-18067D01*
X46900Y-18225D01*
X46895Y-18260D01*
X46890Y-18319D01*
X46861Y-18412D01*
X46860Y-18412D01*
X46860Y-18415D01*
X46841Y-18448D01*
X46815Y-18498D01*
X46752Y-18573D01*
X46750Y-18573D01*
X46750Y-18575D01*
X46715Y-18602D01*
X46677Y-18634D01*
X46675Y-18634D01*
X46674Y-18636D01*
X46609Y-18669D01*
X46591Y-18680D01*
X46590Y-18680D01*
X46587Y-18682D01*
X46547Y-18693D01*
X46521Y-18714D01*
X46435Y-18760D01*
X46342Y-18786D01*
X46244Y-18795D01*
X46147Y-18784D01*
X46053Y-18755D01*
X45968Y-18709D01*
X45893Y-18646D01*
X45831Y-18570D01*
X45786Y-18484D01*
X45758Y-18390D01*
X45749Y-18293D01*
X45759Y-18197D01*
X45787Y-18103D01*
X45834Y-18017D01*
X45841Y-18008D01*
X45824Y-17982D01*
X45805Y-17937D01*
X45796Y-17889D01*
X45796Y-17210D01*
X45806Y-17162D01*
X45825Y-17117D01*
X45853Y-17077D01*
X45888Y-17042D01*
X45929Y-17015D01*
X45964Y-17000D01*
X45926Y-16984D01*
X45886Y-16956D01*
X45851Y-16921D01*
X45824Y-16880D01*
X45805Y-16835D01*
X45796Y-16787D01*
X45796Y-16108D01*
X45806Y-16060D01*
X45825Y-16015D01*
X45853Y-15975D01*
X45869Y-15958D01*
X45765Y-15854D01*
X44381Y-15854D01*
X44480Y-15920D01*
X44583Y-16025D01*
X44665Y-16147D01*
X44721Y-16283D01*
X44749Y-16427D01*
X44747Y-16595D01*
X44714Y-16738D01*
X44654Y-16872D01*
X44569Y-16992D01*
X44463Y-17093D01*
X44339Y-17172D01*
X44202Y-17225D01*
X44057Y-17250D01*
X43910Y-17247D01*
X43767Y-17216D01*
X43632Y-17157D01*
X43512Y-17073D01*
X43410Y-16967D01*
X43330Y-16844D01*
X43276Y-16707D01*
X43250Y-16563D01*
X43252Y-16416D01*
X43283Y-16272D01*
X43341Y-16137D01*
X43424Y-16016D01*
X43529Y-15913D01*
X43622Y-15851D01*
X43571Y-15846D01*
X43549Y-15844D01*
X43546Y-15843D01*
X43544Y-15843D01*
X43451Y-15814D01*
X43366Y-15767D01*
X43313Y-15723D01*
X43294Y-15707D01*
X41629Y-14043D01*
X41581Y-14052D01*
X41375Y-14048D01*
X41174Y-14003D01*
X40985Y-13921D01*
X40816Y-13803D01*
X40673Y-13655D01*
X40573Y-13500D01*
X10426Y-13500D01*
X10417Y-13521D01*
X10299Y-13689D01*
X10150Y-13831D01*
X09976Y-13942D01*
X09784Y-14016D01*
X09581Y-14052D01*
X09375Y-14048D01*
X09174Y-14003D01*
X08985Y-13921D01*
X08847Y-13824D01*
X08847Y-14970D01*
X08950Y-14951D01*
X09057Y-14951D01*
X09163Y-14973D01*
X09262Y-15015D01*
X09352Y-15075D01*
X09427Y-15151D01*
X09487Y-15241D01*
X09528Y-15340D01*
X09549Y-15446D01*
X09547Y-15569D01*
X09524Y-15674D01*
X09480Y-15772D01*
X09418Y-15860D01*
X09340Y-15935D01*
X09249Y-15992D01*
X09227Y-16000D01*
X09262Y-16015D01*
X09352Y-16075D01*
X09427Y-16151D01*
X09487Y-16241D01*
X09528Y-16340D01*
X09549Y-16446D01*
X09547Y-16569D01*
X09524Y-16674D01*
X09480Y-16772D01*
X09418Y-16860D01*
X09340Y-16935D01*
X09249Y-16992D01*
X09227Y-17000D01*
X09262Y-17015D01*
X09352Y-17075D01*
X09427Y-17151D01*
X09487Y-17241D01*
X09528Y-17340D01*
X09549Y-17446D01*
X09547Y-17569D01*
X09524Y-17674D01*
X09500Y-17727D01*
X09500Y-18272D01*
X09513Y-18305D01*
X11707Y-20500D01*
X11940Y-20500D01*
X12029Y-20413D01*
X12152Y-20333D01*
X12288Y-20278D01*
X12432Y-20251D01*
X12557Y-20251D01*
X12557Y-19750D01*
X12410Y-19747D01*
X12267Y-19716D01*
X12132Y-19657D01*
X12012Y-19573D01*
X11910Y-19467D01*
X11830Y-19344D01*
X11776Y-19207D01*
X11750Y-19063D01*
X11752Y-18916D01*
X11783Y-18772D01*
X11841Y-18637D01*
X11924Y-18516D01*
X12029Y-18413D01*
X12152Y-18333D01*
X12288Y-18278D01*
X12432Y-18251D01*
X12557Y-18251D01*
X12557Y-17250D01*
X12410Y-17247D01*
X12267Y-17216D01*
X12132Y-17157D01*
X12012Y-17073D01*
X11910Y-16967D01*
X11830Y-16844D01*
X11776Y-16707D01*
X11750Y-16563D01*
X11752Y-16416D01*
X11783Y-16272D01*
X11841Y-16137D01*
X11924Y-16016D01*
X12029Y-15913D01*
X12152Y-15833D01*
X12288Y-15778D01*
X12432Y-15751D01*
X12579Y-15752D01*
X12723Y-15781D01*
X12858Y-15838D01*
X12980Y-15920D01*
X13083Y-16025D01*
X13165Y-16147D01*
X13221Y-16283D01*
X13249Y-16427D01*
X13247Y-16595D01*
X13214Y-16738D01*
X13154Y-16872D01*
X13069Y-16992D01*
X12963Y-17093D01*
X12839Y-17172D01*
X12702Y-17225D01*
X12557Y-17250D01*
X12557Y-18251D01*
X12579Y-18252D01*
X12723Y-18281D01*
X12858Y-18338D01*
X12980Y-18420D01*
X13083Y-18525D01*
X13165Y-18647D01*
X13221Y-18783D01*
X13249Y-18927D01*
X13247Y-19095D01*
X13214Y-19238D01*
X13154Y-19372D01*
X13069Y-19492D01*
X12963Y-19593D01*
X12839Y-19672D01*
X12702Y-19725D01*
X12557Y-19750D01*
X12557Y-20251D01*
X12579Y-20252D01*
X12723Y-20281D01*
X12858Y-20338D01*
X12980Y-20420D01*
X13083Y-20525D01*
X13165Y-20647D01*
X13221Y-20783D01*
X13249Y-20927D01*
X13247Y-21095D01*
X13214Y-21238D01*
X13154Y-21372D01*
X13086Y-21468D01*
X14664Y-21468D01*
G54D10*
G36*
X38427Y-21365D02*
X38750Y-21042D01*
X38752Y-20916D01*
X38783Y-20772D01*
X38841Y-20637D01*
X38924Y-20516D01*
X39029Y-20413D01*
X39061Y-20392D01*
X35438Y-20392D01*
X35480Y-20420D01*
X35583Y-20525D01*
X35665Y-20647D01*
X35721Y-20783D01*
X35749Y-20927D01*
X35747Y-21095D01*
X35714Y-21238D01*
X35657Y-21365D01*
X38427Y-21365D01*
X38427Y-21365D01*
G37*
G54D32*
X38427Y-21365D02*
X38750Y-21042D01*
X38752Y-20916D01*
X38783Y-20772D01*
X38841Y-20637D01*
X38924Y-20516D01*
X39029Y-20413D01*
X39061Y-20392D01*
X35438Y-20392D01*
X35480Y-20420D01*
X35583Y-20525D01*
X35665Y-20647D01*
X35721Y-20783D01*
X35749Y-20927D01*
X35747Y-21095D01*
X35714Y-21238D01*
X35657Y-21365D01*
X38427Y-21365D01*
G54D10*
G36*
X34343Y-21365D02*
X34330Y-21344D01*
X34276Y-21207D01*
X34250Y-21063D01*
X34252Y-20916D01*
X34283Y-20772D01*
X34341Y-20637D01*
X34424Y-20516D01*
X34529Y-20413D01*
X34561Y-20392D01*
X30938Y-20392D01*
X30980Y-20420D01*
X31083Y-20525D01*
X31165Y-20647D01*
X31221Y-20783D01*
X31249Y-20927D01*
X31247Y-21040D01*
X31572Y-21365D01*
X34343Y-21365D01*
X34343Y-21365D01*
G37*
G54D32*
X34343Y-21365D02*
X34330Y-21344D01*
X34276Y-21207D01*
X34250Y-21063D01*
X34252Y-20916D01*
X34283Y-20772D01*
X34341Y-20637D01*
X34424Y-20516D01*
X34529Y-20413D01*
X34561Y-20392D01*
X30938Y-20392D01*
X30980Y-20420D01*
X31083Y-20525D01*
X31165Y-20647D01*
X31221Y-20783D01*
X31249Y-20927D01*
X31247Y-21040D01*
X31572Y-21365D01*
X34343Y-21365D01*
G54D10*
G36*
X60160Y-21337D02*
X60199Y-21321D01*
X60281Y-21306D01*
X60306Y-21306D01*
X60617Y-20995D01*
X60617Y-20710D01*
X60571Y-20728D01*
X60489Y-20743D01*
X60468Y-20742D01*
X60367Y-20844D01*
X60359Y-20870D01*
X60358Y-20871D01*
X60358Y-20872D01*
X60329Y-20925D01*
X60298Y-20961D01*
X60291Y-20970D01*
X60290Y-20970D01*
X60290Y-20971D01*
X60280Y-20979D01*
X60245Y-21008D01*
X60191Y-21037D01*
X60154Y-21047D01*
X60146Y-21050D01*
X60151Y-21060D01*
X60160Y-21108D01*
X60160Y-21337D01*
X60160Y-21337D01*
G37*
G54D32*
X60160Y-21337D02*
X60199Y-21321D01*
X60281Y-21306D01*
X60306Y-21306D01*
X60617Y-20995D01*
X60617Y-20710D01*
X60571Y-20728D01*
X60489Y-20743D01*
X60468Y-20742D01*
X60367Y-20844D01*
X60359Y-20870D01*
X60358Y-20871D01*
X60358Y-20872D01*
X60329Y-20925D01*
X60298Y-20961D01*
X60291Y-20970D01*
X60290Y-20970D01*
X60290Y-20971D01*
X60280Y-20979D01*
X60245Y-21008D01*
X60191Y-21037D01*
X60154Y-21047D01*
X60146Y-21050D01*
X60151Y-21060D01*
X60160Y-21108D01*
X60160Y-21337D01*
G54D10*
G36*
X58795Y-20900D02*
X58794Y-20892D01*
X58794Y-20605D01*
X58804Y-20557D01*
X58823Y-20512D01*
X58831Y-20499D01*
X58822Y-20485D01*
X58803Y-20440D01*
X58794Y-20392D01*
X58794Y-20276D01*
X58713Y-20275D01*
X58631Y-20257D01*
X58555Y-20224D01*
X58486Y-20176D01*
X58429Y-20117D01*
X58421Y-20105D01*
X58331Y-20196D01*
X58326Y-20201D01*
X58280Y-20236D01*
X58254Y-20258D01*
X58250Y-20259D01*
X58249Y-20261D01*
X58163Y-20307D01*
X58080Y-20330D01*
X58074Y-20332D01*
X58073Y-20332D01*
X58070Y-20333D01*
X58017Y-20337D01*
X57977Y-20342D01*
X57754Y-20342D01*
X57703Y-20336D01*
X57662Y-20332D01*
X57659Y-20331D01*
X57657Y-20331D01*
X57565Y-20302D01*
X57558Y-20314D01*
X57523Y-20349D01*
X57482Y-20376D01*
X57437Y-20395D01*
X57389Y-20404D01*
X56710Y-20404D01*
X56662Y-20394D01*
X56617Y-20375D01*
X56577Y-20347D01*
X56542Y-20312D01*
X56515Y-20271D01*
X56500Y-20235D01*
X56484Y-20274D01*
X56456Y-20314D01*
X56421Y-20349D01*
X56380Y-20376D01*
X56335Y-20395D01*
X56287Y-20404D01*
X55608Y-20404D01*
X55560Y-20394D01*
X55515Y-20375D01*
X55475Y-20347D01*
X55440Y-20312D01*
X55413Y-20271D01*
X55394Y-20226D01*
X55385Y-20178D01*
X55385Y-19419D01*
X55395Y-19371D01*
X55414Y-19326D01*
X55442Y-19286D01*
X55477Y-19251D01*
X55518Y-19224D01*
X55563Y-19205D01*
X55611Y-19196D01*
X55813Y-19196D01*
X54026Y-17409D01*
X54024Y-17413D01*
X53989Y-17448D01*
X53948Y-17475D01*
X53903Y-17494D01*
X53855Y-17503D01*
X53096Y-17503D01*
X53048Y-17493D01*
X53003Y-17474D01*
X52963Y-17446D01*
X52928Y-17411D01*
X52925Y-17407D01*
X52906Y-17423D01*
X52904Y-17423D01*
X52903Y-17425D01*
X52881Y-17435D01*
X52852Y-17452D01*
X52849Y-17452D01*
X52849Y-17453D01*
X52791Y-17470D01*
X52771Y-17471D01*
X52764Y-17482D01*
X52729Y-17517D01*
X52688Y-17544D01*
X52643Y-17563D01*
X52595Y-17572D01*
X51758Y-17572D01*
X51710Y-17562D01*
X51665Y-17543D01*
X51625Y-17515D01*
X51590Y-17480D01*
X51563Y-17439D01*
X51544Y-17394D01*
X51535Y-17346D01*
X51535Y-16981D01*
X51545Y-16933D01*
X51552Y-16914D01*
X51544Y-16894D01*
X51535Y-16846D01*
X51535Y-16481D01*
X51545Y-16433D01*
X51552Y-16414D01*
X51544Y-16394D01*
X51535Y-16346D01*
X51535Y-15981D01*
X51545Y-15933D01*
X51552Y-15914D01*
X51544Y-15894D01*
X51535Y-15846D01*
X51535Y-15481D01*
X51540Y-15453D01*
X51544Y-15436D01*
X51544Y-15434D01*
X51545Y-15433D01*
X51564Y-15388D01*
X51580Y-15364D01*
X51590Y-15350D01*
X51627Y-15313D01*
X51641Y-15303D01*
X51665Y-15287D01*
X51692Y-15275D01*
X51698Y-15273D01*
X51630Y-15273D01*
X47211Y-19692D01*
X51822Y-19692D01*
X51833Y-19693D01*
X51845Y-19694D01*
X51846Y-19647D01*
X51872Y-19523D01*
X51923Y-19406D01*
X51994Y-19300D01*
X52086Y-19211D01*
X52192Y-19141D01*
X52310Y-19094D01*
X52345Y-19087D01*
X52346Y-19087D01*
X52348Y-19086D01*
X52436Y-19070D01*
X52563Y-19070D01*
X52688Y-19096D01*
X52805Y-19145D01*
X52911Y-19217D01*
X53001Y-19307D01*
X53072Y-19413D01*
X53120Y-19531D01*
X53127Y-19570D01*
X53145Y-19656D01*
X53144Y-19693D01*
X53145Y-19697D01*
X53144Y-19708D01*
X53143Y-19802D01*
X53115Y-19926D01*
X53063Y-20042D01*
X52990Y-20147D01*
X52897Y-20235D01*
X52790Y-20303D01*
X52671Y-20349D01*
X52626Y-20356D01*
X53169Y-20900D01*
X58795Y-20900D01*
X58795Y-20900D01*
G37*
G54D32*
X58795Y-20900D02*
X58794Y-20892D01*
X58794Y-20605D01*
X58804Y-20557D01*
X58823Y-20512D01*
X58831Y-20499D01*
X58822Y-20485D01*
X58803Y-20440D01*
X58794Y-20392D01*
X58794Y-20276D01*
X58713Y-20275D01*
X58631Y-20257D01*
X58555Y-20224D01*
X58486Y-20176D01*
X58429Y-20117D01*
X58421Y-20105D01*
X58331Y-20196D01*
X58326Y-20201D01*
X58280Y-20236D01*
X58254Y-20258D01*
X58250Y-20259D01*
X58249Y-20261D01*
X58163Y-20307D01*
X58080Y-20330D01*
X58074Y-20332D01*
X58073Y-20332D01*
X58070Y-20333D01*
X58017Y-20337D01*
X57977Y-20342D01*
X57754Y-20342D01*
X57703Y-20336D01*
X57662Y-20332D01*
X57659Y-20331D01*
X57657Y-20331D01*
X57565Y-20302D01*
X57558Y-20314D01*
X57523Y-20349D01*
X57482Y-20376D01*
X57437Y-20395D01*
X57389Y-20404D01*
X56710Y-20404D01*
X56662Y-20394D01*
X56617Y-20375D01*
X56577Y-20347D01*
X56542Y-20312D01*
X56515Y-20271D01*
X56500Y-20235D01*
X56484Y-20274D01*
X56456Y-20314D01*
X56421Y-20349D01*
X56380Y-20376D01*
X56335Y-20395D01*
X56287Y-20404D01*
X55608Y-20404D01*
X55560Y-20394D01*
X55515Y-20375D01*
X55475Y-20347D01*
X55440Y-20312D01*
X55413Y-20271D01*
X55394Y-20226D01*
X55385Y-20178D01*
X55385Y-19419D01*
X55395Y-19371D01*
X55414Y-19326D01*
X55442Y-19286D01*
X55477Y-19251D01*
X55518Y-19224D01*
X55563Y-19205D01*
X55611Y-19196D01*
X55813Y-19196D01*
X54026Y-17409D01*
X54024Y-17413D01*
X53989Y-17448D01*
X53948Y-17475D01*
X53903Y-17494D01*
X53855Y-17503D01*
X53096Y-17503D01*
X53048Y-17493D01*
X53003Y-17474D01*
X52963Y-17446D01*
X52928Y-17411D01*
X52925Y-17407D01*
X52906Y-17423D01*
X52904Y-17423D01*
X52903Y-17425D01*
X52881Y-17435D01*
X52852Y-17452D01*
X52849Y-17452D01*
X52849Y-17453D01*
X52791Y-17470D01*
X52771Y-17471D01*
X52764Y-17482D01*
X52729Y-17517D01*
X52688Y-17544D01*
X52643Y-17563D01*
X52595Y-17572D01*
X51758Y-17572D01*
X51710Y-17562D01*
X51665Y-17543D01*
X51625Y-17515D01*
X51590Y-17480D01*
X51563Y-17439D01*
X51544Y-17394D01*
X51535Y-17346D01*
X51535Y-16981D01*
X51545Y-16933D01*
X51552Y-16914D01*
X51544Y-16894D01*
X51535Y-16846D01*
X51535Y-16481D01*
X51545Y-16433D01*
X51552Y-16414D01*
X51544Y-16394D01*
X51535Y-16346D01*
X51535Y-15981D01*
X51545Y-15933D01*
X51552Y-15914D01*
X51544Y-15894D01*
X51535Y-15846D01*
X51535Y-15481D01*
X51540Y-15453D01*
X51544Y-15436D01*
X51544Y-15434D01*
X51545Y-15433D01*
X51564Y-15388D01*
X51580Y-15364D01*
X51590Y-15350D01*
X51627Y-15313D01*
X51641Y-15303D01*
X51665Y-15287D01*
X51692Y-15275D01*
X51698Y-15273D01*
X51630Y-15273D01*
X47211Y-19692D01*
X51822Y-19692D01*
X51833Y-19693D01*
X51845Y-19694D01*
X51846Y-19647D01*
X51872Y-19523D01*
X51923Y-19406D01*
X51994Y-19300D01*
X52086Y-19211D01*
X52192Y-19141D01*
X52310Y-19094D01*
X52345Y-19087D01*
X52346Y-19087D01*
X52348Y-19086D01*
X52436Y-19070D01*
X52563Y-19070D01*
X52688Y-19096D01*
X52805Y-19145D01*
X52911Y-19217D01*
X53001Y-19307D01*
X53072Y-19413D01*
X53120Y-19531D01*
X53127Y-19570D01*
X53145Y-19656D01*
X53144Y-19693D01*
X53145Y-19697D01*
X53144Y-19708D01*
X53143Y-19802D01*
X53115Y-19926D01*
X53063Y-20042D01*
X52990Y-20147D01*
X52897Y-20235D01*
X52790Y-20303D01*
X52671Y-20349D01*
X52626Y-20356D01*
X53169Y-20900D01*
X58795Y-20900D01*
G54D10*
G36*
X66944Y-20640D02*
X66949Y-20618D01*
X66984Y-20536D01*
X66904Y-20536D01*
X66941Y-20624D01*
X66944Y-20640D01*
X66944Y-20640D01*
G37*
G54D32*
X66944Y-20640D02*
X66949Y-20618D01*
X66984Y-20536D01*
X66904Y-20536D01*
X66941Y-20624D01*
X66944Y-20640D01*
G54D10*
G36*
X65960Y-20640D02*
X65965Y-20618D01*
X66000Y-20536D01*
X65920Y-20536D01*
X65957Y-20624D01*
X65960Y-20640D01*
X65960Y-20640D01*
G37*
G54D32*
X65960Y-20640D02*
X65965Y-20618D01*
X66000Y-20536D01*
X65920Y-20536D01*
X65957Y-20624D01*
X65960Y-20640D01*
G54D10*
G36*
X16690Y-20317D02*
X16788Y-20278D01*
X16932Y-20251D01*
X17079Y-20252D01*
X17223Y-20281D01*
X17224Y-20281D01*
X17455Y-20050D01*
X16958Y-20050D01*
X16690Y-20317D01*
X16690Y-20317D01*
G37*
G54D32*
X16690Y-20317D02*
X16788Y-20278D01*
X16932Y-20251D01*
X17079Y-20252D01*
X17223Y-20281D01*
X17224Y-20281D01*
X17455Y-20050D01*
X16958Y-20050D01*
X16690Y-20317D01*
G54D10*
G36*
X64064Y-20316D02*
X65151Y-19229D01*
X64068Y-19229D01*
X64068Y-20283D01*
X64065Y-20301D01*
X64064Y-20316D01*
X64064Y-20316D01*
G37*
G54D32*
X64064Y-20316D02*
X65151Y-19229D01*
X64068Y-19229D01*
X64068Y-20283D01*
X64065Y-20301D01*
X64064Y-20316D01*
G54D10*
G36*
X106510Y-20035D02*
X106539Y-20008D01*
X106483Y-20008D01*
X106510Y-20035D01*
X106510Y-20035D01*
G37*
G54D32*
X106510Y-20035D02*
X106539Y-20008D01*
X106483Y-20008D01*
X106510Y-20035D01*
G54D10*
G36*
X66878Y-19836D02*
X66181Y-19138D01*
X66178Y-19135D01*
X66161Y-19115D01*
X66150Y-19100D01*
X66142Y-19109D01*
X66119Y-19139D01*
X65421Y-19836D01*
X66878Y-19836D01*
X66878Y-19836D01*
G37*
G54D32*
X66878Y-19836D02*
X66181Y-19138D01*
X66178Y-19135D01*
X66161Y-19115D01*
X66150Y-19100D01*
X66142Y-19109D01*
X66119Y-19139D01*
X65421Y-19836D01*
X66878Y-19836D01*
G54D10*
G36*
X79141Y-19612D02*
X77013Y-17484D01*
X71319Y-17484D01*
X71319Y-17545D01*
X71300Y-17626D01*
X71266Y-17703D01*
X71219Y-17771D01*
X71205Y-17784D01*
X71205Y-19612D01*
X71567Y-19612D01*
X71512Y-19573D01*
X71410Y-19467D01*
X71330Y-19344D01*
X71276Y-19207D01*
X71250Y-19063D01*
X71252Y-18916D01*
X71283Y-18772D01*
X71341Y-18637D01*
X71424Y-18516D01*
X71529Y-18413D01*
X71652Y-18333D01*
X71788Y-18278D01*
X71932Y-18251D01*
X72079Y-18252D01*
X72223Y-18281D01*
X72358Y-18338D01*
X72480Y-18420D01*
X72583Y-18525D01*
X72665Y-18647D01*
X72721Y-18783D01*
X72749Y-18927D01*
X72747Y-19095D01*
X72714Y-19238D01*
X72654Y-19372D01*
X72569Y-19492D01*
X72463Y-19593D01*
X72433Y-19612D01*
X76067Y-19612D01*
X76012Y-19573D01*
X75910Y-19467D01*
X75830Y-19344D01*
X75776Y-19207D01*
X75750Y-19063D01*
X75752Y-18916D01*
X75783Y-18772D01*
X75841Y-18637D01*
X75924Y-18516D01*
X76029Y-18413D01*
X76152Y-18333D01*
X76288Y-18278D01*
X76432Y-18251D01*
X76579Y-18252D01*
X76723Y-18281D01*
X76858Y-18338D01*
X76980Y-18420D01*
X77083Y-18525D01*
X77165Y-18647D01*
X77221Y-18783D01*
X77249Y-18927D01*
X77247Y-19095D01*
X77214Y-19238D01*
X77154Y-19372D01*
X77069Y-19492D01*
X76963Y-19593D01*
X76933Y-19612D01*
X79141Y-19612D01*
X79141Y-19612D01*
G37*
G54D32*
X79141Y-19612D02*
X77013Y-17484D01*
X71319Y-17484D01*
X71319Y-17545D01*
X71300Y-17626D01*
X71266Y-17703D01*
X71219Y-17771D01*
X71205Y-17784D01*
X71205Y-19612D01*
X71567Y-19612D01*
X71512Y-19573D01*
X71410Y-19467D01*
X71330Y-19344D01*
X71276Y-19207D01*
X71250Y-19063D01*
X71252Y-18916D01*
X71283Y-18772D01*
X71341Y-18637D01*
X71424Y-18516D01*
X71529Y-18413D01*
X71652Y-18333D01*
X71788Y-18278D01*
X71932Y-18251D01*
X72079Y-18252D01*
X72223Y-18281D01*
X72358Y-18338D01*
X72480Y-18420D01*
X72583Y-18525D01*
X72665Y-18647D01*
X72721Y-18783D01*
X72749Y-18927D01*
X72747Y-19095D01*
X72714Y-19238D01*
X72654Y-19372D01*
X72569Y-19492D01*
X72463Y-19593D01*
X72433Y-19612D01*
X76067Y-19612D01*
X76012Y-19573D01*
X75910Y-19467D01*
X75830Y-19344D01*
X75776Y-19207D01*
X75750Y-19063D01*
X75752Y-18916D01*
X75783Y-18772D01*
X75841Y-18637D01*
X75924Y-18516D01*
X76029Y-18413D01*
X76152Y-18333D01*
X76288Y-18278D01*
X76432Y-18251D01*
X76579Y-18252D01*
X76723Y-18281D01*
X76858Y-18338D01*
X76980Y-18420D01*
X77083Y-18525D01*
X77165Y-18647D01*
X77221Y-18783D01*
X77249Y-18927D01*
X77247Y-19095D01*
X77214Y-19238D01*
X77154Y-19372D01*
X77069Y-19492D01*
X76963Y-19593D01*
X76933Y-19612D01*
X79141Y-19612D01*
G54D10*
G36*
X70585Y-19612D02*
X70585Y-17782D01*
X70561Y-17758D01*
X70515Y-17688D01*
X70485Y-17610D01*
X70469Y-17528D01*
X70470Y-17464D01*
X69904Y-17464D01*
X69904Y-18092D01*
X69894Y-18140D01*
X69875Y-18185D01*
X69847Y-18225D01*
X69812Y-18260D01*
X69771Y-18287D01*
X69726Y-18306D01*
X69678Y-18315D01*
X68919Y-18315D01*
X68871Y-18305D01*
X68826Y-18286D01*
X68786Y-18258D01*
X68751Y-18223D01*
X68724Y-18182D01*
X68705Y-18137D01*
X68696Y-18089D01*
X68696Y-18046D01*
X68680Y-18041D01*
X68663Y-18037D01*
X68268Y-18037D01*
X68268Y-18783D01*
X68258Y-18831D01*
X68239Y-18876D01*
X68211Y-18916D01*
X68210Y-18917D01*
X68210Y-19017D01*
X68203Y-19077D01*
X68190Y-19115D01*
X68186Y-19133D01*
X68185Y-19134D01*
X68185Y-19135D01*
X68156Y-19188D01*
X68142Y-19203D01*
X68119Y-19233D01*
X68054Y-19297D01*
X68054Y-19336D01*
X68035Y-19417D01*
X68001Y-19494D01*
X67954Y-19562D01*
X67900Y-19612D01*
X70585Y-19612D01*
X70585Y-19612D01*
G37*
G54D32*
X70585Y-19612D02*
X70585Y-17782D01*
X70561Y-17758D01*
X70515Y-17688D01*
X70485Y-17610D01*
X70469Y-17528D01*
X70470Y-17464D01*
X69904Y-17464D01*
X69904Y-18092D01*
X69894Y-18140D01*
X69875Y-18185D01*
X69847Y-18225D01*
X69812Y-18260D01*
X69771Y-18287D01*
X69726Y-18306D01*
X69678Y-18315D01*
X68919Y-18315D01*
X68871Y-18305D01*
X68826Y-18286D01*
X68786Y-18258D01*
X68751Y-18223D01*
X68724Y-18182D01*
X68705Y-18137D01*
X68696Y-18089D01*
X68696Y-18046D01*
X68680Y-18041D01*
X68663Y-18037D01*
X68268Y-18037D01*
X68268Y-18783D01*
X68258Y-18831D01*
X68239Y-18876D01*
X68211Y-18916D01*
X68210Y-18917D01*
X68210Y-19017D01*
X68203Y-19077D01*
X68190Y-19115D01*
X68186Y-19133D01*
X68185Y-19134D01*
X68185Y-19135D01*
X68156Y-19188D01*
X68142Y-19203D01*
X68119Y-19233D01*
X68054Y-19297D01*
X68054Y-19336D01*
X68035Y-19417D01*
X68001Y-19494D01*
X67954Y-19562D01*
X67900Y-19612D01*
X70585Y-19612D01*
G54D10*
G36*
X60717Y-19523D02*
X60719Y-19520D01*
X60755Y-19492D01*
X60809Y-19463D01*
X60845Y-19452D01*
X60853Y-19449D01*
X60849Y-19440D01*
X60840Y-19392D01*
X60840Y-19380D01*
X60707Y-19513D01*
X60717Y-19523D01*
X60717Y-19523D01*
G37*
G54D32*
X60717Y-19523D02*
X60719Y-19520D01*
X60755Y-19492D01*
X60809Y-19463D01*
X60845Y-19452D01*
X60853Y-19449D01*
X60849Y-19440D01*
X60840Y-19392D01*
X60840Y-19380D01*
X60707Y-19513D01*
X60717Y-19523D01*
G54D10*
G36*
X57802Y-19308D02*
X58215Y-18897D01*
X58220Y-18892D01*
X58246Y-18870D01*
X58292Y-18834D01*
X58295Y-18832D01*
X58297Y-18831D01*
X58325Y-18816D01*
X58378Y-18788D01*
X58380Y-18787D01*
X58383Y-18786D01*
X58450Y-18766D01*
X58472Y-18760D01*
X58472Y-18759D01*
X58476Y-18759D01*
X58528Y-18754D01*
X58569Y-18750D01*
X60055Y-18750D01*
X60142Y-18663D01*
X57575Y-18663D01*
X57042Y-19196D01*
X57392Y-19196D01*
X57440Y-19206D01*
X57485Y-19225D01*
X57525Y-19253D01*
X57560Y-19288D01*
X57567Y-19300D01*
X57726Y-19300D01*
X57782Y-19306D01*
X57802Y-19308D01*
X57802Y-19308D01*
G37*
G54D32*
X57802Y-19308D02*
X58215Y-18897D01*
X58220Y-18892D01*
X58246Y-18870D01*
X58292Y-18834D01*
X58295Y-18832D01*
X58297Y-18831D01*
X58325Y-18816D01*
X58378Y-18788D01*
X58380Y-18787D01*
X58383Y-18786D01*
X58450Y-18766D01*
X58472Y-18760D01*
X58472Y-18759D01*
X58476Y-18759D01*
X58528Y-18754D01*
X58569Y-18750D01*
X60055Y-18750D01*
X60142Y-18663D01*
X57575Y-18663D01*
X57042Y-19196D01*
X57392Y-19196D01*
X57440Y-19206D01*
X57485Y-19225D01*
X57525Y-19253D01*
X57560Y-19288D01*
X57567Y-19300D01*
X57726Y-19300D01*
X57782Y-19306D01*
X57802Y-19308D01*
G54D10*
G36*
X67204Y-19285D02*
X67206Y-19236D01*
X67223Y-19154D01*
X67256Y-19078D01*
X67303Y-19009D01*
X67305Y-19006D01*
X67255Y-19006D01*
X67207Y-18996D01*
X67162Y-18977D01*
X67149Y-18968D01*
X67135Y-18978D01*
X67090Y-18997D01*
X67042Y-19006D01*
X66925Y-19006D01*
X67204Y-19285D01*
X67204Y-19285D01*
G37*
G54D32*
X67204Y-19285D02*
X67206Y-19236D01*
X67223Y-19154D01*
X67256Y-19078D01*
X67303Y-19009D01*
X67305Y-19006D01*
X67255Y-19006D01*
X67207Y-18996D01*
X67162Y-18977D01*
X67149Y-18968D01*
X67135Y-18978D01*
X67090Y-18997D01*
X67042Y-19006D01*
X66925Y-19006D01*
X67204Y-19285D01*
G54D10*
G36*
X56427Y-18934D02*
X57229Y-18133D01*
X57239Y-18123D01*
X57275Y-18095D01*
X57329Y-18066D01*
X57331Y-18065D01*
X57332Y-18065D01*
X57390Y-18048D01*
X57431Y-18044D01*
X57447Y-18043D01*
X58683Y-18043D01*
X58683Y-16803D01*
X58685Y-16785D01*
X58689Y-16746D01*
X58707Y-16687D01*
X58707Y-16685D01*
X58708Y-16685D01*
X58737Y-16632D01*
X58762Y-16602D01*
X58774Y-16588D01*
X58776Y-16586D01*
X58960Y-16401D01*
X58950Y-16346D01*
X58952Y-16239D01*
X58974Y-16133D01*
X59017Y-16034D01*
X59077Y-15946D01*
X59154Y-15870D01*
X59244Y-15811D01*
X59344Y-15771D01*
X59450Y-15751D01*
X59557Y-15751D01*
X59601Y-15760D01*
X60088Y-15273D01*
X53858Y-15273D01*
X53906Y-15283D01*
X53951Y-15302D01*
X53991Y-15330D01*
X54026Y-15365D01*
X54053Y-15406D01*
X54072Y-15451D01*
X54081Y-15499D01*
X54081Y-15527D01*
X54105Y-15527D01*
X54123Y-15529D01*
X54162Y-15533D01*
X54221Y-15551D01*
X54222Y-15551D01*
X54223Y-15552D01*
X54276Y-15581D01*
X54305Y-15606D01*
X54320Y-15618D01*
X54760Y-16057D01*
X54760Y-15719D01*
X54770Y-15671D01*
X54789Y-15626D01*
X54817Y-15586D01*
X54852Y-15551D01*
X54893Y-15524D01*
X54938Y-15505D01*
X54986Y-15496D01*
X55587Y-15496D01*
X55635Y-15506D01*
X55680Y-15525D01*
X55720Y-15553D01*
X55755Y-15588D01*
X55782Y-15629D01*
X55798Y-15667D01*
X56660Y-15667D01*
X56665Y-15647D01*
X56684Y-15602D01*
X56712Y-15562D01*
X56747Y-15527D01*
X56788Y-15500D01*
X56833Y-15481D01*
X56881Y-15472D01*
X57522Y-15472D01*
X57570Y-15482D01*
X57615Y-15501D01*
X57655Y-15529D01*
X57690Y-15564D01*
X57717Y-15605D01*
X57736Y-15650D01*
X57745Y-15698D01*
X57745Y-16259D01*
X57735Y-16307D01*
X57716Y-16351D01*
X57717Y-16353D01*
X57736Y-16398D01*
X57741Y-16427D01*
X57778Y-16439D01*
X57779Y-16439D01*
X57780Y-16440D01*
X57833Y-16469D01*
X57863Y-16494D01*
X57877Y-16506D01*
X57938Y-16567D01*
X57946Y-16560D01*
X58016Y-16515D01*
X58093Y-16483D01*
X58175Y-16468D01*
X58258Y-16468D01*
X58340Y-16485D01*
X58417Y-16517D01*
X58486Y-16564D01*
X58545Y-16623D01*
X58591Y-16692D01*
X58623Y-16769D01*
X58639Y-16851D01*
X58638Y-16946D01*
X58619Y-17027D01*
X58585Y-17104D01*
X58538Y-17172D01*
X58477Y-17229D01*
X58407Y-17274D01*
X58329Y-17304D01*
X58247Y-17319D01*
X58164Y-17317D01*
X58082Y-17299D01*
X58006Y-17266D01*
X57937Y-17218D01*
X57922Y-17203D01*
X57822Y-17203D01*
X57785Y-17198D01*
X57765Y-17197D01*
X57706Y-17179D01*
X57704Y-17178D01*
X57669Y-17158D01*
X57653Y-17175D01*
X57612Y-17202D01*
X57567Y-17221D01*
X57519Y-17230D01*
X56878Y-17230D01*
X56830Y-17220D01*
X56785Y-17201D01*
X56745Y-17173D01*
X56710Y-17138D01*
X56683Y-17097D01*
X56664Y-17052D01*
X56655Y-17004D01*
X56655Y-16718D01*
X56614Y-16734D01*
X56532Y-16749D01*
X56511Y-16748D01*
X56019Y-17241D01*
X56017Y-17243D01*
X55997Y-17258D01*
X55973Y-17279D01*
X55971Y-17279D01*
X55970Y-17281D01*
X55948Y-17291D01*
X55919Y-17308D01*
X55916Y-17308D01*
X55916Y-17309D01*
X55858Y-17326D01*
X55815Y-17329D01*
X55801Y-17331D01*
X55707Y-17331D01*
X55683Y-17365D01*
X55609Y-17436D01*
X55522Y-17491D01*
X55426Y-17528D01*
X55325Y-17546D01*
X55222Y-17544D01*
X55122Y-17522D01*
X55028Y-17480D01*
X54943Y-17422D01*
X54872Y-17348D01*
X54817Y-17261D01*
X54779Y-17166D01*
X54760Y-17065D01*
X54762Y-16962D01*
X54766Y-16941D01*
X54065Y-16239D01*
X54052Y-16271D01*
X54024Y-16311D01*
X53989Y-16346D01*
X53948Y-16373D01*
X53912Y-16387D01*
X53951Y-16404D01*
X53991Y-16432D01*
X54026Y-16467D01*
X54053Y-16508D01*
X54072Y-16553D01*
X54081Y-16601D01*
X54081Y-16642D01*
X54114Y-16653D01*
X54115Y-16653D01*
X54116Y-16654D01*
X54169Y-16683D01*
X54198Y-16708D01*
X54213Y-16720D01*
X56427Y-18934D01*
X56427Y-18934D01*
G37*
G54D32*
X56427Y-18934D02*
X57229Y-18133D01*
X57239Y-18123D01*
X57275Y-18095D01*
X57329Y-18066D01*
X57331Y-18065D01*
X57332Y-18065D01*
X57390Y-18048D01*
X57431Y-18044D01*
X57447Y-18043D01*
X58683Y-18043D01*
X58683Y-16803D01*
X58685Y-16785D01*
X58689Y-16746D01*
X58707Y-16687D01*
X58707Y-16685D01*
X58708Y-16685D01*
X58737Y-16632D01*
X58762Y-16602D01*
X58774Y-16588D01*
X58776Y-16586D01*
X58960Y-16401D01*
X58950Y-16346D01*
X58952Y-16239D01*
X58974Y-16133D01*
X59017Y-16034D01*
X59077Y-15946D01*
X59154Y-15870D01*
X59244Y-15811D01*
X59344Y-15771D01*
X59450Y-15751D01*
X59557Y-15751D01*
X59601Y-15760D01*
X60088Y-15273D01*
X53858Y-15273D01*
X53906Y-15283D01*
X53951Y-15302D01*
X53991Y-15330D01*
X54026Y-15365D01*
X54053Y-15406D01*
X54072Y-15451D01*
X54081Y-15499D01*
X54081Y-15527D01*
X54105Y-15527D01*
X54123Y-15529D01*
X54162Y-15533D01*
X54221Y-15551D01*
X54222Y-15551D01*
X54223Y-15552D01*
X54276Y-15581D01*
X54305Y-15606D01*
X54320Y-15618D01*
X54760Y-16057D01*
X54760Y-15719D01*
X54770Y-15671D01*
X54789Y-15626D01*
X54817Y-15586D01*
X54852Y-15551D01*
X54893Y-15524D01*
X54938Y-15505D01*
X54986Y-15496D01*
X55587Y-15496D01*
X55635Y-15506D01*
X55680Y-15525D01*
X55720Y-15553D01*
X55755Y-15588D01*
X55782Y-15629D01*
X55798Y-15667D01*
X56660Y-15667D01*
X56665Y-15647D01*
X56684Y-15602D01*
X56712Y-15562D01*
X56747Y-15527D01*
X56788Y-15500D01*
X56833Y-15481D01*
X56881Y-15472D01*
X57522Y-15472D01*
X57570Y-15482D01*
X57615Y-15501D01*
X57655Y-15529D01*
X57690Y-15564D01*
X57717Y-15605D01*
X57736Y-15650D01*
X57745Y-15698D01*
X57745Y-16259D01*
X57735Y-16307D01*
X57716Y-16351D01*
X57717Y-16353D01*
X57736Y-16398D01*
X57741Y-16427D01*
X57778Y-16439D01*
X57779Y-16439D01*
X57780Y-16440D01*
X57833Y-16469D01*
X57863Y-16494D01*
X57877Y-16506D01*
X57938Y-16567D01*
X57946Y-16560D01*
X58016Y-16515D01*
X58093Y-16483D01*
X58175Y-16468D01*
X58258Y-16468D01*
X58340Y-16485D01*
X58417Y-16517D01*
X58486Y-16564D01*
X58545Y-16623D01*
X58591Y-16692D01*
X58623Y-16769D01*
X58639Y-16851D01*
X58638Y-16946D01*
X58619Y-17027D01*
X58585Y-17104D01*
X58538Y-17172D01*
X58477Y-17229D01*
X58407Y-17274D01*
X58329Y-17304D01*
X58247Y-17319D01*
X58164Y-17317D01*
X58082Y-17299D01*
X58006Y-17266D01*
X57937Y-17218D01*
X57922Y-17203D01*
X57822Y-17203D01*
X57785Y-17198D01*
X57765Y-17197D01*
X57706Y-17179D01*
X57704Y-17178D01*
X57669Y-17158D01*
X57653Y-17175D01*
X57612Y-17202D01*
X57567Y-17221D01*
X57519Y-17230D01*
X56878Y-17230D01*
X56830Y-17220D01*
X56785Y-17201D01*
X56745Y-17173D01*
X56710Y-17138D01*
X56683Y-17097D01*
X56664Y-17052D01*
X56655Y-17004D01*
X56655Y-16718D01*
X56614Y-16734D01*
X56532Y-16749D01*
X56511Y-16748D01*
X56019Y-17241D01*
X56017Y-17243D01*
X55997Y-17258D01*
X55973Y-17279D01*
X55971Y-17279D01*
X55970Y-17281D01*
X55948Y-17291D01*
X55919Y-17308D01*
X55916Y-17308D01*
X55916Y-17309D01*
X55858Y-17326D01*
X55815Y-17329D01*
X55801Y-17331D01*
X55707Y-17331D01*
X55683Y-17365D01*
X55609Y-17436D01*
X55522Y-17491D01*
X55426Y-17528D01*
X55325Y-17546D01*
X55222Y-17544D01*
X55122Y-17522D01*
X55028Y-17480D01*
X54943Y-17422D01*
X54872Y-17348D01*
X54817Y-17261D01*
X54779Y-17166D01*
X54760Y-17065D01*
X54762Y-16962D01*
X54766Y-16941D01*
X54065Y-16239D01*
X54052Y-16271D01*
X54024Y-16311D01*
X53989Y-16346D01*
X53948Y-16373D01*
X53912Y-16387D01*
X53951Y-16404D01*
X53991Y-16432D01*
X54026Y-16467D01*
X54053Y-16508D01*
X54072Y-16553D01*
X54081Y-16601D01*
X54081Y-16642D01*
X54114Y-16653D01*
X54115Y-16653D01*
X54116Y-16654D01*
X54169Y-16683D01*
X54198Y-16708D01*
X54213Y-16720D01*
X56427Y-18934D01*
G54D10*
G36*
X60116Y-18043D02*
X59902Y-17828D01*
X59872Y-17841D01*
X59824Y-17850D01*
X59303Y-17850D01*
X59303Y-18043D01*
X60116Y-18043D01*
X60116Y-18043D01*
G37*
G54D32*
X60116Y-18043D02*
X59902Y-17828D01*
X59872Y-17841D01*
X59824Y-17850D01*
X59303Y-17850D01*
X59303Y-18043D01*
X60116Y-18043D01*
G54D10*
G36*
X62513Y-17783D02*
X62047Y-17317D01*
X62047Y-17369D01*
X62024Y-17474D01*
X61980Y-17572D01*
X61918Y-17660D01*
X61840Y-17735D01*
X61763Y-17783D01*
X62513Y-17783D01*
X62513Y-17783D01*
G37*
G54D32*
X62513Y-17783D02*
X62047Y-17317D01*
X62047Y-17369D01*
X62024Y-17474D01*
X61980Y-17572D01*
X61918Y-17660D01*
X61840Y-17735D01*
X61763Y-17783D01*
X62513Y-17783D01*
G54D10*
G36*
X61233Y-17783D02*
X61231Y-17782D01*
X61143Y-17720D01*
X61068Y-17643D01*
X61009Y-17552D01*
X60999Y-17528D01*
X60980Y-17572D01*
X60918Y-17660D01*
X60840Y-17735D01*
X60763Y-17783D01*
X61233Y-17783D01*
X61233Y-17783D01*
G37*
G54D32*
X61233Y-17783D02*
X61231Y-17782D01*
X61143Y-17720D01*
X61068Y-17643D01*
X61009Y-17552D01*
X60999Y-17528D01*
X60980Y-17572D01*
X60918Y-17660D01*
X60840Y-17735D01*
X60763Y-17783D01*
X61233Y-17783D01*
G54D10*
G36*
X63845Y-17530D02*
X63853Y-17525D01*
X63930Y-17493D01*
X64012Y-17478D01*
X64044Y-17478D01*
X64055Y-17469D01*
X64109Y-17440D01*
X64167Y-17423D01*
X64227Y-17417D01*
X64385Y-17417D01*
X64357Y-17373D01*
X64327Y-17295D01*
X64311Y-17213D01*
X64313Y-17130D01*
X64330Y-17048D01*
X64363Y-16972D01*
X64410Y-16903D01*
X64469Y-16844D01*
X64539Y-16799D01*
X64546Y-16795D01*
X64541Y-16782D01*
X64532Y-16734D01*
X64532Y-15991D01*
X63105Y-15991D01*
X63115Y-15992D01*
X63154Y-15996D01*
X63213Y-16014D01*
X63214Y-16014D01*
X63215Y-16015D01*
X63268Y-16044D01*
X63297Y-16069D01*
X63312Y-16081D01*
X63519Y-16287D01*
X63522Y-16290D01*
X63545Y-16320D01*
X63558Y-16335D01*
X63587Y-16389D01*
X63596Y-16421D01*
X63622Y-16421D01*
X63670Y-16431D01*
X63715Y-16450D01*
X63755Y-16478D01*
X63790Y-16513D01*
X63817Y-16554D01*
X63836Y-16599D01*
X63845Y-16647D01*
X63845Y-17208D01*
X63835Y-17256D01*
X63816Y-17300D01*
X63817Y-17302D01*
X63836Y-17347D01*
X63845Y-17395D01*
X63845Y-17530D01*
X63845Y-17530D01*
G37*
G54D32*
X63845Y-17530D02*
X63853Y-17525D01*
X63930Y-17493D01*
X64012Y-17478D01*
X64044Y-17478D01*
X64055Y-17469D01*
X64109Y-17440D01*
X64167Y-17423D01*
X64227Y-17417D01*
X64385Y-17417D01*
X64357Y-17373D01*
X64327Y-17295D01*
X64311Y-17213D01*
X64313Y-17130D01*
X64330Y-17048D01*
X64363Y-16972D01*
X64410Y-16903D01*
X64469Y-16844D01*
X64539Y-16799D01*
X64546Y-16795D01*
X64541Y-16782D01*
X64532Y-16734D01*
X64532Y-15991D01*
X63105Y-15991D01*
X63115Y-15992D01*
X63154Y-15996D01*
X63213Y-16014D01*
X63214Y-16014D01*
X63215Y-16015D01*
X63268Y-16044D01*
X63297Y-16069D01*
X63312Y-16081D01*
X63519Y-16287D01*
X63522Y-16290D01*
X63545Y-16320D01*
X63558Y-16335D01*
X63587Y-16389D01*
X63596Y-16421D01*
X63622Y-16421D01*
X63670Y-16431D01*
X63715Y-16450D01*
X63755Y-16478D01*
X63790Y-16513D01*
X63817Y-16554D01*
X63836Y-16599D01*
X63845Y-16647D01*
X63845Y-17208D01*
X63835Y-17256D01*
X63816Y-17300D01*
X63817Y-17302D01*
X63836Y-17347D01*
X63845Y-17395D01*
X63845Y-17530D01*
G54D10*
G36*
X66495Y-17417D02*
X66480Y-17337D01*
X66482Y-17254D01*
X66499Y-17172D01*
X66532Y-17096D01*
X66579Y-17027D01*
X66590Y-17016D01*
X66590Y-16951D01*
X66542Y-16960D01*
X66255Y-16960D01*
X66207Y-16950D01*
X66162Y-16931D01*
X66149Y-16922D01*
X66135Y-16932D01*
X66090Y-16951D01*
X66042Y-16960D01*
X65755Y-16960D01*
X65728Y-16954D01*
X65710Y-16951D01*
X65708Y-16950D01*
X65707Y-16950D01*
X65700Y-16947D01*
X65686Y-16993D01*
X65685Y-16994D01*
X65685Y-16995D01*
X65656Y-17048D01*
X65624Y-17084D01*
X65618Y-17093D01*
X65617Y-17093D01*
X65617Y-17094D01*
X65607Y-17101D01*
X65572Y-17131D01*
X65518Y-17160D01*
X65482Y-17170D01*
X65458Y-17178D01*
X65409Y-17182D01*
X65400Y-17183D01*
X65169Y-17183D01*
X65161Y-17191D01*
X65161Y-17230D01*
X65142Y-17311D01*
X65108Y-17388D01*
X65087Y-17417D01*
X66495Y-17417D01*
X66495Y-17417D01*
G37*
G54D32*
X66495Y-17417D02*
X66480Y-17337D01*
X66482Y-17254D01*
X66499Y-17172D01*
X66532Y-17096D01*
X66579Y-17027D01*
X66590Y-17016D01*
X66590Y-16951D01*
X66542Y-16960D01*
X66255Y-16960D01*
X66207Y-16950D01*
X66162Y-16931D01*
X66149Y-16922D01*
X66135Y-16932D01*
X66090Y-16951D01*
X66042Y-16960D01*
X65755Y-16960D01*
X65728Y-16954D01*
X65710Y-16951D01*
X65708Y-16950D01*
X65707Y-16950D01*
X65700Y-16947D01*
X65686Y-16993D01*
X65685Y-16994D01*
X65685Y-16995D01*
X65656Y-17048D01*
X65624Y-17084D01*
X65618Y-17093D01*
X65617Y-17093D01*
X65617Y-17094D01*
X65607Y-17101D01*
X65572Y-17131D01*
X65518Y-17160D01*
X65482Y-17170D01*
X65458Y-17178D01*
X65409Y-17182D01*
X65400Y-17183D01*
X65169Y-17183D01*
X65161Y-17191D01*
X65161Y-17230D01*
X65142Y-17311D01*
X65108Y-17388D01*
X65087Y-17417D01*
X66495Y-17417D01*
G54D10*
G36*
X62755Y-17149D02*
X62755Y-16644D01*
X62762Y-16610D01*
X62216Y-16610D01*
X62755Y-17149D01*
X62755Y-17149D01*
G37*
G54D32*
X62755Y-17149D02*
X62755Y-16644D01*
X62762Y-16610D01*
X62216Y-16610D01*
X62755Y-17149D01*
G54D10*
G36*
X47156Y-17051D02*
X47258Y-16949D01*
X46920Y-16949D01*
X46912Y-16958D01*
X46871Y-16985D01*
X46835Y-16999D01*
X46874Y-17016D01*
X46914Y-17044D01*
X46921Y-17051D01*
X47156Y-17051D01*
X47156Y-17051D01*
G37*
G54D32*
X47156Y-17051D02*
X47258Y-16949D01*
X46920Y-16949D01*
X46912Y-16958D01*
X46871Y-16985D01*
X46835Y-16999D01*
X46874Y-17016D01*
X46914Y-17044D01*
X46921Y-17051D01*
X47156Y-17051D01*
G54D10*
G36*
X49007Y-17019D02*
X51054Y-14972D01*
X47065Y-14972D01*
X47051Y-14970D01*
X47008Y-14966D01*
X46949Y-14948D01*
X46947Y-14947D01*
X46894Y-14918D01*
X46864Y-14892D01*
X46850Y-14881D01*
X46378Y-14409D01*
X46361Y-14389D01*
X46342Y-14365D01*
X46341Y-14363D01*
X46340Y-14362D01*
X46329Y-14340D01*
X46313Y-14311D01*
X46312Y-14308D01*
X46303Y-14279D01*
X46278Y-14279D01*
X46230Y-14269D01*
X46185Y-14250D01*
X46145Y-14222D01*
X46110Y-14187D01*
X46083Y-14146D01*
X46064Y-14101D01*
X46055Y-14053D01*
X46055Y-13492D01*
X46065Y-13444D01*
X46083Y-13399D01*
X46083Y-13398D01*
X46064Y-13353D01*
X46055Y-13305D01*
X46055Y-12814D01*
X45574Y-12334D01*
X42318Y-12334D01*
X42432Y-12505D01*
X42510Y-12695D01*
X42550Y-12897D01*
X42547Y-13132D01*
X42501Y-13333D01*
X42449Y-13447D01*
X43281Y-14279D01*
X43283Y-14272D01*
X43341Y-14137D01*
X43424Y-14016D01*
X43529Y-13913D01*
X43652Y-13833D01*
X43788Y-13778D01*
X43932Y-13751D01*
X44079Y-13752D01*
X44223Y-13781D01*
X44358Y-13838D01*
X44480Y-13920D01*
X44583Y-14025D01*
X44665Y-14147D01*
X44721Y-14283D01*
X44749Y-14427D01*
X44747Y-14595D01*
X44714Y-14738D01*
X44662Y-14854D01*
X45980Y-14854D01*
X46036Y-14860D01*
X46071Y-14864D01*
X46072Y-14864D01*
X46077Y-14865D01*
X46133Y-14882D01*
X46165Y-14892D01*
X46166Y-14893D01*
X46170Y-14894D01*
X46255Y-14941D01*
X46287Y-14968D01*
X46327Y-15000D01*
X46753Y-15427D01*
X46758Y-15432D01*
X46800Y-15484D01*
X46816Y-15504D01*
X46819Y-15508D01*
X46857Y-15582D01*
X46862Y-15590D01*
X46864Y-15594D01*
X46885Y-15670D01*
X46890Y-15684D01*
X46891Y-15688D01*
X46893Y-15716D01*
X46900Y-15781D01*
X46900Y-15932D01*
X46914Y-15942D01*
X46921Y-15949D01*
X47727Y-15949D01*
X47731Y-15933D01*
X47738Y-15914D01*
X47730Y-15894D01*
X47721Y-15846D01*
X47721Y-15481D01*
X47726Y-15453D01*
X47730Y-15436D01*
X47730Y-15434D01*
X47731Y-15433D01*
X47750Y-15388D01*
X47766Y-15364D01*
X47776Y-15350D01*
X47813Y-15313D01*
X47827Y-15303D01*
X47851Y-15287D01*
X47896Y-15268D01*
X47897Y-15267D01*
X47899Y-15267D01*
X47916Y-15263D01*
X47944Y-15258D01*
X48784Y-15258D01*
X48832Y-15268D01*
X48877Y-15287D01*
X48917Y-15315D01*
X48952Y-15350D01*
X48979Y-15391D01*
X48998Y-15436D01*
X49007Y-15484D01*
X49007Y-15849D01*
X49001Y-15875D01*
X48998Y-15894D01*
X48997Y-15895D01*
X48997Y-15897D01*
X48991Y-15909D01*
X48989Y-15915D01*
X48998Y-15936D01*
X49007Y-15984D01*
X49007Y-16349D01*
X48997Y-16397D01*
X48989Y-16415D01*
X48998Y-16436D01*
X49007Y-16484D01*
X49007Y-16849D01*
X48997Y-16897D01*
X48989Y-16915D01*
X48998Y-16936D01*
X49007Y-16984D01*
X49007Y-17019D01*
X49007Y-17019D01*
G37*
G54D32*
X49007Y-17019D02*
X51054Y-14972D01*
X47065Y-14972D01*
X47051Y-14970D01*
X47008Y-14966D01*
X46949Y-14948D01*
X46947Y-14947D01*
X46894Y-14918D01*
X46864Y-14892D01*
X46850Y-14881D01*
X46378Y-14409D01*
X46361Y-14389D01*
X46342Y-14365D01*
X46341Y-14363D01*
X46340Y-14362D01*
X46329Y-14340D01*
X46313Y-14311D01*
X46312Y-14308D01*
X46303Y-14279D01*
X46278Y-14279D01*
X46230Y-14269D01*
X46185Y-14250D01*
X46145Y-14222D01*
X46110Y-14187D01*
X46083Y-14146D01*
X46064Y-14101D01*
X46055Y-14053D01*
X46055Y-13492D01*
X46065Y-13444D01*
X46083Y-13399D01*
X46083Y-13398D01*
X46064Y-13353D01*
X46055Y-13305D01*
X46055Y-12814D01*
X45574Y-12334D01*
X42318Y-12334D01*
X42432Y-12505D01*
X42510Y-12695D01*
X42550Y-12897D01*
X42547Y-13132D01*
X42501Y-13333D01*
X42449Y-13447D01*
X43281Y-14279D01*
X43283Y-14272D01*
X43341Y-14137D01*
X43424Y-14016D01*
X43529Y-13913D01*
X43652Y-13833D01*
X43788Y-13778D01*
X43932Y-13751D01*
X44079Y-13752D01*
X44223Y-13781D01*
X44358Y-13838D01*
X44480Y-13920D01*
X44583Y-14025D01*
X44665Y-14147D01*
X44721Y-14283D01*
X44749Y-14427D01*
X44747Y-14595D01*
X44714Y-14738D01*
X44662Y-14854D01*
X45980Y-14854D01*
X46036Y-14860D01*
X46071Y-14864D01*
X46072Y-14864D01*
X46077Y-14865D01*
X46133Y-14882D01*
X46165Y-14892D01*
X46166Y-14893D01*
X46170Y-14894D01*
X46255Y-14941D01*
X46287Y-14968D01*
X46327Y-15000D01*
X46753Y-15427D01*
X46758Y-15432D01*
X46800Y-15484D01*
X46816Y-15504D01*
X46819Y-15508D01*
X46857Y-15582D01*
X46862Y-15590D01*
X46864Y-15594D01*
X46885Y-15670D01*
X46890Y-15684D01*
X46891Y-15688D01*
X46893Y-15716D01*
X46900Y-15781D01*
X46900Y-15932D01*
X46914Y-15942D01*
X46921Y-15949D01*
X47727Y-15949D01*
X47731Y-15933D01*
X47738Y-15914D01*
X47730Y-15894D01*
X47721Y-15846D01*
X47721Y-15481D01*
X47726Y-15453D01*
X47730Y-15436D01*
X47730Y-15434D01*
X47731Y-15433D01*
X47750Y-15388D01*
X47766Y-15364D01*
X47776Y-15350D01*
X47813Y-15313D01*
X47827Y-15303D01*
X47851Y-15287D01*
X47896Y-15268D01*
X47897Y-15267D01*
X47899Y-15267D01*
X47916Y-15263D01*
X47944Y-15258D01*
X48784Y-15258D01*
X48832Y-15268D01*
X48877Y-15287D01*
X48917Y-15315D01*
X48952Y-15350D01*
X48979Y-15391D01*
X48998Y-15436D01*
X49007Y-15484D01*
X49007Y-15849D01*
X49001Y-15875D01*
X48998Y-15894D01*
X48997Y-15895D01*
X48997Y-15897D01*
X48991Y-15909D01*
X48989Y-15915D01*
X48998Y-15936D01*
X49007Y-15984D01*
X49007Y-16349D01*
X48997Y-16397D01*
X48989Y-16415D01*
X48998Y-16436D01*
X49007Y-16484D01*
X49007Y-16849D01*
X48997Y-16897D01*
X48989Y-16915D01*
X48998Y-16936D01*
X49007Y-16984D01*
X49007Y-17019D01*
G54D10*
G36*
X68696Y-16844D02*
X68696Y-16308D01*
X68706Y-16260D01*
X68725Y-16215D01*
X68753Y-16175D01*
X68788Y-16140D01*
X68813Y-16123D01*
X68681Y-15991D01*
X68268Y-15991D01*
X68268Y-16737D01*
X68258Y-16785D01*
X68239Y-16830D01*
X68229Y-16844D01*
X68696Y-16844D01*
X68696Y-16844D01*
G37*
G54D32*
X68696Y-16844D02*
X68696Y-16308D01*
X68706Y-16260D01*
X68725Y-16215D01*
X68753Y-16175D01*
X68788Y-16140D01*
X68813Y-16123D01*
X68681Y-15991D01*
X68268Y-15991D01*
X68268Y-16737D01*
X68258Y-16785D01*
X68239Y-16830D01*
X68229Y-16844D01*
X68696Y-16844D01*
G54D10*
G36*
X55693Y-16690D02*
X56074Y-16309D01*
X56074Y-16287D01*
X55880Y-16287D01*
X55870Y-16291D01*
X55841Y-16308D01*
X55838Y-16308D01*
X55838Y-16309D01*
X55810Y-16317D01*
X55810Y-16323D01*
X55800Y-16371D01*
X55781Y-16416D01*
X55753Y-16456D01*
X55718Y-16491D01*
X55677Y-16518D01*
X55632Y-16537D01*
X55584Y-16546D01*
X55507Y-16546D01*
X55536Y-16558D01*
X55621Y-16616D01*
X55693Y-16689D01*
X55693Y-16690D01*
X55693Y-16690D01*
G37*
G54D32*
X55693Y-16690D02*
X56074Y-16309D01*
X56074Y-16287D01*
X55880Y-16287D01*
X55870Y-16291D01*
X55841Y-16308D01*
X55838Y-16308D01*
X55838Y-16309D01*
X55810Y-16317D01*
X55810Y-16323D01*
X55800Y-16371D01*
X55781Y-16416D01*
X55753Y-16456D01*
X55718Y-16491D01*
X55677Y-16518D01*
X55632Y-16537D01*
X55584Y-16546D01*
X55507Y-16546D01*
X55536Y-16558D01*
X55621Y-16616D01*
X55693Y-16689D01*
X55693Y-16690D01*
G54D10*
G36*
X69508Y-15942D02*
X69508Y-15128D01*
X68079Y-13699D01*
X68079Y-13922D01*
X68069Y-13970D01*
X68050Y-14015D01*
X68022Y-14055D01*
X67987Y-14090D01*
X67946Y-14117D01*
X67901Y-14136D01*
X67871Y-14141D01*
X67860Y-14178D01*
X67859Y-14179D01*
X67859Y-14180D01*
X67830Y-14233D01*
X67804Y-14262D01*
X67793Y-14277D01*
X67791Y-14279D01*
X67364Y-14705D01*
X68029Y-15371D01*
X68813Y-15371D01*
X68831Y-15373D01*
X68870Y-15377D01*
X68929Y-15395D01*
X68930Y-15395D01*
X68931Y-15396D01*
X68984Y-15425D01*
X69013Y-15450D01*
X69028Y-15462D01*
X69508Y-15942D01*
X69508Y-15942D01*
G37*
G54D32*
X69508Y-15942D02*
X69508Y-15128D01*
X68079Y-13699D01*
X68079Y-13922D01*
X68069Y-13970D01*
X68050Y-14015D01*
X68022Y-14055D01*
X67987Y-14090D01*
X67946Y-14117D01*
X67901Y-14136D01*
X67871Y-14141D01*
X67860Y-14178D01*
X67859Y-14179D01*
X67859Y-14180D01*
X67830Y-14233D01*
X67804Y-14262D01*
X67793Y-14277D01*
X67791Y-14279D01*
X67364Y-14705D01*
X68029Y-15371D01*
X68813Y-15371D01*
X68831Y-15373D01*
X68870Y-15377D01*
X68929Y-15395D01*
X68930Y-15395D01*
X68931Y-15396D01*
X68984Y-15425D01*
X69013Y-15450D01*
X69028Y-15462D01*
X69508Y-15942D01*
G54D10*
G36*
X60601Y-15760D02*
X60850Y-15512D01*
X60726Y-15512D01*
X60487Y-15751D01*
X60557Y-15751D01*
X60601Y-15760D01*
X60601Y-15760D01*
G37*
G54D32*
X60601Y-15760D02*
X60850Y-15512D01*
X60726Y-15512D01*
X60487Y-15751D01*
X60557Y-15751D01*
X60601Y-15760D01*
G54D10*
G36*
X67150Y-15631D02*
X67165Y-15622D01*
X67210Y-15603D01*
X67258Y-15594D01*
X67375Y-15594D01*
X66926Y-15144D01*
X66646Y-15424D01*
X66626Y-15439D01*
X66612Y-15451D01*
X66614Y-15458D01*
X66620Y-15463D01*
X66621Y-15464D01*
X66628Y-15473D01*
X66658Y-15509D01*
X66687Y-15563D01*
X66697Y-15598D01*
X66700Y-15607D01*
X66710Y-15603D01*
X66758Y-15594D01*
X67045Y-15594D01*
X67093Y-15604D01*
X67138Y-15623D01*
X67150Y-15631D01*
X67150Y-15631D01*
G37*
G54D32*
X67150Y-15631D02*
X67165Y-15622D01*
X67210Y-15603D01*
X67258Y-15594D01*
X67375Y-15594D01*
X66926Y-15144D01*
X66646Y-15424D01*
X66626Y-15439D01*
X66612Y-15451D01*
X66614Y-15458D01*
X66620Y-15463D01*
X66621Y-15464D01*
X66628Y-15473D01*
X66658Y-15509D01*
X66687Y-15563D01*
X66697Y-15598D01*
X66700Y-15607D01*
X66710Y-15603D01*
X66758Y-15594D01*
X67045Y-15594D01*
X67093Y-15604D01*
X67138Y-15623D01*
X67150Y-15631D01*
G54D10*
G36*
X65650Y-15631D02*
X65665Y-15622D01*
X65710Y-15603D01*
X65758Y-15594D01*
X65774Y-15594D01*
X65771Y-15577D01*
X65772Y-15512D01*
X65159Y-15512D01*
X65187Y-15563D01*
X65197Y-15599D01*
X65200Y-15607D01*
X65210Y-15603D01*
X65258Y-15594D01*
X65545Y-15594D01*
X65593Y-15604D01*
X65638Y-15623D01*
X65650Y-15631D01*
X65650Y-15631D01*
G37*
G54D32*
X65650Y-15631D02*
X65665Y-15622D01*
X65710Y-15603D01*
X65758Y-15594D01*
X65774Y-15594D01*
X65771Y-15577D01*
X65772Y-15512D01*
X65159Y-15512D01*
X65187Y-15563D01*
X65197Y-15599D01*
X65200Y-15607D01*
X65210Y-15603D01*
X65258Y-15594D01*
X65545Y-15594D01*
X65593Y-15604D01*
X65638Y-15623D01*
X65650Y-15631D01*
G54D10*
G36*
X52821Y-15561D02*
X52842Y-15550D01*
X52873Y-15540D01*
X52873Y-15496D01*
X52883Y-15448D01*
X52902Y-15403D01*
X52930Y-15363D01*
X52965Y-15328D01*
X53006Y-15301D01*
X53051Y-15282D01*
X53099Y-15273D01*
X52657Y-15273D01*
X52691Y-15287D01*
X52731Y-15315D01*
X52766Y-15350D01*
X52793Y-15391D01*
X52812Y-15436D01*
X52821Y-15484D01*
X52821Y-15561D01*
X52821Y-15561D01*
G37*
G54D32*
X52821Y-15561D02*
X52842Y-15550D01*
X52873Y-15540D01*
X52873Y-15496D01*
X52883Y-15448D01*
X52902Y-15403D01*
X52930Y-15363D01*
X52965Y-15328D01*
X53006Y-15301D01*
X53051Y-15282D01*
X53099Y-15273D01*
X52657Y-15273D01*
X52691Y-15287D01*
X52731Y-15315D01*
X52766Y-15350D01*
X52793Y-15391D01*
X52812Y-15436D01*
X52821Y-15484D01*
X52821Y-15561D01*
G54D10*
G36*
X66183Y-14892D02*
X66110Y-14860D01*
X66041Y-14812D01*
X65984Y-14753D01*
X65938Y-14683D01*
X65908Y-14605D01*
X65892Y-14523D01*
X65894Y-14440D01*
X65911Y-14358D01*
X65944Y-14282D01*
X65991Y-14213D01*
X66050Y-14154D01*
X66120Y-14109D01*
X66197Y-14077D01*
X66279Y-14062D01*
X66304Y-14062D01*
X66351Y-14015D01*
X66349Y-14012D01*
X66330Y-13967D01*
X66321Y-13919D01*
X66321Y-13451D01*
X65842Y-13451D01*
X65471Y-13822D01*
X65512Y-13840D01*
X65602Y-13900D01*
X65677Y-13976D01*
X65737Y-14066D01*
X65778Y-14165D01*
X65799Y-14271D01*
X65798Y-14295D01*
X65799Y-14298D01*
X65798Y-14312D01*
X65797Y-14394D01*
X65774Y-14499D01*
X65730Y-14597D01*
X65668Y-14685D01*
X65590Y-14760D01*
X65531Y-14796D01*
X65531Y-14797D01*
X65530Y-14797D01*
X65499Y-14817D01*
X65399Y-14856D01*
X65292Y-14875D01*
X65185Y-14873D01*
X65080Y-14850D01*
X64981Y-14807D01*
X64893Y-14745D01*
X64818Y-14668D01*
X64759Y-14577D01*
X64747Y-14546D01*
X64401Y-14892D01*
X66183Y-14892D01*
X66183Y-14892D01*
G37*
G54D32*
X66183Y-14892D02*
X66110Y-14860D01*
X66041Y-14812D01*
X65984Y-14753D01*
X65938Y-14683D01*
X65908Y-14605D01*
X65892Y-14523D01*
X65894Y-14440D01*
X65911Y-14358D01*
X65944Y-14282D01*
X65991Y-14213D01*
X66050Y-14154D01*
X66120Y-14109D01*
X66197Y-14077D01*
X66279Y-14062D01*
X66304Y-14062D01*
X66351Y-14015D01*
X66349Y-14012D01*
X66330Y-13967D01*
X66321Y-13919D01*
X66321Y-13451D01*
X65842Y-13451D01*
X65471Y-13822D01*
X65512Y-13840D01*
X65602Y-13900D01*
X65677Y-13976D01*
X65737Y-14066D01*
X65778Y-14165D01*
X65799Y-14271D01*
X65798Y-14295D01*
X65799Y-14298D01*
X65798Y-14312D01*
X65797Y-14394D01*
X65774Y-14499D01*
X65730Y-14597D01*
X65668Y-14685D01*
X65590Y-14760D01*
X65531Y-14796D01*
X65531Y-14797D01*
X65530Y-14797D01*
X65499Y-14817D01*
X65399Y-14856D01*
X65292Y-14875D01*
X65185Y-14873D01*
X65080Y-14850D01*
X64981Y-14807D01*
X64893Y-14745D01*
X64818Y-14668D01*
X64759Y-14577D01*
X64747Y-14546D01*
X64401Y-14892D01*
X66183Y-14892D01*
G54D10*
G36*
X63763Y-14653D02*
X65291Y-13124D01*
X65185Y-13123D01*
X65080Y-13100D01*
X64981Y-13057D01*
X64893Y-12995D01*
X64818Y-12918D01*
X64759Y-12827D01*
X64720Y-12727D01*
X64700Y-12621D01*
X64702Y-12514D01*
X64724Y-12408D01*
X64767Y-12309D01*
X64827Y-12221D01*
X64860Y-12188D01*
X63089Y-12188D01*
X63127Y-12226D01*
X63187Y-12316D01*
X63228Y-12415D01*
X63249Y-12521D01*
X63248Y-12545D01*
X63249Y-12548D01*
X63248Y-12562D01*
X63247Y-12644D01*
X63224Y-12749D01*
X63180Y-12847D01*
X63118Y-12935D01*
X63040Y-13010D01*
X62981Y-13046D01*
X62981Y-13047D01*
X62980Y-13047D01*
X62949Y-13067D01*
X62849Y-13106D01*
X62742Y-13125D01*
X62635Y-13123D01*
X62530Y-13100D01*
X62431Y-13057D01*
X62343Y-12995D01*
X62268Y-12918D01*
X62225Y-12852D01*
X62168Y-12935D01*
X62090Y-13010D01*
X61999Y-13067D01*
X61913Y-13100D01*
X62598Y-13785D01*
X62650Y-13776D01*
X62757Y-13776D01*
X62863Y-13798D01*
X62962Y-13840D01*
X63052Y-13900D01*
X63127Y-13976D01*
X63187Y-14066D01*
X63228Y-14165D01*
X63249Y-14271D01*
X63247Y-14394D01*
X63224Y-14499D01*
X63180Y-14597D01*
X63140Y-14653D01*
X63763Y-14653D01*
X63763Y-14653D01*
G37*
G54D32*
X63763Y-14653D02*
X65291Y-13124D01*
X65185Y-13123D01*
X65080Y-13100D01*
X64981Y-13057D01*
X64893Y-12995D01*
X64818Y-12918D01*
X64759Y-12827D01*
X64720Y-12727D01*
X64700Y-12621D01*
X64702Y-12514D01*
X64724Y-12408D01*
X64767Y-12309D01*
X64827Y-12221D01*
X64860Y-12188D01*
X63089Y-12188D01*
X63127Y-12226D01*
X63187Y-12316D01*
X63228Y-12415D01*
X63249Y-12521D01*
X63248Y-12545D01*
X63249Y-12548D01*
X63248Y-12562D01*
X63247Y-12644D01*
X63224Y-12749D01*
X63180Y-12847D01*
X63118Y-12935D01*
X63040Y-13010D01*
X62981Y-13046D01*
X62981Y-13047D01*
X62980Y-13047D01*
X62949Y-13067D01*
X62849Y-13106D01*
X62742Y-13125D01*
X62635Y-13123D01*
X62530Y-13100D01*
X62431Y-13057D01*
X62343Y-12995D01*
X62268Y-12918D01*
X62225Y-12852D01*
X62168Y-12935D01*
X62090Y-13010D01*
X61999Y-13067D01*
X61913Y-13100D01*
X62598Y-13785D01*
X62650Y-13776D01*
X62757Y-13776D01*
X62863Y-13798D01*
X62962Y-13840D01*
X63052Y-13900D01*
X63127Y-13976D01*
X63187Y-14066D01*
X63228Y-14165D01*
X63249Y-14271D01*
X63247Y-14394D01*
X63224Y-14499D01*
X63180Y-14597D01*
X63140Y-14653D01*
X63763Y-14653D01*
G54D10*
G36*
X62258Y-14653D02*
X62225Y-14602D01*
X62190Y-14653D01*
X62258Y-14653D01*
X62258Y-14653D01*
G37*
G54D32*
X62258Y-14653D02*
X62225Y-14602D01*
X62190Y-14653D01*
X62258Y-14653D01*
G54D10*
G36*
X61308Y-14653D02*
X61259Y-14577D01*
X61220Y-14477D01*
X61200Y-14371D01*
X61202Y-14264D01*
X61224Y-14158D01*
X61267Y-14059D01*
X61327Y-13971D01*
X61404Y-13895D01*
X61494Y-13836D01*
X61594Y-13796D01*
X61700Y-13776D01*
X61713Y-13776D01*
X61466Y-13529D01*
X57033Y-13529D01*
X57386Y-13882D01*
X57417Y-13882D01*
X57499Y-13899D01*
X57576Y-13931D01*
X57645Y-13978D01*
X57704Y-14037D01*
X57747Y-14102D01*
X57767Y-14059D01*
X57827Y-13971D01*
X57904Y-13895D01*
X57994Y-13836D01*
X58094Y-13796D01*
X58200Y-13776D01*
X58307Y-13776D01*
X58413Y-13798D01*
X58512Y-13840D01*
X58602Y-13900D01*
X58677Y-13976D01*
X58724Y-14047D01*
X58777Y-13971D01*
X58854Y-13895D01*
X58944Y-13836D01*
X59044Y-13796D01*
X59150Y-13776D01*
X59257Y-13776D01*
X59363Y-13798D01*
X59462Y-13840D01*
X59552Y-13900D01*
X59627Y-13976D01*
X59687Y-14066D01*
X59728Y-14165D01*
X59749Y-14271D01*
X59747Y-14394D01*
X59724Y-14499D01*
X59680Y-14597D01*
X59640Y-14653D01*
X61308Y-14653D01*
X61308Y-14653D01*
G37*
G54D32*
X61308Y-14653D02*
X61259Y-14577D01*
X61220Y-14477D01*
X61200Y-14371D01*
X61202Y-14264D01*
X61224Y-14158D01*
X61267Y-14059D01*
X61327Y-13971D01*
X61404Y-13895D01*
X61494Y-13836D01*
X61594Y-13796D01*
X61700Y-13776D01*
X61713Y-13776D01*
X61466Y-13529D01*
X57033Y-13529D01*
X57386Y-13882D01*
X57417Y-13882D01*
X57499Y-13899D01*
X57576Y-13931D01*
X57645Y-13978D01*
X57704Y-14037D01*
X57747Y-14102D01*
X57767Y-14059D01*
X57827Y-13971D01*
X57904Y-13895D01*
X57994Y-13836D01*
X58094Y-13796D01*
X58200Y-13776D01*
X58307Y-13776D01*
X58413Y-13798D01*
X58512Y-13840D01*
X58602Y-13900D01*
X58677Y-13976D01*
X58724Y-14047D01*
X58777Y-13971D01*
X58854Y-13895D01*
X58944Y-13836D01*
X59044Y-13796D01*
X59150Y-13776D01*
X59257Y-13776D01*
X59363Y-13798D01*
X59462Y-13840D01*
X59552Y-13900D01*
X59627Y-13976D01*
X59687Y-14066D01*
X59728Y-14165D01*
X59749Y-14271D01*
X59747Y-14394D01*
X59724Y-14499D01*
X59680Y-14597D01*
X59640Y-14653D01*
X61308Y-14653D01*
G54D10*
G36*
X58758Y-14653D02*
X58725Y-14602D01*
X58690Y-14653D01*
X58758Y-14653D01*
X58758Y-14653D01*
G37*
G54D32*
X58758Y-14653D02*
X58725Y-14602D01*
X58690Y-14653D01*
X58758Y-14653D01*
G54D10*
G36*
X57808Y-14653D02*
X57759Y-14577D01*
X57738Y-14525D01*
X57697Y-14586D01*
X57636Y-14643D01*
X57620Y-14653D01*
X57808Y-14653D01*
X57808Y-14653D01*
G37*
G54D32*
X57808Y-14653D02*
X57759Y-14577D01*
X57738Y-14525D01*
X57697Y-14586D01*
X57636Y-14643D01*
X57620Y-14653D01*
X57808Y-14653D01*
G54D10*
G36*
X57126Y-14653D02*
X57096Y-14632D01*
X57039Y-14573D01*
X56993Y-14503D01*
X56963Y-14425D01*
X56947Y-14343D01*
X56947Y-14320D01*
X56624Y-13997D01*
X56141Y-13997D01*
X56187Y-14066D01*
X56228Y-14165D01*
X56249Y-14271D01*
X56247Y-14394D01*
X56224Y-14499D01*
X56180Y-14597D01*
X56140Y-14653D01*
X57126Y-14653D01*
X57126Y-14653D01*
G37*
G54D32*
X57126Y-14653D02*
X57096Y-14632D01*
X57039Y-14573D01*
X56993Y-14503D01*
X56963Y-14425D01*
X56947Y-14343D01*
X56947Y-14320D01*
X56624Y-13997D01*
X56141Y-13997D01*
X56187Y-14066D01*
X56228Y-14165D01*
X56249Y-14271D01*
X56247Y-14394D01*
X56224Y-14499D01*
X56180Y-14597D01*
X56140Y-14653D01*
X57126Y-14653D01*
G54D10*
G36*
X47435Y-14352D02*
X47429Y-14340D01*
X47413Y-14310D01*
X47412Y-14307D01*
X47403Y-14279D01*
X47378Y-14279D01*
X47330Y-14269D01*
X47285Y-14250D01*
X47245Y-14222D01*
X47210Y-14187D01*
X47183Y-14146D01*
X47164Y-14101D01*
X47155Y-14053D01*
X47155Y-13492D01*
X47165Y-13444D01*
X47183Y-13399D01*
X47183Y-13398D01*
X47164Y-13353D01*
X47158Y-13323D01*
X47142Y-13318D01*
X47135Y-13356D01*
X47116Y-13400D01*
X47117Y-13402D01*
X47136Y-13447D01*
X47145Y-13495D01*
X47145Y-14056D01*
X47135Y-14104D01*
X47116Y-14149D01*
X47088Y-14189D01*
X47061Y-14216D01*
X47197Y-14352D01*
X47435Y-14352D01*
X47435Y-14352D01*
G37*
G54D32*
X47435Y-14352D02*
X47429Y-14340D01*
X47413Y-14310D01*
X47412Y-14307D01*
X47403Y-14279D01*
X47378Y-14279D01*
X47330Y-14269D01*
X47285Y-14250D01*
X47245Y-14222D01*
X47210Y-14187D01*
X47183Y-14146D01*
X47164Y-14101D01*
X47155Y-14053D01*
X47155Y-13492D01*
X47165Y-13444D01*
X47183Y-13399D01*
X47183Y-13398D01*
X47164Y-13353D01*
X47158Y-13323D01*
X47142Y-13318D01*
X47135Y-13356D01*
X47116Y-13400D01*
X47117Y-13402D01*
X47136Y-13447D01*
X47145Y-13495D01*
X47145Y-14056D01*
X47135Y-14104D01*
X47116Y-14149D01*
X47088Y-14189D01*
X47061Y-14216D01*
X47197Y-14352D01*
X47435Y-14352D01*
G54D10*
G36*
X51575Y-14128D02*
X51564Y-14101D01*
X51555Y-14053D01*
X51555Y-13492D01*
X51565Y-13444D01*
X51583Y-13399D01*
X51583Y-13398D01*
X51564Y-13353D01*
X51560Y-13336D01*
X51539Y-13336D01*
X51535Y-13356D01*
X51516Y-13400D01*
X51517Y-13402D01*
X51536Y-13447D01*
X51545Y-13495D01*
X51545Y-14056D01*
X51535Y-14104D01*
X51524Y-14128D01*
X51575Y-14128D01*
X51575Y-14128D01*
G37*
G54D32*
X51575Y-14128D02*
X51564Y-14101D01*
X51555Y-14053D01*
X51555Y-13492D01*
X51565Y-13444D01*
X51583Y-13399D01*
X51583Y-13398D01*
X51564Y-13353D01*
X51560Y-13336D01*
X51539Y-13336D01*
X51535Y-13356D01*
X51516Y-13400D01*
X51517Y-13402D01*
X51536Y-13447D01*
X51545Y-13495D01*
X51545Y-14056D01*
X51535Y-14104D01*
X51524Y-14128D01*
X51575Y-14128D01*
G54D10*
G36*
X50475Y-14128D02*
X50464Y-14101D01*
X50458Y-14071D01*
X50442Y-14066D01*
X50435Y-14104D01*
X50424Y-14128D01*
X50475Y-14128D01*
X50475Y-14128D01*
G37*
G54D32*
X50475Y-14128D02*
X50464Y-14101D01*
X50458Y-14071D01*
X50442Y-14066D01*
X50435Y-14104D01*
X50424Y-14128D01*
X50475Y-14128D01*
G54D10*
G36*
X49375Y-14128D02*
X49364Y-14101D01*
X49360Y-14084D01*
X49339Y-14084D01*
X49335Y-14104D01*
X49324Y-14128D01*
X49375Y-14128D01*
X49375Y-14128D01*
G37*
G54D32*
X49375Y-14128D02*
X49364Y-14101D01*
X49360Y-14084D01*
X49339Y-14084D01*
X49335Y-14104D01*
X49324Y-14128D01*
X49375Y-14128D01*
G54D10*
G36*
X48275Y-14128D02*
X48264Y-14101D01*
X48255Y-14053D01*
X48255Y-13492D01*
X48265Y-13444D01*
X48283Y-13399D01*
X48283Y-13398D01*
X48264Y-13353D01*
X48257Y-13318D01*
X48241Y-13323D01*
X48235Y-13356D01*
X48216Y-13400D01*
X48217Y-13402D01*
X48236Y-13447D01*
X48245Y-13495D01*
X48245Y-14056D01*
X48235Y-14104D01*
X48224Y-14128D01*
X48275Y-14128D01*
X48275Y-14128D01*
G37*
G54D32*
X48275Y-14128D02*
X48264Y-14101D01*
X48255Y-14053D01*
X48255Y-13492D01*
X48265Y-13444D01*
X48283Y-13399D01*
X48283Y-13398D01*
X48264Y-13353D01*
X48257Y-13318D01*
X48241Y-13323D01*
X48235Y-13356D01*
X48216Y-13400D01*
X48217Y-13402D01*
X48236Y-13447D01*
X48245Y-13495D01*
X48245Y-14056D01*
X48235Y-14104D01*
X48224Y-14128D01*
X48275Y-14128D01*
G54D10*
G36*
X54845Y-13981D02*
X55369Y-13457D01*
X55405Y-13429D01*
X55410Y-13426D01*
X54900Y-12916D01*
X54845Y-12916D01*
X54845Y-13308D01*
X54835Y-13356D01*
X54816Y-13400D01*
X54817Y-13402D01*
X54836Y-13447D01*
X54845Y-13495D01*
X54845Y-13981D01*
X54845Y-13981D01*
G37*
G54D32*
X54845Y-13981D02*
X55369Y-13457D01*
X55405Y-13429D01*
X55410Y-13426D01*
X54900Y-12916D01*
X54845Y-12916D01*
X54845Y-13308D01*
X54835Y-13356D01*
X54816Y-13400D01*
X54817Y-13402D01*
X54836Y-13447D01*
X54845Y-13495D01*
X54845Y-13981D01*
G54D10*
G36*
X53755Y-13883D02*
X53755Y-13492D01*
X53765Y-13444D01*
X53783Y-13399D01*
X53783Y-13398D01*
X53764Y-13353D01*
X53760Y-13336D01*
X53739Y-13336D01*
X53735Y-13356D01*
X53716Y-13400D01*
X53717Y-13402D01*
X53736Y-13447D01*
X53745Y-13495D01*
X53745Y-13883D01*
X53755Y-13883D01*
X53755Y-13883D01*
G37*
G54D32*
X53755Y-13883D02*
X53755Y-13492D01*
X53765Y-13444D01*
X53783Y-13399D01*
X53783Y-13398D01*
X53764Y-13353D01*
X53760Y-13336D01*
X53739Y-13336D01*
X53735Y-13356D01*
X53716Y-13400D01*
X53717Y-13402D01*
X53736Y-13447D01*
X53745Y-13495D01*
X53745Y-13883D01*
X53755Y-13883D01*
G54D10*
G36*
X49360Y-13464D02*
X49365Y-13444D01*
X49383Y-13399D01*
X49383Y-13398D01*
X49364Y-13353D01*
X49355Y-13305D01*
X49355Y-12744D01*
X49365Y-12696D01*
X49369Y-12686D01*
X49339Y-12716D01*
X49345Y-12747D01*
X49345Y-13308D01*
X49335Y-13356D01*
X49316Y-13400D01*
X49317Y-13402D01*
X49336Y-13447D01*
X49339Y-13464D01*
X49360Y-13464D01*
X49360Y-13464D01*
G37*
G54D32*
X49360Y-13464D02*
X49365Y-13444D01*
X49383Y-13399D01*
X49383Y-13398D01*
X49364Y-13353D01*
X49355Y-13305D01*
X49355Y-12744D01*
X49365Y-12696D01*
X49369Y-12686D01*
X49339Y-12716D01*
X49345Y-12747D01*
X49345Y-13308D01*
X49335Y-13356D01*
X49316Y-13400D01*
X49317Y-13402D01*
X49336Y-13447D01*
X49339Y-13464D01*
X49360Y-13464D01*
G54D10*
G36*
X61312Y-12909D02*
X61259Y-12827D01*
X61220Y-12727D01*
X61200Y-12621D01*
X61202Y-12514D01*
X61210Y-12473D01*
X61148Y-12412D01*
X59726Y-12412D01*
X59728Y-12415D01*
X59749Y-12521D01*
X59748Y-12545D01*
X59749Y-12548D01*
X59748Y-12562D01*
X59747Y-12644D01*
X59724Y-12749D01*
X59680Y-12847D01*
X59636Y-12909D01*
X61312Y-12909D01*
X61312Y-12909D01*
G37*
G54D32*
X61312Y-12909D02*
X61259Y-12827D01*
X61220Y-12727D01*
X61200Y-12621D01*
X61202Y-12514D01*
X61210Y-12473D01*
X61148Y-12412D01*
X59726Y-12412D01*
X59728Y-12415D01*
X59749Y-12521D01*
X59748Y-12545D01*
X59749Y-12548D01*
X59748Y-12562D01*
X59747Y-12644D01*
X59724Y-12749D01*
X59680Y-12847D01*
X59636Y-12909D01*
X61312Y-12909D01*
G54D10*
G36*
X58762Y-12909D02*
X58725Y-12852D01*
X58686Y-12909D01*
X58762Y-12909D01*
X58762Y-12909D01*
G37*
G54D32*
X58762Y-12909D02*
X58725Y-12852D01*
X58686Y-12909D01*
X58762Y-12909D01*
G54D10*
G36*
X57812Y-12909D02*
X57759Y-12827D01*
X57720Y-12727D01*
X57700Y-12621D01*
X57702Y-12514D01*
X57724Y-12408D01*
X57767Y-12309D01*
X57827Y-12221D01*
X57860Y-12188D01*
X56089Y-12188D01*
X56127Y-12226D01*
X56187Y-12316D01*
X56228Y-12415D01*
X56249Y-12521D01*
X56248Y-12545D01*
X56249Y-12548D01*
X56248Y-12562D01*
X56247Y-12644D01*
X56224Y-12749D01*
X56180Y-12847D01*
X56136Y-12909D01*
X57812Y-12909D01*
X57812Y-12909D01*
G37*
G54D32*
X57812Y-12909D02*
X57759Y-12827D01*
X57720Y-12727D01*
X57700Y-12621D01*
X57702Y-12514D01*
X57724Y-12408D01*
X57767Y-12309D01*
X57827Y-12221D01*
X57860Y-12188D01*
X56089Y-12188D01*
X56127Y-12226D01*
X56187Y-12316D01*
X56228Y-12415D01*
X56249Y-12521D01*
X56248Y-12545D01*
X56249Y-12548D01*
X56248Y-12562D01*
X56247Y-12644D01*
X56224Y-12749D01*
X56180Y-12847D01*
X56136Y-12909D01*
X57812Y-12909D01*
G54D10*
G36*
X51560Y-12716D02*
X51565Y-12696D01*
X51584Y-12651D01*
X51612Y-12611D01*
X51647Y-12576D01*
X51688Y-12549D01*
X51733Y-12530D01*
X51781Y-12521D01*
X52422Y-12521D01*
X52453Y-12527D01*
X52456Y-12519D01*
X52456Y-12517D01*
X52457Y-12517D01*
X52486Y-12464D01*
X52511Y-12434D01*
X52523Y-12420D01*
X52555Y-12387D01*
X52558Y-12384D01*
X52579Y-12367D01*
X52603Y-12348D01*
X52657Y-12319D01*
X52715Y-12302D01*
X52775Y-12296D01*
X55033Y-12296D01*
X55051Y-12298D01*
X55090Y-12302D01*
X55149Y-12320D01*
X55150Y-12320D01*
X55151Y-12321D01*
X55200Y-12347D01*
X55217Y-12309D01*
X55277Y-12221D01*
X55310Y-12188D01*
X51093Y-12188D01*
X50853Y-12428D01*
X50853Y-12521D01*
X51322Y-12521D01*
X51370Y-12531D01*
X51415Y-12550D01*
X51455Y-12578D01*
X51490Y-12613D01*
X51517Y-12654D01*
X51536Y-12699D01*
X51539Y-12716D01*
X51560Y-12716D01*
X51560Y-12716D01*
G37*
G54D32*
X51560Y-12716D02*
X51565Y-12696D01*
X51584Y-12651D01*
X51612Y-12611D01*
X51647Y-12576D01*
X51688Y-12549D01*
X51733Y-12530D01*
X51781Y-12521D01*
X52422Y-12521D01*
X52453Y-12527D01*
X52456Y-12519D01*
X52456Y-12517D01*
X52457Y-12517D01*
X52486Y-12464D01*
X52511Y-12434D01*
X52523Y-12420D01*
X52555Y-12387D01*
X52558Y-12384D01*
X52579Y-12367D01*
X52603Y-12348D01*
X52657Y-12319D01*
X52715Y-12302D01*
X52775Y-12296D01*
X55033Y-12296D01*
X55051Y-12298D01*
X55090Y-12302D01*
X55149Y-12320D01*
X55150Y-12320D01*
X55151Y-12321D01*
X55200Y-12347D01*
X55217Y-12309D01*
X55277Y-12221D01*
X55310Y-12188D01*
X51093Y-12188D01*
X50853Y-12428D01*
X50853Y-12521D01*
X51322Y-12521D01*
X51370Y-12531D01*
X51415Y-12550D01*
X51455Y-12578D01*
X51490Y-12613D01*
X51517Y-12654D01*
X51536Y-12699D01*
X51539Y-12716D01*
X51560Y-12716D01*
G54D10*
G36*
X48162Y-12585D02*
X48171Y-12578D01*
X48195Y-12559D01*
X48249Y-12530D01*
X48307Y-12513D01*
X48367Y-12507D01*
X48671Y-12507D01*
X49297Y-11881D01*
X49342Y-11845D01*
X49396Y-11816D01*
X49454Y-11799D01*
X49514Y-11793D01*
X50350Y-11793D01*
X50368Y-11795D01*
X50407Y-11799D01*
X50466Y-11817D01*
X50467Y-11817D01*
X50468Y-11818D01*
X50521Y-11847D01*
X50540Y-11863D01*
X50629Y-11775D01*
X45886Y-11775D01*
X45907Y-11793D01*
X45922Y-11805D01*
X46624Y-12507D01*
X47037Y-12507D01*
X47054Y-12509D01*
X47094Y-12513D01*
X47153Y-12531D01*
X47154Y-12531D01*
X47155Y-12532D01*
X47208Y-12561D01*
X47237Y-12585D01*
X47247Y-12576D01*
X47288Y-12549D01*
X47333Y-12530D01*
X47381Y-12521D01*
X48022Y-12521D01*
X48070Y-12531D01*
X48115Y-12550D01*
X48155Y-12578D01*
X48162Y-12585D01*
X48162Y-12585D01*
G37*
G54D32*
X48162Y-12585D02*
X48171Y-12578D01*
X48195Y-12559D01*
X48249Y-12530D01*
X48307Y-12513D01*
X48367Y-12507D01*
X48671Y-12507D01*
X49297Y-11881D01*
X49342Y-11845D01*
X49396Y-11816D01*
X49454Y-11799D01*
X49514Y-11793D01*
X50350Y-11793D01*
X50368Y-11795D01*
X50407Y-11799D01*
X50466Y-11817D01*
X50467Y-11817D01*
X50468Y-11818D01*
X50521Y-11847D01*
X50540Y-11863D01*
X50629Y-11775D01*
X45886Y-11775D01*
X45907Y-11793D01*
X45922Y-11805D01*
X46624Y-12507D01*
X47037Y-12507D01*
X47054Y-12509D01*
X47094Y-12513D01*
X47153Y-12531D01*
X47154Y-12531D01*
X47155Y-12532D01*
X47208Y-12561D01*
X47237Y-12585D01*
X47247Y-12576D01*
X47288Y-12549D01*
X47333Y-12530D01*
X47381Y-12521D01*
X48022Y-12521D01*
X48070Y-12531D01*
X48115Y-12550D01*
X48155Y-12578D01*
X48162Y-12585D01*
G54D10*
G36*
X49520Y-12535D02*
X49533Y-12530D01*
X49581Y-12521D01*
X49603Y-12521D01*
X49614Y-12487D01*
X49614Y-12485D01*
X49615Y-12485D01*
X49644Y-12432D01*
X49660Y-12413D01*
X49642Y-12413D01*
X49520Y-12535D01*
X49520Y-12535D01*
G37*
G54D32*
X49520Y-12535D02*
X49533Y-12530D01*
X49581Y-12521D01*
X49603Y-12521D01*
X49614Y-12487D01*
X49614Y-12485D01*
X49615Y-12485D01*
X49644Y-12432D01*
X49660Y-12413D01*
X49642Y-12413D01*
X49520Y-12535D01*
G54D10*
G36*
X40571Y-12500D02*
X40575Y-12492D01*
X40683Y-12334D01*
X10318Y-12334D01*
X10428Y-12500D01*
X40571Y-12500D01*
X40571Y-12500D01*
G37*
G54D32*
X40571Y-12500D02*
X40575Y-12492D01*
X40683Y-12334D01*
X10318Y-12334D01*
X10428Y-12500D01*
X40571Y-12500D01*
G54D10*
G36*
X62224Y-12297D02*
X62277Y-12221D01*
X62310Y-12188D01*
X62139Y-12188D01*
X62177Y-12226D01*
X62224Y-12297D01*
X62224Y-12297D01*
G37*
G54D32*
X62224Y-12297D02*
X62277Y-12221D01*
X62310Y-12188D01*
X62139Y-12188D01*
X62177Y-12226D01*
X62224Y-12297D01*
G54D10*
G36*
X08275Y-11892D02*
X08281Y-11882D01*
X08306Y-11851D01*
X08318Y-11838D01*
X08350Y-11805D01*
X08353Y-11802D01*
X08374Y-11785D01*
X08387Y-11775D01*
X08275Y-11775D01*
X08275Y-11892D01*
X08275Y-11892D01*
G37*
G54D32*
X08275Y-11892D02*
X08281Y-11882D01*
X08306Y-11851D01*
X08318Y-11838D01*
X08350Y-11805D01*
X08353Y-11802D01*
X08374Y-11785D01*
X08387Y-11775D01*
X08275Y-11775D01*
X08275Y-11892D01*
M02*
