G04 (created by PCBNEW-RS274X (2010-04-21 BZR 23xx)-stable) date Wed 04 May 2011 07:28:19 PM CEST*
G01*
G70*
G90*
%MOIN*%
G04 Gerber Fmt 3.4, Leading zero omitted, Abs format*
%FSLAX34Y34*%
G04 APERTURE LIST*
%ADD10C,0.006000*%
%ADD11R,0.068000X0.068000*%
%ADD12C,0.068000*%
%ADD13C,0.108000*%
%ADD14R,0.067000X0.059100*%
%ADD15R,0.059100X0.067000*%
%ADD16R,0.063000X0.063000*%
%ADD17C,0.063000*%
%ADD18R,0.078800X0.070900*%
%ADD19R,0.070900X0.078800*%
%ADD20C,0.088000*%
%ADD21C,0.168000*%
%ADD22R,0.108000X0.108000*%
G04 APERTURE END LIST*
G54D10*
G54D11*
X76700Y-59900D03*
G54D12*
X76700Y-60900D03*
X75700Y-59900D03*
X75700Y-60900D03*
X74700Y-59900D03*
X74700Y-60900D03*
G54D13*
X71000Y-60000D03*
X71000Y-58000D03*
X39500Y-58000D03*
X39500Y-60000D03*
X39499Y-53500D03*
X39499Y-55500D03*
X44000Y-55500D03*
X44000Y-53500D03*
X44000Y-60000D03*
X44000Y-58000D03*
X48500Y-58000D03*
X48500Y-60000D03*
X48500Y-53500D03*
X48500Y-55500D03*
X53000Y-55500D03*
X53000Y-53500D03*
X53000Y-60000D03*
X53000Y-58000D03*
X57500Y-58000D03*
X57500Y-60000D03*
X57500Y-53500D03*
X57500Y-55500D03*
X62000Y-55500D03*
X62000Y-53500D03*
X62000Y-60000D03*
X62000Y-58000D03*
X66500Y-58000D03*
X66500Y-60000D03*
X66500Y-53500D03*
X66500Y-55500D03*
X71000Y-55500D03*
X71000Y-53500D03*
G54D14*
X85200Y-52774D03*
X85200Y-52026D03*
X86900Y-52026D03*
X86900Y-52774D03*
X87800Y-52026D03*
X87800Y-52774D03*
X89500Y-52774D03*
X89500Y-52026D03*
X82400Y-52026D03*
X82400Y-52774D03*
X81500Y-52774D03*
X81500Y-52026D03*
X77000Y-52774D03*
X77000Y-52026D03*
X76100Y-52774D03*
X76100Y-52026D03*
G54D15*
X76074Y-56700D03*
X75326Y-56700D03*
G54D12*
X86100Y-51575D03*
X88650Y-51575D03*
X86100Y-53325D03*
X88650Y-53325D03*
X80700Y-51575D03*
X83250Y-51575D03*
X80700Y-53325D03*
X83250Y-53325D03*
X75300Y-51575D03*
X77850Y-51575D03*
X75300Y-53325D03*
X77850Y-53325D03*
G54D14*
X74400Y-52026D03*
X74400Y-52774D03*
G54D13*
X120000Y-60000D03*
X120000Y-58000D03*
X120000Y-55500D03*
X120000Y-53500D03*
X124500Y-53500D03*
X124500Y-55500D03*
X124500Y-58000D03*
X124500Y-60000D03*
X111000Y-59900D03*
X111000Y-57900D03*
X111000Y-55500D03*
X111000Y-53500D03*
X115600Y-53500D03*
X115600Y-55500D03*
X115600Y-58000D03*
X115600Y-60000D03*
X106500Y-58000D03*
X106500Y-60000D03*
X106500Y-53500D03*
X106500Y-55500D03*
X102000Y-55500D03*
X102000Y-53500D03*
X102000Y-60000D03*
X102000Y-58000D03*
X97500Y-58000D03*
X97500Y-60000D03*
X97500Y-53500D03*
X97500Y-55500D03*
X93000Y-55500D03*
X93000Y-53500D03*
X93000Y-60000D03*
X93000Y-58000D03*
G54D16*
X79800Y-52400D03*
G54D17*
X78800Y-52400D03*
G54D15*
X82374Y-59100D03*
X81626Y-59100D03*
X75326Y-54700D03*
X76074Y-54700D03*
G54D18*
X82000Y-55249D03*
X82000Y-56351D03*
G54D19*
X82551Y-58100D03*
X81449Y-58100D03*
X75149Y-55700D03*
X76251Y-55700D03*
G54D20*
X89100Y-61200D03*
X85100Y-60200D03*
X89100Y-59200D03*
G54D21*
X36500Y-52000D03*
X127500Y-61500D03*
X127500Y-52000D03*
X95500Y-61500D03*
X95500Y-52000D03*
X68500Y-61500D03*
X68500Y-52000D03*
X36500Y-61500D03*
G54D11*
X89800Y-56200D03*
G54D12*
X88800Y-56200D03*
X87800Y-56200D03*
X86800Y-56200D03*
X85800Y-56200D03*
X84800Y-56200D03*
G54D11*
X84800Y-55200D03*
G54D12*
X85800Y-55200D03*
X86800Y-55200D03*
X87800Y-55200D03*
X88800Y-55200D03*
X89800Y-55200D03*
G54D11*
X89800Y-57200D03*
G54D12*
X88800Y-57200D03*
X87800Y-57200D03*
X86800Y-57200D03*
X85800Y-57200D03*
X84800Y-57200D03*
G54D16*
X136300Y-60200D03*
G54D17*
X136300Y-59200D03*
X136300Y-58200D03*
X136300Y-57200D03*
X136300Y-56200D03*
X136300Y-55200D03*
X136300Y-54200D03*
X136300Y-53200D03*
G54D16*
X27800Y-60200D03*
G54D17*
X27800Y-59200D03*
X27800Y-58200D03*
X27800Y-57200D03*
X27800Y-56200D03*
X27800Y-55200D03*
X27800Y-54200D03*
X27800Y-53200D03*
G54D22*
X130500Y-58200D03*
G54D13*
X130500Y-55200D03*
G54D22*
X33600Y-58200D03*
G54D13*
X33600Y-55200D03*
M02*
