G04 (created by PCBNEW-RS274X (2010-04-21 BZR 23xx)-stable) date Sun 20 Mar 2011 12:37:44 AM CET*
G01*
G70*
G90*
%MOIN*%
G04 Gerber Fmt 3.4, Leading zero omitted, Abs format*
%FSLAX34Y34*%
G04 APERTURE LIST*
%ADD10C,0.006000*%
%ADD11R,0.060000X0.060000*%
%ADD12C,0.060000*%
%ADD13C,0.100000*%
%ADD14R,0.059000X0.051100*%
%ADD15R,0.051100X0.059000*%
%ADD16R,0.055000X0.055000*%
%ADD17C,0.055000*%
%ADD18R,0.070800X0.062900*%
%ADD19R,0.062900X0.070800*%
%ADD20C,0.080000*%
%ADD21C,0.160000*%
%ADD22C,0.035000*%
%ADD23C,0.012000*%
%ADD24C,0.020000*%
%ADD25C,0.050000*%
%ADD26C,0.010000*%
G04 APERTURE END LIST*
G54D10*
G54D11*
X50700Y-21100D03*
G54D12*
X50700Y-20100D03*
X51700Y-21100D03*
X51700Y-20100D03*
X52700Y-21100D03*
X52700Y-20100D03*
G54D13*
X47000Y-21000D03*
X47000Y-19000D03*
X15500Y-19000D03*
X15500Y-21000D03*
X15499Y-14500D03*
X15499Y-16500D03*
X20000Y-16500D03*
X20000Y-14500D03*
X20000Y-21000D03*
X20000Y-19000D03*
X24500Y-19000D03*
X24500Y-21000D03*
X24500Y-14500D03*
X24500Y-16500D03*
X29000Y-16500D03*
X29000Y-14500D03*
X29000Y-21000D03*
X29000Y-19000D03*
X33500Y-19000D03*
X33500Y-21000D03*
X33500Y-14500D03*
X33500Y-16500D03*
X38000Y-16500D03*
X38000Y-14500D03*
X38000Y-21000D03*
X38000Y-19000D03*
X42500Y-19000D03*
X42500Y-21000D03*
X42500Y-14500D03*
X42500Y-16500D03*
X47000Y-16500D03*
X47000Y-14500D03*
G54D14*
X61400Y-13774D03*
X61400Y-13026D03*
X63100Y-13026D03*
X63100Y-13774D03*
X64000Y-13026D03*
X64000Y-13774D03*
X65700Y-13774D03*
X65700Y-13026D03*
X58400Y-13026D03*
X58400Y-13774D03*
X57500Y-13774D03*
X57500Y-13026D03*
X53000Y-13774D03*
X53000Y-13026D03*
X52100Y-13774D03*
X52100Y-13026D03*
G54D15*
X52074Y-17700D03*
X51326Y-17700D03*
G54D12*
X62300Y-12575D03*
X64850Y-12575D03*
X62300Y-14325D03*
X64850Y-14325D03*
X56700Y-12575D03*
X59250Y-12575D03*
X56700Y-14325D03*
X59250Y-14325D03*
X51300Y-12575D03*
X53850Y-12575D03*
X51300Y-14325D03*
X53850Y-14325D03*
G54D14*
X50400Y-13026D03*
X50400Y-13774D03*
G54D13*
X96000Y-21000D03*
X96000Y-19000D03*
X96000Y-16500D03*
X96000Y-14500D03*
X100500Y-14500D03*
X100500Y-16500D03*
X100500Y-19000D03*
X100500Y-21000D03*
X87000Y-20900D03*
X87000Y-18900D03*
X87000Y-16500D03*
X87000Y-14500D03*
X91600Y-14500D03*
X91600Y-16500D03*
X91600Y-19000D03*
X91600Y-21000D03*
X82500Y-19000D03*
X82500Y-21000D03*
X82500Y-14500D03*
X82500Y-16500D03*
X78000Y-16500D03*
X78000Y-14500D03*
X78000Y-21000D03*
X78000Y-19000D03*
X73500Y-19000D03*
X73500Y-21000D03*
X73500Y-14500D03*
X73500Y-16500D03*
X69000Y-16500D03*
X69000Y-14500D03*
X69000Y-21000D03*
X69000Y-19000D03*
G54D16*
X55800Y-13400D03*
G54D17*
X54800Y-13400D03*
G54D15*
X58374Y-20600D03*
X57626Y-20600D03*
X51326Y-15700D03*
X52074Y-15700D03*
G54D18*
X58000Y-16249D03*
X58000Y-17351D03*
G54D19*
X58551Y-19600D03*
X57449Y-19600D03*
X51149Y-16700D03*
X52251Y-16700D03*
G54D20*
X65100Y-22800D03*
X61100Y-21800D03*
X65100Y-20800D03*
G54D11*
X12000Y-20100D03*
G54D12*
X12000Y-19100D03*
X12000Y-18100D03*
X12000Y-17100D03*
X12000Y-16100D03*
X12000Y-15100D03*
G54D11*
X104000Y-20100D03*
G54D12*
X104000Y-19100D03*
X104000Y-18100D03*
X104000Y-17100D03*
X104000Y-16100D03*
X104000Y-15100D03*
G54D21*
X103500Y-22500D03*
X12500Y-13000D03*
X12500Y-22500D03*
X103500Y-13000D03*
X71500Y-13000D03*
X44500Y-13000D03*
G54D11*
X60800Y-19200D03*
G54D12*
X61800Y-19200D03*
X62800Y-19200D03*
X63800Y-19200D03*
X64800Y-19200D03*
X65800Y-19200D03*
G54D11*
X60800Y-18200D03*
G54D12*
X61800Y-18200D03*
X62800Y-18200D03*
X63800Y-18200D03*
X64800Y-18200D03*
X65800Y-18200D03*
G54D11*
X60800Y-16200D03*
G54D12*
X61800Y-16200D03*
X62800Y-16200D03*
X63800Y-16200D03*
X64800Y-16200D03*
X65800Y-16200D03*
G54D11*
X60800Y-17200D03*
G54D12*
X61800Y-17200D03*
X62800Y-17200D03*
X63800Y-17200D03*
X64800Y-17200D03*
X65800Y-17200D03*
G54D21*
X71500Y-22500D03*
X44500Y-22500D03*
G54D22*
X56111Y-20228D03*
X54100Y-18008D03*
X51743Y-15081D03*
X57766Y-18512D03*
X55459Y-19967D03*
X49446Y-16832D03*
X49933Y-17666D03*
X55750Y-22871D03*
X54305Y-22661D03*
X55844Y-21312D03*
X54267Y-21069D03*
X45750Y-20434D03*
X56165Y-22115D03*
X54344Y-21555D03*
X49927Y-21782D03*
X58295Y-22089D03*
X54349Y-22009D03*
X67191Y-19221D03*
X73347Y-19798D03*
X59864Y-21740D03*
X72375Y-16608D03*
X60554Y-21223D03*
X54452Y-15696D03*
X54502Y-12482D03*
X50198Y-12438D03*
X13180Y-17134D03*
X53474Y-15777D03*
X53541Y-17340D03*
X51664Y-18273D03*
X54314Y-20319D03*
X53194Y-14352D03*
X54278Y-18795D03*
X59777Y-17082D03*
X52722Y-15255D03*
X56000Y-18700D03*
X56000Y-17000D03*
X51271Y-13187D03*
X53578Y-13450D03*
X50766Y-15282D03*
X59815Y-19200D03*
G54D23*
X54832Y-18045D02*
X54100Y-18045D01*
X56111Y-19324D02*
X54832Y-18045D01*
X56111Y-20228D02*
X56111Y-19324D01*
X54100Y-18045D02*
X54100Y-18008D01*
X52171Y-21571D02*
X51700Y-21100D01*
X52916Y-21571D02*
X52171Y-21571D01*
X53194Y-21293D02*
X52916Y-21571D01*
X53194Y-18753D02*
X53194Y-21293D01*
X53902Y-18045D02*
X53194Y-18753D01*
X54100Y-18045D02*
X53902Y-18045D01*
X57766Y-18285D02*
X57766Y-18512D01*
X56006Y-16525D02*
X57766Y-18285D01*
X54835Y-16525D02*
X56006Y-16525D01*
X53682Y-17678D02*
X54835Y-16525D01*
X53401Y-17678D02*
X53682Y-17678D01*
X53060Y-17337D02*
X53401Y-17678D01*
X53060Y-15114D02*
X53060Y-17337D01*
X52663Y-14717D02*
X53060Y-15114D01*
X52107Y-14717D02*
X52663Y-14717D01*
X51743Y-15081D02*
X52107Y-14717D01*
X49446Y-19682D02*
X49446Y-16832D01*
X50400Y-20636D02*
X49446Y-19682D01*
X51130Y-20636D02*
X50400Y-20636D01*
X51164Y-20670D02*
X51130Y-20636D01*
X51164Y-21266D02*
X51164Y-20670D01*
X51802Y-21904D02*
X51164Y-21266D01*
X52934Y-21904D02*
X51802Y-21904D01*
X53547Y-21291D02*
X52934Y-21904D01*
X53547Y-18877D02*
X53547Y-21291D01*
X54077Y-18347D02*
X53547Y-18877D01*
X54558Y-18347D02*
X54077Y-18347D01*
X55459Y-19248D02*
X54558Y-18347D01*
X55459Y-19967D02*
X55459Y-19248D01*
X49933Y-14660D02*
X49933Y-17666D01*
X50400Y-14193D02*
X49933Y-14660D01*
X50400Y-13774D02*
X50400Y-14193D01*
G54D24*
X54515Y-22871D02*
X54305Y-22661D01*
X55750Y-22871D02*
X54515Y-22871D01*
X55601Y-21069D02*
X54267Y-21069D01*
X55844Y-21312D02*
X55601Y-21069D01*
X45613Y-20297D02*
X45750Y-20434D01*
X39698Y-20297D02*
X45613Y-20297D01*
X38211Y-21784D02*
X39698Y-20297D01*
X35646Y-21784D02*
X38211Y-21784D01*
X33864Y-20002D02*
X35646Y-21784D01*
X29998Y-20002D02*
X33864Y-20002D01*
X29000Y-21000D02*
X29998Y-20002D01*
X55036Y-22115D02*
X56165Y-22115D01*
X54476Y-21555D02*
X55036Y-22115D01*
X54344Y-21555D02*
X54476Y-21555D01*
X48134Y-19989D02*
X49927Y-21782D01*
X39011Y-19989D02*
X48134Y-19989D01*
X38000Y-21000D02*
X39011Y-19989D01*
X57891Y-22493D02*
X58295Y-22089D01*
X54833Y-22493D02*
X57891Y-22493D01*
X54349Y-22009D02*
X54833Y-22493D01*
X67768Y-19798D02*
X73347Y-19798D01*
X67191Y-19221D02*
X67768Y-19798D01*
X71563Y-15796D02*
X72375Y-16608D01*
X68602Y-15796D02*
X71563Y-15796D01*
X67517Y-16881D02*
X68602Y-15796D01*
X67517Y-18296D02*
X67517Y-16881D01*
X65921Y-19892D02*
X67517Y-18296D01*
X60787Y-19892D02*
X65921Y-19892D01*
X59864Y-20815D02*
X60787Y-19892D01*
X59864Y-21740D02*
X59864Y-20815D01*
X95196Y-20196D02*
X96000Y-21000D01*
X61581Y-20196D02*
X95196Y-20196D01*
X60554Y-21223D02*
X61581Y-20196D01*
G54D23*
X13809Y-17134D02*
X13180Y-17134D01*
X17107Y-13836D02*
X13809Y-17134D01*
X43536Y-13836D02*
X17107Y-13836D01*
X43762Y-14062D02*
X43536Y-13836D01*
X45126Y-14062D02*
X43762Y-14062D01*
X46750Y-12438D02*
X45126Y-14062D01*
X50198Y-12438D02*
X46750Y-12438D01*
X55361Y-13341D02*
X54502Y-12482D01*
X55361Y-15491D02*
X55361Y-13341D01*
X102709Y-15491D02*
X55361Y-15491D01*
X103854Y-16636D02*
X102709Y-15491D01*
X104444Y-16636D02*
X103854Y-16636D01*
X104478Y-16670D02*
X104444Y-16636D01*
X104478Y-18622D02*
X104478Y-16670D01*
X104000Y-19100D02*
X104478Y-18622D01*
X54657Y-15491D02*
X54452Y-15696D01*
X55361Y-15491D02*
X54657Y-15491D01*
X53541Y-15844D02*
X53541Y-17340D01*
X53474Y-15777D02*
X53541Y-15844D01*
X51326Y-17700D02*
X51326Y-18158D01*
X52200Y-18809D02*
X51664Y-18273D01*
X52200Y-20600D02*
X52200Y-18809D01*
X52700Y-21100D02*
X52200Y-20600D01*
X51549Y-18158D02*
X51326Y-18158D01*
X51664Y-18273D02*
X51549Y-18158D01*
X55349Y-20319D02*
X54314Y-20319D01*
X56291Y-21261D02*
X55349Y-20319D01*
X58573Y-21261D02*
X56291Y-21261D01*
X60319Y-19515D02*
X58573Y-21261D01*
X60319Y-18766D02*
X60319Y-19515D01*
X60353Y-18732D02*
X60319Y-18766D01*
X61968Y-18732D02*
X60353Y-18732D01*
X62266Y-18434D02*
X61968Y-18732D01*
X62266Y-18032D02*
X62266Y-18434D01*
X62634Y-17664D02*
X62266Y-18032D01*
X66241Y-17664D02*
X62634Y-17664D01*
X66263Y-17642D02*
X66241Y-17664D01*
X66263Y-15764D02*
X66263Y-17642D01*
X66229Y-15730D02*
X66263Y-15764D01*
X64270Y-15730D02*
X66229Y-15730D01*
X63800Y-16200D02*
X64270Y-15730D01*
X12000Y-20100D02*
X12000Y-19637D01*
X52100Y-13026D02*
X52100Y-12607D01*
X104000Y-20100D02*
X104000Y-19637D01*
X52100Y-12030D02*
X52100Y-12607D01*
X57500Y-13774D02*
X57042Y-13774D01*
X56883Y-13615D02*
X57042Y-13774D01*
X56546Y-13615D02*
X56883Y-13615D01*
X52888Y-13774D02*
X53000Y-13774D01*
X52140Y-13026D02*
X52888Y-13774D01*
X52100Y-13026D02*
X52140Y-13026D01*
X53034Y-14192D02*
X53194Y-14352D01*
X53000Y-14192D02*
X53034Y-14192D01*
X53000Y-13774D02*
X53000Y-14192D01*
X55309Y-12030D02*
X52100Y-12030D01*
X56546Y-13267D02*
X55309Y-12030D01*
X56546Y-13615D02*
X56546Y-13267D01*
X11571Y-19637D02*
X12000Y-19637D01*
X11537Y-19603D02*
X11571Y-19637D01*
X11537Y-16657D02*
X11537Y-19603D01*
X11560Y-16634D02*
X11537Y-16657D01*
X12426Y-16634D02*
X11560Y-16634D01*
X17106Y-11954D02*
X12426Y-16634D01*
X52024Y-11954D02*
X17106Y-11954D01*
X52100Y-12030D02*
X52024Y-11954D01*
X56264Y-14813D02*
X61400Y-14813D01*
X56230Y-14779D02*
X56264Y-14813D01*
X56230Y-13931D02*
X56230Y-14779D01*
X56546Y-13615D02*
X56230Y-13931D01*
X61769Y-15182D02*
X61400Y-14813D01*
X102717Y-15182D02*
X61769Y-15182D01*
X103148Y-15613D02*
X102717Y-15182D01*
X104168Y-15613D02*
X103148Y-15613D01*
X104702Y-16147D02*
X104168Y-15613D01*
X104702Y-19398D02*
X104702Y-16147D01*
X104463Y-19637D02*
X104702Y-19398D01*
X104000Y-19637D02*
X104463Y-19637D01*
X61400Y-14813D02*
X61400Y-13774D01*
G54D25*
X60600Y-23400D02*
X53900Y-23400D01*
X62300Y-22000D02*
X60600Y-23400D01*
X66400Y-22000D02*
X62300Y-22000D01*
X67100Y-23400D02*
X66400Y-22000D01*
X69000Y-23400D02*
X67100Y-23400D01*
X70600Y-21000D02*
X69000Y-23400D01*
X73500Y-21000D02*
X70600Y-21000D01*
X102800Y-18100D02*
X104000Y-18100D01*
X100500Y-21000D02*
X102800Y-18100D01*
X13000Y-18100D02*
X15500Y-21000D01*
X12000Y-18100D02*
X13000Y-18100D01*
X73500Y-23400D02*
X82500Y-23400D01*
X73500Y-21000D02*
X73500Y-23400D01*
X91600Y-21000D02*
X91600Y-23400D01*
X100500Y-23400D02*
X100500Y-21000D01*
X91600Y-23400D02*
X100500Y-23400D01*
X46400Y-23400D02*
X53900Y-23400D01*
X45600Y-21000D02*
X46400Y-23400D01*
X42500Y-21000D02*
X45600Y-21000D01*
X15500Y-23400D02*
X24500Y-23400D01*
X15500Y-21000D02*
X15500Y-23400D01*
X33500Y-21000D02*
X33500Y-23400D01*
X42500Y-23400D02*
X42500Y-21000D01*
X33500Y-23400D02*
X42500Y-23400D01*
X104000Y-18100D02*
X104000Y-17100D01*
X12000Y-17100D02*
X12000Y-18100D01*
X33500Y-23400D02*
X24500Y-23400D01*
X24500Y-23400D02*
X24500Y-21000D01*
X91600Y-23400D02*
X82500Y-23400D01*
X82500Y-23400D02*
X82500Y-21000D01*
G54D23*
X53900Y-19173D02*
X54278Y-18795D01*
X53900Y-23400D02*
X53900Y-19173D01*
X54675Y-13400D02*
X53850Y-12575D01*
X54800Y-13400D02*
X54675Y-13400D01*
X59852Y-11973D02*
X59250Y-12575D01*
X64248Y-11973D02*
X59852Y-11973D01*
X64850Y-12575D02*
X64248Y-11973D01*
X58786Y-17082D02*
X58517Y-17351D01*
X59777Y-17082D02*
X58786Y-17082D01*
X58000Y-17351D02*
X58517Y-17351D01*
X52700Y-17149D02*
X52700Y-20100D01*
X52251Y-16700D02*
X52700Y-17149D01*
X52074Y-15700D02*
X52339Y-15700D01*
X52339Y-16095D02*
X52251Y-16183D01*
X52339Y-15700D02*
X52339Y-16095D01*
X52251Y-16700D02*
X52251Y-16183D01*
X52722Y-15317D02*
X52339Y-15700D01*
X52722Y-15255D02*
X52722Y-15317D01*
X57300Y-18700D02*
X56000Y-18700D01*
X57449Y-18849D02*
X57300Y-18700D01*
X57449Y-19600D02*
X57449Y-18849D01*
X57626Y-19777D02*
X57449Y-19600D01*
X57626Y-20600D02*
X57626Y-19777D01*
X56000Y-17000D02*
X56000Y-18700D01*
X51019Y-13187D02*
X50858Y-13026D01*
X51271Y-13187D02*
X51019Y-13187D01*
X50400Y-13026D02*
X50858Y-13026D01*
G54D24*
X73500Y-16500D02*
X73500Y-19000D01*
X69000Y-14500D02*
X73500Y-14500D01*
X69000Y-19000D02*
X69000Y-16500D01*
G54D23*
X61883Y-13051D02*
X61858Y-13026D01*
X62617Y-13051D02*
X61883Y-13051D01*
X62642Y-13026D02*
X62617Y-13051D01*
X63100Y-13026D02*
X62642Y-13026D01*
X61400Y-13026D02*
X61858Y-13026D01*
G54D24*
X91600Y-19000D02*
X91600Y-16500D01*
X87000Y-16500D02*
X87000Y-18900D01*
X100500Y-19000D02*
X100500Y-16500D01*
X96000Y-16500D02*
X96000Y-19000D01*
X78000Y-19000D02*
X78000Y-16500D01*
X82500Y-16500D02*
X82500Y-19000D01*
G54D23*
X62186Y-13774D02*
X63100Y-13774D01*
X61810Y-14150D02*
X62186Y-13774D01*
X61810Y-14533D02*
X61810Y-14150D01*
X62075Y-14798D02*
X61810Y-14533D01*
X65546Y-14798D02*
X62075Y-14798D01*
X65700Y-14644D02*
X65546Y-14798D01*
X65700Y-13774D02*
X65700Y-14644D01*
G54D24*
X42500Y-16500D02*
X42500Y-19000D01*
X47000Y-14500D02*
X42500Y-14500D01*
X47000Y-16500D02*
X47000Y-19000D01*
X38000Y-19000D02*
X38000Y-16500D01*
X29000Y-19000D02*
X29000Y-16500D01*
X33500Y-16500D02*
X33500Y-19000D01*
X15500Y-16501D02*
X15500Y-19000D01*
X15499Y-16500D02*
X15500Y-16501D01*
X20000Y-19000D02*
X20000Y-16500D01*
X24500Y-16500D02*
X24500Y-19000D01*
G54D23*
X53458Y-13330D02*
X53458Y-13026D01*
X53578Y-13450D02*
X53458Y-13330D01*
X53000Y-13026D02*
X53458Y-13026D01*
X58268Y-14325D02*
X58400Y-14193D01*
X56700Y-14325D02*
X58268Y-14325D01*
X58400Y-13774D02*
X58400Y-14193D01*
X57500Y-13026D02*
X58400Y-13026D01*
X64478Y-13046D02*
X64458Y-13026D01*
X65222Y-13046D02*
X64478Y-13046D01*
X65242Y-13026D02*
X65222Y-13046D01*
X65700Y-13026D02*
X65242Y-13026D01*
X64000Y-13026D02*
X64458Y-13026D01*
X63868Y-14325D02*
X64000Y-14193D01*
X62300Y-14325D02*
X63868Y-14325D01*
X64000Y-13774D02*
X64000Y-14193D01*
X58526Y-20142D02*
X58374Y-20142D01*
X58551Y-20117D02*
X58526Y-20142D01*
X58551Y-19600D02*
X58551Y-20117D01*
X58374Y-20371D02*
X58374Y-20142D01*
X58374Y-20371D02*
X58374Y-20600D01*
X51149Y-16700D02*
X51149Y-16893D01*
X51326Y-15282D02*
X50766Y-15282D01*
X51326Y-14966D02*
X52100Y-14192D01*
X51326Y-15282D02*
X51326Y-14966D01*
X51149Y-16893D02*
X51149Y-16925D01*
X51326Y-15282D02*
X51326Y-15700D01*
X51174Y-16158D02*
X51149Y-16183D01*
X51326Y-16158D02*
X51174Y-16158D01*
X51149Y-16700D02*
X51149Y-16183D01*
X51326Y-15700D02*
X51326Y-16158D01*
X50700Y-17374D02*
X50700Y-20100D01*
X51149Y-16925D02*
X50700Y-17374D01*
X52074Y-17700D02*
X52074Y-17242D01*
X51466Y-17242D02*
X52074Y-17242D01*
X51149Y-16925D02*
X51466Y-17242D01*
X52100Y-13774D02*
X52100Y-14192D01*
X58259Y-16249D02*
X58517Y-16249D01*
X58259Y-16249D02*
X58000Y-16249D01*
X52462Y-14192D02*
X52100Y-14192D01*
X54519Y-16249D02*
X52462Y-14192D01*
X58000Y-16249D02*
X54519Y-16249D01*
X58986Y-16718D02*
X58517Y-16249D01*
X60301Y-16718D02*
X58986Y-16718D01*
X65282Y-16718D02*
X60301Y-16718D01*
X65800Y-16200D02*
X65282Y-16718D01*
X58551Y-19600D02*
X59028Y-19600D01*
X59621Y-19007D02*
X59028Y-19600D01*
X59622Y-19007D02*
X59621Y-19007D01*
X59815Y-19200D02*
X59622Y-19007D01*
X60301Y-18328D02*
X60301Y-16718D01*
X59622Y-19007D02*
X60301Y-18328D01*
G54D10*
G36*
X104725Y-23625D02*
X104725Y-19813D01*
X104682Y-19856D01*
X104582Y-19923D01*
X104549Y-19929D01*
X104549Y-20450D01*
X104511Y-20541D01*
X104441Y-20611D01*
X104349Y-20649D01*
X103650Y-20649D01*
X103559Y-20611D01*
X103489Y-20541D01*
X103451Y-20449D01*
X103451Y-19750D01*
X103489Y-19659D01*
X103559Y-19589D01*
X103651Y-19551D01*
X103674Y-19551D01*
X103535Y-19411D01*
X103451Y-19209D01*
X103451Y-18991D01*
X103535Y-18789D01*
X103689Y-18635D01*
X103773Y-18600D01*
X103040Y-18600D01*
X101249Y-20860D01*
X101249Y-21150D01*
X101134Y-21425D01*
X101000Y-21558D01*
X101000Y-23400D01*
X100962Y-23591D01*
X100939Y-23625D01*
X103290Y-23625D01*
X103290Y-23550D01*
X102905Y-23390D01*
X102610Y-23094D01*
X102450Y-22708D01*
X102450Y-22290D01*
X102610Y-21905D01*
X102906Y-21610D01*
X103292Y-21450D01*
X103710Y-21450D01*
X104095Y-21610D01*
X104390Y-21906D01*
X104550Y-22292D01*
X104550Y-22710D01*
X104390Y-23095D01*
X104094Y-23390D01*
X103708Y-23550D01*
X103290Y-23550D01*
X103290Y-23625D01*
X104725Y-23625D01*
X104725Y-23625D01*
G37*
G54D26*
X104725Y-23625D02*
X104725Y-19813D01*
X104682Y-19856D01*
X104582Y-19923D01*
X104549Y-19929D01*
X104549Y-20450D01*
X104511Y-20541D01*
X104441Y-20611D01*
X104349Y-20649D01*
X103650Y-20649D01*
X103559Y-20611D01*
X103489Y-20541D01*
X103451Y-20449D01*
X103451Y-19750D01*
X103489Y-19659D01*
X103559Y-19589D01*
X103651Y-19551D01*
X103674Y-19551D01*
X103535Y-19411D01*
X103451Y-19209D01*
X103451Y-18991D01*
X103535Y-18789D01*
X103689Y-18635D01*
X103773Y-18600D01*
X103040Y-18600D01*
X101249Y-20860D01*
X101249Y-21150D01*
X101134Y-21425D01*
X101000Y-21558D01*
X101000Y-23400D01*
X100962Y-23591D01*
X100939Y-23625D01*
X103290Y-23625D01*
X103290Y-23550D01*
X102905Y-23390D01*
X102610Y-23094D01*
X102450Y-22708D01*
X102450Y-22290D01*
X102610Y-21905D01*
X102906Y-21610D01*
X103292Y-21450D01*
X103710Y-21450D01*
X104095Y-21610D01*
X104390Y-21906D01*
X104550Y-22292D01*
X104550Y-22710D01*
X104390Y-23095D01*
X104094Y-23390D01*
X103708Y-23550D01*
X103290Y-23550D01*
X103290Y-23625D01*
X104725Y-23625D01*
G54D10*
G36*
X73060Y-23625D02*
X73038Y-23591D01*
X73000Y-23400D01*
X73000Y-21558D01*
X72941Y-21500D01*
X71830Y-21500D01*
X72095Y-21610D01*
X72390Y-21906D01*
X72550Y-22292D01*
X72550Y-22710D01*
X72390Y-23095D01*
X72094Y-23390D01*
X71708Y-23550D01*
X71290Y-23550D01*
X70905Y-23390D01*
X70610Y-23094D01*
X70450Y-22708D01*
X70450Y-22290D01*
X70610Y-21905D01*
X70906Y-21610D01*
X71171Y-21500D01*
X70867Y-21500D01*
X69450Y-23625D01*
X73060Y-23625D01*
X73060Y-23625D01*
G37*
G54D26*
X73060Y-23625D02*
X73038Y-23591D01*
X73000Y-23400D01*
X73000Y-21558D01*
X72941Y-21500D01*
X71830Y-21500D01*
X72095Y-21610D01*
X72390Y-21906D01*
X72550Y-22292D01*
X72550Y-22710D01*
X72390Y-23095D01*
X72094Y-23390D01*
X71708Y-23550D01*
X71290Y-23550D01*
X70905Y-23390D01*
X70610Y-23094D01*
X70450Y-22708D01*
X70450Y-22290D01*
X70610Y-21905D01*
X70906Y-21610D01*
X71171Y-21500D01*
X70867Y-21500D01*
X69450Y-23625D01*
X73060Y-23625D01*
G54D10*
G36*
X66655Y-23625D02*
X66654Y-23623D01*
X66091Y-22500D01*
X65678Y-22500D01*
X65749Y-22671D01*
X65749Y-22929D01*
X65650Y-23168D01*
X65468Y-23350D01*
X65229Y-23449D01*
X64971Y-23449D01*
X64732Y-23350D01*
X64550Y-23168D01*
X64451Y-22929D01*
X64451Y-22671D01*
X64521Y-22500D01*
X62477Y-22500D01*
X61113Y-23625D01*
X66655Y-23625D01*
X66655Y-23625D01*
G37*
G54D26*
X66655Y-23625D02*
X66654Y-23623D01*
X66091Y-22500D01*
X65678Y-22500D01*
X65749Y-22671D01*
X65749Y-22929D01*
X65650Y-23168D01*
X65468Y-23350D01*
X65229Y-23449D01*
X64971Y-23449D01*
X64732Y-23350D01*
X64550Y-23168D01*
X64451Y-22929D01*
X64451Y-22671D01*
X64521Y-22500D01*
X62477Y-22500D01*
X61113Y-23625D01*
X66655Y-23625D01*
G54D10*
G36*
X45960Y-23625D02*
X45938Y-23591D01*
X45935Y-23578D01*
X45924Y-23558D01*
X45550Y-22433D01*
X45550Y-22710D01*
X45390Y-23095D01*
X45094Y-23390D01*
X44708Y-23550D01*
X44290Y-23550D01*
X43905Y-23390D01*
X43610Y-23094D01*
X43450Y-22708D01*
X43450Y-22290D01*
X43610Y-21905D01*
X43906Y-21610D01*
X44171Y-21500D01*
X43058Y-21500D01*
X43000Y-21558D01*
X43000Y-23400D01*
X42962Y-23591D01*
X42939Y-23625D01*
X45960Y-23625D01*
X45960Y-23625D01*
G37*
G54D26*
X45960Y-23625D02*
X45938Y-23591D01*
X45935Y-23578D01*
X45924Y-23558D01*
X45550Y-22433D01*
X45550Y-22710D01*
X45390Y-23095D01*
X45094Y-23390D01*
X44708Y-23550D01*
X44290Y-23550D01*
X43905Y-23390D01*
X43610Y-23094D01*
X43450Y-22708D01*
X43450Y-22290D01*
X43610Y-21905D01*
X43906Y-21610D01*
X44171Y-21500D01*
X43058Y-21500D01*
X43000Y-21558D01*
X43000Y-23400D01*
X42962Y-23591D01*
X42939Y-23625D01*
X45960Y-23625D01*
G54D10*
G36*
X15060Y-23625D02*
X15038Y-23591D01*
X15000Y-23400D01*
X15000Y-21558D01*
X14865Y-21423D01*
X14751Y-21148D01*
X14751Y-20893D01*
X12771Y-18600D01*
X12226Y-18600D01*
X12311Y-18635D01*
X12465Y-18789D01*
X12549Y-18991D01*
X12549Y-19209D01*
X12465Y-19411D01*
X12325Y-19551D01*
X12350Y-19551D01*
X12441Y-19589D01*
X12511Y-19659D01*
X12549Y-19751D01*
X12549Y-20450D01*
X12511Y-20541D01*
X12441Y-20611D01*
X12349Y-20649D01*
X11650Y-20649D01*
X11559Y-20611D01*
X11489Y-20541D01*
X11451Y-20449D01*
X11451Y-19922D01*
X11352Y-19856D01*
X11318Y-19822D01*
X11275Y-19757D01*
X11275Y-23625D01*
X12290Y-23625D01*
X12290Y-23550D01*
X11905Y-23390D01*
X11610Y-23094D01*
X11450Y-22708D01*
X11450Y-22290D01*
X11610Y-21905D01*
X11906Y-21610D01*
X12292Y-21450D01*
X12710Y-21450D01*
X13095Y-21610D01*
X13390Y-21906D01*
X13550Y-22292D01*
X13550Y-22710D01*
X13390Y-23095D01*
X13094Y-23390D01*
X12708Y-23550D01*
X12290Y-23550D01*
X12290Y-23625D01*
X15060Y-23625D01*
X15060Y-23625D01*
G37*
G54D26*
X15060Y-23625D02*
X15038Y-23591D01*
X15000Y-23400D01*
X15000Y-21558D01*
X14865Y-21423D01*
X14751Y-21148D01*
X14751Y-20893D01*
X12771Y-18600D01*
X12226Y-18600D01*
X12311Y-18635D01*
X12465Y-18789D01*
X12549Y-18991D01*
X12549Y-19209D01*
X12465Y-19411D01*
X12325Y-19551D01*
X12350Y-19551D01*
X12441Y-19589D01*
X12511Y-19659D01*
X12549Y-19751D01*
X12549Y-20450D01*
X12511Y-20541D01*
X12441Y-20611D01*
X12349Y-20649D01*
X11650Y-20649D01*
X11559Y-20611D01*
X11489Y-20541D01*
X11451Y-20449D01*
X11451Y-19922D01*
X11352Y-19856D01*
X11318Y-19822D01*
X11275Y-19757D01*
X11275Y-23625D01*
X12290Y-23625D01*
X12290Y-23550D01*
X11905Y-23390D01*
X11610Y-23094D01*
X11450Y-22708D01*
X11450Y-22290D01*
X11610Y-21905D01*
X11906Y-21610D01*
X12292Y-21450D01*
X12710Y-21450D01*
X13095Y-21610D01*
X13390Y-21906D01*
X13550Y-22292D01*
X13550Y-22710D01*
X13390Y-23095D01*
X13094Y-23390D01*
X12708Y-23550D01*
X12290Y-23550D01*
X12290Y-23625D01*
X15060Y-23625D01*
G54D10*
G36*
X100000Y-22900D02*
X100000Y-21558D01*
X99865Y-21423D01*
X99751Y-21148D01*
X99751Y-20850D01*
X99866Y-20575D01*
X100077Y-20365D01*
X100352Y-20251D01*
X100455Y-20251D01*
X101020Y-19537D01*
X100923Y-19635D01*
X100648Y-19749D01*
X100350Y-19749D01*
X100075Y-19634D01*
X99865Y-19423D01*
X99751Y-19148D01*
X99751Y-18850D01*
X99866Y-18575D01*
X100077Y-18365D01*
X100150Y-18334D01*
X100150Y-17165D01*
X100075Y-17134D01*
X99865Y-16923D01*
X99751Y-16648D01*
X99751Y-16350D01*
X99866Y-16075D01*
X100077Y-15865D01*
X100231Y-15801D01*
X96269Y-15801D01*
X96425Y-15866D01*
X96635Y-16077D01*
X96749Y-16352D01*
X96749Y-16650D01*
X96634Y-16925D01*
X96423Y-17135D01*
X96350Y-17165D01*
X96350Y-18334D01*
X96425Y-18366D01*
X96635Y-18577D01*
X96749Y-18852D01*
X96749Y-19150D01*
X96634Y-19425D01*
X96423Y-19635D01*
X96148Y-19749D01*
X95850Y-19749D01*
X95575Y-19634D01*
X95365Y-19423D01*
X95251Y-19148D01*
X95251Y-18850D01*
X95366Y-18575D01*
X95577Y-18365D01*
X95650Y-18334D01*
X95650Y-17165D01*
X95575Y-17134D01*
X95365Y-16923D01*
X95251Y-16648D01*
X95251Y-16350D01*
X95366Y-16075D01*
X95577Y-15865D01*
X95731Y-15801D01*
X91869Y-15801D01*
X92025Y-15866D01*
X92235Y-16077D01*
X92349Y-16352D01*
X92349Y-16650D01*
X92234Y-16925D01*
X92023Y-17135D01*
X91950Y-17165D01*
X91950Y-18334D01*
X92025Y-18366D01*
X92235Y-18577D01*
X92349Y-18852D01*
X92349Y-19150D01*
X92234Y-19425D01*
X92023Y-19635D01*
X91748Y-19749D01*
X91450Y-19749D01*
X91175Y-19634D01*
X90965Y-19423D01*
X90851Y-19148D01*
X90851Y-18850D01*
X90966Y-18575D01*
X91177Y-18365D01*
X91250Y-18334D01*
X91250Y-17165D01*
X91175Y-17134D01*
X90965Y-16923D01*
X90851Y-16648D01*
X90851Y-16350D01*
X90966Y-16075D01*
X91177Y-15865D01*
X91331Y-15801D01*
X87269Y-15801D01*
X87425Y-15866D01*
X87635Y-16077D01*
X87749Y-16352D01*
X87749Y-16650D01*
X87634Y-16925D01*
X87423Y-17135D01*
X87350Y-17165D01*
X87350Y-18234D01*
X87425Y-18266D01*
X87635Y-18477D01*
X87749Y-18752D01*
X87749Y-19050D01*
X87634Y-19325D01*
X87423Y-19535D01*
X87148Y-19649D01*
X86850Y-19649D01*
X86575Y-19534D01*
X86365Y-19323D01*
X86251Y-19048D01*
X86251Y-18750D01*
X86366Y-18475D01*
X86577Y-18265D01*
X86650Y-18234D01*
X86650Y-17165D01*
X86575Y-17134D01*
X86365Y-16923D01*
X86251Y-16648D01*
X86251Y-16350D01*
X86366Y-16075D01*
X86577Y-15865D01*
X86731Y-15801D01*
X82769Y-15801D01*
X82925Y-15866D01*
X83135Y-16077D01*
X83249Y-16352D01*
X83249Y-16650D01*
X83134Y-16925D01*
X82923Y-17135D01*
X82850Y-17165D01*
X82850Y-18334D01*
X82925Y-18366D01*
X83135Y-18577D01*
X83249Y-18852D01*
X83249Y-19150D01*
X83134Y-19425D01*
X82923Y-19635D01*
X82648Y-19749D01*
X82350Y-19749D01*
X82075Y-19634D01*
X81865Y-19423D01*
X81751Y-19148D01*
X81751Y-18850D01*
X81866Y-18575D01*
X82077Y-18365D01*
X82150Y-18334D01*
X82150Y-17165D01*
X82075Y-17134D01*
X81865Y-16923D01*
X81751Y-16648D01*
X81751Y-16350D01*
X81866Y-16075D01*
X82077Y-15865D01*
X82231Y-15801D01*
X78269Y-15801D01*
X78425Y-15866D01*
X78635Y-16077D01*
X78749Y-16352D01*
X78749Y-16650D01*
X78634Y-16925D01*
X78423Y-17135D01*
X78350Y-17165D01*
X78350Y-18334D01*
X78425Y-18366D01*
X78635Y-18577D01*
X78749Y-18852D01*
X78749Y-19150D01*
X78634Y-19425D01*
X78423Y-19635D01*
X78148Y-19749D01*
X77850Y-19749D01*
X77575Y-19634D01*
X77365Y-19423D01*
X77251Y-19148D01*
X77251Y-18850D01*
X77366Y-18575D01*
X77577Y-18365D01*
X77650Y-18334D01*
X77650Y-17165D01*
X77575Y-17134D01*
X77365Y-16923D01*
X77251Y-16648D01*
X77251Y-16350D01*
X77366Y-16075D01*
X77577Y-15865D01*
X77731Y-15801D01*
X73769Y-15801D01*
X73925Y-15866D01*
X74135Y-16077D01*
X74249Y-16352D01*
X74249Y-16650D01*
X74134Y-16925D01*
X73923Y-17135D01*
X73850Y-17165D01*
X73850Y-18334D01*
X73925Y-18366D01*
X74135Y-18577D01*
X74249Y-18852D01*
X74249Y-19150D01*
X74134Y-19425D01*
X73923Y-19635D01*
X73766Y-19699D01*
X73772Y-19714D01*
X73772Y-19846D01*
X95196Y-19846D01*
X95330Y-19873D01*
X95443Y-19949D01*
X95776Y-20282D01*
X95852Y-20251D01*
X96150Y-20251D01*
X96425Y-20366D01*
X96635Y-20577D01*
X96749Y-20852D01*
X96749Y-21150D01*
X96634Y-21425D01*
X96423Y-21635D01*
X96148Y-21749D01*
X95850Y-21749D01*
X95575Y-21634D01*
X95365Y-21423D01*
X95251Y-21148D01*
X95251Y-20850D01*
X95281Y-20776D01*
X95051Y-20546D01*
X92204Y-20546D01*
X92235Y-20577D01*
X92349Y-20852D01*
X92349Y-21150D01*
X92234Y-21425D01*
X92100Y-21558D01*
X92100Y-22900D01*
X100000Y-22900D01*
X100000Y-22900D01*
G37*
G54D26*
X100000Y-22900D02*
X100000Y-21558D01*
X99865Y-21423D01*
X99751Y-21148D01*
X99751Y-20850D01*
X99866Y-20575D01*
X100077Y-20365D01*
X100352Y-20251D01*
X100455Y-20251D01*
X101020Y-19537D01*
X100923Y-19635D01*
X100648Y-19749D01*
X100350Y-19749D01*
X100075Y-19634D01*
X99865Y-19423D01*
X99751Y-19148D01*
X99751Y-18850D01*
X99866Y-18575D01*
X100077Y-18365D01*
X100150Y-18334D01*
X100150Y-17165D01*
X100075Y-17134D01*
X99865Y-16923D01*
X99751Y-16648D01*
X99751Y-16350D01*
X99866Y-16075D01*
X100077Y-15865D01*
X100231Y-15801D01*
X96269Y-15801D01*
X96425Y-15866D01*
X96635Y-16077D01*
X96749Y-16352D01*
X96749Y-16650D01*
X96634Y-16925D01*
X96423Y-17135D01*
X96350Y-17165D01*
X96350Y-18334D01*
X96425Y-18366D01*
X96635Y-18577D01*
X96749Y-18852D01*
X96749Y-19150D01*
X96634Y-19425D01*
X96423Y-19635D01*
X96148Y-19749D01*
X95850Y-19749D01*
X95575Y-19634D01*
X95365Y-19423D01*
X95251Y-19148D01*
X95251Y-18850D01*
X95366Y-18575D01*
X95577Y-18365D01*
X95650Y-18334D01*
X95650Y-17165D01*
X95575Y-17134D01*
X95365Y-16923D01*
X95251Y-16648D01*
X95251Y-16350D01*
X95366Y-16075D01*
X95577Y-15865D01*
X95731Y-15801D01*
X91869Y-15801D01*
X92025Y-15866D01*
X92235Y-16077D01*
X92349Y-16352D01*
X92349Y-16650D01*
X92234Y-16925D01*
X92023Y-17135D01*
X91950Y-17165D01*
X91950Y-18334D01*
X92025Y-18366D01*
X92235Y-18577D01*
X92349Y-18852D01*
X92349Y-19150D01*
X92234Y-19425D01*
X92023Y-19635D01*
X91748Y-19749D01*
X91450Y-19749D01*
X91175Y-19634D01*
X90965Y-19423D01*
X90851Y-19148D01*
X90851Y-18850D01*
X90966Y-18575D01*
X91177Y-18365D01*
X91250Y-18334D01*
X91250Y-17165D01*
X91175Y-17134D01*
X90965Y-16923D01*
X90851Y-16648D01*
X90851Y-16350D01*
X90966Y-16075D01*
X91177Y-15865D01*
X91331Y-15801D01*
X87269Y-15801D01*
X87425Y-15866D01*
X87635Y-16077D01*
X87749Y-16352D01*
X87749Y-16650D01*
X87634Y-16925D01*
X87423Y-17135D01*
X87350Y-17165D01*
X87350Y-18234D01*
X87425Y-18266D01*
X87635Y-18477D01*
X87749Y-18752D01*
X87749Y-19050D01*
X87634Y-19325D01*
X87423Y-19535D01*
X87148Y-19649D01*
X86850Y-19649D01*
X86575Y-19534D01*
X86365Y-19323D01*
X86251Y-19048D01*
X86251Y-18750D01*
X86366Y-18475D01*
X86577Y-18265D01*
X86650Y-18234D01*
X86650Y-17165D01*
X86575Y-17134D01*
X86365Y-16923D01*
X86251Y-16648D01*
X86251Y-16350D01*
X86366Y-16075D01*
X86577Y-15865D01*
X86731Y-15801D01*
X82769Y-15801D01*
X82925Y-15866D01*
X83135Y-16077D01*
X83249Y-16352D01*
X83249Y-16650D01*
X83134Y-16925D01*
X82923Y-17135D01*
X82850Y-17165D01*
X82850Y-18334D01*
X82925Y-18366D01*
X83135Y-18577D01*
X83249Y-18852D01*
X83249Y-19150D01*
X83134Y-19425D01*
X82923Y-19635D01*
X82648Y-19749D01*
X82350Y-19749D01*
X82075Y-19634D01*
X81865Y-19423D01*
X81751Y-19148D01*
X81751Y-18850D01*
X81866Y-18575D01*
X82077Y-18365D01*
X82150Y-18334D01*
X82150Y-17165D01*
X82075Y-17134D01*
X81865Y-16923D01*
X81751Y-16648D01*
X81751Y-16350D01*
X81866Y-16075D01*
X82077Y-15865D01*
X82231Y-15801D01*
X78269Y-15801D01*
X78425Y-15866D01*
X78635Y-16077D01*
X78749Y-16352D01*
X78749Y-16650D01*
X78634Y-16925D01*
X78423Y-17135D01*
X78350Y-17165D01*
X78350Y-18334D01*
X78425Y-18366D01*
X78635Y-18577D01*
X78749Y-18852D01*
X78749Y-19150D01*
X78634Y-19425D01*
X78423Y-19635D01*
X78148Y-19749D01*
X77850Y-19749D01*
X77575Y-19634D01*
X77365Y-19423D01*
X77251Y-19148D01*
X77251Y-18850D01*
X77366Y-18575D01*
X77577Y-18365D01*
X77650Y-18334D01*
X77650Y-17165D01*
X77575Y-17134D01*
X77365Y-16923D01*
X77251Y-16648D01*
X77251Y-16350D01*
X77366Y-16075D01*
X77577Y-15865D01*
X77731Y-15801D01*
X73769Y-15801D01*
X73925Y-15866D01*
X74135Y-16077D01*
X74249Y-16352D01*
X74249Y-16650D01*
X74134Y-16925D01*
X73923Y-17135D01*
X73850Y-17165D01*
X73850Y-18334D01*
X73925Y-18366D01*
X74135Y-18577D01*
X74249Y-18852D01*
X74249Y-19150D01*
X74134Y-19425D01*
X73923Y-19635D01*
X73766Y-19699D01*
X73772Y-19714D01*
X73772Y-19846D01*
X95196Y-19846D01*
X95330Y-19873D01*
X95443Y-19949D01*
X95776Y-20282D01*
X95852Y-20251D01*
X96150Y-20251D01*
X96425Y-20366D01*
X96635Y-20577D01*
X96749Y-20852D01*
X96749Y-21150D01*
X96634Y-21425D01*
X96423Y-21635D01*
X96148Y-21749D01*
X95850Y-21749D01*
X95575Y-21634D01*
X95365Y-21423D01*
X95251Y-21148D01*
X95251Y-20850D01*
X95281Y-20776D01*
X95051Y-20546D01*
X92204Y-20546D01*
X92235Y-20577D01*
X92349Y-20852D01*
X92349Y-21150D01*
X92234Y-21425D01*
X92100Y-21558D01*
X92100Y-22900D01*
X100000Y-22900D01*
G54D10*
G36*
X91100Y-22900D02*
X91100Y-21558D01*
X90965Y-21423D01*
X90851Y-21148D01*
X90851Y-20850D01*
X90966Y-20575D01*
X90995Y-20546D01*
X87663Y-20546D01*
X87749Y-20752D01*
X87749Y-21050D01*
X87634Y-21325D01*
X87423Y-21535D01*
X87148Y-21649D01*
X86850Y-21649D01*
X86575Y-21534D01*
X86365Y-21323D01*
X86251Y-21048D01*
X86251Y-20750D01*
X86336Y-20546D01*
X83104Y-20546D01*
X83135Y-20577D01*
X83249Y-20852D01*
X83249Y-21150D01*
X83134Y-21425D01*
X83000Y-21558D01*
X83000Y-22900D01*
X91100Y-22900D01*
X91100Y-22900D01*
G37*
G54D26*
X91100Y-22900D02*
X91100Y-21558D01*
X90965Y-21423D01*
X90851Y-21148D01*
X90851Y-20850D01*
X90966Y-20575D01*
X90995Y-20546D01*
X87663Y-20546D01*
X87749Y-20752D01*
X87749Y-21050D01*
X87634Y-21325D01*
X87423Y-21535D01*
X87148Y-21649D01*
X86850Y-21649D01*
X86575Y-21534D01*
X86365Y-21323D01*
X86251Y-21048D01*
X86251Y-20750D01*
X86336Y-20546D01*
X83104Y-20546D01*
X83135Y-20577D01*
X83249Y-20852D01*
X83249Y-21150D01*
X83134Y-21425D01*
X83000Y-21558D01*
X83000Y-22900D01*
X91100Y-22900D01*
G54D10*
G36*
X82000Y-22900D02*
X82000Y-21558D01*
X81865Y-21423D01*
X81751Y-21148D01*
X81751Y-20850D01*
X81866Y-20575D01*
X81895Y-20546D01*
X78604Y-20546D01*
X78635Y-20577D01*
X78749Y-20852D01*
X78749Y-21150D01*
X78634Y-21425D01*
X78423Y-21635D01*
X78148Y-21749D01*
X77850Y-21749D01*
X77575Y-21634D01*
X77365Y-21423D01*
X77251Y-21148D01*
X77251Y-20850D01*
X77366Y-20575D01*
X77395Y-20546D01*
X74104Y-20546D01*
X74135Y-20577D01*
X74249Y-20852D01*
X74249Y-21150D01*
X74134Y-21425D01*
X74000Y-21558D01*
X74000Y-22900D01*
X82000Y-22900D01*
X82000Y-22900D01*
G37*
G54D26*
X82000Y-22900D02*
X82000Y-21558D01*
X81865Y-21423D01*
X81751Y-21148D01*
X81751Y-20850D01*
X81866Y-20575D01*
X81895Y-20546D01*
X78604Y-20546D01*
X78635Y-20577D01*
X78749Y-20852D01*
X78749Y-21150D01*
X78634Y-21425D01*
X78423Y-21635D01*
X78148Y-21749D01*
X77850Y-21749D01*
X77575Y-21634D01*
X77365Y-21423D01*
X77251Y-21148D01*
X77251Y-20850D01*
X77366Y-20575D01*
X77395Y-20546D01*
X74104Y-20546D01*
X74135Y-20577D01*
X74249Y-20852D01*
X74249Y-21150D01*
X74134Y-21425D01*
X74000Y-21558D01*
X74000Y-22900D01*
X82000Y-22900D01*
G54D10*
G36*
X68732Y-22900D02*
X70184Y-20723D01*
X70216Y-20690D01*
X70246Y-20646D01*
X70290Y-20616D01*
X70322Y-20585D01*
X70365Y-20566D01*
X70396Y-20546D01*
X69604Y-20546D01*
X69635Y-20577D01*
X69749Y-20852D01*
X69749Y-21150D01*
X69634Y-21425D01*
X69423Y-21635D01*
X69148Y-21749D01*
X68850Y-21749D01*
X68575Y-21634D01*
X68365Y-21423D01*
X68251Y-21148D01*
X68251Y-20850D01*
X68366Y-20575D01*
X68395Y-20546D01*
X65697Y-20546D01*
X65749Y-20671D01*
X65749Y-20929D01*
X65650Y-21168D01*
X65468Y-21350D01*
X65229Y-21449D01*
X64971Y-21449D01*
X64732Y-21350D01*
X64550Y-21168D01*
X64451Y-20929D01*
X64451Y-20671D01*
X64502Y-20546D01*
X61725Y-20546D01*
X61120Y-21151D01*
X61229Y-21151D01*
X61468Y-21250D01*
X61650Y-21432D01*
X61749Y-21671D01*
X61749Y-21805D01*
X61981Y-21614D01*
X62053Y-21574D01*
X62109Y-21538D01*
X62128Y-21534D01*
X62153Y-21521D01*
X62239Y-21512D01*
X62300Y-21500D01*
X66400Y-21500D01*
X66472Y-21514D01*
X66558Y-21525D01*
X66575Y-21534D01*
X66591Y-21538D01*
X66654Y-21579D01*
X66728Y-21622D01*
X66738Y-21635D01*
X66754Y-21646D01*
X66798Y-21713D01*
X66847Y-21776D01*
X67410Y-22900D01*
X68732Y-22900D01*
X68732Y-22900D01*
G37*
G54D26*
X68732Y-22900D02*
X70184Y-20723D01*
X70216Y-20690D01*
X70246Y-20646D01*
X70290Y-20616D01*
X70322Y-20585D01*
X70365Y-20566D01*
X70396Y-20546D01*
X69604Y-20546D01*
X69635Y-20577D01*
X69749Y-20852D01*
X69749Y-21150D01*
X69634Y-21425D01*
X69423Y-21635D01*
X69148Y-21749D01*
X68850Y-21749D01*
X68575Y-21634D01*
X68365Y-21423D01*
X68251Y-21148D01*
X68251Y-20850D01*
X68366Y-20575D01*
X68395Y-20546D01*
X65697Y-20546D01*
X65749Y-20671D01*
X65749Y-20929D01*
X65650Y-21168D01*
X65468Y-21350D01*
X65229Y-21449D01*
X64971Y-21449D01*
X64732Y-21350D01*
X64550Y-21168D01*
X64451Y-20929D01*
X64451Y-20671D01*
X64502Y-20546D01*
X61725Y-20546D01*
X61120Y-21151D01*
X61229Y-21151D01*
X61468Y-21250D01*
X61650Y-21432D01*
X61749Y-21671D01*
X61749Y-21805D01*
X61981Y-21614D01*
X62053Y-21574D01*
X62109Y-21538D01*
X62128Y-21534D01*
X62153Y-21521D01*
X62239Y-21512D01*
X62300Y-21500D01*
X66400Y-21500D01*
X66472Y-21514D01*
X66558Y-21525D01*
X66575Y-21534D01*
X66591Y-21538D01*
X66654Y-21579D01*
X66728Y-21622D01*
X66738Y-21635D01*
X66754Y-21646D01*
X66798Y-21713D01*
X66847Y-21776D01*
X67410Y-22900D01*
X68732Y-22900D01*
G54D10*
G36*
X60420Y-22900D02*
X60968Y-22448D01*
X60732Y-22350D01*
X60550Y-22168D01*
X60451Y-21929D01*
X60451Y-21671D01*
X60461Y-21644D01*
X60313Y-21583D01*
X60214Y-21484D01*
X60214Y-21489D01*
X60225Y-21500D01*
X60289Y-21656D01*
X60289Y-21825D01*
X60224Y-21981D01*
X60104Y-22101D01*
X59948Y-22165D01*
X59779Y-22165D01*
X59623Y-22100D01*
X59503Y-21980D01*
X59439Y-21824D01*
X59439Y-21655D01*
X59504Y-21499D01*
X59514Y-21489D01*
X59514Y-20815D01*
X59528Y-20743D01*
X58792Y-21480D01*
X58692Y-21547D01*
X58573Y-21571D01*
X56291Y-21571D01*
X56203Y-21553D01*
X56084Y-21673D01*
X55928Y-21737D01*
X55759Y-21737D01*
X55603Y-21672D01*
X55483Y-21552D01*
X55428Y-21419D01*
X54834Y-21419D01*
X55180Y-21765D01*
X55914Y-21765D01*
X55925Y-21754D01*
X56081Y-21690D01*
X56250Y-21690D01*
X56406Y-21755D01*
X56526Y-21875D01*
X56590Y-22031D01*
X56590Y-22143D01*
X57746Y-22143D01*
X57870Y-22019D01*
X57870Y-22004D01*
X57935Y-21848D01*
X58055Y-21728D01*
X58211Y-21664D01*
X58380Y-21664D01*
X58536Y-21729D01*
X58656Y-21849D01*
X58720Y-22005D01*
X58720Y-22174D01*
X58655Y-22330D01*
X58535Y-22450D01*
X58379Y-22514D01*
X58364Y-22514D01*
X58138Y-22740D01*
X58025Y-22816D01*
X57891Y-22843D01*
X56175Y-22843D01*
X56175Y-22900D01*
X60420Y-22900D01*
X60420Y-22900D01*
G37*
G54D26*
X60420Y-22900D02*
X60968Y-22448D01*
X60732Y-22350D01*
X60550Y-22168D01*
X60451Y-21929D01*
X60451Y-21671D01*
X60461Y-21644D01*
X60313Y-21583D01*
X60214Y-21484D01*
X60214Y-21489D01*
X60225Y-21500D01*
X60289Y-21656D01*
X60289Y-21825D01*
X60224Y-21981D01*
X60104Y-22101D01*
X59948Y-22165D01*
X59779Y-22165D01*
X59623Y-22100D01*
X59503Y-21980D01*
X59439Y-21824D01*
X59439Y-21655D01*
X59504Y-21499D01*
X59514Y-21489D01*
X59514Y-20815D01*
X59528Y-20743D01*
X58792Y-21480D01*
X58692Y-21547D01*
X58573Y-21571D01*
X56291Y-21571D01*
X56203Y-21553D01*
X56084Y-21673D01*
X55928Y-21737D01*
X55759Y-21737D01*
X55603Y-21672D01*
X55483Y-21552D01*
X55428Y-21419D01*
X54834Y-21419D01*
X55180Y-21765D01*
X55914Y-21765D01*
X55925Y-21754D01*
X56081Y-21690D01*
X56250Y-21690D01*
X56406Y-21755D01*
X56526Y-21875D01*
X56590Y-22031D01*
X56590Y-22143D01*
X57746Y-22143D01*
X57870Y-22019D01*
X57870Y-22004D01*
X57935Y-21848D01*
X58055Y-21728D01*
X58211Y-21664D01*
X58380Y-21664D01*
X58536Y-21729D01*
X58656Y-21849D01*
X58720Y-22005D01*
X58720Y-22174D01*
X58655Y-22330D01*
X58535Y-22450D01*
X58379Y-22514D01*
X58364Y-22514D01*
X58138Y-22740D01*
X58025Y-22816D01*
X57891Y-22843D01*
X56175Y-22843D01*
X56175Y-22900D01*
X60420Y-22900D01*
G54D10*
G36*
X53590Y-22900D02*
X53590Y-21686D01*
X53153Y-22123D01*
X53053Y-22190D01*
X52934Y-22214D01*
X51802Y-22214D01*
X51683Y-22190D01*
X51583Y-22123D01*
X51091Y-21631D01*
X51049Y-21649D01*
X50350Y-21649D01*
X50328Y-21639D01*
X50352Y-21698D01*
X50352Y-21867D01*
X50287Y-22023D01*
X50167Y-22143D01*
X50011Y-22207D01*
X49842Y-22207D01*
X49686Y-22142D01*
X49566Y-22022D01*
X49502Y-21866D01*
X49502Y-21851D01*
X47989Y-20339D01*
X47360Y-20339D01*
X47425Y-20366D01*
X47635Y-20577D01*
X47749Y-20852D01*
X47749Y-21150D01*
X47634Y-21425D01*
X47423Y-21635D01*
X47148Y-21749D01*
X46850Y-21749D01*
X46575Y-21634D01*
X46365Y-21423D01*
X46251Y-21148D01*
X46251Y-20850D01*
X46366Y-20575D01*
X46577Y-20365D01*
X46639Y-20339D01*
X46170Y-20339D01*
X46175Y-20350D01*
X46175Y-20519D01*
X46110Y-20675D01*
X46027Y-20757D01*
X46062Y-20809D01*
X46065Y-20827D01*
X46074Y-20842D01*
X46759Y-22900D01*
X53590Y-22900D01*
X53590Y-22900D01*
G37*
G54D26*
X53590Y-22900D02*
X53590Y-21686D01*
X53153Y-22123D01*
X53053Y-22190D01*
X52934Y-22214D01*
X51802Y-22214D01*
X51683Y-22190D01*
X51583Y-22123D01*
X51091Y-21631D01*
X51049Y-21649D01*
X50350Y-21649D01*
X50328Y-21639D01*
X50352Y-21698D01*
X50352Y-21867D01*
X50287Y-22023D01*
X50167Y-22143D01*
X50011Y-22207D01*
X49842Y-22207D01*
X49686Y-22142D01*
X49566Y-22022D01*
X49502Y-21866D01*
X49502Y-21851D01*
X47989Y-20339D01*
X47360Y-20339D01*
X47425Y-20366D01*
X47635Y-20577D01*
X47749Y-20852D01*
X47749Y-21150D01*
X47634Y-21425D01*
X47423Y-21635D01*
X47148Y-21749D01*
X46850Y-21749D01*
X46575Y-21634D01*
X46365Y-21423D01*
X46251Y-21148D01*
X46251Y-20850D01*
X46366Y-20575D01*
X46577Y-20365D01*
X46639Y-20339D01*
X46170Y-20339D01*
X46175Y-20350D01*
X46175Y-20519D01*
X46110Y-20675D01*
X46027Y-20757D01*
X46062Y-20809D01*
X46065Y-20827D01*
X46074Y-20842D01*
X46759Y-22900D01*
X53590Y-22900D01*
G54D10*
G36*
X42000Y-22900D02*
X42000Y-21558D01*
X41865Y-21423D01*
X41751Y-21148D01*
X41751Y-20850D01*
X41835Y-20647D01*
X39842Y-20647D01*
X38458Y-22031D01*
X38345Y-22107D01*
X38211Y-22134D01*
X35646Y-22134D01*
X35512Y-22107D01*
X35398Y-22031D01*
X34249Y-20881D01*
X34249Y-21150D01*
X34134Y-21425D01*
X34000Y-21558D01*
X34000Y-22900D01*
X42000Y-22900D01*
X42000Y-22900D01*
G37*
G54D26*
X42000Y-22900D02*
X42000Y-21558D01*
X41865Y-21423D01*
X41751Y-21148D01*
X41751Y-20850D01*
X41835Y-20647D01*
X39842Y-20647D01*
X38458Y-22031D01*
X38345Y-22107D01*
X38211Y-22134D01*
X35646Y-22134D01*
X35512Y-22107D01*
X35398Y-22031D01*
X34249Y-20881D01*
X34249Y-21150D01*
X34134Y-21425D01*
X34000Y-21558D01*
X34000Y-22900D01*
X42000Y-22900D01*
G54D10*
G36*
X33000Y-22900D02*
X33000Y-21558D01*
X32865Y-21423D01*
X32751Y-21148D01*
X32751Y-20850D01*
X32866Y-20575D01*
X33077Y-20365D01*
X33108Y-20352D01*
X30142Y-20352D01*
X29717Y-20776D01*
X29749Y-20852D01*
X29749Y-21150D01*
X29634Y-21425D01*
X29423Y-21635D01*
X29148Y-21749D01*
X28850Y-21749D01*
X28575Y-21634D01*
X28365Y-21423D01*
X28251Y-21148D01*
X28251Y-20850D01*
X28366Y-20575D01*
X28577Y-20365D01*
X28850Y-20251D01*
X28850Y-19749D01*
X28575Y-19634D01*
X28365Y-19423D01*
X28251Y-19148D01*
X28251Y-18850D01*
X28366Y-18575D01*
X28577Y-18365D01*
X28650Y-18334D01*
X28650Y-17165D01*
X28575Y-17134D01*
X28365Y-16923D01*
X28251Y-16648D01*
X28251Y-16350D01*
X28366Y-16075D01*
X28577Y-15865D01*
X28852Y-15751D01*
X29150Y-15751D01*
X29425Y-15866D01*
X29635Y-16077D01*
X29749Y-16352D01*
X29749Y-16650D01*
X29634Y-16925D01*
X29423Y-17135D01*
X29350Y-17165D01*
X29350Y-18334D01*
X29425Y-18366D01*
X29635Y-18577D01*
X29749Y-18852D01*
X29749Y-19150D01*
X29634Y-19425D01*
X29423Y-19635D01*
X29148Y-19749D01*
X28850Y-19749D01*
X28850Y-20251D01*
X29150Y-20251D01*
X29223Y-20281D01*
X29750Y-19755D01*
X29864Y-19679D01*
X29998Y-19652D01*
X33118Y-19652D01*
X33075Y-19634D01*
X32865Y-19423D01*
X32751Y-19148D01*
X32751Y-18850D01*
X32866Y-18575D01*
X33077Y-18365D01*
X33150Y-18334D01*
X33150Y-17165D01*
X33075Y-17134D01*
X32865Y-16923D01*
X32751Y-16648D01*
X32751Y-16350D01*
X32866Y-16075D01*
X33077Y-15865D01*
X33352Y-15751D01*
X33650Y-15751D01*
X33925Y-15866D01*
X34135Y-16077D01*
X34249Y-16352D01*
X34249Y-16650D01*
X34134Y-16925D01*
X33923Y-17135D01*
X33850Y-17165D01*
X33850Y-18334D01*
X33925Y-18366D01*
X34135Y-18577D01*
X34249Y-18852D01*
X34249Y-19150D01*
X34134Y-19425D01*
X33923Y-19635D01*
X33876Y-19654D01*
X33998Y-19679D01*
X34111Y-19755D01*
X35790Y-21434D01*
X37375Y-21434D01*
X37365Y-21423D01*
X37251Y-21148D01*
X37251Y-20850D01*
X37366Y-20575D01*
X37577Y-20365D01*
X37850Y-20251D01*
X37850Y-19749D01*
X37575Y-19634D01*
X37365Y-19423D01*
X37251Y-19148D01*
X37251Y-18850D01*
X37366Y-18575D01*
X37577Y-18365D01*
X37650Y-18334D01*
X37650Y-17165D01*
X37575Y-17134D01*
X37365Y-16923D01*
X37251Y-16648D01*
X37251Y-16350D01*
X37366Y-16075D01*
X37577Y-15865D01*
X37852Y-15751D01*
X38150Y-15751D01*
X38425Y-15866D01*
X38635Y-16077D01*
X38749Y-16352D01*
X38749Y-16650D01*
X38634Y-16925D01*
X38423Y-17135D01*
X38350Y-17165D01*
X38350Y-18334D01*
X38425Y-18366D01*
X38635Y-18577D01*
X38749Y-18852D01*
X38749Y-19150D01*
X38634Y-19425D01*
X38423Y-19635D01*
X38148Y-19749D01*
X37850Y-19749D01*
X37850Y-20251D01*
X38150Y-20251D01*
X38223Y-20281D01*
X38763Y-19742D01*
X38877Y-19666D01*
X39011Y-19639D01*
X42086Y-19639D01*
X42075Y-19634D01*
X41865Y-19423D01*
X41751Y-19148D01*
X41751Y-18850D01*
X41866Y-18575D01*
X42077Y-18365D01*
X42150Y-18334D01*
X42150Y-17165D01*
X42075Y-17134D01*
X41865Y-16923D01*
X41751Y-16648D01*
X41751Y-16350D01*
X41866Y-16075D01*
X42077Y-15865D01*
X42352Y-15751D01*
X42650Y-15751D01*
X42925Y-15866D01*
X43135Y-16077D01*
X43249Y-16352D01*
X43249Y-16650D01*
X43134Y-16925D01*
X42923Y-17135D01*
X42850Y-17165D01*
X42850Y-18334D01*
X42925Y-18366D01*
X43135Y-18577D01*
X43249Y-18852D01*
X43249Y-19150D01*
X43134Y-19425D01*
X42923Y-19635D01*
X42913Y-19639D01*
X46586Y-19639D01*
X46575Y-19634D01*
X46365Y-19423D01*
X46251Y-19148D01*
X46251Y-18850D01*
X46366Y-18575D01*
X46577Y-18365D01*
X46650Y-18334D01*
X46650Y-17165D01*
X46575Y-17134D01*
X46365Y-16923D01*
X46251Y-16648D01*
X46251Y-16350D01*
X46366Y-16075D01*
X46577Y-15865D01*
X46852Y-15751D01*
X47150Y-15751D01*
X47425Y-15866D01*
X47635Y-16077D01*
X47749Y-16352D01*
X47749Y-16650D01*
X47634Y-16925D01*
X47423Y-17135D01*
X47350Y-17165D01*
X47350Y-18334D01*
X47425Y-18366D01*
X47635Y-18577D01*
X47749Y-18852D01*
X47749Y-19150D01*
X47634Y-19425D01*
X47423Y-19635D01*
X47413Y-19639D01*
X48134Y-19639D01*
X48268Y-19666D01*
X48381Y-19742D01*
X49996Y-21357D01*
X50012Y-21357D01*
X50151Y-21414D01*
X50151Y-20825D01*
X49227Y-19901D01*
X49160Y-19801D01*
X49136Y-19682D01*
X49136Y-17123D01*
X49085Y-17072D01*
X49021Y-16916D01*
X49021Y-16747D01*
X49086Y-16591D01*
X49206Y-16471D01*
X49362Y-16407D01*
X49531Y-16407D01*
X49623Y-16445D01*
X49623Y-14660D01*
X49647Y-14541D01*
X49714Y-14441D01*
X49939Y-14215D01*
X49894Y-14170D01*
X49856Y-14078D01*
X49856Y-13469D01*
X49884Y-13399D01*
X49856Y-13330D01*
X49856Y-12748D01*
X46878Y-12748D01*
X45476Y-14150D01*
X46334Y-14150D01*
X46366Y-14075D01*
X46577Y-13865D01*
X46852Y-13751D01*
X47150Y-13751D01*
X47425Y-13866D01*
X47635Y-14077D01*
X47749Y-14352D01*
X47749Y-14650D01*
X47634Y-14925D01*
X47423Y-15135D01*
X47148Y-15249D01*
X46850Y-15249D01*
X46575Y-15134D01*
X46365Y-14923D01*
X46334Y-14850D01*
X43165Y-14850D01*
X43134Y-14925D01*
X42923Y-15135D01*
X42648Y-15249D01*
X42350Y-15249D01*
X42075Y-15134D01*
X41865Y-14923D01*
X41751Y-14648D01*
X41751Y-14350D01*
X41836Y-14146D01*
X38663Y-14146D01*
X38749Y-14352D01*
X38749Y-14650D01*
X38634Y-14925D01*
X38423Y-15135D01*
X38148Y-15249D01*
X37850Y-15249D01*
X37575Y-15134D01*
X37365Y-14923D01*
X37251Y-14648D01*
X37251Y-14350D01*
X37336Y-14146D01*
X34163Y-14146D01*
X34249Y-14352D01*
X34249Y-14650D01*
X34134Y-14925D01*
X33923Y-15135D01*
X33648Y-15249D01*
X33350Y-15249D01*
X33075Y-15134D01*
X32865Y-14923D01*
X32751Y-14648D01*
X32751Y-14350D01*
X32836Y-14146D01*
X29663Y-14146D01*
X29749Y-14352D01*
X29749Y-14650D01*
X29634Y-14925D01*
X29423Y-15135D01*
X29148Y-15249D01*
X28850Y-15249D01*
X28575Y-15134D01*
X28365Y-14923D01*
X28251Y-14648D01*
X28251Y-14350D01*
X28336Y-14146D01*
X25163Y-14146D01*
X25249Y-14352D01*
X25249Y-14650D01*
X25134Y-14925D01*
X24923Y-15135D01*
X24648Y-15249D01*
X24350Y-15249D01*
X24075Y-15134D01*
X23865Y-14923D01*
X23751Y-14648D01*
X23751Y-14350D01*
X23836Y-14146D01*
X20663Y-14146D01*
X20749Y-14352D01*
X20749Y-14650D01*
X20634Y-14925D01*
X20423Y-15135D01*
X20148Y-15249D01*
X19850Y-15249D01*
X19575Y-15134D01*
X19365Y-14923D01*
X19251Y-14648D01*
X19251Y-14350D01*
X19336Y-14146D01*
X17234Y-14146D01*
X15629Y-15751D01*
X15649Y-15751D01*
X15924Y-15866D01*
X16134Y-16077D01*
X16248Y-16352D01*
X16248Y-16650D01*
X16133Y-16925D01*
X15922Y-17135D01*
X15850Y-17164D01*
X15850Y-18334D01*
X15925Y-18366D01*
X16135Y-18577D01*
X16249Y-18852D01*
X16249Y-19150D01*
X16134Y-19425D01*
X15923Y-19635D01*
X15648Y-19749D01*
X15350Y-19749D01*
X15075Y-19634D01*
X14865Y-19423D01*
X14751Y-19148D01*
X14751Y-18850D01*
X14866Y-18575D01*
X15077Y-18365D01*
X15150Y-18334D01*
X15150Y-17165D01*
X15074Y-17134D01*
X14864Y-16923D01*
X14750Y-16648D01*
X14750Y-16631D01*
X14028Y-17353D01*
X13928Y-17420D01*
X13809Y-17444D01*
X13471Y-17444D01*
X13420Y-17495D01*
X13264Y-17559D01*
X13095Y-17559D01*
X12939Y-17494D01*
X12819Y-17374D01*
X12755Y-17218D01*
X12755Y-17049D01*
X12820Y-16893D01*
X12940Y-16773D01*
X13096Y-16709D01*
X13265Y-16709D01*
X13421Y-16774D01*
X13471Y-16824D01*
X13681Y-16824D01*
X15283Y-15221D01*
X15074Y-15134D01*
X14864Y-14923D01*
X14779Y-14719D01*
X12645Y-16853D01*
X12545Y-16920D01*
X12521Y-16924D01*
X12549Y-16991D01*
X12549Y-17209D01*
X12500Y-17326D01*
X12500Y-17600D01*
X13000Y-17600D01*
X13017Y-17603D01*
X13037Y-17601D01*
X13113Y-17622D01*
X13191Y-17638D01*
X13207Y-17649D01*
X13225Y-17654D01*
X13281Y-17698D01*
X13354Y-17746D01*
X13365Y-17763D01*
X13378Y-17773D01*
X15517Y-20251D01*
X15650Y-20251D01*
X15925Y-20366D01*
X16135Y-20577D01*
X16249Y-20852D01*
X16249Y-21150D01*
X16134Y-21425D01*
X16000Y-21558D01*
X16000Y-22900D01*
X19850Y-22900D01*
X19850Y-21749D01*
X19575Y-21634D01*
X19365Y-21423D01*
X19251Y-21148D01*
X19251Y-20850D01*
X19366Y-20575D01*
X19577Y-20365D01*
X19850Y-20251D01*
X19850Y-19749D01*
X19575Y-19634D01*
X19365Y-19423D01*
X19251Y-19148D01*
X19251Y-18850D01*
X19366Y-18575D01*
X19577Y-18365D01*
X19650Y-18334D01*
X19650Y-17165D01*
X19575Y-17134D01*
X19365Y-16923D01*
X19251Y-16648D01*
X19251Y-16350D01*
X19366Y-16075D01*
X19577Y-15865D01*
X19852Y-15751D01*
X20150Y-15751D01*
X20425Y-15866D01*
X20635Y-16077D01*
X20749Y-16352D01*
X20749Y-16650D01*
X20634Y-16925D01*
X20423Y-17135D01*
X20350Y-17165D01*
X20350Y-18334D01*
X20425Y-18366D01*
X20635Y-18577D01*
X20749Y-18852D01*
X20749Y-19150D01*
X20634Y-19425D01*
X20423Y-19635D01*
X20148Y-19749D01*
X19850Y-19749D01*
X19850Y-20251D01*
X20150Y-20251D01*
X20425Y-20366D01*
X20635Y-20577D01*
X20749Y-20852D01*
X20749Y-21150D01*
X20634Y-21425D01*
X20423Y-21635D01*
X20148Y-21749D01*
X19850Y-21749D01*
X19850Y-22900D01*
X24000Y-22900D01*
X24000Y-21558D01*
X23865Y-21423D01*
X23751Y-21148D01*
X23751Y-20850D01*
X23866Y-20575D01*
X24077Y-20365D01*
X24350Y-20251D01*
X24350Y-19749D01*
X24075Y-19634D01*
X23865Y-19423D01*
X23751Y-19148D01*
X23751Y-18850D01*
X23866Y-18575D01*
X24077Y-18365D01*
X24150Y-18334D01*
X24150Y-17165D01*
X24075Y-17134D01*
X23865Y-16923D01*
X23751Y-16648D01*
X23751Y-16350D01*
X23866Y-16075D01*
X24077Y-15865D01*
X24352Y-15751D01*
X24650Y-15751D01*
X24925Y-15866D01*
X25135Y-16077D01*
X25249Y-16352D01*
X25249Y-16650D01*
X25134Y-16925D01*
X24923Y-17135D01*
X24850Y-17165D01*
X24850Y-18334D01*
X24925Y-18366D01*
X25135Y-18577D01*
X25249Y-18852D01*
X25249Y-19150D01*
X25134Y-19425D01*
X24923Y-19635D01*
X24648Y-19749D01*
X24350Y-19749D01*
X24350Y-20251D01*
X24650Y-20251D01*
X24925Y-20366D01*
X25135Y-20577D01*
X25249Y-20852D01*
X25249Y-21150D01*
X25134Y-21425D01*
X25000Y-21558D01*
X25000Y-22900D01*
X33000Y-22900D01*
X33000Y-22900D01*
G37*
G54D26*
X33000Y-22900D02*
X33000Y-21558D01*
X32865Y-21423D01*
X32751Y-21148D01*
X32751Y-20850D01*
X32866Y-20575D01*
X33077Y-20365D01*
X33108Y-20352D01*
X30142Y-20352D01*
X29717Y-20776D01*
X29749Y-20852D01*
X29749Y-21150D01*
X29634Y-21425D01*
X29423Y-21635D01*
X29148Y-21749D01*
X28850Y-21749D01*
X28575Y-21634D01*
X28365Y-21423D01*
X28251Y-21148D01*
X28251Y-20850D01*
X28366Y-20575D01*
X28577Y-20365D01*
X28850Y-20251D01*
X28850Y-19749D01*
X28575Y-19634D01*
X28365Y-19423D01*
X28251Y-19148D01*
X28251Y-18850D01*
X28366Y-18575D01*
X28577Y-18365D01*
X28650Y-18334D01*
X28650Y-17165D01*
X28575Y-17134D01*
X28365Y-16923D01*
X28251Y-16648D01*
X28251Y-16350D01*
X28366Y-16075D01*
X28577Y-15865D01*
X28852Y-15751D01*
X29150Y-15751D01*
X29425Y-15866D01*
X29635Y-16077D01*
X29749Y-16352D01*
X29749Y-16650D01*
X29634Y-16925D01*
X29423Y-17135D01*
X29350Y-17165D01*
X29350Y-18334D01*
X29425Y-18366D01*
X29635Y-18577D01*
X29749Y-18852D01*
X29749Y-19150D01*
X29634Y-19425D01*
X29423Y-19635D01*
X29148Y-19749D01*
X28850Y-19749D01*
X28850Y-20251D01*
X29150Y-20251D01*
X29223Y-20281D01*
X29750Y-19755D01*
X29864Y-19679D01*
X29998Y-19652D01*
X33118Y-19652D01*
X33075Y-19634D01*
X32865Y-19423D01*
X32751Y-19148D01*
X32751Y-18850D01*
X32866Y-18575D01*
X33077Y-18365D01*
X33150Y-18334D01*
X33150Y-17165D01*
X33075Y-17134D01*
X32865Y-16923D01*
X32751Y-16648D01*
X32751Y-16350D01*
X32866Y-16075D01*
X33077Y-15865D01*
X33352Y-15751D01*
X33650Y-15751D01*
X33925Y-15866D01*
X34135Y-16077D01*
X34249Y-16352D01*
X34249Y-16650D01*
X34134Y-16925D01*
X33923Y-17135D01*
X33850Y-17165D01*
X33850Y-18334D01*
X33925Y-18366D01*
X34135Y-18577D01*
X34249Y-18852D01*
X34249Y-19150D01*
X34134Y-19425D01*
X33923Y-19635D01*
X33876Y-19654D01*
X33998Y-19679D01*
X34111Y-19755D01*
X35790Y-21434D01*
X37375Y-21434D01*
X37365Y-21423D01*
X37251Y-21148D01*
X37251Y-20850D01*
X37366Y-20575D01*
X37577Y-20365D01*
X37850Y-20251D01*
X37850Y-19749D01*
X37575Y-19634D01*
X37365Y-19423D01*
X37251Y-19148D01*
X37251Y-18850D01*
X37366Y-18575D01*
X37577Y-18365D01*
X37650Y-18334D01*
X37650Y-17165D01*
X37575Y-17134D01*
X37365Y-16923D01*
X37251Y-16648D01*
X37251Y-16350D01*
X37366Y-16075D01*
X37577Y-15865D01*
X37852Y-15751D01*
X38150Y-15751D01*
X38425Y-15866D01*
X38635Y-16077D01*
X38749Y-16352D01*
X38749Y-16650D01*
X38634Y-16925D01*
X38423Y-17135D01*
X38350Y-17165D01*
X38350Y-18334D01*
X38425Y-18366D01*
X38635Y-18577D01*
X38749Y-18852D01*
X38749Y-19150D01*
X38634Y-19425D01*
X38423Y-19635D01*
X38148Y-19749D01*
X37850Y-19749D01*
X37850Y-20251D01*
X38150Y-20251D01*
X38223Y-20281D01*
X38763Y-19742D01*
X38877Y-19666D01*
X39011Y-19639D01*
X42086Y-19639D01*
X42075Y-19634D01*
X41865Y-19423D01*
X41751Y-19148D01*
X41751Y-18850D01*
X41866Y-18575D01*
X42077Y-18365D01*
X42150Y-18334D01*
X42150Y-17165D01*
X42075Y-17134D01*
X41865Y-16923D01*
X41751Y-16648D01*
X41751Y-16350D01*
X41866Y-16075D01*
X42077Y-15865D01*
X42352Y-15751D01*
X42650Y-15751D01*
X42925Y-15866D01*
X43135Y-16077D01*
X43249Y-16352D01*
X43249Y-16650D01*
X43134Y-16925D01*
X42923Y-17135D01*
X42850Y-17165D01*
X42850Y-18334D01*
X42925Y-18366D01*
X43135Y-18577D01*
X43249Y-18852D01*
X43249Y-19150D01*
X43134Y-19425D01*
X42923Y-19635D01*
X42913Y-19639D01*
X46586Y-19639D01*
X46575Y-19634D01*
X46365Y-19423D01*
X46251Y-19148D01*
X46251Y-18850D01*
X46366Y-18575D01*
X46577Y-18365D01*
X46650Y-18334D01*
X46650Y-17165D01*
X46575Y-17134D01*
X46365Y-16923D01*
X46251Y-16648D01*
X46251Y-16350D01*
X46366Y-16075D01*
X46577Y-15865D01*
X46852Y-15751D01*
X47150Y-15751D01*
X47425Y-15866D01*
X47635Y-16077D01*
X47749Y-16352D01*
X47749Y-16650D01*
X47634Y-16925D01*
X47423Y-17135D01*
X47350Y-17165D01*
X47350Y-18334D01*
X47425Y-18366D01*
X47635Y-18577D01*
X47749Y-18852D01*
X47749Y-19150D01*
X47634Y-19425D01*
X47423Y-19635D01*
X47413Y-19639D01*
X48134Y-19639D01*
X48268Y-19666D01*
X48381Y-19742D01*
X49996Y-21357D01*
X50012Y-21357D01*
X50151Y-21414D01*
X50151Y-20825D01*
X49227Y-19901D01*
X49160Y-19801D01*
X49136Y-19682D01*
X49136Y-17123D01*
X49085Y-17072D01*
X49021Y-16916D01*
X49021Y-16747D01*
X49086Y-16591D01*
X49206Y-16471D01*
X49362Y-16407D01*
X49531Y-16407D01*
X49623Y-16445D01*
X49623Y-14660D01*
X49647Y-14541D01*
X49714Y-14441D01*
X49939Y-14215D01*
X49894Y-14170D01*
X49856Y-14078D01*
X49856Y-13469D01*
X49884Y-13399D01*
X49856Y-13330D01*
X49856Y-12748D01*
X46878Y-12748D01*
X45476Y-14150D01*
X46334Y-14150D01*
X46366Y-14075D01*
X46577Y-13865D01*
X46852Y-13751D01*
X47150Y-13751D01*
X47425Y-13866D01*
X47635Y-14077D01*
X47749Y-14352D01*
X47749Y-14650D01*
X47634Y-14925D01*
X47423Y-15135D01*
X47148Y-15249D01*
X46850Y-15249D01*
X46575Y-15134D01*
X46365Y-14923D01*
X46334Y-14850D01*
X43165Y-14850D01*
X43134Y-14925D01*
X42923Y-15135D01*
X42648Y-15249D01*
X42350Y-15249D01*
X42075Y-15134D01*
X41865Y-14923D01*
X41751Y-14648D01*
X41751Y-14350D01*
X41836Y-14146D01*
X38663Y-14146D01*
X38749Y-14352D01*
X38749Y-14650D01*
X38634Y-14925D01*
X38423Y-15135D01*
X38148Y-15249D01*
X37850Y-15249D01*
X37575Y-15134D01*
X37365Y-14923D01*
X37251Y-14648D01*
X37251Y-14350D01*
X37336Y-14146D01*
X34163Y-14146D01*
X34249Y-14352D01*
X34249Y-14650D01*
X34134Y-14925D01*
X33923Y-15135D01*
X33648Y-15249D01*
X33350Y-15249D01*
X33075Y-15134D01*
X32865Y-14923D01*
X32751Y-14648D01*
X32751Y-14350D01*
X32836Y-14146D01*
X29663Y-14146D01*
X29749Y-14352D01*
X29749Y-14650D01*
X29634Y-14925D01*
X29423Y-15135D01*
X29148Y-15249D01*
X28850Y-15249D01*
X28575Y-15134D01*
X28365Y-14923D01*
X28251Y-14648D01*
X28251Y-14350D01*
X28336Y-14146D01*
X25163Y-14146D01*
X25249Y-14352D01*
X25249Y-14650D01*
X25134Y-14925D01*
X24923Y-15135D01*
X24648Y-15249D01*
X24350Y-15249D01*
X24075Y-15134D01*
X23865Y-14923D01*
X23751Y-14648D01*
X23751Y-14350D01*
X23836Y-14146D01*
X20663Y-14146D01*
X20749Y-14352D01*
X20749Y-14650D01*
X20634Y-14925D01*
X20423Y-15135D01*
X20148Y-15249D01*
X19850Y-15249D01*
X19575Y-15134D01*
X19365Y-14923D01*
X19251Y-14648D01*
X19251Y-14350D01*
X19336Y-14146D01*
X17234Y-14146D01*
X15629Y-15751D01*
X15649Y-15751D01*
X15924Y-15866D01*
X16134Y-16077D01*
X16248Y-16352D01*
X16248Y-16650D01*
X16133Y-16925D01*
X15922Y-17135D01*
X15850Y-17164D01*
X15850Y-18334D01*
X15925Y-18366D01*
X16135Y-18577D01*
X16249Y-18852D01*
X16249Y-19150D01*
X16134Y-19425D01*
X15923Y-19635D01*
X15648Y-19749D01*
X15350Y-19749D01*
X15075Y-19634D01*
X14865Y-19423D01*
X14751Y-19148D01*
X14751Y-18850D01*
X14866Y-18575D01*
X15077Y-18365D01*
X15150Y-18334D01*
X15150Y-17165D01*
X15074Y-17134D01*
X14864Y-16923D01*
X14750Y-16648D01*
X14750Y-16631D01*
X14028Y-17353D01*
X13928Y-17420D01*
X13809Y-17444D01*
X13471Y-17444D01*
X13420Y-17495D01*
X13264Y-17559D01*
X13095Y-17559D01*
X12939Y-17494D01*
X12819Y-17374D01*
X12755Y-17218D01*
X12755Y-17049D01*
X12820Y-16893D01*
X12940Y-16773D01*
X13096Y-16709D01*
X13265Y-16709D01*
X13421Y-16774D01*
X13471Y-16824D01*
X13681Y-16824D01*
X15283Y-15221D01*
X15074Y-15134D01*
X14864Y-14923D01*
X14779Y-14719D01*
X12645Y-16853D01*
X12545Y-16920D01*
X12521Y-16924D01*
X12549Y-16991D01*
X12549Y-17209D01*
X12500Y-17326D01*
X12500Y-17600D01*
X13000Y-17600D01*
X13017Y-17603D01*
X13037Y-17601D01*
X13113Y-17622D01*
X13191Y-17638D01*
X13207Y-17649D01*
X13225Y-17654D01*
X13281Y-17698D01*
X13354Y-17746D01*
X13365Y-17763D01*
X13378Y-17773D01*
X15517Y-20251D01*
X15650Y-20251D01*
X15925Y-20366D01*
X16135Y-20577D01*
X16249Y-20852D01*
X16249Y-21150D01*
X16134Y-21425D01*
X16000Y-21558D01*
X16000Y-22900D01*
X19850Y-22900D01*
X19850Y-21749D01*
X19575Y-21634D01*
X19365Y-21423D01*
X19251Y-21148D01*
X19251Y-20850D01*
X19366Y-20575D01*
X19577Y-20365D01*
X19850Y-20251D01*
X19850Y-19749D01*
X19575Y-19634D01*
X19365Y-19423D01*
X19251Y-19148D01*
X19251Y-18850D01*
X19366Y-18575D01*
X19577Y-18365D01*
X19650Y-18334D01*
X19650Y-17165D01*
X19575Y-17134D01*
X19365Y-16923D01*
X19251Y-16648D01*
X19251Y-16350D01*
X19366Y-16075D01*
X19577Y-15865D01*
X19852Y-15751D01*
X20150Y-15751D01*
X20425Y-15866D01*
X20635Y-16077D01*
X20749Y-16352D01*
X20749Y-16650D01*
X20634Y-16925D01*
X20423Y-17135D01*
X20350Y-17165D01*
X20350Y-18334D01*
X20425Y-18366D01*
X20635Y-18577D01*
X20749Y-18852D01*
X20749Y-19150D01*
X20634Y-19425D01*
X20423Y-19635D01*
X20148Y-19749D01*
X19850Y-19749D01*
X19850Y-20251D01*
X20150Y-20251D01*
X20425Y-20366D01*
X20635Y-20577D01*
X20749Y-20852D01*
X20749Y-21150D01*
X20634Y-21425D01*
X20423Y-21635D01*
X20148Y-21749D01*
X19850Y-21749D01*
X19850Y-22900D01*
X24000Y-22900D01*
X24000Y-21558D01*
X23865Y-21423D01*
X23751Y-21148D01*
X23751Y-20850D01*
X23866Y-20575D01*
X24077Y-20365D01*
X24350Y-20251D01*
X24350Y-19749D01*
X24075Y-19634D01*
X23865Y-19423D01*
X23751Y-19148D01*
X23751Y-18850D01*
X23866Y-18575D01*
X24077Y-18365D01*
X24150Y-18334D01*
X24150Y-17165D01*
X24075Y-17134D01*
X23865Y-16923D01*
X23751Y-16648D01*
X23751Y-16350D01*
X23866Y-16075D01*
X24077Y-15865D01*
X24352Y-15751D01*
X24650Y-15751D01*
X24925Y-15866D01*
X25135Y-16077D01*
X25249Y-16352D01*
X25249Y-16650D01*
X25134Y-16925D01*
X24923Y-17135D01*
X24850Y-17165D01*
X24850Y-18334D01*
X24925Y-18366D01*
X25135Y-18577D01*
X25249Y-18852D01*
X25249Y-19150D01*
X25134Y-19425D01*
X24923Y-19635D01*
X24648Y-19749D01*
X24350Y-19749D01*
X24350Y-20251D01*
X24650Y-20251D01*
X24925Y-20366D01*
X25135Y-20577D01*
X25249Y-20852D01*
X25249Y-21150D01*
X25134Y-21425D01*
X25000Y-21558D01*
X25000Y-22900D01*
X33000Y-22900D01*
G54D10*
G36*
X45367Y-21882D02*
X45239Y-21500D01*
X44830Y-21500D01*
X45095Y-21610D01*
X45367Y-21882D01*
X45367Y-21882D01*
G37*
G54D26*
X45367Y-21882D02*
X45239Y-21500D01*
X44830Y-21500D01*
X45095Y-21610D01*
X45367Y-21882D01*
G54D10*
G36*
X60214Y-20962D02*
X60314Y-20862D01*
X60470Y-20798D01*
X60484Y-20798D01*
X61040Y-20242D01*
X60931Y-20242D01*
X60214Y-20959D01*
X60214Y-20962D01*
X60214Y-20962D01*
G37*
G54D26*
X60214Y-20962D02*
X60314Y-20862D01*
X60470Y-20798D01*
X60484Y-20798D01*
X61040Y-20242D01*
X60931Y-20242D01*
X60214Y-20959D01*
X60214Y-20962D01*
G54D10*
G36*
X57124Y-20951D02*
X57122Y-20944D01*
X57122Y-20255D01*
X57143Y-20203D01*
X57085Y-20203D01*
X56994Y-20165D01*
X56924Y-20095D01*
X56886Y-20003D01*
X56886Y-19196D01*
X56924Y-19105D01*
X56994Y-19035D01*
X57054Y-19010D01*
X56291Y-19010D01*
X56263Y-19037D01*
X56330Y-19104D01*
X56397Y-19205D01*
X56421Y-19324D01*
X56421Y-19937D01*
X56472Y-19988D01*
X56536Y-20144D01*
X56536Y-20313D01*
X56471Y-20469D01*
X56351Y-20589D01*
X56195Y-20653D01*
X56121Y-20653D01*
X56419Y-20951D01*
X57124Y-20951D01*
X57124Y-20951D01*
G37*
G54D26*
X57124Y-20951D02*
X57122Y-20944D01*
X57122Y-20255D01*
X57143Y-20203D01*
X57085Y-20203D01*
X56994Y-20165D01*
X56924Y-20095D01*
X56886Y-20003D01*
X56886Y-19196D01*
X56924Y-19105D01*
X56994Y-19035D01*
X57054Y-19010D01*
X56291Y-19010D01*
X56263Y-19037D01*
X56330Y-19104D01*
X56397Y-19205D01*
X56421Y-19324D01*
X56421Y-19937D01*
X56472Y-19988D01*
X56536Y-20144D01*
X56536Y-20313D01*
X56471Y-20469D01*
X56351Y-20589D01*
X56195Y-20653D01*
X56121Y-20653D01*
X56419Y-20951D01*
X57124Y-20951D01*
G54D10*
G36*
X38719Y-20780D02*
X39161Y-20339D01*
X39155Y-20339D01*
X38717Y-20776D01*
X38719Y-20780D01*
X38719Y-20780D01*
G37*
G54D26*
X38719Y-20780D02*
X39161Y-20339D01*
X39155Y-20339D01*
X38717Y-20776D01*
X38719Y-20780D01*
G54D10*
G36*
X55311Y-20719D02*
X55221Y-20629D01*
X54605Y-20629D01*
X54554Y-20680D01*
X54495Y-20703D01*
X54508Y-20709D01*
X54518Y-20719D01*
X55311Y-20719D01*
X55311Y-20719D01*
G37*
G54D26*
X55311Y-20719D02*
X55221Y-20629D01*
X54605Y-20629D01*
X54554Y-20680D01*
X54495Y-20703D01*
X54508Y-20709D01*
X54518Y-20719D01*
X55311Y-20719D01*
G54D10*
G36*
X51460Y-20605D02*
X51473Y-20600D01*
X51458Y-20593D01*
X51460Y-20605D01*
X51460Y-20605D01*
G37*
G54D26*
X51460Y-20605D02*
X51473Y-20600D01*
X51458Y-20593D01*
X51460Y-20605D01*
G54D10*
G36*
X58878Y-20518D02*
X59771Y-19625D01*
X59730Y-19625D01*
X59574Y-19560D01*
X59540Y-19526D01*
X59247Y-19819D01*
X59147Y-19886D01*
X59114Y-19892D01*
X59114Y-20004D01*
X59076Y-20095D01*
X59006Y-20165D01*
X58914Y-20203D01*
X58856Y-20203D01*
X58878Y-20256D01*
X58878Y-20518D01*
X58878Y-20518D01*
G37*
G54D26*
X58878Y-20518D02*
X59771Y-19625D01*
X59730Y-19625D01*
X59574Y-19560D01*
X59540Y-19526D01*
X59247Y-19819D01*
X59147Y-19886D01*
X59114Y-19892D01*
X59114Y-20004D01*
X59076Y-20095D01*
X59006Y-20165D01*
X58914Y-20203D01*
X58856Y-20203D01*
X58878Y-20256D01*
X58878Y-20518D01*
G54D10*
G36*
X51206Y-20341D02*
X51200Y-20326D01*
X51194Y-20339D01*
X51206Y-20341D01*
X51206Y-20341D01*
G37*
G54D26*
X51206Y-20341D02*
X51200Y-20326D01*
X51194Y-20339D01*
X51206Y-20341D01*
G54D10*
G36*
X58000Y-20084D02*
X58018Y-20077D01*
X58000Y-20032D01*
X57981Y-20077D01*
X58000Y-20084D01*
X58000Y-20084D01*
G37*
G54D26*
X58000Y-20084D02*
X58018Y-20077D01*
X58000Y-20032D01*
X57981Y-20077D01*
X58000Y-20084D01*
G54D10*
G36*
X55034Y-20009D02*
X55034Y-19882D01*
X55099Y-19726D01*
X55149Y-19676D01*
X55149Y-19376D01*
X54688Y-18915D01*
X54638Y-19036D01*
X54518Y-19156D01*
X54362Y-19220D01*
X54291Y-19220D01*
X54210Y-19301D01*
X54210Y-19902D01*
X54230Y-19894D01*
X54399Y-19894D01*
X54555Y-19959D01*
X54605Y-20009D01*
X55034Y-20009D01*
X55034Y-20009D01*
G37*
G54D26*
X55034Y-20009D02*
X55034Y-19882D01*
X55099Y-19726D01*
X55149Y-19676D01*
X55149Y-19376D01*
X54688Y-18915D01*
X54638Y-19036D01*
X54518Y-19156D01*
X54362Y-19220D01*
X54291Y-19220D01*
X54210Y-19301D01*
X54210Y-19902D01*
X54230Y-19894D01*
X54399Y-19894D01*
X54555Y-19959D01*
X54605Y-20009D01*
X55034Y-20009D01*
G54D10*
G36*
X50163Y-19961D02*
X50235Y-19789D01*
X50390Y-19634D01*
X50390Y-17374D01*
X50414Y-17255D01*
X50481Y-17155D01*
X50586Y-17049D01*
X50586Y-16296D01*
X50624Y-16205D01*
X50694Y-16135D01*
X50786Y-16097D01*
X50843Y-16097D01*
X50822Y-16044D01*
X50822Y-15707D01*
X50681Y-15707D01*
X50525Y-15642D01*
X50405Y-15522D01*
X50341Y-15366D01*
X50341Y-15197D01*
X50406Y-15041D01*
X50526Y-14921D01*
X50682Y-14857D01*
X50851Y-14857D01*
X51007Y-14922D01*
X51021Y-14936D01*
X51040Y-14847D01*
X51058Y-14819D01*
X50989Y-14790D01*
X50835Y-14636D01*
X50751Y-14434D01*
X50751Y-14275D01*
X50744Y-14278D01*
X50692Y-14278D01*
X50686Y-14312D01*
X50652Y-14362D01*
X50619Y-14413D01*
X50243Y-14788D01*
X50243Y-17375D01*
X50294Y-17426D01*
X50358Y-17582D01*
X50358Y-17751D01*
X50293Y-17907D01*
X50173Y-18027D01*
X50017Y-18091D01*
X49848Y-18091D01*
X49756Y-18052D01*
X49756Y-19554D01*
X50163Y-19961D01*
X50163Y-19961D01*
G37*
G54D26*
X50163Y-19961D02*
X50235Y-19789D01*
X50390Y-19634D01*
X50390Y-17374D01*
X50414Y-17255D01*
X50481Y-17155D01*
X50586Y-17049D01*
X50586Y-16296D01*
X50624Y-16205D01*
X50694Y-16135D01*
X50786Y-16097D01*
X50843Y-16097D01*
X50822Y-16044D01*
X50822Y-15707D01*
X50681Y-15707D01*
X50525Y-15642D01*
X50405Y-15522D01*
X50341Y-15366D01*
X50341Y-15197D01*
X50406Y-15041D01*
X50526Y-14921D01*
X50682Y-14857D01*
X50851Y-14857D01*
X51007Y-14922D01*
X51021Y-14936D01*
X51040Y-14847D01*
X51058Y-14819D01*
X50989Y-14790D01*
X50835Y-14636D01*
X50751Y-14434D01*
X50751Y-14275D01*
X50744Y-14278D01*
X50692Y-14278D01*
X50686Y-14312D01*
X50652Y-14362D01*
X50619Y-14413D01*
X50243Y-14788D01*
X50243Y-17375D01*
X50294Y-17426D01*
X50358Y-17582D01*
X50358Y-17751D01*
X50293Y-17907D01*
X50173Y-18027D01*
X50017Y-18091D01*
X49848Y-18091D01*
X49756Y-18052D01*
X49756Y-19554D01*
X50163Y-19961D01*
G54D10*
G36*
X51200Y-19873D02*
X51235Y-19789D01*
X51389Y-19635D01*
X51591Y-19551D01*
X51809Y-19551D01*
X51890Y-19584D01*
X51890Y-18937D01*
X51651Y-18698D01*
X51579Y-18698D01*
X51423Y-18633D01*
X51303Y-18513D01*
X51280Y-18458D01*
X51207Y-18444D01*
X51107Y-18377D01*
X51040Y-18277D01*
X51033Y-18244D01*
X51021Y-18244D01*
X51010Y-18239D01*
X51010Y-19634D01*
X51165Y-19789D01*
X51200Y-19873D01*
X51200Y-19873D01*
G37*
G54D26*
X51200Y-19873D02*
X51235Y-19789D01*
X51389Y-19635D01*
X51591Y-19551D01*
X51809Y-19551D01*
X51890Y-19584D01*
X51890Y-18937D01*
X51651Y-18698D01*
X51579Y-18698D01*
X51423Y-18633D01*
X51303Y-18513D01*
X51280Y-18458D01*
X51207Y-18444D01*
X51107Y-18377D01*
X51040Y-18277D01*
X51033Y-18244D01*
X51021Y-18244D01*
X51010Y-18239D01*
X51010Y-19634D01*
X51165Y-19789D01*
X51200Y-19873D01*
G54D10*
G36*
X67321Y-19846D02*
X67121Y-19646D01*
X67106Y-19646D01*
X66950Y-19581D01*
X66838Y-19469D01*
X66461Y-19846D01*
X67321Y-19846D01*
X67321Y-19846D01*
G37*
G54D26*
X67321Y-19846D02*
X67121Y-19646D01*
X67106Y-19646D01*
X66950Y-19581D01*
X66838Y-19469D01*
X66461Y-19846D01*
X67321Y-19846D01*
G54D10*
G36*
X55801Y-19708D02*
X55801Y-19452D01*
X55769Y-19420D01*
X55769Y-19676D01*
X55801Y-19708D01*
X55801Y-19708D01*
G37*
G54D26*
X55801Y-19708D02*
X55801Y-19452D01*
X55769Y-19420D01*
X55769Y-19676D01*
X55801Y-19708D01*
G54D10*
G36*
X65366Y-19542D02*
X65335Y-19511D01*
X65300Y-19426D01*
X65265Y-19511D01*
X65234Y-19542D01*
X65366Y-19542D01*
X65366Y-19542D01*
G37*
G54D26*
X65366Y-19542D02*
X65335Y-19511D01*
X65300Y-19426D01*
X65265Y-19511D01*
X65234Y-19542D01*
X65366Y-19542D01*
G54D10*
G36*
X64366Y-19542D02*
X64335Y-19511D01*
X64300Y-19426D01*
X64265Y-19511D01*
X64234Y-19542D01*
X64366Y-19542D01*
X64366Y-19542D01*
G37*
G54D26*
X64366Y-19542D02*
X64335Y-19511D01*
X64300Y-19426D01*
X64265Y-19511D01*
X64234Y-19542D01*
X64366Y-19542D01*
G54D10*
G36*
X63366Y-19542D02*
X63335Y-19511D01*
X63300Y-19426D01*
X63265Y-19511D01*
X63234Y-19542D01*
X63366Y-19542D01*
X63366Y-19542D01*
G37*
G54D26*
X63366Y-19542D02*
X63335Y-19511D01*
X63300Y-19426D01*
X63265Y-19511D01*
X63234Y-19542D01*
X63366Y-19542D01*
G54D10*
G36*
X62366Y-19542D02*
X62335Y-19511D01*
X62300Y-19426D01*
X62265Y-19511D01*
X62234Y-19542D01*
X62366Y-19542D01*
X62366Y-19542D01*
G37*
G54D26*
X62366Y-19542D02*
X62335Y-19511D01*
X62300Y-19426D01*
X62265Y-19511D01*
X62234Y-19542D01*
X62366Y-19542D01*
G54D10*
G36*
X61349Y-19542D02*
X61366Y-19542D01*
X61349Y-19525D01*
X61349Y-19542D01*
X61349Y-19542D01*
G37*
G54D26*
X61349Y-19542D02*
X61366Y-19542D01*
X61349Y-19525D01*
X61349Y-19542D01*
G54D10*
G36*
X72889Y-19448D02*
X72865Y-19423D01*
X72751Y-19148D01*
X72751Y-18850D01*
X72866Y-18575D01*
X73077Y-18365D01*
X73150Y-18334D01*
X73150Y-17165D01*
X73075Y-17134D01*
X72865Y-16923D01*
X72784Y-16729D01*
X72735Y-16849D01*
X72615Y-16969D01*
X72459Y-17033D01*
X72290Y-17033D01*
X72134Y-16968D01*
X72014Y-16848D01*
X71950Y-16692D01*
X71950Y-16677D01*
X71418Y-16146D01*
X69663Y-16146D01*
X69749Y-16352D01*
X69749Y-16650D01*
X69634Y-16925D01*
X69423Y-17135D01*
X69350Y-17165D01*
X69350Y-18334D01*
X69425Y-18366D01*
X69635Y-18577D01*
X69749Y-18852D01*
X69749Y-19150D01*
X69634Y-19425D01*
X69610Y-19448D01*
X72889Y-19448D01*
X72889Y-19448D01*
G37*
G54D26*
X72889Y-19448D02*
X72865Y-19423D01*
X72751Y-19148D01*
X72751Y-18850D01*
X72866Y-18575D01*
X73077Y-18365D01*
X73150Y-18334D01*
X73150Y-17165D01*
X73075Y-17134D01*
X72865Y-16923D01*
X72784Y-16729D01*
X72735Y-16849D01*
X72615Y-16969D01*
X72459Y-17033D01*
X72290Y-17033D01*
X72134Y-16968D01*
X72014Y-16848D01*
X71950Y-16692D01*
X71950Y-16677D01*
X71418Y-16146D01*
X69663Y-16146D01*
X69749Y-16352D01*
X69749Y-16650D01*
X69634Y-16925D01*
X69423Y-17135D01*
X69350Y-17165D01*
X69350Y-18334D01*
X69425Y-18366D01*
X69635Y-18577D01*
X69749Y-18852D01*
X69749Y-19150D01*
X69634Y-19425D01*
X69610Y-19448D01*
X72889Y-19448D01*
G54D10*
G36*
X68389Y-19448D02*
X68365Y-19423D01*
X68251Y-19148D01*
X68251Y-18850D01*
X68366Y-18575D01*
X68577Y-18365D01*
X68650Y-18334D01*
X68650Y-17165D01*
X68575Y-17134D01*
X68365Y-16923D01*
X68251Y-16648D01*
X68251Y-16641D01*
X67867Y-17025D01*
X67867Y-18296D01*
X67840Y-18430D01*
X67764Y-18544D01*
X67439Y-18868D01*
X67552Y-18981D01*
X67616Y-19137D01*
X67616Y-19152D01*
X67912Y-19448D01*
X68389Y-19448D01*
X68389Y-19448D01*
G37*
G54D26*
X68389Y-19448D02*
X68365Y-19423D01*
X68251Y-19148D01*
X68251Y-18850D01*
X68366Y-18575D01*
X68577Y-18365D01*
X68650Y-18334D01*
X68650Y-17165D01*
X68575Y-17134D01*
X68365Y-16923D01*
X68251Y-16648D01*
X68251Y-16641D01*
X67867Y-17025D01*
X67867Y-18296D01*
X67840Y-18430D01*
X67764Y-18544D01*
X67439Y-18868D01*
X67552Y-18981D01*
X67616Y-19137D01*
X67616Y-19152D01*
X67912Y-19448D01*
X68389Y-19448D01*
G54D10*
G36*
X101160Y-19361D02*
X102407Y-17789D01*
X102431Y-17768D01*
X102446Y-17746D01*
X102497Y-17711D01*
X102555Y-17663D01*
X102587Y-17652D01*
X102609Y-17638D01*
X102665Y-17626D01*
X102741Y-17602D01*
X102775Y-17604D01*
X102800Y-17600D01*
X103500Y-17600D01*
X103500Y-17326D01*
X103451Y-17209D01*
X103451Y-16991D01*
X103535Y-16789D01*
X103551Y-16771D01*
X102581Y-15801D01*
X100769Y-15801D01*
X100925Y-15866D01*
X101135Y-16077D01*
X101249Y-16352D01*
X101249Y-16650D01*
X101134Y-16925D01*
X100923Y-17135D01*
X100850Y-17165D01*
X100850Y-18334D01*
X100925Y-18366D01*
X101135Y-18577D01*
X101249Y-18852D01*
X101249Y-19150D01*
X101160Y-19361D01*
X101160Y-19361D01*
G37*
G54D26*
X101160Y-19361D02*
X102407Y-17789D01*
X102431Y-17768D01*
X102446Y-17746D01*
X102497Y-17711D01*
X102555Y-17663D01*
X102587Y-17652D01*
X102609Y-17638D01*
X102665Y-17626D01*
X102741Y-17602D01*
X102775Y-17604D01*
X102800Y-17600D01*
X103500Y-17600D01*
X103500Y-17326D01*
X103451Y-17209D01*
X103451Y-16991D01*
X103535Y-16789D01*
X103551Y-16771D01*
X102581Y-15801D01*
X100769Y-15801D01*
X100925Y-15866D01*
X101135Y-16077D01*
X101249Y-16352D01*
X101249Y-16650D01*
X101134Y-16925D01*
X100923Y-17135D01*
X100850Y-17165D01*
X100850Y-18334D01*
X100925Y-18366D01*
X101135Y-18577D01*
X101249Y-18852D01*
X101249Y-19150D01*
X101160Y-19361D01*
G54D10*
G36*
X57999Y-19167D02*
X58026Y-19105D01*
X58096Y-19035D01*
X58188Y-18997D01*
X58915Y-18997D01*
X59006Y-19035D01*
X59076Y-19105D01*
X59078Y-19111D01*
X59401Y-18788D01*
X59406Y-18784D01*
X59991Y-18200D01*
X59991Y-17453D01*
X59861Y-17507D01*
X59692Y-17507D01*
X59536Y-17442D01*
X59486Y-17392D01*
X58914Y-17392D01*
X58736Y-17570D01*
X58636Y-17637D01*
X58603Y-17643D01*
X58603Y-17715D01*
X58565Y-17806D01*
X58495Y-17876D01*
X58403Y-17914D01*
X57833Y-17914D01*
X57985Y-18066D01*
X58052Y-18166D01*
X58059Y-18204D01*
X58127Y-18272D01*
X58191Y-18428D01*
X58191Y-18597D01*
X58126Y-18753D01*
X58006Y-18873D01*
X57850Y-18937D01*
X57759Y-18937D01*
X57759Y-18997D01*
X57813Y-18997D01*
X57904Y-19035D01*
X57974Y-19105D01*
X57999Y-19167D01*
X57999Y-19167D01*
G37*
G54D26*
X57999Y-19167D02*
X58026Y-19105D01*
X58096Y-19035D01*
X58188Y-18997D01*
X58915Y-18997D01*
X59006Y-19035D01*
X59076Y-19105D01*
X59078Y-19111D01*
X59401Y-18788D01*
X59406Y-18784D01*
X59991Y-18200D01*
X59991Y-17453D01*
X59861Y-17507D01*
X59692Y-17507D01*
X59536Y-17442D01*
X59486Y-17392D01*
X58914Y-17392D01*
X58736Y-17570D01*
X58636Y-17637D01*
X58603Y-17643D01*
X58603Y-17715D01*
X58565Y-17806D01*
X58495Y-17876D01*
X58403Y-17914D01*
X57833Y-17914D01*
X57985Y-18066D01*
X58052Y-18166D01*
X58059Y-18204D01*
X58127Y-18272D01*
X58191Y-18428D01*
X58191Y-18597D01*
X58126Y-18753D01*
X58006Y-18873D01*
X57850Y-18937D01*
X57759Y-18937D01*
X57759Y-18997D01*
X57813Y-18997D01*
X57904Y-19035D01*
X57974Y-19105D01*
X57999Y-19167D01*
G54D10*
G36*
X66313Y-19005D02*
X67167Y-18151D01*
X67167Y-16881D01*
X67194Y-16747D01*
X67270Y-16634D01*
X68102Y-15801D01*
X66573Y-15801D01*
X66573Y-17642D01*
X66549Y-17761D01*
X66482Y-17861D01*
X66460Y-17883D01*
X66360Y-17950D01*
X66295Y-17962D01*
X66349Y-18091D01*
X66349Y-18309D01*
X66265Y-18511D01*
X66111Y-18665D01*
X66026Y-18700D01*
X66111Y-18735D01*
X66265Y-18889D01*
X66313Y-19005D01*
X66313Y-19005D01*
G37*
G54D26*
X66313Y-19005D02*
X67167Y-18151D01*
X67167Y-16881D01*
X67194Y-16747D01*
X67270Y-16634D01*
X68102Y-15801D01*
X66573Y-15801D01*
X66573Y-17642D01*
X66549Y-17761D01*
X66482Y-17861D01*
X66460Y-17883D01*
X66360Y-17950D01*
X66295Y-17962D01*
X66349Y-18091D01*
X66349Y-18309D01*
X66265Y-18511D01*
X66111Y-18665D01*
X66026Y-18700D01*
X66111Y-18735D01*
X66265Y-18889D01*
X66313Y-19005D01*
G54D10*
G36*
X65300Y-18973D02*
X65335Y-18889D01*
X65489Y-18735D01*
X65573Y-18700D01*
X65489Y-18665D01*
X65335Y-18511D01*
X65300Y-18426D01*
X65265Y-18511D01*
X65111Y-18665D01*
X65026Y-18700D01*
X65111Y-18735D01*
X65265Y-18889D01*
X65300Y-18973D01*
X65300Y-18973D01*
G37*
G54D26*
X65300Y-18973D02*
X65335Y-18889D01*
X65489Y-18735D01*
X65573Y-18700D01*
X65489Y-18665D01*
X65335Y-18511D01*
X65300Y-18426D01*
X65265Y-18511D01*
X65111Y-18665D01*
X65026Y-18700D01*
X65111Y-18735D01*
X65265Y-18889D01*
X65300Y-18973D01*
G54D10*
G36*
X64300Y-18973D02*
X64335Y-18889D01*
X64489Y-18735D01*
X64573Y-18700D01*
X64489Y-18665D01*
X64335Y-18511D01*
X64300Y-18426D01*
X64265Y-18511D01*
X64111Y-18665D01*
X64026Y-18700D01*
X64111Y-18735D01*
X64265Y-18889D01*
X64300Y-18973D01*
X64300Y-18973D01*
G37*
G54D26*
X64300Y-18973D02*
X64335Y-18889D01*
X64489Y-18735D01*
X64573Y-18700D01*
X64489Y-18665D01*
X64335Y-18511D01*
X64300Y-18426D01*
X64265Y-18511D01*
X64111Y-18665D01*
X64026Y-18700D01*
X64111Y-18735D01*
X64265Y-18889D01*
X64300Y-18973D01*
G54D10*
G36*
X63300Y-18973D02*
X63335Y-18889D01*
X63489Y-18735D01*
X63573Y-18700D01*
X63489Y-18665D01*
X63335Y-18511D01*
X63300Y-18426D01*
X63265Y-18511D01*
X63111Y-18665D01*
X63026Y-18700D01*
X63111Y-18735D01*
X63265Y-18889D01*
X63300Y-18973D01*
X63300Y-18973D01*
G37*
G54D26*
X63300Y-18973D02*
X63335Y-18889D01*
X63489Y-18735D01*
X63573Y-18700D01*
X63489Y-18665D01*
X63335Y-18511D01*
X63300Y-18426D01*
X63265Y-18511D01*
X63111Y-18665D01*
X63026Y-18700D01*
X63111Y-18735D01*
X63265Y-18889D01*
X63300Y-18973D01*
G54D10*
G36*
X62300Y-18973D02*
X62335Y-18889D01*
X62489Y-18735D01*
X62573Y-18700D01*
X62489Y-18665D01*
X62481Y-18657D01*
X62257Y-18881D01*
X62265Y-18889D01*
X62300Y-18973D01*
X62300Y-18973D01*
G37*
G54D26*
X62300Y-18973D02*
X62335Y-18889D01*
X62489Y-18735D01*
X62573Y-18700D01*
X62489Y-18665D01*
X62481Y-18657D01*
X62257Y-18881D01*
X62265Y-18889D01*
X62300Y-18973D01*
G54D10*
G36*
X52390Y-18561D02*
X52390Y-18239D01*
X52378Y-18244D01*
X52089Y-18244D01*
X52089Y-18260D01*
X52390Y-18561D01*
X52390Y-18561D01*
G37*
G54D26*
X52390Y-18561D02*
X52390Y-18239D01*
X52378Y-18244D01*
X52089Y-18244D01*
X52089Y-18260D01*
X52390Y-18561D01*
G54D10*
G36*
X53010Y-18499D02*
X53521Y-17988D01*
X53401Y-17988D01*
X53282Y-17964D01*
X53181Y-17896D01*
X53010Y-17725D01*
X53010Y-18499D01*
X53010Y-18499D01*
G37*
G54D26*
X53010Y-18499D02*
X53521Y-17988D01*
X53401Y-17988D01*
X53282Y-17964D01*
X53181Y-17896D01*
X53010Y-17725D01*
X53010Y-18499D01*
G54D10*
G36*
X55662Y-18436D02*
X55690Y-18409D01*
X55690Y-17291D01*
X55639Y-17240D01*
X55575Y-17084D01*
X55575Y-16915D01*
X55608Y-16835D01*
X54963Y-16835D01*
X54206Y-17591D01*
X54341Y-17648D01*
X54428Y-17735D01*
X54832Y-17735D01*
X54951Y-17759D01*
X55051Y-17826D01*
X55662Y-18436D01*
X55662Y-18436D01*
G37*
G54D26*
X55662Y-18436D02*
X55690Y-18409D01*
X55690Y-17291D01*
X55639Y-17240D01*
X55575Y-17084D01*
X55575Y-16915D01*
X55608Y-16835D01*
X54963Y-16835D01*
X54206Y-17591D01*
X54341Y-17648D01*
X54428Y-17735D01*
X54832Y-17735D01*
X54951Y-17759D01*
X55051Y-17826D01*
X55662Y-18436D01*
G54D10*
G36*
X57352Y-18400D02*
X57378Y-18335D01*
X56322Y-17279D01*
X56310Y-17291D01*
X56310Y-18390D01*
X57300Y-18390D01*
X57352Y-18400D01*
X57352Y-18400D01*
G37*
G54D26*
X57352Y-18400D02*
X57378Y-18335D01*
X56322Y-17279D01*
X56310Y-17291D01*
X56310Y-18390D01*
X57300Y-18390D01*
X57352Y-18400D01*
G54D10*
G36*
X61349Y-17875D02*
X61489Y-17735D01*
X61573Y-17700D01*
X61489Y-17665D01*
X61349Y-17525D01*
X61349Y-17550D01*
X61311Y-17641D01*
X61251Y-17699D01*
X61311Y-17759D01*
X61349Y-17850D01*
X61349Y-17875D01*
X61349Y-17875D01*
G37*
G54D26*
X61349Y-17875D02*
X61489Y-17735D01*
X61573Y-17700D01*
X61489Y-17665D01*
X61349Y-17525D01*
X61349Y-17550D01*
X61311Y-17641D01*
X61251Y-17699D01*
X61311Y-17759D01*
X61349Y-17850D01*
X61349Y-17875D01*
G54D10*
G36*
X62117Y-17741D02*
X62341Y-17517D01*
X62335Y-17511D01*
X62300Y-17426D01*
X62265Y-17511D01*
X62111Y-17665D01*
X62026Y-17700D01*
X62111Y-17735D01*
X62117Y-17741D01*
X62117Y-17741D01*
G37*
G54D26*
X62117Y-17741D02*
X62341Y-17517D01*
X62335Y-17511D01*
X62300Y-17426D01*
X62265Y-17511D01*
X62111Y-17665D01*
X62026Y-17700D01*
X62111Y-17735D01*
X62117Y-17741D01*
G54D10*
G36*
X57397Y-17478D02*
X57397Y-16987D01*
X57435Y-16896D01*
X57505Y-16826D01*
X57567Y-16800D01*
X57505Y-16774D01*
X57435Y-16704D01*
X57397Y-16612D01*
X57397Y-16559D01*
X56478Y-16559D01*
X57397Y-17478D01*
X57397Y-17478D01*
G37*
G54D26*
X57397Y-17478D02*
X57397Y-16987D01*
X57435Y-16896D01*
X57505Y-16826D01*
X57567Y-16800D01*
X57505Y-16774D01*
X57435Y-16704D01*
X57397Y-16612D01*
X57397Y-16559D01*
X56478Y-16559D01*
X57397Y-17478D01*
G54D10*
G36*
X53861Y-17059D02*
X54391Y-16529D01*
X54300Y-16468D01*
X53851Y-16019D01*
X53851Y-17049D01*
X53861Y-17059D01*
X53861Y-17059D01*
G37*
G54D26*
X53861Y-17059D02*
X54391Y-16529D01*
X54300Y-16468D01*
X53851Y-16019D01*
X53851Y-17049D01*
X53861Y-17059D01*
G54D10*
G36*
X58549Y-16880D02*
X58566Y-16863D01*
X58616Y-16829D01*
X58642Y-16812D01*
X58549Y-16719D01*
X58495Y-16774D01*
X58432Y-16799D01*
X58495Y-16826D01*
X58549Y-16880D01*
X58549Y-16880D01*
G37*
G54D26*
X58549Y-16880D02*
X58566Y-16863D01*
X58616Y-16829D01*
X58642Y-16812D01*
X58549Y-16719D01*
X58495Y-16774D01*
X58432Y-16799D01*
X58495Y-16826D01*
X58549Y-16880D01*
G54D10*
G36*
X11275Y-16502D02*
X11318Y-16438D01*
X11340Y-16415D01*
X11390Y-16381D01*
X11441Y-16348D01*
X11503Y-16335D01*
X11451Y-16209D01*
X11451Y-15991D01*
X11535Y-15789D01*
X11689Y-15635D01*
X11773Y-15600D01*
X11689Y-15565D01*
X11535Y-15411D01*
X11451Y-15209D01*
X11451Y-14991D01*
X11535Y-14789D01*
X11689Y-14635D01*
X11891Y-14551D01*
X12109Y-14551D01*
X12290Y-14626D01*
X12290Y-14050D01*
X11905Y-13890D01*
X11610Y-13594D01*
X11450Y-13208D01*
X11450Y-12790D01*
X11610Y-12405D01*
X11906Y-12110D01*
X12292Y-11950D01*
X12710Y-11950D01*
X13095Y-12110D01*
X13390Y-12406D01*
X13550Y-12792D01*
X13550Y-13210D01*
X13390Y-13595D01*
X13094Y-13890D01*
X12708Y-14050D01*
X12290Y-14050D01*
X12290Y-14626D01*
X12311Y-14635D01*
X12465Y-14789D01*
X12549Y-14991D01*
X12549Y-15209D01*
X12465Y-15411D01*
X12311Y-15565D01*
X12226Y-15600D01*
X12311Y-15635D01*
X12465Y-15789D01*
X12549Y-15991D01*
X12549Y-16072D01*
X16746Y-11875D01*
X11275Y-11875D01*
X11275Y-16502D01*
X11275Y-16502D01*
G37*
G54D26*
X11275Y-16502D02*
X11318Y-16438D01*
X11340Y-16415D01*
X11390Y-16381D01*
X11441Y-16348D01*
X11503Y-16335D01*
X11451Y-16209D01*
X11451Y-15991D01*
X11535Y-15789D01*
X11689Y-15635D01*
X11773Y-15600D01*
X11689Y-15565D01*
X11535Y-15411D01*
X11451Y-15209D01*
X11451Y-14991D01*
X11535Y-14789D01*
X11689Y-14635D01*
X11891Y-14551D01*
X12109Y-14551D01*
X12290Y-14626D01*
X12290Y-14050D01*
X11905Y-13890D01*
X11610Y-13594D01*
X11450Y-13208D01*
X11450Y-12790D01*
X11610Y-12405D01*
X11906Y-12110D01*
X12292Y-11950D01*
X12710Y-11950D01*
X13095Y-12110D01*
X13390Y-12406D01*
X13550Y-12792D01*
X13550Y-13210D01*
X13390Y-13595D01*
X13094Y-13890D01*
X12708Y-14050D01*
X12290Y-14050D01*
X12290Y-14626D01*
X12311Y-14635D01*
X12465Y-14789D01*
X12549Y-14991D01*
X12549Y-15209D01*
X12465Y-15411D01*
X12311Y-15565D01*
X12226Y-15600D01*
X12311Y-15635D01*
X12465Y-15789D01*
X12549Y-15991D01*
X12549Y-16072D01*
X16746Y-11875D01*
X11275Y-11875D01*
X11275Y-16502D01*
G54D10*
G36*
X60251Y-16408D02*
X60251Y-15850D01*
X60271Y-15801D01*
X58567Y-15801D01*
X58603Y-15886D01*
X58603Y-15956D01*
X58636Y-15963D01*
X58736Y-16030D01*
X59114Y-16408D01*
X60251Y-16408D01*
X60251Y-16408D01*
G37*
G54D26*
X60251Y-16408D02*
X60251Y-15850D01*
X60271Y-15801D01*
X58567Y-15801D01*
X58603Y-15886D01*
X58603Y-15956D01*
X58636Y-15963D01*
X58736Y-16030D01*
X59114Y-16408D01*
X60251Y-16408D01*
G54D10*
G36*
X72751Y-16404D02*
X72751Y-16350D01*
X72866Y-16075D01*
X73077Y-15865D01*
X73231Y-15801D01*
X72062Y-15801D01*
X72444Y-16183D01*
X72460Y-16183D01*
X72616Y-16248D01*
X72736Y-16368D01*
X72751Y-16404D01*
X72751Y-16404D01*
G37*
G54D26*
X72751Y-16404D02*
X72751Y-16350D01*
X72866Y-16075D01*
X73077Y-15865D01*
X73231Y-15801D01*
X72062Y-15801D01*
X72444Y-16183D01*
X72460Y-16183D01*
X72616Y-16248D01*
X72736Y-16368D01*
X72751Y-16404D01*
G54D10*
G36*
X51699Y-16267D02*
X51718Y-16222D01*
X51699Y-16215D01*
X51681Y-16222D01*
X51699Y-16267D01*
X51699Y-16267D01*
G37*
G54D26*
X51699Y-16267D02*
X51718Y-16222D01*
X51699Y-16215D01*
X51681Y-16222D01*
X51699Y-16267D01*
G54D10*
G36*
X52750Y-16179D02*
X52750Y-15727D01*
X52649Y-15828D01*
X52649Y-16095D01*
X52645Y-16109D01*
X52706Y-16135D01*
X52750Y-16179D01*
X52750Y-16179D01*
G37*
G54D26*
X52750Y-16179D02*
X52750Y-15727D01*
X52649Y-15828D01*
X52649Y-16095D01*
X52645Y-16109D01*
X52706Y-16135D01*
X52750Y-16179D01*
G54D10*
G36*
X63300Y-15973D02*
X63335Y-15889D01*
X63423Y-15801D01*
X63177Y-15801D01*
X63265Y-15889D01*
X63300Y-15973D01*
X63300Y-15973D01*
G37*
G54D26*
X63300Y-15973D02*
X63335Y-15889D01*
X63423Y-15801D01*
X63177Y-15801D01*
X63265Y-15889D01*
X63300Y-15973D01*
G54D10*
G36*
X62300Y-15973D02*
X62335Y-15889D01*
X62423Y-15801D01*
X62177Y-15801D01*
X62265Y-15889D01*
X62300Y-15973D01*
X62300Y-15973D01*
G37*
G54D26*
X62300Y-15973D02*
X62335Y-15889D01*
X62423Y-15801D01*
X62177Y-15801D01*
X62265Y-15889D01*
X62300Y-15973D01*
G54D10*
G36*
X57397Y-15939D02*
X57397Y-15885D01*
X57432Y-15801D01*
X54868Y-15801D01*
X54812Y-15937D01*
X54810Y-15939D01*
X57397Y-15939D01*
X57397Y-15939D01*
G37*
G54D26*
X57397Y-15939D02*
X57397Y-15885D01*
X57432Y-15801D01*
X54868Y-15801D01*
X54812Y-15937D01*
X54810Y-15939D01*
X57397Y-15939D01*
G54D10*
G36*
X61349Y-15875D02*
X61423Y-15801D01*
X61328Y-15801D01*
X61349Y-15851D01*
X61349Y-15875D01*
X61349Y-15875D01*
G37*
G54D26*
X61349Y-15875D02*
X61423Y-15801D01*
X61328Y-15801D01*
X61349Y-15851D01*
X61349Y-15875D01*
G54D10*
G36*
X104725Y-15732D02*
X104725Y-11875D01*
X64588Y-11875D01*
X64739Y-12026D01*
X64959Y-12026D01*
X65161Y-12110D01*
X65315Y-12264D01*
X65399Y-12466D01*
X65399Y-12522D01*
X66045Y-12522D01*
X66136Y-12560D01*
X66206Y-12630D01*
X66244Y-12722D01*
X66244Y-13331D01*
X66215Y-13400D01*
X66244Y-13470D01*
X66244Y-14079D01*
X66206Y-14170D01*
X66136Y-14240D01*
X66044Y-14278D01*
X66010Y-14278D01*
X66010Y-14644D01*
X65986Y-14763D01*
X65919Y-14864D01*
X65910Y-14872D01*
X68343Y-14872D01*
X68251Y-14648D01*
X68251Y-14350D01*
X68366Y-14075D01*
X68577Y-13865D01*
X68852Y-13751D01*
X69150Y-13751D01*
X69425Y-13866D01*
X69635Y-14077D01*
X69665Y-14150D01*
X71290Y-14150D01*
X71290Y-14050D01*
X70905Y-13890D01*
X70610Y-13594D01*
X70450Y-13208D01*
X70450Y-12790D01*
X70610Y-12405D01*
X70906Y-12110D01*
X71292Y-11950D01*
X71710Y-11950D01*
X72095Y-12110D01*
X72390Y-12406D01*
X72550Y-12792D01*
X72550Y-13210D01*
X72390Y-13595D01*
X72094Y-13890D01*
X71708Y-14050D01*
X71290Y-14050D01*
X71290Y-14150D01*
X72834Y-14150D01*
X72866Y-14075D01*
X73077Y-13865D01*
X73352Y-13751D01*
X73650Y-13751D01*
X73925Y-13866D01*
X74135Y-14077D01*
X74249Y-14352D01*
X74249Y-14650D01*
X74156Y-14872D01*
X77343Y-14872D01*
X77251Y-14648D01*
X77251Y-14350D01*
X77366Y-14075D01*
X77577Y-13865D01*
X77852Y-13751D01*
X78150Y-13751D01*
X78425Y-13866D01*
X78635Y-14077D01*
X78749Y-14352D01*
X78749Y-14650D01*
X78656Y-14872D01*
X81843Y-14872D01*
X81751Y-14648D01*
X81751Y-14350D01*
X81866Y-14075D01*
X82077Y-13865D01*
X82352Y-13751D01*
X82650Y-13751D01*
X82925Y-13866D01*
X83135Y-14077D01*
X83249Y-14352D01*
X83249Y-14650D01*
X83156Y-14872D01*
X86343Y-14872D01*
X86251Y-14648D01*
X86251Y-14350D01*
X86366Y-14075D01*
X86577Y-13865D01*
X86852Y-13751D01*
X87150Y-13751D01*
X87425Y-13866D01*
X87635Y-14077D01*
X87749Y-14352D01*
X87749Y-14650D01*
X87656Y-14872D01*
X90943Y-14872D01*
X90851Y-14648D01*
X90851Y-14350D01*
X90966Y-14075D01*
X91177Y-13865D01*
X91452Y-13751D01*
X91750Y-13751D01*
X92025Y-13866D01*
X92235Y-14077D01*
X92349Y-14352D01*
X92349Y-14650D01*
X92256Y-14872D01*
X95343Y-14872D01*
X95251Y-14648D01*
X95251Y-14350D01*
X95366Y-14075D01*
X95577Y-13865D01*
X95852Y-13751D01*
X96150Y-13751D01*
X96425Y-13866D01*
X96635Y-14077D01*
X96749Y-14352D01*
X96749Y-14650D01*
X96656Y-14872D01*
X99843Y-14872D01*
X99751Y-14648D01*
X99751Y-14350D01*
X99866Y-14075D01*
X100077Y-13865D01*
X100352Y-13751D01*
X100650Y-13751D01*
X100925Y-13866D01*
X101135Y-14077D01*
X101249Y-14352D01*
X101249Y-14650D01*
X101156Y-14872D01*
X102717Y-14872D01*
X102836Y-14896D01*
X102936Y-14963D01*
X103276Y-15303D01*
X103290Y-15303D01*
X103290Y-14050D01*
X102905Y-13890D01*
X102610Y-13594D01*
X102450Y-13208D01*
X102450Y-12790D01*
X102610Y-12405D01*
X102906Y-12110D01*
X103292Y-11950D01*
X103710Y-11950D01*
X104095Y-12110D01*
X104390Y-12406D01*
X104550Y-12792D01*
X104550Y-13210D01*
X104390Y-13595D01*
X104094Y-13890D01*
X103708Y-14050D01*
X103290Y-14050D01*
X103290Y-15303D01*
X103490Y-15303D01*
X103451Y-15209D01*
X103451Y-14991D01*
X103535Y-14789D01*
X103689Y-14635D01*
X103891Y-14551D01*
X104109Y-14551D01*
X104311Y-14635D01*
X104465Y-14789D01*
X104549Y-14991D01*
X104549Y-15209D01*
X104465Y-15411D01*
X104434Y-15441D01*
X104725Y-15732D01*
X104725Y-15732D01*
G37*
G54D26*
X104725Y-15732D02*
X104725Y-11875D01*
X64588Y-11875D01*
X64739Y-12026D01*
X64959Y-12026D01*
X65161Y-12110D01*
X65315Y-12264D01*
X65399Y-12466D01*
X65399Y-12522D01*
X66045Y-12522D01*
X66136Y-12560D01*
X66206Y-12630D01*
X66244Y-12722D01*
X66244Y-13331D01*
X66215Y-13400D01*
X66244Y-13470D01*
X66244Y-14079D01*
X66206Y-14170D01*
X66136Y-14240D01*
X66044Y-14278D01*
X66010Y-14278D01*
X66010Y-14644D01*
X65986Y-14763D01*
X65919Y-14864D01*
X65910Y-14872D01*
X68343Y-14872D01*
X68251Y-14648D01*
X68251Y-14350D01*
X68366Y-14075D01*
X68577Y-13865D01*
X68852Y-13751D01*
X69150Y-13751D01*
X69425Y-13866D01*
X69635Y-14077D01*
X69665Y-14150D01*
X71290Y-14150D01*
X71290Y-14050D01*
X70905Y-13890D01*
X70610Y-13594D01*
X70450Y-13208D01*
X70450Y-12790D01*
X70610Y-12405D01*
X70906Y-12110D01*
X71292Y-11950D01*
X71710Y-11950D01*
X72095Y-12110D01*
X72390Y-12406D01*
X72550Y-12792D01*
X72550Y-13210D01*
X72390Y-13595D01*
X72094Y-13890D01*
X71708Y-14050D01*
X71290Y-14050D01*
X71290Y-14150D01*
X72834Y-14150D01*
X72866Y-14075D01*
X73077Y-13865D01*
X73352Y-13751D01*
X73650Y-13751D01*
X73925Y-13866D01*
X74135Y-14077D01*
X74249Y-14352D01*
X74249Y-14650D01*
X74156Y-14872D01*
X77343Y-14872D01*
X77251Y-14648D01*
X77251Y-14350D01*
X77366Y-14075D01*
X77577Y-13865D01*
X77852Y-13751D01*
X78150Y-13751D01*
X78425Y-13866D01*
X78635Y-14077D01*
X78749Y-14352D01*
X78749Y-14650D01*
X78656Y-14872D01*
X81843Y-14872D01*
X81751Y-14648D01*
X81751Y-14350D01*
X81866Y-14075D01*
X82077Y-13865D01*
X82352Y-13751D01*
X82650Y-13751D01*
X82925Y-13866D01*
X83135Y-14077D01*
X83249Y-14352D01*
X83249Y-14650D01*
X83156Y-14872D01*
X86343Y-14872D01*
X86251Y-14648D01*
X86251Y-14350D01*
X86366Y-14075D01*
X86577Y-13865D01*
X86852Y-13751D01*
X87150Y-13751D01*
X87425Y-13866D01*
X87635Y-14077D01*
X87749Y-14352D01*
X87749Y-14650D01*
X87656Y-14872D01*
X90943Y-14872D01*
X90851Y-14648D01*
X90851Y-14350D01*
X90966Y-14075D01*
X91177Y-13865D01*
X91452Y-13751D01*
X91750Y-13751D01*
X92025Y-13866D01*
X92235Y-14077D01*
X92349Y-14352D01*
X92349Y-14650D01*
X92256Y-14872D01*
X95343Y-14872D01*
X95251Y-14648D01*
X95251Y-14350D01*
X95366Y-14075D01*
X95577Y-13865D01*
X95852Y-13751D01*
X96150Y-13751D01*
X96425Y-13866D01*
X96635Y-14077D01*
X96749Y-14352D01*
X96749Y-14650D01*
X96656Y-14872D01*
X99843Y-14872D01*
X99751Y-14648D01*
X99751Y-14350D01*
X99866Y-14075D01*
X100077Y-13865D01*
X100352Y-13751D01*
X100650Y-13751D01*
X100925Y-13866D01*
X101135Y-14077D01*
X101249Y-14352D01*
X101249Y-14650D01*
X101156Y-14872D01*
X102717Y-14872D01*
X102836Y-14896D01*
X102936Y-14963D01*
X103276Y-15303D01*
X103290Y-15303D01*
X103290Y-14050D01*
X102905Y-13890D01*
X102610Y-13594D01*
X102450Y-13208D01*
X102450Y-12790D01*
X102610Y-12405D01*
X102906Y-12110D01*
X103292Y-11950D01*
X103710Y-11950D01*
X104095Y-12110D01*
X104390Y-12406D01*
X104550Y-12792D01*
X104550Y-13210D01*
X104390Y-13595D01*
X104094Y-13890D01*
X103708Y-14050D01*
X103290Y-14050D01*
X103290Y-15303D01*
X103490Y-15303D01*
X103451Y-15209D01*
X103451Y-14991D01*
X103535Y-14789D01*
X103689Y-14635D01*
X103891Y-14551D01*
X104109Y-14551D01*
X104311Y-14635D01*
X104465Y-14789D01*
X104549Y-14991D01*
X104549Y-15209D01*
X104465Y-15411D01*
X104434Y-15441D01*
X104725Y-15732D01*
G54D10*
G36*
X54127Y-15419D02*
X54212Y-15335D01*
X54368Y-15271D01*
X54438Y-15271D01*
X54538Y-15205D01*
X54657Y-15181D01*
X55051Y-15181D01*
X55051Y-13864D01*
X54904Y-13925D01*
X54695Y-13925D01*
X54502Y-13845D01*
X54355Y-13697D01*
X54275Y-13504D01*
X54275Y-13438D01*
X53960Y-13123D01*
X53959Y-13124D01*
X53853Y-13124D01*
X53939Y-13210D01*
X54003Y-13366D01*
X54003Y-13535D01*
X53938Y-13691D01*
X53853Y-13776D01*
X53959Y-13776D01*
X54161Y-13860D01*
X54315Y-14014D01*
X54399Y-14216D01*
X54399Y-14434D01*
X54315Y-14636D01*
X54161Y-14790D01*
X53959Y-14874D01*
X53741Y-14874D01*
X53539Y-14790D01*
X53447Y-14698D01*
X53434Y-14713D01*
X53424Y-14716D01*
X54127Y-15419D01*
X54127Y-15419D01*
G37*
G54D26*
X54127Y-15419D02*
X54212Y-15335D01*
X54368Y-15271D01*
X54438Y-15271D01*
X54538Y-15205D01*
X54657Y-15181D01*
X55051Y-15181D01*
X55051Y-13864D01*
X54904Y-13925D01*
X54695Y-13925D01*
X54502Y-13845D01*
X54355Y-13697D01*
X54275Y-13504D01*
X54275Y-13438D01*
X53960Y-13123D01*
X53959Y-13124D01*
X53853Y-13124D01*
X53939Y-13210D01*
X54003Y-13366D01*
X54003Y-13535D01*
X53938Y-13691D01*
X53853Y-13776D01*
X53959Y-13776D01*
X54161Y-13860D01*
X54315Y-14014D01*
X54399Y-14216D01*
X54399Y-14434D01*
X54315Y-14636D01*
X54161Y-14790D01*
X53959Y-14874D01*
X53741Y-14874D01*
X53539Y-14790D01*
X53447Y-14698D01*
X53434Y-14713D01*
X53424Y-14716D01*
X54127Y-15419D01*
G54D10*
G36*
X61329Y-15181D02*
X61271Y-15123D01*
X56264Y-15123D01*
X56145Y-15099D01*
X56045Y-15032D01*
X56011Y-14998D01*
X55944Y-14898D01*
X55920Y-14779D01*
X55920Y-13931D01*
X55921Y-13924D01*
X55671Y-13924D01*
X55671Y-15181D01*
X61329Y-15181D01*
X61329Y-15181D01*
G37*
G54D26*
X61329Y-15181D02*
X61271Y-15123D01*
X56264Y-15123D01*
X56145Y-15099D01*
X56045Y-15032D01*
X56011Y-14998D01*
X55944Y-14898D01*
X55920Y-14779D01*
X55920Y-13931D01*
X55921Y-13924D01*
X55671Y-13924D01*
X55671Y-15181D01*
X61329Y-15181D01*
G54D10*
G36*
X52302Y-15156D02*
X52356Y-15027D01*
X52235Y-15027D01*
X52168Y-15094D01*
X52168Y-15156D01*
X52302Y-15156D01*
X52302Y-15156D01*
G37*
G54D26*
X52302Y-15156D02*
X52356Y-15027D01*
X52235Y-15027D01*
X52168Y-15094D01*
X52168Y-15156D01*
X52302Y-15156D01*
G54D10*
G36*
X72843Y-14872D02*
X72834Y-14850D01*
X69665Y-14850D01*
X69656Y-14872D01*
X72843Y-14872D01*
X72843Y-14872D01*
G37*
G54D26*
X72843Y-14872D02*
X72834Y-14850D01*
X69665Y-14850D01*
X69656Y-14872D01*
X72843Y-14872D01*
G54D10*
G36*
X61090Y-14503D02*
X61090Y-14278D01*
X61055Y-14278D01*
X60964Y-14240D01*
X60894Y-14170D01*
X60856Y-14078D01*
X60856Y-13469D01*
X60884Y-13399D01*
X60856Y-13330D01*
X60856Y-12721D01*
X60894Y-12630D01*
X60964Y-12560D01*
X61056Y-12522D01*
X61745Y-12522D01*
X61751Y-12524D01*
X61751Y-12466D01*
X61827Y-12283D01*
X59980Y-12283D01*
X59798Y-12464D01*
X59799Y-12466D01*
X59799Y-12684D01*
X59715Y-12886D01*
X59561Y-13040D01*
X59359Y-13124D01*
X59141Y-13124D01*
X58944Y-13042D01*
X58944Y-13331D01*
X58915Y-13400D01*
X58944Y-13470D01*
X58944Y-13857D01*
X59141Y-13776D01*
X59359Y-13776D01*
X59561Y-13860D01*
X59715Y-14014D01*
X59799Y-14216D01*
X59799Y-14434D01*
X59770Y-14503D01*
X61090Y-14503D01*
X61090Y-14503D01*
G37*
G54D26*
X61090Y-14503D02*
X61090Y-14278D01*
X61055Y-14278D01*
X60964Y-14240D01*
X60894Y-14170D01*
X60856Y-14078D01*
X60856Y-13469D01*
X60884Y-13399D01*
X60856Y-13330D01*
X60856Y-12721D01*
X60894Y-12630D01*
X60964Y-12560D01*
X61056Y-12522D01*
X61745Y-12522D01*
X61751Y-12524D01*
X61751Y-12466D01*
X61827Y-12283D01*
X59980Y-12283D01*
X59798Y-12464D01*
X59799Y-12466D01*
X59799Y-12684D01*
X59715Y-12886D01*
X59561Y-13040D01*
X59359Y-13124D01*
X59141Y-13124D01*
X58944Y-13042D01*
X58944Y-13331D01*
X58915Y-13400D01*
X58944Y-13470D01*
X58944Y-13857D01*
X59141Y-13776D01*
X59359Y-13776D01*
X59561Y-13860D01*
X59715Y-14014D01*
X59799Y-14216D01*
X59799Y-14434D01*
X59770Y-14503D01*
X61090Y-14503D01*
G54D10*
G36*
X58729Y-14503D02*
X58701Y-14434D01*
X58701Y-14278D01*
X58692Y-14278D01*
X58686Y-14312D01*
X58619Y-14413D01*
X58528Y-14503D01*
X58729Y-14503D01*
X58729Y-14503D01*
G37*
G54D26*
X58729Y-14503D02*
X58701Y-14434D01*
X58701Y-14278D01*
X58692Y-14278D01*
X58686Y-14312D01*
X58619Y-14413D01*
X58528Y-14503D01*
X58729Y-14503D01*
G54D10*
G36*
X65390Y-14488D02*
X65390Y-14455D01*
X65376Y-14488D01*
X65390Y-14488D01*
X65390Y-14488D01*
G37*
G54D26*
X65390Y-14488D02*
X65390Y-14455D01*
X65376Y-14488D01*
X65390Y-14488D01*
G54D10*
G36*
X64323Y-14488D02*
X64301Y-14434D01*
X64301Y-14278D01*
X64292Y-14278D01*
X64286Y-14312D01*
X64219Y-14413D01*
X64143Y-14488D01*
X64323Y-14488D01*
X64323Y-14488D01*
G37*
G54D26*
X64323Y-14488D02*
X64301Y-14434D01*
X64301Y-14278D01*
X64292Y-14278D01*
X64286Y-14312D01*
X64219Y-14413D01*
X64143Y-14488D01*
X64323Y-14488D01*
G54D10*
G36*
X16220Y-14284D02*
X16888Y-13617D01*
X16988Y-13550D01*
X17107Y-13526D01*
X43536Y-13526D01*
X43585Y-13536D01*
X43450Y-13208D01*
X43450Y-12790D01*
X43610Y-12405D01*
X43751Y-12264D01*
X17234Y-12264D01*
X15718Y-13780D01*
X15924Y-13866D01*
X16134Y-14077D01*
X16220Y-14284D01*
X16220Y-14284D01*
G37*
G54D26*
X16220Y-14284D02*
X16888Y-13617D01*
X16988Y-13550D01*
X17107Y-13526D01*
X43536Y-13526D01*
X43585Y-13536D01*
X43450Y-13208D01*
X43450Y-12790D01*
X43610Y-12405D01*
X43751Y-12264D01*
X17234Y-12264D01*
X15718Y-13780D01*
X15924Y-13866D01*
X16134Y-14077D01*
X16220Y-14284D01*
G54D10*
G36*
X43411Y-14150D02*
X43407Y-14146D01*
X43163Y-14146D01*
X43165Y-14150D01*
X43411Y-14150D01*
X43411Y-14150D01*
G37*
G54D26*
X43411Y-14150D02*
X43407Y-14146D01*
X43163Y-14146D01*
X43165Y-14150D01*
X43411Y-14150D01*
G54D10*
G36*
X50944Y-13905D02*
X50989Y-13860D01*
X51191Y-13776D01*
X51409Y-13776D01*
X51556Y-13837D01*
X51556Y-13503D01*
X51511Y-13548D01*
X51355Y-13612D01*
X51186Y-13612D01*
X51030Y-13547D01*
X50970Y-13487D01*
X50944Y-13481D01*
X50944Y-13905D01*
X50944Y-13905D01*
G37*
G54D26*
X50944Y-13905D02*
X50989Y-13860D01*
X51191Y-13776D01*
X51409Y-13776D01*
X51556Y-13837D01*
X51556Y-13503D01*
X51511Y-13548D01*
X51355Y-13612D01*
X51186Y-13612D01*
X51030Y-13547D01*
X50970Y-13487D01*
X50944Y-13481D01*
X50944Y-13905D01*
G54D10*
G36*
X65156Y-13857D02*
X65156Y-13469D01*
X65184Y-13399D01*
X65166Y-13356D01*
X64533Y-13356D01*
X64515Y-13400D01*
X64544Y-13470D01*
X64544Y-13857D01*
X64741Y-13776D01*
X64959Y-13776D01*
X65156Y-13857D01*
X65156Y-13857D01*
G37*
G54D26*
X65156Y-13857D02*
X65156Y-13469D01*
X65184Y-13399D01*
X65166Y-13356D01*
X64533Y-13356D01*
X64515Y-13400D01*
X64544Y-13470D01*
X64544Y-13857D01*
X64741Y-13776D01*
X64959Y-13776D01*
X65156Y-13857D01*
G54D10*
G36*
X61944Y-13577D02*
X61966Y-13555D01*
X62067Y-13488D01*
X62186Y-13464D01*
X62558Y-13464D01*
X62584Y-13399D01*
X62568Y-13361D01*
X61931Y-13361D01*
X61915Y-13400D01*
X61944Y-13470D01*
X61944Y-13577D01*
X61944Y-13577D01*
G37*
G54D26*
X61944Y-13577D02*
X61966Y-13555D01*
X62067Y-13488D01*
X62186Y-13464D01*
X62558Y-13464D01*
X62584Y-13399D01*
X62568Y-13361D01*
X61931Y-13361D01*
X61915Y-13400D01*
X61944Y-13470D01*
X61944Y-13577D01*
G54D10*
G36*
X56956Y-13319D02*
X56956Y-13062D01*
X56814Y-13121D01*
X56832Y-13148D01*
X56856Y-13267D01*
X56856Y-13305D01*
X56883Y-13305D01*
X56956Y-13319D01*
X56956Y-13319D01*
G37*
G54D26*
X56956Y-13319D02*
X56956Y-13062D01*
X56814Y-13121D01*
X56832Y-13148D01*
X56856Y-13267D01*
X56856Y-13305D01*
X56883Y-13305D01*
X56956Y-13319D01*
G54D10*
G36*
X45550Y-13199D02*
X46485Y-12264D01*
X45248Y-12264D01*
X45390Y-12406D01*
X45550Y-12792D01*
X45550Y-13199D01*
X45550Y-13199D01*
G37*
G54D26*
X45550Y-13199D02*
X46485Y-12264D01*
X45248Y-12264D01*
X45390Y-12406D01*
X45550Y-12792D01*
X45550Y-13199D01*
G54D10*
G36*
X55378Y-12919D02*
X55384Y-12914D01*
X55476Y-12876D01*
X55717Y-12876D01*
X55181Y-12340D01*
X54903Y-12340D01*
X54927Y-12398D01*
X54927Y-12468D01*
X55378Y-12919D01*
X55378Y-12919D01*
G37*
G54D26*
X55378Y-12919D02*
X55384Y-12914D01*
X55476Y-12876D01*
X55717Y-12876D01*
X55181Y-12340D01*
X54903Y-12340D01*
X54927Y-12398D01*
X54927Y-12468D01*
X55378Y-12919D01*
G54D10*
G36*
X63550Y-12574D02*
X63564Y-12560D01*
X63656Y-12522D01*
X64301Y-12522D01*
X64301Y-12464D01*
X64120Y-12283D01*
X62772Y-12283D01*
X62849Y-12466D01*
X62849Y-12522D01*
X63445Y-12522D01*
X63536Y-12560D01*
X63550Y-12574D01*
X63550Y-12574D01*
G37*
G54D26*
X63550Y-12574D02*
X63564Y-12560D01*
X63656Y-12522D01*
X64301Y-12522D01*
X64301Y-12464D01*
X64120Y-12283D01*
X62772Y-12283D01*
X62849Y-12466D01*
X62849Y-12522D01*
X63445Y-12522D01*
X63536Y-12560D01*
X63550Y-12574D01*
G54D10*
G36*
X57950Y-12573D02*
X57964Y-12560D01*
X58056Y-12522D01*
X58701Y-12522D01*
X58701Y-12466D01*
X58785Y-12264D01*
X58939Y-12110D01*
X59141Y-12026D01*
X59360Y-12026D01*
X59512Y-11875D01*
X55592Y-11875D01*
X56160Y-12443D01*
X56235Y-12264D01*
X56389Y-12110D01*
X56591Y-12026D01*
X56809Y-12026D01*
X57011Y-12110D01*
X57165Y-12264D01*
X57249Y-12466D01*
X57249Y-12522D01*
X57845Y-12522D01*
X57936Y-12560D01*
X57950Y-12573D01*
X57950Y-12573D01*
G37*
G54D26*
X57950Y-12573D02*
X57964Y-12560D01*
X58056Y-12522D01*
X58701Y-12522D01*
X58701Y-12466D01*
X58785Y-12264D01*
X58939Y-12110D01*
X59141Y-12026D01*
X59360Y-12026D01*
X59512Y-11875D01*
X55592Y-11875D01*
X56160Y-12443D01*
X56235Y-12264D01*
X56389Y-12110D01*
X56591Y-12026D01*
X56809Y-12026D01*
X57011Y-12110D01*
X57165Y-12264D01*
X57249Y-12466D01*
X57249Y-12522D01*
X57845Y-12522D01*
X57936Y-12560D01*
X57950Y-12573D01*
G54D10*
G36*
X52550Y-12573D02*
X52564Y-12560D01*
X52656Y-12522D01*
X53301Y-12522D01*
X53301Y-12466D01*
X53353Y-12340D01*
X52410Y-12340D01*
X52410Y-12522D01*
X52445Y-12522D01*
X52536Y-12560D01*
X52550Y-12573D01*
X52550Y-12573D01*
G37*
G54D26*
X52550Y-12573D02*
X52564Y-12560D01*
X52656Y-12522D01*
X53301Y-12522D01*
X53301Y-12466D01*
X53353Y-12340D01*
X52410Y-12340D01*
X52410Y-12522D01*
X52445Y-12522D01*
X52536Y-12560D01*
X52550Y-12573D01*
G54D10*
G36*
X50751Y-12524D02*
X50751Y-12466D01*
X50835Y-12264D01*
X50586Y-12264D01*
X50623Y-12354D01*
X50623Y-12522D01*
X50745Y-12522D01*
X50751Y-12524D01*
X50751Y-12524D01*
G37*
G54D26*
X50751Y-12524D02*
X50751Y-12466D01*
X50835Y-12264D01*
X50586Y-12264D01*
X50623Y-12354D01*
X50623Y-12522D01*
X50745Y-12522D01*
X50751Y-12524D01*
G54D10*
G36*
X51790Y-12324D02*
X51790Y-12264D01*
X51765Y-12264D01*
X51790Y-12324D01*
X51790Y-12324D01*
G37*
G54D26*
X51790Y-12324D02*
X51790Y-12264D01*
X51765Y-12264D01*
X51790Y-12324D01*
M02*
