G04 (created by PCBNEW-RS274X (2010-04-21 BZR 23xx)-stable) date Mon 21 Mar 2011 07:44:04 PM CET*
G01*
G70*
G90*
%MOIN*%
G04 Gerber Fmt 3.4, Leading zero omitted, Abs format*
%FSLAX34Y34*%
G04 APERTURE LIST*
%ADD10C,0.006000*%
%ADD11C,0.015000*%
%ADD12C,0.008000*%
%ADD13C,0.012000*%
%ADD14C,0.002600*%
%ADD15C,0.007800*%
%ADD16C,0.002000*%
%ADD17C,0.004000*%
G04 APERTURE END LIST*
G54D10*
G54D11*
X12700Y-16800D02*
X12700Y-18400D01*
X12700Y-14800D02*
X12700Y-16400D01*
X103300Y-16800D02*
X103300Y-18400D01*
X103300Y-14800D02*
X103300Y-16400D01*
G54D12*
X65802Y-15495D02*
X66302Y-15329D01*
X65802Y-15162D01*
X66279Y-14781D02*
X66302Y-14828D01*
X66302Y-14924D01*
X66279Y-14971D01*
X66255Y-14995D01*
X66207Y-15019D01*
X66064Y-15019D01*
X66017Y-14995D01*
X65993Y-14971D01*
X65969Y-14924D01*
X65969Y-14828D01*
X65993Y-14781D01*
X66279Y-14352D02*
X66302Y-14399D01*
X66302Y-14495D01*
X66279Y-14542D01*
X66255Y-14566D01*
X66207Y-14590D01*
X66064Y-14590D01*
X66017Y-14566D01*
X65993Y-14542D01*
X65969Y-14495D01*
X65969Y-14399D01*
X65993Y-14352D01*
X64419Y-15026D02*
X64371Y-15002D01*
X64300Y-15002D01*
X64228Y-15026D01*
X64181Y-15074D01*
X64157Y-15121D01*
X64133Y-15217D01*
X64133Y-15288D01*
X64157Y-15383D01*
X64181Y-15431D01*
X64228Y-15479D01*
X64300Y-15502D01*
X64348Y-15502D01*
X64419Y-15479D01*
X64443Y-15455D01*
X64443Y-15288D01*
X64348Y-15288D01*
X64657Y-15502D02*
X64657Y-15002D01*
X64943Y-15502D01*
X64943Y-15002D01*
X65181Y-15502D02*
X65181Y-15002D01*
X65300Y-15002D01*
X65372Y-15026D01*
X65419Y-15074D01*
X65443Y-15121D01*
X65467Y-15217D01*
X65467Y-15288D01*
X65443Y-15383D01*
X65419Y-15431D01*
X65372Y-15479D01*
X65300Y-15502D01*
X65181Y-15502D01*
X63955Y-15502D02*
X63788Y-15264D01*
X63669Y-15502D02*
X63669Y-15002D01*
X63860Y-15002D01*
X63907Y-15026D01*
X63931Y-15050D01*
X63955Y-15098D01*
X63955Y-15169D01*
X63931Y-15217D01*
X63907Y-15240D01*
X63860Y-15264D01*
X63669Y-15264D01*
X62217Y-15502D02*
X62217Y-15002D01*
X62408Y-15002D01*
X62455Y-15026D01*
X62479Y-15050D01*
X62503Y-15098D01*
X62503Y-15169D01*
X62479Y-15217D01*
X62455Y-15240D01*
X62408Y-15264D01*
X62217Y-15264D01*
X62693Y-15360D02*
X62931Y-15360D01*
X62646Y-15502D02*
X62812Y-15002D01*
X62979Y-15502D01*
X63098Y-15002D02*
X63432Y-15002D01*
X63217Y-15502D01*
X61702Y-15483D02*
X61202Y-15483D01*
X61202Y-15292D01*
X61226Y-15245D01*
X61250Y-15221D01*
X61298Y-15197D01*
X61369Y-15197D01*
X61417Y-15221D01*
X61440Y-15245D01*
X61464Y-15292D01*
X61464Y-15483D01*
X61560Y-15007D02*
X61560Y-14769D01*
X61702Y-15054D02*
X61202Y-14888D01*
X61702Y-14721D01*
X61202Y-14602D02*
X61202Y-14292D01*
X61393Y-14459D01*
X61393Y-14387D01*
X61417Y-14340D01*
X61440Y-14316D01*
X61488Y-14292D01*
X61607Y-14292D01*
X61655Y-14316D01*
X61679Y-14340D01*
X61702Y-14387D01*
X61702Y-14530D01*
X61679Y-14578D01*
X61655Y-14602D01*
X60802Y-15483D02*
X60302Y-15483D01*
X60302Y-15292D01*
X60326Y-15245D01*
X60350Y-15221D01*
X60398Y-15197D01*
X60469Y-15197D01*
X60517Y-15221D01*
X60540Y-15245D01*
X60564Y-15292D01*
X60564Y-15483D01*
X60660Y-15007D02*
X60660Y-14769D01*
X60802Y-15054D02*
X60302Y-14888D01*
X60802Y-14721D01*
X60350Y-14578D02*
X60326Y-14554D01*
X60302Y-14506D01*
X60302Y-14387D01*
X60326Y-14340D01*
X60350Y-14316D01*
X60398Y-14292D01*
X60445Y-14292D01*
X60517Y-14316D01*
X60802Y-14602D01*
X60802Y-14292D01*
G54D11*
X89650Y-21800D02*
X89649Y-21809D01*
X89646Y-21819D01*
X89641Y-21827D01*
X89635Y-21835D01*
X89627Y-21841D01*
X89619Y-21846D01*
X89610Y-21848D01*
X89600Y-21849D01*
X89591Y-21849D01*
X89582Y-21846D01*
X89573Y-21841D01*
X89566Y-21835D01*
X89559Y-21828D01*
X89555Y-21819D01*
X89552Y-21810D01*
X89551Y-21800D01*
X89551Y-21791D01*
X89554Y-21782D01*
X89558Y-21773D01*
X89565Y-21766D01*
X89572Y-21759D01*
X89580Y-21755D01*
X89590Y-21752D01*
X89599Y-21751D01*
X89608Y-21751D01*
X89618Y-21754D01*
X89626Y-21758D01*
X89634Y-21764D01*
X89640Y-21772D01*
X89645Y-21780D01*
X89648Y-21789D01*
X89649Y-21799D01*
X89650Y-21800D01*
X89900Y-21800D02*
X89899Y-21809D01*
X89896Y-21819D01*
X89891Y-21827D01*
X89885Y-21835D01*
X89877Y-21841D01*
X89869Y-21846D01*
X89860Y-21848D01*
X89850Y-21849D01*
X89841Y-21849D01*
X89832Y-21846D01*
X89823Y-21841D01*
X89816Y-21835D01*
X89809Y-21828D01*
X89805Y-21819D01*
X89802Y-21810D01*
X89801Y-21800D01*
X89801Y-21791D01*
X89804Y-21782D01*
X89808Y-21773D01*
X89815Y-21766D01*
X89822Y-21759D01*
X89830Y-21755D01*
X89840Y-21752D01*
X89849Y-21751D01*
X89858Y-21751D01*
X89868Y-21754D01*
X89876Y-21758D01*
X89884Y-21764D01*
X89890Y-21772D01*
X89895Y-21780D01*
X89898Y-21789D01*
X89899Y-21799D01*
X89900Y-21800D01*
X89650Y-22050D02*
X89649Y-22059D01*
X89646Y-22069D01*
X89641Y-22077D01*
X89635Y-22085D01*
X89627Y-22091D01*
X89619Y-22096D01*
X89610Y-22098D01*
X89600Y-22099D01*
X89591Y-22099D01*
X89582Y-22096D01*
X89573Y-22091D01*
X89566Y-22085D01*
X89559Y-22078D01*
X89555Y-22069D01*
X89552Y-22060D01*
X89551Y-22050D01*
X89551Y-22041D01*
X89554Y-22032D01*
X89558Y-22023D01*
X89565Y-22016D01*
X89572Y-22009D01*
X89580Y-22005D01*
X89590Y-22002D01*
X89599Y-22001D01*
X89608Y-22001D01*
X89618Y-22004D01*
X89626Y-22008D01*
X89634Y-22014D01*
X89640Y-22022D01*
X89645Y-22030D01*
X89648Y-22039D01*
X89649Y-22049D01*
X89650Y-22050D01*
X89900Y-22050D02*
X89899Y-22059D01*
X89896Y-22069D01*
X89891Y-22077D01*
X89885Y-22085D01*
X89877Y-22091D01*
X89869Y-22096D01*
X89860Y-22098D01*
X89850Y-22099D01*
X89841Y-22099D01*
X89832Y-22096D01*
X89823Y-22091D01*
X89816Y-22085D01*
X89809Y-22078D01*
X89805Y-22069D01*
X89802Y-22060D01*
X89801Y-22050D01*
X89801Y-22041D01*
X89804Y-22032D01*
X89808Y-22023D01*
X89815Y-22016D01*
X89822Y-22009D01*
X89830Y-22005D01*
X89840Y-22002D01*
X89849Y-22001D01*
X89858Y-22001D01*
X89868Y-22004D01*
X89876Y-22008D01*
X89884Y-22014D01*
X89890Y-22022D01*
X89895Y-22030D01*
X89898Y-22039D01*
X89899Y-22049D01*
X89900Y-22050D01*
X88900Y-22050D02*
X88899Y-22059D01*
X88896Y-22069D01*
X88891Y-22077D01*
X88885Y-22085D01*
X88877Y-22091D01*
X88869Y-22096D01*
X88860Y-22098D01*
X88850Y-22099D01*
X88841Y-22099D01*
X88832Y-22096D01*
X88823Y-22091D01*
X88816Y-22085D01*
X88809Y-22078D01*
X88805Y-22069D01*
X88802Y-22060D01*
X88801Y-22050D01*
X88801Y-22041D01*
X88804Y-22032D01*
X88808Y-22023D01*
X88815Y-22016D01*
X88822Y-22009D01*
X88830Y-22005D01*
X88840Y-22002D01*
X88849Y-22001D01*
X88858Y-22001D01*
X88868Y-22004D01*
X88876Y-22008D01*
X88884Y-22014D01*
X88890Y-22022D01*
X88895Y-22030D01*
X88898Y-22039D01*
X88899Y-22049D01*
X88900Y-22050D01*
X88650Y-22050D02*
X88649Y-22059D01*
X88646Y-22069D01*
X88641Y-22077D01*
X88635Y-22085D01*
X88627Y-22091D01*
X88619Y-22096D01*
X88610Y-22098D01*
X88600Y-22099D01*
X88591Y-22099D01*
X88582Y-22096D01*
X88573Y-22091D01*
X88566Y-22085D01*
X88559Y-22078D01*
X88555Y-22069D01*
X88552Y-22060D01*
X88551Y-22050D01*
X88551Y-22041D01*
X88554Y-22032D01*
X88558Y-22023D01*
X88565Y-22016D01*
X88572Y-22009D01*
X88580Y-22005D01*
X88590Y-22002D01*
X88599Y-22001D01*
X88608Y-22001D01*
X88618Y-22004D01*
X88626Y-22008D01*
X88634Y-22014D01*
X88640Y-22022D01*
X88645Y-22030D01*
X88648Y-22039D01*
X88649Y-22049D01*
X88650Y-22050D01*
X88650Y-21800D02*
X88649Y-21809D01*
X88646Y-21819D01*
X88641Y-21827D01*
X88635Y-21835D01*
X88627Y-21841D01*
X88619Y-21846D01*
X88610Y-21848D01*
X88600Y-21849D01*
X88591Y-21849D01*
X88582Y-21846D01*
X88573Y-21841D01*
X88566Y-21835D01*
X88559Y-21828D01*
X88555Y-21819D01*
X88552Y-21810D01*
X88551Y-21800D01*
X88551Y-21791D01*
X88554Y-21782D01*
X88558Y-21773D01*
X88565Y-21766D01*
X88572Y-21759D01*
X88580Y-21755D01*
X88590Y-21752D01*
X88599Y-21751D01*
X88608Y-21751D01*
X88618Y-21754D01*
X88626Y-21758D01*
X88634Y-21764D01*
X88640Y-21772D01*
X88645Y-21780D01*
X88648Y-21789D01*
X88649Y-21799D01*
X88650Y-21800D01*
X88900Y-21800D02*
X88899Y-21809D01*
X88896Y-21819D01*
X88891Y-21827D01*
X88885Y-21835D01*
X88877Y-21841D01*
X88869Y-21846D01*
X88860Y-21848D01*
X88850Y-21849D01*
X88841Y-21849D01*
X88832Y-21846D01*
X88823Y-21841D01*
X88816Y-21835D01*
X88809Y-21828D01*
X88805Y-21819D01*
X88802Y-21810D01*
X88801Y-21800D01*
X88801Y-21791D01*
X88804Y-21782D01*
X88808Y-21773D01*
X88815Y-21766D01*
X88822Y-21759D01*
X88830Y-21755D01*
X88840Y-21752D01*
X88849Y-21751D01*
X88858Y-21751D01*
X88868Y-21754D01*
X88876Y-21758D01*
X88884Y-21764D01*
X88890Y-21772D01*
X88895Y-21780D01*
X88898Y-21789D01*
X88899Y-21799D01*
X88900Y-21800D01*
X89150Y-22550D02*
X89149Y-22559D01*
X89146Y-22569D01*
X89141Y-22577D01*
X89135Y-22585D01*
X89127Y-22591D01*
X89119Y-22596D01*
X89110Y-22598D01*
X89100Y-22599D01*
X89091Y-22599D01*
X89082Y-22596D01*
X89073Y-22591D01*
X89066Y-22585D01*
X89059Y-22578D01*
X89055Y-22569D01*
X89052Y-22560D01*
X89051Y-22550D01*
X89051Y-22541D01*
X89054Y-22532D01*
X89058Y-22523D01*
X89065Y-22516D01*
X89072Y-22509D01*
X89080Y-22505D01*
X89090Y-22502D01*
X89099Y-22501D01*
X89108Y-22501D01*
X89118Y-22504D01*
X89126Y-22508D01*
X89134Y-22514D01*
X89140Y-22522D01*
X89145Y-22530D01*
X89148Y-22539D01*
X89149Y-22549D01*
X89150Y-22550D01*
X89400Y-22550D02*
X89399Y-22559D01*
X89396Y-22569D01*
X89391Y-22577D01*
X89385Y-22585D01*
X89377Y-22591D01*
X89369Y-22596D01*
X89360Y-22598D01*
X89350Y-22599D01*
X89341Y-22599D01*
X89332Y-22596D01*
X89323Y-22591D01*
X89316Y-22585D01*
X89309Y-22578D01*
X89305Y-22569D01*
X89302Y-22560D01*
X89301Y-22550D01*
X89301Y-22541D01*
X89304Y-22532D01*
X89308Y-22523D01*
X89315Y-22516D01*
X89322Y-22509D01*
X89330Y-22505D01*
X89340Y-22502D01*
X89349Y-22501D01*
X89358Y-22501D01*
X89368Y-22504D01*
X89376Y-22508D01*
X89384Y-22514D01*
X89390Y-22522D01*
X89395Y-22530D01*
X89398Y-22539D01*
X89399Y-22549D01*
X89400Y-22550D01*
X89150Y-22800D02*
X89149Y-22809D01*
X89146Y-22819D01*
X89141Y-22827D01*
X89135Y-22835D01*
X89127Y-22841D01*
X89119Y-22846D01*
X89110Y-22848D01*
X89100Y-22849D01*
X89091Y-22849D01*
X89082Y-22846D01*
X89073Y-22841D01*
X89066Y-22835D01*
X89059Y-22828D01*
X89055Y-22819D01*
X89052Y-22810D01*
X89051Y-22800D01*
X89051Y-22791D01*
X89054Y-22782D01*
X89058Y-22773D01*
X89065Y-22766D01*
X89072Y-22759D01*
X89080Y-22755D01*
X89090Y-22752D01*
X89099Y-22751D01*
X89108Y-22751D01*
X89118Y-22754D01*
X89126Y-22758D01*
X89134Y-22764D01*
X89140Y-22772D01*
X89145Y-22780D01*
X89148Y-22789D01*
X89149Y-22799D01*
X89150Y-22800D01*
X89400Y-22800D02*
X89399Y-22809D01*
X89396Y-22819D01*
X89391Y-22827D01*
X89385Y-22835D01*
X89377Y-22841D01*
X89369Y-22846D01*
X89360Y-22848D01*
X89350Y-22849D01*
X89341Y-22849D01*
X89332Y-22846D01*
X89323Y-22841D01*
X89316Y-22835D01*
X89309Y-22828D01*
X89305Y-22819D01*
X89302Y-22810D01*
X89301Y-22800D01*
X89301Y-22791D01*
X89304Y-22782D01*
X89308Y-22773D01*
X89315Y-22766D01*
X89322Y-22759D01*
X89330Y-22755D01*
X89340Y-22752D01*
X89349Y-22751D01*
X89358Y-22751D01*
X89368Y-22754D01*
X89376Y-22758D01*
X89384Y-22764D01*
X89390Y-22772D01*
X89395Y-22780D01*
X89398Y-22789D01*
X89399Y-22799D01*
X89400Y-22800D01*
X89150Y-23300D02*
X89149Y-23309D01*
X89146Y-23319D01*
X89141Y-23327D01*
X89135Y-23335D01*
X89127Y-23341D01*
X89119Y-23346D01*
X89110Y-23348D01*
X89100Y-23349D01*
X89091Y-23349D01*
X89082Y-23346D01*
X89073Y-23341D01*
X89066Y-23335D01*
X89059Y-23328D01*
X89055Y-23319D01*
X89052Y-23310D01*
X89051Y-23300D01*
X89051Y-23291D01*
X89054Y-23282D01*
X89058Y-23273D01*
X89065Y-23266D01*
X89072Y-23259D01*
X89080Y-23255D01*
X89090Y-23252D01*
X89099Y-23251D01*
X89108Y-23251D01*
X89118Y-23254D01*
X89126Y-23258D01*
X89134Y-23264D01*
X89140Y-23272D01*
X89145Y-23280D01*
X89148Y-23289D01*
X89149Y-23299D01*
X89150Y-23300D01*
X89400Y-23300D02*
X89399Y-23309D01*
X89396Y-23319D01*
X89391Y-23327D01*
X89385Y-23335D01*
X89377Y-23341D01*
X89369Y-23346D01*
X89360Y-23348D01*
X89350Y-23349D01*
X89341Y-23349D01*
X89332Y-23346D01*
X89323Y-23341D01*
X89316Y-23335D01*
X89309Y-23328D01*
X89305Y-23319D01*
X89302Y-23310D01*
X89301Y-23300D01*
X89301Y-23291D01*
X89304Y-23282D01*
X89308Y-23273D01*
X89315Y-23266D01*
X89322Y-23259D01*
X89330Y-23255D01*
X89340Y-23252D01*
X89349Y-23251D01*
X89358Y-23251D01*
X89368Y-23254D01*
X89376Y-23258D01*
X89384Y-23264D01*
X89390Y-23272D01*
X89395Y-23280D01*
X89398Y-23289D01*
X89399Y-23299D01*
X89400Y-23300D01*
X89650Y-23300D02*
X89649Y-23309D01*
X89646Y-23319D01*
X89641Y-23327D01*
X89635Y-23335D01*
X89627Y-23341D01*
X89619Y-23346D01*
X89610Y-23348D01*
X89600Y-23349D01*
X89591Y-23349D01*
X89582Y-23346D01*
X89573Y-23341D01*
X89566Y-23335D01*
X89559Y-23328D01*
X89555Y-23319D01*
X89552Y-23310D01*
X89551Y-23300D01*
X89551Y-23291D01*
X89554Y-23282D01*
X89558Y-23273D01*
X89565Y-23266D01*
X89572Y-23259D01*
X89580Y-23255D01*
X89590Y-23252D01*
X89599Y-23251D01*
X89608Y-23251D01*
X89618Y-23254D01*
X89626Y-23258D01*
X89634Y-23264D01*
X89640Y-23272D01*
X89645Y-23280D01*
X89648Y-23289D01*
X89649Y-23299D01*
X89650Y-23300D01*
X89900Y-23050D02*
X89899Y-23059D01*
X89896Y-23069D01*
X89891Y-23077D01*
X89885Y-23085D01*
X89877Y-23091D01*
X89869Y-23096D01*
X89860Y-23098D01*
X89850Y-23099D01*
X89841Y-23099D01*
X89832Y-23096D01*
X89823Y-23091D01*
X89816Y-23085D01*
X89809Y-23078D01*
X89805Y-23069D01*
X89802Y-23060D01*
X89801Y-23050D01*
X89801Y-23041D01*
X89804Y-23032D01*
X89808Y-23023D01*
X89815Y-23016D01*
X89822Y-23009D01*
X89830Y-23005D01*
X89840Y-23002D01*
X89849Y-23001D01*
X89858Y-23001D01*
X89868Y-23004D01*
X89876Y-23008D01*
X89884Y-23014D01*
X89890Y-23022D01*
X89895Y-23030D01*
X89898Y-23039D01*
X89899Y-23049D01*
X89900Y-23050D01*
X90150Y-22800D02*
X90149Y-22809D01*
X90146Y-22819D01*
X90141Y-22827D01*
X90135Y-22835D01*
X90127Y-22841D01*
X90119Y-22846D01*
X90110Y-22848D01*
X90100Y-22849D01*
X90091Y-22849D01*
X90082Y-22846D01*
X90073Y-22841D01*
X90066Y-22835D01*
X90059Y-22828D01*
X90055Y-22819D01*
X90052Y-22810D01*
X90051Y-22800D01*
X90051Y-22791D01*
X90054Y-22782D01*
X90058Y-22773D01*
X90065Y-22766D01*
X90072Y-22759D01*
X90080Y-22755D01*
X90090Y-22752D01*
X90099Y-22751D01*
X90108Y-22751D01*
X90118Y-22754D01*
X90126Y-22758D01*
X90134Y-22764D01*
X90140Y-22772D01*
X90145Y-22780D01*
X90148Y-22789D01*
X90149Y-22799D01*
X90150Y-22800D01*
X88900Y-23300D02*
X88899Y-23309D01*
X88896Y-23319D01*
X88891Y-23327D01*
X88885Y-23335D01*
X88877Y-23341D01*
X88869Y-23346D01*
X88860Y-23348D01*
X88850Y-23349D01*
X88841Y-23349D01*
X88832Y-23346D01*
X88823Y-23341D01*
X88816Y-23335D01*
X88809Y-23328D01*
X88805Y-23319D01*
X88802Y-23310D01*
X88801Y-23300D01*
X88801Y-23291D01*
X88804Y-23282D01*
X88808Y-23273D01*
X88815Y-23266D01*
X88822Y-23259D01*
X88830Y-23255D01*
X88840Y-23252D01*
X88849Y-23251D01*
X88858Y-23251D01*
X88868Y-23254D01*
X88876Y-23258D01*
X88884Y-23264D01*
X88890Y-23272D01*
X88895Y-23280D01*
X88898Y-23289D01*
X88899Y-23299D01*
X88900Y-23300D01*
X88650Y-23050D02*
X88649Y-23059D01*
X88646Y-23069D01*
X88641Y-23077D01*
X88635Y-23085D01*
X88627Y-23091D01*
X88619Y-23096D01*
X88610Y-23098D01*
X88600Y-23099D01*
X88591Y-23099D01*
X88582Y-23096D01*
X88573Y-23091D01*
X88566Y-23085D01*
X88559Y-23078D01*
X88555Y-23069D01*
X88552Y-23060D01*
X88551Y-23050D01*
X88551Y-23041D01*
X88554Y-23032D01*
X88558Y-23023D01*
X88565Y-23016D01*
X88572Y-23009D01*
X88580Y-23005D01*
X88590Y-23002D01*
X88599Y-23001D01*
X88608Y-23001D01*
X88618Y-23004D01*
X88626Y-23008D01*
X88634Y-23014D01*
X88640Y-23022D01*
X88645Y-23030D01*
X88648Y-23039D01*
X88649Y-23049D01*
X88650Y-23050D01*
X88400Y-22800D02*
X88399Y-22809D01*
X88396Y-22819D01*
X88391Y-22827D01*
X88385Y-22835D01*
X88377Y-22841D01*
X88369Y-22846D01*
X88360Y-22848D01*
X88350Y-22849D01*
X88341Y-22849D01*
X88332Y-22846D01*
X88323Y-22841D01*
X88316Y-22835D01*
X88309Y-22828D01*
X88305Y-22819D01*
X88302Y-22810D01*
X88301Y-22800D01*
X88301Y-22791D01*
X88304Y-22782D01*
X88308Y-22773D01*
X88315Y-22766D01*
X88322Y-22759D01*
X88330Y-22755D01*
X88340Y-22752D01*
X88349Y-22751D01*
X88358Y-22751D01*
X88368Y-22754D01*
X88376Y-22758D01*
X88384Y-22764D01*
X88390Y-22772D01*
X88395Y-22780D01*
X88398Y-22789D01*
X88399Y-22799D01*
X88400Y-22800D01*
X25900Y-22850D02*
X25899Y-22859D01*
X25896Y-22869D01*
X25891Y-22877D01*
X25885Y-22885D01*
X25877Y-22891D01*
X25869Y-22896D01*
X25860Y-22898D01*
X25850Y-22899D01*
X25841Y-22899D01*
X25832Y-22896D01*
X25823Y-22891D01*
X25816Y-22885D01*
X25809Y-22878D01*
X25805Y-22869D01*
X25802Y-22860D01*
X25801Y-22850D01*
X25801Y-22841D01*
X25804Y-22832D01*
X25808Y-22823D01*
X25815Y-22816D01*
X25822Y-22809D01*
X25830Y-22805D01*
X25840Y-22802D01*
X25849Y-22801D01*
X25858Y-22801D01*
X25868Y-22804D01*
X25876Y-22808D01*
X25884Y-22814D01*
X25890Y-22822D01*
X25895Y-22830D01*
X25898Y-22839D01*
X25899Y-22849D01*
X25900Y-22850D01*
X26150Y-23100D02*
X26149Y-23109D01*
X26146Y-23119D01*
X26141Y-23127D01*
X26135Y-23135D01*
X26127Y-23141D01*
X26119Y-23146D01*
X26110Y-23148D01*
X26100Y-23149D01*
X26091Y-23149D01*
X26082Y-23146D01*
X26073Y-23141D01*
X26066Y-23135D01*
X26059Y-23128D01*
X26055Y-23119D01*
X26052Y-23110D01*
X26051Y-23100D01*
X26051Y-23091D01*
X26054Y-23082D01*
X26058Y-23073D01*
X26065Y-23066D01*
X26072Y-23059D01*
X26080Y-23055D01*
X26090Y-23052D01*
X26099Y-23051D01*
X26108Y-23051D01*
X26118Y-23054D01*
X26126Y-23058D01*
X26134Y-23064D01*
X26140Y-23072D01*
X26145Y-23080D01*
X26148Y-23089D01*
X26149Y-23099D01*
X26150Y-23100D01*
X26400Y-23350D02*
X26399Y-23359D01*
X26396Y-23369D01*
X26391Y-23377D01*
X26385Y-23385D01*
X26377Y-23391D01*
X26369Y-23396D01*
X26360Y-23398D01*
X26350Y-23399D01*
X26341Y-23399D01*
X26332Y-23396D01*
X26323Y-23391D01*
X26316Y-23385D01*
X26309Y-23378D01*
X26305Y-23369D01*
X26302Y-23360D01*
X26301Y-23350D01*
X26301Y-23341D01*
X26304Y-23332D01*
X26308Y-23323D01*
X26315Y-23316D01*
X26322Y-23309D01*
X26330Y-23305D01*
X26340Y-23302D01*
X26349Y-23301D01*
X26358Y-23301D01*
X26368Y-23304D01*
X26376Y-23308D01*
X26384Y-23314D01*
X26390Y-23322D01*
X26395Y-23330D01*
X26398Y-23339D01*
X26399Y-23349D01*
X26400Y-23350D01*
X27650Y-22850D02*
X27649Y-22859D01*
X27646Y-22869D01*
X27641Y-22877D01*
X27635Y-22885D01*
X27627Y-22891D01*
X27619Y-22896D01*
X27610Y-22898D01*
X27600Y-22899D01*
X27591Y-22899D01*
X27582Y-22896D01*
X27573Y-22891D01*
X27566Y-22885D01*
X27559Y-22878D01*
X27555Y-22869D01*
X27552Y-22860D01*
X27551Y-22850D01*
X27551Y-22841D01*
X27554Y-22832D01*
X27558Y-22823D01*
X27565Y-22816D01*
X27572Y-22809D01*
X27580Y-22805D01*
X27590Y-22802D01*
X27599Y-22801D01*
X27608Y-22801D01*
X27618Y-22804D01*
X27626Y-22808D01*
X27634Y-22814D01*
X27640Y-22822D01*
X27645Y-22830D01*
X27648Y-22839D01*
X27649Y-22849D01*
X27650Y-22850D01*
X27400Y-23100D02*
X27399Y-23109D01*
X27396Y-23119D01*
X27391Y-23127D01*
X27385Y-23135D01*
X27377Y-23141D01*
X27369Y-23146D01*
X27360Y-23148D01*
X27350Y-23149D01*
X27341Y-23149D01*
X27332Y-23146D01*
X27323Y-23141D01*
X27316Y-23135D01*
X27309Y-23128D01*
X27305Y-23119D01*
X27302Y-23110D01*
X27301Y-23100D01*
X27301Y-23091D01*
X27304Y-23082D01*
X27308Y-23073D01*
X27315Y-23066D01*
X27322Y-23059D01*
X27330Y-23055D01*
X27340Y-23052D01*
X27349Y-23051D01*
X27358Y-23051D01*
X27368Y-23054D01*
X27376Y-23058D01*
X27384Y-23064D01*
X27390Y-23072D01*
X27395Y-23080D01*
X27398Y-23089D01*
X27399Y-23099D01*
X27400Y-23100D01*
X27150Y-23350D02*
X27149Y-23359D01*
X27146Y-23369D01*
X27141Y-23377D01*
X27135Y-23385D01*
X27127Y-23391D01*
X27119Y-23396D01*
X27110Y-23398D01*
X27100Y-23399D01*
X27091Y-23399D01*
X27082Y-23396D01*
X27073Y-23391D01*
X27066Y-23385D01*
X27059Y-23378D01*
X27055Y-23369D01*
X27052Y-23360D01*
X27051Y-23350D01*
X27051Y-23341D01*
X27054Y-23332D01*
X27058Y-23323D01*
X27065Y-23316D01*
X27072Y-23309D01*
X27080Y-23305D01*
X27090Y-23302D01*
X27099Y-23301D01*
X27108Y-23301D01*
X27118Y-23304D01*
X27126Y-23308D01*
X27134Y-23314D01*
X27140Y-23322D01*
X27145Y-23330D01*
X27148Y-23339D01*
X27149Y-23349D01*
X27150Y-23350D01*
X26900Y-23350D02*
X26899Y-23359D01*
X26896Y-23369D01*
X26891Y-23377D01*
X26885Y-23385D01*
X26877Y-23391D01*
X26869Y-23396D01*
X26860Y-23398D01*
X26850Y-23399D01*
X26841Y-23399D01*
X26832Y-23396D01*
X26823Y-23391D01*
X26816Y-23385D01*
X26809Y-23378D01*
X26805Y-23369D01*
X26802Y-23360D01*
X26801Y-23350D01*
X26801Y-23341D01*
X26804Y-23332D01*
X26808Y-23323D01*
X26815Y-23316D01*
X26822Y-23309D01*
X26830Y-23305D01*
X26840Y-23302D01*
X26849Y-23301D01*
X26858Y-23301D01*
X26868Y-23304D01*
X26876Y-23308D01*
X26884Y-23314D01*
X26890Y-23322D01*
X26895Y-23330D01*
X26898Y-23339D01*
X26899Y-23349D01*
X26900Y-23350D01*
X26650Y-23350D02*
X26649Y-23359D01*
X26646Y-23369D01*
X26641Y-23377D01*
X26635Y-23385D01*
X26627Y-23391D01*
X26619Y-23396D01*
X26610Y-23398D01*
X26600Y-23399D01*
X26591Y-23399D01*
X26582Y-23396D01*
X26573Y-23391D01*
X26566Y-23385D01*
X26559Y-23378D01*
X26555Y-23369D01*
X26552Y-23360D01*
X26551Y-23350D01*
X26551Y-23341D01*
X26554Y-23332D01*
X26558Y-23323D01*
X26565Y-23316D01*
X26572Y-23309D01*
X26580Y-23305D01*
X26590Y-23302D01*
X26599Y-23301D01*
X26608Y-23301D01*
X26618Y-23304D01*
X26626Y-23308D01*
X26634Y-23314D01*
X26640Y-23322D01*
X26645Y-23330D01*
X26648Y-23339D01*
X26649Y-23349D01*
X26650Y-23350D01*
X26900Y-22850D02*
X26899Y-22859D01*
X26896Y-22869D01*
X26891Y-22877D01*
X26885Y-22885D01*
X26877Y-22891D01*
X26869Y-22896D01*
X26860Y-22898D01*
X26850Y-22899D01*
X26841Y-22899D01*
X26832Y-22896D01*
X26823Y-22891D01*
X26816Y-22885D01*
X26809Y-22878D01*
X26805Y-22869D01*
X26802Y-22860D01*
X26801Y-22850D01*
X26801Y-22841D01*
X26804Y-22832D01*
X26808Y-22823D01*
X26815Y-22816D01*
X26822Y-22809D01*
X26830Y-22805D01*
X26840Y-22802D01*
X26849Y-22801D01*
X26858Y-22801D01*
X26868Y-22804D01*
X26876Y-22808D01*
X26884Y-22814D01*
X26890Y-22822D01*
X26895Y-22830D01*
X26898Y-22839D01*
X26899Y-22849D01*
X26900Y-22850D01*
X26650Y-22850D02*
X26649Y-22859D01*
X26646Y-22869D01*
X26641Y-22877D01*
X26635Y-22885D01*
X26627Y-22891D01*
X26619Y-22896D01*
X26610Y-22898D01*
X26600Y-22899D01*
X26591Y-22899D01*
X26582Y-22896D01*
X26573Y-22891D01*
X26566Y-22885D01*
X26559Y-22878D01*
X26555Y-22869D01*
X26552Y-22860D01*
X26551Y-22850D01*
X26551Y-22841D01*
X26554Y-22832D01*
X26558Y-22823D01*
X26565Y-22816D01*
X26572Y-22809D01*
X26580Y-22805D01*
X26590Y-22802D01*
X26599Y-22801D01*
X26608Y-22801D01*
X26618Y-22804D01*
X26626Y-22808D01*
X26634Y-22814D01*
X26640Y-22822D01*
X26645Y-22830D01*
X26648Y-22839D01*
X26649Y-22849D01*
X26650Y-22850D01*
X26900Y-22600D02*
X26899Y-22609D01*
X26896Y-22619D01*
X26891Y-22627D01*
X26885Y-22635D01*
X26877Y-22641D01*
X26869Y-22646D01*
X26860Y-22648D01*
X26850Y-22649D01*
X26841Y-22649D01*
X26832Y-22646D01*
X26823Y-22641D01*
X26816Y-22635D01*
X26809Y-22628D01*
X26805Y-22619D01*
X26802Y-22610D01*
X26801Y-22600D01*
X26801Y-22591D01*
X26804Y-22582D01*
X26808Y-22573D01*
X26815Y-22566D01*
X26822Y-22559D01*
X26830Y-22555D01*
X26840Y-22552D01*
X26849Y-22551D01*
X26858Y-22551D01*
X26868Y-22554D01*
X26876Y-22558D01*
X26884Y-22564D01*
X26890Y-22572D01*
X26895Y-22580D01*
X26898Y-22589D01*
X26899Y-22599D01*
X26900Y-22600D01*
X26650Y-22600D02*
X26649Y-22609D01*
X26646Y-22619D01*
X26641Y-22627D01*
X26635Y-22635D01*
X26627Y-22641D01*
X26619Y-22646D01*
X26610Y-22648D01*
X26600Y-22649D01*
X26591Y-22649D01*
X26582Y-22646D01*
X26573Y-22641D01*
X26566Y-22635D01*
X26559Y-22628D01*
X26555Y-22619D01*
X26552Y-22610D01*
X26551Y-22600D01*
X26551Y-22591D01*
X26554Y-22582D01*
X26558Y-22573D01*
X26565Y-22566D01*
X26572Y-22559D01*
X26580Y-22555D01*
X26590Y-22552D01*
X26599Y-22551D01*
X26608Y-22551D01*
X26618Y-22554D01*
X26626Y-22558D01*
X26634Y-22564D01*
X26640Y-22572D01*
X26645Y-22580D01*
X26648Y-22589D01*
X26649Y-22599D01*
X26650Y-22600D01*
X26400Y-21850D02*
X26399Y-21859D01*
X26396Y-21869D01*
X26391Y-21877D01*
X26385Y-21885D01*
X26377Y-21891D01*
X26369Y-21896D01*
X26360Y-21898D01*
X26350Y-21899D01*
X26341Y-21899D01*
X26332Y-21896D01*
X26323Y-21891D01*
X26316Y-21885D01*
X26309Y-21878D01*
X26305Y-21869D01*
X26302Y-21860D01*
X26301Y-21850D01*
X26301Y-21841D01*
X26304Y-21832D01*
X26308Y-21823D01*
X26315Y-21816D01*
X26322Y-21809D01*
X26330Y-21805D01*
X26340Y-21802D01*
X26349Y-21801D01*
X26358Y-21801D01*
X26368Y-21804D01*
X26376Y-21808D01*
X26384Y-21814D01*
X26390Y-21822D01*
X26395Y-21830D01*
X26398Y-21839D01*
X26399Y-21849D01*
X26400Y-21850D01*
X26150Y-21850D02*
X26149Y-21859D01*
X26146Y-21869D01*
X26141Y-21877D01*
X26135Y-21885D01*
X26127Y-21891D01*
X26119Y-21896D01*
X26110Y-21898D01*
X26100Y-21899D01*
X26091Y-21899D01*
X26082Y-21896D01*
X26073Y-21891D01*
X26066Y-21885D01*
X26059Y-21878D01*
X26055Y-21869D01*
X26052Y-21860D01*
X26051Y-21850D01*
X26051Y-21841D01*
X26054Y-21832D01*
X26058Y-21823D01*
X26065Y-21816D01*
X26072Y-21809D01*
X26080Y-21805D01*
X26090Y-21802D01*
X26099Y-21801D01*
X26108Y-21801D01*
X26118Y-21804D01*
X26126Y-21808D01*
X26134Y-21814D01*
X26140Y-21822D01*
X26145Y-21830D01*
X26148Y-21839D01*
X26149Y-21849D01*
X26150Y-21850D01*
X26150Y-22100D02*
X26149Y-22109D01*
X26146Y-22119D01*
X26141Y-22127D01*
X26135Y-22135D01*
X26127Y-22141D01*
X26119Y-22146D01*
X26110Y-22148D01*
X26100Y-22149D01*
X26091Y-22149D01*
X26082Y-22146D01*
X26073Y-22141D01*
X26066Y-22135D01*
X26059Y-22128D01*
X26055Y-22119D01*
X26052Y-22110D01*
X26051Y-22100D01*
X26051Y-22091D01*
X26054Y-22082D01*
X26058Y-22073D01*
X26065Y-22066D01*
X26072Y-22059D01*
X26080Y-22055D01*
X26090Y-22052D01*
X26099Y-22051D01*
X26108Y-22051D01*
X26118Y-22054D01*
X26126Y-22058D01*
X26134Y-22064D01*
X26140Y-22072D01*
X26145Y-22080D01*
X26148Y-22089D01*
X26149Y-22099D01*
X26150Y-22100D01*
X26400Y-22100D02*
X26399Y-22109D01*
X26396Y-22119D01*
X26391Y-22127D01*
X26385Y-22135D01*
X26377Y-22141D01*
X26369Y-22146D01*
X26360Y-22148D01*
X26350Y-22149D01*
X26341Y-22149D01*
X26332Y-22146D01*
X26323Y-22141D01*
X26316Y-22135D01*
X26309Y-22128D01*
X26305Y-22119D01*
X26302Y-22110D01*
X26301Y-22100D01*
X26301Y-22091D01*
X26304Y-22082D01*
X26308Y-22073D01*
X26315Y-22066D01*
X26322Y-22059D01*
X26330Y-22055D01*
X26340Y-22052D01*
X26349Y-22051D01*
X26358Y-22051D01*
X26368Y-22054D01*
X26376Y-22058D01*
X26384Y-22064D01*
X26390Y-22072D01*
X26395Y-22080D01*
X26398Y-22089D01*
X26399Y-22099D01*
X26400Y-22100D01*
X27400Y-22100D02*
X27399Y-22109D01*
X27396Y-22119D01*
X27391Y-22127D01*
X27385Y-22135D01*
X27377Y-22141D01*
X27369Y-22146D01*
X27360Y-22148D01*
X27350Y-22149D01*
X27341Y-22149D01*
X27332Y-22146D01*
X27323Y-22141D01*
X27316Y-22135D01*
X27309Y-22128D01*
X27305Y-22119D01*
X27302Y-22110D01*
X27301Y-22100D01*
X27301Y-22091D01*
X27304Y-22082D01*
X27308Y-22073D01*
X27315Y-22066D01*
X27322Y-22059D01*
X27330Y-22055D01*
X27340Y-22052D01*
X27349Y-22051D01*
X27358Y-22051D01*
X27368Y-22054D01*
X27376Y-22058D01*
X27384Y-22064D01*
X27390Y-22072D01*
X27395Y-22080D01*
X27398Y-22089D01*
X27399Y-22099D01*
X27400Y-22100D01*
X27150Y-22100D02*
X27149Y-22109D01*
X27146Y-22119D01*
X27141Y-22127D01*
X27135Y-22135D01*
X27127Y-22141D01*
X27119Y-22146D01*
X27110Y-22148D01*
X27100Y-22149D01*
X27091Y-22149D01*
X27082Y-22146D01*
X27073Y-22141D01*
X27066Y-22135D01*
X27059Y-22128D01*
X27055Y-22119D01*
X27052Y-22110D01*
X27051Y-22100D01*
X27051Y-22091D01*
X27054Y-22082D01*
X27058Y-22073D01*
X27065Y-22066D01*
X27072Y-22059D01*
X27080Y-22055D01*
X27090Y-22052D01*
X27099Y-22051D01*
X27108Y-22051D01*
X27118Y-22054D01*
X27126Y-22058D01*
X27134Y-22064D01*
X27140Y-22072D01*
X27145Y-22080D01*
X27148Y-22089D01*
X27149Y-22099D01*
X27150Y-22100D01*
X27400Y-21850D02*
X27399Y-21859D01*
X27396Y-21869D01*
X27391Y-21877D01*
X27385Y-21885D01*
X27377Y-21891D01*
X27369Y-21896D01*
X27360Y-21898D01*
X27350Y-21899D01*
X27341Y-21899D01*
X27332Y-21896D01*
X27323Y-21891D01*
X27316Y-21885D01*
X27309Y-21878D01*
X27305Y-21869D01*
X27302Y-21860D01*
X27301Y-21850D01*
X27301Y-21841D01*
X27304Y-21832D01*
X27308Y-21823D01*
X27315Y-21816D01*
X27322Y-21809D01*
X27330Y-21805D01*
X27340Y-21802D01*
X27349Y-21801D01*
X27358Y-21801D01*
X27368Y-21804D01*
X27376Y-21808D01*
X27384Y-21814D01*
X27390Y-21822D01*
X27395Y-21830D01*
X27398Y-21839D01*
X27399Y-21849D01*
X27400Y-21850D01*
X27150Y-21850D02*
X27149Y-21859D01*
X27146Y-21869D01*
X27141Y-21877D01*
X27135Y-21885D01*
X27127Y-21891D01*
X27119Y-21896D01*
X27110Y-21898D01*
X27100Y-21899D01*
X27091Y-21899D01*
X27082Y-21896D01*
X27073Y-21891D01*
X27066Y-21885D01*
X27059Y-21878D01*
X27055Y-21869D01*
X27052Y-21860D01*
X27051Y-21850D01*
X27051Y-21841D01*
X27054Y-21832D01*
X27058Y-21823D01*
X27065Y-21816D01*
X27072Y-21809D01*
X27080Y-21805D01*
X27090Y-21802D01*
X27099Y-21801D01*
X27108Y-21801D01*
X27118Y-21804D01*
X27126Y-21808D01*
X27134Y-21814D01*
X27140Y-21822D01*
X27145Y-21830D01*
X27148Y-21839D01*
X27149Y-21849D01*
X27150Y-21850D01*
G54D13*
X102626Y-15981D02*
X102602Y-16029D01*
X102602Y-16100D01*
X102626Y-16172D01*
X102674Y-16219D01*
X102721Y-16243D01*
X102817Y-16267D01*
X102888Y-16267D01*
X102983Y-16243D01*
X103031Y-16219D01*
X103079Y-16172D01*
X103102Y-16100D01*
X103102Y-16052D01*
X103079Y-15981D01*
X103055Y-15957D01*
X102888Y-15957D01*
X102888Y-16052D01*
X103102Y-15743D02*
X102602Y-15743D01*
X103102Y-15457D01*
X102602Y-15457D01*
X103102Y-15219D02*
X102602Y-15219D01*
X102602Y-15100D01*
X102626Y-15028D01*
X102674Y-14981D01*
X102721Y-14957D01*
X102817Y-14933D01*
X102888Y-14933D01*
X102983Y-14957D01*
X103031Y-14981D01*
X103079Y-15028D01*
X103102Y-15100D01*
X103102Y-15219D01*
X102602Y-18111D02*
X103102Y-17945D01*
X102602Y-17778D01*
X103102Y-17611D02*
X102769Y-17611D01*
X102602Y-17611D02*
X102626Y-17635D01*
X102650Y-17611D01*
X102626Y-17587D01*
X102602Y-17611D01*
X102650Y-17611D01*
X102769Y-17373D02*
X103102Y-17373D01*
X102817Y-17373D02*
X102793Y-17349D01*
X102769Y-17302D01*
X102769Y-17230D01*
X102793Y-17182D01*
X102840Y-17159D01*
X103102Y-17159D01*
G54D12*
X103102Y-19583D02*
X102602Y-19583D01*
X102602Y-19392D01*
X102626Y-19345D01*
X102650Y-19321D01*
X102698Y-19297D01*
X102769Y-19297D01*
X102817Y-19321D01*
X102840Y-19345D01*
X102864Y-19392D01*
X102864Y-19583D01*
X102960Y-19107D02*
X102960Y-18869D01*
X103102Y-19154D02*
X102602Y-18988D01*
X103102Y-18821D01*
X102602Y-18559D02*
X102602Y-18511D01*
X102626Y-18463D01*
X102650Y-18440D01*
X102698Y-18416D01*
X102793Y-18392D01*
X102912Y-18392D01*
X103007Y-18416D01*
X103055Y-18440D01*
X103079Y-18463D01*
X103102Y-18511D01*
X103102Y-18559D01*
X103079Y-18606D01*
X103055Y-18630D01*
X103007Y-18654D01*
X102912Y-18678D01*
X102793Y-18678D01*
X102698Y-18654D01*
X102650Y-18630D01*
X102626Y-18606D01*
X102602Y-18559D01*
X103079Y-20828D02*
X103102Y-20756D01*
X103102Y-20637D01*
X103079Y-20590D01*
X103055Y-20566D01*
X103007Y-20542D01*
X102960Y-20542D01*
X102912Y-20566D01*
X102888Y-20590D01*
X102864Y-20637D01*
X102840Y-20733D01*
X102817Y-20780D01*
X102793Y-20804D01*
X102745Y-20828D01*
X102698Y-20828D01*
X102650Y-20804D01*
X102626Y-20780D01*
X102602Y-20733D01*
X102602Y-20613D01*
X102626Y-20542D01*
X102602Y-20376D02*
X103102Y-20257D01*
X102745Y-20161D01*
X103102Y-20066D01*
X102602Y-19947D01*
X13379Y-20828D02*
X13402Y-20756D01*
X13402Y-20637D01*
X13379Y-20590D01*
X13355Y-20566D01*
X13307Y-20542D01*
X13260Y-20542D01*
X13212Y-20566D01*
X13188Y-20590D01*
X13164Y-20637D01*
X13140Y-20733D01*
X13117Y-20780D01*
X13093Y-20804D01*
X13045Y-20828D01*
X12998Y-20828D01*
X12950Y-20804D01*
X12926Y-20780D01*
X12902Y-20733D01*
X12902Y-20613D01*
X12926Y-20542D01*
X12902Y-20376D02*
X13402Y-20257D01*
X13045Y-20161D01*
X13402Y-20066D01*
X12902Y-19947D01*
X13402Y-19583D02*
X12902Y-19583D01*
X12902Y-19392D01*
X12926Y-19345D01*
X12950Y-19321D01*
X12998Y-19297D01*
X13069Y-19297D01*
X13117Y-19321D01*
X13140Y-19345D01*
X13164Y-19392D01*
X13164Y-19583D01*
X13260Y-19107D02*
X13260Y-18869D01*
X13402Y-19154D02*
X12902Y-18988D01*
X13402Y-18821D01*
X12902Y-18559D02*
X12902Y-18511D01*
X12926Y-18463D01*
X12950Y-18440D01*
X12998Y-18416D01*
X13093Y-18392D01*
X13212Y-18392D01*
X13307Y-18416D01*
X13355Y-18440D01*
X13379Y-18463D01*
X13402Y-18511D01*
X13402Y-18559D01*
X13379Y-18606D01*
X13355Y-18630D01*
X13307Y-18654D01*
X13212Y-18678D01*
X13093Y-18678D01*
X12998Y-18654D01*
X12950Y-18630D01*
X12926Y-18606D01*
X12902Y-18559D01*
G54D13*
X12902Y-18111D02*
X13402Y-17945D01*
X12902Y-17778D01*
X13402Y-17611D02*
X13069Y-17611D01*
X12902Y-17611D02*
X12926Y-17635D01*
X12950Y-17611D01*
X12926Y-17587D01*
X12902Y-17611D01*
X12950Y-17611D01*
X13069Y-17373D02*
X13402Y-17373D01*
X13117Y-17373D02*
X13093Y-17349D01*
X13069Y-17302D01*
X13069Y-17230D01*
X13093Y-17182D01*
X13140Y-17159D01*
X13402Y-17159D01*
X12926Y-15981D02*
X12902Y-16029D01*
X12902Y-16100D01*
X12926Y-16172D01*
X12974Y-16219D01*
X13021Y-16243D01*
X13117Y-16267D01*
X13188Y-16267D01*
X13283Y-16243D01*
X13331Y-16219D01*
X13379Y-16172D01*
X13402Y-16100D01*
X13402Y-16052D01*
X13379Y-15981D01*
X13355Y-15957D01*
X13188Y-15957D01*
X13188Y-16052D01*
X13402Y-15743D02*
X12902Y-15743D01*
X13402Y-15457D01*
X12902Y-15457D01*
X13402Y-15219D02*
X12902Y-15219D01*
X12902Y-15100D01*
X12926Y-15028D01*
X12974Y-14981D01*
X13021Y-14957D01*
X13117Y-14933D01*
X13188Y-14933D01*
X13283Y-14957D01*
X13331Y-14981D01*
X13379Y-15028D01*
X13402Y-15100D01*
X13402Y-15219D01*
G54D11*
X49900Y-21900D02*
X49900Y-20600D01*
X49900Y-21900D02*
X51200Y-21900D01*
G54D12*
X53200Y-21600D02*
X50200Y-21600D01*
X50200Y-19600D02*
X53200Y-19600D01*
X53200Y-19600D02*
X53200Y-21600D01*
X50200Y-21600D02*
X50200Y-19600D01*
G54D11*
X51500Y-15800D02*
X51498Y-15819D01*
X51492Y-15838D01*
X51483Y-15855D01*
X51470Y-15870D01*
X51455Y-15882D01*
X51438Y-15892D01*
X51420Y-15897D01*
X51400Y-15899D01*
X51382Y-15898D01*
X51363Y-15892D01*
X51346Y-15883D01*
X51331Y-15871D01*
X51318Y-15856D01*
X51309Y-15839D01*
X51303Y-15820D01*
X51301Y-15801D01*
X51302Y-15782D01*
X51308Y-15764D01*
X51316Y-15746D01*
X51329Y-15731D01*
X51343Y-15718D01*
X51360Y-15709D01*
X51379Y-15703D01*
X51398Y-15701D01*
X51417Y-15702D01*
X51436Y-15707D01*
X51453Y-15716D01*
X51468Y-15728D01*
X51481Y-15743D01*
X51491Y-15760D01*
X51497Y-15778D01*
X51499Y-15798D01*
X51500Y-15800D01*
G54D14*
X50480Y-15604D02*
X50480Y-15797D01*
X50480Y-15797D02*
X50913Y-15797D01*
X50913Y-15604D02*
X50913Y-15797D01*
X50480Y-15604D02*
X50913Y-15604D01*
X50480Y-16104D02*
X50480Y-16297D01*
X50480Y-16297D02*
X50913Y-16297D01*
X50913Y-16104D02*
X50913Y-16297D01*
X50480Y-16104D02*
X50913Y-16104D01*
X50480Y-16604D02*
X50480Y-16797D01*
X50480Y-16797D02*
X50913Y-16797D01*
X50913Y-16604D02*
X50913Y-16797D01*
X50480Y-16604D02*
X50913Y-16604D01*
X50480Y-17104D02*
X50480Y-17296D01*
X50480Y-17296D02*
X50913Y-17296D01*
X50913Y-17104D02*
X50913Y-17296D01*
X50480Y-17104D02*
X50913Y-17104D01*
X52487Y-17104D02*
X52487Y-17296D01*
X52487Y-17296D02*
X52920Y-17296D01*
X52920Y-17104D02*
X52920Y-17296D01*
X52487Y-17104D02*
X52920Y-17104D01*
X52487Y-16604D02*
X52487Y-16797D01*
X52487Y-16797D02*
X52920Y-16797D01*
X52920Y-16604D02*
X52920Y-16797D01*
X52487Y-16604D02*
X52920Y-16604D01*
X52487Y-16104D02*
X52487Y-16297D01*
X52487Y-16297D02*
X52920Y-16297D01*
X52920Y-16104D02*
X52920Y-16297D01*
X52487Y-16104D02*
X52920Y-16104D01*
X52487Y-15604D02*
X52487Y-15797D01*
X52487Y-15797D02*
X52920Y-15797D01*
X52920Y-15604D02*
X52920Y-15797D01*
X52487Y-15604D02*
X52920Y-15604D01*
X50480Y-17603D02*
X50480Y-17796D01*
X50480Y-17796D02*
X50913Y-17796D01*
X50913Y-17603D02*
X50913Y-17796D01*
X50480Y-17603D02*
X50913Y-17603D01*
X50480Y-18103D02*
X50480Y-18296D01*
X50480Y-18296D02*
X50913Y-18296D01*
X50913Y-18103D02*
X50913Y-18296D01*
X50480Y-18103D02*
X50913Y-18103D01*
X50480Y-18603D02*
X50480Y-18796D01*
X50480Y-18796D02*
X50913Y-18796D01*
X50913Y-18603D02*
X50913Y-18796D01*
X50480Y-18603D02*
X50913Y-18603D01*
X52487Y-18603D02*
X52487Y-18796D01*
X52487Y-18796D02*
X52920Y-18796D01*
X52920Y-18603D02*
X52920Y-18796D01*
X52487Y-18603D02*
X52920Y-18603D01*
X52487Y-18103D02*
X52487Y-18296D01*
X52487Y-18296D02*
X52920Y-18296D01*
X52920Y-18103D02*
X52920Y-18296D01*
X52487Y-18103D02*
X52920Y-18103D01*
X52487Y-17603D02*
X52487Y-17796D01*
X52487Y-17796D02*
X52920Y-17796D01*
X52920Y-17603D02*
X52920Y-17796D01*
X52487Y-17603D02*
X52920Y-17603D01*
G54D15*
X53235Y-15273D02*
X53235Y-19127D01*
X50165Y-19127D02*
X50165Y-15273D01*
X50165Y-15273D02*
X53235Y-15273D01*
G54D12*
X50952Y-18894D02*
X50952Y-15506D01*
X50952Y-15506D02*
X51149Y-15506D01*
X51149Y-15506D02*
X52448Y-15506D01*
X51149Y-18894D02*
X51149Y-15506D01*
X52448Y-18894D02*
X51149Y-18894D01*
X51149Y-18894D02*
X50952Y-18894D01*
G54D15*
X53235Y-19127D02*
X50165Y-19127D01*
G54D12*
X52448Y-15506D02*
X52448Y-18894D01*
G54D13*
X45917Y-19764D02*
X45917Y-19075D01*
X45917Y-20256D02*
X45917Y-21024D01*
X45917Y-20256D02*
X46193Y-19764D01*
X46193Y-19764D02*
X45661Y-19764D01*
X45661Y-19764D02*
X45917Y-20256D01*
X46193Y-20256D02*
X45661Y-20256D01*
X48909Y-20000D02*
X48872Y-20370D01*
X48764Y-20727D01*
X48590Y-21056D01*
X48354Y-21345D01*
X48067Y-21582D01*
X47739Y-21759D01*
X47383Y-21870D01*
X47013Y-21908D01*
X46643Y-21875D01*
X46285Y-21769D01*
X45955Y-21597D01*
X45665Y-21363D01*
X45425Y-21078D01*
X45246Y-20752D01*
X45133Y-20396D01*
X45092Y-20026D01*
X45123Y-19656D01*
X45226Y-19298D01*
X45396Y-18966D01*
X45627Y-18674D01*
X45911Y-18433D01*
X46236Y-18251D01*
X46591Y-18136D01*
X46961Y-18092D01*
X47331Y-18121D01*
X47690Y-18221D01*
X48022Y-18389D01*
X48316Y-18618D01*
X48559Y-18900D01*
X48743Y-19224D01*
X48861Y-19578D01*
X48908Y-19947D01*
X48909Y-20000D01*
X16583Y-20236D02*
X16583Y-20925D01*
X16583Y-19744D02*
X16583Y-18976D01*
X16583Y-19744D02*
X16307Y-20236D01*
X16307Y-20236D02*
X16839Y-20236D01*
X16839Y-20236D02*
X16583Y-19744D01*
X16307Y-19744D02*
X16839Y-19744D01*
X17409Y-20000D02*
X17372Y-20370D01*
X17264Y-20727D01*
X17090Y-21056D01*
X16854Y-21345D01*
X16567Y-21582D01*
X16239Y-21759D01*
X15883Y-21870D01*
X15513Y-21908D01*
X15143Y-21875D01*
X14785Y-21769D01*
X14455Y-21597D01*
X14165Y-21363D01*
X13925Y-21078D01*
X13746Y-20752D01*
X13633Y-20396D01*
X13592Y-20026D01*
X13623Y-19656D01*
X13726Y-19298D01*
X13896Y-18966D01*
X14127Y-18674D01*
X14411Y-18433D01*
X14736Y-18251D01*
X15091Y-18136D01*
X15461Y-18092D01*
X15831Y-18121D01*
X16190Y-18221D01*
X16522Y-18389D01*
X16816Y-18618D01*
X17059Y-18900D01*
X17243Y-19224D01*
X17361Y-19578D01*
X17408Y-19947D01*
X17409Y-20000D01*
X16582Y-15736D02*
X16582Y-16425D01*
X16582Y-15244D02*
X16582Y-14476D01*
X16582Y-15244D02*
X16306Y-15736D01*
X16306Y-15736D02*
X16838Y-15736D01*
X16838Y-15736D02*
X16582Y-15244D01*
X16306Y-15244D02*
X16838Y-15244D01*
X17408Y-15500D02*
X17371Y-15870D01*
X17263Y-16227D01*
X17089Y-16556D01*
X16853Y-16845D01*
X16566Y-17082D01*
X16238Y-17259D01*
X15882Y-17370D01*
X15512Y-17408D01*
X15142Y-17375D01*
X14784Y-17269D01*
X14454Y-17097D01*
X14164Y-16863D01*
X13924Y-16578D01*
X13745Y-16252D01*
X13632Y-15896D01*
X13591Y-15526D01*
X13622Y-15156D01*
X13725Y-14798D01*
X13895Y-14466D01*
X14126Y-14174D01*
X14410Y-13933D01*
X14735Y-13751D01*
X15090Y-13636D01*
X15460Y-13592D01*
X15830Y-13621D01*
X16189Y-13721D01*
X16521Y-13889D01*
X16815Y-14118D01*
X17058Y-14400D01*
X17242Y-14724D01*
X17360Y-15078D01*
X17407Y-15447D01*
X17408Y-15500D01*
X18917Y-15264D02*
X18917Y-14575D01*
X18917Y-15756D02*
X18917Y-16524D01*
X18917Y-15756D02*
X19193Y-15264D01*
X19193Y-15264D02*
X18661Y-15264D01*
X18661Y-15264D02*
X18917Y-15756D01*
X19193Y-15756D02*
X18661Y-15756D01*
X21909Y-15500D02*
X21872Y-15870D01*
X21764Y-16227D01*
X21590Y-16556D01*
X21354Y-16845D01*
X21067Y-17082D01*
X20739Y-17259D01*
X20383Y-17370D01*
X20013Y-17408D01*
X19643Y-17375D01*
X19285Y-17269D01*
X18955Y-17097D01*
X18665Y-16863D01*
X18425Y-16578D01*
X18246Y-16252D01*
X18133Y-15896D01*
X18092Y-15526D01*
X18123Y-15156D01*
X18226Y-14798D01*
X18396Y-14466D01*
X18627Y-14174D01*
X18911Y-13933D01*
X19236Y-13751D01*
X19591Y-13636D01*
X19961Y-13592D01*
X20331Y-13621D01*
X20690Y-13721D01*
X21022Y-13889D01*
X21316Y-14118D01*
X21559Y-14400D01*
X21743Y-14724D01*
X21861Y-15078D01*
X21908Y-15447D01*
X21909Y-15500D01*
X18917Y-19764D02*
X18917Y-19075D01*
X18917Y-20256D02*
X18917Y-21024D01*
X18917Y-20256D02*
X19193Y-19764D01*
X19193Y-19764D02*
X18661Y-19764D01*
X18661Y-19764D02*
X18917Y-20256D01*
X19193Y-20256D02*
X18661Y-20256D01*
X21909Y-20000D02*
X21872Y-20370D01*
X21764Y-20727D01*
X21590Y-21056D01*
X21354Y-21345D01*
X21067Y-21582D01*
X20739Y-21759D01*
X20383Y-21870D01*
X20013Y-21908D01*
X19643Y-21875D01*
X19285Y-21769D01*
X18955Y-21597D01*
X18665Y-21363D01*
X18425Y-21078D01*
X18246Y-20752D01*
X18133Y-20396D01*
X18092Y-20026D01*
X18123Y-19656D01*
X18226Y-19298D01*
X18396Y-18966D01*
X18627Y-18674D01*
X18911Y-18433D01*
X19236Y-18251D01*
X19591Y-18136D01*
X19961Y-18092D01*
X20331Y-18121D01*
X20690Y-18221D01*
X21022Y-18389D01*
X21316Y-18618D01*
X21559Y-18900D01*
X21743Y-19224D01*
X21861Y-19578D01*
X21908Y-19947D01*
X21909Y-20000D01*
X25583Y-20236D02*
X25583Y-20925D01*
X25583Y-19744D02*
X25583Y-18976D01*
X25583Y-19744D02*
X25307Y-20236D01*
X25307Y-20236D02*
X25839Y-20236D01*
X25839Y-20236D02*
X25583Y-19744D01*
X25307Y-19744D02*
X25839Y-19744D01*
X26409Y-20000D02*
X26372Y-20370D01*
X26264Y-20727D01*
X26090Y-21056D01*
X25854Y-21345D01*
X25567Y-21582D01*
X25239Y-21759D01*
X24883Y-21870D01*
X24513Y-21908D01*
X24143Y-21875D01*
X23785Y-21769D01*
X23455Y-21597D01*
X23165Y-21363D01*
X22925Y-21078D01*
X22746Y-20752D01*
X22633Y-20396D01*
X22592Y-20026D01*
X22623Y-19656D01*
X22726Y-19298D01*
X22896Y-18966D01*
X23127Y-18674D01*
X23411Y-18433D01*
X23736Y-18251D01*
X24091Y-18136D01*
X24461Y-18092D01*
X24831Y-18121D01*
X25190Y-18221D01*
X25522Y-18389D01*
X25816Y-18618D01*
X26059Y-18900D01*
X26243Y-19224D01*
X26361Y-19578D01*
X26408Y-19947D01*
X26409Y-20000D01*
X25583Y-15736D02*
X25583Y-16425D01*
X25583Y-15244D02*
X25583Y-14476D01*
X25583Y-15244D02*
X25307Y-15736D01*
X25307Y-15736D02*
X25839Y-15736D01*
X25839Y-15736D02*
X25583Y-15244D01*
X25307Y-15244D02*
X25839Y-15244D01*
X26409Y-15500D02*
X26372Y-15870D01*
X26264Y-16227D01*
X26090Y-16556D01*
X25854Y-16845D01*
X25567Y-17082D01*
X25239Y-17259D01*
X24883Y-17370D01*
X24513Y-17408D01*
X24143Y-17375D01*
X23785Y-17269D01*
X23455Y-17097D01*
X23165Y-16863D01*
X22925Y-16578D01*
X22746Y-16252D01*
X22633Y-15896D01*
X22592Y-15526D01*
X22623Y-15156D01*
X22726Y-14798D01*
X22896Y-14466D01*
X23127Y-14174D01*
X23411Y-13933D01*
X23736Y-13751D01*
X24091Y-13636D01*
X24461Y-13592D01*
X24831Y-13621D01*
X25190Y-13721D01*
X25522Y-13889D01*
X25816Y-14118D01*
X26059Y-14400D01*
X26243Y-14724D01*
X26361Y-15078D01*
X26408Y-15447D01*
X26409Y-15500D01*
X27917Y-15264D02*
X27917Y-14575D01*
X27917Y-15756D02*
X27917Y-16524D01*
X27917Y-15756D02*
X28193Y-15264D01*
X28193Y-15264D02*
X27661Y-15264D01*
X27661Y-15264D02*
X27917Y-15756D01*
X28193Y-15756D02*
X27661Y-15756D01*
X30909Y-15500D02*
X30872Y-15870D01*
X30764Y-16227D01*
X30590Y-16556D01*
X30354Y-16845D01*
X30067Y-17082D01*
X29739Y-17259D01*
X29383Y-17370D01*
X29013Y-17408D01*
X28643Y-17375D01*
X28285Y-17269D01*
X27955Y-17097D01*
X27665Y-16863D01*
X27425Y-16578D01*
X27246Y-16252D01*
X27133Y-15896D01*
X27092Y-15526D01*
X27123Y-15156D01*
X27226Y-14798D01*
X27396Y-14466D01*
X27627Y-14174D01*
X27911Y-13933D01*
X28236Y-13751D01*
X28591Y-13636D01*
X28961Y-13592D01*
X29331Y-13621D01*
X29690Y-13721D01*
X30022Y-13889D01*
X30316Y-14118D01*
X30559Y-14400D01*
X30743Y-14724D01*
X30861Y-15078D01*
X30908Y-15447D01*
X30909Y-15500D01*
X27917Y-19764D02*
X27917Y-19075D01*
X27917Y-20256D02*
X27917Y-21024D01*
X27917Y-20256D02*
X28193Y-19764D01*
X28193Y-19764D02*
X27661Y-19764D01*
X27661Y-19764D02*
X27917Y-20256D01*
X28193Y-20256D02*
X27661Y-20256D01*
X30909Y-20000D02*
X30872Y-20370D01*
X30764Y-20727D01*
X30590Y-21056D01*
X30354Y-21345D01*
X30067Y-21582D01*
X29739Y-21759D01*
X29383Y-21870D01*
X29013Y-21908D01*
X28643Y-21875D01*
X28285Y-21769D01*
X27955Y-21597D01*
X27665Y-21363D01*
X27425Y-21078D01*
X27246Y-20752D01*
X27133Y-20396D01*
X27092Y-20026D01*
X27123Y-19656D01*
X27226Y-19298D01*
X27396Y-18966D01*
X27627Y-18674D01*
X27911Y-18433D01*
X28236Y-18251D01*
X28591Y-18136D01*
X28961Y-18092D01*
X29331Y-18121D01*
X29690Y-18221D01*
X30022Y-18389D01*
X30316Y-18618D01*
X30559Y-18900D01*
X30743Y-19224D01*
X30861Y-19578D01*
X30908Y-19947D01*
X30909Y-20000D01*
X34583Y-20236D02*
X34583Y-20925D01*
X34583Y-19744D02*
X34583Y-18976D01*
X34583Y-19744D02*
X34307Y-20236D01*
X34307Y-20236D02*
X34839Y-20236D01*
X34839Y-20236D02*
X34583Y-19744D01*
X34307Y-19744D02*
X34839Y-19744D01*
X35409Y-20000D02*
X35372Y-20370D01*
X35264Y-20727D01*
X35090Y-21056D01*
X34854Y-21345D01*
X34567Y-21582D01*
X34239Y-21759D01*
X33883Y-21870D01*
X33513Y-21908D01*
X33143Y-21875D01*
X32785Y-21769D01*
X32455Y-21597D01*
X32165Y-21363D01*
X31925Y-21078D01*
X31746Y-20752D01*
X31633Y-20396D01*
X31592Y-20026D01*
X31623Y-19656D01*
X31726Y-19298D01*
X31896Y-18966D01*
X32127Y-18674D01*
X32411Y-18433D01*
X32736Y-18251D01*
X33091Y-18136D01*
X33461Y-18092D01*
X33831Y-18121D01*
X34190Y-18221D01*
X34522Y-18389D01*
X34816Y-18618D01*
X35059Y-18900D01*
X35243Y-19224D01*
X35361Y-19578D01*
X35408Y-19947D01*
X35409Y-20000D01*
X34583Y-15736D02*
X34583Y-16425D01*
X34583Y-15244D02*
X34583Y-14476D01*
X34583Y-15244D02*
X34307Y-15736D01*
X34307Y-15736D02*
X34839Y-15736D01*
X34839Y-15736D02*
X34583Y-15244D01*
X34307Y-15244D02*
X34839Y-15244D01*
X35409Y-15500D02*
X35372Y-15870D01*
X35264Y-16227D01*
X35090Y-16556D01*
X34854Y-16845D01*
X34567Y-17082D01*
X34239Y-17259D01*
X33883Y-17370D01*
X33513Y-17408D01*
X33143Y-17375D01*
X32785Y-17269D01*
X32455Y-17097D01*
X32165Y-16863D01*
X31925Y-16578D01*
X31746Y-16252D01*
X31633Y-15896D01*
X31592Y-15526D01*
X31623Y-15156D01*
X31726Y-14798D01*
X31896Y-14466D01*
X32127Y-14174D01*
X32411Y-13933D01*
X32736Y-13751D01*
X33091Y-13636D01*
X33461Y-13592D01*
X33831Y-13621D01*
X34190Y-13721D01*
X34522Y-13889D01*
X34816Y-14118D01*
X35059Y-14400D01*
X35243Y-14724D01*
X35361Y-15078D01*
X35408Y-15447D01*
X35409Y-15500D01*
X36917Y-15264D02*
X36917Y-14575D01*
X36917Y-15756D02*
X36917Y-16524D01*
X36917Y-15756D02*
X37193Y-15264D01*
X37193Y-15264D02*
X36661Y-15264D01*
X36661Y-15264D02*
X36917Y-15756D01*
X37193Y-15756D02*
X36661Y-15756D01*
X39909Y-15500D02*
X39872Y-15870D01*
X39764Y-16227D01*
X39590Y-16556D01*
X39354Y-16845D01*
X39067Y-17082D01*
X38739Y-17259D01*
X38383Y-17370D01*
X38013Y-17408D01*
X37643Y-17375D01*
X37285Y-17269D01*
X36955Y-17097D01*
X36665Y-16863D01*
X36425Y-16578D01*
X36246Y-16252D01*
X36133Y-15896D01*
X36092Y-15526D01*
X36123Y-15156D01*
X36226Y-14798D01*
X36396Y-14466D01*
X36627Y-14174D01*
X36911Y-13933D01*
X37236Y-13751D01*
X37591Y-13636D01*
X37961Y-13592D01*
X38331Y-13621D01*
X38690Y-13721D01*
X39022Y-13889D01*
X39316Y-14118D01*
X39559Y-14400D01*
X39743Y-14724D01*
X39861Y-15078D01*
X39908Y-15447D01*
X39909Y-15500D01*
X36917Y-19764D02*
X36917Y-19075D01*
X36917Y-20256D02*
X36917Y-21024D01*
X36917Y-20256D02*
X37193Y-19764D01*
X37193Y-19764D02*
X36661Y-19764D01*
X36661Y-19764D02*
X36917Y-20256D01*
X37193Y-20256D02*
X36661Y-20256D01*
X39909Y-20000D02*
X39872Y-20370D01*
X39764Y-20727D01*
X39590Y-21056D01*
X39354Y-21345D01*
X39067Y-21582D01*
X38739Y-21759D01*
X38383Y-21870D01*
X38013Y-21908D01*
X37643Y-21875D01*
X37285Y-21769D01*
X36955Y-21597D01*
X36665Y-21363D01*
X36425Y-21078D01*
X36246Y-20752D01*
X36133Y-20396D01*
X36092Y-20026D01*
X36123Y-19656D01*
X36226Y-19298D01*
X36396Y-18966D01*
X36627Y-18674D01*
X36911Y-18433D01*
X37236Y-18251D01*
X37591Y-18136D01*
X37961Y-18092D01*
X38331Y-18121D01*
X38690Y-18221D01*
X39022Y-18389D01*
X39316Y-18618D01*
X39559Y-18900D01*
X39743Y-19224D01*
X39861Y-19578D01*
X39908Y-19947D01*
X39909Y-20000D01*
X43583Y-20236D02*
X43583Y-20925D01*
X43583Y-19744D02*
X43583Y-18976D01*
X43583Y-19744D02*
X43307Y-20236D01*
X43307Y-20236D02*
X43839Y-20236D01*
X43839Y-20236D02*
X43583Y-19744D01*
X43307Y-19744D02*
X43839Y-19744D01*
X44409Y-20000D02*
X44372Y-20370D01*
X44264Y-20727D01*
X44090Y-21056D01*
X43854Y-21345D01*
X43567Y-21582D01*
X43239Y-21759D01*
X42883Y-21870D01*
X42513Y-21908D01*
X42143Y-21875D01*
X41785Y-21769D01*
X41455Y-21597D01*
X41165Y-21363D01*
X40925Y-21078D01*
X40746Y-20752D01*
X40633Y-20396D01*
X40592Y-20026D01*
X40623Y-19656D01*
X40726Y-19298D01*
X40896Y-18966D01*
X41127Y-18674D01*
X41411Y-18433D01*
X41736Y-18251D01*
X42091Y-18136D01*
X42461Y-18092D01*
X42831Y-18121D01*
X43190Y-18221D01*
X43522Y-18389D01*
X43816Y-18618D01*
X44059Y-18900D01*
X44243Y-19224D01*
X44361Y-19578D01*
X44408Y-19947D01*
X44409Y-20000D01*
X43583Y-15736D02*
X43583Y-16425D01*
X43583Y-15244D02*
X43583Y-14476D01*
X43583Y-15244D02*
X43307Y-15736D01*
X43307Y-15736D02*
X43839Y-15736D01*
X43839Y-15736D02*
X43583Y-15244D01*
X43307Y-15244D02*
X43839Y-15244D01*
X44409Y-15500D02*
X44372Y-15870D01*
X44264Y-16227D01*
X44090Y-16556D01*
X43854Y-16845D01*
X43567Y-17082D01*
X43239Y-17259D01*
X42883Y-17370D01*
X42513Y-17408D01*
X42143Y-17375D01*
X41785Y-17269D01*
X41455Y-17097D01*
X41165Y-16863D01*
X40925Y-16578D01*
X40746Y-16252D01*
X40633Y-15896D01*
X40592Y-15526D01*
X40623Y-15156D01*
X40726Y-14798D01*
X40896Y-14466D01*
X41127Y-14174D01*
X41411Y-13933D01*
X41736Y-13751D01*
X42091Y-13636D01*
X42461Y-13592D01*
X42831Y-13621D01*
X43190Y-13721D01*
X43522Y-13889D01*
X43816Y-14118D01*
X44059Y-14400D01*
X44243Y-14724D01*
X44361Y-15078D01*
X44408Y-15447D01*
X44409Y-15500D01*
X45917Y-15264D02*
X45917Y-14575D01*
X45917Y-15756D02*
X45917Y-16524D01*
X45917Y-15756D02*
X46193Y-15264D01*
X46193Y-15264D02*
X45661Y-15264D01*
X45661Y-15264D02*
X45917Y-15756D01*
X46193Y-15756D02*
X45661Y-15756D01*
X48909Y-15500D02*
X48872Y-15870D01*
X48764Y-16227D01*
X48590Y-16556D01*
X48354Y-16845D01*
X48067Y-17082D01*
X47739Y-17259D01*
X47383Y-17370D01*
X47013Y-17408D01*
X46643Y-17375D01*
X46285Y-17269D01*
X45955Y-17097D01*
X45665Y-16863D01*
X45425Y-16578D01*
X45246Y-16252D01*
X45133Y-15896D01*
X45092Y-15526D01*
X45123Y-15156D01*
X45226Y-14798D01*
X45396Y-14466D01*
X45627Y-14174D01*
X45911Y-13933D01*
X46236Y-13751D01*
X46591Y-13636D01*
X46961Y-13592D01*
X47331Y-13621D01*
X47690Y-13721D01*
X48022Y-13889D01*
X48316Y-14118D01*
X48559Y-14400D01*
X48743Y-14724D01*
X48861Y-15078D01*
X48908Y-15447D01*
X48909Y-15500D01*
G54D11*
X64760Y-13025D02*
X64760Y-13875D01*
X62725Y-14625D02*
X64425Y-14625D01*
X62400Y-13025D02*
X62400Y-13875D01*
X62725Y-12275D02*
X64425Y-12275D01*
X64250Y-13475D02*
X64237Y-13601D01*
X64200Y-13722D01*
X64141Y-13834D01*
X64061Y-13933D01*
X63963Y-14013D01*
X63851Y-14074D01*
X63730Y-14111D01*
X63604Y-14124D01*
X63479Y-14113D01*
X63357Y-14077D01*
X63245Y-14018D01*
X63146Y-13939D01*
X63064Y-13842D01*
X63003Y-13731D01*
X62965Y-13610D01*
X62951Y-13484D01*
X62961Y-13358D01*
X62996Y-13236D01*
X63054Y-13123D01*
X63133Y-13024D01*
X63230Y-12942D01*
X63340Y-12880D01*
X63461Y-12841D01*
X63587Y-12826D01*
X63712Y-12835D01*
X63835Y-12869D01*
X63948Y-12927D01*
X64048Y-13005D01*
X64131Y-13101D01*
X64193Y-13211D01*
X64233Y-13331D01*
X64249Y-13457D01*
X64250Y-13475D01*
X59160Y-13025D02*
X59160Y-13875D01*
X57125Y-14625D02*
X58825Y-14625D01*
X56800Y-13025D02*
X56800Y-13875D01*
X57125Y-12275D02*
X58825Y-12275D01*
X58650Y-13475D02*
X58637Y-13601D01*
X58600Y-13722D01*
X58541Y-13834D01*
X58461Y-13933D01*
X58363Y-14013D01*
X58251Y-14074D01*
X58130Y-14111D01*
X58004Y-14124D01*
X57879Y-14113D01*
X57757Y-14077D01*
X57645Y-14018D01*
X57546Y-13939D01*
X57464Y-13842D01*
X57403Y-13731D01*
X57365Y-13610D01*
X57351Y-13484D01*
X57361Y-13358D01*
X57396Y-13236D01*
X57454Y-13123D01*
X57533Y-13024D01*
X57630Y-12942D01*
X57740Y-12880D01*
X57861Y-12841D01*
X57987Y-12826D01*
X58112Y-12835D01*
X58235Y-12869D01*
X58348Y-12927D01*
X58448Y-13005D01*
X58531Y-13101D01*
X58593Y-13211D01*
X58633Y-13331D01*
X58649Y-13457D01*
X58650Y-13475D01*
X53760Y-13025D02*
X53760Y-13875D01*
X51725Y-14625D02*
X53425Y-14625D01*
X51400Y-13025D02*
X51400Y-13875D01*
X51725Y-12275D02*
X53425Y-12275D01*
X53250Y-13475D02*
X53237Y-13601D01*
X53200Y-13722D01*
X53141Y-13834D01*
X53061Y-13933D01*
X52963Y-14013D01*
X52851Y-14074D01*
X52730Y-14111D01*
X52604Y-14124D01*
X52479Y-14113D01*
X52357Y-14077D01*
X52245Y-14018D01*
X52146Y-13939D01*
X52064Y-13842D01*
X52003Y-13731D01*
X51965Y-13610D01*
X51951Y-13484D01*
X51961Y-13358D01*
X51996Y-13236D01*
X52054Y-13123D01*
X52133Y-13024D01*
X52230Y-12942D01*
X52340Y-12880D01*
X52461Y-12841D01*
X52587Y-12826D01*
X52712Y-12835D01*
X52835Y-12869D01*
X52948Y-12927D01*
X53048Y-13005D01*
X53131Y-13101D01*
X53193Y-13211D01*
X53233Y-13331D01*
X53249Y-13457D01*
X53250Y-13475D01*
G54D13*
X94917Y-19764D02*
X94917Y-19075D01*
X94917Y-20256D02*
X94917Y-21024D01*
X94917Y-20256D02*
X95193Y-19764D01*
X95193Y-19764D02*
X94661Y-19764D01*
X94661Y-19764D02*
X94917Y-20256D01*
X95193Y-20256D02*
X94661Y-20256D01*
X97909Y-20000D02*
X97872Y-20370D01*
X97764Y-20727D01*
X97590Y-21056D01*
X97354Y-21345D01*
X97067Y-21582D01*
X96739Y-21759D01*
X96383Y-21870D01*
X96013Y-21908D01*
X95643Y-21875D01*
X95285Y-21769D01*
X94955Y-21597D01*
X94665Y-21363D01*
X94425Y-21078D01*
X94246Y-20752D01*
X94133Y-20396D01*
X94092Y-20026D01*
X94123Y-19656D01*
X94226Y-19298D01*
X94396Y-18966D01*
X94627Y-18674D01*
X94911Y-18433D01*
X95236Y-18251D01*
X95591Y-18136D01*
X95961Y-18092D01*
X96331Y-18121D01*
X96690Y-18221D01*
X97022Y-18389D01*
X97316Y-18618D01*
X97559Y-18900D01*
X97743Y-19224D01*
X97861Y-19578D01*
X97908Y-19947D01*
X97909Y-20000D01*
X94917Y-15264D02*
X94917Y-14575D01*
X94917Y-15756D02*
X94917Y-16524D01*
X94917Y-15756D02*
X95193Y-15264D01*
X95193Y-15264D02*
X94661Y-15264D01*
X94661Y-15264D02*
X94917Y-15756D01*
X95193Y-15756D02*
X94661Y-15756D01*
X97909Y-15500D02*
X97872Y-15870D01*
X97764Y-16227D01*
X97590Y-16556D01*
X97354Y-16845D01*
X97067Y-17082D01*
X96739Y-17259D01*
X96383Y-17370D01*
X96013Y-17408D01*
X95643Y-17375D01*
X95285Y-17269D01*
X94955Y-17097D01*
X94665Y-16863D01*
X94425Y-16578D01*
X94246Y-16252D01*
X94133Y-15896D01*
X94092Y-15526D01*
X94123Y-15156D01*
X94226Y-14798D01*
X94396Y-14466D01*
X94627Y-14174D01*
X94911Y-13933D01*
X95236Y-13751D01*
X95591Y-13636D01*
X95961Y-13592D01*
X96331Y-13621D01*
X96690Y-13721D01*
X97022Y-13889D01*
X97316Y-14118D01*
X97559Y-14400D01*
X97743Y-14724D01*
X97861Y-15078D01*
X97908Y-15447D01*
X97909Y-15500D01*
X101583Y-15736D02*
X101583Y-16425D01*
X101583Y-15244D02*
X101583Y-14476D01*
X101583Y-15244D02*
X101307Y-15736D01*
X101307Y-15736D02*
X101839Y-15736D01*
X101839Y-15736D02*
X101583Y-15244D01*
X101307Y-15244D02*
X101839Y-15244D01*
X102409Y-15500D02*
X102372Y-15870D01*
X102264Y-16227D01*
X102090Y-16556D01*
X101854Y-16845D01*
X101567Y-17082D01*
X101239Y-17259D01*
X100883Y-17370D01*
X100513Y-17408D01*
X100143Y-17375D01*
X99785Y-17269D01*
X99455Y-17097D01*
X99165Y-16863D01*
X98925Y-16578D01*
X98746Y-16252D01*
X98633Y-15896D01*
X98592Y-15526D01*
X98623Y-15156D01*
X98726Y-14798D01*
X98896Y-14466D01*
X99127Y-14174D01*
X99411Y-13933D01*
X99736Y-13751D01*
X100091Y-13636D01*
X100461Y-13592D01*
X100831Y-13621D01*
X101190Y-13721D01*
X101522Y-13889D01*
X101816Y-14118D01*
X102059Y-14400D01*
X102243Y-14724D01*
X102361Y-15078D01*
X102408Y-15447D01*
X102409Y-15500D01*
X101583Y-20236D02*
X101583Y-20925D01*
X101583Y-19744D02*
X101583Y-18976D01*
X101583Y-19744D02*
X101307Y-20236D01*
X101307Y-20236D02*
X101839Y-20236D01*
X101839Y-20236D02*
X101583Y-19744D01*
X101307Y-19744D02*
X101839Y-19744D01*
X102409Y-20000D02*
X102372Y-20370D01*
X102264Y-20727D01*
X102090Y-21056D01*
X101854Y-21345D01*
X101567Y-21582D01*
X101239Y-21759D01*
X100883Y-21870D01*
X100513Y-21908D01*
X100143Y-21875D01*
X99785Y-21769D01*
X99455Y-21597D01*
X99165Y-21363D01*
X98925Y-21078D01*
X98746Y-20752D01*
X98633Y-20396D01*
X98592Y-20026D01*
X98623Y-19656D01*
X98726Y-19298D01*
X98896Y-18966D01*
X99127Y-18674D01*
X99411Y-18433D01*
X99736Y-18251D01*
X100091Y-18136D01*
X100461Y-18092D01*
X100831Y-18121D01*
X101190Y-18221D01*
X101522Y-18389D01*
X101816Y-18618D01*
X102059Y-18900D01*
X102243Y-19224D01*
X102361Y-19578D01*
X102408Y-19947D01*
X102409Y-20000D01*
X85917Y-19664D02*
X85917Y-18975D01*
X85917Y-20156D02*
X85917Y-20924D01*
X85917Y-20156D02*
X86193Y-19664D01*
X86193Y-19664D02*
X85661Y-19664D01*
X85661Y-19664D02*
X85917Y-20156D01*
X86193Y-20156D02*
X85661Y-20156D01*
X88909Y-19900D02*
X88872Y-20270D01*
X88764Y-20627D01*
X88590Y-20956D01*
X88354Y-21245D01*
X88067Y-21482D01*
X87739Y-21659D01*
X87383Y-21770D01*
X87013Y-21808D01*
X86643Y-21775D01*
X86285Y-21669D01*
X85955Y-21497D01*
X85665Y-21263D01*
X85425Y-20978D01*
X85246Y-20652D01*
X85133Y-20296D01*
X85092Y-19926D01*
X85123Y-19556D01*
X85226Y-19198D01*
X85396Y-18866D01*
X85627Y-18574D01*
X85911Y-18333D01*
X86236Y-18151D01*
X86591Y-18036D01*
X86961Y-17992D01*
X87331Y-18021D01*
X87690Y-18121D01*
X88022Y-18289D01*
X88316Y-18518D01*
X88559Y-18800D01*
X88743Y-19124D01*
X88861Y-19478D01*
X88908Y-19847D01*
X88909Y-19900D01*
X85917Y-15264D02*
X85917Y-14575D01*
X85917Y-15756D02*
X85917Y-16524D01*
X85917Y-15756D02*
X86193Y-15264D01*
X86193Y-15264D02*
X85661Y-15264D01*
X85661Y-15264D02*
X85917Y-15756D01*
X86193Y-15756D02*
X85661Y-15756D01*
X88909Y-15500D02*
X88872Y-15870D01*
X88764Y-16227D01*
X88590Y-16556D01*
X88354Y-16845D01*
X88067Y-17082D01*
X87739Y-17259D01*
X87383Y-17370D01*
X87013Y-17408D01*
X86643Y-17375D01*
X86285Y-17269D01*
X85955Y-17097D01*
X85665Y-16863D01*
X85425Y-16578D01*
X85246Y-16252D01*
X85133Y-15896D01*
X85092Y-15526D01*
X85123Y-15156D01*
X85226Y-14798D01*
X85396Y-14466D01*
X85627Y-14174D01*
X85911Y-13933D01*
X86236Y-13751D01*
X86591Y-13636D01*
X86961Y-13592D01*
X87331Y-13621D01*
X87690Y-13721D01*
X88022Y-13889D01*
X88316Y-14118D01*
X88559Y-14400D01*
X88743Y-14724D01*
X88861Y-15078D01*
X88908Y-15447D01*
X88909Y-15500D01*
X92683Y-15736D02*
X92683Y-16425D01*
X92683Y-15244D02*
X92683Y-14476D01*
X92683Y-15244D02*
X92407Y-15736D01*
X92407Y-15736D02*
X92939Y-15736D01*
X92939Y-15736D02*
X92683Y-15244D01*
X92407Y-15244D02*
X92939Y-15244D01*
X93509Y-15500D02*
X93472Y-15870D01*
X93364Y-16227D01*
X93190Y-16556D01*
X92954Y-16845D01*
X92667Y-17082D01*
X92339Y-17259D01*
X91983Y-17370D01*
X91613Y-17408D01*
X91243Y-17375D01*
X90885Y-17269D01*
X90555Y-17097D01*
X90265Y-16863D01*
X90025Y-16578D01*
X89846Y-16252D01*
X89733Y-15896D01*
X89692Y-15526D01*
X89723Y-15156D01*
X89826Y-14798D01*
X89996Y-14466D01*
X90227Y-14174D01*
X90511Y-13933D01*
X90836Y-13751D01*
X91191Y-13636D01*
X91561Y-13592D01*
X91931Y-13621D01*
X92290Y-13721D01*
X92622Y-13889D01*
X92916Y-14118D01*
X93159Y-14400D01*
X93343Y-14724D01*
X93461Y-15078D01*
X93508Y-15447D01*
X93509Y-15500D01*
X92683Y-20236D02*
X92683Y-20925D01*
X92683Y-19744D02*
X92683Y-18976D01*
X92683Y-19744D02*
X92407Y-20236D01*
X92407Y-20236D02*
X92939Y-20236D01*
X92939Y-20236D02*
X92683Y-19744D01*
X92407Y-19744D02*
X92939Y-19744D01*
X93509Y-20000D02*
X93472Y-20370D01*
X93364Y-20727D01*
X93190Y-21056D01*
X92954Y-21345D01*
X92667Y-21582D01*
X92339Y-21759D01*
X91983Y-21870D01*
X91613Y-21908D01*
X91243Y-21875D01*
X90885Y-21769D01*
X90555Y-21597D01*
X90265Y-21363D01*
X90025Y-21078D01*
X89846Y-20752D01*
X89733Y-20396D01*
X89692Y-20026D01*
X89723Y-19656D01*
X89826Y-19298D01*
X89996Y-18966D01*
X90227Y-18674D01*
X90511Y-18433D01*
X90836Y-18251D01*
X91191Y-18136D01*
X91561Y-18092D01*
X91931Y-18121D01*
X92290Y-18221D01*
X92622Y-18389D01*
X92916Y-18618D01*
X93159Y-18900D01*
X93343Y-19224D01*
X93461Y-19578D01*
X93508Y-19947D01*
X93509Y-20000D01*
X83583Y-20236D02*
X83583Y-20925D01*
X83583Y-19744D02*
X83583Y-18976D01*
X83583Y-19744D02*
X83307Y-20236D01*
X83307Y-20236D02*
X83839Y-20236D01*
X83839Y-20236D02*
X83583Y-19744D01*
X83307Y-19744D02*
X83839Y-19744D01*
X84409Y-20000D02*
X84372Y-20370D01*
X84264Y-20727D01*
X84090Y-21056D01*
X83854Y-21345D01*
X83567Y-21582D01*
X83239Y-21759D01*
X82883Y-21870D01*
X82513Y-21908D01*
X82143Y-21875D01*
X81785Y-21769D01*
X81455Y-21597D01*
X81165Y-21363D01*
X80925Y-21078D01*
X80746Y-20752D01*
X80633Y-20396D01*
X80592Y-20026D01*
X80623Y-19656D01*
X80726Y-19298D01*
X80896Y-18966D01*
X81127Y-18674D01*
X81411Y-18433D01*
X81736Y-18251D01*
X82091Y-18136D01*
X82461Y-18092D01*
X82831Y-18121D01*
X83190Y-18221D01*
X83522Y-18389D01*
X83816Y-18618D01*
X84059Y-18900D01*
X84243Y-19224D01*
X84361Y-19578D01*
X84408Y-19947D01*
X84409Y-20000D01*
X83583Y-15736D02*
X83583Y-16425D01*
X83583Y-15244D02*
X83583Y-14476D01*
X83583Y-15244D02*
X83307Y-15736D01*
X83307Y-15736D02*
X83839Y-15736D01*
X83839Y-15736D02*
X83583Y-15244D01*
X83307Y-15244D02*
X83839Y-15244D01*
X84409Y-15500D02*
X84372Y-15870D01*
X84264Y-16227D01*
X84090Y-16556D01*
X83854Y-16845D01*
X83567Y-17082D01*
X83239Y-17259D01*
X82883Y-17370D01*
X82513Y-17408D01*
X82143Y-17375D01*
X81785Y-17269D01*
X81455Y-17097D01*
X81165Y-16863D01*
X80925Y-16578D01*
X80746Y-16252D01*
X80633Y-15896D01*
X80592Y-15526D01*
X80623Y-15156D01*
X80726Y-14798D01*
X80896Y-14466D01*
X81127Y-14174D01*
X81411Y-13933D01*
X81736Y-13751D01*
X82091Y-13636D01*
X82461Y-13592D01*
X82831Y-13621D01*
X83190Y-13721D01*
X83522Y-13889D01*
X83816Y-14118D01*
X84059Y-14400D01*
X84243Y-14724D01*
X84361Y-15078D01*
X84408Y-15447D01*
X84409Y-15500D01*
X76917Y-15264D02*
X76917Y-14575D01*
X76917Y-15756D02*
X76917Y-16524D01*
X76917Y-15756D02*
X77193Y-15264D01*
X77193Y-15264D02*
X76661Y-15264D01*
X76661Y-15264D02*
X76917Y-15756D01*
X77193Y-15756D02*
X76661Y-15756D01*
X79909Y-15500D02*
X79872Y-15870D01*
X79764Y-16227D01*
X79590Y-16556D01*
X79354Y-16845D01*
X79067Y-17082D01*
X78739Y-17259D01*
X78383Y-17370D01*
X78013Y-17408D01*
X77643Y-17375D01*
X77285Y-17269D01*
X76955Y-17097D01*
X76665Y-16863D01*
X76425Y-16578D01*
X76246Y-16252D01*
X76133Y-15896D01*
X76092Y-15526D01*
X76123Y-15156D01*
X76226Y-14798D01*
X76396Y-14466D01*
X76627Y-14174D01*
X76911Y-13933D01*
X77236Y-13751D01*
X77591Y-13636D01*
X77961Y-13592D01*
X78331Y-13621D01*
X78690Y-13721D01*
X79022Y-13889D01*
X79316Y-14118D01*
X79559Y-14400D01*
X79743Y-14724D01*
X79861Y-15078D01*
X79908Y-15447D01*
X79909Y-15500D01*
X76917Y-19764D02*
X76917Y-19075D01*
X76917Y-20256D02*
X76917Y-21024D01*
X76917Y-20256D02*
X77193Y-19764D01*
X77193Y-19764D02*
X76661Y-19764D01*
X76661Y-19764D02*
X76917Y-20256D01*
X77193Y-20256D02*
X76661Y-20256D01*
X79909Y-20000D02*
X79872Y-20370D01*
X79764Y-20727D01*
X79590Y-21056D01*
X79354Y-21345D01*
X79067Y-21582D01*
X78739Y-21759D01*
X78383Y-21870D01*
X78013Y-21908D01*
X77643Y-21875D01*
X77285Y-21769D01*
X76955Y-21597D01*
X76665Y-21363D01*
X76425Y-21078D01*
X76246Y-20752D01*
X76133Y-20396D01*
X76092Y-20026D01*
X76123Y-19656D01*
X76226Y-19298D01*
X76396Y-18966D01*
X76627Y-18674D01*
X76911Y-18433D01*
X77236Y-18251D01*
X77591Y-18136D01*
X77961Y-18092D01*
X78331Y-18121D01*
X78690Y-18221D01*
X79022Y-18389D01*
X79316Y-18618D01*
X79559Y-18900D01*
X79743Y-19224D01*
X79861Y-19578D01*
X79908Y-19947D01*
X79909Y-20000D01*
X74583Y-20236D02*
X74583Y-20925D01*
X74583Y-19744D02*
X74583Y-18976D01*
X74583Y-19744D02*
X74307Y-20236D01*
X74307Y-20236D02*
X74839Y-20236D01*
X74839Y-20236D02*
X74583Y-19744D01*
X74307Y-19744D02*
X74839Y-19744D01*
X75409Y-20000D02*
X75372Y-20370D01*
X75264Y-20727D01*
X75090Y-21056D01*
X74854Y-21345D01*
X74567Y-21582D01*
X74239Y-21759D01*
X73883Y-21870D01*
X73513Y-21908D01*
X73143Y-21875D01*
X72785Y-21769D01*
X72455Y-21597D01*
X72165Y-21363D01*
X71925Y-21078D01*
X71746Y-20752D01*
X71633Y-20396D01*
X71592Y-20026D01*
X71623Y-19656D01*
X71726Y-19298D01*
X71896Y-18966D01*
X72127Y-18674D01*
X72411Y-18433D01*
X72736Y-18251D01*
X73091Y-18136D01*
X73461Y-18092D01*
X73831Y-18121D01*
X74190Y-18221D01*
X74522Y-18389D01*
X74816Y-18618D01*
X75059Y-18900D01*
X75243Y-19224D01*
X75361Y-19578D01*
X75408Y-19947D01*
X75409Y-20000D01*
X74583Y-15736D02*
X74583Y-16425D01*
X74583Y-15244D02*
X74583Y-14476D01*
X74583Y-15244D02*
X74307Y-15736D01*
X74307Y-15736D02*
X74839Y-15736D01*
X74839Y-15736D02*
X74583Y-15244D01*
X74307Y-15244D02*
X74839Y-15244D01*
X75409Y-15500D02*
X75372Y-15870D01*
X75264Y-16227D01*
X75090Y-16556D01*
X74854Y-16845D01*
X74567Y-17082D01*
X74239Y-17259D01*
X73883Y-17370D01*
X73513Y-17408D01*
X73143Y-17375D01*
X72785Y-17269D01*
X72455Y-17097D01*
X72165Y-16863D01*
X71925Y-16578D01*
X71746Y-16252D01*
X71633Y-15896D01*
X71592Y-15526D01*
X71623Y-15156D01*
X71726Y-14798D01*
X71896Y-14466D01*
X72127Y-14174D01*
X72411Y-13933D01*
X72736Y-13751D01*
X73091Y-13636D01*
X73461Y-13592D01*
X73831Y-13621D01*
X74190Y-13721D01*
X74522Y-13889D01*
X74816Y-14118D01*
X75059Y-14400D01*
X75243Y-14724D01*
X75361Y-15078D01*
X75408Y-15447D01*
X75409Y-15500D01*
X67917Y-15264D02*
X67917Y-14575D01*
X67917Y-15756D02*
X67917Y-16524D01*
X67917Y-15756D02*
X68193Y-15264D01*
X68193Y-15264D02*
X67661Y-15264D01*
X67661Y-15264D02*
X67917Y-15756D01*
X68193Y-15756D02*
X67661Y-15756D01*
X70909Y-15500D02*
X70872Y-15870D01*
X70764Y-16227D01*
X70590Y-16556D01*
X70354Y-16845D01*
X70067Y-17082D01*
X69739Y-17259D01*
X69383Y-17370D01*
X69013Y-17408D01*
X68643Y-17375D01*
X68285Y-17269D01*
X67955Y-17097D01*
X67665Y-16863D01*
X67425Y-16578D01*
X67246Y-16252D01*
X67133Y-15896D01*
X67092Y-15526D01*
X67123Y-15156D01*
X67226Y-14798D01*
X67396Y-14466D01*
X67627Y-14174D01*
X67911Y-13933D01*
X68236Y-13751D01*
X68591Y-13636D01*
X68961Y-13592D01*
X69331Y-13621D01*
X69690Y-13721D01*
X70022Y-13889D01*
X70316Y-14118D01*
X70559Y-14400D01*
X70743Y-14724D01*
X70861Y-15078D01*
X70908Y-15447D01*
X70909Y-15500D01*
X67917Y-19764D02*
X67917Y-19075D01*
X67917Y-20256D02*
X67917Y-21024D01*
X67917Y-20256D02*
X68193Y-19764D01*
X68193Y-19764D02*
X67661Y-19764D01*
X67661Y-19764D02*
X67917Y-20256D01*
X68193Y-20256D02*
X67661Y-20256D01*
X70909Y-20000D02*
X70872Y-20370D01*
X70764Y-20727D01*
X70590Y-21056D01*
X70354Y-21345D01*
X70067Y-21582D01*
X69739Y-21759D01*
X69383Y-21870D01*
X69013Y-21908D01*
X68643Y-21875D01*
X68285Y-21769D01*
X67955Y-21597D01*
X67665Y-21363D01*
X67425Y-21078D01*
X67246Y-20752D01*
X67133Y-20396D01*
X67092Y-20026D01*
X67123Y-19656D01*
X67226Y-19298D01*
X67396Y-18966D01*
X67627Y-18674D01*
X67911Y-18433D01*
X68236Y-18251D01*
X68591Y-18136D01*
X68961Y-18092D01*
X69331Y-18121D01*
X69690Y-18221D01*
X70022Y-18389D01*
X70316Y-18618D01*
X70559Y-18900D01*
X70743Y-19224D01*
X70861Y-19578D01*
X70908Y-19947D01*
X70909Y-20000D01*
X56300Y-13400D02*
X56280Y-13594D01*
X56224Y-13781D01*
X56132Y-13953D01*
X56009Y-14104D01*
X55859Y-14229D01*
X55687Y-14321D01*
X55501Y-14379D01*
X55306Y-14399D01*
X55113Y-14382D01*
X54926Y-14327D01*
X54753Y-14236D01*
X54601Y-14114D01*
X54475Y-13964D01*
X54381Y-13793D01*
X54322Y-13607D01*
X54301Y-13413D01*
X54317Y-13220D01*
X54371Y-13032D01*
X54460Y-12859D01*
X54581Y-12706D01*
X54730Y-12579D01*
X54900Y-12484D01*
X55086Y-12424D01*
X55280Y-12401D01*
X55473Y-12416D01*
X55661Y-12468D01*
X55835Y-12556D01*
X55989Y-12676D01*
X56117Y-12824D01*
X56213Y-12994D01*
X56275Y-13179D01*
X56299Y-13373D01*
X56300Y-13400D01*
X54300Y-13650D02*
X54550Y-13650D01*
X54550Y-13650D02*
X54550Y-13150D01*
X54550Y-13150D02*
X54300Y-13150D01*
G54D14*
X55535Y-17670D02*
X55535Y-17374D01*
X55535Y-17374D02*
X54866Y-17374D01*
X54866Y-17670D02*
X54866Y-17374D01*
X55535Y-17670D02*
X54866Y-17670D01*
X55534Y-16626D02*
X55534Y-16330D01*
X55534Y-16330D02*
X54865Y-16330D01*
X54865Y-16626D02*
X54865Y-16330D01*
X55534Y-16626D02*
X54865Y-16626D01*
X55357Y-17078D02*
X55357Y-16922D01*
X55357Y-16922D02*
X55043Y-16922D01*
X55043Y-17078D02*
X55043Y-16922D01*
X55357Y-17078D02*
X55043Y-17078D01*
G54D16*
X54813Y-17973D02*
X54813Y-16027D01*
X55587Y-16027D02*
X55587Y-17973D01*
X55587Y-17973D02*
X54813Y-17973D01*
X54813Y-16027D02*
X55587Y-16027D01*
G54D17*
X54891Y-17379D02*
X54891Y-16621D01*
X55509Y-17379D02*
X55509Y-16621D01*
G54D13*
X66100Y-23300D02*
X61600Y-23300D01*
X61600Y-23300D02*
X60600Y-22300D01*
X60600Y-22300D02*
X60600Y-21300D01*
X60600Y-21300D02*
X61600Y-20300D01*
X61600Y-20300D02*
X66100Y-20300D01*
X66100Y-20300D02*
X66100Y-23300D01*
X62800Y-23300D02*
X62350Y-23300D01*
X62450Y-20300D02*
X62800Y-20300D01*
X64100Y-22000D02*
X61150Y-22000D01*
X64100Y-21600D02*
X61150Y-21600D01*
X64120Y-21800D02*
X64091Y-22095D01*
X64005Y-22379D01*
X63866Y-22641D01*
X63678Y-22871D01*
X63449Y-23060D01*
X63189Y-23201D01*
X62905Y-23288D01*
X62610Y-23319D01*
X62316Y-23293D01*
X62031Y-23209D01*
X61768Y-23071D01*
X61537Y-22885D01*
X61346Y-22658D01*
X61203Y-22398D01*
X61114Y-22116D01*
X61081Y-21821D01*
X61105Y-21526D01*
X61187Y-21241D01*
X61323Y-20977D01*
X61507Y-20745D01*
X61733Y-20552D01*
X61992Y-20408D01*
X62274Y-20316D01*
X62569Y-20281D01*
X62863Y-20304D01*
X63149Y-20383D01*
X63414Y-20517D01*
X63648Y-20700D01*
X63842Y-20924D01*
X63988Y-21182D01*
X64082Y-21464D01*
X64119Y-21758D01*
X64120Y-21800D01*
G54D11*
X57650Y-19400D02*
X58000Y-19400D01*
X57650Y-19400D02*
X58000Y-19250D01*
X58000Y-19250D02*
X58000Y-19550D01*
X58000Y-19550D02*
X57650Y-19400D01*
X56780Y-19154D02*
X56780Y-19347D01*
X56780Y-19347D02*
X57213Y-19347D01*
X57213Y-19154D02*
X57213Y-19347D01*
X56780Y-19154D02*
X57213Y-19154D01*
X56780Y-19654D02*
X56780Y-19847D01*
X56780Y-19847D02*
X57213Y-19847D01*
X57213Y-19654D02*
X57213Y-19847D01*
X56780Y-19654D02*
X57213Y-19654D01*
X56780Y-20154D02*
X56780Y-20347D01*
X56780Y-20347D02*
X57213Y-20347D01*
X57213Y-20154D02*
X57213Y-20347D01*
X56780Y-20154D02*
X57213Y-20154D01*
X56780Y-20654D02*
X56780Y-20847D01*
X56780Y-20847D02*
X57213Y-20847D01*
X57213Y-20654D02*
X57213Y-20847D01*
X56780Y-20654D02*
X57213Y-20654D01*
X58787Y-21653D02*
X58787Y-21846D01*
X58787Y-21846D02*
X59220Y-21846D01*
X59220Y-21653D02*
X59220Y-21846D01*
X58787Y-21653D02*
X59220Y-21653D01*
X58787Y-21153D02*
X58787Y-21346D01*
X58787Y-21346D02*
X59220Y-21346D01*
X59220Y-21153D02*
X59220Y-21346D01*
X58787Y-21153D02*
X59220Y-21153D01*
X58787Y-20654D02*
X58787Y-20847D01*
X58787Y-20847D02*
X59220Y-20847D01*
X59220Y-20654D02*
X59220Y-20847D01*
X58787Y-20654D02*
X59220Y-20654D01*
X58787Y-20154D02*
X58787Y-20347D01*
X58787Y-20347D02*
X59220Y-20347D01*
X59220Y-20154D02*
X59220Y-20347D01*
X58787Y-20154D02*
X59220Y-20154D01*
X56780Y-21153D02*
X56780Y-21346D01*
X56780Y-21346D02*
X57213Y-21346D01*
X57213Y-21153D02*
X57213Y-21346D01*
X56780Y-21153D02*
X57213Y-21153D01*
X56780Y-21653D02*
X56780Y-21846D01*
X56780Y-21846D02*
X57213Y-21846D01*
X57213Y-21653D02*
X57213Y-21846D01*
X56780Y-21653D02*
X57213Y-21653D01*
X56780Y-22153D02*
X56780Y-22346D01*
X56780Y-22346D02*
X57213Y-22346D01*
X57213Y-22153D02*
X57213Y-22346D01*
X56780Y-22153D02*
X57213Y-22153D01*
X56780Y-22653D02*
X56780Y-22846D01*
X56780Y-22846D02*
X57213Y-22846D01*
X57213Y-22653D02*
X57213Y-22846D01*
X56780Y-22653D02*
X57213Y-22653D01*
X58787Y-22653D02*
X58787Y-22846D01*
X58787Y-22846D02*
X59220Y-22846D01*
X59220Y-22653D02*
X59220Y-22846D01*
X58787Y-22653D02*
X59220Y-22653D01*
X58787Y-22153D02*
X58787Y-22346D01*
X58787Y-22346D02*
X59220Y-22346D01*
X59220Y-22153D02*
X59220Y-22346D01*
X58787Y-22153D02*
X59220Y-22153D01*
X58787Y-19654D02*
X58787Y-19847D01*
X58787Y-19847D02*
X59220Y-19847D01*
X59220Y-19654D02*
X59220Y-19847D01*
X58787Y-19654D02*
X59220Y-19654D01*
X58787Y-19154D02*
X58787Y-19347D01*
X58787Y-19347D02*
X59220Y-19347D01*
X59220Y-19154D02*
X59220Y-19347D01*
X58787Y-19154D02*
X59220Y-19154D01*
X59535Y-18876D02*
X59535Y-23124D01*
X56465Y-23124D02*
X56465Y-18876D01*
X56465Y-18876D02*
X59535Y-18876D01*
X57252Y-22944D02*
X57252Y-19056D01*
X57252Y-19056D02*
X57449Y-19056D01*
X57449Y-19056D02*
X58748Y-19056D01*
X58748Y-19056D02*
X58748Y-22944D01*
X57449Y-22944D02*
X57449Y-19056D01*
X58748Y-22944D02*
X57449Y-22944D01*
X57449Y-22944D02*
X57252Y-22944D01*
X59535Y-23124D02*
X56465Y-23124D01*
G54D13*
X12500Y-20600D02*
X11500Y-20600D01*
X11500Y-20600D02*
X11500Y-14600D01*
X11500Y-14600D02*
X12500Y-14600D01*
X12500Y-14600D02*
X12500Y-20600D01*
X12500Y-19600D02*
X11500Y-19600D01*
X104500Y-20600D02*
X103500Y-20600D01*
X103500Y-20600D02*
X103500Y-14600D01*
X103500Y-14600D02*
X104500Y-14600D01*
X104500Y-14600D02*
X104500Y-20600D01*
X104500Y-19600D02*
X103500Y-19600D01*
G54D11*
X104400Y-22500D02*
X104382Y-22674D01*
X104332Y-22842D01*
X104249Y-22998D01*
X104138Y-23134D01*
X104003Y-23246D01*
X103848Y-23329D01*
X103680Y-23381D01*
X103506Y-23399D01*
X103332Y-23384D01*
X103163Y-23334D01*
X103008Y-23253D01*
X102871Y-23143D01*
X102758Y-23008D01*
X102673Y-22854D01*
X102620Y-22687D01*
X102601Y-22512D01*
X102615Y-22338D01*
X102664Y-22169D01*
X102744Y-22013D01*
X102853Y-21875D01*
X102987Y-21761D01*
X103140Y-21676D01*
X103307Y-21621D01*
X103482Y-21601D01*
X103656Y-21614D01*
X103825Y-21661D01*
X103982Y-21741D01*
X104120Y-21849D01*
X104235Y-21982D01*
X104322Y-22134D01*
X104377Y-22301D01*
X104399Y-22475D01*
X104400Y-22500D01*
X13400Y-13000D02*
X13382Y-13174D01*
X13332Y-13342D01*
X13249Y-13498D01*
X13138Y-13634D01*
X13003Y-13746D01*
X12848Y-13829D01*
X12680Y-13881D01*
X12506Y-13899D01*
X12332Y-13884D01*
X12163Y-13834D01*
X12008Y-13753D01*
X11871Y-13643D01*
X11758Y-13508D01*
X11673Y-13354D01*
X11620Y-13187D01*
X11601Y-13012D01*
X11615Y-12838D01*
X11664Y-12669D01*
X11744Y-12513D01*
X11853Y-12375D01*
X11987Y-12261D01*
X12140Y-12176D01*
X12307Y-12121D01*
X12482Y-12101D01*
X12656Y-12114D01*
X12825Y-12161D01*
X12982Y-12241D01*
X13120Y-12349D01*
X13235Y-12482D01*
X13322Y-12634D01*
X13377Y-12801D01*
X13399Y-12975D01*
X13400Y-13000D01*
X13400Y-22500D02*
X13382Y-22674D01*
X13332Y-22842D01*
X13249Y-22998D01*
X13138Y-23134D01*
X13003Y-23246D01*
X12848Y-23329D01*
X12680Y-23381D01*
X12506Y-23399D01*
X12332Y-23384D01*
X12163Y-23334D01*
X12008Y-23253D01*
X11871Y-23143D01*
X11758Y-23008D01*
X11673Y-22854D01*
X11620Y-22687D01*
X11601Y-22512D01*
X11615Y-22338D01*
X11664Y-22169D01*
X11744Y-22013D01*
X11853Y-21875D01*
X11987Y-21761D01*
X12140Y-21676D01*
X12307Y-21621D01*
X12482Y-21601D01*
X12656Y-21614D01*
X12825Y-21661D01*
X12982Y-21741D01*
X13120Y-21849D01*
X13235Y-21982D01*
X13322Y-22134D01*
X13377Y-22301D01*
X13399Y-22475D01*
X13400Y-22500D01*
X104400Y-13000D02*
X104382Y-13174D01*
X104332Y-13342D01*
X104249Y-13498D01*
X104138Y-13634D01*
X104003Y-13746D01*
X103848Y-13829D01*
X103680Y-13881D01*
X103506Y-13899D01*
X103332Y-13884D01*
X103163Y-13834D01*
X103008Y-13753D01*
X102871Y-13643D01*
X102758Y-13508D01*
X102673Y-13354D01*
X102620Y-13187D01*
X102601Y-13012D01*
X102615Y-12838D01*
X102664Y-12669D01*
X102744Y-12513D01*
X102853Y-12375D01*
X102987Y-12261D01*
X103140Y-12176D01*
X103307Y-12121D01*
X103482Y-12101D01*
X103656Y-12114D01*
X103825Y-12161D01*
X103982Y-12241D01*
X104120Y-12349D01*
X104235Y-12482D01*
X104322Y-12634D01*
X104377Y-12801D01*
X104399Y-12975D01*
X104400Y-13000D01*
X72400Y-13000D02*
X72382Y-13174D01*
X72332Y-13342D01*
X72249Y-13498D01*
X72138Y-13634D01*
X72003Y-13746D01*
X71848Y-13829D01*
X71680Y-13881D01*
X71506Y-13899D01*
X71332Y-13884D01*
X71163Y-13834D01*
X71008Y-13753D01*
X70871Y-13643D01*
X70758Y-13508D01*
X70673Y-13354D01*
X70620Y-13187D01*
X70601Y-13012D01*
X70615Y-12838D01*
X70664Y-12669D01*
X70744Y-12513D01*
X70853Y-12375D01*
X70987Y-12261D01*
X71140Y-12176D01*
X71307Y-12121D01*
X71482Y-12101D01*
X71656Y-12114D01*
X71825Y-12161D01*
X71982Y-12241D01*
X72120Y-12349D01*
X72235Y-12482D01*
X72322Y-12634D01*
X72377Y-12801D01*
X72399Y-12975D01*
X72400Y-13000D01*
X45400Y-13000D02*
X45382Y-13174D01*
X45332Y-13342D01*
X45249Y-13498D01*
X45138Y-13634D01*
X45003Y-13746D01*
X44848Y-13829D01*
X44680Y-13881D01*
X44506Y-13899D01*
X44332Y-13884D01*
X44163Y-13834D01*
X44008Y-13753D01*
X43871Y-13643D01*
X43758Y-13508D01*
X43673Y-13354D01*
X43620Y-13187D01*
X43601Y-13012D01*
X43615Y-12838D01*
X43664Y-12669D01*
X43744Y-12513D01*
X43853Y-12375D01*
X43987Y-12261D01*
X44140Y-12176D01*
X44307Y-12121D01*
X44482Y-12101D01*
X44656Y-12114D01*
X44825Y-12161D01*
X44982Y-12241D01*
X45120Y-12349D01*
X45235Y-12482D01*
X45322Y-12634D01*
X45377Y-12801D01*
X45399Y-12975D01*
X45400Y-13000D01*
G54D14*
X59220Y-17646D02*
X59220Y-17453D01*
X59220Y-17453D02*
X58787Y-17453D01*
X58787Y-17646D02*
X58787Y-17453D01*
X59220Y-17646D02*
X58787Y-17646D01*
X59220Y-17146D02*
X59220Y-16953D01*
X59220Y-16953D02*
X58787Y-16953D01*
X58787Y-17146D02*
X58787Y-16953D01*
X59220Y-17146D02*
X58787Y-17146D01*
X59220Y-16647D02*
X59220Y-16454D01*
X59220Y-16454D02*
X58787Y-16454D01*
X58787Y-16647D02*
X58787Y-16454D01*
X59220Y-16647D02*
X58787Y-16647D01*
X59220Y-16147D02*
X59220Y-15954D01*
X59220Y-15954D02*
X58787Y-15954D01*
X58787Y-16147D02*
X58787Y-15954D01*
X59220Y-16147D02*
X58787Y-16147D01*
X57213Y-16147D02*
X57213Y-15954D01*
X57213Y-15954D02*
X56780Y-15954D01*
X56780Y-16147D02*
X56780Y-15954D01*
X57213Y-16147D02*
X56780Y-16147D01*
X57213Y-16647D02*
X57213Y-16454D01*
X57213Y-16454D02*
X56780Y-16454D01*
X56780Y-16647D02*
X56780Y-16454D01*
X57213Y-16647D02*
X56780Y-16647D01*
X57213Y-17146D02*
X57213Y-16953D01*
X57213Y-16953D02*
X56780Y-16953D01*
X56780Y-17146D02*
X56780Y-16953D01*
X57213Y-17146D02*
X56780Y-17146D01*
X57213Y-17646D02*
X57213Y-17453D01*
X57213Y-17453D02*
X56780Y-17453D01*
X56780Y-17646D02*
X56780Y-17453D01*
X57213Y-17646D02*
X56780Y-17646D01*
X58393Y-17193D02*
X58393Y-16407D01*
X58393Y-16407D02*
X57607Y-16407D01*
X57607Y-17193D02*
X57607Y-16407D01*
X58393Y-17193D02*
X57607Y-17193D01*
G54D15*
X56465Y-17941D02*
X56465Y-15659D01*
X56465Y-15659D02*
X59535Y-15659D01*
X59535Y-15659D02*
X59535Y-17941D01*
X59535Y-17941D02*
X56465Y-17941D01*
G54D12*
X57252Y-15856D02*
X58551Y-15856D01*
X58551Y-15856D02*
X58748Y-15856D01*
X58748Y-15856D02*
X58748Y-17744D01*
X58748Y-17744D02*
X58551Y-17744D01*
X58551Y-17744D02*
X57252Y-17744D01*
X57252Y-17744D02*
X57252Y-15856D01*
X58551Y-15856D02*
X58551Y-17744D01*
G54D13*
X60300Y-19700D02*
X60300Y-18700D01*
X60300Y-18700D02*
X66300Y-18700D01*
X66300Y-18700D02*
X66300Y-19700D01*
X66300Y-19700D02*
X60300Y-19700D01*
X61300Y-19700D02*
X61300Y-18700D01*
X60300Y-18700D02*
X60300Y-17700D01*
X60300Y-17700D02*
X66300Y-17700D01*
X66300Y-17700D02*
X66300Y-18700D01*
X66300Y-18700D02*
X60300Y-18700D01*
X61300Y-18700D02*
X61300Y-17700D01*
X60300Y-16700D02*
X60300Y-15700D01*
X60300Y-15700D02*
X66300Y-15700D01*
X66300Y-15700D02*
X66300Y-16700D01*
X66300Y-16700D02*
X60300Y-16700D01*
X61300Y-16700D02*
X61300Y-15700D01*
X60300Y-17700D02*
X60300Y-16700D01*
X60300Y-16700D02*
X66300Y-16700D01*
X66300Y-16700D02*
X66300Y-17700D01*
X66300Y-17700D02*
X60300Y-17700D01*
X61300Y-17700D02*
X61300Y-16700D01*
G54D11*
X72400Y-22500D02*
X72382Y-22674D01*
X72332Y-22842D01*
X72249Y-22998D01*
X72138Y-23134D01*
X72003Y-23246D01*
X71848Y-23329D01*
X71680Y-23381D01*
X71506Y-23399D01*
X71332Y-23384D01*
X71163Y-23334D01*
X71008Y-23253D01*
X70871Y-23143D01*
X70758Y-23008D01*
X70673Y-22854D01*
X70620Y-22687D01*
X70601Y-22512D01*
X70615Y-22338D01*
X70664Y-22169D01*
X70744Y-22013D01*
X70853Y-21875D01*
X70987Y-21761D01*
X71140Y-21676D01*
X71307Y-21621D01*
X71482Y-21601D01*
X71656Y-21614D01*
X71825Y-21661D01*
X71982Y-21741D01*
X72120Y-21849D01*
X72235Y-21982D01*
X72322Y-22134D01*
X72377Y-22301D01*
X72399Y-22475D01*
X72400Y-22500D01*
X45400Y-22500D02*
X45382Y-22674D01*
X45332Y-22842D01*
X45249Y-22998D01*
X45138Y-23134D01*
X45003Y-23246D01*
X44848Y-23329D01*
X44680Y-23381D01*
X44506Y-23399D01*
X44332Y-23384D01*
X44163Y-23334D01*
X44008Y-23253D01*
X43871Y-23143D01*
X43758Y-23008D01*
X43673Y-22854D01*
X43620Y-22687D01*
X43601Y-22512D01*
X43615Y-22338D01*
X43664Y-22169D01*
X43744Y-22013D01*
X43853Y-21875D01*
X43987Y-21761D01*
X44140Y-21676D01*
X44307Y-21621D01*
X44482Y-21601D01*
X44656Y-21614D01*
X44825Y-21661D01*
X44982Y-21741D01*
X45120Y-21849D01*
X45235Y-21982D01*
X45322Y-22134D01*
X45377Y-22301D01*
X45399Y-22475D01*
X45400Y-22500D01*
G54D12*
X51310Y-22662D02*
X51310Y-22262D01*
X51481Y-22643D02*
X51538Y-22662D01*
X51634Y-22662D01*
X51672Y-22643D01*
X51691Y-22624D01*
X51710Y-22586D01*
X51710Y-22548D01*
X51691Y-22510D01*
X51672Y-22490D01*
X51634Y-22471D01*
X51557Y-22452D01*
X51519Y-22433D01*
X51500Y-22414D01*
X51481Y-22376D01*
X51481Y-22338D01*
X51500Y-22300D01*
X51519Y-22281D01*
X51557Y-22262D01*
X51653Y-22262D01*
X51710Y-22281D01*
X51881Y-22662D02*
X51881Y-22262D01*
X52034Y-22262D01*
X52072Y-22281D01*
X52091Y-22300D01*
X52110Y-22338D01*
X52110Y-22395D01*
X52091Y-22433D01*
X52072Y-22452D01*
X52034Y-22471D01*
X51881Y-22471D01*
X48912Y-19102D02*
X48912Y-18602D01*
X49436Y-19055D02*
X49412Y-19079D01*
X49341Y-19102D01*
X49293Y-19102D01*
X49221Y-19079D01*
X49174Y-19031D01*
X49150Y-18983D01*
X49126Y-18888D01*
X49126Y-18817D01*
X49150Y-18721D01*
X49174Y-18674D01*
X49221Y-18626D01*
X49293Y-18602D01*
X49341Y-18602D01*
X49412Y-18626D01*
X49436Y-18650D01*
X49912Y-19102D02*
X49626Y-19102D01*
X49769Y-19102D02*
X49769Y-18602D01*
X49721Y-18674D01*
X49674Y-18721D01*
X49626Y-18745D01*
G54D13*
X46172Y-23143D02*
X46172Y-22543D01*
X46315Y-22543D01*
X46400Y-22571D01*
X46458Y-22629D01*
X46486Y-22686D01*
X46515Y-22800D01*
X46515Y-22886D01*
X46486Y-23000D01*
X46458Y-23057D01*
X46400Y-23114D01*
X46315Y-23143D01*
X46172Y-23143D01*
X47086Y-23143D02*
X46743Y-23143D01*
X46915Y-23143D02*
X46915Y-22543D01*
X46858Y-22629D01*
X46800Y-22686D01*
X46743Y-22714D01*
X47600Y-22543D02*
X47486Y-22543D01*
X47429Y-22571D01*
X47400Y-22600D01*
X47343Y-22686D01*
X47314Y-22800D01*
X47314Y-23029D01*
X47343Y-23086D01*
X47371Y-23114D01*
X47429Y-23143D01*
X47543Y-23143D01*
X47600Y-23114D01*
X47629Y-23086D01*
X47657Y-23029D01*
X47657Y-22886D01*
X47629Y-22829D01*
X47600Y-22800D01*
X47543Y-22771D01*
X47429Y-22771D01*
X47371Y-22800D01*
X47343Y-22829D01*
X47314Y-22886D01*
X15058Y-23043D02*
X15058Y-22443D01*
X15201Y-22443D01*
X15286Y-22471D01*
X15344Y-22529D01*
X15372Y-22586D01*
X15401Y-22700D01*
X15401Y-22786D01*
X15372Y-22900D01*
X15344Y-22957D01*
X15286Y-23014D01*
X15201Y-23043D01*
X15058Y-23043D01*
X15972Y-23043D02*
X15629Y-23043D01*
X15801Y-23043D02*
X15801Y-22443D01*
X15744Y-22529D01*
X15686Y-22586D01*
X15629Y-22614D01*
X15057Y-12843D02*
X15057Y-12243D01*
X15200Y-12243D01*
X15285Y-12271D01*
X15343Y-12329D01*
X15371Y-12386D01*
X15400Y-12500D01*
X15400Y-12586D01*
X15371Y-12700D01*
X15343Y-12757D01*
X15285Y-12814D01*
X15200Y-12843D01*
X15057Y-12843D01*
X15628Y-12300D02*
X15657Y-12271D01*
X15714Y-12243D01*
X15857Y-12243D01*
X15914Y-12271D01*
X15943Y-12300D01*
X15971Y-12357D01*
X15971Y-12414D01*
X15943Y-12500D01*
X15600Y-12843D01*
X15971Y-12843D01*
X19558Y-13343D02*
X19558Y-12743D01*
X19701Y-12743D01*
X19786Y-12771D01*
X19844Y-12829D01*
X19872Y-12886D01*
X19901Y-13000D01*
X19901Y-13086D01*
X19872Y-13200D01*
X19844Y-13257D01*
X19786Y-13314D01*
X19701Y-13343D01*
X19558Y-13343D01*
X20101Y-12743D02*
X20472Y-12743D01*
X20272Y-12971D01*
X20358Y-12971D01*
X20415Y-13000D01*
X20444Y-13029D01*
X20472Y-13086D01*
X20472Y-13229D01*
X20444Y-13286D01*
X20415Y-13314D01*
X20358Y-13343D01*
X20186Y-13343D01*
X20129Y-13314D01*
X20101Y-13286D01*
X19558Y-23043D02*
X19558Y-22443D01*
X19701Y-22443D01*
X19786Y-22471D01*
X19844Y-22529D01*
X19872Y-22586D01*
X19901Y-22700D01*
X19901Y-22786D01*
X19872Y-22900D01*
X19844Y-22957D01*
X19786Y-23014D01*
X19701Y-23043D01*
X19558Y-23043D01*
X20415Y-22643D02*
X20415Y-23043D01*
X20272Y-22414D02*
X20129Y-22843D01*
X20501Y-22843D01*
X24158Y-23043D02*
X24158Y-22443D01*
X24301Y-22443D01*
X24386Y-22471D01*
X24444Y-22529D01*
X24472Y-22586D01*
X24501Y-22700D01*
X24501Y-22786D01*
X24472Y-22900D01*
X24444Y-22957D01*
X24386Y-23014D01*
X24301Y-23043D01*
X24158Y-23043D01*
X25044Y-22443D02*
X24758Y-22443D01*
X24729Y-22729D01*
X24758Y-22700D01*
X24815Y-22671D01*
X24958Y-22671D01*
X25015Y-22700D01*
X25044Y-22729D01*
X25072Y-22786D01*
X25072Y-22929D01*
X25044Y-22986D01*
X25015Y-23014D01*
X24958Y-23043D01*
X24815Y-23043D01*
X24758Y-23014D01*
X24729Y-22986D01*
X23958Y-13343D02*
X23958Y-12743D01*
X24101Y-12743D01*
X24186Y-12771D01*
X24244Y-12829D01*
X24272Y-12886D01*
X24301Y-13000D01*
X24301Y-13086D01*
X24272Y-13200D01*
X24244Y-13257D01*
X24186Y-13314D01*
X24101Y-13343D01*
X23958Y-13343D01*
X24815Y-12743D02*
X24701Y-12743D01*
X24644Y-12771D01*
X24615Y-12800D01*
X24558Y-12886D01*
X24529Y-13000D01*
X24529Y-13229D01*
X24558Y-13286D01*
X24586Y-13314D01*
X24644Y-13343D01*
X24758Y-13343D01*
X24815Y-13314D01*
X24844Y-13286D01*
X24872Y-13229D01*
X24872Y-13086D01*
X24844Y-13029D01*
X24815Y-13000D01*
X24758Y-12971D01*
X24644Y-12971D01*
X24586Y-13000D01*
X24558Y-13029D01*
X24529Y-13086D01*
X28458Y-12843D02*
X28458Y-12243D01*
X28601Y-12243D01*
X28686Y-12271D01*
X28744Y-12329D01*
X28772Y-12386D01*
X28801Y-12500D01*
X28801Y-12586D01*
X28772Y-12700D01*
X28744Y-12757D01*
X28686Y-12814D01*
X28601Y-12843D01*
X28458Y-12843D01*
X29001Y-12243D02*
X29401Y-12243D01*
X29144Y-12843D01*
X28558Y-23043D02*
X28558Y-22443D01*
X28701Y-22443D01*
X28786Y-22471D01*
X28844Y-22529D01*
X28872Y-22586D01*
X28901Y-22700D01*
X28901Y-22786D01*
X28872Y-22900D01*
X28844Y-22957D01*
X28786Y-23014D01*
X28701Y-23043D01*
X28558Y-23043D01*
X29244Y-22700D02*
X29186Y-22671D01*
X29158Y-22643D01*
X29129Y-22586D01*
X29129Y-22557D01*
X29158Y-22500D01*
X29186Y-22471D01*
X29244Y-22443D01*
X29358Y-22443D01*
X29415Y-22471D01*
X29444Y-22500D01*
X29472Y-22557D01*
X29472Y-22586D01*
X29444Y-22643D01*
X29415Y-22671D01*
X29358Y-22700D01*
X29244Y-22700D01*
X29186Y-22729D01*
X29158Y-22757D01*
X29129Y-22814D01*
X29129Y-22929D01*
X29158Y-22986D01*
X29186Y-23014D01*
X29244Y-23043D01*
X29358Y-23043D01*
X29415Y-23014D01*
X29444Y-22986D01*
X29472Y-22929D01*
X29472Y-22814D01*
X29444Y-22757D01*
X29415Y-22729D01*
X29358Y-22700D01*
X32958Y-23043D02*
X32958Y-22443D01*
X33101Y-22443D01*
X33186Y-22471D01*
X33244Y-22529D01*
X33272Y-22586D01*
X33301Y-22700D01*
X33301Y-22786D01*
X33272Y-22900D01*
X33244Y-22957D01*
X33186Y-23014D01*
X33101Y-23043D01*
X32958Y-23043D01*
X33586Y-23043D02*
X33701Y-23043D01*
X33758Y-23014D01*
X33786Y-22986D01*
X33844Y-22900D01*
X33872Y-22786D01*
X33872Y-22557D01*
X33844Y-22500D01*
X33815Y-22471D01*
X33758Y-22443D01*
X33644Y-22443D01*
X33586Y-22471D01*
X33558Y-22500D01*
X33529Y-22557D01*
X33529Y-22700D01*
X33558Y-22757D01*
X33586Y-22786D01*
X33644Y-22814D01*
X33758Y-22814D01*
X33815Y-22786D01*
X33844Y-22757D01*
X33872Y-22700D01*
X32772Y-12843D02*
X32772Y-12243D01*
X32915Y-12243D01*
X33000Y-12271D01*
X33058Y-12329D01*
X33086Y-12386D01*
X33115Y-12500D01*
X33115Y-12586D01*
X33086Y-12700D01*
X33058Y-12757D01*
X33000Y-12814D01*
X32915Y-12843D01*
X32772Y-12843D01*
X33686Y-12843D02*
X33343Y-12843D01*
X33515Y-12843D02*
X33515Y-12243D01*
X33458Y-12329D01*
X33400Y-12386D01*
X33343Y-12414D01*
X34057Y-12243D02*
X34114Y-12243D01*
X34171Y-12271D01*
X34200Y-12300D01*
X34229Y-12357D01*
X34257Y-12471D01*
X34257Y-12614D01*
X34229Y-12729D01*
X34200Y-12786D01*
X34171Y-12814D01*
X34114Y-12843D01*
X34057Y-12843D01*
X34000Y-12814D01*
X33971Y-12786D01*
X33943Y-12729D01*
X33914Y-12614D01*
X33914Y-12471D01*
X33943Y-12357D01*
X33971Y-12300D01*
X34000Y-12271D01*
X34057Y-12243D01*
X37172Y-12843D02*
X37172Y-12243D01*
X37315Y-12243D01*
X37400Y-12271D01*
X37458Y-12329D01*
X37486Y-12386D01*
X37515Y-12500D01*
X37515Y-12586D01*
X37486Y-12700D01*
X37458Y-12757D01*
X37400Y-12814D01*
X37315Y-12843D01*
X37172Y-12843D01*
X38086Y-12843D02*
X37743Y-12843D01*
X37915Y-12843D02*
X37915Y-12243D01*
X37858Y-12329D01*
X37800Y-12386D01*
X37743Y-12414D01*
X38657Y-12843D02*
X38314Y-12843D01*
X38486Y-12843D02*
X38486Y-12243D01*
X38429Y-12329D01*
X38371Y-12386D01*
X38314Y-12414D01*
X37172Y-23043D02*
X37172Y-22443D01*
X37315Y-22443D01*
X37400Y-22471D01*
X37458Y-22529D01*
X37486Y-22586D01*
X37515Y-22700D01*
X37515Y-22786D01*
X37486Y-22900D01*
X37458Y-22957D01*
X37400Y-23014D01*
X37315Y-23043D01*
X37172Y-23043D01*
X38086Y-23043D02*
X37743Y-23043D01*
X37915Y-23043D02*
X37915Y-22443D01*
X37858Y-22529D01*
X37800Y-22586D01*
X37743Y-22614D01*
X38314Y-22500D02*
X38343Y-22471D01*
X38400Y-22443D01*
X38543Y-22443D01*
X38600Y-22471D01*
X38629Y-22500D01*
X38657Y-22557D01*
X38657Y-22614D01*
X38629Y-22700D01*
X38286Y-23043D01*
X38657Y-23043D01*
X41672Y-23043D02*
X41672Y-22443D01*
X41815Y-22443D01*
X41900Y-22471D01*
X41958Y-22529D01*
X41986Y-22586D01*
X42015Y-22700D01*
X42015Y-22786D01*
X41986Y-22900D01*
X41958Y-22957D01*
X41900Y-23014D01*
X41815Y-23043D01*
X41672Y-23043D01*
X42586Y-23043D02*
X42243Y-23043D01*
X42415Y-23043D02*
X42415Y-22443D01*
X42358Y-22529D01*
X42300Y-22586D01*
X42243Y-22614D01*
X42786Y-22443D02*
X43157Y-22443D01*
X42957Y-22671D01*
X43043Y-22671D01*
X43100Y-22700D01*
X43129Y-22729D01*
X43157Y-22786D01*
X43157Y-22929D01*
X43129Y-22986D01*
X43100Y-23014D01*
X43043Y-23043D01*
X42871Y-23043D01*
X42814Y-23014D01*
X42786Y-22986D01*
X41772Y-12743D02*
X41772Y-12143D01*
X41915Y-12143D01*
X42000Y-12171D01*
X42058Y-12229D01*
X42086Y-12286D01*
X42115Y-12400D01*
X42115Y-12486D01*
X42086Y-12600D01*
X42058Y-12657D01*
X42000Y-12714D01*
X41915Y-12743D01*
X41772Y-12743D01*
X42686Y-12743D02*
X42343Y-12743D01*
X42515Y-12743D02*
X42515Y-12143D01*
X42458Y-12229D01*
X42400Y-12286D01*
X42343Y-12314D01*
X43200Y-12343D02*
X43200Y-12743D01*
X43057Y-12114D02*
X42914Y-12543D01*
X43286Y-12543D01*
X46172Y-12743D02*
X46172Y-12143D01*
X46315Y-12143D01*
X46400Y-12171D01*
X46458Y-12229D01*
X46486Y-12286D01*
X46515Y-12400D01*
X46515Y-12486D01*
X46486Y-12600D01*
X46458Y-12657D01*
X46400Y-12714D01*
X46315Y-12743D01*
X46172Y-12743D01*
X47086Y-12743D02*
X46743Y-12743D01*
X46915Y-12743D02*
X46915Y-12143D01*
X46858Y-12229D01*
X46800Y-12286D01*
X46743Y-12314D01*
X47629Y-12143D02*
X47343Y-12143D01*
X47314Y-12429D01*
X47343Y-12400D01*
X47400Y-12371D01*
X47543Y-12371D01*
X47600Y-12400D01*
X47629Y-12429D01*
X47657Y-12486D01*
X47657Y-12629D01*
X47629Y-12686D01*
X47600Y-12714D01*
X47543Y-12743D01*
X47400Y-12743D01*
X47343Y-12714D01*
X47314Y-12686D01*
X95272Y-23043D02*
X95272Y-22443D01*
X95415Y-22443D01*
X95500Y-22471D01*
X95558Y-22529D01*
X95586Y-22586D01*
X95615Y-22700D01*
X95615Y-22786D01*
X95586Y-22900D01*
X95558Y-22957D01*
X95500Y-23014D01*
X95415Y-23043D01*
X95272Y-23043D01*
X95815Y-22443D02*
X96186Y-22443D01*
X95986Y-22671D01*
X96072Y-22671D01*
X96129Y-22700D01*
X96158Y-22729D01*
X96186Y-22786D01*
X96186Y-22929D01*
X96158Y-22986D01*
X96129Y-23014D01*
X96072Y-23043D01*
X95900Y-23043D01*
X95843Y-23014D01*
X95815Y-22986D01*
X96414Y-22500D02*
X96443Y-22471D01*
X96500Y-22443D01*
X96643Y-22443D01*
X96700Y-22471D01*
X96729Y-22500D01*
X96757Y-22557D01*
X96757Y-22614D01*
X96729Y-22700D01*
X96386Y-23043D01*
X96757Y-23043D01*
X95272Y-12743D02*
X95272Y-12143D01*
X95415Y-12143D01*
X95500Y-12171D01*
X95558Y-12229D01*
X95586Y-12286D01*
X95615Y-12400D01*
X95615Y-12486D01*
X95586Y-12600D01*
X95558Y-12657D01*
X95500Y-12714D01*
X95415Y-12743D01*
X95272Y-12743D01*
X95815Y-12143D02*
X96186Y-12143D01*
X95986Y-12371D01*
X96072Y-12371D01*
X96129Y-12400D01*
X96158Y-12429D01*
X96186Y-12486D01*
X96186Y-12629D01*
X96158Y-12686D01*
X96129Y-12714D01*
X96072Y-12743D01*
X95900Y-12743D01*
X95843Y-12714D01*
X95815Y-12686D01*
X96757Y-12743D02*
X96414Y-12743D01*
X96586Y-12743D02*
X96586Y-12143D01*
X96529Y-12229D01*
X96471Y-12286D01*
X96414Y-12314D01*
X99872Y-12743D02*
X99872Y-12143D01*
X100015Y-12143D01*
X100100Y-12171D01*
X100158Y-12229D01*
X100186Y-12286D01*
X100215Y-12400D01*
X100215Y-12486D01*
X100186Y-12600D01*
X100158Y-12657D01*
X100100Y-12714D01*
X100015Y-12743D01*
X99872Y-12743D01*
X100415Y-12143D02*
X100786Y-12143D01*
X100586Y-12371D01*
X100672Y-12371D01*
X100729Y-12400D01*
X100758Y-12429D01*
X100786Y-12486D01*
X100786Y-12629D01*
X100758Y-12686D01*
X100729Y-12714D01*
X100672Y-12743D01*
X100500Y-12743D01*
X100443Y-12714D01*
X100415Y-12686D01*
X101157Y-12143D02*
X101214Y-12143D01*
X101271Y-12171D01*
X101300Y-12200D01*
X101329Y-12257D01*
X101357Y-12371D01*
X101357Y-12514D01*
X101329Y-12629D01*
X101300Y-12686D01*
X101271Y-12714D01*
X101214Y-12743D01*
X101157Y-12743D01*
X101100Y-12714D01*
X101071Y-12686D01*
X101043Y-12629D01*
X101014Y-12514D01*
X101014Y-12371D01*
X101043Y-12257D01*
X101071Y-12200D01*
X101100Y-12171D01*
X101157Y-12143D01*
X99672Y-23043D02*
X99672Y-22443D01*
X99815Y-22443D01*
X99900Y-22471D01*
X99958Y-22529D01*
X99986Y-22586D01*
X100015Y-22700D01*
X100015Y-22786D01*
X99986Y-22900D01*
X99958Y-22957D01*
X99900Y-23014D01*
X99815Y-23043D01*
X99672Y-23043D01*
X100243Y-22500D02*
X100272Y-22471D01*
X100329Y-22443D01*
X100472Y-22443D01*
X100529Y-22471D01*
X100558Y-22500D01*
X100586Y-22557D01*
X100586Y-22614D01*
X100558Y-22700D01*
X100215Y-23043D01*
X100586Y-23043D01*
X100871Y-23043D02*
X100986Y-23043D01*
X101043Y-23014D01*
X101071Y-22986D01*
X101129Y-22900D01*
X101157Y-22786D01*
X101157Y-22557D01*
X101129Y-22500D01*
X101100Y-22471D01*
X101043Y-22443D01*
X100929Y-22443D01*
X100871Y-22471D01*
X100843Y-22500D01*
X100814Y-22557D01*
X100814Y-22700D01*
X100843Y-22757D01*
X100871Y-22786D01*
X100929Y-22814D01*
X101043Y-22814D01*
X101100Y-22786D01*
X101129Y-22757D01*
X101157Y-22700D01*
X86272Y-23043D02*
X86272Y-22443D01*
X86415Y-22443D01*
X86500Y-22471D01*
X86558Y-22529D01*
X86586Y-22586D01*
X86615Y-22700D01*
X86615Y-22786D01*
X86586Y-22900D01*
X86558Y-22957D01*
X86500Y-23014D01*
X86415Y-23043D01*
X86272Y-23043D01*
X86843Y-22500D02*
X86872Y-22471D01*
X86929Y-22443D01*
X87072Y-22443D01*
X87129Y-22471D01*
X87158Y-22500D01*
X87186Y-22557D01*
X87186Y-22614D01*
X87158Y-22700D01*
X86815Y-23043D01*
X87186Y-23043D01*
X87529Y-22700D02*
X87471Y-22671D01*
X87443Y-22643D01*
X87414Y-22586D01*
X87414Y-22557D01*
X87443Y-22500D01*
X87471Y-22471D01*
X87529Y-22443D01*
X87643Y-22443D01*
X87700Y-22471D01*
X87729Y-22500D01*
X87757Y-22557D01*
X87757Y-22586D01*
X87729Y-22643D01*
X87700Y-22671D01*
X87643Y-22700D01*
X87529Y-22700D01*
X87471Y-22729D01*
X87443Y-22757D01*
X87414Y-22814D01*
X87414Y-22929D01*
X87443Y-22986D01*
X87471Y-23014D01*
X87529Y-23043D01*
X87643Y-23043D01*
X87700Y-23014D01*
X87729Y-22986D01*
X87757Y-22929D01*
X87757Y-22814D01*
X87729Y-22757D01*
X87700Y-22729D01*
X87643Y-22700D01*
X86372Y-12843D02*
X86372Y-12243D01*
X86515Y-12243D01*
X86600Y-12271D01*
X86658Y-12329D01*
X86686Y-12386D01*
X86715Y-12500D01*
X86715Y-12586D01*
X86686Y-12700D01*
X86658Y-12757D01*
X86600Y-12814D01*
X86515Y-12843D01*
X86372Y-12843D01*
X86943Y-12300D02*
X86972Y-12271D01*
X87029Y-12243D01*
X87172Y-12243D01*
X87229Y-12271D01*
X87258Y-12300D01*
X87286Y-12357D01*
X87286Y-12414D01*
X87258Y-12500D01*
X86915Y-12843D01*
X87286Y-12843D01*
X87486Y-12243D02*
X87886Y-12243D01*
X87629Y-12843D01*
X90872Y-12843D02*
X90872Y-12243D01*
X91015Y-12243D01*
X91100Y-12271D01*
X91158Y-12329D01*
X91186Y-12386D01*
X91215Y-12500D01*
X91215Y-12586D01*
X91186Y-12700D01*
X91158Y-12757D01*
X91100Y-12814D01*
X91015Y-12843D01*
X90872Y-12843D01*
X91443Y-12300D02*
X91472Y-12271D01*
X91529Y-12243D01*
X91672Y-12243D01*
X91729Y-12271D01*
X91758Y-12300D01*
X91786Y-12357D01*
X91786Y-12414D01*
X91758Y-12500D01*
X91415Y-12843D01*
X91786Y-12843D01*
X92300Y-12243D02*
X92186Y-12243D01*
X92129Y-12271D01*
X92100Y-12300D01*
X92043Y-12386D01*
X92014Y-12500D01*
X92014Y-12729D01*
X92043Y-12786D01*
X92071Y-12814D01*
X92129Y-12843D01*
X92243Y-12843D01*
X92300Y-12814D01*
X92329Y-12786D01*
X92357Y-12729D01*
X92357Y-12586D01*
X92329Y-12529D01*
X92300Y-12500D01*
X92243Y-12471D01*
X92129Y-12471D01*
X92071Y-12500D01*
X92043Y-12529D01*
X92014Y-12586D01*
X90772Y-23043D02*
X90772Y-22443D01*
X90915Y-22443D01*
X91000Y-22471D01*
X91058Y-22529D01*
X91086Y-22586D01*
X91115Y-22700D01*
X91115Y-22786D01*
X91086Y-22900D01*
X91058Y-22957D01*
X91000Y-23014D01*
X90915Y-23043D01*
X90772Y-23043D01*
X91343Y-22500D02*
X91372Y-22471D01*
X91429Y-22443D01*
X91572Y-22443D01*
X91629Y-22471D01*
X91658Y-22500D01*
X91686Y-22557D01*
X91686Y-22614D01*
X91658Y-22700D01*
X91315Y-23043D01*
X91686Y-23043D01*
X92229Y-22443D02*
X91943Y-22443D01*
X91914Y-22729D01*
X91943Y-22700D01*
X92000Y-22671D01*
X92143Y-22671D01*
X92200Y-22700D01*
X92229Y-22729D01*
X92257Y-22786D01*
X92257Y-22929D01*
X92229Y-22986D01*
X92200Y-23014D01*
X92143Y-23043D01*
X92000Y-23043D01*
X91943Y-23014D01*
X91914Y-22986D01*
X81772Y-23143D02*
X81772Y-22543D01*
X81915Y-22543D01*
X82000Y-22571D01*
X82058Y-22629D01*
X82086Y-22686D01*
X82115Y-22800D01*
X82115Y-22886D01*
X82086Y-23000D01*
X82058Y-23057D01*
X82000Y-23114D01*
X81915Y-23143D01*
X81772Y-23143D01*
X82343Y-22600D02*
X82372Y-22571D01*
X82429Y-22543D01*
X82572Y-22543D01*
X82629Y-22571D01*
X82658Y-22600D01*
X82686Y-22657D01*
X82686Y-22714D01*
X82658Y-22800D01*
X82315Y-23143D01*
X82686Y-23143D01*
X83257Y-23143D02*
X82914Y-23143D01*
X83086Y-23143D02*
X83086Y-22543D01*
X83029Y-22629D01*
X82971Y-22686D01*
X82914Y-22714D01*
X81772Y-12943D02*
X81772Y-12343D01*
X81915Y-12343D01*
X82000Y-12371D01*
X82058Y-12429D01*
X82086Y-12486D01*
X82115Y-12600D01*
X82115Y-12686D01*
X82086Y-12800D01*
X82058Y-12857D01*
X82000Y-12914D01*
X81915Y-12943D01*
X81772Y-12943D01*
X82343Y-12400D02*
X82372Y-12371D01*
X82429Y-12343D01*
X82572Y-12343D01*
X82629Y-12371D01*
X82658Y-12400D01*
X82686Y-12457D01*
X82686Y-12514D01*
X82658Y-12600D01*
X82315Y-12943D01*
X82686Y-12943D01*
X82914Y-12400D02*
X82943Y-12371D01*
X83000Y-12343D01*
X83143Y-12343D01*
X83200Y-12371D01*
X83229Y-12400D01*
X83257Y-12457D01*
X83257Y-12514D01*
X83229Y-12600D01*
X82886Y-12943D01*
X83257Y-12943D01*
X77272Y-12943D02*
X77272Y-12343D01*
X77415Y-12343D01*
X77500Y-12371D01*
X77558Y-12429D01*
X77586Y-12486D01*
X77615Y-12600D01*
X77615Y-12686D01*
X77586Y-12800D01*
X77558Y-12857D01*
X77500Y-12914D01*
X77415Y-12943D01*
X77272Y-12943D01*
X77843Y-12400D02*
X77872Y-12371D01*
X77929Y-12343D01*
X78072Y-12343D01*
X78129Y-12371D01*
X78158Y-12400D01*
X78186Y-12457D01*
X78186Y-12514D01*
X78158Y-12600D01*
X77815Y-12943D01*
X78186Y-12943D01*
X78386Y-12343D02*
X78757Y-12343D01*
X78557Y-12571D01*
X78643Y-12571D01*
X78700Y-12600D01*
X78729Y-12629D01*
X78757Y-12686D01*
X78757Y-12829D01*
X78729Y-12886D01*
X78700Y-12914D01*
X78643Y-12943D01*
X78471Y-12943D01*
X78414Y-12914D01*
X78386Y-12886D01*
X77172Y-23143D02*
X77172Y-22543D01*
X77315Y-22543D01*
X77400Y-22571D01*
X77458Y-22629D01*
X77486Y-22686D01*
X77515Y-22800D01*
X77515Y-22886D01*
X77486Y-23000D01*
X77458Y-23057D01*
X77400Y-23114D01*
X77315Y-23143D01*
X77172Y-23143D01*
X77743Y-22600D02*
X77772Y-22571D01*
X77829Y-22543D01*
X77972Y-22543D01*
X78029Y-22571D01*
X78058Y-22600D01*
X78086Y-22657D01*
X78086Y-22714D01*
X78058Y-22800D01*
X77715Y-23143D01*
X78086Y-23143D01*
X78600Y-22743D02*
X78600Y-23143D01*
X78457Y-22514D02*
X78314Y-22943D01*
X78686Y-22943D01*
X72772Y-23143D02*
X72772Y-22543D01*
X72915Y-22543D01*
X73000Y-22571D01*
X73058Y-22629D01*
X73086Y-22686D01*
X73115Y-22800D01*
X73115Y-22886D01*
X73086Y-23000D01*
X73058Y-23057D01*
X73000Y-23114D01*
X72915Y-23143D01*
X72772Y-23143D01*
X73686Y-23143D02*
X73343Y-23143D01*
X73515Y-23143D02*
X73515Y-22543D01*
X73458Y-22629D01*
X73400Y-22686D01*
X73343Y-22714D01*
X73886Y-22543D02*
X74286Y-22543D01*
X74029Y-23143D01*
X72772Y-12943D02*
X72772Y-12343D01*
X72915Y-12343D01*
X73000Y-12371D01*
X73058Y-12429D01*
X73086Y-12486D01*
X73115Y-12600D01*
X73115Y-12686D01*
X73086Y-12800D01*
X73058Y-12857D01*
X73000Y-12914D01*
X72915Y-12943D01*
X72772Y-12943D01*
X73686Y-12943D02*
X73343Y-12943D01*
X73515Y-12943D02*
X73515Y-12343D01*
X73458Y-12429D01*
X73400Y-12486D01*
X73343Y-12514D01*
X74029Y-12600D02*
X73971Y-12571D01*
X73943Y-12543D01*
X73914Y-12486D01*
X73914Y-12457D01*
X73943Y-12400D01*
X73971Y-12371D01*
X74029Y-12343D01*
X74143Y-12343D01*
X74200Y-12371D01*
X74229Y-12400D01*
X74257Y-12457D01*
X74257Y-12486D01*
X74229Y-12543D01*
X74200Y-12571D01*
X74143Y-12600D01*
X74029Y-12600D01*
X73971Y-12629D01*
X73943Y-12657D01*
X73914Y-12714D01*
X73914Y-12829D01*
X73943Y-12886D01*
X73971Y-12914D01*
X74029Y-12943D01*
X74143Y-12943D01*
X74200Y-12914D01*
X74229Y-12886D01*
X74257Y-12829D01*
X74257Y-12714D01*
X74229Y-12657D01*
X74200Y-12629D01*
X74143Y-12600D01*
X68272Y-12943D02*
X68272Y-12343D01*
X68415Y-12343D01*
X68500Y-12371D01*
X68558Y-12429D01*
X68586Y-12486D01*
X68615Y-12600D01*
X68615Y-12686D01*
X68586Y-12800D01*
X68558Y-12857D01*
X68500Y-12914D01*
X68415Y-12943D01*
X68272Y-12943D01*
X69186Y-12943D02*
X68843Y-12943D01*
X69015Y-12943D02*
X69015Y-12343D01*
X68958Y-12429D01*
X68900Y-12486D01*
X68843Y-12514D01*
X69471Y-12943D02*
X69586Y-12943D01*
X69643Y-12914D01*
X69671Y-12886D01*
X69729Y-12800D01*
X69757Y-12686D01*
X69757Y-12457D01*
X69729Y-12400D01*
X69700Y-12371D01*
X69643Y-12343D01*
X69529Y-12343D01*
X69471Y-12371D01*
X69443Y-12400D01*
X69414Y-12457D01*
X69414Y-12600D01*
X69443Y-12657D01*
X69471Y-12686D01*
X69529Y-12714D01*
X69643Y-12714D01*
X69700Y-12686D01*
X69729Y-12657D01*
X69757Y-12600D01*
X68272Y-23143D02*
X68272Y-22543D01*
X68415Y-22543D01*
X68500Y-22571D01*
X68558Y-22629D01*
X68586Y-22686D01*
X68615Y-22800D01*
X68615Y-22886D01*
X68586Y-23000D01*
X68558Y-23057D01*
X68500Y-23114D01*
X68415Y-23143D01*
X68272Y-23143D01*
X68843Y-22600D02*
X68872Y-22571D01*
X68929Y-22543D01*
X69072Y-22543D01*
X69129Y-22571D01*
X69158Y-22600D01*
X69186Y-22657D01*
X69186Y-22714D01*
X69158Y-22800D01*
X68815Y-23143D01*
X69186Y-23143D01*
X69557Y-22543D02*
X69614Y-22543D01*
X69671Y-22571D01*
X69700Y-22600D01*
X69729Y-22657D01*
X69757Y-22771D01*
X69757Y-22914D01*
X69729Y-23029D01*
X69700Y-23086D01*
X69671Y-23114D01*
X69614Y-23143D01*
X69557Y-23143D01*
X69500Y-23114D01*
X69471Y-23086D01*
X69443Y-23029D01*
X69414Y-22914D01*
X69414Y-22771D01*
X69443Y-22657D01*
X69471Y-22600D01*
X69500Y-22571D01*
X69557Y-22543D01*
G54D12*
X54593Y-15002D02*
X54593Y-14502D01*
X54712Y-14502D01*
X54784Y-14526D01*
X54831Y-14574D01*
X54855Y-14621D01*
X54879Y-14717D01*
X54879Y-14788D01*
X54855Y-14883D01*
X54831Y-14931D01*
X54784Y-14979D01*
X54712Y-15002D01*
X54593Y-15002D01*
X55045Y-14502D02*
X55355Y-14502D01*
X55188Y-14693D01*
X55260Y-14693D01*
X55307Y-14717D01*
X55331Y-14740D01*
X55355Y-14788D01*
X55355Y-14907D01*
X55331Y-14955D01*
X55307Y-14979D01*
X55260Y-15002D01*
X55117Y-15002D01*
X55069Y-14979D01*
X55045Y-14955D01*
X55521Y-14502D02*
X55831Y-14502D01*
X55664Y-14693D01*
X55736Y-14693D01*
X55783Y-14717D01*
X55807Y-14740D01*
X55831Y-14788D01*
X55831Y-14907D01*
X55807Y-14955D01*
X55783Y-14979D01*
X55736Y-15002D01*
X55593Y-15002D01*
X55545Y-14979D01*
X55521Y-14955D01*
X55117Y-15855D02*
X55093Y-15879D01*
X55022Y-15902D01*
X54974Y-15902D01*
X54902Y-15879D01*
X54855Y-15831D01*
X54831Y-15783D01*
X54807Y-15688D01*
X54807Y-15617D01*
X54831Y-15521D01*
X54855Y-15474D01*
X54902Y-15426D01*
X54974Y-15402D01*
X55022Y-15402D01*
X55093Y-15426D01*
X55117Y-15450D01*
X55569Y-15402D02*
X55331Y-15402D01*
X55307Y-15640D01*
X55331Y-15617D01*
X55379Y-15593D01*
X55498Y-15593D01*
X55545Y-15617D01*
X55569Y-15640D01*
X55593Y-15688D01*
X55593Y-15807D01*
X55569Y-15855D01*
X55545Y-15879D01*
X55498Y-15902D01*
X55379Y-15902D01*
X55331Y-15879D01*
X55307Y-15855D01*
X58512Y-18702D02*
X58512Y-18202D01*
X59036Y-18655D02*
X59012Y-18679D01*
X58941Y-18702D01*
X58893Y-18702D01*
X58821Y-18679D01*
X58774Y-18631D01*
X58750Y-18583D01*
X58726Y-18488D01*
X58726Y-18417D01*
X58750Y-18321D01*
X58774Y-18274D01*
X58821Y-18226D01*
X58893Y-18202D01*
X58941Y-18202D01*
X59012Y-18226D01*
X59036Y-18250D01*
X59226Y-18250D02*
X59250Y-18226D01*
X59298Y-18202D01*
X59417Y-18202D01*
X59464Y-18226D01*
X59488Y-18250D01*
X59512Y-18298D01*
X59512Y-18345D01*
X59488Y-18417D01*
X59202Y-18702D01*
X59512Y-18702D01*
X57512Y-15402D02*
X57512Y-14902D01*
X58036Y-15355D02*
X58012Y-15379D01*
X57941Y-15402D01*
X57893Y-15402D01*
X57821Y-15379D01*
X57774Y-15331D01*
X57750Y-15283D01*
X57726Y-15188D01*
X57726Y-15117D01*
X57750Y-15021D01*
X57774Y-14974D01*
X57821Y-14926D01*
X57893Y-14902D01*
X57941Y-14902D01*
X58012Y-14926D01*
X58036Y-14950D01*
X58202Y-14902D02*
X58512Y-14902D01*
X58345Y-15093D01*
X58417Y-15093D01*
X58464Y-15117D01*
X58488Y-15140D01*
X58512Y-15188D01*
X58512Y-15307D01*
X58488Y-15355D01*
X58464Y-15379D01*
X58417Y-15402D01*
X58274Y-15402D01*
X58226Y-15379D01*
X58202Y-15355D01*
M02*
