G04 (created by PCBNEW-RS274X (2011-04-28)-stable) date Sat 30 Jul 2011 07:03:46 PM CEST*
G01*
G70*
G90*
%MOIN*%
G04 Gerber Fmt 3.4, Leading zero omitted, Abs format*
%FSLAX34Y34*%
G04 APERTURE LIST*
%ADD10C,0.010000*%
%ADD11R,0.070000X0.070000*%
%ADD12C,0.070000*%
%ADD13R,0.060000X0.060000*%
%ADD14C,0.060000*%
%ADD15R,0.080000X0.080000*%
%ADD16C,0.080000*%
%ADD17R,0.055000X0.055000*%
%ADD18C,0.055000*%
%ADD19R,0.051100X0.059000*%
%ADD20R,0.059000X0.051100*%
%ADD21R,0.070800X0.062900*%
%ADD22R,0.062900X0.070800*%
%ADD23R,0.086600X0.023600*%
%ADD24C,0.160000*%
%ADD25R,0.045000X0.025000*%
%ADD26R,0.025000X0.045000*%
G04 APERTURE END LIST*
G54D10*
G54D11*
X129300Y-57700D03*
G54D12*
X129300Y-55700D03*
G54D11*
X34800Y-57700D03*
G54D12*
X34800Y-55700D03*
G54D13*
X30000Y-53200D03*
G54D14*
X31000Y-53200D03*
X30000Y-54200D03*
X31000Y-54200D03*
X30000Y-55200D03*
X31000Y-55200D03*
X30000Y-56200D03*
X31000Y-56200D03*
X30000Y-57200D03*
X31000Y-57200D03*
X30000Y-58200D03*
X31000Y-58200D03*
X30000Y-59200D03*
X31000Y-59200D03*
X30000Y-60200D03*
X31000Y-60200D03*
G54D13*
X133100Y-53200D03*
G54D14*
X134100Y-53200D03*
X133100Y-54200D03*
X134100Y-54200D03*
X133100Y-55200D03*
X134100Y-55200D03*
X133100Y-56200D03*
X134100Y-56200D03*
X133100Y-57200D03*
X134100Y-57200D03*
X133100Y-58200D03*
X134100Y-58200D03*
X133100Y-59200D03*
X134100Y-59200D03*
X133100Y-60200D03*
X134100Y-60200D03*
G54D15*
X56500Y-58000D03*
G54D16*
X56500Y-60000D03*
X58500Y-60000D03*
X58500Y-58000D03*
G54D15*
X56500Y-53500D03*
G54D16*
X56500Y-55500D03*
X58500Y-55500D03*
X58500Y-53500D03*
G54D15*
X38500Y-53500D03*
G54D16*
X38500Y-55500D03*
X40500Y-55500D03*
X40500Y-53500D03*
G54D15*
X38500Y-58000D03*
G54D16*
X38500Y-60000D03*
X40500Y-60000D03*
X40500Y-58000D03*
G54D15*
X45000Y-55500D03*
G54D16*
X45000Y-53500D03*
X43000Y-53500D03*
X43000Y-55500D03*
G54D15*
X45000Y-60000D03*
G54D16*
X45000Y-58000D03*
X43000Y-58000D03*
X43000Y-60000D03*
G54D13*
X83100Y-55000D03*
G54D14*
X83100Y-56000D03*
X82100Y-55000D03*
X82100Y-56000D03*
X81100Y-55000D03*
X81100Y-56000D03*
X86100Y-51575D03*
X88650Y-51575D03*
X86100Y-53325D03*
X88650Y-53325D03*
X80700Y-51575D03*
X83250Y-51575D03*
X80700Y-53325D03*
X83250Y-53325D03*
X75300Y-51575D03*
X77850Y-51575D03*
X75300Y-53325D03*
X77850Y-53325D03*
G54D17*
X79800Y-52400D03*
G54D18*
X78800Y-52400D03*
G54D19*
X82626Y-57700D03*
X83374Y-57700D03*
G54D20*
X84300Y-52774D03*
X84300Y-52026D03*
G54D21*
X90000Y-56251D03*
X90000Y-55149D03*
X85600Y-56251D03*
X85600Y-55149D03*
G54D22*
X81651Y-57700D03*
X80549Y-57700D03*
G54D21*
X84600Y-55149D03*
X84600Y-56251D03*
G54D16*
X89100Y-60100D03*
X85100Y-59100D03*
X89100Y-58100D03*
G54D23*
X80977Y-58850D03*
X80977Y-59350D03*
X80977Y-59850D03*
X80977Y-60350D03*
X80977Y-60850D03*
X80977Y-61350D03*
X80977Y-61850D03*
X80977Y-62350D03*
X83023Y-62350D03*
X83023Y-61850D03*
X83023Y-61350D03*
X83023Y-60850D03*
X83023Y-60350D03*
X83023Y-59850D03*
X83023Y-59350D03*
X83023Y-58850D03*
G54D24*
X36500Y-52000D03*
G54D23*
X88823Y-56450D03*
X88823Y-55950D03*
X88823Y-55450D03*
X88823Y-54950D03*
X86777Y-54950D03*
X86777Y-55450D03*
X86777Y-55950D03*
X86777Y-56450D03*
G54D24*
X127500Y-61500D03*
X127500Y-52000D03*
X95500Y-61500D03*
X95500Y-52000D03*
X68500Y-61500D03*
X68500Y-52000D03*
X36500Y-61500D03*
G54D23*
X74789Y-55350D03*
X74789Y-55850D03*
X74789Y-56350D03*
X74789Y-56850D03*
X74789Y-57350D03*
X74789Y-57850D03*
X74789Y-58350D03*
X74789Y-58850D03*
X74789Y-59350D03*
X74789Y-59850D03*
X78411Y-59850D03*
X78411Y-59350D03*
X78411Y-58850D03*
X78411Y-58350D03*
X78411Y-57850D03*
X78411Y-57350D03*
X78411Y-56850D03*
X78411Y-56350D03*
X78411Y-55850D03*
X78411Y-55350D03*
G54D15*
X47500Y-58000D03*
G54D16*
X47500Y-60000D03*
X49500Y-60000D03*
X49500Y-58000D03*
G54D15*
X47500Y-53500D03*
G54D16*
X47500Y-55500D03*
X49500Y-55500D03*
X49500Y-53500D03*
G54D15*
X54000Y-55500D03*
G54D16*
X54000Y-53500D03*
X52000Y-53500D03*
X52000Y-55500D03*
G54D15*
X54000Y-60000D03*
G54D16*
X54000Y-58000D03*
X52000Y-58000D03*
X52000Y-60000D03*
G54D15*
X63000Y-55500D03*
G54D16*
X63000Y-53500D03*
X61000Y-53500D03*
X61000Y-55500D03*
G54D15*
X63000Y-60000D03*
G54D16*
X63000Y-58000D03*
X61000Y-58000D03*
X61000Y-60000D03*
G54D15*
X65515Y-57471D03*
G54D16*
X65515Y-59471D03*
X67515Y-59471D03*
X67515Y-57471D03*
G54D15*
X65500Y-53500D03*
G54D16*
X65500Y-55500D03*
X67500Y-55500D03*
X67500Y-53500D03*
G54D15*
X72000Y-55500D03*
G54D16*
X72000Y-53500D03*
X70000Y-53500D03*
X70000Y-55500D03*
G54D15*
X72000Y-60000D03*
G54D16*
X72000Y-58000D03*
X70000Y-58000D03*
X70000Y-60000D03*
G54D15*
X92000Y-58000D03*
G54D16*
X92000Y-60000D03*
X94000Y-60000D03*
X94000Y-58000D03*
G54D15*
X92000Y-53500D03*
G54D16*
X92000Y-55500D03*
X94000Y-55500D03*
X94000Y-53500D03*
G54D15*
X98500Y-55500D03*
G54D16*
X98500Y-53500D03*
X96500Y-53500D03*
X96500Y-55500D03*
G54D15*
X98500Y-60000D03*
G54D16*
X98500Y-58000D03*
X96500Y-58000D03*
X96500Y-60000D03*
G54D15*
X100900Y-58000D03*
G54D16*
X100900Y-60000D03*
X102900Y-60000D03*
X102900Y-58000D03*
G54D15*
X100900Y-53500D03*
G54D16*
X100900Y-55500D03*
X102900Y-55500D03*
X102900Y-53500D03*
G54D15*
X107500Y-55500D03*
G54D16*
X107500Y-53500D03*
X105500Y-53500D03*
X105500Y-55500D03*
G54D15*
X107500Y-60000D03*
G54D16*
X107500Y-58000D03*
X105500Y-58000D03*
X105500Y-60000D03*
G54D15*
X110000Y-58000D03*
G54D16*
X110000Y-60000D03*
X112000Y-60000D03*
X112000Y-58000D03*
G54D15*
X110000Y-53500D03*
G54D16*
X110000Y-55500D03*
X112000Y-55500D03*
X112000Y-53500D03*
G54D15*
X116600Y-55500D03*
G54D16*
X116600Y-53500D03*
X114600Y-53500D03*
X114600Y-55500D03*
G54D15*
X116600Y-60000D03*
G54D16*
X116600Y-58000D03*
X114600Y-58000D03*
X114600Y-60000D03*
G54D15*
X119000Y-58000D03*
G54D16*
X119000Y-60000D03*
X121000Y-60000D03*
X121000Y-58000D03*
G54D15*
X119000Y-53500D03*
G54D16*
X119000Y-55500D03*
X121000Y-55500D03*
X121000Y-53500D03*
G54D15*
X125500Y-55500D03*
G54D16*
X125500Y-53500D03*
X123500Y-53500D03*
X123500Y-55500D03*
G54D15*
X125500Y-60000D03*
G54D16*
X125500Y-58000D03*
X123500Y-58000D03*
X123500Y-60000D03*
G54D17*
X134100Y-61700D03*
G54D18*
X131100Y-61700D03*
G54D17*
X30000Y-61700D03*
G54D18*
X33000Y-61700D03*
G54D25*
X85200Y-52800D03*
X85200Y-52200D03*
G54D26*
X73400Y-55800D03*
X74000Y-55800D03*
X73349Y-57601D03*
X73949Y-57601D03*
X73341Y-58278D03*
X73941Y-58278D03*
X79800Y-59900D03*
X79200Y-59900D03*
X79800Y-58900D03*
X79200Y-58900D03*
X79800Y-57800D03*
X79200Y-57800D03*
X79800Y-56800D03*
X79200Y-56800D03*
X79800Y-55800D03*
X79200Y-55800D03*
X79000Y-53900D03*
X79600Y-53900D03*
G54D13*
X133100Y-51600D03*
G54D14*
X134100Y-51600D03*
M02*
