M48
INCH,TZ
T1C0.039
T2C0.040
%
G05
T2
X41000Y-19500
X41000Y-20500
X42000Y-19500
X42000Y-20500
X43000Y-19500
X43000Y-20500
T1
X28500Y-45063G85X28500Y-46441
G05
X28500Y-47307G85X28500Y-47819
G05
X34500Y-43563G85X34500Y-44941
G05
X34500Y-45807G85X34500Y-46319
G05
X40000Y-44563G85X40000Y-45941
G05
X40000Y-46807G85X40000Y-47319
G05
X46500Y-45063G85X46500Y-46441
G05
X46500Y-47307G85X46500Y-47819
G05
X52000Y-44563G85X52000Y-45941
G05
X52000Y-46807G85X52000Y-47319
G05
X57000Y-60563G85X57000Y-61941
G05
X57000Y-62807G85X57000Y-63319
G05
X58000Y-45563G85X58000Y-46941
G05
X58000Y-47807G85X58000Y-48319
G05
X64500Y-45563G85X64500Y-46941
G05
X64500Y-47807G85X64500Y-48319
G05
X65000Y-61563G85X65000Y-62941
G05
X65000Y-63807G85X65000Y-64319
G05
X70500Y-45063G85X70500Y-46441
G05
X70500Y-47307G85X70500Y-47819
G05
X72500Y-62063G85X72500Y-63441
G05
X72500Y-64307G85X72500Y-64819
G05
X79000Y-61563G85X79000Y-62941
G05
X79000Y-63807G85X79000Y-64319
G05
X85500Y-61063G85X85500Y-62441
G05
X85500Y-63307G85X85500Y-63819
G05
X91000Y-61063G85X91000Y-62441
G05
X91000Y-63307G85X91000Y-63819
G05
X97000Y-61563G85X97000Y-62941
G05
X97000Y-63807G85X97000Y-64319
G05
X104500Y-63063G85X104500Y-64441
G05
X104500Y-65307G85X104500Y-65819
G05
T0
M30
