G04 (created by PCBNEW-RS274X (2010-04-21 BZR 23xx)-stable) date Sat 05 Mar 2011 02:34:09 PM CET*
G01*
G70*
G90*
%MOIN*%
G04 Gerber Fmt 3.4, Leading zero omitted, Abs format*
%FSLAX34Y34*%
G04 APERTURE LIST*
%ADD10C,0.006000*%
%ADD11C,0.012000*%
%ADD12C,0.008000*%
%ADD13C,0.015000*%
%ADD14C,0.002600*%
%ADD15C,0.003000*%
%ADD16C,0.003500*%
G04 APERTURE END LIST*
G54D10*
X04000Y-04000D02*
X113000Y-04000D01*
X113000Y-78670D01*
X04000Y-78670D01*
X04000Y-04000D01*
X04700Y-04700D02*
X112300Y-04700D01*
X112300Y-77970D01*
X04700Y-77970D01*
X04700Y-04700D01*
X25800Y-04000D02*
X25800Y-04700D01*
X15043Y-04552D02*
X14757Y-04552D01*
X14900Y-04552D02*
X14900Y-04052D01*
X14852Y-04124D01*
X14805Y-04171D01*
X14757Y-04195D01*
X25800Y-78670D02*
X25800Y-77970D01*
X15043Y-78522D02*
X14757Y-78522D01*
X14900Y-78522D02*
X14900Y-78022D01*
X14852Y-78094D01*
X14805Y-78141D01*
X14757Y-78165D01*
X47600Y-04000D02*
X47600Y-04700D01*
X36557Y-04100D02*
X36581Y-04076D01*
X36629Y-04052D01*
X36748Y-04052D01*
X36795Y-04076D01*
X36819Y-04100D01*
X36843Y-04148D01*
X36843Y-04195D01*
X36819Y-04267D01*
X36533Y-04552D01*
X36843Y-04552D01*
X47600Y-78670D02*
X47600Y-77970D01*
X36557Y-78070D02*
X36581Y-78046D01*
X36629Y-78022D01*
X36748Y-78022D01*
X36795Y-78046D01*
X36819Y-78070D01*
X36843Y-78118D01*
X36843Y-78165D01*
X36819Y-78237D01*
X36533Y-78522D01*
X36843Y-78522D01*
X69400Y-04000D02*
X69400Y-04700D01*
X58333Y-04052D02*
X58643Y-04052D01*
X58476Y-04243D01*
X58548Y-04243D01*
X58595Y-04267D01*
X58619Y-04290D01*
X58643Y-04338D01*
X58643Y-04457D01*
X58619Y-04505D01*
X58595Y-04529D01*
X58548Y-04552D01*
X58405Y-04552D01*
X58357Y-04529D01*
X58333Y-04505D01*
X69400Y-78670D02*
X69400Y-77970D01*
X58333Y-78022D02*
X58643Y-78022D01*
X58476Y-78213D01*
X58548Y-78213D01*
X58595Y-78237D01*
X58619Y-78260D01*
X58643Y-78308D01*
X58643Y-78427D01*
X58619Y-78475D01*
X58595Y-78499D01*
X58548Y-78522D01*
X58405Y-78522D01*
X58357Y-78499D01*
X58333Y-78475D01*
X91200Y-04000D02*
X91200Y-04700D01*
X80395Y-04219D02*
X80395Y-04552D01*
X80276Y-04029D02*
X80157Y-04386D01*
X80467Y-04386D01*
X91200Y-78670D02*
X91200Y-77970D01*
X80395Y-78189D02*
X80395Y-78522D01*
X80276Y-77999D02*
X80157Y-78356D01*
X80467Y-78356D01*
X102219Y-04052D02*
X101981Y-04052D01*
X101957Y-04290D01*
X101981Y-04267D01*
X102029Y-04243D01*
X102148Y-04243D01*
X102195Y-04267D01*
X102219Y-04290D01*
X102243Y-04338D01*
X102243Y-04457D01*
X102219Y-04505D01*
X102195Y-04529D01*
X102148Y-04552D01*
X102029Y-04552D01*
X101981Y-04529D01*
X101957Y-04505D01*
X102219Y-78022D02*
X101981Y-78022D01*
X101957Y-78260D01*
X101981Y-78237D01*
X102029Y-78213D01*
X102148Y-78213D01*
X102195Y-78237D01*
X102219Y-78260D01*
X102243Y-78308D01*
X102243Y-78427D01*
X102219Y-78475D01*
X102195Y-78499D01*
X102148Y-78522D01*
X102029Y-78522D01*
X101981Y-78499D01*
X101957Y-78475D01*
X04000Y-28890D02*
X04700Y-28890D01*
X04231Y-16510D02*
X04469Y-16510D01*
X04184Y-16652D02*
X04350Y-16152D01*
X04517Y-16652D01*
X113000Y-28890D02*
X112300Y-28890D01*
X112531Y-16510D02*
X112769Y-16510D01*
X112484Y-16652D02*
X112650Y-16152D01*
X112817Y-16652D01*
X04000Y-53780D02*
X04700Y-53780D01*
X04386Y-41280D02*
X04457Y-41304D01*
X04481Y-41328D01*
X04505Y-41376D01*
X04505Y-41447D01*
X04481Y-41495D01*
X04457Y-41519D01*
X04410Y-41542D01*
X04219Y-41542D01*
X04219Y-41042D01*
X04386Y-41042D01*
X04433Y-41066D01*
X04457Y-41090D01*
X04481Y-41138D01*
X04481Y-41185D01*
X04457Y-41233D01*
X04433Y-41257D01*
X04386Y-41280D01*
X04219Y-41280D01*
X113000Y-53780D02*
X112300Y-53780D01*
X112686Y-41280D02*
X112757Y-41304D01*
X112781Y-41328D01*
X112805Y-41376D01*
X112805Y-41447D01*
X112781Y-41495D01*
X112757Y-41519D01*
X112710Y-41542D01*
X112519Y-41542D01*
X112519Y-41042D01*
X112686Y-41042D01*
X112733Y-41066D01*
X112757Y-41090D01*
X112781Y-41138D01*
X112781Y-41185D01*
X112757Y-41233D01*
X112733Y-41257D01*
X112686Y-41280D01*
X112519Y-41280D01*
X04505Y-66385D02*
X04481Y-66409D01*
X04410Y-66432D01*
X04362Y-66432D01*
X04290Y-66409D01*
X04243Y-66361D01*
X04219Y-66313D01*
X04195Y-66218D01*
X04195Y-66147D01*
X04219Y-66051D01*
X04243Y-66004D01*
X04290Y-65956D01*
X04362Y-65932D01*
X04410Y-65932D01*
X04481Y-65956D01*
X04505Y-65980D01*
X112805Y-66385D02*
X112781Y-66409D01*
X112710Y-66432D01*
X112662Y-66432D01*
X112590Y-66409D01*
X112543Y-66361D01*
X112519Y-66313D01*
X112495Y-66218D01*
X112495Y-66147D01*
X112519Y-66051D01*
X112543Y-66004D01*
X112590Y-65956D01*
X112662Y-65932D01*
X112710Y-65932D01*
X112781Y-65956D01*
X112805Y-65980D01*
G54D11*
X79443Y-76413D02*
X79443Y-75813D01*
X79586Y-75813D01*
X79671Y-75841D01*
X79729Y-75899D01*
X79757Y-75956D01*
X79786Y-76070D01*
X79786Y-76156D01*
X79757Y-76270D01*
X79729Y-76327D01*
X79671Y-76384D01*
X79586Y-76413D01*
X79443Y-76413D01*
X80300Y-76413D02*
X80300Y-76099D01*
X80271Y-76041D01*
X80214Y-76013D01*
X80100Y-76013D01*
X80043Y-76041D01*
X80300Y-76384D02*
X80243Y-76413D01*
X80100Y-76413D01*
X80043Y-76384D01*
X80014Y-76327D01*
X80014Y-76270D01*
X80043Y-76213D01*
X80100Y-76184D01*
X80243Y-76184D01*
X80300Y-76156D01*
X80500Y-76013D02*
X80729Y-76013D01*
X80586Y-75813D02*
X80586Y-76327D01*
X80614Y-76384D01*
X80672Y-76413D01*
X80729Y-76413D01*
X81157Y-76384D02*
X81100Y-76413D01*
X80986Y-76413D01*
X80929Y-76384D01*
X80900Y-76327D01*
X80900Y-76099D01*
X80929Y-76041D01*
X80986Y-76013D01*
X81100Y-76013D01*
X81157Y-76041D01*
X81186Y-76099D01*
X81186Y-76156D01*
X80900Y-76213D01*
X81443Y-76356D02*
X81471Y-76384D01*
X81443Y-76413D01*
X81414Y-76384D01*
X81443Y-76356D01*
X81443Y-76413D01*
X81443Y-76041D02*
X81471Y-76070D01*
X81443Y-76099D01*
X81414Y-76070D01*
X81443Y-76041D01*
X81443Y-76099D01*
X82472Y-75813D02*
X82186Y-75813D01*
X82157Y-76099D01*
X82186Y-76070D01*
X82243Y-76041D01*
X82386Y-76041D01*
X82443Y-76070D01*
X82472Y-76099D01*
X82500Y-76156D01*
X82500Y-76299D01*
X82472Y-76356D01*
X82443Y-76384D01*
X82386Y-76413D01*
X82243Y-76413D01*
X82186Y-76384D01*
X82157Y-76356D01*
X83214Y-76413D02*
X83214Y-76013D01*
X83214Y-76070D02*
X83242Y-76041D01*
X83300Y-76013D01*
X83385Y-76013D01*
X83442Y-76041D01*
X83471Y-76099D01*
X83471Y-76413D01*
X83471Y-76099D02*
X83500Y-76041D01*
X83557Y-76013D01*
X83642Y-76013D01*
X83700Y-76041D01*
X83728Y-76099D01*
X83728Y-76413D01*
X84271Y-76413D02*
X84271Y-76099D01*
X84242Y-76041D01*
X84185Y-76013D01*
X84071Y-76013D01*
X84014Y-76041D01*
X84271Y-76384D02*
X84214Y-76413D01*
X84071Y-76413D01*
X84014Y-76384D01*
X83985Y-76327D01*
X83985Y-76270D01*
X84014Y-76213D01*
X84071Y-76184D01*
X84214Y-76184D01*
X84271Y-76156D01*
X84557Y-76413D02*
X84557Y-76013D01*
X84557Y-76127D02*
X84585Y-76070D01*
X84614Y-76041D01*
X84671Y-76013D01*
X84728Y-76013D01*
X85356Y-75870D02*
X85385Y-75841D01*
X85442Y-75813D01*
X85585Y-75813D01*
X85642Y-75841D01*
X85671Y-75870D01*
X85699Y-75927D01*
X85699Y-75984D01*
X85671Y-76070D01*
X85328Y-76413D01*
X85699Y-76413D01*
X86070Y-75813D02*
X86127Y-75813D01*
X86184Y-75841D01*
X86213Y-75870D01*
X86242Y-75927D01*
X86270Y-76041D01*
X86270Y-76184D01*
X86242Y-76299D01*
X86213Y-76356D01*
X86184Y-76384D01*
X86127Y-76413D01*
X86070Y-76413D01*
X86013Y-76384D01*
X85984Y-76356D01*
X85956Y-76299D01*
X85927Y-76184D01*
X85927Y-76041D01*
X85956Y-75927D01*
X85984Y-75870D01*
X86013Y-75841D01*
X86070Y-75813D01*
X86841Y-76413D02*
X86498Y-76413D01*
X86670Y-76413D02*
X86670Y-75813D01*
X86613Y-75899D01*
X86555Y-75956D01*
X86498Y-75984D01*
X87412Y-76413D02*
X87069Y-76413D01*
X87241Y-76413D02*
X87241Y-75813D01*
X87184Y-75899D01*
X87126Y-75956D01*
X87069Y-75984D01*
G54D10*
X71043Y-77613D02*
X71043Y-77013D01*
X71386Y-77613D02*
X71129Y-77270D01*
X71386Y-77013D02*
X71043Y-77356D01*
X71643Y-77613D02*
X71643Y-77213D01*
X71643Y-77013D02*
X71614Y-77041D01*
X71643Y-77070D01*
X71671Y-77041D01*
X71643Y-77013D01*
X71643Y-77070D01*
X72272Y-77556D02*
X72243Y-77584D01*
X72157Y-77613D01*
X72100Y-77613D01*
X72015Y-77584D01*
X71957Y-77527D01*
X71929Y-77470D01*
X71900Y-77356D01*
X71900Y-77270D01*
X71929Y-77156D01*
X71957Y-77099D01*
X72015Y-77041D01*
X72100Y-77013D01*
X72157Y-77013D01*
X72243Y-77041D01*
X72272Y-77070D01*
X72786Y-77613D02*
X72786Y-77299D01*
X72757Y-77241D01*
X72700Y-77213D01*
X72586Y-77213D01*
X72529Y-77241D01*
X72786Y-77584D02*
X72729Y-77613D01*
X72586Y-77613D01*
X72529Y-77584D01*
X72500Y-77527D01*
X72500Y-77470D01*
X72529Y-77413D01*
X72586Y-77384D01*
X72729Y-77384D01*
X72786Y-77356D01*
X73329Y-77613D02*
X73329Y-77013D01*
X73329Y-77584D02*
X73272Y-77613D01*
X73158Y-77613D01*
X73100Y-77584D01*
X73072Y-77556D01*
X73043Y-77499D01*
X73043Y-77327D01*
X73072Y-77270D01*
X73100Y-77241D01*
X73158Y-77213D01*
X73272Y-77213D01*
X73329Y-77241D01*
X74072Y-77299D02*
X74272Y-77299D01*
X74358Y-77613D02*
X74072Y-77613D01*
X74072Y-77013D01*
X74358Y-77013D01*
X74615Y-77556D02*
X74643Y-77584D01*
X74615Y-77613D01*
X74586Y-77584D01*
X74615Y-77556D01*
X74615Y-77613D01*
X74901Y-77613D02*
X74901Y-77013D01*
X75044Y-77013D01*
X75129Y-77041D01*
X75187Y-77099D01*
X75215Y-77156D01*
X75244Y-77270D01*
X75244Y-77356D01*
X75215Y-77470D01*
X75187Y-77527D01*
X75129Y-77584D01*
X75044Y-77613D01*
X74901Y-77613D01*
X75501Y-77556D02*
X75529Y-77584D01*
X75501Y-77613D01*
X75472Y-77584D01*
X75501Y-77556D01*
X75501Y-77613D01*
X75758Y-77441D02*
X76044Y-77441D01*
X75701Y-77613D02*
X75901Y-77013D01*
X76101Y-77613D01*
X76301Y-77556D02*
X76329Y-77584D01*
X76301Y-77613D01*
X76272Y-77584D01*
X76301Y-77556D01*
X76301Y-77613D01*
G54D11*
X104586Y-76413D02*
X104386Y-76127D01*
X104243Y-76413D02*
X104243Y-75813D01*
X104471Y-75813D01*
X104529Y-75841D01*
X104557Y-75870D01*
X104586Y-75927D01*
X104586Y-76013D01*
X104557Y-76070D01*
X104529Y-76099D01*
X104471Y-76127D01*
X104243Y-76127D01*
X105071Y-76384D02*
X105014Y-76413D01*
X104900Y-76413D01*
X104843Y-76384D01*
X104814Y-76327D01*
X104814Y-76099D01*
X104843Y-76041D01*
X104900Y-76013D01*
X105014Y-76013D01*
X105071Y-76041D01*
X105100Y-76099D01*
X105100Y-76156D01*
X104814Y-76213D01*
X105300Y-76013D02*
X105443Y-76413D01*
X105585Y-76013D01*
X105814Y-76356D02*
X105842Y-76384D01*
X105814Y-76413D01*
X105785Y-76384D01*
X105814Y-76356D01*
X105814Y-76413D01*
X105814Y-76041D02*
X105842Y-76070D01*
X105814Y-76099D01*
X105785Y-76070D01*
X105814Y-76041D01*
X105814Y-76099D01*
G54D10*
X71014Y-76384D02*
X71100Y-76413D01*
X71243Y-76413D01*
X71300Y-76384D01*
X71329Y-76356D01*
X71357Y-76299D01*
X71357Y-76241D01*
X71329Y-76184D01*
X71300Y-76156D01*
X71243Y-76127D01*
X71129Y-76099D01*
X71071Y-76070D01*
X71043Y-76041D01*
X71014Y-75984D01*
X71014Y-75927D01*
X71043Y-75870D01*
X71071Y-75841D01*
X71129Y-75813D01*
X71271Y-75813D01*
X71357Y-75841D01*
X71614Y-76413D02*
X71614Y-76013D01*
X71614Y-75813D02*
X71585Y-75841D01*
X71614Y-75870D01*
X71642Y-75841D01*
X71614Y-75813D01*
X71614Y-75870D01*
X71843Y-76013D02*
X72157Y-76013D01*
X71843Y-76413D01*
X72157Y-76413D01*
X72614Y-76384D02*
X72557Y-76413D01*
X72443Y-76413D01*
X72386Y-76384D01*
X72357Y-76327D01*
X72357Y-76099D01*
X72386Y-76041D01*
X72443Y-76013D01*
X72557Y-76013D01*
X72614Y-76041D01*
X72643Y-76099D01*
X72643Y-76156D01*
X72357Y-76213D01*
X72900Y-76356D02*
X72928Y-76384D01*
X72900Y-76413D01*
X72871Y-76384D01*
X72900Y-76356D01*
X72900Y-76413D01*
X72900Y-76041D02*
X72928Y-76070D01*
X72900Y-76099D01*
X72871Y-76070D01*
X72900Y-76041D01*
X72900Y-76099D01*
X73614Y-76241D02*
X73900Y-76241D01*
X73557Y-76413D02*
X73757Y-75813D01*
X73957Y-76413D01*
X74414Y-76013D02*
X74414Y-76413D01*
X74271Y-75784D02*
X74128Y-76213D01*
X74500Y-76213D01*
X104243Y-77613D02*
X104243Y-77013D01*
X104786Y-77613D02*
X104786Y-77013D01*
X104786Y-77584D02*
X104729Y-77613D01*
X104615Y-77613D01*
X104557Y-77584D01*
X104529Y-77556D01*
X104500Y-77499D01*
X104500Y-77327D01*
X104529Y-77270D01*
X104557Y-77241D01*
X104615Y-77213D01*
X104729Y-77213D01*
X104786Y-77241D01*
X105072Y-77556D02*
X105100Y-77584D01*
X105072Y-77613D01*
X105043Y-77584D01*
X105072Y-77556D01*
X105072Y-77613D01*
X105072Y-77241D02*
X105100Y-77270D01*
X105072Y-77299D01*
X105043Y-77270D01*
X105072Y-77241D01*
X105072Y-77299D01*
X106129Y-77613D02*
X105786Y-77613D01*
X105958Y-77613D02*
X105958Y-77013D01*
X105901Y-77099D01*
X105843Y-77156D01*
X105786Y-77184D01*
X106814Y-76984D02*
X106300Y-77756D01*
X107329Y-77613D02*
X106986Y-77613D01*
X107158Y-77613D02*
X107158Y-77013D01*
X107101Y-77099D01*
X107043Y-77156D01*
X106986Y-77184D01*
G54D11*
X70957Y-74613D02*
X71300Y-74613D01*
X71129Y-75213D02*
X71129Y-74613D01*
X71500Y-75213D02*
X71500Y-74813D01*
X71500Y-74613D02*
X71471Y-74641D01*
X71500Y-74670D01*
X71528Y-74641D01*
X71500Y-74613D01*
X71500Y-74670D01*
X71700Y-74813D02*
X71929Y-74813D01*
X71786Y-74613D02*
X71786Y-75127D01*
X71814Y-75184D01*
X71872Y-75213D01*
X71929Y-75213D01*
X72215Y-75213D02*
X72157Y-75184D01*
X72129Y-75127D01*
X72129Y-74613D01*
X72671Y-75184D02*
X72614Y-75213D01*
X72500Y-75213D01*
X72443Y-75184D01*
X72414Y-75127D01*
X72414Y-74899D01*
X72443Y-74841D01*
X72500Y-74813D01*
X72614Y-74813D01*
X72671Y-74841D01*
X72700Y-74899D01*
X72700Y-74956D01*
X72414Y-75013D01*
X72957Y-75156D02*
X72985Y-75184D01*
X72957Y-75213D01*
X72928Y-75184D01*
X72957Y-75156D01*
X72957Y-75213D01*
X72957Y-74841D02*
X72985Y-74870D01*
X72957Y-74899D01*
X72928Y-74870D01*
X72957Y-74841D01*
X72957Y-74899D01*
G54D10*
X71243Y-72499D02*
X71043Y-72499D01*
X71043Y-72813D02*
X71043Y-72213D01*
X71329Y-72213D01*
X71557Y-72813D02*
X71557Y-72413D01*
X71557Y-72213D02*
X71528Y-72241D01*
X71557Y-72270D01*
X71585Y-72241D01*
X71557Y-72213D01*
X71557Y-72270D01*
X71929Y-72813D02*
X71871Y-72784D01*
X71843Y-72727D01*
X71843Y-72213D01*
X72385Y-72784D02*
X72328Y-72813D01*
X72214Y-72813D01*
X72157Y-72784D01*
X72128Y-72727D01*
X72128Y-72499D01*
X72157Y-72441D01*
X72214Y-72413D01*
X72328Y-72413D01*
X72385Y-72441D01*
X72414Y-72499D01*
X72414Y-72556D01*
X72128Y-72613D01*
X72671Y-72756D02*
X72699Y-72784D01*
X72671Y-72813D01*
X72642Y-72784D01*
X72671Y-72756D01*
X72671Y-72813D01*
X72671Y-72441D02*
X72699Y-72470D01*
X72671Y-72499D01*
X72642Y-72470D01*
X72671Y-72441D01*
X72671Y-72499D01*
X73414Y-72813D02*
X73414Y-72213D01*
X73471Y-72584D02*
X73642Y-72813D01*
X73642Y-72413D02*
X73414Y-72641D01*
X73900Y-72813D02*
X73900Y-72413D01*
X73900Y-72213D02*
X73871Y-72241D01*
X73900Y-72270D01*
X73928Y-72241D01*
X73900Y-72213D01*
X73900Y-72270D01*
X74100Y-72413D02*
X74329Y-72413D01*
X74186Y-72213D02*
X74186Y-72727D01*
X74214Y-72784D01*
X74272Y-72813D01*
X74329Y-72813D01*
X74786Y-72784D02*
X74729Y-72813D01*
X74615Y-72813D01*
X74557Y-72784D01*
X74529Y-72756D01*
X74500Y-72699D01*
X74500Y-72527D01*
X74529Y-72470D01*
X74557Y-72441D01*
X74615Y-72413D01*
X74729Y-72413D01*
X74786Y-72441D01*
X75043Y-72813D02*
X75043Y-72213D01*
X75300Y-72813D02*
X75300Y-72499D01*
X75271Y-72441D01*
X75214Y-72413D01*
X75129Y-72413D01*
X75071Y-72441D01*
X75043Y-72470D01*
X75814Y-72784D02*
X75757Y-72813D01*
X75643Y-72813D01*
X75586Y-72784D01*
X75557Y-72727D01*
X75557Y-72499D01*
X75586Y-72441D01*
X75643Y-72413D01*
X75757Y-72413D01*
X75814Y-72441D01*
X75843Y-72499D01*
X75843Y-72556D01*
X75557Y-72613D01*
X76100Y-72413D02*
X76100Y-72813D01*
X76100Y-72470D02*
X76128Y-72441D01*
X76186Y-72413D01*
X76271Y-72413D01*
X76328Y-72441D01*
X76357Y-72499D01*
X76357Y-72813D01*
X76500Y-72870D02*
X76957Y-72870D01*
X77186Y-72813D02*
X77128Y-72784D01*
X77100Y-72727D01*
X77100Y-72213D01*
X77414Y-72813D02*
X77414Y-72413D01*
X77414Y-72213D02*
X77385Y-72241D01*
X77414Y-72270D01*
X77442Y-72241D01*
X77414Y-72213D01*
X77414Y-72270D01*
X77957Y-72413D02*
X77957Y-72899D01*
X77928Y-72956D01*
X77900Y-72984D01*
X77843Y-73013D01*
X77757Y-73013D01*
X77700Y-72984D01*
X77957Y-72784D02*
X77900Y-72813D01*
X77786Y-72813D01*
X77728Y-72784D01*
X77700Y-72756D01*
X77671Y-72699D01*
X77671Y-72527D01*
X77700Y-72470D01*
X77728Y-72441D01*
X77786Y-72413D01*
X77900Y-72413D01*
X77957Y-72441D01*
X78243Y-72813D02*
X78243Y-72213D01*
X78500Y-72813D02*
X78500Y-72499D01*
X78471Y-72441D01*
X78414Y-72413D01*
X78329Y-72413D01*
X78271Y-72441D01*
X78243Y-72470D01*
X78700Y-72413D02*
X78929Y-72413D01*
X78786Y-72213D02*
X78786Y-72727D01*
X78814Y-72784D01*
X78872Y-72813D01*
X78929Y-72813D01*
X79100Y-72784D02*
X79157Y-72813D01*
X79272Y-72813D01*
X79329Y-72784D01*
X79357Y-72727D01*
X79357Y-72699D01*
X79329Y-72641D01*
X79272Y-72613D01*
X79186Y-72613D01*
X79129Y-72584D01*
X79100Y-72527D01*
X79100Y-72499D01*
X79129Y-72441D01*
X79186Y-72413D01*
X79272Y-72413D01*
X79329Y-72441D01*
X79615Y-72756D02*
X79643Y-72784D01*
X79615Y-72813D01*
X79586Y-72784D01*
X79615Y-72756D01*
X79615Y-72813D01*
X79901Y-72813D02*
X79901Y-72213D01*
X79901Y-72441D02*
X79958Y-72413D01*
X80072Y-72413D01*
X80129Y-72441D01*
X80158Y-72470D01*
X80187Y-72527D01*
X80187Y-72699D01*
X80158Y-72756D01*
X80129Y-72784D01*
X80072Y-72813D01*
X79958Y-72813D01*
X79901Y-72784D01*
X80444Y-72813D02*
X80444Y-72413D01*
X80444Y-72527D02*
X80472Y-72470D01*
X80501Y-72441D01*
X80558Y-72413D01*
X80615Y-72413D01*
X81072Y-72813D02*
X81072Y-72213D01*
X81072Y-72784D02*
X81015Y-72813D01*
X80901Y-72813D01*
X80843Y-72784D01*
X80815Y-72756D01*
X80786Y-72699D01*
X80786Y-72527D01*
X80815Y-72470D01*
X80843Y-72441D01*
X80901Y-72413D01*
X81015Y-72413D01*
X81072Y-72441D01*
X71014Y-73984D02*
X71100Y-74013D01*
X71243Y-74013D01*
X71300Y-73984D01*
X71329Y-73956D01*
X71357Y-73899D01*
X71357Y-73841D01*
X71329Y-73784D01*
X71300Y-73756D01*
X71243Y-73727D01*
X71129Y-73699D01*
X71071Y-73670D01*
X71043Y-73641D01*
X71014Y-73584D01*
X71014Y-73527D01*
X71043Y-73470D01*
X71071Y-73441D01*
X71129Y-73413D01*
X71271Y-73413D01*
X71357Y-73441D01*
X71614Y-74013D02*
X71614Y-73413D01*
X71871Y-74013D02*
X71871Y-73699D01*
X71842Y-73641D01*
X71785Y-73613D01*
X71700Y-73613D01*
X71642Y-73641D01*
X71614Y-73670D01*
X72385Y-73984D02*
X72328Y-74013D01*
X72214Y-74013D01*
X72157Y-73984D01*
X72128Y-73927D01*
X72128Y-73699D01*
X72157Y-73641D01*
X72214Y-73613D01*
X72328Y-73613D01*
X72385Y-73641D01*
X72414Y-73699D01*
X72414Y-73756D01*
X72128Y-73813D01*
X72899Y-73984D02*
X72842Y-74013D01*
X72728Y-74013D01*
X72671Y-73984D01*
X72642Y-73927D01*
X72642Y-73699D01*
X72671Y-73641D01*
X72728Y-73613D01*
X72842Y-73613D01*
X72899Y-73641D01*
X72928Y-73699D01*
X72928Y-73756D01*
X72642Y-73813D01*
X73099Y-73613D02*
X73328Y-73613D01*
X73185Y-73413D02*
X73185Y-73927D01*
X73213Y-73984D01*
X73271Y-74013D01*
X73328Y-74013D01*
X73528Y-73956D02*
X73556Y-73984D01*
X73528Y-74013D01*
X73499Y-73984D01*
X73528Y-73956D01*
X73528Y-74013D01*
X73528Y-73641D02*
X73556Y-73670D01*
X73528Y-73699D01*
X73499Y-73670D01*
X73528Y-73641D01*
X73528Y-73699D01*
X74585Y-74013D02*
X74242Y-74013D01*
X74414Y-74013D02*
X74414Y-73413D01*
X74357Y-73499D01*
X74299Y-73556D01*
X74242Y-73584D01*
X75270Y-73384D02*
X74756Y-74156D01*
X75785Y-74013D02*
X75442Y-74013D01*
X75614Y-74013D02*
X75614Y-73413D01*
X75557Y-73499D01*
X75499Y-73556D01*
X75442Y-73584D01*
X70300Y-71970D02*
X70300Y-77970D01*
X70300Y-71970D02*
X112300Y-71970D01*
X70300Y-71970D02*
X112300Y-71970D01*
X70300Y-74370D02*
X112300Y-74370D01*
X103500Y-75570D02*
X103500Y-77970D01*
X70300Y-76770D02*
X112300Y-76770D01*
X70300Y-75570D02*
X112300Y-75570D01*
X76900Y-75570D02*
X76900Y-76770D01*
G54D12*
X43500Y-21000D02*
X40500Y-21000D01*
X40500Y-19000D02*
X43500Y-19000D01*
X43500Y-19000D02*
X43500Y-21000D01*
X40500Y-21000D02*
X40500Y-19000D01*
G54D13*
X22400Y-26850D02*
X22400Y-26500D01*
X22400Y-26850D02*
X22250Y-26500D01*
X22250Y-26500D02*
X22550Y-26500D01*
X22550Y-26500D02*
X22400Y-26850D01*
X22154Y-27720D02*
X22347Y-27720D01*
X22347Y-27720D02*
X22347Y-27287D01*
X22154Y-27287D02*
X22347Y-27287D01*
X22154Y-27720D02*
X22154Y-27287D01*
X22654Y-27720D02*
X22847Y-27720D01*
X22847Y-27720D02*
X22847Y-27287D01*
X22654Y-27287D02*
X22847Y-27287D01*
X22654Y-27720D02*
X22654Y-27287D01*
X23154Y-27720D02*
X23347Y-27720D01*
X23347Y-27720D02*
X23347Y-27287D01*
X23154Y-27287D02*
X23347Y-27287D01*
X23154Y-27720D02*
X23154Y-27287D01*
X23654Y-27720D02*
X23847Y-27720D01*
X23847Y-27720D02*
X23847Y-27287D01*
X23654Y-27287D02*
X23847Y-27287D01*
X23654Y-27720D02*
X23654Y-27287D01*
X24653Y-25713D02*
X24846Y-25713D01*
X24846Y-25713D02*
X24846Y-25280D01*
X24653Y-25280D02*
X24846Y-25280D01*
X24653Y-25713D02*
X24653Y-25280D01*
X24153Y-25713D02*
X24346Y-25713D01*
X24346Y-25713D02*
X24346Y-25280D01*
X24153Y-25280D02*
X24346Y-25280D01*
X24153Y-25713D02*
X24153Y-25280D01*
X23654Y-25713D02*
X23847Y-25713D01*
X23847Y-25713D02*
X23847Y-25280D01*
X23654Y-25280D02*
X23847Y-25280D01*
X23654Y-25713D02*
X23654Y-25280D01*
X23154Y-25713D02*
X23347Y-25713D01*
X23347Y-25713D02*
X23347Y-25280D01*
X23154Y-25280D02*
X23347Y-25280D01*
X23154Y-25713D02*
X23154Y-25280D01*
X24153Y-27720D02*
X24346Y-27720D01*
X24346Y-27720D02*
X24346Y-27287D01*
X24153Y-27287D02*
X24346Y-27287D01*
X24153Y-27720D02*
X24153Y-27287D01*
X24653Y-27720D02*
X24846Y-27720D01*
X24846Y-27720D02*
X24846Y-27287D01*
X24653Y-27287D02*
X24846Y-27287D01*
X24653Y-27720D02*
X24653Y-27287D01*
X25153Y-27720D02*
X25346Y-27720D01*
X25346Y-27720D02*
X25346Y-27287D01*
X25153Y-27287D02*
X25346Y-27287D01*
X25153Y-27720D02*
X25153Y-27287D01*
X25653Y-27720D02*
X25846Y-27720D01*
X25846Y-27720D02*
X25846Y-27287D01*
X25653Y-27287D02*
X25846Y-27287D01*
X25653Y-27720D02*
X25653Y-27287D01*
X25653Y-25713D02*
X25846Y-25713D01*
X25846Y-25713D02*
X25846Y-25280D01*
X25653Y-25280D02*
X25846Y-25280D01*
X25653Y-25713D02*
X25653Y-25280D01*
X25153Y-25713D02*
X25346Y-25713D01*
X25346Y-25713D02*
X25346Y-25280D01*
X25153Y-25280D02*
X25346Y-25280D01*
X25153Y-25713D02*
X25153Y-25280D01*
X22654Y-25713D02*
X22847Y-25713D01*
X22847Y-25713D02*
X22847Y-25280D01*
X22654Y-25280D02*
X22847Y-25280D01*
X22654Y-25713D02*
X22654Y-25280D01*
X22154Y-25713D02*
X22347Y-25713D01*
X22347Y-25713D02*
X22347Y-25280D01*
X22154Y-25280D02*
X22347Y-25280D01*
X22154Y-25713D02*
X22154Y-25280D01*
X21876Y-24965D02*
X26124Y-24965D01*
X26124Y-28035D02*
X21876Y-28035D01*
X21876Y-28035D02*
X21876Y-24965D01*
X25944Y-27248D02*
X22056Y-27248D01*
X22056Y-27248D02*
X22056Y-27051D01*
X22056Y-27051D02*
X22056Y-25752D01*
X22056Y-25752D02*
X25944Y-25752D01*
X25944Y-27051D02*
X22056Y-27051D01*
X25944Y-25752D02*
X25944Y-27051D01*
X25944Y-27051D02*
X25944Y-27248D01*
X26124Y-24965D02*
X26124Y-28035D01*
X22400Y-18350D02*
X22400Y-18000D01*
X22400Y-18350D02*
X22250Y-18000D01*
X22250Y-18000D02*
X22550Y-18000D01*
X22550Y-18000D02*
X22400Y-18350D01*
X22154Y-19220D02*
X22347Y-19220D01*
X22347Y-19220D02*
X22347Y-18787D01*
X22154Y-18787D02*
X22347Y-18787D01*
X22154Y-19220D02*
X22154Y-18787D01*
X22654Y-19220D02*
X22847Y-19220D01*
X22847Y-19220D02*
X22847Y-18787D01*
X22654Y-18787D02*
X22847Y-18787D01*
X22654Y-19220D02*
X22654Y-18787D01*
X23154Y-19220D02*
X23347Y-19220D01*
X23347Y-19220D02*
X23347Y-18787D01*
X23154Y-18787D02*
X23347Y-18787D01*
X23154Y-19220D02*
X23154Y-18787D01*
X23654Y-19220D02*
X23847Y-19220D01*
X23847Y-19220D02*
X23847Y-18787D01*
X23654Y-18787D02*
X23847Y-18787D01*
X23654Y-19220D02*
X23654Y-18787D01*
X24653Y-17213D02*
X24846Y-17213D01*
X24846Y-17213D02*
X24846Y-16780D01*
X24653Y-16780D02*
X24846Y-16780D01*
X24653Y-17213D02*
X24653Y-16780D01*
X24153Y-17213D02*
X24346Y-17213D01*
X24346Y-17213D02*
X24346Y-16780D01*
X24153Y-16780D02*
X24346Y-16780D01*
X24153Y-17213D02*
X24153Y-16780D01*
X23654Y-17213D02*
X23847Y-17213D01*
X23847Y-17213D02*
X23847Y-16780D01*
X23654Y-16780D02*
X23847Y-16780D01*
X23654Y-17213D02*
X23654Y-16780D01*
X23154Y-17213D02*
X23347Y-17213D01*
X23347Y-17213D02*
X23347Y-16780D01*
X23154Y-16780D02*
X23347Y-16780D01*
X23154Y-17213D02*
X23154Y-16780D01*
X24153Y-19220D02*
X24346Y-19220D01*
X24346Y-19220D02*
X24346Y-18787D01*
X24153Y-18787D02*
X24346Y-18787D01*
X24153Y-19220D02*
X24153Y-18787D01*
X24653Y-19220D02*
X24846Y-19220D01*
X24846Y-19220D02*
X24846Y-18787D01*
X24653Y-18787D02*
X24846Y-18787D01*
X24653Y-19220D02*
X24653Y-18787D01*
X25153Y-19220D02*
X25346Y-19220D01*
X25346Y-19220D02*
X25346Y-18787D01*
X25153Y-18787D02*
X25346Y-18787D01*
X25153Y-19220D02*
X25153Y-18787D01*
X25653Y-19220D02*
X25846Y-19220D01*
X25846Y-19220D02*
X25846Y-18787D01*
X25653Y-18787D02*
X25846Y-18787D01*
X25653Y-19220D02*
X25653Y-18787D01*
X25653Y-17213D02*
X25846Y-17213D01*
X25846Y-17213D02*
X25846Y-16780D01*
X25653Y-16780D02*
X25846Y-16780D01*
X25653Y-17213D02*
X25653Y-16780D01*
X25153Y-17213D02*
X25346Y-17213D01*
X25346Y-17213D02*
X25346Y-16780D01*
X25153Y-16780D02*
X25346Y-16780D01*
X25153Y-17213D02*
X25153Y-16780D01*
X22654Y-17213D02*
X22847Y-17213D01*
X22847Y-17213D02*
X22847Y-16780D01*
X22654Y-16780D02*
X22847Y-16780D01*
X22654Y-17213D02*
X22654Y-16780D01*
X22154Y-17213D02*
X22347Y-17213D01*
X22347Y-17213D02*
X22347Y-16780D01*
X22154Y-16780D02*
X22347Y-16780D01*
X22154Y-17213D02*
X22154Y-16780D01*
X21876Y-16465D02*
X26124Y-16465D01*
X26124Y-19535D02*
X21876Y-19535D01*
X21876Y-19535D02*
X21876Y-16465D01*
X25944Y-18748D02*
X22056Y-18748D01*
X22056Y-18748D02*
X22056Y-18551D01*
X22056Y-18551D02*
X22056Y-17252D01*
X22056Y-17252D02*
X25944Y-17252D01*
X25944Y-18551D02*
X22056Y-18551D01*
X25944Y-17252D02*
X25944Y-18551D01*
X25944Y-18551D02*
X25944Y-18748D01*
X26124Y-16465D02*
X26124Y-19535D01*
G54D11*
X105583Y-64736D02*
X105583Y-65425D01*
X105583Y-64244D02*
X105583Y-63476D01*
X105583Y-64244D02*
X105307Y-64736D01*
X105307Y-64736D02*
X105839Y-64736D01*
X105839Y-64736D02*
X105583Y-64244D01*
X105307Y-64244D02*
X105839Y-64244D01*
X106409Y-64500D02*
X106372Y-64870D01*
X106264Y-65227D01*
X106090Y-65556D01*
X105854Y-65845D01*
X105567Y-66082D01*
X105239Y-66259D01*
X104883Y-66370D01*
X104513Y-66408D01*
X104143Y-66375D01*
X103785Y-66269D01*
X103455Y-66097D01*
X103165Y-65863D01*
X102925Y-65578D01*
X102746Y-65252D01*
X102633Y-64896D01*
X102592Y-64526D01*
X102623Y-64156D01*
X102726Y-63798D01*
X102896Y-63466D01*
X103127Y-63174D01*
X103411Y-62933D01*
X103736Y-62751D01*
X104091Y-62636D01*
X104461Y-62592D01*
X104831Y-62621D01*
X105190Y-62721D01*
X105522Y-62889D01*
X105816Y-63118D01*
X106059Y-63400D01*
X106243Y-63724D01*
X106361Y-64078D01*
X106408Y-64447D01*
X106409Y-64500D01*
X98083Y-63236D02*
X98083Y-63925D01*
X98083Y-62744D02*
X98083Y-61976D01*
X98083Y-62744D02*
X97807Y-63236D01*
X97807Y-63236D02*
X98339Y-63236D01*
X98339Y-63236D02*
X98083Y-62744D01*
X97807Y-62744D02*
X98339Y-62744D01*
X98909Y-63000D02*
X98872Y-63370D01*
X98764Y-63727D01*
X98590Y-64056D01*
X98354Y-64345D01*
X98067Y-64582D01*
X97739Y-64759D01*
X97383Y-64870D01*
X97013Y-64908D01*
X96643Y-64875D01*
X96285Y-64769D01*
X95955Y-64597D01*
X95665Y-64363D01*
X95425Y-64078D01*
X95246Y-63752D01*
X95133Y-63396D01*
X95092Y-63026D01*
X95123Y-62656D01*
X95226Y-62298D01*
X95396Y-61966D01*
X95627Y-61674D01*
X95911Y-61433D01*
X96236Y-61251D01*
X96591Y-61136D01*
X96961Y-61092D01*
X97331Y-61121D01*
X97690Y-61221D01*
X98022Y-61389D01*
X98316Y-61618D01*
X98559Y-61900D01*
X98743Y-62224D01*
X98861Y-62578D01*
X98908Y-62947D01*
X98909Y-63000D01*
X92083Y-62736D02*
X92083Y-63425D01*
X92083Y-62244D02*
X92083Y-61476D01*
X92083Y-62244D02*
X91807Y-62736D01*
X91807Y-62736D02*
X92339Y-62736D01*
X92339Y-62736D02*
X92083Y-62244D01*
X91807Y-62244D02*
X92339Y-62244D01*
X92909Y-62500D02*
X92872Y-62870D01*
X92764Y-63227D01*
X92590Y-63556D01*
X92354Y-63845D01*
X92067Y-64082D01*
X91739Y-64259D01*
X91383Y-64370D01*
X91013Y-64408D01*
X90643Y-64375D01*
X90285Y-64269D01*
X89955Y-64097D01*
X89665Y-63863D01*
X89425Y-63578D01*
X89246Y-63252D01*
X89133Y-62896D01*
X89092Y-62526D01*
X89123Y-62156D01*
X89226Y-61798D01*
X89396Y-61466D01*
X89627Y-61174D01*
X89911Y-60933D01*
X90236Y-60751D01*
X90591Y-60636D01*
X90961Y-60592D01*
X91331Y-60621D01*
X91690Y-60721D01*
X92022Y-60889D01*
X92316Y-61118D01*
X92559Y-61400D01*
X92743Y-61724D01*
X92861Y-62078D01*
X92908Y-62447D01*
X92909Y-62500D01*
X86583Y-62736D02*
X86583Y-63425D01*
X86583Y-62244D02*
X86583Y-61476D01*
X86583Y-62244D02*
X86307Y-62736D01*
X86307Y-62736D02*
X86839Y-62736D01*
X86839Y-62736D02*
X86583Y-62244D01*
X86307Y-62244D02*
X86839Y-62244D01*
X87409Y-62500D02*
X87372Y-62870D01*
X87264Y-63227D01*
X87090Y-63556D01*
X86854Y-63845D01*
X86567Y-64082D01*
X86239Y-64259D01*
X85883Y-64370D01*
X85513Y-64408D01*
X85143Y-64375D01*
X84785Y-64269D01*
X84455Y-64097D01*
X84165Y-63863D01*
X83925Y-63578D01*
X83746Y-63252D01*
X83633Y-62896D01*
X83592Y-62526D01*
X83623Y-62156D01*
X83726Y-61798D01*
X83896Y-61466D01*
X84127Y-61174D01*
X84411Y-60933D01*
X84736Y-60751D01*
X85091Y-60636D01*
X85461Y-60592D01*
X85831Y-60621D01*
X86190Y-60721D01*
X86522Y-60889D01*
X86816Y-61118D01*
X87059Y-61400D01*
X87243Y-61724D01*
X87361Y-62078D01*
X87408Y-62447D01*
X87409Y-62500D01*
X80083Y-63236D02*
X80083Y-63925D01*
X80083Y-62744D02*
X80083Y-61976D01*
X80083Y-62744D02*
X79807Y-63236D01*
X79807Y-63236D02*
X80339Y-63236D01*
X80339Y-63236D02*
X80083Y-62744D01*
X79807Y-62744D02*
X80339Y-62744D01*
X80909Y-63000D02*
X80872Y-63370D01*
X80764Y-63727D01*
X80590Y-64056D01*
X80354Y-64345D01*
X80067Y-64582D01*
X79739Y-64759D01*
X79383Y-64870D01*
X79013Y-64908D01*
X78643Y-64875D01*
X78285Y-64769D01*
X77955Y-64597D01*
X77665Y-64363D01*
X77425Y-64078D01*
X77246Y-63752D01*
X77133Y-63396D01*
X77092Y-63026D01*
X77123Y-62656D01*
X77226Y-62298D01*
X77396Y-61966D01*
X77627Y-61674D01*
X77911Y-61433D01*
X78236Y-61251D01*
X78591Y-61136D01*
X78961Y-61092D01*
X79331Y-61121D01*
X79690Y-61221D01*
X80022Y-61389D01*
X80316Y-61618D01*
X80559Y-61900D01*
X80743Y-62224D01*
X80861Y-62578D01*
X80908Y-62947D01*
X80909Y-63000D01*
X73583Y-63736D02*
X73583Y-64425D01*
X73583Y-63244D02*
X73583Y-62476D01*
X73583Y-63244D02*
X73307Y-63736D01*
X73307Y-63736D02*
X73839Y-63736D01*
X73839Y-63736D02*
X73583Y-63244D01*
X73307Y-63244D02*
X73839Y-63244D01*
X74409Y-63500D02*
X74372Y-63870D01*
X74264Y-64227D01*
X74090Y-64556D01*
X73854Y-64845D01*
X73567Y-65082D01*
X73239Y-65259D01*
X72883Y-65370D01*
X72513Y-65408D01*
X72143Y-65375D01*
X71785Y-65269D01*
X71455Y-65097D01*
X71165Y-64863D01*
X70925Y-64578D01*
X70746Y-64252D01*
X70633Y-63896D01*
X70592Y-63526D01*
X70623Y-63156D01*
X70726Y-62798D01*
X70896Y-62466D01*
X71127Y-62174D01*
X71411Y-61933D01*
X71736Y-61751D01*
X72091Y-61636D01*
X72461Y-61592D01*
X72831Y-61621D01*
X73190Y-61721D01*
X73522Y-61889D01*
X73816Y-62118D01*
X74059Y-62400D01*
X74243Y-62724D01*
X74361Y-63078D01*
X74408Y-63447D01*
X74409Y-63500D01*
X66083Y-63236D02*
X66083Y-63925D01*
X66083Y-62744D02*
X66083Y-61976D01*
X66083Y-62744D02*
X65807Y-63236D01*
X65807Y-63236D02*
X66339Y-63236D01*
X66339Y-63236D02*
X66083Y-62744D01*
X65807Y-62744D02*
X66339Y-62744D01*
X66909Y-63000D02*
X66872Y-63370D01*
X66764Y-63727D01*
X66590Y-64056D01*
X66354Y-64345D01*
X66067Y-64582D01*
X65739Y-64759D01*
X65383Y-64870D01*
X65013Y-64908D01*
X64643Y-64875D01*
X64285Y-64769D01*
X63955Y-64597D01*
X63665Y-64363D01*
X63425Y-64078D01*
X63246Y-63752D01*
X63133Y-63396D01*
X63092Y-63026D01*
X63123Y-62656D01*
X63226Y-62298D01*
X63396Y-61966D01*
X63627Y-61674D01*
X63911Y-61433D01*
X64236Y-61251D01*
X64591Y-61136D01*
X64961Y-61092D01*
X65331Y-61121D01*
X65690Y-61221D01*
X66022Y-61389D01*
X66316Y-61618D01*
X66559Y-61900D01*
X66743Y-62224D01*
X66861Y-62578D01*
X66908Y-62947D01*
X66909Y-63000D01*
X58083Y-62236D02*
X58083Y-62925D01*
X58083Y-61744D02*
X58083Y-60976D01*
X58083Y-61744D02*
X57807Y-62236D01*
X57807Y-62236D02*
X58339Y-62236D01*
X58339Y-62236D02*
X58083Y-61744D01*
X57807Y-61744D02*
X58339Y-61744D01*
X58909Y-62000D02*
X58872Y-62370D01*
X58764Y-62727D01*
X58590Y-63056D01*
X58354Y-63345D01*
X58067Y-63582D01*
X57739Y-63759D01*
X57383Y-63870D01*
X57013Y-63908D01*
X56643Y-63875D01*
X56285Y-63769D01*
X55955Y-63597D01*
X55665Y-63363D01*
X55425Y-63078D01*
X55246Y-62752D01*
X55133Y-62396D01*
X55092Y-62026D01*
X55123Y-61656D01*
X55226Y-61298D01*
X55396Y-60966D01*
X55627Y-60674D01*
X55911Y-60433D01*
X56236Y-60251D01*
X56591Y-60136D01*
X56961Y-60092D01*
X57331Y-60121D01*
X57690Y-60221D01*
X58022Y-60389D01*
X58316Y-60618D01*
X58559Y-60900D01*
X58743Y-61224D01*
X58861Y-61578D01*
X58908Y-61947D01*
X58909Y-62000D01*
X71583Y-46736D02*
X71583Y-47425D01*
X71583Y-46244D02*
X71583Y-45476D01*
X71583Y-46244D02*
X71307Y-46736D01*
X71307Y-46736D02*
X71839Y-46736D01*
X71839Y-46736D02*
X71583Y-46244D01*
X71307Y-46244D02*
X71839Y-46244D01*
X72409Y-46500D02*
X72372Y-46870D01*
X72264Y-47227D01*
X72090Y-47556D01*
X71854Y-47845D01*
X71567Y-48082D01*
X71239Y-48259D01*
X70883Y-48370D01*
X70513Y-48408D01*
X70143Y-48375D01*
X69785Y-48269D01*
X69455Y-48097D01*
X69165Y-47863D01*
X68925Y-47578D01*
X68746Y-47252D01*
X68633Y-46896D01*
X68592Y-46526D01*
X68623Y-46156D01*
X68726Y-45798D01*
X68896Y-45466D01*
X69127Y-45174D01*
X69411Y-44933D01*
X69736Y-44751D01*
X70091Y-44636D01*
X70461Y-44592D01*
X70831Y-44621D01*
X71190Y-44721D01*
X71522Y-44889D01*
X71816Y-45118D01*
X72059Y-45400D01*
X72243Y-45724D01*
X72361Y-46078D01*
X72408Y-46447D01*
X72409Y-46500D01*
X65583Y-47236D02*
X65583Y-47925D01*
X65583Y-46744D02*
X65583Y-45976D01*
X65583Y-46744D02*
X65307Y-47236D01*
X65307Y-47236D02*
X65839Y-47236D01*
X65839Y-47236D02*
X65583Y-46744D01*
X65307Y-46744D02*
X65839Y-46744D01*
X66409Y-47000D02*
X66372Y-47370D01*
X66264Y-47727D01*
X66090Y-48056D01*
X65854Y-48345D01*
X65567Y-48582D01*
X65239Y-48759D01*
X64883Y-48870D01*
X64513Y-48908D01*
X64143Y-48875D01*
X63785Y-48769D01*
X63455Y-48597D01*
X63165Y-48363D01*
X62925Y-48078D01*
X62746Y-47752D01*
X62633Y-47396D01*
X62592Y-47026D01*
X62623Y-46656D01*
X62726Y-46298D01*
X62896Y-45966D01*
X63127Y-45674D01*
X63411Y-45433D01*
X63736Y-45251D01*
X64091Y-45136D01*
X64461Y-45092D01*
X64831Y-45121D01*
X65190Y-45221D01*
X65522Y-45389D01*
X65816Y-45618D01*
X66059Y-45900D01*
X66243Y-46224D01*
X66361Y-46578D01*
X66408Y-46947D01*
X66409Y-47000D01*
X59083Y-47236D02*
X59083Y-47925D01*
X59083Y-46744D02*
X59083Y-45976D01*
X59083Y-46744D02*
X58807Y-47236D01*
X58807Y-47236D02*
X59339Y-47236D01*
X59339Y-47236D02*
X59083Y-46744D01*
X58807Y-46744D02*
X59339Y-46744D01*
X59909Y-47000D02*
X59872Y-47370D01*
X59764Y-47727D01*
X59590Y-48056D01*
X59354Y-48345D01*
X59067Y-48582D01*
X58739Y-48759D01*
X58383Y-48870D01*
X58013Y-48908D01*
X57643Y-48875D01*
X57285Y-48769D01*
X56955Y-48597D01*
X56665Y-48363D01*
X56425Y-48078D01*
X56246Y-47752D01*
X56133Y-47396D01*
X56092Y-47026D01*
X56123Y-46656D01*
X56226Y-46298D01*
X56396Y-45966D01*
X56627Y-45674D01*
X56911Y-45433D01*
X57236Y-45251D01*
X57591Y-45136D01*
X57961Y-45092D01*
X58331Y-45121D01*
X58690Y-45221D01*
X59022Y-45389D01*
X59316Y-45618D01*
X59559Y-45900D01*
X59743Y-46224D01*
X59861Y-46578D01*
X59908Y-46947D01*
X59909Y-47000D01*
X53083Y-46236D02*
X53083Y-46925D01*
X53083Y-45744D02*
X53083Y-44976D01*
X53083Y-45744D02*
X52807Y-46236D01*
X52807Y-46236D02*
X53339Y-46236D01*
X53339Y-46236D02*
X53083Y-45744D01*
X52807Y-45744D02*
X53339Y-45744D01*
X53909Y-46000D02*
X53872Y-46370D01*
X53764Y-46727D01*
X53590Y-47056D01*
X53354Y-47345D01*
X53067Y-47582D01*
X52739Y-47759D01*
X52383Y-47870D01*
X52013Y-47908D01*
X51643Y-47875D01*
X51285Y-47769D01*
X50955Y-47597D01*
X50665Y-47363D01*
X50425Y-47078D01*
X50246Y-46752D01*
X50133Y-46396D01*
X50092Y-46026D01*
X50123Y-45656D01*
X50226Y-45298D01*
X50396Y-44966D01*
X50627Y-44674D01*
X50911Y-44433D01*
X51236Y-44251D01*
X51591Y-44136D01*
X51961Y-44092D01*
X52331Y-44121D01*
X52690Y-44221D01*
X53022Y-44389D01*
X53316Y-44618D01*
X53559Y-44900D01*
X53743Y-45224D01*
X53861Y-45578D01*
X53908Y-45947D01*
X53909Y-46000D01*
X47583Y-46736D02*
X47583Y-47425D01*
X47583Y-46244D02*
X47583Y-45476D01*
X47583Y-46244D02*
X47307Y-46736D01*
X47307Y-46736D02*
X47839Y-46736D01*
X47839Y-46736D02*
X47583Y-46244D01*
X47307Y-46244D02*
X47839Y-46244D01*
X48409Y-46500D02*
X48372Y-46870D01*
X48264Y-47227D01*
X48090Y-47556D01*
X47854Y-47845D01*
X47567Y-48082D01*
X47239Y-48259D01*
X46883Y-48370D01*
X46513Y-48408D01*
X46143Y-48375D01*
X45785Y-48269D01*
X45455Y-48097D01*
X45165Y-47863D01*
X44925Y-47578D01*
X44746Y-47252D01*
X44633Y-46896D01*
X44592Y-46526D01*
X44623Y-46156D01*
X44726Y-45798D01*
X44896Y-45466D01*
X45127Y-45174D01*
X45411Y-44933D01*
X45736Y-44751D01*
X46091Y-44636D01*
X46461Y-44592D01*
X46831Y-44621D01*
X47190Y-44721D01*
X47522Y-44889D01*
X47816Y-45118D01*
X48059Y-45400D01*
X48243Y-45724D01*
X48361Y-46078D01*
X48408Y-46447D01*
X48409Y-46500D01*
X41083Y-46236D02*
X41083Y-46925D01*
X41083Y-45744D02*
X41083Y-44976D01*
X41083Y-45744D02*
X40807Y-46236D01*
X40807Y-46236D02*
X41339Y-46236D01*
X41339Y-46236D02*
X41083Y-45744D01*
X40807Y-45744D02*
X41339Y-45744D01*
X41909Y-46000D02*
X41872Y-46370D01*
X41764Y-46727D01*
X41590Y-47056D01*
X41354Y-47345D01*
X41067Y-47582D01*
X40739Y-47759D01*
X40383Y-47870D01*
X40013Y-47908D01*
X39643Y-47875D01*
X39285Y-47769D01*
X38955Y-47597D01*
X38665Y-47363D01*
X38425Y-47078D01*
X38246Y-46752D01*
X38133Y-46396D01*
X38092Y-46026D01*
X38123Y-45656D01*
X38226Y-45298D01*
X38396Y-44966D01*
X38627Y-44674D01*
X38911Y-44433D01*
X39236Y-44251D01*
X39591Y-44136D01*
X39961Y-44092D01*
X40331Y-44121D01*
X40690Y-44221D01*
X41022Y-44389D01*
X41316Y-44618D01*
X41559Y-44900D01*
X41743Y-45224D01*
X41861Y-45578D01*
X41908Y-45947D01*
X41909Y-46000D01*
X35583Y-45236D02*
X35583Y-45925D01*
X35583Y-44744D02*
X35583Y-43976D01*
X35583Y-44744D02*
X35307Y-45236D01*
X35307Y-45236D02*
X35839Y-45236D01*
X35839Y-45236D02*
X35583Y-44744D01*
X35307Y-44744D02*
X35839Y-44744D01*
X36409Y-45000D02*
X36372Y-45370D01*
X36264Y-45727D01*
X36090Y-46056D01*
X35854Y-46345D01*
X35567Y-46582D01*
X35239Y-46759D01*
X34883Y-46870D01*
X34513Y-46908D01*
X34143Y-46875D01*
X33785Y-46769D01*
X33455Y-46597D01*
X33165Y-46363D01*
X32925Y-46078D01*
X32746Y-45752D01*
X32633Y-45396D01*
X32592Y-45026D01*
X32623Y-44656D01*
X32726Y-44298D01*
X32896Y-43966D01*
X33127Y-43674D01*
X33411Y-43433D01*
X33736Y-43251D01*
X34091Y-43136D01*
X34461Y-43092D01*
X34831Y-43121D01*
X35190Y-43221D01*
X35522Y-43389D01*
X35816Y-43618D01*
X36059Y-43900D01*
X36243Y-44224D01*
X36361Y-44578D01*
X36408Y-44947D01*
X36409Y-45000D01*
X29583Y-46736D02*
X29583Y-47425D01*
X29583Y-46244D02*
X29583Y-45476D01*
X29583Y-46244D02*
X29307Y-46736D01*
X29307Y-46736D02*
X29839Y-46736D01*
X29839Y-46736D02*
X29583Y-46244D01*
X29307Y-46244D02*
X29839Y-46244D01*
X30409Y-46500D02*
X30372Y-46870D01*
X30264Y-47227D01*
X30090Y-47556D01*
X29854Y-47845D01*
X29567Y-48082D01*
X29239Y-48259D01*
X28883Y-48370D01*
X28513Y-48408D01*
X28143Y-48375D01*
X27785Y-48269D01*
X27455Y-48097D01*
X27165Y-47863D01*
X26925Y-47578D01*
X26746Y-47252D01*
X26633Y-46896D01*
X26592Y-46526D01*
X26623Y-46156D01*
X26726Y-45798D01*
X26896Y-45466D01*
X27127Y-45174D01*
X27411Y-44933D01*
X27736Y-44751D01*
X28091Y-44636D01*
X28461Y-44592D01*
X28831Y-44621D01*
X29190Y-44721D01*
X29522Y-44889D01*
X29816Y-45118D01*
X30059Y-45400D01*
X30243Y-45724D01*
X30361Y-46078D01*
X30408Y-46447D01*
X30409Y-46500D01*
G54D14*
X42670Y-27020D02*
X42830Y-27020D01*
X42830Y-27020D02*
X42830Y-26500D01*
X42670Y-26500D02*
X42830Y-26500D01*
X42670Y-27020D02*
X42670Y-26500D01*
X42170Y-27020D02*
X42330Y-27020D01*
X42330Y-27020D02*
X42330Y-26500D01*
X42170Y-26500D02*
X42330Y-26500D01*
X42170Y-27020D02*
X42170Y-26500D01*
X41670Y-27020D02*
X41830Y-27020D01*
X41830Y-27020D02*
X41830Y-26500D01*
X41670Y-26500D02*
X41830Y-26500D01*
X41670Y-27020D02*
X41670Y-26500D01*
X41170Y-27020D02*
X41330Y-27020D01*
X41330Y-27020D02*
X41330Y-26500D01*
X41170Y-26500D02*
X41330Y-26500D01*
X41170Y-27020D02*
X41170Y-26500D01*
X40670Y-27020D02*
X40830Y-27020D01*
X40830Y-27020D02*
X40830Y-26500D01*
X40670Y-26500D02*
X40830Y-26500D01*
X40670Y-27020D02*
X40670Y-26500D01*
X40170Y-27020D02*
X40330Y-27020D01*
X40330Y-27020D02*
X40330Y-26500D01*
X40170Y-26500D02*
X40330Y-26500D01*
X40170Y-27020D02*
X40170Y-26500D01*
X39670Y-27020D02*
X39830Y-27020D01*
X39830Y-27020D02*
X39830Y-26500D01*
X39670Y-26500D02*
X39830Y-26500D01*
X39670Y-27020D02*
X39670Y-26500D01*
X39170Y-27020D02*
X39330Y-27020D01*
X39330Y-27020D02*
X39330Y-26500D01*
X39170Y-26500D02*
X39330Y-26500D01*
X39170Y-27020D02*
X39170Y-26500D01*
X38670Y-27020D02*
X38830Y-27020D01*
X38830Y-27020D02*
X38830Y-26500D01*
X38670Y-26500D02*
X38830Y-26500D01*
X38670Y-27020D02*
X38670Y-26500D01*
X38170Y-27020D02*
X38330Y-27020D01*
X38330Y-27020D02*
X38330Y-26500D01*
X38170Y-26500D02*
X38330Y-26500D01*
X38170Y-27020D02*
X38170Y-26500D01*
X42670Y-30500D02*
X42830Y-30500D01*
X42830Y-30500D02*
X42830Y-29980D01*
X42670Y-29980D02*
X42830Y-29980D01*
X42670Y-30500D02*
X42670Y-29980D01*
X42170Y-30500D02*
X42330Y-30500D01*
X42330Y-30500D02*
X42330Y-29980D01*
X42170Y-29980D02*
X42330Y-29980D01*
X42170Y-30500D02*
X42170Y-29980D01*
X41670Y-30500D02*
X41830Y-30500D01*
X41830Y-30500D02*
X41830Y-29980D01*
X41670Y-29980D02*
X41830Y-29980D01*
X41670Y-30500D02*
X41670Y-29980D01*
X41170Y-30500D02*
X41330Y-30500D01*
X41330Y-30500D02*
X41330Y-29980D01*
X41170Y-29980D02*
X41330Y-29980D01*
X41170Y-30500D02*
X41170Y-29980D01*
X40670Y-30500D02*
X40830Y-30500D01*
X40830Y-30500D02*
X40830Y-29980D01*
X40670Y-29980D02*
X40830Y-29980D01*
X40670Y-30500D02*
X40670Y-29980D01*
X40170Y-30500D02*
X40330Y-30500D01*
X40330Y-30500D02*
X40330Y-29980D01*
X40170Y-29980D02*
X40330Y-29980D01*
X40170Y-30500D02*
X40170Y-29980D01*
X39670Y-30500D02*
X39830Y-30500D01*
X39830Y-30500D02*
X39830Y-29980D01*
X39670Y-29980D02*
X39830Y-29980D01*
X39670Y-30500D02*
X39670Y-29980D01*
X39170Y-30500D02*
X39330Y-30500D01*
X39330Y-30500D02*
X39330Y-29980D01*
X39170Y-29980D02*
X39330Y-29980D01*
X39170Y-30500D02*
X39170Y-29980D01*
X38670Y-30500D02*
X38830Y-30500D01*
X38830Y-30500D02*
X38830Y-29980D01*
X38670Y-29980D02*
X38830Y-29980D01*
X38670Y-30500D02*
X38670Y-29980D01*
X38170Y-30500D02*
X38330Y-30500D01*
X38330Y-30500D02*
X38330Y-29980D01*
X38170Y-29980D02*
X38330Y-29980D01*
X38170Y-30500D02*
X38170Y-29980D01*
G54D10*
X38030Y-29960D02*
X42970Y-29960D01*
X42970Y-29960D02*
X42970Y-27040D01*
X42970Y-27040D02*
X38030Y-27040D01*
X38030Y-27040D02*
X38030Y-29960D01*
G54D15*
X38528Y-29590D02*
X38525Y-29618D01*
X38516Y-29646D01*
X38503Y-29671D01*
X38485Y-29694D01*
X38462Y-29712D01*
X38437Y-29726D01*
X38409Y-29734D01*
X38381Y-29737D01*
X38353Y-29735D01*
X38325Y-29727D01*
X38299Y-29713D01*
X38277Y-29695D01*
X38258Y-29673D01*
X38244Y-29648D01*
X38236Y-29620D01*
X38233Y-29592D01*
X38235Y-29564D01*
X38243Y-29536D01*
X38256Y-29510D01*
X38274Y-29488D01*
X38296Y-29469D01*
X38321Y-29455D01*
X38349Y-29446D01*
X38377Y-29443D01*
X38405Y-29445D01*
X38433Y-29453D01*
X38459Y-29466D01*
X38482Y-29483D01*
X38500Y-29505D01*
X38515Y-29530D01*
X38524Y-29558D01*
X38527Y-29586D01*
X38528Y-29590D01*
G54D12*
X41667Y-18262D02*
X41667Y-18548D01*
X41647Y-18605D01*
X41609Y-18643D01*
X41552Y-18662D01*
X41514Y-18662D01*
X41857Y-18662D02*
X41857Y-18262D01*
X42010Y-18262D01*
X42048Y-18281D01*
X42067Y-18300D01*
X42086Y-18338D01*
X42086Y-18395D01*
X42067Y-18433D01*
X42048Y-18452D01*
X42010Y-18471D01*
X41857Y-18471D01*
X42467Y-18662D02*
X42238Y-18662D01*
X42352Y-18662D02*
X42352Y-18262D01*
X42314Y-18319D01*
X42276Y-18357D01*
X42238Y-18376D01*
G54D11*
X24062Y-24552D02*
X24062Y-24052D01*
X24586Y-24505D02*
X24562Y-24529D01*
X24491Y-24552D01*
X24443Y-24552D01*
X24371Y-24529D01*
X24324Y-24481D01*
X24300Y-24433D01*
X24276Y-24338D01*
X24276Y-24267D01*
X24300Y-24171D01*
X24324Y-24124D01*
X24371Y-24076D01*
X24443Y-24052D01*
X24491Y-24052D01*
X24562Y-24076D01*
X24586Y-24100D01*
X24752Y-24052D02*
X25062Y-24052D01*
X24895Y-24243D01*
X24967Y-24243D01*
X25014Y-24267D01*
X25038Y-24290D01*
X25062Y-24338D01*
X25062Y-24457D01*
X25038Y-24505D01*
X25014Y-24529D01*
X24967Y-24552D01*
X24824Y-24552D01*
X24776Y-24529D01*
X24752Y-24505D01*
X21963Y-28852D02*
X21963Y-28352D01*
X22130Y-28710D01*
X22296Y-28352D01*
X22296Y-28852D01*
X22701Y-28590D02*
X22772Y-28614D01*
X22796Y-28638D01*
X22820Y-28686D01*
X22820Y-28757D01*
X22796Y-28805D01*
X22772Y-28829D01*
X22725Y-28852D01*
X22534Y-28852D01*
X22534Y-28352D01*
X22701Y-28352D01*
X22748Y-28376D01*
X22772Y-28400D01*
X22796Y-28448D01*
X22796Y-28495D01*
X22772Y-28543D01*
X22748Y-28567D01*
X22701Y-28590D01*
X22534Y-28590D01*
X23034Y-28852D02*
X23034Y-28352D01*
X23510Y-28352D02*
X23272Y-28352D01*
X23248Y-28590D01*
X23272Y-28567D01*
X23320Y-28543D01*
X23439Y-28543D01*
X23486Y-28567D01*
X23510Y-28590D01*
X23534Y-28638D01*
X23534Y-28757D01*
X23510Y-28805D01*
X23486Y-28829D01*
X23439Y-28852D01*
X23320Y-28852D01*
X23272Y-28829D01*
X23248Y-28805D01*
X24010Y-28852D02*
X23724Y-28852D01*
X23867Y-28852D02*
X23867Y-28352D01*
X23819Y-28424D01*
X23772Y-28471D01*
X23724Y-28495D01*
X24438Y-28352D02*
X24343Y-28352D01*
X24295Y-28376D01*
X24272Y-28400D01*
X24224Y-28471D01*
X24200Y-28567D01*
X24200Y-28757D01*
X24224Y-28805D01*
X24248Y-28829D01*
X24295Y-28852D01*
X24391Y-28852D01*
X24438Y-28829D01*
X24462Y-28805D01*
X24486Y-28757D01*
X24486Y-28638D01*
X24462Y-28590D01*
X24438Y-28567D01*
X24391Y-28543D01*
X24295Y-28543D01*
X24248Y-28567D01*
X24224Y-28590D01*
X24200Y-28638D01*
X24771Y-28567D02*
X24724Y-28543D01*
X24700Y-28519D01*
X24676Y-28471D01*
X24676Y-28448D01*
X24700Y-28400D01*
X24724Y-28376D01*
X24771Y-28352D01*
X24867Y-28352D01*
X24914Y-28376D01*
X24938Y-28400D01*
X24962Y-28448D01*
X24962Y-28471D01*
X24938Y-28519D01*
X24914Y-28543D01*
X24867Y-28567D01*
X24771Y-28567D01*
X24724Y-28590D01*
X24700Y-28614D01*
X24676Y-28662D01*
X24676Y-28757D01*
X24700Y-28805D01*
X24724Y-28829D01*
X24771Y-28852D01*
X24867Y-28852D01*
X24914Y-28829D01*
X24938Y-28805D01*
X24962Y-28757D01*
X24962Y-28662D01*
X24938Y-28614D01*
X24914Y-28590D01*
X24867Y-28567D01*
X24062Y-16052D02*
X24062Y-15552D01*
X24586Y-16005D02*
X24562Y-16029D01*
X24491Y-16052D01*
X24443Y-16052D01*
X24371Y-16029D01*
X24324Y-15981D01*
X24300Y-15933D01*
X24276Y-15838D01*
X24276Y-15767D01*
X24300Y-15671D01*
X24324Y-15624D01*
X24371Y-15576D01*
X24443Y-15552D01*
X24491Y-15552D01*
X24562Y-15576D01*
X24586Y-15600D01*
X24776Y-15600D02*
X24800Y-15576D01*
X24848Y-15552D01*
X24967Y-15552D01*
X25014Y-15576D01*
X25038Y-15600D01*
X25062Y-15648D01*
X25062Y-15695D01*
X25038Y-15767D01*
X24752Y-16052D01*
X25062Y-16052D01*
X21963Y-20352D02*
X21963Y-19852D01*
X22130Y-20210D01*
X22296Y-19852D01*
X22296Y-20352D01*
X22701Y-20090D02*
X22772Y-20114D01*
X22796Y-20138D01*
X22820Y-20186D01*
X22820Y-20257D01*
X22796Y-20305D01*
X22772Y-20329D01*
X22725Y-20352D01*
X22534Y-20352D01*
X22534Y-19852D01*
X22701Y-19852D01*
X22748Y-19876D01*
X22772Y-19900D01*
X22796Y-19948D01*
X22796Y-19995D01*
X22772Y-20043D01*
X22748Y-20067D01*
X22701Y-20090D01*
X22534Y-20090D01*
X23034Y-20352D02*
X23034Y-19852D01*
X23510Y-19852D02*
X23272Y-19852D01*
X23248Y-20090D01*
X23272Y-20067D01*
X23320Y-20043D01*
X23439Y-20043D01*
X23486Y-20067D01*
X23510Y-20090D01*
X23534Y-20138D01*
X23534Y-20257D01*
X23510Y-20305D01*
X23486Y-20329D01*
X23439Y-20352D01*
X23320Y-20352D01*
X23272Y-20329D01*
X23248Y-20305D01*
X24010Y-20352D02*
X23724Y-20352D01*
X23867Y-20352D02*
X23867Y-19852D01*
X23819Y-19924D01*
X23772Y-19971D01*
X23724Y-19995D01*
X24438Y-19852D02*
X24343Y-19852D01*
X24295Y-19876D01*
X24272Y-19900D01*
X24224Y-19971D01*
X24200Y-20067D01*
X24200Y-20257D01*
X24224Y-20305D01*
X24248Y-20329D01*
X24295Y-20352D01*
X24391Y-20352D01*
X24438Y-20329D01*
X24462Y-20305D01*
X24486Y-20257D01*
X24486Y-20138D01*
X24462Y-20090D01*
X24438Y-20067D01*
X24391Y-20043D01*
X24295Y-20043D01*
X24248Y-20067D01*
X24224Y-20090D01*
X24200Y-20138D01*
X24771Y-20067D02*
X24724Y-20043D01*
X24700Y-20019D01*
X24676Y-19971D01*
X24676Y-19948D01*
X24700Y-19900D01*
X24724Y-19876D01*
X24771Y-19852D01*
X24867Y-19852D01*
X24914Y-19876D01*
X24938Y-19900D01*
X24962Y-19948D01*
X24962Y-19971D01*
X24938Y-20019D01*
X24914Y-20043D01*
X24867Y-20067D01*
X24771Y-20067D01*
X24724Y-20090D01*
X24700Y-20114D01*
X24676Y-20162D01*
X24676Y-20257D01*
X24700Y-20305D01*
X24724Y-20329D01*
X24771Y-20352D01*
X24867Y-20352D01*
X24914Y-20329D01*
X24938Y-20305D01*
X24962Y-20257D01*
X24962Y-20162D01*
X24938Y-20114D01*
X24914Y-20090D01*
X24867Y-20067D01*
X103772Y-60845D02*
X103772Y-60245D01*
X103915Y-60245D01*
X104000Y-60273D01*
X104058Y-60331D01*
X104086Y-60388D01*
X104115Y-60502D01*
X104115Y-60588D01*
X104086Y-60702D01*
X104058Y-60759D01*
X104000Y-60816D01*
X103915Y-60845D01*
X103772Y-60845D01*
X104686Y-60845D02*
X104343Y-60845D01*
X104515Y-60845D02*
X104515Y-60245D01*
X104458Y-60331D01*
X104400Y-60388D01*
X104343Y-60416D01*
X105200Y-60245D02*
X105086Y-60245D01*
X105029Y-60273D01*
X105000Y-60302D01*
X104943Y-60388D01*
X104914Y-60502D01*
X104914Y-60731D01*
X104943Y-60788D01*
X104971Y-60816D01*
X105029Y-60845D01*
X105143Y-60845D01*
X105200Y-60816D01*
X105229Y-60788D01*
X105257Y-60731D01*
X105257Y-60588D01*
X105229Y-60531D01*
X105200Y-60502D01*
X105143Y-60473D01*
X105029Y-60473D01*
X104971Y-60502D01*
X104943Y-60531D01*
X104914Y-60588D01*
X103229Y-61790D02*
X102943Y-61790D01*
X102943Y-61190D01*
X103429Y-61476D02*
X103629Y-61476D01*
X103715Y-61790D02*
X103429Y-61790D01*
X103429Y-61190D01*
X103715Y-61190D01*
X103972Y-61790D02*
X103972Y-61190D01*
X104115Y-61190D01*
X104200Y-61218D01*
X104258Y-61276D01*
X104286Y-61333D01*
X104315Y-61447D01*
X104315Y-61533D01*
X104286Y-61647D01*
X104258Y-61704D01*
X104200Y-61761D01*
X104115Y-61790D01*
X103972Y-61790D01*
X104429Y-61847D02*
X104886Y-61847D01*
X105029Y-61790D02*
X105029Y-61190D01*
X105372Y-61790D01*
X105372Y-61190D01*
X105601Y-61190D02*
X105744Y-61790D01*
X105858Y-61361D01*
X105972Y-61790D01*
X106115Y-61190D01*
X96272Y-59345D02*
X96272Y-58745D01*
X96415Y-58745D01*
X96500Y-58773D01*
X96558Y-58831D01*
X96586Y-58888D01*
X96615Y-59002D01*
X96615Y-59088D01*
X96586Y-59202D01*
X96558Y-59259D01*
X96500Y-59316D01*
X96415Y-59345D01*
X96272Y-59345D01*
X97186Y-59345D02*
X96843Y-59345D01*
X97015Y-59345D02*
X97015Y-58745D01*
X96958Y-58831D01*
X96900Y-58888D01*
X96843Y-58916D01*
X97729Y-58745D02*
X97443Y-58745D01*
X97414Y-59031D01*
X97443Y-59002D01*
X97500Y-58973D01*
X97643Y-58973D01*
X97700Y-59002D01*
X97729Y-59031D01*
X97757Y-59088D01*
X97757Y-59231D01*
X97729Y-59288D01*
X97700Y-59316D01*
X97643Y-59345D01*
X97500Y-59345D01*
X97443Y-59316D01*
X97414Y-59288D01*
X95700Y-60290D02*
X95414Y-60290D01*
X95414Y-59690D01*
X95900Y-59976D02*
X96100Y-59976D01*
X96186Y-60290D02*
X95900Y-60290D01*
X95900Y-59690D01*
X96186Y-59690D01*
X96443Y-60290D02*
X96443Y-59690D01*
X96586Y-59690D01*
X96671Y-59718D01*
X96729Y-59776D01*
X96757Y-59833D01*
X96786Y-59947D01*
X96786Y-60033D01*
X96757Y-60147D01*
X96729Y-60204D01*
X96671Y-60261D01*
X96586Y-60290D01*
X96443Y-60290D01*
X96900Y-60347D02*
X97357Y-60347D01*
X97443Y-59690D02*
X97586Y-60290D01*
X97700Y-59861D01*
X97814Y-60290D01*
X97957Y-59690D01*
X98129Y-59690D02*
X98272Y-60290D01*
X98386Y-59861D01*
X98500Y-60290D01*
X98643Y-59690D01*
X90272Y-58845D02*
X90272Y-58245D01*
X90415Y-58245D01*
X90500Y-58273D01*
X90558Y-58331D01*
X90586Y-58388D01*
X90615Y-58502D01*
X90615Y-58588D01*
X90586Y-58702D01*
X90558Y-58759D01*
X90500Y-58816D01*
X90415Y-58845D01*
X90272Y-58845D01*
X91186Y-58845D02*
X90843Y-58845D01*
X91015Y-58845D02*
X91015Y-58245D01*
X90958Y-58331D01*
X90900Y-58388D01*
X90843Y-58416D01*
X91700Y-58445D02*
X91700Y-58845D01*
X91557Y-58216D02*
X91414Y-58645D01*
X91786Y-58645D01*
X89729Y-59790D02*
X89443Y-59790D01*
X89443Y-59190D01*
X89929Y-59476D02*
X90129Y-59476D01*
X90215Y-59790D02*
X89929Y-59790D01*
X89929Y-59190D01*
X90215Y-59190D01*
X90472Y-59790D02*
X90472Y-59190D01*
X90615Y-59190D01*
X90700Y-59218D01*
X90758Y-59276D01*
X90786Y-59333D01*
X90815Y-59447D01*
X90815Y-59533D01*
X90786Y-59647D01*
X90758Y-59704D01*
X90700Y-59761D01*
X90615Y-59790D01*
X90472Y-59790D01*
X90929Y-59847D02*
X91386Y-59847D01*
X91529Y-59790D02*
X91529Y-59190D01*
X91872Y-59790D01*
X91872Y-59190D01*
X92101Y-59190D02*
X92244Y-59790D01*
X92358Y-59361D01*
X92472Y-59790D01*
X92615Y-59190D01*
X84772Y-58845D02*
X84772Y-58245D01*
X84915Y-58245D01*
X85000Y-58273D01*
X85058Y-58331D01*
X85086Y-58388D01*
X85115Y-58502D01*
X85115Y-58588D01*
X85086Y-58702D01*
X85058Y-58759D01*
X85000Y-58816D01*
X84915Y-58845D01*
X84772Y-58845D01*
X85686Y-58845D02*
X85343Y-58845D01*
X85515Y-58845D02*
X85515Y-58245D01*
X85458Y-58331D01*
X85400Y-58388D01*
X85343Y-58416D01*
X85886Y-58245D02*
X86257Y-58245D01*
X86057Y-58473D01*
X86143Y-58473D01*
X86200Y-58502D01*
X86229Y-58531D01*
X86257Y-58588D01*
X86257Y-58731D01*
X86229Y-58788D01*
X86200Y-58816D01*
X86143Y-58845D01*
X85971Y-58845D01*
X85914Y-58816D01*
X85886Y-58788D01*
X84200Y-59790D02*
X83914Y-59790D01*
X83914Y-59190D01*
X84400Y-59476D02*
X84600Y-59476D01*
X84686Y-59790D02*
X84400Y-59790D01*
X84400Y-59190D01*
X84686Y-59190D01*
X84943Y-59790D02*
X84943Y-59190D01*
X85086Y-59190D01*
X85171Y-59218D01*
X85229Y-59276D01*
X85257Y-59333D01*
X85286Y-59447D01*
X85286Y-59533D01*
X85257Y-59647D01*
X85229Y-59704D01*
X85171Y-59761D01*
X85086Y-59790D01*
X84943Y-59790D01*
X85400Y-59847D02*
X85857Y-59847D01*
X85943Y-59190D02*
X86086Y-59790D01*
X86200Y-59361D01*
X86314Y-59790D01*
X86457Y-59190D01*
X86629Y-59190D02*
X86772Y-59790D01*
X86886Y-59361D01*
X87000Y-59790D01*
X87143Y-59190D01*
X78272Y-59345D02*
X78272Y-58745D01*
X78415Y-58745D01*
X78500Y-58773D01*
X78558Y-58831D01*
X78586Y-58888D01*
X78615Y-59002D01*
X78615Y-59088D01*
X78586Y-59202D01*
X78558Y-59259D01*
X78500Y-59316D01*
X78415Y-59345D01*
X78272Y-59345D01*
X79186Y-59345D02*
X78843Y-59345D01*
X79015Y-59345D02*
X79015Y-58745D01*
X78958Y-58831D01*
X78900Y-58888D01*
X78843Y-58916D01*
X79414Y-58802D02*
X79443Y-58773D01*
X79500Y-58745D01*
X79643Y-58745D01*
X79700Y-58773D01*
X79729Y-58802D01*
X79757Y-58859D01*
X79757Y-58916D01*
X79729Y-59002D01*
X79386Y-59345D01*
X79757Y-59345D01*
X77729Y-60290D02*
X77443Y-60290D01*
X77443Y-59690D01*
X77929Y-59976D02*
X78129Y-59976D01*
X78215Y-60290D02*
X77929Y-60290D01*
X77929Y-59690D01*
X78215Y-59690D01*
X78472Y-60290D02*
X78472Y-59690D01*
X78615Y-59690D01*
X78700Y-59718D01*
X78758Y-59776D01*
X78786Y-59833D01*
X78815Y-59947D01*
X78815Y-60033D01*
X78786Y-60147D01*
X78758Y-60204D01*
X78700Y-60261D01*
X78615Y-60290D01*
X78472Y-60290D01*
X78929Y-60347D02*
X79386Y-60347D01*
X79529Y-60290D02*
X79529Y-59690D01*
X79872Y-60290D01*
X79872Y-59690D01*
X80101Y-59690D02*
X80244Y-60290D01*
X80358Y-59861D01*
X80472Y-60290D01*
X80615Y-59690D01*
X71772Y-59845D02*
X71772Y-59245D01*
X71915Y-59245D01*
X72000Y-59273D01*
X72058Y-59331D01*
X72086Y-59388D01*
X72115Y-59502D01*
X72115Y-59588D01*
X72086Y-59702D01*
X72058Y-59759D01*
X72000Y-59816D01*
X71915Y-59845D01*
X71772Y-59845D01*
X72686Y-59845D02*
X72343Y-59845D01*
X72515Y-59845D02*
X72515Y-59245D01*
X72458Y-59331D01*
X72400Y-59388D01*
X72343Y-59416D01*
X73257Y-59845D02*
X72914Y-59845D01*
X73086Y-59845D02*
X73086Y-59245D01*
X73029Y-59331D01*
X72971Y-59388D01*
X72914Y-59416D01*
X71200Y-60790D02*
X70914Y-60790D01*
X70914Y-60190D01*
X71400Y-60476D02*
X71600Y-60476D01*
X71686Y-60790D02*
X71400Y-60790D01*
X71400Y-60190D01*
X71686Y-60190D01*
X71943Y-60790D02*
X71943Y-60190D01*
X72086Y-60190D01*
X72171Y-60218D01*
X72229Y-60276D01*
X72257Y-60333D01*
X72286Y-60447D01*
X72286Y-60533D01*
X72257Y-60647D01*
X72229Y-60704D01*
X72171Y-60761D01*
X72086Y-60790D01*
X71943Y-60790D01*
X72400Y-60847D02*
X72857Y-60847D01*
X72943Y-60190D02*
X73086Y-60790D01*
X73200Y-60361D01*
X73314Y-60790D01*
X73457Y-60190D01*
X73629Y-60190D02*
X73772Y-60790D01*
X73886Y-60361D01*
X74000Y-60790D01*
X74143Y-60190D01*
X64272Y-59345D02*
X64272Y-58745D01*
X64415Y-58745D01*
X64500Y-58773D01*
X64558Y-58831D01*
X64586Y-58888D01*
X64615Y-59002D01*
X64615Y-59088D01*
X64586Y-59202D01*
X64558Y-59259D01*
X64500Y-59316D01*
X64415Y-59345D01*
X64272Y-59345D01*
X65186Y-59345D02*
X64843Y-59345D01*
X65015Y-59345D02*
X65015Y-58745D01*
X64958Y-58831D01*
X64900Y-58888D01*
X64843Y-58916D01*
X65557Y-58745D02*
X65614Y-58745D01*
X65671Y-58773D01*
X65700Y-58802D01*
X65729Y-58859D01*
X65757Y-58973D01*
X65757Y-59116D01*
X65729Y-59231D01*
X65700Y-59288D01*
X65671Y-59316D01*
X65614Y-59345D01*
X65557Y-59345D01*
X65500Y-59316D01*
X65471Y-59288D01*
X65443Y-59231D01*
X65414Y-59116D01*
X65414Y-58973D01*
X65443Y-58859D01*
X65471Y-58802D01*
X65500Y-58773D01*
X65557Y-58745D01*
X63729Y-60290D02*
X63443Y-60290D01*
X63443Y-59690D01*
X63929Y-59976D02*
X64129Y-59976D01*
X64215Y-60290D02*
X63929Y-60290D01*
X63929Y-59690D01*
X64215Y-59690D01*
X64472Y-60290D02*
X64472Y-59690D01*
X64615Y-59690D01*
X64700Y-59718D01*
X64758Y-59776D01*
X64786Y-59833D01*
X64815Y-59947D01*
X64815Y-60033D01*
X64786Y-60147D01*
X64758Y-60204D01*
X64700Y-60261D01*
X64615Y-60290D01*
X64472Y-60290D01*
X64929Y-60347D02*
X65386Y-60347D01*
X65529Y-60290D02*
X65529Y-59690D01*
X65872Y-60290D01*
X65872Y-59690D01*
X66101Y-59690D02*
X66244Y-60290D01*
X66358Y-59861D01*
X66472Y-60290D01*
X66615Y-59690D01*
X56558Y-58345D02*
X56558Y-57745D01*
X56701Y-57745D01*
X56786Y-57773D01*
X56844Y-57831D01*
X56872Y-57888D01*
X56901Y-58002D01*
X56901Y-58088D01*
X56872Y-58202D01*
X56844Y-58259D01*
X56786Y-58316D01*
X56701Y-58345D01*
X56558Y-58345D01*
X57186Y-58345D02*
X57301Y-58345D01*
X57358Y-58316D01*
X57386Y-58288D01*
X57444Y-58202D01*
X57472Y-58088D01*
X57472Y-57859D01*
X57444Y-57802D01*
X57415Y-57773D01*
X57358Y-57745D01*
X57244Y-57745D01*
X57186Y-57773D01*
X57158Y-57802D01*
X57129Y-57859D01*
X57129Y-58002D01*
X57158Y-58059D01*
X57186Y-58088D01*
X57244Y-58116D01*
X57358Y-58116D01*
X57415Y-58088D01*
X57444Y-58059D01*
X57472Y-58002D01*
X55700Y-59290D02*
X55414Y-59290D01*
X55414Y-58690D01*
X55900Y-58976D02*
X56100Y-58976D01*
X56186Y-59290D02*
X55900Y-59290D01*
X55900Y-58690D01*
X56186Y-58690D01*
X56443Y-59290D02*
X56443Y-58690D01*
X56586Y-58690D01*
X56671Y-58718D01*
X56729Y-58776D01*
X56757Y-58833D01*
X56786Y-58947D01*
X56786Y-59033D01*
X56757Y-59147D01*
X56729Y-59204D01*
X56671Y-59261D01*
X56586Y-59290D01*
X56443Y-59290D01*
X56900Y-59347D02*
X57357Y-59347D01*
X57443Y-58690D02*
X57586Y-59290D01*
X57700Y-58861D01*
X57814Y-59290D01*
X57957Y-58690D01*
X58129Y-58690D02*
X58272Y-59290D01*
X58386Y-58861D01*
X58500Y-59290D01*
X58643Y-58690D01*
X70058Y-42845D02*
X70058Y-42245D01*
X70201Y-42245D01*
X70286Y-42273D01*
X70344Y-42331D01*
X70372Y-42388D01*
X70401Y-42502D01*
X70401Y-42588D01*
X70372Y-42702D01*
X70344Y-42759D01*
X70286Y-42816D01*
X70201Y-42845D01*
X70058Y-42845D01*
X70744Y-42502D02*
X70686Y-42473D01*
X70658Y-42445D01*
X70629Y-42388D01*
X70629Y-42359D01*
X70658Y-42302D01*
X70686Y-42273D01*
X70744Y-42245D01*
X70858Y-42245D01*
X70915Y-42273D01*
X70944Y-42302D01*
X70972Y-42359D01*
X70972Y-42388D01*
X70944Y-42445D01*
X70915Y-42473D01*
X70858Y-42502D01*
X70744Y-42502D01*
X70686Y-42531D01*
X70658Y-42559D01*
X70629Y-42616D01*
X70629Y-42731D01*
X70658Y-42788D01*
X70686Y-42816D01*
X70744Y-42845D01*
X70858Y-42845D01*
X70915Y-42816D01*
X70944Y-42788D01*
X70972Y-42731D01*
X70972Y-42616D01*
X70944Y-42559D01*
X70915Y-42531D01*
X70858Y-42502D01*
X69229Y-43790D02*
X68943Y-43790D01*
X68943Y-43190D01*
X69429Y-43476D02*
X69629Y-43476D01*
X69715Y-43790D02*
X69429Y-43790D01*
X69429Y-43190D01*
X69715Y-43190D01*
X69972Y-43790D02*
X69972Y-43190D01*
X70115Y-43190D01*
X70200Y-43218D01*
X70258Y-43276D01*
X70286Y-43333D01*
X70315Y-43447D01*
X70315Y-43533D01*
X70286Y-43647D01*
X70258Y-43704D01*
X70200Y-43761D01*
X70115Y-43790D01*
X69972Y-43790D01*
X70429Y-43847D02*
X70886Y-43847D01*
X71029Y-43790D02*
X71029Y-43190D01*
X71372Y-43790D01*
X71372Y-43190D01*
X71601Y-43190D02*
X71744Y-43790D01*
X71858Y-43361D01*
X71972Y-43790D01*
X72115Y-43190D01*
X64058Y-43345D02*
X64058Y-42745D01*
X64201Y-42745D01*
X64286Y-42773D01*
X64344Y-42831D01*
X64372Y-42888D01*
X64401Y-43002D01*
X64401Y-43088D01*
X64372Y-43202D01*
X64344Y-43259D01*
X64286Y-43316D01*
X64201Y-43345D01*
X64058Y-43345D01*
X64601Y-42745D02*
X65001Y-42745D01*
X64744Y-43345D01*
X63200Y-44290D02*
X62914Y-44290D01*
X62914Y-43690D01*
X63400Y-43976D02*
X63600Y-43976D01*
X63686Y-44290D02*
X63400Y-44290D01*
X63400Y-43690D01*
X63686Y-43690D01*
X63943Y-44290D02*
X63943Y-43690D01*
X64086Y-43690D01*
X64171Y-43718D01*
X64229Y-43776D01*
X64257Y-43833D01*
X64286Y-43947D01*
X64286Y-44033D01*
X64257Y-44147D01*
X64229Y-44204D01*
X64171Y-44261D01*
X64086Y-44290D01*
X63943Y-44290D01*
X64400Y-44347D02*
X64857Y-44347D01*
X64943Y-43690D02*
X65086Y-44290D01*
X65200Y-43861D01*
X65314Y-44290D01*
X65457Y-43690D01*
X65629Y-43690D02*
X65772Y-44290D01*
X65886Y-43861D01*
X66000Y-44290D01*
X66143Y-43690D01*
X57558Y-43345D02*
X57558Y-42745D01*
X57701Y-42745D01*
X57786Y-42773D01*
X57844Y-42831D01*
X57872Y-42888D01*
X57901Y-43002D01*
X57901Y-43088D01*
X57872Y-43202D01*
X57844Y-43259D01*
X57786Y-43316D01*
X57701Y-43345D01*
X57558Y-43345D01*
X58415Y-42745D02*
X58301Y-42745D01*
X58244Y-42773D01*
X58215Y-42802D01*
X58158Y-42888D01*
X58129Y-43002D01*
X58129Y-43231D01*
X58158Y-43288D01*
X58186Y-43316D01*
X58244Y-43345D01*
X58358Y-43345D01*
X58415Y-43316D01*
X58444Y-43288D01*
X58472Y-43231D01*
X58472Y-43088D01*
X58444Y-43031D01*
X58415Y-43002D01*
X58358Y-42973D01*
X58244Y-42973D01*
X58186Y-43002D01*
X58158Y-43031D01*
X58129Y-43088D01*
X56729Y-44290D02*
X56443Y-44290D01*
X56443Y-43690D01*
X56929Y-43976D02*
X57129Y-43976D01*
X57215Y-44290D02*
X56929Y-44290D01*
X56929Y-43690D01*
X57215Y-43690D01*
X57472Y-44290D02*
X57472Y-43690D01*
X57615Y-43690D01*
X57700Y-43718D01*
X57758Y-43776D01*
X57786Y-43833D01*
X57815Y-43947D01*
X57815Y-44033D01*
X57786Y-44147D01*
X57758Y-44204D01*
X57700Y-44261D01*
X57615Y-44290D01*
X57472Y-44290D01*
X57929Y-44347D02*
X58386Y-44347D01*
X58529Y-44290D02*
X58529Y-43690D01*
X58872Y-44290D01*
X58872Y-43690D01*
X59101Y-43690D02*
X59244Y-44290D01*
X59358Y-43861D01*
X59472Y-44290D01*
X59615Y-43690D01*
X51558Y-42345D02*
X51558Y-41745D01*
X51701Y-41745D01*
X51786Y-41773D01*
X51844Y-41831D01*
X51872Y-41888D01*
X51901Y-42002D01*
X51901Y-42088D01*
X51872Y-42202D01*
X51844Y-42259D01*
X51786Y-42316D01*
X51701Y-42345D01*
X51558Y-42345D01*
X52444Y-41745D02*
X52158Y-41745D01*
X52129Y-42031D01*
X52158Y-42002D01*
X52215Y-41973D01*
X52358Y-41973D01*
X52415Y-42002D01*
X52444Y-42031D01*
X52472Y-42088D01*
X52472Y-42231D01*
X52444Y-42288D01*
X52415Y-42316D01*
X52358Y-42345D01*
X52215Y-42345D01*
X52158Y-42316D01*
X52129Y-42288D01*
X50700Y-43290D02*
X50414Y-43290D01*
X50414Y-42690D01*
X50900Y-42976D02*
X51100Y-42976D01*
X51186Y-43290D02*
X50900Y-43290D01*
X50900Y-42690D01*
X51186Y-42690D01*
X51443Y-43290D02*
X51443Y-42690D01*
X51586Y-42690D01*
X51671Y-42718D01*
X51729Y-42776D01*
X51757Y-42833D01*
X51786Y-42947D01*
X51786Y-43033D01*
X51757Y-43147D01*
X51729Y-43204D01*
X51671Y-43261D01*
X51586Y-43290D01*
X51443Y-43290D01*
X51900Y-43347D02*
X52357Y-43347D01*
X52443Y-42690D02*
X52586Y-43290D01*
X52700Y-42861D01*
X52814Y-43290D01*
X52957Y-42690D01*
X53129Y-42690D02*
X53272Y-43290D01*
X53386Y-42861D01*
X53500Y-43290D01*
X53643Y-42690D01*
X46058Y-42845D02*
X46058Y-42245D01*
X46201Y-42245D01*
X46286Y-42273D01*
X46344Y-42331D01*
X46372Y-42388D01*
X46401Y-42502D01*
X46401Y-42588D01*
X46372Y-42702D01*
X46344Y-42759D01*
X46286Y-42816D01*
X46201Y-42845D01*
X46058Y-42845D01*
X46915Y-42445D02*
X46915Y-42845D01*
X46772Y-42216D02*
X46629Y-42645D01*
X47001Y-42645D01*
X45229Y-43790D02*
X44943Y-43790D01*
X44943Y-43190D01*
X45429Y-43476D02*
X45629Y-43476D01*
X45715Y-43790D02*
X45429Y-43790D01*
X45429Y-43190D01*
X45715Y-43190D01*
X45972Y-43790D02*
X45972Y-43190D01*
X46115Y-43190D01*
X46200Y-43218D01*
X46258Y-43276D01*
X46286Y-43333D01*
X46315Y-43447D01*
X46315Y-43533D01*
X46286Y-43647D01*
X46258Y-43704D01*
X46200Y-43761D01*
X46115Y-43790D01*
X45972Y-43790D01*
X46429Y-43847D02*
X46886Y-43847D01*
X47029Y-43790D02*
X47029Y-43190D01*
X47372Y-43790D01*
X47372Y-43190D01*
X47601Y-43190D02*
X47744Y-43790D01*
X47858Y-43361D01*
X47972Y-43790D01*
X48115Y-43190D01*
X39558Y-42345D02*
X39558Y-41745D01*
X39701Y-41745D01*
X39786Y-41773D01*
X39844Y-41831D01*
X39872Y-41888D01*
X39901Y-42002D01*
X39901Y-42088D01*
X39872Y-42202D01*
X39844Y-42259D01*
X39786Y-42316D01*
X39701Y-42345D01*
X39558Y-42345D01*
X40101Y-41745D02*
X40472Y-41745D01*
X40272Y-41973D01*
X40358Y-41973D01*
X40415Y-42002D01*
X40444Y-42031D01*
X40472Y-42088D01*
X40472Y-42231D01*
X40444Y-42288D01*
X40415Y-42316D01*
X40358Y-42345D01*
X40186Y-42345D01*
X40129Y-42316D01*
X40101Y-42288D01*
X38700Y-43290D02*
X38414Y-43290D01*
X38414Y-42690D01*
X38900Y-42976D02*
X39100Y-42976D01*
X39186Y-43290D02*
X38900Y-43290D01*
X38900Y-42690D01*
X39186Y-42690D01*
X39443Y-43290D02*
X39443Y-42690D01*
X39586Y-42690D01*
X39671Y-42718D01*
X39729Y-42776D01*
X39757Y-42833D01*
X39786Y-42947D01*
X39786Y-43033D01*
X39757Y-43147D01*
X39729Y-43204D01*
X39671Y-43261D01*
X39586Y-43290D01*
X39443Y-43290D01*
X39900Y-43347D02*
X40357Y-43347D01*
X40443Y-42690D02*
X40586Y-43290D01*
X40700Y-42861D01*
X40814Y-43290D01*
X40957Y-42690D01*
X41129Y-42690D02*
X41272Y-43290D01*
X41386Y-42861D01*
X41500Y-43290D01*
X41643Y-42690D01*
X34058Y-41345D02*
X34058Y-40745D01*
X34201Y-40745D01*
X34286Y-40773D01*
X34344Y-40831D01*
X34372Y-40888D01*
X34401Y-41002D01*
X34401Y-41088D01*
X34372Y-41202D01*
X34344Y-41259D01*
X34286Y-41316D01*
X34201Y-41345D01*
X34058Y-41345D01*
X34629Y-40802D02*
X34658Y-40773D01*
X34715Y-40745D01*
X34858Y-40745D01*
X34915Y-40773D01*
X34944Y-40802D01*
X34972Y-40859D01*
X34972Y-40916D01*
X34944Y-41002D01*
X34601Y-41345D01*
X34972Y-41345D01*
X33229Y-42290D02*
X32943Y-42290D01*
X32943Y-41690D01*
X33429Y-41976D02*
X33629Y-41976D01*
X33715Y-42290D02*
X33429Y-42290D01*
X33429Y-41690D01*
X33715Y-41690D01*
X33972Y-42290D02*
X33972Y-41690D01*
X34115Y-41690D01*
X34200Y-41718D01*
X34258Y-41776D01*
X34286Y-41833D01*
X34315Y-41947D01*
X34315Y-42033D01*
X34286Y-42147D01*
X34258Y-42204D01*
X34200Y-42261D01*
X34115Y-42290D01*
X33972Y-42290D01*
X34429Y-42347D02*
X34886Y-42347D01*
X35029Y-42290D02*
X35029Y-41690D01*
X35372Y-42290D01*
X35372Y-41690D01*
X35601Y-41690D02*
X35744Y-42290D01*
X35858Y-41861D01*
X35972Y-42290D01*
X36115Y-41690D01*
X28058Y-42845D02*
X28058Y-42245D01*
X28201Y-42245D01*
X28286Y-42273D01*
X28344Y-42331D01*
X28372Y-42388D01*
X28401Y-42502D01*
X28401Y-42588D01*
X28372Y-42702D01*
X28344Y-42759D01*
X28286Y-42816D01*
X28201Y-42845D01*
X28058Y-42845D01*
X28972Y-42845D02*
X28629Y-42845D01*
X28801Y-42845D02*
X28801Y-42245D01*
X28744Y-42331D01*
X28686Y-42388D01*
X28629Y-42416D01*
X27200Y-43790D02*
X26914Y-43790D01*
X26914Y-43190D01*
X27400Y-43476D02*
X27600Y-43476D01*
X27686Y-43790D02*
X27400Y-43790D01*
X27400Y-43190D01*
X27686Y-43190D01*
X27943Y-43790D02*
X27943Y-43190D01*
X28086Y-43190D01*
X28171Y-43218D01*
X28229Y-43276D01*
X28257Y-43333D01*
X28286Y-43447D01*
X28286Y-43533D01*
X28257Y-43647D01*
X28229Y-43704D01*
X28171Y-43761D01*
X28086Y-43790D01*
X27943Y-43790D01*
X28400Y-43847D02*
X28857Y-43847D01*
X28943Y-43190D02*
X29086Y-43790D01*
X29200Y-43361D01*
X29314Y-43790D01*
X29457Y-43190D01*
X29629Y-43190D02*
X29772Y-43790D01*
X29886Y-43361D01*
X30000Y-43790D01*
X30143Y-43190D01*
G54D16*
X37833Y-28883D02*
X37133Y-28883D01*
X37767Y-28150D02*
X37800Y-28184D01*
X37833Y-28284D01*
X37833Y-28350D01*
X37800Y-28450D01*
X37733Y-28517D01*
X37667Y-28550D01*
X37533Y-28584D01*
X37433Y-28584D01*
X37300Y-28550D01*
X37233Y-28517D01*
X37167Y-28450D01*
X37133Y-28350D01*
X37133Y-28284D01*
X37167Y-28184D01*
X37200Y-28150D01*
X37833Y-27484D02*
X37833Y-27884D01*
X37833Y-27684D02*
X37133Y-27684D01*
X37233Y-27750D01*
X37300Y-27817D01*
X37333Y-27884D01*
X36033Y-28533D02*
X36367Y-28533D01*
X35967Y-28733D02*
X36200Y-28033D01*
X36433Y-28733D01*
X36567Y-28033D02*
X36967Y-28033D01*
X36767Y-28733D02*
X36767Y-28033D01*
X37100Y-28267D02*
X37366Y-28267D01*
X37200Y-28033D02*
X37200Y-28633D01*
X37233Y-28700D01*
X37300Y-28733D01*
X37366Y-28733D01*
X37600Y-28733D02*
X37600Y-28267D01*
X37600Y-28033D02*
X37566Y-28067D01*
X37600Y-28100D01*
X37633Y-28067D01*
X37600Y-28033D01*
X37600Y-28100D01*
X37933Y-28267D02*
X37933Y-28733D01*
X37933Y-28333D02*
X37966Y-28300D01*
X38033Y-28267D01*
X38133Y-28267D01*
X38199Y-28300D01*
X38233Y-28367D01*
X38233Y-28733D01*
X38499Y-28267D02*
X38666Y-28733D01*
X38832Y-28267D02*
X38666Y-28733D01*
X38599Y-28900D01*
X38566Y-28933D01*
X38499Y-28967D01*
X39065Y-28100D02*
X39099Y-28067D01*
X39165Y-28033D01*
X39332Y-28033D01*
X39399Y-28067D01*
X39432Y-28100D01*
X39465Y-28167D01*
X39465Y-28233D01*
X39432Y-28333D01*
X39032Y-28733D01*
X39465Y-28733D01*
X39699Y-28033D02*
X40132Y-28033D01*
X39899Y-28300D01*
X39999Y-28300D01*
X40066Y-28333D01*
X40099Y-28367D01*
X40132Y-28433D01*
X40132Y-28600D01*
X40099Y-28667D01*
X40066Y-28700D01*
X39999Y-28733D01*
X39799Y-28733D01*
X39732Y-28700D01*
X39699Y-28667D01*
X40799Y-28733D02*
X40399Y-28733D01*
X40599Y-28733D02*
X40599Y-28033D01*
X40533Y-28133D01*
X40466Y-28200D01*
X40399Y-28233D01*
X41033Y-28033D02*
X41466Y-28033D01*
X41233Y-28300D01*
X41333Y-28300D01*
X41400Y-28333D01*
X41433Y-28367D01*
X41466Y-28433D01*
X41466Y-28600D01*
X41433Y-28667D01*
X41400Y-28700D01*
X41333Y-28733D01*
X41133Y-28733D01*
X41066Y-28700D01*
X41033Y-28667D01*
X42267Y-28000D02*
X41667Y-28900D01*
X42800Y-28267D02*
X42800Y-28733D01*
X42633Y-28000D02*
X42466Y-28500D01*
X42900Y-28500D01*
X43100Y-28033D02*
X43533Y-28033D01*
X43300Y-28300D01*
X43400Y-28300D01*
X43467Y-28333D01*
X43500Y-28367D01*
X43533Y-28433D01*
X43533Y-28600D01*
X43500Y-28667D01*
X43467Y-28700D01*
X43400Y-28733D01*
X43200Y-28733D01*
X43133Y-28700D01*
X43100Y-28667D01*
X44200Y-28733D02*
X43800Y-28733D01*
X44000Y-28733D02*
X44000Y-28033D01*
X43934Y-28133D01*
X43867Y-28200D01*
X43800Y-28233D01*
X44434Y-28033D02*
X44867Y-28033D01*
X44634Y-28300D01*
X44734Y-28300D01*
X44801Y-28333D01*
X44834Y-28367D01*
X44867Y-28433D01*
X44867Y-28600D01*
X44834Y-28667D01*
X44801Y-28700D01*
X44734Y-28733D01*
X44534Y-28733D01*
X44467Y-28700D01*
X44434Y-28667D01*
M02*
