G04 (created by PCBNEW-RS274X (2010-04-21 BZR 23xx)-stable) date Wed 16 Mar 2011 01:38:23 AM CET*
G01*
G70*
G90*
%MOIN*%
G04 Gerber Fmt 3.4, Leading zero omitted, Abs format*
%FSLAX34Y34*%
G04 APERTURE LIST*
%ADD10C,0.006000*%
%ADD11C,0.012000*%
%ADD12C,0.015000*%
%ADD13C,0.008000*%
%ADD14C,0.002600*%
%ADD15C,0.007800*%
%ADD16C,0.002000*%
%ADD17C,0.004000*%
%ADD18C,0.003500*%
G04 APERTURE END LIST*
G54D10*
X04000Y-04000D02*
X113000Y-04000D01*
X113000Y-78670D01*
X04000Y-78670D01*
X04000Y-04000D01*
X04700Y-04700D02*
X112300Y-04700D01*
X112300Y-77970D01*
X04700Y-77970D01*
X04700Y-04700D01*
X25800Y-04000D02*
X25800Y-04700D01*
X15043Y-04552D02*
X14757Y-04552D01*
X14900Y-04552D02*
X14900Y-04052D01*
X14852Y-04124D01*
X14805Y-04171D01*
X14757Y-04195D01*
X25800Y-78670D02*
X25800Y-77970D01*
X15043Y-78522D02*
X14757Y-78522D01*
X14900Y-78522D02*
X14900Y-78022D01*
X14852Y-78094D01*
X14805Y-78141D01*
X14757Y-78165D01*
X47600Y-04000D02*
X47600Y-04700D01*
X36557Y-04100D02*
X36581Y-04076D01*
X36629Y-04052D01*
X36748Y-04052D01*
X36795Y-04076D01*
X36819Y-04100D01*
X36843Y-04148D01*
X36843Y-04195D01*
X36819Y-04267D01*
X36533Y-04552D01*
X36843Y-04552D01*
X47600Y-78670D02*
X47600Y-77970D01*
X36557Y-78070D02*
X36581Y-78046D01*
X36629Y-78022D01*
X36748Y-78022D01*
X36795Y-78046D01*
X36819Y-78070D01*
X36843Y-78118D01*
X36843Y-78165D01*
X36819Y-78237D01*
X36533Y-78522D01*
X36843Y-78522D01*
X69400Y-04000D02*
X69400Y-04700D01*
X58333Y-04052D02*
X58643Y-04052D01*
X58476Y-04243D01*
X58548Y-04243D01*
X58595Y-04267D01*
X58619Y-04290D01*
X58643Y-04338D01*
X58643Y-04457D01*
X58619Y-04505D01*
X58595Y-04529D01*
X58548Y-04552D01*
X58405Y-04552D01*
X58357Y-04529D01*
X58333Y-04505D01*
X69400Y-78670D02*
X69400Y-77970D01*
X58333Y-78022D02*
X58643Y-78022D01*
X58476Y-78213D01*
X58548Y-78213D01*
X58595Y-78237D01*
X58619Y-78260D01*
X58643Y-78308D01*
X58643Y-78427D01*
X58619Y-78475D01*
X58595Y-78499D01*
X58548Y-78522D01*
X58405Y-78522D01*
X58357Y-78499D01*
X58333Y-78475D01*
X91200Y-04000D02*
X91200Y-04700D01*
X80395Y-04219D02*
X80395Y-04552D01*
X80276Y-04029D02*
X80157Y-04386D01*
X80467Y-04386D01*
X91200Y-78670D02*
X91200Y-77970D01*
X80395Y-78189D02*
X80395Y-78522D01*
X80276Y-77999D02*
X80157Y-78356D01*
X80467Y-78356D01*
X102219Y-04052D02*
X101981Y-04052D01*
X101957Y-04290D01*
X101981Y-04267D01*
X102029Y-04243D01*
X102148Y-04243D01*
X102195Y-04267D01*
X102219Y-04290D01*
X102243Y-04338D01*
X102243Y-04457D01*
X102219Y-04505D01*
X102195Y-04529D01*
X102148Y-04552D01*
X102029Y-04552D01*
X101981Y-04529D01*
X101957Y-04505D01*
X102219Y-78022D02*
X101981Y-78022D01*
X101957Y-78260D01*
X101981Y-78237D01*
X102029Y-78213D01*
X102148Y-78213D01*
X102195Y-78237D01*
X102219Y-78260D01*
X102243Y-78308D01*
X102243Y-78427D01*
X102219Y-78475D01*
X102195Y-78499D01*
X102148Y-78522D01*
X102029Y-78522D01*
X101981Y-78499D01*
X101957Y-78475D01*
X04000Y-28890D02*
X04700Y-28890D01*
X04231Y-16510D02*
X04469Y-16510D01*
X04184Y-16652D02*
X04350Y-16152D01*
X04517Y-16652D01*
X113000Y-28890D02*
X112300Y-28890D01*
X112531Y-16510D02*
X112769Y-16510D01*
X112484Y-16652D02*
X112650Y-16152D01*
X112817Y-16652D01*
X04000Y-53780D02*
X04700Y-53780D01*
X04386Y-41280D02*
X04457Y-41304D01*
X04481Y-41328D01*
X04505Y-41376D01*
X04505Y-41447D01*
X04481Y-41495D01*
X04457Y-41519D01*
X04410Y-41542D01*
X04219Y-41542D01*
X04219Y-41042D01*
X04386Y-41042D01*
X04433Y-41066D01*
X04457Y-41090D01*
X04481Y-41138D01*
X04481Y-41185D01*
X04457Y-41233D01*
X04433Y-41257D01*
X04386Y-41280D01*
X04219Y-41280D01*
X113000Y-53780D02*
X112300Y-53780D01*
X112686Y-41280D02*
X112757Y-41304D01*
X112781Y-41328D01*
X112805Y-41376D01*
X112805Y-41447D01*
X112781Y-41495D01*
X112757Y-41519D01*
X112710Y-41542D01*
X112519Y-41542D01*
X112519Y-41042D01*
X112686Y-41042D01*
X112733Y-41066D01*
X112757Y-41090D01*
X112781Y-41138D01*
X112781Y-41185D01*
X112757Y-41233D01*
X112733Y-41257D01*
X112686Y-41280D01*
X112519Y-41280D01*
X04505Y-66385D02*
X04481Y-66409D01*
X04410Y-66432D01*
X04362Y-66432D01*
X04290Y-66409D01*
X04243Y-66361D01*
X04219Y-66313D01*
X04195Y-66218D01*
X04195Y-66147D01*
X04219Y-66051D01*
X04243Y-66004D01*
X04290Y-65956D01*
X04362Y-65932D01*
X04410Y-65932D01*
X04481Y-65956D01*
X04505Y-65980D01*
X112805Y-66385D02*
X112781Y-66409D01*
X112710Y-66432D01*
X112662Y-66432D01*
X112590Y-66409D01*
X112543Y-66361D01*
X112519Y-66313D01*
X112495Y-66218D01*
X112495Y-66147D01*
X112519Y-66051D01*
X112543Y-66004D01*
X112590Y-65956D01*
X112662Y-65932D01*
X112710Y-65932D01*
X112781Y-65956D01*
X112805Y-65980D01*
G54D11*
X79443Y-76413D02*
X79443Y-75813D01*
X79586Y-75813D01*
X79671Y-75841D01*
X79729Y-75899D01*
X79757Y-75956D01*
X79786Y-76070D01*
X79786Y-76156D01*
X79757Y-76270D01*
X79729Y-76327D01*
X79671Y-76384D01*
X79586Y-76413D01*
X79443Y-76413D01*
X80300Y-76413D02*
X80300Y-76099D01*
X80271Y-76041D01*
X80214Y-76013D01*
X80100Y-76013D01*
X80043Y-76041D01*
X80300Y-76384D02*
X80243Y-76413D01*
X80100Y-76413D01*
X80043Y-76384D01*
X80014Y-76327D01*
X80014Y-76270D01*
X80043Y-76213D01*
X80100Y-76184D01*
X80243Y-76184D01*
X80300Y-76156D01*
X80500Y-76013D02*
X80729Y-76013D01*
X80586Y-75813D02*
X80586Y-76327D01*
X80614Y-76384D01*
X80672Y-76413D01*
X80729Y-76413D01*
X81157Y-76384D02*
X81100Y-76413D01*
X80986Y-76413D01*
X80929Y-76384D01*
X80900Y-76327D01*
X80900Y-76099D01*
X80929Y-76041D01*
X80986Y-76013D01*
X81100Y-76013D01*
X81157Y-76041D01*
X81186Y-76099D01*
X81186Y-76156D01*
X80900Y-76213D01*
X81443Y-76356D02*
X81471Y-76384D01*
X81443Y-76413D01*
X81414Y-76384D01*
X81443Y-76356D01*
X81443Y-76413D01*
X81443Y-76041D02*
X81471Y-76070D01*
X81443Y-76099D01*
X81414Y-76070D01*
X81443Y-76041D01*
X81443Y-76099D01*
X82500Y-76413D02*
X82157Y-76413D01*
X82329Y-76413D02*
X82329Y-75813D01*
X82272Y-75899D01*
X82214Y-75956D01*
X82157Y-75984D01*
X83014Y-75813D02*
X82900Y-75813D01*
X82843Y-75841D01*
X82814Y-75870D01*
X82757Y-75956D01*
X82728Y-76070D01*
X82728Y-76299D01*
X82757Y-76356D01*
X82785Y-76384D01*
X82843Y-76413D01*
X82957Y-76413D01*
X83014Y-76384D01*
X83043Y-76356D01*
X83071Y-76299D01*
X83071Y-76156D01*
X83043Y-76099D01*
X83014Y-76070D01*
X82957Y-76041D01*
X82843Y-76041D01*
X82785Y-76070D01*
X82757Y-76099D01*
X82728Y-76156D01*
X83785Y-76413D02*
X83785Y-76013D01*
X83785Y-76070D02*
X83813Y-76041D01*
X83871Y-76013D01*
X83956Y-76013D01*
X84013Y-76041D01*
X84042Y-76099D01*
X84042Y-76413D01*
X84042Y-76099D02*
X84071Y-76041D01*
X84128Y-76013D01*
X84213Y-76013D01*
X84271Y-76041D01*
X84299Y-76099D01*
X84299Y-76413D01*
X84842Y-76413D02*
X84842Y-76099D01*
X84813Y-76041D01*
X84756Y-76013D01*
X84642Y-76013D01*
X84585Y-76041D01*
X84842Y-76384D02*
X84785Y-76413D01*
X84642Y-76413D01*
X84585Y-76384D01*
X84556Y-76327D01*
X84556Y-76270D01*
X84585Y-76213D01*
X84642Y-76184D01*
X84785Y-76184D01*
X84842Y-76156D01*
X85128Y-76413D02*
X85128Y-76013D01*
X85128Y-76127D02*
X85156Y-76070D01*
X85185Y-76041D01*
X85242Y-76013D01*
X85299Y-76013D01*
X85927Y-75870D02*
X85956Y-75841D01*
X86013Y-75813D01*
X86156Y-75813D01*
X86213Y-75841D01*
X86242Y-75870D01*
X86270Y-75927D01*
X86270Y-75984D01*
X86242Y-76070D01*
X85899Y-76413D01*
X86270Y-76413D01*
X86641Y-75813D02*
X86698Y-75813D01*
X86755Y-75841D01*
X86784Y-75870D01*
X86813Y-75927D01*
X86841Y-76041D01*
X86841Y-76184D01*
X86813Y-76299D01*
X86784Y-76356D01*
X86755Y-76384D01*
X86698Y-76413D01*
X86641Y-76413D01*
X86584Y-76384D01*
X86555Y-76356D01*
X86527Y-76299D01*
X86498Y-76184D01*
X86498Y-76041D01*
X86527Y-75927D01*
X86555Y-75870D01*
X86584Y-75841D01*
X86641Y-75813D01*
X87412Y-76413D02*
X87069Y-76413D01*
X87241Y-76413D02*
X87241Y-75813D01*
X87184Y-75899D01*
X87126Y-75956D01*
X87069Y-75984D01*
X87983Y-76413D02*
X87640Y-76413D01*
X87812Y-76413D02*
X87812Y-75813D01*
X87755Y-75899D01*
X87697Y-75956D01*
X87640Y-75984D01*
G54D10*
X71043Y-77613D02*
X71043Y-77013D01*
X71386Y-77613D02*
X71129Y-77270D01*
X71386Y-77013D02*
X71043Y-77356D01*
X71643Y-77613D02*
X71643Y-77213D01*
X71643Y-77013D02*
X71614Y-77041D01*
X71643Y-77070D01*
X71671Y-77041D01*
X71643Y-77013D01*
X71643Y-77070D01*
X72272Y-77556D02*
X72243Y-77584D01*
X72157Y-77613D01*
X72100Y-77613D01*
X72015Y-77584D01*
X71957Y-77527D01*
X71929Y-77470D01*
X71900Y-77356D01*
X71900Y-77270D01*
X71929Y-77156D01*
X71957Y-77099D01*
X72015Y-77041D01*
X72100Y-77013D01*
X72157Y-77013D01*
X72243Y-77041D01*
X72272Y-77070D01*
X72786Y-77613D02*
X72786Y-77299D01*
X72757Y-77241D01*
X72700Y-77213D01*
X72586Y-77213D01*
X72529Y-77241D01*
X72786Y-77584D02*
X72729Y-77613D01*
X72586Y-77613D01*
X72529Y-77584D01*
X72500Y-77527D01*
X72500Y-77470D01*
X72529Y-77413D01*
X72586Y-77384D01*
X72729Y-77384D01*
X72786Y-77356D01*
X73329Y-77613D02*
X73329Y-77013D01*
X73329Y-77584D02*
X73272Y-77613D01*
X73158Y-77613D01*
X73100Y-77584D01*
X73072Y-77556D01*
X73043Y-77499D01*
X73043Y-77327D01*
X73072Y-77270D01*
X73100Y-77241D01*
X73158Y-77213D01*
X73272Y-77213D01*
X73329Y-77241D01*
X74072Y-77299D02*
X74272Y-77299D01*
X74358Y-77613D02*
X74072Y-77613D01*
X74072Y-77013D01*
X74358Y-77013D01*
X74615Y-77556D02*
X74643Y-77584D01*
X74615Y-77613D01*
X74586Y-77584D01*
X74615Y-77556D01*
X74615Y-77613D01*
X74901Y-77613D02*
X74901Y-77013D01*
X75044Y-77013D01*
X75129Y-77041D01*
X75187Y-77099D01*
X75215Y-77156D01*
X75244Y-77270D01*
X75244Y-77356D01*
X75215Y-77470D01*
X75187Y-77527D01*
X75129Y-77584D01*
X75044Y-77613D01*
X74901Y-77613D01*
X75501Y-77556D02*
X75529Y-77584D01*
X75501Y-77613D01*
X75472Y-77584D01*
X75501Y-77556D01*
X75501Y-77613D01*
X75758Y-77441D02*
X76044Y-77441D01*
X75701Y-77613D02*
X75901Y-77013D01*
X76101Y-77613D01*
X76301Y-77556D02*
X76329Y-77584D01*
X76301Y-77613D01*
X76272Y-77584D01*
X76301Y-77556D01*
X76301Y-77613D01*
G54D11*
X104586Y-76413D02*
X104386Y-76127D01*
X104243Y-76413D02*
X104243Y-75813D01*
X104471Y-75813D01*
X104529Y-75841D01*
X104557Y-75870D01*
X104586Y-75927D01*
X104586Y-76013D01*
X104557Y-76070D01*
X104529Y-76099D01*
X104471Y-76127D01*
X104243Y-76127D01*
X105071Y-76384D02*
X105014Y-76413D01*
X104900Y-76413D01*
X104843Y-76384D01*
X104814Y-76327D01*
X104814Y-76099D01*
X104843Y-76041D01*
X104900Y-76013D01*
X105014Y-76013D01*
X105071Y-76041D01*
X105100Y-76099D01*
X105100Y-76156D01*
X104814Y-76213D01*
X105300Y-76013D02*
X105443Y-76413D01*
X105585Y-76013D01*
X105814Y-76356D02*
X105842Y-76384D01*
X105814Y-76413D01*
X105785Y-76384D01*
X105814Y-76356D01*
X105814Y-76413D01*
X105814Y-76041D02*
X105842Y-76070D01*
X105814Y-76099D01*
X105785Y-76070D01*
X105814Y-76041D01*
X105814Y-76099D01*
G54D10*
X71014Y-76384D02*
X71100Y-76413D01*
X71243Y-76413D01*
X71300Y-76384D01*
X71329Y-76356D01*
X71357Y-76299D01*
X71357Y-76241D01*
X71329Y-76184D01*
X71300Y-76156D01*
X71243Y-76127D01*
X71129Y-76099D01*
X71071Y-76070D01*
X71043Y-76041D01*
X71014Y-75984D01*
X71014Y-75927D01*
X71043Y-75870D01*
X71071Y-75841D01*
X71129Y-75813D01*
X71271Y-75813D01*
X71357Y-75841D01*
X71614Y-76413D02*
X71614Y-76013D01*
X71614Y-75813D02*
X71585Y-75841D01*
X71614Y-75870D01*
X71642Y-75841D01*
X71614Y-75813D01*
X71614Y-75870D01*
X71843Y-76013D02*
X72157Y-76013D01*
X71843Y-76413D01*
X72157Y-76413D01*
X72614Y-76384D02*
X72557Y-76413D01*
X72443Y-76413D01*
X72386Y-76384D01*
X72357Y-76327D01*
X72357Y-76099D01*
X72386Y-76041D01*
X72443Y-76013D01*
X72557Y-76013D01*
X72614Y-76041D01*
X72643Y-76099D01*
X72643Y-76156D01*
X72357Y-76213D01*
X72900Y-76356D02*
X72928Y-76384D01*
X72900Y-76413D01*
X72871Y-76384D01*
X72900Y-76356D01*
X72900Y-76413D01*
X72900Y-76041D02*
X72928Y-76070D01*
X72900Y-76099D01*
X72871Y-76070D01*
X72900Y-76041D01*
X72900Y-76099D01*
X73614Y-76241D02*
X73900Y-76241D01*
X73557Y-76413D02*
X73757Y-75813D01*
X73957Y-76413D01*
X74414Y-76013D02*
X74414Y-76413D01*
X74271Y-75784D02*
X74128Y-76213D01*
X74500Y-76213D01*
X104243Y-77613D02*
X104243Y-77013D01*
X104786Y-77613D02*
X104786Y-77013D01*
X104786Y-77584D02*
X104729Y-77613D01*
X104615Y-77613D01*
X104557Y-77584D01*
X104529Y-77556D01*
X104500Y-77499D01*
X104500Y-77327D01*
X104529Y-77270D01*
X104557Y-77241D01*
X104615Y-77213D01*
X104729Y-77213D01*
X104786Y-77241D01*
X105072Y-77556D02*
X105100Y-77584D01*
X105072Y-77613D01*
X105043Y-77584D01*
X105072Y-77556D01*
X105072Y-77613D01*
X105072Y-77241D02*
X105100Y-77270D01*
X105072Y-77299D01*
X105043Y-77270D01*
X105072Y-77241D01*
X105072Y-77299D01*
X106129Y-77613D02*
X105786Y-77613D01*
X105958Y-77613D02*
X105958Y-77013D01*
X105901Y-77099D01*
X105843Y-77156D01*
X105786Y-77184D01*
X106814Y-76984D02*
X106300Y-77756D01*
X107329Y-77613D02*
X106986Y-77613D01*
X107158Y-77613D02*
X107158Y-77013D01*
X107101Y-77099D01*
X107043Y-77156D01*
X106986Y-77184D01*
G54D11*
X70957Y-74613D02*
X71300Y-74613D01*
X71129Y-75213D02*
X71129Y-74613D01*
X71500Y-75213D02*
X71500Y-74813D01*
X71500Y-74613D02*
X71471Y-74641D01*
X71500Y-74670D01*
X71528Y-74641D01*
X71500Y-74613D01*
X71500Y-74670D01*
X71700Y-74813D02*
X71929Y-74813D01*
X71786Y-74613D02*
X71786Y-75127D01*
X71814Y-75184D01*
X71872Y-75213D01*
X71929Y-75213D01*
X72215Y-75213D02*
X72157Y-75184D01*
X72129Y-75127D01*
X72129Y-74613D01*
X72671Y-75184D02*
X72614Y-75213D01*
X72500Y-75213D01*
X72443Y-75184D01*
X72414Y-75127D01*
X72414Y-74899D01*
X72443Y-74841D01*
X72500Y-74813D01*
X72614Y-74813D01*
X72671Y-74841D01*
X72700Y-74899D01*
X72700Y-74956D01*
X72414Y-75013D01*
X72957Y-75156D02*
X72985Y-75184D01*
X72957Y-75213D01*
X72928Y-75184D01*
X72957Y-75156D01*
X72957Y-75213D01*
X72957Y-74841D02*
X72985Y-74870D01*
X72957Y-74899D01*
X72928Y-74870D01*
X72957Y-74841D01*
X72957Y-74899D01*
G54D10*
X71243Y-72499D02*
X71043Y-72499D01*
X71043Y-72813D02*
X71043Y-72213D01*
X71329Y-72213D01*
X71557Y-72813D02*
X71557Y-72413D01*
X71557Y-72213D02*
X71528Y-72241D01*
X71557Y-72270D01*
X71585Y-72241D01*
X71557Y-72213D01*
X71557Y-72270D01*
X71929Y-72813D02*
X71871Y-72784D01*
X71843Y-72727D01*
X71843Y-72213D01*
X72385Y-72784D02*
X72328Y-72813D01*
X72214Y-72813D01*
X72157Y-72784D01*
X72128Y-72727D01*
X72128Y-72499D01*
X72157Y-72441D01*
X72214Y-72413D01*
X72328Y-72413D01*
X72385Y-72441D01*
X72414Y-72499D01*
X72414Y-72556D01*
X72128Y-72613D01*
X72671Y-72756D02*
X72699Y-72784D01*
X72671Y-72813D01*
X72642Y-72784D01*
X72671Y-72756D01*
X72671Y-72813D01*
X72671Y-72441D02*
X72699Y-72470D01*
X72671Y-72499D01*
X72642Y-72470D01*
X72671Y-72441D01*
X72671Y-72499D01*
X73414Y-72813D02*
X73414Y-72213D01*
X73471Y-72584D02*
X73642Y-72813D01*
X73642Y-72413D02*
X73414Y-72641D01*
X73900Y-72813D02*
X73900Y-72413D01*
X73900Y-72213D02*
X73871Y-72241D01*
X73900Y-72270D01*
X73928Y-72241D01*
X73900Y-72213D01*
X73900Y-72270D01*
X74100Y-72413D02*
X74329Y-72413D01*
X74186Y-72213D02*
X74186Y-72727D01*
X74214Y-72784D01*
X74272Y-72813D01*
X74329Y-72813D01*
X74786Y-72784D02*
X74729Y-72813D01*
X74615Y-72813D01*
X74557Y-72784D01*
X74529Y-72756D01*
X74500Y-72699D01*
X74500Y-72527D01*
X74529Y-72470D01*
X74557Y-72441D01*
X74615Y-72413D01*
X74729Y-72413D01*
X74786Y-72441D01*
X75043Y-72813D02*
X75043Y-72213D01*
X75300Y-72813D02*
X75300Y-72499D01*
X75271Y-72441D01*
X75214Y-72413D01*
X75129Y-72413D01*
X75071Y-72441D01*
X75043Y-72470D01*
X75814Y-72784D02*
X75757Y-72813D01*
X75643Y-72813D01*
X75586Y-72784D01*
X75557Y-72727D01*
X75557Y-72499D01*
X75586Y-72441D01*
X75643Y-72413D01*
X75757Y-72413D01*
X75814Y-72441D01*
X75843Y-72499D01*
X75843Y-72556D01*
X75557Y-72613D01*
X76100Y-72413D02*
X76100Y-72813D01*
X76100Y-72470D02*
X76128Y-72441D01*
X76186Y-72413D01*
X76271Y-72413D01*
X76328Y-72441D01*
X76357Y-72499D01*
X76357Y-72813D01*
X76500Y-72870D02*
X76957Y-72870D01*
X77186Y-72813D02*
X77128Y-72784D01*
X77100Y-72727D01*
X77100Y-72213D01*
X77414Y-72813D02*
X77414Y-72413D01*
X77414Y-72213D02*
X77385Y-72241D01*
X77414Y-72270D01*
X77442Y-72241D01*
X77414Y-72213D01*
X77414Y-72270D01*
X77957Y-72413D02*
X77957Y-72899D01*
X77928Y-72956D01*
X77900Y-72984D01*
X77843Y-73013D01*
X77757Y-73013D01*
X77700Y-72984D01*
X77957Y-72784D02*
X77900Y-72813D01*
X77786Y-72813D01*
X77728Y-72784D01*
X77700Y-72756D01*
X77671Y-72699D01*
X77671Y-72527D01*
X77700Y-72470D01*
X77728Y-72441D01*
X77786Y-72413D01*
X77900Y-72413D01*
X77957Y-72441D01*
X78243Y-72813D02*
X78243Y-72213D01*
X78500Y-72813D02*
X78500Y-72499D01*
X78471Y-72441D01*
X78414Y-72413D01*
X78329Y-72413D01*
X78271Y-72441D01*
X78243Y-72470D01*
X78700Y-72413D02*
X78929Y-72413D01*
X78786Y-72213D02*
X78786Y-72727D01*
X78814Y-72784D01*
X78872Y-72813D01*
X78929Y-72813D01*
X79100Y-72784D02*
X79157Y-72813D01*
X79272Y-72813D01*
X79329Y-72784D01*
X79357Y-72727D01*
X79357Y-72699D01*
X79329Y-72641D01*
X79272Y-72613D01*
X79186Y-72613D01*
X79129Y-72584D01*
X79100Y-72527D01*
X79100Y-72499D01*
X79129Y-72441D01*
X79186Y-72413D01*
X79272Y-72413D01*
X79329Y-72441D01*
X79615Y-72756D02*
X79643Y-72784D01*
X79615Y-72813D01*
X79586Y-72784D01*
X79615Y-72756D01*
X79615Y-72813D01*
X79901Y-72813D02*
X79901Y-72213D01*
X79901Y-72441D02*
X79958Y-72413D01*
X80072Y-72413D01*
X80129Y-72441D01*
X80158Y-72470D01*
X80187Y-72527D01*
X80187Y-72699D01*
X80158Y-72756D01*
X80129Y-72784D01*
X80072Y-72813D01*
X79958Y-72813D01*
X79901Y-72784D01*
X80444Y-72813D02*
X80444Y-72413D01*
X80444Y-72527D02*
X80472Y-72470D01*
X80501Y-72441D01*
X80558Y-72413D01*
X80615Y-72413D01*
X81072Y-72813D02*
X81072Y-72213D01*
X81072Y-72784D02*
X81015Y-72813D01*
X80901Y-72813D01*
X80843Y-72784D01*
X80815Y-72756D01*
X80786Y-72699D01*
X80786Y-72527D01*
X80815Y-72470D01*
X80843Y-72441D01*
X80901Y-72413D01*
X81015Y-72413D01*
X81072Y-72441D01*
X71014Y-73984D02*
X71100Y-74013D01*
X71243Y-74013D01*
X71300Y-73984D01*
X71329Y-73956D01*
X71357Y-73899D01*
X71357Y-73841D01*
X71329Y-73784D01*
X71300Y-73756D01*
X71243Y-73727D01*
X71129Y-73699D01*
X71071Y-73670D01*
X71043Y-73641D01*
X71014Y-73584D01*
X71014Y-73527D01*
X71043Y-73470D01*
X71071Y-73441D01*
X71129Y-73413D01*
X71271Y-73413D01*
X71357Y-73441D01*
X71614Y-74013D02*
X71614Y-73413D01*
X71871Y-74013D02*
X71871Y-73699D01*
X71842Y-73641D01*
X71785Y-73613D01*
X71700Y-73613D01*
X71642Y-73641D01*
X71614Y-73670D01*
X72385Y-73984D02*
X72328Y-74013D01*
X72214Y-74013D01*
X72157Y-73984D01*
X72128Y-73927D01*
X72128Y-73699D01*
X72157Y-73641D01*
X72214Y-73613D01*
X72328Y-73613D01*
X72385Y-73641D01*
X72414Y-73699D01*
X72414Y-73756D01*
X72128Y-73813D01*
X72899Y-73984D02*
X72842Y-74013D01*
X72728Y-74013D01*
X72671Y-73984D01*
X72642Y-73927D01*
X72642Y-73699D01*
X72671Y-73641D01*
X72728Y-73613D01*
X72842Y-73613D01*
X72899Y-73641D01*
X72928Y-73699D01*
X72928Y-73756D01*
X72642Y-73813D01*
X73099Y-73613D02*
X73328Y-73613D01*
X73185Y-73413D02*
X73185Y-73927D01*
X73213Y-73984D01*
X73271Y-74013D01*
X73328Y-74013D01*
X73528Y-73956D02*
X73556Y-73984D01*
X73528Y-74013D01*
X73499Y-73984D01*
X73528Y-73956D01*
X73528Y-74013D01*
X73528Y-73641D02*
X73556Y-73670D01*
X73528Y-73699D01*
X73499Y-73670D01*
X73528Y-73641D01*
X73528Y-73699D01*
X74585Y-74013D02*
X74242Y-74013D01*
X74414Y-74013D02*
X74414Y-73413D01*
X74357Y-73499D01*
X74299Y-73556D01*
X74242Y-73584D01*
X75270Y-73384D02*
X74756Y-74156D01*
X75785Y-74013D02*
X75442Y-74013D01*
X75614Y-74013D02*
X75614Y-73413D01*
X75557Y-73499D01*
X75499Y-73556D01*
X75442Y-73584D01*
X70300Y-71970D02*
X70300Y-77970D01*
X70300Y-71970D02*
X112300Y-71970D01*
X70300Y-71970D02*
X112300Y-71970D01*
X70300Y-74370D02*
X112300Y-74370D01*
X103500Y-75570D02*
X103500Y-77970D01*
X70300Y-76770D02*
X112300Y-76770D01*
X70300Y-75570D02*
X112300Y-75570D01*
X76900Y-75570D02*
X76900Y-76770D01*
G54D12*
X92650Y-21800D02*
X92649Y-21809D01*
X92646Y-21819D01*
X92641Y-21827D01*
X92635Y-21835D01*
X92627Y-21841D01*
X92619Y-21846D01*
X92610Y-21848D01*
X92600Y-21849D01*
X92591Y-21849D01*
X92582Y-21846D01*
X92573Y-21841D01*
X92566Y-21835D01*
X92559Y-21828D01*
X92555Y-21819D01*
X92552Y-21810D01*
X92551Y-21800D01*
X92551Y-21791D01*
X92554Y-21782D01*
X92558Y-21773D01*
X92565Y-21766D01*
X92572Y-21759D01*
X92580Y-21755D01*
X92590Y-21752D01*
X92599Y-21751D01*
X92608Y-21751D01*
X92618Y-21754D01*
X92626Y-21758D01*
X92634Y-21764D01*
X92640Y-21772D01*
X92645Y-21780D01*
X92648Y-21789D01*
X92649Y-21799D01*
X92650Y-21800D01*
X92900Y-21800D02*
X92899Y-21809D01*
X92896Y-21819D01*
X92891Y-21827D01*
X92885Y-21835D01*
X92877Y-21841D01*
X92869Y-21846D01*
X92860Y-21848D01*
X92850Y-21849D01*
X92841Y-21849D01*
X92832Y-21846D01*
X92823Y-21841D01*
X92816Y-21835D01*
X92809Y-21828D01*
X92805Y-21819D01*
X92802Y-21810D01*
X92801Y-21800D01*
X92801Y-21791D01*
X92804Y-21782D01*
X92808Y-21773D01*
X92815Y-21766D01*
X92822Y-21759D01*
X92830Y-21755D01*
X92840Y-21752D01*
X92849Y-21751D01*
X92858Y-21751D01*
X92868Y-21754D01*
X92876Y-21758D01*
X92884Y-21764D01*
X92890Y-21772D01*
X92895Y-21780D01*
X92898Y-21789D01*
X92899Y-21799D01*
X92900Y-21800D01*
X92650Y-22050D02*
X92649Y-22059D01*
X92646Y-22069D01*
X92641Y-22077D01*
X92635Y-22085D01*
X92627Y-22091D01*
X92619Y-22096D01*
X92610Y-22098D01*
X92600Y-22099D01*
X92591Y-22099D01*
X92582Y-22096D01*
X92573Y-22091D01*
X92566Y-22085D01*
X92559Y-22078D01*
X92555Y-22069D01*
X92552Y-22060D01*
X92551Y-22050D01*
X92551Y-22041D01*
X92554Y-22032D01*
X92558Y-22023D01*
X92565Y-22016D01*
X92572Y-22009D01*
X92580Y-22005D01*
X92590Y-22002D01*
X92599Y-22001D01*
X92608Y-22001D01*
X92618Y-22004D01*
X92626Y-22008D01*
X92634Y-22014D01*
X92640Y-22022D01*
X92645Y-22030D01*
X92648Y-22039D01*
X92649Y-22049D01*
X92650Y-22050D01*
X92900Y-22050D02*
X92899Y-22059D01*
X92896Y-22069D01*
X92891Y-22077D01*
X92885Y-22085D01*
X92877Y-22091D01*
X92869Y-22096D01*
X92860Y-22098D01*
X92850Y-22099D01*
X92841Y-22099D01*
X92832Y-22096D01*
X92823Y-22091D01*
X92816Y-22085D01*
X92809Y-22078D01*
X92805Y-22069D01*
X92802Y-22060D01*
X92801Y-22050D01*
X92801Y-22041D01*
X92804Y-22032D01*
X92808Y-22023D01*
X92815Y-22016D01*
X92822Y-22009D01*
X92830Y-22005D01*
X92840Y-22002D01*
X92849Y-22001D01*
X92858Y-22001D01*
X92868Y-22004D01*
X92876Y-22008D01*
X92884Y-22014D01*
X92890Y-22022D01*
X92895Y-22030D01*
X92898Y-22039D01*
X92899Y-22049D01*
X92900Y-22050D01*
X91900Y-22050D02*
X91899Y-22059D01*
X91896Y-22069D01*
X91891Y-22077D01*
X91885Y-22085D01*
X91877Y-22091D01*
X91869Y-22096D01*
X91860Y-22098D01*
X91850Y-22099D01*
X91841Y-22099D01*
X91832Y-22096D01*
X91823Y-22091D01*
X91816Y-22085D01*
X91809Y-22078D01*
X91805Y-22069D01*
X91802Y-22060D01*
X91801Y-22050D01*
X91801Y-22041D01*
X91804Y-22032D01*
X91808Y-22023D01*
X91815Y-22016D01*
X91822Y-22009D01*
X91830Y-22005D01*
X91840Y-22002D01*
X91849Y-22001D01*
X91858Y-22001D01*
X91868Y-22004D01*
X91876Y-22008D01*
X91884Y-22014D01*
X91890Y-22022D01*
X91895Y-22030D01*
X91898Y-22039D01*
X91899Y-22049D01*
X91900Y-22050D01*
X91650Y-22050D02*
X91649Y-22059D01*
X91646Y-22069D01*
X91641Y-22077D01*
X91635Y-22085D01*
X91627Y-22091D01*
X91619Y-22096D01*
X91610Y-22098D01*
X91600Y-22099D01*
X91591Y-22099D01*
X91582Y-22096D01*
X91573Y-22091D01*
X91566Y-22085D01*
X91559Y-22078D01*
X91555Y-22069D01*
X91552Y-22060D01*
X91551Y-22050D01*
X91551Y-22041D01*
X91554Y-22032D01*
X91558Y-22023D01*
X91565Y-22016D01*
X91572Y-22009D01*
X91580Y-22005D01*
X91590Y-22002D01*
X91599Y-22001D01*
X91608Y-22001D01*
X91618Y-22004D01*
X91626Y-22008D01*
X91634Y-22014D01*
X91640Y-22022D01*
X91645Y-22030D01*
X91648Y-22039D01*
X91649Y-22049D01*
X91650Y-22050D01*
X91650Y-21800D02*
X91649Y-21809D01*
X91646Y-21819D01*
X91641Y-21827D01*
X91635Y-21835D01*
X91627Y-21841D01*
X91619Y-21846D01*
X91610Y-21848D01*
X91600Y-21849D01*
X91591Y-21849D01*
X91582Y-21846D01*
X91573Y-21841D01*
X91566Y-21835D01*
X91559Y-21828D01*
X91555Y-21819D01*
X91552Y-21810D01*
X91551Y-21800D01*
X91551Y-21791D01*
X91554Y-21782D01*
X91558Y-21773D01*
X91565Y-21766D01*
X91572Y-21759D01*
X91580Y-21755D01*
X91590Y-21752D01*
X91599Y-21751D01*
X91608Y-21751D01*
X91618Y-21754D01*
X91626Y-21758D01*
X91634Y-21764D01*
X91640Y-21772D01*
X91645Y-21780D01*
X91648Y-21789D01*
X91649Y-21799D01*
X91650Y-21800D01*
X91900Y-21800D02*
X91899Y-21809D01*
X91896Y-21819D01*
X91891Y-21827D01*
X91885Y-21835D01*
X91877Y-21841D01*
X91869Y-21846D01*
X91860Y-21848D01*
X91850Y-21849D01*
X91841Y-21849D01*
X91832Y-21846D01*
X91823Y-21841D01*
X91816Y-21835D01*
X91809Y-21828D01*
X91805Y-21819D01*
X91802Y-21810D01*
X91801Y-21800D01*
X91801Y-21791D01*
X91804Y-21782D01*
X91808Y-21773D01*
X91815Y-21766D01*
X91822Y-21759D01*
X91830Y-21755D01*
X91840Y-21752D01*
X91849Y-21751D01*
X91858Y-21751D01*
X91868Y-21754D01*
X91876Y-21758D01*
X91884Y-21764D01*
X91890Y-21772D01*
X91895Y-21780D01*
X91898Y-21789D01*
X91899Y-21799D01*
X91900Y-21800D01*
X92150Y-22550D02*
X92149Y-22559D01*
X92146Y-22569D01*
X92141Y-22577D01*
X92135Y-22585D01*
X92127Y-22591D01*
X92119Y-22596D01*
X92110Y-22598D01*
X92100Y-22599D01*
X92091Y-22599D01*
X92082Y-22596D01*
X92073Y-22591D01*
X92066Y-22585D01*
X92059Y-22578D01*
X92055Y-22569D01*
X92052Y-22560D01*
X92051Y-22550D01*
X92051Y-22541D01*
X92054Y-22532D01*
X92058Y-22523D01*
X92065Y-22516D01*
X92072Y-22509D01*
X92080Y-22505D01*
X92090Y-22502D01*
X92099Y-22501D01*
X92108Y-22501D01*
X92118Y-22504D01*
X92126Y-22508D01*
X92134Y-22514D01*
X92140Y-22522D01*
X92145Y-22530D01*
X92148Y-22539D01*
X92149Y-22549D01*
X92150Y-22550D01*
X92400Y-22550D02*
X92399Y-22559D01*
X92396Y-22569D01*
X92391Y-22577D01*
X92385Y-22585D01*
X92377Y-22591D01*
X92369Y-22596D01*
X92360Y-22598D01*
X92350Y-22599D01*
X92341Y-22599D01*
X92332Y-22596D01*
X92323Y-22591D01*
X92316Y-22585D01*
X92309Y-22578D01*
X92305Y-22569D01*
X92302Y-22560D01*
X92301Y-22550D01*
X92301Y-22541D01*
X92304Y-22532D01*
X92308Y-22523D01*
X92315Y-22516D01*
X92322Y-22509D01*
X92330Y-22505D01*
X92340Y-22502D01*
X92349Y-22501D01*
X92358Y-22501D01*
X92368Y-22504D01*
X92376Y-22508D01*
X92384Y-22514D01*
X92390Y-22522D01*
X92395Y-22530D01*
X92398Y-22539D01*
X92399Y-22549D01*
X92400Y-22550D01*
X92150Y-22800D02*
X92149Y-22809D01*
X92146Y-22819D01*
X92141Y-22827D01*
X92135Y-22835D01*
X92127Y-22841D01*
X92119Y-22846D01*
X92110Y-22848D01*
X92100Y-22849D01*
X92091Y-22849D01*
X92082Y-22846D01*
X92073Y-22841D01*
X92066Y-22835D01*
X92059Y-22828D01*
X92055Y-22819D01*
X92052Y-22810D01*
X92051Y-22800D01*
X92051Y-22791D01*
X92054Y-22782D01*
X92058Y-22773D01*
X92065Y-22766D01*
X92072Y-22759D01*
X92080Y-22755D01*
X92090Y-22752D01*
X92099Y-22751D01*
X92108Y-22751D01*
X92118Y-22754D01*
X92126Y-22758D01*
X92134Y-22764D01*
X92140Y-22772D01*
X92145Y-22780D01*
X92148Y-22789D01*
X92149Y-22799D01*
X92150Y-22800D01*
X92400Y-22800D02*
X92399Y-22809D01*
X92396Y-22819D01*
X92391Y-22827D01*
X92385Y-22835D01*
X92377Y-22841D01*
X92369Y-22846D01*
X92360Y-22848D01*
X92350Y-22849D01*
X92341Y-22849D01*
X92332Y-22846D01*
X92323Y-22841D01*
X92316Y-22835D01*
X92309Y-22828D01*
X92305Y-22819D01*
X92302Y-22810D01*
X92301Y-22800D01*
X92301Y-22791D01*
X92304Y-22782D01*
X92308Y-22773D01*
X92315Y-22766D01*
X92322Y-22759D01*
X92330Y-22755D01*
X92340Y-22752D01*
X92349Y-22751D01*
X92358Y-22751D01*
X92368Y-22754D01*
X92376Y-22758D01*
X92384Y-22764D01*
X92390Y-22772D01*
X92395Y-22780D01*
X92398Y-22789D01*
X92399Y-22799D01*
X92400Y-22800D01*
X92150Y-23300D02*
X92149Y-23309D01*
X92146Y-23319D01*
X92141Y-23327D01*
X92135Y-23335D01*
X92127Y-23341D01*
X92119Y-23346D01*
X92110Y-23348D01*
X92100Y-23349D01*
X92091Y-23349D01*
X92082Y-23346D01*
X92073Y-23341D01*
X92066Y-23335D01*
X92059Y-23328D01*
X92055Y-23319D01*
X92052Y-23310D01*
X92051Y-23300D01*
X92051Y-23291D01*
X92054Y-23282D01*
X92058Y-23273D01*
X92065Y-23266D01*
X92072Y-23259D01*
X92080Y-23255D01*
X92090Y-23252D01*
X92099Y-23251D01*
X92108Y-23251D01*
X92118Y-23254D01*
X92126Y-23258D01*
X92134Y-23264D01*
X92140Y-23272D01*
X92145Y-23280D01*
X92148Y-23289D01*
X92149Y-23299D01*
X92150Y-23300D01*
X92400Y-23300D02*
X92399Y-23309D01*
X92396Y-23319D01*
X92391Y-23327D01*
X92385Y-23335D01*
X92377Y-23341D01*
X92369Y-23346D01*
X92360Y-23348D01*
X92350Y-23349D01*
X92341Y-23349D01*
X92332Y-23346D01*
X92323Y-23341D01*
X92316Y-23335D01*
X92309Y-23328D01*
X92305Y-23319D01*
X92302Y-23310D01*
X92301Y-23300D01*
X92301Y-23291D01*
X92304Y-23282D01*
X92308Y-23273D01*
X92315Y-23266D01*
X92322Y-23259D01*
X92330Y-23255D01*
X92340Y-23252D01*
X92349Y-23251D01*
X92358Y-23251D01*
X92368Y-23254D01*
X92376Y-23258D01*
X92384Y-23264D01*
X92390Y-23272D01*
X92395Y-23280D01*
X92398Y-23289D01*
X92399Y-23299D01*
X92400Y-23300D01*
X92650Y-23300D02*
X92649Y-23309D01*
X92646Y-23319D01*
X92641Y-23327D01*
X92635Y-23335D01*
X92627Y-23341D01*
X92619Y-23346D01*
X92610Y-23348D01*
X92600Y-23349D01*
X92591Y-23349D01*
X92582Y-23346D01*
X92573Y-23341D01*
X92566Y-23335D01*
X92559Y-23328D01*
X92555Y-23319D01*
X92552Y-23310D01*
X92551Y-23300D01*
X92551Y-23291D01*
X92554Y-23282D01*
X92558Y-23273D01*
X92565Y-23266D01*
X92572Y-23259D01*
X92580Y-23255D01*
X92590Y-23252D01*
X92599Y-23251D01*
X92608Y-23251D01*
X92618Y-23254D01*
X92626Y-23258D01*
X92634Y-23264D01*
X92640Y-23272D01*
X92645Y-23280D01*
X92648Y-23289D01*
X92649Y-23299D01*
X92650Y-23300D01*
X92900Y-23050D02*
X92899Y-23059D01*
X92896Y-23069D01*
X92891Y-23077D01*
X92885Y-23085D01*
X92877Y-23091D01*
X92869Y-23096D01*
X92860Y-23098D01*
X92850Y-23099D01*
X92841Y-23099D01*
X92832Y-23096D01*
X92823Y-23091D01*
X92816Y-23085D01*
X92809Y-23078D01*
X92805Y-23069D01*
X92802Y-23060D01*
X92801Y-23050D01*
X92801Y-23041D01*
X92804Y-23032D01*
X92808Y-23023D01*
X92815Y-23016D01*
X92822Y-23009D01*
X92830Y-23005D01*
X92840Y-23002D01*
X92849Y-23001D01*
X92858Y-23001D01*
X92868Y-23004D01*
X92876Y-23008D01*
X92884Y-23014D01*
X92890Y-23022D01*
X92895Y-23030D01*
X92898Y-23039D01*
X92899Y-23049D01*
X92900Y-23050D01*
X93150Y-22800D02*
X93149Y-22809D01*
X93146Y-22819D01*
X93141Y-22827D01*
X93135Y-22835D01*
X93127Y-22841D01*
X93119Y-22846D01*
X93110Y-22848D01*
X93100Y-22849D01*
X93091Y-22849D01*
X93082Y-22846D01*
X93073Y-22841D01*
X93066Y-22835D01*
X93059Y-22828D01*
X93055Y-22819D01*
X93052Y-22810D01*
X93051Y-22800D01*
X93051Y-22791D01*
X93054Y-22782D01*
X93058Y-22773D01*
X93065Y-22766D01*
X93072Y-22759D01*
X93080Y-22755D01*
X93090Y-22752D01*
X93099Y-22751D01*
X93108Y-22751D01*
X93118Y-22754D01*
X93126Y-22758D01*
X93134Y-22764D01*
X93140Y-22772D01*
X93145Y-22780D01*
X93148Y-22789D01*
X93149Y-22799D01*
X93150Y-22800D01*
X91900Y-23300D02*
X91899Y-23309D01*
X91896Y-23319D01*
X91891Y-23327D01*
X91885Y-23335D01*
X91877Y-23341D01*
X91869Y-23346D01*
X91860Y-23348D01*
X91850Y-23349D01*
X91841Y-23349D01*
X91832Y-23346D01*
X91823Y-23341D01*
X91816Y-23335D01*
X91809Y-23328D01*
X91805Y-23319D01*
X91802Y-23310D01*
X91801Y-23300D01*
X91801Y-23291D01*
X91804Y-23282D01*
X91808Y-23273D01*
X91815Y-23266D01*
X91822Y-23259D01*
X91830Y-23255D01*
X91840Y-23252D01*
X91849Y-23251D01*
X91858Y-23251D01*
X91868Y-23254D01*
X91876Y-23258D01*
X91884Y-23264D01*
X91890Y-23272D01*
X91895Y-23280D01*
X91898Y-23289D01*
X91899Y-23299D01*
X91900Y-23300D01*
X91650Y-23050D02*
X91649Y-23059D01*
X91646Y-23069D01*
X91641Y-23077D01*
X91635Y-23085D01*
X91627Y-23091D01*
X91619Y-23096D01*
X91610Y-23098D01*
X91600Y-23099D01*
X91591Y-23099D01*
X91582Y-23096D01*
X91573Y-23091D01*
X91566Y-23085D01*
X91559Y-23078D01*
X91555Y-23069D01*
X91552Y-23060D01*
X91551Y-23050D01*
X91551Y-23041D01*
X91554Y-23032D01*
X91558Y-23023D01*
X91565Y-23016D01*
X91572Y-23009D01*
X91580Y-23005D01*
X91590Y-23002D01*
X91599Y-23001D01*
X91608Y-23001D01*
X91618Y-23004D01*
X91626Y-23008D01*
X91634Y-23014D01*
X91640Y-23022D01*
X91645Y-23030D01*
X91648Y-23039D01*
X91649Y-23049D01*
X91650Y-23050D01*
X91400Y-22800D02*
X91399Y-22809D01*
X91396Y-22819D01*
X91391Y-22827D01*
X91385Y-22835D01*
X91377Y-22841D01*
X91369Y-22846D01*
X91360Y-22848D01*
X91350Y-22849D01*
X91341Y-22849D01*
X91332Y-22846D01*
X91323Y-22841D01*
X91316Y-22835D01*
X91309Y-22828D01*
X91305Y-22819D01*
X91302Y-22810D01*
X91301Y-22800D01*
X91301Y-22791D01*
X91304Y-22782D01*
X91308Y-22773D01*
X91315Y-22766D01*
X91322Y-22759D01*
X91330Y-22755D01*
X91340Y-22752D01*
X91349Y-22751D01*
X91358Y-22751D01*
X91368Y-22754D01*
X91376Y-22758D01*
X91384Y-22764D01*
X91390Y-22772D01*
X91395Y-22780D01*
X91398Y-22789D01*
X91399Y-22799D01*
X91400Y-22800D01*
X22900Y-22850D02*
X22899Y-22859D01*
X22896Y-22869D01*
X22891Y-22877D01*
X22885Y-22885D01*
X22877Y-22891D01*
X22869Y-22896D01*
X22860Y-22898D01*
X22850Y-22899D01*
X22841Y-22899D01*
X22832Y-22896D01*
X22823Y-22891D01*
X22816Y-22885D01*
X22809Y-22878D01*
X22805Y-22869D01*
X22802Y-22860D01*
X22801Y-22850D01*
X22801Y-22841D01*
X22804Y-22832D01*
X22808Y-22823D01*
X22815Y-22816D01*
X22822Y-22809D01*
X22830Y-22805D01*
X22840Y-22802D01*
X22849Y-22801D01*
X22858Y-22801D01*
X22868Y-22804D01*
X22876Y-22808D01*
X22884Y-22814D01*
X22890Y-22822D01*
X22895Y-22830D01*
X22898Y-22839D01*
X22899Y-22849D01*
X22900Y-22850D01*
X23150Y-23100D02*
X23149Y-23109D01*
X23146Y-23119D01*
X23141Y-23127D01*
X23135Y-23135D01*
X23127Y-23141D01*
X23119Y-23146D01*
X23110Y-23148D01*
X23100Y-23149D01*
X23091Y-23149D01*
X23082Y-23146D01*
X23073Y-23141D01*
X23066Y-23135D01*
X23059Y-23128D01*
X23055Y-23119D01*
X23052Y-23110D01*
X23051Y-23100D01*
X23051Y-23091D01*
X23054Y-23082D01*
X23058Y-23073D01*
X23065Y-23066D01*
X23072Y-23059D01*
X23080Y-23055D01*
X23090Y-23052D01*
X23099Y-23051D01*
X23108Y-23051D01*
X23118Y-23054D01*
X23126Y-23058D01*
X23134Y-23064D01*
X23140Y-23072D01*
X23145Y-23080D01*
X23148Y-23089D01*
X23149Y-23099D01*
X23150Y-23100D01*
X23400Y-23350D02*
X23399Y-23359D01*
X23396Y-23369D01*
X23391Y-23377D01*
X23385Y-23385D01*
X23377Y-23391D01*
X23369Y-23396D01*
X23360Y-23398D01*
X23350Y-23399D01*
X23341Y-23399D01*
X23332Y-23396D01*
X23323Y-23391D01*
X23316Y-23385D01*
X23309Y-23378D01*
X23305Y-23369D01*
X23302Y-23360D01*
X23301Y-23350D01*
X23301Y-23341D01*
X23304Y-23332D01*
X23308Y-23323D01*
X23315Y-23316D01*
X23322Y-23309D01*
X23330Y-23305D01*
X23340Y-23302D01*
X23349Y-23301D01*
X23358Y-23301D01*
X23368Y-23304D01*
X23376Y-23308D01*
X23384Y-23314D01*
X23390Y-23322D01*
X23395Y-23330D01*
X23398Y-23339D01*
X23399Y-23349D01*
X23400Y-23350D01*
X24650Y-22850D02*
X24649Y-22859D01*
X24646Y-22869D01*
X24641Y-22877D01*
X24635Y-22885D01*
X24627Y-22891D01*
X24619Y-22896D01*
X24610Y-22898D01*
X24600Y-22899D01*
X24591Y-22899D01*
X24582Y-22896D01*
X24573Y-22891D01*
X24566Y-22885D01*
X24559Y-22878D01*
X24555Y-22869D01*
X24552Y-22860D01*
X24551Y-22850D01*
X24551Y-22841D01*
X24554Y-22832D01*
X24558Y-22823D01*
X24565Y-22816D01*
X24572Y-22809D01*
X24580Y-22805D01*
X24590Y-22802D01*
X24599Y-22801D01*
X24608Y-22801D01*
X24618Y-22804D01*
X24626Y-22808D01*
X24634Y-22814D01*
X24640Y-22822D01*
X24645Y-22830D01*
X24648Y-22839D01*
X24649Y-22849D01*
X24650Y-22850D01*
X24400Y-23100D02*
X24399Y-23109D01*
X24396Y-23119D01*
X24391Y-23127D01*
X24385Y-23135D01*
X24377Y-23141D01*
X24369Y-23146D01*
X24360Y-23148D01*
X24350Y-23149D01*
X24341Y-23149D01*
X24332Y-23146D01*
X24323Y-23141D01*
X24316Y-23135D01*
X24309Y-23128D01*
X24305Y-23119D01*
X24302Y-23110D01*
X24301Y-23100D01*
X24301Y-23091D01*
X24304Y-23082D01*
X24308Y-23073D01*
X24315Y-23066D01*
X24322Y-23059D01*
X24330Y-23055D01*
X24340Y-23052D01*
X24349Y-23051D01*
X24358Y-23051D01*
X24368Y-23054D01*
X24376Y-23058D01*
X24384Y-23064D01*
X24390Y-23072D01*
X24395Y-23080D01*
X24398Y-23089D01*
X24399Y-23099D01*
X24400Y-23100D01*
X24150Y-23350D02*
X24149Y-23359D01*
X24146Y-23369D01*
X24141Y-23377D01*
X24135Y-23385D01*
X24127Y-23391D01*
X24119Y-23396D01*
X24110Y-23398D01*
X24100Y-23399D01*
X24091Y-23399D01*
X24082Y-23396D01*
X24073Y-23391D01*
X24066Y-23385D01*
X24059Y-23378D01*
X24055Y-23369D01*
X24052Y-23360D01*
X24051Y-23350D01*
X24051Y-23341D01*
X24054Y-23332D01*
X24058Y-23323D01*
X24065Y-23316D01*
X24072Y-23309D01*
X24080Y-23305D01*
X24090Y-23302D01*
X24099Y-23301D01*
X24108Y-23301D01*
X24118Y-23304D01*
X24126Y-23308D01*
X24134Y-23314D01*
X24140Y-23322D01*
X24145Y-23330D01*
X24148Y-23339D01*
X24149Y-23349D01*
X24150Y-23350D01*
X23900Y-23350D02*
X23899Y-23359D01*
X23896Y-23369D01*
X23891Y-23377D01*
X23885Y-23385D01*
X23877Y-23391D01*
X23869Y-23396D01*
X23860Y-23398D01*
X23850Y-23399D01*
X23841Y-23399D01*
X23832Y-23396D01*
X23823Y-23391D01*
X23816Y-23385D01*
X23809Y-23378D01*
X23805Y-23369D01*
X23802Y-23360D01*
X23801Y-23350D01*
X23801Y-23341D01*
X23804Y-23332D01*
X23808Y-23323D01*
X23815Y-23316D01*
X23822Y-23309D01*
X23830Y-23305D01*
X23840Y-23302D01*
X23849Y-23301D01*
X23858Y-23301D01*
X23868Y-23304D01*
X23876Y-23308D01*
X23884Y-23314D01*
X23890Y-23322D01*
X23895Y-23330D01*
X23898Y-23339D01*
X23899Y-23349D01*
X23900Y-23350D01*
X23650Y-23350D02*
X23649Y-23359D01*
X23646Y-23369D01*
X23641Y-23377D01*
X23635Y-23385D01*
X23627Y-23391D01*
X23619Y-23396D01*
X23610Y-23398D01*
X23600Y-23399D01*
X23591Y-23399D01*
X23582Y-23396D01*
X23573Y-23391D01*
X23566Y-23385D01*
X23559Y-23378D01*
X23555Y-23369D01*
X23552Y-23360D01*
X23551Y-23350D01*
X23551Y-23341D01*
X23554Y-23332D01*
X23558Y-23323D01*
X23565Y-23316D01*
X23572Y-23309D01*
X23580Y-23305D01*
X23590Y-23302D01*
X23599Y-23301D01*
X23608Y-23301D01*
X23618Y-23304D01*
X23626Y-23308D01*
X23634Y-23314D01*
X23640Y-23322D01*
X23645Y-23330D01*
X23648Y-23339D01*
X23649Y-23349D01*
X23650Y-23350D01*
X23900Y-22850D02*
X23899Y-22859D01*
X23896Y-22869D01*
X23891Y-22877D01*
X23885Y-22885D01*
X23877Y-22891D01*
X23869Y-22896D01*
X23860Y-22898D01*
X23850Y-22899D01*
X23841Y-22899D01*
X23832Y-22896D01*
X23823Y-22891D01*
X23816Y-22885D01*
X23809Y-22878D01*
X23805Y-22869D01*
X23802Y-22860D01*
X23801Y-22850D01*
X23801Y-22841D01*
X23804Y-22832D01*
X23808Y-22823D01*
X23815Y-22816D01*
X23822Y-22809D01*
X23830Y-22805D01*
X23840Y-22802D01*
X23849Y-22801D01*
X23858Y-22801D01*
X23868Y-22804D01*
X23876Y-22808D01*
X23884Y-22814D01*
X23890Y-22822D01*
X23895Y-22830D01*
X23898Y-22839D01*
X23899Y-22849D01*
X23900Y-22850D01*
X23650Y-22850D02*
X23649Y-22859D01*
X23646Y-22869D01*
X23641Y-22877D01*
X23635Y-22885D01*
X23627Y-22891D01*
X23619Y-22896D01*
X23610Y-22898D01*
X23600Y-22899D01*
X23591Y-22899D01*
X23582Y-22896D01*
X23573Y-22891D01*
X23566Y-22885D01*
X23559Y-22878D01*
X23555Y-22869D01*
X23552Y-22860D01*
X23551Y-22850D01*
X23551Y-22841D01*
X23554Y-22832D01*
X23558Y-22823D01*
X23565Y-22816D01*
X23572Y-22809D01*
X23580Y-22805D01*
X23590Y-22802D01*
X23599Y-22801D01*
X23608Y-22801D01*
X23618Y-22804D01*
X23626Y-22808D01*
X23634Y-22814D01*
X23640Y-22822D01*
X23645Y-22830D01*
X23648Y-22839D01*
X23649Y-22849D01*
X23650Y-22850D01*
X23900Y-22600D02*
X23899Y-22609D01*
X23896Y-22619D01*
X23891Y-22627D01*
X23885Y-22635D01*
X23877Y-22641D01*
X23869Y-22646D01*
X23860Y-22648D01*
X23850Y-22649D01*
X23841Y-22649D01*
X23832Y-22646D01*
X23823Y-22641D01*
X23816Y-22635D01*
X23809Y-22628D01*
X23805Y-22619D01*
X23802Y-22610D01*
X23801Y-22600D01*
X23801Y-22591D01*
X23804Y-22582D01*
X23808Y-22573D01*
X23815Y-22566D01*
X23822Y-22559D01*
X23830Y-22555D01*
X23840Y-22552D01*
X23849Y-22551D01*
X23858Y-22551D01*
X23868Y-22554D01*
X23876Y-22558D01*
X23884Y-22564D01*
X23890Y-22572D01*
X23895Y-22580D01*
X23898Y-22589D01*
X23899Y-22599D01*
X23900Y-22600D01*
X23650Y-22600D02*
X23649Y-22609D01*
X23646Y-22619D01*
X23641Y-22627D01*
X23635Y-22635D01*
X23627Y-22641D01*
X23619Y-22646D01*
X23610Y-22648D01*
X23600Y-22649D01*
X23591Y-22649D01*
X23582Y-22646D01*
X23573Y-22641D01*
X23566Y-22635D01*
X23559Y-22628D01*
X23555Y-22619D01*
X23552Y-22610D01*
X23551Y-22600D01*
X23551Y-22591D01*
X23554Y-22582D01*
X23558Y-22573D01*
X23565Y-22566D01*
X23572Y-22559D01*
X23580Y-22555D01*
X23590Y-22552D01*
X23599Y-22551D01*
X23608Y-22551D01*
X23618Y-22554D01*
X23626Y-22558D01*
X23634Y-22564D01*
X23640Y-22572D01*
X23645Y-22580D01*
X23648Y-22589D01*
X23649Y-22599D01*
X23650Y-22600D01*
X23400Y-21850D02*
X23399Y-21859D01*
X23396Y-21869D01*
X23391Y-21877D01*
X23385Y-21885D01*
X23377Y-21891D01*
X23369Y-21896D01*
X23360Y-21898D01*
X23350Y-21899D01*
X23341Y-21899D01*
X23332Y-21896D01*
X23323Y-21891D01*
X23316Y-21885D01*
X23309Y-21878D01*
X23305Y-21869D01*
X23302Y-21860D01*
X23301Y-21850D01*
X23301Y-21841D01*
X23304Y-21832D01*
X23308Y-21823D01*
X23315Y-21816D01*
X23322Y-21809D01*
X23330Y-21805D01*
X23340Y-21802D01*
X23349Y-21801D01*
X23358Y-21801D01*
X23368Y-21804D01*
X23376Y-21808D01*
X23384Y-21814D01*
X23390Y-21822D01*
X23395Y-21830D01*
X23398Y-21839D01*
X23399Y-21849D01*
X23400Y-21850D01*
X23150Y-21850D02*
X23149Y-21859D01*
X23146Y-21869D01*
X23141Y-21877D01*
X23135Y-21885D01*
X23127Y-21891D01*
X23119Y-21896D01*
X23110Y-21898D01*
X23100Y-21899D01*
X23091Y-21899D01*
X23082Y-21896D01*
X23073Y-21891D01*
X23066Y-21885D01*
X23059Y-21878D01*
X23055Y-21869D01*
X23052Y-21860D01*
X23051Y-21850D01*
X23051Y-21841D01*
X23054Y-21832D01*
X23058Y-21823D01*
X23065Y-21816D01*
X23072Y-21809D01*
X23080Y-21805D01*
X23090Y-21802D01*
X23099Y-21801D01*
X23108Y-21801D01*
X23118Y-21804D01*
X23126Y-21808D01*
X23134Y-21814D01*
X23140Y-21822D01*
X23145Y-21830D01*
X23148Y-21839D01*
X23149Y-21849D01*
X23150Y-21850D01*
X23150Y-22100D02*
X23149Y-22109D01*
X23146Y-22119D01*
X23141Y-22127D01*
X23135Y-22135D01*
X23127Y-22141D01*
X23119Y-22146D01*
X23110Y-22148D01*
X23100Y-22149D01*
X23091Y-22149D01*
X23082Y-22146D01*
X23073Y-22141D01*
X23066Y-22135D01*
X23059Y-22128D01*
X23055Y-22119D01*
X23052Y-22110D01*
X23051Y-22100D01*
X23051Y-22091D01*
X23054Y-22082D01*
X23058Y-22073D01*
X23065Y-22066D01*
X23072Y-22059D01*
X23080Y-22055D01*
X23090Y-22052D01*
X23099Y-22051D01*
X23108Y-22051D01*
X23118Y-22054D01*
X23126Y-22058D01*
X23134Y-22064D01*
X23140Y-22072D01*
X23145Y-22080D01*
X23148Y-22089D01*
X23149Y-22099D01*
X23150Y-22100D01*
X23400Y-22100D02*
X23399Y-22109D01*
X23396Y-22119D01*
X23391Y-22127D01*
X23385Y-22135D01*
X23377Y-22141D01*
X23369Y-22146D01*
X23360Y-22148D01*
X23350Y-22149D01*
X23341Y-22149D01*
X23332Y-22146D01*
X23323Y-22141D01*
X23316Y-22135D01*
X23309Y-22128D01*
X23305Y-22119D01*
X23302Y-22110D01*
X23301Y-22100D01*
X23301Y-22091D01*
X23304Y-22082D01*
X23308Y-22073D01*
X23315Y-22066D01*
X23322Y-22059D01*
X23330Y-22055D01*
X23340Y-22052D01*
X23349Y-22051D01*
X23358Y-22051D01*
X23368Y-22054D01*
X23376Y-22058D01*
X23384Y-22064D01*
X23390Y-22072D01*
X23395Y-22080D01*
X23398Y-22089D01*
X23399Y-22099D01*
X23400Y-22100D01*
X24400Y-22100D02*
X24399Y-22109D01*
X24396Y-22119D01*
X24391Y-22127D01*
X24385Y-22135D01*
X24377Y-22141D01*
X24369Y-22146D01*
X24360Y-22148D01*
X24350Y-22149D01*
X24341Y-22149D01*
X24332Y-22146D01*
X24323Y-22141D01*
X24316Y-22135D01*
X24309Y-22128D01*
X24305Y-22119D01*
X24302Y-22110D01*
X24301Y-22100D01*
X24301Y-22091D01*
X24304Y-22082D01*
X24308Y-22073D01*
X24315Y-22066D01*
X24322Y-22059D01*
X24330Y-22055D01*
X24340Y-22052D01*
X24349Y-22051D01*
X24358Y-22051D01*
X24368Y-22054D01*
X24376Y-22058D01*
X24384Y-22064D01*
X24390Y-22072D01*
X24395Y-22080D01*
X24398Y-22089D01*
X24399Y-22099D01*
X24400Y-22100D01*
X24150Y-22100D02*
X24149Y-22109D01*
X24146Y-22119D01*
X24141Y-22127D01*
X24135Y-22135D01*
X24127Y-22141D01*
X24119Y-22146D01*
X24110Y-22148D01*
X24100Y-22149D01*
X24091Y-22149D01*
X24082Y-22146D01*
X24073Y-22141D01*
X24066Y-22135D01*
X24059Y-22128D01*
X24055Y-22119D01*
X24052Y-22110D01*
X24051Y-22100D01*
X24051Y-22091D01*
X24054Y-22082D01*
X24058Y-22073D01*
X24065Y-22066D01*
X24072Y-22059D01*
X24080Y-22055D01*
X24090Y-22052D01*
X24099Y-22051D01*
X24108Y-22051D01*
X24118Y-22054D01*
X24126Y-22058D01*
X24134Y-22064D01*
X24140Y-22072D01*
X24145Y-22080D01*
X24148Y-22089D01*
X24149Y-22099D01*
X24150Y-22100D01*
X24400Y-21850D02*
X24399Y-21859D01*
X24396Y-21869D01*
X24391Y-21877D01*
X24385Y-21885D01*
X24377Y-21891D01*
X24369Y-21896D01*
X24360Y-21898D01*
X24350Y-21899D01*
X24341Y-21899D01*
X24332Y-21896D01*
X24323Y-21891D01*
X24316Y-21885D01*
X24309Y-21878D01*
X24305Y-21869D01*
X24302Y-21860D01*
X24301Y-21850D01*
X24301Y-21841D01*
X24304Y-21832D01*
X24308Y-21823D01*
X24315Y-21816D01*
X24322Y-21809D01*
X24330Y-21805D01*
X24340Y-21802D01*
X24349Y-21801D01*
X24358Y-21801D01*
X24368Y-21804D01*
X24376Y-21808D01*
X24384Y-21814D01*
X24390Y-21822D01*
X24395Y-21830D01*
X24398Y-21839D01*
X24399Y-21849D01*
X24400Y-21850D01*
X24150Y-21850D02*
X24149Y-21859D01*
X24146Y-21869D01*
X24141Y-21877D01*
X24135Y-21885D01*
X24127Y-21891D01*
X24119Y-21896D01*
X24110Y-21898D01*
X24100Y-21899D01*
X24091Y-21899D01*
X24082Y-21896D01*
X24073Y-21891D01*
X24066Y-21885D01*
X24059Y-21878D01*
X24055Y-21869D01*
X24052Y-21860D01*
X24051Y-21850D01*
X24051Y-21841D01*
X24054Y-21832D01*
X24058Y-21823D01*
X24065Y-21816D01*
X24072Y-21809D01*
X24080Y-21805D01*
X24090Y-21802D01*
X24099Y-21801D01*
X24108Y-21801D01*
X24118Y-21804D01*
X24126Y-21808D01*
X24134Y-21814D01*
X24140Y-21822D01*
X24145Y-21830D01*
X24148Y-21839D01*
X24149Y-21849D01*
X24150Y-21850D01*
G54D11*
X105626Y-16281D02*
X105602Y-16329D01*
X105602Y-16400D01*
X105626Y-16472D01*
X105674Y-16519D01*
X105721Y-16543D01*
X105817Y-16567D01*
X105888Y-16567D01*
X105983Y-16543D01*
X106031Y-16519D01*
X106079Y-16472D01*
X106102Y-16400D01*
X106102Y-16352D01*
X106079Y-16281D01*
X106055Y-16257D01*
X105888Y-16257D01*
X105888Y-16352D01*
X106102Y-16043D02*
X105602Y-16043D01*
X106102Y-15757D01*
X105602Y-15757D01*
X106102Y-15519D02*
X105602Y-15519D01*
X105602Y-15400D01*
X105626Y-15328D01*
X105674Y-15281D01*
X105721Y-15257D01*
X105817Y-15233D01*
X105888Y-15233D01*
X105983Y-15257D01*
X106031Y-15281D01*
X106079Y-15328D01*
X106102Y-15400D01*
X106102Y-15519D01*
X105602Y-18311D02*
X106102Y-18145D01*
X105602Y-17978D01*
X106102Y-17811D02*
X105769Y-17811D01*
X105602Y-17811D02*
X105626Y-17835D01*
X105650Y-17811D01*
X105626Y-17787D01*
X105602Y-17811D01*
X105650Y-17811D01*
X105769Y-17573D02*
X106102Y-17573D01*
X105817Y-17573D02*
X105793Y-17549D01*
X105769Y-17502D01*
X105769Y-17430D01*
X105793Y-17382D01*
X105840Y-17359D01*
X106102Y-17359D01*
X106055Y-19324D02*
X106079Y-19300D01*
X106102Y-19324D01*
X106079Y-19347D01*
X106055Y-19324D01*
X106102Y-19324D01*
X105626Y-19419D02*
X105602Y-19371D01*
X105602Y-19252D01*
X105626Y-19204D01*
X105674Y-19181D01*
X105721Y-19181D01*
X105769Y-19204D01*
X105793Y-19228D01*
X105817Y-19276D01*
X105840Y-19300D01*
X105888Y-19324D01*
X105912Y-19324D01*
X106079Y-20828D02*
X106102Y-20756D01*
X106102Y-20637D01*
X106079Y-20590D01*
X106055Y-20566D01*
X106007Y-20542D01*
X105960Y-20542D01*
X105912Y-20566D01*
X105888Y-20590D01*
X105864Y-20637D01*
X105840Y-20733D01*
X105817Y-20780D01*
X105793Y-20804D01*
X105745Y-20828D01*
X105698Y-20828D01*
X105650Y-20804D01*
X105626Y-20780D01*
X105602Y-20733D01*
X105602Y-20613D01*
X105626Y-20542D01*
X105602Y-20376D02*
X106102Y-20257D01*
X105745Y-20161D01*
X106102Y-20066D01*
X105602Y-19947D01*
X10179Y-20928D02*
X10202Y-20856D01*
X10202Y-20737D01*
X10179Y-20690D01*
X10155Y-20666D01*
X10107Y-20642D01*
X10060Y-20642D01*
X10012Y-20666D01*
X09988Y-20690D01*
X09964Y-20737D01*
X09940Y-20833D01*
X09917Y-20880D01*
X09893Y-20904D01*
X09845Y-20928D01*
X09798Y-20928D01*
X09750Y-20904D01*
X09726Y-20880D01*
X09702Y-20833D01*
X09702Y-20713D01*
X09726Y-20642D01*
X09702Y-20476D02*
X10202Y-20357D01*
X09845Y-20261D01*
X10202Y-20166D01*
X09702Y-20047D01*
X10155Y-19424D02*
X10179Y-19400D01*
X10202Y-19424D01*
X10179Y-19447D01*
X10155Y-19424D01*
X10202Y-19424D01*
X09726Y-19519D02*
X09702Y-19471D01*
X09702Y-19352D01*
X09726Y-19304D01*
X09774Y-19281D01*
X09821Y-19281D01*
X09869Y-19304D01*
X09893Y-19328D01*
X09917Y-19376D01*
X09940Y-19400D01*
X09988Y-19424D01*
X10012Y-19424D01*
X09702Y-18411D02*
X10202Y-18245D01*
X09702Y-18078D01*
X10202Y-17911D02*
X09869Y-17911D01*
X09702Y-17911D02*
X09726Y-17935D01*
X09750Y-17911D01*
X09726Y-17887D01*
X09702Y-17911D01*
X09750Y-17911D01*
X09869Y-17673D02*
X10202Y-17673D01*
X09917Y-17673D02*
X09893Y-17649D01*
X09869Y-17602D01*
X09869Y-17530D01*
X09893Y-17482D01*
X09940Y-17459D01*
X10202Y-17459D01*
X09726Y-16381D02*
X09702Y-16429D01*
X09702Y-16500D01*
X09726Y-16572D01*
X09774Y-16619D01*
X09821Y-16643D01*
X09917Y-16667D01*
X09988Y-16667D01*
X10083Y-16643D01*
X10131Y-16619D01*
X10179Y-16572D01*
X10202Y-16500D01*
X10202Y-16452D01*
X10179Y-16381D01*
X10155Y-16357D01*
X09988Y-16357D01*
X09988Y-16452D01*
X10202Y-16143D02*
X09702Y-16143D01*
X10202Y-15857D01*
X09702Y-15857D01*
X10202Y-15619D02*
X09702Y-15619D01*
X09702Y-15500D01*
X09726Y-15428D01*
X09774Y-15381D01*
X09821Y-15357D01*
X09917Y-15333D01*
X09988Y-15333D01*
X10083Y-15357D01*
X10131Y-15381D01*
X10179Y-15428D01*
X10202Y-15500D01*
X10202Y-15619D01*
G54D12*
X08000Y-11500D02*
X108000Y-11500D01*
X08000Y-24000D02*
X08000Y-11500D01*
X09000Y-24000D02*
X08000Y-24000D01*
X108000Y-24000D02*
X107000Y-24000D01*
X108000Y-11500D02*
X108000Y-24000D01*
X107000Y-24000D02*
X09000Y-24000D01*
X58700Y-18100D02*
X58700Y-16800D01*
X58700Y-18100D02*
X60000Y-18100D01*
G54D13*
X62000Y-17800D02*
X59000Y-17800D01*
X59000Y-15800D02*
X62000Y-15800D01*
X62000Y-15800D02*
X62000Y-17800D01*
X59000Y-17800D02*
X59000Y-15800D01*
G54D12*
X67900Y-17000D02*
X67898Y-17019D01*
X67892Y-17038D01*
X67883Y-17055D01*
X67870Y-17070D01*
X67855Y-17082D01*
X67838Y-17092D01*
X67820Y-17097D01*
X67800Y-17099D01*
X67782Y-17098D01*
X67763Y-17092D01*
X67746Y-17083D01*
X67731Y-17071D01*
X67718Y-17056D01*
X67709Y-17039D01*
X67703Y-17020D01*
X67701Y-17001D01*
X67702Y-16982D01*
X67708Y-16964D01*
X67716Y-16946D01*
X67729Y-16931D01*
X67743Y-16918D01*
X67760Y-16909D01*
X67779Y-16903D01*
X67798Y-16901D01*
X67817Y-16902D01*
X67836Y-16907D01*
X67853Y-16916D01*
X67868Y-16928D01*
X67881Y-16943D01*
X67891Y-16960D01*
X67897Y-16978D01*
X67899Y-16998D01*
X67900Y-17000D01*
G54D14*
X67996Y-16080D02*
X67803Y-16080D01*
X67803Y-16080D02*
X67803Y-16513D01*
X67996Y-16513D02*
X67803Y-16513D01*
X67996Y-16080D02*
X67996Y-16513D01*
X67496Y-16080D02*
X67303Y-16080D01*
X67303Y-16080D02*
X67303Y-16513D01*
X67496Y-16513D02*
X67303Y-16513D01*
X67496Y-16080D02*
X67496Y-16513D01*
X66996Y-16080D02*
X66803Y-16080D01*
X66803Y-16080D02*
X66803Y-16513D01*
X66996Y-16513D02*
X66803Y-16513D01*
X66996Y-16080D02*
X66996Y-16513D01*
X66496Y-16080D02*
X66304Y-16080D01*
X66304Y-16080D02*
X66304Y-16513D01*
X66496Y-16513D02*
X66304Y-16513D01*
X66496Y-16080D02*
X66496Y-16513D01*
X66496Y-18087D02*
X66304Y-18087D01*
X66304Y-18087D02*
X66304Y-18520D01*
X66496Y-18520D02*
X66304Y-18520D01*
X66496Y-18087D02*
X66496Y-18520D01*
X66996Y-18087D02*
X66803Y-18087D01*
X66803Y-18087D02*
X66803Y-18520D01*
X66996Y-18520D02*
X66803Y-18520D01*
X66996Y-18087D02*
X66996Y-18520D01*
X67496Y-18087D02*
X67303Y-18087D01*
X67303Y-18087D02*
X67303Y-18520D01*
X67496Y-18520D02*
X67303Y-18520D01*
X67496Y-18087D02*
X67496Y-18520D01*
X67996Y-18087D02*
X67803Y-18087D01*
X67803Y-18087D02*
X67803Y-18520D01*
X67996Y-18520D02*
X67803Y-18520D01*
X67996Y-18087D02*
X67996Y-18520D01*
X65997Y-16080D02*
X65804Y-16080D01*
X65804Y-16080D02*
X65804Y-16513D01*
X65997Y-16513D02*
X65804Y-16513D01*
X65997Y-16080D02*
X65997Y-16513D01*
X65497Y-16080D02*
X65304Y-16080D01*
X65304Y-16080D02*
X65304Y-16513D01*
X65497Y-16513D02*
X65304Y-16513D01*
X65497Y-16080D02*
X65497Y-16513D01*
X64997Y-16080D02*
X64804Y-16080D01*
X64804Y-16080D02*
X64804Y-16513D01*
X64997Y-16513D02*
X64804Y-16513D01*
X64997Y-16080D02*
X64997Y-16513D01*
X64997Y-18087D02*
X64804Y-18087D01*
X64804Y-18087D02*
X64804Y-18520D01*
X64997Y-18520D02*
X64804Y-18520D01*
X64997Y-18087D02*
X64997Y-18520D01*
X65497Y-18087D02*
X65304Y-18087D01*
X65304Y-18087D02*
X65304Y-18520D01*
X65497Y-18520D02*
X65304Y-18520D01*
X65497Y-18087D02*
X65497Y-18520D01*
X65997Y-18087D02*
X65804Y-18087D01*
X65804Y-18087D02*
X65804Y-18520D01*
X65997Y-18520D02*
X65804Y-18520D01*
X65997Y-18087D02*
X65997Y-18520D01*
G54D15*
X68327Y-18835D02*
X64473Y-18835D01*
X64473Y-15765D02*
X68327Y-15765D01*
X68327Y-15765D02*
X68327Y-18835D01*
G54D13*
X64706Y-16552D02*
X68094Y-16552D01*
X68094Y-16552D02*
X68094Y-16749D01*
X68094Y-16749D02*
X68094Y-18048D01*
X64706Y-16749D02*
X68094Y-16749D01*
X64706Y-18048D02*
X64706Y-16749D01*
X64706Y-16749D02*
X64706Y-16552D01*
G54D15*
X64473Y-18835D02*
X64473Y-15765D01*
G54D13*
X68094Y-18048D02*
X64706Y-18048D01*
G54D12*
X67452Y-20035D02*
X65452Y-20035D01*
X67452Y-22035D02*
X65452Y-22035D01*
X65452Y-20035D02*
X65365Y-20039D01*
X65279Y-20051D01*
X65194Y-20070D01*
X65110Y-20096D01*
X65030Y-20129D01*
X64953Y-20169D01*
X64879Y-20216D01*
X64810Y-20269D01*
X64745Y-20328D01*
X64686Y-20393D01*
X64633Y-20462D01*
X64586Y-20536D01*
X64546Y-20613D01*
X64513Y-20693D01*
X64487Y-20777D01*
X64468Y-20862D01*
X64456Y-20948D01*
X64452Y-21035D01*
X64452Y-21035D02*
X64456Y-21122D01*
X64468Y-21208D01*
X64487Y-21293D01*
X64513Y-21377D01*
X64546Y-21457D01*
X64586Y-21534D01*
X64633Y-21608D01*
X64686Y-21677D01*
X64745Y-21742D01*
X64810Y-21801D01*
X64879Y-21854D01*
X64953Y-21901D01*
X65030Y-21941D01*
X65110Y-21974D01*
X65194Y-22000D01*
X65279Y-22019D01*
X65365Y-22031D01*
X65452Y-22035D01*
X68452Y-21035D02*
X68448Y-20948D01*
X68436Y-20862D01*
X68417Y-20777D01*
X68391Y-20693D01*
X68358Y-20613D01*
X68318Y-20536D01*
X68271Y-20462D01*
X68218Y-20393D01*
X68159Y-20328D01*
X68094Y-20269D01*
X68025Y-20216D01*
X67952Y-20169D01*
X67874Y-20129D01*
X67794Y-20096D01*
X67710Y-20070D01*
X67625Y-20051D01*
X67539Y-20039D01*
X67452Y-20035D01*
X67452Y-22035D02*
X67539Y-22031D01*
X67625Y-22019D01*
X67710Y-22000D01*
X67794Y-21974D01*
X67874Y-21941D01*
X67952Y-21901D01*
X68025Y-21854D01*
X68094Y-21801D01*
X68159Y-21742D01*
X68218Y-21677D01*
X68271Y-21608D01*
X68318Y-21534D01*
X68358Y-21457D01*
X68391Y-21377D01*
X68417Y-21293D01*
X68436Y-21208D01*
X68448Y-21122D01*
X68452Y-21035D01*
X51238Y-17577D02*
X51236Y-17592D01*
X51231Y-17607D01*
X51224Y-17621D01*
X51214Y-17634D01*
X51202Y-17644D01*
X51188Y-17651D01*
X51173Y-17656D01*
X51157Y-17657D01*
X51142Y-17656D01*
X51127Y-17652D01*
X51113Y-17644D01*
X51101Y-17634D01*
X51091Y-17622D01*
X51083Y-17608D01*
X51078Y-17593D01*
X51077Y-17578D01*
X51078Y-17563D01*
X51082Y-17548D01*
X51089Y-17534D01*
X51099Y-17521D01*
X51111Y-17511D01*
X51125Y-17503D01*
X51140Y-17498D01*
X51156Y-17497D01*
X51171Y-17498D01*
X51186Y-17502D01*
X51200Y-17509D01*
X51212Y-17519D01*
X51223Y-17531D01*
X51230Y-17545D01*
X51235Y-17560D01*
X51237Y-17575D01*
X51238Y-17577D01*
G54D14*
X52357Y-17263D02*
X52357Y-17066D01*
X52357Y-17066D02*
X51747Y-17066D01*
X51747Y-17263D02*
X51747Y-17066D01*
X52357Y-17263D02*
X51747Y-17263D01*
X52357Y-16763D02*
X52357Y-16566D01*
X52357Y-16566D02*
X51747Y-16566D01*
X51747Y-16763D02*
X51747Y-16566D01*
X52357Y-16763D02*
X51747Y-16763D01*
X52357Y-16264D02*
X52357Y-16067D01*
X52357Y-16067D02*
X51747Y-16067D01*
X51747Y-16264D02*
X51747Y-16067D01*
X52357Y-16264D02*
X51747Y-16264D01*
X52357Y-15764D02*
X52357Y-15567D01*
X52357Y-15567D02*
X51747Y-15567D01*
X51747Y-15764D02*
X51747Y-15567D01*
X52357Y-15764D02*
X51747Y-15764D01*
X48795Y-15764D02*
X48795Y-15567D01*
X48795Y-15567D02*
X48185Y-15567D01*
X48185Y-15764D02*
X48185Y-15567D01*
X48795Y-15764D02*
X48185Y-15764D01*
X48795Y-16264D02*
X48795Y-16067D01*
X48795Y-16067D02*
X48185Y-16067D01*
X48185Y-16264D02*
X48185Y-16067D01*
X48795Y-16264D02*
X48185Y-16264D01*
X48795Y-16763D02*
X48795Y-16566D01*
X48795Y-16566D02*
X48185Y-16566D01*
X48185Y-16763D02*
X48185Y-16566D01*
X48795Y-16763D02*
X48185Y-16763D01*
X48795Y-17263D02*
X48795Y-17066D01*
X48795Y-17066D02*
X48185Y-17066D01*
X48185Y-17263D02*
X48185Y-17066D01*
X48795Y-17263D02*
X48185Y-17263D01*
G54D13*
X51727Y-17871D02*
X51727Y-14959D01*
X51727Y-14959D02*
X48815Y-14959D01*
X48815Y-14959D02*
X48815Y-17871D01*
X48815Y-17871D02*
X51727Y-17871D01*
X51452Y-17792D02*
X51452Y-15038D01*
G54D11*
X42917Y-19764D02*
X42917Y-19075D01*
X42917Y-20256D02*
X42917Y-21024D01*
X42917Y-20256D02*
X43193Y-19764D01*
X43193Y-19764D02*
X42661Y-19764D01*
X42661Y-19764D02*
X42917Y-20256D01*
X43193Y-20256D02*
X42661Y-20256D01*
X45909Y-20000D02*
X45872Y-20370D01*
X45764Y-20727D01*
X45590Y-21056D01*
X45354Y-21345D01*
X45067Y-21582D01*
X44739Y-21759D01*
X44383Y-21870D01*
X44013Y-21908D01*
X43643Y-21875D01*
X43285Y-21769D01*
X42955Y-21597D01*
X42665Y-21363D01*
X42425Y-21078D01*
X42246Y-20752D01*
X42133Y-20396D01*
X42092Y-20026D01*
X42123Y-19656D01*
X42226Y-19298D01*
X42396Y-18966D01*
X42627Y-18674D01*
X42911Y-18433D01*
X43236Y-18251D01*
X43591Y-18136D01*
X43961Y-18092D01*
X44331Y-18121D01*
X44690Y-18221D01*
X45022Y-18389D01*
X45316Y-18618D01*
X45559Y-18900D01*
X45743Y-19224D01*
X45861Y-19578D01*
X45908Y-19947D01*
X45909Y-20000D01*
X13583Y-20236D02*
X13583Y-20925D01*
X13583Y-19744D02*
X13583Y-18976D01*
X13583Y-19744D02*
X13307Y-20236D01*
X13307Y-20236D02*
X13839Y-20236D01*
X13839Y-20236D02*
X13583Y-19744D01*
X13307Y-19744D02*
X13839Y-19744D01*
X14409Y-20000D02*
X14372Y-20370D01*
X14264Y-20727D01*
X14090Y-21056D01*
X13854Y-21345D01*
X13567Y-21582D01*
X13239Y-21759D01*
X12883Y-21870D01*
X12513Y-21908D01*
X12143Y-21875D01*
X11785Y-21769D01*
X11455Y-21597D01*
X11165Y-21363D01*
X10925Y-21078D01*
X10746Y-20752D01*
X10633Y-20396D01*
X10592Y-20026D01*
X10623Y-19656D01*
X10726Y-19298D01*
X10896Y-18966D01*
X11127Y-18674D01*
X11411Y-18433D01*
X11736Y-18251D01*
X12091Y-18136D01*
X12461Y-18092D01*
X12831Y-18121D01*
X13190Y-18221D01*
X13522Y-18389D01*
X13816Y-18618D01*
X14059Y-18900D01*
X14243Y-19224D01*
X14361Y-19578D01*
X14408Y-19947D01*
X14409Y-20000D01*
X13583Y-15736D02*
X13583Y-16425D01*
X13583Y-15244D02*
X13583Y-14476D01*
X13583Y-15244D02*
X13307Y-15736D01*
X13307Y-15736D02*
X13839Y-15736D01*
X13839Y-15736D02*
X13583Y-15244D01*
X13307Y-15244D02*
X13839Y-15244D01*
X14409Y-15500D02*
X14372Y-15870D01*
X14264Y-16227D01*
X14090Y-16556D01*
X13854Y-16845D01*
X13567Y-17082D01*
X13239Y-17259D01*
X12883Y-17370D01*
X12513Y-17408D01*
X12143Y-17375D01*
X11785Y-17269D01*
X11455Y-17097D01*
X11165Y-16863D01*
X10925Y-16578D01*
X10746Y-16252D01*
X10633Y-15896D01*
X10592Y-15526D01*
X10623Y-15156D01*
X10726Y-14798D01*
X10896Y-14466D01*
X11127Y-14174D01*
X11411Y-13933D01*
X11736Y-13751D01*
X12091Y-13636D01*
X12461Y-13592D01*
X12831Y-13621D01*
X13190Y-13721D01*
X13522Y-13889D01*
X13816Y-14118D01*
X14059Y-14400D01*
X14243Y-14724D01*
X14361Y-15078D01*
X14408Y-15447D01*
X14409Y-15500D01*
X15917Y-15264D02*
X15917Y-14575D01*
X15917Y-15756D02*
X15917Y-16524D01*
X15917Y-15756D02*
X16193Y-15264D01*
X16193Y-15264D02*
X15661Y-15264D01*
X15661Y-15264D02*
X15917Y-15756D01*
X16193Y-15756D02*
X15661Y-15756D01*
X18909Y-15500D02*
X18872Y-15870D01*
X18764Y-16227D01*
X18590Y-16556D01*
X18354Y-16845D01*
X18067Y-17082D01*
X17739Y-17259D01*
X17383Y-17370D01*
X17013Y-17408D01*
X16643Y-17375D01*
X16285Y-17269D01*
X15955Y-17097D01*
X15665Y-16863D01*
X15425Y-16578D01*
X15246Y-16252D01*
X15133Y-15896D01*
X15092Y-15526D01*
X15123Y-15156D01*
X15226Y-14798D01*
X15396Y-14466D01*
X15627Y-14174D01*
X15911Y-13933D01*
X16236Y-13751D01*
X16591Y-13636D01*
X16961Y-13592D01*
X17331Y-13621D01*
X17690Y-13721D01*
X18022Y-13889D01*
X18316Y-14118D01*
X18559Y-14400D01*
X18743Y-14724D01*
X18861Y-15078D01*
X18908Y-15447D01*
X18909Y-15500D01*
X15917Y-19764D02*
X15917Y-19075D01*
X15917Y-20256D02*
X15917Y-21024D01*
X15917Y-20256D02*
X16193Y-19764D01*
X16193Y-19764D02*
X15661Y-19764D01*
X15661Y-19764D02*
X15917Y-20256D01*
X16193Y-20256D02*
X15661Y-20256D01*
X18909Y-20000D02*
X18872Y-20370D01*
X18764Y-20727D01*
X18590Y-21056D01*
X18354Y-21345D01*
X18067Y-21582D01*
X17739Y-21759D01*
X17383Y-21870D01*
X17013Y-21908D01*
X16643Y-21875D01*
X16285Y-21769D01*
X15955Y-21597D01*
X15665Y-21363D01*
X15425Y-21078D01*
X15246Y-20752D01*
X15133Y-20396D01*
X15092Y-20026D01*
X15123Y-19656D01*
X15226Y-19298D01*
X15396Y-18966D01*
X15627Y-18674D01*
X15911Y-18433D01*
X16236Y-18251D01*
X16591Y-18136D01*
X16961Y-18092D01*
X17331Y-18121D01*
X17690Y-18221D01*
X18022Y-18389D01*
X18316Y-18618D01*
X18559Y-18900D01*
X18743Y-19224D01*
X18861Y-19578D01*
X18908Y-19947D01*
X18909Y-20000D01*
X22583Y-20236D02*
X22583Y-20925D01*
X22583Y-19744D02*
X22583Y-18976D01*
X22583Y-19744D02*
X22307Y-20236D01*
X22307Y-20236D02*
X22839Y-20236D01*
X22839Y-20236D02*
X22583Y-19744D01*
X22307Y-19744D02*
X22839Y-19744D01*
X23409Y-20000D02*
X23372Y-20370D01*
X23264Y-20727D01*
X23090Y-21056D01*
X22854Y-21345D01*
X22567Y-21582D01*
X22239Y-21759D01*
X21883Y-21870D01*
X21513Y-21908D01*
X21143Y-21875D01*
X20785Y-21769D01*
X20455Y-21597D01*
X20165Y-21363D01*
X19925Y-21078D01*
X19746Y-20752D01*
X19633Y-20396D01*
X19592Y-20026D01*
X19623Y-19656D01*
X19726Y-19298D01*
X19896Y-18966D01*
X20127Y-18674D01*
X20411Y-18433D01*
X20736Y-18251D01*
X21091Y-18136D01*
X21461Y-18092D01*
X21831Y-18121D01*
X22190Y-18221D01*
X22522Y-18389D01*
X22816Y-18618D01*
X23059Y-18900D01*
X23243Y-19224D01*
X23361Y-19578D01*
X23408Y-19947D01*
X23409Y-20000D01*
X22583Y-15736D02*
X22583Y-16425D01*
X22583Y-15244D02*
X22583Y-14476D01*
X22583Y-15244D02*
X22307Y-15736D01*
X22307Y-15736D02*
X22839Y-15736D01*
X22839Y-15736D02*
X22583Y-15244D01*
X22307Y-15244D02*
X22839Y-15244D01*
X23409Y-15500D02*
X23372Y-15870D01*
X23264Y-16227D01*
X23090Y-16556D01*
X22854Y-16845D01*
X22567Y-17082D01*
X22239Y-17259D01*
X21883Y-17370D01*
X21513Y-17408D01*
X21143Y-17375D01*
X20785Y-17269D01*
X20455Y-17097D01*
X20165Y-16863D01*
X19925Y-16578D01*
X19746Y-16252D01*
X19633Y-15896D01*
X19592Y-15526D01*
X19623Y-15156D01*
X19726Y-14798D01*
X19896Y-14466D01*
X20127Y-14174D01*
X20411Y-13933D01*
X20736Y-13751D01*
X21091Y-13636D01*
X21461Y-13592D01*
X21831Y-13621D01*
X22190Y-13721D01*
X22522Y-13889D01*
X22816Y-14118D01*
X23059Y-14400D01*
X23243Y-14724D01*
X23361Y-15078D01*
X23408Y-15447D01*
X23409Y-15500D01*
X24917Y-15264D02*
X24917Y-14575D01*
X24917Y-15756D02*
X24917Y-16524D01*
X24917Y-15756D02*
X25193Y-15264D01*
X25193Y-15264D02*
X24661Y-15264D01*
X24661Y-15264D02*
X24917Y-15756D01*
X25193Y-15756D02*
X24661Y-15756D01*
X27909Y-15500D02*
X27872Y-15870D01*
X27764Y-16227D01*
X27590Y-16556D01*
X27354Y-16845D01*
X27067Y-17082D01*
X26739Y-17259D01*
X26383Y-17370D01*
X26013Y-17408D01*
X25643Y-17375D01*
X25285Y-17269D01*
X24955Y-17097D01*
X24665Y-16863D01*
X24425Y-16578D01*
X24246Y-16252D01*
X24133Y-15896D01*
X24092Y-15526D01*
X24123Y-15156D01*
X24226Y-14798D01*
X24396Y-14466D01*
X24627Y-14174D01*
X24911Y-13933D01*
X25236Y-13751D01*
X25591Y-13636D01*
X25961Y-13592D01*
X26331Y-13621D01*
X26690Y-13721D01*
X27022Y-13889D01*
X27316Y-14118D01*
X27559Y-14400D01*
X27743Y-14724D01*
X27861Y-15078D01*
X27908Y-15447D01*
X27909Y-15500D01*
X24917Y-19764D02*
X24917Y-19075D01*
X24917Y-20256D02*
X24917Y-21024D01*
X24917Y-20256D02*
X25193Y-19764D01*
X25193Y-19764D02*
X24661Y-19764D01*
X24661Y-19764D02*
X24917Y-20256D01*
X25193Y-20256D02*
X24661Y-20256D01*
X27909Y-20000D02*
X27872Y-20370D01*
X27764Y-20727D01*
X27590Y-21056D01*
X27354Y-21345D01*
X27067Y-21582D01*
X26739Y-21759D01*
X26383Y-21870D01*
X26013Y-21908D01*
X25643Y-21875D01*
X25285Y-21769D01*
X24955Y-21597D01*
X24665Y-21363D01*
X24425Y-21078D01*
X24246Y-20752D01*
X24133Y-20396D01*
X24092Y-20026D01*
X24123Y-19656D01*
X24226Y-19298D01*
X24396Y-18966D01*
X24627Y-18674D01*
X24911Y-18433D01*
X25236Y-18251D01*
X25591Y-18136D01*
X25961Y-18092D01*
X26331Y-18121D01*
X26690Y-18221D01*
X27022Y-18389D01*
X27316Y-18618D01*
X27559Y-18900D01*
X27743Y-19224D01*
X27861Y-19578D01*
X27908Y-19947D01*
X27909Y-20000D01*
X31583Y-20236D02*
X31583Y-20925D01*
X31583Y-19744D02*
X31583Y-18976D01*
X31583Y-19744D02*
X31307Y-20236D01*
X31307Y-20236D02*
X31839Y-20236D01*
X31839Y-20236D02*
X31583Y-19744D01*
X31307Y-19744D02*
X31839Y-19744D01*
X32409Y-20000D02*
X32372Y-20370D01*
X32264Y-20727D01*
X32090Y-21056D01*
X31854Y-21345D01*
X31567Y-21582D01*
X31239Y-21759D01*
X30883Y-21870D01*
X30513Y-21908D01*
X30143Y-21875D01*
X29785Y-21769D01*
X29455Y-21597D01*
X29165Y-21363D01*
X28925Y-21078D01*
X28746Y-20752D01*
X28633Y-20396D01*
X28592Y-20026D01*
X28623Y-19656D01*
X28726Y-19298D01*
X28896Y-18966D01*
X29127Y-18674D01*
X29411Y-18433D01*
X29736Y-18251D01*
X30091Y-18136D01*
X30461Y-18092D01*
X30831Y-18121D01*
X31190Y-18221D01*
X31522Y-18389D01*
X31816Y-18618D01*
X32059Y-18900D01*
X32243Y-19224D01*
X32361Y-19578D01*
X32408Y-19947D01*
X32409Y-20000D01*
X31583Y-15736D02*
X31583Y-16425D01*
X31583Y-15244D02*
X31583Y-14476D01*
X31583Y-15244D02*
X31307Y-15736D01*
X31307Y-15736D02*
X31839Y-15736D01*
X31839Y-15736D02*
X31583Y-15244D01*
X31307Y-15244D02*
X31839Y-15244D01*
X32409Y-15500D02*
X32372Y-15870D01*
X32264Y-16227D01*
X32090Y-16556D01*
X31854Y-16845D01*
X31567Y-17082D01*
X31239Y-17259D01*
X30883Y-17370D01*
X30513Y-17408D01*
X30143Y-17375D01*
X29785Y-17269D01*
X29455Y-17097D01*
X29165Y-16863D01*
X28925Y-16578D01*
X28746Y-16252D01*
X28633Y-15896D01*
X28592Y-15526D01*
X28623Y-15156D01*
X28726Y-14798D01*
X28896Y-14466D01*
X29127Y-14174D01*
X29411Y-13933D01*
X29736Y-13751D01*
X30091Y-13636D01*
X30461Y-13592D01*
X30831Y-13621D01*
X31190Y-13721D01*
X31522Y-13889D01*
X31816Y-14118D01*
X32059Y-14400D01*
X32243Y-14724D01*
X32361Y-15078D01*
X32408Y-15447D01*
X32409Y-15500D01*
X33917Y-15264D02*
X33917Y-14575D01*
X33917Y-15756D02*
X33917Y-16524D01*
X33917Y-15756D02*
X34193Y-15264D01*
X34193Y-15264D02*
X33661Y-15264D01*
X33661Y-15264D02*
X33917Y-15756D01*
X34193Y-15756D02*
X33661Y-15756D01*
X36909Y-15500D02*
X36872Y-15870D01*
X36764Y-16227D01*
X36590Y-16556D01*
X36354Y-16845D01*
X36067Y-17082D01*
X35739Y-17259D01*
X35383Y-17370D01*
X35013Y-17408D01*
X34643Y-17375D01*
X34285Y-17269D01*
X33955Y-17097D01*
X33665Y-16863D01*
X33425Y-16578D01*
X33246Y-16252D01*
X33133Y-15896D01*
X33092Y-15526D01*
X33123Y-15156D01*
X33226Y-14798D01*
X33396Y-14466D01*
X33627Y-14174D01*
X33911Y-13933D01*
X34236Y-13751D01*
X34591Y-13636D01*
X34961Y-13592D01*
X35331Y-13621D01*
X35690Y-13721D01*
X36022Y-13889D01*
X36316Y-14118D01*
X36559Y-14400D01*
X36743Y-14724D01*
X36861Y-15078D01*
X36908Y-15447D01*
X36909Y-15500D01*
X33917Y-19764D02*
X33917Y-19075D01*
X33917Y-20256D02*
X33917Y-21024D01*
X33917Y-20256D02*
X34193Y-19764D01*
X34193Y-19764D02*
X33661Y-19764D01*
X33661Y-19764D02*
X33917Y-20256D01*
X34193Y-20256D02*
X33661Y-20256D01*
X36909Y-20000D02*
X36872Y-20370D01*
X36764Y-20727D01*
X36590Y-21056D01*
X36354Y-21345D01*
X36067Y-21582D01*
X35739Y-21759D01*
X35383Y-21870D01*
X35013Y-21908D01*
X34643Y-21875D01*
X34285Y-21769D01*
X33955Y-21597D01*
X33665Y-21363D01*
X33425Y-21078D01*
X33246Y-20752D01*
X33133Y-20396D01*
X33092Y-20026D01*
X33123Y-19656D01*
X33226Y-19298D01*
X33396Y-18966D01*
X33627Y-18674D01*
X33911Y-18433D01*
X34236Y-18251D01*
X34591Y-18136D01*
X34961Y-18092D01*
X35331Y-18121D01*
X35690Y-18221D01*
X36022Y-18389D01*
X36316Y-18618D01*
X36559Y-18900D01*
X36743Y-19224D01*
X36861Y-19578D01*
X36908Y-19947D01*
X36909Y-20000D01*
X40583Y-20236D02*
X40583Y-20925D01*
X40583Y-19744D02*
X40583Y-18976D01*
X40583Y-19744D02*
X40307Y-20236D01*
X40307Y-20236D02*
X40839Y-20236D01*
X40839Y-20236D02*
X40583Y-19744D01*
X40307Y-19744D02*
X40839Y-19744D01*
X41409Y-20000D02*
X41372Y-20370D01*
X41264Y-20727D01*
X41090Y-21056D01*
X40854Y-21345D01*
X40567Y-21582D01*
X40239Y-21759D01*
X39883Y-21870D01*
X39513Y-21908D01*
X39143Y-21875D01*
X38785Y-21769D01*
X38455Y-21597D01*
X38165Y-21363D01*
X37925Y-21078D01*
X37746Y-20752D01*
X37633Y-20396D01*
X37592Y-20026D01*
X37623Y-19656D01*
X37726Y-19298D01*
X37896Y-18966D01*
X38127Y-18674D01*
X38411Y-18433D01*
X38736Y-18251D01*
X39091Y-18136D01*
X39461Y-18092D01*
X39831Y-18121D01*
X40190Y-18221D01*
X40522Y-18389D01*
X40816Y-18618D01*
X41059Y-18900D01*
X41243Y-19224D01*
X41361Y-19578D01*
X41408Y-19947D01*
X41409Y-20000D01*
X40583Y-15736D02*
X40583Y-16425D01*
X40583Y-15244D02*
X40583Y-14476D01*
X40583Y-15244D02*
X40307Y-15736D01*
X40307Y-15736D02*
X40839Y-15736D01*
X40839Y-15736D02*
X40583Y-15244D01*
X40307Y-15244D02*
X40839Y-15244D01*
X41409Y-15500D02*
X41372Y-15870D01*
X41264Y-16227D01*
X41090Y-16556D01*
X40854Y-16845D01*
X40567Y-17082D01*
X40239Y-17259D01*
X39883Y-17370D01*
X39513Y-17408D01*
X39143Y-17375D01*
X38785Y-17269D01*
X38455Y-17097D01*
X38165Y-16863D01*
X37925Y-16578D01*
X37746Y-16252D01*
X37633Y-15896D01*
X37592Y-15526D01*
X37623Y-15156D01*
X37726Y-14798D01*
X37896Y-14466D01*
X38127Y-14174D01*
X38411Y-13933D01*
X38736Y-13751D01*
X39091Y-13636D01*
X39461Y-13592D01*
X39831Y-13621D01*
X40190Y-13721D01*
X40522Y-13889D01*
X40816Y-14118D01*
X41059Y-14400D01*
X41243Y-14724D01*
X41361Y-15078D01*
X41408Y-15447D01*
X41409Y-15500D01*
X42917Y-15264D02*
X42917Y-14575D01*
X42917Y-15756D02*
X42917Y-16524D01*
X42917Y-15756D02*
X43193Y-15264D01*
X43193Y-15264D02*
X42661Y-15264D01*
X42661Y-15264D02*
X42917Y-15756D01*
X43193Y-15756D02*
X42661Y-15756D01*
X45909Y-15500D02*
X45872Y-15870D01*
X45764Y-16227D01*
X45590Y-16556D01*
X45354Y-16845D01*
X45067Y-17082D01*
X44739Y-17259D01*
X44383Y-17370D01*
X44013Y-17408D01*
X43643Y-17375D01*
X43285Y-17269D01*
X42955Y-17097D01*
X42665Y-16863D01*
X42425Y-16578D01*
X42246Y-16252D01*
X42133Y-15896D01*
X42092Y-15526D01*
X42123Y-15156D01*
X42226Y-14798D01*
X42396Y-14466D01*
X42627Y-14174D01*
X42911Y-13933D01*
X43236Y-13751D01*
X43591Y-13636D01*
X43961Y-13592D01*
X44331Y-13621D01*
X44690Y-13721D01*
X45022Y-13889D01*
X45316Y-14118D01*
X45559Y-14400D01*
X45743Y-14724D01*
X45861Y-15078D01*
X45908Y-15447D01*
X45909Y-15500D01*
G54D14*
X51275Y-13240D02*
X51275Y-12985D01*
X51275Y-12985D02*
X50724Y-12985D01*
X50724Y-13240D02*
X50724Y-12985D01*
X51275Y-13240D02*
X50724Y-13240D01*
X51275Y-13820D02*
X51275Y-13564D01*
X51275Y-13564D02*
X50724Y-13564D01*
X50724Y-13820D02*
X50724Y-13564D01*
X51275Y-13820D02*
X50724Y-13820D01*
X51196Y-13478D02*
X51196Y-13322D01*
X51196Y-13322D02*
X50804Y-13322D01*
X50804Y-13478D02*
X50804Y-13322D01*
X51196Y-13478D02*
X50804Y-13478D01*
G54D10*
X50750Y-13561D02*
X50750Y-13239D01*
X51250Y-13561D02*
X51250Y-13239D01*
G54D16*
X50613Y-14176D02*
X50613Y-12624D01*
X50613Y-12624D02*
X51387Y-12624D01*
X51387Y-12624D02*
X51387Y-14176D01*
X51387Y-14176D02*
X50613Y-14176D01*
G54D14*
X51825Y-13560D02*
X51825Y-13815D01*
X51825Y-13815D02*
X52376Y-13815D01*
X52376Y-13560D02*
X52376Y-13815D01*
X51825Y-13560D02*
X52376Y-13560D01*
X51825Y-12980D02*
X51825Y-13236D01*
X51825Y-13236D02*
X52376Y-13236D01*
X52376Y-12980D02*
X52376Y-13236D01*
X51825Y-12980D02*
X52376Y-12980D01*
X51904Y-13322D02*
X51904Y-13478D01*
X51904Y-13478D02*
X52296Y-13478D01*
X52296Y-13322D02*
X52296Y-13478D01*
X51904Y-13322D02*
X52296Y-13322D01*
G54D10*
X52350Y-13239D02*
X52350Y-13561D01*
X51850Y-13239D02*
X51850Y-13561D01*
G54D16*
X52487Y-12624D02*
X52487Y-14176D01*
X52487Y-14176D02*
X51713Y-14176D01*
X51713Y-14176D02*
X51713Y-12624D01*
X51713Y-12624D02*
X52487Y-12624D01*
G54D14*
X52925Y-13560D02*
X52925Y-13815D01*
X52925Y-13815D02*
X53476Y-13815D01*
X53476Y-13560D02*
X53476Y-13815D01*
X52925Y-13560D02*
X53476Y-13560D01*
X52925Y-12980D02*
X52925Y-13236D01*
X52925Y-13236D02*
X53476Y-13236D01*
X53476Y-12980D02*
X53476Y-13236D01*
X52925Y-12980D02*
X53476Y-12980D01*
X53004Y-13322D02*
X53004Y-13478D01*
X53004Y-13478D02*
X53396Y-13478D01*
X53396Y-13322D02*
X53396Y-13478D01*
X53004Y-13322D02*
X53396Y-13322D01*
G54D10*
X53450Y-13239D02*
X53450Y-13561D01*
X52950Y-13239D02*
X52950Y-13561D01*
G54D16*
X53587Y-12624D02*
X53587Y-14176D01*
X53587Y-14176D02*
X52813Y-14176D01*
X52813Y-14176D02*
X52813Y-12624D01*
X52813Y-12624D02*
X53587Y-12624D01*
G54D14*
X54575Y-13240D02*
X54575Y-12985D01*
X54575Y-12985D02*
X54024Y-12985D01*
X54024Y-13240D02*
X54024Y-12985D01*
X54575Y-13240D02*
X54024Y-13240D01*
X54575Y-13820D02*
X54575Y-13564D01*
X54575Y-13564D02*
X54024Y-13564D01*
X54024Y-13820D02*
X54024Y-13564D01*
X54575Y-13820D02*
X54024Y-13820D01*
X54496Y-13478D02*
X54496Y-13322D01*
X54496Y-13322D02*
X54104Y-13322D01*
X54104Y-13478D02*
X54104Y-13322D01*
X54496Y-13478D02*
X54104Y-13478D01*
G54D10*
X54050Y-13561D02*
X54050Y-13239D01*
X54550Y-13561D02*
X54550Y-13239D01*
G54D16*
X53913Y-14176D02*
X53913Y-12624D01*
X53913Y-12624D02*
X54687Y-12624D01*
X54687Y-12624D02*
X54687Y-14176D01*
X54687Y-14176D02*
X53913Y-14176D01*
G54D14*
X50175Y-13240D02*
X50175Y-12985D01*
X50175Y-12985D02*
X49624Y-12985D01*
X49624Y-13240D02*
X49624Y-12985D01*
X50175Y-13240D02*
X49624Y-13240D01*
X50175Y-13820D02*
X50175Y-13564D01*
X50175Y-13564D02*
X49624Y-13564D01*
X49624Y-13820D02*
X49624Y-13564D01*
X50175Y-13820D02*
X49624Y-13820D01*
X50096Y-13478D02*
X50096Y-13322D01*
X50096Y-13322D02*
X49704Y-13322D01*
X49704Y-13478D02*
X49704Y-13322D01*
X50096Y-13478D02*
X49704Y-13478D01*
G54D10*
X49650Y-13561D02*
X49650Y-13239D01*
X50150Y-13561D02*
X50150Y-13239D01*
G54D16*
X49513Y-14176D02*
X49513Y-12624D01*
X49513Y-12624D02*
X50287Y-12624D01*
X50287Y-12624D02*
X50287Y-14176D01*
X50287Y-14176D02*
X49513Y-14176D01*
G54D14*
X48525Y-13560D02*
X48525Y-13815D01*
X48525Y-13815D02*
X49076Y-13815D01*
X49076Y-13560D02*
X49076Y-13815D01*
X48525Y-13560D02*
X49076Y-13560D01*
X48525Y-12980D02*
X48525Y-13236D01*
X48525Y-13236D02*
X49076Y-13236D01*
X49076Y-12980D02*
X49076Y-13236D01*
X48525Y-12980D02*
X49076Y-12980D01*
X48604Y-13322D02*
X48604Y-13478D01*
X48604Y-13478D02*
X48996Y-13478D01*
X48996Y-13322D02*
X48996Y-13478D01*
X48604Y-13322D02*
X48996Y-13322D01*
G54D10*
X49050Y-13239D02*
X49050Y-13561D01*
X48550Y-13239D02*
X48550Y-13561D01*
G54D16*
X49187Y-12624D02*
X49187Y-14176D01*
X49187Y-14176D02*
X48413Y-14176D01*
X48413Y-14176D02*
X48413Y-12624D01*
X48413Y-12624D02*
X49187Y-12624D01*
G54D14*
X46325Y-13560D02*
X46325Y-13815D01*
X46325Y-13815D02*
X46876Y-13815D01*
X46876Y-13560D02*
X46876Y-13815D01*
X46325Y-13560D02*
X46876Y-13560D01*
X46325Y-12980D02*
X46325Y-13236D01*
X46325Y-13236D02*
X46876Y-13236D01*
X46876Y-12980D02*
X46876Y-13236D01*
X46325Y-12980D02*
X46876Y-12980D01*
X46404Y-13322D02*
X46404Y-13478D01*
X46404Y-13478D02*
X46796Y-13478D01*
X46796Y-13322D02*
X46796Y-13478D01*
X46404Y-13322D02*
X46796Y-13322D01*
G54D10*
X46850Y-13239D02*
X46850Y-13561D01*
X46350Y-13239D02*
X46350Y-13561D01*
G54D16*
X46987Y-12624D02*
X46987Y-14176D01*
X46987Y-14176D02*
X46213Y-14176D01*
X46213Y-14176D02*
X46213Y-12624D01*
X46213Y-12624D02*
X46987Y-12624D01*
G54D14*
X47975Y-13240D02*
X47975Y-12985D01*
X47975Y-12985D02*
X47424Y-12985D01*
X47424Y-13240D02*
X47424Y-12985D01*
X47975Y-13240D02*
X47424Y-13240D01*
X47975Y-13820D02*
X47975Y-13564D01*
X47975Y-13564D02*
X47424Y-13564D01*
X47424Y-13820D02*
X47424Y-13564D01*
X47975Y-13820D02*
X47424Y-13820D01*
X47896Y-13478D02*
X47896Y-13322D01*
X47896Y-13322D02*
X47504Y-13322D01*
X47504Y-13478D02*
X47504Y-13322D01*
X47896Y-13478D02*
X47504Y-13478D01*
G54D10*
X47450Y-13561D02*
X47450Y-13239D01*
X47950Y-13561D02*
X47950Y-13239D01*
G54D16*
X47313Y-14176D02*
X47313Y-12624D01*
X47313Y-12624D02*
X48087Y-12624D01*
X48087Y-12624D02*
X48087Y-14176D01*
X48087Y-14176D02*
X47313Y-14176D01*
G54D14*
X67040Y-13325D02*
X66785Y-13325D01*
X66785Y-13325D02*
X66785Y-13876D01*
X67040Y-13876D02*
X66785Y-13876D01*
X67040Y-13325D02*
X67040Y-13876D01*
X67620Y-13325D02*
X67364Y-13325D01*
X67364Y-13325D02*
X67364Y-13876D01*
X67620Y-13876D02*
X67364Y-13876D01*
X67620Y-13325D02*
X67620Y-13876D01*
X67278Y-13404D02*
X67122Y-13404D01*
X67122Y-13404D02*
X67122Y-13796D01*
X67278Y-13796D02*
X67122Y-13796D01*
X67278Y-13404D02*
X67278Y-13796D01*
G54D10*
X67361Y-13850D02*
X67039Y-13850D01*
X67361Y-13350D02*
X67039Y-13350D01*
G54D16*
X67976Y-13987D02*
X66424Y-13987D01*
X66424Y-13987D02*
X66424Y-13213D01*
X66424Y-13213D02*
X67976Y-13213D01*
X67976Y-13213D02*
X67976Y-13987D01*
G54D12*
X65160Y-13025D02*
X65160Y-13875D01*
X63125Y-14625D02*
X64825Y-14625D01*
X62800Y-13025D02*
X62800Y-13875D01*
X63125Y-12275D02*
X64825Y-12275D01*
X64650Y-13475D02*
X64637Y-13601D01*
X64600Y-13722D01*
X64541Y-13834D01*
X64461Y-13933D01*
X64363Y-14013D01*
X64251Y-14074D01*
X64130Y-14111D01*
X64004Y-14124D01*
X63879Y-14113D01*
X63757Y-14077D01*
X63645Y-14018D01*
X63546Y-13939D01*
X63464Y-13842D01*
X63403Y-13731D01*
X63365Y-13610D01*
X63351Y-13484D01*
X63361Y-13358D01*
X63396Y-13236D01*
X63454Y-13123D01*
X63533Y-13024D01*
X63630Y-12942D01*
X63740Y-12880D01*
X63861Y-12841D01*
X63987Y-12826D01*
X64112Y-12835D01*
X64235Y-12869D01*
X64348Y-12927D01*
X64448Y-13005D01*
X64531Y-13101D01*
X64593Y-13211D01*
X64633Y-13331D01*
X64649Y-13457D01*
X64650Y-13475D01*
X61660Y-13025D02*
X61660Y-13875D01*
X59625Y-14625D02*
X61325Y-14625D01*
X59300Y-13025D02*
X59300Y-13875D01*
X59625Y-12275D02*
X61325Y-12275D01*
X61150Y-13475D02*
X61137Y-13601D01*
X61100Y-13722D01*
X61041Y-13834D01*
X60961Y-13933D01*
X60863Y-14013D01*
X60751Y-14074D01*
X60630Y-14111D01*
X60504Y-14124D01*
X60379Y-14113D01*
X60257Y-14077D01*
X60145Y-14018D01*
X60046Y-13939D01*
X59964Y-13842D01*
X59903Y-13731D01*
X59865Y-13610D01*
X59851Y-13484D01*
X59861Y-13358D01*
X59896Y-13236D01*
X59954Y-13123D01*
X60033Y-13024D01*
X60130Y-12942D01*
X60240Y-12880D01*
X60361Y-12841D01*
X60487Y-12826D01*
X60612Y-12835D01*
X60735Y-12869D01*
X60848Y-12927D01*
X60948Y-13005D01*
X61031Y-13101D01*
X61093Y-13211D01*
X61133Y-13331D01*
X61149Y-13457D01*
X61150Y-13475D01*
X58160Y-13025D02*
X58160Y-13875D01*
X56125Y-14625D02*
X57825Y-14625D01*
X55800Y-13025D02*
X55800Y-13875D01*
X56125Y-12275D02*
X57825Y-12275D01*
X57650Y-13475D02*
X57637Y-13601D01*
X57600Y-13722D01*
X57541Y-13834D01*
X57461Y-13933D01*
X57363Y-14013D01*
X57251Y-14074D01*
X57130Y-14111D01*
X57004Y-14124D01*
X56879Y-14113D01*
X56757Y-14077D01*
X56645Y-14018D01*
X56546Y-13939D01*
X56464Y-13842D01*
X56403Y-13731D01*
X56365Y-13610D01*
X56351Y-13484D01*
X56361Y-13358D01*
X56396Y-13236D01*
X56454Y-13123D01*
X56533Y-13024D01*
X56630Y-12942D01*
X56740Y-12880D01*
X56861Y-12841D01*
X56987Y-12826D01*
X57112Y-12835D01*
X57235Y-12869D01*
X57348Y-12927D01*
X57448Y-13005D01*
X57531Y-13101D01*
X57593Y-13211D01*
X57633Y-13331D01*
X57649Y-13457D01*
X57650Y-13475D01*
G54D14*
X56925Y-16511D02*
X56925Y-16766D01*
X56925Y-16766D02*
X57476Y-16766D01*
X57476Y-16511D02*
X57476Y-16766D01*
X56925Y-16511D02*
X57476Y-16511D01*
X56925Y-15931D02*
X56925Y-16187D01*
X56925Y-16187D02*
X57476Y-16187D01*
X57476Y-15931D02*
X57476Y-16187D01*
X56925Y-15931D02*
X57476Y-15931D01*
X57004Y-16273D02*
X57004Y-16429D01*
X57004Y-16429D02*
X57396Y-16429D01*
X57396Y-16273D02*
X57396Y-16429D01*
X57004Y-16273D02*
X57396Y-16273D01*
G54D10*
X57450Y-16190D02*
X57450Y-16512D01*
X56950Y-16190D02*
X56950Y-16512D01*
G54D16*
X57587Y-15575D02*
X57587Y-17127D01*
X57587Y-17127D02*
X56813Y-17127D01*
X56813Y-17127D02*
X56813Y-15575D01*
X56813Y-15575D02*
X57587Y-15575D01*
G54D11*
X102417Y-19764D02*
X102417Y-19075D01*
X102417Y-20256D02*
X102417Y-21024D01*
X102417Y-20256D02*
X102693Y-19764D01*
X102693Y-19764D02*
X102161Y-19764D01*
X102161Y-19764D02*
X102417Y-20256D01*
X102693Y-20256D02*
X102161Y-20256D01*
X105409Y-20000D02*
X105372Y-20370D01*
X105264Y-20727D01*
X105090Y-21056D01*
X104854Y-21345D01*
X104567Y-21582D01*
X104239Y-21759D01*
X103883Y-21870D01*
X103513Y-21908D01*
X103143Y-21875D01*
X102785Y-21769D01*
X102455Y-21597D01*
X102165Y-21363D01*
X101925Y-21078D01*
X101746Y-20752D01*
X101633Y-20396D01*
X101592Y-20026D01*
X101623Y-19656D01*
X101726Y-19298D01*
X101896Y-18966D01*
X102127Y-18674D01*
X102411Y-18433D01*
X102736Y-18251D01*
X103091Y-18136D01*
X103461Y-18092D01*
X103831Y-18121D01*
X104190Y-18221D01*
X104522Y-18389D01*
X104816Y-18618D01*
X105059Y-18900D01*
X105243Y-19224D01*
X105361Y-19578D01*
X105408Y-19947D01*
X105409Y-20000D01*
X102417Y-15264D02*
X102417Y-14575D01*
X102417Y-15756D02*
X102417Y-16524D01*
X102417Y-15756D02*
X102693Y-15264D01*
X102693Y-15264D02*
X102161Y-15264D01*
X102161Y-15264D02*
X102417Y-15756D01*
X102693Y-15756D02*
X102161Y-15756D01*
X105409Y-15500D02*
X105372Y-15870D01*
X105264Y-16227D01*
X105090Y-16556D01*
X104854Y-16845D01*
X104567Y-17082D01*
X104239Y-17259D01*
X103883Y-17370D01*
X103513Y-17408D01*
X103143Y-17375D01*
X102785Y-17269D01*
X102455Y-17097D01*
X102165Y-16863D01*
X101925Y-16578D01*
X101746Y-16252D01*
X101633Y-15896D01*
X101592Y-15526D01*
X101623Y-15156D01*
X101726Y-14798D01*
X101896Y-14466D01*
X102127Y-14174D01*
X102411Y-13933D01*
X102736Y-13751D01*
X103091Y-13636D01*
X103461Y-13592D01*
X103831Y-13621D01*
X104190Y-13721D01*
X104522Y-13889D01*
X104816Y-14118D01*
X105059Y-14400D01*
X105243Y-14724D01*
X105361Y-15078D01*
X105408Y-15447D01*
X105409Y-15500D01*
X100083Y-15736D02*
X100083Y-16425D01*
X100083Y-15244D02*
X100083Y-14476D01*
X100083Y-15244D02*
X99807Y-15736D01*
X99807Y-15736D02*
X100339Y-15736D01*
X100339Y-15736D02*
X100083Y-15244D01*
X99807Y-15244D02*
X100339Y-15244D01*
X100909Y-15500D02*
X100872Y-15870D01*
X100764Y-16227D01*
X100590Y-16556D01*
X100354Y-16845D01*
X100067Y-17082D01*
X99739Y-17259D01*
X99383Y-17370D01*
X99013Y-17408D01*
X98643Y-17375D01*
X98285Y-17269D01*
X97955Y-17097D01*
X97665Y-16863D01*
X97425Y-16578D01*
X97246Y-16252D01*
X97133Y-15896D01*
X97092Y-15526D01*
X97123Y-15156D01*
X97226Y-14798D01*
X97396Y-14466D01*
X97627Y-14174D01*
X97911Y-13933D01*
X98236Y-13751D01*
X98591Y-13636D01*
X98961Y-13592D01*
X99331Y-13621D01*
X99690Y-13721D01*
X100022Y-13889D01*
X100316Y-14118D01*
X100559Y-14400D01*
X100743Y-14724D01*
X100861Y-15078D01*
X100908Y-15447D01*
X100909Y-15500D01*
X100083Y-20236D02*
X100083Y-20925D01*
X100083Y-19744D02*
X100083Y-18976D01*
X100083Y-19744D02*
X99807Y-20236D01*
X99807Y-20236D02*
X100339Y-20236D01*
X100339Y-20236D02*
X100083Y-19744D01*
X99807Y-19744D02*
X100339Y-19744D01*
X100909Y-20000D02*
X100872Y-20370D01*
X100764Y-20727D01*
X100590Y-21056D01*
X100354Y-21345D01*
X100067Y-21582D01*
X99739Y-21759D01*
X99383Y-21870D01*
X99013Y-21908D01*
X98643Y-21875D01*
X98285Y-21769D01*
X97955Y-21597D01*
X97665Y-21363D01*
X97425Y-21078D01*
X97246Y-20752D01*
X97133Y-20396D01*
X97092Y-20026D01*
X97123Y-19656D01*
X97226Y-19298D01*
X97396Y-18966D01*
X97627Y-18674D01*
X97911Y-18433D01*
X98236Y-18251D01*
X98591Y-18136D01*
X98961Y-18092D01*
X99331Y-18121D01*
X99690Y-18221D01*
X100022Y-18389D01*
X100316Y-18618D01*
X100559Y-18900D01*
X100743Y-19224D01*
X100861Y-19578D01*
X100908Y-19947D01*
X100909Y-20000D01*
X93417Y-19764D02*
X93417Y-19075D01*
X93417Y-20256D02*
X93417Y-21024D01*
X93417Y-20256D02*
X93693Y-19764D01*
X93693Y-19764D02*
X93161Y-19764D01*
X93161Y-19764D02*
X93417Y-20256D01*
X93693Y-20256D02*
X93161Y-20256D01*
X96409Y-20000D02*
X96372Y-20370D01*
X96264Y-20727D01*
X96090Y-21056D01*
X95854Y-21345D01*
X95567Y-21582D01*
X95239Y-21759D01*
X94883Y-21870D01*
X94513Y-21908D01*
X94143Y-21875D01*
X93785Y-21769D01*
X93455Y-21597D01*
X93165Y-21363D01*
X92925Y-21078D01*
X92746Y-20752D01*
X92633Y-20396D01*
X92592Y-20026D01*
X92623Y-19656D01*
X92726Y-19298D01*
X92896Y-18966D01*
X93127Y-18674D01*
X93411Y-18433D01*
X93736Y-18251D01*
X94091Y-18136D01*
X94461Y-18092D01*
X94831Y-18121D01*
X95190Y-18221D01*
X95522Y-18389D01*
X95816Y-18618D01*
X96059Y-18900D01*
X96243Y-19224D01*
X96361Y-19578D01*
X96408Y-19947D01*
X96409Y-20000D01*
X93417Y-15264D02*
X93417Y-14575D01*
X93417Y-15756D02*
X93417Y-16524D01*
X93417Y-15756D02*
X93693Y-15264D01*
X93693Y-15264D02*
X93161Y-15264D01*
X93161Y-15264D02*
X93417Y-15756D01*
X93693Y-15756D02*
X93161Y-15756D01*
X96409Y-15500D02*
X96372Y-15870D01*
X96264Y-16227D01*
X96090Y-16556D01*
X95854Y-16845D01*
X95567Y-17082D01*
X95239Y-17259D01*
X94883Y-17370D01*
X94513Y-17408D01*
X94143Y-17375D01*
X93785Y-17269D01*
X93455Y-17097D01*
X93165Y-16863D01*
X92925Y-16578D01*
X92746Y-16252D01*
X92633Y-15896D01*
X92592Y-15526D01*
X92623Y-15156D01*
X92726Y-14798D01*
X92896Y-14466D01*
X93127Y-14174D01*
X93411Y-13933D01*
X93736Y-13751D01*
X94091Y-13636D01*
X94461Y-13592D01*
X94831Y-13621D01*
X95190Y-13721D01*
X95522Y-13889D01*
X95816Y-14118D01*
X96059Y-14400D01*
X96243Y-14724D01*
X96361Y-15078D01*
X96408Y-15447D01*
X96409Y-15500D01*
X91083Y-15736D02*
X91083Y-16425D01*
X91083Y-15244D02*
X91083Y-14476D01*
X91083Y-15244D02*
X90807Y-15736D01*
X90807Y-15736D02*
X91339Y-15736D01*
X91339Y-15736D02*
X91083Y-15244D01*
X90807Y-15244D02*
X91339Y-15244D01*
X91909Y-15500D02*
X91872Y-15870D01*
X91764Y-16227D01*
X91590Y-16556D01*
X91354Y-16845D01*
X91067Y-17082D01*
X90739Y-17259D01*
X90383Y-17370D01*
X90013Y-17408D01*
X89643Y-17375D01*
X89285Y-17269D01*
X88955Y-17097D01*
X88665Y-16863D01*
X88425Y-16578D01*
X88246Y-16252D01*
X88133Y-15896D01*
X88092Y-15526D01*
X88123Y-15156D01*
X88226Y-14798D01*
X88396Y-14466D01*
X88627Y-14174D01*
X88911Y-13933D01*
X89236Y-13751D01*
X89591Y-13636D01*
X89961Y-13592D01*
X90331Y-13621D01*
X90690Y-13721D01*
X91022Y-13889D01*
X91316Y-14118D01*
X91559Y-14400D01*
X91743Y-14724D01*
X91861Y-15078D01*
X91908Y-15447D01*
X91909Y-15500D01*
X91083Y-20236D02*
X91083Y-20925D01*
X91083Y-19744D02*
X91083Y-18976D01*
X91083Y-19744D02*
X90807Y-20236D01*
X90807Y-20236D02*
X91339Y-20236D01*
X91339Y-20236D02*
X91083Y-19744D01*
X90807Y-19744D02*
X91339Y-19744D01*
X91909Y-20000D02*
X91872Y-20370D01*
X91764Y-20727D01*
X91590Y-21056D01*
X91354Y-21345D01*
X91067Y-21582D01*
X90739Y-21759D01*
X90383Y-21870D01*
X90013Y-21908D01*
X89643Y-21875D01*
X89285Y-21769D01*
X88955Y-21597D01*
X88665Y-21363D01*
X88425Y-21078D01*
X88246Y-20752D01*
X88133Y-20396D01*
X88092Y-20026D01*
X88123Y-19656D01*
X88226Y-19298D01*
X88396Y-18966D01*
X88627Y-18674D01*
X88911Y-18433D01*
X89236Y-18251D01*
X89591Y-18136D01*
X89961Y-18092D01*
X90331Y-18121D01*
X90690Y-18221D01*
X91022Y-18389D01*
X91316Y-18618D01*
X91559Y-18900D01*
X91743Y-19224D01*
X91861Y-19578D01*
X91908Y-19947D01*
X91909Y-20000D01*
X84417Y-19764D02*
X84417Y-19075D01*
X84417Y-20256D02*
X84417Y-21024D01*
X84417Y-20256D02*
X84693Y-19764D01*
X84693Y-19764D02*
X84161Y-19764D01*
X84161Y-19764D02*
X84417Y-20256D01*
X84693Y-20256D02*
X84161Y-20256D01*
X87409Y-20000D02*
X87372Y-20370D01*
X87264Y-20727D01*
X87090Y-21056D01*
X86854Y-21345D01*
X86567Y-21582D01*
X86239Y-21759D01*
X85883Y-21870D01*
X85513Y-21908D01*
X85143Y-21875D01*
X84785Y-21769D01*
X84455Y-21597D01*
X84165Y-21363D01*
X83925Y-21078D01*
X83746Y-20752D01*
X83633Y-20396D01*
X83592Y-20026D01*
X83623Y-19656D01*
X83726Y-19298D01*
X83896Y-18966D01*
X84127Y-18674D01*
X84411Y-18433D01*
X84736Y-18251D01*
X85091Y-18136D01*
X85461Y-18092D01*
X85831Y-18121D01*
X86190Y-18221D01*
X86522Y-18389D01*
X86816Y-18618D01*
X87059Y-18900D01*
X87243Y-19224D01*
X87361Y-19578D01*
X87408Y-19947D01*
X87409Y-20000D01*
X84417Y-15264D02*
X84417Y-14575D01*
X84417Y-15756D02*
X84417Y-16524D01*
X84417Y-15756D02*
X84693Y-15264D01*
X84693Y-15264D02*
X84161Y-15264D01*
X84161Y-15264D02*
X84417Y-15756D01*
X84693Y-15756D02*
X84161Y-15756D01*
X87409Y-15500D02*
X87372Y-15870D01*
X87264Y-16227D01*
X87090Y-16556D01*
X86854Y-16845D01*
X86567Y-17082D01*
X86239Y-17259D01*
X85883Y-17370D01*
X85513Y-17408D01*
X85143Y-17375D01*
X84785Y-17269D01*
X84455Y-17097D01*
X84165Y-16863D01*
X83925Y-16578D01*
X83746Y-16252D01*
X83633Y-15896D01*
X83592Y-15526D01*
X83623Y-15156D01*
X83726Y-14798D01*
X83896Y-14466D01*
X84127Y-14174D01*
X84411Y-13933D01*
X84736Y-13751D01*
X85091Y-13636D01*
X85461Y-13592D01*
X85831Y-13621D01*
X86190Y-13721D01*
X86522Y-13889D01*
X86816Y-14118D01*
X87059Y-14400D01*
X87243Y-14724D01*
X87361Y-15078D01*
X87408Y-15447D01*
X87409Y-15500D01*
X82083Y-15736D02*
X82083Y-16425D01*
X82083Y-15244D02*
X82083Y-14476D01*
X82083Y-15244D02*
X81807Y-15736D01*
X81807Y-15736D02*
X82339Y-15736D01*
X82339Y-15736D02*
X82083Y-15244D01*
X81807Y-15244D02*
X82339Y-15244D01*
X82909Y-15500D02*
X82872Y-15870D01*
X82764Y-16227D01*
X82590Y-16556D01*
X82354Y-16845D01*
X82067Y-17082D01*
X81739Y-17259D01*
X81383Y-17370D01*
X81013Y-17408D01*
X80643Y-17375D01*
X80285Y-17269D01*
X79955Y-17097D01*
X79665Y-16863D01*
X79425Y-16578D01*
X79246Y-16252D01*
X79133Y-15896D01*
X79092Y-15526D01*
X79123Y-15156D01*
X79226Y-14798D01*
X79396Y-14466D01*
X79627Y-14174D01*
X79911Y-13933D01*
X80236Y-13751D01*
X80591Y-13636D01*
X80961Y-13592D01*
X81331Y-13621D01*
X81690Y-13721D01*
X82022Y-13889D01*
X82316Y-14118D01*
X82559Y-14400D01*
X82743Y-14724D01*
X82861Y-15078D01*
X82908Y-15447D01*
X82909Y-15500D01*
X82083Y-20236D02*
X82083Y-20925D01*
X82083Y-19744D02*
X82083Y-18976D01*
X82083Y-19744D02*
X81807Y-20236D01*
X81807Y-20236D02*
X82339Y-20236D01*
X82339Y-20236D02*
X82083Y-19744D01*
X81807Y-19744D02*
X82339Y-19744D01*
X82909Y-20000D02*
X82872Y-20370D01*
X82764Y-20727D01*
X82590Y-21056D01*
X82354Y-21345D01*
X82067Y-21582D01*
X81739Y-21759D01*
X81383Y-21870D01*
X81013Y-21908D01*
X80643Y-21875D01*
X80285Y-21769D01*
X79955Y-21597D01*
X79665Y-21363D01*
X79425Y-21078D01*
X79246Y-20752D01*
X79133Y-20396D01*
X79092Y-20026D01*
X79123Y-19656D01*
X79226Y-19298D01*
X79396Y-18966D01*
X79627Y-18674D01*
X79911Y-18433D01*
X80236Y-18251D01*
X80591Y-18136D01*
X80961Y-18092D01*
X81331Y-18121D01*
X81690Y-18221D01*
X82022Y-18389D01*
X82316Y-18618D01*
X82559Y-18900D01*
X82743Y-19224D01*
X82861Y-19578D01*
X82908Y-19947D01*
X82909Y-20000D01*
X75417Y-19764D02*
X75417Y-19075D01*
X75417Y-20256D02*
X75417Y-21024D01*
X75417Y-20256D02*
X75693Y-19764D01*
X75693Y-19764D02*
X75161Y-19764D01*
X75161Y-19764D02*
X75417Y-20256D01*
X75693Y-20256D02*
X75161Y-20256D01*
X78409Y-20000D02*
X78372Y-20370D01*
X78264Y-20727D01*
X78090Y-21056D01*
X77854Y-21345D01*
X77567Y-21582D01*
X77239Y-21759D01*
X76883Y-21870D01*
X76513Y-21908D01*
X76143Y-21875D01*
X75785Y-21769D01*
X75455Y-21597D01*
X75165Y-21363D01*
X74925Y-21078D01*
X74746Y-20752D01*
X74633Y-20396D01*
X74592Y-20026D01*
X74623Y-19656D01*
X74726Y-19298D01*
X74896Y-18966D01*
X75127Y-18674D01*
X75411Y-18433D01*
X75736Y-18251D01*
X76091Y-18136D01*
X76461Y-18092D01*
X76831Y-18121D01*
X77190Y-18221D01*
X77522Y-18389D01*
X77816Y-18618D01*
X78059Y-18900D01*
X78243Y-19224D01*
X78361Y-19578D01*
X78408Y-19947D01*
X78409Y-20000D01*
X75417Y-15264D02*
X75417Y-14575D01*
X75417Y-15756D02*
X75417Y-16524D01*
X75417Y-15756D02*
X75693Y-15264D01*
X75693Y-15264D02*
X75161Y-15264D01*
X75161Y-15264D02*
X75417Y-15756D01*
X75693Y-15756D02*
X75161Y-15756D01*
X78409Y-15500D02*
X78372Y-15870D01*
X78264Y-16227D01*
X78090Y-16556D01*
X77854Y-16845D01*
X77567Y-17082D01*
X77239Y-17259D01*
X76883Y-17370D01*
X76513Y-17408D01*
X76143Y-17375D01*
X75785Y-17269D01*
X75455Y-17097D01*
X75165Y-16863D01*
X74925Y-16578D01*
X74746Y-16252D01*
X74633Y-15896D01*
X74592Y-15526D01*
X74623Y-15156D01*
X74726Y-14798D01*
X74896Y-14466D01*
X75127Y-14174D01*
X75411Y-13933D01*
X75736Y-13751D01*
X76091Y-13636D01*
X76461Y-13592D01*
X76831Y-13621D01*
X77190Y-13721D01*
X77522Y-13889D01*
X77816Y-14118D01*
X78059Y-14400D01*
X78243Y-14724D01*
X78361Y-15078D01*
X78408Y-15447D01*
X78409Y-15500D01*
X73083Y-15736D02*
X73083Y-16425D01*
X73083Y-15244D02*
X73083Y-14476D01*
X73083Y-15244D02*
X72807Y-15736D01*
X72807Y-15736D02*
X73339Y-15736D01*
X73339Y-15736D02*
X73083Y-15244D01*
X72807Y-15244D02*
X73339Y-15244D01*
X73909Y-15500D02*
X73872Y-15870D01*
X73764Y-16227D01*
X73590Y-16556D01*
X73354Y-16845D01*
X73067Y-17082D01*
X72739Y-17259D01*
X72383Y-17370D01*
X72013Y-17408D01*
X71643Y-17375D01*
X71285Y-17269D01*
X70955Y-17097D01*
X70665Y-16863D01*
X70425Y-16578D01*
X70246Y-16252D01*
X70133Y-15896D01*
X70092Y-15526D01*
X70123Y-15156D01*
X70226Y-14798D01*
X70396Y-14466D01*
X70627Y-14174D01*
X70911Y-13933D01*
X71236Y-13751D01*
X71591Y-13636D01*
X71961Y-13592D01*
X72331Y-13621D01*
X72690Y-13721D01*
X73022Y-13889D01*
X73316Y-14118D01*
X73559Y-14400D01*
X73743Y-14724D01*
X73861Y-15078D01*
X73908Y-15447D01*
X73909Y-15500D01*
X73083Y-20236D02*
X73083Y-20925D01*
X73083Y-19744D02*
X73083Y-18976D01*
X73083Y-19744D02*
X72807Y-20236D01*
X72807Y-20236D02*
X73339Y-20236D01*
X73339Y-20236D02*
X73083Y-19744D01*
X72807Y-19744D02*
X73339Y-19744D01*
X73909Y-20000D02*
X73872Y-20370D01*
X73764Y-20727D01*
X73590Y-21056D01*
X73354Y-21345D01*
X73067Y-21582D01*
X72739Y-21759D01*
X72383Y-21870D01*
X72013Y-21908D01*
X71643Y-21875D01*
X71285Y-21769D01*
X70955Y-21597D01*
X70665Y-21363D01*
X70425Y-21078D01*
X70246Y-20752D01*
X70133Y-20396D01*
X70092Y-20026D01*
X70123Y-19656D01*
X70226Y-19298D01*
X70396Y-18966D01*
X70627Y-18674D01*
X70911Y-18433D01*
X71236Y-18251D01*
X71591Y-18136D01*
X71961Y-18092D01*
X72331Y-18121D01*
X72690Y-18221D01*
X73022Y-18389D01*
X73316Y-18618D01*
X73559Y-18900D01*
X73743Y-19224D01*
X73861Y-19578D01*
X73908Y-19947D01*
X73909Y-20000D01*
X56285Y-16521D02*
X56265Y-16715D01*
X56209Y-16902D01*
X56117Y-17074D01*
X55994Y-17225D01*
X55844Y-17350D01*
X55672Y-17442D01*
X55486Y-17500D01*
X55291Y-17520D01*
X55098Y-17503D01*
X54911Y-17448D01*
X54738Y-17357D01*
X54586Y-17235D01*
X54460Y-17085D01*
X54366Y-16914D01*
X54307Y-16728D01*
X54286Y-16534D01*
X54302Y-16341D01*
X54356Y-16153D01*
X54445Y-15980D01*
X54566Y-15827D01*
X54715Y-15700D01*
X54885Y-15605D01*
X55071Y-15545D01*
X55265Y-15522D01*
X55458Y-15537D01*
X55646Y-15589D01*
X55820Y-15677D01*
X55974Y-15797D01*
X56102Y-15945D01*
X56198Y-16115D01*
X56260Y-16300D01*
X56284Y-16494D01*
X56285Y-16521D01*
X55535Y-17521D02*
X55535Y-17271D01*
X55535Y-17271D02*
X55035Y-17271D01*
X55035Y-17271D02*
X55035Y-17521D01*
G54D14*
X63015Y-19071D02*
X63015Y-19366D01*
X63015Y-19366D02*
X63585Y-19366D01*
X63585Y-19071D02*
X63585Y-19366D01*
X63015Y-19071D02*
X63585Y-19071D01*
X63015Y-19640D02*
X63015Y-19935D01*
X63015Y-19935D02*
X63585Y-19935D01*
X63585Y-19640D02*
X63585Y-19935D01*
X63015Y-19640D02*
X63585Y-19640D01*
X63143Y-19461D02*
X63143Y-19539D01*
X63143Y-19539D02*
X63457Y-19539D01*
X63457Y-19461D02*
X63457Y-19539D01*
X63143Y-19461D02*
X63457Y-19461D01*
G54D16*
X63687Y-18724D02*
X63687Y-20276D01*
X62913Y-20276D02*
X62913Y-18724D01*
X62913Y-18724D02*
X63687Y-18724D01*
G54D17*
X63559Y-19350D02*
X63559Y-19650D01*
X63041Y-19360D02*
X63041Y-19650D01*
G54D16*
X63687Y-20276D02*
X62913Y-20276D01*
G54D14*
X63585Y-17729D02*
X63585Y-17434D01*
X63585Y-17434D02*
X63015Y-17434D01*
X63015Y-17729D02*
X63015Y-17434D01*
X63585Y-17729D02*
X63015Y-17729D01*
X63585Y-17160D02*
X63585Y-16865D01*
X63585Y-16865D02*
X63015Y-16865D01*
X63015Y-17160D02*
X63015Y-16865D01*
X63585Y-17160D02*
X63015Y-17160D01*
X63457Y-17339D02*
X63457Y-17261D01*
X63457Y-17261D02*
X63143Y-17261D01*
X63143Y-17339D02*
X63143Y-17261D01*
X63457Y-17339D02*
X63143Y-17339D01*
G54D16*
X62913Y-18076D02*
X62913Y-16524D01*
X63687Y-16524D02*
X63687Y-18076D01*
X63687Y-18076D02*
X62913Y-18076D01*
G54D17*
X63041Y-17450D02*
X63041Y-17150D01*
X63559Y-17440D02*
X63559Y-17150D01*
G54D16*
X62913Y-16524D02*
X63687Y-16524D01*
G54D14*
X53812Y-17058D02*
X53812Y-16762D01*
X53812Y-16762D02*
X53143Y-16762D01*
X53143Y-17058D02*
X53143Y-16762D01*
X53812Y-17058D02*
X53143Y-17058D01*
X53811Y-16014D02*
X53811Y-15718D01*
X53811Y-15718D02*
X53142Y-15718D01*
X53142Y-16014D02*
X53142Y-15718D01*
X53811Y-16014D02*
X53142Y-16014D01*
X53634Y-16466D02*
X53634Y-16310D01*
X53634Y-16310D02*
X53320Y-16310D01*
X53320Y-16466D02*
X53320Y-16310D01*
X53634Y-16466D02*
X53320Y-16466D01*
G54D16*
X53090Y-17361D02*
X53090Y-15415D01*
X53864Y-15415D02*
X53864Y-17361D01*
X53864Y-17361D02*
X53090Y-17361D01*
X53090Y-15415D02*
X53864Y-15415D01*
G54D17*
X53168Y-16767D02*
X53168Y-16009D01*
X53786Y-16767D02*
X53786Y-16009D01*
G54D14*
X46735Y-17670D02*
X46735Y-17374D01*
X46735Y-17374D02*
X46066Y-17374D01*
X46066Y-17670D02*
X46066Y-17374D01*
X46735Y-17670D02*
X46066Y-17670D01*
X46734Y-16626D02*
X46734Y-16330D01*
X46734Y-16330D02*
X46065Y-16330D01*
X46065Y-16626D02*
X46065Y-16330D01*
X46734Y-16626D02*
X46065Y-16626D01*
X46557Y-17078D02*
X46557Y-16922D01*
X46557Y-16922D02*
X46243Y-16922D01*
X46243Y-17078D02*
X46243Y-16922D01*
X46557Y-17078D02*
X46243Y-17078D01*
G54D16*
X46013Y-17973D02*
X46013Y-16027D01*
X46787Y-16027D02*
X46787Y-17973D01*
X46787Y-17973D02*
X46013Y-17973D01*
X46013Y-16027D02*
X46787Y-16027D01*
G54D17*
X46091Y-17379D02*
X46091Y-16621D01*
X46709Y-17379D02*
X46709Y-16621D01*
G54D14*
X55830Y-20135D02*
X56126Y-20135D01*
X56126Y-20135D02*
X56126Y-19466D01*
X55830Y-19466D02*
X56126Y-19466D01*
X55830Y-20135D02*
X55830Y-19466D01*
X56874Y-20134D02*
X57170Y-20134D01*
X57170Y-20134D02*
X57170Y-19465D01*
X56874Y-19465D02*
X57170Y-19465D01*
X56874Y-20134D02*
X56874Y-19465D01*
X56422Y-19957D02*
X56578Y-19957D01*
X56578Y-19957D02*
X56578Y-19643D01*
X56422Y-19643D02*
X56578Y-19643D01*
X56422Y-19957D02*
X56422Y-19643D01*
G54D16*
X55527Y-19413D02*
X57473Y-19413D01*
X57473Y-20187D02*
X55527Y-20187D01*
X55527Y-20187D02*
X55527Y-19413D01*
X57473Y-19413D02*
X57473Y-20187D01*
G54D17*
X56121Y-19491D02*
X56879Y-19491D01*
X56121Y-20109D02*
X56879Y-20109D01*
G54D14*
X68965Y-16530D02*
X68965Y-16826D01*
X68965Y-16826D02*
X69634Y-16826D01*
X69634Y-16530D02*
X69634Y-16826D01*
X68965Y-16530D02*
X69634Y-16530D01*
X68966Y-17574D02*
X68966Y-17870D01*
X68966Y-17870D02*
X69635Y-17870D01*
X69635Y-17574D02*
X69635Y-17870D01*
X68966Y-17574D02*
X69635Y-17574D01*
X69143Y-17122D02*
X69143Y-17278D01*
X69143Y-17278D02*
X69457Y-17278D01*
X69457Y-17122D02*
X69457Y-17278D01*
X69143Y-17122D02*
X69457Y-17122D01*
G54D16*
X69687Y-16227D02*
X69687Y-18173D01*
X68913Y-18173D02*
X68913Y-16227D01*
X68913Y-16227D02*
X69687Y-16227D01*
X69687Y-18173D02*
X68913Y-18173D01*
G54D17*
X69609Y-16821D02*
X69609Y-17579D01*
X68991Y-16821D02*
X68991Y-17579D01*
G54D11*
X53495Y-22220D02*
X48995Y-22220D01*
X48995Y-22220D02*
X47995Y-21220D01*
X47995Y-21220D02*
X47995Y-20220D01*
X47995Y-20220D02*
X48995Y-19220D01*
X48995Y-19220D02*
X53495Y-19220D01*
X53495Y-19220D02*
X53495Y-22220D01*
X50195Y-22220D02*
X49745Y-22220D01*
X49845Y-19220D02*
X50195Y-19220D01*
X51495Y-20920D02*
X48545Y-20920D01*
X51495Y-20520D02*
X48545Y-20520D01*
X51515Y-20720D02*
X51486Y-21015D01*
X51400Y-21299D01*
X51261Y-21561D01*
X51073Y-21791D01*
X50844Y-21980D01*
X50584Y-22121D01*
X50300Y-22208D01*
X50005Y-22239D01*
X49711Y-22213D01*
X49426Y-22129D01*
X49163Y-21991D01*
X48932Y-21805D01*
X48741Y-21578D01*
X48598Y-21318D01*
X48509Y-21036D01*
X48476Y-20741D01*
X48500Y-20446D01*
X48582Y-20161D01*
X48718Y-19897D01*
X48902Y-19665D01*
X49128Y-19472D01*
X49387Y-19328D01*
X49669Y-19236D01*
X49964Y-19201D01*
X50258Y-19224D01*
X50544Y-19303D01*
X50809Y-19437D01*
X51043Y-19620D01*
X51237Y-19844D01*
X51383Y-20102D01*
X51477Y-20384D01*
X51514Y-20678D01*
X51515Y-20720D01*
G54D12*
X60150Y-19400D02*
X60500Y-19400D01*
X60150Y-19400D02*
X60500Y-19250D01*
X60500Y-19250D02*
X60500Y-19550D01*
X60500Y-19550D02*
X60150Y-19400D01*
X59280Y-19154D02*
X59280Y-19347D01*
X59280Y-19347D02*
X59713Y-19347D01*
X59713Y-19154D02*
X59713Y-19347D01*
X59280Y-19154D02*
X59713Y-19154D01*
X59280Y-19654D02*
X59280Y-19847D01*
X59280Y-19847D02*
X59713Y-19847D01*
X59713Y-19654D02*
X59713Y-19847D01*
X59280Y-19654D02*
X59713Y-19654D01*
X59280Y-20154D02*
X59280Y-20347D01*
X59280Y-20347D02*
X59713Y-20347D01*
X59713Y-20154D02*
X59713Y-20347D01*
X59280Y-20154D02*
X59713Y-20154D01*
X59280Y-20654D02*
X59280Y-20847D01*
X59280Y-20847D02*
X59713Y-20847D01*
X59713Y-20654D02*
X59713Y-20847D01*
X59280Y-20654D02*
X59713Y-20654D01*
X61287Y-21653D02*
X61287Y-21846D01*
X61287Y-21846D02*
X61720Y-21846D01*
X61720Y-21653D02*
X61720Y-21846D01*
X61287Y-21653D02*
X61720Y-21653D01*
X61287Y-21153D02*
X61287Y-21346D01*
X61287Y-21346D02*
X61720Y-21346D01*
X61720Y-21153D02*
X61720Y-21346D01*
X61287Y-21153D02*
X61720Y-21153D01*
X61287Y-20654D02*
X61287Y-20847D01*
X61287Y-20847D02*
X61720Y-20847D01*
X61720Y-20654D02*
X61720Y-20847D01*
X61287Y-20654D02*
X61720Y-20654D01*
X61287Y-20154D02*
X61287Y-20347D01*
X61287Y-20347D02*
X61720Y-20347D01*
X61720Y-20154D02*
X61720Y-20347D01*
X61287Y-20154D02*
X61720Y-20154D01*
X59280Y-21153D02*
X59280Y-21346D01*
X59280Y-21346D02*
X59713Y-21346D01*
X59713Y-21153D02*
X59713Y-21346D01*
X59280Y-21153D02*
X59713Y-21153D01*
X59280Y-21653D02*
X59280Y-21846D01*
X59280Y-21846D02*
X59713Y-21846D01*
X59713Y-21653D02*
X59713Y-21846D01*
X59280Y-21653D02*
X59713Y-21653D01*
X59280Y-22153D02*
X59280Y-22346D01*
X59280Y-22346D02*
X59713Y-22346D01*
X59713Y-22153D02*
X59713Y-22346D01*
X59280Y-22153D02*
X59713Y-22153D01*
X59280Y-22653D02*
X59280Y-22846D01*
X59280Y-22846D02*
X59713Y-22846D01*
X59713Y-22653D02*
X59713Y-22846D01*
X59280Y-22653D02*
X59713Y-22653D01*
X61287Y-22653D02*
X61287Y-22846D01*
X61287Y-22846D02*
X61720Y-22846D01*
X61720Y-22653D02*
X61720Y-22846D01*
X61287Y-22653D02*
X61720Y-22653D01*
X61287Y-22153D02*
X61287Y-22346D01*
X61287Y-22346D02*
X61720Y-22346D01*
X61720Y-22153D02*
X61720Y-22346D01*
X61287Y-22153D02*
X61720Y-22153D01*
X61287Y-19654D02*
X61287Y-19847D01*
X61287Y-19847D02*
X61720Y-19847D01*
X61720Y-19654D02*
X61720Y-19847D01*
X61287Y-19654D02*
X61720Y-19654D01*
X61287Y-19154D02*
X61287Y-19347D01*
X61287Y-19347D02*
X61720Y-19347D01*
X61720Y-19154D02*
X61720Y-19347D01*
X61287Y-19154D02*
X61720Y-19154D01*
X62035Y-18876D02*
X62035Y-23124D01*
X58965Y-23124D02*
X58965Y-18876D01*
X58965Y-18876D02*
X62035Y-18876D01*
X59752Y-22944D02*
X59752Y-19056D01*
X59752Y-19056D02*
X59949Y-19056D01*
X59949Y-19056D02*
X61248Y-19056D01*
X61248Y-19056D02*
X61248Y-22944D01*
X59949Y-22944D02*
X59949Y-19056D01*
X61248Y-22944D02*
X59949Y-22944D01*
X59949Y-22944D02*
X59752Y-22944D01*
X62035Y-23124D02*
X58965Y-23124D01*
G54D11*
X09500Y-21000D02*
X08500Y-21000D01*
X08500Y-21000D02*
X08500Y-15000D01*
X08500Y-15000D02*
X09500Y-15000D01*
X09500Y-15000D02*
X09500Y-21000D01*
X09500Y-20000D02*
X08500Y-20000D01*
X107500Y-21000D02*
X106500Y-21000D01*
X106500Y-21000D02*
X106500Y-15000D01*
X106500Y-15000D02*
X107500Y-15000D01*
X107500Y-15000D02*
X107500Y-21000D01*
X107500Y-20000D02*
X106500Y-20000D01*
G54D12*
X107400Y-22500D02*
X107382Y-22674D01*
X107332Y-22842D01*
X107249Y-22998D01*
X107138Y-23134D01*
X107003Y-23246D01*
X106848Y-23329D01*
X106680Y-23381D01*
X106506Y-23399D01*
X106332Y-23384D01*
X106163Y-23334D01*
X106008Y-23253D01*
X105871Y-23143D01*
X105758Y-23008D01*
X105673Y-22854D01*
X105620Y-22687D01*
X105601Y-22512D01*
X105615Y-22338D01*
X105664Y-22169D01*
X105744Y-22013D01*
X105853Y-21875D01*
X105987Y-21761D01*
X106140Y-21676D01*
X106307Y-21621D01*
X106482Y-21601D01*
X106656Y-21614D01*
X106825Y-21661D01*
X106982Y-21741D01*
X107120Y-21849D01*
X107235Y-21982D01*
X107322Y-22134D01*
X107377Y-22301D01*
X107399Y-22475D01*
X107400Y-22500D01*
X10400Y-13000D02*
X10382Y-13174D01*
X10332Y-13342D01*
X10249Y-13498D01*
X10138Y-13634D01*
X10003Y-13746D01*
X09848Y-13829D01*
X09680Y-13881D01*
X09506Y-13899D01*
X09332Y-13884D01*
X09163Y-13834D01*
X09008Y-13753D01*
X08871Y-13643D01*
X08758Y-13508D01*
X08673Y-13354D01*
X08620Y-13187D01*
X08601Y-13012D01*
X08615Y-12838D01*
X08664Y-12669D01*
X08744Y-12513D01*
X08853Y-12375D01*
X08987Y-12261D01*
X09140Y-12176D01*
X09307Y-12121D01*
X09482Y-12101D01*
X09656Y-12114D01*
X09825Y-12161D01*
X09982Y-12241D01*
X10120Y-12349D01*
X10235Y-12482D01*
X10322Y-12634D01*
X10377Y-12801D01*
X10399Y-12975D01*
X10400Y-13000D01*
X10400Y-22500D02*
X10382Y-22674D01*
X10332Y-22842D01*
X10249Y-22998D01*
X10138Y-23134D01*
X10003Y-23246D01*
X09848Y-23329D01*
X09680Y-23381D01*
X09506Y-23399D01*
X09332Y-23384D01*
X09163Y-23334D01*
X09008Y-23253D01*
X08871Y-23143D01*
X08758Y-23008D01*
X08673Y-22854D01*
X08620Y-22687D01*
X08601Y-22512D01*
X08615Y-22338D01*
X08664Y-22169D01*
X08744Y-22013D01*
X08853Y-21875D01*
X08987Y-21761D01*
X09140Y-21676D01*
X09307Y-21621D01*
X09482Y-21601D01*
X09656Y-21614D01*
X09825Y-21661D01*
X09982Y-21741D01*
X10120Y-21849D01*
X10235Y-21982D01*
X10322Y-22134D01*
X10377Y-22301D01*
X10399Y-22475D01*
X10400Y-22500D01*
X107400Y-13000D02*
X107382Y-13174D01*
X107332Y-13342D01*
X107249Y-13498D01*
X107138Y-13634D01*
X107003Y-13746D01*
X106848Y-13829D01*
X106680Y-13881D01*
X106506Y-13899D01*
X106332Y-13884D01*
X106163Y-13834D01*
X106008Y-13753D01*
X105871Y-13643D01*
X105758Y-13508D01*
X105673Y-13354D01*
X105620Y-13187D01*
X105601Y-13012D01*
X105615Y-12838D01*
X105664Y-12669D01*
X105744Y-12513D01*
X105853Y-12375D01*
X105987Y-12261D01*
X106140Y-12176D01*
X106307Y-12121D01*
X106482Y-12101D01*
X106656Y-12114D01*
X106825Y-12161D01*
X106982Y-12241D01*
X107120Y-12349D01*
X107235Y-12482D01*
X107322Y-12634D01*
X107377Y-12801D01*
X107399Y-12975D01*
X107400Y-13000D01*
X75400Y-13000D02*
X75382Y-13174D01*
X75332Y-13342D01*
X75249Y-13498D01*
X75138Y-13634D01*
X75003Y-13746D01*
X74848Y-13829D01*
X74680Y-13881D01*
X74506Y-13899D01*
X74332Y-13884D01*
X74163Y-13834D01*
X74008Y-13753D01*
X73871Y-13643D01*
X73758Y-13508D01*
X73673Y-13354D01*
X73620Y-13187D01*
X73601Y-13012D01*
X73615Y-12838D01*
X73664Y-12669D01*
X73744Y-12513D01*
X73853Y-12375D01*
X73987Y-12261D01*
X74140Y-12176D01*
X74307Y-12121D01*
X74482Y-12101D01*
X74656Y-12114D01*
X74825Y-12161D01*
X74982Y-12241D01*
X75120Y-12349D01*
X75235Y-12482D01*
X75322Y-12634D01*
X75377Y-12801D01*
X75399Y-12975D01*
X75400Y-13000D01*
X42400Y-13000D02*
X42382Y-13174D01*
X42332Y-13342D01*
X42249Y-13498D01*
X42138Y-13634D01*
X42003Y-13746D01*
X41848Y-13829D01*
X41680Y-13881D01*
X41506Y-13899D01*
X41332Y-13884D01*
X41163Y-13834D01*
X41008Y-13753D01*
X40871Y-13643D01*
X40758Y-13508D01*
X40673Y-13354D01*
X40620Y-13187D01*
X40601Y-13012D01*
X40615Y-12838D01*
X40664Y-12669D01*
X40744Y-12513D01*
X40853Y-12375D01*
X40987Y-12261D01*
X41140Y-12176D01*
X41307Y-12121D01*
X41482Y-12101D01*
X41656Y-12114D01*
X41825Y-12161D01*
X41982Y-12241D01*
X42120Y-12349D01*
X42235Y-12482D01*
X42322Y-12634D01*
X42377Y-12801D01*
X42399Y-12975D01*
X42400Y-13000D01*
G54D13*
X60110Y-15562D02*
X60110Y-15162D01*
X60281Y-15543D02*
X60338Y-15562D01*
X60434Y-15562D01*
X60472Y-15543D01*
X60491Y-15524D01*
X60510Y-15486D01*
X60510Y-15448D01*
X60491Y-15410D01*
X60472Y-15390D01*
X60434Y-15371D01*
X60357Y-15352D01*
X60319Y-15333D01*
X60300Y-15314D01*
X60281Y-15276D01*
X60281Y-15238D01*
X60300Y-15200D01*
X60319Y-15181D01*
X60357Y-15162D01*
X60453Y-15162D01*
X60510Y-15181D01*
X60681Y-15562D02*
X60681Y-15162D01*
X60834Y-15162D01*
X60872Y-15181D01*
X60891Y-15200D01*
X60910Y-15238D01*
X60910Y-15295D01*
X60891Y-15333D01*
X60872Y-15352D01*
X60834Y-15371D01*
X60681Y-15371D01*
G54D18*
X68002Y-15588D02*
X67502Y-15588D01*
X67955Y-15064D02*
X67979Y-15088D01*
X68002Y-15159D01*
X68002Y-15207D01*
X67979Y-15279D01*
X67931Y-15326D01*
X67883Y-15350D01*
X67788Y-15374D01*
X67717Y-15374D01*
X67621Y-15350D01*
X67574Y-15326D01*
X67526Y-15279D01*
X67502Y-15207D01*
X67502Y-15159D01*
X67526Y-15088D01*
X67550Y-15064D01*
X68002Y-14588D02*
X68002Y-14874D01*
X68002Y-14731D02*
X67502Y-14731D01*
X67574Y-14779D01*
X67621Y-14826D01*
X67645Y-14874D01*
X66504Y-22685D02*
X66457Y-22661D01*
X66409Y-22614D01*
X66338Y-22542D01*
X66290Y-22518D01*
X66242Y-22518D01*
X66266Y-22637D02*
X66219Y-22614D01*
X66171Y-22566D01*
X66147Y-22471D01*
X66147Y-22304D01*
X66171Y-22209D01*
X66219Y-22161D01*
X66266Y-22137D01*
X66362Y-22137D01*
X66409Y-22161D01*
X66457Y-22209D01*
X66481Y-22304D01*
X66481Y-22471D01*
X66457Y-22566D01*
X66409Y-22614D01*
X66362Y-22637D01*
X66266Y-22637D01*
X66957Y-22637D02*
X66671Y-22637D01*
X66814Y-22637D02*
X66814Y-22137D01*
X66766Y-22209D01*
X66719Y-22256D01*
X66671Y-22280D01*
X49983Y-18045D02*
X49983Y-18450D01*
X50007Y-18498D01*
X50031Y-18522D01*
X50078Y-18545D01*
X50174Y-18545D01*
X50221Y-18522D01*
X50245Y-18498D01*
X50269Y-18450D01*
X50269Y-18045D01*
X50769Y-18545D02*
X50483Y-18545D01*
X50626Y-18545D02*
X50626Y-18045D01*
X50578Y-18117D01*
X50531Y-18164D01*
X50483Y-18188D01*
G54D11*
X43172Y-23143D02*
X43172Y-22543D01*
X43315Y-22543D01*
X43400Y-22571D01*
X43458Y-22629D01*
X43486Y-22686D01*
X43515Y-22800D01*
X43515Y-22886D01*
X43486Y-23000D01*
X43458Y-23057D01*
X43400Y-23114D01*
X43315Y-23143D01*
X43172Y-23143D01*
X44086Y-23143D02*
X43743Y-23143D01*
X43915Y-23143D02*
X43915Y-22543D01*
X43858Y-22629D01*
X43800Y-22686D01*
X43743Y-22714D01*
X44600Y-22543D02*
X44486Y-22543D01*
X44429Y-22571D01*
X44400Y-22600D01*
X44343Y-22686D01*
X44314Y-22800D01*
X44314Y-23029D01*
X44343Y-23086D01*
X44371Y-23114D01*
X44429Y-23143D01*
X44543Y-23143D01*
X44600Y-23114D01*
X44629Y-23086D01*
X44657Y-23029D01*
X44657Y-22886D01*
X44629Y-22829D01*
X44600Y-22800D01*
X44543Y-22771D01*
X44429Y-22771D01*
X44371Y-22800D01*
X44343Y-22829D01*
X44314Y-22886D01*
X12158Y-22643D02*
X12158Y-22043D01*
X12301Y-22043D01*
X12386Y-22071D01*
X12444Y-22129D01*
X12472Y-22186D01*
X12501Y-22300D01*
X12501Y-22386D01*
X12472Y-22500D01*
X12444Y-22557D01*
X12386Y-22614D01*
X12301Y-22643D01*
X12158Y-22643D01*
X13072Y-22643D02*
X12729Y-22643D01*
X12901Y-22643D02*
X12901Y-22043D01*
X12844Y-22129D01*
X12786Y-22186D01*
X12729Y-22214D01*
X12058Y-12843D02*
X12058Y-12243D01*
X12201Y-12243D01*
X12286Y-12271D01*
X12344Y-12329D01*
X12372Y-12386D01*
X12401Y-12500D01*
X12401Y-12586D01*
X12372Y-12700D01*
X12344Y-12757D01*
X12286Y-12814D01*
X12201Y-12843D01*
X12058Y-12843D01*
X12629Y-12300D02*
X12658Y-12271D01*
X12715Y-12243D01*
X12858Y-12243D01*
X12915Y-12271D01*
X12944Y-12300D01*
X12972Y-12357D01*
X12972Y-12414D01*
X12944Y-12500D01*
X12601Y-12843D01*
X12972Y-12843D01*
X16558Y-12843D02*
X16558Y-12243D01*
X16701Y-12243D01*
X16786Y-12271D01*
X16844Y-12329D01*
X16872Y-12386D01*
X16901Y-12500D01*
X16901Y-12586D01*
X16872Y-12700D01*
X16844Y-12757D01*
X16786Y-12814D01*
X16701Y-12843D01*
X16558Y-12843D01*
X17101Y-12243D02*
X17472Y-12243D01*
X17272Y-12471D01*
X17358Y-12471D01*
X17415Y-12500D01*
X17444Y-12529D01*
X17472Y-12586D01*
X17472Y-12729D01*
X17444Y-12786D01*
X17415Y-12814D01*
X17358Y-12843D01*
X17186Y-12843D01*
X17129Y-12814D01*
X17101Y-12786D01*
X16558Y-22643D02*
X16558Y-22043D01*
X16701Y-22043D01*
X16786Y-22071D01*
X16844Y-22129D01*
X16872Y-22186D01*
X16901Y-22300D01*
X16901Y-22386D01*
X16872Y-22500D01*
X16844Y-22557D01*
X16786Y-22614D01*
X16701Y-22643D01*
X16558Y-22643D01*
X17415Y-22243D02*
X17415Y-22643D01*
X17272Y-22014D02*
X17129Y-22443D01*
X17501Y-22443D01*
X21058Y-22643D02*
X21058Y-22043D01*
X21201Y-22043D01*
X21286Y-22071D01*
X21344Y-22129D01*
X21372Y-22186D01*
X21401Y-22300D01*
X21401Y-22386D01*
X21372Y-22500D01*
X21344Y-22557D01*
X21286Y-22614D01*
X21201Y-22643D01*
X21058Y-22643D01*
X21944Y-22043D02*
X21658Y-22043D01*
X21629Y-22329D01*
X21658Y-22300D01*
X21715Y-22271D01*
X21858Y-22271D01*
X21915Y-22300D01*
X21944Y-22329D01*
X21972Y-22386D01*
X21972Y-22529D01*
X21944Y-22586D01*
X21915Y-22614D01*
X21858Y-22643D01*
X21715Y-22643D01*
X21658Y-22614D01*
X21629Y-22586D01*
X20958Y-12843D02*
X20958Y-12243D01*
X21101Y-12243D01*
X21186Y-12271D01*
X21244Y-12329D01*
X21272Y-12386D01*
X21301Y-12500D01*
X21301Y-12586D01*
X21272Y-12700D01*
X21244Y-12757D01*
X21186Y-12814D01*
X21101Y-12843D01*
X20958Y-12843D01*
X21815Y-12243D02*
X21701Y-12243D01*
X21644Y-12271D01*
X21615Y-12300D01*
X21558Y-12386D01*
X21529Y-12500D01*
X21529Y-12729D01*
X21558Y-12786D01*
X21586Y-12814D01*
X21644Y-12843D01*
X21758Y-12843D01*
X21815Y-12814D01*
X21844Y-12786D01*
X21872Y-12729D01*
X21872Y-12586D01*
X21844Y-12529D01*
X21815Y-12500D01*
X21758Y-12471D01*
X21644Y-12471D01*
X21586Y-12500D01*
X21558Y-12529D01*
X21529Y-12586D01*
X25458Y-12843D02*
X25458Y-12243D01*
X25601Y-12243D01*
X25686Y-12271D01*
X25744Y-12329D01*
X25772Y-12386D01*
X25801Y-12500D01*
X25801Y-12586D01*
X25772Y-12700D01*
X25744Y-12757D01*
X25686Y-12814D01*
X25601Y-12843D01*
X25458Y-12843D01*
X26001Y-12243D02*
X26401Y-12243D01*
X26144Y-12843D01*
X25558Y-23043D02*
X25558Y-22443D01*
X25701Y-22443D01*
X25786Y-22471D01*
X25844Y-22529D01*
X25872Y-22586D01*
X25901Y-22700D01*
X25901Y-22786D01*
X25872Y-22900D01*
X25844Y-22957D01*
X25786Y-23014D01*
X25701Y-23043D01*
X25558Y-23043D01*
X26244Y-22700D02*
X26186Y-22671D01*
X26158Y-22643D01*
X26129Y-22586D01*
X26129Y-22557D01*
X26158Y-22500D01*
X26186Y-22471D01*
X26244Y-22443D01*
X26358Y-22443D01*
X26415Y-22471D01*
X26444Y-22500D01*
X26472Y-22557D01*
X26472Y-22586D01*
X26444Y-22643D01*
X26415Y-22671D01*
X26358Y-22700D01*
X26244Y-22700D01*
X26186Y-22729D01*
X26158Y-22757D01*
X26129Y-22814D01*
X26129Y-22929D01*
X26158Y-22986D01*
X26186Y-23014D01*
X26244Y-23043D01*
X26358Y-23043D01*
X26415Y-23014D01*
X26444Y-22986D01*
X26472Y-22929D01*
X26472Y-22814D01*
X26444Y-22757D01*
X26415Y-22729D01*
X26358Y-22700D01*
X29958Y-23043D02*
X29958Y-22443D01*
X30101Y-22443D01*
X30186Y-22471D01*
X30244Y-22529D01*
X30272Y-22586D01*
X30301Y-22700D01*
X30301Y-22786D01*
X30272Y-22900D01*
X30244Y-22957D01*
X30186Y-23014D01*
X30101Y-23043D01*
X29958Y-23043D01*
X30586Y-23043D02*
X30701Y-23043D01*
X30758Y-23014D01*
X30786Y-22986D01*
X30844Y-22900D01*
X30872Y-22786D01*
X30872Y-22557D01*
X30844Y-22500D01*
X30815Y-22471D01*
X30758Y-22443D01*
X30644Y-22443D01*
X30586Y-22471D01*
X30558Y-22500D01*
X30529Y-22557D01*
X30529Y-22700D01*
X30558Y-22757D01*
X30586Y-22786D01*
X30644Y-22814D01*
X30758Y-22814D01*
X30815Y-22786D01*
X30844Y-22757D01*
X30872Y-22700D01*
X29772Y-12843D02*
X29772Y-12243D01*
X29915Y-12243D01*
X30000Y-12271D01*
X30058Y-12329D01*
X30086Y-12386D01*
X30115Y-12500D01*
X30115Y-12586D01*
X30086Y-12700D01*
X30058Y-12757D01*
X30000Y-12814D01*
X29915Y-12843D01*
X29772Y-12843D01*
X30686Y-12843D02*
X30343Y-12843D01*
X30515Y-12843D02*
X30515Y-12243D01*
X30458Y-12329D01*
X30400Y-12386D01*
X30343Y-12414D01*
X31057Y-12243D02*
X31114Y-12243D01*
X31171Y-12271D01*
X31200Y-12300D01*
X31229Y-12357D01*
X31257Y-12471D01*
X31257Y-12614D01*
X31229Y-12729D01*
X31200Y-12786D01*
X31171Y-12814D01*
X31114Y-12843D01*
X31057Y-12843D01*
X31000Y-12814D01*
X30971Y-12786D01*
X30943Y-12729D01*
X30914Y-12614D01*
X30914Y-12471D01*
X30943Y-12357D01*
X30971Y-12300D01*
X31000Y-12271D01*
X31057Y-12243D01*
X34172Y-12843D02*
X34172Y-12243D01*
X34315Y-12243D01*
X34400Y-12271D01*
X34458Y-12329D01*
X34486Y-12386D01*
X34515Y-12500D01*
X34515Y-12586D01*
X34486Y-12700D01*
X34458Y-12757D01*
X34400Y-12814D01*
X34315Y-12843D01*
X34172Y-12843D01*
X35086Y-12843D02*
X34743Y-12843D01*
X34915Y-12843D02*
X34915Y-12243D01*
X34858Y-12329D01*
X34800Y-12386D01*
X34743Y-12414D01*
X35657Y-12843D02*
X35314Y-12843D01*
X35486Y-12843D02*
X35486Y-12243D01*
X35429Y-12329D01*
X35371Y-12386D01*
X35314Y-12414D01*
X34172Y-23043D02*
X34172Y-22443D01*
X34315Y-22443D01*
X34400Y-22471D01*
X34458Y-22529D01*
X34486Y-22586D01*
X34515Y-22700D01*
X34515Y-22786D01*
X34486Y-22900D01*
X34458Y-22957D01*
X34400Y-23014D01*
X34315Y-23043D01*
X34172Y-23043D01*
X35086Y-23043D02*
X34743Y-23043D01*
X34915Y-23043D02*
X34915Y-22443D01*
X34858Y-22529D01*
X34800Y-22586D01*
X34743Y-22614D01*
X35314Y-22500D02*
X35343Y-22471D01*
X35400Y-22443D01*
X35543Y-22443D01*
X35600Y-22471D01*
X35629Y-22500D01*
X35657Y-22557D01*
X35657Y-22614D01*
X35629Y-22700D01*
X35286Y-23043D01*
X35657Y-23043D01*
X38672Y-23043D02*
X38672Y-22443D01*
X38815Y-22443D01*
X38900Y-22471D01*
X38958Y-22529D01*
X38986Y-22586D01*
X39015Y-22700D01*
X39015Y-22786D01*
X38986Y-22900D01*
X38958Y-22957D01*
X38900Y-23014D01*
X38815Y-23043D01*
X38672Y-23043D01*
X39586Y-23043D02*
X39243Y-23043D01*
X39415Y-23043D02*
X39415Y-22443D01*
X39358Y-22529D01*
X39300Y-22586D01*
X39243Y-22614D01*
X39786Y-22443D02*
X40157Y-22443D01*
X39957Y-22671D01*
X40043Y-22671D01*
X40100Y-22700D01*
X40129Y-22729D01*
X40157Y-22786D01*
X40157Y-22929D01*
X40129Y-22986D01*
X40100Y-23014D01*
X40043Y-23043D01*
X39871Y-23043D01*
X39814Y-23014D01*
X39786Y-22986D01*
X38772Y-12743D02*
X38772Y-12143D01*
X38915Y-12143D01*
X39000Y-12171D01*
X39058Y-12229D01*
X39086Y-12286D01*
X39115Y-12400D01*
X39115Y-12486D01*
X39086Y-12600D01*
X39058Y-12657D01*
X39000Y-12714D01*
X38915Y-12743D01*
X38772Y-12743D01*
X39686Y-12743D02*
X39343Y-12743D01*
X39515Y-12743D02*
X39515Y-12143D01*
X39458Y-12229D01*
X39400Y-12286D01*
X39343Y-12314D01*
X40200Y-12343D02*
X40200Y-12743D01*
X40057Y-12114D02*
X39914Y-12543D01*
X40286Y-12543D01*
X43172Y-12743D02*
X43172Y-12143D01*
X43315Y-12143D01*
X43400Y-12171D01*
X43458Y-12229D01*
X43486Y-12286D01*
X43515Y-12400D01*
X43515Y-12486D01*
X43486Y-12600D01*
X43458Y-12657D01*
X43400Y-12714D01*
X43315Y-12743D01*
X43172Y-12743D01*
X44086Y-12743D02*
X43743Y-12743D01*
X43915Y-12743D02*
X43915Y-12143D01*
X43858Y-12229D01*
X43800Y-12286D01*
X43743Y-12314D01*
X44629Y-12143D02*
X44343Y-12143D01*
X44314Y-12429D01*
X44343Y-12400D01*
X44400Y-12371D01*
X44543Y-12371D01*
X44600Y-12400D01*
X44629Y-12429D01*
X44657Y-12486D01*
X44657Y-12629D01*
X44629Y-12686D01*
X44600Y-12714D01*
X44543Y-12743D01*
X44400Y-12743D01*
X44343Y-12714D01*
X44314Y-12686D01*
G54D18*
X50917Y-12402D02*
X50750Y-12164D01*
X50631Y-12402D02*
X50631Y-11902D01*
X50822Y-11902D01*
X50869Y-11926D01*
X50893Y-11950D01*
X50917Y-11998D01*
X50917Y-12069D01*
X50893Y-12117D01*
X50869Y-12140D01*
X50822Y-12164D01*
X50631Y-12164D01*
X51155Y-12402D02*
X51250Y-12402D01*
X51298Y-12379D01*
X51322Y-12355D01*
X51369Y-12283D01*
X51393Y-12188D01*
X51393Y-11998D01*
X51369Y-11950D01*
X51345Y-11926D01*
X51298Y-11902D01*
X51202Y-11902D01*
X51155Y-11926D01*
X51131Y-11950D01*
X51107Y-11998D01*
X51107Y-12117D01*
X51131Y-12164D01*
X51155Y-12188D01*
X51202Y-12212D01*
X51298Y-12212D01*
X51345Y-12188D01*
X51369Y-12164D01*
X51393Y-12117D01*
X52017Y-12402D02*
X51850Y-12164D01*
X51731Y-12402D02*
X51731Y-11902D01*
X51922Y-11902D01*
X51969Y-11926D01*
X51993Y-11950D01*
X52017Y-11998D01*
X52017Y-12069D01*
X51993Y-12117D01*
X51969Y-12140D01*
X51922Y-12164D01*
X51731Y-12164D01*
X52302Y-12117D02*
X52255Y-12093D01*
X52231Y-12069D01*
X52207Y-12021D01*
X52207Y-11998D01*
X52231Y-11950D01*
X52255Y-11926D01*
X52302Y-11902D01*
X52398Y-11902D01*
X52445Y-11926D01*
X52469Y-11950D01*
X52493Y-11998D01*
X52493Y-12021D01*
X52469Y-12069D01*
X52445Y-12093D01*
X52398Y-12117D01*
X52302Y-12117D01*
X52255Y-12140D01*
X52231Y-12164D01*
X52207Y-12212D01*
X52207Y-12307D01*
X52231Y-12355D01*
X52255Y-12379D01*
X52302Y-12402D01*
X52398Y-12402D01*
X52445Y-12379D01*
X52469Y-12355D01*
X52493Y-12307D01*
X52493Y-12212D01*
X52469Y-12164D01*
X52445Y-12140D01*
X52398Y-12117D01*
X53117Y-12402D02*
X52950Y-12164D01*
X52831Y-12402D02*
X52831Y-11902D01*
X53022Y-11902D01*
X53069Y-11926D01*
X53093Y-11950D01*
X53117Y-11998D01*
X53117Y-12069D01*
X53093Y-12117D01*
X53069Y-12140D01*
X53022Y-12164D01*
X52831Y-12164D01*
X53283Y-11902D02*
X53617Y-11902D01*
X53402Y-12402D01*
X54217Y-12402D02*
X54050Y-12164D01*
X53931Y-12402D02*
X53931Y-11902D01*
X54122Y-11902D01*
X54169Y-11926D01*
X54193Y-11950D01*
X54217Y-11998D01*
X54217Y-12069D01*
X54193Y-12117D01*
X54169Y-12140D01*
X54122Y-12164D01*
X53931Y-12164D01*
X54645Y-11902D02*
X54550Y-11902D01*
X54502Y-11926D01*
X54479Y-11950D01*
X54431Y-12021D01*
X54407Y-12117D01*
X54407Y-12307D01*
X54431Y-12355D01*
X54455Y-12379D01*
X54502Y-12402D01*
X54598Y-12402D01*
X54645Y-12379D01*
X54669Y-12355D01*
X54693Y-12307D01*
X54693Y-12188D01*
X54669Y-12140D01*
X54645Y-12117D01*
X54598Y-12093D01*
X54502Y-12093D01*
X54455Y-12117D01*
X54431Y-12140D01*
X54407Y-12188D01*
X49817Y-14802D02*
X49650Y-14564D01*
X49531Y-14802D02*
X49531Y-14302D01*
X49722Y-14302D01*
X49769Y-14326D01*
X49793Y-14350D01*
X49817Y-14398D01*
X49817Y-14469D01*
X49793Y-14517D01*
X49769Y-14540D01*
X49722Y-14564D01*
X49531Y-14564D01*
X50269Y-14302D02*
X50031Y-14302D01*
X50007Y-14540D01*
X50031Y-14517D01*
X50079Y-14493D01*
X50198Y-14493D01*
X50245Y-14517D01*
X50269Y-14540D01*
X50293Y-14588D01*
X50293Y-14707D01*
X50269Y-14755D01*
X50245Y-14779D01*
X50198Y-14802D01*
X50079Y-14802D01*
X50031Y-14779D01*
X50007Y-14755D01*
X48717Y-12402D02*
X48550Y-12164D01*
X48431Y-12402D02*
X48431Y-11902D01*
X48622Y-11902D01*
X48669Y-11926D01*
X48693Y-11950D01*
X48717Y-11998D01*
X48717Y-12069D01*
X48693Y-12117D01*
X48669Y-12140D01*
X48622Y-12164D01*
X48431Y-12164D01*
X49145Y-12069D02*
X49145Y-12402D01*
X49026Y-11879D02*
X48907Y-12236D01*
X49217Y-12236D01*
X46002Y-13483D02*
X45764Y-13650D01*
X46002Y-13769D02*
X45502Y-13769D01*
X45502Y-13578D01*
X45526Y-13531D01*
X45550Y-13507D01*
X45598Y-13483D01*
X45669Y-13483D01*
X45717Y-13507D01*
X45740Y-13531D01*
X45764Y-13578D01*
X45764Y-13769D01*
X45502Y-13317D02*
X45502Y-13007D01*
X45693Y-13174D01*
X45693Y-13102D01*
X45717Y-13055D01*
X45740Y-13031D01*
X45788Y-13007D01*
X45907Y-13007D01*
X45955Y-13031D01*
X45979Y-13055D01*
X46002Y-13102D01*
X46002Y-13245D01*
X45979Y-13293D01*
X45955Y-13317D01*
X47617Y-12402D02*
X47450Y-12164D01*
X47331Y-12402D02*
X47331Y-11902D01*
X47522Y-11902D01*
X47569Y-11926D01*
X47593Y-11950D01*
X47617Y-11998D01*
X47617Y-12069D01*
X47593Y-12117D01*
X47569Y-12140D01*
X47522Y-12164D01*
X47331Y-12164D01*
X47807Y-11950D02*
X47831Y-11926D01*
X47879Y-11902D01*
X47998Y-11902D01*
X48045Y-11926D01*
X48069Y-11950D01*
X48093Y-11998D01*
X48093Y-12045D01*
X48069Y-12117D01*
X47783Y-12402D01*
X48093Y-12402D01*
X67117Y-12902D02*
X66950Y-12664D01*
X66831Y-12902D02*
X66831Y-12402D01*
X67022Y-12402D01*
X67069Y-12426D01*
X67093Y-12450D01*
X67117Y-12498D01*
X67117Y-12569D01*
X67093Y-12617D01*
X67069Y-12640D01*
X67022Y-12664D01*
X66831Y-12664D01*
X67593Y-12902D02*
X67307Y-12902D01*
X67450Y-12902D02*
X67450Y-12402D01*
X67402Y-12474D01*
X67355Y-12521D01*
X67307Y-12545D01*
X57402Y-18221D02*
X57164Y-18388D01*
X57402Y-18507D02*
X56902Y-18507D01*
X56902Y-18316D01*
X56926Y-18269D01*
X56950Y-18245D01*
X56998Y-18221D01*
X57069Y-18221D01*
X57117Y-18245D01*
X57140Y-18269D01*
X57164Y-18316D01*
X57164Y-18507D01*
X57402Y-17745D02*
X57402Y-18031D01*
X57402Y-17888D02*
X56902Y-17888D01*
X56974Y-17936D01*
X57021Y-17983D01*
X57045Y-18031D01*
X56902Y-17436D02*
X56902Y-17388D01*
X56926Y-17340D01*
X56950Y-17317D01*
X56998Y-17293D01*
X57093Y-17269D01*
X57212Y-17269D01*
X57307Y-17293D01*
X57355Y-17317D01*
X57379Y-17340D01*
X57402Y-17388D01*
X57402Y-17436D01*
X57379Y-17483D01*
X57355Y-17507D01*
X57307Y-17531D01*
X57212Y-17555D01*
X57093Y-17555D01*
X56998Y-17531D01*
X56950Y-17507D01*
X56926Y-17483D01*
X56902Y-17436D01*
G54D11*
X102772Y-23043D02*
X102772Y-22443D01*
X102915Y-22443D01*
X103000Y-22471D01*
X103058Y-22529D01*
X103086Y-22586D01*
X103115Y-22700D01*
X103115Y-22786D01*
X103086Y-22900D01*
X103058Y-22957D01*
X103000Y-23014D01*
X102915Y-23043D01*
X102772Y-23043D01*
X103315Y-22443D02*
X103686Y-22443D01*
X103486Y-22671D01*
X103572Y-22671D01*
X103629Y-22700D01*
X103658Y-22729D01*
X103686Y-22786D01*
X103686Y-22929D01*
X103658Y-22986D01*
X103629Y-23014D01*
X103572Y-23043D01*
X103400Y-23043D01*
X103343Y-23014D01*
X103315Y-22986D01*
X103914Y-22500D02*
X103943Y-22471D01*
X104000Y-22443D01*
X104143Y-22443D01*
X104200Y-22471D01*
X104229Y-22500D01*
X104257Y-22557D01*
X104257Y-22614D01*
X104229Y-22700D01*
X103886Y-23043D01*
X104257Y-23043D01*
X102772Y-12743D02*
X102772Y-12143D01*
X102915Y-12143D01*
X103000Y-12171D01*
X103058Y-12229D01*
X103086Y-12286D01*
X103115Y-12400D01*
X103115Y-12486D01*
X103086Y-12600D01*
X103058Y-12657D01*
X103000Y-12714D01*
X102915Y-12743D01*
X102772Y-12743D01*
X103315Y-12143D02*
X103686Y-12143D01*
X103486Y-12371D01*
X103572Y-12371D01*
X103629Y-12400D01*
X103658Y-12429D01*
X103686Y-12486D01*
X103686Y-12629D01*
X103658Y-12686D01*
X103629Y-12714D01*
X103572Y-12743D01*
X103400Y-12743D01*
X103343Y-12714D01*
X103315Y-12686D01*
X104257Y-12743D02*
X103914Y-12743D01*
X104086Y-12743D02*
X104086Y-12143D01*
X104029Y-12229D01*
X103971Y-12286D01*
X103914Y-12314D01*
X98372Y-12743D02*
X98372Y-12143D01*
X98515Y-12143D01*
X98600Y-12171D01*
X98658Y-12229D01*
X98686Y-12286D01*
X98715Y-12400D01*
X98715Y-12486D01*
X98686Y-12600D01*
X98658Y-12657D01*
X98600Y-12714D01*
X98515Y-12743D01*
X98372Y-12743D01*
X98915Y-12143D02*
X99286Y-12143D01*
X99086Y-12371D01*
X99172Y-12371D01*
X99229Y-12400D01*
X99258Y-12429D01*
X99286Y-12486D01*
X99286Y-12629D01*
X99258Y-12686D01*
X99229Y-12714D01*
X99172Y-12743D01*
X99000Y-12743D01*
X98943Y-12714D01*
X98915Y-12686D01*
X99657Y-12143D02*
X99714Y-12143D01*
X99771Y-12171D01*
X99800Y-12200D01*
X99829Y-12257D01*
X99857Y-12371D01*
X99857Y-12514D01*
X99829Y-12629D01*
X99800Y-12686D01*
X99771Y-12714D01*
X99714Y-12743D01*
X99657Y-12743D01*
X99600Y-12714D01*
X99571Y-12686D01*
X99543Y-12629D01*
X99514Y-12514D01*
X99514Y-12371D01*
X99543Y-12257D01*
X99571Y-12200D01*
X99600Y-12171D01*
X99657Y-12143D01*
X98172Y-23043D02*
X98172Y-22443D01*
X98315Y-22443D01*
X98400Y-22471D01*
X98458Y-22529D01*
X98486Y-22586D01*
X98515Y-22700D01*
X98515Y-22786D01*
X98486Y-22900D01*
X98458Y-22957D01*
X98400Y-23014D01*
X98315Y-23043D01*
X98172Y-23043D01*
X98743Y-22500D02*
X98772Y-22471D01*
X98829Y-22443D01*
X98972Y-22443D01*
X99029Y-22471D01*
X99058Y-22500D01*
X99086Y-22557D01*
X99086Y-22614D01*
X99058Y-22700D01*
X98715Y-23043D01*
X99086Y-23043D01*
X99371Y-23043D02*
X99486Y-23043D01*
X99543Y-23014D01*
X99571Y-22986D01*
X99629Y-22900D01*
X99657Y-22786D01*
X99657Y-22557D01*
X99629Y-22500D01*
X99600Y-22471D01*
X99543Y-22443D01*
X99429Y-22443D01*
X99371Y-22471D01*
X99343Y-22500D01*
X99314Y-22557D01*
X99314Y-22700D01*
X99343Y-22757D01*
X99371Y-22786D01*
X99429Y-22814D01*
X99543Y-22814D01*
X99600Y-22786D01*
X99629Y-22757D01*
X99657Y-22700D01*
X93772Y-23143D02*
X93772Y-22543D01*
X93915Y-22543D01*
X94000Y-22571D01*
X94058Y-22629D01*
X94086Y-22686D01*
X94115Y-22800D01*
X94115Y-22886D01*
X94086Y-23000D01*
X94058Y-23057D01*
X94000Y-23114D01*
X93915Y-23143D01*
X93772Y-23143D01*
X94343Y-22600D02*
X94372Y-22571D01*
X94429Y-22543D01*
X94572Y-22543D01*
X94629Y-22571D01*
X94658Y-22600D01*
X94686Y-22657D01*
X94686Y-22714D01*
X94658Y-22800D01*
X94315Y-23143D01*
X94686Y-23143D01*
X95029Y-22800D02*
X94971Y-22771D01*
X94943Y-22743D01*
X94914Y-22686D01*
X94914Y-22657D01*
X94943Y-22600D01*
X94971Y-22571D01*
X95029Y-22543D01*
X95143Y-22543D01*
X95200Y-22571D01*
X95229Y-22600D01*
X95257Y-22657D01*
X95257Y-22686D01*
X95229Y-22743D01*
X95200Y-22771D01*
X95143Y-22800D01*
X95029Y-22800D01*
X94971Y-22829D01*
X94943Y-22857D01*
X94914Y-22914D01*
X94914Y-23029D01*
X94943Y-23086D01*
X94971Y-23114D01*
X95029Y-23143D01*
X95143Y-23143D01*
X95200Y-23114D01*
X95229Y-23086D01*
X95257Y-23029D01*
X95257Y-22914D01*
X95229Y-22857D01*
X95200Y-22829D01*
X95143Y-22800D01*
X93872Y-12843D02*
X93872Y-12243D01*
X94015Y-12243D01*
X94100Y-12271D01*
X94158Y-12329D01*
X94186Y-12386D01*
X94215Y-12500D01*
X94215Y-12586D01*
X94186Y-12700D01*
X94158Y-12757D01*
X94100Y-12814D01*
X94015Y-12843D01*
X93872Y-12843D01*
X94443Y-12300D02*
X94472Y-12271D01*
X94529Y-12243D01*
X94672Y-12243D01*
X94729Y-12271D01*
X94758Y-12300D01*
X94786Y-12357D01*
X94786Y-12414D01*
X94758Y-12500D01*
X94415Y-12843D01*
X94786Y-12843D01*
X94986Y-12243D02*
X95386Y-12243D01*
X95129Y-12843D01*
X89272Y-12843D02*
X89272Y-12243D01*
X89415Y-12243D01*
X89500Y-12271D01*
X89558Y-12329D01*
X89586Y-12386D01*
X89615Y-12500D01*
X89615Y-12586D01*
X89586Y-12700D01*
X89558Y-12757D01*
X89500Y-12814D01*
X89415Y-12843D01*
X89272Y-12843D01*
X89843Y-12300D02*
X89872Y-12271D01*
X89929Y-12243D01*
X90072Y-12243D01*
X90129Y-12271D01*
X90158Y-12300D01*
X90186Y-12357D01*
X90186Y-12414D01*
X90158Y-12500D01*
X89815Y-12843D01*
X90186Y-12843D01*
X90700Y-12243D02*
X90586Y-12243D01*
X90529Y-12271D01*
X90500Y-12300D01*
X90443Y-12386D01*
X90414Y-12500D01*
X90414Y-12729D01*
X90443Y-12786D01*
X90471Y-12814D01*
X90529Y-12843D01*
X90643Y-12843D01*
X90700Y-12814D01*
X90729Y-12786D01*
X90757Y-12729D01*
X90757Y-12586D01*
X90729Y-12529D01*
X90700Y-12500D01*
X90643Y-12471D01*
X90529Y-12471D01*
X90471Y-12500D01*
X90443Y-12529D01*
X90414Y-12586D01*
X89172Y-23043D02*
X89172Y-22443D01*
X89315Y-22443D01*
X89400Y-22471D01*
X89458Y-22529D01*
X89486Y-22586D01*
X89515Y-22700D01*
X89515Y-22786D01*
X89486Y-22900D01*
X89458Y-22957D01*
X89400Y-23014D01*
X89315Y-23043D01*
X89172Y-23043D01*
X89743Y-22500D02*
X89772Y-22471D01*
X89829Y-22443D01*
X89972Y-22443D01*
X90029Y-22471D01*
X90058Y-22500D01*
X90086Y-22557D01*
X90086Y-22614D01*
X90058Y-22700D01*
X89715Y-23043D01*
X90086Y-23043D01*
X90629Y-22443D02*
X90343Y-22443D01*
X90314Y-22729D01*
X90343Y-22700D01*
X90400Y-22671D01*
X90543Y-22671D01*
X90600Y-22700D01*
X90629Y-22729D01*
X90657Y-22786D01*
X90657Y-22929D01*
X90629Y-22986D01*
X90600Y-23014D01*
X90543Y-23043D01*
X90400Y-23043D01*
X90343Y-23014D01*
X90314Y-22986D01*
X84872Y-23043D02*
X84872Y-22443D01*
X85015Y-22443D01*
X85100Y-22471D01*
X85158Y-22529D01*
X85186Y-22586D01*
X85215Y-22700D01*
X85215Y-22786D01*
X85186Y-22900D01*
X85158Y-22957D01*
X85100Y-23014D01*
X85015Y-23043D01*
X84872Y-23043D01*
X85443Y-22500D02*
X85472Y-22471D01*
X85529Y-22443D01*
X85672Y-22443D01*
X85729Y-22471D01*
X85758Y-22500D01*
X85786Y-22557D01*
X85786Y-22614D01*
X85758Y-22700D01*
X85415Y-23043D01*
X85786Y-23043D01*
X86300Y-22643D02*
X86300Y-23043D01*
X86157Y-22414D02*
X86014Y-22843D01*
X86386Y-22843D01*
X84672Y-12843D02*
X84672Y-12243D01*
X84815Y-12243D01*
X84900Y-12271D01*
X84958Y-12329D01*
X84986Y-12386D01*
X85015Y-12500D01*
X85015Y-12586D01*
X84986Y-12700D01*
X84958Y-12757D01*
X84900Y-12814D01*
X84815Y-12843D01*
X84672Y-12843D01*
X85243Y-12300D02*
X85272Y-12271D01*
X85329Y-12243D01*
X85472Y-12243D01*
X85529Y-12271D01*
X85558Y-12300D01*
X85586Y-12357D01*
X85586Y-12414D01*
X85558Y-12500D01*
X85215Y-12843D01*
X85586Y-12843D01*
X85786Y-12243D02*
X86157Y-12243D01*
X85957Y-12471D01*
X86043Y-12471D01*
X86100Y-12500D01*
X86129Y-12529D01*
X86157Y-12586D01*
X86157Y-12729D01*
X86129Y-12786D01*
X86100Y-12814D01*
X86043Y-12843D01*
X85871Y-12843D01*
X85814Y-12814D01*
X85786Y-12786D01*
X80372Y-12843D02*
X80372Y-12243D01*
X80515Y-12243D01*
X80600Y-12271D01*
X80658Y-12329D01*
X80686Y-12386D01*
X80715Y-12500D01*
X80715Y-12586D01*
X80686Y-12700D01*
X80658Y-12757D01*
X80600Y-12814D01*
X80515Y-12843D01*
X80372Y-12843D01*
X80943Y-12300D02*
X80972Y-12271D01*
X81029Y-12243D01*
X81172Y-12243D01*
X81229Y-12271D01*
X81258Y-12300D01*
X81286Y-12357D01*
X81286Y-12414D01*
X81258Y-12500D01*
X80915Y-12843D01*
X81286Y-12843D01*
X81514Y-12300D02*
X81543Y-12271D01*
X81600Y-12243D01*
X81743Y-12243D01*
X81800Y-12271D01*
X81829Y-12300D01*
X81857Y-12357D01*
X81857Y-12414D01*
X81829Y-12500D01*
X81486Y-12843D01*
X81857Y-12843D01*
X80272Y-23043D02*
X80272Y-22443D01*
X80415Y-22443D01*
X80500Y-22471D01*
X80558Y-22529D01*
X80586Y-22586D01*
X80615Y-22700D01*
X80615Y-22786D01*
X80586Y-22900D01*
X80558Y-22957D01*
X80500Y-23014D01*
X80415Y-23043D01*
X80272Y-23043D01*
X80843Y-22500D02*
X80872Y-22471D01*
X80929Y-22443D01*
X81072Y-22443D01*
X81129Y-22471D01*
X81158Y-22500D01*
X81186Y-22557D01*
X81186Y-22614D01*
X81158Y-22700D01*
X80815Y-23043D01*
X81186Y-23043D01*
X81757Y-23043D02*
X81414Y-23043D01*
X81586Y-23043D02*
X81586Y-22443D01*
X81529Y-22529D01*
X81471Y-22586D01*
X81414Y-22614D01*
X75772Y-23043D02*
X75772Y-22443D01*
X75915Y-22443D01*
X76000Y-22471D01*
X76058Y-22529D01*
X76086Y-22586D01*
X76115Y-22700D01*
X76115Y-22786D01*
X76086Y-22900D01*
X76058Y-22957D01*
X76000Y-23014D01*
X75915Y-23043D01*
X75772Y-23043D01*
X76343Y-22500D02*
X76372Y-22471D01*
X76429Y-22443D01*
X76572Y-22443D01*
X76629Y-22471D01*
X76658Y-22500D01*
X76686Y-22557D01*
X76686Y-22614D01*
X76658Y-22700D01*
X76315Y-23043D01*
X76686Y-23043D01*
X77057Y-22443D02*
X77114Y-22443D01*
X77171Y-22471D01*
X77200Y-22500D01*
X77229Y-22557D01*
X77257Y-22671D01*
X77257Y-22814D01*
X77229Y-22929D01*
X77200Y-22986D01*
X77171Y-23014D01*
X77114Y-23043D01*
X77057Y-23043D01*
X77000Y-23014D01*
X76971Y-22986D01*
X76943Y-22929D01*
X76914Y-22814D01*
X76914Y-22671D01*
X76943Y-22557D01*
X76971Y-22500D01*
X77000Y-22471D01*
X77057Y-22443D01*
X75672Y-12843D02*
X75672Y-12243D01*
X75815Y-12243D01*
X75900Y-12271D01*
X75958Y-12329D01*
X75986Y-12386D01*
X76015Y-12500D01*
X76015Y-12586D01*
X75986Y-12700D01*
X75958Y-12757D01*
X75900Y-12814D01*
X75815Y-12843D01*
X75672Y-12843D01*
X76586Y-12843D02*
X76243Y-12843D01*
X76415Y-12843D02*
X76415Y-12243D01*
X76358Y-12329D01*
X76300Y-12386D01*
X76243Y-12414D01*
X76871Y-12843D02*
X76986Y-12843D01*
X77043Y-12814D01*
X77071Y-12786D01*
X77129Y-12700D01*
X77157Y-12586D01*
X77157Y-12357D01*
X77129Y-12300D01*
X77100Y-12271D01*
X77043Y-12243D01*
X76929Y-12243D01*
X76871Y-12271D01*
X76843Y-12300D01*
X76814Y-12357D01*
X76814Y-12500D01*
X76843Y-12557D01*
X76871Y-12586D01*
X76929Y-12614D01*
X77043Y-12614D01*
X77100Y-12586D01*
X77129Y-12557D01*
X77157Y-12500D01*
X71172Y-12843D02*
X71172Y-12243D01*
X71315Y-12243D01*
X71400Y-12271D01*
X71458Y-12329D01*
X71486Y-12386D01*
X71515Y-12500D01*
X71515Y-12586D01*
X71486Y-12700D01*
X71458Y-12757D01*
X71400Y-12814D01*
X71315Y-12843D01*
X71172Y-12843D01*
X72086Y-12843D02*
X71743Y-12843D01*
X71915Y-12843D02*
X71915Y-12243D01*
X71858Y-12329D01*
X71800Y-12386D01*
X71743Y-12414D01*
X72429Y-12500D02*
X72371Y-12471D01*
X72343Y-12443D01*
X72314Y-12386D01*
X72314Y-12357D01*
X72343Y-12300D01*
X72371Y-12271D01*
X72429Y-12243D01*
X72543Y-12243D01*
X72600Y-12271D01*
X72629Y-12300D01*
X72657Y-12357D01*
X72657Y-12386D01*
X72629Y-12443D01*
X72600Y-12471D01*
X72543Y-12500D01*
X72429Y-12500D01*
X72371Y-12529D01*
X72343Y-12557D01*
X72314Y-12614D01*
X72314Y-12729D01*
X72343Y-12786D01*
X72371Y-12814D01*
X72429Y-12843D01*
X72543Y-12843D01*
X72600Y-12814D01*
X72629Y-12786D01*
X72657Y-12729D01*
X72657Y-12614D01*
X72629Y-12557D01*
X72600Y-12529D01*
X72543Y-12500D01*
X71172Y-23043D02*
X71172Y-22443D01*
X71315Y-22443D01*
X71400Y-22471D01*
X71458Y-22529D01*
X71486Y-22586D01*
X71515Y-22700D01*
X71515Y-22786D01*
X71486Y-22900D01*
X71458Y-22957D01*
X71400Y-23014D01*
X71315Y-23043D01*
X71172Y-23043D01*
X72086Y-23043D02*
X71743Y-23043D01*
X71915Y-23043D02*
X71915Y-22443D01*
X71858Y-22529D01*
X71800Y-22586D01*
X71743Y-22614D01*
X72286Y-22443D02*
X72686Y-22443D01*
X72429Y-23043D01*
X54472Y-18343D02*
X54472Y-17743D01*
X54615Y-17743D01*
X54700Y-17771D01*
X54758Y-17829D01*
X54786Y-17886D01*
X54815Y-18000D01*
X54815Y-18086D01*
X54786Y-18200D01*
X54758Y-18257D01*
X54700Y-18314D01*
X54615Y-18343D01*
X54472Y-18343D01*
X55015Y-17743D02*
X55386Y-17743D01*
X55186Y-17971D01*
X55272Y-17971D01*
X55329Y-18000D01*
X55358Y-18029D01*
X55386Y-18086D01*
X55386Y-18229D01*
X55358Y-18286D01*
X55329Y-18314D01*
X55272Y-18343D01*
X55100Y-18343D01*
X55043Y-18314D01*
X55015Y-18286D01*
X55586Y-17743D02*
X55957Y-17743D01*
X55757Y-17971D01*
X55843Y-17971D01*
X55900Y-18000D01*
X55929Y-18029D01*
X55957Y-18086D01*
X55957Y-18229D01*
X55929Y-18286D01*
X55900Y-18314D01*
X55843Y-18343D01*
X55671Y-18343D01*
X55614Y-18314D01*
X55586Y-18286D01*
G54D18*
X63555Y-20983D02*
X63579Y-21007D01*
X63602Y-21078D01*
X63602Y-21126D01*
X63579Y-21198D01*
X63531Y-21245D01*
X63483Y-21269D01*
X63388Y-21293D01*
X63317Y-21293D01*
X63221Y-21269D01*
X63174Y-21245D01*
X63126Y-21198D01*
X63102Y-21126D01*
X63102Y-21078D01*
X63126Y-21007D01*
X63150Y-20983D01*
X63102Y-20817D02*
X63102Y-20507D01*
X63293Y-20674D01*
X63293Y-20602D01*
X63317Y-20555D01*
X63340Y-20531D01*
X63388Y-20507D01*
X63507Y-20507D01*
X63555Y-20531D01*
X63579Y-20555D01*
X63602Y-20602D01*
X63602Y-20745D01*
X63579Y-20793D01*
X63555Y-20817D01*
X63455Y-16083D02*
X63479Y-16107D01*
X63502Y-16178D01*
X63502Y-16226D01*
X63479Y-16298D01*
X63431Y-16345D01*
X63383Y-16369D01*
X63288Y-16393D01*
X63217Y-16393D01*
X63121Y-16369D01*
X63074Y-16345D01*
X63026Y-16298D01*
X63002Y-16226D01*
X63002Y-16178D01*
X63026Y-16107D01*
X63050Y-16083D01*
X63502Y-15607D02*
X63502Y-15893D01*
X63502Y-15750D02*
X63002Y-15750D01*
X63074Y-15798D01*
X63121Y-15845D01*
X63145Y-15893D01*
X53655Y-17983D02*
X53679Y-18007D01*
X53702Y-18078D01*
X53702Y-18126D01*
X53679Y-18198D01*
X53631Y-18245D01*
X53583Y-18269D01*
X53488Y-18293D01*
X53417Y-18293D01*
X53321Y-18269D01*
X53274Y-18245D01*
X53226Y-18198D01*
X53202Y-18126D01*
X53202Y-18078D01*
X53226Y-18007D01*
X53250Y-17983D01*
X53202Y-17555D02*
X53202Y-17650D01*
X53226Y-17698D01*
X53250Y-17721D01*
X53321Y-17769D01*
X53417Y-17793D01*
X53607Y-17793D01*
X53655Y-17769D01*
X53679Y-17745D01*
X53702Y-17698D01*
X53702Y-17602D01*
X53679Y-17555D01*
X53655Y-17531D01*
X53607Y-17507D01*
X53488Y-17507D01*
X53440Y-17531D01*
X53417Y-17555D01*
X53393Y-17602D01*
X53393Y-17698D01*
X53417Y-17745D01*
X53440Y-17769D01*
X53488Y-17793D01*
X46655Y-15583D02*
X46679Y-15607D01*
X46702Y-15678D01*
X46702Y-15726D01*
X46679Y-15798D01*
X46631Y-15845D01*
X46583Y-15869D01*
X46488Y-15893D01*
X46417Y-15893D01*
X46321Y-15869D01*
X46274Y-15845D01*
X46226Y-15798D01*
X46202Y-15726D01*
X46202Y-15678D01*
X46226Y-15607D01*
X46250Y-15583D01*
X46202Y-15131D02*
X46202Y-15369D01*
X46440Y-15393D01*
X46417Y-15369D01*
X46393Y-15321D01*
X46393Y-15202D01*
X46417Y-15155D01*
X46440Y-15131D01*
X46488Y-15107D01*
X46607Y-15107D01*
X46655Y-15131D01*
X46679Y-15155D01*
X46702Y-15202D01*
X46702Y-15321D01*
X46679Y-15369D01*
X46655Y-15393D01*
X56417Y-20855D02*
X56393Y-20879D01*
X56322Y-20902D01*
X56274Y-20902D01*
X56202Y-20879D01*
X56155Y-20831D01*
X56131Y-20783D01*
X56107Y-20688D01*
X56107Y-20617D01*
X56131Y-20521D01*
X56155Y-20474D01*
X56202Y-20426D01*
X56274Y-20402D01*
X56322Y-20402D01*
X56393Y-20426D01*
X56417Y-20450D01*
X56845Y-20569D02*
X56845Y-20902D01*
X56726Y-20379D02*
X56607Y-20736D01*
X56917Y-20736D01*
X69455Y-18783D02*
X69479Y-18807D01*
X69502Y-18878D01*
X69502Y-18926D01*
X69479Y-18998D01*
X69431Y-19045D01*
X69383Y-19069D01*
X69288Y-19093D01*
X69217Y-19093D01*
X69121Y-19069D01*
X69074Y-19045D01*
X69026Y-18998D01*
X69002Y-18926D01*
X69002Y-18878D01*
X69026Y-18807D01*
X69050Y-18783D01*
X69050Y-18593D02*
X69026Y-18569D01*
X69002Y-18521D01*
X69002Y-18402D01*
X69026Y-18355D01*
X69050Y-18331D01*
X69098Y-18307D01*
X69145Y-18307D01*
X69217Y-18331D01*
X69502Y-18617D01*
X69502Y-18307D01*
G54D11*
X60012Y-18702D02*
X60012Y-18202D01*
X60536Y-18655D02*
X60512Y-18679D01*
X60441Y-18702D01*
X60393Y-18702D01*
X60321Y-18679D01*
X60274Y-18631D01*
X60250Y-18583D01*
X60226Y-18488D01*
X60226Y-18417D01*
X60250Y-18321D01*
X60274Y-18274D01*
X60321Y-18226D01*
X60393Y-18202D01*
X60441Y-18202D01*
X60512Y-18226D01*
X60536Y-18250D01*
X60726Y-18250D02*
X60750Y-18226D01*
X60798Y-18202D01*
X60917Y-18202D01*
X60964Y-18226D01*
X60988Y-18250D01*
X61012Y-18298D01*
X61012Y-18345D01*
X60988Y-18417D01*
X60702Y-18702D01*
X61012Y-18702D01*
M02*
