G04 (created by PCBNEW (2011-04-28)-stable) date Sat 30 Jul 2011 04:44:11 AM CEST*
G01*
G70*
G90*
%MOIN*%
G04 Gerber Fmt 3.4, Leading zero omitted, Abs format*
%FSLAX34Y34*%
G04 APERTURE LIST*
%ADD10C,0.001000*%
%ADD11C,0.015000*%
%ADD12C,0.008000*%
G04 APERTURE END LIST*
G54D10*
G54D11*
X137800Y-49700D02*
X26200Y-49700D01*
X137800Y-63800D02*
X137800Y-49700D01*
X26200Y-63800D02*
X137800Y-63800D01*
X26200Y-49700D02*
X26200Y-63800D01*
G54D10*
X72827Y-54703D02*
X73077Y-54953D01*
X73077Y-54703D02*
X72827Y-54953D01*
X73825Y-58390D02*
X74075Y-58640D01*
X74075Y-58390D02*
X73825Y-58640D01*
X73984Y-57691D02*
X74234Y-57941D01*
X74234Y-57691D02*
X73984Y-57941D01*
X73993Y-55161D02*
X74243Y-55411D01*
X74243Y-55161D02*
X73993Y-55411D01*
X74459Y-60725D02*
X74709Y-60975D01*
X74709Y-60725D02*
X74459Y-60975D01*
X74961Y-61225D02*
X75211Y-61475D01*
X75211Y-61225D02*
X74961Y-61475D01*
X75871Y-57037D02*
X76121Y-57287D01*
X76121Y-57037D02*
X75871Y-57287D01*
X76468Y-56425D02*
X76718Y-56675D01*
X76718Y-56425D02*
X76468Y-56675D01*
X76664Y-57630D02*
X76914Y-57880D01*
X76914Y-57630D02*
X76664Y-57880D01*
X77060Y-58052D02*
X77310Y-58302D01*
X77310Y-58052D02*
X77060Y-58302D01*
X77200Y-59263D02*
X77450Y-59513D01*
X77450Y-59263D02*
X77200Y-59513D01*
X77607Y-57321D02*
X77857Y-57571D01*
X77857Y-57321D02*
X77607Y-57571D01*
X77615Y-55926D02*
X77865Y-56176D01*
X77865Y-55926D02*
X77615Y-56176D01*
X77615Y-59295D02*
X77865Y-59545D01*
X77865Y-59295D02*
X77615Y-59545D01*
X79020Y-56468D02*
X79270Y-56718D01*
X79270Y-56468D02*
X79020Y-56718D01*
X79205Y-58319D02*
X79455Y-58569D01*
X79455Y-58319D02*
X79205Y-58569D01*
X79506Y-59292D02*
X79756Y-59542D01*
X79756Y-59292D02*
X79506Y-59542D01*
X79794Y-58902D02*
X80044Y-59152D01*
X80044Y-58902D02*
X79794Y-59152D01*
X80143Y-60327D02*
X80393Y-60577D01*
X80393Y-60327D02*
X80143Y-60577D01*
X82166Y-52946D02*
X82416Y-53196D01*
X82416Y-52946D02*
X82166Y-53196D01*
X83175Y-52501D02*
X83425Y-52751D01*
X83425Y-52501D02*
X83175Y-52751D01*
X83691Y-56297D02*
X83941Y-56547D01*
X83941Y-56297D02*
X83691Y-56547D01*
X83820Y-55883D02*
X84070Y-56133D01*
X84070Y-55883D02*
X83820Y-56133D01*
X84475Y-56736D02*
X84725Y-56986D01*
X84725Y-56736D02*
X84475Y-56986D01*
X87296Y-57825D02*
X87546Y-58075D01*
X87546Y-57825D02*
X87296Y-58075D01*
X87675Y-50775D02*
X87925Y-51025D01*
X87925Y-50775D02*
X87675Y-51025D01*
X88059Y-53991D02*
X88309Y-54241D01*
X88309Y-53991D02*
X88059Y-54241D01*
X88296Y-56733D02*
X88546Y-56983D01*
X88546Y-56733D02*
X88296Y-56983D01*
X90418Y-55567D02*
X90668Y-55817D01*
X90668Y-55567D02*
X90418Y-55817D01*
X92522Y-56549D02*
X92772Y-56799D01*
X92772Y-56549D02*
X92522Y-56799D01*
X92880Y-56188D02*
X93130Y-56438D01*
X93130Y-56188D02*
X92880Y-56438D01*
X78960Y-52400D02*
X78956Y-52431D01*
X78947Y-52460D01*
X78933Y-52488D01*
X78913Y-52512D01*
X78889Y-52532D01*
X78862Y-52547D01*
X78832Y-52556D01*
X78801Y-52559D01*
X78771Y-52557D01*
X78741Y-52548D01*
X78713Y-52533D01*
X78689Y-52514D01*
X78668Y-52490D01*
X78653Y-52463D01*
X78644Y-52433D01*
X78641Y-52402D01*
X78643Y-52372D01*
X78652Y-52342D01*
X78666Y-52314D01*
X78685Y-52289D01*
X78709Y-52269D01*
X78736Y-52254D01*
X78766Y-52244D01*
X78797Y-52241D01*
X78827Y-52243D01*
X78857Y-52251D01*
X78885Y-52265D01*
X78910Y-52285D01*
X78930Y-52308D01*
X78946Y-52335D01*
X78956Y-52365D01*
X78959Y-52396D01*
X78960Y-52400D01*
X79960Y-52400D02*
X79956Y-52431D01*
X79947Y-52460D01*
X79933Y-52488D01*
X79913Y-52512D01*
X79889Y-52532D01*
X79862Y-52547D01*
X79832Y-52556D01*
X79801Y-52559D01*
X79771Y-52557D01*
X79741Y-52548D01*
X79713Y-52533D01*
X79689Y-52514D01*
X79668Y-52490D01*
X79653Y-52463D01*
X79644Y-52433D01*
X79641Y-52402D01*
X79643Y-52372D01*
X79652Y-52342D01*
X79666Y-52314D01*
X79685Y-52289D01*
X79709Y-52269D01*
X79736Y-52254D01*
X79766Y-52244D01*
X79797Y-52241D01*
X79827Y-52243D01*
X79857Y-52251D01*
X79885Y-52265D01*
X79910Y-52285D01*
X79930Y-52308D01*
X79946Y-52335D01*
X79956Y-52365D01*
X79959Y-52396D01*
X79960Y-52400D01*
X33600Y-55003D02*
X33600Y-55397D01*
X33797Y-55200D02*
X33403Y-55200D01*
X33600Y-58003D02*
X33600Y-58397D01*
X33797Y-58200D02*
X33403Y-58200D01*
X38500Y-53303D02*
X38500Y-53697D01*
X38697Y-53500D02*
X38303Y-53500D01*
X38500Y-55303D02*
X38500Y-55697D01*
X38697Y-55500D02*
X38303Y-55500D01*
X38500Y-57803D02*
X38500Y-58197D01*
X38697Y-58000D02*
X38303Y-58000D01*
X38500Y-59803D02*
X38500Y-60197D01*
X38697Y-60000D02*
X38303Y-60000D01*
X40500Y-53303D02*
X40500Y-53697D01*
X40697Y-53500D02*
X40303Y-53500D01*
X40500Y-55303D02*
X40500Y-55697D01*
X40697Y-55500D02*
X40303Y-55500D01*
X40500Y-57803D02*
X40500Y-58197D01*
X40697Y-58000D02*
X40303Y-58000D01*
X40500Y-59803D02*
X40500Y-60197D01*
X40697Y-60000D02*
X40303Y-60000D01*
X43000Y-53303D02*
X43000Y-53697D01*
X43197Y-53500D02*
X42803Y-53500D01*
X43000Y-55303D02*
X43000Y-55697D01*
X43197Y-55500D02*
X42803Y-55500D01*
X43000Y-57803D02*
X43000Y-58197D01*
X43197Y-58000D02*
X42803Y-58000D01*
X43000Y-59803D02*
X43000Y-60197D01*
X43197Y-60000D02*
X42803Y-60000D01*
X45000Y-53303D02*
X45000Y-53697D01*
X45197Y-53500D02*
X44803Y-53500D01*
X45000Y-55303D02*
X45000Y-55697D01*
X45197Y-55500D02*
X44803Y-55500D01*
X45000Y-57803D02*
X45000Y-58197D01*
X45197Y-58000D02*
X44803Y-58000D01*
X45000Y-59803D02*
X45000Y-60197D01*
X45197Y-60000D02*
X44803Y-60000D01*
X47500Y-53303D02*
X47500Y-53697D01*
X47697Y-53500D02*
X47303Y-53500D01*
X47500Y-55303D02*
X47500Y-55697D01*
X47697Y-55500D02*
X47303Y-55500D01*
X47500Y-57803D02*
X47500Y-58197D01*
X47697Y-58000D02*
X47303Y-58000D01*
X47500Y-59803D02*
X47500Y-60197D01*
X47697Y-60000D02*
X47303Y-60000D01*
X49500Y-53303D02*
X49500Y-53697D01*
X49697Y-53500D02*
X49303Y-53500D01*
X49500Y-55303D02*
X49500Y-55697D01*
X49697Y-55500D02*
X49303Y-55500D01*
X49500Y-57803D02*
X49500Y-58197D01*
X49697Y-58000D02*
X49303Y-58000D01*
X49500Y-59803D02*
X49500Y-60197D01*
X49697Y-60000D02*
X49303Y-60000D01*
X52000Y-53303D02*
X52000Y-53697D01*
X52197Y-53500D02*
X51803Y-53500D01*
X52000Y-55303D02*
X52000Y-55697D01*
X52197Y-55500D02*
X51803Y-55500D01*
X52000Y-57803D02*
X52000Y-58197D01*
X52197Y-58000D02*
X51803Y-58000D01*
X52000Y-59803D02*
X52000Y-60197D01*
X52197Y-60000D02*
X51803Y-60000D01*
X54000Y-53303D02*
X54000Y-53697D01*
X54197Y-53500D02*
X53803Y-53500D01*
X54000Y-55303D02*
X54000Y-55697D01*
X54197Y-55500D02*
X53803Y-55500D01*
X54000Y-57803D02*
X54000Y-58197D01*
X54197Y-58000D02*
X53803Y-58000D01*
X54000Y-59803D02*
X54000Y-60197D01*
X54197Y-60000D02*
X53803Y-60000D01*
X56500Y-53303D02*
X56500Y-53697D01*
X56697Y-53500D02*
X56303Y-53500D01*
X56500Y-55303D02*
X56500Y-55697D01*
X56697Y-55500D02*
X56303Y-55500D01*
X56500Y-57803D02*
X56500Y-58197D01*
X56697Y-58000D02*
X56303Y-58000D01*
X56500Y-59803D02*
X56500Y-60197D01*
X56697Y-60000D02*
X56303Y-60000D01*
X58500Y-53303D02*
X58500Y-53697D01*
X58697Y-53500D02*
X58303Y-53500D01*
X58500Y-55303D02*
X58500Y-55697D01*
X58697Y-55500D02*
X58303Y-55500D01*
X58500Y-57803D02*
X58500Y-58197D01*
X58697Y-58000D02*
X58303Y-58000D01*
X58500Y-59803D02*
X58500Y-60197D01*
X58697Y-60000D02*
X58303Y-60000D01*
X61000Y-53303D02*
X61000Y-53697D01*
X61197Y-53500D02*
X60803Y-53500D01*
X61000Y-55303D02*
X61000Y-55697D01*
X61197Y-55500D02*
X60803Y-55500D01*
X61000Y-57803D02*
X61000Y-58197D01*
X61197Y-58000D02*
X60803Y-58000D01*
X61000Y-59803D02*
X61000Y-60197D01*
X61197Y-60000D02*
X60803Y-60000D01*
X63000Y-53303D02*
X63000Y-53697D01*
X63197Y-53500D02*
X62803Y-53500D01*
X63000Y-55303D02*
X63000Y-55697D01*
X63197Y-55500D02*
X62803Y-55500D01*
X63000Y-57803D02*
X63000Y-58197D01*
X63197Y-58000D02*
X62803Y-58000D01*
X63000Y-59803D02*
X63000Y-60197D01*
X63197Y-60000D02*
X62803Y-60000D01*
X65500Y-53303D02*
X65500Y-53697D01*
X65697Y-53500D02*
X65303Y-53500D01*
X65500Y-55303D02*
X65500Y-55697D01*
X65697Y-55500D02*
X65303Y-55500D01*
X65500Y-57803D02*
X65500Y-58197D01*
X65697Y-58000D02*
X65303Y-58000D01*
X65500Y-59803D02*
X65500Y-60197D01*
X65697Y-60000D02*
X65303Y-60000D01*
X67500Y-53303D02*
X67500Y-53697D01*
X67697Y-53500D02*
X67303Y-53500D01*
X67500Y-55303D02*
X67500Y-55697D01*
X67697Y-55500D02*
X67303Y-55500D01*
X67500Y-57803D02*
X67500Y-58197D01*
X67697Y-58000D02*
X67303Y-58000D01*
X67500Y-59803D02*
X67500Y-60197D01*
X67697Y-60000D02*
X67303Y-60000D01*
X70000Y-53303D02*
X70000Y-53697D01*
X70197Y-53500D02*
X69803Y-53500D01*
X70000Y-55303D02*
X70000Y-55697D01*
X70197Y-55500D02*
X69803Y-55500D01*
X70000Y-57803D02*
X70000Y-58197D01*
X70197Y-58000D02*
X69803Y-58000D01*
X70000Y-59803D02*
X70000Y-60197D01*
X70197Y-60000D02*
X69803Y-60000D01*
X72000Y-53303D02*
X72000Y-53697D01*
X72197Y-53500D02*
X71803Y-53500D01*
X72000Y-55303D02*
X72000Y-55697D01*
X72197Y-55500D02*
X71803Y-55500D01*
X72000Y-57803D02*
X72000Y-58197D01*
X72197Y-58000D02*
X71803Y-58000D01*
X72000Y-59803D02*
X72000Y-60197D01*
X72197Y-60000D02*
X71803Y-60000D01*
X92000Y-53303D02*
X92000Y-53697D01*
X92197Y-53500D02*
X91803Y-53500D01*
X92000Y-55303D02*
X92000Y-55697D01*
X92197Y-55500D02*
X91803Y-55500D01*
X92000Y-57803D02*
X92000Y-58197D01*
X92197Y-58000D02*
X91803Y-58000D01*
X92000Y-59803D02*
X92000Y-60197D01*
X92197Y-60000D02*
X91803Y-60000D01*
X94000Y-53303D02*
X94000Y-53697D01*
X94197Y-53500D02*
X93803Y-53500D01*
X94000Y-55303D02*
X94000Y-55697D01*
X94197Y-55500D02*
X93803Y-55500D01*
X94000Y-57803D02*
X94000Y-58197D01*
X94197Y-58000D02*
X93803Y-58000D01*
X94000Y-59803D02*
X94000Y-60197D01*
X94197Y-60000D02*
X93803Y-60000D01*
X96500Y-53303D02*
X96500Y-53697D01*
X96697Y-53500D02*
X96303Y-53500D01*
X96500Y-55303D02*
X96500Y-55697D01*
X96697Y-55500D02*
X96303Y-55500D01*
X96500Y-57803D02*
X96500Y-58197D01*
X96697Y-58000D02*
X96303Y-58000D01*
X96500Y-59803D02*
X96500Y-60197D01*
X96697Y-60000D02*
X96303Y-60000D01*
X98500Y-53303D02*
X98500Y-53697D01*
X98697Y-53500D02*
X98303Y-53500D01*
X98500Y-55303D02*
X98500Y-55697D01*
X98697Y-55500D02*
X98303Y-55500D01*
X98500Y-57803D02*
X98500Y-58197D01*
X98697Y-58000D02*
X98303Y-58000D01*
X98500Y-59803D02*
X98500Y-60197D01*
X98697Y-60000D02*
X98303Y-60000D01*
X100900Y-53303D02*
X100900Y-53697D01*
X101097Y-53500D02*
X100703Y-53500D01*
X100900Y-55303D02*
X100900Y-55697D01*
X101097Y-55500D02*
X100703Y-55500D01*
X100900Y-57803D02*
X100900Y-58197D01*
X101097Y-58000D02*
X100703Y-58000D01*
X100900Y-59803D02*
X100900Y-60197D01*
X101097Y-60000D02*
X100703Y-60000D01*
X102900Y-53303D02*
X102900Y-53697D01*
X103097Y-53500D02*
X102703Y-53500D01*
X102900Y-55303D02*
X102900Y-55697D01*
X103097Y-55500D02*
X102703Y-55500D01*
X102900Y-57803D02*
X102900Y-58197D01*
X103097Y-58000D02*
X102703Y-58000D01*
X102900Y-59803D02*
X102900Y-60197D01*
X103097Y-60000D02*
X102703Y-60000D01*
X105500Y-53303D02*
X105500Y-53697D01*
X105697Y-53500D02*
X105303Y-53500D01*
X105500Y-55303D02*
X105500Y-55697D01*
X105697Y-55500D02*
X105303Y-55500D01*
X105500Y-57803D02*
X105500Y-58197D01*
X105697Y-58000D02*
X105303Y-58000D01*
X105500Y-59803D02*
X105500Y-60197D01*
X105697Y-60000D02*
X105303Y-60000D01*
X107500Y-53303D02*
X107500Y-53697D01*
X107697Y-53500D02*
X107303Y-53500D01*
X107500Y-55303D02*
X107500Y-55697D01*
X107697Y-55500D02*
X107303Y-55500D01*
X107500Y-57803D02*
X107500Y-58197D01*
X107697Y-58000D02*
X107303Y-58000D01*
X107500Y-59803D02*
X107500Y-60197D01*
X107697Y-60000D02*
X107303Y-60000D01*
X110000Y-53303D02*
X110000Y-53697D01*
X110197Y-53500D02*
X109803Y-53500D01*
X110000Y-55303D02*
X110000Y-55697D01*
X110197Y-55500D02*
X109803Y-55500D01*
X110000Y-57803D02*
X110000Y-58197D01*
X110197Y-58000D02*
X109803Y-58000D01*
X110000Y-59803D02*
X110000Y-60197D01*
X110197Y-60000D02*
X109803Y-60000D01*
X112000Y-53303D02*
X112000Y-53697D01*
X112197Y-53500D02*
X111803Y-53500D01*
X112000Y-55303D02*
X112000Y-55697D01*
X112197Y-55500D02*
X111803Y-55500D01*
X112000Y-57803D02*
X112000Y-58197D01*
X112197Y-58000D02*
X111803Y-58000D01*
X112000Y-59803D02*
X112000Y-60197D01*
X112197Y-60000D02*
X111803Y-60000D01*
X114600Y-53303D02*
X114600Y-53697D01*
X114797Y-53500D02*
X114403Y-53500D01*
X114600Y-55303D02*
X114600Y-55697D01*
X114797Y-55500D02*
X114403Y-55500D01*
X114600Y-57803D02*
X114600Y-58197D01*
X114797Y-58000D02*
X114403Y-58000D01*
X114600Y-59803D02*
X114600Y-60197D01*
X114797Y-60000D02*
X114403Y-60000D01*
X116600Y-53303D02*
X116600Y-53697D01*
X116797Y-53500D02*
X116403Y-53500D01*
X116600Y-55303D02*
X116600Y-55697D01*
X116797Y-55500D02*
X116403Y-55500D01*
X116600Y-57803D02*
X116600Y-58197D01*
X116797Y-58000D02*
X116403Y-58000D01*
X116600Y-59803D02*
X116600Y-60197D01*
X116797Y-60000D02*
X116403Y-60000D01*
X119000Y-53303D02*
X119000Y-53697D01*
X119197Y-53500D02*
X118803Y-53500D01*
X119000Y-55303D02*
X119000Y-55697D01*
X119197Y-55500D02*
X118803Y-55500D01*
X119000Y-57803D02*
X119000Y-58197D01*
X119197Y-58000D02*
X118803Y-58000D01*
X119000Y-59803D02*
X119000Y-60197D01*
X119197Y-60000D02*
X118803Y-60000D01*
X121000Y-53303D02*
X121000Y-53697D01*
X121197Y-53500D02*
X120803Y-53500D01*
X121000Y-55303D02*
X121000Y-55697D01*
X121197Y-55500D02*
X120803Y-55500D01*
X121000Y-57803D02*
X121000Y-58197D01*
X121197Y-58000D02*
X120803Y-58000D01*
X121000Y-59803D02*
X121000Y-60197D01*
X121197Y-60000D02*
X120803Y-60000D01*
X123500Y-53303D02*
X123500Y-53697D01*
X123697Y-53500D02*
X123303Y-53500D01*
X123500Y-55303D02*
X123500Y-55697D01*
X123697Y-55500D02*
X123303Y-55500D01*
X123500Y-57803D02*
X123500Y-58197D01*
X123697Y-58000D02*
X123303Y-58000D01*
X123500Y-59803D02*
X123500Y-60197D01*
X123697Y-60000D02*
X123303Y-60000D01*
X125500Y-53303D02*
X125500Y-53697D01*
X125697Y-53500D02*
X125303Y-53500D01*
X125500Y-55303D02*
X125500Y-55697D01*
X125697Y-55500D02*
X125303Y-55500D01*
X125500Y-57803D02*
X125500Y-58197D01*
X125697Y-58000D02*
X125303Y-58000D01*
X125500Y-59803D02*
X125500Y-60197D01*
X125697Y-60000D02*
X125303Y-60000D01*
X130500Y-55003D02*
X130500Y-55397D01*
X130697Y-55200D02*
X130303Y-55200D01*
X130500Y-58003D02*
X130500Y-58397D01*
X130697Y-58200D02*
X130303Y-58200D01*
X28000Y-53200D02*
X27996Y-53238D01*
X27984Y-53276D01*
X27966Y-53310D01*
X27941Y-53340D01*
X27911Y-53365D01*
X27877Y-53384D01*
X27840Y-53395D01*
X27801Y-53399D01*
X27763Y-53396D01*
X27726Y-53385D01*
X27691Y-53367D01*
X27661Y-53342D01*
X27635Y-53312D01*
X27617Y-53278D01*
X27605Y-53241D01*
X27601Y-53202D01*
X27604Y-53164D01*
X27615Y-53127D01*
X27632Y-53092D01*
X27657Y-53062D01*
X27686Y-53036D01*
X27720Y-53017D01*
X27758Y-53005D01*
X27796Y-53001D01*
X27834Y-53004D01*
X27872Y-53014D01*
X27907Y-53032D01*
X27937Y-53056D01*
X27963Y-53085D01*
X27982Y-53119D01*
X27995Y-53156D01*
X27999Y-53195D01*
X28000Y-53200D01*
X27600Y-53000D02*
X28000Y-53400D01*
X28000Y-53000D02*
X27600Y-53400D01*
X28000Y-54200D02*
X27996Y-54238D01*
X27984Y-54276D01*
X27966Y-54310D01*
X27941Y-54340D01*
X27911Y-54365D01*
X27877Y-54384D01*
X27840Y-54395D01*
X27801Y-54399D01*
X27763Y-54396D01*
X27726Y-54385D01*
X27691Y-54367D01*
X27661Y-54342D01*
X27635Y-54312D01*
X27617Y-54278D01*
X27605Y-54241D01*
X27601Y-54202D01*
X27604Y-54164D01*
X27615Y-54127D01*
X27632Y-54092D01*
X27657Y-54062D01*
X27686Y-54036D01*
X27720Y-54017D01*
X27758Y-54005D01*
X27796Y-54001D01*
X27834Y-54004D01*
X27872Y-54014D01*
X27907Y-54032D01*
X27937Y-54056D01*
X27963Y-54085D01*
X27982Y-54119D01*
X27995Y-54156D01*
X27999Y-54195D01*
X28000Y-54200D01*
X27600Y-54000D02*
X28000Y-54400D01*
X28000Y-54000D02*
X27600Y-54400D01*
X28000Y-55200D02*
X27996Y-55238D01*
X27984Y-55276D01*
X27966Y-55310D01*
X27941Y-55340D01*
X27911Y-55365D01*
X27877Y-55384D01*
X27840Y-55395D01*
X27801Y-55399D01*
X27763Y-55396D01*
X27726Y-55385D01*
X27691Y-55367D01*
X27661Y-55342D01*
X27635Y-55312D01*
X27617Y-55278D01*
X27605Y-55241D01*
X27601Y-55202D01*
X27604Y-55164D01*
X27615Y-55127D01*
X27632Y-55092D01*
X27657Y-55062D01*
X27686Y-55036D01*
X27720Y-55017D01*
X27758Y-55005D01*
X27796Y-55001D01*
X27834Y-55004D01*
X27872Y-55014D01*
X27907Y-55032D01*
X27937Y-55056D01*
X27963Y-55085D01*
X27982Y-55119D01*
X27995Y-55156D01*
X27999Y-55195D01*
X28000Y-55200D01*
X27600Y-55000D02*
X28000Y-55400D01*
X28000Y-55000D02*
X27600Y-55400D01*
X28000Y-56200D02*
X27996Y-56238D01*
X27984Y-56276D01*
X27966Y-56310D01*
X27941Y-56340D01*
X27911Y-56365D01*
X27877Y-56384D01*
X27840Y-56395D01*
X27801Y-56399D01*
X27763Y-56396D01*
X27726Y-56385D01*
X27691Y-56367D01*
X27661Y-56342D01*
X27635Y-56312D01*
X27617Y-56278D01*
X27605Y-56241D01*
X27601Y-56202D01*
X27604Y-56164D01*
X27615Y-56127D01*
X27632Y-56092D01*
X27657Y-56062D01*
X27686Y-56036D01*
X27720Y-56017D01*
X27758Y-56005D01*
X27796Y-56001D01*
X27834Y-56004D01*
X27872Y-56014D01*
X27907Y-56032D01*
X27937Y-56056D01*
X27963Y-56085D01*
X27982Y-56119D01*
X27995Y-56156D01*
X27999Y-56195D01*
X28000Y-56200D01*
X27600Y-56000D02*
X28000Y-56400D01*
X28000Y-56000D02*
X27600Y-56400D01*
X28000Y-57200D02*
X27996Y-57238D01*
X27984Y-57276D01*
X27966Y-57310D01*
X27941Y-57340D01*
X27911Y-57365D01*
X27877Y-57384D01*
X27840Y-57395D01*
X27801Y-57399D01*
X27763Y-57396D01*
X27726Y-57385D01*
X27691Y-57367D01*
X27661Y-57342D01*
X27635Y-57312D01*
X27617Y-57278D01*
X27605Y-57241D01*
X27601Y-57202D01*
X27604Y-57164D01*
X27615Y-57127D01*
X27632Y-57092D01*
X27657Y-57062D01*
X27686Y-57036D01*
X27720Y-57017D01*
X27758Y-57005D01*
X27796Y-57001D01*
X27834Y-57004D01*
X27872Y-57014D01*
X27907Y-57032D01*
X27937Y-57056D01*
X27963Y-57085D01*
X27982Y-57119D01*
X27995Y-57156D01*
X27999Y-57195D01*
X28000Y-57200D01*
X27600Y-57000D02*
X28000Y-57400D01*
X28000Y-57000D02*
X27600Y-57400D01*
X28000Y-58200D02*
X27996Y-58238D01*
X27984Y-58276D01*
X27966Y-58310D01*
X27941Y-58340D01*
X27911Y-58365D01*
X27877Y-58384D01*
X27840Y-58395D01*
X27801Y-58399D01*
X27763Y-58396D01*
X27726Y-58385D01*
X27691Y-58367D01*
X27661Y-58342D01*
X27635Y-58312D01*
X27617Y-58278D01*
X27605Y-58241D01*
X27601Y-58202D01*
X27604Y-58164D01*
X27615Y-58127D01*
X27632Y-58092D01*
X27657Y-58062D01*
X27686Y-58036D01*
X27720Y-58017D01*
X27758Y-58005D01*
X27796Y-58001D01*
X27834Y-58004D01*
X27872Y-58014D01*
X27907Y-58032D01*
X27937Y-58056D01*
X27963Y-58085D01*
X27982Y-58119D01*
X27995Y-58156D01*
X27999Y-58195D01*
X28000Y-58200D01*
X27600Y-58000D02*
X28000Y-58400D01*
X28000Y-58000D02*
X27600Y-58400D01*
X28000Y-59200D02*
X27996Y-59238D01*
X27984Y-59276D01*
X27966Y-59310D01*
X27941Y-59340D01*
X27911Y-59365D01*
X27877Y-59384D01*
X27840Y-59395D01*
X27801Y-59399D01*
X27763Y-59396D01*
X27726Y-59385D01*
X27691Y-59367D01*
X27661Y-59342D01*
X27635Y-59312D01*
X27617Y-59278D01*
X27605Y-59241D01*
X27601Y-59202D01*
X27604Y-59164D01*
X27615Y-59127D01*
X27632Y-59092D01*
X27657Y-59062D01*
X27686Y-59036D01*
X27720Y-59017D01*
X27758Y-59005D01*
X27796Y-59001D01*
X27834Y-59004D01*
X27872Y-59014D01*
X27907Y-59032D01*
X27937Y-59056D01*
X27963Y-59085D01*
X27982Y-59119D01*
X27995Y-59156D01*
X27999Y-59195D01*
X28000Y-59200D01*
X27600Y-59000D02*
X28000Y-59400D01*
X28000Y-59000D02*
X27600Y-59400D01*
X28000Y-60200D02*
X27996Y-60238D01*
X27984Y-60276D01*
X27966Y-60310D01*
X27941Y-60340D01*
X27911Y-60365D01*
X27877Y-60384D01*
X27840Y-60395D01*
X27801Y-60399D01*
X27763Y-60396D01*
X27726Y-60385D01*
X27691Y-60367D01*
X27661Y-60342D01*
X27635Y-60312D01*
X27617Y-60278D01*
X27605Y-60241D01*
X27601Y-60202D01*
X27604Y-60164D01*
X27615Y-60127D01*
X27632Y-60092D01*
X27657Y-60062D01*
X27686Y-60036D01*
X27720Y-60017D01*
X27758Y-60005D01*
X27796Y-60001D01*
X27834Y-60004D01*
X27872Y-60014D01*
X27907Y-60032D01*
X27937Y-60056D01*
X27963Y-60085D01*
X27982Y-60119D01*
X27995Y-60156D01*
X27999Y-60195D01*
X28000Y-60200D01*
X27600Y-60000D02*
X28000Y-60400D01*
X28000Y-60000D02*
X27600Y-60400D01*
X29000Y-53200D02*
X28996Y-53238D01*
X28984Y-53276D01*
X28966Y-53310D01*
X28941Y-53340D01*
X28911Y-53365D01*
X28877Y-53384D01*
X28840Y-53395D01*
X28801Y-53399D01*
X28763Y-53396D01*
X28726Y-53385D01*
X28691Y-53367D01*
X28661Y-53342D01*
X28635Y-53312D01*
X28617Y-53278D01*
X28605Y-53241D01*
X28601Y-53202D01*
X28604Y-53164D01*
X28615Y-53127D01*
X28632Y-53092D01*
X28657Y-53062D01*
X28686Y-53036D01*
X28720Y-53017D01*
X28758Y-53005D01*
X28796Y-53001D01*
X28834Y-53004D01*
X28872Y-53014D01*
X28907Y-53032D01*
X28937Y-53056D01*
X28963Y-53085D01*
X28982Y-53119D01*
X28995Y-53156D01*
X28999Y-53195D01*
X29000Y-53200D01*
X28600Y-53000D02*
X29000Y-53400D01*
X29000Y-53000D02*
X28600Y-53400D01*
X29000Y-54200D02*
X28996Y-54238D01*
X28984Y-54276D01*
X28966Y-54310D01*
X28941Y-54340D01*
X28911Y-54365D01*
X28877Y-54384D01*
X28840Y-54395D01*
X28801Y-54399D01*
X28763Y-54396D01*
X28726Y-54385D01*
X28691Y-54367D01*
X28661Y-54342D01*
X28635Y-54312D01*
X28617Y-54278D01*
X28605Y-54241D01*
X28601Y-54202D01*
X28604Y-54164D01*
X28615Y-54127D01*
X28632Y-54092D01*
X28657Y-54062D01*
X28686Y-54036D01*
X28720Y-54017D01*
X28758Y-54005D01*
X28796Y-54001D01*
X28834Y-54004D01*
X28872Y-54014D01*
X28907Y-54032D01*
X28937Y-54056D01*
X28963Y-54085D01*
X28982Y-54119D01*
X28995Y-54156D01*
X28999Y-54195D01*
X29000Y-54200D01*
X28600Y-54000D02*
X29000Y-54400D01*
X29000Y-54000D02*
X28600Y-54400D01*
X29000Y-55200D02*
X28996Y-55238D01*
X28984Y-55276D01*
X28966Y-55310D01*
X28941Y-55340D01*
X28911Y-55365D01*
X28877Y-55384D01*
X28840Y-55395D01*
X28801Y-55399D01*
X28763Y-55396D01*
X28726Y-55385D01*
X28691Y-55367D01*
X28661Y-55342D01*
X28635Y-55312D01*
X28617Y-55278D01*
X28605Y-55241D01*
X28601Y-55202D01*
X28604Y-55164D01*
X28615Y-55127D01*
X28632Y-55092D01*
X28657Y-55062D01*
X28686Y-55036D01*
X28720Y-55017D01*
X28758Y-55005D01*
X28796Y-55001D01*
X28834Y-55004D01*
X28872Y-55014D01*
X28907Y-55032D01*
X28937Y-55056D01*
X28963Y-55085D01*
X28982Y-55119D01*
X28995Y-55156D01*
X28999Y-55195D01*
X29000Y-55200D01*
X28600Y-55000D02*
X29000Y-55400D01*
X29000Y-55000D02*
X28600Y-55400D01*
X29000Y-56200D02*
X28996Y-56238D01*
X28984Y-56276D01*
X28966Y-56310D01*
X28941Y-56340D01*
X28911Y-56365D01*
X28877Y-56384D01*
X28840Y-56395D01*
X28801Y-56399D01*
X28763Y-56396D01*
X28726Y-56385D01*
X28691Y-56367D01*
X28661Y-56342D01*
X28635Y-56312D01*
X28617Y-56278D01*
X28605Y-56241D01*
X28601Y-56202D01*
X28604Y-56164D01*
X28615Y-56127D01*
X28632Y-56092D01*
X28657Y-56062D01*
X28686Y-56036D01*
X28720Y-56017D01*
X28758Y-56005D01*
X28796Y-56001D01*
X28834Y-56004D01*
X28872Y-56014D01*
X28907Y-56032D01*
X28937Y-56056D01*
X28963Y-56085D01*
X28982Y-56119D01*
X28995Y-56156D01*
X28999Y-56195D01*
X29000Y-56200D01*
X28600Y-56000D02*
X29000Y-56400D01*
X29000Y-56000D02*
X28600Y-56400D01*
X29000Y-57200D02*
X28996Y-57238D01*
X28984Y-57276D01*
X28966Y-57310D01*
X28941Y-57340D01*
X28911Y-57365D01*
X28877Y-57384D01*
X28840Y-57395D01*
X28801Y-57399D01*
X28763Y-57396D01*
X28726Y-57385D01*
X28691Y-57367D01*
X28661Y-57342D01*
X28635Y-57312D01*
X28617Y-57278D01*
X28605Y-57241D01*
X28601Y-57202D01*
X28604Y-57164D01*
X28615Y-57127D01*
X28632Y-57092D01*
X28657Y-57062D01*
X28686Y-57036D01*
X28720Y-57017D01*
X28758Y-57005D01*
X28796Y-57001D01*
X28834Y-57004D01*
X28872Y-57014D01*
X28907Y-57032D01*
X28937Y-57056D01*
X28963Y-57085D01*
X28982Y-57119D01*
X28995Y-57156D01*
X28999Y-57195D01*
X29000Y-57200D01*
X28600Y-57000D02*
X29000Y-57400D01*
X29000Y-57000D02*
X28600Y-57400D01*
X29000Y-58200D02*
X28996Y-58238D01*
X28984Y-58276D01*
X28966Y-58310D01*
X28941Y-58340D01*
X28911Y-58365D01*
X28877Y-58384D01*
X28840Y-58395D01*
X28801Y-58399D01*
X28763Y-58396D01*
X28726Y-58385D01*
X28691Y-58367D01*
X28661Y-58342D01*
X28635Y-58312D01*
X28617Y-58278D01*
X28605Y-58241D01*
X28601Y-58202D01*
X28604Y-58164D01*
X28615Y-58127D01*
X28632Y-58092D01*
X28657Y-58062D01*
X28686Y-58036D01*
X28720Y-58017D01*
X28758Y-58005D01*
X28796Y-58001D01*
X28834Y-58004D01*
X28872Y-58014D01*
X28907Y-58032D01*
X28937Y-58056D01*
X28963Y-58085D01*
X28982Y-58119D01*
X28995Y-58156D01*
X28999Y-58195D01*
X29000Y-58200D01*
X28600Y-58000D02*
X29000Y-58400D01*
X29000Y-58000D02*
X28600Y-58400D01*
X29000Y-59200D02*
X28996Y-59238D01*
X28984Y-59276D01*
X28966Y-59310D01*
X28941Y-59340D01*
X28911Y-59365D01*
X28877Y-59384D01*
X28840Y-59395D01*
X28801Y-59399D01*
X28763Y-59396D01*
X28726Y-59385D01*
X28691Y-59367D01*
X28661Y-59342D01*
X28635Y-59312D01*
X28617Y-59278D01*
X28605Y-59241D01*
X28601Y-59202D01*
X28604Y-59164D01*
X28615Y-59127D01*
X28632Y-59092D01*
X28657Y-59062D01*
X28686Y-59036D01*
X28720Y-59017D01*
X28758Y-59005D01*
X28796Y-59001D01*
X28834Y-59004D01*
X28872Y-59014D01*
X28907Y-59032D01*
X28937Y-59056D01*
X28963Y-59085D01*
X28982Y-59119D01*
X28995Y-59156D01*
X28999Y-59195D01*
X29000Y-59200D01*
X28600Y-59000D02*
X29000Y-59400D01*
X29000Y-59000D02*
X28600Y-59400D01*
X29000Y-60200D02*
X28996Y-60238D01*
X28984Y-60276D01*
X28966Y-60310D01*
X28941Y-60340D01*
X28911Y-60365D01*
X28877Y-60384D01*
X28840Y-60395D01*
X28801Y-60399D01*
X28763Y-60396D01*
X28726Y-60385D01*
X28691Y-60367D01*
X28661Y-60342D01*
X28635Y-60312D01*
X28617Y-60278D01*
X28605Y-60241D01*
X28601Y-60202D01*
X28604Y-60164D01*
X28615Y-60127D01*
X28632Y-60092D01*
X28657Y-60062D01*
X28686Y-60036D01*
X28720Y-60017D01*
X28758Y-60005D01*
X28796Y-60001D01*
X28834Y-60004D01*
X28872Y-60014D01*
X28907Y-60032D01*
X28937Y-60056D01*
X28963Y-60085D01*
X28982Y-60119D01*
X28995Y-60156D01*
X28999Y-60195D01*
X29000Y-60200D01*
X28600Y-60000D02*
X29000Y-60400D01*
X29000Y-60000D02*
X28600Y-60400D01*
X75500Y-51575D02*
X75496Y-51613D01*
X75484Y-51651D01*
X75466Y-51685D01*
X75441Y-51715D01*
X75411Y-51740D01*
X75377Y-51759D01*
X75340Y-51770D01*
X75301Y-51774D01*
X75263Y-51771D01*
X75226Y-51760D01*
X75191Y-51742D01*
X75161Y-51717D01*
X75135Y-51687D01*
X75117Y-51653D01*
X75105Y-51616D01*
X75101Y-51577D01*
X75104Y-51539D01*
X75115Y-51502D01*
X75132Y-51467D01*
X75157Y-51437D01*
X75186Y-51411D01*
X75220Y-51392D01*
X75258Y-51380D01*
X75296Y-51376D01*
X75334Y-51379D01*
X75372Y-51389D01*
X75407Y-51407D01*
X75437Y-51431D01*
X75463Y-51460D01*
X75482Y-51494D01*
X75495Y-51531D01*
X75499Y-51570D01*
X75500Y-51575D01*
X75100Y-51375D02*
X75500Y-51775D01*
X75500Y-51375D02*
X75100Y-51775D01*
X75500Y-53325D02*
X75496Y-53363D01*
X75484Y-53401D01*
X75466Y-53435D01*
X75441Y-53465D01*
X75411Y-53490D01*
X75377Y-53509D01*
X75340Y-53520D01*
X75301Y-53524D01*
X75263Y-53521D01*
X75226Y-53510D01*
X75191Y-53492D01*
X75161Y-53467D01*
X75135Y-53437D01*
X75117Y-53403D01*
X75105Y-53366D01*
X75101Y-53327D01*
X75104Y-53289D01*
X75115Y-53252D01*
X75132Y-53217D01*
X75157Y-53187D01*
X75186Y-53161D01*
X75220Y-53142D01*
X75258Y-53130D01*
X75296Y-53126D01*
X75334Y-53129D01*
X75372Y-53139D01*
X75407Y-53157D01*
X75437Y-53181D01*
X75463Y-53210D01*
X75482Y-53244D01*
X75495Y-53281D01*
X75499Y-53320D01*
X75500Y-53325D01*
X75100Y-53125D02*
X75500Y-53525D01*
X75500Y-53125D02*
X75100Y-53525D01*
X78050Y-51575D02*
X78046Y-51613D01*
X78034Y-51651D01*
X78016Y-51685D01*
X77991Y-51715D01*
X77961Y-51740D01*
X77927Y-51759D01*
X77890Y-51770D01*
X77851Y-51774D01*
X77813Y-51771D01*
X77776Y-51760D01*
X77741Y-51742D01*
X77711Y-51717D01*
X77685Y-51687D01*
X77667Y-51653D01*
X77655Y-51616D01*
X77651Y-51577D01*
X77654Y-51539D01*
X77665Y-51502D01*
X77682Y-51467D01*
X77707Y-51437D01*
X77736Y-51411D01*
X77770Y-51392D01*
X77808Y-51380D01*
X77846Y-51376D01*
X77884Y-51379D01*
X77922Y-51389D01*
X77957Y-51407D01*
X77987Y-51431D01*
X78013Y-51460D01*
X78032Y-51494D01*
X78045Y-51531D01*
X78049Y-51570D01*
X78050Y-51575D01*
X77650Y-51375D02*
X78050Y-51775D01*
X78050Y-51375D02*
X77650Y-51775D01*
X78050Y-53325D02*
X78046Y-53363D01*
X78034Y-53401D01*
X78016Y-53435D01*
X77991Y-53465D01*
X77961Y-53490D01*
X77927Y-53509D01*
X77890Y-53520D01*
X77851Y-53524D01*
X77813Y-53521D01*
X77776Y-53510D01*
X77741Y-53492D01*
X77711Y-53467D01*
X77685Y-53437D01*
X77667Y-53403D01*
X77655Y-53366D01*
X77651Y-53327D01*
X77654Y-53289D01*
X77665Y-53252D01*
X77682Y-53217D01*
X77707Y-53187D01*
X77736Y-53161D01*
X77770Y-53142D01*
X77808Y-53130D01*
X77846Y-53126D01*
X77884Y-53129D01*
X77922Y-53139D01*
X77957Y-53157D01*
X77987Y-53181D01*
X78013Y-53210D01*
X78032Y-53244D01*
X78045Y-53281D01*
X78049Y-53320D01*
X78050Y-53325D01*
X77650Y-53125D02*
X78050Y-53525D01*
X78050Y-53125D02*
X77650Y-53525D01*
X80900Y-51575D02*
X80896Y-51613D01*
X80884Y-51651D01*
X80866Y-51685D01*
X80841Y-51715D01*
X80811Y-51740D01*
X80777Y-51759D01*
X80740Y-51770D01*
X80701Y-51774D01*
X80663Y-51771D01*
X80626Y-51760D01*
X80591Y-51742D01*
X80561Y-51717D01*
X80535Y-51687D01*
X80517Y-51653D01*
X80505Y-51616D01*
X80501Y-51577D01*
X80504Y-51539D01*
X80515Y-51502D01*
X80532Y-51467D01*
X80557Y-51437D01*
X80586Y-51411D01*
X80620Y-51392D01*
X80658Y-51380D01*
X80696Y-51376D01*
X80734Y-51379D01*
X80772Y-51389D01*
X80807Y-51407D01*
X80837Y-51431D01*
X80863Y-51460D01*
X80882Y-51494D01*
X80895Y-51531D01*
X80899Y-51570D01*
X80900Y-51575D01*
X80500Y-51375D02*
X80900Y-51775D01*
X80900Y-51375D02*
X80500Y-51775D01*
X80900Y-53325D02*
X80896Y-53363D01*
X80884Y-53401D01*
X80866Y-53435D01*
X80841Y-53465D01*
X80811Y-53490D01*
X80777Y-53509D01*
X80740Y-53520D01*
X80701Y-53524D01*
X80663Y-53521D01*
X80626Y-53510D01*
X80591Y-53492D01*
X80561Y-53467D01*
X80535Y-53437D01*
X80517Y-53403D01*
X80505Y-53366D01*
X80501Y-53327D01*
X80504Y-53289D01*
X80515Y-53252D01*
X80532Y-53217D01*
X80557Y-53187D01*
X80586Y-53161D01*
X80620Y-53142D01*
X80658Y-53130D01*
X80696Y-53126D01*
X80734Y-53129D01*
X80772Y-53139D01*
X80807Y-53157D01*
X80837Y-53181D01*
X80863Y-53210D01*
X80882Y-53244D01*
X80895Y-53281D01*
X80899Y-53320D01*
X80900Y-53325D01*
X80500Y-53125D02*
X80900Y-53525D01*
X80900Y-53125D02*
X80500Y-53525D01*
X81300Y-55200D02*
X81296Y-55238D01*
X81284Y-55276D01*
X81266Y-55310D01*
X81241Y-55340D01*
X81211Y-55365D01*
X81177Y-55384D01*
X81140Y-55395D01*
X81101Y-55399D01*
X81063Y-55396D01*
X81026Y-55385D01*
X80991Y-55367D01*
X80961Y-55342D01*
X80935Y-55312D01*
X80917Y-55278D01*
X80905Y-55241D01*
X80901Y-55202D01*
X80904Y-55164D01*
X80915Y-55127D01*
X80932Y-55092D01*
X80957Y-55062D01*
X80986Y-55036D01*
X81020Y-55017D01*
X81058Y-55005D01*
X81096Y-55001D01*
X81134Y-55004D01*
X81172Y-55014D01*
X81207Y-55032D01*
X81237Y-55056D01*
X81263Y-55085D01*
X81282Y-55119D01*
X81295Y-55156D01*
X81299Y-55195D01*
X81300Y-55200D01*
X80900Y-55000D02*
X81300Y-55400D01*
X81300Y-55000D02*
X80900Y-55400D01*
X81300Y-56200D02*
X81296Y-56238D01*
X81284Y-56276D01*
X81266Y-56310D01*
X81241Y-56340D01*
X81211Y-56365D01*
X81177Y-56384D01*
X81140Y-56395D01*
X81101Y-56399D01*
X81063Y-56396D01*
X81026Y-56385D01*
X80991Y-56367D01*
X80961Y-56342D01*
X80935Y-56312D01*
X80917Y-56278D01*
X80905Y-56241D01*
X80901Y-56202D01*
X80904Y-56164D01*
X80915Y-56127D01*
X80932Y-56092D01*
X80957Y-56062D01*
X80986Y-56036D01*
X81020Y-56017D01*
X81058Y-56005D01*
X81096Y-56001D01*
X81134Y-56004D01*
X81172Y-56014D01*
X81207Y-56032D01*
X81237Y-56056D01*
X81263Y-56085D01*
X81282Y-56119D01*
X81295Y-56156D01*
X81299Y-56195D01*
X81300Y-56200D01*
X80900Y-56000D02*
X81300Y-56400D01*
X81300Y-56000D02*
X80900Y-56400D01*
X82300Y-55200D02*
X82296Y-55238D01*
X82284Y-55276D01*
X82266Y-55310D01*
X82241Y-55340D01*
X82211Y-55365D01*
X82177Y-55384D01*
X82140Y-55395D01*
X82101Y-55399D01*
X82063Y-55396D01*
X82026Y-55385D01*
X81991Y-55367D01*
X81961Y-55342D01*
X81935Y-55312D01*
X81917Y-55278D01*
X81905Y-55241D01*
X81901Y-55202D01*
X81904Y-55164D01*
X81915Y-55127D01*
X81932Y-55092D01*
X81957Y-55062D01*
X81986Y-55036D01*
X82020Y-55017D01*
X82058Y-55005D01*
X82096Y-55001D01*
X82134Y-55004D01*
X82172Y-55014D01*
X82207Y-55032D01*
X82237Y-55056D01*
X82263Y-55085D01*
X82282Y-55119D01*
X82295Y-55156D01*
X82299Y-55195D01*
X82300Y-55200D01*
X81900Y-55000D02*
X82300Y-55400D01*
X82300Y-55000D02*
X81900Y-55400D01*
X82300Y-56200D02*
X82296Y-56238D01*
X82284Y-56276D01*
X82266Y-56310D01*
X82241Y-56340D01*
X82211Y-56365D01*
X82177Y-56384D01*
X82140Y-56395D01*
X82101Y-56399D01*
X82063Y-56396D01*
X82026Y-56385D01*
X81991Y-56367D01*
X81961Y-56342D01*
X81935Y-56312D01*
X81917Y-56278D01*
X81905Y-56241D01*
X81901Y-56202D01*
X81904Y-56164D01*
X81915Y-56127D01*
X81932Y-56092D01*
X81957Y-56062D01*
X81986Y-56036D01*
X82020Y-56017D01*
X82058Y-56005D01*
X82096Y-56001D01*
X82134Y-56004D01*
X82172Y-56014D01*
X82207Y-56032D01*
X82237Y-56056D01*
X82263Y-56085D01*
X82282Y-56119D01*
X82295Y-56156D01*
X82299Y-56195D01*
X82300Y-56200D01*
X81900Y-56000D02*
X82300Y-56400D01*
X82300Y-56000D02*
X81900Y-56400D01*
X83300Y-55200D02*
X83296Y-55238D01*
X83284Y-55276D01*
X83266Y-55310D01*
X83241Y-55340D01*
X83211Y-55365D01*
X83177Y-55384D01*
X83140Y-55395D01*
X83101Y-55399D01*
X83063Y-55396D01*
X83026Y-55385D01*
X82991Y-55367D01*
X82961Y-55342D01*
X82935Y-55312D01*
X82917Y-55278D01*
X82905Y-55241D01*
X82901Y-55202D01*
X82904Y-55164D01*
X82915Y-55127D01*
X82932Y-55092D01*
X82957Y-55062D01*
X82986Y-55036D01*
X83020Y-55017D01*
X83058Y-55005D01*
X83096Y-55001D01*
X83134Y-55004D01*
X83172Y-55014D01*
X83207Y-55032D01*
X83237Y-55056D01*
X83263Y-55085D01*
X83282Y-55119D01*
X83295Y-55156D01*
X83299Y-55195D01*
X83300Y-55200D01*
X82900Y-55000D02*
X83300Y-55400D01*
X83300Y-55000D02*
X82900Y-55400D01*
X83300Y-56200D02*
X83296Y-56238D01*
X83284Y-56276D01*
X83266Y-56310D01*
X83241Y-56340D01*
X83211Y-56365D01*
X83177Y-56384D01*
X83140Y-56395D01*
X83101Y-56399D01*
X83063Y-56396D01*
X83026Y-56385D01*
X82991Y-56367D01*
X82961Y-56342D01*
X82935Y-56312D01*
X82917Y-56278D01*
X82905Y-56241D01*
X82901Y-56202D01*
X82904Y-56164D01*
X82915Y-56127D01*
X82932Y-56092D01*
X82957Y-56062D01*
X82986Y-56036D01*
X83020Y-56017D01*
X83058Y-56005D01*
X83096Y-56001D01*
X83134Y-56004D01*
X83172Y-56014D01*
X83207Y-56032D01*
X83237Y-56056D01*
X83263Y-56085D01*
X83282Y-56119D01*
X83295Y-56156D01*
X83299Y-56195D01*
X83300Y-56200D01*
X82900Y-56000D02*
X83300Y-56400D01*
X83300Y-56000D02*
X82900Y-56400D01*
X83450Y-51575D02*
X83446Y-51613D01*
X83434Y-51651D01*
X83416Y-51685D01*
X83391Y-51715D01*
X83361Y-51740D01*
X83327Y-51759D01*
X83290Y-51770D01*
X83251Y-51774D01*
X83213Y-51771D01*
X83176Y-51760D01*
X83141Y-51742D01*
X83111Y-51717D01*
X83085Y-51687D01*
X83067Y-51653D01*
X83055Y-51616D01*
X83051Y-51577D01*
X83054Y-51539D01*
X83065Y-51502D01*
X83082Y-51467D01*
X83107Y-51437D01*
X83136Y-51411D01*
X83170Y-51392D01*
X83208Y-51380D01*
X83246Y-51376D01*
X83284Y-51379D01*
X83322Y-51389D01*
X83357Y-51407D01*
X83387Y-51431D01*
X83413Y-51460D01*
X83432Y-51494D01*
X83445Y-51531D01*
X83449Y-51570D01*
X83450Y-51575D01*
X83050Y-51375D02*
X83450Y-51775D01*
X83450Y-51375D02*
X83050Y-51775D01*
X83450Y-53325D02*
X83446Y-53363D01*
X83434Y-53401D01*
X83416Y-53435D01*
X83391Y-53465D01*
X83361Y-53490D01*
X83327Y-53509D01*
X83290Y-53520D01*
X83251Y-53524D01*
X83213Y-53521D01*
X83176Y-53510D01*
X83141Y-53492D01*
X83111Y-53467D01*
X83085Y-53437D01*
X83067Y-53403D01*
X83055Y-53366D01*
X83051Y-53327D01*
X83054Y-53289D01*
X83065Y-53252D01*
X83082Y-53217D01*
X83107Y-53187D01*
X83136Y-53161D01*
X83170Y-53142D01*
X83208Y-53130D01*
X83246Y-53126D01*
X83284Y-53129D01*
X83322Y-53139D01*
X83357Y-53157D01*
X83387Y-53181D01*
X83413Y-53210D01*
X83432Y-53244D01*
X83445Y-53281D01*
X83449Y-53320D01*
X83450Y-53325D01*
X83050Y-53125D02*
X83450Y-53525D01*
X83450Y-53125D02*
X83050Y-53525D01*
X86300Y-51575D02*
X86296Y-51613D01*
X86284Y-51651D01*
X86266Y-51685D01*
X86241Y-51715D01*
X86211Y-51740D01*
X86177Y-51759D01*
X86140Y-51770D01*
X86101Y-51774D01*
X86063Y-51771D01*
X86026Y-51760D01*
X85991Y-51742D01*
X85961Y-51717D01*
X85935Y-51687D01*
X85917Y-51653D01*
X85905Y-51616D01*
X85901Y-51577D01*
X85904Y-51539D01*
X85915Y-51502D01*
X85932Y-51467D01*
X85957Y-51437D01*
X85986Y-51411D01*
X86020Y-51392D01*
X86058Y-51380D01*
X86096Y-51376D01*
X86134Y-51379D01*
X86172Y-51389D01*
X86207Y-51407D01*
X86237Y-51431D01*
X86263Y-51460D01*
X86282Y-51494D01*
X86295Y-51531D01*
X86299Y-51570D01*
X86300Y-51575D01*
X85900Y-51375D02*
X86300Y-51775D01*
X86300Y-51375D02*
X85900Y-51775D01*
X86300Y-53325D02*
X86296Y-53363D01*
X86284Y-53401D01*
X86266Y-53435D01*
X86241Y-53465D01*
X86211Y-53490D01*
X86177Y-53509D01*
X86140Y-53520D01*
X86101Y-53524D01*
X86063Y-53521D01*
X86026Y-53510D01*
X85991Y-53492D01*
X85961Y-53467D01*
X85935Y-53437D01*
X85917Y-53403D01*
X85905Y-53366D01*
X85901Y-53327D01*
X85904Y-53289D01*
X85915Y-53252D01*
X85932Y-53217D01*
X85957Y-53187D01*
X85986Y-53161D01*
X86020Y-53142D01*
X86058Y-53130D01*
X86096Y-53126D01*
X86134Y-53129D01*
X86172Y-53139D01*
X86207Y-53157D01*
X86237Y-53181D01*
X86263Y-53210D01*
X86282Y-53244D01*
X86295Y-53281D01*
X86299Y-53320D01*
X86300Y-53325D01*
X85900Y-53125D02*
X86300Y-53525D01*
X86300Y-53125D02*
X85900Y-53525D01*
X88850Y-51575D02*
X88846Y-51613D01*
X88834Y-51651D01*
X88816Y-51685D01*
X88791Y-51715D01*
X88761Y-51740D01*
X88727Y-51759D01*
X88690Y-51770D01*
X88651Y-51774D01*
X88613Y-51771D01*
X88576Y-51760D01*
X88541Y-51742D01*
X88511Y-51717D01*
X88485Y-51687D01*
X88467Y-51653D01*
X88455Y-51616D01*
X88451Y-51577D01*
X88454Y-51539D01*
X88465Y-51502D01*
X88482Y-51467D01*
X88507Y-51437D01*
X88536Y-51411D01*
X88570Y-51392D01*
X88608Y-51380D01*
X88646Y-51376D01*
X88684Y-51379D01*
X88722Y-51389D01*
X88757Y-51407D01*
X88787Y-51431D01*
X88813Y-51460D01*
X88832Y-51494D01*
X88845Y-51531D01*
X88849Y-51570D01*
X88850Y-51575D01*
X88450Y-51375D02*
X88850Y-51775D01*
X88850Y-51375D02*
X88450Y-51775D01*
X88850Y-53325D02*
X88846Y-53363D01*
X88834Y-53401D01*
X88816Y-53435D01*
X88791Y-53465D01*
X88761Y-53490D01*
X88727Y-53509D01*
X88690Y-53520D01*
X88651Y-53524D01*
X88613Y-53521D01*
X88576Y-53510D01*
X88541Y-53492D01*
X88511Y-53467D01*
X88485Y-53437D01*
X88467Y-53403D01*
X88455Y-53366D01*
X88451Y-53327D01*
X88454Y-53289D01*
X88465Y-53252D01*
X88482Y-53217D01*
X88507Y-53187D01*
X88536Y-53161D01*
X88570Y-53142D01*
X88608Y-53130D01*
X88646Y-53126D01*
X88684Y-53129D01*
X88722Y-53139D01*
X88757Y-53157D01*
X88787Y-53181D01*
X88813Y-53210D01*
X88832Y-53244D01*
X88845Y-53281D01*
X88849Y-53320D01*
X88850Y-53325D01*
X88450Y-53125D02*
X88850Y-53525D01*
X88850Y-53125D02*
X88450Y-53525D01*
X135500Y-53200D02*
X135496Y-53238D01*
X135484Y-53276D01*
X135466Y-53310D01*
X135441Y-53340D01*
X135411Y-53365D01*
X135377Y-53384D01*
X135340Y-53395D01*
X135301Y-53399D01*
X135263Y-53396D01*
X135226Y-53385D01*
X135191Y-53367D01*
X135161Y-53342D01*
X135135Y-53312D01*
X135117Y-53278D01*
X135105Y-53241D01*
X135101Y-53202D01*
X135104Y-53164D01*
X135115Y-53127D01*
X135132Y-53092D01*
X135157Y-53062D01*
X135186Y-53036D01*
X135220Y-53017D01*
X135258Y-53005D01*
X135296Y-53001D01*
X135334Y-53004D01*
X135372Y-53014D01*
X135407Y-53032D01*
X135437Y-53056D01*
X135463Y-53085D01*
X135482Y-53119D01*
X135495Y-53156D01*
X135499Y-53195D01*
X135500Y-53200D01*
X135100Y-53000D02*
X135500Y-53400D01*
X135500Y-53000D02*
X135100Y-53400D01*
X135500Y-54200D02*
X135496Y-54238D01*
X135484Y-54276D01*
X135466Y-54310D01*
X135441Y-54340D01*
X135411Y-54365D01*
X135377Y-54384D01*
X135340Y-54395D01*
X135301Y-54399D01*
X135263Y-54396D01*
X135226Y-54385D01*
X135191Y-54367D01*
X135161Y-54342D01*
X135135Y-54312D01*
X135117Y-54278D01*
X135105Y-54241D01*
X135101Y-54202D01*
X135104Y-54164D01*
X135115Y-54127D01*
X135132Y-54092D01*
X135157Y-54062D01*
X135186Y-54036D01*
X135220Y-54017D01*
X135258Y-54005D01*
X135296Y-54001D01*
X135334Y-54004D01*
X135372Y-54014D01*
X135407Y-54032D01*
X135437Y-54056D01*
X135463Y-54085D01*
X135482Y-54119D01*
X135495Y-54156D01*
X135499Y-54195D01*
X135500Y-54200D01*
X135100Y-54000D02*
X135500Y-54400D01*
X135500Y-54000D02*
X135100Y-54400D01*
X135500Y-55200D02*
X135496Y-55238D01*
X135484Y-55276D01*
X135466Y-55310D01*
X135441Y-55340D01*
X135411Y-55365D01*
X135377Y-55384D01*
X135340Y-55395D01*
X135301Y-55399D01*
X135263Y-55396D01*
X135226Y-55385D01*
X135191Y-55367D01*
X135161Y-55342D01*
X135135Y-55312D01*
X135117Y-55278D01*
X135105Y-55241D01*
X135101Y-55202D01*
X135104Y-55164D01*
X135115Y-55127D01*
X135132Y-55092D01*
X135157Y-55062D01*
X135186Y-55036D01*
X135220Y-55017D01*
X135258Y-55005D01*
X135296Y-55001D01*
X135334Y-55004D01*
X135372Y-55014D01*
X135407Y-55032D01*
X135437Y-55056D01*
X135463Y-55085D01*
X135482Y-55119D01*
X135495Y-55156D01*
X135499Y-55195D01*
X135500Y-55200D01*
X135100Y-55000D02*
X135500Y-55400D01*
X135500Y-55000D02*
X135100Y-55400D01*
X135500Y-56200D02*
X135496Y-56238D01*
X135484Y-56276D01*
X135466Y-56310D01*
X135441Y-56340D01*
X135411Y-56365D01*
X135377Y-56384D01*
X135340Y-56395D01*
X135301Y-56399D01*
X135263Y-56396D01*
X135226Y-56385D01*
X135191Y-56367D01*
X135161Y-56342D01*
X135135Y-56312D01*
X135117Y-56278D01*
X135105Y-56241D01*
X135101Y-56202D01*
X135104Y-56164D01*
X135115Y-56127D01*
X135132Y-56092D01*
X135157Y-56062D01*
X135186Y-56036D01*
X135220Y-56017D01*
X135258Y-56005D01*
X135296Y-56001D01*
X135334Y-56004D01*
X135372Y-56014D01*
X135407Y-56032D01*
X135437Y-56056D01*
X135463Y-56085D01*
X135482Y-56119D01*
X135495Y-56156D01*
X135499Y-56195D01*
X135500Y-56200D01*
X135100Y-56000D02*
X135500Y-56400D01*
X135500Y-56000D02*
X135100Y-56400D01*
X135500Y-57200D02*
X135496Y-57238D01*
X135484Y-57276D01*
X135466Y-57310D01*
X135441Y-57340D01*
X135411Y-57365D01*
X135377Y-57384D01*
X135340Y-57395D01*
X135301Y-57399D01*
X135263Y-57396D01*
X135226Y-57385D01*
X135191Y-57367D01*
X135161Y-57342D01*
X135135Y-57312D01*
X135117Y-57278D01*
X135105Y-57241D01*
X135101Y-57202D01*
X135104Y-57164D01*
X135115Y-57127D01*
X135132Y-57092D01*
X135157Y-57062D01*
X135186Y-57036D01*
X135220Y-57017D01*
X135258Y-57005D01*
X135296Y-57001D01*
X135334Y-57004D01*
X135372Y-57014D01*
X135407Y-57032D01*
X135437Y-57056D01*
X135463Y-57085D01*
X135482Y-57119D01*
X135495Y-57156D01*
X135499Y-57195D01*
X135500Y-57200D01*
X135100Y-57000D02*
X135500Y-57400D01*
X135500Y-57000D02*
X135100Y-57400D01*
X135500Y-58200D02*
X135496Y-58238D01*
X135484Y-58276D01*
X135466Y-58310D01*
X135441Y-58340D01*
X135411Y-58365D01*
X135377Y-58384D01*
X135340Y-58395D01*
X135301Y-58399D01*
X135263Y-58396D01*
X135226Y-58385D01*
X135191Y-58367D01*
X135161Y-58342D01*
X135135Y-58312D01*
X135117Y-58278D01*
X135105Y-58241D01*
X135101Y-58202D01*
X135104Y-58164D01*
X135115Y-58127D01*
X135132Y-58092D01*
X135157Y-58062D01*
X135186Y-58036D01*
X135220Y-58017D01*
X135258Y-58005D01*
X135296Y-58001D01*
X135334Y-58004D01*
X135372Y-58014D01*
X135407Y-58032D01*
X135437Y-58056D01*
X135463Y-58085D01*
X135482Y-58119D01*
X135495Y-58156D01*
X135499Y-58195D01*
X135500Y-58200D01*
X135100Y-58000D02*
X135500Y-58400D01*
X135500Y-58000D02*
X135100Y-58400D01*
X135500Y-59200D02*
X135496Y-59238D01*
X135484Y-59276D01*
X135466Y-59310D01*
X135441Y-59340D01*
X135411Y-59365D01*
X135377Y-59384D01*
X135340Y-59395D01*
X135301Y-59399D01*
X135263Y-59396D01*
X135226Y-59385D01*
X135191Y-59367D01*
X135161Y-59342D01*
X135135Y-59312D01*
X135117Y-59278D01*
X135105Y-59241D01*
X135101Y-59202D01*
X135104Y-59164D01*
X135115Y-59127D01*
X135132Y-59092D01*
X135157Y-59062D01*
X135186Y-59036D01*
X135220Y-59017D01*
X135258Y-59005D01*
X135296Y-59001D01*
X135334Y-59004D01*
X135372Y-59014D01*
X135407Y-59032D01*
X135437Y-59056D01*
X135463Y-59085D01*
X135482Y-59119D01*
X135495Y-59156D01*
X135499Y-59195D01*
X135500Y-59200D01*
X135100Y-59000D02*
X135500Y-59400D01*
X135500Y-59000D02*
X135100Y-59400D01*
X135500Y-60200D02*
X135496Y-60238D01*
X135484Y-60276D01*
X135466Y-60310D01*
X135441Y-60340D01*
X135411Y-60365D01*
X135377Y-60384D01*
X135340Y-60395D01*
X135301Y-60399D01*
X135263Y-60396D01*
X135226Y-60385D01*
X135191Y-60367D01*
X135161Y-60342D01*
X135135Y-60312D01*
X135117Y-60278D01*
X135105Y-60241D01*
X135101Y-60202D01*
X135104Y-60164D01*
X135115Y-60127D01*
X135132Y-60092D01*
X135157Y-60062D01*
X135186Y-60036D01*
X135220Y-60017D01*
X135258Y-60005D01*
X135296Y-60001D01*
X135334Y-60004D01*
X135372Y-60014D01*
X135407Y-60032D01*
X135437Y-60056D01*
X135463Y-60085D01*
X135482Y-60119D01*
X135495Y-60156D01*
X135499Y-60195D01*
X135500Y-60200D01*
X135100Y-60000D02*
X135500Y-60400D01*
X135500Y-60000D02*
X135100Y-60400D01*
X136500Y-53200D02*
X136496Y-53238D01*
X136484Y-53276D01*
X136466Y-53310D01*
X136441Y-53340D01*
X136411Y-53365D01*
X136377Y-53384D01*
X136340Y-53395D01*
X136301Y-53399D01*
X136263Y-53396D01*
X136226Y-53385D01*
X136191Y-53367D01*
X136161Y-53342D01*
X136135Y-53312D01*
X136117Y-53278D01*
X136105Y-53241D01*
X136101Y-53202D01*
X136104Y-53164D01*
X136115Y-53127D01*
X136132Y-53092D01*
X136157Y-53062D01*
X136186Y-53036D01*
X136220Y-53017D01*
X136258Y-53005D01*
X136296Y-53001D01*
X136334Y-53004D01*
X136372Y-53014D01*
X136407Y-53032D01*
X136437Y-53056D01*
X136463Y-53085D01*
X136482Y-53119D01*
X136495Y-53156D01*
X136499Y-53195D01*
X136500Y-53200D01*
X136100Y-53000D02*
X136500Y-53400D01*
X136500Y-53000D02*
X136100Y-53400D01*
X136500Y-54200D02*
X136496Y-54238D01*
X136484Y-54276D01*
X136466Y-54310D01*
X136441Y-54340D01*
X136411Y-54365D01*
X136377Y-54384D01*
X136340Y-54395D01*
X136301Y-54399D01*
X136263Y-54396D01*
X136226Y-54385D01*
X136191Y-54367D01*
X136161Y-54342D01*
X136135Y-54312D01*
X136117Y-54278D01*
X136105Y-54241D01*
X136101Y-54202D01*
X136104Y-54164D01*
X136115Y-54127D01*
X136132Y-54092D01*
X136157Y-54062D01*
X136186Y-54036D01*
X136220Y-54017D01*
X136258Y-54005D01*
X136296Y-54001D01*
X136334Y-54004D01*
X136372Y-54014D01*
X136407Y-54032D01*
X136437Y-54056D01*
X136463Y-54085D01*
X136482Y-54119D01*
X136495Y-54156D01*
X136499Y-54195D01*
X136500Y-54200D01*
X136100Y-54000D02*
X136500Y-54400D01*
X136500Y-54000D02*
X136100Y-54400D01*
X136500Y-55200D02*
X136496Y-55238D01*
X136484Y-55276D01*
X136466Y-55310D01*
X136441Y-55340D01*
X136411Y-55365D01*
X136377Y-55384D01*
X136340Y-55395D01*
X136301Y-55399D01*
X136263Y-55396D01*
X136226Y-55385D01*
X136191Y-55367D01*
X136161Y-55342D01*
X136135Y-55312D01*
X136117Y-55278D01*
X136105Y-55241D01*
X136101Y-55202D01*
X136104Y-55164D01*
X136115Y-55127D01*
X136132Y-55092D01*
X136157Y-55062D01*
X136186Y-55036D01*
X136220Y-55017D01*
X136258Y-55005D01*
X136296Y-55001D01*
X136334Y-55004D01*
X136372Y-55014D01*
X136407Y-55032D01*
X136437Y-55056D01*
X136463Y-55085D01*
X136482Y-55119D01*
X136495Y-55156D01*
X136499Y-55195D01*
X136500Y-55200D01*
X136100Y-55000D02*
X136500Y-55400D01*
X136500Y-55000D02*
X136100Y-55400D01*
X136500Y-56200D02*
X136496Y-56238D01*
X136484Y-56276D01*
X136466Y-56310D01*
X136441Y-56340D01*
X136411Y-56365D01*
X136377Y-56384D01*
X136340Y-56395D01*
X136301Y-56399D01*
X136263Y-56396D01*
X136226Y-56385D01*
X136191Y-56367D01*
X136161Y-56342D01*
X136135Y-56312D01*
X136117Y-56278D01*
X136105Y-56241D01*
X136101Y-56202D01*
X136104Y-56164D01*
X136115Y-56127D01*
X136132Y-56092D01*
X136157Y-56062D01*
X136186Y-56036D01*
X136220Y-56017D01*
X136258Y-56005D01*
X136296Y-56001D01*
X136334Y-56004D01*
X136372Y-56014D01*
X136407Y-56032D01*
X136437Y-56056D01*
X136463Y-56085D01*
X136482Y-56119D01*
X136495Y-56156D01*
X136499Y-56195D01*
X136500Y-56200D01*
X136100Y-56000D02*
X136500Y-56400D01*
X136500Y-56000D02*
X136100Y-56400D01*
X136500Y-57200D02*
X136496Y-57238D01*
X136484Y-57276D01*
X136466Y-57310D01*
X136441Y-57340D01*
X136411Y-57365D01*
X136377Y-57384D01*
X136340Y-57395D01*
X136301Y-57399D01*
X136263Y-57396D01*
X136226Y-57385D01*
X136191Y-57367D01*
X136161Y-57342D01*
X136135Y-57312D01*
X136117Y-57278D01*
X136105Y-57241D01*
X136101Y-57202D01*
X136104Y-57164D01*
X136115Y-57127D01*
X136132Y-57092D01*
X136157Y-57062D01*
X136186Y-57036D01*
X136220Y-57017D01*
X136258Y-57005D01*
X136296Y-57001D01*
X136334Y-57004D01*
X136372Y-57014D01*
X136407Y-57032D01*
X136437Y-57056D01*
X136463Y-57085D01*
X136482Y-57119D01*
X136495Y-57156D01*
X136499Y-57195D01*
X136500Y-57200D01*
X136100Y-57000D02*
X136500Y-57400D01*
X136500Y-57000D02*
X136100Y-57400D01*
X136500Y-58200D02*
X136496Y-58238D01*
X136484Y-58276D01*
X136466Y-58310D01*
X136441Y-58340D01*
X136411Y-58365D01*
X136377Y-58384D01*
X136340Y-58395D01*
X136301Y-58399D01*
X136263Y-58396D01*
X136226Y-58385D01*
X136191Y-58367D01*
X136161Y-58342D01*
X136135Y-58312D01*
X136117Y-58278D01*
X136105Y-58241D01*
X136101Y-58202D01*
X136104Y-58164D01*
X136115Y-58127D01*
X136132Y-58092D01*
X136157Y-58062D01*
X136186Y-58036D01*
X136220Y-58017D01*
X136258Y-58005D01*
X136296Y-58001D01*
X136334Y-58004D01*
X136372Y-58014D01*
X136407Y-58032D01*
X136437Y-58056D01*
X136463Y-58085D01*
X136482Y-58119D01*
X136495Y-58156D01*
X136499Y-58195D01*
X136500Y-58200D01*
X136100Y-58000D02*
X136500Y-58400D01*
X136500Y-58000D02*
X136100Y-58400D01*
X136500Y-59200D02*
X136496Y-59238D01*
X136484Y-59276D01*
X136466Y-59310D01*
X136441Y-59340D01*
X136411Y-59365D01*
X136377Y-59384D01*
X136340Y-59395D01*
X136301Y-59399D01*
X136263Y-59396D01*
X136226Y-59385D01*
X136191Y-59367D01*
X136161Y-59342D01*
X136135Y-59312D01*
X136117Y-59278D01*
X136105Y-59241D01*
X136101Y-59202D01*
X136104Y-59164D01*
X136115Y-59127D01*
X136132Y-59092D01*
X136157Y-59062D01*
X136186Y-59036D01*
X136220Y-59017D01*
X136258Y-59005D01*
X136296Y-59001D01*
X136334Y-59004D01*
X136372Y-59014D01*
X136407Y-59032D01*
X136437Y-59056D01*
X136463Y-59085D01*
X136482Y-59119D01*
X136495Y-59156D01*
X136499Y-59195D01*
X136500Y-59200D01*
X136100Y-59000D02*
X136500Y-59400D01*
X136500Y-59000D02*
X136100Y-59400D01*
X136500Y-60200D02*
X136496Y-60238D01*
X136484Y-60276D01*
X136466Y-60310D01*
X136441Y-60340D01*
X136411Y-60365D01*
X136377Y-60384D01*
X136340Y-60395D01*
X136301Y-60399D01*
X136263Y-60396D01*
X136226Y-60385D01*
X136191Y-60367D01*
X136161Y-60342D01*
X136135Y-60312D01*
X136117Y-60278D01*
X136105Y-60241D01*
X136101Y-60202D01*
X136104Y-60164D01*
X136115Y-60127D01*
X136132Y-60092D01*
X136157Y-60062D01*
X136186Y-60036D01*
X136220Y-60017D01*
X136258Y-60005D01*
X136296Y-60001D01*
X136334Y-60004D01*
X136372Y-60014D01*
X136407Y-60032D01*
X136437Y-60056D01*
X136463Y-60085D01*
X136482Y-60119D01*
X136495Y-60156D01*
X136499Y-60195D01*
X136500Y-60200D01*
X136100Y-60000D02*
X136500Y-60400D01*
X136500Y-60000D02*
X136100Y-60400D01*
X85350Y-59100D02*
X85345Y-59148D01*
X85331Y-59195D01*
X85308Y-59238D01*
X85277Y-59276D01*
X85239Y-59307D01*
X85196Y-59330D01*
X85150Y-59344D01*
X85101Y-59349D01*
X85054Y-59345D01*
X85007Y-59331D01*
X84964Y-59309D01*
X84926Y-59278D01*
X84894Y-59241D01*
X84871Y-59198D01*
X84856Y-59151D01*
X84851Y-59103D01*
X84855Y-59055D01*
X84868Y-59008D01*
X84890Y-58965D01*
X84921Y-58927D01*
X84958Y-58895D01*
X85000Y-58871D01*
X85047Y-58856D01*
X85095Y-58851D01*
X85143Y-58854D01*
X85190Y-58867D01*
X85233Y-58889D01*
X85272Y-58919D01*
X85304Y-58956D01*
X85328Y-58999D01*
X85343Y-59045D01*
X85349Y-59094D01*
X85350Y-59100D01*
X84850Y-59100D02*
X85350Y-59100D01*
X89350Y-58100D02*
X89345Y-58148D01*
X89331Y-58195D01*
X89308Y-58238D01*
X89277Y-58276D01*
X89239Y-58307D01*
X89196Y-58330D01*
X89150Y-58344D01*
X89101Y-58349D01*
X89054Y-58345D01*
X89007Y-58331D01*
X88964Y-58309D01*
X88926Y-58278D01*
X88894Y-58241D01*
X88871Y-58198D01*
X88856Y-58151D01*
X88851Y-58103D01*
X88855Y-58055D01*
X88868Y-58008D01*
X88890Y-57965D01*
X88921Y-57927D01*
X88958Y-57895D01*
X89000Y-57871D01*
X89047Y-57856D01*
X89095Y-57851D01*
X89143Y-57854D01*
X89190Y-57867D01*
X89233Y-57889D01*
X89272Y-57919D01*
X89304Y-57956D01*
X89328Y-57999D01*
X89343Y-58045D01*
X89349Y-58094D01*
X89350Y-58100D01*
X88850Y-58100D02*
X89350Y-58100D01*
X89350Y-60100D02*
X89345Y-60148D01*
X89331Y-60195D01*
X89308Y-60238D01*
X89277Y-60276D01*
X89239Y-60307D01*
X89196Y-60330D01*
X89150Y-60344D01*
X89101Y-60349D01*
X89054Y-60345D01*
X89007Y-60331D01*
X88964Y-60309D01*
X88926Y-60278D01*
X88894Y-60241D01*
X88871Y-60198D01*
X88856Y-60151D01*
X88851Y-60103D01*
X88855Y-60055D01*
X88868Y-60008D01*
X88890Y-59965D01*
X88921Y-59927D01*
X88958Y-59895D01*
X89000Y-59871D01*
X89047Y-59856D01*
X89095Y-59851D01*
X89143Y-59854D01*
X89190Y-59867D01*
X89233Y-59889D01*
X89272Y-59919D01*
X89304Y-59956D01*
X89328Y-59999D01*
X89343Y-60045D01*
X89349Y-60094D01*
X89350Y-60100D01*
X88850Y-60100D02*
X89350Y-60100D01*
X37100Y-52000D02*
X37088Y-52116D01*
X37054Y-52228D01*
X36999Y-52332D01*
X36925Y-52422D01*
X36835Y-52497D01*
X36732Y-52553D01*
X36620Y-52587D01*
X36504Y-52599D01*
X36388Y-52589D01*
X36276Y-52556D01*
X36172Y-52502D01*
X36081Y-52428D01*
X36005Y-52338D01*
X35949Y-52236D01*
X35914Y-52124D01*
X35901Y-52008D01*
X35910Y-51892D01*
X35943Y-51780D01*
X35996Y-51675D01*
X36069Y-51584D01*
X36158Y-51508D01*
X36260Y-51451D01*
X36372Y-51414D01*
X36488Y-51401D01*
X36604Y-51410D01*
X36716Y-51441D01*
X36821Y-51494D01*
X36913Y-51566D01*
X36990Y-51655D01*
X37048Y-51756D01*
X37085Y-51868D01*
X37099Y-51984D01*
X37100Y-52000D01*
X36500Y-51400D02*
X36500Y-52600D01*
X37100Y-61500D02*
X37088Y-61616D01*
X37054Y-61728D01*
X36999Y-61832D01*
X36925Y-61922D01*
X36835Y-61997D01*
X36732Y-62053D01*
X36620Y-62087D01*
X36504Y-62099D01*
X36388Y-62089D01*
X36276Y-62056D01*
X36172Y-62002D01*
X36081Y-61928D01*
X36005Y-61838D01*
X35949Y-61736D01*
X35914Y-61624D01*
X35901Y-61508D01*
X35910Y-61392D01*
X35943Y-61280D01*
X35996Y-61175D01*
X36069Y-61084D01*
X36158Y-61008D01*
X36260Y-60951D01*
X36372Y-60914D01*
X36488Y-60901D01*
X36604Y-60910D01*
X36716Y-60941D01*
X36821Y-60994D01*
X36913Y-61066D01*
X36990Y-61155D01*
X37048Y-61256D01*
X37085Y-61368D01*
X37099Y-61484D01*
X37100Y-61500D01*
X36500Y-60900D02*
X36500Y-62100D01*
X69100Y-52000D02*
X69088Y-52116D01*
X69054Y-52228D01*
X68999Y-52332D01*
X68925Y-52422D01*
X68835Y-52497D01*
X68732Y-52553D01*
X68620Y-52587D01*
X68504Y-52599D01*
X68388Y-52589D01*
X68276Y-52556D01*
X68172Y-52502D01*
X68081Y-52428D01*
X68005Y-52338D01*
X67949Y-52236D01*
X67914Y-52124D01*
X67901Y-52008D01*
X67910Y-51892D01*
X67943Y-51780D01*
X67996Y-51675D01*
X68069Y-51584D01*
X68158Y-51508D01*
X68260Y-51451D01*
X68372Y-51414D01*
X68488Y-51401D01*
X68604Y-51410D01*
X68716Y-51441D01*
X68821Y-51494D01*
X68913Y-51566D01*
X68990Y-51655D01*
X69048Y-51756D01*
X69085Y-51868D01*
X69099Y-51984D01*
X69100Y-52000D01*
X68500Y-51400D02*
X68500Y-52600D01*
X69100Y-61500D02*
X69088Y-61616D01*
X69054Y-61728D01*
X68999Y-61832D01*
X68925Y-61922D01*
X68835Y-61997D01*
X68732Y-62053D01*
X68620Y-62087D01*
X68504Y-62099D01*
X68388Y-62089D01*
X68276Y-62056D01*
X68172Y-62002D01*
X68081Y-61928D01*
X68005Y-61838D01*
X67949Y-61736D01*
X67914Y-61624D01*
X67901Y-61508D01*
X67910Y-61392D01*
X67943Y-61280D01*
X67996Y-61175D01*
X68069Y-61084D01*
X68158Y-61008D01*
X68260Y-60951D01*
X68372Y-60914D01*
X68488Y-60901D01*
X68604Y-60910D01*
X68716Y-60941D01*
X68821Y-60994D01*
X68913Y-61066D01*
X68990Y-61155D01*
X69048Y-61256D01*
X69085Y-61368D01*
X69099Y-61484D01*
X69100Y-61500D01*
X68500Y-60900D02*
X68500Y-62100D01*
X96100Y-52000D02*
X96088Y-52116D01*
X96054Y-52228D01*
X95999Y-52332D01*
X95925Y-52422D01*
X95835Y-52497D01*
X95732Y-52553D01*
X95620Y-52587D01*
X95504Y-52599D01*
X95388Y-52589D01*
X95276Y-52556D01*
X95172Y-52502D01*
X95081Y-52428D01*
X95005Y-52338D01*
X94949Y-52236D01*
X94914Y-52124D01*
X94901Y-52008D01*
X94910Y-51892D01*
X94943Y-51780D01*
X94996Y-51675D01*
X95069Y-51584D01*
X95158Y-51508D01*
X95260Y-51451D01*
X95372Y-51414D01*
X95488Y-51401D01*
X95604Y-51410D01*
X95716Y-51441D01*
X95821Y-51494D01*
X95913Y-51566D01*
X95990Y-51655D01*
X96048Y-51756D01*
X96085Y-51868D01*
X96099Y-51984D01*
X96100Y-52000D01*
X95500Y-51400D02*
X95500Y-52600D01*
X96100Y-61500D02*
X96088Y-61616D01*
X96054Y-61728D01*
X95999Y-61832D01*
X95925Y-61922D01*
X95835Y-61997D01*
X95732Y-62053D01*
X95620Y-62087D01*
X95504Y-62099D01*
X95388Y-62089D01*
X95276Y-62056D01*
X95172Y-62002D01*
X95081Y-61928D01*
X95005Y-61838D01*
X94949Y-61736D01*
X94914Y-61624D01*
X94901Y-61508D01*
X94910Y-61392D01*
X94943Y-61280D01*
X94996Y-61175D01*
X95069Y-61084D01*
X95158Y-61008D01*
X95260Y-60951D01*
X95372Y-60914D01*
X95488Y-60901D01*
X95604Y-60910D01*
X95716Y-60941D01*
X95821Y-60994D01*
X95913Y-61066D01*
X95990Y-61155D01*
X96048Y-61256D01*
X96085Y-61368D01*
X96099Y-61484D01*
X96100Y-61500D01*
X95500Y-60900D02*
X95500Y-62100D01*
X128100Y-52000D02*
X128088Y-52116D01*
X128054Y-52228D01*
X127999Y-52332D01*
X127925Y-52422D01*
X127835Y-52497D01*
X127732Y-52553D01*
X127620Y-52587D01*
X127504Y-52599D01*
X127388Y-52589D01*
X127276Y-52556D01*
X127172Y-52502D01*
X127081Y-52428D01*
X127005Y-52338D01*
X126949Y-52236D01*
X126914Y-52124D01*
X126901Y-52008D01*
X126910Y-51892D01*
X126943Y-51780D01*
X126996Y-51675D01*
X127069Y-51584D01*
X127158Y-51508D01*
X127260Y-51451D01*
X127372Y-51414D01*
X127488Y-51401D01*
X127604Y-51410D01*
X127716Y-51441D01*
X127821Y-51494D01*
X127913Y-51566D01*
X127990Y-51655D01*
X128048Y-51756D01*
X128085Y-51868D01*
X128099Y-51984D01*
X128100Y-52000D01*
X127500Y-51400D02*
X127500Y-52600D01*
X128100Y-61500D02*
X128088Y-61616D01*
X128054Y-61728D01*
X127999Y-61832D01*
X127925Y-61922D01*
X127835Y-61997D01*
X127732Y-62053D01*
X127620Y-62087D01*
X127504Y-62099D01*
X127388Y-62089D01*
X127276Y-62056D01*
X127172Y-62002D01*
X127081Y-61928D01*
X127005Y-61838D01*
X126949Y-61736D01*
X126914Y-61624D01*
X126901Y-61508D01*
X126910Y-61392D01*
X126943Y-61280D01*
X126996Y-61175D01*
X127069Y-61084D01*
X127158Y-61008D01*
X127260Y-60951D01*
X127372Y-60914D01*
X127488Y-60901D01*
X127604Y-60910D01*
X127716Y-60941D01*
X127821Y-60994D01*
X127913Y-61066D01*
X127990Y-61155D01*
X128048Y-61256D01*
X128085Y-61368D01*
X128099Y-61484D01*
X128100Y-61500D01*
X127500Y-60900D02*
X127500Y-62100D01*
G54D12*
X26514Y-65080D02*
X26514Y-64280D01*
X26705Y-64280D01*
X26819Y-64318D01*
X26895Y-64394D01*
X26934Y-64470D01*
X26972Y-64623D01*
X26972Y-64737D01*
X26934Y-64889D01*
X26895Y-64966D01*
X26819Y-65042D01*
X26705Y-65080D01*
X26514Y-65080D01*
X27314Y-65080D02*
X27314Y-64546D01*
X27314Y-64699D02*
X27353Y-64623D01*
X27391Y-64585D01*
X27467Y-64546D01*
X27543Y-64546D01*
X27809Y-65080D02*
X27809Y-64546D01*
X27809Y-64280D02*
X27771Y-64318D01*
X27809Y-64356D01*
X27848Y-64318D01*
X27809Y-64280D01*
X27809Y-64356D01*
X28305Y-65080D02*
X28229Y-65042D01*
X28190Y-64966D01*
X28190Y-64280D01*
X28724Y-65080D02*
X28648Y-65042D01*
X28609Y-64966D01*
X28609Y-64280D01*
X29638Y-65080D02*
X29638Y-64280D01*
X29905Y-64851D01*
X30172Y-64280D01*
X30172Y-65080D01*
X30895Y-65080D02*
X30895Y-64661D01*
X30857Y-64585D01*
X30781Y-64546D01*
X30629Y-64546D01*
X30552Y-64585D01*
X30895Y-65042D02*
X30819Y-65080D01*
X30629Y-65080D01*
X30552Y-65042D01*
X30514Y-64966D01*
X30514Y-64889D01*
X30552Y-64813D01*
X30629Y-64775D01*
X30819Y-64775D01*
X30895Y-64737D01*
X31276Y-64546D02*
X31276Y-65346D01*
X31276Y-64585D02*
X31353Y-64546D01*
X31505Y-64546D01*
X31581Y-64585D01*
X31619Y-64623D01*
X31657Y-64699D01*
X31657Y-64927D01*
X31619Y-65004D01*
X31581Y-65042D01*
X31505Y-65080D01*
X31353Y-65080D01*
X31276Y-65042D01*
X32000Y-65004D02*
X32039Y-65042D01*
X32000Y-65080D01*
X31962Y-65042D01*
X32000Y-65004D01*
X32000Y-65080D01*
X32000Y-64585D02*
X32039Y-64623D01*
X32000Y-64661D01*
X31962Y-64623D01*
X32000Y-64585D01*
X32000Y-64661D01*
X25874Y-66311D02*
X26124Y-66561D01*
X26124Y-66311D02*
X25874Y-66561D01*
X26667Y-65960D02*
X26743Y-65960D01*
X26819Y-65998D01*
X26857Y-66036D01*
X26895Y-66112D01*
X26934Y-66265D01*
X26934Y-66455D01*
X26895Y-66607D01*
X26857Y-66684D01*
X26819Y-66722D01*
X26743Y-66760D01*
X26667Y-66760D01*
X26591Y-66722D01*
X26553Y-66684D01*
X26514Y-66607D01*
X26476Y-66455D01*
X26476Y-66265D01*
X26514Y-66112D01*
X26553Y-66036D01*
X26591Y-65998D01*
X26667Y-65960D01*
X27276Y-66684D02*
X27315Y-66722D01*
X27276Y-66760D01*
X27238Y-66722D01*
X27276Y-66684D01*
X27276Y-66760D01*
X27810Y-65960D02*
X27886Y-65960D01*
X27962Y-65998D01*
X28000Y-66036D01*
X28038Y-66112D01*
X28077Y-66265D01*
X28077Y-66455D01*
X28038Y-66607D01*
X28000Y-66684D01*
X27962Y-66722D01*
X27886Y-66760D01*
X27810Y-66760D01*
X27734Y-66722D01*
X27696Y-66684D01*
X27657Y-66607D01*
X27619Y-66455D01*
X27619Y-66265D01*
X27657Y-66112D01*
X27696Y-66036D01*
X27734Y-65998D01*
X27810Y-65960D01*
X28381Y-66036D02*
X28419Y-65998D01*
X28496Y-65960D01*
X28686Y-65960D01*
X28762Y-65998D01*
X28800Y-66036D01*
X28839Y-66112D01*
X28839Y-66188D01*
X28800Y-66303D01*
X28343Y-66760D01*
X28839Y-66760D01*
X29562Y-65960D02*
X29181Y-65960D01*
X29143Y-66341D01*
X29181Y-66303D01*
X29258Y-66265D01*
X29448Y-66265D01*
X29524Y-66303D01*
X29562Y-66341D01*
X29601Y-66417D01*
X29601Y-66607D01*
X29562Y-66684D01*
X29524Y-66722D01*
X29448Y-66760D01*
X29258Y-66760D01*
X29181Y-66722D01*
X29143Y-66684D01*
X29905Y-65960D02*
X29905Y-66112D01*
X30210Y-65960D02*
X30210Y-66112D01*
X31735Y-65922D02*
X31049Y-66950D01*
X32764Y-65960D02*
X32840Y-65960D01*
X32916Y-65998D01*
X32954Y-66036D01*
X32992Y-66112D01*
X33031Y-66265D01*
X33031Y-66455D01*
X32992Y-66607D01*
X32954Y-66684D01*
X32916Y-66722D01*
X32840Y-66760D01*
X32764Y-66760D01*
X32688Y-66722D01*
X32650Y-66684D01*
X32611Y-66607D01*
X32573Y-66455D01*
X32573Y-66265D01*
X32611Y-66112D01*
X32650Y-66036D01*
X32688Y-65998D01*
X32764Y-65960D01*
X33373Y-66684D02*
X33412Y-66722D01*
X33373Y-66760D01*
X33335Y-66722D01*
X33373Y-66684D01*
X33373Y-66760D01*
X34097Y-65960D02*
X33945Y-65960D01*
X33869Y-65998D01*
X33831Y-66036D01*
X33754Y-66150D01*
X33716Y-66303D01*
X33716Y-66607D01*
X33754Y-66684D01*
X33793Y-66722D01*
X33869Y-66760D01*
X34021Y-66760D01*
X34097Y-66722D01*
X34135Y-66684D01*
X34174Y-66607D01*
X34174Y-66417D01*
X34135Y-66341D01*
X34097Y-66303D01*
X34021Y-66265D01*
X33869Y-66265D01*
X33793Y-66303D01*
X33754Y-66341D01*
X33716Y-66417D01*
X34859Y-66226D02*
X34859Y-66760D01*
X34669Y-65922D02*
X34478Y-66493D01*
X34974Y-66493D01*
X35278Y-66760D02*
X35278Y-66226D01*
X35278Y-66303D02*
X35317Y-66265D01*
X35393Y-66226D01*
X35507Y-66226D01*
X35583Y-66265D01*
X35621Y-66341D01*
X35621Y-66760D01*
X35621Y-66341D02*
X35659Y-66265D01*
X35736Y-66226D01*
X35850Y-66226D01*
X35926Y-66265D01*
X35964Y-66341D01*
X35964Y-66760D01*
X36345Y-66760D02*
X36345Y-66226D01*
X36345Y-66303D02*
X36384Y-66265D01*
X36460Y-66226D01*
X36574Y-66226D01*
X36650Y-66265D01*
X36688Y-66341D01*
X36688Y-66760D01*
X36688Y-66341D02*
X36726Y-66265D01*
X36803Y-66226D01*
X36917Y-66226D01*
X36993Y-66265D01*
X37031Y-66341D01*
X37031Y-66760D01*
X38251Y-67065D02*
X38213Y-67026D01*
X38137Y-66912D01*
X38099Y-66836D01*
X38061Y-66722D01*
X38022Y-66531D01*
X38022Y-66379D01*
X38061Y-66188D01*
X38099Y-66074D01*
X38137Y-65998D01*
X38213Y-65884D01*
X38251Y-65846D01*
X38479Y-65960D02*
X38975Y-65960D01*
X38708Y-66265D01*
X38822Y-66265D01*
X38898Y-66303D01*
X38936Y-66341D01*
X38975Y-66417D01*
X38975Y-66607D01*
X38936Y-66684D01*
X38898Y-66722D01*
X38822Y-66760D01*
X38594Y-66760D01*
X38517Y-66722D01*
X38479Y-66684D01*
X39737Y-66760D02*
X39279Y-66760D01*
X39508Y-66760D02*
X39508Y-65960D01*
X39432Y-66074D01*
X39356Y-66150D01*
X39279Y-66188D01*
X40689Y-66760D02*
X40689Y-65960D01*
X41032Y-66760D02*
X41032Y-66341D01*
X40994Y-66265D01*
X40918Y-66226D01*
X40804Y-66226D01*
X40728Y-66265D01*
X40689Y-66303D01*
X41528Y-66760D02*
X41452Y-66722D01*
X41413Y-66684D01*
X41375Y-66607D01*
X41375Y-66379D01*
X41413Y-66303D01*
X41452Y-66265D01*
X41528Y-66226D01*
X41642Y-66226D01*
X41718Y-66265D01*
X41756Y-66303D01*
X41794Y-66379D01*
X41794Y-66607D01*
X41756Y-66684D01*
X41718Y-66722D01*
X41642Y-66760D01*
X41528Y-66760D01*
X42252Y-66760D02*
X42176Y-66722D01*
X42137Y-66646D01*
X42137Y-65960D01*
X42861Y-66722D02*
X42785Y-66760D01*
X42633Y-66760D01*
X42556Y-66722D01*
X42518Y-66646D01*
X42518Y-66341D01*
X42556Y-66265D01*
X42633Y-66226D01*
X42785Y-66226D01*
X42861Y-66265D01*
X42899Y-66341D01*
X42899Y-66417D01*
X42518Y-66493D01*
X43204Y-66722D02*
X43281Y-66760D01*
X43433Y-66760D01*
X43509Y-66722D01*
X43547Y-66646D01*
X43547Y-66607D01*
X43509Y-66531D01*
X43433Y-66493D01*
X43319Y-66493D01*
X43242Y-66455D01*
X43204Y-66379D01*
X43204Y-66341D01*
X43242Y-66265D01*
X43319Y-66226D01*
X43433Y-66226D01*
X43509Y-66265D01*
X43814Y-67065D02*
X43852Y-67026D01*
X43929Y-66912D01*
X43967Y-66836D01*
X44005Y-66722D01*
X44043Y-66531D01*
X44043Y-66379D01*
X44005Y-66188D01*
X43967Y-66074D01*
X43929Y-65998D01*
X43852Y-65884D01*
X43814Y-65846D01*
G54D10*
X26124Y-67491D02*
X26120Y-67522D01*
X26111Y-67551D01*
X26097Y-67579D01*
X26077Y-67603D01*
X26053Y-67623D01*
X26026Y-67638D01*
X25996Y-67647D01*
X25965Y-67650D01*
X25935Y-67648D01*
X25905Y-67639D01*
X25877Y-67624D01*
X25853Y-67605D01*
X25832Y-67581D01*
X25817Y-67554D01*
X25808Y-67524D01*
X25805Y-67493D01*
X25807Y-67463D01*
X25816Y-67433D01*
X25830Y-67405D01*
X25849Y-67380D01*
X25873Y-67360D01*
X25900Y-67345D01*
X25930Y-67335D01*
X25961Y-67332D01*
X25991Y-67334D01*
X26021Y-67342D01*
X26049Y-67356D01*
X26074Y-67376D01*
X26094Y-67399D01*
X26110Y-67426D01*
X26120Y-67456D01*
X26123Y-67487D01*
X26124Y-67491D01*
G54D12*
X26667Y-67015D02*
X26743Y-67015D01*
X26819Y-67053D01*
X26857Y-67091D01*
X26895Y-67167D01*
X26934Y-67320D01*
X26934Y-67510D01*
X26895Y-67662D01*
X26857Y-67739D01*
X26819Y-67777D01*
X26743Y-67815D01*
X26667Y-67815D01*
X26591Y-67777D01*
X26553Y-67739D01*
X26514Y-67662D01*
X26476Y-67510D01*
X26476Y-67320D01*
X26514Y-67167D01*
X26553Y-67091D01*
X26591Y-67053D01*
X26667Y-67015D01*
X27276Y-67739D02*
X27315Y-67777D01*
X27276Y-67815D01*
X27238Y-67777D01*
X27276Y-67739D01*
X27276Y-67815D01*
X27810Y-67015D02*
X27886Y-67015D01*
X27962Y-67053D01*
X28000Y-67091D01*
X28038Y-67167D01*
X28077Y-67320D01*
X28077Y-67510D01*
X28038Y-67662D01*
X28000Y-67739D01*
X27962Y-67777D01*
X27886Y-67815D01*
X27810Y-67815D01*
X27734Y-67777D01*
X27696Y-67739D01*
X27657Y-67662D01*
X27619Y-67510D01*
X27619Y-67320D01*
X27657Y-67167D01*
X27696Y-67091D01*
X27734Y-67053D01*
X27810Y-67015D01*
X28343Y-67015D02*
X28839Y-67015D01*
X28572Y-67320D01*
X28686Y-67320D01*
X28762Y-67358D01*
X28800Y-67396D01*
X28839Y-67472D01*
X28839Y-67662D01*
X28800Y-67739D01*
X28762Y-67777D01*
X28686Y-67815D01*
X28458Y-67815D01*
X28381Y-67777D01*
X28343Y-67739D01*
X29143Y-67091D02*
X29181Y-67053D01*
X29258Y-67015D01*
X29448Y-67015D01*
X29524Y-67053D01*
X29562Y-67091D01*
X29601Y-67167D01*
X29601Y-67243D01*
X29562Y-67358D01*
X29105Y-67815D01*
X29601Y-67815D01*
X29905Y-67015D02*
X29905Y-67167D01*
X30210Y-67015D02*
X30210Y-67167D01*
X31735Y-66977D02*
X31049Y-68005D01*
X32764Y-67015D02*
X32840Y-67015D01*
X32916Y-67053D01*
X32954Y-67091D01*
X32992Y-67167D01*
X33031Y-67320D01*
X33031Y-67510D01*
X32992Y-67662D01*
X32954Y-67739D01*
X32916Y-67777D01*
X32840Y-67815D01*
X32764Y-67815D01*
X32688Y-67777D01*
X32650Y-67739D01*
X32611Y-67662D01*
X32573Y-67510D01*
X32573Y-67320D01*
X32611Y-67167D01*
X32650Y-67091D01*
X32688Y-67053D01*
X32764Y-67015D01*
X33373Y-67739D02*
X33412Y-67777D01*
X33373Y-67815D01*
X33335Y-67777D01*
X33373Y-67739D01*
X33373Y-67815D01*
X33869Y-67358D02*
X33793Y-67320D01*
X33754Y-67281D01*
X33716Y-67205D01*
X33716Y-67167D01*
X33754Y-67091D01*
X33793Y-67053D01*
X33869Y-67015D01*
X34021Y-67015D01*
X34097Y-67053D01*
X34135Y-67091D01*
X34174Y-67167D01*
X34174Y-67205D01*
X34135Y-67281D01*
X34097Y-67320D01*
X34021Y-67358D01*
X33869Y-67358D01*
X33793Y-67396D01*
X33754Y-67434D01*
X33716Y-67510D01*
X33716Y-67662D01*
X33754Y-67739D01*
X33793Y-67777D01*
X33869Y-67815D01*
X34021Y-67815D01*
X34097Y-67777D01*
X34135Y-67739D01*
X34174Y-67662D01*
X34174Y-67510D01*
X34135Y-67434D01*
X34097Y-67396D01*
X34021Y-67358D01*
X34936Y-67815D02*
X34478Y-67815D01*
X34707Y-67815D02*
X34707Y-67015D01*
X34631Y-67129D01*
X34555Y-67205D01*
X34478Y-67243D01*
X35278Y-67815D02*
X35278Y-67281D01*
X35278Y-67358D02*
X35317Y-67320D01*
X35393Y-67281D01*
X35507Y-67281D01*
X35583Y-67320D01*
X35621Y-67396D01*
X35621Y-67815D01*
X35621Y-67396D02*
X35659Y-67320D01*
X35736Y-67281D01*
X35850Y-67281D01*
X35926Y-67320D01*
X35964Y-67396D01*
X35964Y-67815D01*
X36345Y-67815D02*
X36345Y-67281D01*
X36345Y-67358D02*
X36384Y-67320D01*
X36460Y-67281D01*
X36574Y-67281D01*
X36650Y-67320D01*
X36688Y-67396D01*
X36688Y-67815D01*
X36688Y-67396D02*
X36726Y-67320D01*
X36803Y-67281D01*
X36917Y-67281D01*
X36993Y-67320D01*
X37031Y-67396D01*
X37031Y-67815D01*
X38251Y-68120D02*
X38213Y-68081D01*
X38137Y-67967D01*
X38099Y-67891D01*
X38061Y-67777D01*
X38022Y-67586D01*
X38022Y-67434D01*
X38061Y-67243D01*
X38099Y-67129D01*
X38137Y-67053D01*
X38213Y-66939D01*
X38251Y-66901D01*
X38517Y-67091D02*
X38555Y-67053D01*
X38632Y-67015D01*
X38822Y-67015D01*
X38898Y-67053D01*
X38936Y-67091D01*
X38975Y-67167D01*
X38975Y-67243D01*
X38936Y-67358D01*
X38479Y-67815D01*
X38975Y-67815D01*
X39927Y-67815D02*
X39927Y-67015D01*
X40270Y-67815D02*
X40270Y-67396D01*
X40232Y-67320D01*
X40156Y-67281D01*
X40042Y-67281D01*
X39966Y-67320D01*
X39927Y-67358D01*
X40766Y-67815D02*
X40690Y-67777D01*
X40651Y-67739D01*
X40613Y-67662D01*
X40613Y-67434D01*
X40651Y-67358D01*
X40690Y-67320D01*
X40766Y-67281D01*
X40880Y-67281D01*
X40956Y-67320D01*
X40994Y-67358D01*
X41032Y-67434D01*
X41032Y-67662D01*
X40994Y-67739D01*
X40956Y-67777D01*
X40880Y-67815D01*
X40766Y-67815D01*
X41490Y-67815D02*
X41414Y-67777D01*
X41375Y-67701D01*
X41375Y-67015D01*
X42099Y-67777D02*
X42023Y-67815D01*
X41871Y-67815D01*
X41794Y-67777D01*
X41756Y-67701D01*
X41756Y-67396D01*
X41794Y-67320D01*
X41871Y-67281D01*
X42023Y-67281D01*
X42099Y-67320D01*
X42137Y-67396D01*
X42137Y-67472D01*
X41756Y-67548D01*
X42442Y-67777D02*
X42519Y-67815D01*
X42671Y-67815D01*
X42747Y-67777D01*
X42785Y-67701D01*
X42785Y-67662D01*
X42747Y-67586D01*
X42671Y-67548D01*
X42557Y-67548D01*
X42480Y-67510D01*
X42442Y-67434D01*
X42442Y-67396D01*
X42480Y-67320D01*
X42557Y-67281D01*
X42671Y-67281D01*
X42747Y-67320D01*
X43052Y-68120D02*
X43090Y-68081D01*
X43167Y-67967D01*
X43205Y-67891D01*
X43243Y-67777D01*
X43281Y-67586D01*
X43281Y-67434D01*
X43243Y-67243D01*
X43205Y-67129D01*
X43167Y-67053D01*
X43090Y-66939D01*
X43052Y-66901D01*
X25927Y-68349D02*
X25927Y-68743D01*
X26124Y-68546D02*
X25730Y-68546D01*
X26667Y-68070D02*
X26743Y-68070D01*
X26819Y-68108D01*
X26857Y-68146D01*
X26895Y-68222D01*
X26934Y-68375D01*
X26934Y-68565D01*
X26895Y-68717D01*
X26857Y-68794D01*
X26819Y-68832D01*
X26743Y-68870D01*
X26667Y-68870D01*
X26591Y-68832D01*
X26553Y-68794D01*
X26514Y-68717D01*
X26476Y-68565D01*
X26476Y-68375D01*
X26514Y-68222D01*
X26553Y-68146D01*
X26591Y-68108D01*
X26667Y-68070D01*
X27276Y-68794D02*
X27315Y-68832D01*
X27276Y-68870D01*
X27238Y-68832D01*
X27276Y-68794D01*
X27276Y-68870D01*
X27810Y-68070D02*
X27886Y-68070D01*
X27962Y-68108D01*
X28000Y-68146D01*
X28038Y-68222D01*
X28077Y-68375D01*
X28077Y-68565D01*
X28038Y-68717D01*
X28000Y-68794D01*
X27962Y-68832D01*
X27886Y-68870D01*
X27810Y-68870D01*
X27734Y-68832D01*
X27696Y-68794D01*
X27657Y-68717D01*
X27619Y-68565D01*
X27619Y-68375D01*
X27657Y-68222D01*
X27696Y-68146D01*
X27734Y-68108D01*
X27810Y-68070D01*
X28343Y-68070D02*
X28839Y-68070D01*
X28572Y-68375D01*
X28686Y-68375D01*
X28762Y-68413D01*
X28800Y-68451D01*
X28839Y-68527D01*
X28839Y-68717D01*
X28800Y-68794D01*
X28762Y-68832D01*
X28686Y-68870D01*
X28458Y-68870D01*
X28381Y-68832D01*
X28343Y-68794D01*
X29220Y-68870D02*
X29372Y-68870D01*
X29448Y-68832D01*
X29486Y-68794D01*
X29562Y-68679D01*
X29601Y-68527D01*
X29601Y-68222D01*
X29562Y-68146D01*
X29524Y-68108D01*
X29448Y-68070D01*
X29296Y-68070D01*
X29220Y-68108D01*
X29181Y-68146D01*
X29143Y-68222D01*
X29143Y-68413D01*
X29181Y-68489D01*
X29220Y-68527D01*
X29296Y-68565D01*
X29448Y-68565D01*
X29524Y-68527D01*
X29562Y-68489D01*
X29601Y-68413D01*
X29905Y-68070D02*
X29905Y-68222D01*
X30210Y-68070D02*
X30210Y-68222D01*
X31735Y-68032D02*
X31049Y-69060D01*
X33031Y-68870D02*
X32573Y-68870D01*
X32802Y-68870D02*
X32802Y-68070D01*
X32726Y-68184D01*
X32650Y-68260D01*
X32573Y-68298D01*
X33373Y-68794D02*
X33412Y-68832D01*
X33373Y-68870D01*
X33335Y-68832D01*
X33373Y-68794D01*
X33373Y-68870D01*
X33907Y-68070D02*
X33983Y-68070D01*
X34059Y-68108D01*
X34097Y-68146D01*
X34135Y-68222D01*
X34174Y-68375D01*
X34174Y-68565D01*
X34135Y-68717D01*
X34097Y-68794D01*
X34059Y-68832D01*
X33983Y-68870D01*
X33907Y-68870D01*
X33831Y-68832D01*
X33793Y-68794D01*
X33754Y-68717D01*
X33716Y-68565D01*
X33716Y-68375D01*
X33754Y-68222D01*
X33793Y-68146D01*
X33831Y-68108D01*
X33907Y-68070D01*
X34669Y-68070D02*
X34745Y-68070D01*
X34821Y-68108D01*
X34859Y-68146D01*
X34897Y-68222D01*
X34936Y-68375D01*
X34936Y-68565D01*
X34897Y-68717D01*
X34859Y-68794D01*
X34821Y-68832D01*
X34745Y-68870D01*
X34669Y-68870D01*
X34593Y-68832D01*
X34555Y-68794D01*
X34516Y-68717D01*
X34478Y-68565D01*
X34478Y-68375D01*
X34516Y-68222D01*
X34555Y-68146D01*
X34593Y-68108D01*
X34669Y-68070D01*
X35278Y-68870D02*
X35278Y-68336D01*
X35278Y-68413D02*
X35317Y-68375D01*
X35393Y-68336D01*
X35507Y-68336D01*
X35583Y-68375D01*
X35621Y-68451D01*
X35621Y-68870D01*
X35621Y-68451D02*
X35659Y-68375D01*
X35736Y-68336D01*
X35850Y-68336D01*
X35926Y-68375D01*
X35964Y-68451D01*
X35964Y-68870D01*
X36345Y-68870D02*
X36345Y-68336D01*
X36345Y-68413D02*
X36384Y-68375D01*
X36460Y-68336D01*
X36574Y-68336D01*
X36650Y-68375D01*
X36688Y-68451D01*
X36688Y-68870D01*
X36688Y-68451D02*
X36726Y-68375D01*
X36803Y-68336D01*
X36917Y-68336D01*
X36993Y-68375D01*
X37031Y-68451D01*
X37031Y-68870D01*
X38251Y-69175D02*
X38213Y-69136D01*
X38137Y-69022D01*
X38099Y-68946D01*
X38061Y-68832D01*
X38022Y-68641D01*
X38022Y-68489D01*
X38061Y-68298D01*
X38099Y-68184D01*
X38137Y-68108D01*
X38213Y-67994D01*
X38251Y-67956D01*
X38975Y-68870D02*
X38517Y-68870D01*
X38746Y-68870D02*
X38746Y-68070D01*
X38670Y-68184D01*
X38594Y-68260D01*
X38517Y-68298D01*
X39241Y-68070D02*
X39737Y-68070D01*
X39470Y-68375D01*
X39584Y-68375D01*
X39660Y-68413D01*
X39698Y-68451D01*
X39737Y-68527D01*
X39737Y-68717D01*
X39698Y-68794D01*
X39660Y-68832D01*
X39584Y-68870D01*
X39356Y-68870D01*
X39279Y-68832D01*
X39241Y-68794D01*
X40041Y-68146D02*
X40079Y-68108D01*
X40156Y-68070D01*
X40346Y-68070D01*
X40422Y-68108D01*
X40460Y-68146D01*
X40499Y-68222D01*
X40499Y-68298D01*
X40460Y-68413D01*
X40003Y-68870D01*
X40499Y-68870D01*
X41451Y-68870D02*
X41451Y-68070D01*
X41794Y-68870D02*
X41794Y-68451D01*
X41756Y-68375D01*
X41680Y-68336D01*
X41566Y-68336D01*
X41490Y-68375D01*
X41451Y-68413D01*
X42290Y-68870D02*
X42214Y-68832D01*
X42175Y-68794D01*
X42137Y-68717D01*
X42137Y-68489D01*
X42175Y-68413D01*
X42214Y-68375D01*
X42290Y-68336D01*
X42404Y-68336D01*
X42480Y-68375D01*
X42518Y-68413D01*
X42556Y-68489D01*
X42556Y-68717D01*
X42518Y-68794D01*
X42480Y-68832D01*
X42404Y-68870D01*
X42290Y-68870D01*
X43014Y-68870D02*
X42938Y-68832D01*
X42899Y-68756D01*
X42899Y-68070D01*
X43623Y-68832D02*
X43547Y-68870D01*
X43395Y-68870D01*
X43318Y-68832D01*
X43280Y-68756D01*
X43280Y-68451D01*
X43318Y-68375D01*
X43395Y-68336D01*
X43547Y-68336D01*
X43623Y-68375D01*
X43661Y-68451D01*
X43661Y-68527D01*
X43280Y-68603D01*
X43966Y-68832D02*
X44043Y-68870D01*
X44195Y-68870D01*
X44271Y-68832D01*
X44309Y-68756D01*
X44309Y-68717D01*
X44271Y-68641D01*
X44195Y-68603D01*
X44081Y-68603D01*
X44004Y-68565D01*
X43966Y-68489D01*
X43966Y-68451D01*
X44004Y-68375D01*
X44081Y-68336D01*
X44195Y-68336D01*
X44271Y-68375D01*
X44576Y-69175D02*
X44614Y-69136D01*
X44691Y-69022D01*
X44729Y-68946D01*
X44767Y-68832D01*
X44805Y-68641D01*
X44805Y-68489D01*
X44767Y-68298D01*
X44729Y-68184D01*
X44691Y-68108D01*
X44614Y-67994D01*
X44576Y-67956D01*
G54D10*
X26124Y-69601D02*
X26120Y-69639D01*
X26108Y-69677D01*
X26090Y-69711D01*
X26065Y-69741D01*
X26035Y-69766D01*
X26001Y-69785D01*
X25964Y-69796D01*
X25925Y-69800D01*
X25887Y-69797D01*
X25850Y-69786D01*
X25815Y-69768D01*
X25785Y-69743D01*
X25759Y-69713D01*
X25741Y-69679D01*
X25729Y-69642D01*
X25725Y-69603D01*
X25728Y-69565D01*
X25739Y-69528D01*
X25756Y-69493D01*
X25781Y-69463D01*
X25810Y-69437D01*
X25844Y-69418D01*
X25882Y-69406D01*
X25920Y-69402D01*
X25958Y-69405D01*
X25996Y-69415D01*
X26031Y-69433D01*
X26061Y-69457D01*
X26087Y-69486D01*
X26106Y-69520D01*
X26119Y-69557D01*
X26123Y-69596D01*
X26124Y-69601D01*
X25724Y-69401D02*
X26124Y-69801D01*
X26124Y-69401D02*
X25724Y-69801D01*
G54D12*
X26667Y-69125D02*
X26743Y-69125D01*
X26819Y-69163D01*
X26857Y-69201D01*
X26895Y-69277D01*
X26934Y-69430D01*
X26934Y-69620D01*
X26895Y-69772D01*
X26857Y-69849D01*
X26819Y-69887D01*
X26743Y-69925D01*
X26667Y-69925D01*
X26591Y-69887D01*
X26553Y-69849D01*
X26514Y-69772D01*
X26476Y-69620D01*
X26476Y-69430D01*
X26514Y-69277D01*
X26553Y-69201D01*
X26591Y-69163D01*
X26667Y-69125D01*
X27276Y-69849D02*
X27315Y-69887D01*
X27276Y-69925D01*
X27238Y-69887D01*
X27276Y-69849D01*
X27276Y-69925D01*
X27810Y-69125D02*
X27886Y-69125D01*
X27962Y-69163D01*
X28000Y-69201D01*
X28038Y-69277D01*
X28077Y-69430D01*
X28077Y-69620D01*
X28038Y-69772D01*
X28000Y-69849D01*
X27962Y-69887D01*
X27886Y-69925D01*
X27810Y-69925D01*
X27734Y-69887D01*
X27696Y-69849D01*
X27657Y-69772D01*
X27619Y-69620D01*
X27619Y-69430D01*
X27657Y-69277D01*
X27696Y-69201D01*
X27734Y-69163D01*
X27810Y-69125D01*
X28762Y-69391D02*
X28762Y-69925D01*
X28572Y-69087D02*
X28381Y-69658D01*
X28877Y-69658D01*
X29334Y-69125D02*
X29410Y-69125D01*
X29486Y-69163D01*
X29524Y-69201D01*
X29562Y-69277D01*
X29601Y-69430D01*
X29601Y-69620D01*
X29562Y-69772D01*
X29524Y-69849D01*
X29486Y-69887D01*
X29410Y-69925D01*
X29334Y-69925D01*
X29258Y-69887D01*
X29220Y-69849D01*
X29181Y-69772D01*
X29143Y-69620D01*
X29143Y-69430D01*
X29181Y-69277D01*
X29220Y-69201D01*
X29258Y-69163D01*
X29334Y-69125D01*
X29905Y-69125D02*
X29905Y-69277D01*
X30210Y-69125D02*
X30210Y-69277D01*
X31735Y-69087D02*
X31049Y-70115D01*
X33031Y-69925D02*
X32573Y-69925D01*
X32802Y-69925D02*
X32802Y-69125D01*
X32726Y-69239D01*
X32650Y-69315D01*
X32573Y-69353D01*
X33373Y-69849D02*
X33412Y-69887D01*
X33373Y-69925D01*
X33335Y-69887D01*
X33373Y-69849D01*
X33373Y-69925D01*
X33907Y-69125D02*
X33983Y-69125D01*
X34059Y-69163D01*
X34097Y-69201D01*
X34135Y-69277D01*
X34174Y-69430D01*
X34174Y-69620D01*
X34135Y-69772D01*
X34097Y-69849D01*
X34059Y-69887D01*
X33983Y-69925D01*
X33907Y-69925D01*
X33831Y-69887D01*
X33793Y-69849D01*
X33754Y-69772D01*
X33716Y-69620D01*
X33716Y-69430D01*
X33754Y-69277D01*
X33793Y-69201D01*
X33831Y-69163D01*
X33907Y-69125D01*
X34478Y-69201D02*
X34516Y-69163D01*
X34593Y-69125D01*
X34783Y-69125D01*
X34859Y-69163D01*
X34897Y-69201D01*
X34936Y-69277D01*
X34936Y-69353D01*
X34897Y-69468D01*
X34440Y-69925D01*
X34936Y-69925D01*
X35278Y-69925D02*
X35278Y-69391D01*
X35278Y-69468D02*
X35317Y-69430D01*
X35393Y-69391D01*
X35507Y-69391D01*
X35583Y-69430D01*
X35621Y-69506D01*
X35621Y-69925D01*
X35621Y-69506D02*
X35659Y-69430D01*
X35736Y-69391D01*
X35850Y-69391D01*
X35926Y-69430D01*
X35964Y-69506D01*
X35964Y-69925D01*
X36345Y-69925D02*
X36345Y-69391D01*
X36345Y-69468D02*
X36384Y-69430D01*
X36460Y-69391D01*
X36574Y-69391D01*
X36650Y-69430D01*
X36688Y-69506D01*
X36688Y-69925D01*
X36688Y-69506D02*
X36726Y-69430D01*
X36803Y-69391D01*
X36917Y-69391D01*
X36993Y-69430D01*
X37031Y-69506D01*
X37031Y-69925D01*
X38251Y-70230D02*
X38213Y-70191D01*
X38137Y-70077D01*
X38099Y-70001D01*
X38061Y-69887D01*
X38022Y-69696D01*
X38022Y-69544D01*
X38061Y-69353D01*
X38099Y-69239D01*
X38137Y-69163D01*
X38213Y-69049D01*
X38251Y-69011D01*
X38936Y-69125D02*
X38555Y-69125D01*
X38517Y-69506D01*
X38555Y-69468D01*
X38632Y-69430D01*
X38822Y-69430D01*
X38898Y-69468D01*
X38936Y-69506D01*
X38975Y-69582D01*
X38975Y-69772D01*
X38936Y-69849D01*
X38898Y-69887D01*
X38822Y-69925D01*
X38632Y-69925D01*
X38555Y-69887D01*
X38517Y-69849D01*
X39470Y-69125D02*
X39546Y-69125D01*
X39622Y-69163D01*
X39660Y-69201D01*
X39698Y-69277D01*
X39737Y-69430D01*
X39737Y-69620D01*
X39698Y-69772D01*
X39660Y-69849D01*
X39622Y-69887D01*
X39546Y-69925D01*
X39470Y-69925D01*
X39394Y-69887D01*
X39356Y-69849D01*
X39317Y-69772D01*
X39279Y-69620D01*
X39279Y-69430D01*
X39317Y-69277D01*
X39356Y-69201D01*
X39394Y-69163D01*
X39470Y-69125D01*
X40689Y-69925D02*
X40689Y-69125D01*
X41032Y-69925D02*
X41032Y-69506D01*
X40994Y-69430D01*
X40918Y-69391D01*
X40804Y-69391D01*
X40728Y-69430D01*
X40689Y-69468D01*
X41528Y-69925D02*
X41452Y-69887D01*
X41413Y-69849D01*
X41375Y-69772D01*
X41375Y-69544D01*
X41413Y-69468D01*
X41452Y-69430D01*
X41528Y-69391D01*
X41642Y-69391D01*
X41718Y-69430D01*
X41756Y-69468D01*
X41794Y-69544D01*
X41794Y-69772D01*
X41756Y-69849D01*
X41718Y-69887D01*
X41642Y-69925D01*
X41528Y-69925D01*
X42252Y-69925D02*
X42176Y-69887D01*
X42137Y-69811D01*
X42137Y-69125D01*
X42861Y-69887D02*
X42785Y-69925D01*
X42633Y-69925D01*
X42556Y-69887D01*
X42518Y-69811D01*
X42518Y-69506D01*
X42556Y-69430D01*
X42633Y-69391D01*
X42785Y-69391D01*
X42861Y-69430D01*
X42899Y-69506D01*
X42899Y-69582D01*
X42518Y-69658D01*
X43204Y-69887D02*
X43281Y-69925D01*
X43433Y-69925D01*
X43509Y-69887D01*
X43547Y-69811D01*
X43547Y-69772D01*
X43509Y-69696D01*
X43433Y-69658D01*
X43319Y-69658D01*
X43242Y-69620D01*
X43204Y-69544D01*
X43204Y-69506D01*
X43242Y-69430D01*
X43319Y-69391D01*
X43433Y-69391D01*
X43509Y-69430D01*
X43814Y-70230D02*
X43852Y-70191D01*
X43929Y-70077D01*
X43967Y-70001D01*
X44005Y-69887D01*
X44043Y-69696D01*
X44043Y-69544D01*
X44005Y-69353D01*
X43967Y-69239D01*
X43929Y-69163D01*
X43852Y-69049D01*
X43814Y-69011D01*
G54D10*
X26124Y-70656D02*
X26119Y-70704D01*
X26105Y-70751D01*
X26082Y-70794D01*
X26051Y-70832D01*
X26013Y-70863D01*
X25970Y-70886D01*
X25924Y-70900D01*
X25875Y-70905D01*
X25828Y-70901D01*
X25781Y-70887D01*
X25738Y-70865D01*
X25700Y-70834D01*
X25668Y-70797D01*
X25645Y-70754D01*
X25630Y-70707D01*
X25625Y-70659D01*
X25629Y-70611D01*
X25642Y-70564D01*
X25664Y-70521D01*
X25695Y-70483D01*
X25732Y-70451D01*
X25774Y-70427D01*
X25821Y-70412D01*
X25869Y-70407D01*
X25917Y-70410D01*
X25964Y-70423D01*
X26007Y-70445D01*
X26046Y-70475D01*
X26078Y-70512D01*
X26102Y-70555D01*
X26117Y-70601D01*
X26123Y-70650D01*
X26124Y-70656D01*
X25624Y-70656D02*
X26124Y-70656D01*
G54D12*
X26667Y-70180D02*
X26743Y-70180D01*
X26819Y-70218D01*
X26857Y-70256D01*
X26895Y-70332D01*
X26934Y-70485D01*
X26934Y-70675D01*
X26895Y-70827D01*
X26857Y-70904D01*
X26819Y-70942D01*
X26743Y-70980D01*
X26667Y-70980D01*
X26591Y-70942D01*
X26553Y-70904D01*
X26514Y-70827D01*
X26476Y-70675D01*
X26476Y-70485D01*
X26514Y-70332D01*
X26553Y-70256D01*
X26591Y-70218D01*
X26667Y-70180D01*
X27276Y-70904D02*
X27315Y-70942D01*
X27276Y-70980D01*
X27238Y-70942D01*
X27276Y-70904D01*
X27276Y-70980D01*
X27810Y-70180D02*
X27886Y-70180D01*
X27962Y-70218D01*
X28000Y-70256D01*
X28038Y-70332D01*
X28077Y-70485D01*
X28077Y-70675D01*
X28038Y-70827D01*
X28000Y-70904D01*
X27962Y-70942D01*
X27886Y-70980D01*
X27810Y-70980D01*
X27734Y-70942D01*
X27696Y-70904D01*
X27657Y-70827D01*
X27619Y-70675D01*
X27619Y-70485D01*
X27657Y-70332D01*
X27696Y-70256D01*
X27734Y-70218D01*
X27810Y-70180D01*
X28800Y-70180D02*
X28419Y-70180D01*
X28381Y-70561D01*
X28419Y-70523D01*
X28496Y-70485D01*
X28686Y-70485D01*
X28762Y-70523D01*
X28800Y-70561D01*
X28839Y-70637D01*
X28839Y-70827D01*
X28800Y-70904D01*
X28762Y-70942D01*
X28686Y-70980D01*
X28496Y-70980D01*
X28419Y-70942D01*
X28381Y-70904D01*
X29334Y-70180D02*
X29410Y-70180D01*
X29486Y-70218D01*
X29524Y-70256D01*
X29562Y-70332D01*
X29601Y-70485D01*
X29601Y-70675D01*
X29562Y-70827D01*
X29524Y-70904D01*
X29486Y-70942D01*
X29410Y-70980D01*
X29334Y-70980D01*
X29258Y-70942D01*
X29220Y-70904D01*
X29181Y-70827D01*
X29143Y-70675D01*
X29143Y-70485D01*
X29181Y-70332D01*
X29220Y-70256D01*
X29258Y-70218D01*
X29334Y-70180D01*
X29905Y-70180D02*
X29905Y-70332D01*
X30210Y-70180D02*
X30210Y-70332D01*
X31735Y-70142D02*
X31049Y-71170D01*
X33031Y-70980D02*
X32573Y-70980D01*
X32802Y-70980D02*
X32802Y-70180D01*
X32726Y-70294D01*
X32650Y-70370D01*
X32573Y-70408D01*
X33373Y-70904D02*
X33412Y-70942D01*
X33373Y-70980D01*
X33335Y-70942D01*
X33373Y-70904D01*
X33373Y-70980D01*
X33716Y-70256D02*
X33754Y-70218D01*
X33831Y-70180D01*
X34021Y-70180D01*
X34097Y-70218D01*
X34135Y-70256D01*
X34174Y-70332D01*
X34174Y-70408D01*
X34135Y-70523D01*
X33678Y-70980D01*
X34174Y-70980D01*
X34440Y-70180D02*
X34974Y-70180D01*
X34631Y-70980D01*
X35278Y-70980D02*
X35278Y-70446D01*
X35278Y-70523D02*
X35317Y-70485D01*
X35393Y-70446D01*
X35507Y-70446D01*
X35583Y-70485D01*
X35621Y-70561D01*
X35621Y-70980D01*
X35621Y-70561D02*
X35659Y-70485D01*
X35736Y-70446D01*
X35850Y-70446D01*
X35926Y-70485D01*
X35964Y-70561D01*
X35964Y-70980D01*
X36345Y-70980D02*
X36345Y-70446D01*
X36345Y-70523D02*
X36384Y-70485D01*
X36460Y-70446D01*
X36574Y-70446D01*
X36650Y-70485D01*
X36688Y-70561D01*
X36688Y-70980D01*
X36688Y-70561D02*
X36726Y-70485D01*
X36803Y-70446D01*
X36917Y-70446D01*
X36993Y-70485D01*
X37031Y-70561D01*
X37031Y-70980D01*
X38251Y-71285D02*
X38213Y-71246D01*
X38137Y-71132D01*
X38099Y-71056D01*
X38061Y-70942D01*
X38022Y-70751D01*
X38022Y-70599D01*
X38061Y-70408D01*
X38099Y-70294D01*
X38137Y-70218D01*
X38213Y-70104D01*
X38251Y-70066D01*
X38479Y-70180D02*
X38975Y-70180D01*
X38708Y-70485D01*
X38822Y-70485D01*
X38898Y-70523D01*
X38936Y-70561D01*
X38975Y-70637D01*
X38975Y-70827D01*
X38936Y-70904D01*
X38898Y-70942D01*
X38822Y-70980D01*
X38594Y-70980D01*
X38517Y-70942D01*
X38479Y-70904D01*
X39927Y-70980D02*
X39927Y-70180D01*
X40270Y-70980D02*
X40270Y-70561D01*
X40232Y-70485D01*
X40156Y-70446D01*
X40042Y-70446D01*
X39966Y-70485D01*
X39927Y-70523D01*
X40766Y-70980D02*
X40690Y-70942D01*
X40651Y-70904D01*
X40613Y-70827D01*
X40613Y-70599D01*
X40651Y-70523D01*
X40690Y-70485D01*
X40766Y-70446D01*
X40880Y-70446D01*
X40956Y-70485D01*
X40994Y-70523D01*
X41032Y-70599D01*
X41032Y-70827D01*
X40994Y-70904D01*
X40956Y-70942D01*
X40880Y-70980D01*
X40766Y-70980D01*
X41490Y-70980D02*
X41414Y-70942D01*
X41375Y-70866D01*
X41375Y-70180D01*
X42099Y-70942D02*
X42023Y-70980D01*
X41871Y-70980D01*
X41794Y-70942D01*
X41756Y-70866D01*
X41756Y-70561D01*
X41794Y-70485D01*
X41871Y-70446D01*
X42023Y-70446D01*
X42099Y-70485D01*
X42137Y-70561D01*
X42137Y-70637D01*
X41756Y-70713D01*
X42442Y-70942D02*
X42519Y-70980D01*
X42671Y-70980D01*
X42747Y-70942D01*
X42785Y-70866D01*
X42785Y-70827D01*
X42747Y-70751D01*
X42671Y-70713D01*
X42557Y-70713D01*
X42480Y-70675D01*
X42442Y-70599D01*
X42442Y-70561D01*
X42480Y-70485D01*
X42557Y-70446D01*
X42671Y-70446D01*
X42747Y-70485D01*
X43052Y-71285D02*
X43090Y-71246D01*
X43167Y-71132D01*
X43205Y-71056D01*
X43243Y-70942D01*
X43281Y-70751D01*
X43281Y-70599D01*
X43243Y-70408D01*
X43205Y-70294D01*
X43167Y-70218D01*
X43090Y-70104D01*
X43052Y-70066D01*
G54D10*
X26124Y-71711D02*
X26112Y-71827D01*
X26078Y-71939D01*
X26023Y-72043D01*
X25949Y-72133D01*
X25859Y-72208D01*
X25756Y-72264D01*
X25644Y-72298D01*
X25528Y-72310D01*
X25412Y-72300D01*
X25300Y-72267D01*
X25196Y-72213D01*
X25105Y-72139D01*
X25029Y-72049D01*
X24973Y-71947D01*
X24938Y-71835D01*
X24925Y-71719D01*
X24934Y-71603D01*
X24967Y-71491D01*
X25020Y-71386D01*
X25093Y-71295D01*
X25182Y-71219D01*
X25284Y-71162D01*
X25396Y-71125D01*
X25512Y-71112D01*
X25628Y-71121D01*
X25740Y-71152D01*
X25845Y-71205D01*
X25937Y-71277D01*
X26014Y-71366D01*
X26072Y-71467D01*
X26109Y-71579D01*
X26123Y-71695D01*
X26124Y-71711D01*
X25524Y-71111D02*
X25524Y-72311D01*
G54D12*
X26667Y-71235D02*
X26743Y-71235D01*
X26819Y-71273D01*
X26857Y-71311D01*
X26895Y-71387D01*
X26934Y-71540D01*
X26934Y-71730D01*
X26895Y-71882D01*
X26857Y-71959D01*
X26819Y-71997D01*
X26743Y-72035D01*
X26667Y-72035D01*
X26591Y-71997D01*
X26553Y-71959D01*
X26514Y-71882D01*
X26476Y-71730D01*
X26476Y-71540D01*
X26514Y-71387D01*
X26553Y-71311D01*
X26591Y-71273D01*
X26667Y-71235D01*
X27276Y-71959D02*
X27315Y-71997D01*
X27276Y-72035D01*
X27238Y-71997D01*
X27276Y-71959D01*
X27276Y-72035D01*
X28077Y-72035D02*
X27619Y-72035D01*
X27848Y-72035D02*
X27848Y-71235D01*
X27772Y-71349D01*
X27696Y-71425D01*
X27619Y-71463D01*
X28381Y-71311D02*
X28419Y-71273D01*
X28496Y-71235D01*
X28686Y-71235D01*
X28762Y-71273D01*
X28800Y-71311D01*
X28839Y-71387D01*
X28839Y-71463D01*
X28800Y-71578D01*
X28343Y-72035D01*
X28839Y-72035D01*
X29334Y-71235D02*
X29410Y-71235D01*
X29486Y-71273D01*
X29524Y-71311D01*
X29562Y-71387D01*
X29601Y-71540D01*
X29601Y-71730D01*
X29562Y-71882D01*
X29524Y-71959D01*
X29486Y-71997D01*
X29410Y-72035D01*
X29334Y-72035D01*
X29258Y-71997D01*
X29220Y-71959D01*
X29181Y-71882D01*
X29143Y-71730D01*
X29143Y-71540D01*
X29181Y-71387D01*
X29220Y-71311D01*
X29258Y-71273D01*
X29334Y-71235D01*
X29905Y-71235D02*
X29905Y-71387D01*
X30210Y-71235D02*
X30210Y-71387D01*
X31735Y-71197D02*
X31049Y-72225D01*
X32535Y-71235D02*
X33031Y-71235D01*
X32764Y-71540D01*
X32878Y-71540D01*
X32954Y-71578D01*
X32992Y-71616D01*
X33031Y-71692D01*
X33031Y-71882D01*
X32992Y-71959D01*
X32954Y-71997D01*
X32878Y-72035D01*
X32650Y-72035D01*
X32573Y-71997D01*
X32535Y-71959D01*
X33373Y-71959D02*
X33412Y-71997D01*
X33373Y-72035D01*
X33335Y-71997D01*
X33373Y-71959D01*
X33373Y-72035D01*
X33907Y-71235D02*
X33983Y-71235D01*
X34059Y-71273D01*
X34097Y-71311D01*
X34135Y-71387D01*
X34174Y-71540D01*
X34174Y-71730D01*
X34135Y-71882D01*
X34097Y-71959D01*
X34059Y-71997D01*
X33983Y-72035D01*
X33907Y-72035D01*
X33831Y-71997D01*
X33793Y-71959D01*
X33754Y-71882D01*
X33716Y-71730D01*
X33716Y-71540D01*
X33754Y-71387D01*
X33793Y-71311D01*
X33831Y-71273D01*
X33907Y-71235D01*
X34897Y-71235D02*
X34516Y-71235D01*
X34478Y-71616D01*
X34516Y-71578D01*
X34593Y-71540D01*
X34783Y-71540D01*
X34859Y-71578D01*
X34897Y-71616D01*
X34936Y-71692D01*
X34936Y-71882D01*
X34897Y-71959D01*
X34859Y-71997D01*
X34783Y-72035D01*
X34593Y-72035D01*
X34516Y-71997D01*
X34478Y-71959D01*
X35278Y-72035D02*
X35278Y-71501D01*
X35278Y-71578D02*
X35317Y-71540D01*
X35393Y-71501D01*
X35507Y-71501D01*
X35583Y-71540D01*
X35621Y-71616D01*
X35621Y-72035D01*
X35621Y-71616D02*
X35659Y-71540D01*
X35736Y-71501D01*
X35850Y-71501D01*
X35926Y-71540D01*
X35964Y-71616D01*
X35964Y-72035D01*
X36345Y-72035D02*
X36345Y-71501D01*
X36345Y-71578D02*
X36384Y-71540D01*
X36460Y-71501D01*
X36574Y-71501D01*
X36650Y-71540D01*
X36688Y-71616D01*
X36688Y-72035D01*
X36688Y-71616D02*
X36726Y-71540D01*
X36803Y-71501D01*
X36917Y-71501D01*
X36993Y-71540D01*
X37031Y-71616D01*
X37031Y-72035D01*
X38251Y-72340D02*
X38213Y-72301D01*
X38137Y-72187D01*
X38099Y-72111D01*
X38061Y-71997D01*
X38022Y-71806D01*
X38022Y-71654D01*
X38061Y-71463D01*
X38099Y-71349D01*
X38137Y-71273D01*
X38213Y-71159D01*
X38251Y-71121D01*
X38670Y-71578D02*
X38594Y-71540D01*
X38555Y-71501D01*
X38517Y-71425D01*
X38517Y-71387D01*
X38555Y-71311D01*
X38594Y-71273D01*
X38670Y-71235D01*
X38822Y-71235D01*
X38898Y-71273D01*
X38936Y-71311D01*
X38975Y-71387D01*
X38975Y-71425D01*
X38936Y-71501D01*
X38898Y-71540D01*
X38822Y-71578D01*
X38670Y-71578D01*
X38594Y-71616D01*
X38555Y-71654D01*
X38517Y-71730D01*
X38517Y-71882D01*
X38555Y-71959D01*
X38594Y-71997D01*
X38670Y-72035D01*
X38822Y-72035D01*
X38898Y-71997D01*
X38936Y-71959D01*
X38975Y-71882D01*
X38975Y-71730D01*
X38936Y-71654D01*
X38898Y-71616D01*
X38822Y-71578D01*
X39927Y-72035D02*
X39927Y-71235D01*
X40270Y-72035D02*
X40270Y-71616D01*
X40232Y-71540D01*
X40156Y-71501D01*
X40042Y-71501D01*
X39966Y-71540D01*
X39927Y-71578D01*
X40766Y-72035D02*
X40690Y-71997D01*
X40651Y-71959D01*
X40613Y-71882D01*
X40613Y-71654D01*
X40651Y-71578D01*
X40690Y-71540D01*
X40766Y-71501D01*
X40880Y-71501D01*
X40956Y-71540D01*
X40994Y-71578D01*
X41032Y-71654D01*
X41032Y-71882D01*
X40994Y-71959D01*
X40956Y-71997D01*
X40880Y-72035D01*
X40766Y-72035D01*
X41490Y-72035D02*
X41414Y-71997D01*
X41375Y-71921D01*
X41375Y-71235D01*
X42099Y-71997D02*
X42023Y-72035D01*
X41871Y-72035D01*
X41794Y-71997D01*
X41756Y-71921D01*
X41756Y-71616D01*
X41794Y-71540D01*
X41871Y-71501D01*
X42023Y-71501D01*
X42099Y-71540D01*
X42137Y-71616D01*
X42137Y-71692D01*
X41756Y-71768D01*
X42442Y-71997D02*
X42519Y-72035D01*
X42671Y-72035D01*
X42747Y-71997D01*
X42785Y-71921D01*
X42785Y-71882D01*
X42747Y-71806D01*
X42671Y-71768D01*
X42557Y-71768D01*
X42480Y-71730D01*
X42442Y-71654D01*
X42442Y-71616D01*
X42480Y-71540D01*
X42557Y-71501D01*
X42671Y-71501D01*
X42747Y-71540D01*
X43052Y-72340D02*
X43090Y-72301D01*
X43167Y-72187D01*
X43205Y-72111D01*
X43243Y-71997D01*
X43281Y-71806D01*
X43281Y-71654D01*
X43243Y-71463D01*
X43205Y-71349D01*
X43167Y-71273D01*
X43090Y-71159D01*
X43052Y-71121D01*
M02*
