G04 (created by PCBNEW-RS274X (2010-04-21 BZR 23xx)-stable) date Wed 16 Mar 2011 01:54:05 AM CET*
G01*
G70*
G90*
%MOIN*%
G04 Gerber Fmt 3.4, Leading zero omitted, Abs format*
%FSLAX34Y34*%
G04 APERTURE LIST*
%ADD10C,0.006000*%
%ADD11C,0.015000*%
%ADD12R,0.060000X0.060000*%
%ADD13C,0.060000*%
%ADD14O,0.052000X0.104000*%
%ADD15C,0.100000*%
%ADD16R,0.055000X0.055000*%
%ADD17C,0.055000*%
%ADD18C,0.080000*%
%ADD19C,0.160000*%
%ADD20C,0.035000*%
%ADD21C,0.012000*%
%ADD22C,0.020000*%
%ADD23C,0.050000*%
%ADD24C,0.010000*%
G04 APERTURE END LIST*
G54D10*
G54D11*
X08000Y-11500D02*
X108000Y-11500D01*
X08000Y-24000D02*
X08000Y-11500D01*
X09000Y-24000D02*
X08000Y-24000D01*
X108000Y-24000D02*
X107000Y-24000D01*
X108000Y-11500D02*
X108000Y-24000D01*
X107000Y-24000D02*
X09000Y-24000D01*
G54D12*
X59500Y-17300D03*
G54D13*
X59500Y-16300D03*
X60500Y-17300D03*
X60500Y-16300D03*
X61500Y-17300D03*
X61500Y-16300D03*
G54D14*
X67436Y-21035D03*
X66452Y-21035D03*
X65468Y-21035D03*
G54D15*
X44000Y-21000D03*
X44000Y-19000D03*
X12500Y-19000D03*
X12500Y-21000D03*
X12500Y-14500D03*
X12500Y-16500D03*
X17000Y-16500D03*
X17000Y-14500D03*
X17000Y-21000D03*
X17000Y-19000D03*
X21500Y-19000D03*
X21500Y-21000D03*
X21500Y-14500D03*
X21500Y-16500D03*
X26000Y-16500D03*
X26000Y-14500D03*
X26000Y-21000D03*
X26000Y-19000D03*
X30500Y-19000D03*
X30500Y-21000D03*
X30500Y-14500D03*
X30500Y-16500D03*
X35000Y-16500D03*
X35000Y-14500D03*
X35000Y-21000D03*
X35000Y-19000D03*
X39500Y-19000D03*
X39500Y-21000D03*
X39500Y-14500D03*
X39500Y-16500D03*
X44000Y-16500D03*
X44000Y-14500D03*
G54D13*
X62700Y-12575D03*
X65250Y-12575D03*
X62700Y-14325D03*
X65250Y-14325D03*
X59200Y-12575D03*
X61750Y-12575D03*
X59200Y-14325D03*
X61750Y-14325D03*
X55700Y-12575D03*
X58250Y-12575D03*
X55700Y-14325D03*
X58250Y-14325D03*
G54D15*
X103500Y-21000D03*
X103500Y-19000D03*
X103500Y-16500D03*
X103500Y-14500D03*
X99000Y-14500D03*
X99000Y-16500D03*
X99000Y-19000D03*
X99000Y-21000D03*
X94500Y-21000D03*
X94500Y-19000D03*
X94500Y-16500D03*
X94500Y-14500D03*
X90000Y-14500D03*
X90000Y-16500D03*
X90000Y-19000D03*
X90000Y-21000D03*
X85500Y-21000D03*
X85500Y-19000D03*
X85500Y-16500D03*
X85500Y-14500D03*
X81000Y-14500D03*
X81000Y-16500D03*
X81000Y-19000D03*
X81000Y-21000D03*
X76500Y-21000D03*
X76500Y-19000D03*
X76500Y-16500D03*
X76500Y-14500D03*
X72000Y-14500D03*
X72000Y-16500D03*
X72000Y-19000D03*
X72000Y-21000D03*
G54D16*
X55285Y-16021D03*
G54D17*
X55285Y-17021D03*
G54D18*
X52495Y-21720D03*
X48495Y-20720D03*
X52495Y-19720D03*
G54D12*
X09000Y-20500D03*
G54D13*
X09000Y-19500D03*
X09000Y-18500D03*
X09000Y-17500D03*
X09000Y-16500D03*
X09000Y-15500D03*
G54D12*
X107000Y-20500D03*
G54D13*
X107000Y-19500D03*
X107000Y-18500D03*
X107000Y-17500D03*
X107000Y-16500D03*
X107000Y-15500D03*
G54D19*
X106500Y-22500D03*
X09500Y-13000D03*
X09500Y-22500D03*
X106500Y-13000D03*
X74500Y-13000D03*
X41500Y-13000D03*
G54D20*
X63720Y-18581D03*
X60389Y-19796D03*
X58763Y-19851D03*
X64737Y-17177D03*
X60456Y-20317D03*
X44756Y-22825D03*
X50655Y-23327D03*
X70983Y-22743D03*
X66197Y-15541D03*
X66318Y-14487D03*
X70895Y-17492D03*
X70727Y-15965D03*
X46249Y-18295D03*
X67421Y-17011D03*
X66906Y-17301D03*
X67630Y-19283D03*
X56499Y-16323D03*
X105329Y-18500D03*
X57977Y-19842D03*
X50205Y-12441D03*
X64051Y-17903D03*
X58214Y-16893D03*
X60320Y-21731D03*
X57373Y-14307D03*
G54D21*
X60608Y-17408D02*
X60500Y-17300D01*
X60608Y-18581D02*
X60608Y-17408D01*
X60389Y-18800D02*
X60608Y-18581D01*
X60389Y-19796D02*
X60389Y-18800D01*
X60608Y-18581D02*
X63720Y-18581D01*
X58764Y-19851D02*
X58763Y-19851D01*
X58764Y-18499D02*
X58764Y-19851D01*
X59500Y-17763D02*
X58764Y-18499D01*
X59500Y-17300D02*
X59500Y-17763D01*
X62558Y-20317D02*
X60456Y-20317D01*
X64737Y-18138D02*
X62558Y-20317D01*
X64737Y-17177D02*
X64737Y-18138D01*
G54D22*
X36825Y-22825D02*
X35000Y-21000D01*
X44756Y-22825D02*
X36825Y-22825D01*
X46327Y-23327D02*
X44000Y-21000D01*
X50655Y-23327D02*
X46327Y-23327D01*
X74757Y-22743D02*
X76500Y-21000D01*
X70983Y-22743D02*
X74757Y-22743D01*
G54D21*
X65821Y-14984D02*
X66318Y-14487D01*
X65821Y-15165D02*
X65821Y-14984D01*
X63635Y-15165D02*
X65821Y-15165D01*
X61500Y-17300D02*
X63635Y-15165D01*
X65821Y-15165D02*
X66197Y-15541D01*
X70895Y-16133D02*
X70727Y-15965D01*
X70895Y-17492D02*
X70895Y-16133D01*
G54D23*
X82000Y-20000D02*
X81000Y-21000D01*
X89000Y-20000D02*
X82000Y-20000D01*
X90000Y-21000D02*
X89000Y-20000D01*
X91000Y-20000D02*
X90000Y-21000D01*
X98000Y-20000D02*
X91000Y-20000D01*
X99000Y-21000D02*
X98000Y-20000D01*
X102103Y-17897D02*
X99000Y-21000D01*
X107000Y-17897D02*
X102103Y-17897D01*
X107000Y-17500D02*
X107000Y-17897D01*
X107000Y-17897D02*
X107000Y-18500D01*
X20646Y-20146D02*
X21500Y-21000D01*
X13354Y-20146D02*
X20646Y-20146D01*
X12500Y-21000D02*
X13354Y-20146D01*
X40500Y-20000D02*
X39500Y-21000D01*
X46249Y-20000D02*
X40500Y-20000D01*
X46249Y-20000D02*
X46249Y-18295D01*
X73000Y-20000D02*
X72000Y-21000D01*
X80000Y-20000D02*
X73000Y-20000D01*
X81000Y-21000D02*
X80000Y-20000D01*
X22354Y-20146D02*
X21500Y-21000D01*
X29646Y-20146D02*
X22354Y-20146D01*
X30500Y-21000D02*
X29646Y-20146D01*
X48978Y-22729D02*
X46249Y-20000D01*
X70113Y-22729D02*
X48978Y-22729D01*
X71842Y-21000D02*
X70113Y-22729D01*
X72000Y-21000D02*
X71842Y-21000D01*
G54D21*
X68011Y-20883D02*
X67859Y-21035D01*
X68011Y-17601D02*
X68011Y-20883D01*
X67421Y-17011D02*
X68011Y-17601D01*
X67436Y-21035D02*
X67859Y-21035D01*
X65468Y-18739D02*
X65468Y-21035D01*
X66906Y-17301D02*
X65468Y-18739D01*
X64775Y-13050D02*
X65250Y-12575D01*
X62225Y-13050D02*
X64775Y-13050D01*
X62225Y-15575D02*
X62225Y-13050D01*
X61500Y-16300D02*
X62225Y-15575D01*
X62225Y-13050D02*
X61750Y-12575D01*
X66561Y-20352D02*
X66452Y-20352D01*
X67630Y-19283D02*
X66561Y-20352D01*
X66452Y-21035D02*
X66452Y-20352D01*
X56499Y-14326D02*
X56499Y-16323D01*
X58250Y-12575D02*
X56499Y-14326D01*
X66452Y-21035D02*
X66029Y-21035D01*
X66029Y-21362D02*
X66029Y-21035D01*
X65486Y-21905D02*
X66029Y-21362D01*
X61620Y-21905D02*
X65486Y-21905D01*
X61124Y-21409D02*
X61620Y-21905D01*
X61100Y-21385D02*
X61124Y-21409D01*
X58762Y-21385D02*
X61100Y-21385D01*
X55285Y-17908D02*
X58762Y-21385D01*
X55285Y-17021D02*
X55285Y-17908D01*
X52990Y-22215D02*
X52495Y-21720D01*
X60318Y-22215D02*
X52990Y-22215D01*
X61124Y-21409D02*
X60318Y-22215D01*
G54D23*
X107000Y-13500D02*
X107000Y-15500D01*
X106500Y-13000D02*
X107000Y-13500D01*
X09000Y-13500D02*
X09000Y-15500D01*
X09500Y-13000D02*
X09000Y-13500D01*
X107000Y-15500D02*
X107000Y-16500D01*
X105329Y-21329D02*
X105329Y-18500D01*
X106500Y-22500D02*
X105329Y-21329D01*
X09000Y-15500D02*
X09000Y-16500D01*
X09654Y-22346D02*
X09500Y-22500D01*
X09654Y-17154D02*
X09654Y-22346D01*
X09000Y-16500D02*
X09654Y-17154D01*
X55915Y-17780D02*
X57977Y-19842D01*
X55915Y-15475D02*
X55915Y-17780D01*
X53440Y-13000D02*
X55915Y-15475D01*
X41500Y-13000D02*
X53440Y-13000D01*
X59048Y-20913D02*
X57977Y-19842D01*
X62548Y-20913D02*
X59048Y-20913D01*
X68024Y-15437D02*
X62548Y-20913D01*
X73094Y-15437D02*
X68024Y-15437D01*
X74500Y-14031D02*
X73094Y-15437D01*
X74500Y-13000D02*
X74500Y-14031D01*
G54D22*
X90000Y-19000D02*
X90000Y-16500D01*
X94500Y-16500D02*
X94500Y-19000D01*
X99000Y-19000D02*
X99000Y-16500D01*
X85500Y-16500D02*
X85500Y-19000D01*
X81000Y-19000D02*
X81000Y-16500D01*
X76500Y-16500D02*
X76500Y-19000D01*
G54D21*
X50536Y-12110D02*
X50205Y-12441D01*
X58691Y-12110D02*
X50536Y-12110D01*
X58725Y-12144D02*
X58691Y-12110D01*
X58725Y-13850D02*
X58725Y-12144D01*
X59200Y-14325D02*
X58725Y-13850D01*
G54D22*
X72000Y-19000D02*
X72000Y-16500D01*
X21500Y-16500D02*
X21500Y-19000D01*
X26000Y-19000D02*
X26000Y-16500D01*
X44000Y-16500D02*
X44000Y-19000D01*
X44000Y-14500D02*
X39500Y-14500D01*
X39500Y-16500D02*
X39500Y-19000D01*
X35000Y-19000D02*
X35000Y-16500D01*
X30500Y-16500D02*
X30500Y-19000D01*
G54D21*
X58271Y-16836D02*
X58214Y-16893D01*
X60930Y-16836D02*
X58271Y-16836D01*
X60964Y-16870D02*
X60930Y-16836D01*
X60964Y-17466D02*
X60964Y-16870D01*
X61401Y-17903D02*
X60964Y-17466D01*
X64051Y-17903D02*
X61401Y-17903D01*
G54D22*
X12500Y-16500D02*
X12500Y-19000D01*
X17000Y-19000D02*
X17000Y-16500D01*
G54D21*
X52698Y-20720D02*
X48495Y-20720D01*
X53709Y-21731D02*
X52698Y-20720D01*
X60320Y-21731D02*
X53709Y-21731D01*
X57507Y-14307D02*
X57373Y-14307D01*
X59500Y-16300D02*
X57507Y-14307D01*
G54D10*
G36*
X107725Y-23725D02*
X107725Y-11775D01*
X08275Y-11775D01*
X08275Y-23725D01*
X08650Y-23725D01*
X08767Y-23725D01*
X08767Y-23162D01*
X08650Y-23092D01*
X08623Y-23076D01*
X08473Y-22714D01*
X08470Y-22304D01*
X08623Y-21924D01*
X08650Y-21907D01*
X08650Y-21049D01*
X08559Y-21011D01*
X08489Y-20941D01*
X08451Y-20849D01*
X08451Y-20150D01*
X08489Y-20059D01*
X08559Y-19989D01*
X08651Y-19951D01*
X08675Y-19951D01*
X08535Y-19811D01*
X08451Y-19609D01*
X08451Y-19391D01*
X08535Y-19189D01*
X08689Y-19035D01*
X08773Y-19000D01*
X08689Y-18965D01*
X08535Y-18811D01*
X08451Y-18609D01*
X08451Y-18391D01*
X08535Y-18189D01*
X08689Y-18035D01*
X08773Y-18000D01*
X08689Y-17965D01*
X08535Y-17811D01*
X08451Y-17609D01*
X08451Y-17391D01*
X08535Y-17189D01*
X08622Y-17102D01*
X08622Y-16808D01*
X08528Y-16781D01*
X08468Y-16634D01*
X08457Y-16421D01*
X08528Y-16219D01*
X08622Y-16192D01*
X08622Y-15808D01*
X08528Y-15781D01*
X08468Y-15634D01*
X08457Y-15421D01*
X08528Y-15219D01*
X08622Y-15192D01*
X08929Y-15500D01*
X08622Y-15808D01*
X08622Y-16192D01*
X08929Y-16500D01*
X08622Y-16808D01*
X08622Y-17102D01*
X08689Y-17035D01*
X08784Y-16995D01*
X08719Y-16972D01*
X08692Y-16878D01*
X09000Y-16571D01*
X09000Y-16429D01*
X08692Y-16122D01*
X08719Y-16028D01*
X08792Y-15997D01*
X08719Y-15972D01*
X08692Y-15878D01*
X09000Y-15571D01*
X09000Y-15429D01*
X08692Y-15122D01*
X08719Y-15028D01*
X08767Y-15008D01*
X08767Y-13662D01*
X08623Y-13576D01*
X08473Y-13214D01*
X08470Y-12804D01*
X08623Y-12424D01*
X08767Y-12338D01*
X09429Y-13000D01*
X08767Y-13662D01*
X08767Y-15008D01*
X08866Y-14968D01*
X09079Y-14957D01*
X09281Y-15028D01*
X09304Y-15108D01*
X09304Y-14030D01*
X08924Y-13877D01*
X08838Y-13733D01*
X09500Y-13071D01*
X09500Y-12929D01*
X08838Y-12267D01*
X08924Y-12123D01*
X09286Y-11973D01*
X09696Y-11970D01*
X10076Y-12123D01*
X10162Y-12267D01*
X09500Y-12929D01*
X09500Y-13071D01*
X10162Y-13733D01*
X10076Y-13877D01*
X09714Y-14027D01*
X09304Y-14030D01*
X09304Y-15108D01*
X09308Y-15122D01*
X09000Y-15429D01*
X09000Y-15571D01*
X09308Y-15878D01*
X09281Y-15972D01*
X09207Y-16002D01*
X09281Y-16028D01*
X09308Y-16122D01*
X09000Y-16429D01*
X09000Y-16571D01*
X09308Y-16878D01*
X09281Y-16972D01*
X09219Y-16997D01*
X09311Y-17035D01*
X09378Y-17102D01*
X09378Y-16808D01*
X09071Y-16500D01*
X09378Y-16192D01*
X09378Y-15808D01*
X09071Y-15500D01*
X09378Y-15192D01*
X09472Y-15219D01*
X09532Y-15366D01*
X09543Y-15579D01*
X09472Y-15781D01*
X09378Y-15808D01*
X09378Y-16192D01*
X09472Y-16219D01*
X09532Y-16366D01*
X09543Y-16579D01*
X09472Y-16781D01*
X09378Y-16808D01*
X09378Y-17102D01*
X09465Y-17189D01*
X09549Y-17391D01*
X09549Y-17609D01*
X09465Y-17811D01*
X09311Y-17965D01*
X09226Y-18000D01*
X09311Y-18035D01*
X09465Y-18189D01*
X09549Y-18391D01*
X09549Y-18609D01*
X09465Y-18811D01*
X09311Y-18965D01*
X09226Y-19000D01*
X09311Y-19035D01*
X09465Y-19189D01*
X09549Y-19391D01*
X09549Y-19609D01*
X09465Y-19811D01*
X09324Y-19951D01*
X09350Y-19951D01*
X09441Y-19989D01*
X09511Y-20059D01*
X09549Y-20151D01*
X09549Y-20850D01*
X09511Y-20941D01*
X09441Y-21011D01*
X09349Y-21049D01*
X08650Y-21049D01*
X08650Y-21907D01*
X08767Y-21838D01*
X09429Y-22500D01*
X08767Y-23162D01*
X08767Y-23725D01*
X09304Y-23725D01*
X09304Y-23530D01*
X08924Y-23377D01*
X08838Y-23233D01*
X09500Y-22571D01*
X09500Y-22429D01*
X08838Y-21767D01*
X08924Y-21623D01*
X09286Y-21473D01*
X09696Y-21470D01*
X10076Y-21623D01*
X10162Y-21767D01*
X09500Y-22429D01*
X09500Y-22571D01*
X10162Y-23233D01*
X10076Y-23377D01*
X09714Y-23527D01*
X09304Y-23530D01*
X09304Y-23725D01*
X10233Y-23725D01*
X10233Y-23162D01*
X09571Y-22500D01*
X10233Y-21838D01*
X10233Y-13662D01*
X09571Y-13000D01*
X10233Y-12338D01*
X10377Y-12424D01*
X10527Y-12786D01*
X10530Y-13196D01*
X10377Y-13576D01*
X10233Y-13662D01*
X10233Y-21838D01*
X10377Y-21924D01*
X10527Y-22286D01*
X10530Y-22696D01*
X10377Y-23076D01*
X10233Y-23162D01*
X10233Y-23725D01*
X30350Y-23725D01*
X30350Y-21749D01*
X30075Y-21634D01*
X29865Y-21423D01*
X29751Y-21148D01*
X29751Y-20958D01*
X29438Y-20646D01*
X26663Y-20646D01*
X26749Y-20852D01*
X26749Y-21150D01*
X26634Y-21425D01*
X26423Y-21635D01*
X26148Y-21749D01*
X25850Y-21749D01*
X25575Y-21634D01*
X25365Y-21423D01*
X25251Y-21148D01*
X25251Y-20850D01*
X25336Y-20646D01*
X22561Y-20646D01*
X22249Y-20958D01*
X22249Y-21150D01*
X22134Y-21425D01*
X21923Y-21635D01*
X21648Y-21749D01*
X21350Y-21749D01*
X21075Y-21634D01*
X20865Y-21423D01*
X20751Y-21148D01*
X20751Y-20958D01*
X20438Y-20646D01*
X17663Y-20646D01*
X17749Y-20852D01*
X17749Y-21150D01*
X17634Y-21425D01*
X17423Y-21635D01*
X17148Y-21749D01*
X16850Y-21749D01*
X16575Y-21634D01*
X16365Y-21423D01*
X16251Y-21148D01*
X16251Y-20850D01*
X16336Y-20646D01*
X13561Y-20646D01*
X13249Y-20958D01*
X13249Y-21150D01*
X13134Y-21425D01*
X12923Y-21635D01*
X12648Y-21749D01*
X12350Y-21749D01*
X12075Y-21634D01*
X11865Y-21423D01*
X11751Y-21148D01*
X11751Y-20850D01*
X11866Y-20575D01*
X12077Y-20365D01*
X12350Y-20251D01*
X12350Y-19749D01*
X12075Y-19634D01*
X11865Y-19423D01*
X11751Y-19148D01*
X11751Y-18850D01*
X11866Y-18575D01*
X12077Y-18365D01*
X12150Y-18334D01*
X12150Y-17165D01*
X12075Y-17134D01*
X11865Y-16923D01*
X11751Y-16648D01*
X11751Y-16350D01*
X11866Y-16075D01*
X12077Y-15865D01*
X12350Y-15751D01*
X12350Y-15249D01*
X12075Y-15134D01*
X11865Y-14923D01*
X11751Y-14648D01*
X11751Y-14350D01*
X11866Y-14075D01*
X12077Y-13865D01*
X12352Y-13751D01*
X12650Y-13751D01*
X12925Y-13866D01*
X13135Y-14077D01*
X13249Y-14352D01*
X13249Y-14650D01*
X13134Y-14925D01*
X12923Y-15135D01*
X12648Y-15249D01*
X12350Y-15249D01*
X12350Y-15751D01*
X12650Y-15751D01*
X12925Y-15866D01*
X13135Y-16077D01*
X13249Y-16352D01*
X13249Y-16650D01*
X13134Y-16925D01*
X12923Y-17135D01*
X12850Y-17165D01*
X12850Y-18334D01*
X12925Y-18366D01*
X13135Y-18577D01*
X13249Y-18852D01*
X13249Y-19150D01*
X13134Y-19425D01*
X12923Y-19635D01*
X12648Y-19749D01*
X12350Y-19749D01*
X12350Y-20251D01*
X12541Y-20251D01*
X13000Y-19792D01*
X13163Y-19684D01*
X13315Y-19653D01*
X13353Y-19646D01*
X16603Y-19646D01*
X16575Y-19634D01*
X16365Y-19423D01*
X16251Y-19148D01*
X16251Y-18850D01*
X16366Y-18575D01*
X16577Y-18365D01*
X16650Y-18334D01*
X16650Y-17165D01*
X16575Y-17134D01*
X16365Y-16923D01*
X16251Y-16648D01*
X16251Y-16350D01*
X16366Y-16075D01*
X16577Y-15865D01*
X16850Y-15751D01*
X16850Y-15249D01*
X16575Y-15134D01*
X16365Y-14923D01*
X16251Y-14648D01*
X16251Y-14350D01*
X16366Y-14075D01*
X16577Y-13865D01*
X16852Y-13751D01*
X17150Y-13751D01*
X17425Y-13866D01*
X17635Y-14077D01*
X17749Y-14352D01*
X17749Y-14650D01*
X17634Y-14925D01*
X17423Y-15135D01*
X17148Y-15249D01*
X16850Y-15249D01*
X16850Y-15751D01*
X17150Y-15751D01*
X17425Y-15866D01*
X17635Y-16077D01*
X17749Y-16352D01*
X17749Y-16650D01*
X17634Y-16925D01*
X17423Y-17135D01*
X17350Y-17165D01*
X17350Y-18334D01*
X17425Y-18366D01*
X17635Y-18577D01*
X17749Y-18852D01*
X17749Y-19150D01*
X17634Y-19425D01*
X17423Y-19635D01*
X17396Y-19646D01*
X20641Y-19646D01*
X20646Y-19645D01*
X20838Y-19684D01*
X21000Y-19792D01*
X21350Y-20142D01*
X21350Y-19749D01*
X21075Y-19634D01*
X20865Y-19423D01*
X20751Y-19148D01*
X20751Y-18850D01*
X20866Y-18575D01*
X21077Y-18365D01*
X21150Y-18334D01*
X21150Y-17165D01*
X21075Y-17134D01*
X20865Y-16923D01*
X20751Y-16648D01*
X20751Y-16350D01*
X20866Y-16075D01*
X21077Y-15865D01*
X21350Y-15751D01*
X21350Y-15249D01*
X21075Y-15134D01*
X20865Y-14923D01*
X20751Y-14648D01*
X20751Y-14350D01*
X20866Y-14075D01*
X21077Y-13865D01*
X21352Y-13751D01*
X21650Y-13751D01*
X21925Y-13866D01*
X22135Y-14077D01*
X22249Y-14352D01*
X22249Y-14650D01*
X22134Y-14925D01*
X21923Y-15135D01*
X21648Y-15249D01*
X21350Y-15249D01*
X21350Y-15751D01*
X21650Y-15751D01*
X21925Y-15866D01*
X22135Y-16077D01*
X22249Y-16352D01*
X22249Y-16650D01*
X22134Y-16925D01*
X21923Y-17135D01*
X21850Y-17165D01*
X21850Y-18334D01*
X21925Y-18366D01*
X22135Y-18577D01*
X22249Y-18852D01*
X22249Y-19150D01*
X22134Y-19425D01*
X21923Y-19635D01*
X21648Y-19749D01*
X21350Y-19749D01*
X21350Y-20142D01*
X21458Y-20251D01*
X21541Y-20251D01*
X22000Y-19792D01*
X22163Y-19684D01*
X22315Y-19653D01*
X22353Y-19646D01*
X25603Y-19646D01*
X25575Y-19634D01*
X25365Y-19423D01*
X25251Y-19148D01*
X25251Y-18850D01*
X25366Y-18575D01*
X25577Y-18365D01*
X25650Y-18334D01*
X25650Y-17165D01*
X25575Y-17134D01*
X25365Y-16923D01*
X25251Y-16648D01*
X25251Y-16350D01*
X25366Y-16075D01*
X25577Y-15865D01*
X25850Y-15751D01*
X25850Y-15249D01*
X25575Y-15134D01*
X25365Y-14923D01*
X25251Y-14648D01*
X25251Y-14350D01*
X25366Y-14075D01*
X25577Y-13865D01*
X25852Y-13751D01*
X26150Y-13751D01*
X26425Y-13866D01*
X26635Y-14077D01*
X26749Y-14352D01*
X26749Y-14650D01*
X26634Y-14925D01*
X26423Y-15135D01*
X26148Y-15249D01*
X25850Y-15249D01*
X25850Y-15751D01*
X26150Y-15751D01*
X26425Y-15866D01*
X26635Y-16077D01*
X26749Y-16352D01*
X26749Y-16650D01*
X26634Y-16925D01*
X26423Y-17135D01*
X26350Y-17165D01*
X26350Y-18334D01*
X26425Y-18366D01*
X26635Y-18577D01*
X26749Y-18852D01*
X26749Y-19150D01*
X26634Y-19425D01*
X26423Y-19635D01*
X26396Y-19646D01*
X29641Y-19646D01*
X29646Y-19645D01*
X29838Y-19684D01*
X30000Y-19792D01*
X30350Y-20142D01*
X30350Y-19749D01*
X30075Y-19634D01*
X29865Y-19423D01*
X29751Y-19148D01*
X29751Y-18850D01*
X29866Y-18575D01*
X30077Y-18365D01*
X30150Y-18334D01*
X30150Y-17165D01*
X30075Y-17134D01*
X29865Y-16923D01*
X29751Y-16648D01*
X29751Y-16350D01*
X29866Y-16075D01*
X30077Y-15865D01*
X30350Y-15751D01*
X30350Y-15249D01*
X30075Y-15134D01*
X29865Y-14923D01*
X29751Y-14648D01*
X29751Y-14350D01*
X29866Y-14075D01*
X30077Y-13865D01*
X30352Y-13751D01*
X30650Y-13751D01*
X30925Y-13866D01*
X31135Y-14077D01*
X31249Y-14352D01*
X31249Y-14650D01*
X31134Y-14925D01*
X30923Y-15135D01*
X30648Y-15249D01*
X30350Y-15249D01*
X30350Y-15751D01*
X30650Y-15751D01*
X30925Y-15866D01*
X31135Y-16077D01*
X31249Y-16352D01*
X31249Y-16650D01*
X31134Y-16925D01*
X30923Y-17135D01*
X30850Y-17165D01*
X30850Y-18334D01*
X30925Y-18366D01*
X31135Y-18577D01*
X31249Y-18852D01*
X31249Y-19150D01*
X31134Y-19425D01*
X30923Y-19635D01*
X30648Y-19749D01*
X30350Y-19749D01*
X30350Y-20142D01*
X30458Y-20251D01*
X30650Y-20251D01*
X30925Y-20366D01*
X31135Y-20577D01*
X31249Y-20852D01*
X31249Y-21150D01*
X31134Y-21425D01*
X30923Y-21635D01*
X30648Y-21749D01*
X30350Y-21749D01*
X30350Y-23725D01*
X50505Y-23725D01*
X50414Y-23687D01*
X50404Y-23677D01*
X46327Y-23677D01*
X46193Y-23650D01*
X46079Y-23574D01*
X45135Y-22630D01*
X45181Y-22741D01*
X45181Y-22910D01*
X45116Y-23066D01*
X44996Y-23186D01*
X44840Y-23250D01*
X44671Y-23250D01*
X44515Y-23185D01*
X44505Y-23175D01*
X36825Y-23175D01*
X36691Y-23148D01*
X36577Y-23072D01*
X35223Y-21717D01*
X35148Y-21749D01*
X34850Y-21749D01*
X34575Y-21634D01*
X34365Y-21423D01*
X34251Y-21148D01*
X34251Y-20850D01*
X34366Y-20575D01*
X34577Y-20365D01*
X34850Y-20251D01*
X34850Y-19749D01*
X34575Y-19634D01*
X34365Y-19423D01*
X34251Y-19148D01*
X34251Y-18850D01*
X34366Y-18575D01*
X34577Y-18365D01*
X34650Y-18334D01*
X34650Y-17165D01*
X34575Y-17134D01*
X34365Y-16923D01*
X34251Y-16648D01*
X34251Y-16350D01*
X34366Y-16075D01*
X34577Y-15865D01*
X34850Y-15751D01*
X34850Y-15249D01*
X34575Y-15134D01*
X34365Y-14923D01*
X34251Y-14648D01*
X34251Y-14350D01*
X34366Y-14075D01*
X34577Y-13865D01*
X34852Y-13751D01*
X35150Y-13751D01*
X35425Y-13866D01*
X35635Y-14077D01*
X35749Y-14352D01*
X35749Y-14650D01*
X35634Y-14925D01*
X35423Y-15135D01*
X35148Y-15249D01*
X34850Y-15249D01*
X34850Y-15751D01*
X35150Y-15751D01*
X35425Y-15866D01*
X35635Y-16077D01*
X35749Y-16352D01*
X35749Y-16650D01*
X35634Y-16925D01*
X35423Y-17135D01*
X35350Y-17165D01*
X35350Y-18334D01*
X35425Y-18366D01*
X35635Y-18577D01*
X35749Y-18852D01*
X35749Y-19150D01*
X35634Y-19425D01*
X35423Y-19635D01*
X35148Y-19749D01*
X34850Y-19749D01*
X34850Y-20251D01*
X35150Y-20251D01*
X35425Y-20366D01*
X35635Y-20577D01*
X35749Y-20852D01*
X35749Y-21150D01*
X35718Y-21223D01*
X36969Y-22475D01*
X44505Y-22475D01*
X44516Y-22464D01*
X44672Y-22400D01*
X44841Y-22400D01*
X44951Y-22446D01*
X44223Y-21717D01*
X44148Y-21749D01*
X43850Y-21749D01*
X43575Y-21634D01*
X43365Y-21423D01*
X43251Y-21148D01*
X43251Y-20850D01*
X43366Y-20575D01*
X43441Y-20500D01*
X40707Y-20500D01*
X40249Y-20958D01*
X40249Y-21150D01*
X40134Y-21425D01*
X39923Y-21635D01*
X39648Y-21749D01*
X39350Y-21749D01*
X39075Y-21634D01*
X38865Y-21423D01*
X38751Y-21148D01*
X38751Y-20850D01*
X38866Y-20575D01*
X39077Y-20365D01*
X39350Y-20251D01*
X39350Y-19749D01*
X39075Y-19634D01*
X38865Y-19423D01*
X38751Y-19148D01*
X38751Y-18850D01*
X38866Y-18575D01*
X39077Y-18365D01*
X39150Y-18334D01*
X39150Y-17165D01*
X39075Y-17134D01*
X38865Y-16923D01*
X38751Y-16648D01*
X38751Y-16350D01*
X38866Y-16075D01*
X39077Y-15865D01*
X39352Y-15751D01*
X39650Y-15751D01*
X39925Y-15866D01*
X40135Y-16077D01*
X40249Y-16352D01*
X40249Y-16650D01*
X40134Y-16925D01*
X39923Y-17135D01*
X39850Y-17165D01*
X39850Y-18334D01*
X39925Y-18366D01*
X40135Y-18577D01*
X40249Y-18852D01*
X40249Y-19150D01*
X40134Y-19425D01*
X39923Y-19635D01*
X39648Y-19749D01*
X39350Y-19749D01*
X39350Y-20251D01*
X39541Y-20251D01*
X40146Y-19646D01*
X40243Y-19581D01*
X40308Y-19538D01*
X40500Y-19500D01*
X43441Y-19500D01*
X43365Y-19423D01*
X43251Y-19148D01*
X43251Y-18850D01*
X43366Y-18575D01*
X43577Y-18365D01*
X43650Y-18334D01*
X43650Y-17165D01*
X43575Y-17134D01*
X43365Y-16923D01*
X43251Y-16648D01*
X43251Y-16350D01*
X43366Y-16075D01*
X43577Y-15865D01*
X43850Y-15751D01*
X43850Y-15249D01*
X43575Y-15134D01*
X43365Y-14923D01*
X43334Y-14850D01*
X40165Y-14850D01*
X40134Y-14925D01*
X39923Y-15135D01*
X39648Y-15249D01*
X39350Y-15249D01*
X39075Y-15134D01*
X38865Y-14923D01*
X38751Y-14648D01*
X38751Y-14350D01*
X38866Y-14075D01*
X39077Y-13865D01*
X39352Y-13751D01*
X39650Y-13751D01*
X39925Y-13866D01*
X40135Y-14077D01*
X40165Y-14150D01*
X40767Y-14150D01*
X40767Y-13662D01*
X40623Y-13576D01*
X40473Y-13214D01*
X40470Y-12804D01*
X40623Y-12424D01*
X40767Y-12338D01*
X41429Y-13000D01*
X40767Y-13662D01*
X40767Y-14150D01*
X41304Y-14150D01*
X41304Y-14030D01*
X40924Y-13877D01*
X40838Y-13733D01*
X41500Y-13071D01*
X41500Y-12929D01*
X40838Y-12267D01*
X40924Y-12123D01*
X41286Y-11973D01*
X41696Y-11970D01*
X42076Y-12123D01*
X42162Y-12267D01*
X41500Y-12929D01*
X41500Y-13071D01*
X42162Y-13733D01*
X42076Y-13877D01*
X41714Y-14027D01*
X41304Y-14030D01*
X41304Y-14150D01*
X42233Y-14150D01*
X42233Y-13662D01*
X41571Y-13000D01*
X42233Y-12338D01*
X42377Y-12424D01*
X42527Y-12786D01*
X42530Y-13196D01*
X42377Y-13576D01*
X42233Y-13662D01*
X42233Y-14150D01*
X43334Y-14150D01*
X43366Y-14075D01*
X43577Y-13865D01*
X43852Y-13751D01*
X44150Y-13751D01*
X44425Y-13866D01*
X44635Y-14077D01*
X44749Y-14352D01*
X44749Y-14650D01*
X44634Y-14925D01*
X44423Y-15135D01*
X44148Y-15249D01*
X43850Y-15249D01*
X43850Y-15751D01*
X44150Y-15751D01*
X44425Y-15866D01*
X44635Y-16077D01*
X44749Y-16352D01*
X44749Y-16650D01*
X44634Y-16925D01*
X44423Y-17135D01*
X44350Y-17165D01*
X44350Y-18334D01*
X44425Y-18366D01*
X44635Y-18577D01*
X44749Y-18852D01*
X44749Y-19150D01*
X44634Y-19425D01*
X44558Y-19500D01*
X45749Y-19500D01*
X45749Y-18295D01*
X45787Y-18104D01*
X45895Y-17941D01*
X46058Y-17833D01*
X46249Y-17795D01*
X46440Y-17833D01*
X46603Y-17941D01*
X46711Y-18104D01*
X46749Y-18295D01*
X46749Y-19792D01*
X47874Y-20918D01*
X47846Y-20849D01*
X47846Y-20591D01*
X47945Y-20352D01*
X48127Y-20170D01*
X48366Y-20071D01*
X48624Y-20071D01*
X48863Y-20170D01*
X49045Y-20352D01*
X49069Y-20410D01*
X52366Y-20410D01*
X52366Y-20369D01*
X52127Y-20270D01*
X51945Y-20088D01*
X51846Y-19849D01*
X51846Y-19591D01*
X51945Y-19352D01*
X52127Y-19170D01*
X52366Y-19071D01*
X52624Y-19071D01*
X52863Y-19170D01*
X53045Y-19352D01*
X53144Y-19591D01*
X53144Y-19849D01*
X53045Y-20088D01*
X52863Y-20270D01*
X52624Y-20369D01*
X52366Y-20369D01*
X52366Y-20410D01*
X52698Y-20410D01*
X52817Y-20434D01*
X52917Y-20501D01*
X53837Y-21421D01*
X58360Y-21421D01*
X55066Y-18127D01*
X54999Y-18027D01*
X54975Y-17908D01*
X54975Y-17453D01*
X54840Y-17318D01*
X54760Y-17125D01*
X54760Y-16916D01*
X54840Y-16723D01*
X54988Y-16576D01*
X55062Y-16545D01*
X54960Y-16545D01*
X54869Y-16507D01*
X54799Y-16437D01*
X54761Y-16345D01*
X54761Y-15696D01*
X54799Y-15605D01*
X54869Y-15535D01*
X54961Y-15497D01*
X55610Y-15497D01*
X55701Y-15535D01*
X55771Y-15605D01*
X55809Y-15697D01*
X55809Y-16346D01*
X55771Y-16437D01*
X55701Y-16507D01*
X55609Y-16545D01*
X55508Y-16545D01*
X55583Y-16576D01*
X55730Y-16724D01*
X55810Y-16917D01*
X55810Y-17126D01*
X55730Y-17319D01*
X55595Y-17453D01*
X55595Y-17780D01*
X58890Y-21075D01*
X60371Y-21075D01*
X60371Y-20742D01*
X60215Y-20677D01*
X60095Y-20557D01*
X60031Y-20401D01*
X60031Y-20232D01*
X60087Y-20095D01*
X60028Y-20036D01*
X59964Y-19880D01*
X59964Y-19711D01*
X60029Y-19555D01*
X60079Y-19505D01*
X60079Y-18800D01*
X60103Y-18681D01*
X60170Y-18581D01*
X60298Y-18452D01*
X60298Y-17810D01*
X60189Y-17765D01*
X60049Y-17625D01*
X60049Y-17650D01*
X60011Y-17741D01*
X59941Y-17811D01*
X59849Y-17849D01*
X59792Y-17849D01*
X59786Y-17882D01*
X59719Y-17983D01*
X59074Y-18627D01*
X59074Y-19561D01*
X59124Y-19611D01*
X59188Y-19767D01*
X59188Y-19936D01*
X59123Y-20092D01*
X59003Y-20212D01*
X58847Y-20276D01*
X58678Y-20276D01*
X58522Y-20211D01*
X58402Y-20091D01*
X58338Y-19935D01*
X58338Y-19766D01*
X58403Y-19610D01*
X58454Y-19559D01*
X58454Y-18499D01*
X58478Y-18380D01*
X58545Y-18280D01*
X59036Y-17788D01*
X58989Y-17741D01*
X58951Y-17649D01*
X58951Y-17146D01*
X58562Y-17146D01*
X58454Y-17254D01*
X58298Y-17318D01*
X58129Y-17318D01*
X57973Y-17253D01*
X57853Y-17133D01*
X57789Y-16977D01*
X57789Y-16808D01*
X57854Y-16652D01*
X57974Y-16532D01*
X58130Y-16468D01*
X58299Y-16468D01*
X58438Y-16526D01*
X58999Y-16526D01*
X58951Y-16409D01*
X58951Y-16190D01*
X57483Y-14721D01*
X57457Y-14732D01*
X57288Y-14732D01*
X57132Y-14667D01*
X57012Y-14547D01*
X56948Y-14391D01*
X56948Y-14315D01*
X56809Y-14454D01*
X56809Y-16032D01*
X56860Y-16083D01*
X56924Y-16239D01*
X56924Y-16408D01*
X56859Y-16564D01*
X56739Y-16684D01*
X56583Y-16748D01*
X56414Y-16748D01*
X56258Y-16683D01*
X56138Y-16563D01*
X56074Y-16407D01*
X56074Y-16238D01*
X56139Y-16082D01*
X56189Y-16032D01*
X56189Y-14578D01*
X56165Y-14636D01*
X56011Y-14790D01*
X55809Y-14874D01*
X55591Y-14874D01*
X55389Y-14790D01*
X55235Y-14636D01*
X55151Y-14434D01*
X55151Y-14216D01*
X55235Y-14014D01*
X55389Y-13860D01*
X55591Y-13776D01*
X55809Y-13776D01*
X56011Y-13860D01*
X56165Y-14014D01*
X56232Y-14177D01*
X56280Y-14107D01*
X57701Y-12685D01*
X57701Y-12466D01*
X57720Y-12420D01*
X56229Y-12420D01*
X56249Y-12466D01*
X56249Y-12684D01*
X56165Y-12886D01*
X56011Y-13040D01*
X55809Y-13124D01*
X55591Y-13124D01*
X55389Y-13040D01*
X55235Y-12886D01*
X55151Y-12684D01*
X55151Y-12466D01*
X55170Y-12420D01*
X50664Y-12420D01*
X50630Y-12454D01*
X50630Y-12526D01*
X50565Y-12682D01*
X50445Y-12802D01*
X50289Y-12866D01*
X50120Y-12866D01*
X49964Y-12801D01*
X49844Y-12681D01*
X49780Y-12525D01*
X49780Y-12356D01*
X49845Y-12200D01*
X49965Y-12080D01*
X50121Y-12016D01*
X50192Y-12016D01*
X50316Y-11891D01*
X50417Y-11824D01*
X50536Y-11800D01*
X58691Y-11800D01*
X58810Y-11824D01*
X58910Y-11891D01*
X58944Y-11925D01*
X59011Y-12025D01*
X59017Y-12056D01*
X59091Y-12026D01*
X59309Y-12026D01*
X59511Y-12110D01*
X59665Y-12264D01*
X59749Y-12466D01*
X59749Y-12684D01*
X59665Y-12886D01*
X59511Y-13040D01*
X59309Y-13124D01*
X59091Y-13124D01*
X59035Y-13100D01*
X59035Y-13721D01*
X59089Y-13776D01*
X59309Y-13776D01*
X59511Y-13860D01*
X59665Y-14014D01*
X59749Y-14216D01*
X59749Y-14434D01*
X59665Y-14636D01*
X59511Y-14790D01*
X59309Y-14874D01*
X59091Y-14874D01*
X58889Y-14790D01*
X58735Y-14636D01*
X58725Y-14611D01*
X58715Y-14636D01*
X58561Y-14790D01*
X58467Y-14828D01*
X59390Y-15751D01*
X59609Y-15751D01*
X59811Y-15835D01*
X59965Y-15989D01*
X60000Y-16073D01*
X60035Y-15989D01*
X60189Y-15835D01*
X60391Y-15751D01*
X60609Y-15751D01*
X60811Y-15835D01*
X60965Y-15989D01*
X61000Y-16073D01*
X61035Y-15989D01*
X61189Y-15835D01*
X61391Y-15751D01*
X61610Y-15751D01*
X61915Y-15447D01*
X61915Y-14850D01*
X61859Y-14874D01*
X61641Y-14874D01*
X61439Y-14790D01*
X61285Y-14636D01*
X61201Y-14434D01*
X61201Y-14216D01*
X61285Y-14014D01*
X61439Y-13860D01*
X61641Y-13776D01*
X61859Y-13776D01*
X61915Y-13799D01*
X61915Y-13178D01*
X61859Y-13123D01*
X61859Y-13124D01*
X61641Y-13124D01*
X61439Y-13040D01*
X61285Y-12886D01*
X61201Y-12684D01*
X61201Y-12466D01*
X61285Y-12264D01*
X61439Y-12110D01*
X61641Y-12026D01*
X61859Y-12026D01*
X62061Y-12110D01*
X62215Y-12264D01*
X62225Y-12288D01*
X62235Y-12264D01*
X62389Y-12110D01*
X62591Y-12026D01*
X62809Y-12026D01*
X63011Y-12110D01*
X63165Y-12264D01*
X63249Y-12466D01*
X63249Y-12684D01*
X63225Y-12740D01*
X64646Y-12740D01*
X64701Y-12685D01*
X64701Y-12466D01*
X64785Y-12264D01*
X64939Y-12110D01*
X65141Y-12026D01*
X65359Y-12026D01*
X65561Y-12110D01*
X65715Y-12264D01*
X65799Y-12466D01*
X65799Y-12684D01*
X65715Y-12886D01*
X65561Y-13040D01*
X65359Y-13124D01*
X65141Y-13124D01*
X65139Y-13123D01*
X64994Y-13269D01*
X64894Y-13336D01*
X64775Y-13360D01*
X62535Y-13360D01*
X62535Y-13799D01*
X62591Y-13776D01*
X62809Y-13776D01*
X63011Y-13860D01*
X63165Y-14014D01*
X63249Y-14216D01*
X63249Y-14434D01*
X63165Y-14636D01*
X63011Y-14790D01*
X62809Y-14874D01*
X62591Y-14874D01*
X62535Y-14850D01*
X62535Y-15575D01*
X62511Y-15694D01*
X62444Y-15794D01*
X62048Y-16189D01*
X62049Y-16191D01*
X62049Y-16313D01*
X63416Y-14946D01*
X63516Y-14879D01*
X63635Y-14855D01*
X65095Y-14855D01*
X64939Y-14790D01*
X64785Y-14636D01*
X64701Y-14434D01*
X64701Y-14216D01*
X64785Y-14014D01*
X64939Y-13860D01*
X65141Y-13776D01*
X65359Y-13776D01*
X65561Y-13860D01*
X65715Y-14014D01*
X65799Y-14216D01*
X65799Y-14434D01*
X65715Y-14636D01*
X65561Y-14790D01*
X65404Y-14855D01*
X65541Y-14855D01*
X65602Y-14765D01*
X65893Y-14473D01*
X65893Y-14402D01*
X65958Y-14246D01*
X66078Y-14126D01*
X66234Y-14062D01*
X66403Y-14062D01*
X66559Y-14127D01*
X66679Y-14247D01*
X66743Y-14403D01*
X66743Y-14572D01*
X66678Y-14728D01*
X66558Y-14848D01*
X66402Y-14912D01*
X66331Y-14912D01*
X66168Y-15074D01*
X66210Y-15116D01*
X66282Y-15116D01*
X66438Y-15181D01*
X66558Y-15301D01*
X66622Y-15457D01*
X66622Y-15626D01*
X66557Y-15782D01*
X66437Y-15902D01*
X66281Y-15966D01*
X66112Y-15966D01*
X65956Y-15901D01*
X65836Y-15781D01*
X65772Y-15625D01*
X65772Y-15554D01*
X65692Y-15475D01*
X63762Y-15475D01*
X62048Y-17189D01*
X62049Y-17191D01*
X62049Y-17409D01*
X61972Y-17593D01*
X63760Y-17593D01*
X63811Y-17542D01*
X63967Y-17478D01*
X64136Y-17478D01*
X64292Y-17543D01*
X64412Y-17663D01*
X64427Y-17699D01*
X64427Y-17468D01*
X64376Y-17417D01*
X64312Y-17261D01*
X64312Y-17092D01*
X64377Y-16936D01*
X64497Y-16816D01*
X64653Y-16752D01*
X64822Y-16752D01*
X64978Y-16817D01*
X65098Y-16937D01*
X65162Y-17093D01*
X65162Y-17262D01*
X65097Y-17418D01*
X65047Y-17468D01*
X65047Y-18138D01*
X65023Y-18257D01*
X64989Y-18306D01*
X64956Y-18358D01*
X62777Y-20536D01*
X62677Y-20603D01*
X62558Y-20627D01*
X60747Y-20627D01*
X60696Y-20678D01*
X60540Y-20742D01*
X60371Y-20742D01*
X60371Y-21075D01*
X61100Y-21075D01*
X61219Y-21099D01*
X61319Y-21166D01*
X61343Y-21189D01*
X61344Y-21191D01*
X61748Y-21595D01*
X65045Y-21595D01*
X65044Y-21593D01*
X64968Y-21409D01*
X64968Y-20660D01*
X65044Y-20476D01*
X65158Y-20362D01*
X65158Y-18739D01*
X65182Y-18620D01*
X65249Y-18520D01*
X66481Y-17287D01*
X66481Y-17216D01*
X66546Y-17060D01*
X66666Y-16940D01*
X66822Y-16876D01*
X66991Y-16876D01*
X67013Y-16885D01*
X67061Y-16770D01*
X67181Y-16650D01*
X67337Y-16586D01*
X67506Y-16586D01*
X67662Y-16651D01*
X67782Y-16771D01*
X67846Y-16927D01*
X67846Y-16998D01*
X68230Y-17382D01*
X68297Y-17482D01*
X68321Y-17601D01*
X68321Y-20883D01*
X68297Y-21002D01*
X68230Y-21103D01*
X68078Y-21254D01*
X67978Y-21321D01*
X67936Y-21329D01*
X67936Y-21410D01*
X67860Y-21594D01*
X67719Y-21734D01*
X67535Y-21810D01*
X67336Y-21810D01*
X67152Y-21734D01*
X67012Y-21593D01*
X66944Y-21428D01*
X66876Y-21594D01*
X66735Y-21734D01*
X66551Y-21810D01*
X66352Y-21810D01*
X66168Y-21734D01*
X66132Y-21697D01*
X65705Y-22124D01*
X65605Y-22191D01*
X65486Y-22215D01*
X61620Y-22215D01*
X61501Y-22191D01*
X61450Y-22157D01*
X61400Y-22124D01*
X61124Y-21847D01*
X60742Y-22229D01*
X69905Y-22229D01*
X70810Y-21324D01*
X70810Y-17917D01*
X70654Y-17852D01*
X70534Y-17732D01*
X70470Y-17576D01*
X70470Y-17407D01*
X70535Y-17251D01*
X70585Y-17201D01*
X70585Y-16366D01*
X70486Y-16325D01*
X70366Y-16205D01*
X70302Y-16049D01*
X70302Y-15880D01*
X70367Y-15724D01*
X70487Y-15604D01*
X70643Y-15540D01*
X70812Y-15540D01*
X70968Y-15605D01*
X71088Y-15725D01*
X71152Y-15881D01*
X71152Y-15970D01*
X71181Y-16014D01*
X71205Y-16133D01*
X71205Y-17201D01*
X71256Y-17252D01*
X71320Y-17408D01*
X71320Y-17577D01*
X71255Y-17733D01*
X71135Y-17853D01*
X70979Y-17917D01*
X70810Y-17917D01*
X70810Y-21324D01*
X71251Y-20883D01*
X71251Y-20850D01*
X71366Y-20575D01*
X71577Y-20365D01*
X71850Y-20251D01*
X71850Y-19749D01*
X71575Y-19634D01*
X71365Y-19423D01*
X71251Y-19148D01*
X71251Y-18850D01*
X71366Y-18575D01*
X71577Y-18365D01*
X71650Y-18334D01*
X71650Y-17165D01*
X71575Y-17134D01*
X71365Y-16923D01*
X71251Y-16648D01*
X71251Y-16350D01*
X71366Y-16075D01*
X71577Y-15865D01*
X71850Y-15751D01*
X71850Y-15249D01*
X71575Y-15134D01*
X71365Y-14923D01*
X71251Y-14648D01*
X71251Y-14350D01*
X71366Y-14075D01*
X71577Y-13865D01*
X71852Y-13751D01*
X72150Y-13751D01*
X72425Y-13866D01*
X72635Y-14077D01*
X72749Y-14352D01*
X72749Y-14650D01*
X72634Y-14925D01*
X72423Y-15135D01*
X72148Y-15249D01*
X71850Y-15249D01*
X71850Y-15751D01*
X72150Y-15751D01*
X72425Y-15866D01*
X72635Y-16077D01*
X72749Y-16352D01*
X72749Y-16650D01*
X72634Y-16925D01*
X72423Y-17135D01*
X72350Y-17165D01*
X72350Y-18334D01*
X72425Y-18366D01*
X72635Y-18577D01*
X72749Y-18852D01*
X72749Y-19150D01*
X72634Y-19425D01*
X72423Y-19635D01*
X72148Y-19749D01*
X71850Y-19749D01*
X71850Y-20251D01*
X72041Y-20251D01*
X72646Y-19646D01*
X72743Y-19581D01*
X72808Y-19538D01*
X73000Y-19500D01*
X73767Y-19500D01*
X73767Y-13662D01*
X73623Y-13576D01*
X73473Y-13214D01*
X73470Y-12804D01*
X73623Y-12424D01*
X73767Y-12338D01*
X74429Y-13000D01*
X73767Y-13662D01*
X73767Y-19500D01*
X74304Y-19500D01*
X74304Y-14030D01*
X73924Y-13877D01*
X73838Y-13733D01*
X74500Y-13071D01*
X74500Y-12929D01*
X73838Y-12267D01*
X73924Y-12123D01*
X74286Y-11973D01*
X74696Y-11970D01*
X75076Y-12123D01*
X75162Y-12267D01*
X74500Y-12929D01*
X74500Y-13071D01*
X75162Y-13733D01*
X75076Y-13877D01*
X74714Y-14027D01*
X74304Y-14030D01*
X74304Y-19500D01*
X75233Y-19500D01*
X75233Y-13662D01*
X74571Y-13000D01*
X75233Y-12338D01*
X75377Y-12424D01*
X75527Y-12786D01*
X75530Y-13196D01*
X75377Y-13576D01*
X75233Y-13662D01*
X75233Y-19500D01*
X75941Y-19500D01*
X75865Y-19423D01*
X75751Y-19148D01*
X75751Y-18850D01*
X75866Y-18575D01*
X76077Y-18365D01*
X76150Y-18334D01*
X76150Y-17165D01*
X76075Y-17134D01*
X75865Y-16923D01*
X75751Y-16648D01*
X75751Y-16350D01*
X75866Y-16075D01*
X76077Y-15865D01*
X76350Y-15751D01*
X76350Y-15249D01*
X76075Y-15134D01*
X75865Y-14923D01*
X75751Y-14648D01*
X75751Y-14350D01*
X75866Y-14075D01*
X76077Y-13865D01*
X76352Y-13751D01*
X76650Y-13751D01*
X76925Y-13866D01*
X77135Y-14077D01*
X77249Y-14352D01*
X77249Y-14650D01*
X77134Y-14925D01*
X76923Y-15135D01*
X76648Y-15249D01*
X76350Y-15249D01*
X76350Y-15751D01*
X76650Y-15751D01*
X76925Y-15866D01*
X77135Y-16077D01*
X77249Y-16352D01*
X77249Y-16650D01*
X77134Y-16925D01*
X76923Y-17135D01*
X76850Y-17165D01*
X76850Y-18334D01*
X76925Y-18366D01*
X77135Y-18577D01*
X77249Y-18852D01*
X77249Y-19150D01*
X77134Y-19425D01*
X77058Y-19500D01*
X79995Y-19500D01*
X80000Y-19499D01*
X80192Y-19538D01*
X80354Y-19646D01*
X80850Y-20142D01*
X80850Y-19749D01*
X80575Y-19634D01*
X80365Y-19423D01*
X80251Y-19148D01*
X80251Y-18850D01*
X80366Y-18575D01*
X80577Y-18365D01*
X80650Y-18334D01*
X80650Y-17165D01*
X80575Y-17134D01*
X80365Y-16923D01*
X80251Y-16648D01*
X80251Y-16350D01*
X80366Y-16075D01*
X80577Y-15865D01*
X80850Y-15751D01*
X80850Y-15249D01*
X80575Y-15134D01*
X80365Y-14923D01*
X80251Y-14648D01*
X80251Y-14350D01*
X80366Y-14075D01*
X80577Y-13865D01*
X80852Y-13751D01*
X81150Y-13751D01*
X81425Y-13866D01*
X81635Y-14077D01*
X81749Y-14352D01*
X81749Y-14650D01*
X81634Y-14925D01*
X81423Y-15135D01*
X81148Y-15249D01*
X80850Y-15249D01*
X80850Y-15751D01*
X81150Y-15751D01*
X81425Y-15866D01*
X81635Y-16077D01*
X81749Y-16352D01*
X81749Y-16650D01*
X81634Y-16925D01*
X81423Y-17135D01*
X81350Y-17165D01*
X81350Y-18334D01*
X81425Y-18366D01*
X81635Y-18577D01*
X81749Y-18852D01*
X81749Y-19150D01*
X81634Y-19425D01*
X81423Y-19635D01*
X81148Y-19749D01*
X80850Y-19749D01*
X80850Y-20142D01*
X80958Y-20251D01*
X81041Y-20251D01*
X81646Y-19646D01*
X81743Y-19581D01*
X81808Y-19538D01*
X82000Y-19500D01*
X84941Y-19500D01*
X84865Y-19423D01*
X84751Y-19148D01*
X84751Y-18850D01*
X84866Y-18575D01*
X85077Y-18365D01*
X85150Y-18334D01*
X85150Y-17165D01*
X85075Y-17134D01*
X84865Y-16923D01*
X84751Y-16648D01*
X84751Y-16350D01*
X84866Y-16075D01*
X85077Y-15865D01*
X85350Y-15751D01*
X85350Y-15249D01*
X85075Y-15134D01*
X84865Y-14923D01*
X84751Y-14648D01*
X84751Y-14350D01*
X84866Y-14075D01*
X85077Y-13865D01*
X85352Y-13751D01*
X85650Y-13751D01*
X85925Y-13866D01*
X86135Y-14077D01*
X86249Y-14352D01*
X86249Y-14650D01*
X86134Y-14925D01*
X85923Y-15135D01*
X85648Y-15249D01*
X85350Y-15249D01*
X85350Y-15751D01*
X85650Y-15751D01*
X85925Y-15866D01*
X86135Y-16077D01*
X86249Y-16352D01*
X86249Y-16650D01*
X86134Y-16925D01*
X85923Y-17135D01*
X85850Y-17165D01*
X85850Y-18334D01*
X85925Y-18366D01*
X86135Y-18577D01*
X86249Y-18852D01*
X86249Y-19150D01*
X86134Y-19425D01*
X86058Y-19500D01*
X88995Y-19500D01*
X89000Y-19499D01*
X89192Y-19538D01*
X89354Y-19646D01*
X89850Y-20142D01*
X89850Y-19749D01*
X89575Y-19634D01*
X89365Y-19423D01*
X89251Y-19148D01*
X89251Y-18850D01*
X89366Y-18575D01*
X89577Y-18365D01*
X89650Y-18334D01*
X89650Y-17165D01*
X89575Y-17134D01*
X89365Y-16923D01*
X89251Y-16648D01*
X89251Y-16350D01*
X89366Y-16075D01*
X89577Y-15865D01*
X89850Y-15751D01*
X89850Y-15249D01*
X89575Y-15134D01*
X89365Y-14923D01*
X89251Y-14648D01*
X89251Y-14350D01*
X89366Y-14075D01*
X89577Y-13865D01*
X89852Y-13751D01*
X90150Y-13751D01*
X90425Y-13866D01*
X90635Y-14077D01*
X90749Y-14352D01*
X90749Y-14650D01*
X90634Y-14925D01*
X90423Y-15135D01*
X90148Y-15249D01*
X89850Y-15249D01*
X89850Y-15751D01*
X90150Y-15751D01*
X90425Y-15866D01*
X90635Y-16077D01*
X90749Y-16352D01*
X90749Y-16650D01*
X90634Y-16925D01*
X90423Y-17135D01*
X90350Y-17165D01*
X90350Y-18334D01*
X90425Y-18366D01*
X90635Y-18577D01*
X90749Y-18852D01*
X90749Y-19150D01*
X90634Y-19425D01*
X90423Y-19635D01*
X90148Y-19749D01*
X89850Y-19749D01*
X89850Y-20142D01*
X89958Y-20251D01*
X90041Y-20251D01*
X90646Y-19646D01*
X90743Y-19581D01*
X90808Y-19538D01*
X91000Y-19500D01*
X93941Y-19500D01*
X93865Y-19423D01*
X93751Y-19148D01*
X93751Y-18850D01*
X93866Y-18575D01*
X94077Y-18365D01*
X94150Y-18334D01*
X94150Y-17165D01*
X94075Y-17134D01*
X93865Y-16923D01*
X93751Y-16648D01*
X93751Y-16350D01*
X93866Y-16075D01*
X94077Y-15865D01*
X94350Y-15751D01*
X94350Y-15249D01*
X94075Y-15134D01*
X93865Y-14923D01*
X93751Y-14648D01*
X93751Y-14350D01*
X93866Y-14075D01*
X94077Y-13865D01*
X94352Y-13751D01*
X94650Y-13751D01*
X94925Y-13866D01*
X95135Y-14077D01*
X95249Y-14352D01*
X95249Y-14650D01*
X95134Y-14925D01*
X94923Y-15135D01*
X94648Y-15249D01*
X94350Y-15249D01*
X94350Y-15751D01*
X94650Y-15751D01*
X94925Y-15866D01*
X95135Y-16077D01*
X95249Y-16352D01*
X95249Y-16650D01*
X95134Y-16925D01*
X94923Y-17135D01*
X94850Y-17165D01*
X94850Y-18334D01*
X94925Y-18366D01*
X95135Y-18577D01*
X95249Y-18852D01*
X95249Y-19150D01*
X95134Y-19425D01*
X95058Y-19500D01*
X97995Y-19500D01*
X98000Y-19499D01*
X98192Y-19538D01*
X98354Y-19646D01*
X98850Y-20142D01*
X98850Y-19749D01*
X98575Y-19634D01*
X98365Y-19423D01*
X98251Y-19148D01*
X98251Y-18850D01*
X98366Y-18575D01*
X98577Y-18365D01*
X98650Y-18334D01*
X98650Y-17165D01*
X98575Y-17134D01*
X98365Y-16923D01*
X98251Y-16648D01*
X98251Y-16350D01*
X98366Y-16075D01*
X98577Y-15865D01*
X98850Y-15751D01*
X98850Y-15249D01*
X98575Y-15134D01*
X98365Y-14923D01*
X98251Y-14648D01*
X98251Y-14350D01*
X98366Y-14075D01*
X98577Y-13865D01*
X98852Y-13751D01*
X99150Y-13751D01*
X99425Y-13866D01*
X99635Y-14077D01*
X99749Y-14352D01*
X99749Y-14650D01*
X99634Y-14925D01*
X99423Y-15135D01*
X99148Y-15249D01*
X98850Y-15249D01*
X98850Y-15751D01*
X99150Y-15751D01*
X99425Y-15866D01*
X99635Y-16077D01*
X99749Y-16352D01*
X99749Y-16650D01*
X99634Y-16925D01*
X99423Y-17135D01*
X99350Y-17165D01*
X99350Y-18334D01*
X99425Y-18366D01*
X99635Y-18577D01*
X99749Y-18852D01*
X99749Y-19150D01*
X99634Y-19425D01*
X99423Y-19635D01*
X99148Y-19749D01*
X98850Y-19749D01*
X98850Y-20142D01*
X98958Y-20251D01*
X99041Y-20251D01*
X101749Y-17543D01*
X101846Y-17478D01*
X101911Y-17435D01*
X102103Y-17397D01*
X103350Y-17397D01*
X103350Y-17249D01*
X103075Y-17134D01*
X102865Y-16923D01*
X102751Y-16648D01*
X102751Y-16350D01*
X102866Y-16075D01*
X103077Y-15865D01*
X103350Y-15751D01*
X103350Y-15249D01*
X103075Y-15134D01*
X102865Y-14923D01*
X102751Y-14648D01*
X102751Y-14350D01*
X102866Y-14075D01*
X103077Y-13865D01*
X103352Y-13751D01*
X103650Y-13751D01*
X103925Y-13866D01*
X104135Y-14077D01*
X104249Y-14352D01*
X104249Y-14650D01*
X104134Y-14925D01*
X103923Y-15135D01*
X103648Y-15249D01*
X103350Y-15249D01*
X103350Y-15751D01*
X103650Y-15751D01*
X103925Y-15866D01*
X104135Y-16077D01*
X104249Y-16352D01*
X104249Y-16650D01*
X104134Y-16925D01*
X103923Y-17135D01*
X103648Y-17249D01*
X103350Y-17249D01*
X103350Y-17397D01*
X105767Y-17397D01*
X105767Y-13662D01*
X105623Y-13576D01*
X105473Y-13214D01*
X105470Y-12804D01*
X105623Y-12424D01*
X105767Y-12338D01*
X106429Y-13000D01*
X105767Y-13662D01*
X105767Y-17397D01*
X106304Y-17397D01*
X106304Y-14030D01*
X105924Y-13877D01*
X105838Y-13733D01*
X106500Y-13071D01*
X106500Y-12929D01*
X105838Y-12267D01*
X105924Y-12123D01*
X106286Y-11973D01*
X106696Y-11970D01*
X107076Y-12123D01*
X107162Y-12267D01*
X106500Y-12929D01*
X106500Y-13071D01*
X107162Y-13733D01*
X107076Y-13877D01*
X106714Y-14027D01*
X106304Y-14030D01*
X106304Y-17397D01*
X106451Y-17397D01*
X106451Y-17391D01*
X106535Y-17189D01*
X106622Y-17101D01*
X106622Y-16808D01*
X106528Y-16781D01*
X106468Y-16634D01*
X106457Y-16421D01*
X106528Y-16219D01*
X106622Y-16192D01*
X106622Y-15808D01*
X106528Y-15781D01*
X106468Y-15634D01*
X106457Y-15421D01*
X106528Y-15219D01*
X106622Y-15192D01*
X106929Y-15500D01*
X106622Y-15808D01*
X106622Y-16192D01*
X106929Y-16500D01*
X106622Y-16808D01*
X106622Y-17101D01*
X106689Y-17035D01*
X106784Y-16995D01*
X106719Y-16972D01*
X106692Y-16878D01*
X107000Y-16571D01*
X107000Y-16429D01*
X106692Y-16122D01*
X106719Y-16028D01*
X106792Y-15997D01*
X106719Y-15972D01*
X106692Y-15878D01*
X107000Y-15571D01*
X107000Y-15429D01*
X106692Y-15122D01*
X106719Y-15028D01*
X106866Y-14968D01*
X107079Y-14957D01*
X107233Y-15011D01*
X107233Y-13662D01*
X106571Y-13000D01*
X107233Y-12338D01*
X107377Y-12424D01*
X107527Y-12786D01*
X107530Y-13196D01*
X107377Y-13576D01*
X107233Y-13662D01*
X107233Y-15011D01*
X107281Y-15028D01*
X107308Y-15122D01*
X107000Y-15429D01*
X107000Y-15571D01*
X107308Y-15878D01*
X107281Y-15972D01*
X107207Y-16002D01*
X107281Y-16028D01*
X107308Y-16122D01*
X107000Y-16429D01*
X107000Y-16571D01*
X107308Y-16878D01*
X107281Y-16972D01*
X107219Y-16997D01*
X107311Y-17035D01*
X107378Y-17101D01*
X107378Y-16808D01*
X107071Y-16500D01*
X107378Y-16192D01*
X107378Y-15808D01*
X107071Y-15500D01*
X107378Y-15192D01*
X107472Y-15219D01*
X107532Y-15366D01*
X107543Y-15579D01*
X107472Y-15781D01*
X107378Y-15808D01*
X107378Y-16192D01*
X107472Y-16219D01*
X107532Y-16366D01*
X107543Y-16579D01*
X107472Y-16781D01*
X107378Y-16808D01*
X107378Y-17101D01*
X107465Y-17189D01*
X107549Y-17391D01*
X107549Y-17609D01*
X107500Y-17726D01*
X107500Y-18273D01*
X107549Y-18391D01*
X107549Y-18609D01*
X107465Y-18811D01*
X107311Y-18965D01*
X107226Y-19000D01*
X107311Y-19035D01*
X107465Y-19189D01*
X107549Y-19391D01*
X107549Y-19609D01*
X107465Y-19811D01*
X107325Y-19951D01*
X107350Y-19951D01*
X107441Y-19989D01*
X107511Y-20059D01*
X107549Y-20151D01*
X107549Y-20850D01*
X107511Y-20941D01*
X107441Y-21011D01*
X107349Y-21049D01*
X106650Y-21049D01*
X106559Y-21011D01*
X106489Y-20941D01*
X106451Y-20849D01*
X106451Y-20150D01*
X106489Y-20059D01*
X106559Y-19989D01*
X106651Y-19951D01*
X106675Y-19951D01*
X106535Y-19811D01*
X106451Y-19609D01*
X106451Y-19391D01*
X106535Y-19189D01*
X106689Y-19035D01*
X106773Y-19000D01*
X106689Y-18965D01*
X106535Y-18811D01*
X106451Y-18609D01*
X106451Y-18397D01*
X103955Y-18397D01*
X104135Y-18577D01*
X104249Y-18852D01*
X104249Y-19150D01*
X104134Y-19425D01*
X103923Y-19635D01*
X103648Y-19749D01*
X103350Y-19749D01*
X103075Y-19634D01*
X102865Y-19423D01*
X102751Y-19148D01*
X102751Y-18850D01*
X102866Y-18575D01*
X103044Y-18397D01*
X102310Y-18397D01*
X99749Y-20958D01*
X99749Y-21150D01*
X99634Y-21425D01*
X99423Y-21635D01*
X99148Y-21749D01*
X98850Y-21749D01*
X98575Y-21634D01*
X98365Y-21423D01*
X98251Y-21148D01*
X98251Y-20958D01*
X97792Y-20500D01*
X95058Y-20500D01*
X95135Y-20577D01*
X95249Y-20852D01*
X95249Y-21150D01*
X95134Y-21425D01*
X94923Y-21635D01*
X94648Y-21749D01*
X94350Y-21749D01*
X94075Y-21634D01*
X93865Y-21423D01*
X93751Y-21148D01*
X93751Y-20850D01*
X93866Y-20575D01*
X93941Y-20500D01*
X91207Y-20500D01*
X90749Y-20958D01*
X90749Y-21150D01*
X90634Y-21425D01*
X90423Y-21635D01*
X90148Y-21749D01*
X89850Y-21749D01*
X89575Y-21634D01*
X89365Y-21423D01*
X89251Y-21148D01*
X89251Y-20958D01*
X88792Y-20500D01*
X86058Y-20500D01*
X86135Y-20577D01*
X86249Y-20852D01*
X86249Y-21150D01*
X86134Y-21425D01*
X85923Y-21635D01*
X85648Y-21749D01*
X85350Y-21749D01*
X85075Y-21634D01*
X84865Y-21423D01*
X84751Y-21148D01*
X84751Y-20850D01*
X84866Y-20575D01*
X84941Y-20500D01*
X82207Y-20500D01*
X81749Y-20958D01*
X81749Y-21150D01*
X81634Y-21425D01*
X81423Y-21635D01*
X81148Y-21749D01*
X80850Y-21749D01*
X80575Y-21634D01*
X80365Y-21423D01*
X80251Y-21148D01*
X80251Y-20958D01*
X79792Y-20500D01*
X77058Y-20500D01*
X77135Y-20577D01*
X77249Y-20852D01*
X77249Y-21150D01*
X77134Y-21425D01*
X76923Y-21635D01*
X76648Y-21749D01*
X76350Y-21749D01*
X76276Y-21718D01*
X75004Y-22990D01*
X74891Y-23066D01*
X74757Y-23093D01*
X71234Y-23093D01*
X71223Y-23104D01*
X71067Y-23168D01*
X70898Y-23168D01*
X70742Y-23103D01*
X70622Y-22983D01*
X70605Y-22943D01*
X70467Y-23083D01*
X70305Y-23191D01*
X70113Y-23230D01*
X70108Y-23229D01*
X51074Y-23229D01*
X51080Y-23243D01*
X51080Y-23412D01*
X51015Y-23568D01*
X50895Y-23688D01*
X50804Y-23725D01*
X103350Y-23725D01*
X103350Y-21749D01*
X103075Y-21634D01*
X102865Y-21423D01*
X102751Y-21148D01*
X102751Y-20850D01*
X102866Y-20575D01*
X103077Y-20365D01*
X103352Y-20251D01*
X103650Y-20251D01*
X103925Y-20366D01*
X104135Y-20577D01*
X104249Y-20852D01*
X104249Y-21150D01*
X104134Y-21425D01*
X103923Y-21635D01*
X103648Y-21749D01*
X103350Y-21749D01*
X103350Y-23725D01*
X105767Y-23725D01*
X105767Y-23162D01*
X105623Y-23076D01*
X105473Y-22714D01*
X105470Y-22304D01*
X105623Y-21924D01*
X105767Y-21838D01*
X106429Y-22500D01*
X105767Y-23162D01*
X105767Y-23725D01*
X106304Y-23725D01*
X106304Y-23530D01*
X105924Y-23377D01*
X105838Y-23233D01*
X106500Y-22571D01*
X106500Y-22429D01*
X105838Y-21767D01*
X105924Y-21623D01*
X106286Y-21473D01*
X106696Y-21470D01*
X107076Y-21623D01*
X107162Y-21767D01*
X106500Y-22429D01*
X106500Y-22571D01*
X107162Y-23233D01*
X107076Y-23377D01*
X106714Y-23527D01*
X106304Y-23530D01*
X106304Y-23725D01*
X107233Y-23725D01*
X107233Y-23162D01*
X106571Y-22500D01*
X107233Y-21838D01*
X107377Y-21924D01*
X107527Y-22286D01*
X107530Y-22696D01*
X107377Y-23076D01*
X107233Y-23162D01*
X107233Y-23725D01*
X107725Y-23725D01*
X107725Y-23725D01*
G37*
G54D24*
X107725Y-23725D02*
X107725Y-11775D01*
X08275Y-11775D01*
X08275Y-23725D01*
X08650Y-23725D01*
X08767Y-23725D01*
X08767Y-23162D01*
X08650Y-23092D01*
X08623Y-23076D01*
X08473Y-22714D01*
X08470Y-22304D01*
X08623Y-21924D01*
X08650Y-21907D01*
X08650Y-21049D01*
X08559Y-21011D01*
X08489Y-20941D01*
X08451Y-20849D01*
X08451Y-20150D01*
X08489Y-20059D01*
X08559Y-19989D01*
X08651Y-19951D01*
X08675Y-19951D01*
X08535Y-19811D01*
X08451Y-19609D01*
X08451Y-19391D01*
X08535Y-19189D01*
X08689Y-19035D01*
X08773Y-19000D01*
X08689Y-18965D01*
X08535Y-18811D01*
X08451Y-18609D01*
X08451Y-18391D01*
X08535Y-18189D01*
X08689Y-18035D01*
X08773Y-18000D01*
X08689Y-17965D01*
X08535Y-17811D01*
X08451Y-17609D01*
X08451Y-17391D01*
X08535Y-17189D01*
X08622Y-17102D01*
X08622Y-16808D01*
X08528Y-16781D01*
X08468Y-16634D01*
X08457Y-16421D01*
X08528Y-16219D01*
X08622Y-16192D01*
X08622Y-15808D01*
X08528Y-15781D01*
X08468Y-15634D01*
X08457Y-15421D01*
X08528Y-15219D01*
X08622Y-15192D01*
X08929Y-15500D01*
X08622Y-15808D01*
X08622Y-16192D01*
X08929Y-16500D01*
X08622Y-16808D01*
X08622Y-17102D01*
X08689Y-17035D01*
X08784Y-16995D01*
X08719Y-16972D01*
X08692Y-16878D01*
X09000Y-16571D01*
X09000Y-16429D01*
X08692Y-16122D01*
X08719Y-16028D01*
X08792Y-15997D01*
X08719Y-15972D01*
X08692Y-15878D01*
X09000Y-15571D01*
X09000Y-15429D01*
X08692Y-15122D01*
X08719Y-15028D01*
X08767Y-15008D01*
X08767Y-13662D01*
X08623Y-13576D01*
X08473Y-13214D01*
X08470Y-12804D01*
X08623Y-12424D01*
X08767Y-12338D01*
X09429Y-13000D01*
X08767Y-13662D01*
X08767Y-15008D01*
X08866Y-14968D01*
X09079Y-14957D01*
X09281Y-15028D01*
X09304Y-15108D01*
X09304Y-14030D01*
X08924Y-13877D01*
X08838Y-13733D01*
X09500Y-13071D01*
X09500Y-12929D01*
X08838Y-12267D01*
X08924Y-12123D01*
X09286Y-11973D01*
X09696Y-11970D01*
X10076Y-12123D01*
X10162Y-12267D01*
X09500Y-12929D01*
X09500Y-13071D01*
X10162Y-13733D01*
X10076Y-13877D01*
X09714Y-14027D01*
X09304Y-14030D01*
X09304Y-15108D01*
X09308Y-15122D01*
X09000Y-15429D01*
X09000Y-15571D01*
X09308Y-15878D01*
X09281Y-15972D01*
X09207Y-16002D01*
X09281Y-16028D01*
X09308Y-16122D01*
X09000Y-16429D01*
X09000Y-16571D01*
X09308Y-16878D01*
X09281Y-16972D01*
X09219Y-16997D01*
X09311Y-17035D01*
X09378Y-17102D01*
X09378Y-16808D01*
X09071Y-16500D01*
X09378Y-16192D01*
X09378Y-15808D01*
X09071Y-15500D01*
X09378Y-15192D01*
X09472Y-15219D01*
X09532Y-15366D01*
X09543Y-15579D01*
X09472Y-15781D01*
X09378Y-15808D01*
X09378Y-16192D01*
X09472Y-16219D01*
X09532Y-16366D01*
X09543Y-16579D01*
X09472Y-16781D01*
X09378Y-16808D01*
X09378Y-17102D01*
X09465Y-17189D01*
X09549Y-17391D01*
X09549Y-17609D01*
X09465Y-17811D01*
X09311Y-17965D01*
X09226Y-18000D01*
X09311Y-18035D01*
X09465Y-18189D01*
X09549Y-18391D01*
X09549Y-18609D01*
X09465Y-18811D01*
X09311Y-18965D01*
X09226Y-19000D01*
X09311Y-19035D01*
X09465Y-19189D01*
X09549Y-19391D01*
X09549Y-19609D01*
X09465Y-19811D01*
X09324Y-19951D01*
X09350Y-19951D01*
X09441Y-19989D01*
X09511Y-20059D01*
X09549Y-20151D01*
X09549Y-20850D01*
X09511Y-20941D01*
X09441Y-21011D01*
X09349Y-21049D01*
X08650Y-21049D01*
X08650Y-21907D01*
X08767Y-21838D01*
X09429Y-22500D01*
X08767Y-23162D01*
X08767Y-23725D01*
X09304Y-23725D01*
X09304Y-23530D01*
X08924Y-23377D01*
X08838Y-23233D01*
X09500Y-22571D01*
X09500Y-22429D01*
X08838Y-21767D01*
X08924Y-21623D01*
X09286Y-21473D01*
X09696Y-21470D01*
X10076Y-21623D01*
X10162Y-21767D01*
X09500Y-22429D01*
X09500Y-22571D01*
X10162Y-23233D01*
X10076Y-23377D01*
X09714Y-23527D01*
X09304Y-23530D01*
X09304Y-23725D01*
X10233Y-23725D01*
X10233Y-23162D01*
X09571Y-22500D01*
X10233Y-21838D01*
X10233Y-13662D01*
X09571Y-13000D01*
X10233Y-12338D01*
X10377Y-12424D01*
X10527Y-12786D01*
X10530Y-13196D01*
X10377Y-13576D01*
X10233Y-13662D01*
X10233Y-21838D01*
X10377Y-21924D01*
X10527Y-22286D01*
X10530Y-22696D01*
X10377Y-23076D01*
X10233Y-23162D01*
X10233Y-23725D01*
X30350Y-23725D01*
X30350Y-21749D01*
X30075Y-21634D01*
X29865Y-21423D01*
X29751Y-21148D01*
X29751Y-20958D01*
X29438Y-20646D01*
X26663Y-20646D01*
X26749Y-20852D01*
X26749Y-21150D01*
X26634Y-21425D01*
X26423Y-21635D01*
X26148Y-21749D01*
X25850Y-21749D01*
X25575Y-21634D01*
X25365Y-21423D01*
X25251Y-21148D01*
X25251Y-20850D01*
X25336Y-20646D01*
X22561Y-20646D01*
X22249Y-20958D01*
X22249Y-21150D01*
X22134Y-21425D01*
X21923Y-21635D01*
X21648Y-21749D01*
X21350Y-21749D01*
X21075Y-21634D01*
X20865Y-21423D01*
X20751Y-21148D01*
X20751Y-20958D01*
X20438Y-20646D01*
X17663Y-20646D01*
X17749Y-20852D01*
X17749Y-21150D01*
X17634Y-21425D01*
X17423Y-21635D01*
X17148Y-21749D01*
X16850Y-21749D01*
X16575Y-21634D01*
X16365Y-21423D01*
X16251Y-21148D01*
X16251Y-20850D01*
X16336Y-20646D01*
X13561Y-20646D01*
X13249Y-20958D01*
X13249Y-21150D01*
X13134Y-21425D01*
X12923Y-21635D01*
X12648Y-21749D01*
X12350Y-21749D01*
X12075Y-21634D01*
X11865Y-21423D01*
X11751Y-21148D01*
X11751Y-20850D01*
X11866Y-20575D01*
X12077Y-20365D01*
X12350Y-20251D01*
X12350Y-19749D01*
X12075Y-19634D01*
X11865Y-19423D01*
X11751Y-19148D01*
X11751Y-18850D01*
X11866Y-18575D01*
X12077Y-18365D01*
X12150Y-18334D01*
X12150Y-17165D01*
X12075Y-17134D01*
X11865Y-16923D01*
X11751Y-16648D01*
X11751Y-16350D01*
X11866Y-16075D01*
X12077Y-15865D01*
X12350Y-15751D01*
X12350Y-15249D01*
X12075Y-15134D01*
X11865Y-14923D01*
X11751Y-14648D01*
X11751Y-14350D01*
X11866Y-14075D01*
X12077Y-13865D01*
X12352Y-13751D01*
X12650Y-13751D01*
X12925Y-13866D01*
X13135Y-14077D01*
X13249Y-14352D01*
X13249Y-14650D01*
X13134Y-14925D01*
X12923Y-15135D01*
X12648Y-15249D01*
X12350Y-15249D01*
X12350Y-15751D01*
X12650Y-15751D01*
X12925Y-15866D01*
X13135Y-16077D01*
X13249Y-16352D01*
X13249Y-16650D01*
X13134Y-16925D01*
X12923Y-17135D01*
X12850Y-17165D01*
X12850Y-18334D01*
X12925Y-18366D01*
X13135Y-18577D01*
X13249Y-18852D01*
X13249Y-19150D01*
X13134Y-19425D01*
X12923Y-19635D01*
X12648Y-19749D01*
X12350Y-19749D01*
X12350Y-20251D01*
X12541Y-20251D01*
X13000Y-19792D01*
X13163Y-19684D01*
X13315Y-19653D01*
X13353Y-19646D01*
X16603Y-19646D01*
X16575Y-19634D01*
X16365Y-19423D01*
X16251Y-19148D01*
X16251Y-18850D01*
X16366Y-18575D01*
X16577Y-18365D01*
X16650Y-18334D01*
X16650Y-17165D01*
X16575Y-17134D01*
X16365Y-16923D01*
X16251Y-16648D01*
X16251Y-16350D01*
X16366Y-16075D01*
X16577Y-15865D01*
X16850Y-15751D01*
X16850Y-15249D01*
X16575Y-15134D01*
X16365Y-14923D01*
X16251Y-14648D01*
X16251Y-14350D01*
X16366Y-14075D01*
X16577Y-13865D01*
X16852Y-13751D01*
X17150Y-13751D01*
X17425Y-13866D01*
X17635Y-14077D01*
X17749Y-14352D01*
X17749Y-14650D01*
X17634Y-14925D01*
X17423Y-15135D01*
X17148Y-15249D01*
X16850Y-15249D01*
X16850Y-15751D01*
X17150Y-15751D01*
X17425Y-15866D01*
X17635Y-16077D01*
X17749Y-16352D01*
X17749Y-16650D01*
X17634Y-16925D01*
X17423Y-17135D01*
X17350Y-17165D01*
X17350Y-18334D01*
X17425Y-18366D01*
X17635Y-18577D01*
X17749Y-18852D01*
X17749Y-19150D01*
X17634Y-19425D01*
X17423Y-19635D01*
X17396Y-19646D01*
X20641Y-19646D01*
X20646Y-19645D01*
X20838Y-19684D01*
X21000Y-19792D01*
X21350Y-20142D01*
X21350Y-19749D01*
X21075Y-19634D01*
X20865Y-19423D01*
X20751Y-19148D01*
X20751Y-18850D01*
X20866Y-18575D01*
X21077Y-18365D01*
X21150Y-18334D01*
X21150Y-17165D01*
X21075Y-17134D01*
X20865Y-16923D01*
X20751Y-16648D01*
X20751Y-16350D01*
X20866Y-16075D01*
X21077Y-15865D01*
X21350Y-15751D01*
X21350Y-15249D01*
X21075Y-15134D01*
X20865Y-14923D01*
X20751Y-14648D01*
X20751Y-14350D01*
X20866Y-14075D01*
X21077Y-13865D01*
X21352Y-13751D01*
X21650Y-13751D01*
X21925Y-13866D01*
X22135Y-14077D01*
X22249Y-14352D01*
X22249Y-14650D01*
X22134Y-14925D01*
X21923Y-15135D01*
X21648Y-15249D01*
X21350Y-15249D01*
X21350Y-15751D01*
X21650Y-15751D01*
X21925Y-15866D01*
X22135Y-16077D01*
X22249Y-16352D01*
X22249Y-16650D01*
X22134Y-16925D01*
X21923Y-17135D01*
X21850Y-17165D01*
X21850Y-18334D01*
X21925Y-18366D01*
X22135Y-18577D01*
X22249Y-18852D01*
X22249Y-19150D01*
X22134Y-19425D01*
X21923Y-19635D01*
X21648Y-19749D01*
X21350Y-19749D01*
X21350Y-20142D01*
X21458Y-20251D01*
X21541Y-20251D01*
X22000Y-19792D01*
X22163Y-19684D01*
X22315Y-19653D01*
X22353Y-19646D01*
X25603Y-19646D01*
X25575Y-19634D01*
X25365Y-19423D01*
X25251Y-19148D01*
X25251Y-18850D01*
X25366Y-18575D01*
X25577Y-18365D01*
X25650Y-18334D01*
X25650Y-17165D01*
X25575Y-17134D01*
X25365Y-16923D01*
X25251Y-16648D01*
X25251Y-16350D01*
X25366Y-16075D01*
X25577Y-15865D01*
X25850Y-15751D01*
X25850Y-15249D01*
X25575Y-15134D01*
X25365Y-14923D01*
X25251Y-14648D01*
X25251Y-14350D01*
X25366Y-14075D01*
X25577Y-13865D01*
X25852Y-13751D01*
X26150Y-13751D01*
X26425Y-13866D01*
X26635Y-14077D01*
X26749Y-14352D01*
X26749Y-14650D01*
X26634Y-14925D01*
X26423Y-15135D01*
X26148Y-15249D01*
X25850Y-15249D01*
X25850Y-15751D01*
X26150Y-15751D01*
X26425Y-15866D01*
X26635Y-16077D01*
X26749Y-16352D01*
X26749Y-16650D01*
X26634Y-16925D01*
X26423Y-17135D01*
X26350Y-17165D01*
X26350Y-18334D01*
X26425Y-18366D01*
X26635Y-18577D01*
X26749Y-18852D01*
X26749Y-19150D01*
X26634Y-19425D01*
X26423Y-19635D01*
X26396Y-19646D01*
X29641Y-19646D01*
X29646Y-19645D01*
X29838Y-19684D01*
X30000Y-19792D01*
X30350Y-20142D01*
X30350Y-19749D01*
X30075Y-19634D01*
X29865Y-19423D01*
X29751Y-19148D01*
X29751Y-18850D01*
X29866Y-18575D01*
X30077Y-18365D01*
X30150Y-18334D01*
X30150Y-17165D01*
X30075Y-17134D01*
X29865Y-16923D01*
X29751Y-16648D01*
X29751Y-16350D01*
X29866Y-16075D01*
X30077Y-15865D01*
X30350Y-15751D01*
X30350Y-15249D01*
X30075Y-15134D01*
X29865Y-14923D01*
X29751Y-14648D01*
X29751Y-14350D01*
X29866Y-14075D01*
X30077Y-13865D01*
X30352Y-13751D01*
X30650Y-13751D01*
X30925Y-13866D01*
X31135Y-14077D01*
X31249Y-14352D01*
X31249Y-14650D01*
X31134Y-14925D01*
X30923Y-15135D01*
X30648Y-15249D01*
X30350Y-15249D01*
X30350Y-15751D01*
X30650Y-15751D01*
X30925Y-15866D01*
X31135Y-16077D01*
X31249Y-16352D01*
X31249Y-16650D01*
X31134Y-16925D01*
X30923Y-17135D01*
X30850Y-17165D01*
X30850Y-18334D01*
X30925Y-18366D01*
X31135Y-18577D01*
X31249Y-18852D01*
X31249Y-19150D01*
X31134Y-19425D01*
X30923Y-19635D01*
X30648Y-19749D01*
X30350Y-19749D01*
X30350Y-20142D01*
X30458Y-20251D01*
X30650Y-20251D01*
X30925Y-20366D01*
X31135Y-20577D01*
X31249Y-20852D01*
X31249Y-21150D01*
X31134Y-21425D01*
X30923Y-21635D01*
X30648Y-21749D01*
X30350Y-21749D01*
X30350Y-23725D01*
X50505Y-23725D01*
X50414Y-23687D01*
X50404Y-23677D01*
X46327Y-23677D01*
X46193Y-23650D01*
X46079Y-23574D01*
X45135Y-22630D01*
X45181Y-22741D01*
X45181Y-22910D01*
X45116Y-23066D01*
X44996Y-23186D01*
X44840Y-23250D01*
X44671Y-23250D01*
X44515Y-23185D01*
X44505Y-23175D01*
X36825Y-23175D01*
X36691Y-23148D01*
X36577Y-23072D01*
X35223Y-21717D01*
X35148Y-21749D01*
X34850Y-21749D01*
X34575Y-21634D01*
X34365Y-21423D01*
X34251Y-21148D01*
X34251Y-20850D01*
X34366Y-20575D01*
X34577Y-20365D01*
X34850Y-20251D01*
X34850Y-19749D01*
X34575Y-19634D01*
X34365Y-19423D01*
X34251Y-19148D01*
X34251Y-18850D01*
X34366Y-18575D01*
X34577Y-18365D01*
X34650Y-18334D01*
X34650Y-17165D01*
X34575Y-17134D01*
X34365Y-16923D01*
X34251Y-16648D01*
X34251Y-16350D01*
X34366Y-16075D01*
X34577Y-15865D01*
X34850Y-15751D01*
X34850Y-15249D01*
X34575Y-15134D01*
X34365Y-14923D01*
X34251Y-14648D01*
X34251Y-14350D01*
X34366Y-14075D01*
X34577Y-13865D01*
X34852Y-13751D01*
X35150Y-13751D01*
X35425Y-13866D01*
X35635Y-14077D01*
X35749Y-14352D01*
X35749Y-14650D01*
X35634Y-14925D01*
X35423Y-15135D01*
X35148Y-15249D01*
X34850Y-15249D01*
X34850Y-15751D01*
X35150Y-15751D01*
X35425Y-15866D01*
X35635Y-16077D01*
X35749Y-16352D01*
X35749Y-16650D01*
X35634Y-16925D01*
X35423Y-17135D01*
X35350Y-17165D01*
X35350Y-18334D01*
X35425Y-18366D01*
X35635Y-18577D01*
X35749Y-18852D01*
X35749Y-19150D01*
X35634Y-19425D01*
X35423Y-19635D01*
X35148Y-19749D01*
X34850Y-19749D01*
X34850Y-20251D01*
X35150Y-20251D01*
X35425Y-20366D01*
X35635Y-20577D01*
X35749Y-20852D01*
X35749Y-21150D01*
X35718Y-21223D01*
X36969Y-22475D01*
X44505Y-22475D01*
X44516Y-22464D01*
X44672Y-22400D01*
X44841Y-22400D01*
X44951Y-22446D01*
X44223Y-21717D01*
X44148Y-21749D01*
X43850Y-21749D01*
X43575Y-21634D01*
X43365Y-21423D01*
X43251Y-21148D01*
X43251Y-20850D01*
X43366Y-20575D01*
X43441Y-20500D01*
X40707Y-20500D01*
X40249Y-20958D01*
X40249Y-21150D01*
X40134Y-21425D01*
X39923Y-21635D01*
X39648Y-21749D01*
X39350Y-21749D01*
X39075Y-21634D01*
X38865Y-21423D01*
X38751Y-21148D01*
X38751Y-20850D01*
X38866Y-20575D01*
X39077Y-20365D01*
X39350Y-20251D01*
X39350Y-19749D01*
X39075Y-19634D01*
X38865Y-19423D01*
X38751Y-19148D01*
X38751Y-18850D01*
X38866Y-18575D01*
X39077Y-18365D01*
X39150Y-18334D01*
X39150Y-17165D01*
X39075Y-17134D01*
X38865Y-16923D01*
X38751Y-16648D01*
X38751Y-16350D01*
X38866Y-16075D01*
X39077Y-15865D01*
X39352Y-15751D01*
X39650Y-15751D01*
X39925Y-15866D01*
X40135Y-16077D01*
X40249Y-16352D01*
X40249Y-16650D01*
X40134Y-16925D01*
X39923Y-17135D01*
X39850Y-17165D01*
X39850Y-18334D01*
X39925Y-18366D01*
X40135Y-18577D01*
X40249Y-18852D01*
X40249Y-19150D01*
X40134Y-19425D01*
X39923Y-19635D01*
X39648Y-19749D01*
X39350Y-19749D01*
X39350Y-20251D01*
X39541Y-20251D01*
X40146Y-19646D01*
X40243Y-19581D01*
X40308Y-19538D01*
X40500Y-19500D01*
X43441Y-19500D01*
X43365Y-19423D01*
X43251Y-19148D01*
X43251Y-18850D01*
X43366Y-18575D01*
X43577Y-18365D01*
X43650Y-18334D01*
X43650Y-17165D01*
X43575Y-17134D01*
X43365Y-16923D01*
X43251Y-16648D01*
X43251Y-16350D01*
X43366Y-16075D01*
X43577Y-15865D01*
X43850Y-15751D01*
X43850Y-15249D01*
X43575Y-15134D01*
X43365Y-14923D01*
X43334Y-14850D01*
X40165Y-14850D01*
X40134Y-14925D01*
X39923Y-15135D01*
X39648Y-15249D01*
X39350Y-15249D01*
X39075Y-15134D01*
X38865Y-14923D01*
X38751Y-14648D01*
X38751Y-14350D01*
X38866Y-14075D01*
X39077Y-13865D01*
X39352Y-13751D01*
X39650Y-13751D01*
X39925Y-13866D01*
X40135Y-14077D01*
X40165Y-14150D01*
X40767Y-14150D01*
X40767Y-13662D01*
X40623Y-13576D01*
X40473Y-13214D01*
X40470Y-12804D01*
X40623Y-12424D01*
X40767Y-12338D01*
X41429Y-13000D01*
X40767Y-13662D01*
X40767Y-14150D01*
X41304Y-14150D01*
X41304Y-14030D01*
X40924Y-13877D01*
X40838Y-13733D01*
X41500Y-13071D01*
X41500Y-12929D01*
X40838Y-12267D01*
X40924Y-12123D01*
X41286Y-11973D01*
X41696Y-11970D01*
X42076Y-12123D01*
X42162Y-12267D01*
X41500Y-12929D01*
X41500Y-13071D01*
X42162Y-13733D01*
X42076Y-13877D01*
X41714Y-14027D01*
X41304Y-14030D01*
X41304Y-14150D01*
X42233Y-14150D01*
X42233Y-13662D01*
X41571Y-13000D01*
X42233Y-12338D01*
X42377Y-12424D01*
X42527Y-12786D01*
X42530Y-13196D01*
X42377Y-13576D01*
X42233Y-13662D01*
X42233Y-14150D01*
X43334Y-14150D01*
X43366Y-14075D01*
X43577Y-13865D01*
X43852Y-13751D01*
X44150Y-13751D01*
X44425Y-13866D01*
X44635Y-14077D01*
X44749Y-14352D01*
X44749Y-14650D01*
X44634Y-14925D01*
X44423Y-15135D01*
X44148Y-15249D01*
X43850Y-15249D01*
X43850Y-15751D01*
X44150Y-15751D01*
X44425Y-15866D01*
X44635Y-16077D01*
X44749Y-16352D01*
X44749Y-16650D01*
X44634Y-16925D01*
X44423Y-17135D01*
X44350Y-17165D01*
X44350Y-18334D01*
X44425Y-18366D01*
X44635Y-18577D01*
X44749Y-18852D01*
X44749Y-19150D01*
X44634Y-19425D01*
X44558Y-19500D01*
X45749Y-19500D01*
X45749Y-18295D01*
X45787Y-18104D01*
X45895Y-17941D01*
X46058Y-17833D01*
X46249Y-17795D01*
X46440Y-17833D01*
X46603Y-17941D01*
X46711Y-18104D01*
X46749Y-18295D01*
X46749Y-19792D01*
X47874Y-20918D01*
X47846Y-20849D01*
X47846Y-20591D01*
X47945Y-20352D01*
X48127Y-20170D01*
X48366Y-20071D01*
X48624Y-20071D01*
X48863Y-20170D01*
X49045Y-20352D01*
X49069Y-20410D01*
X52366Y-20410D01*
X52366Y-20369D01*
X52127Y-20270D01*
X51945Y-20088D01*
X51846Y-19849D01*
X51846Y-19591D01*
X51945Y-19352D01*
X52127Y-19170D01*
X52366Y-19071D01*
X52624Y-19071D01*
X52863Y-19170D01*
X53045Y-19352D01*
X53144Y-19591D01*
X53144Y-19849D01*
X53045Y-20088D01*
X52863Y-20270D01*
X52624Y-20369D01*
X52366Y-20369D01*
X52366Y-20410D01*
X52698Y-20410D01*
X52817Y-20434D01*
X52917Y-20501D01*
X53837Y-21421D01*
X58360Y-21421D01*
X55066Y-18127D01*
X54999Y-18027D01*
X54975Y-17908D01*
X54975Y-17453D01*
X54840Y-17318D01*
X54760Y-17125D01*
X54760Y-16916D01*
X54840Y-16723D01*
X54988Y-16576D01*
X55062Y-16545D01*
X54960Y-16545D01*
X54869Y-16507D01*
X54799Y-16437D01*
X54761Y-16345D01*
X54761Y-15696D01*
X54799Y-15605D01*
X54869Y-15535D01*
X54961Y-15497D01*
X55610Y-15497D01*
X55701Y-15535D01*
X55771Y-15605D01*
X55809Y-15697D01*
X55809Y-16346D01*
X55771Y-16437D01*
X55701Y-16507D01*
X55609Y-16545D01*
X55508Y-16545D01*
X55583Y-16576D01*
X55730Y-16724D01*
X55810Y-16917D01*
X55810Y-17126D01*
X55730Y-17319D01*
X55595Y-17453D01*
X55595Y-17780D01*
X58890Y-21075D01*
X60371Y-21075D01*
X60371Y-20742D01*
X60215Y-20677D01*
X60095Y-20557D01*
X60031Y-20401D01*
X60031Y-20232D01*
X60087Y-20095D01*
X60028Y-20036D01*
X59964Y-19880D01*
X59964Y-19711D01*
X60029Y-19555D01*
X60079Y-19505D01*
X60079Y-18800D01*
X60103Y-18681D01*
X60170Y-18581D01*
X60298Y-18452D01*
X60298Y-17810D01*
X60189Y-17765D01*
X60049Y-17625D01*
X60049Y-17650D01*
X60011Y-17741D01*
X59941Y-17811D01*
X59849Y-17849D01*
X59792Y-17849D01*
X59786Y-17882D01*
X59719Y-17983D01*
X59074Y-18627D01*
X59074Y-19561D01*
X59124Y-19611D01*
X59188Y-19767D01*
X59188Y-19936D01*
X59123Y-20092D01*
X59003Y-20212D01*
X58847Y-20276D01*
X58678Y-20276D01*
X58522Y-20211D01*
X58402Y-20091D01*
X58338Y-19935D01*
X58338Y-19766D01*
X58403Y-19610D01*
X58454Y-19559D01*
X58454Y-18499D01*
X58478Y-18380D01*
X58545Y-18280D01*
X59036Y-17788D01*
X58989Y-17741D01*
X58951Y-17649D01*
X58951Y-17146D01*
X58562Y-17146D01*
X58454Y-17254D01*
X58298Y-17318D01*
X58129Y-17318D01*
X57973Y-17253D01*
X57853Y-17133D01*
X57789Y-16977D01*
X57789Y-16808D01*
X57854Y-16652D01*
X57974Y-16532D01*
X58130Y-16468D01*
X58299Y-16468D01*
X58438Y-16526D01*
X58999Y-16526D01*
X58951Y-16409D01*
X58951Y-16190D01*
X57483Y-14721D01*
X57457Y-14732D01*
X57288Y-14732D01*
X57132Y-14667D01*
X57012Y-14547D01*
X56948Y-14391D01*
X56948Y-14315D01*
X56809Y-14454D01*
X56809Y-16032D01*
X56860Y-16083D01*
X56924Y-16239D01*
X56924Y-16408D01*
X56859Y-16564D01*
X56739Y-16684D01*
X56583Y-16748D01*
X56414Y-16748D01*
X56258Y-16683D01*
X56138Y-16563D01*
X56074Y-16407D01*
X56074Y-16238D01*
X56139Y-16082D01*
X56189Y-16032D01*
X56189Y-14578D01*
X56165Y-14636D01*
X56011Y-14790D01*
X55809Y-14874D01*
X55591Y-14874D01*
X55389Y-14790D01*
X55235Y-14636D01*
X55151Y-14434D01*
X55151Y-14216D01*
X55235Y-14014D01*
X55389Y-13860D01*
X55591Y-13776D01*
X55809Y-13776D01*
X56011Y-13860D01*
X56165Y-14014D01*
X56232Y-14177D01*
X56280Y-14107D01*
X57701Y-12685D01*
X57701Y-12466D01*
X57720Y-12420D01*
X56229Y-12420D01*
X56249Y-12466D01*
X56249Y-12684D01*
X56165Y-12886D01*
X56011Y-13040D01*
X55809Y-13124D01*
X55591Y-13124D01*
X55389Y-13040D01*
X55235Y-12886D01*
X55151Y-12684D01*
X55151Y-12466D01*
X55170Y-12420D01*
X50664Y-12420D01*
X50630Y-12454D01*
X50630Y-12526D01*
X50565Y-12682D01*
X50445Y-12802D01*
X50289Y-12866D01*
X50120Y-12866D01*
X49964Y-12801D01*
X49844Y-12681D01*
X49780Y-12525D01*
X49780Y-12356D01*
X49845Y-12200D01*
X49965Y-12080D01*
X50121Y-12016D01*
X50192Y-12016D01*
X50316Y-11891D01*
X50417Y-11824D01*
X50536Y-11800D01*
X58691Y-11800D01*
X58810Y-11824D01*
X58910Y-11891D01*
X58944Y-11925D01*
X59011Y-12025D01*
X59017Y-12056D01*
X59091Y-12026D01*
X59309Y-12026D01*
X59511Y-12110D01*
X59665Y-12264D01*
X59749Y-12466D01*
X59749Y-12684D01*
X59665Y-12886D01*
X59511Y-13040D01*
X59309Y-13124D01*
X59091Y-13124D01*
X59035Y-13100D01*
X59035Y-13721D01*
X59089Y-13776D01*
X59309Y-13776D01*
X59511Y-13860D01*
X59665Y-14014D01*
X59749Y-14216D01*
X59749Y-14434D01*
X59665Y-14636D01*
X59511Y-14790D01*
X59309Y-14874D01*
X59091Y-14874D01*
X58889Y-14790D01*
X58735Y-14636D01*
X58725Y-14611D01*
X58715Y-14636D01*
X58561Y-14790D01*
X58467Y-14828D01*
X59390Y-15751D01*
X59609Y-15751D01*
X59811Y-15835D01*
X59965Y-15989D01*
X60000Y-16073D01*
X60035Y-15989D01*
X60189Y-15835D01*
X60391Y-15751D01*
X60609Y-15751D01*
X60811Y-15835D01*
X60965Y-15989D01*
X61000Y-16073D01*
X61035Y-15989D01*
X61189Y-15835D01*
X61391Y-15751D01*
X61610Y-15751D01*
X61915Y-15447D01*
X61915Y-14850D01*
X61859Y-14874D01*
X61641Y-14874D01*
X61439Y-14790D01*
X61285Y-14636D01*
X61201Y-14434D01*
X61201Y-14216D01*
X61285Y-14014D01*
X61439Y-13860D01*
X61641Y-13776D01*
X61859Y-13776D01*
X61915Y-13799D01*
X61915Y-13178D01*
X61859Y-13123D01*
X61859Y-13124D01*
X61641Y-13124D01*
X61439Y-13040D01*
X61285Y-12886D01*
X61201Y-12684D01*
X61201Y-12466D01*
X61285Y-12264D01*
X61439Y-12110D01*
X61641Y-12026D01*
X61859Y-12026D01*
X62061Y-12110D01*
X62215Y-12264D01*
X62225Y-12288D01*
X62235Y-12264D01*
X62389Y-12110D01*
X62591Y-12026D01*
X62809Y-12026D01*
X63011Y-12110D01*
X63165Y-12264D01*
X63249Y-12466D01*
X63249Y-12684D01*
X63225Y-12740D01*
X64646Y-12740D01*
X64701Y-12685D01*
X64701Y-12466D01*
X64785Y-12264D01*
X64939Y-12110D01*
X65141Y-12026D01*
X65359Y-12026D01*
X65561Y-12110D01*
X65715Y-12264D01*
X65799Y-12466D01*
X65799Y-12684D01*
X65715Y-12886D01*
X65561Y-13040D01*
X65359Y-13124D01*
X65141Y-13124D01*
X65139Y-13123D01*
X64994Y-13269D01*
X64894Y-13336D01*
X64775Y-13360D01*
X62535Y-13360D01*
X62535Y-13799D01*
X62591Y-13776D01*
X62809Y-13776D01*
X63011Y-13860D01*
X63165Y-14014D01*
X63249Y-14216D01*
X63249Y-14434D01*
X63165Y-14636D01*
X63011Y-14790D01*
X62809Y-14874D01*
X62591Y-14874D01*
X62535Y-14850D01*
X62535Y-15575D01*
X62511Y-15694D01*
X62444Y-15794D01*
X62048Y-16189D01*
X62049Y-16191D01*
X62049Y-16313D01*
X63416Y-14946D01*
X63516Y-14879D01*
X63635Y-14855D01*
X65095Y-14855D01*
X64939Y-14790D01*
X64785Y-14636D01*
X64701Y-14434D01*
X64701Y-14216D01*
X64785Y-14014D01*
X64939Y-13860D01*
X65141Y-13776D01*
X65359Y-13776D01*
X65561Y-13860D01*
X65715Y-14014D01*
X65799Y-14216D01*
X65799Y-14434D01*
X65715Y-14636D01*
X65561Y-14790D01*
X65404Y-14855D01*
X65541Y-14855D01*
X65602Y-14765D01*
X65893Y-14473D01*
X65893Y-14402D01*
X65958Y-14246D01*
X66078Y-14126D01*
X66234Y-14062D01*
X66403Y-14062D01*
X66559Y-14127D01*
X66679Y-14247D01*
X66743Y-14403D01*
X66743Y-14572D01*
X66678Y-14728D01*
X66558Y-14848D01*
X66402Y-14912D01*
X66331Y-14912D01*
X66168Y-15074D01*
X66210Y-15116D01*
X66282Y-15116D01*
X66438Y-15181D01*
X66558Y-15301D01*
X66622Y-15457D01*
X66622Y-15626D01*
X66557Y-15782D01*
X66437Y-15902D01*
X66281Y-15966D01*
X66112Y-15966D01*
X65956Y-15901D01*
X65836Y-15781D01*
X65772Y-15625D01*
X65772Y-15554D01*
X65692Y-15475D01*
X63762Y-15475D01*
X62048Y-17189D01*
X62049Y-17191D01*
X62049Y-17409D01*
X61972Y-17593D01*
X63760Y-17593D01*
X63811Y-17542D01*
X63967Y-17478D01*
X64136Y-17478D01*
X64292Y-17543D01*
X64412Y-17663D01*
X64427Y-17699D01*
X64427Y-17468D01*
X64376Y-17417D01*
X64312Y-17261D01*
X64312Y-17092D01*
X64377Y-16936D01*
X64497Y-16816D01*
X64653Y-16752D01*
X64822Y-16752D01*
X64978Y-16817D01*
X65098Y-16937D01*
X65162Y-17093D01*
X65162Y-17262D01*
X65097Y-17418D01*
X65047Y-17468D01*
X65047Y-18138D01*
X65023Y-18257D01*
X64989Y-18306D01*
X64956Y-18358D01*
X62777Y-20536D01*
X62677Y-20603D01*
X62558Y-20627D01*
X60747Y-20627D01*
X60696Y-20678D01*
X60540Y-20742D01*
X60371Y-20742D01*
X60371Y-21075D01*
X61100Y-21075D01*
X61219Y-21099D01*
X61319Y-21166D01*
X61343Y-21189D01*
X61344Y-21191D01*
X61748Y-21595D01*
X65045Y-21595D01*
X65044Y-21593D01*
X64968Y-21409D01*
X64968Y-20660D01*
X65044Y-20476D01*
X65158Y-20362D01*
X65158Y-18739D01*
X65182Y-18620D01*
X65249Y-18520D01*
X66481Y-17287D01*
X66481Y-17216D01*
X66546Y-17060D01*
X66666Y-16940D01*
X66822Y-16876D01*
X66991Y-16876D01*
X67013Y-16885D01*
X67061Y-16770D01*
X67181Y-16650D01*
X67337Y-16586D01*
X67506Y-16586D01*
X67662Y-16651D01*
X67782Y-16771D01*
X67846Y-16927D01*
X67846Y-16998D01*
X68230Y-17382D01*
X68297Y-17482D01*
X68321Y-17601D01*
X68321Y-20883D01*
X68297Y-21002D01*
X68230Y-21103D01*
X68078Y-21254D01*
X67978Y-21321D01*
X67936Y-21329D01*
X67936Y-21410D01*
X67860Y-21594D01*
X67719Y-21734D01*
X67535Y-21810D01*
X67336Y-21810D01*
X67152Y-21734D01*
X67012Y-21593D01*
X66944Y-21428D01*
X66876Y-21594D01*
X66735Y-21734D01*
X66551Y-21810D01*
X66352Y-21810D01*
X66168Y-21734D01*
X66132Y-21697D01*
X65705Y-22124D01*
X65605Y-22191D01*
X65486Y-22215D01*
X61620Y-22215D01*
X61501Y-22191D01*
X61450Y-22157D01*
X61400Y-22124D01*
X61124Y-21847D01*
X60742Y-22229D01*
X69905Y-22229D01*
X70810Y-21324D01*
X70810Y-17917D01*
X70654Y-17852D01*
X70534Y-17732D01*
X70470Y-17576D01*
X70470Y-17407D01*
X70535Y-17251D01*
X70585Y-17201D01*
X70585Y-16366D01*
X70486Y-16325D01*
X70366Y-16205D01*
X70302Y-16049D01*
X70302Y-15880D01*
X70367Y-15724D01*
X70487Y-15604D01*
X70643Y-15540D01*
X70812Y-15540D01*
X70968Y-15605D01*
X71088Y-15725D01*
X71152Y-15881D01*
X71152Y-15970D01*
X71181Y-16014D01*
X71205Y-16133D01*
X71205Y-17201D01*
X71256Y-17252D01*
X71320Y-17408D01*
X71320Y-17577D01*
X71255Y-17733D01*
X71135Y-17853D01*
X70979Y-17917D01*
X70810Y-17917D01*
X70810Y-21324D01*
X71251Y-20883D01*
X71251Y-20850D01*
X71366Y-20575D01*
X71577Y-20365D01*
X71850Y-20251D01*
X71850Y-19749D01*
X71575Y-19634D01*
X71365Y-19423D01*
X71251Y-19148D01*
X71251Y-18850D01*
X71366Y-18575D01*
X71577Y-18365D01*
X71650Y-18334D01*
X71650Y-17165D01*
X71575Y-17134D01*
X71365Y-16923D01*
X71251Y-16648D01*
X71251Y-16350D01*
X71366Y-16075D01*
X71577Y-15865D01*
X71850Y-15751D01*
X71850Y-15249D01*
X71575Y-15134D01*
X71365Y-14923D01*
X71251Y-14648D01*
X71251Y-14350D01*
X71366Y-14075D01*
X71577Y-13865D01*
X71852Y-13751D01*
X72150Y-13751D01*
X72425Y-13866D01*
X72635Y-14077D01*
X72749Y-14352D01*
X72749Y-14650D01*
X72634Y-14925D01*
X72423Y-15135D01*
X72148Y-15249D01*
X71850Y-15249D01*
X71850Y-15751D01*
X72150Y-15751D01*
X72425Y-15866D01*
X72635Y-16077D01*
X72749Y-16352D01*
X72749Y-16650D01*
X72634Y-16925D01*
X72423Y-17135D01*
X72350Y-17165D01*
X72350Y-18334D01*
X72425Y-18366D01*
X72635Y-18577D01*
X72749Y-18852D01*
X72749Y-19150D01*
X72634Y-19425D01*
X72423Y-19635D01*
X72148Y-19749D01*
X71850Y-19749D01*
X71850Y-20251D01*
X72041Y-20251D01*
X72646Y-19646D01*
X72743Y-19581D01*
X72808Y-19538D01*
X73000Y-19500D01*
X73767Y-19500D01*
X73767Y-13662D01*
X73623Y-13576D01*
X73473Y-13214D01*
X73470Y-12804D01*
X73623Y-12424D01*
X73767Y-12338D01*
X74429Y-13000D01*
X73767Y-13662D01*
X73767Y-19500D01*
X74304Y-19500D01*
X74304Y-14030D01*
X73924Y-13877D01*
X73838Y-13733D01*
X74500Y-13071D01*
X74500Y-12929D01*
X73838Y-12267D01*
X73924Y-12123D01*
X74286Y-11973D01*
X74696Y-11970D01*
X75076Y-12123D01*
X75162Y-12267D01*
X74500Y-12929D01*
X74500Y-13071D01*
X75162Y-13733D01*
X75076Y-13877D01*
X74714Y-14027D01*
X74304Y-14030D01*
X74304Y-19500D01*
X75233Y-19500D01*
X75233Y-13662D01*
X74571Y-13000D01*
X75233Y-12338D01*
X75377Y-12424D01*
X75527Y-12786D01*
X75530Y-13196D01*
X75377Y-13576D01*
X75233Y-13662D01*
X75233Y-19500D01*
X75941Y-19500D01*
X75865Y-19423D01*
X75751Y-19148D01*
X75751Y-18850D01*
X75866Y-18575D01*
X76077Y-18365D01*
X76150Y-18334D01*
X76150Y-17165D01*
X76075Y-17134D01*
X75865Y-16923D01*
X75751Y-16648D01*
X75751Y-16350D01*
X75866Y-16075D01*
X76077Y-15865D01*
X76350Y-15751D01*
X76350Y-15249D01*
X76075Y-15134D01*
X75865Y-14923D01*
X75751Y-14648D01*
X75751Y-14350D01*
X75866Y-14075D01*
X76077Y-13865D01*
X76352Y-13751D01*
X76650Y-13751D01*
X76925Y-13866D01*
X77135Y-14077D01*
X77249Y-14352D01*
X77249Y-14650D01*
X77134Y-14925D01*
X76923Y-15135D01*
X76648Y-15249D01*
X76350Y-15249D01*
X76350Y-15751D01*
X76650Y-15751D01*
X76925Y-15866D01*
X77135Y-16077D01*
X77249Y-16352D01*
X77249Y-16650D01*
X77134Y-16925D01*
X76923Y-17135D01*
X76850Y-17165D01*
X76850Y-18334D01*
X76925Y-18366D01*
X77135Y-18577D01*
X77249Y-18852D01*
X77249Y-19150D01*
X77134Y-19425D01*
X77058Y-19500D01*
X79995Y-19500D01*
X80000Y-19499D01*
X80192Y-19538D01*
X80354Y-19646D01*
X80850Y-20142D01*
X80850Y-19749D01*
X80575Y-19634D01*
X80365Y-19423D01*
X80251Y-19148D01*
X80251Y-18850D01*
X80366Y-18575D01*
X80577Y-18365D01*
X80650Y-18334D01*
X80650Y-17165D01*
X80575Y-17134D01*
X80365Y-16923D01*
X80251Y-16648D01*
X80251Y-16350D01*
X80366Y-16075D01*
X80577Y-15865D01*
X80850Y-15751D01*
X80850Y-15249D01*
X80575Y-15134D01*
X80365Y-14923D01*
X80251Y-14648D01*
X80251Y-14350D01*
X80366Y-14075D01*
X80577Y-13865D01*
X80852Y-13751D01*
X81150Y-13751D01*
X81425Y-13866D01*
X81635Y-14077D01*
X81749Y-14352D01*
X81749Y-14650D01*
X81634Y-14925D01*
X81423Y-15135D01*
X81148Y-15249D01*
X80850Y-15249D01*
X80850Y-15751D01*
X81150Y-15751D01*
X81425Y-15866D01*
X81635Y-16077D01*
X81749Y-16352D01*
X81749Y-16650D01*
X81634Y-16925D01*
X81423Y-17135D01*
X81350Y-17165D01*
X81350Y-18334D01*
X81425Y-18366D01*
X81635Y-18577D01*
X81749Y-18852D01*
X81749Y-19150D01*
X81634Y-19425D01*
X81423Y-19635D01*
X81148Y-19749D01*
X80850Y-19749D01*
X80850Y-20142D01*
X80958Y-20251D01*
X81041Y-20251D01*
X81646Y-19646D01*
X81743Y-19581D01*
X81808Y-19538D01*
X82000Y-19500D01*
X84941Y-19500D01*
X84865Y-19423D01*
X84751Y-19148D01*
X84751Y-18850D01*
X84866Y-18575D01*
X85077Y-18365D01*
X85150Y-18334D01*
X85150Y-17165D01*
X85075Y-17134D01*
X84865Y-16923D01*
X84751Y-16648D01*
X84751Y-16350D01*
X84866Y-16075D01*
X85077Y-15865D01*
X85350Y-15751D01*
X85350Y-15249D01*
X85075Y-15134D01*
X84865Y-14923D01*
X84751Y-14648D01*
X84751Y-14350D01*
X84866Y-14075D01*
X85077Y-13865D01*
X85352Y-13751D01*
X85650Y-13751D01*
X85925Y-13866D01*
X86135Y-14077D01*
X86249Y-14352D01*
X86249Y-14650D01*
X86134Y-14925D01*
X85923Y-15135D01*
X85648Y-15249D01*
X85350Y-15249D01*
X85350Y-15751D01*
X85650Y-15751D01*
X85925Y-15866D01*
X86135Y-16077D01*
X86249Y-16352D01*
X86249Y-16650D01*
X86134Y-16925D01*
X85923Y-17135D01*
X85850Y-17165D01*
X85850Y-18334D01*
X85925Y-18366D01*
X86135Y-18577D01*
X86249Y-18852D01*
X86249Y-19150D01*
X86134Y-19425D01*
X86058Y-19500D01*
X88995Y-19500D01*
X89000Y-19499D01*
X89192Y-19538D01*
X89354Y-19646D01*
X89850Y-20142D01*
X89850Y-19749D01*
X89575Y-19634D01*
X89365Y-19423D01*
X89251Y-19148D01*
X89251Y-18850D01*
X89366Y-18575D01*
X89577Y-18365D01*
X89650Y-18334D01*
X89650Y-17165D01*
X89575Y-17134D01*
X89365Y-16923D01*
X89251Y-16648D01*
X89251Y-16350D01*
X89366Y-16075D01*
X89577Y-15865D01*
X89850Y-15751D01*
X89850Y-15249D01*
X89575Y-15134D01*
X89365Y-14923D01*
X89251Y-14648D01*
X89251Y-14350D01*
X89366Y-14075D01*
X89577Y-13865D01*
X89852Y-13751D01*
X90150Y-13751D01*
X90425Y-13866D01*
X90635Y-14077D01*
X90749Y-14352D01*
X90749Y-14650D01*
X90634Y-14925D01*
X90423Y-15135D01*
X90148Y-15249D01*
X89850Y-15249D01*
X89850Y-15751D01*
X90150Y-15751D01*
X90425Y-15866D01*
X90635Y-16077D01*
X90749Y-16352D01*
X90749Y-16650D01*
X90634Y-16925D01*
X90423Y-17135D01*
X90350Y-17165D01*
X90350Y-18334D01*
X90425Y-18366D01*
X90635Y-18577D01*
X90749Y-18852D01*
X90749Y-19150D01*
X90634Y-19425D01*
X90423Y-19635D01*
X90148Y-19749D01*
X89850Y-19749D01*
X89850Y-20142D01*
X89958Y-20251D01*
X90041Y-20251D01*
X90646Y-19646D01*
X90743Y-19581D01*
X90808Y-19538D01*
X91000Y-19500D01*
X93941Y-19500D01*
X93865Y-19423D01*
X93751Y-19148D01*
X93751Y-18850D01*
X93866Y-18575D01*
X94077Y-18365D01*
X94150Y-18334D01*
X94150Y-17165D01*
X94075Y-17134D01*
X93865Y-16923D01*
X93751Y-16648D01*
X93751Y-16350D01*
X93866Y-16075D01*
X94077Y-15865D01*
X94350Y-15751D01*
X94350Y-15249D01*
X94075Y-15134D01*
X93865Y-14923D01*
X93751Y-14648D01*
X93751Y-14350D01*
X93866Y-14075D01*
X94077Y-13865D01*
X94352Y-13751D01*
X94650Y-13751D01*
X94925Y-13866D01*
X95135Y-14077D01*
X95249Y-14352D01*
X95249Y-14650D01*
X95134Y-14925D01*
X94923Y-15135D01*
X94648Y-15249D01*
X94350Y-15249D01*
X94350Y-15751D01*
X94650Y-15751D01*
X94925Y-15866D01*
X95135Y-16077D01*
X95249Y-16352D01*
X95249Y-16650D01*
X95134Y-16925D01*
X94923Y-17135D01*
X94850Y-17165D01*
X94850Y-18334D01*
X94925Y-18366D01*
X95135Y-18577D01*
X95249Y-18852D01*
X95249Y-19150D01*
X95134Y-19425D01*
X95058Y-19500D01*
X97995Y-19500D01*
X98000Y-19499D01*
X98192Y-19538D01*
X98354Y-19646D01*
X98850Y-20142D01*
X98850Y-19749D01*
X98575Y-19634D01*
X98365Y-19423D01*
X98251Y-19148D01*
X98251Y-18850D01*
X98366Y-18575D01*
X98577Y-18365D01*
X98650Y-18334D01*
X98650Y-17165D01*
X98575Y-17134D01*
X98365Y-16923D01*
X98251Y-16648D01*
X98251Y-16350D01*
X98366Y-16075D01*
X98577Y-15865D01*
X98850Y-15751D01*
X98850Y-15249D01*
X98575Y-15134D01*
X98365Y-14923D01*
X98251Y-14648D01*
X98251Y-14350D01*
X98366Y-14075D01*
X98577Y-13865D01*
X98852Y-13751D01*
X99150Y-13751D01*
X99425Y-13866D01*
X99635Y-14077D01*
X99749Y-14352D01*
X99749Y-14650D01*
X99634Y-14925D01*
X99423Y-15135D01*
X99148Y-15249D01*
X98850Y-15249D01*
X98850Y-15751D01*
X99150Y-15751D01*
X99425Y-15866D01*
X99635Y-16077D01*
X99749Y-16352D01*
X99749Y-16650D01*
X99634Y-16925D01*
X99423Y-17135D01*
X99350Y-17165D01*
X99350Y-18334D01*
X99425Y-18366D01*
X99635Y-18577D01*
X99749Y-18852D01*
X99749Y-19150D01*
X99634Y-19425D01*
X99423Y-19635D01*
X99148Y-19749D01*
X98850Y-19749D01*
X98850Y-20142D01*
X98958Y-20251D01*
X99041Y-20251D01*
X101749Y-17543D01*
X101846Y-17478D01*
X101911Y-17435D01*
X102103Y-17397D01*
X103350Y-17397D01*
X103350Y-17249D01*
X103075Y-17134D01*
X102865Y-16923D01*
X102751Y-16648D01*
X102751Y-16350D01*
X102866Y-16075D01*
X103077Y-15865D01*
X103350Y-15751D01*
X103350Y-15249D01*
X103075Y-15134D01*
X102865Y-14923D01*
X102751Y-14648D01*
X102751Y-14350D01*
X102866Y-14075D01*
X103077Y-13865D01*
X103352Y-13751D01*
X103650Y-13751D01*
X103925Y-13866D01*
X104135Y-14077D01*
X104249Y-14352D01*
X104249Y-14650D01*
X104134Y-14925D01*
X103923Y-15135D01*
X103648Y-15249D01*
X103350Y-15249D01*
X103350Y-15751D01*
X103650Y-15751D01*
X103925Y-15866D01*
X104135Y-16077D01*
X104249Y-16352D01*
X104249Y-16650D01*
X104134Y-16925D01*
X103923Y-17135D01*
X103648Y-17249D01*
X103350Y-17249D01*
X103350Y-17397D01*
X105767Y-17397D01*
X105767Y-13662D01*
X105623Y-13576D01*
X105473Y-13214D01*
X105470Y-12804D01*
X105623Y-12424D01*
X105767Y-12338D01*
X106429Y-13000D01*
X105767Y-13662D01*
X105767Y-17397D01*
X106304Y-17397D01*
X106304Y-14030D01*
X105924Y-13877D01*
X105838Y-13733D01*
X106500Y-13071D01*
X106500Y-12929D01*
X105838Y-12267D01*
X105924Y-12123D01*
X106286Y-11973D01*
X106696Y-11970D01*
X107076Y-12123D01*
X107162Y-12267D01*
X106500Y-12929D01*
X106500Y-13071D01*
X107162Y-13733D01*
X107076Y-13877D01*
X106714Y-14027D01*
X106304Y-14030D01*
X106304Y-17397D01*
X106451Y-17397D01*
X106451Y-17391D01*
X106535Y-17189D01*
X106622Y-17101D01*
X106622Y-16808D01*
X106528Y-16781D01*
X106468Y-16634D01*
X106457Y-16421D01*
X106528Y-16219D01*
X106622Y-16192D01*
X106622Y-15808D01*
X106528Y-15781D01*
X106468Y-15634D01*
X106457Y-15421D01*
X106528Y-15219D01*
X106622Y-15192D01*
X106929Y-15500D01*
X106622Y-15808D01*
X106622Y-16192D01*
X106929Y-16500D01*
X106622Y-16808D01*
X106622Y-17101D01*
X106689Y-17035D01*
X106784Y-16995D01*
X106719Y-16972D01*
X106692Y-16878D01*
X107000Y-16571D01*
X107000Y-16429D01*
X106692Y-16122D01*
X106719Y-16028D01*
X106792Y-15997D01*
X106719Y-15972D01*
X106692Y-15878D01*
X107000Y-15571D01*
X107000Y-15429D01*
X106692Y-15122D01*
X106719Y-15028D01*
X106866Y-14968D01*
X107079Y-14957D01*
X107233Y-15011D01*
X107233Y-13662D01*
X106571Y-13000D01*
X107233Y-12338D01*
X107377Y-12424D01*
X107527Y-12786D01*
X107530Y-13196D01*
X107377Y-13576D01*
X107233Y-13662D01*
X107233Y-15011D01*
X107281Y-15028D01*
X107308Y-15122D01*
X107000Y-15429D01*
X107000Y-15571D01*
X107308Y-15878D01*
X107281Y-15972D01*
X107207Y-16002D01*
X107281Y-16028D01*
X107308Y-16122D01*
X107000Y-16429D01*
X107000Y-16571D01*
X107308Y-16878D01*
X107281Y-16972D01*
X107219Y-16997D01*
X107311Y-17035D01*
X107378Y-17101D01*
X107378Y-16808D01*
X107071Y-16500D01*
X107378Y-16192D01*
X107378Y-15808D01*
X107071Y-15500D01*
X107378Y-15192D01*
X107472Y-15219D01*
X107532Y-15366D01*
X107543Y-15579D01*
X107472Y-15781D01*
X107378Y-15808D01*
X107378Y-16192D01*
X107472Y-16219D01*
X107532Y-16366D01*
X107543Y-16579D01*
X107472Y-16781D01*
X107378Y-16808D01*
X107378Y-17101D01*
X107465Y-17189D01*
X107549Y-17391D01*
X107549Y-17609D01*
X107500Y-17726D01*
X107500Y-18273D01*
X107549Y-18391D01*
X107549Y-18609D01*
X107465Y-18811D01*
X107311Y-18965D01*
X107226Y-19000D01*
X107311Y-19035D01*
X107465Y-19189D01*
X107549Y-19391D01*
X107549Y-19609D01*
X107465Y-19811D01*
X107325Y-19951D01*
X107350Y-19951D01*
X107441Y-19989D01*
X107511Y-20059D01*
X107549Y-20151D01*
X107549Y-20850D01*
X107511Y-20941D01*
X107441Y-21011D01*
X107349Y-21049D01*
X106650Y-21049D01*
X106559Y-21011D01*
X106489Y-20941D01*
X106451Y-20849D01*
X106451Y-20150D01*
X106489Y-20059D01*
X106559Y-19989D01*
X106651Y-19951D01*
X106675Y-19951D01*
X106535Y-19811D01*
X106451Y-19609D01*
X106451Y-19391D01*
X106535Y-19189D01*
X106689Y-19035D01*
X106773Y-19000D01*
X106689Y-18965D01*
X106535Y-18811D01*
X106451Y-18609D01*
X106451Y-18397D01*
X103955Y-18397D01*
X104135Y-18577D01*
X104249Y-18852D01*
X104249Y-19150D01*
X104134Y-19425D01*
X103923Y-19635D01*
X103648Y-19749D01*
X103350Y-19749D01*
X103075Y-19634D01*
X102865Y-19423D01*
X102751Y-19148D01*
X102751Y-18850D01*
X102866Y-18575D01*
X103044Y-18397D01*
X102310Y-18397D01*
X99749Y-20958D01*
X99749Y-21150D01*
X99634Y-21425D01*
X99423Y-21635D01*
X99148Y-21749D01*
X98850Y-21749D01*
X98575Y-21634D01*
X98365Y-21423D01*
X98251Y-21148D01*
X98251Y-20958D01*
X97792Y-20500D01*
X95058Y-20500D01*
X95135Y-20577D01*
X95249Y-20852D01*
X95249Y-21150D01*
X95134Y-21425D01*
X94923Y-21635D01*
X94648Y-21749D01*
X94350Y-21749D01*
X94075Y-21634D01*
X93865Y-21423D01*
X93751Y-21148D01*
X93751Y-20850D01*
X93866Y-20575D01*
X93941Y-20500D01*
X91207Y-20500D01*
X90749Y-20958D01*
X90749Y-21150D01*
X90634Y-21425D01*
X90423Y-21635D01*
X90148Y-21749D01*
X89850Y-21749D01*
X89575Y-21634D01*
X89365Y-21423D01*
X89251Y-21148D01*
X89251Y-20958D01*
X88792Y-20500D01*
X86058Y-20500D01*
X86135Y-20577D01*
X86249Y-20852D01*
X86249Y-21150D01*
X86134Y-21425D01*
X85923Y-21635D01*
X85648Y-21749D01*
X85350Y-21749D01*
X85075Y-21634D01*
X84865Y-21423D01*
X84751Y-21148D01*
X84751Y-20850D01*
X84866Y-20575D01*
X84941Y-20500D01*
X82207Y-20500D01*
X81749Y-20958D01*
X81749Y-21150D01*
X81634Y-21425D01*
X81423Y-21635D01*
X81148Y-21749D01*
X80850Y-21749D01*
X80575Y-21634D01*
X80365Y-21423D01*
X80251Y-21148D01*
X80251Y-20958D01*
X79792Y-20500D01*
X77058Y-20500D01*
X77135Y-20577D01*
X77249Y-20852D01*
X77249Y-21150D01*
X77134Y-21425D01*
X76923Y-21635D01*
X76648Y-21749D01*
X76350Y-21749D01*
X76276Y-21718D01*
X75004Y-22990D01*
X74891Y-23066D01*
X74757Y-23093D01*
X71234Y-23093D01*
X71223Y-23104D01*
X71067Y-23168D01*
X70898Y-23168D01*
X70742Y-23103D01*
X70622Y-22983D01*
X70605Y-22943D01*
X70467Y-23083D01*
X70305Y-23191D01*
X70113Y-23230D01*
X70108Y-23229D01*
X51074Y-23229D01*
X51080Y-23243D01*
X51080Y-23412D01*
X51015Y-23568D01*
X50895Y-23688D01*
X50804Y-23725D01*
X103350Y-23725D01*
X103350Y-21749D01*
X103075Y-21634D01*
X102865Y-21423D01*
X102751Y-21148D01*
X102751Y-20850D01*
X102866Y-20575D01*
X103077Y-20365D01*
X103352Y-20251D01*
X103650Y-20251D01*
X103925Y-20366D01*
X104135Y-20577D01*
X104249Y-20852D01*
X104249Y-21150D01*
X104134Y-21425D01*
X103923Y-21635D01*
X103648Y-21749D01*
X103350Y-21749D01*
X103350Y-23725D01*
X105767Y-23725D01*
X105767Y-23162D01*
X105623Y-23076D01*
X105473Y-22714D01*
X105470Y-22304D01*
X105623Y-21924D01*
X105767Y-21838D01*
X106429Y-22500D01*
X105767Y-23162D01*
X105767Y-23725D01*
X106304Y-23725D01*
X106304Y-23530D01*
X105924Y-23377D01*
X105838Y-23233D01*
X106500Y-22571D01*
X106500Y-22429D01*
X105838Y-21767D01*
X105924Y-21623D01*
X106286Y-21473D01*
X106696Y-21470D01*
X107076Y-21623D01*
X107162Y-21767D01*
X106500Y-22429D01*
X106500Y-22571D01*
X107162Y-23233D01*
X107076Y-23377D01*
X106714Y-23527D01*
X106304Y-23530D01*
X106304Y-23725D01*
X107233Y-23725D01*
X107233Y-23162D01*
X106571Y-22500D01*
X107233Y-21838D01*
X107377Y-21924D01*
X107527Y-22286D01*
X107530Y-22696D01*
X107377Y-23076D01*
X107233Y-23162D01*
X107233Y-23725D01*
X107725Y-23725D01*
M02*
