G04 (created by PCBNEW-RS274X (2011-04-28)-stable) date Sun 31 Jul 2011 01:13:18 AM CEST*
G01*
G70*
G90*
%MOIN*%
G04 Gerber Fmt 3.4, Leading zero omitted, Abs format*
%FSLAX34Y34*%
G04 APERTURE LIST*
%ADD10C,0.010000*%
%ADD11C,0.008000*%
%ADD12C,0.015000*%
%ADD13C,0.012000*%
%ADD14C,0.002600*%
%ADD15C,0.002000*%
%ADD16C,0.004000*%
%ADD17C,0.007800*%
%ADD18C,0.005000*%
%ADD19C,0.006000*%
%ADD20C,0.004500*%
%ADD21R,0.070000X0.070000*%
%ADD22C,0.070000*%
%ADD23R,0.060000X0.060000*%
%ADD24C,0.060000*%
%ADD25R,0.080000X0.080000*%
%ADD26C,0.080000*%
%ADD27R,0.055000X0.055000*%
%ADD28C,0.055000*%
%ADD29R,0.051100X0.059000*%
%ADD30R,0.059000X0.051100*%
%ADD31R,0.070800X0.062900*%
%ADD32R,0.062900X0.070800*%
%ADD33R,0.086600X0.023600*%
%ADD34C,0.160000*%
%ADD35R,0.045000X0.025000*%
%ADD36R,0.025000X0.045000*%
%ADD37R,0.047200X0.047200*%
G04 APERTURE END LIST*
G54D10*
G54D11*
X32602Y-52883D02*
X32364Y-53050D01*
X32602Y-53169D02*
X32102Y-53169D01*
X32102Y-52978D01*
X32126Y-52931D01*
X32150Y-52907D01*
X32198Y-52883D01*
X32269Y-52883D01*
X32317Y-52907D01*
X32340Y-52931D01*
X32364Y-52978D01*
X32364Y-53169D01*
X32102Y-52717D02*
X32602Y-52383D01*
X32102Y-52383D02*
X32602Y-52717D01*
X33002Y-53180D02*
X33002Y-52895D01*
X33502Y-53038D02*
X33002Y-53038D01*
X33002Y-52776D02*
X33502Y-52442D01*
X33002Y-52442D02*
X33502Y-52776D01*
X81119Y-50402D02*
X81119Y-50069D01*
X81119Y-50117D02*
X81143Y-50093D01*
X81190Y-50069D01*
X81262Y-50069D01*
X81310Y-50093D01*
X81333Y-50140D01*
X81333Y-50402D01*
X81333Y-50140D02*
X81357Y-50093D01*
X81405Y-50069D01*
X81476Y-50069D01*
X81524Y-50093D01*
X81548Y-50140D01*
X81548Y-50402D01*
X81857Y-50402D02*
X81810Y-50379D01*
X81786Y-50355D01*
X81762Y-50307D01*
X81762Y-50164D01*
X81786Y-50117D01*
X81810Y-50093D01*
X81857Y-50069D01*
X81929Y-50069D01*
X81977Y-50093D01*
X82000Y-50117D01*
X82024Y-50164D01*
X82024Y-50307D01*
X82000Y-50355D01*
X81977Y-50379D01*
X81929Y-50402D01*
X81857Y-50402D01*
X82452Y-50402D02*
X82452Y-49902D01*
X82452Y-50379D02*
X82405Y-50402D01*
X82309Y-50402D01*
X82262Y-50379D01*
X82238Y-50355D01*
X82214Y-50307D01*
X82214Y-50164D01*
X82238Y-50117D01*
X82262Y-50093D01*
X82309Y-50069D01*
X82405Y-50069D01*
X82452Y-50093D01*
X82881Y-50379D02*
X82833Y-50402D01*
X82738Y-50402D01*
X82690Y-50379D01*
X82666Y-50331D01*
X82666Y-50140D01*
X82690Y-50093D01*
X82738Y-50069D01*
X82833Y-50069D01*
X82881Y-50093D01*
X82904Y-50140D01*
X82904Y-50188D01*
X82666Y-50236D01*
X87281Y-50069D02*
X87281Y-50402D01*
X87067Y-50069D02*
X87067Y-50331D01*
X87091Y-50379D01*
X87138Y-50402D01*
X87210Y-50402D01*
X87258Y-50379D01*
X87281Y-50355D01*
X87519Y-50069D02*
X87519Y-50569D01*
X87519Y-50093D02*
X87567Y-50069D01*
X87662Y-50069D01*
X87710Y-50093D01*
X87733Y-50117D01*
X87757Y-50164D01*
X87757Y-50307D01*
X87733Y-50355D01*
X87710Y-50379D01*
X87662Y-50402D01*
X87567Y-50402D01*
X87519Y-50379D01*
X76093Y-50402D02*
X76093Y-49902D01*
X76093Y-50379D02*
X76046Y-50402D01*
X75950Y-50402D01*
X75903Y-50379D01*
X75879Y-50355D01*
X75855Y-50307D01*
X75855Y-50164D01*
X75879Y-50117D01*
X75903Y-50093D01*
X75950Y-50069D01*
X76046Y-50069D01*
X76093Y-50093D01*
X76402Y-50402D02*
X76355Y-50379D01*
X76331Y-50355D01*
X76307Y-50307D01*
X76307Y-50164D01*
X76331Y-50117D01*
X76355Y-50093D01*
X76402Y-50069D01*
X76474Y-50069D01*
X76522Y-50093D01*
X76545Y-50117D01*
X76569Y-50164D01*
X76569Y-50307D01*
X76545Y-50355D01*
X76522Y-50379D01*
X76474Y-50402D01*
X76402Y-50402D01*
X76735Y-50069D02*
X76831Y-50402D01*
X76926Y-50164D01*
X77021Y-50402D01*
X77116Y-50069D01*
X77307Y-50069D02*
X77307Y-50402D01*
X77307Y-50117D02*
X77331Y-50093D01*
X77378Y-50069D01*
X77450Y-50069D01*
X77498Y-50093D01*
X77521Y-50140D01*
X77521Y-50402D01*
X28710Y-60212D02*
X29091Y-60212D01*
X28901Y-60402D02*
X28901Y-60021D01*
X28912Y-59390D02*
X28912Y-59009D01*
X135010Y-60212D02*
X135391Y-60212D01*
X135201Y-60402D02*
X135201Y-60021D01*
X135212Y-59390D02*
X135212Y-59009D01*
X53347Y-61902D02*
X53513Y-62402D01*
X53680Y-61902D01*
X54109Y-62402D02*
X53823Y-62402D01*
X53966Y-62402D02*
X53966Y-61902D01*
X53918Y-61974D01*
X53871Y-62021D01*
X53823Y-62045D01*
X54323Y-62355D02*
X54347Y-62379D01*
X54323Y-62402D01*
X54299Y-62379D01*
X54323Y-62355D01*
X54323Y-62402D01*
X54823Y-62402D02*
X54537Y-62402D01*
X54680Y-62402D02*
X54680Y-61902D01*
X54632Y-61974D01*
X54585Y-62021D01*
X54537Y-62045D01*
X55132Y-61902D02*
X55180Y-61902D01*
X55228Y-61926D01*
X55251Y-61950D01*
X55275Y-61998D01*
X55299Y-62093D01*
X55299Y-62212D01*
X55275Y-62307D01*
X55251Y-62355D01*
X55228Y-62379D01*
X55180Y-62402D01*
X55132Y-62402D01*
X55085Y-62379D01*
X55061Y-62355D01*
X55037Y-62307D01*
X55013Y-62212D01*
X55013Y-62093D01*
X55037Y-61998D01*
X55061Y-61950D01*
X55085Y-61926D01*
X55132Y-61902D01*
X55894Y-62212D02*
X56275Y-62212D01*
X56870Y-61950D02*
X56894Y-61926D01*
X56942Y-61902D01*
X57061Y-61902D01*
X57108Y-61926D01*
X57132Y-61950D01*
X57156Y-61998D01*
X57156Y-62045D01*
X57132Y-62117D01*
X56846Y-62402D01*
X57156Y-62402D01*
X57465Y-61902D02*
X57513Y-61902D01*
X57561Y-61926D01*
X57584Y-61950D01*
X57608Y-61998D01*
X57632Y-62093D01*
X57632Y-62212D01*
X57608Y-62307D01*
X57584Y-62355D01*
X57561Y-62379D01*
X57513Y-62402D01*
X57465Y-62402D01*
X57418Y-62379D01*
X57394Y-62355D01*
X57370Y-62307D01*
X57346Y-62212D01*
X57346Y-62093D01*
X57370Y-61998D01*
X57394Y-61950D01*
X57418Y-61926D01*
X57465Y-61902D01*
X58108Y-62402D02*
X57822Y-62402D01*
X57965Y-62402D02*
X57965Y-61902D01*
X57917Y-61974D01*
X57870Y-62021D01*
X57822Y-62045D01*
X58584Y-62402D02*
X58298Y-62402D01*
X58441Y-62402D02*
X58441Y-61902D01*
X58393Y-61974D01*
X58346Y-62021D01*
X58298Y-62045D01*
X59179Y-62402D02*
X59179Y-61902D01*
X59179Y-62093D02*
X59227Y-62069D01*
X59322Y-62069D01*
X59370Y-62093D01*
X59393Y-62117D01*
X59417Y-62164D01*
X59417Y-62307D01*
X59393Y-62355D01*
X59370Y-62379D01*
X59322Y-62402D01*
X59227Y-62402D01*
X59179Y-62379D01*
X59702Y-62402D02*
X59655Y-62379D01*
X59631Y-62331D01*
X59631Y-61902D01*
X59964Y-62402D02*
X59917Y-62379D01*
X59893Y-62355D01*
X59869Y-62307D01*
X59869Y-62164D01*
X59893Y-62117D01*
X59917Y-62093D01*
X59964Y-62069D01*
X60036Y-62069D01*
X60084Y-62093D01*
X60107Y-62117D01*
X60131Y-62164D01*
X60131Y-62307D01*
X60107Y-62355D01*
X60084Y-62379D01*
X60036Y-62402D01*
X59964Y-62402D01*
X60559Y-62069D02*
X60559Y-62474D01*
X60536Y-62521D01*
X60512Y-62545D01*
X60464Y-62569D01*
X60393Y-62569D01*
X60345Y-62545D01*
X60559Y-62379D02*
X60512Y-62402D01*
X60416Y-62402D01*
X60369Y-62379D01*
X60345Y-62355D01*
X60321Y-62307D01*
X60321Y-62164D01*
X60345Y-62117D01*
X60369Y-62093D01*
X60416Y-62069D01*
X60512Y-62069D01*
X60559Y-62093D01*
X60797Y-62355D02*
X60821Y-62379D01*
X60797Y-62402D01*
X60773Y-62379D01*
X60797Y-62355D01*
X60797Y-62402D01*
X61011Y-62379D02*
X61059Y-62402D01*
X61154Y-62402D01*
X61202Y-62379D01*
X61226Y-62331D01*
X61226Y-62307D01*
X61202Y-62260D01*
X61154Y-62236D01*
X61083Y-62236D01*
X61035Y-62212D01*
X61011Y-62164D01*
X61011Y-62140D01*
X61035Y-62093D01*
X61083Y-62069D01*
X61154Y-62069D01*
X61202Y-62093D01*
X61440Y-62069D02*
X61440Y-62569D01*
X61440Y-62093D02*
X61488Y-62069D01*
X61583Y-62069D01*
X61631Y-62093D01*
X61654Y-62117D01*
X61678Y-62164D01*
X61678Y-62307D01*
X61654Y-62355D01*
X61631Y-62379D01*
X61583Y-62402D01*
X61488Y-62402D01*
X61440Y-62379D01*
X61892Y-62402D02*
X61892Y-62069D01*
X61892Y-61902D02*
X61868Y-61926D01*
X61892Y-61950D01*
X61916Y-61926D01*
X61892Y-61902D01*
X61892Y-61950D01*
X62059Y-62069D02*
X62249Y-62069D01*
X62130Y-61902D02*
X62130Y-62331D01*
X62154Y-62379D01*
X62201Y-62402D01*
X62249Y-62402D01*
X62368Y-62069D02*
X62630Y-62069D01*
X62368Y-62402D01*
X62630Y-62402D01*
X63012Y-62379D02*
X62964Y-62402D01*
X62869Y-62402D01*
X62821Y-62379D01*
X62797Y-62331D01*
X62797Y-62140D01*
X62821Y-62093D01*
X62869Y-62069D01*
X62964Y-62069D01*
X63012Y-62093D01*
X63035Y-62140D01*
X63035Y-62188D01*
X62797Y-62236D01*
X63250Y-62069D02*
X63250Y-62402D01*
X63250Y-62117D02*
X63274Y-62093D01*
X63321Y-62069D01*
X63393Y-62069D01*
X63441Y-62093D01*
X63464Y-62140D01*
X63464Y-62402D01*
X63702Y-62069D02*
X63702Y-62569D01*
X63702Y-62093D02*
X63750Y-62069D01*
X63845Y-62069D01*
X63893Y-62093D01*
X63916Y-62117D01*
X63940Y-62164D01*
X63940Y-62307D01*
X63916Y-62355D01*
X63893Y-62379D01*
X63845Y-62402D01*
X63750Y-62402D01*
X63702Y-62379D01*
X64083Y-62069D02*
X64273Y-62069D01*
X64154Y-62402D02*
X64154Y-61974D01*
X64178Y-61926D01*
X64225Y-61902D01*
X64273Y-61902D01*
X64631Y-62379D02*
X64583Y-62402D01*
X64488Y-62402D01*
X64440Y-62379D01*
X64416Y-62331D01*
X64416Y-62140D01*
X64440Y-62093D01*
X64488Y-62069D01*
X64583Y-62069D01*
X64631Y-62093D01*
X64654Y-62140D01*
X64654Y-62188D01*
X64416Y-62236D01*
X64869Y-62402D02*
X64869Y-62069D01*
X64869Y-61902D02*
X64845Y-61926D01*
X64869Y-61950D01*
X64893Y-61926D01*
X64869Y-61902D01*
X64869Y-61950D01*
X65178Y-62402D02*
X65131Y-62379D01*
X65107Y-62331D01*
X65107Y-61902D01*
X65369Y-62355D02*
X65393Y-62379D01*
X65369Y-62402D01*
X65345Y-62379D01*
X65369Y-62355D01*
X65369Y-62402D01*
X65678Y-62402D02*
X65631Y-62379D01*
X65607Y-62355D01*
X65583Y-62307D01*
X65583Y-62164D01*
X65607Y-62117D01*
X65631Y-62093D01*
X65678Y-62069D01*
X65750Y-62069D01*
X65798Y-62093D01*
X65821Y-62117D01*
X65845Y-62164D01*
X65845Y-62307D01*
X65821Y-62355D01*
X65798Y-62379D01*
X65750Y-62402D01*
X65678Y-62402D01*
X66059Y-62402D02*
X66059Y-62069D01*
X66059Y-62164D02*
X66083Y-62117D01*
X66107Y-62093D01*
X66154Y-62069D01*
X66202Y-62069D01*
X66583Y-62069D02*
X66583Y-62474D01*
X66560Y-62521D01*
X66536Y-62545D01*
X66488Y-62569D01*
X66417Y-62569D01*
X66369Y-62545D01*
X66583Y-62379D02*
X66536Y-62402D01*
X66440Y-62402D01*
X66393Y-62379D01*
X66369Y-62355D01*
X66345Y-62307D01*
X66345Y-62164D01*
X66369Y-62117D01*
X66393Y-62093D01*
X66440Y-62069D01*
X66536Y-62069D01*
X66583Y-62093D01*
G54D12*
X113650Y-60800D02*
X113649Y-60809D01*
X113646Y-60819D01*
X113641Y-60827D01*
X113635Y-60835D01*
X113627Y-60841D01*
X113619Y-60846D01*
X113610Y-60848D01*
X113600Y-60849D01*
X113591Y-60849D01*
X113582Y-60846D01*
X113573Y-60841D01*
X113566Y-60835D01*
X113559Y-60828D01*
X113555Y-60819D01*
X113552Y-60810D01*
X113551Y-60800D01*
X113551Y-60791D01*
X113554Y-60782D01*
X113558Y-60773D01*
X113565Y-60766D01*
X113572Y-60759D01*
X113580Y-60755D01*
X113590Y-60752D01*
X113599Y-60751D01*
X113608Y-60751D01*
X113618Y-60754D01*
X113626Y-60758D01*
X113634Y-60764D01*
X113640Y-60772D01*
X113645Y-60780D01*
X113648Y-60789D01*
X113649Y-60799D01*
X113650Y-60800D01*
X113900Y-60800D02*
X113899Y-60809D01*
X113896Y-60819D01*
X113891Y-60827D01*
X113885Y-60835D01*
X113877Y-60841D01*
X113869Y-60846D01*
X113860Y-60848D01*
X113850Y-60849D01*
X113841Y-60849D01*
X113832Y-60846D01*
X113823Y-60841D01*
X113816Y-60835D01*
X113809Y-60828D01*
X113805Y-60819D01*
X113802Y-60810D01*
X113801Y-60800D01*
X113801Y-60791D01*
X113804Y-60782D01*
X113808Y-60773D01*
X113815Y-60766D01*
X113822Y-60759D01*
X113830Y-60755D01*
X113840Y-60752D01*
X113849Y-60751D01*
X113858Y-60751D01*
X113868Y-60754D01*
X113876Y-60758D01*
X113884Y-60764D01*
X113890Y-60772D01*
X113895Y-60780D01*
X113898Y-60789D01*
X113899Y-60799D01*
X113900Y-60800D01*
X113650Y-61050D02*
X113649Y-61059D01*
X113646Y-61069D01*
X113641Y-61077D01*
X113635Y-61085D01*
X113627Y-61091D01*
X113619Y-61096D01*
X113610Y-61098D01*
X113600Y-61099D01*
X113591Y-61099D01*
X113582Y-61096D01*
X113573Y-61091D01*
X113566Y-61085D01*
X113559Y-61078D01*
X113555Y-61069D01*
X113552Y-61060D01*
X113551Y-61050D01*
X113551Y-61041D01*
X113554Y-61032D01*
X113558Y-61023D01*
X113565Y-61016D01*
X113572Y-61009D01*
X113580Y-61005D01*
X113590Y-61002D01*
X113599Y-61001D01*
X113608Y-61001D01*
X113618Y-61004D01*
X113626Y-61008D01*
X113634Y-61014D01*
X113640Y-61022D01*
X113645Y-61030D01*
X113648Y-61039D01*
X113649Y-61049D01*
X113650Y-61050D01*
X113900Y-61050D02*
X113899Y-61059D01*
X113896Y-61069D01*
X113891Y-61077D01*
X113885Y-61085D01*
X113877Y-61091D01*
X113869Y-61096D01*
X113860Y-61098D01*
X113850Y-61099D01*
X113841Y-61099D01*
X113832Y-61096D01*
X113823Y-61091D01*
X113816Y-61085D01*
X113809Y-61078D01*
X113805Y-61069D01*
X113802Y-61060D01*
X113801Y-61050D01*
X113801Y-61041D01*
X113804Y-61032D01*
X113808Y-61023D01*
X113815Y-61016D01*
X113822Y-61009D01*
X113830Y-61005D01*
X113840Y-61002D01*
X113849Y-61001D01*
X113858Y-61001D01*
X113868Y-61004D01*
X113876Y-61008D01*
X113884Y-61014D01*
X113890Y-61022D01*
X113895Y-61030D01*
X113898Y-61039D01*
X113899Y-61049D01*
X113900Y-61050D01*
X112900Y-61050D02*
X112899Y-61059D01*
X112896Y-61069D01*
X112891Y-61077D01*
X112885Y-61085D01*
X112877Y-61091D01*
X112869Y-61096D01*
X112860Y-61098D01*
X112850Y-61099D01*
X112841Y-61099D01*
X112832Y-61096D01*
X112823Y-61091D01*
X112816Y-61085D01*
X112809Y-61078D01*
X112805Y-61069D01*
X112802Y-61060D01*
X112801Y-61050D01*
X112801Y-61041D01*
X112804Y-61032D01*
X112808Y-61023D01*
X112815Y-61016D01*
X112822Y-61009D01*
X112830Y-61005D01*
X112840Y-61002D01*
X112849Y-61001D01*
X112858Y-61001D01*
X112868Y-61004D01*
X112876Y-61008D01*
X112884Y-61014D01*
X112890Y-61022D01*
X112895Y-61030D01*
X112898Y-61039D01*
X112899Y-61049D01*
X112900Y-61050D01*
X112650Y-61050D02*
X112649Y-61059D01*
X112646Y-61069D01*
X112641Y-61077D01*
X112635Y-61085D01*
X112627Y-61091D01*
X112619Y-61096D01*
X112610Y-61098D01*
X112600Y-61099D01*
X112591Y-61099D01*
X112582Y-61096D01*
X112573Y-61091D01*
X112566Y-61085D01*
X112559Y-61078D01*
X112555Y-61069D01*
X112552Y-61060D01*
X112551Y-61050D01*
X112551Y-61041D01*
X112554Y-61032D01*
X112558Y-61023D01*
X112565Y-61016D01*
X112572Y-61009D01*
X112580Y-61005D01*
X112590Y-61002D01*
X112599Y-61001D01*
X112608Y-61001D01*
X112618Y-61004D01*
X112626Y-61008D01*
X112634Y-61014D01*
X112640Y-61022D01*
X112645Y-61030D01*
X112648Y-61039D01*
X112649Y-61049D01*
X112650Y-61050D01*
X112650Y-60800D02*
X112649Y-60809D01*
X112646Y-60819D01*
X112641Y-60827D01*
X112635Y-60835D01*
X112627Y-60841D01*
X112619Y-60846D01*
X112610Y-60848D01*
X112600Y-60849D01*
X112591Y-60849D01*
X112582Y-60846D01*
X112573Y-60841D01*
X112566Y-60835D01*
X112559Y-60828D01*
X112555Y-60819D01*
X112552Y-60810D01*
X112551Y-60800D01*
X112551Y-60791D01*
X112554Y-60782D01*
X112558Y-60773D01*
X112565Y-60766D01*
X112572Y-60759D01*
X112580Y-60755D01*
X112590Y-60752D01*
X112599Y-60751D01*
X112608Y-60751D01*
X112618Y-60754D01*
X112626Y-60758D01*
X112634Y-60764D01*
X112640Y-60772D01*
X112645Y-60780D01*
X112648Y-60789D01*
X112649Y-60799D01*
X112650Y-60800D01*
X112900Y-60800D02*
X112899Y-60809D01*
X112896Y-60819D01*
X112891Y-60827D01*
X112885Y-60835D01*
X112877Y-60841D01*
X112869Y-60846D01*
X112860Y-60848D01*
X112850Y-60849D01*
X112841Y-60849D01*
X112832Y-60846D01*
X112823Y-60841D01*
X112816Y-60835D01*
X112809Y-60828D01*
X112805Y-60819D01*
X112802Y-60810D01*
X112801Y-60800D01*
X112801Y-60791D01*
X112804Y-60782D01*
X112808Y-60773D01*
X112815Y-60766D01*
X112822Y-60759D01*
X112830Y-60755D01*
X112840Y-60752D01*
X112849Y-60751D01*
X112858Y-60751D01*
X112868Y-60754D01*
X112876Y-60758D01*
X112884Y-60764D01*
X112890Y-60772D01*
X112895Y-60780D01*
X112898Y-60789D01*
X112899Y-60799D01*
X112900Y-60800D01*
X113150Y-61550D02*
X113149Y-61559D01*
X113146Y-61569D01*
X113141Y-61577D01*
X113135Y-61585D01*
X113127Y-61591D01*
X113119Y-61596D01*
X113110Y-61598D01*
X113100Y-61599D01*
X113091Y-61599D01*
X113082Y-61596D01*
X113073Y-61591D01*
X113066Y-61585D01*
X113059Y-61578D01*
X113055Y-61569D01*
X113052Y-61560D01*
X113051Y-61550D01*
X113051Y-61541D01*
X113054Y-61532D01*
X113058Y-61523D01*
X113065Y-61516D01*
X113072Y-61509D01*
X113080Y-61505D01*
X113090Y-61502D01*
X113099Y-61501D01*
X113108Y-61501D01*
X113118Y-61504D01*
X113126Y-61508D01*
X113134Y-61514D01*
X113140Y-61522D01*
X113145Y-61530D01*
X113148Y-61539D01*
X113149Y-61549D01*
X113150Y-61550D01*
X113400Y-61550D02*
X113399Y-61559D01*
X113396Y-61569D01*
X113391Y-61577D01*
X113385Y-61585D01*
X113377Y-61591D01*
X113369Y-61596D01*
X113360Y-61598D01*
X113350Y-61599D01*
X113341Y-61599D01*
X113332Y-61596D01*
X113323Y-61591D01*
X113316Y-61585D01*
X113309Y-61578D01*
X113305Y-61569D01*
X113302Y-61560D01*
X113301Y-61550D01*
X113301Y-61541D01*
X113304Y-61532D01*
X113308Y-61523D01*
X113315Y-61516D01*
X113322Y-61509D01*
X113330Y-61505D01*
X113340Y-61502D01*
X113349Y-61501D01*
X113358Y-61501D01*
X113368Y-61504D01*
X113376Y-61508D01*
X113384Y-61514D01*
X113390Y-61522D01*
X113395Y-61530D01*
X113398Y-61539D01*
X113399Y-61549D01*
X113400Y-61550D01*
X113150Y-61800D02*
X113149Y-61809D01*
X113146Y-61819D01*
X113141Y-61827D01*
X113135Y-61835D01*
X113127Y-61841D01*
X113119Y-61846D01*
X113110Y-61848D01*
X113100Y-61849D01*
X113091Y-61849D01*
X113082Y-61846D01*
X113073Y-61841D01*
X113066Y-61835D01*
X113059Y-61828D01*
X113055Y-61819D01*
X113052Y-61810D01*
X113051Y-61800D01*
X113051Y-61791D01*
X113054Y-61782D01*
X113058Y-61773D01*
X113065Y-61766D01*
X113072Y-61759D01*
X113080Y-61755D01*
X113090Y-61752D01*
X113099Y-61751D01*
X113108Y-61751D01*
X113118Y-61754D01*
X113126Y-61758D01*
X113134Y-61764D01*
X113140Y-61772D01*
X113145Y-61780D01*
X113148Y-61789D01*
X113149Y-61799D01*
X113150Y-61800D01*
X113400Y-61800D02*
X113399Y-61809D01*
X113396Y-61819D01*
X113391Y-61827D01*
X113385Y-61835D01*
X113377Y-61841D01*
X113369Y-61846D01*
X113360Y-61848D01*
X113350Y-61849D01*
X113341Y-61849D01*
X113332Y-61846D01*
X113323Y-61841D01*
X113316Y-61835D01*
X113309Y-61828D01*
X113305Y-61819D01*
X113302Y-61810D01*
X113301Y-61800D01*
X113301Y-61791D01*
X113304Y-61782D01*
X113308Y-61773D01*
X113315Y-61766D01*
X113322Y-61759D01*
X113330Y-61755D01*
X113340Y-61752D01*
X113349Y-61751D01*
X113358Y-61751D01*
X113368Y-61754D01*
X113376Y-61758D01*
X113384Y-61764D01*
X113390Y-61772D01*
X113395Y-61780D01*
X113398Y-61789D01*
X113399Y-61799D01*
X113400Y-61800D01*
X113150Y-62300D02*
X113149Y-62309D01*
X113146Y-62319D01*
X113141Y-62327D01*
X113135Y-62335D01*
X113127Y-62341D01*
X113119Y-62346D01*
X113110Y-62348D01*
X113100Y-62349D01*
X113091Y-62349D01*
X113082Y-62346D01*
X113073Y-62341D01*
X113066Y-62335D01*
X113059Y-62328D01*
X113055Y-62319D01*
X113052Y-62310D01*
X113051Y-62300D01*
X113051Y-62291D01*
X113054Y-62282D01*
X113058Y-62273D01*
X113065Y-62266D01*
X113072Y-62259D01*
X113080Y-62255D01*
X113090Y-62252D01*
X113099Y-62251D01*
X113108Y-62251D01*
X113118Y-62254D01*
X113126Y-62258D01*
X113134Y-62264D01*
X113140Y-62272D01*
X113145Y-62280D01*
X113148Y-62289D01*
X113149Y-62299D01*
X113150Y-62300D01*
X113400Y-62300D02*
X113399Y-62309D01*
X113396Y-62319D01*
X113391Y-62327D01*
X113385Y-62335D01*
X113377Y-62341D01*
X113369Y-62346D01*
X113360Y-62348D01*
X113350Y-62349D01*
X113341Y-62349D01*
X113332Y-62346D01*
X113323Y-62341D01*
X113316Y-62335D01*
X113309Y-62328D01*
X113305Y-62319D01*
X113302Y-62310D01*
X113301Y-62300D01*
X113301Y-62291D01*
X113304Y-62282D01*
X113308Y-62273D01*
X113315Y-62266D01*
X113322Y-62259D01*
X113330Y-62255D01*
X113340Y-62252D01*
X113349Y-62251D01*
X113358Y-62251D01*
X113368Y-62254D01*
X113376Y-62258D01*
X113384Y-62264D01*
X113390Y-62272D01*
X113395Y-62280D01*
X113398Y-62289D01*
X113399Y-62299D01*
X113400Y-62300D01*
X113650Y-62300D02*
X113649Y-62309D01*
X113646Y-62319D01*
X113641Y-62327D01*
X113635Y-62335D01*
X113627Y-62341D01*
X113619Y-62346D01*
X113610Y-62348D01*
X113600Y-62349D01*
X113591Y-62349D01*
X113582Y-62346D01*
X113573Y-62341D01*
X113566Y-62335D01*
X113559Y-62328D01*
X113555Y-62319D01*
X113552Y-62310D01*
X113551Y-62300D01*
X113551Y-62291D01*
X113554Y-62282D01*
X113558Y-62273D01*
X113565Y-62266D01*
X113572Y-62259D01*
X113580Y-62255D01*
X113590Y-62252D01*
X113599Y-62251D01*
X113608Y-62251D01*
X113618Y-62254D01*
X113626Y-62258D01*
X113634Y-62264D01*
X113640Y-62272D01*
X113645Y-62280D01*
X113648Y-62289D01*
X113649Y-62299D01*
X113650Y-62300D01*
X113900Y-62050D02*
X113899Y-62059D01*
X113896Y-62069D01*
X113891Y-62077D01*
X113885Y-62085D01*
X113877Y-62091D01*
X113869Y-62096D01*
X113860Y-62098D01*
X113850Y-62099D01*
X113841Y-62099D01*
X113832Y-62096D01*
X113823Y-62091D01*
X113816Y-62085D01*
X113809Y-62078D01*
X113805Y-62069D01*
X113802Y-62060D01*
X113801Y-62050D01*
X113801Y-62041D01*
X113804Y-62032D01*
X113808Y-62023D01*
X113815Y-62016D01*
X113822Y-62009D01*
X113830Y-62005D01*
X113840Y-62002D01*
X113849Y-62001D01*
X113858Y-62001D01*
X113868Y-62004D01*
X113876Y-62008D01*
X113884Y-62014D01*
X113890Y-62022D01*
X113895Y-62030D01*
X113898Y-62039D01*
X113899Y-62049D01*
X113900Y-62050D01*
X114150Y-61800D02*
X114149Y-61809D01*
X114146Y-61819D01*
X114141Y-61827D01*
X114135Y-61835D01*
X114127Y-61841D01*
X114119Y-61846D01*
X114110Y-61848D01*
X114100Y-61849D01*
X114091Y-61849D01*
X114082Y-61846D01*
X114073Y-61841D01*
X114066Y-61835D01*
X114059Y-61828D01*
X114055Y-61819D01*
X114052Y-61810D01*
X114051Y-61800D01*
X114051Y-61791D01*
X114054Y-61782D01*
X114058Y-61773D01*
X114065Y-61766D01*
X114072Y-61759D01*
X114080Y-61755D01*
X114090Y-61752D01*
X114099Y-61751D01*
X114108Y-61751D01*
X114118Y-61754D01*
X114126Y-61758D01*
X114134Y-61764D01*
X114140Y-61772D01*
X114145Y-61780D01*
X114148Y-61789D01*
X114149Y-61799D01*
X114150Y-61800D01*
X112900Y-62300D02*
X112899Y-62309D01*
X112896Y-62319D01*
X112891Y-62327D01*
X112885Y-62335D01*
X112877Y-62341D01*
X112869Y-62346D01*
X112860Y-62348D01*
X112850Y-62349D01*
X112841Y-62349D01*
X112832Y-62346D01*
X112823Y-62341D01*
X112816Y-62335D01*
X112809Y-62328D01*
X112805Y-62319D01*
X112802Y-62310D01*
X112801Y-62300D01*
X112801Y-62291D01*
X112804Y-62282D01*
X112808Y-62273D01*
X112815Y-62266D01*
X112822Y-62259D01*
X112830Y-62255D01*
X112840Y-62252D01*
X112849Y-62251D01*
X112858Y-62251D01*
X112868Y-62254D01*
X112876Y-62258D01*
X112884Y-62264D01*
X112890Y-62272D01*
X112895Y-62280D01*
X112898Y-62289D01*
X112899Y-62299D01*
X112900Y-62300D01*
X112650Y-62050D02*
X112649Y-62059D01*
X112646Y-62069D01*
X112641Y-62077D01*
X112635Y-62085D01*
X112627Y-62091D01*
X112619Y-62096D01*
X112610Y-62098D01*
X112600Y-62099D01*
X112591Y-62099D01*
X112582Y-62096D01*
X112573Y-62091D01*
X112566Y-62085D01*
X112559Y-62078D01*
X112555Y-62069D01*
X112552Y-62060D01*
X112551Y-62050D01*
X112551Y-62041D01*
X112554Y-62032D01*
X112558Y-62023D01*
X112565Y-62016D01*
X112572Y-62009D01*
X112580Y-62005D01*
X112590Y-62002D01*
X112599Y-62001D01*
X112608Y-62001D01*
X112618Y-62004D01*
X112626Y-62008D01*
X112634Y-62014D01*
X112640Y-62022D01*
X112645Y-62030D01*
X112648Y-62039D01*
X112649Y-62049D01*
X112650Y-62050D01*
X112400Y-61800D02*
X112399Y-61809D01*
X112396Y-61819D01*
X112391Y-61827D01*
X112385Y-61835D01*
X112377Y-61841D01*
X112369Y-61846D01*
X112360Y-61848D01*
X112350Y-61849D01*
X112341Y-61849D01*
X112332Y-61846D01*
X112323Y-61841D01*
X112316Y-61835D01*
X112309Y-61828D01*
X112305Y-61819D01*
X112302Y-61810D01*
X112301Y-61800D01*
X112301Y-61791D01*
X112304Y-61782D01*
X112308Y-61773D01*
X112315Y-61766D01*
X112322Y-61759D01*
X112330Y-61755D01*
X112340Y-61752D01*
X112349Y-61751D01*
X112358Y-61751D01*
X112368Y-61754D01*
X112376Y-61758D01*
X112384Y-61764D01*
X112390Y-61772D01*
X112395Y-61780D01*
X112398Y-61789D01*
X112399Y-61799D01*
X112400Y-61800D01*
X49900Y-61850D02*
X49899Y-61859D01*
X49896Y-61869D01*
X49891Y-61877D01*
X49885Y-61885D01*
X49877Y-61891D01*
X49869Y-61896D01*
X49860Y-61898D01*
X49850Y-61899D01*
X49841Y-61899D01*
X49832Y-61896D01*
X49823Y-61891D01*
X49816Y-61885D01*
X49809Y-61878D01*
X49805Y-61869D01*
X49802Y-61860D01*
X49801Y-61850D01*
X49801Y-61841D01*
X49804Y-61832D01*
X49808Y-61823D01*
X49815Y-61816D01*
X49822Y-61809D01*
X49830Y-61805D01*
X49840Y-61802D01*
X49849Y-61801D01*
X49858Y-61801D01*
X49868Y-61804D01*
X49876Y-61808D01*
X49884Y-61814D01*
X49890Y-61822D01*
X49895Y-61830D01*
X49898Y-61839D01*
X49899Y-61849D01*
X49900Y-61850D01*
X50150Y-62100D02*
X50149Y-62109D01*
X50146Y-62119D01*
X50141Y-62127D01*
X50135Y-62135D01*
X50127Y-62141D01*
X50119Y-62146D01*
X50110Y-62148D01*
X50100Y-62149D01*
X50091Y-62149D01*
X50082Y-62146D01*
X50073Y-62141D01*
X50066Y-62135D01*
X50059Y-62128D01*
X50055Y-62119D01*
X50052Y-62110D01*
X50051Y-62100D01*
X50051Y-62091D01*
X50054Y-62082D01*
X50058Y-62073D01*
X50065Y-62066D01*
X50072Y-62059D01*
X50080Y-62055D01*
X50090Y-62052D01*
X50099Y-62051D01*
X50108Y-62051D01*
X50118Y-62054D01*
X50126Y-62058D01*
X50134Y-62064D01*
X50140Y-62072D01*
X50145Y-62080D01*
X50148Y-62089D01*
X50149Y-62099D01*
X50150Y-62100D01*
X50400Y-62350D02*
X50399Y-62359D01*
X50396Y-62369D01*
X50391Y-62377D01*
X50385Y-62385D01*
X50377Y-62391D01*
X50369Y-62396D01*
X50360Y-62398D01*
X50350Y-62399D01*
X50341Y-62399D01*
X50332Y-62396D01*
X50323Y-62391D01*
X50316Y-62385D01*
X50309Y-62378D01*
X50305Y-62369D01*
X50302Y-62360D01*
X50301Y-62350D01*
X50301Y-62341D01*
X50304Y-62332D01*
X50308Y-62323D01*
X50315Y-62316D01*
X50322Y-62309D01*
X50330Y-62305D01*
X50340Y-62302D01*
X50349Y-62301D01*
X50358Y-62301D01*
X50368Y-62304D01*
X50376Y-62308D01*
X50384Y-62314D01*
X50390Y-62322D01*
X50395Y-62330D01*
X50398Y-62339D01*
X50399Y-62349D01*
X50400Y-62350D01*
X51650Y-61850D02*
X51649Y-61859D01*
X51646Y-61869D01*
X51641Y-61877D01*
X51635Y-61885D01*
X51627Y-61891D01*
X51619Y-61896D01*
X51610Y-61898D01*
X51600Y-61899D01*
X51591Y-61899D01*
X51582Y-61896D01*
X51573Y-61891D01*
X51566Y-61885D01*
X51559Y-61878D01*
X51555Y-61869D01*
X51552Y-61860D01*
X51551Y-61850D01*
X51551Y-61841D01*
X51554Y-61832D01*
X51558Y-61823D01*
X51565Y-61816D01*
X51572Y-61809D01*
X51580Y-61805D01*
X51590Y-61802D01*
X51599Y-61801D01*
X51608Y-61801D01*
X51618Y-61804D01*
X51626Y-61808D01*
X51634Y-61814D01*
X51640Y-61822D01*
X51645Y-61830D01*
X51648Y-61839D01*
X51649Y-61849D01*
X51650Y-61850D01*
X51400Y-62100D02*
X51399Y-62109D01*
X51396Y-62119D01*
X51391Y-62127D01*
X51385Y-62135D01*
X51377Y-62141D01*
X51369Y-62146D01*
X51360Y-62148D01*
X51350Y-62149D01*
X51341Y-62149D01*
X51332Y-62146D01*
X51323Y-62141D01*
X51316Y-62135D01*
X51309Y-62128D01*
X51305Y-62119D01*
X51302Y-62110D01*
X51301Y-62100D01*
X51301Y-62091D01*
X51304Y-62082D01*
X51308Y-62073D01*
X51315Y-62066D01*
X51322Y-62059D01*
X51330Y-62055D01*
X51340Y-62052D01*
X51349Y-62051D01*
X51358Y-62051D01*
X51368Y-62054D01*
X51376Y-62058D01*
X51384Y-62064D01*
X51390Y-62072D01*
X51395Y-62080D01*
X51398Y-62089D01*
X51399Y-62099D01*
X51400Y-62100D01*
X51150Y-62350D02*
X51149Y-62359D01*
X51146Y-62369D01*
X51141Y-62377D01*
X51135Y-62385D01*
X51127Y-62391D01*
X51119Y-62396D01*
X51110Y-62398D01*
X51100Y-62399D01*
X51091Y-62399D01*
X51082Y-62396D01*
X51073Y-62391D01*
X51066Y-62385D01*
X51059Y-62378D01*
X51055Y-62369D01*
X51052Y-62360D01*
X51051Y-62350D01*
X51051Y-62341D01*
X51054Y-62332D01*
X51058Y-62323D01*
X51065Y-62316D01*
X51072Y-62309D01*
X51080Y-62305D01*
X51090Y-62302D01*
X51099Y-62301D01*
X51108Y-62301D01*
X51118Y-62304D01*
X51126Y-62308D01*
X51134Y-62314D01*
X51140Y-62322D01*
X51145Y-62330D01*
X51148Y-62339D01*
X51149Y-62349D01*
X51150Y-62350D01*
X50900Y-62350D02*
X50899Y-62359D01*
X50896Y-62369D01*
X50891Y-62377D01*
X50885Y-62385D01*
X50877Y-62391D01*
X50869Y-62396D01*
X50860Y-62398D01*
X50850Y-62399D01*
X50841Y-62399D01*
X50832Y-62396D01*
X50823Y-62391D01*
X50816Y-62385D01*
X50809Y-62378D01*
X50805Y-62369D01*
X50802Y-62360D01*
X50801Y-62350D01*
X50801Y-62341D01*
X50804Y-62332D01*
X50808Y-62323D01*
X50815Y-62316D01*
X50822Y-62309D01*
X50830Y-62305D01*
X50840Y-62302D01*
X50849Y-62301D01*
X50858Y-62301D01*
X50868Y-62304D01*
X50876Y-62308D01*
X50884Y-62314D01*
X50890Y-62322D01*
X50895Y-62330D01*
X50898Y-62339D01*
X50899Y-62349D01*
X50900Y-62350D01*
X50650Y-62350D02*
X50649Y-62359D01*
X50646Y-62369D01*
X50641Y-62377D01*
X50635Y-62385D01*
X50627Y-62391D01*
X50619Y-62396D01*
X50610Y-62398D01*
X50600Y-62399D01*
X50591Y-62399D01*
X50582Y-62396D01*
X50573Y-62391D01*
X50566Y-62385D01*
X50559Y-62378D01*
X50555Y-62369D01*
X50552Y-62360D01*
X50551Y-62350D01*
X50551Y-62341D01*
X50554Y-62332D01*
X50558Y-62323D01*
X50565Y-62316D01*
X50572Y-62309D01*
X50580Y-62305D01*
X50590Y-62302D01*
X50599Y-62301D01*
X50608Y-62301D01*
X50618Y-62304D01*
X50626Y-62308D01*
X50634Y-62314D01*
X50640Y-62322D01*
X50645Y-62330D01*
X50648Y-62339D01*
X50649Y-62349D01*
X50650Y-62350D01*
X50900Y-61850D02*
X50899Y-61859D01*
X50896Y-61869D01*
X50891Y-61877D01*
X50885Y-61885D01*
X50877Y-61891D01*
X50869Y-61896D01*
X50860Y-61898D01*
X50850Y-61899D01*
X50841Y-61899D01*
X50832Y-61896D01*
X50823Y-61891D01*
X50816Y-61885D01*
X50809Y-61878D01*
X50805Y-61869D01*
X50802Y-61860D01*
X50801Y-61850D01*
X50801Y-61841D01*
X50804Y-61832D01*
X50808Y-61823D01*
X50815Y-61816D01*
X50822Y-61809D01*
X50830Y-61805D01*
X50840Y-61802D01*
X50849Y-61801D01*
X50858Y-61801D01*
X50868Y-61804D01*
X50876Y-61808D01*
X50884Y-61814D01*
X50890Y-61822D01*
X50895Y-61830D01*
X50898Y-61839D01*
X50899Y-61849D01*
X50900Y-61850D01*
X50650Y-61850D02*
X50649Y-61859D01*
X50646Y-61869D01*
X50641Y-61877D01*
X50635Y-61885D01*
X50627Y-61891D01*
X50619Y-61896D01*
X50610Y-61898D01*
X50600Y-61899D01*
X50591Y-61899D01*
X50582Y-61896D01*
X50573Y-61891D01*
X50566Y-61885D01*
X50559Y-61878D01*
X50555Y-61869D01*
X50552Y-61860D01*
X50551Y-61850D01*
X50551Y-61841D01*
X50554Y-61832D01*
X50558Y-61823D01*
X50565Y-61816D01*
X50572Y-61809D01*
X50580Y-61805D01*
X50590Y-61802D01*
X50599Y-61801D01*
X50608Y-61801D01*
X50618Y-61804D01*
X50626Y-61808D01*
X50634Y-61814D01*
X50640Y-61822D01*
X50645Y-61830D01*
X50648Y-61839D01*
X50649Y-61849D01*
X50650Y-61850D01*
X50900Y-61600D02*
X50899Y-61609D01*
X50896Y-61619D01*
X50891Y-61627D01*
X50885Y-61635D01*
X50877Y-61641D01*
X50869Y-61646D01*
X50860Y-61648D01*
X50850Y-61649D01*
X50841Y-61649D01*
X50832Y-61646D01*
X50823Y-61641D01*
X50816Y-61635D01*
X50809Y-61628D01*
X50805Y-61619D01*
X50802Y-61610D01*
X50801Y-61600D01*
X50801Y-61591D01*
X50804Y-61582D01*
X50808Y-61573D01*
X50815Y-61566D01*
X50822Y-61559D01*
X50830Y-61555D01*
X50840Y-61552D01*
X50849Y-61551D01*
X50858Y-61551D01*
X50868Y-61554D01*
X50876Y-61558D01*
X50884Y-61564D01*
X50890Y-61572D01*
X50895Y-61580D01*
X50898Y-61589D01*
X50899Y-61599D01*
X50900Y-61600D01*
X50650Y-61600D02*
X50649Y-61609D01*
X50646Y-61619D01*
X50641Y-61627D01*
X50635Y-61635D01*
X50627Y-61641D01*
X50619Y-61646D01*
X50610Y-61648D01*
X50600Y-61649D01*
X50591Y-61649D01*
X50582Y-61646D01*
X50573Y-61641D01*
X50566Y-61635D01*
X50559Y-61628D01*
X50555Y-61619D01*
X50552Y-61610D01*
X50551Y-61600D01*
X50551Y-61591D01*
X50554Y-61582D01*
X50558Y-61573D01*
X50565Y-61566D01*
X50572Y-61559D01*
X50580Y-61555D01*
X50590Y-61552D01*
X50599Y-61551D01*
X50608Y-61551D01*
X50618Y-61554D01*
X50626Y-61558D01*
X50634Y-61564D01*
X50640Y-61572D01*
X50645Y-61580D01*
X50648Y-61589D01*
X50649Y-61599D01*
X50650Y-61600D01*
X50400Y-60850D02*
X50399Y-60859D01*
X50396Y-60869D01*
X50391Y-60877D01*
X50385Y-60885D01*
X50377Y-60891D01*
X50369Y-60896D01*
X50360Y-60898D01*
X50350Y-60899D01*
X50341Y-60899D01*
X50332Y-60896D01*
X50323Y-60891D01*
X50316Y-60885D01*
X50309Y-60878D01*
X50305Y-60869D01*
X50302Y-60860D01*
X50301Y-60850D01*
X50301Y-60841D01*
X50304Y-60832D01*
X50308Y-60823D01*
X50315Y-60816D01*
X50322Y-60809D01*
X50330Y-60805D01*
X50340Y-60802D01*
X50349Y-60801D01*
X50358Y-60801D01*
X50368Y-60804D01*
X50376Y-60808D01*
X50384Y-60814D01*
X50390Y-60822D01*
X50395Y-60830D01*
X50398Y-60839D01*
X50399Y-60849D01*
X50400Y-60850D01*
X50150Y-60850D02*
X50149Y-60859D01*
X50146Y-60869D01*
X50141Y-60877D01*
X50135Y-60885D01*
X50127Y-60891D01*
X50119Y-60896D01*
X50110Y-60898D01*
X50100Y-60899D01*
X50091Y-60899D01*
X50082Y-60896D01*
X50073Y-60891D01*
X50066Y-60885D01*
X50059Y-60878D01*
X50055Y-60869D01*
X50052Y-60860D01*
X50051Y-60850D01*
X50051Y-60841D01*
X50054Y-60832D01*
X50058Y-60823D01*
X50065Y-60816D01*
X50072Y-60809D01*
X50080Y-60805D01*
X50090Y-60802D01*
X50099Y-60801D01*
X50108Y-60801D01*
X50118Y-60804D01*
X50126Y-60808D01*
X50134Y-60814D01*
X50140Y-60822D01*
X50145Y-60830D01*
X50148Y-60839D01*
X50149Y-60849D01*
X50150Y-60850D01*
X50150Y-61100D02*
X50149Y-61109D01*
X50146Y-61119D01*
X50141Y-61127D01*
X50135Y-61135D01*
X50127Y-61141D01*
X50119Y-61146D01*
X50110Y-61148D01*
X50100Y-61149D01*
X50091Y-61149D01*
X50082Y-61146D01*
X50073Y-61141D01*
X50066Y-61135D01*
X50059Y-61128D01*
X50055Y-61119D01*
X50052Y-61110D01*
X50051Y-61100D01*
X50051Y-61091D01*
X50054Y-61082D01*
X50058Y-61073D01*
X50065Y-61066D01*
X50072Y-61059D01*
X50080Y-61055D01*
X50090Y-61052D01*
X50099Y-61051D01*
X50108Y-61051D01*
X50118Y-61054D01*
X50126Y-61058D01*
X50134Y-61064D01*
X50140Y-61072D01*
X50145Y-61080D01*
X50148Y-61089D01*
X50149Y-61099D01*
X50150Y-61100D01*
X50400Y-61100D02*
X50399Y-61109D01*
X50396Y-61119D01*
X50391Y-61127D01*
X50385Y-61135D01*
X50377Y-61141D01*
X50369Y-61146D01*
X50360Y-61148D01*
X50350Y-61149D01*
X50341Y-61149D01*
X50332Y-61146D01*
X50323Y-61141D01*
X50316Y-61135D01*
X50309Y-61128D01*
X50305Y-61119D01*
X50302Y-61110D01*
X50301Y-61100D01*
X50301Y-61091D01*
X50304Y-61082D01*
X50308Y-61073D01*
X50315Y-61066D01*
X50322Y-61059D01*
X50330Y-61055D01*
X50340Y-61052D01*
X50349Y-61051D01*
X50358Y-61051D01*
X50368Y-61054D01*
X50376Y-61058D01*
X50384Y-61064D01*
X50390Y-61072D01*
X50395Y-61080D01*
X50398Y-61089D01*
X50399Y-61099D01*
X50400Y-61100D01*
X51400Y-61100D02*
X51399Y-61109D01*
X51396Y-61119D01*
X51391Y-61127D01*
X51385Y-61135D01*
X51377Y-61141D01*
X51369Y-61146D01*
X51360Y-61148D01*
X51350Y-61149D01*
X51341Y-61149D01*
X51332Y-61146D01*
X51323Y-61141D01*
X51316Y-61135D01*
X51309Y-61128D01*
X51305Y-61119D01*
X51302Y-61110D01*
X51301Y-61100D01*
X51301Y-61091D01*
X51304Y-61082D01*
X51308Y-61073D01*
X51315Y-61066D01*
X51322Y-61059D01*
X51330Y-61055D01*
X51340Y-61052D01*
X51349Y-61051D01*
X51358Y-61051D01*
X51368Y-61054D01*
X51376Y-61058D01*
X51384Y-61064D01*
X51390Y-61072D01*
X51395Y-61080D01*
X51398Y-61089D01*
X51399Y-61099D01*
X51400Y-61100D01*
X51150Y-61100D02*
X51149Y-61109D01*
X51146Y-61119D01*
X51141Y-61127D01*
X51135Y-61135D01*
X51127Y-61141D01*
X51119Y-61146D01*
X51110Y-61148D01*
X51100Y-61149D01*
X51091Y-61149D01*
X51082Y-61146D01*
X51073Y-61141D01*
X51066Y-61135D01*
X51059Y-61128D01*
X51055Y-61119D01*
X51052Y-61110D01*
X51051Y-61100D01*
X51051Y-61091D01*
X51054Y-61082D01*
X51058Y-61073D01*
X51065Y-61066D01*
X51072Y-61059D01*
X51080Y-61055D01*
X51090Y-61052D01*
X51099Y-61051D01*
X51108Y-61051D01*
X51118Y-61054D01*
X51126Y-61058D01*
X51134Y-61064D01*
X51140Y-61072D01*
X51145Y-61080D01*
X51148Y-61089D01*
X51149Y-61099D01*
X51150Y-61100D01*
X51400Y-60850D02*
X51399Y-60859D01*
X51396Y-60869D01*
X51391Y-60877D01*
X51385Y-60885D01*
X51377Y-60891D01*
X51369Y-60896D01*
X51360Y-60898D01*
X51350Y-60899D01*
X51341Y-60899D01*
X51332Y-60896D01*
X51323Y-60891D01*
X51316Y-60885D01*
X51309Y-60878D01*
X51305Y-60869D01*
X51302Y-60860D01*
X51301Y-60850D01*
X51301Y-60841D01*
X51304Y-60832D01*
X51308Y-60823D01*
X51315Y-60816D01*
X51322Y-60809D01*
X51330Y-60805D01*
X51340Y-60802D01*
X51349Y-60801D01*
X51358Y-60801D01*
X51368Y-60804D01*
X51376Y-60808D01*
X51384Y-60814D01*
X51390Y-60822D01*
X51395Y-60830D01*
X51398Y-60839D01*
X51399Y-60849D01*
X51400Y-60850D01*
X51150Y-60850D02*
X51149Y-60859D01*
X51146Y-60869D01*
X51141Y-60877D01*
X51135Y-60885D01*
X51127Y-60891D01*
X51119Y-60896D01*
X51110Y-60898D01*
X51100Y-60899D01*
X51091Y-60899D01*
X51082Y-60896D01*
X51073Y-60891D01*
X51066Y-60885D01*
X51059Y-60878D01*
X51055Y-60869D01*
X51052Y-60860D01*
X51051Y-60850D01*
X51051Y-60841D01*
X51054Y-60832D01*
X51058Y-60823D01*
X51065Y-60816D01*
X51072Y-60809D01*
X51080Y-60805D01*
X51090Y-60802D01*
X51099Y-60801D01*
X51108Y-60801D01*
X51118Y-60804D01*
X51126Y-60808D01*
X51134Y-60814D01*
X51140Y-60822D01*
X51145Y-60830D01*
X51148Y-60839D01*
X51149Y-60849D01*
X51150Y-60850D01*
G54D13*
X130050Y-56550D02*
X128550Y-56550D01*
X128550Y-56600D02*
X130050Y-56600D01*
X128550Y-56700D02*
X128550Y-56450D01*
X128550Y-56450D02*
X130050Y-56450D01*
X130050Y-56450D02*
X130050Y-56700D01*
X130050Y-56700D02*
X128550Y-56700D01*
X128550Y-56950D02*
X130050Y-56950D01*
X129300Y-56200D02*
X129300Y-56450D01*
X129300Y-57200D02*
X129300Y-56950D01*
X131495Y-56700D02*
X131453Y-57126D01*
X131329Y-57536D01*
X131128Y-57914D01*
X130857Y-58246D01*
X130527Y-58519D01*
X130150Y-58723D01*
X129741Y-58850D01*
X129315Y-58894D01*
X128889Y-58856D01*
X128478Y-58735D01*
X128099Y-58536D01*
X127765Y-58268D01*
X127489Y-57940D01*
X127283Y-57564D01*
X127153Y-57156D01*
X127106Y-56730D01*
X127142Y-56304D01*
X127260Y-55892D01*
X127455Y-55511D01*
X127722Y-55176D01*
X128048Y-54898D01*
X128422Y-54689D01*
X128829Y-54557D01*
X129255Y-54506D01*
X129681Y-54539D01*
X130093Y-54654D01*
X130476Y-54847D01*
X130813Y-55111D01*
X131093Y-55435D01*
X131305Y-55808D01*
X131440Y-56214D01*
X131494Y-56639D01*
X131495Y-56700D01*
X35550Y-56550D02*
X34100Y-56550D01*
X34050Y-56600D02*
X35550Y-56600D01*
X34800Y-56450D02*
X34800Y-56200D01*
X34050Y-56700D02*
X34050Y-56450D01*
X34050Y-56450D02*
X35550Y-56450D01*
X35550Y-56450D02*
X35550Y-56700D01*
X35550Y-56700D02*
X34050Y-56700D01*
X34800Y-57200D02*
X34800Y-56950D01*
X34050Y-56950D02*
X35550Y-56950D01*
X36995Y-56700D02*
X36953Y-57126D01*
X36829Y-57536D01*
X36628Y-57914D01*
X36357Y-58246D01*
X36027Y-58519D01*
X35650Y-58723D01*
X35241Y-58850D01*
X34815Y-58894D01*
X34389Y-58856D01*
X33978Y-58735D01*
X33599Y-58536D01*
X33265Y-58268D01*
X32989Y-57940D01*
X32783Y-57564D01*
X32653Y-57156D01*
X32606Y-56730D01*
X32642Y-56304D01*
X32760Y-55892D01*
X32955Y-55511D01*
X33222Y-55176D01*
X33548Y-54898D01*
X33922Y-54689D01*
X34329Y-54557D01*
X34755Y-54506D01*
X35181Y-54539D01*
X35593Y-54654D01*
X35976Y-54847D01*
X36313Y-55111D01*
X36593Y-55435D01*
X36805Y-55808D01*
X36940Y-56214D01*
X36994Y-56639D01*
X36995Y-56700D01*
X30500Y-52450D02*
X29250Y-52450D01*
X29250Y-52450D02*
X29250Y-53700D01*
X29600Y-52800D02*
X31400Y-52800D01*
X31400Y-52800D02*
X31400Y-60600D01*
X31400Y-60600D02*
X29600Y-60600D01*
X29600Y-60600D02*
X29600Y-52800D01*
X133600Y-52450D02*
X132350Y-52450D01*
X132350Y-52450D02*
X132350Y-53700D01*
X132700Y-52800D02*
X134500Y-52800D01*
X134500Y-52800D02*
X134500Y-60600D01*
X134500Y-60600D02*
X132700Y-60600D01*
X132700Y-60600D02*
X132700Y-52800D01*
X57500Y-59500D02*
X57500Y-60250D01*
X57500Y-58750D02*
X57500Y-57750D01*
X58000Y-58750D02*
X57000Y-58750D01*
X58000Y-59500D02*
X57500Y-58750D01*
X57500Y-58750D02*
X57000Y-59500D01*
X57000Y-59500D02*
X58000Y-59500D01*
X59000Y-60500D02*
X56000Y-60500D01*
X56000Y-60500D02*
X56000Y-58000D01*
X56000Y-58000D02*
X56500Y-57500D01*
X56500Y-57500D02*
X59000Y-57500D01*
X59000Y-57500D02*
X59000Y-60500D01*
X57500Y-55000D02*
X57500Y-55750D01*
X57500Y-54250D02*
X57500Y-53250D01*
X58000Y-54250D02*
X57000Y-54250D01*
X58000Y-55000D02*
X57500Y-54250D01*
X57500Y-54250D02*
X57000Y-55000D01*
X57000Y-55000D02*
X58000Y-55000D01*
X59000Y-56000D02*
X56000Y-56000D01*
X56000Y-56000D02*
X56000Y-53500D01*
X56000Y-53500D02*
X56500Y-53000D01*
X56500Y-53000D02*
X59000Y-53000D01*
X59000Y-53000D02*
X59000Y-56000D01*
X39500Y-55000D02*
X39500Y-55750D01*
X39500Y-54250D02*
X39500Y-53250D01*
X40000Y-54250D02*
X39000Y-54250D01*
X40000Y-55000D02*
X39500Y-54250D01*
X39500Y-54250D02*
X39000Y-55000D01*
X39000Y-55000D02*
X40000Y-55000D01*
X41000Y-56000D02*
X38000Y-56000D01*
X38000Y-56000D02*
X38000Y-53500D01*
X38000Y-53500D02*
X38500Y-53000D01*
X38500Y-53000D02*
X41000Y-53000D01*
X41000Y-53000D02*
X41000Y-56000D01*
X39500Y-59500D02*
X39500Y-60250D01*
X39500Y-58750D02*
X39500Y-57750D01*
X40000Y-58750D02*
X39000Y-58750D01*
X40000Y-59500D02*
X39500Y-58750D01*
X39500Y-58750D02*
X39000Y-59500D01*
X39000Y-59500D02*
X40000Y-59500D01*
X41000Y-60500D02*
X38000Y-60500D01*
X38000Y-60500D02*
X38000Y-58000D01*
X38000Y-58000D02*
X38500Y-57500D01*
X38500Y-57500D02*
X41000Y-57500D01*
X41000Y-57500D02*
X41000Y-60500D01*
X44000Y-54000D02*
X44000Y-53250D01*
X44000Y-54750D02*
X44000Y-55750D01*
X43500Y-54750D02*
X44500Y-54750D01*
X43500Y-54000D02*
X44000Y-54750D01*
X44000Y-54750D02*
X44500Y-54000D01*
X44500Y-54000D02*
X43500Y-54000D01*
X42500Y-53000D02*
X45500Y-53000D01*
X45500Y-53000D02*
X45500Y-55500D01*
X45500Y-55500D02*
X45000Y-56000D01*
X45000Y-56000D02*
X42500Y-56000D01*
X42500Y-56000D02*
X42500Y-53000D01*
X44000Y-58500D02*
X44000Y-57750D01*
X44000Y-59250D02*
X44000Y-60250D01*
X43500Y-59250D02*
X44500Y-59250D01*
X43500Y-58500D02*
X44000Y-59250D01*
X44000Y-59250D02*
X44500Y-58500D01*
X44500Y-58500D02*
X43500Y-58500D01*
X42500Y-57500D02*
X45500Y-57500D01*
X45500Y-57500D02*
X45500Y-60000D01*
X45500Y-60000D02*
X45000Y-60500D01*
X45000Y-60500D02*
X42500Y-60500D01*
X42500Y-60500D02*
X42500Y-57500D01*
G54D12*
X83900Y-54200D02*
X83900Y-55500D01*
X83900Y-54200D02*
X82600Y-54200D01*
G54D11*
X80600Y-54500D02*
X83600Y-54500D01*
X83600Y-56500D02*
X80600Y-56500D01*
X80600Y-56500D02*
X80600Y-54500D01*
X83600Y-54500D02*
X83600Y-56500D01*
G54D12*
X88560Y-52425D02*
X88560Y-53275D01*
X86525Y-54025D02*
X88225Y-54025D01*
X86200Y-52425D02*
X86200Y-53275D01*
X86525Y-51675D02*
X88225Y-51675D01*
X88050Y-52875D02*
X88037Y-53001D01*
X88000Y-53122D01*
X87941Y-53234D01*
X87861Y-53333D01*
X87763Y-53413D01*
X87651Y-53474D01*
X87530Y-53511D01*
X87404Y-53524D01*
X87279Y-53513D01*
X87157Y-53477D01*
X87045Y-53418D01*
X86946Y-53339D01*
X86864Y-53242D01*
X86803Y-53131D01*
X86765Y-53010D01*
X86751Y-52884D01*
X86761Y-52758D01*
X86796Y-52636D01*
X86854Y-52523D01*
X86933Y-52424D01*
X87030Y-52342D01*
X87140Y-52280D01*
X87261Y-52241D01*
X87387Y-52226D01*
X87512Y-52235D01*
X87635Y-52269D01*
X87748Y-52327D01*
X87848Y-52405D01*
X87931Y-52501D01*
X87993Y-52611D01*
X88033Y-52731D01*
X88049Y-52857D01*
X88050Y-52875D01*
X83160Y-52425D02*
X83160Y-53275D01*
X81125Y-54025D02*
X82825Y-54025D01*
X80800Y-52425D02*
X80800Y-53275D01*
X81125Y-51675D02*
X82825Y-51675D01*
X82650Y-52875D02*
X82637Y-53001D01*
X82600Y-53122D01*
X82541Y-53234D01*
X82461Y-53333D01*
X82363Y-53413D01*
X82251Y-53474D01*
X82130Y-53511D01*
X82004Y-53524D01*
X81879Y-53513D01*
X81757Y-53477D01*
X81645Y-53418D01*
X81546Y-53339D01*
X81464Y-53242D01*
X81403Y-53131D01*
X81365Y-53010D01*
X81351Y-52884D01*
X81361Y-52758D01*
X81396Y-52636D01*
X81454Y-52523D01*
X81533Y-52424D01*
X81630Y-52342D01*
X81740Y-52280D01*
X81861Y-52241D01*
X81987Y-52226D01*
X82112Y-52235D01*
X82235Y-52269D01*
X82348Y-52327D01*
X82448Y-52405D01*
X82531Y-52501D01*
X82593Y-52611D01*
X82633Y-52731D01*
X82649Y-52857D01*
X82650Y-52875D01*
X77760Y-52425D02*
X77760Y-53275D01*
X75725Y-54025D02*
X77425Y-54025D01*
X75400Y-52425D02*
X75400Y-53275D01*
X75725Y-51675D02*
X77425Y-51675D01*
X77250Y-52875D02*
X77237Y-53001D01*
X77200Y-53122D01*
X77141Y-53234D01*
X77061Y-53333D01*
X76963Y-53413D01*
X76851Y-53474D01*
X76730Y-53511D01*
X76604Y-53524D01*
X76479Y-53513D01*
X76357Y-53477D01*
X76245Y-53418D01*
X76146Y-53339D01*
X76064Y-53242D01*
X76003Y-53131D01*
X75965Y-53010D01*
X75951Y-52884D01*
X75961Y-52758D01*
X75996Y-52636D01*
X76054Y-52523D01*
X76133Y-52424D01*
X76230Y-52342D01*
X76340Y-52280D01*
X76461Y-52241D01*
X76587Y-52226D01*
X76712Y-52235D01*
X76835Y-52269D01*
X76948Y-52327D01*
X77048Y-52405D01*
X77131Y-52501D01*
X77193Y-52611D01*
X77233Y-52731D01*
X77249Y-52857D01*
X77250Y-52875D01*
G54D13*
X80300Y-52800D02*
X80280Y-52994D01*
X80224Y-53181D01*
X80132Y-53353D01*
X80009Y-53504D01*
X79859Y-53629D01*
X79687Y-53721D01*
X79501Y-53779D01*
X79306Y-53799D01*
X79113Y-53782D01*
X78926Y-53727D01*
X78753Y-53636D01*
X78601Y-53514D01*
X78475Y-53364D01*
X78381Y-53193D01*
X78322Y-53007D01*
X78301Y-52813D01*
X78317Y-52620D01*
X78371Y-52432D01*
X78460Y-52259D01*
X78581Y-52106D01*
X78730Y-51979D01*
X78900Y-51884D01*
X79086Y-51824D01*
X79280Y-51801D01*
X79473Y-51816D01*
X79661Y-51868D01*
X79835Y-51956D01*
X79989Y-52076D01*
X80117Y-52224D01*
X80213Y-52394D01*
X80275Y-52579D01*
X80299Y-52773D01*
X80300Y-52800D01*
X78300Y-53050D02*
X78550Y-53050D01*
X78550Y-53050D02*
X78550Y-52550D01*
X78550Y-52550D02*
X78300Y-52550D01*
G54D14*
X82571Y-57985D02*
X82866Y-57985D01*
X82866Y-57985D02*
X82866Y-57415D01*
X82571Y-57415D02*
X82866Y-57415D01*
X82571Y-57985D02*
X82571Y-57415D01*
X83140Y-57985D02*
X83435Y-57985D01*
X83435Y-57985D02*
X83435Y-57415D01*
X83140Y-57415D02*
X83435Y-57415D01*
X83140Y-57985D02*
X83140Y-57415D01*
X82961Y-57857D02*
X83039Y-57857D01*
X83039Y-57857D02*
X83039Y-57543D01*
X82961Y-57543D02*
X83039Y-57543D01*
X82961Y-57857D02*
X82961Y-57543D01*
G54D15*
X82224Y-57313D02*
X83776Y-57313D01*
X83776Y-58087D02*
X82224Y-58087D01*
X82224Y-58087D02*
X82224Y-57313D01*
G54D16*
X82850Y-57441D02*
X83150Y-57441D01*
X82860Y-57959D02*
X83150Y-57959D01*
G54D15*
X83776Y-57313D02*
X83776Y-58087D01*
G54D14*
X84585Y-52829D02*
X84585Y-52534D01*
X84585Y-52534D02*
X84015Y-52534D01*
X84015Y-52829D02*
X84015Y-52534D01*
X84585Y-52829D02*
X84015Y-52829D01*
X84585Y-52260D02*
X84585Y-51965D01*
X84585Y-51965D02*
X84015Y-51965D01*
X84015Y-52260D02*
X84015Y-51965D01*
X84585Y-52260D02*
X84015Y-52260D01*
X84457Y-52439D02*
X84457Y-52361D01*
X84457Y-52361D02*
X84143Y-52361D01*
X84143Y-52439D02*
X84143Y-52361D01*
X84457Y-52439D02*
X84143Y-52439D01*
G54D15*
X83913Y-53176D02*
X83913Y-51624D01*
X84687Y-51624D02*
X84687Y-53176D01*
X84687Y-53176D02*
X83913Y-53176D01*
G54D16*
X84041Y-52550D02*
X84041Y-52250D01*
X84559Y-52540D02*
X84559Y-52250D01*
G54D15*
X83913Y-51624D02*
X84687Y-51624D01*
G54D14*
X90335Y-56370D02*
X90335Y-56074D01*
X90335Y-56074D02*
X89666Y-56074D01*
X89666Y-56370D02*
X89666Y-56074D01*
X90335Y-56370D02*
X89666Y-56370D01*
X90334Y-55326D02*
X90334Y-55030D01*
X90334Y-55030D02*
X89665Y-55030D01*
X89665Y-55326D02*
X89665Y-55030D01*
X90334Y-55326D02*
X89665Y-55326D01*
X90157Y-55778D02*
X90157Y-55622D01*
X90157Y-55622D02*
X89843Y-55622D01*
X89843Y-55778D02*
X89843Y-55622D01*
X90157Y-55778D02*
X89843Y-55778D01*
G54D15*
X89613Y-56673D02*
X89613Y-54727D01*
X90387Y-54727D02*
X90387Y-56673D01*
X90387Y-56673D02*
X89613Y-56673D01*
X89613Y-54727D02*
X90387Y-54727D01*
G54D16*
X89691Y-56079D02*
X89691Y-55321D01*
X90309Y-56079D02*
X90309Y-55321D01*
G54D14*
X85935Y-56370D02*
X85935Y-56074D01*
X85935Y-56074D02*
X85266Y-56074D01*
X85266Y-56370D02*
X85266Y-56074D01*
X85935Y-56370D02*
X85266Y-56370D01*
X85934Y-55326D02*
X85934Y-55030D01*
X85934Y-55030D02*
X85265Y-55030D01*
X85265Y-55326D02*
X85265Y-55030D01*
X85934Y-55326D02*
X85265Y-55326D01*
X85757Y-55778D02*
X85757Y-55622D01*
X85757Y-55622D02*
X85443Y-55622D01*
X85443Y-55778D02*
X85443Y-55622D01*
X85757Y-55778D02*
X85443Y-55778D01*
G54D15*
X85213Y-56673D02*
X85213Y-54727D01*
X85987Y-54727D02*
X85987Y-56673D01*
X85987Y-56673D02*
X85213Y-56673D01*
X85213Y-54727D02*
X85987Y-54727D01*
G54D16*
X85291Y-56079D02*
X85291Y-55321D01*
X85909Y-56079D02*
X85909Y-55321D01*
G54D14*
X81770Y-57365D02*
X81474Y-57365D01*
X81474Y-57365D02*
X81474Y-58034D01*
X81770Y-58034D02*
X81474Y-58034D01*
X81770Y-57365D02*
X81770Y-58034D01*
X80726Y-57366D02*
X80430Y-57366D01*
X80430Y-57366D02*
X80430Y-58035D01*
X80726Y-58035D02*
X80430Y-58035D01*
X80726Y-57366D02*
X80726Y-58035D01*
X81178Y-57543D02*
X81022Y-57543D01*
X81022Y-57543D02*
X81022Y-57857D01*
X81178Y-57857D02*
X81022Y-57857D01*
X81178Y-57543D02*
X81178Y-57857D01*
G54D15*
X82073Y-58087D02*
X80127Y-58087D01*
X80127Y-57313D02*
X82073Y-57313D01*
X82073Y-57313D02*
X82073Y-58087D01*
X80127Y-58087D02*
X80127Y-57313D01*
G54D16*
X81479Y-58009D02*
X80721Y-58009D01*
X81479Y-57391D02*
X80721Y-57391D01*
G54D14*
X84265Y-55030D02*
X84265Y-55326D01*
X84265Y-55326D02*
X84934Y-55326D01*
X84934Y-55030D02*
X84934Y-55326D01*
X84265Y-55030D02*
X84934Y-55030D01*
X84266Y-56074D02*
X84266Y-56370D01*
X84266Y-56370D02*
X84935Y-56370D01*
X84935Y-56074D02*
X84935Y-56370D01*
X84266Y-56074D02*
X84935Y-56074D01*
X84443Y-55622D02*
X84443Y-55778D01*
X84443Y-55778D02*
X84757Y-55778D01*
X84757Y-55622D02*
X84757Y-55778D01*
X84443Y-55622D02*
X84757Y-55622D01*
G54D15*
X84987Y-54727D02*
X84987Y-56673D01*
X84213Y-56673D02*
X84213Y-54727D01*
X84213Y-54727D02*
X84987Y-54727D01*
X84987Y-56673D02*
X84213Y-56673D01*
G54D16*
X84909Y-55321D02*
X84909Y-56079D01*
X84291Y-55321D02*
X84291Y-56079D01*
G54D13*
X90100Y-60600D02*
X85600Y-60600D01*
X85600Y-60600D02*
X84600Y-59600D01*
X84600Y-59600D02*
X84600Y-58600D01*
X84600Y-58600D02*
X85600Y-57600D01*
X85600Y-57600D02*
X90100Y-57600D01*
X90100Y-57600D02*
X90100Y-60600D01*
X86800Y-60600D02*
X86350Y-60600D01*
X86450Y-57600D02*
X86800Y-57600D01*
X88100Y-59300D02*
X85150Y-59300D01*
X88100Y-58900D02*
X85150Y-58900D01*
X88120Y-59100D02*
X88091Y-59395D01*
X88005Y-59679D01*
X87866Y-59941D01*
X87678Y-60171D01*
X87449Y-60360D01*
X87189Y-60501D01*
X86905Y-60588D01*
X86610Y-60619D01*
X86316Y-60593D01*
X86031Y-60509D01*
X85768Y-60371D01*
X85537Y-60185D01*
X85346Y-59958D01*
X85203Y-59698D01*
X85114Y-59416D01*
X85081Y-59121D01*
X85105Y-58826D01*
X85187Y-58541D01*
X85323Y-58277D01*
X85507Y-58045D01*
X85733Y-57852D01*
X85992Y-57708D01*
X86274Y-57616D01*
X86569Y-57581D01*
X86863Y-57604D01*
X87149Y-57683D01*
X87414Y-57817D01*
X87648Y-58000D01*
X87842Y-58224D01*
X87988Y-58482D01*
X88082Y-58764D01*
X88119Y-59058D01*
X88120Y-59100D01*
G54D12*
X81650Y-59000D02*
X82000Y-59000D01*
X81650Y-59000D02*
X82000Y-58850D01*
X82000Y-58850D02*
X82000Y-59150D01*
X82000Y-59150D02*
X81650Y-59000D01*
X80780Y-58754D02*
X80780Y-58947D01*
X80780Y-58947D02*
X81213Y-58947D01*
X81213Y-58754D02*
X81213Y-58947D01*
X80780Y-58754D02*
X81213Y-58754D01*
X80780Y-59254D02*
X80780Y-59447D01*
X80780Y-59447D02*
X81213Y-59447D01*
X81213Y-59254D02*
X81213Y-59447D01*
X80780Y-59254D02*
X81213Y-59254D01*
X80780Y-59754D02*
X80780Y-59947D01*
X80780Y-59947D02*
X81213Y-59947D01*
X81213Y-59754D02*
X81213Y-59947D01*
X80780Y-59754D02*
X81213Y-59754D01*
X80780Y-60254D02*
X80780Y-60447D01*
X80780Y-60447D02*
X81213Y-60447D01*
X81213Y-60254D02*
X81213Y-60447D01*
X80780Y-60254D02*
X81213Y-60254D01*
X82787Y-61253D02*
X82787Y-61446D01*
X82787Y-61446D02*
X83220Y-61446D01*
X83220Y-61253D02*
X83220Y-61446D01*
X82787Y-61253D02*
X83220Y-61253D01*
X82787Y-60753D02*
X82787Y-60946D01*
X82787Y-60946D02*
X83220Y-60946D01*
X83220Y-60753D02*
X83220Y-60946D01*
X82787Y-60753D02*
X83220Y-60753D01*
X82787Y-60254D02*
X82787Y-60447D01*
X82787Y-60447D02*
X83220Y-60447D01*
X83220Y-60254D02*
X83220Y-60447D01*
X82787Y-60254D02*
X83220Y-60254D01*
X82787Y-59754D02*
X82787Y-59947D01*
X82787Y-59947D02*
X83220Y-59947D01*
X83220Y-59754D02*
X83220Y-59947D01*
X82787Y-59754D02*
X83220Y-59754D01*
X80780Y-60753D02*
X80780Y-60946D01*
X80780Y-60946D02*
X81213Y-60946D01*
X81213Y-60753D02*
X81213Y-60946D01*
X80780Y-60753D02*
X81213Y-60753D01*
X80780Y-61253D02*
X80780Y-61446D01*
X80780Y-61446D02*
X81213Y-61446D01*
X81213Y-61253D02*
X81213Y-61446D01*
X80780Y-61253D02*
X81213Y-61253D01*
X80780Y-61753D02*
X80780Y-61946D01*
X80780Y-61946D02*
X81213Y-61946D01*
X81213Y-61753D02*
X81213Y-61946D01*
X80780Y-61753D02*
X81213Y-61753D01*
X80780Y-62253D02*
X80780Y-62446D01*
X80780Y-62446D02*
X81213Y-62446D01*
X81213Y-62253D02*
X81213Y-62446D01*
X80780Y-62253D02*
X81213Y-62253D01*
X82787Y-62253D02*
X82787Y-62446D01*
X82787Y-62446D02*
X83220Y-62446D01*
X83220Y-62253D02*
X83220Y-62446D01*
X82787Y-62253D02*
X83220Y-62253D01*
X82787Y-61753D02*
X82787Y-61946D01*
X82787Y-61946D02*
X83220Y-61946D01*
X83220Y-61753D02*
X83220Y-61946D01*
X82787Y-61753D02*
X83220Y-61753D01*
X82787Y-59254D02*
X82787Y-59447D01*
X82787Y-59447D02*
X83220Y-59447D01*
X83220Y-59254D02*
X83220Y-59447D01*
X82787Y-59254D02*
X83220Y-59254D01*
X82787Y-58754D02*
X82787Y-58947D01*
X82787Y-58947D02*
X83220Y-58947D01*
X83220Y-58754D02*
X83220Y-58947D01*
X82787Y-58754D02*
X83220Y-58754D01*
X83535Y-58476D02*
X83535Y-62724D01*
X80465Y-62724D02*
X80465Y-58476D01*
X80465Y-58476D02*
X83535Y-58476D01*
X81252Y-62544D02*
X81252Y-58656D01*
X81252Y-58656D02*
X81449Y-58656D01*
X81449Y-58656D02*
X82748Y-58656D01*
X82748Y-58656D02*
X82748Y-62544D01*
X81449Y-62544D02*
X81449Y-58656D01*
X82748Y-62544D02*
X81449Y-62544D01*
X81449Y-62544D02*
X81252Y-62544D01*
X83535Y-62724D02*
X80465Y-62724D01*
X37400Y-52000D02*
X37382Y-52174D01*
X37332Y-52342D01*
X37249Y-52498D01*
X37138Y-52634D01*
X37003Y-52746D01*
X36848Y-52829D01*
X36680Y-52881D01*
X36506Y-52899D01*
X36332Y-52884D01*
X36163Y-52834D01*
X36008Y-52753D01*
X35871Y-52643D01*
X35758Y-52508D01*
X35673Y-52354D01*
X35620Y-52187D01*
X35601Y-52012D01*
X35615Y-51838D01*
X35664Y-51669D01*
X35744Y-51513D01*
X35853Y-51375D01*
X35987Y-51261D01*
X36140Y-51176D01*
X36307Y-51121D01*
X36482Y-51101D01*
X36656Y-51114D01*
X36825Y-51161D01*
X36982Y-51241D01*
X37120Y-51349D01*
X37235Y-51482D01*
X37322Y-51634D01*
X37377Y-51801D01*
X37399Y-51975D01*
X37400Y-52000D01*
G54D14*
X89020Y-56546D02*
X89020Y-56353D01*
X89020Y-56353D02*
X88587Y-56353D01*
X88587Y-56546D02*
X88587Y-56353D01*
X89020Y-56546D02*
X88587Y-56546D01*
X89020Y-56046D02*
X89020Y-55853D01*
X89020Y-55853D02*
X88587Y-55853D01*
X88587Y-56046D02*
X88587Y-55853D01*
X89020Y-56046D02*
X88587Y-56046D01*
X89020Y-55547D02*
X89020Y-55354D01*
X89020Y-55354D02*
X88587Y-55354D01*
X88587Y-55547D02*
X88587Y-55354D01*
X89020Y-55547D02*
X88587Y-55547D01*
X89020Y-55047D02*
X89020Y-54854D01*
X89020Y-54854D02*
X88587Y-54854D01*
X88587Y-55047D02*
X88587Y-54854D01*
X89020Y-55047D02*
X88587Y-55047D01*
X87013Y-55047D02*
X87013Y-54854D01*
X87013Y-54854D02*
X86580Y-54854D01*
X86580Y-55047D02*
X86580Y-54854D01*
X87013Y-55047D02*
X86580Y-55047D01*
X87013Y-55547D02*
X87013Y-55354D01*
X87013Y-55354D02*
X86580Y-55354D01*
X86580Y-55547D02*
X86580Y-55354D01*
X87013Y-55547D02*
X86580Y-55547D01*
X87013Y-56046D02*
X87013Y-55853D01*
X87013Y-55853D02*
X86580Y-55853D01*
X86580Y-56046D02*
X86580Y-55853D01*
X87013Y-56046D02*
X86580Y-56046D01*
X87013Y-56546D02*
X87013Y-56353D01*
X87013Y-56353D02*
X86580Y-56353D01*
X86580Y-56546D02*
X86580Y-56353D01*
X87013Y-56546D02*
X86580Y-56546D01*
X88193Y-56093D02*
X88193Y-55307D01*
X88193Y-55307D02*
X87407Y-55307D01*
X87407Y-56093D02*
X87407Y-55307D01*
X88193Y-56093D02*
X87407Y-56093D01*
G54D17*
X86265Y-56841D02*
X86265Y-54559D01*
X86265Y-54559D02*
X89335Y-54559D01*
X89335Y-54559D02*
X89335Y-56841D01*
X89335Y-56841D02*
X86265Y-56841D01*
G54D11*
X87052Y-54756D02*
X88351Y-54756D01*
X88351Y-54756D02*
X88548Y-54756D01*
X88548Y-54756D02*
X88548Y-56644D01*
X88548Y-56644D02*
X88351Y-56644D01*
X88351Y-56644D02*
X87052Y-56644D01*
X87052Y-56644D02*
X87052Y-54756D01*
X88351Y-54756D02*
X88351Y-56644D01*
G54D12*
X128400Y-61500D02*
X128382Y-61674D01*
X128332Y-61842D01*
X128249Y-61998D01*
X128138Y-62134D01*
X128003Y-62246D01*
X127848Y-62329D01*
X127680Y-62381D01*
X127506Y-62399D01*
X127332Y-62384D01*
X127163Y-62334D01*
X127008Y-62253D01*
X126871Y-62143D01*
X126758Y-62008D01*
X126673Y-61854D01*
X126620Y-61687D01*
X126601Y-61512D01*
X126615Y-61338D01*
X126664Y-61169D01*
X126744Y-61013D01*
X126853Y-60875D01*
X126987Y-60761D01*
X127140Y-60676D01*
X127307Y-60621D01*
X127482Y-60601D01*
X127656Y-60614D01*
X127825Y-60661D01*
X127982Y-60741D01*
X128120Y-60849D01*
X128235Y-60982D01*
X128322Y-61134D01*
X128377Y-61301D01*
X128399Y-61475D01*
X128400Y-61500D01*
X128400Y-52000D02*
X128382Y-52174D01*
X128332Y-52342D01*
X128249Y-52498D01*
X128138Y-52634D01*
X128003Y-52746D01*
X127848Y-52829D01*
X127680Y-52881D01*
X127506Y-52899D01*
X127332Y-52884D01*
X127163Y-52834D01*
X127008Y-52753D01*
X126871Y-52643D01*
X126758Y-52508D01*
X126673Y-52354D01*
X126620Y-52187D01*
X126601Y-52012D01*
X126615Y-51838D01*
X126664Y-51669D01*
X126744Y-51513D01*
X126853Y-51375D01*
X126987Y-51261D01*
X127140Y-51176D01*
X127307Y-51121D01*
X127482Y-51101D01*
X127656Y-51114D01*
X127825Y-51161D01*
X127982Y-51241D01*
X128120Y-51349D01*
X128235Y-51482D01*
X128322Y-51634D01*
X128377Y-51801D01*
X128399Y-51975D01*
X128400Y-52000D01*
X96100Y-61500D02*
X96082Y-61674D01*
X96032Y-61842D01*
X95949Y-61998D01*
X95838Y-62134D01*
X95703Y-62246D01*
X95548Y-62329D01*
X95380Y-62381D01*
X95206Y-62399D01*
X95032Y-62384D01*
X94863Y-62334D01*
X94708Y-62253D01*
X94571Y-62143D01*
X94458Y-62008D01*
X94373Y-61854D01*
X94320Y-61687D01*
X94301Y-61512D01*
X94315Y-61338D01*
X94364Y-61169D01*
X94444Y-61013D01*
X94553Y-60875D01*
X94687Y-60761D01*
X94840Y-60676D01*
X95007Y-60621D01*
X95182Y-60601D01*
X95356Y-60614D01*
X95525Y-60661D01*
X95682Y-60741D01*
X95820Y-60849D01*
X95935Y-60982D01*
X96022Y-61134D01*
X96077Y-61301D01*
X96099Y-61475D01*
X96100Y-61500D01*
X96100Y-52000D02*
X96082Y-52174D01*
X96032Y-52342D01*
X95949Y-52498D01*
X95838Y-52634D01*
X95703Y-52746D01*
X95548Y-52829D01*
X95380Y-52881D01*
X95206Y-52899D01*
X95032Y-52884D01*
X94863Y-52834D01*
X94708Y-52753D01*
X94571Y-52643D01*
X94458Y-52508D01*
X94373Y-52354D01*
X94320Y-52187D01*
X94301Y-52012D01*
X94315Y-51838D01*
X94364Y-51669D01*
X94444Y-51513D01*
X94553Y-51375D01*
X94687Y-51261D01*
X94840Y-51176D01*
X95007Y-51121D01*
X95182Y-51101D01*
X95356Y-51114D01*
X95525Y-51161D01*
X95682Y-51241D01*
X95820Y-51349D01*
X95935Y-51482D01*
X96022Y-51634D01*
X96077Y-51801D01*
X96099Y-51975D01*
X96100Y-52000D01*
X69700Y-61500D02*
X69682Y-61674D01*
X69632Y-61842D01*
X69549Y-61998D01*
X69438Y-62134D01*
X69303Y-62246D01*
X69148Y-62329D01*
X68980Y-62381D01*
X68806Y-62399D01*
X68632Y-62384D01*
X68463Y-62334D01*
X68308Y-62253D01*
X68171Y-62143D01*
X68058Y-62008D01*
X67973Y-61854D01*
X67920Y-61687D01*
X67901Y-61512D01*
X67915Y-61338D01*
X67964Y-61169D01*
X68044Y-61013D01*
X68153Y-60875D01*
X68287Y-60761D01*
X68440Y-60676D01*
X68607Y-60621D01*
X68782Y-60601D01*
X68956Y-60614D01*
X69125Y-60661D01*
X69282Y-60741D01*
X69420Y-60849D01*
X69535Y-60982D01*
X69622Y-61134D01*
X69677Y-61301D01*
X69699Y-61475D01*
X69700Y-61500D01*
X69700Y-52000D02*
X69682Y-52174D01*
X69632Y-52342D01*
X69549Y-52498D01*
X69438Y-52634D01*
X69303Y-52746D01*
X69148Y-52829D01*
X68980Y-52881D01*
X68806Y-52899D01*
X68632Y-52884D01*
X68463Y-52834D01*
X68308Y-52753D01*
X68171Y-52643D01*
X68058Y-52508D01*
X67973Y-52354D01*
X67920Y-52187D01*
X67901Y-52012D01*
X67915Y-51838D01*
X67964Y-51669D01*
X68044Y-51513D01*
X68153Y-51375D01*
X68287Y-51261D01*
X68440Y-51176D01*
X68607Y-51121D01*
X68782Y-51101D01*
X68956Y-51114D01*
X69125Y-51161D01*
X69282Y-51241D01*
X69420Y-51349D01*
X69535Y-51482D01*
X69622Y-51634D01*
X69677Y-51801D01*
X69699Y-51975D01*
X69700Y-52000D01*
X37400Y-61500D02*
X37382Y-61674D01*
X37332Y-61842D01*
X37249Y-61998D01*
X37138Y-62134D01*
X37003Y-62246D01*
X36848Y-62329D01*
X36680Y-62381D01*
X36506Y-62399D01*
X36332Y-62384D01*
X36163Y-62334D01*
X36008Y-62253D01*
X35871Y-62143D01*
X35758Y-62008D01*
X35673Y-61854D01*
X35620Y-61687D01*
X35601Y-61512D01*
X35615Y-61338D01*
X35664Y-61169D01*
X35744Y-61013D01*
X35853Y-60875D01*
X35987Y-60761D01*
X36140Y-60676D01*
X36307Y-60621D01*
X36482Y-60601D01*
X36656Y-60614D01*
X36825Y-60661D01*
X36982Y-60741D01*
X37120Y-60849D01*
X37235Y-60982D01*
X37322Y-61134D01*
X37377Y-61301D01*
X37399Y-61475D01*
X37400Y-61500D01*
G54D14*
X74506Y-55254D02*
X74506Y-55447D01*
X74506Y-55447D02*
X75104Y-55447D01*
X75104Y-55254D02*
X75104Y-55447D01*
X74506Y-55254D02*
X75104Y-55254D01*
X74506Y-55754D02*
X74506Y-55947D01*
X74506Y-55947D02*
X75104Y-55947D01*
X75104Y-55754D02*
X75104Y-55947D01*
X74506Y-55754D02*
X75104Y-55754D01*
X74506Y-56254D02*
X74506Y-56447D01*
X74506Y-56447D02*
X75104Y-56447D01*
X75104Y-56254D02*
X75104Y-56447D01*
X74506Y-56254D02*
X75104Y-56254D01*
X74506Y-56754D02*
X74506Y-56947D01*
X74506Y-56947D02*
X75104Y-56947D01*
X75104Y-56754D02*
X75104Y-56947D01*
X74506Y-56754D02*
X75104Y-56754D01*
X74506Y-57254D02*
X74506Y-57447D01*
X74506Y-57447D02*
X75104Y-57447D01*
X75104Y-57254D02*
X75104Y-57447D01*
X74506Y-57254D02*
X75104Y-57254D01*
X74506Y-57753D02*
X74506Y-57946D01*
X74506Y-57946D02*
X75104Y-57946D01*
X75104Y-57753D02*
X75104Y-57946D01*
X74506Y-57753D02*
X75104Y-57753D01*
X74506Y-58253D02*
X74506Y-58446D01*
X74506Y-58446D02*
X75104Y-58446D01*
X75104Y-58253D02*
X75104Y-58446D01*
X74506Y-58253D02*
X75104Y-58253D01*
X74506Y-58753D02*
X74506Y-58946D01*
X74506Y-58946D02*
X75104Y-58946D01*
X75104Y-58753D02*
X75104Y-58946D01*
X74506Y-58753D02*
X75104Y-58753D01*
X74506Y-59253D02*
X74506Y-59446D01*
X74506Y-59446D02*
X75104Y-59446D01*
X75104Y-59253D02*
X75104Y-59446D01*
X74506Y-59253D02*
X75104Y-59253D01*
X74506Y-59753D02*
X74506Y-59946D01*
X74506Y-59946D02*
X75104Y-59946D01*
X75104Y-59753D02*
X75104Y-59946D01*
X74506Y-59753D02*
X75104Y-59753D01*
X78096Y-59753D02*
X78096Y-59946D01*
X78096Y-59946D02*
X78694Y-59946D01*
X78694Y-59753D02*
X78694Y-59946D01*
X78096Y-59753D02*
X78694Y-59753D01*
X78096Y-59253D02*
X78096Y-59446D01*
X78096Y-59446D02*
X78694Y-59446D01*
X78694Y-59253D02*
X78694Y-59446D01*
X78096Y-59253D02*
X78694Y-59253D01*
X78096Y-58753D02*
X78096Y-58946D01*
X78096Y-58946D02*
X78694Y-58946D01*
X78694Y-58753D02*
X78694Y-58946D01*
X78096Y-58753D02*
X78694Y-58753D01*
X78096Y-58253D02*
X78096Y-58446D01*
X78096Y-58446D02*
X78694Y-58446D01*
X78694Y-58253D02*
X78694Y-58446D01*
X78096Y-58253D02*
X78694Y-58253D01*
X78096Y-57753D02*
X78096Y-57946D01*
X78096Y-57946D02*
X78694Y-57946D01*
X78694Y-57753D02*
X78694Y-57946D01*
X78096Y-57753D02*
X78694Y-57753D01*
X78096Y-57254D02*
X78096Y-57447D01*
X78096Y-57447D02*
X78694Y-57447D01*
X78694Y-57254D02*
X78694Y-57447D01*
X78096Y-57254D02*
X78694Y-57254D01*
X78096Y-56754D02*
X78096Y-56947D01*
X78096Y-56947D02*
X78694Y-56947D01*
X78694Y-56754D02*
X78694Y-56947D01*
X78096Y-56754D02*
X78694Y-56754D01*
X78096Y-56254D02*
X78096Y-56447D01*
X78096Y-56447D02*
X78694Y-56447D01*
X78694Y-56254D02*
X78694Y-56447D01*
X78096Y-56254D02*
X78694Y-56254D01*
X78096Y-55754D02*
X78096Y-55947D01*
X78096Y-55947D02*
X78694Y-55947D01*
X78694Y-55754D02*
X78694Y-55947D01*
X78096Y-55754D02*
X78694Y-55754D01*
X78096Y-55254D02*
X78096Y-55447D01*
X78096Y-55447D02*
X78694Y-55447D01*
X78694Y-55254D02*
X78694Y-55447D01*
X78096Y-55254D02*
X78694Y-55254D01*
G54D17*
X78922Y-54886D02*
X78922Y-60314D01*
X74278Y-60314D02*
X74278Y-54886D01*
X74278Y-54886D02*
X78922Y-54886D01*
G54D11*
X75144Y-60143D02*
X75144Y-55057D01*
X75144Y-55057D02*
X78056Y-55057D01*
X78056Y-55057D02*
X78056Y-60143D01*
X75341Y-60143D02*
X75341Y-55057D01*
X78056Y-60143D02*
X75144Y-60143D01*
G54D17*
X78922Y-60314D02*
X74278Y-60314D01*
G54D13*
X48500Y-59500D02*
X48500Y-60250D01*
X48500Y-58750D02*
X48500Y-57750D01*
X49000Y-58750D02*
X48000Y-58750D01*
X49000Y-59500D02*
X48500Y-58750D01*
X48500Y-58750D02*
X48000Y-59500D01*
X48000Y-59500D02*
X49000Y-59500D01*
X50000Y-60500D02*
X47000Y-60500D01*
X47000Y-60500D02*
X47000Y-58000D01*
X47000Y-58000D02*
X47500Y-57500D01*
X47500Y-57500D02*
X50000Y-57500D01*
X50000Y-57500D02*
X50000Y-60500D01*
X48500Y-55000D02*
X48500Y-55750D01*
X48500Y-54250D02*
X48500Y-53250D01*
X49000Y-54250D02*
X48000Y-54250D01*
X49000Y-55000D02*
X48500Y-54250D01*
X48500Y-54250D02*
X48000Y-55000D01*
X48000Y-55000D02*
X49000Y-55000D01*
X50000Y-56000D02*
X47000Y-56000D01*
X47000Y-56000D02*
X47000Y-53500D01*
X47000Y-53500D02*
X47500Y-53000D01*
X47500Y-53000D02*
X50000Y-53000D01*
X50000Y-53000D02*
X50000Y-56000D01*
X53000Y-54000D02*
X53000Y-53250D01*
X53000Y-54750D02*
X53000Y-55750D01*
X52500Y-54750D02*
X53500Y-54750D01*
X52500Y-54000D02*
X53000Y-54750D01*
X53000Y-54750D02*
X53500Y-54000D01*
X53500Y-54000D02*
X52500Y-54000D01*
X51500Y-53000D02*
X54500Y-53000D01*
X54500Y-53000D02*
X54500Y-55500D01*
X54500Y-55500D02*
X54000Y-56000D01*
X54000Y-56000D02*
X51500Y-56000D01*
X51500Y-56000D02*
X51500Y-53000D01*
X53000Y-58500D02*
X53000Y-57750D01*
X53000Y-59250D02*
X53000Y-60250D01*
X52500Y-59250D02*
X53500Y-59250D01*
X52500Y-58500D02*
X53000Y-59250D01*
X53000Y-59250D02*
X53500Y-58500D01*
X53500Y-58500D02*
X52500Y-58500D01*
X51500Y-57500D02*
X54500Y-57500D01*
X54500Y-57500D02*
X54500Y-60000D01*
X54500Y-60000D02*
X54000Y-60500D01*
X54000Y-60500D02*
X51500Y-60500D01*
X51500Y-60500D02*
X51500Y-57500D01*
X62000Y-54000D02*
X62000Y-53250D01*
X62000Y-54750D02*
X62000Y-55750D01*
X61500Y-54750D02*
X62500Y-54750D01*
X61500Y-54000D02*
X62000Y-54750D01*
X62000Y-54750D02*
X62500Y-54000D01*
X62500Y-54000D02*
X61500Y-54000D01*
X60500Y-53000D02*
X63500Y-53000D01*
X63500Y-53000D02*
X63500Y-55500D01*
X63500Y-55500D02*
X63000Y-56000D01*
X63000Y-56000D02*
X60500Y-56000D01*
X60500Y-56000D02*
X60500Y-53000D01*
X62000Y-58500D02*
X62000Y-57750D01*
X62000Y-59250D02*
X62000Y-60250D01*
X61500Y-59250D02*
X62500Y-59250D01*
X61500Y-58500D02*
X62000Y-59250D01*
X62000Y-59250D02*
X62500Y-58500D01*
X62500Y-58500D02*
X61500Y-58500D01*
X60500Y-57500D02*
X63500Y-57500D01*
X63500Y-57500D02*
X63500Y-60000D01*
X63500Y-60000D02*
X63000Y-60500D01*
X63000Y-60500D02*
X60500Y-60500D01*
X60500Y-60500D02*
X60500Y-57500D01*
X66500Y-59500D02*
X66500Y-60250D01*
X66500Y-58750D02*
X66500Y-57750D01*
X67000Y-58750D02*
X66000Y-58750D01*
X67000Y-59500D02*
X66500Y-58750D01*
X66500Y-58750D02*
X66000Y-59500D01*
X66000Y-59500D02*
X67000Y-59500D01*
X68000Y-60500D02*
X65000Y-60500D01*
X65000Y-60500D02*
X65000Y-58000D01*
X65000Y-58000D02*
X65500Y-57500D01*
X65500Y-57500D02*
X68000Y-57500D01*
X68000Y-57500D02*
X68000Y-60500D01*
X66500Y-55000D02*
X66500Y-55750D01*
X66500Y-54250D02*
X66500Y-53250D01*
X67000Y-54250D02*
X66000Y-54250D01*
X67000Y-55000D02*
X66500Y-54250D01*
X66500Y-54250D02*
X66000Y-55000D01*
X66000Y-55000D02*
X67000Y-55000D01*
X68000Y-56000D02*
X65000Y-56000D01*
X65000Y-56000D02*
X65000Y-53500D01*
X65000Y-53500D02*
X65500Y-53000D01*
X65500Y-53000D02*
X68000Y-53000D01*
X68000Y-53000D02*
X68000Y-56000D01*
X71000Y-54000D02*
X71000Y-53250D01*
X71000Y-54750D02*
X71000Y-55750D01*
X70500Y-54750D02*
X71500Y-54750D01*
X70500Y-54000D02*
X71000Y-54750D01*
X71000Y-54750D02*
X71500Y-54000D01*
X71500Y-54000D02*
X70500Y-54000D01*
X69500Y-53000D02*
X72500Y-53000D01*
X72500Y-53000D02*
X72500Y-55500D01*
X72500Y-55500D02*
X72000Y-56000D01*
X72000Y-56000D02*
X69500Y-56000D01*
X69500Y-56000D02*
X69500Y-53000D01*
X71000Y-58500D02*
X71000Y-57750D01*
X71000Y-59250D02*
X71000Y-60250D01*
X70500Y-59250D02*
X71500Y-59250D01*
X70500Y-58500D02*
X71000Y-59250D01*
X71000Y-59250D02*
X71500Y-58500D01*
X71500Y-58500D02*
X70500Y-58500D01*
X69500Y-57500D02*
X72500Y-57500D01*
X72500Y-57500D02*
X72500Y-60000D01*
X72500Y-60000D02*
X72000Y-60500D01*
X72000Y-60500D02*
X69500Y-60500D01*
X69500Y-60500D02*
X69500Y-57500D01*
X93000Y-59500D02*
X93000Y-60250D01*
X93000Y-58750D02*
X93000Y-57750D01*
X93500Y-58750D02*
X92500Y-58750D01*
X93500Y-59500D02*
X93000Y-58750D01*
X93000Y-58750D02*
X92500Y-59500D01*
X92500Y-59500D02*
X93500Y-59500D01*
X94500Y-60500D02*
X91500Y-60500D01*
X91500Y-60500D02*
X91500Y-58000D01*
X91500Y-58000D02*
X92000Y-57500D01*
X92000Y-57500D02*
X94500Y-57500D01*
X94500Y-57500D02*
X94500Y-60500D01*
X93000Y-55000D02*
X93000Y-55750D01*
X93000Y-54250D02*
X93000Y-53250D01*
X93500Y-54250D02*
X92500Y-54250D01*
X93500Y-55000D02*
X93000Y-54250D01*
X93000Y-54250D02*
X92500Y-55000D01*
X92500Y-55000D02*
X93500Y-55000D01*
X94500Y-56000D02*
X91500Y-56000D01*
X91500Y-56000D02*
X91500Y-53500D01*
X91500Y-53500D02*
X92000Y-53000D01*
X92000Y-53000D02*
X94500Y-53000D01*
X94500Y-53000D02*
X94500Y-56000D01*
X97500Y-54000D02*
X97500Y-53250D01*
X97500Y-54750D02*
X97500Y-55750D01*
X97000Y-54750D02*
X98000Y-54750D01*
X97000Y-54000D02*
X97500Y-54750D01*
X97500Y-54750D02*
X98000Y-54000D01*
X98000Y-54000D02*
X97000Y-54000D01*
X96000Y-53000D02*
X99000Y-53000D01*
X99000Y-53000D02*
X99000Y-55500D01*
X99000Y-55500D02*
X98500Y-56000D01*
X98500Y-56000D02*
X96000Y-56000D01*
X96000Y-56000D02*
X96000Y-53000D01*
X97500Y-58500D02*
X97500Y-57750D01*
X97500Y-59250D02*
X97500Y-60250D01*
X97000Y-59250D02*
X98000Y-59250D01*
X97000Y-58500D02*
X97500Y-59250D01*
X97500Y-59250D02*
X98000Y-58500D01*
X98000Y-58500D02*
X97000Y-58500D01*
X96000Y-57500D02*
X99000Y-57500D01*
X99000Y-57500D02*
X99000Y-60000D01*
X99000Y-60000D02*
X98500Y-60500D01*
X98500Y-60500D02*
X96000Y-60500D01*
X96000Y-60500D02*
X96000Y-57500D01*
X101900Y-59500D02*
X101900Y-60250D01*
X101900Y-58750D02*
X101900Y-57750D01*
X102400Y-58750D02*
X101400Y-58750D01*
X102400Y-59500D02*
X101900Y-58750D01*
X101900Y-58750D02*
X101400Y-59500D01*
X101400Y-59500D02*
X102400Y-59500D01*
X103400Y-60500D02*
X100400Y-60500D01*
X100400Y-60500D02*
X100400Y-58000D01*
X100400Y-58000D02*
X100900Y-57500D01*
X100900Y-57500D02*
X103400Y-57500D01*
X103400Y-57500D02*
X103400Y-60500D01*
X101900Y-55000D02*
X101900Y-55750D01*
X101900Y-54250D02*
X101900Y-53250D01*
X102400Y-54250D02*
X101400Y-54250D01*
X102400Y-55000D02*
X101900Y-54250D01*
X101900Y-54250D02*
X101400Y-55000D01*
X101400Y-55000D02*
X102400Y-55000D01*
X103400Y-56000D02*
X100400Y-56000D01*
X100400Y-56000D02*
X100400Y-53500D01*
X100400Y-53500D02*
X100900Y-53000D01*
X100900Y-53000D02*
X103400Y-53000D01*
X103400Y-53000D02*
X103400Y-56000D01*
X106500Y-54000D02*
X106500Y-53250D01*
X106500Y-54750D02*
X106500Y-55750D01*
X106000Y-54750D02*
X107000Y-54750D01*
X106000Y-54000D02*
X106500Y-54750D01*
X106500Y-54750D02*
X107000Y-54000D01*
X107000Y-54000D02*
X106000Y-54000D01*
X105000Y-53000D02*
X108000Y-53000D01*
X108000Y-53000D02*
X108000Y-55500D01*
X108000Y-55500D02*
X107500Y-56000D01*
X107500Y-56000D02*
X105000Y-56000D01*
X105000Y-56000D02*
X105000Y-53000D01*
X106500Y-58500D02*
X106500Y-57750D01*
X106500Y-59250D02*
X106500Y-60250D01*
X106000Y-59250D02*
X107000Y-59250D01*
X106000Y-58500D02*
X106500Y-59250D01*
X106500Y-59250D02*
X107000Y-58500D01*
X107000Y-58500D02*
X106000Y-58500D01*
X105000Y-57500D02*
X108000Y-57500D01*
X108000Y-57500D02*
X108000Y-60000D01*
X108000Y-60000D02*
X107500Y-60500D01*
X107500Y-60500D02*
X105000Y-60500D01*
X105000Y-60500D02*
X105000Y-57500D01*
X111000Y-59500D02*
X111000Y-60250D01*
X111000Y-58750D02*
X111000Y-57750D01*
X111500Y-58750D02*
X110500Y-58750D01*
X111500Y-59500D02*
X111000Y-58750D01*
X111000Y-58750D02*
X110500Y-59500D01*
X110500Y-59500D02*
X111500Y-59500D01*
X112500Y-60500D02*
X109500Y-60500D01*
X109500Y-60500D02*
X109500Y-58000D01*
X109500Y-58000D02*
X110000Y-57500D01*
X110000Y-57500D02*
X112500Y-57500D01*
X112500Y-57500D02*
X112500Y-60500D01*
X111000Y-55000D02*
X111000Y-55750D01*
X111000Y-54250D02*
X111000Y-53250D01*
X111500Y-54250D02*
X110500Y-54250D01*
X111500Y-55000D02*
X111000Y-54250D01*
X111000Y-54250D02*
X110500Y-55000D01*
X110500Y-55000D02*
X111500Y-55000D01*
X112500Y-56000D02*
X109500Y-56000D01*
X109500Y-56000D02*
X109500Y-53500D01*
X109500Y-53500D02*
X110000Y-53000D01*
X110000Y-53000D02*
X112500Y-53000D01*
X112500Y-53000D02*
X112500Y-56000D01*
X115600Y-54000D02*
X115600Y-53250D01*
X115600Y-54750D02*
X115600Y-55750D01*
X115100Y-54750D02*
X116100Y-54750D01*
X115100Y-54000D02*
X115600Y-54750D01*
X115600Y-54750D02*
X116100Y-54000D01*
X116100Y-54000D02*
X115100Y-54000D01*
X114100Y-53000D02*
X117100Y-53000D01*
X117100Y-53000D02*
X117100Y-55500D01*
X117100Y-55500D02*
X116600Y-56000D01*
X116600Y-56000D02*
X114100Y-56000D01*
X114100Y-56000D02*
X114100Y-53000D01*
X115600Y-58500D02*
X115600Y-57750D01*
X115600Y-59250D02*
X115600Y-60250D01*
X115100Y-59250D02*
X116100Y-59250D01*
X115100Y-58500D02*
X115600Y-59250D01*
X115600Y-59250D02*
X116100Y-58500D01*
X116100Y-58500D02*
X115100Y-58500D01*
X114100Y-57500D02*
X117100Y-57500D01*
X117100Y-57500D02*
X117100Y-60000D01*
X117100Y-60000D02*
X116600Y-60500D01*
X116600Y-60500D02*
X114100Y-60500D01*
X114100Y-60500D02*
X114100Y-57500D01*
X120000Y-59500D02*
X120000Y-60250D01*
X120000Y-58750D02*
X120000Y-57750D01*
X120500Y-58750D02*
X119500Y-58750D01*
X120500Y-59500D02*
X120000Y-58750D01*
X120000Y-58750D02*
X119500Y-59500D01*
X119500Y-59500D02*
X120500Y-59500D01*
X121500Y-60500D02*
X118500Y-60500D01*
X118500Y-60500D02*
X118500Y-58000D01*
X118500Y-58000D02*
X119000Y-57500D01*
X119000Y-57500D02*
X121500Y-57500D01*
X121500Y-57500D02*
X121500Y-60500D01*
X120000Y-55000D02*
X120000Y-55750D01*
X120000Y-54250D02*
X120000Y-53250D01*
X120500Y-54250D02*
X119500Y-54250D01*
X120500Y-55000D02*
X120000Y-54250D01*
X120000Y-54250D02*
X119500Y-55000D01*
X119500Y-55000D02*
X120500Y-55000D01*
X121500Y-56000D02*
X118500Y-56000D01*
X118500Y-56000D02*
X118500Y-53500D01*
X118500Y-53500D02*
X119000Y-53000D01*
X119000Y-53000D02*
X121500Y-53000D01*
X121500Y-53000D02*
X121500Y-56000D01*
X124500Y-54000D02*
X124500Y-53250D01*
X124500Y-54750D02*
X124500Y-55750D01*
X124000Y-54750D02*
X125000Y-54750D01*
X124000Y-54000D02*
X124500Y-54750D01*
X124500Y-54750D02*
X125000Y-54000D01*
X125000Y-54000D02*
X124000Y-54000D01*
X123000Y-53000D02*
X126000Y-53000D01*
X126000Y-53000D02*
X126000Y-55500D01*
X126000Y-55500D02*
X125500Y-56000D01*
X125500Y-56000D02*
X123000Y-56000D01*
X123000Y-56000D02*
X123000Y-53000D01*
X124500Y-58500D02*
X124500Y-57750D01*
X124500Y-59250D02*
X124500Y-60250D01*
X124000Y-59250D02*
X125000Y-59250D01*
X124000Y-58500D02*
X124500Y-59250D01*
X124500Y-59250D02*
X125000Y-58500D01*
X125000Y-58500D02*
X124000Y-58500D01*
X123000Y-57500D02*
X126000Y-57500D01*
X126000Y-57500D02*
X126000Y-60000D01*
X126000Y-60000D02*
X125500Y-60500D01*
X125500Y-60500D02*
X123000Y-60500D01*
X123000Y-60500D02*
X123000Y-57500D01*
X134100Y-61700D02*
X133800Y-61700D01*
X133800Y-61700D02*
X133800Y-61300D01*
X133800Y-61300D02*
X131400Y-61300D01*
X131400Y-61300D02*
X131400Y-61700D01*
X131400Y-61700D02*
X131100Y-61700D01*
X131400Y-61700D02*
X131400Y-62100D01*
X131400Y-62100D02*
X133800Y-62100D01*
X133800Y-62100D02*
X133800Y-61700D01*
X133600Y-61300D02*
X133600Y-62100D01*
X133500Y-62100D02*
X133500Y-61300D01*
X30000Y-61700D02*
X30300Y-61700D01*
X30300Y-61700D02*
X30300Y-62100D01*
X30300Y-62100D02*
X32700Y-62100D01*
X32700Y-62100D02*
X32700Y-61700D01*
X32700Y-61700D02*
X33000Y-61700D01*
X32700Y-61700D02*
X32700Y-61300D01*
X32700Y-61300D02*
X30300Y-61300D01*
X30300Y-61300D02*
X30300Y-61700D01*
X30500Y-62100D02*
X30500Y-61300D01*
X30600Y-61300D02*
X30600Y-62100D01*
G54D18*
X84950Y-52950D02*
X84950Y-52050D01*
X84950Y-52050D02*
X85450Y-52050D01*
X85450Y-52050D02*
X85450Y-52950D01*
X85450Y-52950D02*
X84950Y-52950D01*
X73250Y-55550D02*
X74150Y-55550D01*
X74150Y-55550D02*
X74150Y-56050D01*
X74150Y-56050D02*
X73250Y-56050D01*
X73250Y-56050D02*
X73250Y-55550D01*
X73199Y-57351D02*
X74099Y-57351D01*
X74099Y-57351D02*
X74099Y-57851D01*
X74099Y-57851D02*
X73199Y-57851D01*
X73199Y-57851D02*
X73199Y-57351D01*
X73191Y-58028D02*
X74091Y-58028D01*
X74091Y-58028D02*
X74091Y-58528D01*
X74091Y-58528D02*
X73191Y-58528D01*
X73191Y-58528D02*
X73191Y-58028D01*
X79950Y-60150D02*
X79050Y-60150D01*
X79050Y-60150D02*
X79050Y-59650D01*
X79050Y-59650D02*
X79950Y-59650D01*
X79950Y-59650D02*
X79950Y-60150D01*
X79950Y-59150D02*
X79050Y-59150D01*
X79050Y-59150D02*
X79050Y-58650D01*
X79050Y-58650D02*
X79950Y-58650D01*
X79950Y-58650D02*
X79950Y-59150D01*
X79950Y-58050D02*
X79050Y-58050D01*
X79050Y-58050D02*
X79050Y-57550D01*
X79050Y-57550D02*
X79950Y-57550D01*
X79950Y-57550D02*
X79950Y-58050D01*
X79950Y-57050D02*
X79050Y-57050D01*
X79050Y-57050D02*
X79050Y-56550D01*
X79050Y-56550D02*
X79950Y-56550D01*
X79950Y-56550D02*
X79950Y-57050D01*
X79950Y-56050D02*
X79050Y-56050D01*
X79050Y-56050D02*
X79050Y-55550D01*
X79050Y-55550D02*
X79950Y-55550D01*
X79950Y-55550D02*
X79950Y-56050D01*
X78850Y-54050D02*
X79750Y-54050D01*
X79750Y-54050D02*
X79750Y-54550D01*
X79750Y-54550D02*
X78850Y-54550D01*
X78850Y-54550D02*
X78850Y-54050D01*
G54D19*
X132600Y-52100D02*
X132600Y-51100D01*
X132600Y-51100D02*
X134600Y-51100D01*
X134600Y-51100D02*
X134600Y-52100D01*
X134600Y-52100D02*
X132600Y-52100D01*
G54D18*
X32150Y-54250D02*
X32150Y-53350D01*
X32150Y-53350D02*
X32650Y-53350D01*
X32650Y-53350D02*
X32650Y-54250D01*
X32650Y-54250D02*
X32150Y-54250D01*
X32950Y-54250D02*
X32950Y-53350D01*
X32950Y-53350D02*
X33450Y-53350D01*
X33450Y-53350D02*
X33450Y-54250D01*
X33450Y-54250D02*
X32950Y-54250D01*
X78350Y-51350D02*
X77450Y-51350D01*
X77450Y-51350D02*
X77450Y-50850D01*
X77450Y-50850D02*
X78350Y-50850D01*
X78350Y-50850D02*
X78350Y-51350D01*
X83750Y-51350D02*
X82850Y-51350D01*
X82850Y-51350D02*
X82850Y-50850D01*
X82850Y-50850D02*
X83750Y-50850D01*
X83750Y-50850D02*
X83750Y-51350D01*
X89150Y-51350D02*
X88250Y-51350D01*
X88250Y-51350D02*
X88250Y-50850D01*
X88250Y-50850D02*
X89150Y-50850D01*
X89150Y-50850D02*
X89150Y-51350D01*
G54D14*
X32518Y-51304D02*
X32646Y-51304D01*
X32646Y-51304D02*
X32646Y-51107D01*
X32518Y-51107D02*
X32646Y-51107D01*
X32518Y-51304D02*
X32518Y-51107D01*
X32273Y-51304D02*
X32332Y-51304D01*
X32332Y-51304D02*
X32332Y-51205D01*
X32273Y-51205D02*
X32332Y-51205D01*
X32273Y-51304D02*
X32273Y-51205D01*
X32468Y-51304D02*
X32527Y-51304D01*
X32527Y-51304D02*
X32527Y-51205D01*
X32468Y-51205D02*
X32527Y-51205D01*
X32468Y-51304D02*
X32468Y-51205D01*
X32322Y-51304D02*
X32478Y-51304D01*
X32478Y-51304D02*
X32478Y-51235D01*
X32322Y-51235D02*
X32478Y-51235D01*
X32322Y-51304D02*
X32322Y-51235D01*
X32518Y-51893D02*
X32646Y-51893D01*
X32646Y-51893D02*
X32646Y-51696D01*
X32518Y-51696D02*
X32646Y-51696D01*
X32518Y-51893D02*
X32518Y-51696D01*
X32154Y-51893D02*
X32282Y-51893D01*
X32282Y-51893D02*
X32282Y-51696D01*
X32154Y-51696D02*
X32282Y-51696D01*
X32154Y-51893D02*
X32154Y-51696D01*
X32468Y-51795D02*
X32527Y-51795D01*
X32527Y-51795D02*
X32527Y-51696D01*
X32468Y-51696D02*
X32527Y-51696D01*
X32468Y-51795D02*
X32468Y-51696D01*
X32273Y-51795D02*
X32332Y-51795D01*
X32332Y-51795D02*
X32332Y-51696D01*
X32273Y-51696D02*
X32332Y-51696D01*
X32273Y-51795D02*
X32273Y-51696D01*
X32322Y-51765D02*
X32478Y-51765D01*
X32478Y-51765D02*
X32478Y-51696D01*
X32322Y-51696D02*
X32478Y-51696D01*
X32322Y-51765D02*
X32322Y-51696D01*
X32361Y-51500D02*
X32439Y-51500D01*
X32439Y-51500D02*
X32439Y-51422D01*
X32361Y-51422D02*
X32439Y-51422D01*
X32361Y-51500D02*
X32361Y-51422D01*
X32164Y-51304D02*
X32282Y-51304D01*
X32282Y-51304D02*
X32282Y-51186D01*
X32164Y-51186D02*
X32282Y-51186D01*
X32164Y-51304D02*
X32164Y-51186D01*
X32154Y-51136D02*
X32243Y-51136D01*
X32243Y-51136D02*
X32243Y-51107D01*
X32154Y-51107D02*
X32243Y-51107D01*
X32154Y-51136D02*
X32154Y-51107D01*
G54D16*
X32626Y-51294D02*
X32626Y-51706D01*
X32174Y-51696D02*
X32174Y-51136D01*
G54D15*
X32251Y-51166D02*
X32250Y-51171D01*
X32248Y-51176D01*
X32246Y-51181D01*
X32242Y-51185D01*
X32238Y-51189D01*
X32233Y-51191D01*
X32228Y-51193D01*
X32223Y-51193D01*
X32218Y-51193D01*
X32213Y-51191D01*
X32208Y-51189D01*
X32204Y-51186D01*
X32200Y-51181D01*
X32198Y-51177D01*
X32196Y-51171D01*
X32196Y-51166D01*
X32196Y-51161D01*
X32197Y-51156D01*
X32200Y-51151D01*
X32203Y-51147D01*
X32208Y-51144D01*
X32212Y-51141D01*
X32217Y-51139D01*
X32223Y-51139D01*
X32227Y-51139D01*
X32233Y-51140D01*
X32238Y-51143D01*
X32242Y-51146D01*
X32245Y-51150D01*
X32248Y-51155D01*
X32250Y-51160D01*
X32250Y-51166D01*
X32251Y-51166D01*
G54D16*
X32263Y-51107D02*
X32264Y-51118D01*
X32266Y-51130D01*
X32268Y-51142D01*
X32272Y-51153D01*
X32276Y-51164D01*
X32282Y-51175D01*
X32288Y-51185D01*
X32296Y-51195D01*
X32304Y-51203D01*
X32312Y-51211D01*
X32322Y-51219D01*
X32332Y-51225D01*
X32343Y-51231D01*
X32354Y-51235D01*
X32365Y-51239D01*
X32377Y-51241D01*
X32389Y-51243D01*
X32400Y-51244D01*
X32411Y-51243D01*
X32423Y-51241D01*
X32435Y-51239D01*
X32446Y-51235D01*
X32457Y-51231D01*
X32468Y-51225D01*
X32478Y-51219D01*
X32488Y-51211D01*
X32496Y-51203D01*
X32504Y-51195D01*
X32512Y-51185D01*
X32518Y-51175D01*
X32524Y-51164D01*
X32528Y-51153D01*
X32532Y-51142D01*
X32534Y-51130D01*
X32536Y-51118D01*
X32537Y-51107D01*
X32537Y-51893D02*
X32536Y-51882D01*
X32534Y-51870D01*
X32532Y-51858D01*
X32528Y-51847D01*
X32524Y-51836D01*
X32518Y-51825D01*
X32512Y-51815D01*
X32504Y-51805D01*
X32496Y-51797D01*
X32488Y-51789D01*
X32478Y-51781D01*
X32468Y-51775D01*
X32457Y-51769D01*
X32446Y-51765D01*
X32435Y-51761D01*
X32423Y-51759D01*
X32411Y-51757D01*
X32400Y-51756D01*
X32389Y-51757D01*
X32377Y-51759D01*
X32365Y-51761D01*
X32354Y-51765D01*
X32343Y-51769D01*
X32332Y-51775D01*
X32322Y-51781D01*
X32312Y-51789D01*
X32304Y-51797D01*
X32296Y-51805D01*
X32288Y-51815D01*
X32282Y-51825D01*
X32276Y-51836D01*
X32272Y-51847D01*
X32268Y-51858D01*
X32266Y-51870D01*
X32264Y-51882D01*
X32263Y-51893D01*
G54D14*
X33318Y-51304D02*
X33446Y-51304D01*
X33446Y-51304D02*
X33446Y-51107D01*
X33318Y-51107D02*
X33446Y-51107D01*
X33318Y-51304D02*
X33318Y-51107D01*
X33073Y-51304D02*
X33132Y-51304D01*
X33132Y-51304D02*
X33132Y-51205D01*
X33073Y-51205D02*
X33132Y-51205D01*
X33073Y-51304D02*
X33073Y-51205D01*
X33268Y-51304D02*
X33327Y-51304D01*
X33327Y-51304D02*
X33327Y-51205D01*
X33268Y-51205D02*
X33327Y-51205D01*
X33268Y-51304D02*
X33268Y-51205D01*
X33122Y-51304D02*
X33278Y-51304D01*
X33278Y-51304D02*
X33278Y-51235D01*
X33122Y-51235D02*
X33278Y-51235D01*
X33122Y-51304D02*
X33122Y-51235D01*
X33318Y-51893D02*
X33446Y-51893D01*
X33446Y-51893D02*
X33446Y-51696D01*
X33318Y-51696D02*
X33446Y-51696D01*
X33318Y-51893D02*
X33318Y-51696D01*
X32954Y-51893D02*
X33082Y-51893D01*
X33082Y-51893D02*
X33082Y-51696D01*
X32954Y-51696D02*
X33082Y-51696D01*
X32954Y-51893D02*
X32954Y-51696D01*
X33268Y-51795D02*
X33327Y-51795D01*
X33327Y-51795D02*
X33327Y-51696D01*
X33268Y-51696D02*
X33327Y-51696D01*
X33268Y-51795D02*
X33268Y-51696D01*
X33073Y-51795D02*
X33132Y-51795D01*
X33132Y-51795D02*
X33132Y-51696D01*
X33073Y-51696D02*
X33132Y-51696D01*
X33073Y-51795D02*
X33073Y-51696D01*
X33122Y-51765D02*
X33278Y-51765D01*
X33278Y-51765D02*
X33278Y-51696D01*
X33122Y-51696D02*
X33278Y-51696D01*
X33122Y-51765D02*
X33122Y-51696D01*
X33161Y-51500D02*
X33239Y-51500D01*
X33239Y-51500D02*
X33239Y-51422D01*
X33161Y-51422D02*
X33239Y-51422D01*
X33161Y-51500D02*
X33161Y-51422D01*
X32964Y-51304D02*
X33082Y-51304D01*
X33082Y-51304D02*
X33082Y-51186D01*
X32964Y-51186D02*
X33082Y-51186D01*
X32964Y-51304D02*
X32964Y-51186D01*
X32954Y-51136D02*
X33043Y-51136D01*
X33043Y-51136D02*
X33043Y-51107D01*
X32954Y-51107D02*
X33043Y-51107D01*
X32954Y-51136D02*
X32954Y-51107D01*
G54D16*
X33426Y-51294D02*
X33426Y-51706D01*
X32974Y-51696D02*
X32974Y-51136D01*
G54D15*
X33051Y-51166D02*
X33050Y-51171D01*
X33048Y-51176D01*
X33046Y-51181D01*
X33042Y-51185D01*
X33038Y-51189D01*
X33033Y-51191D01*
X33028Y-51193D01*
X33023Y-51193D01*
X33018Y-51193D01*
X33013Y-51191D01*
X33008Y-51189D01*
X33004Y-51186D01*
X33000Y-51181D01*
X32998Y-51177D01*
X32996Y-51171D01*
X32996Y-51166D01*
X32996Y-51161D01*
X32997Y-51156D01*
X33000Y-51151D01*
X33003Y-51147D01*
X33008Y-51144D01*
X33012Y-51141D01*
X33017Y-51139D01*
X33023Y-51139D01*
X33027Y-51139D01*
X33033Y-51140D01*
X33038Y-51143D01*
X33042Y-51146D01*
X33045Y-51150D01*
X33048Y-51155D01*
X33050Y-51160D01*
X33050Y-51166D01*
X33051Y-51166D01*
G54D16*
X33063Y-51107D02*
X33064Y-51118D01*
X33066Y-51130D01*
X33068Y-51142D01*
X33072Y-51153D01*
X33076Y-51164D01*
X33082Y-51175D01*
X33088Y-51185D01*
X33096Y-51195D01*
X33104Y-51203D01*
X33112Y-51211D01*
X33122Y-51219D01*
X33132Y-51225D01*
X33143Y-51231D01*
X33154Y-51235D01*
X33165Y-51239D01*
X33177Y-51241D01*
X33189Y-51243D01*
X33200Y-51244D01*
X33211Y-51243D01*
X33223Y-51241D01*
X33235Y-51239D01*
X33246Y-51235D01*
X33257Y-51231D01*
X33268Y-51225D01*
X33278Y-51219D01*
X33288Y-51211D01*
X33296Y-51203D01*
X33304Y-51195D01*
X33312Y-51185D01*
X33318Y-51175D01*
X33324Y-51164D01*
X33328Y-51153D01*
X33332Y-51142D01*
X33334Y-51130D01*
X33336Y-51118D01*
X33337Y-51107D01*
X33337Y-51893D02*
X33336Y-51882D01*
X33334Y-51870D01*
X33332Y-51858D01*
X33328Y-51847D01*
X33324Y-51836D01*
X33318Y-51825D01*
X33312Y-51815D01*
X33304Y-51805D01*
X33296Y-51797D01*
X33288Y-51789D01*
X33278Y-51781D01*
X33268Y-51775D01*
X33257Y-51769D01*
X33246Y-51765D01*
X33235Y-51761D01*
X33223Y-51759D01*
X33211Y-51757D01*
X33200Y-51756D01*
X33189Y-51757D01*
X33177Y-51759D01*
X33165Y-51761D01*
X33154Y-51765D01*
X33143Y-51769D01*
X33132Y-51775D01*
X33122Y-51781D01*
X33112Y-51789D01*
X33104Y-51797D01*
X33096Y-51805D01*
X33088Y-51815D01*
X33082Y-51825D01*
X33076Y-51836D01*
X33072Y-51847D01*
X33068Y-51858D01*
X33066Y-51870D01*
X33064Y-51882D01*
X33063Y-51893D01*
G54D14*
X76796Y-51218D02*
X76796Y-51346D01*
X76796Y-51346D02*
X76993Y-51346D01*
X76993Y-51218D02*
X76993Y-51346D01*
X76796Y-51218D02*
X76993Y-51218D01*
X76796Y-50973D02*
X76796Y-51032D01*
X76796Y-51032D02*
X76895Y-51032D01*
X76895Y-50973D02*
X76895Y-51032D01*
X76796Y-50973D02*
X76895Y-50973D01*
X76796Y-51168D02*
X76796Y-51227D01*
X76796Y-51227D02*
X76895Y-51227D01*
X76895Y-51168D02*
X76895Y-51227D01*
X76796Y-51168D02*
X76895Y-51168D01*
X76796Y-51022D02*
X76796Y-51178D01*
X76796Y-51178D02*
X76865Y-51178D01*
X76865Y-51022D02*
X76865Y-51178D01*
X76796Y-51022D02*
X76865Y-51022D01*
X76207Y-51218D02*
X76207Y-51346D01*
X76207Y-51346D02*
X76404Y-51346D01*
X76404Y-51218D02*
X76404Y-51346D01*
X76207Y-51218D02*
X76404Y-51218D01*
X76207Y-50854D02*
X76207Y-50982D01*
X76207Y-50982D02*
X76404Y-50982D01*
X76404Y-50854D02*
X76404Y-50982D01*
X76207Y-50854D02*
X76404Y-50854D01*
X76305Y-51168D02*
X76305Y-51227D01*
X76305Y-51227D02*
X76404Y-51227D01*
X76404Y-51168D02*
X76404Y-51227D01*
X76305Y-51168D02*
X76404Y-51168D01*
X76305Y-50973D02*
X76305Y-51032D01*
X76305Y-51032D02*
X76404Y-51032D01*
X76404Y-50973D02*
X76404Y-51032D01*
X76305Y-50973D02*
X76404Y-50973D01*
X76335Y-51022D02*
X76335Y-51178D01*
X76335Y-51178D02*
X76404Y-51178D01*
X76404Y-51022D02*
X76404Y-51178D01*
X76335Y-51022D02*
X76404Y-51022D01*
X76600Y-51061D02*
X76600Y-51139D01*
X76600Y-51139D02*
X76678Y-51139D01*
X76678Y-51061D02*
X76678Y-51139D01*
X76600Y-51061D02*
X76678Y-51061D01*
X76796Y-50864D02*
X76796Y-50982D01*
X76796Y-50982D02*
X76914Y-50982D01*
X76914Y-50864D02*
X76914Y-50982D01*
X76796Y-50864D02*
X76914Y-50864D01*
X76964Y-50854D02*
X76964Y-50943D01*
X76964Y-50943D02*
X76993Y-50943D01*
X76993Y-50854D02*
X76993Y-50943D01*
X76964Y-50854D02*
X76993Y-50854D01*
G54D16*
X76806Y-51326D02*
X76394Y-51326D01*
X76404Y-50874D02*
X76964Y-50874D01*
G54D15*
X76962Y-50923D02*
X76961Y-50928D01*
X76959Y-50933D01*
X76957Y-50938D01*
X76953Y-50942D01*
X76949Y-50946D01*
X76944Y-50948D01*
X76939Y-50950D01*
X76934Y-50950D01*
X76929Y-50950D01*
X76924Y-50948D01*
X76919Y-50946D01*
X76915Y-50943D01*
X76911Y-50938D01*
X76909Y-50934D01*
X76907Y-50928D01*
X76907Y-50923D01*
X76907Y-50918D01*
X76908Y-50913D01*
X76911Y-50908D01*
X76914Y-50904D01*
X76919Y-50901D01*
X76923Y-50898D01*
X76928Y-50896D01*
X76934Y-50896D01*
X76938Y-50896D01*
X76944Y-50897D01*
X76949Y-50900D01*
X76953Y-50903D01*
X76956Y-50907D01*
X76959Y-50912D01*
X76961Y-50917D01*
X76961Y-50923D01*
X76962Y-50923D01*
G54D16*
X76993Y-50963D02*
X76982Y-50964D01*
X76970Y-50966D01*
X76958Y-50968D01*
X76947Y-50972D01*
X76936Y-50976D01*
X76925Y-50982D01*
X76915Y-50988D01*
X76905Y-50996D01*
X76897Y-51004D01*
X76889Y-51012D01*
X76881Y-51022D01*
X76875Y-51032D01*
X76869Y-51043D01*
X76865Y-51054D01*
X76861Y-51065D01*
X76859Y-51077D01*
X76857Y-51089D01*
X76856Y-51100D01*
X76857Y-51111D01*
X76859Y-51123D01*
X76861Y-51135D01*
X76865Y-51146D01*
X76869Y-51157D01*
X76875Y-51168D01*
X76881Y-51178D01*
X76889Y-51188D01*
X76897Y-51196D01*
X76905Y-51204D01*
X76915Y-51212D01*
X76925Y-51218D01*
X76936Y-51224D01*
X76947Y-51228D01*
X76958Y-51232D01*
X76970Y-51234D01*
X76982Y-51236D01*
X76993Y-51237D01*
X76207Y-51237D02*
X76218Y-51236D01*
X76230Y-51234D01*
X76242Y-51232D01*
X76253Y-51228D01*
X76264Y-51224D01*
X76275Y-51218D01*
X76285Y-51212D01*
X76295Y-51204D01*
X76303Y-51196D01*
X76311Y-51188D01*
X76319Y-51178D01*
X76325Y-51168D01*
X76331Y-51157D01*
X76335Y-51146D01*
X76339Y-51135D01*
X76341Y-51123D01*
X76343Y-51111D01*
X76344Y-51100D01*
X76343Y-51089D01*
X76341Y-51077D01*
X76339Y-51065D01*
X76335Y-51054D01*
X76331Y-51043D01*
X76325Y-51032D01*
X76319Y-51022D01*
X76311Y-51012D01*
X76303Y-51004D01*
X76295Y-50996D01*
X76285Y-50988D01*
X76275Y-50982D01*
X76264Y-50976D01*
X76253Y-50972D01*
X76242Y-50968D01*
X76230Y-50966D01*
X76218Y-50964D01*
X76207Y-50963D01*
G54D14*
X82196Y-51218D02*
X82196Y-51346D01*
X82196Y-51346D02*
X82393Y-51346D01*
X82393Y-51218D02*
X82393Y-51346D01*
X82196Y-51218D02*
X82393Y-51218D01*
X82196Y-50973D02*
X82196Y-51032D01*
X82196Y-51032D02*
X82295Y-51032D01*
X82295Y-50973D02*
X82295Y-51032D01*
X82196Y-50973D02*
X82295Y-50973D01*
X82196Y-51168D02*
X82196Y-51227D01*
X82196Y-51227D02*
X82295Y-51227D01*
X82295Y-51168D02*
X82295Y-51227D01*
X82196Y-51168D02*
X82295Y-51168D01*
X82196Y-51022D02*
X82196Y-51178D01*
X82196Y-51178D02*
X82265Y-51178D01*
X82265Y-51022D02*
X82265Y-51178D01*
X82196Y-51022D02*
X82265Y-51022D01*
X81607Y-51218D02*
X81607Y-51346D01*
X81607Y-51346D02*
X81804Y-51346D01*
X81804Y-51218D02*
X81804Y-51346D01*
X81607Y-51218D02*
X81804Y-51218D01*
X81607Y-50854D02*
X81607Y-50982D01*
X81607Y-50982D02*
X81804Y-50982D01*
X81804Y-50854D02*
X81804Y-50982D01*
X81607Y-50854D02*
X81804Y-50854D01*
X81705Y-51168D02*
X81705Y-51227D01*
X81705Y-51227D02*
X81804Y-51227D01*
X81804Y-51168D02*
X81804Y-51227D01*
X81705Y-51168D02*
X81804Y-51168D01*
X81705Y-50973D02*
X81705Y-51032D01*
X81705Y-51032D02*
X81804Y-51032D01*
X81804Y-50973D02*
X81804Y-51032D01*
X81705Y-50973D02*
X81804Y-50973D01*
X81735Y-51022D02*
X81735Y-51178D01*
X81735Y-51178D02*
X81804Y-51178D01*
X81804Y-51022D02*
X81804Y-51178D01*
X81735Y-51022D02*
X81804Y-51022D01*
X82000Y-51061D02*
X82000Y-51139D01*
X82000Y-51139D02*
X82078Y-51139D01*
X82078Y-51061D02*
X82078Y-51139D01*
X82000Y-51061D02*
X82078Y-51061D01*
X82196Y-50864D02*
X82196Y-50982D01*
X82196Y-50982D02*
X82314Y-50982D01*
X82314Y-50864D02*
X82314Y-50982D01*
X82196Y-50864D02*
X82314Y-50864D01*
X82364Y-50854D02*
X82364Y-50943D01*
X82364Y-50943D02*
X82393Y-50943D01*
X82393Y-50854D02*
X82393Y-50943D01*
X82364Y-50854D02*
X82393Y-50854D01*
G54D16*
X82206Y-51326D02*
X81794Y-51326D01*
X81804Y-50874D02*
X82364Y-50874D01*
G54D15*
X82362Y-50923D02*
X82361Y-50928D01*
X82359Y-50933D01*
X82357Y-50938D01*
X82353Y-50942D01*
X82349Y-50946D01*
X82344Y-50948D01*
X82339Y-50950D01*
X82334Y-50950D01*
X82329Y-50950D01*
X82324Y-50948D01*
X82319Y-50946D01*
X82315Y-50943D01*
X82311Y-50938D01*
X82309Y-50934D01*
X82307Y-50928D01*
X82307Y-50923D01*
X82307Y-50918D01*
X82308Y-50913D01*
X82311Y-50908D01*
X82314Y-50904D01*
X82319Y-50901D01*
X82323Y-50898D01*
X82328Y-50896D01*
X82334Y-50896D01*
X82338Y-50896D01*
X82344Y-50897D01*
X82349Y-50900D01*
X82353Y-50903D01*
X82356Y-50907D01*
X82359Y-50912D01*
X82361Y-50917D01*
X82361Y-50923D01*
X82362Y-50923D01*
G54D16*
X82393Y-50963D02*
X82382Y-50964D01*
X82370Y-50966D01*
X82358Y-50968D01*
X82347Y-50972D01*
X82336Y-50976D01*
X82325Y-50982D01*
X82315Y-50988D01*
X82305Y-50996D01*
X82297Y-51004D01*
X82289Y-51012D01*
X82281Y-51022D01*
X82275Y-51032D01*
X82269Y-51043D01*
X82265Y-51054D01*
X82261Y-51065D01*
X82259Y-51077D01*
X82257Y-51089D01*
X82256Y-51100D01*
X82257Y-51111D01*
X82259Y-51123D01*
X82261Y-51135D01*
X82265Y-51146D01*
X82269Y-51157D01*
X82275Y-51168D01*
X82281Y-51178D01*
X82289Y-51188D01*
X82297Y-51196D01*
X82305Y-51204D01*
X82315Y-51212D01*
X82325Y-51218D01*
X82336Y-51224D01*
X82347Y-51228D01*
X82358Y-51232D01*
X82370Y-51234D01*
X82382Y-51236D01*
X82393Y-51237D01*
X81607Y-51237D02*
X81618Y-51236D01*
X81630Y-51234D01*
X81642Y-51232D01*
X81653Y-51228D01*
X81664Y-51224D01*
X81675Y-51218D01*
X81685Y-51212D01*
X81695Y-51204D01*
X81703Y-51196D01*
X81711Y-51188D01*
X81719Y-51178D01*
X81725Y-51168D01*
X81731Y-51157D01*
X81735Y-51146D01*
X81739Y-51135D01*
X81741Y-51123D01*
X81743Y-51111D01*
X81744Y-51100D01*
X81743Y-51089D01*
X81741Y-51077D01*
X81739Y-51065D01*
X81735Y-51054D01*
X81731Y-51043D01*
X81725Y-51032D01*
X81719Y-51022D01*
X81711Y-51012D01*
X81703Y-51004D01*
X81695Y-50996D01*
X81685Y-50988D01*
X81675Y-50982D01*
X81664Y-50976D01*
X81653Y-50972D01*
X81642Y-50968D01*
X81630Y-50966D01*
X81618Y-50964D01*
X81607Y-50963D01*
G54D14*
X87596Y-51218D02*
X87596Y-51346D01*
X87596Y-51346D02*
X87793Y-51346D01*
X87793Y-51218D02*
X87793Y-51346D01*
X87596Y-51218D02*
X87793Y-51218D01*
X87596Y-50973D02*
X87596Y-51032D01*
X87596Y-51032D02*
X87695Y-51032D01*
X87695Y-50973D02*
X87695Y-51032D01*
X87596Y-50973D02*
X87695Y-50973D01*
X87596Y-51168D02*
X87596Y-51227D01*
X87596Y-51227D02*
X87695Y-51227D01*
X87695Y-51168D02*
X87695Y-51227D01*
X87596Y-51168D02*
X87695Y-51168D01*
X87596Y-51022D02*
X87596Y-51178D01*
X87596Y-51178D02*
X87665Y-51178D01*
X87665Y-51022D02*
X87665Y-51178D01*
X87596Y-51022D02*
X87665Y-51022D01*
X87007Y-51218D02*
X87007Y-51346D01*
X87007Y-51346D02*
X87204Y-51346D01*
X87204Y-51218D02*
X87204Y-51346D01*
X87007Y-51218D02*
X87204Y-51218D01*
X87007Y-50854D02*
X87007Y-50982D01*
X87007Y-50982D02*
X87204Y-50982D01*
X87204Y-50854D02*
X87204Y-50982D01*
X87007Y-50854D02*
X87204Y-50854D01*
X87105Y-51168D02*
X87105Y-51227D01*
X87105Y-51227D02*
X87204Y-51227D01*
X87204Y-51168D02*
X87204Y-51227D01*
X87105Y-51168D02*
X87204Y-51168D01*
X87105Y-50973D02*
X87105Y-51032D01*
X87105Y-51032D02*
X87204Y-51032D01*
X87204Y-50973D02*
X87204Y-51032D01*
X87105Y-50973D02*
X87204Y-50973D01*
X87135Y-51022D02*
X87135Y-51178D01*
X87135Y-51178D02*
X87204Y-51178D01*
X87204Y-51022D02*
X87204Y-51178D01*
X87135Y-51022D02*
X87204Y-51022D01*
X87400Y-51061D02*
X87400Y-51139D01*
X87400Y-51139D02*
X87478Y-51139D01*
X87478Y-51061D02*
X87478Y-51139D01*
X87400Y-51061D02*
X87478Y-51061D01*
X87596Y-50864D02*
X87596Y-50982D01*
X87596Y-50982D02*
X87714Y-50982D01*
X87714Y-50864D02*
X87714Y-50982D01*
X87596Y-50864D02*
X87714Y-50864D01*
X87764Y-50854D02*
X87764Y-50943D01*
X87764Y-50943D02*
X87793Y-50943D01*
X87793Y-50854D02*
X87793Y-50943D01*
X87764Y-50854D02*
X87793Y-50854D01*
G54D16*
X87606Y-51326D02*
X87194Y-51326D01*
X87204Y-50874D02*
X87764Y-50874D01*
G54D15*
X87762Y-50923D02*
X87761Y-50928D01*
X87759Y-50933D01*
X87757Y-50938D01*
X87753Y-50942D01*
X87749Y-50946D01*
X87744Y-50948D01*
X87739Y-50950D01*
X87734Y-50950D01*
X87729Y-50950D01*
X87724Y-50948D01*
X87719Y-50946D01*
X87715Y-50943D01*
X87711Y-50938D01*
X87709Y-50934D01*
X87707Y-50928D01*
X87707Y-50923D01*
X87707Y-50918D01*
X87708Y-50913D01*
X87711Y-50908D01*
X87714Y-50904D01*
X87719Y-50901D01*
X87723Y-50898D01*
X87728Y-50896D01*
X87734Y-50896D01*
X87738Y-50896D01*
X87744Y-50897D01*
X87749Y-50900D01*
X87753Y-50903D01*
X87756Y-50907D01*
X87759Y-50912D01*
X87761Y-50917D01*
X87761Y-50923D01*
X87762Y-50923D01*
G54D16*
X87793Y-50963D02*
X87782Y-50964D01*
X87770Y-50966D01*
X87758Y-50968D01*
X87747Y-50972D01*
X87736Y-50976D01*
X87725Y-50982D01*
X87715Y-50988D01*
X87705Y-50996D01*
X87697Y-51004D01*
X87689Y-51012D01*
X87681Y-51022D01*
X87675Y-51032D01*
X87669Y-51043D01*
X87665Y-51054D01*
X87661Y-51065D01*
X87659Y-51077D01*
X87657Y-51089D01*
X87656Y-51100D01*
X87657Y-51111D01*
X87659Y-51123D01*
X87661Y-51135D01*
X87665Y-51146D01*
X87669Y-51157D01*
X87675Y-51168D01*
X87681Y-51178D01*
X87689Y-51188D01*
X87697Y-51196D01*
X87705Y-51204D01*
X87715Y-51212D01*
X87725Y-51218D01*
X87736Y-51224D01*
X87747Y-51228D01*
X87758Y-51232D01*
X87770Y-51234D01*
X87782Y-51236D01*
X87793Y-51237D01*
X87007Y-51237D02*
X87018Y-51236D01*
X87030Y-51234D01*
X87042Y-51232D01*
X87053Y-51228D01*
X87064Y-51224D01*
X87075Y-51218D01*
X87085Y-51212D01*
X87095Y-51204D01*
X87103Y-51196D01*
X87111Y-51188D01*
X87119Y-51178D01*
X87125Y-51168D01*
X87131Y-51157D01*
X87135Y-51146D01*
X87139Y-51135D01*
X87141Y-51123D01*
X87143Y-51111D01*
X87144Y-51100D01*
X87143Y-51089D01*
X87141Y-51077D01*
X87139Y-51065D01*
X87135Y-51054D01*
X87131Y-51043D01*
X87125Y-51032D01*
X87119Y-51022D01*
X87111Y-51012D01*
X87103Y-51004D01*
X87095Y-50996D01*
X87085Y-50988D01*
X87075Y-50982D01*
X87064Y-50976D01*
X87053Y-50972D01*
X87042Y-50968D01*
X87030Y-50966D01*
X87018Y-50964D01*
X87007Y-50963D01*
G54D11*
X129217Y-59555D02*
X129193Y-59579D01*
X129122Y-59602D01*
X129074Y-59602D01*
X129002Y-59579D01*
X128955Y-59531D01*
X128931Y-59483D01*
X128907Y-59388D01*
X128907Y-59317D01*
X128931Y-59221D01*
X128955Y-59174D01*
X129002Y-59126D01*
X129074Y-59102D01*
X129122Y-59102D01*
X129193Y-59126D01*
X129217Y-59150D01*
X129502Y-59317D02*
X129455Y-59293D01*
X129431Y-59269D01*
X129407Y-59221D01*
X129407Y-59198D01*
X129431Y-59150D01*
X129455Y-59126D01*
X129502Y-59102D01*
X129598Y-59102D01*
X129645Y-59126D01*
X129669Y-59150D01*
X129693Y-59198D01*
X129693Y-59221D01*
X129669Y-59269D01*
X129645Y-59293D01*
X129598Y-59317D01*
X129502Y-59317D01*
X129455Y-59340D01*
X129431Y-59364D01*
X129407Y-59412D01*
X129407Y-59507D01*
X129431Y-59555D01*
X129455Y-59579D01*
X129502Y-59602D01*
X129598Y-59602D01*
X129645Y-59579D01*
X129669Y-59555D01*
X129693Y-59507D01*
X129693Y-59412D01*
X129669Y-59364D01*
X129645Y-59340D01*
X129598Y-59317D01*
X128312Y-57890D02*
X128312Y-57509D01*
X128502Y-57699D02*
X128121Y-57699D01*
X34717Y-59555D02*
X34693Y-59579D01*
X34622Y-59602D01*
X34574Y-59602D01*
X34502Y-59579D01*
X34455Y-59531D01*
X34431Y-59483D01*
X34407Y-59388D01*
X34407Y-59317D01*
X34431Y-59221D01*
X34455Y-59174D01*
X34502Y-59126D01*
X34574Y-59102D01*
X34622Y-59102D01*
X34693Y-59126D01*
X34717Y-59150D01*
X34883Y-59102D02*
X35217Y-59102D01*
X35002Y-59602D01*
X33812Y-57890D02*
X33812Y-57509D01*
X34002Y-57699D02*
X33621Y-57699D01*
X57131Y-61302D02*
X57131Y-60802D01*
X57250Y-60802D01*
X57322Y-60826D01*
X57369Y-60874D01*
X57393Y-60921D01*
X57417Y-61017D01*
X57417Y-61088D01*
X57393Y-61183D01*
X57369Y-61231D01*
X57322Y-61279D01*
X57250Y-61302D01*
X57131Y-61302D01*
X57655Y-61302D02*
X57750Y-61302D01*
X57798Y-61279D01*
X57822Y-61255D01*
X57869Y-61183D01*
X57893Y-61088D01*
X57893Y-60898D01*
X57869Y-60850D01*
X57845Y-60826D01*
X57798Y-60802D01*
X57702Y-60802D01*
X57655Y-60826D01*
X57631Y-60850D01*
X57607Y-60898D01*
X57607Y-61017D01*
X57631Y-61064D01*
X57655Y-61088D01*
X57702Y-61112D01*
X57798Y-61112D01*
X57845Y-61088D01*
X57869Y-61064D01*
X57893Y-61017D01*
X56893Y-52802D02*
X56893Y-52302D01*
X57012Y-52302D01*
X57084Y-52326D01*
X57131Y-52374D01*
X57155Y-52421D01*
X57179Y-52517D01*
X57179Y-52588D01*
X57155Y-52683D01*
X57131Y-52731D01*
X57084Y-52779D01*
X57012Y-52802D01*
X56893Y-52802D01*
X57655Y-52802D02*
X57369Y-52802D01*
X57512Y-52802D02*
X57512Y-52302D01*
X57464Y-52374D01*
X57417Y-52421D01*
X57369Y-52445D01*
X57964Y-52302D02*
X58012Y-52302D01*
X58060Y-52326D01*
X58083Y-52350D01*
X58107Y-52398D01*
X58131Y-52493D01*
X58131Y-52612D01*
X58107Y-52707D01*
X58083Y-52755D01*
X58060Y-52779D01*
X58012Y-52802D01*
X57964Y-52802D01*
X57917Y-52779D01*
X57893Y-52755D01*
X57869Y-52707D01*
X57845Y-52612D01*
X57845Y-52493D01*
X57869Y-52398D01*
X57893Y-52350D01*
X57917Y-52326D01*
X57964Y-52302D01*
X39131Y-52702D02*
X39131Y-52202D01*
X39250Y-52202D01*
X39322Y-52226D01*
X39369Y-52274D01*
X39393Y-52321D01*
X39417Y-52417D01*
X39417Y-52488D01*
X39393Y-52583D01*
X39369Y-52631D01*
X39322Y-52679D01*
X39250Y-52702D01*
X39131Y-52702D01*
X39607Y-52250D02*
X39631Y-52226D01*
X39679Y-52202D01*
X39798Y-52202D01*
X39845Y-52226D01*
X39869Y-52250D01*
X39893Y-52298D01*
X39893Y-52345D01*
X39869Y-52417D01*
X39583Y-52702D01*
X39893Y-52702D01*
X39131Y-61302D02*
X39131Y-60802D01*
X39250Y-60802D01*
X39322Y-60826D01*
X39369Y-60874D01*
X39393Y-60921D01*
X39417Y-61017D01*
X39417Y-61088D01*
X39393Y-61183D01*
X39369Y-61231D01*
X39322Y-61279D01*
X39250Y-61302D01*
X39131Y-61302D01*
X39893Y-61302D02*
X39607Y-61302D01*
X39750Y-61302D02*
X39750Y-60802D01*
X39702Y-60874D01*
X39655Y-60921D01*
X39607Y-60945D01*
X43631Y-52702D02*
X43631Y-52202D01*
X43750Y-52202D01*
X43822Y-52226D01*
X43869Y-52274D01*
X43893Y-52321D01*
X43917Y-52417D01*
X43917Y-52488D01*
X43893Y-52583D01*
X43869Y-52631D01*
X43822Y-52679D01*
X43750Y-52702D01*
X43631Y-52702D01*
X44083Y-52202D02*
X44393Y-52202D01*
X44226Y-52393D01*
X44298Y-52393D01*
X44345Y-52417D01*
X44369Y-52440D01*
X44393Y-52488D01*
X44393Y-52607D01*
X44369Y-52655D01*
X44345Y-52679D01*
X44298Y-52702D01*
X44155Y-52702D01*
X44107Y-52679D01*
X44083Y-52655D01*
X43631Y-61302D02*
X43631Y-60802D01*
X43750Y-60802D01*
X43822Y-60826D01*
X43869Y-60874D01*
X43893Y-60921D01*
X43917Y-61017D01*
X43917Y-61088D01*
X43893Y-61183D01*
X43869Y-61231D01*
X43822Y-61279D01*
X43750Y-61302D01*
X43631Y-61302D01*
X44345Y-60969D02*
X44345Y-61302D01*
X44226Y-60779D02*
X44107Y-61136D01*
X44417Y-61136D01*
X81612Y-57102D02*
X81612Y-56602D01*
X81826Y-57079D02*
X81898Y-57102D01*
X82017Y-57102D01*
X82064Y-57079D01*
X82088Y-57055D01*
X82112Y-57007D01*
X82112Y-56960D01*
X82088Y-56912D01*
X82064Y-56888D01*
X82017Y-56864D01*
X81921Y-56840D01*
X81874Y-56817D01*
X81850Y-56793D01*
X81826Y-56745D01*
X81826Y-56698D01*
X81850Y-56650D01*
X81874Y-56626D01*
X81921Y-56602D01*
X82041Y-56602D01*
X82112Y-56626D01*
X82326Y-57102D02*
X82326Y-56602D01*
X82517Y-56602D01*
X82564Y-56626D01*
X82588Y-56650D01*
X82612Y-56698D01*
X82612Y-56769D01*
X82588Y-56817D01*
X82564Y-56840D01*
X82517Y-56864D01*
X82326Y-56864D01*
X83317Y-57155D02*
X83293Y-57179D01*
X83222Y-57202D01*
X83174Y-57202D01*
X83102Y-57179D01*
X83055Y-57131D01*
X83031Y-57083D01*
X83007Y-56988D01*
X83007Y-56917D01*
X83031Y-56821D01*
X83055Y-56774D01*
X83102Y-56726D01*
X83174Y-56702D01*
X83222Y-56702D01*
X83293Y-56726D01*
X83317Y-56750D01*
X83483Y-56702D02*
X83793Y-56702D01*
X83626Y-56893D01*
X83698Y-56893D01*
X83745Y-56917D01*
X83769Y-56940D01*
X83793Y-56988D01*
X83793Y-57107D01*
X83769Y-57155D01*
X83745Y-57179D01*
X83698Y-57202D01*
X83555Y-57202D01*
X83507Y-57179D01*
X83483Y-57155D01*
X84217Y-53755D02*
X84193Y-53779D01*
X84122Y-53802D01*
X84074Y-53802D01*
X84002Y-53779D01*
X83955Y-53731D01*
X83931Y-53683D01*
X83907Y-53588D01*
X83907Y-53517D01*
X83931Y-53421D01*
X83955Y-53374D01*
X84002Y-53326D01*
X84074Y-53302D01*
X84122Y-53302D01*
X84193Y-53326D01*
X84217Y-53350D01*
X84693Y-53802D02*
X84407Y-53802D01*
X84550Y-53802D02*
X84550Y-53302D01*
X84502Y-53374D01*
X84455Y-53421D01*
X84407Y-53445D01*
X91055Y-56283D02*
X91079Y-56307D01*
X91102Y-56378D01*
X91102Y-56426D01*
X91079Y-56498D01*
X91031Y-56545D01*
X90983Y-56569D01*
X90888Y-56593D01*
X90817Y-56593D01*
X90721Y-56569D01*
X90674Y-56545D01*
X90626Y-56498D01*
X90602Y-56426D01*
X90602Y-56378D01*
X90626Y-56307D01*
X90650Y-56283D01*
X90602Y-55855D02*
X90602Y-55950D01*
X90626Y-55998D01*
X90650Y-56021D01*
X90721Y-56069D01*
X90817Y-56093D01*
X91007Y-56093D01*
X91055Y-56069D01*
X91079Y-56045D01*
X91102Y-55998D01*
X91102Y-55902D01*
X91079Y-55855D01*
X91055Y-55831D01*
X91007Y-55807D01*
X90888Y-55807D01*
X90840Y-55831D01*
X90817Y-55855D01*
X90793Y-55902D01*
X90793Y-55998D01*
X90817Y-56045D01*
X90840Y-56069D01*
X90888Y-56093D01*
X85517Y-57255D02*
X85493Y-57279D01*
X85422Y-57302D01*
X85374Y-57302D01*
X85302Y-57279D01*
X85255Y-57231D01*
X85231Y-57183D01*
X85207Y-57088D01*
X85207Y-57017D01*
X85231Y-56921D01*
X85255Y-56874D01*
X85302Y-56826D01*
X85374Y-56802D01*
X85422Y-56802D01*
X85493Y-56826D01*
X85517Y-56850D01*
X85969Y-56802D02*
X85731Y-56802D01*
X85707Y-57040D01*
X85731Y-57017D01*
X85779Y-56993D01*
X85898Y-56993D01*
X85945Y-57017D01*
X85969Y-57040D01*
X85993Y-57088D01*
X85993Y-57207D01*
X85969Y-57255D01*
X85945Y-57279D01*
X85898Y-57302D01*
X85779Y-57302D01*
X85731Y-57279D01*
X85707Y-57255D01*
X80517Y-57155D02*
X80493Y-57179D01*
X80422Y-57202D01*
X80374Y-57202D01*
X80302Y-57179D01*
X80255Y-57131D01*
X80231Y-57083D01*
X80207Y-56988D01*
X80207Y-56917D01*
X80231Y-56821D01*
X80255Y-56774D01*
X80302Y-56726D01*
X80374Y-56702D01*
X80422Y-56702D01*
X80493Y-56726D01*
X80517Y-56750D01*
X80945Y-56869D02*
X80945Y-57202D01*
X80826Y-56679D02*
X80707Y-57036D01*
X81017Y-57036D01*
X84517Y-57255D02*
X84493Y-57279D01*
X84422Y-57302D01*
X84374Y-57302D01*
X84302Y-57279D01*
X84255Y-57231D01*
X84231Y-57183D01*
X84207Y-57088D01*
X84207Y-57017D01*
X84231Y-56921D01*
X84255Y-56874D01*
X84302Y-56826D01*
X84374Y-56802D01*
X84422Y-56802D01*
X84493Y-56826D01*
X84517Y-56850D01*
X84707Y-56850D02*
X84731Y-56826D01*
X84779Y-56802D01*
X84898Y-56802D01*
X84945Y-56826D01*
X84969Y-56850D01*
X84993Y-56898D01*
X84993Y-56945D01*
X84969Y-57017D01*
X84683Y-57302D01*
X84993Y-57302D01*
X86419Y-61402D02*
X86419Y-60902D01*
X86538Y-61450D02*
X86919Y-61450D01*
X87324Y-61402D02*
X87157Y-61164D01*
X87038Y-61402D02*
X87038Y-60902D01*
X87229Y-60902D01*
X87276Y-60926D01*
X87300Y-60950D01*
X87324Y-60998D01*
X87324Y-61069D01*
X87300Y-61117D01*
X87276Y-61140D01*
X87229Y-61164D01*
X87038Y-61164D01*
X87538Y-61140D02*
X87705Y-61140D01*
X87776Y-61402D02*
X87538Y-61402D01*
X87538Y-60902D01*
X87776Y-60902D01*
X88157Y-61140D02*
X87990Y-61140D01*
X87990Y-61402D02*
X87990Y-60902D01*
X88228Y-60902D01*
X84202Y-62788D02*
X83702Y-62788D01*
X84155Y-62264D02*
X84179Y-62288D01*
X84202Y-62359D01*
X84202Y-62407D01*
X84179Y-62479D01*
X84131Y-62526D01*
X84083Y-62550D01*
X83988Y-62574D01*
X83917Y-62574D01*
X83821Y-62550D01*
X83774Y-62526D01*
X83726Y-62479D01*
X83702Y-62407D01*
X83702Y-62359D01*
X83726Y-62288D01*
X83750Y-62264D01*
X83750Y-62074D02*
X83726Y-62050D01*
X83702Y-62002D01*
X83702Y-61883D01*
X83726Y-61836D01*
X83750Y-61812D01*
X83798Y-61788D01*
X83845Y-61788D01*
X83917Y-61812D01*
X84202Y-62098D01*
X84202Y-61788D01*
X89512Y-54502D02*
X89512Y-54002D01*
X90036Y-54455D02*
X90012Y-54479D01*
X89941Y-54502D01*
X89893Y-54502D01*
X89821Y-54479D01*
X89774Y-54431D01*
X89750Y-54383D01*
X89726Y-54288D01*
X89726Y-54217D01*
X89750Y-54121D01*
X89774Y-54074D01*
X89821Y-54026D01*
X89893Y-54002D01*
X89941Y-54002D01*
X90012Y-54026D01*
X90036Y-54050D01*
X90202Y-54002D02*
X90512Y-54002D01*
X90345Y-54193D01*
X90417Y-54193D01*
X90464Y-54217D01*
X90488Y-54240D01*
X90512Y-54288D01*
X90512Y-54407D01*
X90488Y-54455D01*
X90464Y-54479D01*
X90417Y-54502D01*
X90274Y-54502D01*
X90226Y-54479D01*
X90202Y-54455D01*
X74312Y-61002D02*
X74312Y-60502D01*
X74836Y-60955D02*
X74812Y-60979D01*
X74741Y-61002D01*
X74693Y-61002D01*
X74621Y-60979D01*
X74574Y-60931D01*
X74550Y-60883D01*
X74526Y-60788D01*
X74526Y-60717D01*
X74550Y-60621D01*
X74574Y-60574D01*
X74621Y-60526D01*
X74693Y-60502D01*
X74741Y-60502D01*
X74812Y-60526D01*
X74836Y-60550D01*
X75312Y-61002D02*
X75026Y-61002D01*
X75169Y-61002D02*
X75169Y-60502D01*
X75121Y-60574D01*
X75074Y-60621D01*
X75026Y-60645D01*
X48131Y-61302D02*
X48131Y-60802D01*
X48250Y-60802D01*
X48322Y-60826D01*
X48369Y-60874D01*
X48393Y-60921D01*
X48417Y-61017D01*
X48417Y-61088D01*
X48393Y-61183D01*
X48369Y-61231D01*
X48322Y-61279D01*
X48250Y-61302D01*
X48131Y-61302D01*
X48869Y-60802D02*
X48631Y-60802D01*
X48607Y-61040D01*
X48631Y-61017D01*
X48679Y-60993D01*
X48798Y-60993D01*
X48845Y-61017D01*
X48869Y-61040D01*
X48893Y-61088D01*
X48893Y-61207D01*
X48869Y-61255D01*
X48845Y-61279D01*
X48798Y-61302D01*
X48679Y-61302D01*
X48631Y-61279D01*
X48607Y-61255D01*
X48131Y-52702D02*
X48131Y-52202D01*
X48250Y-52202D01*
X48322Y-52226D01*
X48369Y-52274D01*
X48393Y-52321D01*
X48417Y-52417D01*
X48417Y-52488D01*
X48393Y-52583D01*
X48369Y-52631D01*
X48322Y-52679D01*
X48250Y-52702D01*
X48131Y-52702D01*
X48845Y-52202D02*
X48750Y-52202D01*
X48702Y-52226D01*
X48679Y-52250D01*
X48631Y-52321D01*
X48607Y-52417D01*
X48607Y-52607D01*
X48631Y-52655D01*
X48655Y-52679D01*
X48702Y-52702D01*
X48798Y-52702D01*
X48845Y-52679D01*
X48869Y-52655D01*
X48893Y-52607D01*
X48893Y-52488D01*
X48869Y-52440D01*
X48845Y-52417D01*
X48798Y-52393D01*
X48702Y-52393D01*
X48655Y-52417D01*
X48631Y-52440D01*
X48607Y-52488D01*
X52631Y-52702D02*
X52631Y-52202D01*
X52750Y-52202D01*
X52822Y-52226D01*
X52869Y-52274D01*
X52893Y-52321D01*
X52917Y-52417D01*
X52917Y-52488D01*
X52893Y-52583D01*
X52869Y-52631D01*
X52822Y-52679D01*
X52750Y-52702D01*
X52631Y-52702D01*
X53083Y-52202D02*
X53417Y-52202D01*
X53202Y-52702D01*
X52631Y-61302D02*
X52631Y-60802D01*
X52750Y-60802D01*
X52822Y-60826D01*
X52869Y-60874D01*
X52893Y-60921D01*
X52917Y-61017D01*
X52917Y-61088D01*
X52893Y-61183D01*
X52869Y-61231D01*
X52822Y-61279D01*
X52750Y-61302D01*
X52631Y-61302D01*
X53202Y-61017D02*
X53155Y-60993D01*
X53131Y-60969D01*
X53107Y-60921D01*
X53107Y-60898D01*
X53131Y-60850D01*
X53155Y-60826D01*
X53202Y-60802D01*
X53298Y-60802D01*
X53345Y-60826D01*
X53369Y-60850D01*
X53393Y-60898D01*
X53393Y-60921D01*
X53369Y-60969D01*
X53345Y-60993D01*
X53298Y-61017D01*
X53202Y-61017D01*
X53155Y-61040D01*
X53131Y-61064D01*
X53107Y-61112D01*
X53107Y-61207D01*
X53131Y-61255D01*
X53155Y-61279D01*
X53202Y-61302D01*
X53298Y-61302D01*
X53345Y-61279D01*
X53369Y-61255D01*
X53393Y-61207D01*
X53393Y-61112D01*
X53369Y-61064D01*
X53345Y-61040D01*
X53298Y-61017D01*
X61393Y-52702D02*
X61393Y-52202D01*
X61512Y-52202D01*
X61584Y-52226D01*
X61631Y-52274D01*
X61655Y-52321D01*
X61679Y-52417D01*
X61679Y-52488D01*
X61655Y-52583D01*
X61631Y-52631D01*
X61584Y-52679D01*
X61512Y-52702D01*
X61393Y-52702D01*
X62155Y-52702D02*
X61869Y-52702D01*
X62012Y-52702D02*
X62012Y-52202D01*
X61964Y-52274D01*
X61917Y-52321D01*
X61869Y-52345D01*
X62631Y-52702D02*
X62345Y-52702D01*
X62488Y-52702D02*
X62488Y-52202D01*
X62440Y-52274D01*
X62393Y-52321D01*
X62345Y-52345D01*
X61393Y-61302D02*
X61393Y-60802D01*
X61512Y-60802D01*
X61584Y-60826D01*
X61631Y-60874D01*
X61655Y-60921D01*
X61679Y-61017D01*
X61679Y-61088D01*
X61655Y-61183D01*
X61631Y-61231D01*
X61584Y-61279D01*
X61512Y-61302D01*
X61393Y-61302D01*
X62155Y-61302D02*
X61869Y-61302D01*
X62012Y-61302D02*
X62012Y-60802D01*
X61964Y-60874D01*
X61917Y-60921D01*
X61869Y-60945D01*
X62345Y-60850D02*
X62369Y-60826D01*
X62417Y-60802D01*
X62536Y-60802D01*
X62583Y-60826D01*
X62607Y-60850D01*
X62631Y-60898D01*
X62631Y-60945D01*
X62607Y-61017D01*
X62321Y-61302D01*
X62631Y-61302D01*
X65893Y-61302D02*
X65893Y-60802D01*
X66012Y-60802D01*
X66084Y-60826D01*
X66131Y-60874D01*
X66155Y-60921D01*
X66179Y-61017D01*
X66179Y-61088D01*
X66155Y-61183D01*
X66131Y-61231D01*
X66084Y-61279D01*
X66012Y-61302D01*
X65893Y-61302D01*
X66655Y-61302D02*
X66369Y-61302D01*
X66512Y-61302D02*
X66512Y-60802D01*
X66464Y-60874D01*
X66417Y-60921D01*
X66369Y-60945D01*
X66821Y-60802D02*
X67131Y-60802D01*
X66964Y-60993D01*
X67036Y-60993D01*
X67083Y-61017D01*
X67107Y-61040D01*
X67131Y-61088D01*
X67131Y-61207D01*
X67107Y-61255D01*
X67083Y-61279D01*
X67036Y-61302D01*
X66893Y-61302D01*
X66845Y-61279D01*
X66821Y-61255D01*
X65893Y-52702D02*
X65893Y-52202D01*
X66012Y-52202D01*
X66084Y-52226D01*
X66131Y-52274D01*
X66155Y-52321D01*
X66179Y-52417D01*
X66179Y-52488D01*
X66155Y-52583D01*
X66131Y-52631D01*
X66084Y-52679D01*
X66012Y-52702D01*
X65893Y-52702D01*
X66655Y-52702D02*
X66369Y-52702D01*
X66512Y-52702D02*
X66512Y-52202D01*
X66464Y-52274D01*
X66417Y-52321D01*
X66369Y-52345D01*
X67083Y-52369D02*
X67083Y-52702D01*
X66964Y-52179D02*
X66845Y-52536D01*
X67155Y-52536D01*
X70393Y-52702D02*
X70393Y-52202D01*
X70512Y-52202D01*
X70584Y-52226D01*
X70631Y-52274D01*
X70655Y-52321D01*
X70679Y-52417D01*
X70679Y-52488D01*
X70655Y-52583D01*
X70631Y-52631D01*
X70584Y-52679D01*
X70512Y-52702D01*
X70393Y-52702D01*
X71155Y-52702D02*
X70869Y-52702D01*
X71012Y-52702D02*
X71012Y-52202D01*
X70964Y-52274D01*
X70917Y-52321D01*
X70869Y-52345D01*
X71607Y-52202D02*
X71369Y-52202D01*
X71345Y-52440D01*
X71369Y-52417D01*
X71417Y-52393D01*
X71536Y-52393D01*
X71583Y-52417D01*
X71607Y-52440D01*
X71631Y-52488D01*
X71631Y-52607D01*
X71607Y-52655D01*
X71583Y-52679D01*
X71536Y-52702D01*
X71417Y-52702D01*
X71369Y-52679D01*
X71345Y-52655D01*
X70393Y-61302D02*
X70393Y-60802D01*
X70512Y-60802D01*
X70584Y-60826D01*
X70631Y-60874D01*
X70655Y-60921D01*
X70679Y-61017D01*
X70679Y-61088D01*
X70655Y-61183D01*
X70631Y-61231D01*
X70584Y-61279D01*
X70512Y-61302D01*
X70393Y-61302D01*
X71155Y-61302D02*
X70869Y-61302D01*
X71012Y-61302D02*
X71012Y-60802D01*
X70964Y-60874D01*
X70917Y-60921D01*
X70869Y-60945D01*
X71583Y-60802D02*
X71488Y-60802D01*
X71440Y-60826D01*
X71417Y-60850D01*
X71369Y-60921D01*
X71345Y-61017D01*
X71345Y-61207D01*
X71369Y-61255D01*
X71393Y-61279D01*
X71440Y-61302D01*
X71536Y-61302D01*
X71583Y-61279D01*
X71607Y-61255D01*
X71631Y-61207D01*
X71631Y-61088D01*
X71607Y-61040D01*
X71583Y-61017D01*
X71536Y-60993D01*
X71440Y-60993D01*
X71393Y-61017D01*
X71369Y-61040D01*
X71345Y-61088D01*
X92393Y-61302D02*
X92393Y-60802D01*
X92512Y-60802D01*
X92584Y-60826D01*
X92631Y-60874D01*
X92655Y-60921D01*
X92679Y-61017D01*
X92679Y-61088D01*
X92655Y-61183D01*
X92631Y-61231D01*
X92584Y-61279D01*
X92512Y-61302D01*
X92393Y-61302D01*
X93155Y-61302D02*
X92869Y-61302D01*
X93012Y-61302D02*
X93012Y-60802D01*
X92964Y-60874D01*
X92917Y-60921D01*
X92869Y-60945D01*
X93321Y-60802D02*
X93655Y-60802D01*
X93440Y-61302D01*
X92393Y-52702D02*
X92393Y-52202D01*
X92512Y-52202D01*
X92584Y-52226D01*
X92631Y-52274D01*
X92655Y-52321D01*
X92679Y-52417D01*
X92679Y-52488D01*
X92655Y-52583D01*
X92631Y-52631D01*
X92584Y-52679D01*
X92512Y-52702D01*
X92393Y-52702D01*
X93155Y-52702D02*
X92869Y-52702D01*
X93012Y-52702D02*
X93012Y-52202D01*
X92964Y-52274D01*
X92917Y-52321D01*
X92869Y-52345D01*
X93440Y-52417D02*
X93393Y-52393D01*
X93369Y-52369D01*
X93345Y-52321D01*
X93345Y-52298D01*
X93369Y-52250D01*
X93393Y-52226D01*
X93440Y-52202D01*
X93536Y-52202D01*
X93583Y-52226D01*
X93607Y-52250D01*
X93631Y-52298D01*
X93631Y-52321D01*
X93607Y-52369D01*
X93583Y-52393D01*
X93536Y-52417D01*
X93440Y-52417D01*
X93393Y-52440D01*
X93369Y-52464D01*
X93345Y-52512D01*
X93345Y-52607D01*
X93369Y-52655D01*
X93393Y-52679D01*
X93440Y-52702D01*
X93536Y-52702D01*
X93583Y-52679D01*
X93607Y-52655D01*
X93631Y-52607D01*
X93631Y-52512D01*
X93607Y-52464D01*
X93583Y-52440D01*
X93536Y-52417D01*
X96893Y-52702D02*
X96893Y-52202D01*
X97012Y-52202D01*
X97084Y-52226D01*
X97131Y-52274D01*
X97155Y-52321D01*
X97179Y-52417D01*
X97179Y-52488D01*
X97155Y-52583D01*
X97131Y-52631D01*
X97084Y-52679D01*
X97012Y-52702D01*
X96893Y-52702D01*
X97655Y-52702D02*
X97369Y-52702D01*
X97512Y-52702D02*
X97512Y-52202D01*
X97464Y-52274D01*
X97417Y-52321D01*
X97369Y-52345D01*
X97893Y-52702D02*
X97988Y-52702D01*
X98036Y-52679D01*
X98060Y-52655D01*
X98107Y-52583D01*
X98131Y-52488D01*
X98131Y-52298D01*
X98107Y-52250D01*
X98083Y-52226D01*
X98036Y-52202D01*
X97940Y-52202D01*
X97893Y-52226D01*
X97869Y-52250D01*
X97845Y-52298D01*
X97845Y-52417D01*
X97869Y-52464D01*
X97893Y-52488D01*
X97940Y-52512D01*
X98036Y-52512D01*
X98083Y-52488D01*
X98107Y-52464D01*
X98131Y-52417D01*
X96893Y-61302D02*
X96893Y-60802D01*
X97012Y-60802D01*
X97084Y-60826D01*
X97131Y-60874D01*
X97155Y-60921D01*
X97179Y-61017D01*
X97179Y-61088D01*
X97155Y-61183D01*
X97131Y-61231D01*
X97084Y-61279D01*
X97012Y-61302D01*
X96893Y-61302D01*
X97369Y-60850D02*
X97393Y-60826D01*
X97441Y-60802D01*
X97560Y-60802D01*
X97607Y-60826D01*
X97631Y-60850D01*
X97655Y-60898D01*
X97655Y-60945D01*
X97631Y-61017D01*
X97345Y-61302D01*
X97655Y-61302D01*
X97964Y-60802D02*
X98012Y-60802D01*
X98060Y-60826D01*
X98083Y-60850D01*
X98107Y-60898D01*
X98131Y-60993D01*
X98131Y-61112D01*
X98107Y-61207D01*
X98083Y-61255D01*
X98060Y-61279D01*
X98012Y-61302D01*
X97964Y-61302D01*
X97917Y-61279D01*
X97893Y-61255D01*
X97869Y-61207D01*
X97845Y-61112D01*
X97845Y-60993D01*
X97869Y-60898D01*
X97893Y-60850D01*
X97917Y-60826D01*
X97964Y-60802D01*
X101293Y-61302D02*
X101293Y-60802D01*
X101412Y-60802D01*
X101484Y-60826D01*
X101531Y-60874D01*
X101555Y-60921D01*
X101579Y-61017D01*
X101579Y-61088D01*
X101555Y-61183D01*
X101531Y-61231D01*
X101484Y-61279D01*
X101412Y-61302D01*
X101293Y-61302D01*
X101769Y-60850D02*
X101793Y-60826D01*
X101841Y-60802D01*
X101960Y-60802D01*
X102007Y-60826D01*
X102031Y-60850D01*
X102055Y-60898D01*
X102055Y-60945D01*
X102031Y-61017D01*
X101745Y-61302D01*
X102055Y-61302D01*
X102531Y-61302D02*
X102245Y-61302D01*
X102388Y-61302D02*
X102388Y-60802D01*
X102340Y-60874D01*
X102293Y-60921D01*
X102245Y-60945D01*
X101293Y-52702D02*
X101293Y-52202D01*
X101412Y-52202D01*
X101484Y-52226D01*
X101531Y-52274D01*
X101555Y-52321D01*
X101579Y-52417D01*
X101579Y-52488D01*
X101555Y-52583D01*
X101531Y-52631D01*
X101484Y-52679D01*
X101412Y-52702D01*
X101293Y-52702D01*
X101769Y-52250D02*
X101793Y-52226D01*
X101841Y-52202D01*
X101960Y-52202D01*
X102007Y-52226D01*
X102031Y-52250D01*
X102055Y-52298D01*
X102055Y-52345D01*
X102031Y-52417D01*
X101745Y-52702D01*
X102055Y-52702D01*
X102245Y-52250D02*
X102269Y-52226D01*
X102317Y-52202D01*
X102436Y-52202D01*
X102483Y-52226D01*
X102507Y-52250D01*
X102531Y-52298D01*
X102531Y-52345D01*
X102507Y-52417D01*
X102221Y-52702D01*
X102531Y-52702D01*
X105893Y-52702D02*
X105893Y-52202D01*
X106012Y-52202D01*
X106084Y-52226D01*
X106131Y-52274D01*
X106155Y-52321D01*
X106179Y-52417D01*
X106179Y-52488D01*
X106155Y-52583D01*
X106131Y-52631D01*
X106084Y-52679D01*
X106012Y-52702D01*
X105893Y-52702D01*
X106369Y-52250D02*
X106393Y-52226D01*
X106441Y-52202D01*
X106560Y-52202D01*
X106607Y-52226D01*
X106631Y-52250D01*
X106655Y-52298D01*
X106655Y-52345D01*
X106631Y-52417D01*
X106345Y-52702D01*
X106655Y-52702D01*
X106821Y-52202D02*
X107131Y-52202D01*
X106964Y-52393D01*
X107036Y-52393D01*
X107083Y-52417D01*
X107107Y-52440D01*
X107131Y-52488D01*
X107131Y-52607D01*
X107107Y-52655D01*
X107083Y-52679D01*
X107036Y-52702D01*
X106893Y-52702D01*
X106845Y-52679D01*
X106821Y-52655D01*
X105893Y-61302D02*
X105893Y-60802D01*
X106012Y-60802D01*
X106084Y-60826D01*
X106131Y-60874D01*
X106155Y-60921D01*
X106179Y-61017D01*
X106179Y-61088D01*
X106155Y-61183D01*
X106131Y-61231D01*
X106084Y-61279D01*
X106012Y-61302D01*
X105893Y-61302D01*
X106369Y-60850D02*
X106393Y-60826D01*
X106441Y-60802D01*
X106560Y-60802D01*
X106607Y-60826D01*
X106631Y-60850D01*
X106655Y-60898D01*
X106655Y-60945D01*
X106631Y-61017D01*
X106345Y-61302D01*
X106655Y-61302D01*
X107083Y-60969D02*
X107083Y-61302D01*
X106964Y-60779D02*
X106845Y-61136D01*
X107155Y-61136D01*
X110393Y-61302D02*
X110393Y-60802D01*
X110512Y-60802D01*
X110584Y-60826D01*
X110631Y-60874D01*
X110655Y-60921D01*
X110679Y-61017D01*
X110679Y-61088D01*
X110655Y-61183D01*
X110631Y-61231D01*
X110584Y-61279D01*
X110512Y-61302D01*
X110393Y-61302D01*
X110869Y-60850D02*
X110893Y-60826D01*
X110941Y-60802D01*
X111060Y-60802D01*
X111107Y-60826D01*
X111131Y-60850D01*
X111155Y-60898D01*
X111155Y-60945D01*
X111131Y-61017D01*
X110845Y-61302D01*
X111155Y-61302D01*
X111607Y-60802D02*
X111369Y-60802D01*
X111345Y-61040D01*
X111369Y-61017D01*
X111417Y-60993D01*
X111536Y-60993D01*
X111583Y-61017D01*
X111607Y-61040D01*
X111631Y-61088D01*
X111631Y-61207D01*
X111607Y-61255D01*
X111583Y-61279D01*
X111536Y-61302D01*
X111417Y-61302D01*
X111369Y-61279D01*
X111345Y-61255D01*
X110393Y-52702D02*
X110393Y-52202D01*
X110512Y-52202D01*
X110584Y-52226D01*
X110631Y-52274D01*
X110655Y-52321D01*
X110679Y-52417D01*
X110679Y-52488D01*
X110655Y-52583D01*
X110631Y-52631D01*
X110584Y-52679D01*
X110512Y-52702D01*
X110393Y-52702D01*
X110869Y-52250D02*
X110893Y-52226D01*
X110941Y-52202D01*
X111060Y-52202D01*
X111107Y-52226D01*
X111131Y-52250D01*
X111155Y-52298D01*
X111155Y-52345D01*
X111131Y-52417D01*
X110845Y-52702D01*
X111155Y-52702D01*
X111583Y-52202D02*
X111488Y-52202D01*
X111440Y-52226D01*
X111417Y-52250D01*
X111369Y-52321D01*
X111345Y-52417D01*
X111345Y-52607D01*
X111369Y-52655D01*
X111393Y-52679D01*
X111440Y-52702D01*
X111536Y-52702D01*
X111583Y-52679D01*
X111607Y-52655D01*
X111631Y-52607D01*
X111631Y-52488D01*
X111607Y-52440D01*
X111583Y-52417D01*
X111536Y-52393D01*
X111440Y-52393D01*
X111393Y-52417D01*
X111369Y-52440D01*
X111345Y-52488D01*
X114993Y-52702D02*
X114993Y-52202D01*
X115112Y-52202D01*
X115184Y-52226D01*
X115231Y-52274D01*
X115255Y-52321D01*
X115279Y-52417D01*
X115279Y-52488D01*
X115255Y-52583D01*
X115231Y-52631D01*
X115184Y-52679D01*
X115112Y-52702D01*
X114993Y-52702D01*
X115469Y-52250D02*
X115493Y-52226D01*
X115541Y-52202D01*
X115660Y-52202D01*
X115707Y-52226D01*
X115731Y-52250D01*
X115755Y-52298D01*
X115755Y-52345D01*
X115731Y-52417D01*
X115445Y-52702D01*
X115755Y-52702D01*
X115921Y-52202D02*
X116255Y-52202D01*
X116040Y-52702D01*
X114993Y-61302D02*
X114993Y-60802D01*
X115112Y-60802D01*
X115184Y-60826D01*
X115231Y-60874D01*
X115255Y-60921D01*
X115279Y-61017D01*
X115279Y-61088D01*
X115255Y-61183D01*
X115231Y-61231D01*
X115184Y-61279D01*
X115112Y-61302D01*
X114993Y-61302D01*
X115469Y-60850D02*
X115493Y-60826D01*
X115541Y-60802D01*
X115660Y-60802D01*
X115707Y-60826D01*
X115731Y-60850D01*
X115755Y-60898D01*
X115755Y-60945D01*
X115731Y-61017D01*
X115445Y-61302D01*
X115755Y-61302D01*
X116040Y-61017D02*
X115993Y-60993D01*
X115969Y-60969D01*
X115945Y-60921D01*
X115945Y-60898D01*
X115969Y-60850D01*
X115993Y-60826D01*
X116040Y-60802D01*
X116136Y-60802D01*
X116183Y-60826D01*
X116207Y-60850D01*
X116231Y-60898D01*
X116231Y-60921D01*
X116207Y-60969D01*
X116183Y-60993D01*
X116136Y-61017D01*
X116040Y-61017D01*
X115993Y-61040D01*
X115969Y-61064D01*
X115945Y-61112D01*
X115945Y-61207D01*
X115969Y-61255D01*
X115993Y-61279D01*
X116040Y-61302D01*
X116136Y-61302D01*
X116183Y-61279D01*
X116207Y-61255D01*
X116231Y-61207D01*
X116231Y-61112D01*
X116207Y-61064D01*
X116183Y-61040D01*
X116136Y-61017D01*
X119393Y-61302D02*
X119393Y-60802D01*
X119512Y-60802D01*
X119584Y-60826D01*
X119631Y-60874D01*
X119655Y-60921D01*
X119679Y-61017D01*
X119679Y-61088D01*
X119655Y-61183D01*
X119631Y-61231D01*
X119584Y-61279D01*
X119512Y-61302D01*
X119393Y-61302D01*
X119869Y-60850D02*
X119893Y-60826D01*
X119941Y-60802D01*
X120060Y-60802D01*
X120107Y-60826D01*
X120131Y-60850D01*
X120155Y-60898D01*
X120155Y-60945D01*
X120131Y-61017D01*
X119845Y-61302D01*
X120155Y-61302D01*
X120393Y-61302D02*
X120488Y-61302D01*
X120536Y-61279D01*
X120560Y-61255D01*
X120607Y-61183D01*
X120631Y-61088D01*
X120631Y-60898D01*
X120607Y-60850D01*
X120583Y-60826D01*
X120536Y-60802D01*
X120440Y-60802D01*
X120393Y-60826D01*
X120369Y-60850D01*
X120345Y-60898D01*
X120345Y-61017D01*
X120369Y-61064D01*
X120393Y-61088D01*
X120440Y-61112D01*
X120536Y-61112D01*
X120583Y-61088D01*
X120607Y-61064D01*
X120631Y-61017D01*
X119393Y-52702D02*
X119393Y-52202D01*
X119512Y-52202D01*
X119584Y-52226D01*
X119631Y-52274D01*
X119655Y-52321D01*
X119679Y-52417D01*
X119679Y-52488D01*
X119655Y-52583D01*
X119631Y-52631D01*
X119584Y-52679D01*
X119512Y-52702D01*
X119393Y-52702D01*
X119845Y-52202D02*
X120155Y-52202D01*
X119988Y-52393D01*
X120060Y-52393D01*
X120107Y-52417D01*
X120131Y-52440D01*
X120155Y-52488D01*
X120155Y-52607D01*
X120131Y-52655D01*
X120107Y-52679D01*
X120060Y-52702D01*
X119917Y-52702D01*
X119869Y-52679D01*
X119845Y-52655D01*
X120464Y-52202D02*
X120512Y-52202D01*
X120560Y-52226D01*
X120583Y-52250D01*
X120607Y-52298D01*
X120631Y-52393D01*
X120631Y-52512D01*
X120607Y-52607D01*
X120583Y-52655D01*
X120560Y-52679D01*
X120512Y-52702D01*
X120464Y-52702D01*
X120417Y-52679D01*
X120393Y-52655D01*
X120369Y-52607D01*
X120345Y-52512D01*
X120345Y-52393D01*
X120369Y-52298D01*
X120393Y-52250D01*
X120417Y-52226D01*
X120464Y-52202D01*
X123893Y-52702D02*
X123893Y-52202D01*
X124012Y-52202D01*
X124084Y-52226D01*
X124131Y-52274D01*
X124155Y-52321D01*
X124179Y-52417D01*
X124179Y-52488D01*
X124155Y-52583D01*
X124131Y-52631D01*
X124084Y-52679D01*
X124012Y-52702D01*
X123893Y-52702D01*
X124345Y-52202D02*
X124655Y-52202D01*
X124488Y-52393D01*
X124560Y-52393D01*
X124607Y-52417D01*
X124631Y-52440D01*
X124655Y-52488D01*
X124655Y-52607D01*
X124631Y-52655D01*
X124607Y-52679D01*
X124560Y-52702D01*
X124417Y-52702D01*
X124369Y-52679D01*
X124345Y-52655D01*
X125131Y-52702D02*
X124845Y-52702D01*
X124988Y-52702D02*
X124988Y-52202D01*
X124940Y-52274D01*
X124893Y-52321D01*
X124845Y-52345D01*
X123893Y-61302D02*
X123893Y-60802D01*
X124012Y-60802D01*
X124084Y-60826D01*
X124131Y-60874D01*
X124155Y-60921D01*
X124179Y-61017D01*
X124179Y-61088D01*
X124155Y-61183D01*
X124131Y-61231D01*
X124084Y-61279D01*
X124012Y-61302D01*
X123893Y-61302D01*
X124345Y-60802D02*
X124655Y-60802D01*
X124488Y-60993D01*
X124560Y-60993D01*
X124607Y-61017D01*
X124631Y-61040D01*
X124655Y-61088D01*
X124655Y-61207D01*
X124631Y-61255D01*
X124607Y-61279D01*
X124560Y-61302D01*
X124417Y-61302D01*
X124369Y-61279D01*
X124345Y-61255D01*
X124845Y-60850D02*
X124869Y-60826D01*
X124917Y-60802D01*
X125036Y-60802D01*
X125083Y-60826D01*
X125107Y-60850D01*
X125131Y-60898D01*
X125131Y-60945D01*
X125107Y-61017D01*
X124821Y-61302D01*
X125131Y-61302D01*
X131993Y-62802D02*
X131993Y-62302D01*
X132112Y-62302D01*
X132184Y-62326D01*
X132231Y-62374D01*
X132255Y-62421D01*
X132279Y-62517D01*
X132279Y-62588D01*
X132255Y-62683D01*
X132231Y-62731D01*
X132184Y-62779D01*
X132112Y-62802D01*
X131993Y-62802D01*
X132469Y-62779D02*
X132541Y-62802D01*
X132660Y-62802D01*
X132707Y-62779D01*
X132731Y-62755D01*
X132755Y-62707D01*
X132755Y-62660D01*
X132731Y-62612D01*
X132707Y-62588D01*
X132660Y-62564D01*
X132564Y-62540D01*
X132517Y-62517D01*
X132493Y-62493D01*
X132469Y-62445D01*
X132469Y-62398D01*
X132493Y-62350D01*
X132517Y-62326D01*
X132564Y-62302D01*
X132684Y-62302D01*
X132755Y-62326D01*
X132945Y-62350D02*
X132969Y-62326D01*
X133017Y-62302D01*
X133136Y-62302D01*
X133183Y-62326D01*
X133207Y-62350D01*
X133231Y-62398D01*
X133231Y-62445D01*
X133207Y-62517D01*
X132921Y-62802D01*
X133231Y-62802D01*
X30893Y-62802D02*
X30893Y-62302D01*
X31012Y-62302D01*
X31084Y-62326D01*
X31131Y-62374D01*
X31155Y-62421D01*
X31179Y-62517D01*
X31179Y-62588D01*
X31155Y-62683D01*
X31131Y-62731D01*
X31084Y-62779D01*
X31012Y-62802D01*
X30893Y-62802D01*
X31369Y-62779D02*
X31441Y-62802D01*
X31560Y-62802D01*
X31607Y-62779D01*
X31631Y-62755D01*
X31655Y-62707D01*
X31655Y-62660D01*
X31631Y-62612D01*
X31607Y-62588D01*
X31560Y-62564D01*
X31464Y-62540D01*
X31417Y-62517D01*
X31393Y-62493D01*
X31369Y-62445D01*
X31369Y-62398D01*
X31393Y-62350D01*
X31417Y-62326D01*
X31464Y-62302D01*
X31584Y-62302D01*
X31655Y-62326D01*
X32131Y-62802D02*
X31845Y-62802D01*
X31988Y-62802D02*
X31988Y-62302D01*
X31940Y-62374D01*
X31893Y-62421D01*
X31845Y-62445D01*
G54D20*
X85313Y-53229D02*
X85180Y-53289D01*
X85313Y-53332D02*
X85033Y-53332D01*
X85033Y-53264D01*
X85047Y-53246D01*
X85060Y-53238D01*
X85087Y-53229D01*
X85127Y-53229D01*
X85153Y-53238D01*
X85167Y-53246D01*
X85180Y-53264D01*
X85180Y-53332D01*
X85313Y-53058D02*
X85313Y-53161D01*
X85313Y-53109D02*
X85033Y-53109D01*
X85073Y-53126D01*
X85100Y-53144D01*
X85113Y-53161D01*
X72871Y-55913D02*
X72811Y-55780D01*
X72768Y-55913D02*
X72768Y-55633D01*
X72836Y-55633D01*
X72854Y-55647D01*
X72862Y-55660D01*
X72871Y-55687D01*
X72871Y-55727D01*
X72862Y-55753D01*
X72854Y-55767D01*
X72836Y-55780D01*
X72768Y-55780D01*
X72931Y-55633D02*
X73042Y-55633D01*
X72982Y-55740D01*
X73008Y-55740D01*
X73025Y-55753D01*
X73034Y-55767D01*
X73042Y-55793D01*
X73042Y-55860D01*
X73034Y-55887D01*
X73025Y-55900D01*
X73008Y-55913D01*
X72956Y-55913D01*
X72939Y-55900D01*
X72931Y-55887D01*
X73971Y-57213D02*
X73911Y-57080D01*
X73868Y-57213D02*
X73868Y-56933D01*
X73936Y-56933D01*
X73954Y-56947D01*
X73962Y-56960D01*
X73971Y-56987D01*
X73971Y-57027D01*
X73962Y-57053D01*
X73954Y-57067D01*
X73936Y-57080D01*
X73868Y-57080D01*
X74125Y-56933D02*
X74091Y-56933D01*
X74074Y-56947D01*
X74065Y-56960D01*
X74048Y-57000D01*
X74039Y-57053D01*
X74039Y-57160D01*
X74048Y-57187D01*
X74056Y-57200D01*
X74074Y-57213D01*
X74108Y-57213D01*
X74125Y-57200D01*
X74134Y-57187D01*
X74142Y-57160D01*
X74142Y-57093D01*
X74134Y-57067D01*
X74125Y-57053D01*
X74108Y-57040D01*
X74074Y-57040D01*
X74056Y-57053D01*
X74048Y-57067D01*
X74039Y-57093D01*
X73971Y-59013D02*
X73911Y-58880D01*
X73868Y-59013D02*
X73868Y-58733D01*
X73936Y-58733D01*
X73954Y-58747D01*
X73962Y-58760D01*
X73971Y-58787D01*
X73971Y-58827D01*
X73962Y-58853D01*
X73954Y-58867D01*
X73936Y-58880D01*
X73868Y-58880D01*
X74074Y-58853D02*
X74056Y-58840D01*
X74048Y-58827D01*
X74039Y-58800D01*
X74039Y-58787D01*
X74048Y-58760D01*
X74056Y-58747D01*
X74074Y-58733D01*
X74108Y-58733D01*
X74125Y-58747D01*
X74134Y-58760D01*
X74142Y-58787D01*
X74142Y-58800D01*
X74134Y-58827D01*
X74125Y-58840D01*
X74108Y-58853D01*
X74074Y-58853D01*
X74056Y-58867D01*
X74048Y-58880D01*
X74039Y-58907D01*
X74039Y-58960D01*
X74048Y-58987D01*
X74056Y-59000D01*
X74074Y-59013D01*
X74108Y-59013D01*
X74125Y-59000D01*
X74134Y-58987D01*
X74142Y-58960D01*
X74142Y-58907D01*
X74134Y-58880D01*
X74125Y-58867D01*
X74108Y-58853D01*
X79871Y-60613D02*
X79811Y-60480D01*
X79768Y-60613D02*
X79768Y-60333D01*
X79836Y-60333D01*
X79854Y-60347D01*
X79862Y-60360D01*
X79871Y-60387D01*
X79871Y-60427D01*
X79862Y-60453D01*
X79854Y-60467D01*
X79836Y-60480D01*
X79768Y-60480D01*
X79956Y-60613D02*
X79991Y-60613D01*
X80008Y-60600D01*
X80016Y-60587D01*
X80034Y-60547D01*
X80042Y-60493D01*
X80042Y-60387D01*
X80034Y-60360D01*
X80025Y-60347D01*
X80008Y-60333D01*
X79974Y-60333D01*
X79956Y-60347D01*
X79948Y-60360D01*
X79939Y-60387D01*
X79939Y-60453D01*
X79948Y-60480D01*
X79956Y-60493D01*
X79974Y-60507D01*
X80008Y-60507D01*
X80025Y-60493D01*
X80034Y-60480D01*
X80042Y-60453D01*
X80313Y-59015D02*
X80180Y-59075D01*
X80313Y-59118D02*
X80033Y-59118D01*
X80033Y-59050D01*
X80047Y-59032D01*
X80060Y-59024D01*
X80087Y-59015D01*
X80127Y-59015D01*
X80153Y-59024D01*
X80167Y-59032D01*
X80180Y-59050D01*
X80180Y-59118D01*
X80313Y-58844D02*
X80313Y-58947D01*
X80313Y-58895D02*
X80033Y-58895D01*
X80073Y-58912D01*
X80100Y-58930D01*
X80113Y-58947D01*
X80313Y-58673D02*
X80313Y-58776D01*
X80313Y-58724D02*
X80033Y-58724D01*
X80073Y-58741D01*
X80100Y-58759D01*
X80113Y-58776D01*
X79385Y-57413D02*
X79325Y-57280D01*
X79282Y-57413D02*
X79282Y-57133D01*
X79350Y-57133D01*
X79368Y-57147D01*
X79376Y-57160D01*
X79385Y-57187D01*
X79385Y-57227D01*
X79376Y-57253D01*
X79368Y-57267D01*
X79350Y-57280D01*
X79282Y-57280D01*
X79556Y-57413D02*
X79453Y-57413D01*
X79505Y-57413D02*
X79505Y-57133D01*
X79488Y-57173D01*
X79470Y-57200D01*
X79453Y-57213D01*
X79616Y-57133D02*
X79727Y-57133D01*
X79667Y-57240D01*
X79693Y-57240D01*
X79710Y-57253D01*
X79719Y-57267D01*
X79727Y-57293D01*
X79727Y-57360D01*
X79719Y-57387D01*
X79710Y-57400D01*
X79693Y-57413D01*
X79641Y-57413D01*
X79624Y-57400D01*
X79616Y-57387D01*
X79385Y-56413D02*
X79325Y-56280D01*
X79282Y-56413D02*
X79282Y-56133D01*
X79350Y-56133D01*
X79368Y-56147D01*
X79376Y-56160D01*
X79385Y-56187D01*
X79385Y-56227D01*
X79376Y-56253D01*
X79368Y-56267D01*
X79350Y-56280D01*
X79282Y-56280D01*
X79556Y-56413D02*
X79453Y-56413D01*
X79505Y-56413D02*
X79505Y-56133D01*
X79488Y-56173D01*
X79470Y-56200D01*
X79453Y-56213D01*
X79719Y-56133D02*
X79633Y-56133D01*
X79624Y-56267D01*
X79633Y-56253D01*
X79650Y-56240D01*
X79693Y-56240D01*
X79710Y-56253D01*
X79719Y-56267D01*
X79727Y-56293D01*
X79727Y-56360D01*
X79719Y-56387D01*
X79710Y-56400D01*
X79693Y-56413D01*
X79650Y-56413D01*
X79633Y-56400D01*
X79624Y-56387D01*
X80413Y-55915D02*
X80280Y-55975D01*
X80413Y-56018D02*
X80133Y-56018D01*
X80133Y-55950D01*
X80147Y-55932D01*
X80160Y-55924D01*
X80187Y-55915D01*
X80227Y-55915D01*
X80253Y-55924D01*
X80267Y-55932D01*
X80280Y-55950D01*
X80280Y-56018D01*
X80413Y-55744D02*
X80413Y-55847D01*
X80413Y-55795D02*
X80133Y-55795D01*
X80173Y-55812D01*
X80200Y-55830D01*
X80213Y-55847D01*
X80133Y-55684D02*
X80133Y-55564D01*
X80413Y-55641D01*
X79985Y-54413D02*
X79925Y-54280D01*
X79882Y-54413D02*
X79882Y-54133D01*
X79950Y-54133D01*
X79968Y-54147D01*
X79976Y-54160D01*
X79985Y-54187D01*
X79985Y-54227D01*
X79976Y-54253D01*
X79968Y-54267D01*
X79950Y-54280D01*
X79882Y-54280D01*
X80156Y-54413D02*
X80053Y-54413D01*
X80105Y-54413D02*
X80105Y-54133D01*
X80088Y-54173D01*
X80070Y-54200D01*
X80053Y-54213D01*
X80259Y-54253D02*
X80241Y-54240D01*
X80233Y-54227D01*
X80224Y-54200D01*
X80224Y-54187D01*
X80233Y-54160D01*
X80241Y-54147D01*
X80259Y-54133D01*
X80293Y-54133D01*
X80310Y-54147D01*
X80319Y-54160D01*
X80327Y-54187D01*
X80327Y-54200D01*
X80319Y-54227D01*
X80310Y-54240D01*
X80293Y-54253D01*
X80259Y-54253D01*
X80241Y-54267D01*
X80233Y-54280D01*
X80224Y-54307D01*
X80224Y-54360D01*
X80233Y-54387D01*
X80241Y-54400D01*
X80259Y-54413D01*
X80293Y-54413D01*
X80310Y-54400D01*
X80319Y-54387D01*
X80327Y-54360D01*
X80327Y-54307D01*
X80319Y-54280D01*
X80310Y-54267D01*
X80293Y-54253D01*
G54D11*
X129503Y-51802D02*
X129336Y-51564D01*
X129217Y-51802D02*
X129217Y-51302D01*
X129408Y-51302D01*
X129455Y-51326D01*
X129479Y-51350D01*
X129503Y-51398D01*
X129503Y-51469D01*
X129479Y-51517D01*
X129455Y-51540D01*
X129408Y-51564D01*
X129217Y-51564D01*
X130074Y-51279D02*
X129646Y-51921D01*
X130170Y-51302D02*
X130455Y-51302D01*
X130312Y-51802D02*
X130312Y-51302D01*
X130503Y-51850D02*
X130884Y-51850D01*
X131074Y-51802D02*
X131027Y-51779D01*
X131003Y-51731D01*
X131003Y-51302D01*
X131336Y-51802D02*
X131289Y-51779D01*
X131265Y-51755D01*
X131241Y-51707D01*
X131241Y-51564D01*
X131265Y-51517D01*
X131289Y-51493D01*
X131336Y-51469D01*
X131408Y-51469D01*
X131456Y-51493D01*
X131479Y-51517D01*
X131503Y-51564D01*
X131503Y-51707D01*
X131479Y-51755D01*
X131456Y-51779D01*
X131408Y-51802D01*
X131336Y-51802D01*
X131788Y-51802D02*
X131741Y-51779D01*
X131717Y-51755D01*
X131693Y-51707D01*
X131693Y-51564D01*
X131717Y-51517D01*
X131741Y-51493D01*
X131788Y-51469D01*
X131860Y-51469D01*
X131908Y-51493D01*
X131931Y-51517D01*
X131955Y-51564D01*
X131955Y-51707D01*
X131931Y-51755D01*
X131908Y-51779D01*
X131860Y-51802D01*
X131788Y-51802D01*
X132169Y-51469D02*
X132169Y-51969D01*
X132169Y-51493D02*
X132217Y-51469D01*
X132312Y-51469D01*
X132360Y-51493D01*
X132383Y-51517D01*
X132407Y-51564D01*
X132407Y-51707D01*
X132383Y-51755D01*
X132360Y-51779D01*
X132312Y-51802D01*
X132217Y-51802D01*
X132169Y-51779D01*
G54D20*
X31685Y-53613D02*
X31625Y-53480D01*
X31582Y-53613D02*
X31582Y-53333D01*
X31650Y-53333D01*
X31668Y-53347D01*
X31676Y-53360D01*
X31685Y-53387D01*
X31685Y-53427D01*
X31676Y-53453D01*
X31668Y-53467D01*
X31650Y-53480D01*
X31582Y-53480D01*
X31856Y-53613D02*
X31753Y-53613D01*
X31805Y-53613D02*
X31805Y-53333D01*
X31788Y-53373D01*
X31770Y-53400D01*
X31753Y-53413D01*
X31941Y-53613D02*
X31976Y-53613D01*
X31993Y-53600D01*
X32001Y-53587D01*
X32019Y-53547D01*
X32027Y-53493D01*
X32027Y-53387D01*
X32019Y-53360D01*
X32010Y-53347D01*
X31993Y-53333D01*
X31959Y-53333D01*
X31941Y-53347D01*
X31933Y-53360D01*
X31924Y-53387D01*
X31924Y-53453D01*
X31933Y-53480D01*
X31941Y-53493D01*
X31959Y-53507D01*
X31993Y-53507D01*
X32010Y-53493D01*
X32019Y-53480D01*
X32027Y-53453D01*
X33685Y-53613D02*
X33625Y-53480D01*
X33582Y-53613D02*
X33582Y-53333D01*
X33650Y-53333D01*
X33668Y-53347D01*
X33676Y-53360D01*
X33685Y-53387D01*
X33685Y-53427D01*
X33676Y-53453D01*
X33668Y-53467D01*
X33650Y-53480D01*
X33582Y-53480D01*
X33753Y-53360D02*
X33762Y-53347D01*
X33779Y-53333D01*
X33822Y-53333D01*
X33839Y-53347D01*
X33848Y-53360D01*
X33856Y-53387D01*
X33856Y-53413D01*
X33848Y-53453D01*
X33745Y-53613D01*
X33856Y-53613D01*
X33967Y-53333D02*
X33984Y-53333D01*
X34001Y-53347D01*
X34010Y-53360D01*
X34019Y-53387D01*
X34027Y-53440D01*
X34027Y-53507D01*
X34019Y-53560D01*
X34010Y-53587D01*
X34001Y-53600D01*
X33984Y-53613D01*
X33967Y-53613D01*
X33950Y-53600D01*
X33941Y-53587D01*
X33933Y-53560D01*
X33924Y-53507D01*
X33924Y-53440D01*
X33933Y-53387D01*
X33941Y-53360D01*
X33950Y-53347D01*
X33967Y-53333D01*
X78585Y-51213D02*
X78525Y-51080D01*
X78482Y-51213D02*
X78482Y-50933D01*
X78550Y-50933D01*
X78568Y-50947D01*
X78576Y-50960D01*
X78585Y-50987D01*
X78585Y-51027D01*
X78576Y-51053D01*
X78568Y-51067D01*
X78550Y-51080D01*
X78482Y-51080D01*
X78653Y-50960D02*
X78662Y-50947D01*
X78679Y-50933D01*
X78722Y-50933D01*
X78739Y-50947D01*
X78748Y-50960D01*
X78756Y-50987D01*
X78756Y-51013D01*
X78748Y-51053D01*
X78645Y-51213D01*
X78756Y-51213D01*
X78927Y-51213D02*
X78824Y-51213D01*
X78876Y-51213D02*
X78876Y-50933D01*
X78859Y-50973D01*
X78841Y-51000D01*
X78824Y-51013D01*
X83985Y-51213D02*
X83925Y-51080D01*
X83882Y-51213D02*
X83882Y-50933D01*
X83950Y-50933D01*
X83968Y-50947D01*
X83976Y-50960D01*
X83985Y-50987D01*
X83985Y-51027D01*
X83976Y-51053D01*
X83968Y-51067D01*
X83950Y-51080D01*
X83882Y-51080D01*
X84053Y-50960D02*
X84062Y-50947D01*
X84079Y-50933D01*
X84122Y-50933D01*
X84139Y-50947D01*
X84148Y-50960D01*
X84156Y-50987D01*
X84156Y-51013D01*
X84148Y-51053D01*
X84045Y-51213D01*
X84156Y-51213D01*
X84224Y-50960D02*
X84233Y-50947D01*
X84250Y-50933D01*
X84293Y-50933D01*
X84310Y-50947D01*
X84319Y-50960D01*
X84327Y-50987D01*
X84327Y-51013D01*
X84319Y-51053D01*
X84216Y-51213D01*
X84327Y-51213D01*
X89385Y-51213D02*
X89325Y-51080D01*
X89282Y-51213D02*
X89282Y-50933D01*
X89350Y-50933D01*
X89368Y-50947D01*
X89376Y-50960D01*
X89385Y-50987D01*
X89385Y-51027D01*
X89376Y-51053D01*
X89368Y-51067D01*
X89350Y-51080D01*
X89282Y-51080D01*
X89453Y-50960D02*
X89462Y-50947D01*
X89479Y-50933D01*
X89522Y-50933D01*
X89539Y-50947D01*
X89548Y-50960D01*
X89556Y-50987D01*
X89556Y-51013D01*
X89548Y-51053D01*
X89445Y-51213D01*
X89556Y-51213D01*
X89616Y-50933D02*
X89727Y-50933D01*
X89667Y-51040D01*
X89693Y-51040D01*
X89710Y-51053D01*
X89719Y-51067D01*
X89727Y-51093D01*
X89727Y-51160D01*
X89719Y-51187D01*
X89710Y-51200D01*
X89693Y-51213D01*
X89641Y-51213D01*
X89624Y-51200D01*
X89616Y-51187D01*
G54D18*
X31921Y-51865D02*
X31621Y-51865D01*
X31621Y-51793D01*
X31636Y-51750D01*
X31664Y-51722D01*
X31693Y-51707D01*
X31750Y-51693D01*
X31793Y-51693D01*
X31850Y-51707D01*
X31879Y-51722D01*
X31907Y-51750D01*
X31921Y-51793D01*
X31921Y-51865D01*
X31621Y-51593D02*
X31621Y-51407D01*
X31736Y-51507D01*
X31736Y-51465D01*
X31750Y-51436D01*
X31764Y-51422D01*
X31793Y-51407D01*
X31864Y-51407D01*
X31893Y-51422D01*
X31907Y-51436D01*
X31921Y-51465D01*
X31921Y-51550D01*
X31907Y-51579D01*
X31893Y-51593D01*
X31721Y-51150D02*
X31921Y-51150D01*
X31607Y-51221D02*
X31821Y-51293D01*
X31821Y-51107D01*
X34021Y-51865D02*
X33721Y-51865D01*
X33721Y-51793D01*
X33736Y-51750D01*
X33764Y-51722D01*
X33793Y-51707D01*
X33850Y-51693D01*
X33893Y-51693D01*
X33950Y-51707D01*
X33979Y-51722D01*
X34007Y-51750D01*
X34021Y-51793D01*
X34021Y-51865D01*
X33721Y-51593D02*
X33721Y-51407D01*
X33836Y-51507D01*
X33836Y-51465D01*
X33850Y-51436D01*
X33864Y-51422D01*
X33893Y-51407D01*
X33964Y-51407D01*
X33993Y-51422D01*
X34007Y-51436D01*
X34021Y-51465D01*
X34021Y-51550D01*
X34007Y-51579D01*
X33993Y-51593D01*
X33721Y-51136D02*
X33721Y-51279D01*
X33864Y-51293D01*
X33850Y-51279D01*
X33836Y-51250D01*
X33836Y-51179D01*
X33850Y-51150D01*
X33864Y-51136D01*
X33893Y-51121D01*
X33964Y-51121D01*
X33993Y-51136D01*
X34007Y-51150D01*
X34021Y-51179D01*
X34021Y-51250D01*
X34007Y-51279D01*
X33993Y-51293D01*
X75035Y-51221D02*
X75035Y-50921D01*
X75107Y-50921D01*
X75150Y-50936D01*
X75178Y-50964D01*
X75193Y-50993D01*
X75207Y-51050D01*
X75207Y-51093D01*
X75193Y-51150D01*
X75178Y-51179D01*
X75150Y-51207D01*
X75107Y-51221D01*
X75035Y-51221D01*
X75307Y-50921D02*
X75493Y-50921D01*
X75393Y-51036D01*
X75435Y-51036D01*
X75464Y-51050D01*
X75478Y-51064D01*
X75493Y-51093D01*
X75493Y-51164D01*
X75478Y-51193D01*
X75464Y-51207D01*
X75435Y-51221D01*
X75350Y-51221D01*
X75321Y-51207D01*
X75307Y-51193D01*
X75750Y-50921D02*
X75693Y-50921D01*
X75664Y-50936D01*
X75650Y-50950D01*
X75621Y-50993D01*
X75607Y-51050D01*
X75607Y-51164D01*
X75621Y-51193D01*
X75636Y-51207D01*
X75664Y-51221D01*
X75721Y-51221D01*
X75750Y-51207D01*
X75764Y-51193D01*
X75779Y-51164D01*
X75779Y-51093D01*
X75764Y-51064D01*
X75750Y-51050D01*
X75721Y-51036D01*
X75664Y-51036D01*
X75636Y-51050D01*
X75621Y-51064D01*
X75607Y-51093D01*
X80335Y-51221D02*
X80335Y-50921D01*
X80407Y-50921D01*
X80450Y-50936D01*
X80478Y-50964D01*
X80493Y-50993D01*
X80507Y-51050D01*
X80507Y-51093D01*
X80493Y-51150D01*
X80478Y-51179D01*
X80450Y-51207D01*
X80407Y-51221D01*
X80335Y-51221D01*
X80607Y-50921D02*
X80793Y-50921D01*
X80693Y-51036D01*
X80735Y-51036D01*
X80764Y-51050D01*
X80778Y-51064D01*
X80793Y-51093D01*
X80793Y-51164D01*
X80778Y-51193D01*
X80764Y-51207D01*
X80735Y-51221D01*
X80650Y-51221D01*
X80621Y-51207D01*
X80607Y-51193D01*
X80893Y-50921D02*
X81093Y-50921D01*
X80964Y-51221D01*
X85735Y-51221D02*
X85735Y-50921D01*
X85807Y-50921D01*
X85850Y-50936D01*
X85878Y-50964D01*
X85893Y-50993D01*
X85907Y-51050D01*
X85907Y-51093D01*
X85893Y-51150D01*
X85878Y-51179D01*
X85850Y-51207D01*
X85807Y-51221D01*
X85735Y-51221D01*
X86007Y-50921D02*
X86193Y-50921D01*
X86093Y-51036D01*
X86135Y-51036D01*
X86164Y-51050D01*
X86178Y-51064D01*
X86193Y-51093D01*
X86193Y-51164D01*
X86178Y-51193D01*
X86164Y-51207D01*
X86135Y-51221D01*
X86050Y-51221D01*
X86021Y-51207D01*
X86007Y-51193D01*
X86364Y-51050D02*
X86336Y-51036D01*
X86321Y-51021D01*
X86307Y-50993D01*
X86307Y-50979D01*
X86321Y-50950D01*
X86336Y-50936D01*
X86364Y-50921D01*
X86421Y-50921D01*
X86450Y-50936D01*
X86464Y-50950D01*
X86479Y-50979D01*
X86479Y-50993D01*
X86464Y-51021D01*
X86450Y-51036D01*
X86421Y-51050D01*
X86364Y-51050D01*
X86336Y-51064D01*
X86321Y-51079D01*
X86307Y-51107D01*
X86307Y-51164D01*
X86321Y-51193D01*
X86336Y-51207D01*
X86364Y-51221D01*
X86421Y-51221D01*
X86450Y-51207D01*
X86464Y-51193D01*
X86479Y-51164D01*
X86479Y-51107D01*
X86464Y-51079D01*
X86450Y-51064D01*
X86421Y-51050D01*
%LPC*%
G54D21*
X129300Y-57700D03*
G54D22*
X129300Y-55700D03*
G54D21*
X34800Y-57700D03*
G54D22*
X34800Y-55700D03*
G54D23*
X30000Y-53200D03*
G54D24*
X31000Y-53200D03*
X30000Y-54200D03*
X31000Y-54200D03*
X30000Y-55200D03*
X31000Y-55200D03*
X30000Y-56200D03*
X31000Y-56200D03*
X30000Y-57200D03*
X31000Y-57200D03*
X30000Y-58200D03*
X31000Y-58200D03*
X30000Y-59200D03*
X31000Y-59200D03*
X30000Y-60200D03*
X31000Y-60200D03*
G54D23*
X133100Y-53200D03*
G54D24*
X134100Y-53200D03*
X133100Y-54200D03*
X134100Y-54200D03*
X133100Y-55200D03*
X134100Y-55200D03*
X133100Y-56200D03*
X134100Y-56200D03*
X133100Y-57200D03*
X134100Y-57200D03*
X133100Y-58200D03*
X134100Y-58200D03*
X133100Y-59200D03*
X134100Y-59200D03*
X133100Y-60200D03*
X134100Y-60200D03*
G54D25*
X56500Y-58000D03*
G54D26*
X56500Y-60000D03*
X58500Y-60000D03*
X58500Y-58000D03*
G54D25*
X56500Y-53500D03*
G54D26*
X56500Y-55500D03*
X58500Y-55500D03*
X58500Y-53500D03*
G54D25*
X38500Y-53500D03*
G54D26*
X38500Y-55500D03*
X40500Y-55500D03*
X40500Y-53500D03*
G54D25*
X38500Y-58000D03*
G54D26*
X38500Y-60000D03*
X40500Y-60000D03*
X40500Y-58000D03*
G54D25*
X45000Y-55500D03*
G54D26*
X45000Y-53500D03*
X43000Y-53500D03*
X43000Y-55500D03*
G54D25*
X45000Y-60000D03*
G54D26*
X45000Y-58000D03*
X43000Y-58000D03*
X43000Y-60000D03*
G54D23*
X83100Y-55000D03*
G54D24*
X83100Y-56000D03*
X82100Y-55000D03*
X82100Y-56000D03*
X81100Y-55000D03*
X81100Y-56000D03*
X86100Y-51975D03*
X88650Y-51975D03*
X86100Y-53725D03*
X88650Y-53725D03*
X80700Y-51975D03*
X83250Y-51975D03*
X80700Y-53725D03*
X83250Y-53725D03*
X75300Y-51975D03*
X77850Y-51975D03*
X75300Y-53725D03*
X77850Y-53725D03*
G54D27*
X79800Y-52800D03*
G54D28*
X78800Y-52800D03*
G54D29*
X82626Y-57700D03*
X83374Y-57700D03*
G54D30*
X84300Y-52774D03*
X84300Y-52026D03*
G54D31*
X90000Y-56251D03*
X90000Y-55149D03*
X85600Y-56251D03*
X85600Y-55149D03*
G54D32*
X81651Y-57700D03*
X80549Y-57700D03*
G54D31*
X84600Y-55149D03*
X84600Y-56251D03*
G54D26*
X89100Y-60100D03*
X85100Y-59100D03*
X89100Y-58100D03*
G54D33*
X80977Y-58850D03*
X80977Y-59350D03*
X80977Y-59850D03*
X80977Y-60350D03*
X80977Y-60850D03*
X80977Y-61350D03*
X80977Y-61850D03*
X80977Y-62350D03*
X83023Y-62350D03*
X83023Y-61850D03*
X83023Y-61350D03*
X83023Y-60850D03*
X83023Y-60350D03*
X83023Y-59850D03*
X83023Y-59350D03*
X83023Y-58850D03*
G54D34*
X36500Y-52000D03*
G54D33*
X88823Y-56450D03*
X88823Y-55950D03*
X88823Y-55450D03*
X88823Y-54950D03*
X86777Y-54950D03*
X86777Y-55450D03*
X86777Y-55950D03*
X86777Y-56450D03*
G54D34*
X127500Y-61500D03*
X127500Y-52000D03*
X95200Y-61500D03*
X95200Y-52000D03*
X68800Y-61500D03*
X68800Y-52000D03*
X36500Y-61500D03*
G54D33*
X74789Y-55350D03*
X74789Y-55850D03*
X74789Y-56350D03*
X74789Y-56850D03*
X74789Y-57350D03*
X74789Y-57850D03*
X74789Y-58350D03*
X74789Y-58850D03*
X74789Y-59350D03*
X74789Y-59850D03*
X78411Y-59850D03*
X78411Y-59350D03*
X78411Y-58850D03*
X78411Y-58350D03*
X78411Y-57850D03*
X78411Y-57350D03*
X78411Y-56850D03*
X78411Y-56350D03*
X78411Y-55850D03*
X78411Y-55350D03*
G54D25*
X47500Y-58000D03*
G54D26*
X47500Y-60000D03*
X49500Y-60000D03*
X49500Y-58000D03*
G54D25*
X47500Y-53500D03*
G54D26*
X47500Y-55500D03*
X49500Y-55500D03*
X49500Y-53500D03*
G54D25*
X54000Y-55500D03*
G54D26*
X54000Y-53500D03*
X52000Y-53500D03*
X52000Y-55500D03*
G54D25*
X54000Y-60000D03*
G54D26*
X54000Y-58000D03*
X52000Y-58000D03*
X52000Y-60000D03*
G54D25*
X63000Y-55500D03*
G54D26*
X63000Y-53500D03*
X61000Y-53500D03*
X61000Y-55500D03*
G54D25*
X63000Y-60000D03*
G54D26*
X63000Y-58000D03*
X61000Y-58000D03*
X61000Y-60000D03*
G54D25*
X65500Y-58000D03*
G54D26*
X65500Y-60000D03*
X67500Y-60000D03*
X67500Y-58000D03*
G54D25*
X65500Y-53500D03*
G54D26*
X65500Y-55500D03*
X67500Y-55500D03*
X67500Y-53500D03*
G54D25*
X72000Y-55500D03*
G54D26*
X72000Y-53500D03*
X70000Y-53500D03*
X70000Y-55500D03*
G54D25*
X72000Y-60000D03*
G54D26*
X72000Y-58000D03*
X70000Y-58000D03*
X70000Y-60000D03*
G54D25*
X92000Y-58000D03*
G54D26*
X92000Y-60000D03*
X94000Y-60000D03*
X94000Y-58000D03*
G54D25*
X92000Y-53500D03*
G54D26*
X92000Y-55500D03*
X94000Y-55500D03*
X94000Y-53500D03*
G54D25*
X98500Y-55500D03*
G54D26*
X98500Y-53500D03*
X96500Y-53500D03*
X96500Y-55500D03*
G54D25*
X98500Y-60000D03*
G54D26*
X98500Y-58000D03*
X96500Y-58000D03*
X96500Y-60000D03*
G54D25*
X100900Y-58000D03*
G54D26*
X100900Y-60000D03*
X102900Y-60000D03*
X102900Y-58000D03*
G54D25*
X100900Y-53500D03*
G54D26*
X100900Y-55500D03*
X102900Y-55500D03*
X102900Y-53500D03*
G54D25*
X107500Y-55500D03*
G54D26*
X107500Y-53500D03*
X105500Y-53500D03*
X105500Y-55500D03*
G54D25*
X107500Y-60000D03*
G54D26*
X107500Y-58000D03*
X105500Y-58000D03*
X105500Y-60000D03*
G54D25*
X110000Y-58000D03*
G54D26*
X110000Y-60000D03*
X112000Y-60000D03*
X112000Y-58000D03*
G54D25*
X110000Y-53500D03*
G54D26*
X110000Y-55500D03*
X112000Y-55500D03*
X112000Y-53500D03*
G54D25*
X116600Y-55500D03*
G54D26*
X116600Y-53500D03*
X114600Y-53500D03*
X114600Y-55500D03*
G54D25*
X116600Y-60000D03*
G54D26*
X116600Y-58000D03*
X114600Y-58000D03*
X114600Y-60000D03*
G54D25*
X119000Y-58000D03*
G54D26*
X119000Y-60000D03*
X121000Y-60000D03*
X121000Y-58000D03*
G54D25*
X119000Y-53500D03*
G54D26*
X119000Y-55500D03*
X121000Y-55500D03*
X121000Y-53500D03*
G54D25*
X125500Y-55500D03*
G54D26*
X125500Y-53500D03*
X123500Y-53500D03*
X123500Y-55500D03*
G54D25*
X125500Y-60000D03*
G54D26*
X125500Y-58000D03*
X123500Y-58000D03*
X123500Y-60000D03*
G54D27*
X134100Y-61700D03*
G54D28*
X131100Y-61700D03*
G54D27*
X30000Y-61700D03*
G54D28*
X33000Y-61700D03*
G54D35*
X85200Y-52800D03*
X85200Y-52200D03*
G54D36*
X73400Y-55800D03*
X74000Y-55800D03*
X73349Y-57601D03*
X73949Y-57601D03*
X73341Y-58278D03*
X73941Y-58278D03*
X79800Y-59900D03*
X79200Y-59900D03*
X79800Y-58900D03*
X79200Y-58900D03*
X79800Y-57800D03*
X79200Y-57800D03*
X79800Y-56800D03*
X79200Y-56800D03*
X79800Y-55800D03*
X79200Y-55800D03*
X79000Y-54300D03*
X79600Y-54300D03*
G54D23*
X133100Y-51600D03*
G54D24*
X134100Y-51600D03*
G54D35*
X32400Y-54100D03*
X32400Y-53500D03*
X33200Y-54100D03*
X33200Y-53500D03*
G54D36*
X78200Y-51100D03*
X77600Y-51100D03*
X83600Y-51100D03*
X83000Y-51100D03*
X89000Y-51100D03*
X88400Y-51100D03*
G54D37*
X32400Y-51913D03*
X32400Y-51087D03*
X33200Y-51913D03*
X33200Y-51087D03*
X76187Y-51100D03*
X77013Y-51100D03*
X81587Y-51100D03*
X82413Y-51100D03*
X86987Y-51100D03*
X87813Y-51100D03*
M02*
