G04 (created by PCBNEW-RS274X (2011-04-28)-stable) date Sat 30 Jul 2011 07:03:46 PM CEST*
G01*
G70*
G90*
%MOIN*%
G04 Gerber Fmt 3.4, Leading zero omitted, Abs format*
%FSLAX34Y34*%
G04 APERTURE LIST*
%ADD10C,0.010000*%
%ADD11R,0.070000X0.070000*%
%ADD12C,0.070000*%
%ADD13R,0.060000X0.060000*%
%ADD14C,0.060000*%
%ADD15R,0.080000X0.080000*%
%ADD16C,0.080000*%
%ADD17R,0.055000X0.055000*%
%ADD18C,0.055000*%
%ADD19R,0.051100X0.059000*%
%ADD20R,0.059000X0.051100*%
%ADD21R,0.070800X0.062900*%
%ADD22R,0.062900X0.070800*%
%ADD23R,0.086600X0.023600*%
%ADD24C,0.160000*%
%ADD25R,0.045000X0.025000*%
%ADD26R,0.025000X0.045000*%
%ADD27C,0.035000*%
%ADD28C,0.006000*%
%ADD29C,0.020000*%
%ADD30C,0.080000*%
%ADD31C,0.040000*%
G04 APERTURE END LIST*
G54D10*
G54D11*
X129300Y-57700D03*
G54D12*
X129300Y-55700D03*
G54D11*
X34800Y-57700D03*
G54D12*
X34800Y-55700D03*
G54D13*
X30000Y-53200D03*
G54D14*
X31000Y-53200D03*
X30000Y-54200D03*
X31000Y-54200D03*
X30000Y-55200D03*
X31000Y-55200D03*
X30000Y-56200D03*
X31000Y-56200D03*
X30000Y-57200D03*
X31000Y-57200D03*
X30000Y-58200D03*
X31000Y-58200D03*
X30000Y-59200D03*
X31000Y-59200D03*
X30000Y-60200D03*
X31000Y-60200D03*
G54D13*
X133100Y-53200D03*
G54D14*
X134100Y-53200D03*
X133100Y-54200D03*
X134100Y-54200D03*
X133100Y-55200D03*
X134100Y-55200D03*
X133100Y-56200D03*
X134100Y-56200D03*
X133100Y-57200D03*
X134100Y-57200D03*
X133100Y-58200D03*
X134100Y-58200D03*
X133100Y-59200D03*
X134100Y-59200D03*
X133100Y-60200D03*
X134100Y-60200D03*
G54D15*
X56500Y-58000D03*
G54D16*
X56500Y-60000D03*
X58500Y-60000D03*
X58500Y-58000D03*
G54D15*
X56500Y-53500D03*
G54D16*
X56500Y-55500D03*
X58500Y-55500D03*
X58500Y-53500D03*
G54D15*
X38500Y-53500D03*
G54D16*
X38500Y-55500D03*
X40500Y-55500D03*
X40500Y-53500D03*
G54D15*
X38500Y-58000D03*
G54D16*
X38500Y-60000D03*
X40500Y-60000D03*
X40500Y-58000D03*
G54D15*
X45000Y-55500D03*
G54D16*
X45000Y-53500D03*
X43000Y-53500D03*
X43000Y-55500D03*
G54D15*
X45000Y-60000D03*
G54D16*
X45000Y-58000D03*
X43000Y-58000D03*
X43000Y-60000D03*
G54D13*
X83100Y-55000D03*
G54D14*
X83100Y-56000D03*
X82100Y-55000D03*
X82100Y-56000D03*
X81100Y-55000D03*
X81100Y-56000D03*
X86100Y-51575D03*
X88650Y-51575D03*
X86100Y-53325D03*
X88650Y-53325D03*
X80700Y-51575D03*
X83250Y-51575D03*
X80700Y-53325D03*
X83250Y-53325D03*
X75300Y-51575D03*
X77850Y-51575D03*
X75300Y-53325D03*
X77850Y-53325D03*
G54D17*
X79800Y-52400D03*
G54D18*
X78800Y-52400D03*
G54D19*
X82626Y-57700D03*
X83374Y-57700D03*
G54D20*
X84300Y-52774D03*
X84300Y-52026D03*
G54D21*
X90000Y-56251D03*
X90000Y-55149D03*
X85600Y-56251D03*
X85600Y-55149D03*
G54D22*
X81651Y-57700D03*
X80549Y-57700D03*
G54D21*
X84600Y-55149D03*
X84600Y-56251D03*
G54D16*
X89100Y-60100D03*
X85100Y-59100D03*
X89100Y-58100D03*
G54D23*
X80977Y-58850D03*
X80977Y-59350D03*
X80977Y-59850D03*
X80977Y-60350D03*
X80977Y-60850D03*
X80977Y-61350D03*
X80977Y-61850D03*
X80977Y-62350D03*
X83023Y-62350D03*
X83023Y-61850D03*
X83023Y-61350D03*
X83023Y-60850D03*
X83023Y-60350D03*
X83023Y-59850D03*
X83023Y-59350D03*
X83023Y-58850D03*
G54D24*
X36500Y-52000D03*
G54D23*
X88823Y-56450D03*
X88823Y-55950D03*
X88823Y-55450D03*
X88823Y-54950D03*
X86777Y-54950D03*
X86777Y-55450D03*
X86777Y-55950D03*
X86777Y-56450D03*
G54D24*
X127500Y-61500D03*
X127500Y-52000D03*
X95500Y-61500D03*
X95500Y-52000D03*
X68500Y-61500D03*
X68500Y-52000D03*
X36500Y-61500D03*
G54D23*
X74789Y-55350D03*
X74789Y-55850D03*
X74789Y-56350D03*
X74789Y-56850D03*
X74789Y-57350D03*
X74789Y-57850D03*
X74789Y-58350D03*
X74789Y-58850D03*
X74789Y-59350D03*
X74789Y-59850D03*
X78411Y-59850D03*
X78411Y-59350D03*
X78411Y-58850D03*
X78411Y-58350D03*
X78411Y-57850D03*
X78411Y-57350D03*
X78411Y-56850D03*
X78411Y-56350D03*
X78411Y-55850D03*
X78411Y-55350D03*
G54D15*
X47500Y-58000D03*
G54D16*
X47500Y-60000D03*
X49500Y-60000D03*
X49500Y-58000D03*
G54D15*
X47500Y-53500D03*
G54D16*
X47500Y-55500D03*
X49500Y-55500D03*
X49500Y-53500D03*
G54D15*
X54000Y-55500D03*
G54D16*
X54000Y-53500D03*
X52000Y-53500D03*
X52000Y-55500D03*
G54D15*
X54000Y-60000D03*
G54D16*
X54000Y-58000D03*
X52000Y-58000D03*
X52000Y-60000D03*
G54D15*
X63000Y-55500D03*
G54D16*
X63000Y-53500D03*
X61000Y-53500D03*
X61000Y-55500D03*
G54D15*
X63000Y-60000D03*
G54D16*
X63000Y-58000D03*
X61000Y-58000D03*
X61000Y-60000D03*
G54D15*
X65515Y-57471D03*
G54D16*
X65515Y-59471D03*
X67515Y-59471D03*
X67515Y-57471D03*
G54D15*
X65500Y-53500D03*
G54D16*
X65500Y-55500D03*
X67500Y-55500D03*
X67500Y-53500D03*
G54D15*
X72000Y-55500D03*
G54D16*
X72000Y-53500D03*
X70000Y-53500D03*
X70000Y-55500D03*
G54D15*
X72000Y-60000D03*
G54D16*
X72000Y-58000D03*
X70000Y-58000D03*
X70000Y-60000D03*
G54D15*
X92000Y-58000D03*
G54D16*
X92000Y-60000D03*
X94000Y-60000D03*
X94000Y-58000D03*
G54D15*
X92000Y-53500D03*
G54D16*
X92000Y-55500D03*
X94000Y-55500D03*
X94000Y-53500D03*
G54D15*
X98500Y-55500D03*
G54D16*
X98500Y-53500D03*
X96500Y-53500D03*
X96500Y-55500D03*
G54D15*
X98500Y-60000D03*
G54D16*
X98500Y-58000D03*
X96500Y-58000D03*
X96500Y-60000D03*
G54D15*
X100900Y-58000D03*
G54D16*
X100900Y-60000D03*
X102900Y-60000D03*
X102900Y-58000D03*
G54D15*
X100900Y-53500D03*
G54D16*
X100900Y-55500D03*
X102900Y-55500D03*
X102900Y-53500D03*
G54D15*
X107500Y-55500D03*
G54D16*
X107500Y-53500D03*
X105500Y-53500D03*
X105500Y-55500D03*
G54D15*
X107500Y-60000D03*
G54D16*
X107500Y-58000D03*
X105500Y-58000D03*
X105500Y-60000D03*
G54D15*
X110000Y-58000D03*
G54D16*
X110000Y-60000D03*
X112000Y-60000D03*
X112000Y-58000D03*
G54D15*
X110000Y-53500D03*
G54D16*
X110000Y-55500D03*
X112000Y-55500D03*
X112000Y-53500D03*
G54D15*
X116600Y-55500D03*
G54D16*
X116600Y-53500D03*
X114600Y-53500D03*
X114600Y-55500D03*
G54D15*
X116600Y-60000D03*
G54D16*
X116600Y-58000D03*
X114600Y-58000D03*
X114600Y-60000D03*
G54D15*
X119000Y-58000D03*
G54D16*
X119000Y-60000D03*
X121000Y-60000D03*
X121000Y-58000D03*
G54D15*
X119000Y-53500D03*
G54D16*
X119000Y-55500D03*
X121000Y-55500D03*
X121000Y-53500D03*
G54D15*
X125500Y-55500D03*
G54D16*
X125500Y-53500D03*
X123500Y-53500D03*
X123500Y-55500D03*
G54D15*
X125500Y-60000D03*
G54D16*
X125500Y-58000D03*
X123500Y-58000D03*
X123500Y-60000D03*
G54D17*
X134100Y-61700D03*
G54D18*
X131100Y-61700D03*
G54D17*
X30000Y-61700D03*
G54D18*
X33000Y-61700D03*
G54D25*
X85200Y-52800D03*
X85200Y-52200D03*
G54D26*
X73400Y-55800D03*
X74000Y-55800D03*
X73349Y-57601D03*
X73949Y-57601D03*
X73341Y-58278D03*
X73941Y-58278D03*
X79800Y-59900D03*
X79200Y-59900D03*
X79800Y-58900D03*
X79200Y-58900D03*
X79800Y-57800D03*
X79200Y-57800D03*
X79800Y-56800D03*
X79200Y-56800D03*
X79800Y-55800D03*
X79200Y-55800D03*
X79000Y-53900D03*
X79600Y-53900D03*
G54D13*
X133100Y-51600D03*
G54D14*
X134100Y-51600D03*
G54D27*
X77403Y-54709D03*
X80225Y-59656D03*
X80211Y-59199D03*
X77045Y-53496D03*
X83864Y-60175D03*
X87838Y-57200D03*
X78535Y-60774D03*
X82225Y-53112D03*
X77819Y-54278D03*
X75401Y-61220D03*
X75628Y-61982D03*
X88440Y-62350D03*
X88519Y-61592D03*
X79800Y-58323D03*
X84417Y-60124D03*
X86526Y-60124D03*
X76728Y-59741D03*
X76670Y-55656D03*
X80334Y-55509D03*
X79152Y-60647D03*
X82682Y-53713D03*
X73400Y-55294D03*
X77911Y-52306D03*
X132251Y-51622D03*
X86618Y-52053D03*
X87800Y-50900D03*
X75684Y-56887D03*
X90972Y-55537D03*
X75920Y-58307D03*
X75785Y-58778D03*
X77225Y-57643D03*
X77918Y-60287D03*
X77689Y-57512D03*
X75854Y-56404D03*
X76610Y-56407D03*
X90668Y-56307D03*
X83735Y-57125D03*
G54D28*
X80977Y-59850D02*
X80411Y-59850D01*
X80225Y-59664D02*
X80225Y-59656D01*
X80411Y-59850D02*
X80225Y-59664D01*
X79800Y-55800D02*
X80058Y-55800D01*
X80258Y-56000D02*
X81100Y-56000D01*
X80058Y-55800D02*
X80258Y-56000D01*
X81659Y-55441D02*
X81100Y-56000D01*
X83377Y-55441D02*
X81659Y-55441D01*
X83738Y-55802D02*
X83377Y-55441D01*
X85084Y-55802D02*
X83738Y-55802D01*
X85100Y-55818D02*
X85084Y-55802D01*
X85100Y-56620D02*
X85100Y-55818D01*
X85181Y-56701D02*
X85100Y-56620D01*
X90765Y-56701D02*
X85181Y-56701D01*
X91304Y-56162D02*
X90765Y-56701D01*
X91304Y-55213D02*
X91304Y-56162D01*
X91713Y-54804D02*
X91304Y-55213D01*
X126538Y-54804D02*
X91713Y-54804D01*
X128080Y-56346D02*
X126538Y-54804D01*
X132954Y-56346D02*
X128080Y-56346D01*
X133100Y-56200D02*
X132954Y-56346D01*
X30559Y-56759D02*
X30000Y-56200D01*
X31940Y-56759D02*
X30559Y-56759D01*
X32072Y-56891D02*
X31940Y-56759D01*
X35449Y-56891D02*
X32072Y-56891D01*
X37650Y-54690D02*
X35449Y-56891D01*
X77384Y-54690D02*
X37650Y-54690D01*
X77403Y-54709D02*
X77384Y-54690D01*
G54D29*
X43000Y-53500D02*
X40500Y-53500D01*
X52000Y-53500D02*
X49500Y-53500D01*
X61000Y-53500D02*
X58500Y-53500D01*
X70000Y-53500D02*
X67500Y-53500D01*
X96500Y-53500D02*
X94000Y-53500D01*
X105500Y-53500D02*
X102900Y-53500D01*
X114600Y-53500D02*
X112000Y-53500D01*
X123500Y-53500D02*
X121000Y-53500D01*
G54D28*
X80977Y-59350D02*
X80411Y-59350D01*
X80260Y-59199D02*
X80211Y-59199D01*
X80411Y-59350D02*
X80260Y-59199D01*
X29442Y-54642D02*
X30000Y-55200D01*
X29442Y-53893D02*
X29442Y-54642D01*
X29582Y-53753D02*
X29442Y-53893D01*
X31846Y-53753D02*
X29582Y-53753D01*
X34495Y-56402D02*
X31846Y-53753D01*
X35248Y-56402D02*
X34495Y-56402D01*
X37453Y-54197D02*
X35248Y-56402D01*
X72708Y-54197D02*
X37453Y-54197D01*
X72953Y-53952D02*
X72708Y-54197D01*
X75591Y-53952D02*
X72953Y-53952D01*
X76047Y-53496D02*
X75591Y-53952D01*
X77045Y-53496D02*
X76047Y-53496D01*
X83023Y-60350D02*
X83548Y-60350D01*
X83689Y-60350D02*
X83864Y-60175D01*
X83548Y-60350D02*
X83689Y-60350D01*
X84325Y-59714D02*
X83864Y-60175D01*
X87516Y-59714D02*
X84325Y-59714D01*
X88387Y-58843D02*
X87516Y-59714D01*
X91157Y-58843D02*
X88387Y-58843D01*
X91302Y-58698D02*
X91157Y-58843D01*
X126382Y-58698D02*
X91302Y-58698D01*
X128061Y-57019D02*
X126382Y-58698D01*
X131750Y-57019D02*
X128061Y-57019D01*
X132931Y-58200D02*
X131750Y-57019D01*
X133100Y-58200D02*
X132931Y-58200D01*
X78717Y-60956D02*
X78535Y-60774D01*
X79478Y-60956D02*
X78717Y-60956D01*
X80084Y-60350D02*
X79478Y-60956D01*
X80977Y-60350D02*
X80084Y-60350D01*
X90514Y-57200D02*
X87838Y-57200D01*
X91467Y-56247D02*
X90514Y-57200D01*
X91467Y-55280D02*
X91467Y-56247D01*
X91780Y-54967D02*
X91467Y-55280D01*
X126471Y-54967D02*
X91780Y-54967D01*
X128013Y-56509D02*
X126471Y-54967D01*
X132409Y-56509D02*
X128013Y-56509D01*
X133100Y-57200D02*
X132409Y-56509D01*
X30000Y-57364D02*
X30000Y-57200D01*
X30566Y-57930D02*
X30000Y-57364D01*
X30566Y-58618D02*
X30566Y-57930D01*
X30614Y-58666D02*
X30566Y-58618D01*
X33292Y-58666D02*
X30614Y-58666D01*
X33556Y-58930D02*
X33292Y-58666D01*
X64675Y-58930D02*
X33556Y-58930D01*
X65265Y-58340D02*
X64675Y-58930D01*
X67886Y-58340D02*
X65265Y-58340D01*
X67939Y-58287D02*
X67886Y-58340D01*
X68381Y-58287D02*
X67939Y-58287D01*
X69000Y-58906D02*
X68381Y-58287D01*
X72628Y-58906D02*
X69000Y-58906D01*
X74622Y-60900D02*
X72628Y-58906D01*
X77636Y-60900D02*
X74622Y-60900D01*
X77657Y-60921D02*
X77636Y-60900D01*
X78388Y-60921D02*
X77657Y-60921D01*
X78535Y-60774D02*
X78388Y-60921D01*
X79000Y-53900D02*
X78871Y-53900D01*
X78670Y-54101D02*
X78362Y-54101D01*
X78871Y-53900D02*
X78670Y-54101D01*
X73341Y-58278D02*
X73083Y-58278D01*
X79523Y-54516D02*
X78362Y-54516D01*
X80257Y-53782D02*
X79523Y-54516D01*
X80257Y-52907D02*
X80257Y-53782D01*
X80273Y-52891D02*
X80257Y-52907D01*
X82004Y-52891D02*
X80273Y-52891D01*
X82225Y-53112D02*
X82004Y-52891D01*
X78032Y-54516D02*
X78362Y-54516D01*
X77531Y-55017D02*
X78032Y-54516D01*
X77276Y-55017D02*
X77531Y-55017D01*
X77119Y-54860D02*
X77276Y-55017D01*
X73400Y-54860D02*
X77119Y-54860D01*
X73083Y-55177D02*
X73400Y-54860D01*
X73083Y-58278D02*
X73083Y-55177D01*
X78362Y-54516D02*
X78362Y-54101D01*
X32034Y-54200D02*
X31000Y-54200D01*
X34399Y-56565D02*
X32034Y-54200D01*
X35315Y-56565D02*
X34399Y-56565D01*
X37520Y-54360D02*
X35315Y-56565D01*
X72794Y-54360D02*
X37520Y-54360D01*
X73039Y-54115D02*
X72794Y-54360D01*
X75792Y-54115D02*
X73039Y-54115D01*
X76083Y-53824D02*
X75792Y-54115D01*
X78085Y-53824D02*
X76083Y-53824D01*
X78362Y-54101D02*
X78085Y-53824D01*
X79800Y-56800D02*
X80058Y-56800D01*
X81449Y-56651D02*
X82100Y-56000D01*
X80207Y-56651D02*
X81449Y-56651D01*
X80058Y-56800D02*
X80207Y-56651D01*
X30500Y-54700D02*
X30000Y-54200D01*
X32189Y-54700D02*
X30500Y-54700D01*
X34217Y-56728D02*
X32189Y-54700D01*
X35382Y-56728D02*
X34217Y-56728D01*
X37587Y-54523D02*
X35382Y-56728D01*
X72976Y-54523D02*
X37587Y-54523D01*
X73221Y-54278D02*
X72976Y-54523D01*
X77819Y-54278D02*
X73221Y-54278D01*
G54D29*
X80977Y-60850D02*
X80341Y-60850D01*
X79971Y-61220D02*
X75401Y-61220D01*
X80341Y-60850D02*
X79971Y-61220D01*
X54000Y-60000D02*
X54603Y-60000D01*
X80977Y-61350D02*
X80341Y-61350D01*
X55215Y-59388D02*
X54603Y-60000D01*
X64649Y-59388D02*
X55215Y-59388D01*
X65464Y-58573D02*
X64649Y-59388D01*
X68146Y-58573D02*
X65464Y-58573D01*
X68199Y-58520D02*
X68146Y-58573D01*
X68285Y-58520D02*
X68199Y-58520D01*
X68908Y-59143D02*
X68285Y-58520D01*
X72230Y-59143D02*
X68908Y-59143D01*
X74691Y-61604D02*
X72230Y-59143D01*
X80087Y-61604D02*
X74691Y-61604D01*
X80341Y-61350D02*
X80087Y-61604D01*
X80977Y-61850D02*
X80341Y-61850D01*
X80209Y-61982D02*
X75628Y-61982D01*
X80341Y-61850D02*
X80209Y-61982D01*
X75013Y-62410D02*
X72603Y-60000D01*
X80281Y-62410D02*
X75013Y-62410D01*
X80341Y-62350D02*
X80281Y-62410D01*
X80977Y-62350D02*
X80341Y-62350D01*
X72000Y-60000D02*
X72603Y-60000D01*
X83023Y-62350D02*
X83659Y-62350D01*
X83659Y-62350D02*
X88440Y-62350D01*
X83023Y-61850D02*
X83659Y-61850D01*
X106294Y-59397D02*
X106897Y-60000D01*
X91591Y-59397D02*
X106294Y-59397D01*
X89018Y-61970D02*
X91591Y-59397D01*
X83779Y-61970D02*
X89018Y-61970D01*
X83659Y-61850D02*
X83779Y-61970D01*
X107500Y-60000D02*
X106897Y-60000D01*
X83023Y-61350D02*
X83659Y-61350D01*
X83901Y-61592D02*
X88519Y-61592D01*
X83659Y-61350D02*
X83901Y-61592D01*
X83023Y-60850D02*
X83659Y-60850D01*
X125500Y-60000D02*
X124897Y-60000D01*
X89710Y-60850D02*
X83659Y-60850D01*
X91466Y-59094D02*
X89710Y-60850D01*
X123991Y-59094D02*
X91466Y-59094D01*
X124897Y-60000D02*
X123991Y-59094D01*
G54D28*
X79800Y-58900D02*
X79929Y-58900D01*
X79929Y-58900D02*
X80058Y-58900D01*
X80152Y-58806D02*
X80058Y-58900D01*
X80152Y-58239D02*
X80152Y-58806D01*
X80058Y-58145D02*
X80152Y-58239D01*
X80058Y-57334D02*
X80058Y-58145D01*
X80578Y-56814D02*
X80058Y-57334D01*
X83871Y-56814D02*
X80578Y-56814D01*
X85691Y-58634D02*
X83871Y-56814D01*
X91136Y-58634D02*
X85691Y-58634D01*
X91235Y-58535D02*
X91136Y-58634D01*
X126315Y-58535D02*
X91235Y-58535D01*
X128178Y-56672D02*
X126315Y-58535D01*
X131633Y-56672D02*
X128178Y-56672D01*
X132607Y-57646D02*
X131633Y-56672D01*
X133654Y-57646D02*
X132607Y-57646D01*
X134100Y-57200D02*
X133654Y-57646D01*
X31146Y-57054D02*
X31000Y-57200D01*
X35575Y-57054D02*
X31146Y-57054D01*
X37054Y-58533D02*
X35575Y-57054D01*
X63220Y-58533D02*
X37054Y-58533D01*
X63744Y-58009D02*
X63220Y-58533D01*
X67734Y-58009D02*
X63744Y-58009D01*
X67782Y-57961D02*
X67734Y-58009D01*
X68515Y-57961D02*
X67782Y-57961D01*
X69134Y-58580D02*
X68515Y-57961D01*
X72778Y-58580D02*
X69134Y-58580D01*
X74770Y-60572D02*
X72778Y-58580D01*
X77768Y-60572D02*
X74770Y-60572D01*
X77791Y-60595D02*
X77768Y-60572D01*
X78046Y-60595D02*
X77791Y-60595D01*
X78361Y-60280D02*
X78046Y-60595D01*
X79368Y-60280D02*
X78361Y-60280D01*
X79542Y-60106D02*
X79368Y-60280D01*
X79542Y-59287D02*
X79542Y-60106D01*
X79929Y-58900D02*
X79542Y-59287D01*
X79800Y-57800D02*
X79800Y-58323D01*
X84417Y-60124D02*
X86526Y-60124D01*
X76302Y-56024D02*
X76670Y-55656D01*
X76302Y-56534D02*
X76302Y-56024D01*
X76728Y-56960D02*
X76302Y-56534D01*
X76728Y-59741D02*
X76728Y-56960D01*
X79542Y-55520D02*
X79542Y-57800D01*
X79622Y-55440D02*
X79542Y-55520D01*
X80265Y-55440D02*
X79622Y-55440D01*
X80334Y-55509D02*
X80265Y-55440D01*
X79800Y-57800D02*
X79542Y-57800D01*
X87449Y-60124D02*
X86526Y-60124D01*
X88567Y-59006D02*
X87449Y-60124D01*
X91224Y-59006D02*
X88567Y-59006D01*
X91369Y-58861D02*
X91224Y-59006D01*
X126449Y-58861D02*
X91369Y-58861D01*
X128128Y-57182D02*
X126449Y-58861D01*
X131683Y-57182D02*
X128128Y-57182D01*
X131749Y-57248D02*
X131683Y-57182D01*
X131749Y-57478D02*
X131749Y-57248D01*
X132913Y-58642D02*
X131749Y-57478D01*
X133658Y-58642D02*
X132913Y-58642D01*
X134100Y-58200D02*
X133658Y-58642D01*
X79800Y-59900D02*
X79800Y-60258D01*
X79411Y-60647D02*
X79152Y-60647D01*
X79800Y-60258D02*
X79411Y-60647D01*
X30436Y-55764D02*
X31000Y-55200D01*
X29582Y-55764D02*
X30436Y-55764D01*
X29552Y-55794D02*
X29582Y-55764D01*
X29552Y-56364D02*
X29552Y-55794D01*
X29829Y-56641D02*
X29552Y-56364D01*
X30172Y-56641D02*
X29829Y-56641D01*
X30566Y-57035D02*
X30172Y-56641D01*
X30566Y-57620D02*
X30566Y-57035D01*
X30583Y-57637D02*
X30566Y-57620D01*
X33975Y-57637D02*
X30583Y-57637D01*
X34395Y-57217D02*
X33975Y-57637D01*
X35508Y-57217D02*
X34395Y-57217D01*
X36987Y-58696D02*
X35508Y-57217D01*
X63288Y-58696D02*
X36987Y-58696D01*
X63807Y-58177D02*
X63288Y-58696D01*
X67796Y-58177D02*
X63807Y-58177D01*
X67849Y-58124D02*
X67796Y-58177D01*
X68448Y-58124D02*
X67849Y-58124D01*
X69067Y-58743D02*
X68448Y-58124D01*
X72695Y-58743D02*
X69067Y-58743D01*
X74687Y-60735D02*
X72695Y-58743D01*
X77701Y-60735D02*
X74687Y-60735D01*
X77724Y-60758D02*
X77701Y-60735D01*
X78113Y-60758D02*
X77724Y-60758D01*
X78423Y-60448D02*
X78113Y-60758D01*
X78953Y-60448D02*
X78423Y-60448D01*
X79152Y-60647D02*
X78953Y-60448D01*
X82682Y-51291D02*
X82682Y-53713D01*
X82832Y-51141D02*
X82682Y-51291D01*
X84399Y-51141D02*
X82832Y-51141D01*
X85200Y-51942D02*
X84399Y-51141D01*
X85200Y-52200D02*
X85200Y-51942D01*
X74789Y-55350D02*
X75355Y-55350D01*
X75362Y-55343D02*
X75355Y-55350D01*
X77665Y-55343D02*
X75362Y-55343D01*
X78166Y-54842D02*
X77665Y-55343D01*
X79818Y-54842D02*
X78166Y-54842D01*
X80947Y-53713D02*
X79818Y-54842D01*
X82682Y-53713D02*
X80947Y-53713D01*
X73400Y-55294D02*
X73400Y-55800D01*
X73349Y-57601D02*
X73607Y-57601D01*
X73658Y-57550D02*
X73607Y-57601D01*
X73658Y-55595D02*
X73658Y-57550D01*
X74230Y-55023D02*
X73658Y-55595D01*
X77050Y-55023D02*
X74230Y-55023D01*
X77207Y-55180D02*
X77050Y-55023D01*
X77598Y-55180D02*
X77207Y-55180D01*
X78099Y-54679D02*
X77598Y-55180D01*
X79697Y-54679D02*
X78099Y-54679D01*
X80700Y-53676D02*
X79697Y-54679D01*
X80700Y-53325D02*
X80700Y-53676D01*
X85779Y-52053D02*
X86618Y-52053D01*
X84615Y-50889D02*
X85779Y-52053D01*
X79328Y-50889D02*
X84615Y-50889D01*
X77911Y-52306D02*
X79328Y-50889D01*
X132706Y-51167D02*
X132251Y-51622D01*
X133667Y-51167D02*
X132706Y-51167D01*
X134100Y-51600D02*
X133667Y-51167D01*
X31525Y-53200D02*
X31000Y-53200D01*
X34564Y-56239D02*
X31525Y-53200D01*
X35181Y-56239D02*
X34564Y-56239D01*
X37386Y-54034D02*
X35181Y-56239D01*
X72579Y-54034D02*
X37386Y-54034D01*
X74307Y-52306D02*
X72579Y-54034D01*
X77911Y-52306D02*
X74307Y-52306D01*
G54D29*
X87800Y-56300D02*
X87800Y-50900D01*
X87650Y-56450D02*
X87800Y-56300D01*
X86777Y-56450D02*
X87650Y-56450D01*
X86250Y-56450D02*
X86777Y-56450D01*
X86051Y-56251D02*
X86250Y-56450D01*
X85600Y-56251D02*
X86051Y-56251D01*
X83351Y-51575D02*
X83802Y-52026D01*
X83250Y-51575D02*
X83351Y-51575D01*
X84300Y-52026D02*
X83802Y-52026D01*
X88187Y-55450D02*
X88187Y-55950D01*
X88823Y-55450D02*
X88187Y-55450D01*
X88823Y-55950D02*
X88187Y-55950D01*
X76306Y-58969D02*
X75425Y-59850D01*
X76306Y-57509D02*
X76306Y-58969D01*
X75684Y-56887D02*
X76306Y-57509D01*
X84600Y-56927D02*
X84600Y-56251D01*
X85773Y-58100D02*
X84600Y-56927D01*
X89100Y-58100D02*
X85773Y-58100D01*
X89699Y-55450D02*
X88823Y-55450D01*
X90000Y-55149D02*
X89699Y-55450D01*
X90000Y-52925D02*
X90000Y-55149D01*
X88650Y-51575D02*
X90000Y-52925D01*
X74789Y-59850D02*
X75425Y-59850D01*
X90584Y-55149D02*
X90972Y-55537D01*
X90000Y-55149D02*
X90584Y-55149D01*
G54D30*
X135200Y-63300D02*
X82000Y-63300D01*
X135200Y-59200D02*
X135200Y-63300D01*
X135200Y-50200D02*
X135200Y-59200D01*
X129300Y-50200D02*
X135200Y-50200D01*
X28900Y-50200D02*
X28900Y-59200D01*
X34800Y-50200D02*
X28900Y-50200D01*
X34800Y-55700D02*
X34800Y-50200D01*
X129300Y-55700D02*
X129300Y-50200D01*
G54D29*
X87000Y-53800D02*
X87000Y-50200D01*
X86700Y-54100D02*
X87000Y-53800D01*
X85800Y-54100D02*
X86700Y-54100D01*
X85600Y-54300D02*
X85800Y-54100D01*
X85600Y-55149D02*
X85600Y-54300D01*
X86777Y-55450D02*
X86777Y-55950D01*
X86150Y-55450D02*
X86777Y-55450D01*
X85849Y-55149D02*
X86150Y-55450D01*
X85600Y-55149D02*
X85849Y-55149D01*
X83374Y-58226D02*
X83374Y-57700D01*
X83200Y-58400D02*
X83374Y-58226D01*
X82400Y-58400D02*
X83200Y-58400D01*
X81950Y-58850D02*
X82400Y-58400D01*
X80549Y-58422D02*
X80977Y-58850D01*
X80549Y-57700D02*
X80549Y-58422D01*
G54D31*
X80977Y-58850D02*
X81950Y-58850D01*
G54D30*
X34800Y-50200D02*
X87000Y-50200D01*
X129200Y-50300D02*
X129300Y-50200D01*
X129200Y-50200D02*
X129200Y-50300D01*
X87000Y-50200D02*
X129200Y-50200D01*
X28900Y-63300D02*
X81950Y-63300D01*
X28900Y-59200D02*
X28900Y-63300D01*
X81950Y-63300D02*
X82000Y-63300D01*
X133100Y-59200D02*
X134100Y-59200D01*
X134100Y-59200D02*
X135200Y-59200D01*
X28900Y-59200D02*
X30000Y-59200D01*
X30000Y-59200D02*
X31000Y-59200D01*
X81950Y-58850D02*
X81950Y-63300D01*
X81950Y-63300D02*
X82000Y-63300D01*
G54D28*
X79600Y-53008D02*
X79600Y-53900D01*
X79800Y-52808D02*
X79600Y-53008D01*
X79800Y-52400D02*
X79800Y-52808D01*
X74173Y-55800D02*
X74223Y-55850D01*
X74000Y-55800D02*
X74173Y-55800D01*
X74789Y-55850D02*
X74223Y-55850D01*
X74789Y-57850D02*
X75355Y-57850D01*
X75812Y-58307D02*
X75920Y-58307D01*
X75355Y-57850D02*
X75812Y-58307D01*
X75427Y-58778D02*
X75355Y-58850D01*
X75785Y-58778D02*
X75427Y-58778D01*
X74789Y-58850D02*
X75355Y-58850D01*
X79027Y-55800D02*
X78977Y-55850D01*
X79200Y-55800D02*
X79027Y-55800D01*
X78411Y-55850D02*
X78977Y-55850D01*
X79027Y-59900D02*
X78977Y-59850D01*
X79200Y-59900D02*
X79027Y-59900D01*
X78411Y-59850D02*
X78977Y-59850D01*
X79027Y-58900D02*
X78977Y-58850D01*
X79200Y-58900D02*
X79027Y-58900D01*
X78411Y-58850D02*
X78977Y-58850D01*
X79027Y-57800D02*
X78977Y-57850D01*
X79200Y-57800D02*
X79027Y-57800D01*
X78411Y-57850D02*
X78977Y-57850D01*
X79027Y-56800D02*
X78977Y-56850D01*
X79200Y-56800D02*
X79027Y-56800D01*
X78411Y-56850D02*
X78977Y-56850D01*
X83839Y-59100D02*
X85100Y-59100D01*
X83589Y-59350D02*
X83839Y-59100D01*
X83023Y-59350D02*
X83589Y-59350D01*
X78411Y-58350D02*
X77845Y-58350D01*
X77845Y-58263D02*
X77845Y-58350D01*
X77225Y-57643D02*
X77845Y-58263D01*
X77845Y-60214D02*
X77918Y-60287D01*
X77845Y-59350D02*
X77845Y-60214D01*
X78411Y-59350D02*
X77845Y-59350D01*
X77845Y-57356D02*
X77845Y-57350D01*
X77689Y-57512D02*
X77845Y-57356D01*
X78411Y-57350D02*
X77845Y-57350D01*
X74789Y-59350D02*
X74223Y-59350D01*
X73941Y-59068D02*
X73941Y-58278D01*
X74223Y-59350D02*
X73941Y-59068D01*
X74789Y-56350D02*
X75355Y-56350D01*
X75800Y-56350D02*
X75854Y-56404D01*
X75355Y-56350D02*
X75800Y-56350D01*
X74789Y-58350D02*
X74223Y-58350D01*
X74223Y-57617D02*
X74207Y-57601D01*
X74223Y-58350D02*
X74223Y-57617D01*
X73949Y-57601D02*
X74207Y-57601D01*
X76667Y-56350D02*
X76610Y-56407D01*
X78411Y-56350D02*
X76667Y-56350D01*
G54D29*
X82626Y-57700D02*
X82626Y-57451D01*
X82417Y-57451D02*
X82168Y-57700D01*
X82626Y-57451D02*
X82417Y-57451D01*
X81651Y-57700D02*
X82168Y-57700D01*
X83023Y-58850D02*
X83659Y-58850D01*
X84600Y-55149D02*
X84600Y-54890D01*
X84300Y-52774D02*
X84300Y-53232D01*
X84300Y-54890D02*
X84300Y-53232D01*
X84600Y-54890D02*
X84300Y-54890D01*
X83713Y-54890D02*
X83603Y-55000D01*
X84300Y-54890D02*
X83713Y-54890D01*
X83100Y-55000D02*
X83352Y-55000D01*
X83352Y-55000D02*
X83603Y-55000D01*
X89244Y-56450D02*
X88823Y-56450D01*
X89443Y-56251D02*
X89244Y-56450D01*
X90000Y-56251D02*
X89443Y-56251D01*
X90613Y-56307D02*
X90557Y-56251D01*
X90668Y-56307D02*
X90613Y-56307D01*
X90000Y-56251D02*
X90557Y-56251D01*
X83735Y-57176D02*
X83735Y-57125D01*
X82901Y-57176D02*
X83735Y-57176D01*
X82626Y-57451D02*
X82901Y-57176D01*
X83834Y-58675D02*
X83659Y-58850D01*
X83834Y-57275D02*
X83834Y-58675D01*
X83735Y-57176D02*
X83834Y-57275D01*
X84824Y-52800D02*
X84798Y-52774D01*
X85200Y-52800D02*
X84824Y-52800D01*
X84300Y-52774D02*
X84798Y-52774D01*
X79322Y-55075D02*
X79047Y-55350D01*
X79914Y-55075D02*
X79322Y-55075D01*
X80499Y-54490D02*
X79914Y-55075D01*
X82842Y-54490D02*
X80499Y-54490D01*
X83352Y-55000D02*
X82842Y-54490D01*
X78411Y-55350D02*
X79047Y-55350D01*
M02*
