G04 (created by PCBNEW-RS274X (2011-04-28)-stable) date Sat 30 Jul 2011 07:03:46 PM CEST*
G01*
G70*
G90*
%MOIN*%
G04 Gerber Fmt 3.4, Leading zero omitted, Abs format*
%FSLAX34Y34*%
G04 APERTURE LIST*
%ADD10C,0.010000*%
%ADD11C,0.008000*%
%ADD12R,0.070000X0.070000*%
%ADD13C,0.070000*%
%ADD14R,0.060000X0.060000*%
%ADD15C,0.060000*%
%ADD16R,0.080000X0.080000*%
%ADD17C,0.080000*%
%ADD18R,0.055000X0.055000*%
%ADD19C,0.055000*%
%ADD20C,0.160000*%
%ADD21R,0.045000X0.025000*%
%ADD22R,0.025000X0.045000*%
%ADD23C,0.035000*%
%ADD24C,0.006000*%
%ADD25C,0.020000*%
%ADD26C,0.080000*%
G04 APERTURE END LIST*
G54D10*
G54D11*
X124276Y-51602D02*
X124110Y-52102D01*
X123943Y-51602D01*
X123776Y-51912D02*
X123395Y-51912D01*
X123585Y-52102D02*
X123585Y-51721D01*
X124276Y-50702D02*
X124110Y-51202D01*
X123943Y-50702D01*
X123776Y-51012D02*
X123395Y-51012D01*
X123585Y-51202D02*
X123585Y-50821D01*
X122581Y-51626D02*
X122629Y-51602D01*
X122700Y-51602D01*
X122772Y-51626D01*
X122819Y-51674D01*
X122843Y-51721D01*
X122867Y-51817D01*
X122867Y-51888D01*
X122843Y-51983D01*
X122819Y-52031D01*
X122772Y-52079D01*
X122700Y-52102D01*
X122652Y-52102D01*
X122581Y-52079D01*
X122557Y-52055D01*
X122557Y-51888D01*
X122652Y-51888D01*
X122343Y-52102D02*
X122343Y-51602D01*
X122057Y-52102D01*
X122057Y-51602D01*
X121819Y-52102D02*
X121819Y-51602D01*
X121700Y-51602D01*
X121628Y-51626D01*
X121581Y-51674D01*
X121557Y-51721D01*
X121533Y-51817D01*
X121533Y-51888D01*
X121557Y-51983D01*
X121581Y-52031D01*
X121628Y-52079D01*
X121700Y-52102D01*
X121819Y-52102D01*
X122581Y-50726D02*
X122629Y-50702D01*
X122700Y-50702D01*
X122772Y-50726D01*
X122819Y-50774D01*
X122843Y-50821D01*
X122867Y-50917D01*
X122867Y-50988D01*
X122843Y-51083D01*
X122819Y-51131D01*
X122772Y-51179D01*
X122700Y-51202D01*
X122652Y-51202D01*
X122581Y-51179D01*
X122557Y-51155D01*
X122557Y-50988D01*
X122652Y-50988D01*
X122343Y-51202D02*
X122343Y-50702D01*
X122057Y-51202D01*
X122057Y-50702D01*
X121819Y-51202D02*
X121819Y-50702D01*
X121700Y-50702D01*
X121628Y-50726D01*
X121581Y-50774D01*
X121557Y-50821D01*
X121533Y-50917D01*
X121533Y-50988D01*
X121557Y-51083D01*
X121581Y-51131D01*
X121628Y-51179D01*
X121700Y-51202D01*
X121819Y-51202D01*
X121119Y-52102D02*
X121119Y-51602D01*
X120928Y-51602D01*
X120881Y-51626D01*
X120857Y-51650D01*
X120833Y-51698D01*
X120833Y-51769D01*
X120857Y-51817D01*
X120881Y-51840D01*
X120928Y-51864D01*
X121119Y-51864D01*
X120452Y-51840D02*
X120381Y-51864D01*
X120357Y-51888D01*
X120333Y-51936D01*
X120333Y-52007D01*
X120357Y-52055D01*
X120381Y-52079D01*
X120428Y-52102D01*
X120619Y-52102D01*
X120619Y-51602D01*
X120452Y-51602D01*
X120405Y-51626D01*
X120381Y-51650D01*
X120357Y-51698D01*
X120357Y-51745D01*
X120381Y-51793D01*
X120405Y-51817D01*
X120452Y-51840D01*
X120619Y-51840D01*
X120167Y-51602D02*
X119857Y-51602D01*
X120024Y-51793D01*
X119952Y-51793D01*
X119905Y-51817D01*
X119881Y-51840D01*
X119857Y-51888D01*
X119857Y-52007D01*
X119881Y-52055D01*
X119905Y-52079D01*
X119952Y-52102D01*
X120095Y-52102D01*
X120143Y-52079D01*
X120167Y-52055D01*
X120774Y-50679D02*
X121202Y-51321D01*
X120607Y-50940D02*
X120440Y-50940D01*
X120369Y-51202D02*
X120607Y-51202D01*
X120607Y-50702D01*
X120369Y-50702D01*
X120155Y-51202D02*
X120155Y-50702D01*
X119869Y-51202D01*
X119869Y-50702D01*
X119419Y-52102D02*
X119419Y-51602D01*
X119228Y-51602D01*
X119181Y-51626D01*
X119157Y-51650D01*
X119133Y-51698D01*
X119133Y-51769D01*
X119157Y-51817D01*
X119181Y-51840D01*
X119228Y-51864D01*
X119419Y-51864D01*
X118752Y-51840D02*
X118681Y-51864D01*
X118657Y-51888D01*
X118633Y-51936D01*
X118633Y-52007D01*
X118657Y-52055D01*
X118681Y-52079D01*
X118728Y-52102D01*
X118919Y-52102D01*
X118919Y-51602D01*
X118752Y-51602D01*
X118705Y-51626D01*
X118681Y-51650D01*
X118657Y-51698D01*
X118657Y-51745D01*
X118681Y-51793D01*
X118705Y-51817D01*
X118752Y-51840D01*
X118919Y-51840D01*
X118157Y-52102D02*
X118443Y-52102D01*
X118300Y-52102D02*
X118300Y-51602D01*
X118348Y-51674D01*
X118395Y-51721D01*
X118443Y-51745D01*
X119074Y-50679D02*
X119502Y-51321D01*
X118621Y-51155D02*
X118645Y-51179D01*
X118716Y-51202D01*
X118764Y-51202D01*
X118836Y-51179D01*
X118883Y-51131D01*
X118907Y-51083D01*
X118931Y-50988D01*
X118931Y-50917D01*
X118907Y-50821D01*
X118883Y-50774D01*
X118836Y-50726D01*
X118764Y-50702D01*
X118716Y-50702D01*
X118645Y-50726D01*
X118621Y-50750D01*
X118431Y-51179D02*
X118359Y-51202D01*
X118240Y-51202D01*
X118193Y-51179D01*
X118169Y-51155D01*
X118145Y-51107D01*
X118145Y-51060D01*
X118169Y-51012D01*
X118193Y-50988D01*
X118240Y-50964D01*
X118336Y-50940D01*
X118383Y-50917D01*
X118407Y-50893D01*
X118431Y-50845D01*
X118431Y-50798D01*
X118407Y-50750D01*
X118383Y-50726D01*
X118336Y-50702D01*
X118216Y-50702D01*
X118145Y-50726D01*
X117719Y-52102D02*
X117719Y-51602D01*
X117528Y-51602D01*
X117481Y-51626D01*
X117457Y-51650D01*
X117433Y-51698D01*
X117433Y-51769D01*
X117457Y-51817D01*
X117481Y-51840D01*
X117528Y-51864D01*
X117719Y-51864D01*
X117052Y-51840D02*
X116981Y-51864D01*
X116957Y-51888D01*
X116933Y-51936D01*
X116933Y-52007D01*
X116957Y-52055D01*
X116981Y-52079D01*
X117028Y-52102D01*
X117219Y-52102D01*
X117219Y-51602D01*
X117052Y-51602D01*
X117005Y-51626D01*
X116981Y-51650D01*
X116957Y-51698D01*
X116957Y-51745D01*
X116981Y-51793D01*
X117005Y-51817D01*
X117052Y-51840D01*
X117219Y-51840D01*
X116624Y-51602D02*
X116576Y-51602D01*
X116528Y-51626D01*
X116505Y-51650D01*
X116481Y-51698D01*
X116457Y-51793D01*
X116457Y-51912D01*
X116481Y-52007D01*
X116505Y-52055D01*
X116528Y-52079D01*
X116576Y-52102D01*
X116624Y-52102D01*
X116671Y-52079D01*
X116695Y-52055D01*
X116719Y-52007D01*
X116743Y-51912D01*
X116743Y-51793D01*
X116719Y-51698D01*
X116695Y-51650D01*
X116671Y-51626D01*
X116624Y-51602D01*
X117397Y-51155D02*
X117421Y-51179D01*
X117492Y-51202D01*
X117540Y-51202D01*
X117612Y-51179D01*
X117659Y-51131D01*
X117683Y-51083D01*
X117707Y-50988D01*
X117707Y-50917D01*
X117683Y-50821D01*
X117659Y-50774D01*
X117612Y-50726D01*
X117540Y-50702D01*
X117492Y-50702D01*
X117421Y-50726D01*
X117397Y-50750D01*
X116945Y-51202D02*
X117183Y-51202D01*
X117183Y-50702D01*
X116778Y-51202D02*
X116778Y-50702D01*
X116492Y-51202D02*
X116707Y-50917D01*
X116492Y-50702D02*
X116778Y-50988D01*
X115819Y-52102D02*
X115819Y-51602D01*
X115628Y-51602D01*
X115581Y-51626D01*
X115557Y-51650D01*
X115533Y-51698D01*
X115533Y-51769D01*
X115557Y-51817D01*
X115581Y-51840D01*
X115628Y-51864D01*
X115819Y-51864D01*
X115319Y-52102D02*
X115319Y-51602D01*
X115200Y-51602D01*
X115128Y-51626D01*
X115081Y-51674D01*
X115057Y-51721D01*
X115033Y-51817D01*
X115033Y-51888D01*
X115057Y-51983D01*
X115081Y-52031D01*
X115128Y-52079D01*
X115200Y-52102D01*
X115319Y-52102D01*
X114605Y-51602D02*
X114700Y-51602D01*
X114748Y-51626D01*
X114771Y-51650D01*
X114819Y-51721D01*
X114843Y-51817D01*
X114843Y-52007D01*
X114819Y-52055D01*
X114795Y-52079D01*
X114748Y-52102D01*
X114652Y-52102D01*
X114605Y-52079D01*
X114581Y-52055D01*
X114557Y-52007D01*
X114557Y-51888D01*
X114581Y-51840D01*
X114605Y-51817D01*
X114652Y-51793D01*
X114748Y-51793D01*
X114795Y-51817D01*
X114819Y-51840D01*
X114843Y-51888D01*
X115985Y-51202D02*
X115985Y-50702D01*
X115818Y-51060D01*
X115652Y-50702D01*
X115652Y-51202D01*
X115414Y-51202D02*
X115414Y-50702D01*
X115200Y-51179D02*
X115128Y-51202D01*
X115009Y-51202D01*
X114962Y-51179D01*
X114938Y-51155D01*
X114914Y-51107D01*
X114914Y-51060D01*
X114938Y-51012D01*
X114962Y-50988D01*
X115009Y-50964D01*
X115105Y-50940D01*
X115152Y-50917D01*
X115176Y-50893D01*
X115200Y-50845D01*
X115200Y-50798D01*
X115176Y-50750D01*
X115152Y-50726D01*
X115105Y-50702D01*
X114985Y-50702D01*
X114914Y-50726D01*
X114605Y-50702D02*
X114509Y-50702D01*
X114462Y-50726D01*
X114414Y-50774D01*
X114390Y-50869D01*
X114390Y-51036D01*
X114414Y-51131D01*
X114462Y-51179D01*
X114509Y-51202D01*
X114605Y-51202D01*
X114652Y-51179D01*
X114700Y-51131D01*
X114724Y-51036D01*
X114724Y-50869D01*
X114700Y-50774D01*
X114652Y-50726D01*
X114605Y-50702D01*
X113521Y-52102D02*
X113759Y-52102D01*
X113759Y-51602D01*
X113354Y-51840D02*
X113187Y-51840D01*
X113116Y-52102D02*
X113354Y-52102D01*
X113354Y-51602D01*
X113116Y-51602D01*
X112902Y-52102D02*
X112902Y-51602D01*
X112783Y-51602D01*
X112711Y-51626D01*
X112664Y-51674D01*
X112640Y-51721D01*
X112616Y-51817D01*
X112616Y-51888D01*
X112640Y-51983D01*
X112664Y-52031D01*
X112711Y-52079D01*
X112783Y-52102D01*
X112902Y-52102D01*
X111942Y-51602D02*
X111657Y-51602D01*
X111800Y-52102D02*
X111800Y-51602D01*
X111538Y-51602D02*
X111204Y-52102D01*
X111204Y-51602D02*
X111538Y-52102D01*
X110919Y-51602D02*
X110823Y-51602D01*
X110776Y-51626D01*
X110728Y-51674D01*
X110704Y-51769D01*
X110704Y-51936D01*
X110728Y-52031D01*
X110776Y-52079D01*
X110823Y-52102D01*
X110919Y-52102D01*
X110966Y-52079D01*
X111014Y-52031D01*
X111038Y-51936D01*
X111038Y-51769D01*
X111014Y-51674D01*
X110966Y-51626D01*
X110919Y-51602D01*
X113985Y-51202D02*
X113985Y-50702D01*
X113818Y-51060D01*
X113652Y-50702D01*
X113652Y-51202D01*
X113319Y-50702D02*
X113223Y-50702D01*
X113176Y-50726D01*
X113128Y-50774D01*
X113104Y-50869D01*
X113104Y-51036D01*
X113128Y-51131D01*
X113176Y-51179D01*
X113223Y-51202D01*
X113319Y-51202D01*
X113366Y-51179D01*
X113414Y-51131D01*
X113438Y-51036D01*
X113438Y-50869D01*
X113414Y-50774D01*
X113366Y-50726D01*
X113319Y-50702D01*
X112914Y-51179D02*
X112842Y-51202D01*
X112723Y-51202D01*
X112676Y-51179D01*
X112652Y-51155D01*
X112628Y-51107D01*
X112628Y-51060D01*
X112652Y-51012D01*
X112676Y-50988D01*
X112723Y-50964D01*
X112819Y-50940D01*
X112866Y-50917D01*
X112890Y-50893D01*
X112914Y-50845D01*
X112914Y-50798D01*
X112890Y-50750D01*
X112866Y-50726D01*
X112819Y-50702D01*
X112699Y-50702D01*
X112628Y-50726D01*
X112414Y-51202D02*
X112414Y-50702D01*
X111502Y-51202D02*
X111669Y-50964D01*
X111788Y-51202D02*
X111788Y-50702D01*
X111597Y-50702D01*
X111550Y-50726D01*
X111526Y-50750D01*
X111502Y-50798D01*
X111502Y-50869D01*
X111526Y-50917D01*
X111550Y-50940D01*
X111597Y-50964D01*
X111788Y-50964D01*
X111336Y-50702D02*
X111002Y-51202D01*
X111002Y-50702D02*
X111336Y-51202D01*
X110812Y-51202D02*
X110812Y-50702D01*
G54D12*
X129300Y-57700D03*
G54D13*
X129300Y-55700D03*
G54D12*
X34800Y-57700D03*
G54D13*
X34800Y-55700D03*
G54D14*
X30000Y-53200D03*
G54D15*
X31000Y-53200D03*
X30000Y-54200D03*
X31000Y-54200D03*
X30000Y-55200D03*
X31000Y-55200D03*
X30000Y-56200D03*
X31000Y-56200D03*
X30000Y-57200D03*
X31000Y-57200D03*
X30000Y-58200D03*
X31000Y-58200D03*
X30000Y-59200D03*
X31000Y-59200D03*
X30000Y-60200D03*
X31000Y-60200D03*
G54D14*
X133100Y-53200D03*
G54D15*
X134100Y-53200D03*
X133100Y-54200D03*
X134100Y-54200D03*
X133100Y-55200D03*
X134100Y-55200D03*
X133100Y-56200D03*
X134100Y-56200D03*
X133100Y-57200D03*
X134100Y-57200D03*
X133100Y-58200D03*
X134100Y-58200D03*
X133100Y-59200D03*
X134100Y-59200D03*
X133100Y-60200D03*
X134100Y-60200D03*
G54D16*
X56500Y-58000D03*
G54D17*
X56500Y-60000D03*
X58500Y-60000D03*
X58500Y-58000D03*
G54D16*
X56500Y-53500D03*
G54D17*
X56500Y-55500D03*
X58500Y-55500D03*
X58500Y-53500D03*
G54D16*
X38500Y-53500D03*
G54D17*
X38500Y-55500D03*
X40500Y-55500D03*
X40500Y-53500D03*
G54D16*
X38500Y-58000D03*
G54D17*
X38500Y-60000D03*
X40500Y-60000D03*
X40500Y-58000D03*
G54D16*
X45000Y-55500D03*
G54D17*
X45000Y-53500D03*
X43000Y-53500D03*
X43000Y-55500D03*
G54D16*
X45000Y-60000D03*
G54D17*
X45000Y-58000D03*
X43000Y-58000D03*
X43000Y-60000D03*
G54D14*
X83100Y-55000D03*
G54D15*
X83100Y-56000D03*
X82100Y-55000D03*
X82100Y-56000D03*
X81100Y-55000D03*
X81100Y-56000D03*
X86100Y-51575D03*
X88650Y-51575D03*
X86100Y-53325D03*
X88650Y-53325D03*
X80700Y-51575D03*
X83250Y-51575D03*
X80700Y-53325D03*
X83250Y-53325D03*
X75300Y-51575D03*
X77850Y-51575D03*
X75300Y-53325D03*
X77850Y-53325D03*
G54D18*
X79800Y-52400D03*
G54D19*
X78800Y-52400D03*
G54D17*
X89100Y-60100D03*
X85100Y-59100D03*
X89100Y-58100D03*
G54D20*
X36500Y-52000D03*
X127500Y-61500D03*
X127500Y-52000D03*
X95500Y-61500D03*
X95500Y-52000D03*
X68500Y-61500D03*
X68500Y-52000D03*
X36500Y-61500D03*
G54D16*
X47500Y-58000D03*
G54D17*
X47500Y-60000D03*
X49500Y-60000D03*
X49500Y-58000D03*
G54D16*
X47500Y-53500D03*
G54D17*
X47500Y-55500D03*
X49500Y-55500D03*
X49500Y-53500D03*
G54D16*
X54000Y-55500D03*
G54D17*
X54000Y-53500D03*
X52000Y-53500D03*
X52000Y-55500D03*
G54D16*
X54000Y-60000D03*
G54D17*
X54000Y-58000D03*
X52000Y-58000D03*
X52000Y-60000D03*
G54D16*
X63000Y-55500D03*
G54D17*
X63000Y-53500D03*
X61000Y-53500D03*
X61000Y-55500D03*
G54D16*
X63000Y-60000D03*
G54D17*
X63000Y-58000D03*
X61000Y-58000D03*
X61000Y-60000D03*
G54D16*
X65515Y-57471D03*
G54D17*
X65515Y-59471D03*
X67515Y-59471D03*
X67515Y-57471D03*
G54D16*
X65500Y-53500D03*
G54D17*
X65500Y-55500D03*
X67500Y-55500D03*
X67500Y-53500D03*
G54D16*
X72000Y-55500D03*
G54D17*
X72000Y-53500D03*
X70000Y-53500D03*
X70000Y-55500D03*
G54D16*
X72000Y-60000D03*
G54D17*
X72000Y-58000D03*
X70000Y-58000D03*
X70000Y-60000D03*
G54D16*
X92000Y-58000D03*
G54D17*
X92000Y-60000D03*
X94000Y-60000D03*
X94000Y-58000D03*
G54D16*
X92000Y-53500D03*
G54D17*
X92000Y-55500D03*
X94000Y-55500D03*
X94000Y-53500D03*
G54D16*
X98500Y-55500D03*
G54D17*
X98500Y-53500D03*
X96500Y-53500D03*
X96500Y-55500D03*
G54D16*
X98500Y-60000D03*
G54D17*
X98500Y-58000D03*
X96500Y-58000D03*
X96500Y-60000D03*
G54D16*
X100900Y-58000D03*
G54D17*
X100900Y-60000D03*
X102900Y-60000D03*
X102900Y-58000D03*
G54D16*
X100900Y-53500D03*
G54D17*
X100900Y-55500D03*
X102900Y-55500D03*
X102900Y-53500D03*
G54D16*
X107500Y-55500D03*
G54D17*
X107500Y-53500D03*
X105500Y-53500D03*
X105500Y-55500D03*
G54D16*
X107500Y-60000D03*
G54D17*
X107500Y-58000D03*
X105500Y-58000D03*
X105500Y-60000D03*
G54D16*
X110000Y-58000D03*
G54D17*
X110000Y-60000D03*
X112000Y-60000D03*
X112000Y-58000D03*
G54D16*
X110000Y-53500D03*
G54D17*
X110000Y-55500D03*
X112000Y-55500D03*
X112000Y-53500D03*
G54D16*
X116600Y-55500D03*
G54D17*
X116600Y-53500D03*
X114600Y-53500D03*
X114600Y-55500D03*
G54D16*
X116600Y-60000D03*
G54D17*
X116600Y-58000D03*
X114600Y-58000D03*
X114600Y-60000D03*
G54D16*
X119000Y-58000D03*
G54D17*
X119000Y-60000D03*
X121000Y-60000D03*
X121000Y-58000D03*
G54D16*
X119000Y-53500D03*
G54D17*
X119000Y-55500D03*
X121000Y-55500D03*
X121000Y-53500D03*
G54D16*
X125500Y-55500D03*
G54D17*
X125500Y-53500D03*
X123500Y-53500D03*
X123500Y-55500D03*
G54D16*
X125500Y-60000D03*
G54D17*
X125500Y-58000D03*
X123500Y-58000D03*
X123500Y-60000D03*
G54D18*
X134100Y-61700D03*
G54D19*
X131100Y-61700D03*
G54D18*
X30000Y-61700D03*
G54D19*
X33000Y-61700D03*
G54D21*
X76000Y-55400D03*
X76000Y-56000D03*
X76000Y-57300D03*
X76000Y-57900D03*
X76000Y-59800D03*
X76000Y-59200D03*
X77300Y-59200D03*
X77300Y-59800D03*
G54D22*
X77000Y-58200D03*
X77600Y-58200D03*
X77000Y-57000D03*
X77600Y-57000D03*
G54D21*
X77300Y-55400D03*
X77300Y-56000D03*
G54D14*
X133100Y-51600D03*
G54D15*
X134100Y-51600D03*
G54D23*
X77403Y-54709D03*
X80225Y-59656D03*
X80211Y-59199D03*
X77045Y-53496D03*
X83864Y-60175D03*
X87838Y-57200D03*
X78535Y-60774D03*
X82225Y-53112D03*
X77819Y-54278D03*
X75401Y-61220D03*
X75628Y-61982D03*
X88440Y-62350D03*
X88519Y-61592D03*
X79800Y-58323D03*
X84417Y-60124D03*
X86526Y-60124D03*
X76728Y-59741D03*
X76670Y-55656D03*
X80334Y-55509D03*
X79152Y-60647D03*
X82682Y-53713D03*
X73400Y-55294D03*
X77911Y-52306D03*
X132251Y-51622D03*
X86618Y-52053D03*
X87800Y-50900D03*
X75684Y-56887D03*
X90972Y-55537D03*
X75920Y-58307D03*
X75785Y-58778D03*
X77225Y-57643D03*
X77918Y-60287D03*
X77689Y-57512D03*
X75854Y-56404D03*
X76610Y-56407D03*
X90668Y-56307D03*
X83735Y-57125D03*
G54D24*
X79038Y-56344D02*
X80528Y-56344D01*
X77403Y-54709D02*
X79038Y-56344D01*
X80872Y-56000D02*
X80528Y-56344D01*
X81100Y-56000D02*
X80872Y-56000D01*
X80528Y-59353D02*
X80225Y-59656D01*
X80528Y-56344D02*
X80528Y-59353D01*
G54D25*
X40500Y-58000D02*
X40500Y-55500D01*
X43000Y-58000D02*
X43000Y-55500D01*
X49500Y-55500D02*
X49500Y-58000D01*
X52000Y-58000D02*
X52000Y-55500D01*
X58500Y-55500D02*
X58500Y-58000D01*
X61000Y-58000D02*
X61000Y-55500D01*
X67500Y-57456D02*
X67515Y-57471D01*
X67500Y-55500D02*
X67500Y-57456D01*
X70000Y-58000D02*
X70000Y-55500D01*
X94000Y-55500D02*
X94000Y-58000D01*
X96500Y-58000D02*
X96500Y-55500D01*
X102900Y-55500D02*
X102900Y-58000D01*
X105500Y-58000D02*
X105500Y-55500D01*
X112000Y-55500D02*
X112000Y-58000D01*
X114600Y-58000D02*
X114600Y-55500D01*
X121000Y-55500D02*
X121000Y-58000D01*
X123500Y-58000D02*
X123500Y-55500D01*
G54D24*
X77300Y-55529D02*
X77300Y-55658D01*
X77300Y-55529D02*
X77300Y-55400D01*
X77300Y-55400D02*
X77300Y-55142D01*
X83100Y-56000D02*
X82659Y-56000D01*
X80152Y-59199D02*
X80211Y-59199D01*
X77571Y-55658D02*
X77300Y-55658D01*
X80152Y-58239D02*
X77571Y-55658D01*
X80152Y-59199D02*
X80152Y-58239D01*
X82659Y-54641D02*
X82659Y-56000D01*
X84480Y-52820D02*
X82659Y-54641D01*
X86731Y-52820D02*
X84480Y-52820D01*
X88725Y-54814D02*
X86731Y-52820D01*
X132714Y-54814D02*
X88725Y-54814D01*
X133100Y-55200D02*
X132714Y-54814D01*
X82659Y-57658D02*
X82659Y-56000D01*
X80340Y-59977D02*
X82659Y-57658D01*
X80085Y-59977D02*
X80340Y-59977D01*
X79904Y-59796D02*
X80085Y-59977D01*
X79904Y-59447D02*
X79904Y-59796D01*
X80152Y-59199D02*
X79904Y-59447D01*
X77045Y-54887D02*
X77045Y-53496D01*
X77300Y-55142D02*
X77045Y-54887D01*
X77000Y-58200D02*
X76742Y-58200D01*
X76469Y-57927D02*
X76469Y-57600D01*
X76742Y-58200D02*
X76469Y-57927D01*
X83718Y-60321D02*
X83864Y-60175D01*
X79962Y-60321D02*
X83718Y-60321D01*
X78335Y-58694D02*
X79962Y-60321D01*
X78335Y-56967D02*
X78335Y-58694D01*
X77723Y-56355D02*
X78335Y-56967D01*
X77097Y-56355D02*
X77723Y-56355D01*
X76469Y-56983D02*
X77097Y-56355D01*
X76469Y-57600D02*
X76469Y-56983D01*
X30564Y-57636D02*
X30000Y-58200D01*
X30564Y-55782D02*
X30564Y-57636D01*
X30580Y-55766D02*
X30564Y-55782D01*
X33012Y-55766D02*
X30580Y-55766D01*
X34022Y-56776D02*
X33012Y-55766D01*
X35248Y-56776D02*
X34022Y-56776D01*
X37005Y-58533D02*
X35248Y-56776D01*
X63235Y-58533D02*
X37005Y-58533D01*
X63764Y-58004D02*
X63235Y-58533D01*
X69220Y-58004D02*
X63764Y-58004D01*
X69749Y-58533D02*
X69220Y-58004D01*
X70265Y-58533D02*
X69749Y-58533D01*
X71331Y-57467D02*
X70265Y-58533D01*
X72221Y-57467D02*
X71331Y-57467D01*
X72354Y-57600D02*
X72221Y-57467D01*
X76469Y-57600D02*
X72354Y-57600D01*
X77000Y-57000D02*
X77258Y-57000D01*
X79196Y-60025D02*
X78552Y-60025D01*
X79655Y-60484D02*
X79196Y-60025D01*
X84554Y-60484D02*
X79655Y-60484D01*
X87838Y-57200D02*
X84554Y-60484D01*
X78552Y-60757D02*
X78552Y-60025D01*
X78535Y-60774D02*
X78552Y-60757D01*
X77258Y-56742D02*
X77258Y-57000D01*
X77359Y-56641D02*
X77258Y-56742D01*
X77779Y-56641D02*
X77359Y-56641D01*
X78123Y-56985D02*
X77779Y-56641D01*
X78123Y-59596D02*
X78123Y-56985D01*
X78552Y-60025D02*
X78123Y-59596D01*
X133541Y-53641D02*
X134100Y-54200D01*
X132957Y-53641D02*
X133541Y-53641D01*
X132233Y-54365D02*
X132957Y-53641D01*
X91417Y-54365D02*
X132233Y-54365D01*
X89541Y-52489D02*
X91417Y-54365D01*
X82848Y-52489D02*
X89541Y-52489D01*
X82225Y-53112D02*
X82848Y-52489D01*
X82100Y-56000D02*
X81666Y-55566D01*
X132649Y-54651D02*
X133100Y-54200D01*
X91218Y-54651D02*
X132649Y-54651D01*
X89223Y-52656D02*
X91218Y-54651D01*
X83296Y-52656D02*
X89223Y-52656D01*
X81666Y-54286D02*
X83296Y-52656D01*
X81666Y-55566D02*
X81666Y-54286D01*
X80728Y-55566D02*
X81666Y-55566D01*
X80477Y-55817D02*
X80728Y-55566D01*
X79358Y-55817D02*
X80477Y-55817D01*
X77819Y-54278D02*
X79358Y-55817D01*
G54D25*
X45000Y-60000D02*
X45603Y-60000D01*
X46508Y-59095D02*
X45603Y-60000D01*
X64138Y-59095D02*
X46508Y-59095D01*
X64668Y-58565D02*
X64138Y-59095D01*
X68992Y-58565D02*
X64668Y-58565D01*
X69521Y-59094D02*
X68992Y-58565D01*
X73275Y-59094D02*
X69521Y-59094D01*
X75401Y-61220D02*
X73275Y-59094D01*
X63000Y-60000D02*
X63603Y-60000D01*
X73043Y-59397D02*
X75628Y-61982D01*
X69351Y-59397D02*
X73043Y-59397D01*
X68822Y-58868D02*
X69351Y-59397D01*
X65231Y-58868D02*
X68822Y-58868D01*
X64099Y-60000D02*
X65231Y-58868D01*
X63603Y-60000D02*
X64099Y-60000D01*
X98500Y-60000D02*
X97897Y-60000D01*
X97294Y-59397D02*
X97897Y-60000D01*
X91393Y-59397D02*
X97294Y-59397D01*
X88440Y-62350D02*
X91393Y-59397D01*
X116600Y-60000D02*
X115997Y-60000D01*
X114973Y-58976D02*
X115997Y-60000D01*
X91135Y-58976D02*
X114973Y-58976D01*
X88519Y-61592D02*
X91135Y-58976D01*
G54D24*
X77300Y-59200D02*
X77300Y-59458D01*
X77300Y-59200D02*
X77300Y-59458D01*
X77525Y-59458D02*
X77300Y-59458D01*
X78226Y-60159D02*
X77525Y-59458D01*
X78226Y-60415D02*
X78226Y-60159D01*
X77930Y-60711D02*
X78226Y-60415D01*
X77930Y-61129D02*
X77930Y-60711D01*
X78046Y-61245D02*
X77930Y-61129D01*
X84913Y-61245D02*
X78046Y-61245D01*
X86818Y-59340D02*
X84913Y-61245D01*
X90440Y-59340D02*
X86818Y-59340D01*
X91038Y-58742D02*
X90440Y-59340D01*
X126722Y-58742D02*
X91038Y-58742D01*
X128764Y-56700D02*
X126722Y-58742D01*
X133600Y-56700D02*
X128764Y-56700D01*
X134100Y-56200D02*
X133600Y-56700D01*
X31739Y-56939D02*
X31000Y-56200D01*
X35179Y-56939D02*
X31739Y-56939D01*
X36937Y-58697D02*
X35179Y-56939D01*
X63301Y-58697D02*
X36937Y-58697D01*
X63829Y-58169D02*
X63301Y-58697D01*
X69155Y-58169D02*
X63829Y-58169D01*
X69683Y-58697D02*
X69155Y-58169D01*
X74359Y-58697D02*
X69683Y-58697D01*
X75727Y-60065D02*
X74359Y-58697D01*
X76274Y-60065D02*
X75727Y-60065D01*
X76420Y-59919D02*
X76274Y-60065D01*
X76420Y-59614D02*
X76420Y-59919D01*
X76601Y-59433D02*
X76420Y-59614D01*
X76856Y-59433D02*
X76601Y-59433D01*
X76881Y-59458D02*
X76856Y-59433D01*
X77300Y-59458D02*
X76881Y-59458D01*
X84160Y-59867D02*
X84417Y-60124D01*
X83737Y-59867D02*
X84160Y-59867D01*
X83446Y-60158D02*
X83737Y-59867D01*
X80030Y-60158D02*
X83446Y-60158D01*
X79741Y-59869D02*
X80030Y-60158D01*
X79741Y-58382D02*
X79741Y-59869D01*
X79800Y-58323D02*
X79741Y-58382D01*
X80334Y-55190D02*
X80334Y-55509D01*
X77974Y-52830D02*
X80334Y-55190D01*
X77202Y-52830D02*
X77974Y-52830D01*
X76670Y-53362D02*
X77202Y-52830D01*
X76670Y-55656D02*
X76670Y-53362D01*
X32035Y-57165D02*
X31000Y-58200D01*
X35155Y-57165D02*
X32035Y-57165D01*
X36852Y-58862D02*
X35155Y-57165D01*
X64042Y-58862D02*
X36852Y-58862D01*
X64572Y-58332D02*
X64042Y-58862D01*
X69088Y-58332D02*
X64572Y-58332D01*
X69617Y-58861D02*
X69088Y-58332D01*
X74291Y-58861D02*
X69617Y-58861D01*
X75663Y-60233D02*
X74291Y-58861D01*
X76336Y-60233D02*
X75663Y-60233D01*
X76728Y-59841D02*
X76336Y-60233D01*
X76728Y-59741D02*
X76728Y-59841D01*
X79315Y-60810D02*
X79152Y-60647D01*
X84689Y-60810D02*
X79315Y-60810D01*
X86323Y-59176D02*
X84689Y-60810D01*
X89152Y-59176D02*
X86323Y-59176D01*
X89750Y-58578D02*
X89152Y-59176D01*
X125924Y-58578D02*
X89750Y-58578D01*
X128112Y-56390D02*
X125924Y-58578D01*
X132208Y-56390D02*
X128112Y-56390D01*
X132898Y-55700D02*
X132208Y-56390D01*
X133600Y-55700D02*
X132898Y-55700D01*
X134100Y-55200D02*
X133600Y-55700D01*
X82100Y-54295D02*
X82682Y-53713D01*
X82100Y-55000D02*
X82100Y-54295D01*
X133100Y-52767D02*
X133100Y-52033D01*
X133100Y-53200D02*
X133100Y-52767D01*
X133100Y-51816D02*
X133100Y-52033D01*
X133100Y-51816D02*
X133100Y-51600D01*
X133100Y-51600D02*
X132667Y-51600D01*
X30000Y-53200D02*
X30433Y-53200D01*
X73400Y-52583D02*
X73400Y-54920D01*
X75249Y-50734D02*
X73400Y-52583D01*
X87064Y-50734D02*
X75249Y-50734D01*
X87663Y-51333D02*
X87064Y-50734D01*
X88125Y-51333D02*
X87663Y-51333D01*
X88316Y-51142D02*
X88125Y-51333D01*
X89070Y-51142D02*
X88316Y-51142D01*
X89086Y-51158D02*
X89070Y-51142D01*
X89086Y-51574D02*
X89086Y-51158D01*
X91545Y-54033D02*
X89086Y-51574D01*
X129398Y-54033D02*
X91545Y-54033D01*
X132238Y-51193D02*
X129398Y-54033D01*
X132260Y-51193D02*
X132238Y-51193D01*
X132667Y-51600D02*
X132260Y-51193D01*
X73400Y-54920D02*
X73400Y-55294D01*
X37455Y-54920D02*
X73400Y-54920D01*
X36178Y-56197D02*
X37455Y-54920D01*
X33673Y-56197D02*
X36178Y-56197D01*
X31718Y-54242D02*
X33673Y-56197D01*
X31718Y-53288D02*
X31718Y-54242D01*
X31197Y-52767D02*
X31718Y-53288D01*
X30449Y-52767D02*
X31197Y-52767D01*
X30433Y-52783D02*
X30449Y-52767D01*
X30433Y-53200D02*
X30433Y-52783D01*
X76258Y-56784D02*
X76000Y-57042D01*
X76258Y-56324D02*
X76258Y-56784D01*
X76358Y-56224D02*
X76258Y-56324D01*
X76358Y-55756D02*
X76358Y-56224D01*
X76263Y-55661D02*
X76358Y-55756D01*
X75657Y-55661D02*
X76263Y-55661D01*
X75300Y-55304D02*
X75657Y-55661D01*
X75300Y-53325D02*
X75300Y-55304D01*
X76000Y-57300D02*
X76000Y-57042D01*
X76000Y-59800D02*
X76000Y-59542D01*
X76214Y-59542D02*
X76000Y-59542D01*
X76815Y-58941D02*
X76214Y-59542D01*
X77656Y-58941D02*
X76815Y-58941D01*
X77942Y-59227D02*
X77656Y-58941D01*
X77942Y-59646D02*
X77942Y-59227D01*
X78389Y-60093D02*
X77942Y-59646D01*
X78389Y-60482D02*
X78389Y-60093D01*
X78107Y-60764D02*
X78389Y-60482D01*
X78107Y-60781D02*
X78107Y-60764D01*
X78408Y-61082D02*
X78107Y-60781D01*
X78663Y-61082D02*
X78408Y-61082D01*
X78843Y-60902D02*
X78663Y-61082D01*
X78843Y-60508D02*
X78843Y-60902D01*
X79012Y-60339D02*
X78843Y-60508D01*
X79280Y-60339D02*
X79012Y-60339D01*
X79588Y-60647D02*
X79280Y-60339D01*
X84621Y-60647D02*
X79588Y-60647D01*
X86418Y-58850D02*
X84621Y-60647D01*
X89114Y-58850D02*
X86418Y-58850D01*
X91291Y-56673D02*
X89114Y-58850D01*
X91291Y-55251D02*
X91291Y-56673D01*
X91261Y-55221D02*
X91291Y-55251D01*
X87996Y-55221D02*
X91261Y-55221D01*
X86100Y-53325D02*
X87996Y-55221D01*
X134100Y-51600D02*
X134100Y-53200D01*
X76000Y-53802D02*
X76000Y-55400D01*
X77496Y-52306D02*
X76000Y-53802D01*
X77911Y-52306D02*
X77496Y-52306D01*
X129677Y-54196D02*
X132251Y-51622D01*
X91478Y-54196D02*
X129677Y-54196D01*
X89335Y-52053D02*
X91478Y-54196D01*
X86618Y-52053D02*
X89335Y-52053D01*
G54D25*
X87800Y-50900D02*
X87800Y-50200D01*
G54D26*
X28900Y-50200D02*
X87800Y-50200D01*
X28900Y-61700D02*
X28900Y-50200D01*
X135200Y-50200D02*
X135200Y-61700D01*
X87800Y-50200D02*
X135200Y-50200D01*
X30000Y-61700D02*
X28900Y-61700D01*
X28900Y-63300D02*
X34800Y-63300D01*
X28900Y-61700D02*
X28900Y-63300D01*
X34800Y-57700D02*
X34800Y-63300D01*
X129300Y-57700D02*
X129300Y-63300D01*
X65500Y-60000D02*
X65500Y-63300D01*
X56500Y-63200D02*
X56400Y-63300D01*
X56500Y-60000D02*
X56500Y-63200D01*
X47500Y-60000D02*
X47500Y-63300D01*
X38500Y-63200D02*
X38400Y-63300D01*
X38500Y-60000D02*
X38500Y-63200D01*
X119000Y-60000D02*
X119000Y-63300D01*
X110000Y-60000D02*
X110000Y-63300D01*
X100900Y-60000D02*
X100900Y-63300D01*
X34900Y-63300D02*
X38400Y-63300D01*
X34900Y-63200D02*
X34900Y-63300D01*
X34800Y-63300D02*
X34900Y-63200D01*
X135200Y-63300D02*
X135200Y-61700D01*
X129300Y-63300D02*
X135200Y-63300D01*
X135200Y-61700D02*
X134100Y-61700D01*
X38400Y-63300D02*
X47500Y-63300D01*
X47500Y-63300D02*
X56400Y-63300D01*
X56400Y-63300D02*
X65500Y-63300D01*
X92000Y-60000D02*
X92000Y-63300D01*
X92000Y-63300D02*
X92100Y-63300D01*
X65500Y-63300D02*
X92000Y-63300D01*
X92000Y-63300D02*
X92100Y-63300D01*
X92100Y-63300D02*
X100900Y-63300D01*
X100900Y-63300D02*
X110000Y-63300D01*
X110000Y-63300D02*
X119000Y-63300D01*
X119000Y-63300D02*
X129300Y-63300D01*
X65500Y-59486D02*
X65515Y-59471D01*
X65500Y-60000D02*
X65500Y-59486D01*
X30000Y-60200D02*
X31000Y-60200D01*
X33000Y-60200D02*
X33000Y-61700D01*
X31000Y-60200D02*
X33000Y-60200D01*
X134100Y-60200D02*
X133100Y-60200D01*
X131100Y-60200D02*
X131100Y-61700D01*
X133100Y-60200D02*
X131100Y-60200D01*
G54D25*
X81100Y-54365D02*
X81100Y-55000D01*
X77975Y-51575D02*
X78800Y-52400D01*
X77850Y-51575D02*
X77975Y-51575D01*
X80765Y-54365D02*
X81100Y-54365D01*
X78800Y-52400D02*
X80765Y-54365D01*
X87574Y-51575D02*
X88650Y-51575D01*
X86984Y-50985D02*
X87574Y-51575D01*
X83840Y-50985D02*
X86984Y-50985D01*
X83250Y-51575D02*
X83840Y-50985D01*
X74796Y-55999D02*
X75684Y-56887D01*
X74796Y-52953D02*
X74796Y-55999D01*
X76174Y-51575D02*
X74796Y-52953D01*
X77850Y-51575D02*
X76174Y-51575D01*
X81100Y-53702D02*
X81100Y-54365D01*
X83227Y-51575D02*
X81100Y-53702D01*
X83250Y-51575D02*
X83227Y-51575D01*
X91046Y-55611D02*
X90972Y-55537D01*
X91046Y-56464D02*
X91046Y-55611D01*
X89410Y-58100D02*
X91046Y-56464D01*
X89100Y-58100D02*
X89410Y-58100D01*
G54D24*
X76000Y-57900D02*
X76000Y-58158D01*
X76000Y-58227D02*
X75920Y-58307D01*
X76000Y-58158D02*
X76000Y-58227D01*
X75949Y-58942D02*
X75785Y-58778D01*
X76000Y-58942D02*
X75949Y-58942D01*
X76000Y-59200D02*
X76000Y-58942D01*
X77600Y-58200D02*
X77600Y-57842D01*
X77424Y-57842D02*
X77225Y-57643D01*
X77600Y-57842D02*
X77424Y-57842D01*
X77431Y-59800D02*
X77300Y-59800D01*
X77918Y-60287D02*
X77431Y-59800D01*
X77689Y-57447D02*
X77689Y-57512D01*
X77600Y-57358D02*
X77689Y-57447D01*
X77600Y-57000D02*
X77600Y-57358D01*
X76000Y-56000D02*
X76000Y-56258D01*
X76000Y-56258D02*
X75854Y-56404D01*
X77300Y-56000D02*
X76942Y-56000D01*
X76610Y-56332D02*
X76610Y-56407D01*
X76942Y-56000D02*
X76610Y-56332D01*
G54D25*
X83100Y-55000D02*
X83603Y-55000D01*
X84732Y-56128D02*
X83735Y-57125D01*
X83603Y-55000D02*
X84732Y-56128D01*
X84911Y-56307D02*
X90668Y-56307D01*
X84780Y-56176D02*
X84911Y-56307D01*
X84779Y-56176D02*
X84780Y-56176D01*
X84732Y-56128D02*
X84779Y-56176D01*
M02*
