G04 (created by PCBNEW-RS274X (2011-04-28)-stable) date Sat 30 Jul 2011 04:44:01 AM CEST*
G01*
G70*
G90*
%MOIN*%
G04 Gerber Fmt 3.4, Leading zero omitted, Abs format*
%FSLAX34Y34*%
G04 APERTURE LIST*
%ADD10C,0.010000*%
%ADD11C,0.012000*%
%ADD12R,0.080000X0.080000*%
%ADD13C,0.080000*%
%ADD14R,0.060000X0.060000*%
%ADD15C,0.060000*%
%ADD16R,0.059000X0.051100*%
%ADD17R,0.055000X0.055000*%
%ADD18C,0.055000*%
%ADD19R,0.051100X0.059000*%
%ADD20R,0.070800X0.062900*%
%ADD21R,0.062900X0.070800*%
%ADD22R,0.086600X0.023600*%
%ADD23C,0.160000*%
%ADD24R,0.100000X0.100000*%
%ADD25C,0.100000*%
%ADD26C,0.035000*%
%ADD27C,0.006000*%
%ADD28C,0.020000*%
%ADD29C,0.040000*%
%ADD30C,0.080000*%
G04 APERTURE END LIST*
G54D10*
X04000Y-04000D02*
X161350Y-04000D01*
X161350Y-113000D01*
X04000Y-113000D01*
X04000Y-04000D01*
X04700Y-04700D02*
X160650Y-04700D01*
X160650Y-112300D01*
X04700Y-112300D01*
X04700Y-04700D01*
X26470Y-04000D02*
X26470Y-04700D01*
X15383Y-04552D02*
X15097Y-04552D01*
X15240Y-04552D02*
X15240Y-04052D01*
X15192Y-04124D01*
X15145Y-04171D01*
X15097Y-04195D01*
X26470Y-113000D02*
X26470Y-112300D01*
X15383Y-112852D02*
X15097Y-112852D01*
X15240Y-112852D02*
X15240Y-112352D01*
X15192Y-112424D01*
X15145Y-112471D01*
X15097Y-112495D01*
X48940Y-04000D02*
X48940Y-04700D01*
X37567Y-04100D02*
X37591Y-04076D01*
X37639Y-04052D01*
X37758Y-04052D01*
X37805Y-04076D01*
X37829Y-04100D01*
X37853Y-04148D01*
X37853Y-04195D01*
X37829Y-04267D01*
X37543Y-04552D01*
X37853Y-04552D01*
X48940Y-113000D02*
X48940Y-112300D01*
X37567Y-112400D02*
X37591Y-112376D01*
X37639Y-112352D01*
X37758Y-112352D01*
X37805Y-112376D01*
X37829Y-112400D01*
X37853Y-112448D01*
X37853Y-112495D01*
X37829Y-112567D01*
X37543Y-112852D01*
X37853Y-112852D01*
X71410Y-04000D02*
X71410Y-04700D01*
X60013Y-04052D02*
X60323Y-04052D01*
X60156Y-04243D01*
X60228Y-04243D01*
X60275Y-04267D01*
X60299Y-04290D01*
X60323Y-04338D01*
X60323Y-04457D01*
X60299Y-04505D01*
X60275Y-04529D01*
X60228Y-04552D01*
X60085Y-04552D01*
X60037Y-04529D01*
X60013Y-04505D01*
X71410Y-113000D02*
X71410Y-112300D01*
X60013Y-112352D02*
X60323Y-112352D01*
X60156Y-112543D01*
X60228Y-112543D01*
X60275Y-112567D01*
X60299Y-112590D01*
X60323Y-112638D01*
X60323Y-112757D01*
X60299Y-112805D01*
X60275Y-112829D01*
X60228Y-112852D01*
X60085Y-112852D01*
X60037Y-112829D01*
X60013Y-112805D01*
X93880Y-04000D02*
X93880Y-04700D01*
X82745Y-04219D02*
X82745Y-04552D01*
X82626Y-04029D02*
X82507Y-04386D01*
X82817Y-04386D01*
X93880Y-113000D02*
X93880Y-112300D01*
X82745Y-112519D02*
X82745Y-112852D01*
X82626Y-112329D02*
X82507Y-112686D01*
X82817Y-112686D01*
X116350Y-04000D02*
X116350Y-04700D01*
X105239Y-04052D02*
X105001Y-04052D01*
X104977Y-04290D01*
X105001Y-04267D01*
X105049Y-04243D01*
X105168Y-04243D01*
X105215Y-04267D01*
X105239Y-04290D01*
X105263Y-04338D01*
X105263Y-04457D01*
X105239Y-04505D01*
X105215Y-04529D01*
X105168Y-04552D01*
X105049Y-04552D01*
X105001Y-04529D01*
X104977Y-04505D01*
X116350Y-113000D02*
X116350Y-112300D01*
X105239Y-112352D02*
X105001Y-112352D01*
X104977Y-112590D01*
X105001Y-112567D01*
X105049Y-112543D01*
X105168Y-112543D01*
X105215Y-112567D01*
X105239Y-112590D01*
X105263Y-112638D01*
X105263Y-112757D01*
X105239Y-112805D01*
X105215Y-112829D01*
X105168Y-112852D01*
X105049Y-112852D01*
X105001Y-112829D01*
X104977Y-112805D01*
X138820Y-04000D02*
X138820Y-04700D01*
X127685Y-04052D02*
X127590Y-04052D01*
X127542Y-04076D01*
X127519Y-04100D01*
X127471Y-04171D01*
X127447Y-04267D01*
X127447Y-04457D01*
X127471Y-04505D01*
X127495Y-04529D01*
X127542Y-04552D01*
X127638Y-04552D01*
X127685Y-04529D01*
X127709Y-04505D01*
X127733Y-04457D01*
X127733Y-04338D01*
X127709Y-04290D01*
X127685Y-04267D01*
X127638Y-04243D01*
X127542Y-04243D01*
X127495Y-04267D01*
X127471Y-04290D01*
X127447Y-04338D01*
X138820Y-113000D02*
X138820Y-112300D01*
X127685Y-112352D02*
X127590Y-112352D01*
X127542Y-112376D01*
X127519Y-112400D01*
X127471Y-112471D01*
X127447Y-112567D01*
X127447Y-112757D01*
X127471Y-112805D01*
X127495Y-112829D01*
X127542Y-112852D01*
X127638Y-112852D01*
X127685Y-112829D01*
X127709Y-112805D01*
X127733Y-112757D01*
X127733Y-112638D01*
X127709Y-112590D01*
X127685Y-112567D01*
X127638Y-112543D01*
X127542Y-112543D01*
X127495Y-112567D01*
X127471Y-112590D01*
X127447Y-112638D01*
X149893Y-04052D02*
X150227Y-04052D01*
X150012Y-04552D01*
X149893Y-112352D02*
X150227Y-112352D01*
X150012Y-112852D01*
X04000Y-25800D02*
X04700Y-25800D01*
X04231Y-14960D02*
X04469Y-14960D01*
X04184Y-15102D02*
X04350Y-14602D01*
X04517Y-15102D01*
X161350Y-25800D02*
X160650Y-25800D01*
X160881Y-14960D02*
X161119Y-14960D01*
X160834Y-15102D02*
X161000Y-14602D01*
X161167Y-15102D01*
X04000Y-47600D02*
X04700Y-47600D01*
X04386Y-36640D02*
X04457Y-36664D01*
X04481Y-36688D01*
X04505Y-36736D01*
X04505Y-36807D01*
X04481Y-36855D01*
X04457Y-36879D01*
X04410Y-36902D01*
X04219Y-36902D01*
X04219Y-36402D01*
X04386Y-36402D01*
X04433Y-36426D01*
X04457Y-36450D01*
X04481Y-36498D01*
X04481Y-36545D01*
X04457Y-36593D01*
X04433Y-36617D01*
X04386Y-36640D01*
X04219Y-36640D01*
X161350Y-47600D02*
X160650Y-47600D01*
X161036Y-36640D02*
X161107Y-36664D01*
X161131Y-36688D01*
X161155Y-36736D01*
X161155Y-36807D01*
X161131Y-36855D01*
X161107Y-36879D01*
X161060Y-36902D01*
X160869Y-36902D01*
X160869Y-36402D01*
X161036Y-36402D01*
X161083Y-36426D01*
X161107Y-36450D01*
X161131Y-36498D01*
X161131Y-36545D01*
X161107Y-36593D01*
X161083Y-36617D01*
X161036Y-36640D01*
X160869Y-36640D01*
X04000Y-69400D02*
X04700Y-69400D01*
X04505Y-58655D02*
X04481Y-58679D01*
X04410Y-58702D01*
X04362Y-58702D01*
X04290Y-58679D01*
X04243Y-58631D01*
X04219Y-58583D01*
X04195Y-58488D01*
X04195Y-58417D01*
X04219Y-58321D01*
X04243Y-58274D01*
X04290Y-58226D01*
X04362Y-58202D01*
X04410Y-58202D01*
X04481Y-58226D01*
X04505Y-58250D01*
X161350Y-69400D02*
X160650Y-69400D01*
X161155Y-58655D02*
X161131Y-58679D01*
X161060Y-58702D01*
X161012Y-58702D01*
X160940Y-58679D01*
X160893Y-58631D01*
X160869Y-58583D01*
X160845Y-58488D01*
X160845Y-58417D01*
X160869Y-58321D01*
X160893Y-58274D01*
X160940Y-58226D01*
X161012Y-58202D01*
X161060Y-58202D01*
X161131Y-58226D01*
X161155Y-58250D01*
X04000Y-91200D02*
X04700Y-91200D01*
X04219Y-80502D02*
X04219Y-80002D01*
X04338Y-80002D01*
X04410Y-80026D01*
X04457Y-80074D01*
X04481Y-80121D01*
X04505Y-80217D01*
X04505Y-80288D01*
X04481Y-80383D01*
X04457Y-80431D01*
X04410Y-80479D01*
X04338Y-80502D01*
X04219Y-80502D01*
X161350Y-91200D02*
X160650Y-91200D01*
X160869Y-80502D02*
X160869Y-80002D01*
X160988Y-80002D01*
X161060Y-80026D01*
X161107Y-80074D01*
X161131Y-80121D01*
X161155Y-80217D01*
X161155Y-80288D01*
X161131Y-80383D01*
X161107Y-80431D01*
X161060Y-80479D01*
X160988Y-80502D01*
X160869Y-80502D01*
X04243Y-102040D02*
X04410Y-102040D01*
X04481Y-102302D02*
X04243Y-102302D01*
X04243Y-101802D01*
X04481Y-101802D01*
X160893Y-102040D02*
X161060Y-102040D01*
X161131Y-102302D02*
X160893Y-102302D01*
X160893Y-101802D01*
X161131Y-101802D01*
G54D11*
X127793Y-110743D02*
X127793Y-110143D01*
X127936Y-110143D01*
X128021Y-110171D01*
X128079Y-110229D01*
X128107Y-110286D01*
X128136Y-110400D01*
X128136Y-110486D01*
X128107Y-110600D01*
X128079Y-110657D01*
X128021Y-110714D01*
X127936Y-110743D01*
X127793Y-110743D01*
X128650Y-110743D02*
X128650Y-110429D01*
X128621Y-110371D01*
X128564Y-110343D01*
X128450Y-110343D01*
X128393Y-110371D01*
X128650Y-110714D02*
X128593Y-110743D01*
X128450Y-110743D01*
X128393Y-110714D01*
X128364Y-110657D01*
X128364Y-110600D01*
X128393Y-110543D01*
X128450Y-110514D01*
X128593Y-110514D01*
X128650Y-110486D01*
X128850Y-110343D02*
X129079Y-110343D01*
X128936Y-110143D02*
X128936Y-110657D01*
X128964Y-110714D01*
X129022Y-110743D01*
X129079Y-110743D01*
X129507Y-110714D02*
X129450Y-110743D01*
X129336Y-110743D01*
X129279Y-110714D01*
X129250Y-110657D01*
X129250Y-110429D01*
X129279Y-110371D01*
X129336Y-110343D01*
X129450Y-110343D01*
X129507Y-110371D01*
X129536Y-110429D01*
X129536Y-110486D01*
X129250Y-110543D01*
X129793Y-110686D02*
X129821Y-110714D01*
X129793Y-110743D01*
X129764Y-110714D01*
X129793Y-110686D01*
X129793Y-110743D01*
X129793Y-110371D02*
X129821Y-110400D01*
X129793Y-110429D01*
X129764Y-110400D01*
X129793Y-110371D01*
X129793Y-110429D01*
X130479Y-110143D02*
X130850Y-110143D01*
X130650Y-110371D01*
X130736Y-110371D01*
X130793Y-110400D01*
X130822Y-110429D01*
X130850Y-110486D01*
X130850Y-110629D01*
X130822Y-110686D01*
X130793Y-110714D01*
X130736Y-110743D01*
X130564Y-110743D01*
X130507Y-110714D01*
X130479Y-110686D01*
X131221Y-110143D02*
X131278Y-110143D01*
X131335Y-110171D01*
X131364Y-110200D01*
X131393Y-110257D01*
X131421Y-110371D01*
X131421Y-110514D01*
X131393Y-110629D01*
X131364Y-110686D01*
X131335Y-110714D01*
X131278Y-110743D01*
X131221Y-110743D01*
X131164Y-110714D01*
X131135Y-110686D01*
X131107Y-110629D01*
X131078Y-110514D01*
X131078Y-110371D01*
X131107Y-110257D01*
X131135Y-110200D01*
X131164Y-110171D01*
X131221Y-110143D01*
X132135Y-110343D02*
X132135Y-110857D01*
X132106Y-110914D01*
X132049Y-110943D01*
X132021Y-110943D01*
X132135Y-110143D02*
X132106Y-110171D01*
X132135Y-110200D01*
X132163Y-110171D01*
X132135Y-110143D01*
X132135Y-110200D01*
X132678Y-110343D02*
X132678Y-110743D01*
X132421Y-110343D02*
X132421Y-110657D01*
X132449Y-110714D01*
X132507Y-110743D01*
X132592Y-110743D01*
X132649Y-110714D01*
X132678Y-110686D01*
X133050Y-110743D02*
X132992Y-110714D01*
X132964Y-110657D01*
X132964Y-110143D01*
X133706Y-110200D02*
X133735Y-110171D01*
X133792Y-110143D01*
X133935Y-110143D01*
X133992Y-110171D01*
X134021Y-110200D01*
X134049Y-110257D01*
X134049Y-110314D01*
X134021Y-110400D01*
X133678Y-110743D01*
X134049Y-110743D01*
X134420Y-110143D02*
X134477Y-110143D01*
X134534Y-110171D01*
X134563Y-110200D01*
X134592Y-110257D01*
X134620Y-110371D01*
X134620Y-110514D01*
X134592Y-110629D01*
X134563Y-110686D01*
X134534Y-110714D01*
X134477Y-110743D01*
X134420Y-110743D01*
X134363Y-110714D01*
X134334Y-110686D01*
X134306Y-110629D01*
X134277Y-110514D01*
X134277Y-110371D01*
X134306Y-110257D01*
X134334Y-110200D01*
X134363Y-110171D01*
X134420Y-110143D01*
X135191Y-110743D02*
X134848Y-110743D01*
X135020Y-110743D02*
X135020Y-110143D01*
X134963Y-110229D01*
X134905Y-110286D01*
X134848Y-110314D01*
X135762Y-110743D02*
X135419Y-110743D01*
X135591Y-110743D02*
X135591Y-110143D01*
X135534Y-110229D01*
X135476Y-110286D01*
X135419Y-110314D01*
G54D10*
X119393Y-111943D02*
X119393Y-111343D01*
X119736Y-111943D02*
X119479Y-111600D01*
X119736Y-111343D02*
X119393Y-111686D01*
X119993Y-111943D02*
X119993Y-111543D01*
X119993Y-111343D02*
X119964Y-111371D01*
X119993Y-111400D01*
X120021Y-111371D01*
X119993Y-111343D01*
X119993Y-111400D01*
X120622Y-111886D02*
X120593Y-111914D01*
X120507Y-111943D01*
X120450Y-111943D01*
X120365Y-111914D01*
X120307Y-111857D01*
X120279Y-111800D01*
X120250Y-111686D01*
X120250Y-111600D01*
X120279Y-111486D01*
X120307Y-111429D01*
X120365Y-111371D01*
X120450Y-111343D01*
X120507Y-111343D01*
X120593Y-111371D01*
X120622Y-111400D01*
X121136Y-111943D02*
X121136Y-111629D01*
X121107Y-111571D01*
X121050Y-111543D01*
X120936Y-111543D01*
X120879Y-111571D01*
X121136Y-111914D02*
X121079Y-111943D01*
X120936Y-111943D01*
X120879Y-111914D01*
X120850Y-111857D01*
X120850Y-111800D01*
X120879Y-111743D01*
X120936Y-111714D01*
X121079Y-111714D01*
X121136Y-111686D01*
X121679Y-111943D02*
X121679Y-111343D01*
X121679Y-111914D02*
X121622Y-111943D01*
X121508Y-111943D01*
X121450Y-111914D01*
X121422Y-111886D01*
X121393Y-111829D01*
X121393Y-111657D01*
X121422Y-111600D01*
X121450Y-111571D01*
X121508Y-111543D01*
X121622Y-111543D01*
X121679Y-111571D01*
X122422Y-111629D02*
X122622Y-111629D01*
X122708Y-111943D02*
X122422Y-111943D01*
X122422Y-111343D01*
X122708Y-111343D01*
X122965Y-111886D02*
X122993Y-111914D01*
X122965Y-111943D01*
X122936Y-111914D01*
X122965Y-111886D01*
X122965Y-111943D01*
X123251Y-111943D02*
X123251Y-111343D01*
X123394Y-111343D01*
X123479Y-111371D01*
X123537Y-111429D01*
X123565Y-111486D01*
X123594Y-111600D01*
X123594Y-111686D01*
X123565Y-111800D01*
X123537Y-111857D01*
X123479Y-111914D01*
X123394Y-111943D01*
X123251Y-111943D01*
X123851Y-111886D02*
X123879Y-111914D01*
X123851Y-111943D01*
X123822Y-111914D01*
X123851Y-111886D01*
X123851Y-111943D01*
X124108Y-111771D02*
X124394Y-111771D01*
X124051Y-111943D02*
X124251Y-111343D01*
X124451Y-111943D01*
X124651Y-111886D02*
X124679Y-111914D01*
X124651Y-111943D01*
X124622Y-111914D01*
X124651Y-111886D01*
X124651Y-111943D01*
G54D11*
X152936Y-110743D02*
X152736Y-110457D01*
X152593Y-110743D02*
X152593Y-110143D01*
X152821Y-110143D01*
X152879Y-110171D01*
X152907Y-110200D01*
X152936Y-110257D01*
X152936Y-110343D01*
X152907Y-110400D01*
X152879Y-110429D01*
X152821Y-110457D01*
X152593Y-110457D01*
X153421Y-110714D02*
X153364Y-110743D01*
X153250Y-110743D01*
X153193Y-110714D01*
X153164Y-110657D01*
X153164Y-110429D01*
X153193Y-110371D01*
X153250Y-110343D01*
X153364Y-110343D01*
X153421Y-110371D01*
X153450Y-110429D01*
X153450Y-110486D01*
X153164Y-110543D01*
X153650Y-110343D02*
X153793Y-110743D01*
X153935Y-110343D01*
X154164Y-110686D02*
X154192Y-110714D01*
X154164Y-110743D01*
X154135Y-110714D01*
X154164Y-110686D01*
X154164Y-110743D01*
X154164Y-110371D02*
X154192Y-110400D01*
X154164Y-110429D01*
X154135Y-110400D01*
X154164Y-110371D01*
X154164Y-110429D01*
X155221Y-110743D02*
X154878Y-110743D01*
X155050Y-110743D02*
X155050Y-110143D01*
X154993Y-110229D01*
X154935Y-110286D01*
X154878Y-110314D01*
X155478Y-110686D02*
X155506Y-110714D01*
X155478Y-110743D01*
X155449Y-110714D01*
X155478Y-110686D01*
X155478Y-110743D01*
X156078Y-110743D02*
X155735Y-110743D01*
X155907Y-110743D02*
X155907Y-110143D01*
X155850Y-110229D01*
X155792Y-110286D01*
X155735Y-110314D01*
X156449Y-110143D02*
X156506Y-110143D01*
X156563Y-110171D01*
X156592Y-110200D01*
X156621Y-110257D01*
X156649Y-110371D01*
X156649Y-110514D01*
X156621Y-110629D01*
X156592Y-110686D01*
X156563Y-110714D01*
X156506Y-110743D01*
X156449Y-110743D01*
X156392Y-110714D01*
X156363Y-110686D01*
X156335Y-110629D01*
X156306Y-110514D01*
X156306Y-110371D01*
X156335Y-110257D01*
X156363Y-110200D01*
X156392Y-110171D01*
X156449Y-110143D01*
G54D10*
X119364Y-110714D02*
X119450Y-110743D01*
X119593Y-110743D01*
X119650Y-110714D01*
X119679Y-110686D01*
X119707Y-110629D01*
X119707Y-110571D01*
X119679Y-110514D01*
X119650Y-110486D01*
X119593Y-110457D01*
X119479Y-110429D01*
X119421Y-110400D01*
X119393Y-110371D01*
X119364Y-110314D01*
X119364Y-110257D01*
X119393Y-110200D01*
X119421Y-110171D01*
X119479Y-110143D01*
X119621Y-110143D01*
X119707Y-110171D01*
X119964Y-110743D02*
X119964Y-110343D01*
X119964Y-110143D02*
X119935Y-110171D01*
X119964Y-110200D01*
X119992Y-110171D01*
X119964Y-110143D01*
X119964Y-110200D01*
X120193Y-110343D02*
X120507Y-110343D01*
X120193Y-110743D01*
X120507Y-110743D01*
X120964Y-110714D02*
X120907Y-110743D01*
X120793Y-110743D01*
X120736Y-110714D01*
X120707Y-110657D01*
X120707Y-110429D01*
X120736Y-110371D01*
X120793Y-110343D01*
X120907Y-110343D01*
X120964Y-110371D01*
X120993Y-110429D01*
X120993Y-110486D01*
X120707Y-110543D01*
X121250Y-110686D02*
X121278Y-110714D01*
X121250Y-110743D01*
X121221Y-110714D01*
X121250Y-110686D01*
X121250Y-110743D01*
X121250Y-110371D02*
X121278Y-110400D01*
X121250Y-110429D01*
X121221Y-110400D01*
X121250Y-110371D01*
X121250Y-110429D01*
X121964Y-110571D02*
X122250Y-110571D01*
X121907Y-110743D02*
X122107Y-110143D01*
X122307Y-110743D01*
X122450Y-110143D02*
X122821Y-110143D01*
X122621Y-110371D01*
X122707Y-110371D01*
X122764Y-110400D01*
X122793Y-110429D01*
X122821Y-110486D01*
X122821Y-110629D01*
X122793Y-110686D01*
X122764Y-110714D01*
X122707Y-110743D01*
X122535Y-110743D01*
X122478Y-110714D01*
X122450Y-110686D01*
X152593Y-111943D02*
X152593Y-111343D01*
X153136Y-111943D02*
X153136Y-111343D01*
X153136Y-111914D02*
X153079Y-111943D01*
X152965Y-111943D01*
X152907Y-111914D01*
X152879Y-111886D01*
X152850Y-111829D01*
X152850Y-111657D01*
X152879Y-111600D01*
X152907Y-111571D01*
X152965Y-111543D01*
X153079Y-111543D01*
X153136Y-111571D01*
X153422Y-111886D02*
X153450Y-111914D01*
X153422Y-111943D01*
X153393Y-111914D01*
X153422Y-111886D01*
X153422Y-111943D01*
X153422Y-111571D02*
X153450Y-111600D01*
X153422Y-111629D01*
X153393Y-111600D01*
X153422Y-111571D01*
X153422Y-111629D01*
X154479Y-111943D02*
X154136Y-111943D01*
X154308Y-111943D02*
X154308Y-111343D01*
X154251Y-111429D01*
X154193Y-111486D01*
X154136Y-111514D01*
X155164Y-111314D02*
X154650Y-112086D01*
X155679Y-111943D02*
X155336Y-111943D01*
X155508Y-111943D02*
X155508Y-111343D01*
X155451Y-111429D01*
X155393Y-111486D01*
X155336Y-111514D01*
G54D11*
X119307Y-108943D02*
X119650Y-108943D01*
X119479Y-109543D02*
X119479Y-108943D01*
X119850Y-109543D02*
X119850Y-109143D01*
X119850Y-108943D02*
X119821Y-108971D01*
X119850Y-109000D01*
X119878Y-108971D01*
X119850Y-108943D01*
X119850Y-109000D01*
X120050Y-109143D02*
X120279Y-109143D01*
X120136Y-108943D02*
X120136Y-109457D01*
X120164Y-109514D01*
X120222Y-109543D01*
X120279Y-109543D01*
X120565Y-109543D02*
X120507Y-109514D01*
X120479Y-109457D01*
X120479Y-108943D01*
X121021Y-109514D02*
X120964Y-109543D01*
X120850Y-109543D01*
X120793Y-109514D01*
X120764Y-109457D01*
X120764Y-109229D01*
X120793Y-109171D01*
X120850Y-109143D01*
X120964Y-109143D01*
X121021Y-109171D01*
X121050Y-109229D01*
X121050Y-109286D01*
X120764Y-109343D01*
X121307Y-109486D02*
X121335Y-109514D01*
X121307Y-109543D01*
X121278Y-109514D01*
X121307Y-109486D01*
X121307Y-109543D01*
X121307Y-109171D02*
X121335Y-109200D01*
X121307Y-109229D01*
X121278Y-109200D01*
X121307Y-109171D01*
X121307Y-109229D01*
X122250Y-109229D02*
X122336Y-109257D01*
X122364Y-109286D01*
X122393Y-109343D01*
X122393Y-109429D01*
X122364Y-109486D01*
X122336Y-109514D01*
X122278Y-109543D01*
X122050Y-109543D01*
X122050Y-108943D01*
X122250Y-108943D01*
X122307Y-108971D01*
X122336Y-109000D01*
X122364Y-109057D01*
X122364Y-109114D01*
X122336Y-109171D01*
X122307Y-109200D01*
X122250Y-109229D01*
X122050Y-109229D01*
X122878Y-109514D02*
X122821Y-109543D01*
X122707Y-109543D01*
X122650Y-109514D01*
X122621Y-109457D01*
X122621Y-109229D01*
X122650Y-109171D01*
X122707Y-109143D01*
X122821Y-109143D01*
X122878Y-109171D01*
X122907Y-109229D01*
X122907Y-109286D01*
X122621Y-109343D01*
X123135Y-109514D02*
X123192Y-109543D01*
X123307Y-109543D01*
X123364Y-109514D01*
X123392Y-109457D01*
X123392Y-109429D01*
X123364Y-109371D01*
X123307Y-109343D01*
X123221Y-109343D01*
X123164Y-109314D01*
X123135Y-109257D01*
X123135Y-109229D01*
X123164Y-109171D01*
X123221Y-109143D01*
X123307Y-109143D01*
X123364Y-109171D01*
X123564Y-109143D02*
X123793Y-109143D01*
X123650Y-108943D02*
X123650Y-109457D01*
X123678Y-109514D01*
X123736Y-109543D01*
X123793Y-109543D01*
X123993Y-109543D02*
X123993Y-108943D01*
X124336Y-109543D02*
X124079Y-109200D01*
X124336Y-108943D02*
X123993Y-109286D01*
X124593Y-109543D02*
X124593Y-109143D01*
X124593Y-108943D02*
X124564Y-108971D01*
X124593Y-109000D01*
X124621Y-108971D01*
X124593Y-108943D01*
X124593Y-109000D01*
X124793Y-109143D02*
X125022Y-109143D01*
X124879Y-108943D02*
X124879Y-109457D01*
X124907Y-109514D01*
X124965Y-109543D01*
X125022Y-109543D01*
X125479Y-109514D02*
X125422Y-109543D01*
X125308Y-109543D01*
X125250Y-109514D01*
X125222Y-109486D01*
X125193Y-109429D01*
X125193Y-109257D01*
X125222Y-109200D01*
X125250Y-109171D01*
X125308Y-109143D01*
X125422Y-109143D01*
X125479Y-109171D01*
X125736Y-109543D02*
X125736Y-108943D01*
X125993Y-109543D02*
X125993Y-109229D01*
X125964Y-109171D01*
X125907Y-109143D01*
X125822Y-109143D01*
X125764Y-109171D01*
X125736Y-109200D01*
X126507Y-109514D02*
X126450Y-109543D01*
X126336Y-109543D01*
X126279Y-109514D01*
X126250Y-109457D01*
X126250Y-109229D01*
X126279Y-109171D01*
X126336Y-109143D01*
X126450Y-109143D01*
X126507Y-109171D01*
X126536Y-109229D01*
X126536Y-109286D01*
X126250Y-109343D01*
X126793Y-109143D02*
X126793Y-109543D01*
X126793Y-109200D02*
X126821Y-109171D01*
X126879Y-109143D01*
X126964Y-109143D01*
X127021Y-109171D01*
X127050Y-109229D01*
X127050Y-109543D01*
X127622Y-109543D02*
X127336Y-109543D01*
X127336Y-108943D01*
X127822Y-109543D02*
X127822Y-109143D01*
X127822Y-108943D02*
X127793Y-108971D01*
X127822Y-109000D01*
X127850Y-108971D01*
X127822Y-108943D01*
X127822Y-109000D01*
X128365Y-109143D02*
X128365Y-109629D01*
X128336Y-109686D01*
X128308Y-109714D01*
X128251Y-109743D01*
X128165Y-109743D01*
X128108Y-109714D01*
X128365Y-109514D02*
X128308Y-109543D01*
X128194Y-109543D01*
X128136Y-109514D01*
X128108Y-109486D01*
X128079Y-109429D01*
X128079Y-109257D01*
X128108Y-109200D01*
X128136Y-109171D01*
X128194Y-109143D01*
X128308Y-109143D01*
X128365Y-109171D01*
X128651Y-109543D02*
X128651Y-108943D01*
X128908Y-109543D02*
X128908Y-109229D01*
X128879Y-109171D01*
X128822Y-109143D01*
X128737Y-109143D01*
X128679Y-109171D01*
X128651Y-109200D01*
X129108Y-109143D02*
X129337Y-109143D01*
X129194Y-108943D02*
X129194Y-109457D01*
X129222Y-109514D01*
X129280Y-109543D01*
X129337Y-109543D01*
X129508Y-109514D02*
X129565Y-109543D01*
X129680Y-109543D01*
X129737Y-109514D01*
X129765Y-109457D01*
X129765Y-109429D01*
X129737Y-109371D01*
X129680Y-109343D01*
X129594Y-109343D01*
X129537Y-109314D01*
X129508Y-109257D01*
X129508Y-109229D01*
X129537Y-109171D01*
X129594Y-109143D01*
X129680Y-109143D01*
X129737Y-109171D01*
X130023Y-109229D02*
X130223Y-109229D01*
X130309Y-109543D02*
X130023Y-109543D01*
X130023Y-108943D01*
X130309Y-108943D01*
X130509Y-109143D02*
X130652Y-109543D01*
X130794Y-109143D01*
X131251Y-109514D02*
X131194Y-109543D01*
X131080Y-109543D01*
X131023Y-109514D01*
X130994Y-109457D01*
X130994Y-109229D01*
X131023Y-109171D01*
X131080Y-109143D01*
X131194Y-109143D01*
X131251Y-109171D01*
X131280Y-109229D01*
X131280Y-109286D01*
X130994Y-109343D01*
X131537Y-109543D02*
X131537Y-109143D01*
X131537Y-109257D02*
X131565Y-109200D01*
X131594Y-109171D01*
X131651Y-109143D01*
X131708Y-109143D01*
X132079Y-109771D02*
X132051Y-109743D01*
X131994Y-109657D01*
X131965Y-109600D01*
X131936Y-109514D01*
X131908Y-109371D01*
X131908Y-109257D01*
X131936Y-109114D01*
X131965Y-109029D01*
X131994Y-108971D01*
X132051Y-108886D01*
X132079Y-108857D01*
X132222Y-109143D02*
X132451Y-109143D01*
X132308Y-108943D02*
X132308Y-109457D01*
X132336Y-109514D01*
X132394Y-109543D01*
X132451Y-109543D01*
X132651Y-109543D02*
X132651Y-109143D01*
X132651Y-109200D02*
X132679Y-109171D01*
X132737Y-109143D01*
X132822Y-109143D01*
X132879Y-109171D01*
X132908Y-109229D01*
X132908Y-109543D01*
X132908Y-109229D02*
X132937Y-109171D01*
X132994Y-109143D01*
X133079Y-109143D01*
X133137Y-109171D01*
X133165Y-109229D01*
X133165Y-109543D01*
X133394Y-109771D02*
X133422Y-109743D01*
X133479Y-109657D01*
X133508Y-109600D01*
X133537Y-109514D01*
X133565Y-109371D01*
X133565Y-109257D01*
X133537Y-109114D01*
X133508Y-109029D01*
X133479Y-108971D01*
X133422Y-108886D01*
X133394Y-108857D01*
G54D10*
X119593Y-106829D02*
X119393Y-106829D01*
X119393Y-107143D02*
X119393Y-106543D01*
X119679Y-106543D01*
X119907Y-107143D02*
X119907Y-106743D01*
X119907Y-106543D02*
X119878Y-106571D01*
X119907Y-106600D01*
X119935Y-106571D01*
X119907Y-106543D01*
X119907Y-106600D01*
X120279Y-107143D02*
X120221Y-107114D01*
X120193Y-107057D01*
X120193Y-106543D01*
X120735Y-107114D02*
X120678Y-107143D01*
X120564Y-107143D01*
X120507Y-107114D01*
X120478Y-107057D01*
X120478Y-106829D01*
X120507Y-106771D01*
X120564Y-106743D01*
X120678Y-106743D01*
X120735Y-106771D01*
X120764Y-106829D01*
X120764Y-106886D01*
X120478Y-106943D01*
X121021Y-107086D02*
X121049Y-107114D01*
X121021Y-107143D01*
X120992Y-107114D01*
X121021Y-107086D01*
X121021Y-107143D01*
X121021Y-106771D02*
X121049Y-106800D01*
X121021Y-106829D01*
X120992Y-106800D01*
X121021Y-106771D01*
X121021Y-106829D01*
X121764Y-107143D02*
X121764Y-106543D01*
X121821Y-106914D02*
X121992Y-107143D01*
X121992Y-106743D02*
X121764Y-106971D01*
X122250Y-107143D02*
X122250Y-106743D01*
X122250Y-106543D02*
X122221Y-106571D01*
X122250Y-106600D01*
X122278Y-106571D01*
X122250Y-106543D01*
X122250Y-106600D01*
X122450Y-106743D02*
X122679Y-106743D01*
X122536Y-106543D02*
X122536Y-107057D01*
X122564Y-107114D01*
X122622Y-107143D01*
X122679Y-107143D01*
X123136Y-107114D02*
X123079Y-107143D01*
X122965Y-107143D01*
X122907Y-107114D01*
X122879Y-107086D01*
X122850Y-107029D01*
X122850Y-106857D01*
X122879Y-106800D01*
X122907Y-106771D01*
X122965Y-106743D01*
X123079Y-106743D01*
X123136Y-106771D01*
X123393Y-107143D02*
X123393Y-106543D01*
X123650Y-107143D02*
X123650Y-106829D01*
X123621Y-106771D01*
X123564Y-106743D01*
X123479Y-106743D01*
X123421Y-106771D01*
X123393Y-106800D01*
X124164Y-107114D02*
X124107Y-107143D01*
X123993Y-107143D01*
X123936Y-107114D01*
X123907Y-107057D01*
X123907Y-106829D01*
X123936Y-106771D01*
X123993Y-106743D01*
X124107Y-106743D01*
X124164Y-106771D01*
X124193Y-106829D01*
X124193Y-106886D01*
X123907Y-106943D01*
X124450Y-106743D02*
X124450Y-107143D01*
X124450Y-106800D02*
X124478Y-106771D01*
X124536Y-106743D01*
X124621Y-106743D01*
X124678Y-106771D01*
X124707Y-106829D01*
X124707Y-107143D01*
X124850Y-107200D02*
X125307Y-107200D01*
X125536Y-107143D02*
X125478Y-107114D01*
X125450Y-107057D01*
X125450Y-106543D01*
X125764Y-107143D02*
X125764Y-106743D01*
X125764Y-106543D02*
X125735Y-106571D01*
X125764Y-106600D01*
X125792Y-106571D01*
X125764Y-106543D01*
X125764Y-106600D01*
X126307Y-106743D02*
X126307Y-107229D01*
X126278Y-107286D01*
X126250Y-107314D01*
X126193Y-107343D01*
X126107Y-107343D01*
X126050Y-107314D01*
X126307Y-107114D02*
X126250Y-107143D01*
X126136Y-107143D01*
X126078Y-107114D01*
X126050Y-107086D01*
X126021Y-107029D01*
X126021Y-106857D01*
X126050Y-106800D01*
X126078Y-106771D01*
X126136Y-106743D01*
X126250Y-106743D01*
X126307Y-106771D01*
X126593Y-107143D02*
X126593Y-106543D01*
X126850Y-107143D02*
X126850Y-106829D01*
X126821Y-106771D01*
X126764Y-106743D01*
X126679Y-106743D01*
X126621Y-106771D01*
X126593Y-106800D01*
X127050Y-106743D02*
X127279Y-106743D01*
X127136Y-106543D02*
X127136Y-107057D01*
X127164Y-107114D01*
X127222Y-107143D01*
X127279Y-107143D01*
X127450Y-107114D02*
X127507Y-107143D01*
X127622Y-107143D01*
X127679Y-107114D01*
X127707Y-107057D01*
X127707Y-107029D01*
X127679Y-106971D01*
X127622Y-106943D01*
X127536Y-106943D01*
X127479Y-106914D01*
X127450Y-106857D01*
X127450Y-106829D01*
X127479Y-106771D01*
X127536Y-106743D01*
X127622Y-106743D01*
X127679Y-106771D01*
X127965Y-107086D02*
X127993Y-107114D01*
X127965Y-107143D01*
X127936Y-107114D01*
X127965Y-107086D01*
X127965Y-107143D01*
X128251Y-107143D02*
X128251Y-106543D01*
X128251Y-106771D02*
X128308Y-106743D01*
X128422Y-106743D01*
X128479Y-106771D01*
X128508Y-106800D01*
X128537Y-106857D01*
X128537Y-107029D01*
X128508Y-107086D01*
X128479Y-107114D01*
X128422Y-107143D01*
X128308Y-107143D01*
X128251Y-107114D01*
X128794Y-107143D02*
X128794Y-106743D01*
X128794Y-106857D02*
X128822Y-106800D01*
X128851Y-106771D01*
X128908Y-106743D01*
X128965Y-106743D01*
X129422Y-107143D02*
X129422Y-106543D01*
X129422Y-107114D02*
X129365Y-107143D01*
X129251Y-107143D01*
X129193Y-107114D01*
X129165Y-107086D01*
X129136Y-107029D01*
X129136Y-106857D01*
X129165Y-106800D01*
X129193Y-106771D01*
X129251Y-106743D01*
X129365Y-106743D01*
X129422Y-106771D01*
X119364Y-108314D02*
X119450Y-108343D01*
X119593Y-108343D01*
X119650Y-108314D01*
X119679Y-108286D01*
X119707Y-108229D01*
X119707Y-108171D01*
X119679Y-108114D01*
X119650Y-108086D01*
X119593Y-108057D01*
X119479Y-108029D01*
X119421Y-108000D01*
X119393Y-107971D01*
X119364Y-107914D01*
X119364Y-107857D01*
X119393Y-107800D01*
X119421Y-107771D01*
X119479Y-107743D01*
X119621Y-107743D01*
X119707Y-107771D01*
X119964Y-108343D02*
X119964Y-107743D01*
X120221Y-108343D02*
X120221Y-108029D01*
X120192Y-107971D01*
X120135Y-107943D01*
X120050Y-107943D01*
X119992Y-107971D01*
X119964Y-108000D01*
X120735Y-108314D02*
X120678Y-108343D01*
X120564Y-108343D01*
X120507Y-108314D01*
X120478Y-108257D01*
X120478Y-108029D01*
X120507Y-107971D01*
X120564Y-107943D01*
X120678Y-107943D01*
X120735Y-107971D01*
X120764Y-108029D01*
X120764Y-108086D01*
X120478Y-108143D01*
X121249Y-108314D02*
X121192Y-108343D01*
X121078Y-108343D01*
X121021Y-108314D01*
X120992Y-108257D01*
X120992Y-108029D01*
X121021Y-107971D01*
X121078Y-107943D01*
X121192Y-107943D01*
X121249Y-107971D01*
X121278Y-108029D01*
X121278Y-108086D01*
X120992Y-108143D01*
X121449Y-107943D02*
X121678Y-107943D01*
X121535Y-107743D02*
X121535Y-108257D01*
X121563Y-108314D01*
X121621Y-108343D01*
X121678Y-108343D01*
X121878Y-108286D02*
X121906Y-108314D01*
X121878Y-108343D01*
X121849Y-108314D01*
X121878Y-108286D01*
X121878Y-108343D01*
X121878Y-107971D02*
X121906Y-108000D01*
X121878Y-108029D01*
X121849Y-108000D01*
X121878Y-107971D01*
X121878Y-108029D01*
X122935Y-108343D02*
X122592Y-108343D01*
X122764Y-108343D02*
X122764Y-107743D01*
X122707Y-107829D01*
X122649Y-107886D01*
X122592Y-107914D01*
X123620Y-107714D02*
X123106Y-108486D01*
X124135Y-108343D02*
X123792Y-108343D01*
X123964Y-108343D02*
X123964Y-107743D01*
X123907Y-107829D01*
X123849Y-107886D01*
X123792Y-107914D01*
G54D11*
X119393Y-105943D02*
X119393Y-105343D01*
X119593Y-105771D01*
X119793Y-105343D01*
X119793Y-105943D01*
X120022Y-105543D02*
X120165Y-105943D01*
X120307Y-105543D02*
X120165Y-105943D01*
X120107Y-106086D01*
X120079Y-106114D01*
X120022Y-106143D01*
X120964Y-105400D02*
X120993Y-105371D01*
X121050Y-105343D01*
X121193Y-105343D01*
X121250Y-105371D01*
X121279Y-105400D01*
X121307Y-105457D01*
X121307Y-105514D01*
X121279Y-105600D01*
X120936Y-105943D01*
X121307Y-105943D01*
X121564Y-105543D02*
X121564Y-106143D01*
X121850Y-105857D02*
X121878Y-105914D01*
X121935Y-105943D01*
X121564Y-105857D02*
X121592Y-105914D01*
X121650Y-105943D01*
X121764Y-105943D01*
X121821Y-105914D01*
X121850Y-105857D01*
X121850Y-105543D01*
X122393Y-105629D02*
X122193Y-105629D01*
X122193Y-105943D02*
X122193Y-105343D01*
X122479Y-105343D01*
X123364Y-105629D02*
X123450Y-105657D01*
X123478Y-105686D01*
X123507Y-105743D01*
X123507Y-105829D01*
X123478Y-105886D01*
X123450Y-105914D01*
X123392Y-105943D01*
X123164Y-105943D01*
X123164Y-105343D01*
X123364Y-105343D01*
X123421Y-105371D01*
X123450Y-105400D01*
X123478Y-105457D01*
X123478Y-105514D01*
X123450Y-105571D01*
X123421Y-105600D01*
X123364Y-105629D01*
X123164Y-105629D01*
X123850Y-105943D02*
X123792Y-105914D01*
X123764Y-105857D01*
X123764Y-105343D01*
X124164Y-105943D02*
X124106Y-105914D01*
X124078Y-105886D01*
X124049Y-105829D01*
X124049Y-105657D01*
X124078Y-105600D01*
X124106Y-105571D01*
X124164Y-105543D01*
X124249Y-105543D01*
X124306Y-105571D01*
X124335Y-105600D01*
X124364Y-105657D01*
X124364Y-105829D01*
X124335Y-105886D01*
X124306Y-105914D01*
X124249Y-105943D01*
X124164Y-105943D01*
X124878Y-105543D02*
X124878Y-106029D01*
X124849Y-106086D01*
X124821Y-106114D01*
X124764Y-106143D01*
X124678Y-106143D01*
X124621Y-106114D01*
X124878Y-105914D02*
X124821Y-105943D01*
X124707Y-105943D01*
X124649Y-105914D01*
X124621Y-105886D01*
X124592Y-105829D01*
X124592Y-105657D01*
X124621Y-105600D01*
X124649Y-105571D01*
X124707Y-105543D01*
X124821Y-105543D01*
X124878Y-105571D01*
X118650Y-105100D02*
X118650Y-112300D01*
X118650Y-106300D02*
X160650Y-106300D01*
X118650Y-105100D02*
X160650Y-105100D01*
X118650Y-108700D02*
X160650Y-108700D01*
X151850Y-109900D02*
X151850Y-112300D01*
X118650Y-111100D02*
X160650Y-111100D01*
X118650Y-109900D02*
X160650Y-109900D01*
X125250Y-109900D02*
X125250Y-111100D01*
X38447Y-51002D02*
X38613Y-51502D01*
X38780Y-51002D01*
X39209Y-51502D02*
X38923Y-51502D01*
X39066Y-51502D02*
X39066Y-51002D01*
X39018Y-51074D01*
X38971Y-51121D01*
X38923Y-51145D01*
X39423Y-51455D02*
X39447Y-51479D01*
X39423Y-51502D01*
X39399Y-51479D01*
X39423Y-51455D01*
X39423Y-51502D01*
X39923Y-51502D02*
X39637Y-51502D01*
X39780Y-51502D02*
X39780Y-51002D01*
X39732Y-51074D01*
X39685Y-51121D01*
X39637Y-51145D01*
X40232Y-51002D02*
X40280Y-51002D01*
X40328Y-51026D01*
X40351Y-51050D01*
X40375Y-51098D01*
X40399Y-51193D01*
X40399Y-51312D01*
X40375Y-51407D01*
X40351Y-51455D01*
X40328Y-51479D01*
X40280Y-51502D01*
X40232Y-51502D01*
X40185Y-51479D01*
X40161Y-51455D01*
X40137Y-51407D01*
X40113Y-51312D01*
X40113Y-51193D01*
X40137Y-51098D01*
X40161Y-51050D01*
X40185Y-51026D01*
X40232Y-51002D01*
X40994Y-51312D02*
X41375Y-51312D01*
X41970Y-51050D02*
X41994Y-51026D01*
X42042Y-51002D01*
X42161Y-51002D01*
X42208Y-51026D01*
X42232Y-51050D01*
X42256Y-51098D01*
X42256Y-51145D01*
X42232Y-51217D01*
X41946Y-51502D01*
X42256Y-51502D01*
X42565Y-51002D02*
X42613Y-51002D01*
X42661Y-51026D01*
X42684Y-51050D01*
X42708Y-51098D01*
X42732Y-51193D01*
X42732Y-51312D01*
X42708Y-51407D01*
X42684Y-51455D01*
X42661Y-51479D01*
X42613Y-51502D01*
X42565Y-51502D01*
X42518Y-51479D01*
X42494Y-51455D01*
X42470Y-51407D01*
X42446Y-51312D01*
X42446Y-51193D01*
X42470Y-51098D01*
X42494Y-51050D01*
X42518Y-51026D01*
X42565Y-51002D01*
X43208Y-51502D02*
X42922Y-51502D01*
X43065Y-51502D02*
X43065Y-51002D01*
X43017Y-51074D01*
X42970Y-51121D01*
X42922Y-51145D01*
X43684Y-51502D02*
X43398Y-51502D01*
X43541Y-51502D02*
X43541Y-51002D01*
X43493Y-51074D01*
X43446Y-51121D01*
X43398Y-51145D01*
X44279Y-51502D02*
X44279Y-51002D01*
X44279Y-51193D02*
X44327Y-51169D01*
X44422Y-51169D01*
X44470Y-51193D01*
X44493Y-51217D01*
X44517Y-51264D01*
X44517Y-51407D01*
X44493Y-51455D01*
X44470Y-51479D01*
X44422Y-51502D01*
X44327Y-51502D01*
X44279Y-51479D01*
X44802Y-51502D02*
X44755Y-51479D01*
X44731Y-51431D01*
X44731Y-51002D01*
X45064Y-51502D02*
X45017Y-51479D01*
X44993Y-51455D01*
X44969Y-51407D01*
X44969Y-51264D01*
X44993Y-51217D01*
X45017Y-51193D01*
X45064Y-51169D01*
X45136Y-51169D01*
X45184Y-51193D01*
X45207Y-51217D01*
X45231Y-51264D01*
X45231Y-51407D01*
X45207Y-51455D01*
X45184Y-51479D01*
X45136Y-51502D01*
X45064Y-51502D01*
X45659Y-51169D02*
X45659Y-51574D01*
X45636Y-51621D01*
X45612Y-51645D01*
X45564Y-51669D01*
X45493Y-51669D01*
X45445Y-51645D01*
X45659Y-51479D02*
X45612Y-51502D01*
X45516Y-51502D01*
X45469Y-51479D01*
X45445Y-51455D01*
X45421Y-51407D01*
X45421Y-51264D01*
X45445Y-51217D01*
X45469Y-51193D01*
X45516Y-51169D01*
X45612Y-51169D01*
X45659Y-51193D01*
X45897Y-51455D02*
X45921Y-51479D01*
X45897Y-51502D01*
X45873Y-51479D01*
X45897Y-51455D01*
X45897Y-51502D01*
X46111Y-51479D02*
X46159Y-51502D01*
X46254Y-51502D01*
X46302Y-51479D01*
X46326Y-51431D01*
X46326Y-51407D01*
X46302Y-51360D01*
X46254Y-51336D01*
X46183Y-51336D01*
X46135Y-51312D01*
X46111Y-51264D01*
X46111Y-51240D01*
X46135Y-51193D01*
X46183Y-51169D01*
X46254Y-51169D01*
X46302Y-51193D01*
X46540Y-51169D02*
X46540Y-51669D01*
X46540Y-51193D02*
X46588Y-51169D01*
X46683Y-51169D01*
X46731Y-51193D01*
X46754Y-51217D01*
X46778Y-51264D01*
X46778Y-51407D01*
X46754Y-51455D01*
X46731Y-51479D01*
X46683Y-51502D01*
X46588Y-51502D01*
X46540Y-51479D01*
X46992Y-51502D02*
X46992Y-51169D01*
X46992Y-51002D02*
X46968Y-51026D01*
X46992Y-51050D01*
X47016Y-51026D01*
X46992Y-51002D01*
X46992Y-51050D01*
X47159Y-51169D02*
X47349Y-51169D01*
X47230Y-51002D02*
X47230Y-51431D01*
X47254Y-51479D01*
X47301Y-51502D01*
X47349Y-51502D01*
X47468Y-51169D02*
X47730Y-51169D01*
X47468Y-51502D01*
X47730Y-51502D01*
X48112Y-51479D02*
X48064Y-51502D01*
X47969Y-51502D01*
X47921Y-51479D01*
X47897Y-51431D01*
X47897Y-51240D01*
X47921Y-51193D01*
X47969Y-51169D01*
X48064Y-51169D01*
X48112Y-51193D01*
X48135Y-51240D01*
X48135Y-51288D01*
X47897Y-51336D01*
X48350Y-51169D02*
X48350Y-51502D01*
X48350Y-51217D02*
X48374Y-51193D01*
X48421Y-51169D01*
X48493Y-51169D01*
X48541Y-51193D01*
X48564Y-51240D01*
X48564Y-51502D01*
X48802Y-51169D02*
X48802Y-51669D01*
X48802Y-51193D02*
X48850Y-51169D01*
X48945Y-51169D01*
X48993Y-51193D01*
X49016Y-51217D01*
X49040Y-51264D01*
X49040Y-51407D01*
X49016Y-51455D01*
X48993Y-51479D01*
X48945Y-51502D01*
X48850Y-51502D01*
X48802Y-51479D01*
X49183Y-51169D02*
X49373Y-51169D01*
X49254Y-51502D02*
X49254Y-51074D01*
X49278Y-51026D01*
X49325Y-51002D01*
X49373Y-51002D01*
X49731Y-51479D02*
X49683Y-51502D01*
X49588Y-51502D01*
X49540Y-51479D01*
X49516Y-51431D01*
X49516Y-51240D01*
X49540Y-51193D01*
X49588Y-51169D01*
X49683Y-51169D01*
X49731Y-51193D01*
X49754Y-51240D01*
X49754Y-51288D01*
X49516Y-51336D01*
X49969Y-51502D02*
X49969Y-51169D01*
X49969Y-51002D02*
X49945Y-51026D01*
X49969Y-51050D01*
X49993Y-51026D01*
X49969Y-51002D01*
X49969Y-51050D01*
X50278Y-51502D02*
X50231Y-51479D01*
X50207Y-51431D01*
X50207Y-51002D01*
X50469Y-51455D02*
X50493Y-51479D01*
X50469Y-51502D01*
X50445Y-51479D01*
X50469Y-51455D01*
X50469Y-51502D01*
X50778Y-51502D02*
X50731Y-51479D01*
X50707Y-51455D01*
X50683Y-51407D01*
X50683Y-51264D01*
X50707Y-51217D01*
X50731Y-51193D01*
X50778Y-51169D01*
X50850Y-51169D01*
X50898Y-51193D01*
X50921Y-51217D01*
X50945Y-51264D01*
X50945Y-51407D01*
X50921Y-51455D01*
X50898Y-51479D01*
X50850Y-51502D01*
X50778Y-51502D01*
X51159Y-51502D02*
X51159Y-51169D01*
X51159Y-51264D02*
X51183Y-51217D01*
X51207Y-51193D01*
X51254Y-51169D01*
X51302Y-51169D01*
X51683Y-51169D02*
X51683Y-51574D01*
X51660Y-51621D01*
X51636Y-51645D01*
X51588Y-51669D01*
X51517Y-51669D01*
X51469Y-51645D01*
X51683Y-51479D02*
X51636Y-51502D01*
X51540Y-51502D01*
X51493Y-51479D01*
X51469Y-51455D01*
X51445Y-51407D01*
X51445Y-51264D01*
X51469Y-51217D01*
X51493Y-51193D01*
X51540Y-51169D01*
X51636Y-51169D01*
X51683Y-51193D01*
G54D12*
X56500Y-58000D03*
G54D13*
X56500Y-60000D03*
X58500Y-60000D03*
X58500Y-58000D03*
G54D12*
X56500Y-53500D03*
G54D13*
X56500Y-55500D03*
X58500Y-55500D03*
X58500Y-53500D03*
G54D12*
X38500Y-53500D03*
G54D13*
X38500Y-55500D03*
X40500Y-55500D03*
X40500Y-53500D03*
G54D12*
X38500Y-58000D03*
G54D13*
X38500Y-60000D03*
X40500Y-60000D03*
X40500Y-58000D03*
G54D12*
X45000Y-55500D03*
G54D13*
X45000Y-53500D03*
X43000Y-53500D03*
X43000Y-55500D03*
G54D12*
X45000Y-60000D03*
G54D13*
X45000Y-58000D03*
X43000Y-58000D03*
X43000Y-60000D03*
G54D14*
X83100Y-55200D03*
G54D15*
X83100Y-56200D03*
X82100Y-55200D03*
X82100Y-56200D03*
X81100Y-55200D03*
X81100Y-56200D03*
G54D16*
X84700Y-52874D03*
X84700Y-52126D03*
G54D15*
X86100Y-51575D03*
X88650Y-51575D03*
X86100Y-53325D03*
X88650Y-53325D03*
X80700Y-51575D03*
X83250Y-51575D03*
X80700Y-53325D03*
X83250Y-53325D03*
X75300Y-51575D03*
X77850Y-51575D03*
X75300Y-53325D03*
X77850Y-53325D03*
G54D16*
X74400Y-52774D03*
X74400Y-52026D03*
G54D17*
X79800Y-52400D03*
G54D18*
X78800Y-52400D03*
G54D19*
X82626Y-57700D03*
X83374Y-57700D03*
G54D16*
X80000Y-56074D03*
X80000Y-55326D03*
G54D20*
X90000Y-56251D03*
X90000Y-55149D03*
X85600Y-56251D03*
X85600Y-55149D03*
G54D21*
X81651Y-57700D03*
X80549Y-57700D03*
G54D20*
X84600Y-55149D03*
X84600Y-56251D03*
G54D13*
X89100Y-60100D03*
X85100Y-59100D03*
X89100Y-58100D03*
G54D22*
X80977Y-58850D03*
X80977Y-59350D03*
X80977Y-59850D03*
X80977Y-60350D03*
X80977Y-60850D03*
X80977Y-61350D03*
X80977Y-61850D03*
X80977Y-62350D03*
X83023Y-62350D03*
X83023Y-61850D03*
X83023Y-61350D03*
X83023Y-60850D03*
X83023Y-60350D03*
X83023Y-59850D03*
X83023Y-59350D03*
X83023Y-58850D03*
G54D23*
X36500Y-52000D03*
G54D22*
X88823Y-56450D03*
X88823Y-55950D03*
X88823Y-55450D03*
X88823Y-54950D03*
X86777Y-54950D03*
X86777Y-55450D03*
X86777Y-55950D03*
X86777Y-56450D03*
G54D23*
X127500Y-61500D03*
X127500Y-52000D03*
X95500Y-61500D03*
X95500Y-52000D03*
X68500Y-61500D03*
X68500Y-52000D03*
X36500Y-61500D03*
G54D24*
X130500Y-58200D03*
G54D25*
X130500Y-55200D03*
G54D24*
X33600Y-58200D03*
G54D25*
X33600Y-55200D03*
G54D22*
X74789Y-55050D03*
X74789Y-55550D03*
X74789Y-56050D03*
X74789Y-56550D03*
X74789Y-57050D03*
X74789Y-57550D03*
X74789Y-58050D03*
X74789Y-58550D03*
X74789Y-59050D03*
X74789Y-59550D03*
X78411Y-59550D03*
X78411Y-59050D03*
X78411Y-58550D03*
X78411Y-58050D03*
X78411Y-57550D03*
X78411Y-57050D03*
X78411Y-56550D03*
X78411Y-56050D03*
X78411Y-55550D03*
X78411Y-55050D03*
G54D14*
X135300Y-53200D03*
G54D15*
X136300Y-53200D03*
X135300Y-54200D03*
X136300Y-54200D03*
X135300Y-55200D03*
X136300Y-55200D03*
X135300Y-56200D03*
X136300Y-56200D03*
X135300Y-57200D03*
X136300Y-57200D03*
X135300Y-58200D03*
X136300Y-58200D03*
X135300Y-59200D03*
X136300Y-59200D03*
X135300Y-60200D03*
X136300Y-60200D03*
G54D14*
X27800Y-53200D03*
G54D15*
X28800Y-53200D03*
X27800Y-54200D03*
X28800Y-54200D03*
X27800Y-55200D03*
X28800Y-55200D03*
X27800Y-56200D03*
X28800Y-56200D03*
X27800Y-57200D03*
X28800Y-57200D03*
X27800Y-58200D03*
X28800Y-58200D03*
X27800Y-59200D03*
X28800Y-59200D03*
X27800Y-60200D03*
X28800Y-60200D03*
G54D12*
X47500Y-58000D03*
G54D13*
X47500Y-60000D03*
X49500Y-60000D03*
X49500Y-58000D03*
G54D12*
X47500Y-53500D03*
G54D13*
X47500Y-55500D03*
X49500Y-55500D03*
X49500Y-53500D03*
G54D12*
X54000Y-55500D03*
G54D13*
X54000Y-53500D03*
X52000Y-53500D03*
X52000Y-55500D03*
G54D12*
X54000Y-60000D03*
G54D13*
X54000Y-58000D03*
X52000Y-58000D03*
X52000Y-60000D03*
G54D12*
X63000Y-55500D03*
G54D13*
X63000Y-53500D03*
X61000Y-53500D03*
X61000Y-55500D03*
G54D12*
X63000Y-60000D03*
G54D13*
X63000Y-58000D03*
X61000Y-58000D03*
X61000Y-60000D03*
G54D12*
X65500Y-58000D03*
G54D13*
X65500Y-60000D03*
X67500Y-60000D03*
X67500Y-58000D03*
G54D12*
X65500Y-53500D03*
G54D13*
X65500Y-55500D03*
X67500Y-55500D03*
X67500Y-53500D03*
G54D12*
X72000Y-55500D03*
G54D13*
X72000Y-53500D03*
X70000Y-53500D03*
X70000Y-55500D03*
G54D12*
X72000Y-60000D03*
G54D13*
X72000Y-58000D03*
X70000Y-58000D03*
X70000Y-60000D03*
G54D12*
X92000Y-58000D03*
G54D13*
X92000Y-60000D03*
X94000Y-60000D03*
X94000Y-58000D03*
G54D12*
X92000Y-53500D03*
G54D13*
X92000Y-55500D03*
X94000Y-55500D03*
X94000Y-53500D03*
G54D12*
X98500Y-55500D03*
G54D13*
X98500Y-53500D03*
X96500Y-53500D03*
X96500Y-55500D03*
G54D12*
X98500Y-60000D03*
G54D13*
X98500Y-58000D03*
X96500Y-58000D03*
X96500Y-60000D03*
G54D12*
X100900Y-58000D03*
G54D13*
X100900Y-60000D03*
X102900Y-60000D03*
X102900Y-58000D03*
G54D12*
X100900Y-53500D03*
G54D13*
X100900Y-55500D03*
X102900Y-55500D03*
X102900Y-53500D03*
G54D12*
X107500Y-55500D03*
G54D13*
X107500Y-53500D03*
X105500Y-53500D03*
X105500Y-55500D03*
G54D12*
X107500Y-60000D03*
G54D13*
X107500Y-58000D03*
X105500Y-58000D03*
X105500Y-60000D03*
G54D12*
X110000Y-58000D03*
G54D13*
X110000Y-60000D03*
X112000Y-60000D03*
X112000Y-58000D03*
G54D12*
X110000Y-53500D03*
G54D13*
X110000Y-55500D03*
X112000Y-55500D03*
X112000Y-53500D03*
G54D12*
X116600Y-55500D03*
G54D13*
X116600Y-53500D03*
X114600Y-53500D03*
X114600Y-55500D03*
G54D12*
X116600Y-60000D03*
G54D13*
X116600Y-58000D03*
X114600Y-58000D03*
X114600Y-60000D03*
G54D12*
X119000Y-58000D03*
G54D13*
X119000Y-60000D03*
X121000Y-60000D03*
X121000Y-58000D03*
G54D12*
X119000Y-53500D03*
G54D13*
X119000Y-55500D03*
X121000Y-55500D03*
X121000Y-53500D03*
G54D12*
X125500Y-55500D03*
G54D13*
X125500Y-53500D03*
X123500Y-53500D03*
X123500Y-55500D03*
G54D12*
X125500Y-60000D03*
G54D13*
X125500Y-58000D03*
X123500Y-58000D03*
X123500Y-60000D03*
G54D26*
X83816Y-56422D03*
X79919Y-59027D03*
X77740Y-56051D03*
X79330Y-58444D03*
X80268Y-60452D03*
X75996Y-57162D03*
X72952Y-54828D03*
X73950Y-58515D03*
X83300Y-52626D03*
X79145Y-56593D03*
X76593Y-56550D03*
X74584Y-60850D03*
X75086Y-61350D03*
X77325Y-59388D03*
X92647Y-56674D03*
X77732Y-57446D03*
X77740Y-59420D03*
X93005Y-56313D03*
X82291Y-53071D03*
X76789Y-57755D03*
X74109Y-57816D03*
X74118Y-55286D03*
X77185Y-58177D03*
X83945Y-56008D03*
X87800Y-50900D03*
X90543Y-55692D03*
X79631Y-59417D03*
X84600Y-56861D03*
X88421Y-56858D03*
X87421Y-57950D03*
X88184Y-54116D03*
G54D27*
X78663Y-55550D02*
X78411Y-55550D01*
X79576Y-56463D02*
X78663Y-55550D01*
X80837Y-56463D02*
X79576Y-56463D01*
X81100Y-56200D02*
X80837Y-56463D01*
X78182Y-55779D02*
X78411Y-55550D01*
X74177Y-55779D02*
X78182Y-55779D01*
X74038Y-55918D02*
X74177Y-55779D01*
X73143Y-55918D02*
X74038Y-55918D01*
X72851Y-56210D02*
X73143Y-55918D01*
X32081Y-56210D02*
X72851Y-56210D01*
X31589Y-55718D02*
X32081Y-56210D01*
X28282Y-55718D02*
X31589Y-55718D01*
X27800Y-56200D02*
X28282Y-55718D01*
X81494Y-56594D02*
X81100Y-56200D01*
X83644Y-56594D02*
X81494Y-56594D01*
X83816Y-56422D02*
X83644Y-56594D01*
X80742Y-59850D02*
X80977Y-59850D01*
X79919Y-59027D02*
X80742Y-59850D01*
X78410Y-56051D02*
X78411Y-56050D01*
X77740Y-56051D02*
X78410Y-56051D01*
X79832Y-58444D02*
X79330Y-58444D01*
X80738Y-59350D02*
X79832Y-58444D01*
X80977Y-59350D02*
X80738Y-59350D01*
X88056Y-57751D02*
X88056Y-57641D01*
X85457Y-60350D02*
X88056Y-57751D01*
X83023Y-60350D02*
X85457Y-60350D01*
X134554Y-57454D02*
X135300Y-58200D01*
X88705Y-57454D02*
X134554Y-57454D01*
X88518Y-57641D02*
X88705Y-57454D01*
X88056Y-57641D02*
X88518Y-57641D01*
X78179Y-58050D02*
X78411Y-58050D01*
X77884Y-58345D02*
X78179Y-58050D01*
X28211Y-58611D02*
X27800Y-58200D01*
X29111Y-58611D02*
X28211Y-58611D01*
X29334Y-58834D02*
X29111Y-58611D01*
X71902Y-58834D02*
X29334Y-58834D01*
X72651Y-58085D02*
X71902Y-58834D01*
X74054Y-58085D02*
X72651Y-58085D01*
X74237Y-58268D02*
X74054Y-58085D01*
X76709Y-58268D02*
X74237Y-58268D01*
X77076Y-57901D02*
X76709Y-58268D01*
X77440Y-57901D02*
X77076Y-57901D01*
X77884Y-58345D02*
X77440Y-57901D01*
X84512Y-57641D02*
X88056Y-57641D01*
X83838Y-56967D02*
X84512Y-57641D01*
X80392Y-56967D02*
X83838Y-56967D01*
X78940Y-58419D02*
X80392Y-56967D01*
X78940Y-58746D02*
X78940Y-58419D01*
X78924Y-58762D02*
X78940Y-58746D01*
X77900Y-58762D02*
X78924Y-58762D01*
X77884Y-58746D02*
X77900Y-58762D01*
X77884Y-58345D02*
X77884Y-58746D01*
X80875Y-60452D02*
X80977Y-60350D01*
X80268Y-60452D02*
X80875Y-60452D01*
X78299Y-57162D02*
X78411Y-57050D01*
X75996Y-57162D02*
X78299Y-57162D01*
X80911Y-52626D02*
X83300Y-52626D01*
X79734Y-51449D02*
X80911Y-52626D01*
X78591Y-51449D02*
X79734Y-51449D01*
X78014Y-52026D02*
X78591Y-51449D01*
X74400Y-52026D02*
X78014Y-52026D01*
X72952Y-53474D02*
X72952Y-54828D01*
X74400Y-52026D02*
X72952Y-53474D01*
X38310Y-54828D02*
X72952Y-54828D01*
X37196Y-55942D02*
X38310Y-54828D01*
X33049Y-55942D02*
X37196Y-55942D01*
X31307Y-54200D02*
X33049Y-55942D01*
X28800Y-54200D02*
X31307Y-54200D01*
X74485Y-59050D02*
X73950Y-58515D01*
X74789Y-59050D02*
X74485Y-59050D01*
X79102Y-56550D02*
X79145Y-56593D01*
X78411Y-56550D02*
X79102Y-56550D01*
X82603Y-55697D02*
X82100Y-56200D01*
X85053Y-55697D02*
X82603Y-55697D01*
X85100Y-55744D02*
X85053Y-55697D01*
X85100Y-56698D02*
X85100Y-55744D01*
X85755Y-57353D02*
X85100Y-56698D01*
X88363Y-57353D02*
X85755Y-57353D01*
X89015Y-56701D02*
X88363Y-57353D01*
X92234Y-56701D02*
X89015Y-56701D01*
X92901Y-56034D02*
X92234Y-56701D01*
X133466Y-56034D02*
X92901Y-56034D01*
X135300Y-54200D02*
X133466Y-56034D01*
X76593Y-56550D02*
X78411Y-56550D01*
G54D28*
X80977Y-60850D02*
X74584Y-60850D01*
X80977Y-61350D02*
X75086Y-61350D01*
X75040Y-61850D02*
X80977Y-61850D01*
X72415Y-59225D02*
X75040Y-61850D01*
X63775Y-59225D02*
X72415Y-59225D01*
X63000Y-60000D02*
X63775Y-59225D01*
X74350Y-62350D02*
X72000Y-60000D01*
X80977Y-62350D02*
X74350Y-62350D01*
X95804Y-62696D02*
X98500Y-60000D01*
X83369Y-62696D02*
X95804Y-62696D01*
X83023Y-62350D02*
X83369Y-62696D01*
X106896Y-59396D02*
X107500Y-60000D01*
X91581Y-59396D02*
X106896Y-59396D01*
X89127Y-61850D02*
X91581Y-59396D01*
X83023Y-61850D02*
X89127Y-61850D01*
X115691Y-59091D02*
X116600Y-60000D01*
X89177Y-59091D02*
X115691Y-59091D01*
X86918Y-61350D02*
X89177Y-59091D01*
X83023Y-61350D02*
X86918Y-61350D01*
X124287Y-58787D02*
X125500Y-60000D01*
X88048Y-58787D02*
X124287Y-58787D01*
X85985Y-60850D02*
X88048Y-58787D01*
X83023Y-60850D02*
X85985Y-60850D01*
G54D27*
X77663Y-59050D02*
X77325Y-59388D01*
X78411Y-59050D02*
X77663Y-59050D01*
X135826Y-56674D02*
X92647Y-56674D01*
X136300Y-56200D02*
X135826Y-56674D01*
X78938Y-58246D02*
X78938Y-56889D01*
X78634Y-58550D02*
X78938Y-58246D01*
X78411Y-58550D02*
X78634Y-58550D01*
X29170Y-56830D02*
X28800Y-57200D01*
X78879Y-56830D02*
X29170Y-56830D01*
X78938Y-56889D02*
X78879Y-56830D01*
X135898Y-56798D02*
X136300Y-57200D01*
X120512Y-56798D02*
X135898Y-56798D01*
X120055Y-57255D02*
X120512Y-56798D01*
X88731Y-57255D02*
X120055Y-57255D01*
X88502Y-57484D02*
X88731Y-57255D01*
X84528Y-57484D02*
X88502Y-57484D01*
X83887Y-56843D02*
X84528Y-57484D01*
X79992Y-56843D02*
X83887Y-56843D01*
X79946Y-56889D02*
X79992Y-56843D01*
X78938Y-56889D02*
X79946Y-56889D01*
X77836Y-57550D02*
X78411Y-57550D01*
X77732Y-57446D02*
X77836Y-57550D01*
X75902Y-57446D02*
X77732Y-57446D01*
X75749Y-57293D02*
X75902Y-57446D01*
X29707Y-57293D02*
X75749Y-57293D01*
X28800Y-58200D02*
X29707Y-57293D01*
X134293Y-56313D02*
X93005Y-56313D01*
X134906Y-55700D02*
X134293Y-56313D01*
X135800Y-55700D02*
X134906Y-55700D01*
X136300Y-55200D02*
X135800Y-55700D01*
X77870Y-59550D02*
X77740Y-59420D01*
X78411Y-59550D02*
X77870Y-59550D01*
X76908Y-52931D02*
X82291Y-52931D01*
X74789Y-55050D02*
X76908Y-52931D01*
X83895Y-52931D02*
X84700Y-52126D01*
X82291Y-52931D02*
X83895Y-52931D01*
X82291Y-52931D02*
X82291Y-53071D01*
X74233Y-55550D02*
X74789Y-55550D01*
X73988Y-55795D02*
X74233Y-55550D01*
X72952Y-55795D02*
X73988Y-55795D01*
X72661Y-56086D02*
X72952Y-55795D01*
X32746Y-56086D02*
X72661Y-56086D01*
X32254Y-55594D02*
X32746Y-56086D01*
X28413Y-55594D02*
X32254Y-55594D01*
X28404Y-55585D02*
X28413Y-55594D01*
X28404Y-53804D02*
X28404Y-55585D01*
X27800Y-53200D02*
X28404Y-53804D01*
X74994Y-57755D02*
X76789Y-57755D01*
X74789Y-57550D02*
X74994Y-57755D01*
X74343Y-58050D02*
X74109Y-57816D01*
X74789Y-58050D02*
X74343Y-58050D01*
X77418Y-55286D02*
X74118Y-55286D01*
X79379Y-53325D02*
X77418Y-55286D01*
X80700Y-53325D02*
X79379Y-53325D01*
X76812Y-58550D02*
X77185Y-58177D01*
X74789Y-58550D02*
X76812Y-58550D01*
X73186Y-56050D02*
X74789Y-56050D01*
X72632Y-56604D02*
X73186Y-56050D01*
X27414Y-56604D02*
X72632Y-56604D01*
X27398Y-56588D02*
X27414Y-56604D01*
X27398Y-52830D02*
X27398Y-56588D01*
X27422Y-52806D02*
X27398Y-52830D01*
X28406Y-52806D02*
X27422Y-52806D01*
X28800Y-53200D02*
X28406Y-52806D01*
X77151Y-56050D02*
X74789Y-56050D01*
X77425Y-56324D02*
X77151Y-56050D01*
X79257Y-56324D02*
X77425Y-56324D01*
X79651Y-56718D02*
X79257Y-56324D01*
X83901Y-56718D02*
X79651Y-56718D01*
X84085Y-56534D02*
X83901Y-56718D01*
X84085Y-56148D02*
X84085Y-56534D01*
X83945Y-56008D02*
X84085Y-56148D01*
G54D28*
X87800Y-56600D02*
X87800Y-50900D01*
X87300Y-57100D02*
X87800Y-56600D01*
X85900Y-57100D02*
X87300Y-57100D01*
X85600Y-56800D02*
X85900Y-57100D01*
X85600Y-56251D02*
X85600Y-56800D01*
X86250Y-56450D02*
X86777Y-56450D01*
X86051Y-56251D02*
X86250Y-56450D01*
X85600Y-56251D02*
X86051Y-56251D01*
X80126Y-55200D02*
X81100Y-55200D01*
X80000Y-55326D02*
X80126Y-55200D01*
X90000Y-52925D02*
X88650Y-51575D01*
X90000Y-55149D02*
X90000Y-52925D01*
X88823Y-55950D02*
X88823Y-55450D01*
X89699Y-55450D02*
X90000Y-55149D01*
X88823Y-55450D02*
X89699Y-55450D01*
X90000Y-55149D02*
X90543Y-55692D01*
X79176Y-59872D02*
X79631Y-59417D01*
X75111Y-59872D02*
X79176Y-59872D01*
X74789Y-59550D02*
X75111Y-59872D01*
X84600Y-56251D02*
X84600Y-56861D01*
X87000Y-53800D02*
X87000Y-50200D01*
X86700Y-54100D02*
X87000Y-53800D01*
X85800Y-54100D02*
X86700Y-54100D01*
X85600Y-54300D02*
X85800Y-54100D01*
X85600Y-55149D02*
X85600Y-54300D01*
X86777Y-55450D02*
X86777Y-55950D01*
X86150Y-55450D02*
X86777Y-55450D01*
X85849Y-55149D02*
X86150Y-55450D01*
X85600Y-55149D02*
X85849Y-55149D01*
X83374Y-58226D02*
X83374Y-57700D01*
X83200Y-58400D02*
X83374Y-58226D01*
X82400Y-58400D02*
X83200Y-58400D01*
X81950Y-58850D02*
X82400Y-58400D01*
X80549Y-58422D02*
X80977Y-58850D01*
X80549Y-57700D02*
X80549Y-58422D01*
G54D29*
X80977Y-58850D02*
X81950Y-58850D01*
G54D30*
X33600Y-55200D02*
X33600Y-50200D01*
X130500Y-55200D02*
X130500Y-50200D01*
X26700Y-50200D02*
X33600Y-50200D01*
X26700Y-59200D02*
X26700Y-50200D01*
X137300Y-63300D02*
X137300Y-59200D01*
X82000Y-63300D02*
X137300Y-63300D01*
X137300Y-50200D02*
X130500Y-50200D01*
X137300Y-59200D02*
X137300Y-50200D01*
X26700Y-63300D02*
X26700Y-59200D01*
X81950Y-63300D02*
X26700Y-63300D01*
X81950Y-58850D02*
X81950Y-63300D01*
X33600Y-50200D02*
X87000Y-50200D01*
X87000Y-50200D02*
X130500Y-50200D01*
X28800Y-59200D02*
X27800Y-59200D01*
X27800Y-59200D02*
X26700Y-59200D01*
X135300Y-59200D02*
X136300Y-59200D01*
X136300Y-59200D02*
X137300Y-59200D01*
G54D27*
X79389Y-51989D02*
X79800Y-52400D01*
X78347Y-51989D02*
X79389Y-51989D01*
X77562Y-52774D02*
X78347Y-51989D01*
X74400Y-52774D02*
X77562Y-52774D01*
X84850Y-59350D02*
X85100Y-59100D01*
X83023Y-59350D02*
X84850Y-59350D01*
G54D28*
X88446Y-56833D02*
X88421Y-56858D01*
X88446Y-56450D02*
X88446Y-56833D01*
X84600Y-52974D02*
X84700Y-52874D01*
X84600Y-55149D02*
X84600Y-52974D01*
X78411Y-55050D02*
X79275Y-55050D01*
X79657Y-54668D02*
X79275Y-55050D01*
X82568Y-54668D02*
X79657Y-54668D01*
X83100Y-55200D02*
X82568Y-54668D01*
X79621Y-56074D02*
X80000Y-56074D01*
X79275Y-55728D02*
X79621Y-56074D01*
X79275Y-55050D02*
X79275Y-55728D01*
X83151Y-55149D02*
X83100Y-55200D01*
X84600Y-55149D02*
X83151Y-55149D01*
X88184Y-56188D02*
X88184Y-54116D01*
X88446Y-56450D02*
X88184Y-56188D01*
X88446Y-56450D02*
X88823Y-56450D01*
X89801Y-56450D02*
X90000Y-56251D01*
X88823Y-56450D02*
X89801Y-56450D01*
X82626Y-57700D02*
X81651Y-57700D01*
X83408Y-58850D02*
X84400Y-57858D01*
X83023Y-58850D02*
X83408Y-58850D01*
X83743Y-57201D02*
X84400Y-57858D01*
X82915Y-57201D02*
X83743Y-57201D01*
X82626Y-57490D02*
X82915Y-57201D01*
X82626Y-57700D02*
X82626Y-57490D01*
X84492Y-57950D02*
X87421Y-57950D01*
X84400Y-57858D02*
X84492Y-57950D01*
M02*
