G04 (created by PCBNEW-RS274X (2011-07-08)-stable) date Mon 29 Aug 2011 05:49:42 AM CEST*
G01*
G70*
G90*
%MOIN*%
G04 Gerber Fmt 3.4, Leading zero omitted, Abs format*
%FSLAX34Y34*%
G04 APERTURE LIST*
%ADD10C,0.010000*%
%ADD11R,0.070000X0.070000*%
%ADD12C,0.070000*%
%ADD13R,0.060000X0.060000*%
%ADD14C,0.060000*%
%ADD15R,0.080000X0.080000*%
%ADD16C,0.080000*%
%ADD17C,0.160000*%
%ADD18R,0.045000X0.025000*%
%ADD19R,0.025000X0.045000*%
%ADD20C,0.035000*%
%ADD21C,0.006000*%
%ADD22C,0.020000*%
%ADD23C,0.080000*%
%ADD24C,0.012000*%
G04 APERTURE END LIST*
G54D10*
G54D11*
X129300Y-57700D03*
G54D12*
X129300Y-55700D03*
G54D11*
X34800Y-57700D03*
G54D12*
X34800Y-55700D03*
G54D13*
X30000Y-53200D03*
G54D14*
X31000Y-53200D03*
X30000Y-54200D03*
X31000Y-54200D03*
X30000Y-55200D03*
X31000Y-55200D03*
X30000Y-56200D03*
X31000Y-56200D03*
X30000Y-57200D03*
X31000Y-57200D03*
X30000Y-58200D03*
X31000Y-58200D03*
X30000Y-59200D03*
X31000Y-59200D03*
X30000Y-60200D03*
X31000Y-60200D03*
G54D13*
X133100Y-53200D03*
G54D14*
X134100Y-53200D03*
X133100Y-54200D03*
X134100Y-54200D03*
X133100Y-55200D03*
X134100Y-55200D03*
X133100Y-56200D03*
X134100Y-56200D03*
X133100Y-57200D03*
X134100Y-57200D03*
X133100Y-58200D03*
X134100Y-58200D03*
X133100Y-59200D03*
X134100Y-59200D03*
X133100Y-60200D03*
X134100Y-60200D03*
G54D15*
X56500Y-58000D03*
G54D16*
X56500Y-60000D03*
X58500Y-60000D03*
X58500Y-58000D03*
G54D15*
X56500Y-53500D03*
G54D16*
X56500Y-55500D03*
X58500Y-55500D03*
X58500Y-53500D03*
G54D15*
X38500Y-53500D03*
G54D16*
X38500Y-55500D03*
X40500Y-55500D03*
X40500Y-53500D03*
G54D15*
X38500Y-58000D03*
G54D16*
X38500Y-60000D03*
X40500Y-60000D03*
X40500Y-58000D03*
G54D15*
X45000Y-55500D03*
G54D16*
X45000Y-53500D03*
X43000Y-53500D03*
X43000Y-55500D03*
G54D15*
X45000Y-60000D03*
G54D16*
X45000Y-58000D03*
X43000Y-58000D03*
X43000Y-60000D03*
G54D13*
X83100Y-55100D03*
G54D14*
X83100Y-56100D03*
X82100Y-55100D03*
X82100Y-56100D03*
X81100Y-55100D03*
X81100Y-56100D03*
X86100Y-51975D03*
X88650Y-51975D03*
X86100Y-53725D03*
X88650Y-53725D03*
X80700Y-51975D03*
X83250Y-51975D03*
X80700Y-53725D03*
X83250Y-53725D03*
X75300Y-51975D03*
X77850Y-51975D03*
X75300Y-53725D03*
X77850Y-53725D03*
G54D16*
X89100Y-60100D03*
X85100Y-59100D03*
X89100Y-58100D03*
G54D17*
X36650Y-51750D03*
X95300Y-51750D03*
X68800Y-51750D03*
X36650Y-61750D03*
G54D15*
X47500Y-58000D03*
G54D16*
X47500Y-60000D03*
X49500Y-60000D03*
X49500Y-58000D03*
G54D15*
X47500Y-53500D03*
G54D16*
X47500Y-55500D03*
X49500Y-55500D03*
X49500Y-53500D03*
G54D15*
X54000Y-55500D03*
G54D16*
X54000Y-53500D03*
X52000Y-53500D03*
X52000Y-55500D03*
G54D15*
X54000Y-60000D03*
G54D16*
X54000Y-58000D03*
X52000Y-58000D03*
X52000Y-60000D03*
G54D15*
X63000Y-55500D03*
G54D16*
X63000Y-53500D03*
X61000Y-53500D03*
X61000Y-55500D03*
G54D15*
X63000Y-60000D03*
G54D16*
X63000Y-58000D03*
X61000Y-58000D03*
X61000Y-60000D03*
G54D15*
X65500Y-58000D03*
G54D16*
X65500Y-60000D03*
X67500Y-60000D03*
X67500Y-58000D03*
G54D15*
X65500Y-53500D03*
G54D16*
X65500Y-55500D03*
X67500Y-55500D03*
X67500Y-53500D03*
G54D15*
X72000Y-55500D03*
G54D16*
X72000Y-53500D03*
X70000Y-53500D03*
X70000Y-55500D03*
G54D15*
X72000Y-60000D03*
G54D16*
X72000Y-58000D03*
X70000Y-58000D03*
X70000Y-60000D03*
G54D15*
X92100Y-58000D03*
G54D16*
X92100Y-60000D03*
X94100Y-60000D03*
X94100Y-58000D03*
G54D15*
X92100Y-53500D03*
G54D16*
X92100Y-55500D03*
X94100Y-55500D03*
X94100Y-53500D03*
G54D15*
X98600Y-55500D03*
G54D16*
X98600Y-53500D03*
X96600Y-53500D03*
X96600Y-55500D03*
G54D15*
X98600Y-60000D03*
G54D16*
X98600Y-58000D03*
X96600Y-58000D03*
X96600Y-60000D03*
G54D15*
X101100Y-58000D03*
G54D16*
X101100Y-60000D03*
X103100Y-60000D03*
X103100Y-58000D03*
G54D15*
X101100Y-53500D03*
G54D16*
X101100Y-55500D03*
X103100Y-55500D03*
X103100Y-53500D03*
G54D15*
X107600Y-55500D03*
G54D16*
X107600Y-53500D03*
X105600Y-53500D03*
X105600Y-55500D03*
G54D15*
X107600Y-60000D03*
G54D16*
X107600Y-58000D03*
X105600Y-58000D03*
X105600Y-60000D03*
G54D15*
X110100Y-58000D03*
G54D16*
X110100Y-60000D03*
X112100Y-60000D03*
X112100Y-58000D03*
G54D15*
X110100Y-53500D03*
G54D16*
X110100Y-55500D03*
X112100Y-55500D03*
X112100Y-53500D03*
G54D15*
X116600Y-55500D03*
G54D16*
X116600Y-53500D03*
X114600Y-53500D03*
X114600Y-55500D03*
G54D15*
X116600Y-60000D03*
G54D16*
X116600Y-58000D03*
X114600Y-58000D03*
X114600Y-60000D03*
G54D15*
X119100Y-58000D03*
G54D16*
X119100Y-60000D03*
X121100Y-60000D03*
X121100Y-58000D03*
G54D15*
X119100Y-53500D03*
G54D16*
X119100Y-55500D03*
X121100Y-55500D03*
X121100Y-53500D03*
G54D15*
X125600Y-55500D03*
G54D16*
X125600Y-53500D03*
X123600Y-53500D03*
X123600Y-55500D03*
G54D15*
X125600Y-60000D03*
G54D16*
X125600Y-58000D03*
X123600Y-58000D03*
X123600Y-60000D03*
G54D18*
X76000Y-55400D03*
X76000Y-56000D03*
X76000Y-57300D03*
X76000Y-57900D03*
X76000Y-59800D03*
X76000Y-59200D03*
X77300Y-59200D03*
X77300Y-59800D03*
G54D19*
X77000Y-58200D03*
X77600Y-58200D03*
X77000Y-57000D03*
X77600Y-57000D03*
G54D18*
X77300Y-55400D03*
X77300Y-56000D03*
G54D13*
X130600Y-52500D03*
G54D14*
X130600Y-51500D03*
G54D17*
X127450Y-51750D03*
X127450Y-61750D03*
G54D20*
X80211Y-59644D03*
X87696Y-57644D03*
X86113Y-58912D03*
X80373Y-56885D03*
X73200Y-60260D03*
X83822Y-59556D03*
X79314Y-58365D03*
X69245Y-57141D03*
X79725Y-60466D03*
X79422Y-56181D03*
X84844Y-58102D03*
X86569Y-58891D03*
X79779Y-58391D03*
X80145Y-54012D03*
X84425Y-54335D03*
X80586Y-53064D03*
X90461Y-59297D03*
X76704Y-58659D03*
X32870Y-54567D03*
X74689Y-54419D03*
X84141Y-57756D03*
X86077Y-57470D03*
X73526Y-58783D03*
X78813Y-60281D03*
X87900Y-56200D03*
X33771Y-51108D03*
X88102Y-56641D03*
X73963Y-54559D03*
X73250Y-56618D03*
X80166Y-52796D03*
X85200Y-51200D03*
X87400Y-52900D03*
X75502Y-58146D03*
X75815Y-58781D03*
X82836Y-52428D03*
X75987Y-56407D03*
X77622Y-56417D03*
X77096Y-56496D03*
X76820Y-59527D03*
X79135Y-54903D03*
X77122Y-52321D03*
G54D21*
X69534Y-60743D02*
X69013Y-60743D01*
X78316Y-59936D02*
X78608Y-59644D01*
X78316Y-60166D02*
X78316Y-59936D01*
X77739Y-60743D02*
X78316Y-60166D01*
X80211Y-59644D02*
X78608Y-59644D01*
X37800Y-59226D02*
X37426Y-59226D01*
X36349Y-56669D02*
X36669Y-56989D01*
X36669Y-56989D02*
X36669Y-58469D01*
X32708Y-56669D02*
X34891Y-56669D01*
X31677Y-57700D02*
X32708Y-56669D01*
X30646Y-57700D02*
X31677Y-57700D01*
X30500Y-57554D02*
X30646Y-57700D01*
X30500Y-56700D02*
X30500Y-57554D01*
X30500Y-56700D02*
X30000Y-56200D01*
X34891Y-56669D02*
X36349Y-56669D01*
X37800Y-59226D02*
X68019Y-59226D01*
X37426Y-59226D02*
X36669Y-58469D01*
X69534Y-60743D02*
X77739Y-60743D01*
X68026Y-59226D02*
X68019Y-59226D01*
X68782Y-59982D02*
X68026Y-59226D01*
X68782Y-60512D02*
X68782Y-59982D01*
X69013Y-60743D02*
X68782Y-60512D01*
X84713Y-54661D02*
X87696Y-57644D01*
X82539Y-54661D02*
X84713Y-54661D01*
X82100Y-55100D02*
X82539Y-54661D01*
X85152Y-59873D02*
X86113Y-58912D01*
X83398Y-59873D02*
X85152Y-59873D01*
X83169Y-59644D02*
X83398Y-59873D01*
X80211Y-59644D02*
X83169Y-59644D01*
G54D22*
X40500Y-58000D02*
X40500Y-55500D01*
X43000Y-58000D02*
X43000Y-55500D01*
X49500Y-55500D02*
X49500Y-58000D01*
X52000Y-58000D02*
X52000Y-55500D01*
X58500Y-55500D02*
X58500Y-58000D01*
X61000Y-58000D02*
X61000Y-55500D01*
X67500Y-55500D02*
X67500Y-58000D01*
X70000Y-53500D02*
X67500Y-53500D01*
X70000Y-55500D02*
X70000Y-58000D01*
X94100Y-55500D02*
X94100Y-58000D01*
X96600Y-55500D02*
X96600Y-58000D01*
X103100Y-55500D02*
X103100Y-58000D01*
X105600Y-58000D02*
X105600Y-55500D01*
X112100Y-58000D02*
X112100Y-55500D01*
X114600Y-58000D02*
X114600Y-55500D01*
X121100Y-55500D02*
X121100Y-58000D01*
X123600Y-58000D02*
X123600Y-55500D01*
G54D21*
X34409Y-54089D02*
X34462Y-54089D01*
X30000Y-55200D02*
X30255Y-55200D01*
X30255Y-55200D02*
X30755Y-54700D01*
X30755Y-54700D02*
X31698Y-54700D01*
X31698Y-54700D02*
X32309Y-54089D01*
X32309Y-54089D02*
X34409Y-54089D01*
X73375Y-53925D02*
X74883Y-53925D01*
X74883Y-53925D02*
X75641Y-54683D01*
X75641Y-54683D02*
X75641Y-55642D01*
X75641Y-55642D02*
X75657Y-55658D01*
X75657Y-55658D02*
X77300Y-55658D01*
X73367Y-53925D02*
X73375Y-53925D01*
X72656Y-54636D02*
X73367Y-53925D01*
X37060Y-54636D02*
X72656Y-54636D01*
X36980Y-54716D02*
X37060Y-54636D01*
X35089Y-54716D02*
X36980Y-54716D01*
X34462Y-54089D02*
X35089Y-54716D01*
X77300Y-55400D02*
X77300Y-55658D01*
X79120Y-56885D02*
X80373Y-56885D01*
X77893Y-55658D02*
X79120Y-56885D01*
X77300Y-55658D02*
X77893Y-55658D01*
X80464Y-56976D02*
X80373Y-56885D01*
X86019Y-56976D02*
X80464Y-56976D01*
X88170Y-59127D02*
X86019Y-56976D01*
X89901Y-59127D02*
X88170Y-59127D01*
X90039Y-58989D02*
X89901Y-59127D01*
X126151Y-58989D02*
X90039Y-58989D01*
X128402Y-56738D02*
X126151Y-58989D01*
X131562Y-56738D02*
X128402Y-56738D01*
X133100Y-55200D02*
X131562Y-56738D01*
X78991Y-59260D02*
X79314Y-58937D01*
X78380Y-59260D02*
X78991Y-59260D01*
X78097Y-59543D02*
X78380Y-59260D01*
X78097Y-60003D02*
X78097Y-59543D01*
X77696Y-60404D02*
X78097Y-60003D01*
X73344Y-60404D02*
X77696Y-60404D01*
X73200Y-60260D02*
X73344Y-60404D01*
X79314Y-58937D02*
X79314Y-58365D01*
X83203Y-58937D02*
X83822Y-59556D01*
X79314Y-58937D02*
X83203Y-58937D01*
X77000Y-57000D02*
X76146Y-57000D01*
X76146Y-57000D02*
X74997Y-55851D01*
X74997Y-55851D02*
X74997Y-54291D01*
X74997Y-54291D02*
X74794Y-54088D01*
X74794Y-54088D02*
X73472Y-54088D01*
X73472Y-54088D02*
X72740Y-54820D01*
X72740Y-54820D02*
X69726Y-54820D01*
X69726Y-54820D02*
X69245Y-55301D01*
X69245Y-55301D02*
X69245Y-57141D01*
X79725Y-60466D02*
X79894Y-60635D01*
X79894Y-60635D02*
X90401Y-60635D01*
X90401Y-60635D02*
X91676Y-59360D01*
X91676Y-59360D02*
X126260Y-59360D01*
X126260Y-59360D02*
X128496Y-57124D01*
X128496Y-57124D02*
X133024Y-57124D01*
X133024Y-57124D02*
X133100Y-57200D01*
X72520Y-54312D02*
X73966Y-52866D01*
X76330Y-53089D02*
X79422Y-56181D01*
X72520Y-54312D02*
X36840Y-54312D01*
X36840Y-54312D02*
X36760Y-54392D01*
X36760Y-54392D02*
X35680Y-54392D01*
X30680Y-52540D02*
X30500Y-52720D01*
X32285Y-52905D02*
X31920Y-52540D01*
X31920Y-52540D02*
X30680Y-52540D01*
X34927Y-54094D02*
X34924Y-54094D01*
X35225Y-54392D02*
X34927Y-54094D01*
X35680Y-54392D02*
X35225Y-54392D01*
X34924Y-54094D02*
X33735Y-52905D01*
X33735Y-52905D02*
X32285Y-52905D01*
X30080Y-54200D02*
X30000Y-54200D01*
X30500Y-53780D02*
X30080Y-54200D01*
X30500Y-52720D02*
X30500Y-53780D01*
X76107Y-52866D02*
X76330Y-53089D01*
X73966Y-52866D02*
X76107Y-52866D01*
X115177Y-58663D02*
X125937Y-58663D01*
X114827Y-58663D02*
X89905Y-58663D01*
X89905Y-58663D02*
X89767Y-58801D01*
X89767Y-58801D02*
X88304Y-58801D01*
X88304Y-58801D02*
X86070Y-56567D01*
X86070Y-56567D02*
X82567Y-56567D01*
X82100Y-56100D02*
X82567Y-56567D01*
X114827Y-58663D02*
X115177Y-58663D01*
X133070Y-54200D02*
X133100Y-54200D01*
X132318Y-54952D02*
X133070Y-54200D01*
X132318Y-55522D02*
X132318Y-54952D01*
X131426Y-56414D02*
X132318Y-55522D01*
X128186Y-56414D02*
X131426Y-56414D01*
X125937Y-58663D02*
X128186Y-56414D01*
X31000Y-56200D02*
X33382Y-56200D01*
X73898Y-60080D02*
X77558Y-60080D01*
X72720Y-58902D02*
X73898Y-60080D01*
X72262Y-58902D02*
X72720Y-58902D01*
X37562Y-58902D02*
X72262Y-58902D01*
X36993Y-58333D02*
X37562Y-58902D01*
X36993Y-56853D02*
X36993Y-58333D01*
X36478Y-56338D02*
X36993Y-56853D01*
X33520Y-56338D02*
X36478Y-56338D01*
X33382Y-56200D02*
X33520Y-56338D01*
X77658Y-59979D02*
X77658Y-59200D01*
X77558Y-60079D02*
X77558Y-60080D01*
X77558Y-60080D02*
X77558Y-60079D01*
X77558Y-60079D02*
X77658Y-59979D01*
X77658Y-59200D02*
X79003Y-57855D01*
X79003Y-57855D02*
X81682Y-57855D01*
X81682Y-57855D02*
X81929Y-58102D01*
X81929Y-58102D02*
X84844Y-58102D01*
X77300Y-59200D02*
X77658Y-59200D01*
X33220Y-56507D02*
X33600Y-56507D01*
X31382Y-57200D02*
X32075Y-56507D01*
X32075Y-56507D02*
X33220Y-56507D01*
X31000Y-57200D02*
X31382Y-57200D01*
X79779Y-58139D02*
X79779Y-58391D01*
X79657Y-58017D02*
X79779Y-58139D01*
X79100Y-58017D02*
X79657Y-58017D01*
X78934Y-58183D02*
X79100Y-58017D01*
X78934Y-59088D02*
X78934Y-58183D01*
X78924Y-59098D02*
X78934Y-59088D01*
X78312Y-59098D02*
X78924Y-59098D01*
X77935Y-59475D02*
X78312Y-59098D01*
X77935Y-59935D02*
X77935Y-59475D01*
X77628Y-60242D02*
X77935Y-59935D01*
X73830Y-60242D02*
X77628Y-60242D01*
X72652Y-59064D02*
X73830Y-60242D01*
X37494Y-59064D02*
X72652Y-59064D01*
X36831Y-58401D02*
X37494Y-59064D01*
X36831Y-56921D02*
X36831Y-58401D01*
X36410Y-56500D02*
X36831Y-56921D01*
X33607Y-56500D02*
X36410Y-56500D01*
X33600Y-56507D02*
X33607Y-56500D01*
X79779Y-58391D02*
X79799Y-58411D01*
X79799Y-58411D02*
X86089Y-58411D01*
X86089Y-58411D02*
X86569Y-58891D01*
X81658Y-54366D02*
X81100Y-54924D01*
X84394Y-54366D02*
X81658Y-54366D01*
X84425Y-54335D02*
X84394Y-54366D01*
X81057Y-54924D02*
X81100Y-54924D01*
X80145Y-54012D02*
X81057Y-54924D01*
X81100Y-54924D02*
X81100Y-55100D01*
X90543Y-58302D02*
X90543Y-57997D01*
X81229Y-53064D02*
X80586Y-53064D01*
X82367Y-54202D02*
X81229Y-53064D01*
X83608Y-54202D02*
X82367Y-54202D01*
X83897Y-53913D02*
X83608Y-54202D01*
X84534Y-53913D02*
X83897Y-53913D01*
X88199Y-57578D02*
X84534Y-53913D01*
X88199Y-58095D02*
X88199Y-57578D01*
X88741Y-58637D02*
X88199Y-58095D01*
X89701Y-58637D02*
X88741Y-58637D01*
X89838Y-58500D02*
X89701Y-58637D01*
X90345Y-58500D02*
X89838Y-58500D01*
X90543Y-58302D02*
X90345Y-58500D01*
X129760Y-52500D02*
X130600Y-52500D01*
X127720Y-54540D02*
X129760Y-52500D01*
X93680Y-54540D02*
X127720Y-54540D01*
X93100Y-55120D02*
X93680Y-54540D01*
X93100Y-55860D02*
X93100Y-55120D01*
X92220Y-56740D02*
X93100Y-55860D01*
X91800Y-56740D02*
X92220Y-56740D01*
X90543Y-57997D02*
X91800Y-56740D01*
X133100Y-53200D02*
X133100Y-52700D01*
X133100Y-52700D02*
X132900Y-52500D01*
X132900Y-52500D02*
X130600Y-52500D01*
X69480Y-60906D02*
X68946Y-60906D01*
X38140Y-59388D02*
X37358Y-59388D01*
X38140Y-59388D02*
X67939Y-59388D01*
X34846Y-56854D02*
X36304Y-56854D01*
X31460Y-58200D02*
X31000Y-58200D01*
X31460Y-58200D02*
X32806Y-56854D01*
X32806Y-56854D02*
X34846Y-56854D01*
X36507Y-57057D02*
X36507Y-58537D01*
X36304Y-56854D02*
X36507Y-57057D01*
X37358Y-59388D02*
X36507Y-58537D01*
X67939Y-59388D02*
X67951Y-59388D01*
X68620Y-60057D02*
X67951Y-59388D01*
X68620Y-60580D02*
X68620Y-60057D01*
X68946Y-60906D02*
X68620Y-60580D01*
X69467Y-60906D02*
X69480Y-60906D01*
X69480Y-60906D02*
X77806Y-60906D01*
X77806Y-60906D02*
X78505Y-60207D01*
X78505Y-60207D02*
X78505Y-59977D01*
X78505Y-59977D02*
X78528Y-59954D01*
X78528Y-59954D02*
X83134Y-59954D01*
X83134Y-59954D02*
X83297Y-60117D01*
X83297Y-60117D02*
X85779Y-60117D01*
X85779Y-60117D02*
X86606Y-59290D01*
X69466Y-60906D02*
X69467Y-60906D01*
X90454Y-59290D02*
X90461Y-59297D01*
X86606Y-59290D02*
X90454Y-59290D01*
X77258Y-58200D02*
X77000Y-58200D01*
X86606Y-59290D02*
X86877Y-59019D01*
X86877Y-59019D02*
X86877Y-58763D01*
X86877Y-58763D02*
X85554Y-57440D01*
X85554Y-57440D02*
X83180Y-57440D01*
X83180Y-57440D02*
X83092Y-57528D01*
X83092Y-57528D02*
X77672Y-57528D01*
X77672Y-57528D02*
X77258Y-57942D01*
X77258Y-57942D02*
X77258Y-58200D01*
X35885Y-55515D02*
X36965Y-56595D01*
X76502Y-58457D02*
X76704Y-58659D01*
X74288Y-58457D02*
X76502Y-58457D01*
X73654Y-59091D02*
X74288Y-58457D01*
X73269Y-59091D02*
X73654Y-59091D01*
X72918Y-58740D02*
X73269Y-59091D01*
X37630Y-58740D02*
X72918Y-58740D01*
X37155Y-58265D02*
X37630Y-58740D01*
X37155Y-56785D02*
X37155Y-58265D01*
X37125Y-56755D02*
X37155Y-56785D01*
X36965Y-56595D02*
X37125Y-56755D01*
X34340Y-54567D02*
X34427Y-54567D01*
X35465Y-55095D02*
X35885Y-55515D01*
X35885Y-55515D02*
X35886Y-55516D01*
X34955Y-55095D02*
X35465Y-55095D01*
X34427Y-54567D02*
X34955Y-55095D01*
X77141Y-58659D02*
X76704Y-58659D01*
X77600Y-58200D02*
X77141Y-58659D01*
X32870Y-54567D02*
X34340Y-54567D01*
X34340Y-54567D02*
X34355Y-54567D01*
X74689Y-55989D02*
X74689Y-54419D01*
X76000Y-57300D02*
X74689Y-55989D01*
X76000Y-59542D02*
X76000Y-59800D01*
X76258Y-59542D02*
X76000Y-59542D01*
X76859Y-58941D02*
X76258Y-59542D01*
X77593Y-58941D02*
X76859Y-58941D01*
X78843Y-57691D02*
X77593Y-58941D01*
X84076Y-57691D02*
X78843Y-57691D01*
X84141Y-57756D02*
X84076Y-57691D01*
X37340Y-56740D02*
X37340Y-58220D01*
X34349Y-54259D02*
X35023Y-54933D01*
X35023Y-54933D02*
X35533Y-54933D01*
X35533Y-54933D02*
X37340Y-56740D01*
X32743Y-54259D02*
X34297Y-54259D01*
X31302Y-55700D02*
X32743Y-54259D01*
X29648Y-55700D02*
X31302Y-55700D01*
X29566Y-55618D02*
X29648Y-55700D01*
X29566Y-54932D02*
X29566Y-55618D01*
X29798Y-54700D02*
X29566Y-54932D01*
X30500Y-54700D02*
X29798Y-54700D01*
X31000Y-54200D02*
X30500Y-54700D01*
X34297Y-54259D02*
X34349Y-54259D01*
X73303Y-58560D02*
X73526Y-58783D01*
X37680Y-58560D02*
X73303Y-58560D01*
X37340Y-58220D02*
X37680Y-58560D01*
X73526Y-58783D02*
X74750Y-57559D01*
X74750Y-57559D02*
X77409Y-57559D01*
X77409Y-57559D02*
X77609Y-57359D01*
X77609Y-57359D02*
X80942Y-57359D01*
X80942Y-57359D02*
X81067Y-57234D01*
X81067Y-57234D02*
X85841Y-57234D01*
X85841Y-57234D02*
X86077Y-57470D01*
X76000Y-55400D02*
X76000Y-53248D01*
X33803Y-53200D02*
X31000Y-53200D01*
X35157Y-54554D02*
X33803Y-53200D01*
X36846Y-54554D02*
X35157Y-54554D01*
X36926Y-54474D02*
X36846Y-54554D01*
X72588Y-54474D02*
X36926Y-54474D01*
X74034Y-53028D02*
X72588Y-54474D01*
X75780Y-53028D02*
X74034Y-53028D01*
X76000Y-53248D02*
X75780Y-53028D01*
X125239Y-58826D02*
X126054Y-58826D01*
X133600Y-53700D02*
X134100Y-53200D01*
X133600Y-54500D02*
X133600Y-53700D01*
X133400Y-54700D02*
X133600Y-54500D01*
X132800Y-54700D02*
X133400Y-54700D01*
X132480Y-55020D02*
X132800Y-54700D01*
X132480Y-55590D02*
X132480Y-55020D01*
X131494Y-56576D02*
X132480Y-55590D01*
X128304Y-56576D02*
X131494Y-56576D01*
X126054Y-58826D02*
X128304Y-56576D01*
X115180Y-58826D02*
X125239Y-58826D01*
X76000Y-55143D02*
X76055Y-55088D01*
X114920Y-58826D02*
X89972Y-58826D01*
X89972Y-58826D02*
X89834Y-58964D01*
X89834Y-58964D02*
X88237Y-58964D01*
X88237Y-58964D02*
X86077Y-56804D01*
X86077Y-56804D02*
X82385Y-56804D01*
X82385Y-56804D02*
X82153Y-56572D01*
X82153Y-56572D02*
X79378Y-56572D01*
X79378Y-56572D02*
X77894Y-55088D01*
X77894Y-55088D02*
X76055Y-55088D01*
X114920Y-58826D02*
X115180Y-58826D01*
X125239Y-58826D02*
X125240Y-58827D01*
X134100Y-53200D02*
X134100Y-52700D01*
X132900Y-51500D02*
X130600Y-51500D01*
X134100Y-52700D02*
X132900Y-51500D01*
X76000Y-55182D02*
X76000Y-55143D01*
X76000Y-55182D02*
X76000Y-55400D01*
X134100Y-52973D02*
X134100Y-53200D01*
X78813Y-60281D02*
X78976Y-60118D01*
X78976Y-60118D02*
X79871Y-60118D01*
X79871Y-60118D02*
X80187Y-60434D01*
X80187Y-60434D02*
X87367Y-60434D01*
X87367Y-60434D02*
X88281Y-59520D01*
X88281Y-59520D02*
X89724Y-59520D01*
X89724Y-59520D02*
X89820Y-59616D01*
X89820Y-59616D02*
X90853Y-59616D01*
X90853Y-59616D02*
X91289Y-59180D01*
X91289Y-59180D02*
X126199Y-59180D01*
X126199Y-59180D02*
X128419Y-56960D01*
X128419Y-56960D02*
X131572Y-56960D01*
X131572Y-56960D02*
X132832Y-55700D01*
X132832Y-55700D02*
X133600Y-55700D01*
X133600Y-55700D02*
X134100Y-55200D01*
G54D23*
X133100Y-60200D02*
X134100Y-60200D01*
X134100Y-60200D02*
X135200Y-60200D01*
X31000Y-60200D02*
X30000Y-60200D01*
X30000Y-60200D02*
X28900Y-60200D01*
X56400Y-63300D02*
X65500Y-63300D01*
X47500Y-63300D02*
X56400Y-63300D01*
X38400Y-63300D02*
X47500Y-63300D01*
X119100Y-63300D02*
X129300Y-63300D01*
X110100Y-63300D02*
X119100Y-63300D01*
X101100Y-63300D02*
X110100Y-63300D01*
X92100Y-63300D02*
X101100Y-63300D01*
X65500Y-63300D02*
X92100Y-63300D01*
X92100Y-60000D02*
X92100Y-63300D01*
X135200Y-63300D02*
X135200Y-61700D01*
X129300Y-63300D02*
X135200Y-63300D01*
X34900Y-63300D02*
X38400Y-63300D01*
X34900Y-63200D02*
X34900Y-63300D01*
X34800Y-63300D02*
X34900Y-63200D01*
X101100Y-60000D02*
X101100Y-63300D01*
X110100Y-60000D02*
X110100Y-63300D01*
X119100Y-60000D02*
X119100Y-63300D01*
X38500Y-63200D02*
X38400Y-63300D01*
X38500Y-60000D02*
X38500Y-63200D01*
X47500Y-60000D02*
X47500Y-63300D01*
X56500Y-63200D02*
X56400Y-63300D01*
X56500Y-60000D02*
X56500Y-63200D01*
X129300Y-57700D02*
X129300Y-63300D01*
X34800Y-57700D02*
X34800Y-63300D01*
X28900Y-63300D02*
X34800Y-63300D01*
X28900Y-61700D02*
X28900Y-63300D01*
X135200Y-50200D02*
X135200Y-60200D01*
X135200Y-60200D02*
X135200Y-61700D01*
X87500Y-50200D02*
X135200Y-50200D01*
X28900Y-50200D02*
X87500Y-50200D01*
X28900Y-61700D02*
X28900Y-60200D01*
X28900Y-60200D02*
X28900Y-50200D01*
G54D24*
X87500Y-51900D02*
X87500Y-50200D01*
X87600Y-52000D02*
X87500Y-51900D01*
X87800Y-52000D02*
X87600Y-52000D01*
X87900Y-52100D02*
X87800Y-52000D01*
X87900Y-56200D02*
X87900Y-52100D01*
G54D23*
X65500Y-60000D02*
X65500Y-63300D01*
G54D24*
X37940Y-54120D02*
X36660Y-54120D01*
X76157Y-52560D02*
X76162Y-52555D01*
X77850Y-51975D02*
X76742Y-51975D01*
X76162Y-52555D02*
X76742Y-51975D01*
X34781Y-53679D02*
X34784Y-53679D01*
X34784Y-53679D02*
X35143Y-54038D01*
X33771Y-51108D02*
X33771Y-52669D01*
X33771Y-52669D02*
X34781Y-53679D01*
X74000Y-52560D02*
X74527Y-52560D01*
X72440Y-54120D02*
X74000Y-52560D01*
X37940Y-54120D02*
X72440Y-54120D01*
X74527Y-52560D02*
X76157Y-52560D01*
X35305Y-54200D02*
X35143Y-54038D01*
X36580Y-54200D02*
X35305Y-54200D01*
X36660Y-54120D02*
X36580Y-54200D01*
X73963Y-54559D02*
X73963Y-55905D01*
X73963Y-55905D02*
X73250Y-56618D01*
X83250Y-51975D02*
X83250Y-52027D01*
X89100Y-57639D02*
X88102Y-56641D01*
X89100Y-58100D02*
X89100Y-57639D01*
X88244Y-56499D02*
X88102Y-56641D01*
X88244Y-55792D02*
X88244Y-56499D01*
X88124Y-55672D02*
X88244Y-55792D01*
X88124Y-52501D02*
X88124Y-55672D01*
X88650Y-51975D02*
X88124Y-52501D01*
X87864Y-56641D02*
X88102Y-56641D01*
X83250Y-52027D02*
X87864Y-56641D01*
X80446Y-52726D02*
X80299Y-52873D01*
X80760Y-52726D02*
X80446Y-52726D01*
X81459Y-52027D02*
X80760Y-52726D01*
X83250Y-52027D02*
X81459Y-52027D01*
X81100Y-55899D02*
X81100Y-56100D01*
X79743Y-54542D02*
X81100Y-55899D01*
X79743Y-53743D02*
X79743Y-54542D01*
X80248Y-53238D02*
X79743Y-53743D01*
X80248Y-52924D02*
X80248Y-53238D01*
X80299Y-52873D02*
X80248Y-52924D01*
X80243Y-52873D02*
X80299Y-52873D01*
X80166Y-52796D02*
X80243Y-52873D01*
X78671Y-52796D02*
X80166Y-52796D01*
X77850Y-51975D02*
X78671Y-52796D01*
X85200Y-52500D02*
X85200Y-51200D01*
X85500Y-52800D02*
X85200Y-52500D01*
X87300Y-52800D02*
X85500Y-52800D01*
X87400Y-52900D02*
X87300Y-52800D01*
G54D21*
X75642Y-58006D02*
X75502Y-58146D01*
X75642Y-57900D02*
X75642Y-58006D01*
X76000Y-57900D02*
X75642Y-57900D01*
X75976Y-58942D02*
X75815Y-58781D01*
X76000Y-58942D02*
X75976Y-58942D01*
X76000Y-59200D02*
X76000Y-58942D01*
X83250Y-52842D02*
X83250Y-53725D01*
X82836Y-52428D02*
X83250Y-52842D01*
X76000Y-56394D02*
X75987Y-56407D01*
X76000Y-56000D02*
X76000Y-56394D01*
X77463Y-56258D02*
X77622Y-56417D01*
X77300Y-56258D02*
X77463Y-56258D01*
X77300Y-56000D02*
X77300Y-56258D01*
X77342Y-56742D02*
X77096Y-56496D01*
X77342Y-57000D02*
X77342Y-56742D01*
X77600Y-57000D02*
X77342Y-57000D01*
X76942Y-59649D02*
X76820Y-59527D01*
X76942Y-59800D02*
X76942Y-59649D01*
X77300Y-59800D02*
X76942Y-59800D01*
G54D24*
X79135Y-54334D02*
X77122Y-52321D01*
X79135Y-54903D02*
X79135Y-54334D01*
M02*
