G04 (created by PCBNEW (2010-04-21 BZR 23xx)-stable) date Wed 04 May 2011 08:31:03 PM CEST*
G01*
G70*
G90*
%MOIN*%
G04 Gerber Fmt 3.4, Leading zero omitted, Abs format*
%FSLAX34Y34*%
G04 APERTURE LIST*
%ADD10C,0.001000*%
%ADD11C,0.015000*%
%ADD12C,0.008000*%
G04 APERTURE END LIST*
G54D10*
G54D11*
X137800Y-49700D02*
X26200Y-49700D01*
X137800Y-63800D02*
X137800Y-49700D01*
X26200Y-63800D02*
X137800Y-63800D01*
X26200Y-49700D02*
X26200Y-63800D01*
G54D10*
X36712Y-54709D02*
X36962Y-54959D01*
X36962Y-54709D02*
X36712Y-54959D01*
X72902Y-53778D02*
X73152Y-54028D01*
X73152Y-53778D02*
X72902Y-54028D01*
X73473Y-61927D02*
X73723Y-62177D01*
X73723Y-61927D02*
X73473Y-62177D01*
X73636Y-57075D02*
X73886Y-57325D01*
X73886Y-57075D02*
X73636Y-57325D01*
X73759Y-56175D02*
X74009Y-56425D01*
X74009Y-56175D02*
X73759Y-56425D01*
X73837Y-54707D02*
X74087Y-54957D01*
X74087Y-54707D02*
X73837Y-54957D01*
X74703Y-54121D02*
X74953Y-54371D01*
X74953Y-54121D02*
X74703Y-54371D01*
X74851Y-52029D02*
X75101Y-52279D01*
X75101Y-52029D02*
X74851Y-52279D01*
X75106Y-58084D02*
X75356Y-58334D01*
X75356Y-58084D02*
X75106Y-58334D01*
X75499Y-57192D02*
X75749Y-57442D01*
X75749Y-57192D02*
X75499Y-57442D01*
X75975Y-58412D02*
X76225Y-58662D01*
X76225Y-58412D02*
X75975Y-58662D01*
X75997Y-57920D02*
X76247Y-58170D01*
X76247Y-57920D02*
X75997Y-58170D01*
X76598Y-57989D02*
X76848Y-58239D01*
X76848Y-57989D02*
X76598Y-58239D01*
X77311Y-54564D02*
X77561Y-54814D01*
X77561Y-54564D02*
X77311Y-54814D01*
X77343Y-56577D02*
X77593Y-56827D01*
X77593Y-56577D02*
X77343Y-56827D01*
X77921Y-59244D02*
X78171Y-59494D01*
X78171Y-59244D02*
X77921Y-59494D01*
X77921Y-61927D02*
X78171Y-62177D01*
X78171Y-61927D02*
X77921Y-62177D01*
X77930Y-56564D02*
X78180Y-56814D01*
X78180Y-56564D02*
X77930Y-56814D01*
X78211Y-54424D02*
X78461Y-54674D01*
X78461Y-54424D02*
X78211Y-54674D01*
X78551Y-62318D02*
X78801Y-62568D01*
X78801Y-62318D02*
X78551Y-62568D01*
X78562Y-59715D02*
X78812Y-59965D01*
X78812Y-59715D02*
X78562Y-59965D01*
X78589Y-61468D02*
X78839Y-61718D01*
X78839Y-61468D02*
X78589Y-61718D01*
X78596Y-60229D02*
X78846Y-60479D01*
X78846Y-60229D02*
X78596Y-60479D01*
X79875Y-56475D02*
X80125Y-56725D01*
X80125Y-56475D02*
X79875Y-56725D01*
X80000Y-59625D02*
X80250Y-59875D01*
X80250Y-59625D02*
X80000Y-59875D01*
X80037Y-58788D02*
X80287Y-59038D01*
X80287Y-58788D02*
X80037Y-59038D01*
X80044Y-58233D02*
X80294Y-58483D01*
X80294Y-58233D02*
X80044Y-58483D01*
X80134Y-60125D02*
X80384Y-60375D01*
X80384Y-60125D02*
X80134Y-60375D01*
X80216Y-61441D02*
X80466Y-61691D01*
X80466Y-61441D02*
X80216Y-61691D01*
X81571Y-60625D02*
X81821Y-60875D01*
X81821Y-60625D02*
X81571Y-60875D01*
X81875Y-56975D02*
X82125Y-57225D01*
X82125Y-56975D02*
X81875Y-57225D01*
X82184Y-59766D02*
X82434Y-60016D01*
X82434Y-59766D02*
X82184Y-60016D01*
X83679Y-55597D02*
X83929Y-55847D01*
X83929Y-55597D02*
X83679Y-55847D01*
X27960Y-53200D02*
X27956Y-53231D01*
X27947Y-53260D01*
X27933Y-53288D01*
X27913Y-53312D01*
X27889Y-53332D01*
X27862Y-53347D01*
X27832Y-53356D01*
X27801Y-53359D01*
X27771Y-53357D01*
X27741Y-53348D01*
X27713Y-53333D01*
X27689Y-53314D01*
X27668Y-53290D01*
X27653Y-53263D01*
X27644Y-53233D01*
X27641Y-53202D01*
X27643Y-53172D01*
X27652Y-53142D01*
X27666Y-53114D01*
X27685Y-53089D01*
X27709Y-53069D01*
X27736Y-53054D01*
X27766Y-53044D01*
X27797Y-53041D01*
X27827Y-53043D01*
X27857Y-53051D01*
X27885Y-53065D01*
X27910Y-53085D01*
X27930Y-53108D01*
X27946Y-53135D01*
X27956Y-53165D01*
X27959Y-53196D01*
X27960Y-53200D01*
X27960Y-54200D02*
X27956Y-54231D01*
X27947Y-54260D01*
X27933Y-54288D01*
X27913Y-54312D01*
X27889Y-54332D01*
X27862Y-54347D01*
X27832Y-54356D01*
X27801Y-54359D01*
X27771Y-54357D01*
X27741Y-54348D01*
X27713Y-54333D01*
X27689Y-54314D01*
X27668Y-54290D01*
X27653Y-54263D01*
X27644Y-54233D01*
X27641Y-54202D01*
X27643Y-54172D01*
X27652Y-54142D01*
X27666Y-54114D01*
X27685Y-54089D01*
X27709Y-54069D01*
X27736Y-54054D01*
X27766Y-54044D01*
X27797Y-54041D01*
X27827Y-54043D01*
X27857Y-54051D01*
X27885Y-54065D01*
X27910Y-54085D01*
X27930Y-54108D01*
X27946Y-54135D01*
X27956Y-54165D01*
X27959Y-54196D01*
X27960Y-54200D01*
X27960Y-55200D02*
X27956Y-55231D01*
X27947Y-55260D01*
X27933Y-55288D01*
X27913Y-55312D01*
X27889Y-55332D01*
X27862Y-55347D01*
X27832Y-55356D01*
X27801Y-55359D01*
X27771Y-55357D01*
X27741Y-55348D01*
X27713Y-55333D01*
X27689Y-55314D01*
X27668Y-55290D01*
X27653Y-55263D01*
X27644Y-55233D01*
X27641Y-55202D01*
X27643Y-55172D01*
X27652Y-55142D01*
X27666Y-55114D01*
X27685Y-55089D01*
X27709Y-55069D01*
X27736Y-55054D01*
X27766Y-55044D01*
X27797Y-55041D01*
X27827Y-55043D01*
X27857Y-55051D01*
X27885Y-55065D01*
X27910Y-55085D01*
X27930Y-55108D01*
X27946Y-55135D01*
X27956Y-55165D01*
X27959Y-55196D01*
X27960Y-55200D01*
X27960Y-56200D02*
X27956Y-56231D01*
X27947Y-56260D01*
X27933Y-56288D01*
X27913Y-56312D01*
X27889Y-56332D01*
X27862Y-56347D01*
X27832Y-56356D01*
X27801Y-56359D01*
X27771Y-56357D01*
X27741Y-56348D01*
X27713Y-56333D01*
X27689Y-56314D01*
X27668Y-56290D01*
X27653Y-56263D01*
X27644Y-56233D01*
X27641Y-56202D01*
X27643Y-56172D01*
X27652Y-56142D01*
X27666Y-56114D01*
X27685Y-56089D01*
X27709Y-56069D01*
X27736Y-56054D01*
X27766Y-56044D01*
X27797Y-56041D01*
X27827Y-56043D01*
X27857Y-56051D01*
X27885Y-56065D01*
X27910Y-56085D01*
X27930Y-56108D01*
X27946Y-56135D01*
X27956Y-56165D01*
X27959Y-56196D01*
X27960Y-56200D01*
X27960Y-57200D02*
X27956Y-57231D01*
X27947Y-57260D01*
X27933Y-57288D01*
X27913Y-57312D01*
X27889Y-57332D01*
X27862Y-57347D01*
X27832Y-57356D01*
X27801Y-57359D01*
X27771Y-57357D01*
X27741Y-57348D01*
X27713Y-57333D01*
X27689Y-57314D01*
X27668Y-57290D01*
X27653Y-57263D01*
X27644Y-57233D01*
X27641Y-57202D01*
X27643Y-57172D01*
X27652Y-57142D01*
X27666Y-57114D01*
X27685Y-57089D01*
X27709Y-57069D01*
X27736Y-57054D01*
X27766Y-57044D01*
X27797Y-57041D01*
X27827Y-57043D01*
X27857Y-57051D01*
X27885Y-57065D01*
X27910Y-57085D01*
X27930Y-57108D01*
X27946Y-57135D01*
X27956Y-57165D01*
X27959Y-57196D01*
X27960Y-57200D01*
X27960Y-58200D02*
X27956Y-58231D01*
X27947Y-58260D01*
X27933Y-58288D01*
X27913Y-58312D01*
X27889Y-58332D01*
X27862Y-58347D01*
X27832Y-58356D01*
X27801Y-58359D01*
X27771Y-58357D01*
X27741Y-58348D01*
X27713Y-58333D01*
X27689Y-58314D01*
X27668Y-58290D01*
X27653Y-58263D01*
X27644Y-58233D01*
X27641Y-58202D01*
X27643Y-58172D01*
X27652Y-58142D01*
X27666Y-58114D01*
X27685Y-58089D01*
X27709Y-58069D01*
X27736Y-58054D01*
X27766Y-58044D01*
X27797Y-58041D01*
X27827Y-58043D01*
X27857Y-58051D01*
X27885Y-58065D01*
X27910Y-58085D01*
X27930Y-58108D01*
X27946Y-58135D01*
X27956Y-58165D01*
X27959Y-58196D01*
X27960Y-58200D01*
X27960Y-59200D02*
X27956Y-59231D01*
X27947Y-59260D01*
X27933Y-59288D01*
X27913Y-59312D01*
X27889Y-59332D01*
X27862Y-59347D01*
X27832Y-59356D01*
X27801Y-59359D01*
X27771Y-59357D01*
X27741Y-59348D01*
X27713Y-59333D01*
X27689Y-59314D01*
X27668Y-59290D01*
X27653Y-59263D01*
X27644Y-59233D01*
X27641Y-59202D01*
X27643Y-59172D01*
X27652Y-59142D01*
X27666Y-59114D01*
X27685Y-59089D01*
X27709Y-59069D01*
X27736Y-59054D01*
X27766Y-59044D01*
X27797Y-59041D01*
X27827Y-59043D01*
X27857Y-59051D01*
X27885Y-59065D01*
X27910Y-59085D01*
X27930Y-59108D01*
X27946Y-59135D01*
X27956Y-59165D01*
X27959Y-59196D01*
X27960Y-59200D01*
X27960Y-60200D02*
X27956Y-60231D01*
X27947Y-60260D01*
X27933Y-60288D01*
X27913Y-60312D01*
X27889Y-60332D01*
X27862Y-60347D01*
X27832Y-60356D01*
X27801Y-60359D01*
X27771Y-60357D01*
X27741Y-60348D01*
X27713Y-60333D01*
X27689Y-60314D01*
X27668Y-60290D01*
X27653Y-60263D01*
X27644Y-60233D01*
X27641Y-60202D01*
X27643Y-60172D01*
X27652Y-60142D01*
X27666Y-60114D01*
X27685Y-60089D01*
X27709Y-60069D01*
X27736Y-60054D01*
X27766Y-60044D01*
X27797Y-60041D01*
X27827Y-60043D01*
X27857Y-60051D01*
X27885Y-60065D01*
X27910Y-60085D01*
X27930Y-60108D01*
X27946Y-60135D01*
X27956Y-60165D01*
X27959Y-60196D01*
X27960Y-60200D01*
X78960Y-52400D02*
X78956Y-52431D01*
X78947Y-52460D01*
X78933Y-52488D01*
X78913Y-52512D01*
X78889Y-52532D01*
X78862Y-52547D01*
X78832Y-52556D01*
X78801Y-52559D01*
X78771Y-52557D01*
X78741Y-52548D01*
X78713Y-52533D01*
X78689Y-52514D01*
X78668Y-52490D01*
X78653Y-52463D01*
X78644Y-52433D01*
X78641Y-52402D01*
X78643Y-52372D01*
X78652Y-52342D01*
X78666Y-52314D01*
X78685Y-52289D01*
X78709Y-52269D01*
X78736Y-52254D01*
X78766Y-52244D01*
X78797Y-52241D01*
X78827Y-52243D01*
X78857Y-52251D01*
X78885Y-52265D01*
X78910Y-52285D01*
X78930Y-52308D01*
X78946Y-52335D01*
X78956Y-52365D01*
X78959Y-52396D01*
X78960Y-52400D01*
X79960Y-52400D02*
X79956Y-52431D01*
X79947Y-52460D01*
X79933Y-52488D01*
X79913Y-52512D01*
X79889Y-52532D01*
X79862Y-52547D01*
X79832Y-52556D01*
X79801Y-52559D01*
X79771Y-52557D01*
X79741Y-52548D01*
X79713Y-52533D01*
X79689Y-52514D01*
X79668Y-52490D01*
X79653Y-52463D01*
X79644Y-52433D01*
X79641Y-52402D01*
X79643Y-52372D01*
X79652Y-52342D01*
X79666Y-52314D01*
X79685Y-52289D01*
X79709Y-52269D01*
X79736Y-52254D01*
X79766Y-52244D01*
X79797Y-52241D01*
X79827Y-52243D01*
X79857Y-52251D01*
X79885Y-52265D01*
X79910Y-52285D01*
X79930Y-52308D01*
X79946Y-52335D01*
X79956Y-52365D01*
X79959Y-52396D01*
X79960Y-52400D01*
X136460Y-53200D02*
X136456Y-53231D01*
X136447Y-53260D01*
X136433Y-53288D01*
X136413Y-53312D01*
X136389Y-53332D01*
X136362Y-53347D01*
X136332Y-53356D01*
X136301Y-53359D01*
X136271Y-53357D01*
X136241Y-53348D01*
X136213Y-53333D01*
X136189Y-53314D01*
X136168Y-53290D01*
X136153Y-53263D01*
X136144Y-53233D01*
X136141Y-53202D01*
X136143Y-53172D01*
X136152Y-53142D01*
X136166Y-53114D01*
X136185Y-53089D01*
X136209Y-53069D01*
X136236Y-53054D01*
X136266Y-53044D01*
X136297Y-53041D01*
X136327Y-53043D01*
X136357Y-53051D01*
X136385Y-53065D01*
X136410Y-53085D01*
X136430Y-53108D01*
X136446Y-53135D01*
X136456Y-53165D01*
X136459Y-53196D01*
X136460Y-53200D01*
X136460Y-54200D02*
X136456Y-54231D01*
X136447Y-54260D01*
X136433Y-54288D01*
X136413Y-54312D01*
X136389Y-54332D01*
X136362Y-54347D01*
X136332Y-54356D01*
X136301Y-54359D01*
X136271Y-54357D01*
X136241Y-54348D01*
X136213Y-54333D01*
X136189Y-54314D01*
X136168Y-54290D01*
X136153Y-54263D01*
X136144Y-54233D01*
X136141Y-54202D01*
X136143Y-54172D01*
X136152Y-54142D01*
X136166Y-54114D01*
X136185Y-54089D01*
X136209Y-54069D01*
X136236Y-54054D01*
X136266Y-54044D01*
X136297Y-54041D01*
X136327Y-54043D01*
X136357Y-54051D01*
X136385Y-54065D01*
X136410Y-54085D01*
X136430Y-54108D01*
X136446Y-54135D01*
X136456Y-54165D01*
X136459Y-54196D01*
X136460Y-54200D01*
X136460Y-55200D02*
X136456Y-55231D01*
X136447Y-55260D01*
X136433Y-55288D01*
X136413Y-55312D01*
X136389Y-55332D01*
X136362Y-55347D01*
X136332Y-55356D01*
X136301Y-55359D01*
X136271Y-55357D01*
X136241Y-55348D01*
X136213Y-55333D01*
X136189Y-55314D01*
X136168Y-55290D01*
X136153Y-55263D01*
X136144Y-55233D01*
X136141Y-55202D01*
X136143Y-55172D01*
X136152Y-55142D01*
X136166Y-55114D01*
X136185Y-55089D01*
X136209Y-55069D01*
X136236Y-55054D01*
X136266Y-55044D01*
X136297Y-55041D01*
X136327Y-55043D01*
X136357Y-55051D01*
X136385Y-55065D01*
X136410Y-55085D01*
X136430Y-55108D01*
X136446Y-55135D01*
X136456Y-55165D01*
X136459Y-55196D01*
X136460Y-55200D01*
X136460Y-56200D02*
X136456Y-56231D01*
X136447Y-56260D01*
X136433Y-56288D01*
X136413Y-56312D01*
X136389Y-56332D01*
X136362Y-56347D01*
X136332Y-56356D01*
X136301Y-56359D01*
X136271Y-56357D01*
X136241Y-56348D01*
X136213Y-56333D01*
X136189Y-56314D01*
X136168Y-56290D01*
X136153Y-56263D01*
X136144Y-56233D01*
X136141Y-56202D01*
X136143Y-56172D01*
X136152Y-56142D01*
X136166Y-56114D01*
X136185Y-56089D01*
X136209Y-56069D01*
X136236Y-56054D01*
X136266Y-56044D01*
X136297Y-56041D01*
X136327Y-56043D01*
X136357Y-56051D01*
X136385Y-56065D01*
X136410Y-56085D01*
X136430Y-56108D01*
X136446Y-56135D01*
X136456Y-56165D01*
X136459Y-56196D01*
X136460Y-56200D01*
X136460Y-57200D02*
X136456Y-57231D01*
X136447Y-57260D01*
X136433Y-57288D01*
X136413Y-57312D01*
X136389Y-57332D01*
X136362Y-57347D01*
X136332Y-57356D01*
X136301Y-57359D01*
X136271Y-57357D01*
X136241Y-57348D01*
X136213Y-57333D01*
X136189Y-57314D01*
X136168Y-57290D01*
X136153Y-57263D01*
X136144Y-57233D01*
X136141Y-57202D01*
X136143Y-57172D01*
X136152Y-57142D01*
X136166Y-57114D01*
X136185Y-57089D01*
X136209Y-57069D01*
X136236Y-57054D01*
X136266Y-57044D01*
X136297Y-57041D01*
X136327Y-57043D01*
X136357Y-57051D01*
X136385Y-57065D01*
X136410Y-57085D01*
X136430Y-57108D01*
X136446Y-57135D01*
X136456Y-57165D01*
X136459Y-57196D01*
X136460Y-57200D01*
X136460Y-58200D02*
X136456Y-58231D01*
X136447Y-58260D01*
X136433Y-58288D01*
X136413Y-58312D01*
X136389Y-58332D01*
X136362Y-58347D01*
X136332Y-58356D01*
X136301Y-58359D01*
X136271Y-58357D01*
X136241Y-58348D01*
X136213Y-58333D01*
X136189Y-58314D01*
X136168Y-58290D01*
X136153Y-58263D01*
X136144Y-58233D01*
X136141Y-58202D01*
X136143Y-58172D01*
X136152Y-58142D01*
X136166Y-58114D01*
X136185Y-58089D01*
X136209Y-58069D01*
X136236Y-58054D01*
X136266Y-58044D01*
X136297Y-58041D01*
X136327Y-58043D01*
X136357Y-58051D01*
X136385Y-58065D01*
X136410Y-58085D01*
X136430Y-58108D01*
X136446Y-58135D01*
X136456Y-58165D01*
X136459Y-58196D01*
X136460Y-58200D01*
X136460Y-59200D02*
X136456Y-59231D01*
X136447Y-59260D01*
X136433Y-59288D01*
X136413Y-59312D01*
X136389Y-59332D01*
X136362Y-59347D01*
X136332Y-59356D01*
X136301Y-59359D01*
X136271Y-59357D01*
X136241Y-59348D01*
X136213Y-59333D01*
X136189Y-59314D01*
X136168Y-59290D01*
X136153Y-59263D01*
X136144Y-59233D01*
X136141Y-59202D01*
X136143Y-59172D01*
X136152Y-59142D01*
X136166Y-59114D01*
X136185Y-59089D01*
X136209Y-59069D01*
X136236Y-59054D01*
X136266Y-59044D01*
X136297Y-59041D01*
X136327Y-59043D01*
X136357Y-59051D01*
X136385Y-59065D01*
X136410Y-59085D01*
X136430Y-59108D01*
X136446Y-59135D01*
X136456Y-59165D01*
X136459Y-59196D01*
X136460Y-59200D01*
X136460Y-60200D02*
X136456Y-60231D01*
X136447Y-60260D01*
X136433Y-60288D01*
X136413Y-60312D01*
X136389Y-60332D01*
X136362Y-60347D01*
X136332Y-60356D01*
X136301Y-60359D01*
X136271Y-60357D01*
X136241Y-60348D01*
X136213Y-60333D01*
X136189Y-60314D01*
X136168Y-60290D01*
X136153Y-60263D01*
X136144Y-60233D01*
X136141Y-60202D01*
X136143Y-60172D01*
X136152Y-60142D01*
X136166Y-60114D01*
X136185Y-60089D01*
X136209Y-60069D01*
X136236Y-60054D01*
X136266Y-60044D01*
X136297Y-60041D01*
X136327Y-60043D01*
X136357Y-60051D01*
X136385Y-60065D01*
X136410Y-60085D01*
X136430Y-60108D01*
X136446Y-60135D01*
X136456Y-60165D01*
X136459Y-60196D01*
X136460Y-60200D01*
X33600Y-55003D02*
X33600Y-55397D01*
X33797Y-55200D02*
X33403Y-55200D01*
X33600Y-58003D02*
X33600Y-58397D01*
X33797Y-58200D02*
X33403Y-58200D01*
X39499Y-53303D02*
X39499Y-53697D01*
X39696Y-53500D02*
X39302Y-53500D01*
X39499Y-55303D02*
X39499Y-55697D01*
X39696Y-55500D02*
X39302Y-55500D01*
X39500Y-57803D02*
X39500Y-58197D01*
X39697Y-58000D02*
X39303Y-58000D01*
X39500Y-59803D02*
X39500Y-60197D01*
X39697Y-60000D02*
X39303Y-60000D01*
X44000Y-53303D02*
X44000Y-53697D01*
X44197Y-53500D02*
X43803Y-53500D01*
X44000Y-55303D02*
X44000Y-55697D01*
X44197Y-55500D02*
X43803Y-55500D01*
X44000Y-57803D02*
X44000Y-58197D01*
X44197Y-58000D02*
X43803Y-58000D01*
X44000Y-59803D02*
X44000Y-60197D01*
X44197Y-60000D02*
X43803Y-60000D01*
X48500Y-53303D02*
X48500Y-53697D01*
X48697Y-53500D02*
X48303Y-53500D01*
X48500Y-55303D02*
X48500Y-55697D01*
X48697Y-55500D02*
X48303Y-55500D01*
X48500Y-57803D02*
X48500Y-58197D01*
X48697Y-58000D02*
X48303Y-58000D01*
X48500Y-59803D02*
X48500Y-60197D01*
X48697Y-60000D02*
X48303Y-60000D01*
X53000Y-53303D02*
X53000Y-53697D01*
X53197Y-53500D02*
X52803Y-53500D01*
X53000Y-55303D02*
X53000Y-55697D01*
X53197Y-55500D02*
X52803Y-55500D01*
X53000Y-57803D02*
X53000Y-58197D01*
X53197Y-58000D02*
X52803Y-58000D01*
X53000Y-59803D02*
X53000Y-60197D01*
X53197Y-60000D02*
X52803Y-60000D01*
X57500Y-53303D02*
X57500Y-53697D01*
X57697Y-53500D02*
X57303Y-53500D01*
X57500Y-55303D02*
X57500Y-55697D01*
X57697Y-55500D02*
X57303Y-55500D01*
X57500Y-57803D02*
X57500Y-58197D01*
X57697Y-58000D02*
X57303Y-58000D01*
X57500Y-59803D02*
X57500Y-60197D01*
X57697Y-60000D02*
X57303Y-60000D01*
X62000Y-53303D02*
X62000Y-53697D01*
X62197Y-53500D02*
X61803Y-53500D01*
X62000Y-55303D02*
X62000Y-55697D01*
X62197Y-55500D02*
X61803Y-55500D01*
X62000Y-57803D02*
X62000Y-58197D01*
X62197Y-58000D02*
X61803Y-58000D01*
X62000Y-59803D02*
X62000Y-60197D01*
X62197Y-60000D02*
X61803Y-60000D01*
X66500Y-53303D02*
X66500Y-53697D01*
X66697Y-53500D02*
X66303Y-53500D01*
X66500Y-55303D02*
X66500Y-55697D01*
X66697Y-55500D02*
X66303Y-55500D01*
X66500Y-57803D02*
X66500Y-58197D01*
X66697Y-58000D02*
X66303Y-58000D01*
X66500Y-59803D02*
X66500Y-60197D01*
X66697Y-60000D02*
X66303Y-60000D01*
X71000Y-53303D02*
X71000Y-53697D01*
X71197Y-53500D02*
X70803Y-53500D01*
X71000Y-55303D02*
X71000Y-55697D01*
X71197Y-55500D02*
X70803Y-55500D01*
X71000Y-57803D02*
X71000Y-58197D01*
X71197Y-58000D02*
X70803Y-58000D01*
X71000Y-59803D02*
X71000Y-60197D01*
X71197Y-60000D02*
X70803Y-60000D01*
X93000Y-53303D02*
X93000Y-53697D01*
X93197Y-53500D02*
X92803Y-53500D01*
X93000Y-55303D02*
X93000Y-55697D01*
X93197Y-55500D02*
X92803Y-55500D01*
X93000Y-57803D02*
X93000Y-58197D01*
X93197Y-58000D02*
X92803Y-58000D01*
X93000Y-59803D02*
X93000Y-60197D01*
X93197Y-60000D02*
X92803Y-60000D01*
X97500Y-53303D02*
X97500Y-53697D01*
X97697Y-53500D02*
X97303Y-53500D01*
X97500Y-55303D02*
X97500Y-55697D01*
X97697Y-55500D02*
X97303Y-55500D01*
X97500Y-57803D02*
X97500Y-58197D01*
X97697Y-58000D02*
X97303Y-58000D01*
X97500Y-59803D02*
X97500Y-60197D01*
X97697Y-60000D02*
X97303Y-60000D01*
X102000Y-53303D02*
X102000Y-53697D01*
X102197Y-53500D02*
X101803Y-53500D01*
X102000Y-55303D02*
X102000Y-55697D01*
X102197Y-55500D02*
X101803Y-55500D01*
X102000Y-57803D02*
X102000Y-58197D01*
X102197Y-58000D02*
X101803Y-58000D01*
X102000Y-59803D02*
X102000Y-60197D01*
X102197Y-60000D02*
X101803Y-60000D01*
X106500Y-53303D02*
X106500Y-53697D01*
X106697Y-53500D02*
X106303Y-53500D01*
X106500Y-55303D02*
X106500Y-55697D01*
X106697Y-55500D02*
X106303Y-55500D01*
X106500Y-57803D02*
X106500Y-58197D01*
X106697Y-58000D02*
X106303Y-58000D01*
X106500Y-59803D02*
X106500Y-60197D01*
X106697Y-60000D02*
X106303Y-60000D01*
X111000Y-53303D02*
X111000Y-53697D01*
X111197Y-53500D02*
X110803Y-53500D01*
X111000Y-55303D02*
X111000Y-55697D01*
X111197Y-55500D02*
X110803Y-55500D01*
X111000Y-57703D02*
X111000Y-58097D01*
X111197Y-57900D02*
X110803Y-57900D01*
X111000Y-59703D02*
X111000Y-60097D01*
X111197Y-59900D02*
X110803Y-59900D01*
X115600Y-53303D02*
X115600Y-53697D01*
X115797Y-53500D02*
X115403Y-53500D01*
X115600Y-55303D02*
X115600Y-55697D01*
X115797Y-55500D02*
X115403Y-55500D01*
X115600Y-57803D02*
X115600Y-58197D01*
X115797Y-58000D02*
X115403Y-58000D01*
X115600Y-59803D02*
X115600Y-60197D01*
X115797Y-60000D02*
X115403Y-60000D01*
X120000Y-53303D02*
X120000Y-53697D01*
X120197Y-53500D02*
X119803Y-53500D01*
X120000Y-55303D02*
X120000Y-55697D01*
X120197Y-55500D02*
X119803Y-55500D01*
X120000Y-57803D02*
X120000Y-58197D01*
X120197Y-58000D02*
X119803Y-58000D01*
X120000Y-59803D02*
X120000Y-60197D01*
X120197Y-60000D02*
X119803Y-60000D01*
X124500Y-53303D02*
X124500Y-53697D01*
X124697Y-53500D02*
X124303Y-53500D01*
X124500Y-55303D02*
X124500Y-55697D01*
X124697Y-55500D02*
X124303Y-55500D01*
X124500Y-57803D02*
X124500Y-58197D01*
X124697Y-58000D02*
X124303Y-58000D01*
X124500Y-59803D02*
X124500Y-60197D01*
X124697Y-60000D02*
X124303Y-60000D01*
X130500Y-55003D02*
X130500Y-55397D01*
X130697Y-55200D02*
X130303Y-55200D01*
X130500Y-58003D02*
X130500Y-58397D01*
X130697Y-58200D02*
X130303Y-58200D01*
X74900Y-59900D02*
X74896Y-59938D01*
X74884Y-59976D01*
X74866Y-60010D01*
X74841Y-60040D01*
X74811Y-60065D01*
X74777Y-60084D01*
X74740Y-60095D01*
X74701Y-60099D01*
X74663Y-60096D01*
X74626Y-60085D01*
X74591Y-60067D01*
X74561Y-60042D01*
X74535Y-60012D01*
X74517Y-59978D01*
X74505Y-59941D01*
X74501Y-59902D01*
X74504Y-59864D01*
X74515Y-59827D01*
X74532Y-59792D01*
X74557Y-59762D01*
X74586Y-59736D01*
X74620Y-59717D01*
X74658Y-59705D01*
X74696Y-59701D01*
X74734Y-59704D01*
X74772Y-59714D01*
X74807Y-59732D01*
X74837Y-59756D01*
X74863Y-59785D01*
X74882Y-59819D01*
X74895Y-59856D01*
X74899Y-59895D01*
X74900Y-59900D01*
X74500Y-59700D02*
X74900Y-60100D01*
X74900Y-59700D02*
X74500Y-60100D01*
X74900Y-60900D02*
X74896Y-60938D01*
X74884Y-60976D01*
X74866Y-61010D01*
X74841Y-61040D01*
X74811Y-61065D01*
X74777Y-61084D01*
X74740Y-61095D01*
X74701Y-61099D01*
X74663Y-61096D01*
X74626Y-61085D01*
X74591Y-61067D01*
X74561Y-61042D01*
X74535Y-61012D01*
X74517Y-60978D01*
X74505Y-60941D01*
X74501Y-60902D01*
X74504Y-60864D01*
X74515Y-60827D01*
X74532Y-60792D01*
X74557Y-60762D01*
X74586Y-60736D01*
X74620Y-60717D01*
X74658Y-60705D01*
X74696Y-60701D01*
X74734Y-60704D01*
X74772Y-60714D01*
X74807Y-60732D01*
X74837Y-60756D01*
X74863Y-60785D01*
X74882Y-60819D01*
X74895Y-60856D01*
X74899Y-60895D01*
X74900Y-60900D01*
X74500Y-60700D02*
X74900Y-61100D01*
X74900Y-60700D02*
X74500Y-61100D01*
X75500Y-51575D02*
X75496Y-51613D01*
X75484Y-51651D01*
X75466Y-51685D01*
X75441Y-51715D01*
X75411Y-51740D01*
X75377Y-51759D01*
X75340Y-51770D01*
X75301Y-51774D01*
X75263Y-51771D01*
X75226Y-51760D01*
X75191Y-51742D01*
X75161Y-51717D01*
X75135Y-51687D01*
X75117Y-51653D01*
X75105Y-51616D01*
X75101Y-51577D01*
X75104Y-51539D01*
X75115Y-51502D01*
X75132Y-51467D01*
X75157Y-51437D01*
X75186Y-51411D01*
X75220Y-51392D01*
X75258Y-51380D01*
X75296Y-51376D01*
X75334Y-51379D01*
X75372Y-51389D01*
X75407Y-51407D01*
X75437Y-51431D01*
X75463Y-51460D01*
X75482Y-51494D01*
X75495Y-51531D01*
X75499Y-51570D01*
X75500Y-51575D01*
X75100Y-51375D02*
X75500Y-51775D01*
X75500Y-51375D02*
X75100Y-51775D01*
X75500Y-53325D02*
X75496Y-53363D01*
X75484Y-53401D01*
X75466Y-53435D01*
X75441Y-53465D01*
X75411Y-53490D01*
X75377Y-53509D01*
X75340Y-53520D01*
X75301Y-53524D01*
X75263Y-53521D01*
X75226Y-53510D01*
X75191Y-53492D01*
X75161Y-53467D01*
X75135Y-53437D01*
X75117Y-53403D01*
X75105Y-53366D01*
X75101Y-53327D01*
X75104Y-53289D01*
X75115Y-53252D01*
X75132Y-53217D01*
X75157Y-53187D01*
X75186Y-53161D01*
X75220Y-53142D01*
X75258Y-53130D01*
X75296Y-53126D01*
X75334Y-53129D01*
X75372Y-53139D01*
X75407Y-53157D01*
X75437Y-53181D01*
X75463Y-53210D01*
X75482Y-53244D01*
X75495Y-53281D01*
X75499Y-53320D01*
X75500Y-53325D01*
X75100Y-53125D02*
X75500Y-53525D01*
X75500Y-53125D02*
X75100Y-53525D01*
X75900Y-59900D02*
X75896Y-59938D01*
X75884Y-59976D01*
X75866Y-60010D01*
X75841Y-60040D01*
X75811Y-60065D01*
X75777Y-60084D01*
X75740Y-60095D01*
X75701Y-60099D01*
X75663Y-60096D01*
X75626Y-60085D01*
X75591Y-60067D01*
X75561Y-60042D01*
X75535Y-60012D01*
X75517Y-59978D01*
X75505Y-59941D01*
X75501Y-59902D01*
X75504Y-59864D01*
X75515Y-59827D01*
X75532Y-59792D01*
X75557Y-59762D01*
X75586Y-59736D01*
X75620Y-59717D01*
X75658Y-59705D01*
X75696Y-59701D01*
X75734Y-59704D01*
X75772Y-59714D01*
X75807Y-59732D01*
X75837Y-59756D01*
X75863Y-59785D01*
X75882Y-59819D01*
X75895Y-59856D01*
X75899Y-59895D01*
X75900Y-59900D01*
X75500Y-59700D02*
X75900Y-60100D01*
X75900Y-59700D02*
X75500Y-60100D01*
X75900Y-60900D02*
X75896Y-60938D01*
X75884Y-60976D01*
X75866Y-61010D01*
X75841Y-61040D01*
X75811Y-61065D01*
X75777Y-61084D01*
X75740Y-61095D01*
X75701Y-61099D01*
X75663Y-61096D01*
X75626Y-61085D01*
X75591Y-61067D01*
X75561Y-61042D01*
X75535Y-61012D01*
X75517Y-60978D01*
X75505Y-60941D01*
X75501Y-60902D01*
X75504Y-60864D01*
X75515Y-60827D01*
X75532Y-60792D01*
X75557Y-60762D01*
X75586Y-60736D01*
X75620Y-60717D01*
X75658Y-60705D01*
X75696Y-60701D01*
X75734Y-60704D01*
X75772Y-60714D01*
X75807Y-60732D01*
X75837Y-60756D01*
X75863Y-60785D01*
X75882Y-60819D01*
X75895Y-60856D01*
X75899Y-60895D01*
X75900Y-60900D01*
X75500Y-60700D02*
X75900Y-61100D01*
X75900Y-60700D02*
X75500Y-61100D01*
X76900Y-59900D02*
X76896Y-59938D01*
X76884Y-59976D01*
X76866Y-60010D01*
X76841Y-60040D01*
X76811Y-60065D01*
X76777Y-60084D01*
X76740Y-60095D01*
X76701Y-60099D01*
X76663Y-60096D01*
X76626Y-60085D01*
X76591Y-60067D01*
X76561Y-60042D01*
X76535Y-60012D01*
X76517Y-59978D01*
X76505Y-59941D01*
X76501Y-59902D01*
X76504Y-59864D01*
X76515Y-59827D01*
X76532Y-59792D01*
X76557Y-59762D01*
X76586Y-59736D01*
X76620Y-59717D01*
X76658Y-59705D01*
X76696Y-59701D01*
X76734Y-59704D01*
X76772Y-59714D01*
X76807Y-59732D01*
X76837Y-59756D01*
X76863Y-59785D01*
X76882Y-59819D01*
X76895Y-59856D01*
X76899Y-59895D01*
X76900Y-59900D01*
X76500Y-59700D02*
X76900Y-60100D01*
X76900Y-59700D02*
X76500Y-60100D01*
X76900Y-60900D02*
X76896Y-60938D01*
X76884Y-60976D01*
X76866Y-61010D01*
X76841Y-61040D01*
X76811Y-61065D01*
X76777Y-61084D01*
X76740Y-61095D01*
X76701Y-61099D01*
X76663Y-61096D01*
X76626Y-61085D01*
X76591Y-61067D01*
X76561Y-61042D01*
X76535Y-61012D01*
X76517Y-60978D01*
X76505Y-60941D01*
X76501Y-60902D01*
X76504Y-60864D01*
X76515Y-60827D01*
X76532Y-60792D01*
X76557Y-60762D01*
X76586Y-60736D01*
X76620Y-60717D01*
X76658Y-60705D01*
X76696Y-60701D01*
X76734Y-60704D01*
X76772Y-60714D01*
X76807Y-60732D01*
X76837Y-60756D01*
X76863Y-60785D01*
X76882Y-60819D01*
X76895Y-60856D01*
X76899Y-60895D01*
X76900Y-60900D01*
X76500Y-60700D02*
X76900Y-61100D01*
X76900Y-60700D02*
X76500Y-61100D01*
X78050Y-51575D02*
X78046Y-51613D01*
X78034Y-51651D01*
X78016Y-51685D01*
X77991Y-51715D01*
X77961Y-51740D01*
X77927Y-51759D01*
X77890Y-51770D01*
X77851Y-51774D01*
X77813Y-51771D01*
X77776Y-51760D01*
X77741Y-51742D01*
X77711Y-51717D01*
X77685Y-51687D01*
X77667Y-51653D01*
X77655Y-51616D01*
X77651Y-51577D01*
X77654Y-51539D01*
X77665Y-51502D01*
X77682Y-51467D01*
X77707Y-51437D01*
X77736Y-51411D01*
X77770Y-51392D01*
X77808Y-51380D01*
X77846Y-51376D01*
X77884Y-51379D01*
X77922Y-51389D01*
X77957Y-51407D01*
X77987Y-51431D01*
X78013Y-51460D01*
X78032Y-51494D01*
X78045Y-51531D01*
X78049Y-51570D01*
X78050Y-51575D01*
X77650Y-51375D02*
X78050Y-51775D01*
X78050Y-51375D02*
X77650Y-51775D01*
X78050Y-53325D02*
X78046Y-53363D01*
X78034Y-53401D01*
X78016Y-53435D01*
X77991Y-53465D01*
X77961Y-53490D01*
X77927Y-53509D01*
X77890Y-53520D01*
X77851Y-53524D01*
X77813Y-53521D01*
X77776Y-53510D01*
X77741Y-53492D01*
X77711Y-53467D01*
X77685Y-53437D01*
X77667Y-53403D01*
X77655Y-53366D01*
X77651Y-53327D01*
X77654Y-53289D01*
X77665Y-53252D01*
X77682Y-53217D01*
X77707Y-53187D01*
X77736Y-53161D01*
X77770Y-53142D01*
X77808Y-53130D01*
X77846Y-53126D01*
X77884Y-53129D01*
X77922Y-53139D01*
X77957Y-53157D01*
X77987Y-53181D01*
X78013Y-53210D01*
X78032Y-53244D01*
X78045Y-53281D01*
X78049Y-53320D01*
X78050Y-53325D01*
X77650Y-53125D02*
X78050Y-53525D01*
X78050Y-53125D02*
X77650Y-53525D01*
X80900Y-51575D02*
X80896Y-51613D01*
X80884Y-51651D01*
X80866Y-51685D01*
X80841Y-51715D01*
X80811Y-51740D01*
X80777Y-51759D01*
X80740Y-51770D01*
X80701Y-51774D01*
X80663Y-51771D01*
X80626Y-51760D01*
X80591Y-51742D01*
X80561Y-51717D01*
X80535Y-51687D01*
X80517Y-51653D01*
X80505Y-51616D01*
X80501Y-51577D01*
X80504Y-51539D01*
X80515Y-51502D01*
X80532Y-51467D01*
X80557Y-51437D01*
X80586Y-51411D01*
X80620Y-51392D01*
X80658Y-51380D01*
X80696Y-51376D01*
X80734Y-51379D01*
X80772Y-51389D01*
X80807Y-51407D01*
X80837Y-51431D01*
X80863Y-51460D01*
X80882Y-51494D01*
X80895Y-51531D01*
X80899Y-51570D01*
X80900Y-51575D01*
X80500Y-51375D02*
X80900Y-51775D01*
X80900Y-51375D02*
X80500Y-51775D01*
X80900Y-53325D02*
X80896Y-53363D01*
X80884Y-53401D01*
X80866Y-53435D01*
X80841Y-53465D01*
X80811Y-53490D01*
X80777Y-53509D01*
X80740Y-53520D01*
X80701Y-53524D01*
X80663Y-53521D01*
X80626Y-53510D01*
X80591Y-53492D01*
X80561Y-53467D01*
X80535Y-53437D01*
X80517Y-53403D01*
X80505Y-53366D01*
X80501Y-53327D01*
X80504Y-53289D01*
X80515Y-53252D01*
X80532Y-53217D01*
X80557Y-53187D01*
X80586Y-53161D01*
X80620Y-53142D01*
X80658Y-53130D01*
X80696Y-53126D01*
X80734Y-53129D01*
X80772Y-53139D01*
X80807Y-53157D01*
X80837Y-53181D01*
X80863Y-53210D01*
X80882Y-53244D01*
X80895Y-53281D01*
X80899Y-53320D01*
X80900Y-53325D01*
X80500Y-53125D02*
X80900Y-53525D01*
X80900Y-53125D02*
X80500Y-53525D01*
X83450Y-51575D02*
X83446Y-51613D01*
X83434Y-51651D01*
X83416Y-51685D01*
X83391Y-51715D01*
X83361Y-51740D01*
X83327Y-51759D01*
X83290Y-51770D01*
X83251Y-51774D01*
X83213Y-51771D01*
X83176Y-51760D01*
X83141Y-51742D01*
X83111Y-51717D01*
X83085Y-51687D01*
X83067Y-51653D01*
X83055Y-51616D01*
X83051Y-51577D01*
X83054Y-51539D01*
X83065Y-51502D01*
X83082Y-51467D01*
X83107Y-51437D01*
X83136Y-51411D01*
X83170Y-51392D01*
X83208Y-51380D01*
X83246Y-51376D01*
X83284Y-51379D01*
X83322Y-51389D01*
X83357Y-51407D01*
X83387Y-51431D01*
X83413Y-51460D01*
X83432Y-51494D01*
X83445Y-51531D01*
X83449Y-51570D01*
X83450Y-51575D01*
X83050Y-51375D02*
X83450Y-51775D01*
X83450Y-51375D02*
X83050Y-51775D01*
X83450Y-53325D02*
X83446Y-53363D01*
X83434Y-53401D01*
X83416Y-53435D01*
X83391Y-53465D01*
X83361Y-53490D01*
X83327Y-53509D01*
X83290Y-53520D01*
X83251Y-53524D01*
X83213Y-53521D01*
X83176Y-53510D01*
X83141Y-53492D01*
X83111Y-53467D01*
X83085Y-53437D01*
X83067Y-53403D01*
X83055Y-53366D01*
X83051Y-53327D01*
X83054Y-53289D01*
X83065Y-53252D01*
X83082Y-53217D01*
X83107Y-53187D01*
X83136Y-53161D01*
X83170Y-53142D01*
X83208Y-53130D01*
X83246Y-53126D01*
X83284Y-53129D01*
X83322Y-53139D01*
X83357Y-53157D01*
X83387Y-53181D01*
X83413Y-53210D01*
X83432Y-53244D01*
X83445Y-53281D01*
X83449Y-53320D01*
X83450Y-53325D01*
X83050Y-53125D02*
X83450Y-53525D01*
X83450Y-53125D02*
X83050Y-53525D01*
X85000Y-55200D02*
X84996Y-55238D01*
X84984Y-55276D01*
X84966Y-55310D01*
X84941Y-55340D01*
X84911Y-55365D01*
X84877Y-55384D01*
X84840Y-55395D01*
X84801Y-55399D01*
X84763Y-55396D01*
X84726Y-55385D01*
X84691Y-55367D01*
X84661Y-55342D01*
X84635Y-55312D01*
X84617Y-55278D01*
X84605Y-55241D01*
X84601Y-55202D01*
X84604Y-55164D01*
X84615Y-55127D01*
X84632Y-55092D01*
X84657Y-55062D01*
X84686Y-55036D01*
X84720Y-55017D01*
X84758Y-55005D01*
X84796Y-55001D01*
X84834Y-55004D01*
X84872Y-55014D01*
X84907Y-55032D01*
X84937Y-55056D01*
X84963Y-55085D01*
X84982Y-55119D01*
X84995Y-55156D01*
X84999Y-55195D01*
X85000Y-55200D01*
X84600Y-55000D02*
X85000Y-55400D01*
X85000Y-55000D02*
X84600Y-55400D01*
X85000Y-56200D02*
X84996Y-56238D01*
X84984Y-56276D01*
X84966Y-56310D01*
X84941Y-56340D01*
X84911Y-56365D01*
X84877Y-56384D01*
X84840Y-56395D01*
X84801Y-56399D01*
X84763Y-56396D01*
X84726Y-56385D01*
X84691Y-56367D01*
X84661Y-56342D01*
X84635Y-56312D01*
X84617Y-56278D01*
X84605Y-56241D01*
X84601Y-56202D01*
X84604Y-56164D01*
X84615Y-56127D01*
X84632Y-56092D01*
X84657Y-56062D01*
X84686Y-56036D01*
X84720Y-56017D01*
X84758Y-56005D01*
X84796Y-56001D01*
X84834Y-56004D01*
X84872Y-56014D01*
X84907Y-56032D01*
X84937Y-56056D01*
X84963Y-56085D01*
X84982Y-56119D01*
X84995Y-56156D01*
X84999Y-56195D01*
X85000Y-56200D01*
X84600Y-56000D02*
X85000Y-56400D01*
X85000Y-56000D02*
X84600Y-56400D01*
X85000Y-57200D02*
X84996Y-57238D01*
X84984Y-57276D01*
X84966Y-57310D01*
X84941Y-57340D01*
X84911Y-57365D01*
X84877Y-57384D01*
X84840Y-57395D01*
X84801Y-57399D01*
X84763Y-57396D01*
X84726Y-57385D01*
X84691Y-57367D01*
X84661Y-57342D01*
X84635Y-57312D01*
X84617Y-57278D01*
X84605Y-57241D01*
X84601Y-57202D01*
X84604Y-57164D01*
X84615Y-57127D01*
X84632Y-57092D01*
X84657Y-57062D01*
X84686Y-57036D01*
X84720Y-57017D01*
X84758Y-57005D01*
X84796Y-57001D01*
X84834Y-57004D01*
X84872Y-57014D01*
X84907Y-57032D01*
X84937Y-57056D01*
X84963Y-57085D01*
X84982Y-57119D01*
X84995Y-57156D01*
X84999Y-57195D01*
X85000Y-57200D01*
X84600Y-57000D02*
X85000Y-57400D01*
X85000Y-57000D02*
X84600Y-57400D01*
X86000Y-55200D02*
X85996Y-55238D01*
X85984Y-55276D01*
X85966Y-55310D01*
X85941Y-55340D01*
X85911Y-55365D01*
X85877Y-55384D01*
X85840Y-55395D01*
X85801Y-55399D01*
X85763Y-55396D01*
X85726Y-55385D01*
X85691Y-55367D01*
X85661Y-55342D01*
X85635Y-55312D01*
X85617Y-55278D01*
X85605Y-55241D01*
X85601Y-55202D01*
X85604Y-55164D01*
X85615Y-55127D01*
X85632Y-55092D01*
X85657Y-55062D01*
X85686Y-55036D01*
X85720Y-55017D01*
X85758Y-55005D01*
X85796Y-55001D01*
X85834Y-55004D01*
X85872Y-55014D01*
X85907Y-55032D01*
X85937Y-55056D01*
X85963Y-55085D01*
X85982Y-55119D01*
X85995Y-55156D01*
X85999Y-55195D01*
X86000Y-55200D01*
X85600Y-55000D02*
X86000Y-55400D01*
X86000Y-55000D02*
X85600Y-55400D01*
X86000Y-56200D02*
X85996Y-56238D01*
X85984Y-56276D01*
X85966Y-56310D01*
X85941Y-56340D01*
X85911Y-56365D01*
X85877Y-56384D01*
X85840Y-56395D01*
X85801Y-56399D01*
X85763Y-56396D01*
X85726Y-56385D01*
X85691Y-56367D01*
X85661Y-56342D01*
X85635Y-56312D01*
X85617Y-56278D01*
X85605Y-56241D01*
X85601Y-56202D01*
X85604Y-56164D01*
X85615Y-56127D01*
X85632Y-56092D01*
X85657Y-56062D01*
X85686Y-56036D01*
X85720Y-56017D01*
X85758Y-56005D01*
X85796Y-56001D01*
X85834Y-56004D01*
X85872Y-56014D01*
X85907Y-56032D01*
X85937Y-56056D01*
X85963Y-56085D01*
X85982Y-56119D01*
X85995Y-56156D01*
X85999Y-56195D01*
X86000Y-56200D01*
X85600Y-56000D02*
X86000Y-56400D01*
X86000Y-56000D02*
X85600Y-56400D01*
X86000Y-57200D02*
X85996Y-57238D01*
X85984Y-57276D01*
X85966Y-57310D01*
X85941Y-57340D01*
X85911Y-57365D01*
X85877Y-57384D01*
X85840Y-57395D01*
X85801Y-57399D01*
X85763Y-57396D01*
X85726Y-57385D01*
X85691Y-57367D01*
X85661Y-57342D01*
X85635Y-57312D01*
X85617Y-57278D01*
X85605Y-57241D01*
X85601Y-57202D01*
X85604Y-57164D01*
X85615Y-57127D01*
X85632Y-57092D01*
X85657Y-57062D01*
X85686Y-57036D01*
X85720Y-57017D01*
X85758Y-57005D01*
X85796Y-57001D01*
X85834Y-57004D01*
X85872Y-57014D01*
X85907Y-57032D01*
X85937Y-57056D01*
X85963Y-57085D01*
X85982Y-57119D01*
X85995Y-57156D01*
X85999Y-57195D01*
X86000Y-57200D01*
X85600Y-57000D02*
X86000Y-57400D01*
X86000Y-57000D02*
X85600Y-57400D01*
X86300Y-51575D02*
X86296Y-51613D01*
X86284Y-51651D01*
X86266Y-51685D01*
X86241Y-51715D01*
X86211Y-51740D01*
X86177Y-51759D01*
X86140Y-51770D01*
X86101Y-51774D01*
X86063Y-51771D01*
X86026Y-51760D01*
X85991Y-51742D01*
X85961Y-51717D01*
X85935Y-51687D01*
X85917Y-51653D01*
X85905Y-51616D01*
X85901Y-51577D01*
X85904Y-51539D01*
X85915Y-51502D01*
X85932Y-51467D01*
X85957Y-51437D01*
X85986Y-51411D01*
X86020Y-51392D01*
X86058Y-51380D01*
X86096Y-51376D01*
X86134Y-51379D01*
X86172Y-51389D01*
X86207Y-51407D01*
X86237Y-51431D01*
X86263Y-51460D01*
X86282Y-51494D01*
X86295Y-51531D01*
X86299Y-51570D01*
X86300Y-51575D01*
X85900Y-51375D02*
X86300Y-51775D01*
X86300Y-51375D02*
X85900Y-51775D01*
X86300Y-53325D02*
X86296Y-53363D01*
X86284Y-53401D01*
X86266Y-53435D01*
X86241Y-53465D01*
X86211Y-53490D01*
X86177Y-53509D01*
X86140Y-53520D01*
X86101Y-53524D01*
X86063Y-53521D01*
X86026Y-53510D01*
X85991Y-53492D01*
X85961Y-53467D01*
X85935Y-53437D01*
X85917Y-53403D01*
X85905Y-53366D01*
X85901Y-53327D01*
X85904Y-53289D01*
X85915Y-53252D01*
X85932Y-53217D01*
X85957Y-53187D01*
X85986Y-53161D01*
X86020Y-53142D01*
X86058Y-53130D01*
X86096Y-53126D01*
X86134Y-53129D01*
X86172Y-53139D01*
X86207Y-53157D01*
X86237Y-53181D01*
X86263Y-53210D01*
X86282Y-53244D01*
X86295Y-53281D01*
X86299Y-53320D01*
X86300Y-53325D01*
X85900Y-53125D02*
X86300Y-53525D01*
X86300Y-53125D02*
X85900Y-53525D01*
X87000Y-55200D02*
X86996Y-55238D01*
X86984Y-55276D01*
X86966Y-55310D01*
X86941Y-55340D01*
X86911Y-55365D01*
X86877Y-55384D01*
X86840Y-55395D01*
X86801Y-55399D01*
X86763Y-55396D01*
X86726Y-55385D01*
X86691Y-55367D01*
X86661Y-55342D01*
X86635Y-55312D01*
X86617Y-55278D01*
X86605Y-55241D01*
X86601Y-55202D01*
X86604Y-55164D01*
X86615Y-55127D01*
X86632Y-55092D01*
X86657Y-55062D01*
X86686Y-55036D01*
X86720Y-55017D01*
X86758Y-55005D01*
X86796Y-55001D01*
X86834Y-55004D01*
X86872Y-55014D01*
X86907Y-55032D01*
X86937Y-55056D01*
X86963Y-55085D01*
X86982Y-55119D01*
X86995Y-55156D01*
X86999Y-55195D01*
X87000Y-55200D01*
X86600Y-55000D02*
X87000Y-55400D01*
X87000Y-55000D02*
X86600Y-55400D01*
X87000Y-56200D02*
X86996Y-56238D01*
X86984Y-56276D01*
X86966Y-56310D01*
X86941Y-56340D01*
X86911Y-56365D01*
X86877Y-56384D01*
X86840Y-56395D01*
X86801Y-56399D01*
X86763Y-56396D01*
X86726Y-56385D01*
X86691Y-56367D01*
X86661Y-56342D01*
X86635Y-56312D01*
X86617Y-56278D01*
X86605Y-56241D01*
X86601Y-56202D01*
X86604Y-56164D01*
X86615Y-56127D01*
X86632Y-56092D01*
X86657Y-56062D01*
X86686Y-56036D01*
X86720Y-56017D01*
X86758Y-56005D01*
X86796Y-56001D01*
X86834Y-56004D01*
X86872Y-56014D01*
X86907Y-56032D01*
X86937Y-56056D01*
X86963Y-56085D01*
X86982Y-56119D01*
X86995Y-56156D01*
X86999Y-56195D01*
X87000Y-56200D01*
X86600Y-56000D02*
X87000Y-56400D01*
X87000Y-56000D02*
X86600Y-56400D01*
X87000Y-57200D02*
X86996Y-57238D01*
X86984Y-57276D01*
X86966Y-57310D01*
X86941Y-57340D01*
X86911Y-57365D01*
X86877Y-57384D01*
X86840Y-57395D01*
X86801Y-57399D01*
X86763Y-57396D01*
X86726Y-57385D01*
X86691Y-57367D01*
X86661Y-57342D01*
X86635Y-57312D01*
X86617Y-57278D01*
X86605Y-57241D01*
X86601Y-57202D01*
X86604Y-57164D01*
X86615Y-57127D01*
X86632Y-57092D01*
X86657Y-57062D01*
X86686Y-57036D01*
X86720Y-57017D01*
X86758Y-57005D01*
X86796Y-57001D01*
X86834Y-57004D01*
X86872Y-57014D01*
X86907Y-57032D01*
X86937Y-57056D01*
X86963Y-57085D01*
X86982Y-57119D01*
X86995Y-57156D01*
X86999Y-57195D01*
X87000Y-57200D01*
X86600Y-57000D02*
X87000Y-57400D01*
X87000Y-57000D02*
X86600Y-57400D01*
X88000Y-55200D02*
X87996Y-55238D01*
X87984Y-55276D01*
X87966Y-55310D01*
X87941Y-55340D01*
X87911Y-55365D01*
X87877Y-55384D01*
X87840Y-55395D01*
X87801Y-55399D01*
X87763Y-55396D01*
X87726Y-55385D01*
X87691Y-55367D01*
X87661Y-55342D01*
X87635Y-55312D01*
X87617Y-55278D01*
X87605Y-55241D01*
X87601Y-55202D01*
X87604Y-55164D01*
X87615Y-55127D01*
X87632Y-55092D01*
X87657Y-55062D01*
X87686Y-55036D01*
X87720Y-55017D01*
X87758Y-55005D01*
X87796Y-55001D01*
X87834Y-55004D01*
X87872Y-55014D01*
X87907Y-55032D01*
X87937Y-55056D01*
X87963Y-55085D01*
X87982Y-55119D01*
X87995Y-55156D01*
X87999Y-55195D01*
X88000Y-55200D01*
X87600Y-55000D02*
X88000Y-55400D01*
X88000Y-55000D02*
X87600Y-55400D01*
X88000Y-56200D02*
X87996Y-56238D01*
X87984Y-56276D01*
X87966Y-56310D01*
X87941Y-56340D01*
X87911Y-56365D01*
X87877Y-56384D01*
X87840Y-56395D01*
X87801Y-56399D01*
X87763Y-56396D01*
X87726Y-56385D01*
X87691Y-56367D01*
X87661Y-56342D01*
X87635Y-56312D01*
X87617Y-56278D01*
X87605Y-56241D01*
X87601Y-56202D01*
X87604Y-56164D01*
X87615Y-56127D01*
X87632Y-56092D01*
X87657Y-56062D01*
X87686Y-56036D01*
X87720Y-56017D01*
X87758Y-56005D01*
X87796Y-56001D01*
X87834Y-56004D01*
X87872Y-56014D01*
X87907Y-56032D01*
X87937Y-56056D01*
X87963Y-56085D01*
X87982Y-56119D01*
X87995Y-56156D01*
X87999Y-56195D01*
X88000Y-56200D01*
X87600Y-56000D02*
X88000Y-56400D01*
X88000Y-56000D02*
X87600Y-56400D01*
X88000Y-57200D02*
X87996Y-57238D01*
X87984Y-57276D01*
X87966Y-57310D01*
X87941Y-57340D01*
X87911Y-57365D01*
X87877Y-57384D01*
X87840Y-57395D01*
X87801Y-57399D01*
X87763Y-57396D01*
X87726Y-57385D01*
X87691Y-57367D01*
X87661Y-57342D01*
X87635Y-57312D01*
X87617Y-57278D01*
X87605Y-57241D01*
X87601Y-57202D01*
X87604Y-57164D01*
X87615Y-57127D01*
X87632Y-57092D01*
X87657Y-57062D01*
X87686Y-57036D01*
X87720Y-57017D01*
X87758Y-57005D01*
X87796Y-57001D01*
X87834Y-57004D01*
X87872Y-57014D01*
X87907Y-57032D01*
X87937Y-57056D01*
X87963Y-57085D01*
X87982Y-57119D01*
X87995Y-57156D01*
X87999Y-57195D01*
X88000Y-57200D01*
X87600Y-57000D02*
X88000Y-57400D01*
X88000Y-57000D02*
X87600Y-57400D01*
X88850Y-51575D02*
X88846Y-51613D01*
X88834Y-51651D01*
X88816Y-51685D01*
X88791Y-51715D01*
X88761Y-51740D01*
X88727Y-51759D01*
X88690Y-51770D01*
X88651Y-51774D01*
X88613Y-51771D01*
X88576Y-51760D01*
X88541Y-51742D01*
X88511Y-51717D01*
X88485Y-51687D01*
X88467Y-51653D01*
X88455Y-51616D01*
X88451Y-51577D01*
X88454Y-51539D01*
X88465Y-51502D01*
X88482Y-51467D01*
X88507Y-51437D01*
X88536Y-51411D01*
X88570Y-51392D01*
X88608Y-51380D01*
X88646Y-51376D01*
X88684Y-51379D01*
X88722Y-51389D01*
X88757Y-51407D01*
X88787Y-51431D01*
X88813Y-51460D01*
X88832Y-51494D01*
X88845Y-51531D01*
X88849Y-51570D01*
X88850Y-51575D01*
X88450Y-51375D02*
X88850Y-51775D01*
X88850Y-51375D02*
X88450Y-51775D01*
X88850Y-53325D02*
X88846Y-53363D01*
X88834Y-53401D01*
X88816Y-53435D01*
X88791Y-53465D01*
X88761Y-53490D01*
X88727Y-53509D01*
X88690Y-53520D01*
X88651Y-53524D01*
X88613Y-53521D01*
X88576Y-53510D01*
X88541Y-53492D01*
X88511Y-53467D01*
X88485Y-53437D01*
X88467Y-53403D01*
X88455Y-53366D01*
X88451Y-53327D01*
X88454Y-53289D01*
X88465Y-53252D01*
X88482Y-53217D01*
X88507Y-53187D01*
X88536Y-53161D01*
X88570Y-53142D01*
X88608Y-53130D01*
X88646Y-53126D01*
X88684Y-53129D01*
X88722Y-53139D01*
X88757Y-53157D01*
X88787Y-53181D01*
X88813Y-53210D01*
X88832Y-53244D01*
X88845Y-53281D01*
X88849Y-53320D01*
X88850Y-53325D01*
X88450Y-53125D02*
X88850Y-53525D01*
X88850Y-53125D02*
X88450Y-53525D01*
X89000Y-55200D02*
X88996Y-55238D01*
X88984Y-55276D01*
X88966Y-55310D01*
X88941Y-55340D01*
X88911Y-55365D01*
X88877Y-55384D01*
X88840Y-55395D01*
X88801Y-55399D01*
X88763Y-55396D01*
X88726Y-55385D01*
X88691Y-55367D01*
X88661Y-55342D01*
X88635Y-55312D01*
X88617Y-55278D01*
X88605Y-55241D01*
X88601Y-55202D01*
X88604Y-55164D01*
X88615Y-55127D01*
X88632Y-55092D01*
X88657Y-55062D01*
X88686Y-55036D01*
X88720Y-55017D01*
X88758Y-55005D01*
X88796Y-55001D01*
X88834Y-55004D01*
X88872Y-55014D01*
X88907Y-55032D01*
X88937Y-55056D01*
X88963Y-55085D01*
X88982Y-55119D01*
X88995Y-55156D01*
X88999Y-55195D01*
X89000Y-55200D01*
X88600Y-55000D02*
X89000Y-55400D01*
X89000Y-55000D02*
X88600Y-55400D01*
X89000Y-56200D02*
X88996Y-56238D01*
X88984Y-56276D01*
X88966Y-56310D01*
X88941Y-56340D01*
X88911Y-56365D01*
X88877Y-56384D01*
X88840Y-56395D01*
X88801Y-56399D01*
X88763Y-56396D01*
X88726Y-56385D01*
X88691Y-56367D01*
X88661Y-56342D01*
X88635Y-56312D01*
X88617Y-56278D01*
X88605Y-56241D01*
X88601Y-56202D01*
X88604Y-56164D01*
X88615Y-56127D01*
X88632Y-56092D01*
X88657Y-56062D01*
X88686Y-56036D01*
X88720Y-56017D01*
X88758Y-56005D01*
X88796Y-56001D01*
X88834Y-56004D01*
X88872Y-56014D01*
X88907Y-56032D01*
X88937Y-56056D01*
X88963Y-56085D01*
X88982Y-56119D01*
X88995Y-56156D01*
X88999Y-56195D01*
X89000Y-56200D01*
X88600Y-56000D02*
X89000Y-56400D01*
X89000Y-56000D02*
X88600Y-56400D01*
X89000Y-57200D02*
X88996Y-57238D01*
X88984Y-57276D01*
X88966Y-57310D01*
X88941Y-57340D01*
X88911Y-57365D01*
X88877Y-57384D01*
X88840Y-57395D01*
X88801Y-57399D01*
X88763Y-57396D01*
X88726Y-57385D01*
X88691Y-57367D01*
X88661Y-57342D01*
X88635Y-57312D01*
X88617Y-57278D01*
X88605Y-57241D01*
X88601Y-57202D01*
X88604Y-57164D01*
X88615Y-57127D01*
X88632Y-57092D01*
X88657Y-57062D01*
X88686Y-57036D01*
X88720Y-57017D01*
X88758Y-57005D01*
X88796Y-57001D01*
X88834Y-57004D01*
X88872Y-57014D01*
X88907Y-57032D01*
X88937Y-57056D01*
X88963Y-57085D01*
X88982Y-57119D01*
X88995Y-57156D01*
X88999Y-57195D01*
X89000Y-57200D01*
X88600Y-57000D02*
X89000Y-57400D01*
X89000Y-57000D02*
X88600Y-57400D01*
X90000Y-55200D02*
X89996Y-55238D01*
X89984Y-55276D01*
X89966Y-55310D01*
X89941Y-55340D01*
X89911Y-55365D01*
X89877Y-55384D01*
X89840Y-55395D01*
X89801Y-55399D01*
X89763Y-55396D01*
X89726Y-55385D01*
X89691Y-55367D01*
X89661Y-55342D01*
X89635Y-55312D01*
X89617Y-55278D01*
X89605Y-55241D01*
X89601Y-55202D01*
X89604Y-55164D01*
X89615Y-55127D01*
X89632Y-55092D01*
X89657Y-55062D01*
X89686Y-55036D01*
X89720Y-55017D01*
X89758Y-55005D01*
X89796Y-55001D01*
X89834Y-55004D01*
X89872Y-55014D01*
X89907Y-55032D01*
X89937Y-55056D01*
X89963Y-55085D01*
X89982Y-55119D01*
X89995Y-55156D01*
X89999Y-55195D01*
X90000Y-55200D01*
X89600Y-55000D02*
X90000Y-55400D01*
X90000Y-55000D02*
X89600Y-55400D01*
X90000Y-56200D02*
X89996Y-56238D01*
X89984Y-56276D01*
X89966Y-56310D01*
X89941Y-56340D01*
X89911Y-56365D01*
X89877Y-56384D01*
X89840Y-56395D01*
X89801Y-56399D01*
X89763Y-56396D01*
X89726Y-56385D01*
X89691Y-56367D01*
X89661Y-56342D01*
X89635Y-56312D01*
X89617Y-56278D01*
X89605Y-56241D01*
X89601Y-56202D01*
X89604Y-56164D01*
X89615Y-56127D01*
X89632Y-56092D01*
X89657Y-56062D01*
X89686Y-56036D01*
X89720Y-56017D01*
X89758Y-56005D01*
X89796Y-56001D01*
X89834Y-56004D01*
X89872Y-56014D01*
X89907Y-56032D01*
X89937Y-56056D01*
X89963Y-56085D01*
X89982Y-56119D01*
X89995Y-56156D01*
X89999Y-56195D01*
X90000Y-56200D01*
X89600Y-56000D02*
X90000Y-56400D01*
X90000Y-56000D02*
X89600Y-56400D01*
X90000Y-57200D02*
X89996Y-57238D01*
X89984Y-57276D01*
X89966Y-57310D01*
X89941Y-57340D01*
X89911Y-57365D01*
X89877Y-57384D01*
X89840Y-57395D01*
X89801Y-57399D01*
X89763Y-57396D01*
X89726Y-57385D01*
X89691Y-57367D01*
X89661Y-57342D01*
X89635Y-57312D01*
X89617Y-57278D01*
X89605Y-57241D01*
X89601Y-57202D01*
X89604Y-57164D01*
X89615Y-57127D01*
X89632Y-57092D01*
X89657Y-57062D01*
X89686Y-57036D01*
X89720Y-57017D01*
X89758Y-57005D01*
X89796Y-57001D01*
X89834Y-57004D01*
X89872Y-57014D01*
X89907Y-57032D01*
X89937Y-57056D01*
X89963Y-57085D01*
X89982Y-57119D01*
X89995Y-57156D01*
X89999Y-57195D01*
X90000Y-57200D01*
X89600Y-57000D02*
X90000Y-57400D01*
X90000Y-57000D02*
X89600Y-57400D01*
X85350Y-60200D02*
X85345Y-60248D01*
X85331Y-60295D01*
X85308Y-60338D01*
X85277Y-60376D01*
X85239Y-60407D01*
X85196Y-60430D01*
X85150Y-60444D01*
X85101Y-60449D01*
X85054Y-60445D01*
X85007Y-60431D01*
X84964Y-60409D01*
X84926Y-60378D01*
X84894Y-60341D01*
X84871Y-60298D01*
X84856Y-60251D01*
X84851Y-60203D01*
X84855Y-60155D01*
X84868Y-60108D01*
X84890Y-60065D01*
X84921Y-60027D01*
X84958Y-59995D01*
X85000Y-59971D01*
X85047Y-59956D01*
X85095Y-59951D01*
X85143Y-59954D01*
X85190Y-59967D01*
X85233Y-59989D01*
X85272Y-60019D01*
X85304Y-60056D01*
X85328Y-60099D01*
X85343Y-60145D01*
X85349Y-60194D01*
X85350Y-60200D01*
X84850Y-60200D02*
X85350Y-60200D01*
X89350Y-59200D02*
X89345Y-59248D01*
X89331Y-59295D01*
X89308Y-59338D01*
X89277Y-59376D01*
X89239Y-59407D01*
X89196Y-59430D01*
X89150Y-59444D01*
X89101Y-59449D01*
X89054Y-59445D01*
X89007Y-59431D01*
X88964Y-59409D01*
X88926Y-59378D01*
X88894Y-59341D01*
X88871Y-59298D01*
X88856Y-59251D01*
X88851Y-59203D01*
X88855Y-59155D01*
X88868Y-59108D01*
X88890Y-59065D01*
X88921Y-59027D01*
X88958Y-58995D01*
X89000Y-58971D01*
X89047Y-58956D01*
X89095Y-58951D01*
X89143Y-58954D01*
X89190Y-58967D01*
X89233Y-58989D01*
X89272Y-59019D01*
X89304Y-59056D01*
X89328Y-59099D01*
X89343Y-59145D01*
X89349Y-59194D01*
X89350Y-59200D01*
X88850Y-59200D02*
X89350Y-59200D01*
X89350Y-61200D02*
X89345Y-61248D01*
X89331Y-61295D01*
X89308Y-61338D01*
X89277Y-61376D01*
X89239Y-61407D01*
X89196Y-61430D01*
X89150Y-61444D01*
X89101Y-61449D01*
X89054Y-61445D01*
X89007Y-61431D01*
X88964Y-61409D01*
X88926Y-61378D01*
X88894Y-61341D01*
X88871Y-61298D01*
X88856Y-61251D01*
X88851Y-61203D01*
X88855Y-61155D01*
X88868Y-61108D01*
X88890Y-61065D01*
X88921Y-61027D01*
X88958Y-60995D01*
X89000Y-60971D01*
X89047Y-60956D01*
X89095Y-60951D01*
X89143Y-60954D01*
X89190Y-60967D01*
X89233Y-60989D01*
X89272Y-61019D01*
X89304Y-61056D01*
X89328Y-61099D01*
X89343Y-61145D01*
X89349Y-61194D01*
X89350Y-61200D01*
X88850Y-61200D02*
X89350Y-61200D01*
X37100Y-52000D02*
X37088Y-52116D01*
X37054Y-52228D01*
X36999Y-52332D01*
X36925Y-52422D01*
X36835Y-52497D01*
X36732Y-52553D01*
X36620Y-52587D01*
X36504Y-52599D01*
X36388Y-52589D01*
X36276Y-52556D01*
X36172Y-52502D01*
X36081Y-52428D01*
X36005Y-52338D01*
X35949Y-52236D01*
X35914Y-52124D01*
X35901Y-52008D01*
X35910Y-51892D01*
X35943Y-51780D01*
X35996Y-51675D01*
X36069Y-51584D01*
X36158Y-51508D01*
X36260Y-51451D01*
X36372Y-51414D01*
X36488Y-51401D01*
X36604Y-51410D01*
X36716Y-51441D01*
X36821Y-51494D01*
X36913Y-51566D01*
X36990Y-51655D01*
X37048Y-51756D01*
X37085Y-51868D01*
X37099Y-51984D01*
X37100Y-52000D01*
X36500Y-51400D02*
X36500Y-52600D01*
X37100Y-61500D02*
X37088Y-61616D01*
X37054Y-61728D01*
X36999Y-61832D01*
X36925Y-61922D01*
X36835Y-61997D01*
X36732Y-62053D01*
X36620Y-62087D01*
X36504Y-62099D01*
X36388Y-62089D01*
X36276Y-62056D01*
X36172Y-62002D01*
X36081Y-61928D01*
X36005Y-61838D01*
X35949Y-61736D01*
X35914Y-61624D01*
X35901Y-61508D01*
X35910Y-61392D01*
X35943Y-61280D01*
X35996Y-61175D01*
X36069Y-61084D01*
X36158Y-61008D01*
X36260Y-60951D01*
X36372Y-60914D01*
X36488Y-60901D01*
X36604Y-60910D01*
X36716Y-60941D01*
X36821Y-60994D01*
X36913Y-61066D01*
X36990Y-61155D01*
X37048Y-61256D01*
X37085Y-61368D01*
X37099Y-61484D01*
X37100Y-61500D01*
X36500Y-60900D02*
X36500Y-62100D01*
X69100Y-52000D02*
X69088Y-52116D01*
X69054Y-52228D01*
X68999Y-52332D01*
X68925Y-52422D01*
X68835Y-52497D01*
X68732Y-52553D01*
X68620Y-52587D01*
X68504Y-52599D01*
X68388Y-52589D01*
X68276Y-52556D01*
X68172Y-52502D01*
X68081Y-52428D01*
X68005Y-52338D01*
X67949Y-52236D01*
X67914Y-52124D01*
X67901Y-52008D01*
X67910Y-51892D01*
X67943Y-51780D01*
X67996Y-51675D01*
X68069Y-51584D01*
X68158Y-51508D01*
X68260Y-51451D01*
X68372Y-51414D01*
X68488Y-51401D01*
X68604Y-51410D01*
X68716Y-51441D01*
X68821Y-51494D01*
X68913Y-51566D01*
X68990Y-51655D01*
X69048Y-51756D01*
X69085Y-51868D01*
X69099Y-51984D01*
X69100Y-52000D01*
X68500Y-51400D02*
X68500Y-52600D01*
X69100Y-61500D02*
X69088Y-61616D01*
X69054Y-61728D01*
X68999Y-61832D01*
X68925Y-61922D01*
X68835Y-61997D01*
X68732Y-62053D01*
X68620Y-62087D01*
X68504Y-62099D01*
X68388Y-62089D01*
X68276Y-62056D01*
X68172Y-62002D01*
X68081Y-61928D01*
X68005Y-61838D01*
X67949Y-61736D01*
X67914Y-61624D01*
X67901Y-61508D01*
X67910Y-61392D01*
X67943Y-61280D01*
X67996Y-61175D01*
X68069Y-61084D01*
X68158Y-61008D01*
X68260Y-60951D01*
X68372Y-60914D01*
X68488Y-60901D01*
X68604Y-60910D01*
X68716Y-60941D01*
X68821Y-60994D01*
X68913Y-61066D01*
X68990Y-61155D01*
X69048Y-61256D01*
X69085Y-61368D01*
X69099Y-61484D01*
X69100Y-61500D01*
X68500Y-60900D02*
X68500Y-62100D01*
X96100Y-52000D02*
X96088Y-52116D01*
X96054Y-52228D01*
X95999Y-52332D01*
X95925Y-52422D01*
X95835Y-52497D01*
X95732Y-52553D01*
X95620Y-52587D01*
X95504Y-52599D01*
X95388Y-52589D01*
X95276Y-52556D01*
X95172Y-52502D01*
X95081Y-52428D01*
X95005Y-52338D01*
X94949Y-52236D01*
X94914Y-52124D01*
X94901Y-52008D01*
X94910Y-51892D01*
X94943Y-51780D01*
X94996Y-51675D01*
X95069Y-51584D01*
X95158Y-51508D01*
X95260Y-51451D01*
X95372Y-51414D01*
X95488Y-51401D01*
X95604Y-51410D01*
X95716Y-51441D01*
X95821Y-51494D01*
X95913Y-51566D01*
X95990Y-51655D01*
X96048Y-51756D01*
X96085Y-51868D01*
X96099Y-51984D01*
X96100Y-52000D01*
X95500Y-51400D02*
X95500Y-52600D01*
X96100Y-61500D02*
X96088Y-61616D01*
X96054Y-61728D01*
X95999Y-61832D01*
X95925Y-61922D01*
X95835Y-61997D01*
X95732Y-62053D01*
X95620Y-62087D01*
X95504Y-62099D01*
X95388Y-62089D01*
X95276Y-62056D01*
X95172Y-62002D01*
X95081Y-61928D01*
X95005Y-61838D01*
X94949Y-61736D01*
X94914Y-61624D01*
X94901Y-61508D01*
X94910Y-61392D01*
X94943Y-61280D01*
X94996Y-61175D01*
X95069Y-61084D01*
X95158Y-61008D01*
X95260Y-60951D01*
X95372Y-60914D01*
X95488Y-60901D01*
X95604Y-60910D01*
X95716Y-60941D01*
X95821Y-60994D01*
X95913Y-61066D01*
X95990Y-61155D01*
X96048Y-61256D01*
X96085Y-61368D01*
X96099Y-61484D01*
X96100Y-61500D01*
X95500Y-60900D02*
X95500Y-62100D01*
X128100Y-52000D02*
X128088Y-52116D01*
X128054Y-52228D01*
X127999Y-52332D01*
X127925Y-52422D01*
X127835Y-52497D01*
X127732Y-52553D01*
X127620Y-52587D01*
X127504Y-52599D01*
X127388Y-52589D01*
X127276Y-52556D01*
X127172Y-52502D01*
X127081Y-52428D01*
X127005Y-52338D01*
X126949Y-52236D01*
X126914Y-52124D01*
X126901Y-52008D01*
X126910Y-51892D01*
X126943Y-51780D01*
X126996Y-51675D01*
X127069Y-51584D01*
X127158Y-51508D01*
X127260Y-51451D01*
X127372Y-51414D01*
X127488Y-51401D01*
X127604Y-51410D01*
X127716Y-51441D01*
X127821Y-51494D01*
X127913Y-51566D01*
X127990Y-51655D01*
X128048Y-51756D01*
X128085Y-51868D01*
X128099Y-51984D01*
X128100Y-52000D01*
X127500Y-51400D02*
X127500Y-52600D01*
X128100Y-61500D02*
X128088Y-61616D01*
X128054Y-61728D01*
X127999Y-61832D01*
X127925Y-61922D01*
X127835Y-61997D01*
X127732Y-62053D01*
X127620Y-62087D01*
X127504Y-62099D01*
X127388Y-62089D01*
X127276Y-62056D01*
X127172Y-62002D01*
X127081Y-61928D01*
X127005Y-61838D01*
X126949Y-61736D01*
X126914Y-61624D01*
X126901Y-61508D01*
X126910Y-61392D01*
X126943Y-61280D01*
X126996Y-61175D01*
X127069Y-61084D01*
X127158Y-61008D01*
X127260Y-60951D01*
X127372Y-60914D01*
X127488Y-60901D01*
X127604Y-60910D01*
X127716Y-60941D01*
X127821Y-60994D01*
X127913Y-61066D01*
X127990Y-61155D01*
X128048Y-61256D01*
X128085Y-61368D01*
X128099Y-61484D01*
X128100Y-61500D01*
X127500Y-60900D02*
X127500Y-62100D01*
G54D12*
X26514Y-65080D02*
X26514Y-64280D01*
X26705Y-64280D01*
X26819Y-64318D01*
X26895Y-64394D01*
X26934Y-64470D01*
X26972Y-64623D01*
X26972Y-64737D01*
X26934Y-64889D01*
X26895Y-64966D01*
X26819Y-65042D01*
X26705Y-65080D01*
X26514Y-65080D01*
X27314Y-65080D02*
X27314Y-64546D01*
X27314Y-64699D02*
X27353Y-64623D01*
X27391Y-64585D01*
X27467Y-64546D01*
X27543Y-64546D01*
X27809Y-65080D02*
X27809Y-64546D01*
X27809Y-64280D02*
X27771Y-64318D01*
X27809Y-64356D01*
X27848Y-64318D01*
X27809Y-64280D01*
X27809Y-64356D01*
X28305Y-65080D02*
X28229Y-65042D01*
X28190Y-64966D01*
X28190Y-64280D01*
X28724Y-65080D02*
X28648Y-65042D01*
X28609Y-64966D01*
X28609Y-64280D01*
X29638Y-65080D02*
X29638Y-64280D01*
X29905Y-64851D01*
X30172Y-64280D01*
X30172Y-65080D01*
X30895Y-65080D02*
X30895Y-64661D01*
X30857Y-64585D01*
X30781Y-64546D01*
X30629Y-64546D01*
X30552Y-64585D01*
X30895Y-65042D02*
X30819Y-65080D01*
X30629Y-65080D01*
X30552Y-65042D01*
X30514Y-64966D01*
X30514Y-64889D01*
X30552Y-64813D01*
X30629Y-64775D01*
X30819Y-64775D01*
X30895Y-64737D01*
X31276Y-64546D02*
X31276Y-65346D01*
X31276Y-64585D02*
X31353Y-64546D01*
X31505Y-64546D01*
X31581Y-64585D01*
X31619Y-64623D01*
X31657Y-64699D01*
X31657Y-64927D01*
X31619Y-65004D01*
X31581Y-65042D01*
X31505Y-65080D01*
X31353Y-65080D01*
X31276Y-65042D01*
X32000Y-65004D02*
X32039Y-65042D01*
X32000Y-65080D01*
X31962Y-65042D01*
X32000Y-65004D01*
X32000Y-65080D01*
X32000Y-64585D02*
X32039Y-64623D01*
X32000Y-64661D01*
X31962Y-64623D01*
X32000Y-64585D01*
X32000Y-64661D01*
X25874Y-66311D02*
X26124Y-66561D01*
X26124Y-66311D02*
X25874Y-66561D01*
X26667Y-65960D02*
X26743Y-65960D01*
X26819Y-65998D01*
X26857Y-66036D01*
X26895Y-66112D01*
X26934Y-66265D01*
X26934Y-66455D01*
X26895Y-66607D01*
X26857Y-66684D01*
X26819Y-66722D01*
X26743Y-66760D01*
X26667Y-66760D01*
X26591Y-66722D01*
X26553Y-66684D01*
X26514Y-66607D01*
X26476Y-66455D01*
X26476Y-66265D01*
X26514Y-66112D01*
X26553Y-66036D01*
X26591Y-65998D01*
X26667Y-65960D01*
X27276Y-66684D02*
X27315Y-66722D01*
X27276Y-66760D01*
X27238Y-66722D01*
X27276Y-66684D01*
X27276Y-66760D01*
X27810Y-65960D02*
X27886Y-65960D01*
X27962Y-65998D01*
X28000Y-66036D01*
X28038Y-66112D01*
X28077Y-66265D01*
X28077Y-66455D01*
X28038Y-66607D01*
X28000Y-66684D01*
X27962Y-66722D01*
X27886Y-66760D01*
X27810Y-66760D01*
X27734Y-66722D01*
X27696Y-66684D01*
X27657Y-66607D01*
X27619Y-66455D01*
X27619Y-66265D01*
X27657Y-66112D01*
X27696Y-66036D01*
X27734Y-65998D01*
X27810Y-65960D01*
X28381Y-66036D02*
X28419Y-65998D01*
X28496Y-65960D01*
X28686Y-65960D01*
X28762Y-65998D01*
X28800Y-66036D01*
X28839Y-66112D01*
X28839Y-66188D01*
X28800Y-66303D01*
X28343Y-66760D01*
X28839Y-66760D01*
X29562Y-65960D02*
X29181Y-65960D01*
X29143Y-66341D01*
X29181Y-66303D01*
X29258Y-66265D01*
X29448Y-66265D01*
X29524Y-66303D01*
X29562Y-66341D01*
X29601Y-66417D01*
X29601Y-66607D01*
X29562Y-66684D01*
X29524Y-66722D01*
X29448Y-66760D01*
X29258Y-66760D01*
X29181Y-66722D01*
X29143Y-66684D01*
X29905Y-65960D02*
X29905Y-66112D01*
X30210Y-65960D02*
X30210Y-66112D01*
X31735Y-65922D02*
X31049Y-66950D01*
X32764Y-65960D02*
X32840Y-65960D01*
X32916Y-65998D01*
X32954Y-66036D01*
X32992Y-66112D01*
X33031Y-66265D01*
X33031Y-66455D01*
X32992Y-66607D01*
X32954Y-66684D01*
X32916Y-66722D01*
X32840Y-66760D01*
X32764Y-66760D01*
X32688Y-66722D01*
X32650Y-66684D01*
X32611Y-66607D01*
X32573Y-66455D01*
X32573Y-66265D01*
X32611Y-66112D01*
X32650Y-66036D01*
X32688Y-65998D01*
X32764Y-65960D01*
X33373Y-66684D02*
X33412Y-66722D01*
X33373Y-66760D01*
X33335Y-66722D01*
X33373Y-66684D01*
X33373Y-66760D01*
X34097Y-65960D02*
X33945Y-65960D01*
X33869Y-65998D01*
X33831Y-66036D01*
X33754Y-66150D01*
X33716Y-66303D01*
X33716Y-66607D01*
X33754Y-66684D01*
X33793Y-66722D01*
X33869Y-66760D01*
X34021Y-66760D01*
X34097Y-66722D01*
X34135Y-66684D01*
X34174Y-66607D01*
X34174Y-66417D01*
X34135Y-66341D01*
X34097Y-66303D01*
X34021Y-66265D01*
X33869Y-66265D01*
X33793Y-66303D01*
X33754Y-66341D01*
X33716Y-66417D01*
X34859Y-66226D02*
X34859Y-66760D01*
X34669Y-65922D02*
X34478Y-66493D01*
X34974Y-66493D01*
X35278Y-66760D02*
X35278Y-66226D01*
X35278Y-66303D02*
X35317Y-66265D01*
X35393Y-66226D01*
X35507Y-66226D01*
X35583Y-66265D01*
X35621Y-66341D01*
X35621Y-66760D01*
X35621Y-66341D02*
X35659Y-66265D01*
X35736Y-66226D01*
X35850Y-66226D01*
X35926Y-66265D01*
X35964Y-66341D01*
X35964Y-66760D01*
X36345Y-66760D02*
X36345Y-66226D01*
X36345Y-66303D02*
X36384Y-66265D01*
X36460Y-66226D01*
X36574Y-66226D01*
X36650Y-66265D01*
X36688Y-66341D01*
X36688Y-66760D01*
X36688Y-66341D02*
X36726Y-66265D01*
X36803Y-66226D01*
X36917Y-66226D01*
X36993Y-66265D01*
X37031Y-66341D01*
X37031Y-66760D01*
X38251Y-67065D02*
X38213Y-67026D01*
X38137Y-66912D01*
X38099Y-66836D01*
X38061Y-66722D01*
X38022Y-66531D01*
X38022Y-66379D01*
X38061Y-66188D01*
X38099Y-66074D01*
X38137Y-65998D01*
X38213Y-65884D01*
X38251Y-65846D01*
X38479Y-65960D02*
X38975Y-65960D01*
X38708Y-66265D01*
X38822Y-66265D01*
X38898Y-66303D01*
X38936Y-66341D01*
X38975Y-66417D01*
X38975Y-66607D01*
X38936Y-66684D01*
X38898Y-66722D01*
X38822Y-66760D01*
X38594Y-66760D01*
X38517Y-66722D01*
X38479Y-66684D01*
X39241Y-65960D02*
X39737Y-65960D01*
X39470Y-66265D01*
X39584Y-66265D01*
X39660Y-66303D01*
X39698Y-66341D01*
X39737Y-66417D01*
X39737Y-66607D01*
X39698Y-66684D01*
X39660Y-66722D01*
X39584Y-66760D01*
X39356Y-66760D01*
X39279Y-66722D01*
X39241Y-66684D01*
X40689Y-66760D02*
X40689Y-65960D01*
X41032Y-66760D02*
X41032Y-66341D01*
X40994Y-66265D01*
X40918Y-66226D01*
X40804Y-66226D01*
X40728Y-66265D01*
X40689Y-66303D01*
X41528Y-66760D02*
X41452Y-66722D01*
X41413Y-66684D01*
X41375Y-66607D01*
X41375Y-66379D01*
X41413Y-66303D01*
X41452Y-66265D01*
X41528Y-66226D01*
X41642Y-66226D01*
X41718Y-66265D01*
X41756Y-66303D01*
X41794Y-66379D01*
X41794Y-66607D01*
X41756Y-66684D01*
X41718Y-66722D01*
X41642Y-66760D01*
X41528Y-66760D01*
X42252Y-66760D02*
X42176Y-66722D01*
X42137Y-66646D01*
X42137Y-65960D01*
X42861Y-66722D02*
X42785Y-66760D01*
X42633Y-66760D01*
X42556Y-66722D01*
X42518Y-66646D01*
X42518Y-66341D01*
X42556Y-66265D01*
X42633Y-66226D01*
X42785Y-66226D01*
X42861Y-66265D01*
X42899Y-66341D01*
X42899Y-66417D01*
X42518Y-66493D01*
X43204Y-66722D02*
X43281Y-66760D01*
X43433Y-66760D01*
X43509Y-66722D01*
X43547Y-66646D01*
X43547Y-66607D01*
X43509Y-66531D01*
X43433Y-66493D01*
X43319Y-66493D01*
X43242Y-66455D01*
X43204Y-66379D01*
X43204Y-66341D01*
X43242Y-66265D01*
X43319Y-66226D01*
X43433Y-66226D01*
X43509Y-66265D01*
X43814Y-67065D02*
X43852Y-67026D01*
X43929Y-66912D01*
X43967Y-66836D01*
X44005Y-66722D01*
X44043Y-66531D01*
X44043Y-66379D01*
X44005Y-66188D01*
X43967Y-66074D01*
X43929Y-65998D01*
X43852Y-65884D01*
X43814Y-65846D01*
G54D10*
X26124Y-67491D02*
X26120Y-67522D01*
X26111Y-67551D01*
X26097Y-67579D01*
X26077Y-67603D01*
X26053Y-67623D01*
X26026Y-67638D01*
X25996Y-67647D01*
X25965Y-67650D01*
X25935Y-67648D01*
X25905Y-67639D01*
X25877Y-67624D01*
X25853Y-67605D01*
X25832Y-67581D01*
X25817Y-67554D01*
X25808Y-67524D01*
X25805Y-67493D01*
X25807Y-67463D01*
X25816Y-67433D01*
X25830Y-67405D01*
X25849Y-67380D01*
X25873Y-67360D01*
X25900Y-67345D01*
X25930Y-67335D01*
X25961Y-67332D01*
X25991Y-67334D01*
X26021Y-67342D01*
X26049Y-67356D01*
X26074Y-67376D01*
X26094Y-67399D01*
X26110Y-67426D01*
X26120Y-67456D01*
X26123Y-67487D01*
X26124Y-67491D01*
G54D12*
X26667Y-67015D02*
X26743Y-67015D01*
X26819Y-67053D01*
X26857Y-67091D01*
X26895Y-67167D01*
X26934Y-67320D01*
X26934Y-67510D01*
X26895Y-67662D01*
X26857Y-67739D01*
X26819Y-67777D01*
X26743Y-67815D01*
X26667Y-67815D01*
X26591Y-67777D01*
X26553Y-67739D01*
X26514Y-67662D01*
X26476Y-67510D01*
X26476Y-67320D01*
X26514Y-67167D01*
X26553Y-67091D01*
X26591Y-67053D01*
X26667Y-67015D01*
X27276Y-67739D02*
X27315Y-67777D01*
X27276Y-67815D01*
X27238Y-67777D01*
X27276Y-67739D01*
X27276Y-67815D01*
X27810Y-67015D02*
X27886Y-67015D01*
X27962Y-67053D01*
X28000Y-67091D01*
X28038Y-67167D01*
X28077Y-67320D01*
X28077Y-67510D01*
X28038Y-67662D01*
X28000Y-67739D01*
X27962Y-67777D01*
X27886Y-67815D01*
X27810Y-67815D01*
X27734Y-67777D01*
X27696Y-67739D01*
X27657Y-67662D01*
X27619Y-67510D01*
X27619Y-67320D01*
X27657Y-67167D01*
X27696Y-67091D01*
X27734Y-67053D01*
X27810Y-67015D01*
X28343Y-67015D02*
X28839Y-67015D01*
X28572Y-67320D01*
X28686Y-67320D01*
X28762Y-67358D01*
X28800Y-67396D01*
X28839Y-67472D01*
X28839Y-67662D01*
X28800Y-67739D01*
X28762Y-67777D01*
X28686Y-67815D01*
X28458Y-67815D01*
X28381Y-67777D01*
X28343Y-67739D01*
X29143Y-67091D02*
X29181Y-67053D01*
X29258Y-67015D01*
X29448Y-67015D01*
X29524Y-67053D01*
X29562Y-67091D01*
X29601Y-67167D01*
X29601Y-67243D01*
X29562Y-67358D01*
X29105Y-67815D01*
X29601Y-67815D01*
X29905Y-67015D02*
X29905Y-67167D01*
X30210Y-67015D02*
X30210Y-67167D01*
X31735Y-66977D02*
X31049Y-68005D01*
X32764Y-67015D02*
X32840Y-67015D01*
X32916Y-67053D01*
X32954Y-67091D01*
X32992Y-67167D01*
X33031Y-67320D01*
X33031Y-67510D01*
X32992Y-67662D01*
X32954Y-67739D01*
X32916Y-67777D01*
X32840Y-67815D01*
X32764Y-67815D01*
X32688Y-67777D01*
X32650Y-67739D01*
X32611Y-67662D01*
X32573Y-67510D01*
X32573Y-67320D01*
X32611Y-67167D01*
X32650Y-67091D01*
X32688Y-67053D01*
X32764Y-67015D01*
X33373Y-67739D02*
X33412Y-67777D01*
X33373Y-67815D01*
X33335Y-67777D01*
X33373Y-67739D01*
X33373Y-67815D01*
X33869Y-67358D02*
X33793Y-67320D01*
X33754Y-67281D01*
X33716Y-67205D01*
X33716Y-67167D01*
X33754Y-67091D01*
X33793Y-67053D01*
X33869Y-67015D01*
X34021Y-67015D01*
X34097Y-67053D01*
X34135Y-67091D01*
X34174Y-67167D01*
X34174Y-67205D01*
X34135Y-67281D01*
X34097Y-67320D01*
X34021Y-67358D01*
X33869Y-67358D01*
X33793Y-67396D01*
X33754Y-67434D01*
X33716Y-67510D01*
X33716Y-67662D01*
X33754Y-67739D01*
X33793Y-67777D01*
X33869Y-67815D01*
X34021Y-67815D01*
X34097Y-67777D01*
X34135Y-67739D01*
X34174Y-67662D01*
X34174Y-67510D01*
X34135Y-67434D01*
X34097Y-67396D01*
X34021Y-67358D01*
X34936Y-67815D02*
X34478Y-67815D01*
X34707Y-67815D02*
X34707Y-67015D01*
X34631Y-67129D01*
X34555Y-67205D01*
X34478Y-67243D01*
X35278Y-67815D02*
X35278Y-67281D01*
X35278Y-67358D02*
X35317Y-67320D01*
X35393Y-67281D01*
X35507Y-67281D01*
X35583Y-67320D01*
X35621Y-67396D01*
X35621Y-67815D01*
X35621Y-67396D02*
X35659Y-67320D01*
X35736Y-67281D01*
X35850Y-67281D01*
X35926Y-67320D01*
X35964Y-67396D01*
X35964Y-67815D01*
X36345Y-67815D02*
X36345Y-67281D01*
X36345Y-67358D02*
X36384Y-67320D01*
X36460Y-67281D01*
X36574Y-67281D01*
X36650Y-67320D01*
X36688Y-67396D01*
X36688Y-67815D01*
X36688Y-67396D02*
X36726Y-67320D01*
X36803Y-67281D01*
X36917Y-67281D01*
X36993Y-67320D01*
X37031Y-67396D01*
X37031Y-67815D01*
X38251Y-68120D02*
X38213Y-68081D01*
X38137Y-67967D01*
X38099Y-67891D01*
X38061Y-67777D01*
X38022Y-67586D01*
X38022Y-67434D01*
X38061Y-67243D01*
X38099Y-67129D01*
X38137Y-67053D01*
X38213Y-66939D01*
X38251Y-66901D01*
X38975Y-67815D02*
X38517Y-67815D01*
X38746Y-67815D02*
X38746Y-67015D01*
X38670Y-67129D01*
X38594Y-67205D01*
X38517Y-67243D01*
X39432Y-67358D02*
X39356Y-67320D01*
X39317Y-67281D01*
X39279Y-67205D01*
X39279Y-67167D01*
X39317Y-67091D01*
X39356Y-67053D01*
X39432Y-67015D01*
X39584Y-67015D01*
X39660Y-67053D01*
X39698Y-67091D01*
X39737Y-67167D01*
X39737Y-67205D01*
X39698Y-67281D01*
X39660Y-67320D01*
X39584Y-67358D01*
X39432Y-67358D01*
X39356Y-67396D01*
X39317Y-67434D01*
X39279Y-67510D01*
X39279Y-67662D01*
X39317Y-67739D01*
X39356Y-67777D01*
X39432Y-67815D01*
X39584Y-67815D01*
X39660Y-67777D01*
X39698Y-67739D01*
X39737Y-67662D01*
X39737Y-67510D01*
X39698Y-67434D01*
X39660Y-67396D01*
X39584Y-67358D01*
X40689Y-67815D02*
X40689Y-67015D01*
X41032Y-67815D02*
X41032Y-67396D01*
X40994Y-67320D01*
X40918Y-67281D01*
X40804Y-67281D01*
X40728Y-67320D01*
X40689Y-67358D01*
X41528Y-67815D02*
X41452Y-67777D01*
X41413Y-67739D01*
X41375Y-67662D01*
X41375Y-67434D01*
X41413Y-67358D01*
X41452Y-67320D01*
X41528Y-67281D01*
X41642Y-67281D01*
X41718Y-67320D01*
X41756Y-67358D01*
X41794Y-67434D01*
X41794Y-67662D01*
X41756Y-67739D01*
X41718Y-67777D01*
X41642Y-67815D01*
X41528Y-67815D01*
X42252Y-67815D02*
X42176Y-67777D01*
X42137Y-67701D01*
X42137Y-67015D01*
X42861Y-67777D02*
X42785Y-67815D01*
X42633Y-67815D01*
X42556Y-67777D01*
X42518Y-67701D01*
X42518Y-67396D01*
X42556Y-67320D01*
X42633Y-67281D01*
X42785Y-67281D01*
X42861Y-67320D01*
X42899Y-67396D01*
X42899Y-67472D01*
X42518Y-67548D01*
X43204Y-67777D02*
X43281Y-67815D01*
X43433Y-67815D01*
X43509Y-67777D01*
X43547Y-67701D01*
X43547Y-67662D01*
X43509Y-67586D01*
X43433Y-67548D01*
X43319Y-67548D01*
X43242Y-67510D01*
X43204Y-67434D01*
X43204Y-67396D01*
X43242Y-67320D01*
X43319Y-67281D01*
X43433Y-67281D01*
X43509Y-67320D01*
X43814Y-68120D02*
X43852Y-68081D01*
X43929Y-67967D01*
X43967Y-67891D01*
X44005Y-67777D01*
X44043Y-67586D01*
X44043Y-67434D01*
X44005Y-67243D01*
X43967Y-67129D01*
X43929Y-67053D01*
X43852Y-66939D01*
X43814Y-66901D01*
X25927Y-68349D02*
X25927Y-68743D01*
X26124Y-68546D02*
X25730Y-68546D01*
X26667Y-68070D02*
X26743Y-68070D01*
X26819Y-68108D01*
X26857Y-68146D01*
X26895Y-68222D01*
X26934Y-68375D01*
X26934Y-68565D01*
X26895Y-68717D01*
X26857Y-68794D01*
X26819Y-68832D01*
X26743Y-68870D01*
X26667Y-68870D01*
X26591Y-68832D01*
X26553Y-68794D01*
X26514Y-68717D01*
X26476Y-68565D01*
X26476Y-68375D01*
X26514Y-68222D01*
X26553Y-68146D01*
X26591Y-68108D01*
X26667Y-68070D01*
X27276Y-68794D02*
X27315Y-68832D01*
X27276Y-68870D01*
X27238Y-68832D01*
X27276Y-68794D01*
X27276Y-68870D01*
X27810Y-68070D02*
X27886Y-68070D01*
X27962Y-68108D01*
X28000Y-68146D01*
X28038Y-68222D01*
X28077Y-68375D01*
X28077Y-68565D01*
X28038Y-68717D01*
X28000Y-68794D01*
X27962Y-68832D01*
X27886Y-68870D01*
X27810Y-68870D01*
X27734Y-68832D01*
X27696Y-68794D01*
X27657Y-68717D01*
X27619Y-68565D01*
X27619Y-68375D01*
X27657Y-68222D01*
X27696Y-68146D01*
X27734Y-68108D01*
X27810Y-68070D01*
X28343Y-68070D02*
X28839Y-68070D01*
X28572Y-68375D01*
X28686Y-68375D01*
X28762Y-68413D01*
X28800Y-68451D01*
X28839Y-68527D01*
X28839Y-68717D01*
X28800Y-68794D01*
X28762Y-68832D01*
X28686Y-68870D01*
X28458Y-68870D01*
X28381Y-68832D01*
X28343Y-68794D01*
X29220Y-68870D02*
X29372Y-68870D01*
X29448Y-68832D01*
X29486Y-68794D01*
X29562Y-68679D01*
X29601Y-68527D01*
X29601Y-68222D01*
X29562Y-68146D01*
X29524Y-68108D01*
X29448Y-68070D01*
X29296Y-68070D01*
X29220Y-68108D01*
X29181Y-68146D01*
X29143Y-68222D01*
X29143Y-68413D01*
X29181Y-68489D01*
X29220Y-68527D01*
X29296Y-68565D01*
X29448Y-68565D01*
X29524Y-68527D01*
X29562Y-68489D01*
X29601Y-68413D01*
X29905Y-68070D02*
X29905Y-68222D01*
X30210Y-68070D02*
X30210Y-68222D01*
X31735Y-68032D02*
X31049Y-69060D01*
X33031Y-68870D02*
X32573Y-68870D01*
X32802Y-68870D02*
X32802Y-68070D01*
X32726Y-68184D01*
X32650Y-68260D01*
X32573Y-68298D01*
X33373Y-68794D02*
X33412Y-68832D01*
X33373Y-68870D01*
X33335Y-68832D01*
X33373Y-68794D01*
X33373Y-68870D01*
X33907Y-68070D02*
X33983Y-68070D01*
X34059Y-68108D01*
X34097Y-68146D01*
X34135Y-68222D01*
X34174Y-68375D01*
X34174Y-68565D01*
X34135Y-68717D01*
X34097Y-68794D01*
X34059Y-68832D01*
X33983Y-68870D01*
X33907Y-68870D01*
X33831Y-68832D01*
X33793Y-68794D01*
X33754Y-68717D01*
X33716Y-68565D01*
X33716Y-68375D01*
X33754Y-68222D01*
X33793Y-68146D01*
X33831Y-68108D01*
X33907Y-68070D01*
X34669Y-68070D02*
X34745Y-68070D01*
X34821Y-68108D01*
X34859Y-68146D01*
X34897Y-68222D01*
X34936Y-68375D01*
X34936Y-68565D01*
X34897Y-68717D01*
X34859Y-68794D01*
X34821Y-68832D01*
X34745Y-68870D01*
X34669Y-68870D01*
X34593Y-68832D01*
X34555Y-68794D01*
X34516Y-68717D01*
X34478Y-68565D01*
X34478Y-68375D01*
X34516Y-68222D01*
X34555Y-68146D01*
X34593Y-68108D01*
X34669Y-68070D01*
X35278Y-68870D02*
X35278Y-68336D01*
X35278Y-68413D02*
X35317Y-68375D01*
X35393Y-68336D01*
X35507Y-68336D01*
X35583Y-68375D01*
X35621Y-68451D01*
X35621Y-68870D01*
X35621Y-68451D02*
X35659Y-68375D01*
X35736Y-68336D01*
X35850Y-68336D01*
X35926Y-68375D01*
X35964Y-68451D01*
X35964Y-68870D01*
X36345Y-68870D02*
X36345Y-68336D01*
X36345Y-68413D02*
X36384Y-68375D01*
X36460Y-68336D01*
X36574Y-68336D01*
X36650Y-68375D01*
X36688Y-68451D01*
X36688Y-68870D01*
X36688Y-68451D02*
X36726Y-68375D01*
X36803Y-68336D01*
X36917Y-68336D01*
X36993Y-68375D01*
X37031Y-68451D01*
X37031Y-68870D01*
X38251Y-69175D02*
X38213Y-69136D01*
X38137Y-69022D01*
X38099Y-68946D01*
X38061Y-68832D01*
X38022Y-68641D01*
X38022Y-68489D01*
X38061Y-68298D01*
X38099Y-68184D01*
X38137Y-68108D01*
X38213Y-67994D01*
X38251Y-67956D01*
X38898Y-68070D02*
X38746Y-68070D01*
X38670Y-68108D01*
X38632Y-68146D01*
X38555Y-68260D01*
X38517Y-68413D01*
X38517Y-68717D01*
X38555Y-68794D01*
X38594Y-68832D01*
X38670Y-68870D01*
X38822Y-68870D01*
X38898Y-68832D01*
X38936Y-68794D01*
X38975Y-68717D01*
X38975Y-68527D01*
X38936Y-68451D01*
X38898Y-68413D01*
X38822Y-68375D01*
X38670Y-68375D01*
X38594Y-68413D01*
X38555Y-68451D01*
X38517Y-68527D01*
X39432Y-68413D02*
X39356Y-68375D01*
X39317Y-68336D01*
X39279Y-68260D01*
X39279Y-68222D01*
X39317Y-68146D01*
X39356Y-68108D01*
X39432Y-68070D01*
X39584Y-68070D01*
X39660Y-68108D01*
X39698Y-68146D01*
X39737Y-68222D01*
X39737Y-68260D01*
X39698Y-68336D01*
X39660Y-68375D01*
X39584Y-68413D01*
X39432Y-68413D01*
X39356Y-68451D01*
X39317Y-68489D01*
X39279Y-68565D01*
X39279Y-68717D01*
X39317Y-68794D01*
X39356Y-68832D01*
X39432Y-68870D01*
X39584Y-68870D01*
X39660Y-68832D01*
X39698Y-68794D01*
X39737Y-68717D01*
X39737Y-68565D01*
X39698Y-68489D01*
X39660Y-68451D01*
X39584Y-68413D01*
X40689Y-68870D02*
X40689Y-68070D01*
X41032Y-68870D02*
X41032Y-68451D01*
X40994Y-68375D01*
X40918Y-68336D01*
X40804Y-68336D01*
X40728Y-68375D01*
X40689Y-68413D01*
X41528Y-68870D02*
X41452Y-68832D01*
X41413Y-68794D01*
X41375Y-68717D01*
X41375Y-68489D01*
X41413Y-68413D01*
X41452Y-68375D01*
X41528Y-68336D01*
X41642Y-68336D01*
X41718Y-68375D01*
X41756Y-68413D01*
X41794Y-68489D01*
X41794Y-68717D01*
X41756Y-68794D01*
X41718Y-68832D01*
X41642Y-68870D01*
X41528Y-68870D01*
X42252Y-68870D02*
X42176Y-68832D01*
X42137Y-68756D01*
X42137Y-68070D01*
X42861Y-68832D02*
X42785Y-68870D01*
X42633Y-68870D01*
X42556Y-68832D01*
X42518Y-68756D01*
X42518Y-68451D01*
X42556Y-68375D01*
X42633Y-68336D01*
X42785Y-68336D01*
X42861Y-68375D01*
X42899Y-68451D01*
X42899Y-68527D01*
X42518Y-68603D01*
X43204Y-68832D02*
X43281Y-68870D01*
X43433Y-68870D01*
X43509Y-68832D01*
X43547Y-68756D01*
X43547Y-68717D01*
X43509Y-68641D01*
X43433Y-68603D01*
X43319Y-68603D01*
X43242Y-68565D01*
X43204Y-68489D01*
X43204Y-68451D01*
X43242Y-68375D01*
X43319Y-68336D01*
X43433Y-68336D01*
X43509Y-68375D01*
X43814Y-69175D02*
X43852Y-69136D01*
X43929Y-69022D01*
X43967Y-68946D01*
X44005Y-68832D01*
X44043Y-68641D01*
X44043Y-68489D01*
X44005Y-68298D01*
X43967Y-68184D01*
X43929Y-68108D01*
X43852Y-67994D01*
X43814Y-67956D01*
G54D10*
X26124Y-69601D02*
X26120Y-69639D01*
X26108Y-69677D01*
X26090Y-69711D01*
X26065Y-69741D01*
X26035Y-69766D01*
X26001Y-69785D01*
X25964Y-69796D01*
X25925Y-69800D01*
X25887Y-69797D01*
X25850Y-69786D01*
X25815Y-69768D01*
X25785Y-69743D01*
X25759Y-69713D01*
X25741Y-69679D01*
X25729Y-69642D01*
X25725Y-69603D01*
X25728Y-69565D01*
X25739Y-69528D01*
X25756Y-69493D01*
X25781Y-69463D01*
X25810Y-69437D01*
X25844Y-69418D01*
X25882Y-69406D01*
X25920Y-69402D01*
X25958Y-69405D01*
X25996Y-69415D01*
X26031Y-69433D01*
X26061Y-69457D01*
X26087Y-69486D01*
X26106Y-69520D01*
X26119Y-69557D01*
X26123Y-69596D01*
X26124Y-69601D01*
X25724Y-69401D02*
X26124Y-69801D01*
X26124Y-69401D02*
X25724Y-69801D01*
G54D12*
X26667Y-69125D02*
X26743Y-69125D01*
X26819Y-69163D01*
X26857Y-69201D01*
X26895Y-69277D01*
X26934Y-69430D01*
X26934Y-69620D01*
X26895Y-69772D01*
X26857Y-69849D01*
X26819Y-69887D01*
X26743Y-69925D01*
X26667Y-69925D01*
X26591Y-69887D01*
X26553Y-69849D01*
X26514Y-69772D01*
X26476Y-69620D01*
X26476Y-69430D01*
X26514Y-69277D01*
X26553Y-69201D01*
X26591Y-69163D01*
X26667Y-69125D01*
X27276Y-69849D02*
X27315Y-69887D01*
X27276Y-69925D01*
X27238Y-69887D01*
X27276Y-69849D01*
X27276Y-69925D01*
X27810Y-69125D02*
X27886Y-69125D01*
X27962Y-69163D01*
X28000Y-69201D01*
X28038Y-69277D01*
X28077Y-69430D01*
X28077Y-69620D01*
X28038Y-69772D01*
X28000Y-69849D01*
X27962Y-69887D01*
X27886Y-69925D01*
X27810Y-69925D01*
X27734Y-69887D01*
X27696Y-69849D01*
X27657Y-69772D01*
X27619Y-69620D01*
X27619Y-69430D01*
X27657Y-69277D01*
X27696Y-69201D01*
X27734Y-69163D01*
X27810Y-69125D01*
X28762Y-69391D02*
X28762Y-69925D01*
X28572Y-69087D02*
X28381Y-69658D01*
X28877Y-69658D01*
X29334Y-69125D02*
X29410Y-69125D01*
X29486Y-69163D01*
X29524Y-69201D01*
X29562Y-69277D01*
X29601Y-69430D01*
X29601Y-69620D01*
X29562Y-69772D01*
X29524Y-69849D01*
X29486Y-69887D01*
X29410Y-69925D01*
X29334Y-69925D01*
X29258Y-69887D01*
X29220Y-69849D01*
X29181Y-69772D01*
X29143Y-69620D01*
X29143Y-69430D01*
X29181Y-69277D01*
X29220Y-69201D01*
X29258Y-69163D01*
X29334Y-69125D01*
X29905Y-69125D02*
X29905Y-69277D01*
X30210Y-69125D02*
X30210Y-69277D01*
X31735Y-69087D02*
X31049Y-70115D01*
X33031Y-69925D02*
X32573Y-69925D01*
X32802Y-69925D02*
X32802Y-69125D01*
X32726Y-69239D01*
X32650Y-69315D01*
X32573Y-69353D01*
X33373Y-69849D02*
X33412Y-69887D01*
X33373Y-69925D01*
X33335Y-69887D01*
X33373Y-69849D01*
X33373Y-69925D01*
X33907Y-69125D02*
X33983Y-69125D01*
X34059Y-69163D01*
X34097Y-69201D01*
X34135Y-69277D01*
X34174Y-69430D01*
X34174Y-69620D01*
X34135Y-69772D01*
X34097Y-69849D01*
X34059Y-69887D01*
X33983Y-69925D01*
X33907Y-69925D01*
X33831Y-69887D01*
X33793Y-69849D01*
X33754Y-69772D01*
X33716Y-69620D01*
X33716Y-69430D01*
X33754Y-69277D01*
X33793Y-69201D01*
X33831Y-69163D01*
X33907Y-69125D01*
X34478Y-69201D02*
X34516Y-69163D01*
X34593Y-69125D01*
X34783Y-69125D01*
X34859Y-69163D01*
X34897Y-69201D01*
X34936Y-69277D01*
X34936Y-69353D01*
X34897Y-69468D01*
X34440Y-69925D01*
X34936Y-69925D01*
X35278Y-69925D02*
X35278Y-69391D01*
X35278Y-69468D02*
X35317Y-69430D01*
X35393Y-69391D01*
X35507Y-69391D01*
X35583Y-69430D01*
X35621Y-69506D01*
X35621Y-69925D01*
X35621Y-69506D02*
X35659Y-69430D01*
X35736Y-69391D01*
X35850Y-69391D01*
X35926Y-69430D01*
X35964Y-69506D01*
X35964Y-69925D01*
X36345Y-69925D02*
X36345Y-69391D01*
X36345Y-69468D02*
X36384Y-69430D01*
X36460Y-69391D01*
X36574Y-69391D01*
X36650Y-69430D01*
X36688Y-69506D01*
X36688Y-69925D01*
X36688Y-69506D02*
X36726Y-69430D01*
X36803Y-69391D01*
X36917Y-69391D01*
X36993Y-69430D01*
X37031Y-69506D01*
X37031Y-69925D01*
X38251Y-70230D02*
X38213Y-70191D01*
X38137Y-70077D01*
X38099Y-70001D01*
X38061Y-69887D01*
X38022Y-69696D01*
X38022Y-69544D01*
X38061Y-69353D01*
X38099Y-69239D01*
X38137Y-69163D01*
X38213Y-69049D01*
X38251Y-69011D01*
X38479Y-69125D02*
X38975Y-69125D01*
X38708Y-69430D01*
X38822Y-69430D01*
X38898Y-69468D01*
X38936Y-69506D01*
X38975Y-69582D01*
X38975Y-69772D01*
X38936Y-69849D01*
X38898Y-69887D01*
X38822Y-69925D01*
X38594Y-69925D01*
X38517Y-69887D01*
X38479Y-69849D01*
X39660Y-69125D02*
X39508Y-69125D01*
X39432Y-69163D01*
X39394Y-69201D01*
X39317Y-69315D01*
X39279Y-69468D01*
X39279Y-69772D01*
X39317Y-69849D01*
X39356Y-69887D01*
X39432Y-69925D01*
X39584Y-69925D01*
X39660Y-69887D01*
X39698Y-69849D01*
X39737Y-69772D01*
X39737Y-69582D01*
X39698Y-69506D01*
X39660Y-69468D01*
X39584Y-69430D01*
X39432Y-69430D01*
X39356Y-69468D01*
X39317Y-69506D01*
X39279Y-69582D01*
X40689Y-69925D02*
X40689Y-69125D01*
X41032Y-69925D02*
X41032Y-69506D01*
X40994Y-69430D01*
X40918Y-69391D01*
X40804Y-69391D01*
X40728Y-69430D01*
X40689Y-69468D01*
X41528Y-69925D02*
X41452Y-69887D01*
X41413Y-69849D01*
X41375Y-69772D01*
X41375Y-69544D01*
X41413Y-69468D01*
X41452Y-69430D01*
X41528Y-69391D01*
X41642Y-69391D01*
X41718Y-69430D01*
X41756Y-69468D01*
X41794Y-69544D01*
X41794Y-69772D01*
X41756Y-69849D01*
X41718Y-69887D01*
X41642Y-69925D01*
X41528Y-69925D01*
X42252Y-69925D02*
X42176Y-69887D01*
X42137Y-69811D01*
X42137Y-69125D01*
X42861Y-69887D02*
X42785Y-69925D01*
X42633Y-69925D01*
X42556Y-69887D01*
X42518Y-69811D01*
X42518Y-69506D01*
X42556Y-69430D01*
X42633Y-69391D01*
X42785Y-69391D01*
X42861Y-69430D01*
X42899Y-69506D01*
X42899Y-69582D01*
X42518Y-69658D01*
X43204Y-69887D02*
X43281Y-69925D01*
X43433Y-69925D01*
X43509Y-69887D01*
X43547Y-69811D01*
X43547Y-69772D01*
X43509Y-69696D01*
X43433Y-69658D01*
X43319Y-69658D01*
X43242Y-69620D01*
X43204Y-69544D01*
X43204Y-69506D01*
X43242Y-69430D01*
X43319Y-69391D01*
X43433Y-69391D01*
X43509Y-69430D01*
X43814Y-70230D02*
X43852Y-70191D01*
X43929Y-70077D01*
X43967Y-70001D01*
X44005Y-69887D01*
X44043Y-69696D01*
X44043Y-69544D01*
X44005Y-69353D01*
X43967Y-69239D01*
X43929Y-69163D01*
X43852Y-69049D01*
X43814Y-69011D01*
G54D10*
X26124Y-70656D02*
X26119Y-70704D01*
X26105Y-70751D01*
X26082Y-70794D01*
X26051Y-70832D01*
X26013Y-70863D01*
X25970Y-70886D01*
X25924Y-70900D01*
X25875Y-70905D01*
X25828Y-70901D01*
X25781Y-70887D01*
X25738Y-70865D01*
X25700Y-70834D01*
X25668Y-70797D01*
X25645Y-70754D01*
X25630Y-70707D01*
X25625Y-70659D01*
X25629Y-70611D01*
X25642Y-70564D01*
X25664Y-70521D01*
X25695Y-70483D01*
X25732Y-70451D01*
X25774Y-70427D01*
X25821Y-70412D01*
X25869Y-70407D01*
X25917Y-70410D01*
X25964Y-70423D01*
X26007Y-70445D01*
X26046Y-70475D01*
X26078Y-70512D01*
X26102Y-70555D01*
X26117Y-70601D01*
X26123Y-70650D01*
X26124Y-70656D01*
X25624Y-70656D02*
X26124Y-70656D01*
G54D12*
X26667Y-70180D02*
X26743Y-70180D01*
X26819Y-70218D01*
X26857Y-70256D01*
X26895Y-70332D01*
X26934Y-70485D01*
X26934Y-70675D01*
X26895Y-70827D01*
X26857Y-70904D01*
X26819Y-70942D01*
X26743Y-70980D01*
X26667Y-70980D01*
X26591Y-70942D01*
X26553Y-70904D01*
X26514Y-70827D01*
X26476Y-70675D01*
X26476Y-70485D01*
X26514Y-70332D01*
X26553Y-70256D01*
X26591Y-70218D01*
X26667Y-70180D01*
X27276Y-70904D02*
X27315Y-70942D01*
X27276Y-70980D01*
X27238Y-70942D01*
X27276Y-70904D01*
X27276Y-70980D01*
X27810Y-70180D02*
X27886Y-70180D01*
X27962Y-70218D01*
X28000Y-70256D01*
X28038Y-70332D01*
X28077Y-70485D01*
X28077Y-70675D01*
X28038Y-70827D01*
X28000Y-70904D01*
X27962Y-70942D01*
X27886Y-70980D01*
X27810Y-70980D01*
X27734Y-70942D01*
X27696Y-70904D01*
X27657Y-70827D01*
X27619Y-70675D01*
X27619Y-70485D01*
X27657Y-70332D01*
X27696Y-70256D01*
X27734Y-70218D01*
X27810Y-70180D01*
X28800Y-70180D02*
X28419Y-70180D01*
X28381Y-70561D01*
X28419Y-70523D01*
X28496Y-70485D01*
X28686Y-70485D01*
X28762Y-70523D01*
X28800Y-70561D01*
X28839Y-70637D01*
X28839Y-70827D01*
X28800Y-70904D01*
X28762Y-70942D01*
X28686Y-70980D01*
X28496Y-70980D01*
X28419Y-70942D01*
X28381Y-70904D01*
X29334Y-70180D02*
X29410Y-70180D01*
X29486Y-70218D01*
X29524Y-70256D01*
X29562Y-70332D01*
X29601Y-70485D01*
X29601Y-70675D01*
X29562Y-70827D01*
X29524Y-70904D01*
X29486Y-70942D01*
X29410Y-70980D01*
X29334Y-70980D01*
X29258Y-70942D01*
X29220Y-70904D01*
X29181Y-70827D01*
X29143Y-70675D01*
X29143Y-70485D01*
X29181Y-70332D01*
X29220Y-70256D01*
X29258Y-70218D01*
X29334Y-70180D01*
X29905Y-70180D02*
X29905Y-70332D01*
X30210Y-70180D02*
X30210Y-70332D01*
X31735Y-70142D02*
X31049Y-71170D01*
X33031Y-70980D02*
X32573Y-70980D01*
X32802Y-70980D02*
X32802Y-70180D01*
X32726Y-70294D01*
X32650Y-70370D01*
X32573Y-70408D01*
X33373Y-70904D02*
X33412Y-70942D01*
X33373Y-70980D01*
X33335Y-70942D01*
X33373Y-70904D01*
X33373Y-70980D01*
X33716Y-70256D02*
X33754Y-70218D01*
X33831Y-70180D01*
X34021Y-70180D01*
X34097Y-70218D01*
X34135Y-70256D01*
X34174Y-70332D01*
X34174Y-70408D01*
X34135Y-70523D01*
X33678Y-70980D01*
X34174Y-70980D01*
X34440Y-70180D02*
X34974Y-70180D01*
X34631Y-70980D01*
X35278Y-70980D02*
X35278Y-70446D01*
X35278Y-70523D02*
X35317Y-70485D01*
X35393Y-70446D01*
X35507Y-70446D01*
X35583Y-70485D01*
X35621Y-70561D01*
X35621Y-70980D01*
X35621Y-70561D02*
X35659Y-70485D01*
X35736Y-70446D01*
X35850Y-70446D01*
X35926Y-70485D01*
X35964Y-70561D01*
X35964Y-70980D01*
X36345Y-70980D02*
X36345Y-70446D01*
X36345Y-70523D02*
X36384Y-70485D01*
X36460Y-70446D01*
X36574Y-70446D01*
X36650Y-70485D01*
X36688Y-70561D01*
X36688Y-70980D01*
X36688Y-70561D02*
X36726Y-70485D01*
X36803Y-70446D01*
X36917Y-70446D01*
X36993Y-70485D01*
X37031Y-70561D01*
X37031Y-70980D01*
X38251Y-71285D02*
X38213Y-71246D01*
X38137Y-71132D01*
X38099Y-71056D01*
X38061Y-70942D01*
X38022Y-70751D01*
X38022Y-70599D01*
X38061Y-70408D01*
X38099Y-70294D01*
X38137Y-70218D01*
X38213Y-70104D01*
X38251Y-70066D01*
X38479Y-70180D02*
X38975Y-70180D01*
X38708Y-70485D01*
X38822Y-70485D01*
X38898Y-70523D01*
X38936Y-70561D01*
X38975Y-70637D01*
X38975Y-70827D01*
X38936Y-70904D01*
X38898Y-70942D01*
X38822Y-70980D01*
X38594Y-70980D01*
X38517Y-70942D01*
X38479Y-70904D01*
X39927Y-70980D02*
X39927Y-70180D01*
X40270Y-70980D02*
X40270Y-70561D01*
X40232Y-70485D01*
X40156Y-70446D01*
X40042Y-70446D01*
X39966Y-70485D01*
X39927Y-70523D01*
X40766Y-70980D02*
X40690Y-70942D01*
X40651Y-70904D01*
X40613Y-70827D01*
X40613Y-70599D01*
X40651Y-70523D01*
X40690Y-70485D01*
X40766Y-70446D01*
X40880Y-70446D01*
X40956Y-70485D01*
X40994Y-70523D01*
X41032Y-70599D01*
X41032Y-70827D01*
X40994Y-70904D01*
X40956Y-70942D01*
X40880Y-70980D01*
X40766Y-70980D01*
X41490Y-70980D02*
X41414Y-70942D01*
X41375Y-70866D01*
X41375Y-70180D01*
X42099Y-70942D02*
X42023Y-70980D01*
X41871Y-70980D01*
X41794Y-70942D01*
X41756Y-70866D01*
X41756Y-70561D01*
X41794Y-70485D01*
X41871Y-70446D01*
X42023Y-70446D01*
X42099Y-70485D01*
X42137Y-70561D01*
X42137Y-70637D01*
X41756Y-70713D01*
X42442Y-70942D02*
X42519Y-70980D01*
X42671Y-70980D01*
X42747Y-70942D01*
X42785Y-70866D01*
X42785Y-70827D01*
X42747Y-70751D01*
X42671Y-70713D01*
X42557Y-70713D01*
X42480Y-70675D01*
X42442Y-70599D01*
X42442Y-70561D01*
X42480Y-70485D01*
X42557Y-70446D01*
X42671Y-70446D01*
X42747Y-70485D01*
X43052Y-71285D02*
X43090Y-71246D01*
X43167Y-71132D01*
X43205Y-71056D01*
X43243Y-70942D01*
X43281Y-70751D01*
X43281Y-70599D01*
X43243Y-70408D01*
X43205Y-70294D01*
X43167Y-70218D01*
X43090Y-70104D01*
X43052Y-70066D01*
G54D10*
X26124Y-71711D02*
X26112Y-71827D01*
X26078Y-71939D01*
X26023Y-72043D01*
X25949Y-72133D01*
X25859Y-72208D01*
X25756Y-72264D01*
X25644Y-72298D01*
X25528Y-72310D01*
X25412Y-72300D01*
X25300Y-72267D01*
X25196Y-72213D01*
X25105Y-72139D01*
X25029Y-72049D01*
X24973Y-71947D01*
X24938Y-71835D01*
X24925Y-71719D01*
X24934Y-71603D01*
X24967Y-71491D01*
X25020Y-71386D01*
X25093Y-71295D01*
X25182Y-71219D01*
X25284Y-71162D01*
X25396Y-71125D01*
X25512Y-71112D01*
X25628Y-71121D01*
X25740Y-71152D01*
X25845Y-71205D01*
X25937Y-71277D01*
X26014Y-71366D01*
X26072Y-71467D01*
X26109Y-71579D01*
X26123Y-71695D01*
X26124Y-71711D01*
X25524Y-71111D02*
X25524Y-72311D01*
G54D12*
X26667Y-71235D02*
X26743Y-71235D01*
X26819Y-71273D01*
X26857Y-71311D01*
X26895Y-71387D01*
X26934Y-71540D01*
X26934Y-71730D01*
X26895Y-71882D01*
X26857Y-71959D01*
X26819Y-71997D01*
X26743Y-72035D01*
X26667Y-72035D01*
X26591Y-71997D01*
X26553Y-71959D01*
X26514Y-71882D01*
X26476Y-71730D01*
X26476Y-71540D01*
X26514Y-71387D01*
X26553Y-71311D01*
X26591Y-71273D01*
X26667Y-71235D01*
X27276Y-71959D02*
X27315Y-71997D01*
X27276Y-72035D01*
X27238Y-71997D01*
X27276Y-71959D01*
X27276Y-72035D01*
X28077Y-72035D02*
X27619Y-72035D01*
X27848Y-72035D02*
X27848Y-71235D01*
X27772Y-71349D01*
X27696Y-71425D01*
X27619Y-71463D01*
X28381Y-71311D02*
X28419Y-71273D01*
X28496Y-71235D01*
X28686Y-71235D01*
X28762Y-71273D01*
X28800Y-71311D01*
X28839Y-71387D01*
X28839Y-71463D01*
X28800Y-71578D01*
X28343Y-72035D01*
X28839Y-72035D01*
X29334Y-71235D02*
X29410Y-71235D01*
X29486Y-71273D01*
X29524Y-71311D01*
X29562Y-71387D01*
X29601Y-71540D01*
X29601Y-71730D01*
X29562Y-71882D01*
X29524Y-71959D01*
X29486Y-71997D01*
X29410Y-72035D01*
X29334Y-72035D01*
X29258Y-71997D01*
X29220Y-71959D01*
X29181Y-71882D01*
X29143Y-71730D01*
X29143Y-71540D01*
X29181Y-71387D01*
X29220Y-71311D01*
X29258Y-71273D01*
X29334Y-71235D01*
X29905Y-71235D02*
X29905Y-71387D01*
X30210Y-71235D02*
X30210Y-71387D01*
X31735Y-71197D02*
X31049Y-72225D01*
X32535Y-71235D02*
X33031Y-71235D01*
X32764Y-71540D01*
X32878Y-71540D01*
X32954Y-71578D01*
X32992Y-71616D01*
X33031Y-71692D01*
X33031Y-71882D01*
X32992Y-71959D01*
X32954Y-71997D01*
X32878Y-72035D01*
X32650Y-72035D01*
X32573Y-71997D01*
X32535Y-71959D01*
X33373Y-71959D02*
X33412Y-71997D01*
X33373Y-72035D01*
X33335Y-71997D01*
X33373Y-71959D01*
X33373Y-72035D01*
X33907Y-71235D02*
X33983Y-71235D01*
X34059Y-71273D01*
X34097Y-71311D01*
X34135Y-71387D01*
X34174Y-71540D01*
X34174Y-71730D01*
X34135Y-71882D01*
X34097Y-71959D01*
X34059Y-71997D01*
X33983Y-72035D01*
X33907Y-72035D01*
X33831Y-71997D01*
X33793Y-71959D01*
X33754Y-71882D01*
X33716Y-71730D01*
X33716Y-71540D01*
X33754Y-71387D01*
X33793Y-71311D01*
X33831Y-71273D01*
X33907Y-71235D01*
X34897Y-71235D02*
X34516Y-71235D01*
X34478Y-71616D01*
X34516Y-71578D01*
X34593Y-71540D01*
X34783Y-71540D01*
X34859Y-71578D01*
X34897Y-71616D01*
X34936Y-71692D01*
X34936Y-71882D01*
X34897Y-71959D01*
X34859Y-71997D01*
X34783Y-72035D01*
X34593Y-72035D01*
X34516Y-71997D01*
X34478Y-71959D01*
X35278Y-72035D02*
X35278Y-71501D01*
X35278Y-71578D02*
X35317Y-71540D01*
X35393Y-71501D01*
X35507Y-71501D01*
X35583Y-71540D01*
X35621Y-71616D01*
X35621Y-72035D01*
X35621Y-71616D02*
X35659Y-71540D01*
X35736Y-71501D01*
X35850Y-71501D01*
X35926Y-71540D01*
X35964Y-71616D01*
X35964Y-72035D01*
X36345Y-72035D02*
X36345Y-71501D01*
X36345Y-71578D02*
X36384Y-71540D01*
X36460Y-71501D01*
X36574Y-71501D01*
X36650Y-71540D01*
X36688Y-71616D01*
X36688Y-72035D01*
X36688Y-71616D02*
X36726Y-71540D01*
X36803Y-71501D01*
X36917Y-71501D01*
X36993Y-71540D01*
X37031Y-71616D01*
X37031Y-72035D01*
X38251Y-72340D02*
X38213Y-72301D01*
X38137Y-72187D01*
X38099Y-72111D01*
X38061Y-71997D01*
X38022Y-71806D01*
X38022Y-71654D01*
X38061Y-71463D01*
X38099Y-71349D01*
X38137Y-71273D01*
X38213Y-71159D01*
X38251Y-71121D01*
X38670Y-71578D02*
X38594Y-71540D01*
X38555Y-71501D01*
X38517Y-71425D01*
X38517Y-71387D01*
X38555Y-71311D01*
X38594Y-71273D01*
X38670Y-71235D01*
X38822Y-71235D01*
X38898Y-71273D01*
X38936Y-71311D01*
X38975Y-71387D01*
X38975Y-71425D01*
X38936Y-71501D01*
X38898Y-71540D01*
X38822Y-71578D01*
X38670Y-71578D01*
X38594Y-71616D01*
X38555Y-71654D01*
X38517Y-71730D01*
X38517Y-71882D01*
X38555Y-71959D01*
X38594Y-71997D01*
X38670Y-72035D01*
X38822Y-72035D01*
X38898Y-71997D01*
X38936Y-71959D01*
X38975Y-71882D01*
X38975Y-71730D01*
X38936Y-71654D01*
X38898Y-71616D01*
X38822Y-71578D01*
X39927Y-72035D02*
X39927Y-71235D01*
X40270Y-72035D02*
X40270Y-71616D01*
X40232Y-71540D01*
X40156Y-71501D01*
X40042Y-71501D01*
X39966Y-71540D01*
X39927Y-71578D01*
X40766Y-72035D02*
X40690Y-71997D01*
X40651Y-71959D01*
X40613Y-71882D01*
X40613Y-71654D01*
X40651Y-71578D01*
X40690Y-71540D01*
X40766Y-71501D01*
X40880Y-71501D01*
X40956Y-71540D01*
X40994Y-71578D01*
X41032Y-71654D01*
X41032Y-71882D01*
X40994Y-71959D01*
X40956Y-71997D01*
X40880Y-72035D01*
X40766Y-72035D01*
X41490Y-72035D02*
X41414Y-71997D01*
X41375Y-71921D01*
X41375Y-71235D01*
X42099Y-71997D02*
X42023Y-72035D01*
X41871Y-72035D01*
X41794Y-71997D01*
X41756Y-71921D01*
X41756Y-71616D01*
X41794Y-71540D01*
X41871Y-71501D01*
X42023Y-71501D01*
X42099Y-71540D01*
X42137Y-71616D01*
X42137Y-71692D01*
X41756Y-71768D01*
X42442Y-71997D02*
X42519Y-72035D01*
X42671Y-72035D01*
X42747Y-71997D01*
X42785Y-71921D01*
X42785Y-71882D01*
X42747Y-71806D01*
X42671Y-71768D01*
X42557Y-71768D01*
X42480Y-71730D01*
X42442Y-71654D01*
X42442Y-71616D01*
X42480Y-71540D01*
X42557Y-71501D01*
X42671Y-71501D01*
X42747Y-71540D01*
X43052Y-72340D02*
X43090Y-72301D01*
X43167Y-72187D01*
X43205Y-72111D01*
X43243Y-71997D01*
X43281Y-71806D01*
X43281Y-71654D01*
X43243Y-71463D01*
X43205Y-71349D01*
X43167Y-71273D01*
X43090Y-71159D01*
X43052Y-71121D01*
M02*
