G04 (created by PCBNEW-RS274X (2010-04-21 BZR 23xx)-stable) date Wed 04 May 2011 08:30:49 PM CEST*
G01*
G70*
G90*
%MOIN*%
G04 Gerber Fmt 3.4, Leading zero omitted, Abs format*
%FSLAX34Y34*%
G04 APERTURE LIST*
%ADD10C,0.006000*%
%ADD11C,0.002600*%
%ADD12C,0.002000*%
%ADD13C,0.004000*%
%ADD14C,0.008000*%
G04 APERTURE END LIST*
G54D10*
G54D11*
X84925Y-52240D02*
X84925Y-51985D01*
X84925Y-51985D02*
X85476Y-51985D01*
X85476Y-52240D02*
X85476Y-51985D01*
X84925Y-52240D02*
X85476Y-52240D01*
X84925Y-52820D02*
X84925Y-52564D01*
X84925Y-52564D02*
X85476Y-52564D01*
X85476Y-52820D02*
X85476Y-52564D01*
X84925Y-52820D02*
X85476Y-52820D01*
X85004Y-52478D02*
X85004Y-52322D01*
X85004Y-52322D02*
X85396Y-52322D01*
X85396Y-52478D02*
X85396Y-52322D01*
X85004Y-52478D02*
X85396Y-52478D01*
G54D10*
X85450Y-52561D02*
X85450Y-52239D01*
X84950Y-52561D02*
X84950Y-52239D01*
G54D12*
X85587Y-53176D02*
X85587Y-51624D01*
X85587Y-51624D02*
X84813Y-51624D01*
X84813Y-51624D02*
X84813Y-53176D01*
X84813Y-53176D02*
X85587Y-53176D01*
G54D11*
X87175Y-52560D02*
X87175Y-52815D01*
X87175Y-52815D02*
X86624Y-52815D01*
X86624Y-52560D02*
X86624Y-52815D01*
X87175Y-52560D02*
X86624Y-52560D01*
X87175Y-51980D02*
X87175Y-52236D01*
X87175Y-52236D02*
X86624Y-52236D01*
X86624Y-51980D02*
X86624Y-52236D01*
X87175Y-51980D02*
X86624Y-51980D01*
X87096Y-52322D02*
X87096Y-52478D01*
X87096Y-52478D02*
X86704Y-52478D01*
X86704Y-52322D02*
X86704Y-52478D01*
X87096Y-52322D02*
X86704Y-52322D01*
G54D10*
X86650Y-52239D02*
X86650Y-52561D01*
X87150Y-52239D02*
X87150Y-52561D01*
G54D12*
X86513Y-51624D02*
X86513Y-53176D01*
X86513Y-53176D02*
X87287Y-53176D01*
X87287Y-53176D02*
X87287Y-51624D01*
X87287Y-51624D02*
X86513Y-51624D01*
G54D11*
X88075Y-52560D02*
X88075Y-52815D01*
X88075Y-52815D02*
X87524Y-52815D01*
X87524Y-52560D02*
X87524Y-52815D01*
X88075Y-52560D02*
X87524Y-52560D01*
X88075Y-51980D02*
X88075Y-52236D01*
X88075Y-52236D02*
X87524Y-52236D01*
X87524Y-51980D02*
X87524Y-52236D01*
X88075Y-51980D02*
X87524Y-51980D01*
X87996Y-52322D02*
X87996Y-52478D01*
X87996Y-52478D02*
X87604Y-52478D01*
X87604Y-52322D02*
X87604Y-52478D01*
X87996Y-52322D02*
X87604Y-52322D01*
G54D10*
X87550Y-52239D02*
X87550Y-52561D01*
X88050Y-52239D02*
X88050Y-52561D01*
G54D12*
X87413Y-51624D02*
X87413Y-53176D01*
X87413Y-53176D02*
X88187Y-53176D01*
X88187Y-53176D02*
X88187Y-51624D01*
X88187Y-51624D02*
X87413Y-51624D01*
G54D11*
X89225Y-52240D02*
X89225Y-51985D01*
X89225Y-51985D02*
X89776Y-51985D01*
X89776Y-52240D02*
X89776Y-51985D01*
X89225Y-52240D02*
X89776Y-52240D01*
X89225Y-52820D02*
X89225Y-52564D01*
X89225Y-52564D02*
X89776Y-52564D01*
X89776Y-52820D02*
X89776Y-52564D01*
X89225Y-52820D02*
X89776Y-52820D01*
X89304Y-52478D02*
X89304Y-52322D01*
X89304Y-52322D02*
X89696Y-52322D01*
X89696Y-52478D02*
X89696Y-52322D01*
X89304Y-52478D02*
X89696Y-52478D01*
G54D10*
X89750Y-52561D02*
X89750Y-52239D01*
X89250Y-52561D02*
X89250Y-52239D01*
G54D12*
X89887Y-53176D02*
X89887Y-51624D01*
X89887Y-51624D02*
X89113Y-51624D01*
X89113Y-51624D02*
X89113Y-53176D01*
X89113Y-53176D02*
X89887Y-53176D01*
G54D11*
X82675Y-52560D02*
X82675Y-52815D01*
X82675Y-52815D02*
X82124Y-52815D01*
X82124Y-52560D02*
X82124Y-52815D01*
X82675Y-52560D02*
X82124Y-52560D01*
X82675Y-51980D02*
X82675Y-52236D01*
X82675Y-52236D02*
X82124Y-52236D01*
X82124Y-51980D02*
X82124Y-52236D01*
X82675Y-51980D02*
X82124Y-51980D01*
X82596Y-52322D02*
X82596Y-52478D01*
X82596Y-52478D02*
X82204Y-52478D01*
X82204Y-52322D02*
X82204Y-52478D01*
X82596Y-52322D02*
X82204Y-52322D01*
G54D10*
X82150Y-52239D02*
X82150Y-52561D01*
X82650Y-52239D02*
X82650Y-52561D01*
G54D12*
X82013Y-51624D02*
X82013Y-53176D01*
X82013Y-53176D02*
X82787Y-53176D01*
X82787Y-53176D02*
X82787Y-51624D01*
X82787Y-51624D02*
X82013Y-51624D01*
G54D11*
X81225Y-52240D02*
X81225Y-51985D01*
X81225Y-51985D02*
X81776Y-51985D01*
X81776Y-52240D02*
X81776Y-51985D01*
X81225Y-52240D02*
X81776Y-52240D01*
X81225Y-52820D02*
X81225Y-52564D01*
X81225Y-52564D02*
X81776Y-52564D01*
X81776Y-52820D02*
X81776Y-52564D01*
X81225Y-52820D02*
X81776Y-52820D01*
X81304Y-52478D02*
X81304Y-52322D01*
X81304Y-52322D02*
X81696Y-52322D01*
X81696Y-52478D02*
X81696Y-52322D01*
X81304Y-52478D02*
X81696Y-52478D01*
G54D10*
X81750Y-52561D02*
X81750Y-52239D01*
X81250Y-52561D02*
X81250Y-52239D01*
G54D12*
X81887Y-53176D02*
X81887Y-51624D01*
X81887Y-51624D02*
X81113Y-51624D01*
X81113Y-51624D02*
X81113Y-53176D01*
X81113Y-53176D02*
X81887Y-53176D01*
G54D11*
X76725Y-52240D02*
X76725Y-51985D01*
X76725Y-51985D02*
X77276Y-51985D01*
X77276Y-52240D02*
X77276Y-51985D01*
X76725Y-52240D02*
X77276Y-52240D01*
X76725Y-52820D02*
X76725Y-52564D01*
X76725Y-52564D02*
X77276Y-52564D01*
X77276Y-52820D02*
X77276Y-52564D01*
X76725Y-52820D02*
X77276Y-52820D01*
X76804Y-52478D02*
X76804Y-52322D01*
X76804Y-52322D02*
X77196Y-52322D01*
X77196Y-52478D02*
X77196Y-52322D01*
X76804Y-52478D02*
X77196Y-52478D01*
G54D10*
X77250Y-52561D02*
X77250Y-52239D01*
X76750Y-52561D02*
X76750Y-52239D01*
G54D12*
X77387Y-53176D02*
X77387Y-51624D01*
X77387Y-51624D02*
X76613Y-51624D01*
X76613Y-51624D02*
X76613Y-53176D01*
X76613Y-53176D02*
X77387Y-53176D01*
G54D11*
X75825Y-52240D02*
X75825Y-51985D01*
X75825Y-51985D02*
X76376Y-51985D01*
X76376Y-52240D02*
X76376Y-51985D01*
X75825Y-52240D02*
X76376Y-52240D01*
X75825Y-52820D02*
X75825Y-52564D01*
X75825Y-52564D02*
X76376Y-52564D01*
X76376Y-52820D02*
X76376Y-52564D01*
X75825Y-52820D02*
X76376Y-52820D01*
X75904Y-52478D02*
X75904Y-52322D01*
X75904Y-52322D02*
X76296Y-52322D01*
X76296Y-52478D02*
X76296Y-52322D01*
X75904Y-52478D02*
X76296Y-52478D01*
G54D10*
X76350Y-52561D02*
X76350Y-52239D01*
X75850Y-52561D02*
X75850Y-52239D01*
G54D12*
X76487Y-53176D02*
X76487Y-51624D01*
X76487Y-51624D02*
X75713Y-51624D01*
X75713Y-51624D02*
X75713Y-53176D01*
X75713Y-53176D02*
X76487Y-53176D01*
G54D11*
X75540Y-56975D02*
X75285Y-56975D01*
X75285Y-56975D02*
X75285Y-56424D01*
X75540Y-56424D02*
X75285Y-56424D01*
X75540Y-56975D02*
X75540Y-56424D01*
X76120Y-56975D02*
X75864Y-56975D01*
X75864Y-56975D02*
X75864Y-56424D01*
X76120Y-56424D02*
X75864Y-56424D01*
X76120Y-56975D02*
X76120Y-56424D01*
X75778Y-56896D02*
X75622Y-56896D01*
X75622Y-56896D02*
X75622Y-56504D01*
X75778Y-56504D02*
X75622Y-56504D01*
X75778Y-56896D02*
X75778Y-56504D01*
G54D10*
X75861Y-56450D02*
X75539Y-56450D01*
X75861Y-56950D02*
X75539Y-56950D01*
G54D12*
X76476Y-56313D02*
X74924Y-56313D01*
X74924Y-56313D02*
X74924Y-57087D01*
X74924Y-57087D02*
X76476Y-57087D01*
X76476Y-57087D02*
X76476Y-56313D01*
G54D11*
X74675Y-52560D02*
X74675Y-52815D01*
X74675Y-52815D02*
X74124Y-52815D01*
X74124Y-52560D02*
X74124Y-52815D01*
X74675Y-52560D02*
X74124Y-52560D01*
X74675Y-51980D02*
X74675Y-52236D01*
X74675Y-52236D02*
X74124Y-52236D01*
X74124Y-51980D02*
X74124Y-52236D01*
X74675Y-51980D02*
X74124Y-51980D01*
X74596Y-52322D02*
X74596Y-52478D01*
X74596Y-52478D02*
X74204Y-52478D01*
X74204Y-52322D02*
X74204Y-52478D01*
X74596Y-52322D02*
X74204Y-52322D01*
G54D10*
X74150Y-52239D02*
X74150Y-52561D01*
X74650Y-52239D02*
X74650Y-52561D01*
G54D12*
X74013Y-51624D02*
X74013Y-53176D01*
X74013Y-53176D02*
X74787Y-53176D01*
X74787Y-53176D02*
X74787Y-51624D01*
X74787Y-51624D02*
X74013Y-51624D01*
G54D11*
X82429Y-59385D02*
X82134Y-59385D01*
X82134Y-59385D02*
X82134Y-58815D01*
X82429Y-58815D02*
X82134Y-58815D01*
X82429Y-59385D02*
X82429Y-58815D01*
X81860Y-59385D02*
X81565Y-59385D01*
X81565Y-59385D02*
X81565Y-58815D01*
X81860Y-58815D02*
X81565Y-58815D01*
X81860Y-59385D02*
X81860Y-58815D01*
X82039Y-59257D02*
X81961Y-59257D01*
X81961Y-59257D02*
X81961Y-58943D01*
X82039Y-58943D02*
X81961Y-58943D01*
X82039Y-59257D02*
X82039Y-58943D01*
G54D12*
X82776Y-58713D02*
X81224Y-58713D01*
X81224Y-59487D02*
X82776Y-59487D01*
X82776Y-59487D02*
X82776Y-58713D01*
G54D13*
X82150Y-58841D02*
X81850Y-58841D01*
X82140Y-59359D02*
X81850Y-59359D01*
G54D12*
X81224Y-58713D02*
X81224Y-59487D01*
G54D11*
X75271Y-54415D02*
X75566Y-54415D01*
X75566Y-54415D02*
X75566Y-54985D01*
X75271Y-54985D02*
X75566Y-54985D01*
X75271Y-54415D02*
X75271Y-54985D01*
X75840Y-54415D02*
X76135Y-54415D01*
X76135Y-54415D02*
X76135Y-54985D01*
X75840Y-54985D02*
X76135Y-54985D01*
X75840Y-54415D02*
X75840Y-54985D01*
X75661Y-54543D02*
X75739Y-54543D01*
X75739Y-54543D02*
X75739Y-54857D01*
X75661Y-54857D02*
X75739Y-54857D01*
X75661Y-54543D02*
X75661Y-54857D01*
G54D12*
X74924Y-55087D02*
X76476Y-55087D01*
X76476Y-54313D02*
X74924Y-54313D01*
X74924Y-54313D02*
X74924Y-55087D01*
G54D13*
X75550Y-54959D02*
X75850Y-54959D01*
X75560Y-54441D02*
X75850Y-54441D01*
G54D12*
X76476Y-55087D02*
X76476Y-54313D01*
G54D11*
X82335Y-55130D02*
X82335Y-55426D01*
X82335Y-55426D02*
X81666Y-55426D01*
X81666Y-55130D02*
X81666Y-55426D01*
X82335Y-55130D02*
X81666Y-55130D01*
X82334Y-56174D02*
X82334Y-56470D01*
X82334Y-56470D02*
X81665Y-56470D01*
X81665Y-56174D02*
X81665Y-56470D01*
X82334Y-56174D02*
X81665Y-56174D01*
X82157Y-55722D02*
X82157Y-55878D01*
X82157Y-55878D02*
X81843Y-55878D01*
X81843Y-55722D02*
X81843Y-55878D01*
X82157Y-55722D02*
X81843Y-55722D01*
G54D12*
X81613Y-54827D02*
X81613Y-56773D01*
X82387Y-56773D02*
X82387Y-54827D01*
X82387Y-54827D02*
X81613Y-54827D01*
X81613Y-56773D02*
X82387Y-56773D01*
G54D13*
X81691Y-55421D02*
X81691Y-56179D01*
X82309Y-55421D02*
X82309Y-56179D01*
G54D11*
X82670Y-58435D02*
X82374Y-58435D01*
X82374Y-58435D02*
X82374Y-57766D01*
X82670Y-57766D02*
X82374Y-57766D01*
X82670Y-58435D02*
X82670Y-57766D01*
X81626Y-58434D02*
X81330Y-58434D01*
X81330Y-58434D02*
X81330Y-57765D01*
X81626Y-57765D02*
X81330Y-57765D01*
X81626Y-58434D02*
X81626Y-57765D01*
X82078Y-58257D02*
X81922Y-58257D01*
X81922Y-58257D02*
X81922Y-57943D01*
X82078Y-57943D02*
X81922Y-57943D01*
X82078Y-58257D02*
X82078Y-57943D01*
G54D12*
X82973Y-57713D02*
X81027Y-57713D01*
X81027Y-58487D02*
X82973Y-58487D01*
X82973Y-58487D02*
X82973Y-57713D01*
X81027Y-57713D02*
X81027Y-58487D01*
G54D13*
X82379Y-57791D02*
X81621Y-57791D01*
X82379Y-58409D02*
X81621Y-58409D01*
G54D11*
X75030Y-55365D02*
X75326Y-55365D01*
X75326Y-55365D02*
X75326Y-56034D01*
X75030Y-56034D02*
X75326Y-56034D01*
X75030Y-55365D02*
X75030Y-56034D01*
X76074Y-55366D02*
X76370Y-55366D01*
X76370Y-55366D02*
X76370Y-56035D01*
X76074Y-56035D02*
X76370Y-56035D01*
X76074Y-55366D02*
X76074Y-56035D01*
X75622Y-55543D02*
X75778Y-55543D01*
X75778Y-55543D02*
X75778Y-55857D01*
X75622Y-55857D02*
X75778Y-55857D01*
X75622Y-55543D02*
X75622Y-55857D01*
G54D12*
X74727Y-56087D02*
X76673Y-56087D01*
X76673Y-55313D02*
X74727Y-55313D01*
X74727Y-55313D02*
X74727Y-56087D01*
X76673Y-56087D02*
X76673Y-55313D01*
G54D13*
X75321Y-56009D02*
X76079Y-56009D01*
X75321Y-55391D02*
X76079Y-55391D01*
G54D14*
X85283Y-51402D02*
X85450Y-51164D01*
X85569Y-51402D02*
X85569Y-50902D01*
X85378Y-50902D01*
X85331Y-50926D01*
X85307Y-50950D01*
X85283Y-50998D01*
X85283Y-51069D01*
X85307Y-51117D01*
X85331Y-51140D01*
X85378Y-51164D01*
X85569Y-51164D01*
X85045Y-51402D02*
X84950Y-51402D01*
X84902Y-51379D01*
X84878Y-51355D01*
X84831Y-51283D01*
X84807Y-51188D01*
X84807Y-50998D01*
X84831Y-50950D01*
X84855Y-50926D01*
X84902Y-50902D01*
X84998Y-50902D01*
X85045Y-50926D01*
X85069Y-50950D01*
X85093Y-50998D01*
X85093Y-51117D01*
X85069Y-51164D01*
X85045Y-51188D01*
X84998Y-51212D01*
X84902Y-51212D01*
X84855Y-51188D01*
X84831Y-51164D01*
X84807Y-51117D01*
X86983Y-51402D02*
X87150Y-51164D01*
X87269Y-51402D02*
X87269Y-50902D01*
X87078Y-50902D01*
X87031Y-50926D01*
X87007Y-50950D01*
X86983Y-50998D01*
X86983Y-51069D01*
X87007Y-51117D01*
X87031Y-51140D01*
X87078Y-51164D01*
X87269Y-51164D01*
X86698Y-51117D02*
X86745Y-51093D01*
X86769Y-51069D01*
X86793Y-51021D01*
X86793Y-50998D01*
X86769Y-50950D01*
X86745Y-50926D01*
X86698Y-50902D01*
X86602Y-50902D01*
X86555Y-50926D01*
X86531Y-50950D01*
X86507Y-50998D01*
X86507Y-51021D01*
X86531Y-51069D01*
X86555Y-51093D01*
X86602Y-51117D01*
X86698Y-51117D01*
X86745Y-51140D01*
X86769Y-51164D01*
X86793Y-51212D01*
X86793Y-51307D01*
X86769Y-51355D01*
X86745Y-51379D01*
X86698Y-51402D01*
X86602Y-51402D01*
X86555Y-51379D01*
X86531Y-51355D01*
X86507Y-51307D01*
X86507Y-51212D01*
X86531Y-51164D01*
X86555Y-51140D01*
X86602Y-51117D01*
X87883Y-51402D02*
X88050Y-51164D01*
X88169Y-51402D02*
X88169Y-50902D01*
X87978Y-50902D01*
X87931Y-50926D01*
X87907Y-50950D01*
X87883Y-50998D01*
X87883Y-51069D01*
X87907Y-51117D01*
X87931Y-51140D01*
X87978Y-51164D01*
X88169Y-51164D01*
X87717Y-50902D02*
X87383Y-50902D01*
X87598Y-51402D01*
X89583Y-51402D02*
X89750Y-51164D01*
X89869Y-51402D02*
X89869Y-50902D01*
X89678Y-50902D01*
X89631Y-50926D01*
X89607Y-50950D01*
X89583Y-50998D01*
X89583Y-51069D01*
X89607Y-51117D01*
X89631Y-51140D01*
X89678Y-51164D01*
X89869Y-51164D01*
X89155Y-50902D02*
X89250Y-50902D01*
X89298Y-50926D01*
X89321Y-50950D01*
X89369Y-51021D01*
X89393Y-51117D01*
X89393Y-51307D01*
X89369Y-51355D01*
X89345Y-51379D01*
X89298Y-51402D01*
X89202Y-51402D01*
X89155Y-51379D01*
X89131Y-51355D01*
X89107Y-51307D01*
X89107Y-51188D01*
X89131Y-51140D01*
X89155Y-51117D01*
X89202Y-51093D01*
X89298Y-51093D01*
X89345Y-51117D01*
X89369Y-51140D01*
X89393Y-51188D01*
X82483Y-53802D02*
X82650Y-53564D01*
X82769Y-53802D02*
X82769Y-53302D01*
X82578Y-53302D01*
X82531Y-53326D01*
X82507Y-53350D01*
X82483Y-53398D01*
X82483Y-53469D01*
X82507Y-53517D01*
X82531Y-53540D01*
X82578Y-53564D01*
X82769Y-53564D01*
X82031Y-53302D02*
X82269Y-53302D01*
X82293Y-53540D01*
X82269Y-53517D01*
X82221Y-53493D01*
X82102Y-53493D01*
X82055Y-53517D01*
X82031Y-53540D01*
X82007Y-53588D01*
X82007Y-53707D01*
X82031Y-53755D01*
X82055Y-53779D01*
X82102Y-53802D01*
X82221Y-53802D01*
X82269Y-53779D01*
X82293Y-53755D01*
X81583Y-53802D02*
X81750Y-53564D01*
X81869Y-53802D02*
X81869Y-53302D01*
X81678Y-53302D01*
X81631Y-53326D01*
X81607Y-53350D01*
X81583Y-53398D01*
X81583Y-53469D01*
X81607Y-53517D01*
X81631Y-53540D01*
X81678Y-53564D01*
X81869Y-53564D01*
X81155Y-53469D02*
X81155Y-53802D01*
X81274Y-53279D02*
X81393Y-53636D01*
X81083Y-53636D01*
X77083Y-53802D02*
X77250Y-53564D01*
X77369Y-53802D02*
X77369Y-53302D01*
X77178Y-53302D01*
X77131Y-53326D01*
X77107Y-53350D01*
X77083Y-53398D01*
X77083Y-53469D01*
X77107Y-53517D01*
X77131Y-53540D01*
X77178Y-53564D01*
X77369Y-53564D01*
X76917Y-53302D02*
X76607Y-53302D01*
X76774Y-53493D01*
X76702Y-53493D01*
X76655Y-53517D01*
X76631Y-53540D01*
X76607Y-53588D01*
X76607Y-53707D01*
X76631Y-53755D01*
X76655Y-53779D01*
X76702Y-53802D01*
X76845Y-53802D01*
X76893Y-53779D01*
X76917Y-53755D01*
X76183Y-51402D02*
X76350Y-51164D01*
X76469Y-51402D02*
X76469Y-50902D01*
X76278Y-50902D01*
X76231Y-50926D01*
X76207Y-50950D01*
X76183Y-50998D01*
X76183Y-51069D01*
X76207Y-51117D01*
X76231Y-51140D01*
X76278Y-51164D01*
X76469Y-51164D01*
X75993Y-50950D02*
X75969Y-50926D01*
X75921Y-50902D01*
X75802Y-50902D01*
X75755Y-50926D01*
X75731Y-50950D01*
X75707Y-50998D01*
X75707Y-51045D01*
X75731Y-51117D01*
X76017Y-51402D01*
X75707Y-51402D01*
X77083Y-56902D02*
X77250Y-56664D01*
X77369Y-56902D02*
X77369Y-56402D01*
X77178Y-56402D01*
X77131Y-56426D01*
X77107Y-56450D01*
X77083Y-56498D01*
X77083Y-56569D01*
X77107Y-56617D01*
X77131Y-56640D01*
X77178Y-56664D01*
X77369Y-56664D01*
X76607Y-56902D02*
X76893Y-56902D01*
X76750Y-56902D02*
X76750Y-56402D01*
X76798Y-56474D01*
X76845Y-56521D01*
X76893Y-56545D01*
X74602Y-53628D02*
X74364Y-53461D01*
X74602Y-53342D02*
X74102Y-53342D01*
X74102Y-53533D01*
X74126Y-53580D01*
X74150Y-53604D01*
X74198Y-53628D01*
X74269Y-53628D01*
X74317Y-53604D01*
X74340Y-53580D01*
X74364Y-53533D01*
X74364Y-53342D01*
X74602Y-54104D02*
X74602Y-53818D01*
X74602Y-53961D02*
X74102Y-53961D01*
X74174Y-53913D01*
X74221Y-53866D01*
X74245Y-53818D01*
X74102Y-54413D02*
X74102Y-54461D01*
X74126Y-54509D01*
X74150Y-54532D01*
X74198Y-54556D01*
X74293Y-54580D01*
X74412Y-54580D01*
X74507Y-54556D01*
X74555Y-54532D01*
X74579Y-54509D01*
X74602Y-54461D01*
X74602Y-54413D01*
X74579Y-54366D01*
X74555Y-54342D01*
X74507Y-54318D01*
X74412Y-54294D01*
X74293Y-54294D01*
X74198Y-54318D01*
X74150Y-54342D01*
X74126Y-54366D01*
X74102Y-54413D01*
X80683Y-59155D02*
X80707Y-59179D01*
X80778Y-59202D01*
X80826Y-59202D01*
X80898Y-59179D01*
X80945Y-59131D01*
X80969Y-59083D01*
X80993Y-58988D01*
X80993Y-58917D01*
X80969Y-58821D01*
X80945Y-58774D01*
X80898Y-58726D01*
X80826Y-58702D01*
X80778Y-58702D01*
X80707Y-58726D01*
X80683Y-58750D01*
X80517Y-58702D02*
X80207Y-58702D01*
X80374Y-58893D01*
X80302Y-58893D01*
X80255Y-58917D01*
X80231Y-58940D01*
X80207Y-58988D01*
X80207Y-59107D01*
X80231Y-59155D01*
X80255Y-59179D01*
X80302Y-59202D01*
X80445Y-59202D01*
X80493Y-59179D01*
X80517Y-59155D01*
X77083Y-54855D02*
X77107Y-54879D01*
X77178Y-54902D01*
X77226Y-54902D01*
X77298Y-54879D01*
X77345Y-54831D01*
X77369Y-54783D01*
X77393Y-54688D01*
X77393Y-54617D01*
X77369Y-54521D01*
X77345Y-54474D01*
X77298Y-54426D01*
X77226Y-54402D01*
X77178Y-54402D01*
X77107Y-54426D01*
X77083Y-54450D01*
X76607Y-54902D02*
X76893Y-54902D01*
X76750Y-54902D02*
X76750Y-54402D01*
X76798Y-54474D01*
X76845Y-54521D01*
X76893Y-54545D01*
X82106Y-54443D02*
X82130Y-54467D01*
X82201Y-54490D01*
X82249Y-54490D01*
X82321Y-54467D01*
X82368Y-54419D01*
X82392Y-54371D01*
X82416Y-54276D01*
X82416Y-54205D01*
X82392Y-54109D01*
X82368Y-54062D01*
X82321Y-54014D01*
X82249Y-53990D01*
X82201Y-53990D01*
X82130Y-54014D01*
X82106Y-54038D01*
X81678Y-53990D02*
X81773Y-53990D01*
X81821Y-54014D01*
X81844Y-54038D01*
X81892Y-54109D01*
X81916Y-54205D01*
X81916Y-54395D01*
X81892Y-54443D01*
X81868Y-54467D01*
X81821Y-54490D01*
X81725Y-54490D01*
X81678Y-54467D01*
X81654Y-54443D01*
X81630Y-54395D01*
X81630Y-54276D01*
X81654Y-54228D01*
X81678Y-54205D01*
X81725Y-54181D01*
X81821Y-54181D01*
X81868Y-54205D01*
X81892Y-54228D01*
X81916Y-54276D01*
X80583Y-58255D02*
X80607Y-58279D01*
X80678Y-58302D01*
X80726Y-58302D01*
X80798Y-58279D01*
X80845Y-58231D01*
X80869Y-58183D01*
X80893Y-58088D01*
X80893Y-58017D01*
X80869Y-57921D01*
X80845Y-57874D01*
X80798Y-57826D01*
X80726Y-57802D01*
X80678Y-57802D01*
X80607Y-57826D01*
X80583Y-57850D01*
X80155Y-57969D02*
X80155Y-58302D01*
X80274Y-57779D02*
X80393Y-58136D01*
X80083Y-58136D01*
X77283Y-55855D02*
X77307Y-55879D01*
X77378Y-55902D01*
X77426Y-55902D01*
X77498Y-55879D01*
X77545Y-55831D01*
X77569Y-55783D01*
X77593Y-55688D01*
X77593Y-55617D01*
X77569Y-55521D01*
X77545Y-55474D01*
X77498Y-55426D01*
X77426Y-55402D01*
X77378Y-55402D01*
X77307Y-55426D01*
X77283Y-55450D01*
X77093Y-55450D02*
X77069Y-55426D01*
X77021Y-55402D01*
X76902Y-55402D01*
X76855Y-55426D01*
X76831Y-55450D01*
X76807Y-55498D01*
X76807Y-55545D01*
X76831Y-55617D01*
X77117Y-55902D01*
X76807Y-55902D01*
M02*
