G04 (created by PCBNEW-RS274X (2010-04-21 BZR 23xx)-stable) date Wed 04 May 2011 08:30:49 PM CEST*
G01*
G70*
G90*
%MOIN*%
G04 Gerber Fmt 3.4, Leading zero omitted, Abs format*
%FSLAX34Y34*%
G04 APERTURE LIST*
%ADD10C,0.006000*%
%ADD11C,0.012000*%
%ADD12R,0.060000X0.060000*%
%ADD13C,0.060000*%
%ADD14R,0.086600X0.023600*%
%ADD15C,0.100000*%
%ADD16R,0.055000X0.055000*%
%ADD17C,0.055000*%
%ADD18R,0.070800X0.062900*%
%ADD19C,0.080000*%
%ADD20C,0.160000*%
%ADD21R,0.100000X0.100000*%
%ADD22C,0.035000*%
%ADD23C,0.010000*%
%ADD24C,0.020000*%
%ADD25C,0.080000*%
%ADD26C,0.050000*%
G04 APERTURE END LIST*
G54D10*
G54D11*
X38447Y-51002D02*
X38613Y-51502D01*
X38780Y-51002D01*
X39209Y-51502D02*
X38923Y-51502D01*
X39066Y-51502D02*
X39066Y-51002D01*
X39018Y-51074D01*
X38971Y-51121D01*
X38923Y-51145D01*
X39423Y-51455D02*
X39447Y-51479D01*
X39423Y-51502D01*
X39399Y-51479D01*
X39423Y-51455D01*
X39423Y-51502D01*
X39756Y-51002D02*
X39804Y-51002D01*
X39852Y-51026D01*
X39875Y-51050D01*
X39899Y-51098D01*
X39923Y-51193D01*
X39923Y-51312D01*
X39899Y-51407D01*
X39875Y-51455D01*
X39852Y-51479D01*
X39804Y-51502D01*
X39756Y-51502D01*
X39709Y-51479D01*
X39685Y-51455D01*
X39661Y-51407D01*
X39637Y-51312D01*
X39637Y-51193D01*
X39661Y-51098D01*
X39685Y-51050D01*
X39709Y-51026D01*
X39756Y-51002D01*
X40399Y-51502D02*
X40113Y-51502D01*
X40256Y-51502D02*
X40256Y-51002D01*
X40208Y-51074D01*
X40161Y-51121D01*
X40113Y-51145D01*
X40994Y-51312D02*
X41375Y-51312D01*
X41970Y-51050D02*
X41994Y-51026D01*
X42042Y-51002D01*
X42161Y-51002D01*
X42208Y-51026D01*
X42232Y-51050D01*
X42256Y-51098D01*
X42256Y-51145D01*
X42232Y-51217D01*
X41946Y-51502D01*
X42256Y-51502D01*
X42565Y-51002D02*
X42613Y-51002D01*
X42661Y-51026D01*
X42684Y-51050D01*
X42708Y-51098D01*
X42732Y-51193D01*
X42732Y-51312D01*
X42708Y-51407D01*
X42684Y-51455D01*
X42661Y-51479D01*
X42613Y-51502D01*
X42565Y-51502D01*
X42518Y-51479D01*
X42494Y-51455D01*
X42470Y-51407D01*
X42446Y-51312D01*
X42446Y-51193D01*
X42470Y-51098D01*
X42494Y-51050D01*
X42518Y-51026D01*
X42565Y-51002D01*
X43208Y-51502D02*
X42922Y-51502D01*
X43065Y-51502D02*
X43065Y-51002D01*
X43017Y-51074D01*
X42970Y-51121D01*
X42922Y-51145D01*
X43684Y-51502D02*
X43398Y-51502D01*
X43541Y-51502D02*
X43541Y-51002D01*
X43493Y-51074D01*
X43446Y-51121D01*
X43398Y-51145D01*
X44279Y-51502D02*
X44279Y-51002D01*
X44279Y-51193D02*
X44327Y-51169D01*
X44422Y-51169D01*
X44470Y-51193D01*
X44493Y-51217D01*
X44517Y-51264D01*
X44517Y-51407D01*
X44493Y-51455D01*
X44470Y-51479D01*
X44422Y-51502D01*
X44327Y-51502D01*
X44279Y-51479D01*
X44802Y-51502D02*
X44755Y-51479D01*
X44731Y-51431D01*
X44731Y-51002D01*
X45064Y-51502D02*
X45017Y-51479D01*
X44993Y-51455D01*
X44969Y-51407D01*
X44969Y-51264D01*
X44993Y-51217D01*
X45017Y-51193D01*
X45064Y-51169D01*
X45136Y-51169D01*
X45184Y-51193D01*
X45207Y-51217D01*
X45231Y-51264D01*
X45231Y-51407D01*
X45207Y-51455D01*
X45184Y-51479D01*
X45136Y-51502D01*
X45064Y-51502D01*
X45659Y-51169D02*
X45659Y-51574D01*
X45636Y-51621D01*
X45612Y-51645D01*
X45564Y-51669D01*
X45493Y-51669D01*
X45445Y-51645D01*
X45659Y-51479D02*
X45612Y-51502D01*
X45516Y-51502D01*
X45469Y-51479D01*
X45445Y-51455D01*
X45421Y-51407D01*
X45421Y-51264D01*
X45445Y-51217D01*
X45469Y-51193D01*
X45516Y-51169D01*
X45612Y-51169D01*
X45659Y-51193D01*
X45897Y-51455D02*
X45921Y-51479D01*
X45897Y-51502D01*
X45873Y-51479D01*
X45897Y-51455D01*
X45897Y-51502D01*
X46111Y-51479D02*
X46159Y-51502D01*
X46254Y-51502D01*
X46302Y-51479D01*
X46326Y-51431D01*
X46326Y-51407D01*
X46302Y-51360D01*
X46254Y-51336D01*
X46183Y-51336D01*
X46135Y-51312D01*
X46111Y-51264D01*
X46111Y-51240D01*
X46135Y-51193D01*
X46183Y-51169D01*
X46254Y-51169D01*
X46302Y-51193D01*
X46540Y-51169D02*
X46540Y-51669D01*
X46540Y-51193D02*
X46588Y-51169D01*
X46683Y-51169D01*
X46731Y-51193D01*
X46754Y-51217D01*
X46778Y-51264D01*
X46778Y-51407D01*
X46754Y-51455D01*
X46731Y-51479D01*
X46683Y-51502D01*
X46588Y-51502D01*
X46540Y-51479D01*
X46992Y-51502D02*
X46992Y-51169D01*
X46992Y-51002D02*
X46968Y-51026D01*
X46992Y-51050D01*
X47016Y-51026D01*
X46992Y-51002D01*
X46992Y-51050D01*
X47159Y-51169D02*
X47349Y-51169D01*
X47230Y-51002D02*
X47230Y-51431D01*
X47254Y-51479D01*
X47301Y-51502D01*
X47349Y-51502D01*
X47468Y-51169D02*
X47730Y-51169D01*
X47468Y-51502D01*
X47730Y-51502D01*
X48112Y-51479D02*
X48064Y-51502D01*
X47969Y-51502D01*
X47921Y-51479D01*
X47897Y-51431D01*
X47897Y-51240D01*
X47921Y-51193D01*
X47969Y-51169D01*
X48064Y-51169D01*
X48112Y-51193D01*
X48135Y-51240D01*
X48135Y-51288D01*
X47897Y-51336D01*
X48350Y-51169D02*
X48350Y-51502D01*
X48350Y-51217D02*
X48374Y-51193D01*
X48421Y-51169D01*
X48493Y-51169D01*
X48541Y-51193D01*
X48564Y-51240D01*
X48564Y-51502D01*
X48802Y-51169D02*
X48802Y-51669D01*
X48802Y-51193D02*
X48850Y-51169D01*
X48945Y-51169D01*
X48993Y-51193D01*
X49016Y-51217D01*
X49040Y-51264D01*
X49040Y-51407D01*
X49016Y-51455D01*
X48993Y-51479D01*
X48945Y-51502D01*
X48850Y-51502D01*
X48802Y-51479D01*
X49183Y-51169D02*
X49373Y-51169D01*
X49254Y-51502D02*
X49254Y-51074D01*
X49278Y-51026D01*
X49325Y-51002D01*
X49373Y-51002D01*
X49731Y-51479D02*
X49683Y-51502D01*
X49588Y-51502D01*
X49540Y-51479D01*
X49516Y-51431D01*
X49516Y-51240D01*
X49540Y-51193D01*
X49588Y-51169D01*
X49683Y-51169D01*
X49731Y-51193D01*
X49754Y-51240D01*
X49754Y-51288D01*
X49516Y-51336D01*
X49969Y-51502D02*
X49969Y-51169D01*
X49969Y-51002D02*
X49945Y-51026D01*
X49969Y-51050D01*
X49993Y-51026D01*
X49969Y-51002D01*
X49969Y-51050D01*
X50278Y-51502D02*
X50231Y-51479D01*
X50207Y-51431D01*
X50207Y-51002D01*
X50469Y-51455D02*
X50493Y-51479D01*
X50469Y-51502D01*
X50445Y-51479D01*
X50469Y-51455D01*
X50469Y-51502D01*
X50778Y-51502D02*
X50731Y-51479D01*
X50707Y-51455D01*
X50683Y-51407D01*
X50683Y-51264D01*
X50707Y-51217D01*
X50731Y-51193D01*
X50778Y-51169D01*
X50850Y-51169D01*
X50898Y-51193D01*
X50921Y-51217D01*
X50945Y-51264D01*
X50945Y-51407D01*
X50921Y-51455D01*
X50898Y-51479D01*
X50850Y-51502D01*
X50778Y-51502D01*
X51159Y-51502D02*
X51159Y-51169D01*
X51159Y-51264D02*
X51183Y-51217D01*
X51207Y-51193D01*
X51254Y-51169D01*
X51302Y-51169D01*
X51683Y-51169D02*
X51683Y-51574D01*
X51660Y-51621D01*
X51636Y-51645D01*
X51588Y-51669D01*
X51517Y-51669D01*
X51469Y-51645D01*
X51683Y-51479D02*
X51636Y-51502D01*
X51540Y-51502D01*
X51493Y-51479D01*
X51469Y-51455D01*
X51445Y-51407D01*
X51445Y-51264D01*
X51469Y-51217D01*
X51493Y-51193D01*
X51540Y-51169D01*
X51636Y-51169D01*
X51683Y-51193D01*
G54D12*
X76700Y-59900D03*
G54D13*
X76700Y-60900D03*
X75700Y-59900D03*
X75700Y-60900D03*
X74700Y-59900D03*
X74700Y-60900D03*
G54D14*
X74677Y-54700D03*
X74677Y-55200D03*
X74677Y-55700D03*
X74677Y-56200D03*
X74677Y-56700D03*
X74677Y-57200D03*
X74677Y-57700D03*
X76723Y-57700D03*
X76723Y-57200D03*
X76723Y-56700D03*
X76723Y-56200D03*
X76723Y-55700D03*
X76723Y-55200D03*
X76723Y-54700D03*
G54D15*
X71000Y-60000D03*
X71000Y-58000D03*
X39500Y-58000D03*
X39500Y-60000D03*
X39499Y-53500D03*
X39499Y-55500D03*
X44000Y-55500D03*
X44000Y-53500D03*
X44000Y-60000D03*
X44000Y-58000D03*
X48500Y-58000D03*
X48500Y-60000D03*
X48500Y-53500D03*
X48500Y-55500D03*
X53000Y-55500D03*
X53000Y-53500D03*
X53000Y-60000D03*
X53000Y-58000D03*
X57500Y-58000D03*
X57500Y-60000D03*
X57500Y-53500D03*
X57500Y-55500D03*
X62000Y-55500D03*
X62000Y-53500D03*
X62000Y-60000D03*
X62000Y-58000D03*
X66500Y-58000D03*
X66500Y-60000D03*
X66500Y-53500D03*
X66500Y-55500D03*
X71000Y-55500D03*
X71000Y-53500D03*
G54D13*
X86100Y-51575D03*
X88650Y-51575D03*
X86100Y-53325D03*
X88650Y-53325D03*
X80700Y-51575D03*
X83250Y-51575D03*
X80700Y-53325D03*
X83250Y-53325D03*
X75300Y-51575D03*
X77850Y-51575D03*
X75300Y-53325D03*
X77850Y-53325D03*
G54D15*
X120000Y-60000D03*
X120000Y-58000D03*
X120000Y-55500D03*
X120000Y-53500D03*
X124500Y-53500D03*
X124500Y-55500D03*
X124500Y-58000D03*
X124500Y-60000D03*
X111000Y-59900D03*
X111000Y-57900D03*
X111000Y-55500D03*
X111000Y-53500D03*
X115600Y-53500D03*
X115600Y-55500D03*
X115600Y-58000D03*
X115600Y-60000D03*
X106500Y-58000D03*
X106500Y-60000D03*
X106500Y-53500D03*
X106500Y-55500D03*
X102000Y-55500D03*
X102000Y-53500D03*
X102000Y-60000D03*
X102000Y-58000D03*
X97500Y-58000D03*
X97500Y-60000D03*
X97500Y-53500D03*
X97500Y-55500D03*
X93000Y-55500D03*
X93000Y-53500D03*
X93000Y-60000D03*
X93000Y-58000D03*
G54D16*
X79800Y-52400D03*
G54D17*
X78800Y-52400D03*
G54D18*
X79200Y-56551D03*
X79200Y-55449D03*
G54D19*
X89100Y-61200D03*
X85100Y-60200D03*
X89100Y-59200D03*
G54D14*
X80977Y-57750D03*
X80977Y-58250D03*
X80977Y-58750D03*
X80977Y-59250D03*
X80977Y-59750D03*
X80977Y-60250D03*
X80977Y-60750D03*
X80977Y-61250D03*
X83023Y-61250D03*
X83023Y-60750D03*
X83023Y-60250D03*
X83023Y-59750D03*
X83023Y-59250D03*
X83023Y-58750D03*
X83023Y-58250D03*
X83023Y-57750D03*
G54D20*
X36500Y-52000D03*
G54D14*
X83023Y-56550D03*
X83023Y-56050D03*
X83023Y-55550D03*
X83023Y-55050D03*
X80977Y-55050D03*
X80977Y-55550D03*
X80977Y-56050D03*
X80977Y-56550D03*
G54D20*
X127500Y-61500D03*
X127500Y-52000D03*
X95500Y-61500D03*
X95500Y-52000D03*
X68500Y-61500D03*
X68500Y-52000D03*
X36500Y-61500D03*
G54D12*
X89800Y-56200D03*
G54D13*
X88800Y-56200D03*
X87800Y-56200D03*
X86800Y-56200D03*
X85800Y-56200D03*
X84800Y-56200D03*
G54D12*
X84800Y-55200D03*
G54D13*
X85800Y-55200D03*
X86800Y-55200D03*
X87800Y-55200D03*
X88800Y-55200D03*
X89800Y-55200D03*
G54D12*
X89800Y-57200D03*
G54D13*
X88800Y-57200D03*
X87800Y-57200D03*
X86800Y-57200D03*
X85800Y-57200D03*
X84800Y-57200D03*
G54D16*
X136300Y-60200D03*
G54D17*
X136300Y-59200D03*
X136300Y-58200D03*
X136300Y-57200D03*
X136300Y-56200D03*
X136300Y-55200D03*
X136300Y-54200D03*
X136300Y-53200D03*
G54D16*
X27800Y-60200D03*
G54D17*
X27800Y-59200D03*
X27800Y-58200D03*
X27800Y-57200D03*
X27800Y-56200D03*
X27800Y-55200D03*
X27800Y-54200D03*
X27800Y-53200D03*
G54D21*
X130500Y-58200D03*
G54D15*
X130500Y-55200D03*
G54D21*
X33600Y-58200D03*
G54D15*
X33600Y-55200D03*
G54D22*
X80162Y-58913D03*
X78721Y-60354D03*
X76122Y-58045D03*
X80169Y-58358D03*
X78687Y-59840D03*
X76723Y-58114D03*
X78336Y-54549D03*
X74828Y-54246D03*
X82309Y-59891D03*
X75231Y-58209D03*
X73884Y-56300D03*
X76100Y-58537D03*
X80125Y-59750D03*
X78046Y-62052D03*
X73598Y-62052D03*
X80259Y-60250D03*
X78714Y-61593D03*
X81696Y-60750D03*
X78046Y-59369D03*
X80341Y-61566D03*
X78676Y-62443D03*
X73027Y-53903D03*
X78055Y-56689D03*
X77468Y-56702D03*
X36837Y-54834D03*
X75624Y-57317D03*
X73761Y-57200D03*
X80000Y-56600D03*
X77436Y-54689D03*
X83804Y-55722D03*
X82000Y-57100D03*
X74976Y-52154D03*
X73962Y-54832D03*
G54D23*
X76154Y-60354D02*
X78721Y-60354D01*
X75700Y-59900D02*
X76154Y-60354D01*
X80977Y-58750D02*
X80391Y-58750D01*
X80228Y-58913D02*
X80162Y-58913D01*
X80391Y-58750D02*
X80228Y-58913D01*
X76723Y-57200D02*
X76137Y-57200D01*
X76137Y-58030D02*
X76122Y-58045D01*
X76137Y-57200D02*
X76137Y-58030D01*
X76700Y-59900D02*
X77153Y-59900D01*
X77213Y-59840D02*
X78687Y-59840D01*
X77153Y-59900D02*
X77213Y-59840D01*
X80277Y-58250D02*
X80169Y-58358D01*
X80977Y-58250D02*
X80277Y-58250D01*
X76723Y-58114D02*
X76723Y-57700D01*
X75263Y-54509D02*
X75263Y-55200D01*
X75000Y-54246D02*
X75263Y-54509D01*
X74828Y-54246D02*
X75000Y-54246D01*
X74677Y-55200D02*
X75263Y-55200D01*
X83023Y-59250D02*
X82437Y-59250D01*
X81342Y-54549D02*
X78336Y-54549D01*
X82437Y-55644D02*
X81342Y-54549D01*
X82437Y-59250D02*
X82437Y-55644D01*
X80977Y-59250D02*
X81563Y-59250D01*
X82204Y-59891D02*
X82309Y-59891D01*
X81563Y-59250D02*
X82204Y-59891D01*
X74261Y-58209D02*
X75231Y-58209D01*
X73433Y-57381D02*
X74261Y-58209D01*
X73433Y-56133D02*
X73433Y-57381D01*
X73866Y-55700D02*
X73433Y-56133D01*
X74677Y-55700D02*
X73866Y-55700D01*
X74091Y-56507D02*
X74091Y-56700D01*
X73884Y-56300D02*
X74091Y-56507D01*
X74677Y-56700D02*
X74091Y-56700D01*
X74677Y-57700D02*
X75263Y-57700D01*
X75263Y-57700D02*
X76100Y-58537D01*
G54D24*
X80977Y-59750D02*
X80341Y-59750D01*
X73598Y-62052D02*
X78046Y-62052D01*
X80341Y-59750D02*
X80125Y-59750D01*
X80977Y-60250D02*
X80341Y-60250D01*
X80341Y-60250D02*
X80259Y-60250D01*
X74042Y-61593D02*
X78714Y-61593D01*
X71711Y-59262D02*
X74042Y-61593D01*
X66100Y-59262D02*
X71711Y-59262D01*
X64185Y-61177D02*
X66100Y-59262D01*
X54177Y-61177D02*
X64185Y-61177D01*
X53000Y-60000D02*
X54177Y-61177D01*
X80977Y-60750D02*
X81696Y-60750D01*
X73693Y-59369D02*
X78046Y-59369D01*
X73283Y-58959D02*
X73693Y-59369D01*
X65822Y-58959D02*
X73283Y-58959D01*
X64781Y-60000D02*
X65822Y-58959D01*
X62000Y-60000D02*
X64781Y-60000D01*
X80977Y-61250D02*
X80341Y-61250D01*
X80341Y-61250D02*
X80341Y-61566D01*
X73443Y-62443D02*
X78676Y-62443D01*
X71000Y-60000D02*
X73443Y-62443D01*
X92472Y-60528D02*
X93000Y-60000D01*
X88772Y-60528D02*
X92472Y-60528D01*
X87847Y-61453D02*
X88772Y-60528D01*
X83862Y-61453D02*
X87847Y-61453D01*
X83659Y-61250D02*
X83862Y-61453D01*
X83023Y-61250D02*
X83659Y-61250D01*
X100923Y-61077D02*
X102000Y-60000D01*
X97419Y-61077D02*
X100923Y-61077D01*
X96797Y-60455D02*
X97419Y-61077D01*
X94847Y-60455D02*
X96797Y-60455D01*
X92944Y-62358D02*
X94847Y-60455D01*
X82965Y-62358D02*
X92944Y-62358D01*
X82387Y-61780D02*
X82965Y-62358D01*
X82387Y-60750D02*
X82387Y-61780D01*
X83023Y-60750D02*
X82387Y-60750D01*
X110291Y-59191D02*
X111000Y-59900D01*
X90964Y-59191D02*
X110291Y-59191D01*
X89970Y-60185D02*
X90964Y-59191D01*
X88687Y-60185D02*
X89970Y-60185D01*
X87722Y-61150D02*
X88687Y-60185D01*
X84620Y-61150D02*
X87722Y-61150D01*
X83720Y-60250D02*
X84620Y-61150D01*
X83023Y-60250D02*
X83720Y-60250D01*
X118704Y-58704D02*
X120000Y-60000D01*
X90594Y-58704D02*
X118704Y-58704D01*
X89417Y-59881D02*
X90594Y-58704D01*
X87549Y-59881D02*
X89417Y-59881D01*
X86584Y-60846D02*
X87549Y-59881D01*
X84755Y-60846D02*
X86584Y-60846D01*
X83659Y-59750D02*
X84755Y-60846D01*
X83023Y-59750D02*
X83659Y-59750D01*
G54D23*
X76723Y-55200D02*
X76137Y-55200D01*
X74958Y-53903D02*
X73027Y-53903D01*
X76137Y-55082D02*
X74958Y-53903D01*
X76137Y-55200D02*
X76137Y-55082D01*
X76723Y-55700D02*
X77309Y-55700D01*
X84800Y-55200D02*
X84347Y-55200D01*
X75922Y-52563D02*
X77890Y-54531D01*
X69847Y-52563D02*
X75922Y-52563D01*
X69456Y-52954D02*
X69847Y-52563D01*
X67154Y-52954D02*
X69456Y-52954D01*
X66465Y-52265D02*
X67154Y-52954D01*
X37655Y-52265D02*
X66465Y-52265D01*
X32164Y-57756D02*
X37655Y-52265D01*
X27381Y-57756D02*
X32164Y-57756D01*
X27353Y-57784D02*
X27381Y-57756D01*
X27353Y-58753D02*
X27353Y-57784D01*
X27800Y-59200D02*
X27353Y-58753D01*
X78206Y-54215D02*
X77890Y-54531D01*
X83362Y-54215D02*
X78206Y-54215D01*
X84347Y-55200D02*
X83362Y-54215D01*
X77890Y-55119D02*
X77309Y-55700D01*
X77890Y-54531D02*
X77890Y-55119D01*
X76723Y-56200D02*
X77309Y-56200D01*
X77922Y-56689D02*
X78055Y-56689D01*
X77433Y-56200D02*
X77309Y-56200D01*
X77922Y-56689D02*
X77433Y-56200D01*
X77922Y-57911D02*
X77922Y-56689D01*
X76717Y-59116D02*
X77922Y-57911D01*
X73798Y-59116D02*
X76717Y-59116D01*
X73340Y-58658D02*
X73798Y-59116D01*
X65209Y-58658D02*
X73340Y-58658D01*
X64867Y-59000D02*
X65209Y-58658D01*
X28600Y-59000D02*
X64867Y-59000D01*
X27800Y-58200D02*
X28600Y-59000D01*
X76723Y-56700D02*
X77309Y-56700D01*
X77311Y-56702D02*
X77468Y-56702D01*
X77309Y-56700D02*
X77311Y-56702D01*
X124626Y-57200D02*
X136300Y-57200D01*
X121926Y-54500D02*
X124626Y-57200D01*
X87500Y-54500D02*
X121926Y-54500D01*
X86800Y-55200D02*
X87500Y-54500D01*
X77468Y-58077D02*
X77468Y-56702D01*
X76632Y-58913D02*
X77468Y-58077D01*
X73984Y-58913D02*
X76632Y-58913D01*
X72614Y-57543D02*
X73984Y-58913D01*
X72614Y-56104D02*
X72614Y-57543D01*
X71344Y-54834D02*
X72614Y-56104D01*
X36837Y-54834D02*
X71344Y-54834D01*
X75369Y-56200D02*
X74677Y-56200D01*
X75624Y-56455D02*
X75369Y-56200D01*
X75624Y-57317D02*
X75624Y-56455D01*
X74677Y-57200D02*
X74091Y-57200D01*
X74091Y-57200D02*
X73761Y-57200D01*
G54D11*
X80050Y-56550D02*
X80977Y-56550D01*
X80000Y-56600D02*
X80050Y-56550D01*
X79249Y-56600D02*
X79200Y-56551D01*
X80000Y-56600D02*
X79249Y-56600D01*
G54D23*
X77425Y-54700D02*
X76723Y-54700D01*
X77436Y-54689D02*
X77425Y-54700D01*
X89297Y-54703D02*
X88800Y-55200D01*
X90050Y-54703D02*
X89297Y-54703D01*
X90254Y-54907D02*
X90050Y-54703D01*
X90254Y-58046D02*
X90254Y-54907D01*
X89100Y-59200D02*
X90254Y-58046D01*
X82751Y-52074D02*
X83250Y-51575D01*
X80528Y-52074D02*
X82751Y-52074D01*
X80351Y-51897D02*
X80528Y-52074D01*
X79303Y-51897D02*
X80351Y-51897D01*
X78800Y-52400D02*
X79303Y-51897D01*
X88650Y-51575D02*
X86121Y-54104D01*
X85779Y-54104D02*
X83250Y-51575D01*
X86121Y-54104D02*
X85779Y-54104D01*
X86232Y-55722D02*
X86328Y-55626D01*
X83804Y-55722D02*
X86232Y-55722D01*
X86328Y-54311D02*
X86328Y-55626D01*
X86121Y-54104D02*
X86328Y-54311D01*
X88346Y-55654D02*
X88800Y-55200D01*
X86356Y-55654D02*
X88346Y-55654D01*
X86328Y-55626D02*
X86356Y-55654D01*
X83804Y-55722D02*
X83023Y-55722D01*
X83023Y-55550D02*
X83023Y-55722D01*
X83023Y-55722D02*
X83023Y-56050D01*
G54D25*
X130500Y-50200D02*
X135900Y-50200D01*
X127500Y-50200D02*
X130500Y-50200D01*
X95500Y-50200D02*
X127500Y-50200D01*
X68500Y-50200D02*
X95500Y-50200D01*
X68400Y-50200D02*
X68500Y-50200D01*
X36500Y-50200D02*
X68400Y-50200D01*
X68500Y-50200D02*
X68400Y-50200D01*
X68500Y-52000D02*
X68500Y-50200D01*
X33600Y-50200D02*
X36500Y-50200D01*
X26700Y-50200D02*
X33600Y-50200D01*
X26700Y-53200D02*
X26700Y-50200D01*
X137300Y-50200D02*
X137300Y-53200D01*
X135900Y-50200D02*
X137300Y-50200D01*
X135900Y-50200D02*
X137300Y-50200D01*
X137300Y-53200D02*
X137300Y-54200D01*
X136300Y-53200D02*
X137300Y-53200D01*
G54D11*
X80977Y-55550D02*
X80977Y-56050D01*
X80876Y-55449D02*
X80977Y-55550D01*
X79200Y-55449D02*
X80876Y-55449D01*
G54D25*
X79400Y-63300D02*
X68500Y-63300D01*
X95500Y-63300D02*
X79400Y-63300D01*
X26700Y-63300D02*
X26700Y-54200D01*
X36500Y-63300D02*
X26700Y-63300D01*
X36500Y-61500D02*
X36500Y-63300D01*
X27800Y-54200D02*
X27800Y-53200D01*
X26700Y-54200D02*
X27800Y-54200D01*
X127600Y-63300D02*
X95500Y-63300D01*
X127900Y-63300D02*
X127600Y-63300D01*
X136300Y-54200D02*
X136300Y-53200D01*
X127500Y-63200D02*
X127600Y-63300D01*
X127500Y-61500D02*
X127500Y-63200D01*
X127600Y-63300D02*
X127900Y-63300D01*
X137300Y-63300D02*
X137300Y-54200D01*
X127900Y-63300D02*
X137300Y-63300D01*
X137300Y-54200D02*
X136300Y-54200D01*
X95500Y-61500D02*
X95500Y-63300D01*
X68500Y-63300D02*
X36500Y-63300D01*
X68500Y-61500D02*
X68500Y-63300D01*
G54D26*
X79450Y-57750D02*
X79400Y-57800D01*
X80977Y-57750D02*
X79450Y-57750D01*
G54D25*
X79400Y-57800D02*
X79400Y-63300D01*
G54D11*
X78400Y-56249D02*
X79200Y-55449D01*
X78400Y-56900D02*
X78400Y-56249D01*
X79300Y-57800D02*
X78400Y-56900D01*
X79400Y-57800D02*
X79300Y-57800D01*
X81350Y-57750D02*
X82000Y-57100D01*
X80977Y-57750D02*
X81350Y-57750D01*
G54D25*
X26700Y-54200D02*
X26700Y-53200D01*
X27800Y-53200D02*
X26700Y-53200D01*
X33600Y-55200D02*
X33600Y-50200D01*
X36500Y-52000D02*
X36500Y-50200D01*
X95500Y-52000D02*
X95500Y-50200D01*
X127500Y-52000D02*
X127500Y-50200D01*
X130500Y-55200D02*
X130500Y-50200D01*
G54D23*
X79800Y-52400D02*
X79372Y-52400D01*
X77944Y-52154D02*
X74976Y-52154D01*
X78618Y-52828D02*
X77944Y-52154D01*
X79344Y-52828D02*
X78618Y-52828D01*
X79372Y-52800D02*
X79344Y-52828D01*
X79372Y-52400D02*
X79372Y-52800D01*
G54D24*
X97500Y-58000D02*
X97500Y-55500D01*
X97500Y-53500D02*
X93000Y-53500D01*
X111000Y-55500D02*
X111000Y-57900D01*
X115600Y-53500D02*
X111000Y-53500D01*
X115600Y-58000D02*
X115600Y-55500D01*
X93000Y-55500D02*
X93000Y-58000D01*
X66500Y-58000D02*
X66500Y-55500D01*
X66500Y-53500D02*
X71000Y-53500D01*
X71000Y-55500D02*
X71000Y-58000D01*
X53000Y-55500D02*
X53000Y-58000D01*
X48500Y-53500D02*
X53000Y-53500D01*
X48500Y-58000D02*
X48500Y-55500D01*
G54D23*
X85100Y-59740D02*
X85100Y-60200D01*
X83610Y-58250D02*
X85100Y-59740D01*
X83023Y-58250D02*
X83610Y-58250D01*
X83023Y-57750D02*
X83609Y-57750D01*
X83023Y-56550D02*
X83609Y-56550D01*
X83731Y-57628D02*
X83609Y-57750D01*
X83731Y-56672D02*
X83731Y-57628D01*
X88226Y-56672D02*
X83731Y-56672D01*
X88254Y-56644D02*
X88226Y-56672D01*
X88254Y-56070D02*
X88254Y-56644D01*
X88670Y-55654D02*
X88254Y-56070D01*
X89346Y-55654D02*
X88670Y-55654D01*
X89800Y-55200D02*
X89346Y-55654D01*
X83731Y-56672D02*
X83609Y-56550D01*
X74091Y-54703D02*
X74091Y-54700D01*
X73962Y-54832D02*
X74091Y-54703D01*
X74677Y-54700D02*
X74091Y-54700D01*
M02*
