G04 (created by PCBNEW (2011-04-28)-stable) date Fri 29 Jul 2011 03:05:20 AM CEST*
G01*
G70*
G90*
%MOIN*%
G04 Gerber Fmt 3.4, Leading zero omitted, Abs format*
%FSLAX34Y34*%
G04 APERTURE LIST*
%ADD10C,0.001000*%
%ADD11C,0.015000*%
%ADD12C,0.008000*%
G04 APERTURE END LIST*
G54D10*
G54D11*
X137800Y-49700D02*
X26200Y-49700D01*
X137800Y-63800D02*
X137800Y-49700D01*
X26200Y-63800D02*
X137800Y-63800D01*
X26200Y-49700D02*
X26200Y-63800D01*
G54D10*
X70968Y-62494D02*
X71218Y-62744D01*
X71218Y-62494D02*
X70968Y-62744D01*
X72415Y-60195D02*
X72665Y-60445D01*
X72665Y-60195D02*
X72415Y-60445D01*
X72560Y-61017D02*
X72810Y-61267D01*
X72810Y-61017D02*
X72560Y-61267D01*
X72872Y-60195D02*
X73122Y-60445D01*
X73122Y-60195D02*
X72872Y-60445D01*
X74539Y-60228D02*
X74789Y-60478D01*
X74789Y-60228D02*
X74539Y-60478D01*
X74541Y-60736D02*
X74791Y-60986D01*
X74791Y-60736D02*
X74541Y-60986D01*
X74557Y-61348D02*
X74807Y-61598D01*
X74807Y-61348D02*
X74557Y-61598D01*
X75143Y-60041D02*
X75393Y-60291D01*
X75393Y-60041D02*
X75143Y-60291D01*
X76444Y-60721D02*
X76694Y-60971D01*
X76694Y-60721D02*
X76444Y-60971D01*
X76577Y-61423D02*
X76827Y-61673D01*
X76827Y-61423D02*
X76577Y-61673D01*
X76711Y-57382D02*
X76961Y-57632D01*
X76961Y-57382D02*
X76711Y-57632D01*
X76805Y-57933D02*
X77055Y-58183D01*
X77055Y-57933D02*
X76805Y-58183D01*
X76830Y-59183D02*
X77080Y-59433D01*
X77080Y-59183D02*
X76830Y-59433D01*
X77734Y-56311D02*
X77984Y-56561D01*
X77984Y-56311D02*
X77734Y-56561D01*
X77910Y-55473D02*
X78160Y-55723D01*
X78160Y-55473D02*
X77910Y-55723D01*
X78146Y-60687D02*
X78396Y-60937D01*
X78396Y-60687D02*
X78146Y-60937D01*
X78154Y-58669D02*
X78404Y-58919D01*
X78404Y-58669D02*
X78154Y-58919D01*
X78540Y-58308D02*
X78790Y-58558D01*
X78790Y-58308D02*
X78540Y-58558D01*
X79471Y-61967D02*
X79721Y-62217D01*
X79721Y-61967D02*
X79471Y-62217D01*
X79472Y-61513D02*
X79722Y-61763D01*
X79722Y-61513D02*
X79472Y-61763D01*
X79486Y-61059D02*
X79736Y-61309D01*
X79736Y-61059D02*
X79486Y-61309D01*
X79575Y-59222D02*
X79825Y-59472D01*
X79825Y-59222D02*
X79575Y-59472D01*
X79875Y-55875D02*
X80125Y-56125D01*
X80125Y-55875D02*
X79875Y-56125D01*
X79921Y-62261D02*
X80171Y-62511D01*
X80171Y-62261D02*
X79921Y-62511D01*
X80004Y-57619D02*
X80254Y-57869D01*
X80254Y-57619D02*
X80004Y-57869D01*
X80034Y-60365D02*
X80284Y-60615D01*
X80284Y-60365D02*
X80034Y-60615D01*
X81175Y-57975D02*
X81425Y-58225D01*
X81425Y-57975D02*
X81175Y-58225D01*
X82093Y-56796D02*
X82343Y-57046D01*
X82343Y-56796D02*
X82093Y-57046D01*
X82235Y-58469D02*
X82485Y-58719D01*
X82485Y-58469D02*
X82235Y-58719D01*
X83657Y-59936D02*
X83907Y-60186D01*
X83907Y-59936D02*
X83657Y-60186D01*
X84258Y-55124D02*
X84508Y-55374D01*
X84508Y-55124D02*
X84258Y-55374D01*
X90519Y-56469D02*
X90769Y-56719D01*
X90769Y-56469D02*
X90519Y-56719D01*
X90525Y-62225D02*
X90775Y-62475D01*
X90775Y-62225D02*
X90525Y-62475D01*
X92587Y-61225D02*
X92837Y-61475D01*
X92837Y-61225D02*
X92587Y-61475D01*
X93274Y-61725D02*
X93524Y-61975D01*
X93524Y-61725D02*
X93274Y-61975D01*
X131967Y-58741D02*
X132217Y-58991D01*
X132217Y-58741D02*
X131967Y-58991D01*
X78960Y-52400D02*
X78956Y-52431D01*
X78947Y-52460D01*
X78933Y-52488D01*
X78913Y-52512D01*
X78889Y-52532D01*
X78862Y-52547D01*
X78832Y-52556D01*
X78801Y-52559D01*
X78771Y-52557D01*
X78741Y-52548D01*
X78713Y-52533D01*
X78689Y-52514D01*
X78668Y-52490D01*
X78653Y-52463D01*
X78644Y-52433D01*
X78641Y-52402D01*
X78643Y-52372D01*
X78652Y-52342D01*
X78666Y-52314D01*
X78685Y-52289D01*
X78709Y-52269D01*
X78736Y-52254D01*
X78766Y-52244D01*
X78797Y-52241D01*
X78827Y-52243D01*
X78857Y-52251D01*
X78885Y-52265D01*
X78910Y-52285D01*
X78930Y-52308D01*
X78946Y-52335D01*
X78956Y-52365D01*
X78959Y-52396D01*
X78960Y-52400D01*
X79960Y-52400D02*
X79956Y-52431D01*
X79947Y-52460D01*
X79933Y-52488D01*
X79913Y-52512D01*
X79889Y-52532D01*
X79862Y-52547D01*
X79832Y-52556D01*
X79801Y-52559D01*
X79771Y-52557D01*
X79741Y-52548D01*
X79713Y-52533D01*
X79689Y-52514D01*
X79668Y-52490D01*
X79653Y-52463D01*
X79644Y-52433D01*
X79641Y-52402D01*
X79643Y-52372D01*
X79652Y-52342D01*
X79666Y-52314D01*
X79685Y-52289D01*
X79709Y-52269D01*
X79736Y-52254D01*
X79766Y-52244D01*
X79797Y-52241D01*
X79827Y-52243D01*
X79857Y-52251D01*
X79885Y-52265D01*
X79910Y-52285D01*
X79930Y-52308D01*
X79946Y-52335D01*
X79956Y-52365D01*
X79959Y-52396D01*
X79960Y-52400D01*
X33600Y-55003D02*
X33600Y-55397D01*
X33797Y-55200D02*
X33403Y-55200D01*
X33600Y-58003D02*
X33600Y-58397D01*
X33797Y-58200D02*
X33403Y-58200D01*
X39499Y-53303D02*
X39499Y-53697D01*
X39696Y-53500D02*
X39302Y-53500D01*
X39499Y-55303D02*
X39499Y-55697D01*
X39696Y-55500D02*
X39302Y-55500D01*
X39500Y-57803D02*
X39500Y-58197D01*
X39697Y-58000D02*
X39303Y-58000D01*
X39500Y-59803D02*
X39500Y-60197D01*
X39697Y-60000D02*
X39303Y-60000D01*
X44000Y-53303D02*
X44000Y-53697D01*
X44197Y-53500D02*
X43803Y-53500D01*
X44000Y-55303D02*
X44000Y-55697D01*
X44197Y-55500D02*
X43803Y-55500D01*
X44000Y-57803D02*
X44000Y-58197D01*
X44197Y-58000D02*
X43803Y-58000D01*
X44000Y-59803D02*
X44000Y-60197D01*
X44197Y-60000D02*
X43803Y-60000D01*
X48500Y-53303D02*
X48500Y-53697D01*
X48697Y-53500D02*
X48303Y-53500D01*
X48500Y-55303D02*
X48500Y-55697D01*
X48697Y-55500D02*
X48303Y-55500D01*
X48500Y-57803D02*
X48500Y-58197D01*
X48697Y-58000D02*
X48303Y-58000D01*
X48500Y-59803D02*
X48500Y-60197D01*
X48697Y-60000D02*
X48303Y-60000D01*
X53000Y-53303D02*
X53000Y-53697D01*
X53197Y-53500D02*
X52803Y-53500D01*
X53000Y-55303D02*
X53000Y-55697D01*
X53197Y-55500D02*
X52803Y-55500D01*
X53000Y-57803D02*
X53000Y-58197D01*
X53197Y-58000D02*
X52803Y-58000D01*
X53000Y-59803D02*
X53000Y-60197D01*
X53197Y-60000D02*
X52803Y-60000D01*
X57500Y-53303D02*
X57500Y-53697D01*
X57697Y-53500D02*
X57303Y-53500D01*
X57500Y-55303D02*
X57500Y-55697D01*
X57697Y-55500D02*
X57303Y-55500D01*
X57500Y-57803D02*
X57500Y-58197D01*
X57697Y-58000D02*
X57303Y-58000D01*
X57500Y-59803D02*
X57500Y-60197D01*
X57697Y-60000D02*
X57303Y-60000D01*
X62000Y-53303D02*
X62000Y-53697D01*
X62197Y-53500D02*
X61803Y-53500D01*
X62000Y-55303D02*
X62000Y-55697D01*
X62197Y-55500D02*
X61803Y-55500D01*
X62000Y-57803D02*
X62000Y-58197D01*
X62197Y-58000D02*
X61803Y-58000D01*
X62000Y-59803D02*
X62000Y-60197D01*
X62197Y-60000D02*
X61803Y-60000D01*
X66500Y-53303D02*
X66500Y-53697D01*
X66697Y-53500D02*
X66303Y-53500D01*
X66500Y-55303D02*
X66500Y-55697D01*
X66697Y-55500D02*
X66303Y-55500D01*
X66500Y-57803D02*
X66500Y-58197D01*
X66697Y-58000D02*
X66303Y-58000D01*
X66500Y-59803D02*
X66500Y-60197D01*
X66697Y-60000D02*
X66303Y-60000D01*
X71000Y-53303D02*
X71000Y-53697D01*
X71197Y-53500D02*
X70803Y-53500D01*
X71000Y-55303D02*
X71000Y-55697D01*
X71197Y-55500D02*
X70803Y-55500D01*
X71000Y-57803D02*
X71000Y-58197D01*
X71197Y-58000D02*
X70803Y-58000D01*
X71000Y-59803D02*
X71000Y-60197D01*
X71197Y-60000D02*
X70803Y-60000D01*
X93000Y-53303D02*
X93000Y-53697D01*
X93197Y-53500D02*
X92803Y-53500D01*
X93000Y-55303D02*
X93000Y-55697D01*
X93197Y-55500D02*
X92803Y-55500D01*
X93000Y-57803D02*
X93000Y-58197D01*
X93197Y-58000D02*
X92803Y-58000D01*
X93000Y-59803D02*
X93000Y-60197D01*
X93197Y-60000D02*
X92803Y-60000D01*
X97500Y-53303D02*
X97500Y-53697D01*
X97697Y-53500D02*
X97303Y-53500D01*
X97500Y-55303D02*
X97500Y-55697D01*
X97697Y-55500D02*
X97303Y-55500D01*
X97500Y-57803D02*
X97500Y-58197D01*
X97697Y-58000D02*
X97303Y-58000D01*
X97500Y-59803D02*
X97500Y-60197D01*
X97697Y-60000D02*
X97303Y-60000D01*
X102000Y-53303D02*
X102000Y-53697D01*
X102197Y-53500D02*
X101803Y-53500D01*
X102000Y-55303D02*
X102000Y-55697D01*
X102197Y-55500D02*
X101803Y-55500D01*
X102000Y-57803D02*
X102000Y-58197D01*
X102197Y-58000D02*
X101803Y-58000D01*
X102000Y-59803D02*
X102000Y-60197D01*
X102197Y-60000D02*
X101803Y-60000D01*
X106500Y-53303D02*
X106500Y-53697D01*
X106697Y-53500D02*
X106303Y-53500D01*
X106500Y-55303D02*
X106500Y-55697D01*
X106697Y-55500D02*
X106303Y-55500D01*
X106500Y-57803D02*
X106500Y-58197D01*
X106697Y-58000D02*
X106303Y-58000D01*
X106500Y-59803D02*
X106500Y-60197D01*
X106697Y-60000D02*
X106303Y-60000D01*
X111000Y-53303D02*
X111000Y-53697D01*
X111197Y-53500D02*
X110803Y-53500D01*
X111000Y-55303D02*
X111000Y-55697D01*
X111197Y-55500D02*
X110803Y-55500D01*
X111000Y-57703D02*
X111000Y-58097D01*
X111197Y-57900D02*
X110803Y-57900D01*
X111000Y-59703D02*
X111000Y-60097D01*
X111197Y-59900D02*
X110803Y-59900D01*
X115600Y-53303D02*
X115600Y-53697D01*
X115797Y-53500D02*
X115403Y-53500D01*
X115600Y-55303D02*
X115600Y-55697D01*
X115797Y-55500D02*
X115403Y-55500D01*
X115600Y-57803D02*
X115600Y-58197D01*
X115797Y-58000D02*
X115403Y-58000D01*
X115600Y-59803D02*
X115600Y-60197D01*
X115797Y-60000D02*
X115403Y-60000D01*
X120000Y-53303D02*
X120000Y-53697D01*
X120197Y-53500D02*
X119803Y-53500D01*
X120000Y-55303D02*
X120000Y-55697D01*
X120197Y-55500D02*
X119803Y-55500D01*
X120000Y-57803D02*
X120000Y-58197D01*
X120197Y-58000D02*
X119803Y-58000D01*
X120000Y-59803D02*
X120000Y-60197D01*
X120197Y-60000D02*
X119803Y-60000D01*
X124500Y-53303D02*
X124500Y-53697D01*
X124697Y-53500D02*
X124303Y-53500D01*
X124500Y-55303D02*
X124500Y-55697D01*
X124697Y-55500D02*
X124303Y-55500D01*
X124500Y-57803D02*
X124500Y-58197D01*
X124697Y-58000D02*
X124303Y-58000D01*
X124500Y-59803D02*
X124500Y-60197D01*
X124697Y-60000D02*
X124303Y-60000D01*
X130500Y-55003D02*
X130500Y-55397D01*
X130697Y-55200D02*
X130303Y-55200D01*
X130500Y-58003D02*
X130500Y-58397D01*
X130697Y-58200D02*
X130303Y-58200D01*
X28000Y-53200D02*
X27996Y-53238D01*
X27984Y-53276D01*
X27966Y-53310D01*
X27941Y-53340D01*
X27911Y-53365D01*
X27877Y-53384D01*
X27840Y-53395D01*
X27801Y-53399D01*
X27763Y-53396D01*
X27726Y-53385D01*
X27691Y-53367D01*
X27661Y-53342D01*
X27635Y-53312D01*
X27617Y-53278D01*
X27605Y-53241D01*
X27601Y-53202D01*
X27604Y-53164D01*
X27615Y-53127D01*
X27632Y-53092D01*
X27657Y-53062D01*
X27686Y-53036D01*
X27720Y-53017D01*
X27758Y-53005D01*
X27796Y-53001D01*
X27834Y-53004D01*
X27872Y-53014D01*
X27907Y-53032D01*
X27937Y-53056D01*
X27963Y-53085D01*
X27982Y-53119D01*
X27995Y-53156D01*
X27999Y-53195D01*
X28000Y-53200D01*
X27600Y-53000D02*
X28000Y-53400D01*
X28000Y-53000D02*
X27600Y-53400D01*
X28000Y-54200D02*
X27996Y-54238D01*
X27984Y-54276D01*
X27966Y-54310D01*
X27941Y-54340D01*
X27911Y-54365D01*
X27877Y-54384D01*
X27840Y-54395D01*
X27801Y-54399D01*
X27763Y-54396D01*
X27726Y-54385D01*
X27691Y-54367D01*
X27661Y-54342D01*
X27635Y-54312D01*
X27617Y-54278D01*
X27605Y-54241D01*
X27601Y-54202D01*
X27604Y-54164D01*
X27615Y-54127D01*
X27632Y-54092D01*
X27657Y-54062D01*
X27686Y-54036D01*
X27720Y-54017D01*
X27758Y-54005D01*
X27796Y-54001D01*
X27834Y-54004D01*
X27872Y-54014D01*
X27907Y-54032D01*
X27937Y-54056D01*
X27963Y-54085D01*
X27982Y-54119D01*
X27995Y-54156D01*
X27999Y-54195D01*
X28000Y-54200D01*
X27600Y-54000D02*
X28000Y-54400D01*
X28000Y-54000D02*
X27600Y-54400D01*
X28000Y-55200D02*
X27996Y-55238D01*
X27984Y-55276D01*
X27966Y-55310D01*
X27941Y-55340D01*
X27911Y-55365D01*
X27877Y-55384D01*
X27840Y-55395D01*
X27801Y-55399D01*
X27763Y-55396D01*
X27726Y-55385D01*
X27691Y-55367D01*
X27661Y-55342D01*
X27635Y-55312D01*
X27617Y-55278D01*
X27605Y-55241D01*
X27601Y-55202D01*
X27604Y-55164D01*
X27615Y-55127D01*
X27632Y-55092D01*
X27657Y-55062D01*
X27686Y-55036D01*
X27720Y-55017D01*
X27758Y-55005D01*
X27796Y-55001D01*
X27834Y-55004D01*
X27872Y-55014D01*
X27907Y-55032D01*
X27937Y-55056D01*
X27963Y-55085D01*
X27982Y-55119D01*
X27995Y-55156D01*
X27999Y-55195D01*
X28000Y-55200D01*
X27600Y-55000D02*
X28000Y-55400D01*
X28000Y-55000D02*
X27600Y-55400D01*
X28000Y-56200D02*
X27996Y-56238D01*
X27984Y-56276D01*
X27966Y-56310D01*
X27941Y-56340D01*
X27911Y-56365D01*
X27877Y-56384D01*
X27840Y-56395D01*
X27801Y-56399D01*
X27763Y-56396D01*
X27726Y-56385D01*
X27691Y-56367D01*
X27661Y-56342D01*
X27635Y-56312D01*
X27617Y-56278D01*
X27605Y-56241D01*
X27601Y-56202D01*
X27604Y-56164D01*
X27615Y-56127D01*
X27632Y-56092D01*
X27657Y-56062D01*
X27686Y-56036D01*
X27720Y-56017D01*
X27758Y-56005D01*
X27796Y-56001D01*
X27834Y-56004D01*
X27872Y-56014D01*
X27907Y-56032D01*
X27937Y-56056D01*
X27963Y-56085D01*
X27982Y-56119D01*
X27995Y-56156D01*
X27999Y-56195D01*
X28000Y-56200D01*
X27600Y-56000D02*
X28000Y-56400D01*
X28000Y-56000D02*
X27600Y-56400D01*
X28000Y-57200D02*
X27996Y-57238D01*
X27984Y-57276D01*
X27966Y-57310D01*
X27941Y-57340D01*
X27911Y-57365D01*
X27877Y-57384D01*
X27840Y-57395D01*
X27801Y-57399D01*
X27763Y-57396D01*
X27726Y-57385D01*
X27691Y-57367D01*
X27661Y-57342D01*
X27635Y-57312D01*
X27617Y-57278D01*
X27605Y-57241D01*
X27601Y-57202D01*
X27604Y-57164D01*
X27615Y-57127D01*
X27632Y-57092D01*
X27657Y-57062D01*
X27686Y-57036D01*
X27720Y-57017D01*
X27758Y-57005D01*
X27796Y-57001D01*
X27834Y-57004D01*
X27872Y-57014D01*
X27907Y-57032D01*
X27937Y-57056D01*
X27963Y-57085D01*
X27982Y-57119D01*
X27995Y-57156D01*
X27999Y-57195D01*
X28000Y-57200D01*
X27600Y-57000D02*
X28000Y-57400D01*
X28000Y-57000D02*
X27600Y-57400D01*
X28000Y-58200D02*
X27996Y-58238D01*
X27984Y-58276D01*
X27966Y-58310D01*
X27941Y-58340D01*
X27911Y-58365D01*
X27877Y-58384D01*
X27840Y-58395D01*
X27801Y-58399D01*
X27763Y-58396D01*
X27726Y-58385D01*
X27691Y-58367D01*
X27661Y-58342D01*
X27635Y-58312D01*
X27617Y-58278D01*
X27605Y-58241D01*
X27601Y-58202D01*
X27604Y-58164D01*
X27615Y-58127D01*
X27632Y-58092D01*
X27657Y-58062D01*
X27686Y-58036D01*
X27720Y-58017D01*
X27758Y-58005D01*
X27796Y-58001D01*
X27834Y-58004D01*
X27872Y-58014D01*
X27907Y-58032D01*
X27937Y-58056D01*
X27963Y-58085D01*
X27982Y-58119D01*
X27995Y-58156D01*
X27999Y-58195D01*
X28000Y-58200D01*
X27600Y-58000D02*
X28000Y-58400D01*
X28000Y-58000D02*
X27600Y-58400D01*
X28000Y-59200D02*
X27996Y-59238D01*
X27984Y-59276D01*
X27966Y-59310D01*
X27941Y-59340D01*
X27911Y-59365D01*
X27877Y-59384D01*
X27840Y-59395D01*
X27801Y-59399D01*
X27763Y-59396D01*
X27726Y-59385D01*
X27691Y-59367D01*
X27661Y-59342D01*
X27635Y-59312D01*
X27617Y-59278D01*
X27605Y-59241D01*
X27601Y-59202D01*
X27604Y-59164D01*
X27615Y-59127D01*
X27632Y-59092D01*
X27657Y-59062D01*
X27686Y-59036D01*
X27720Y-59017D01*
X27758Y-59005D01*
X27796Y-59001D01*
X27834Y-59004D01*
X27872Y-59014D01*
X27907Y-59032D01*
X27937Y-59056D01*
X27963Y-59085D01*
X27982Y-59119D01*
X27995Y-59156D01*
X27999Y-59195D01*
X28000Y-59200D01*
X27600Y-59000D02*
X28000Y-59400D01*
X28000Y-59000D02*
X27600Y-59400D01*
X28000Y-60200D02*
X27996Y-60238D01*
X27984Y-60276D01*
X27966Y-60310D01*
X27941Y-60340D01*
X27911Y-60365D01*
X27877Y-60384D01*
X27840Y-60395D01*
X27801Y-60399D01*
X27763Y-60396D01*
X27726Y-60385D01*
X27691Y-60367D01*
X27661Y-60342D01*
X27635Y-60312D01*
X27617Y-60278D01*
X27605Y-60241D01*
X27601Y-60202D01*
X27604Y-60164D01*
X27615Y-60127D01*
X27632Y-60092D01*
X27657Y-60062D01*
X27686Y-60036D01*
X27720Y-60017D01*
X27758Y-60005D01*
X27796Y-60001D01*
X27834Y-60004D01*
X27872Y-60014D01*
X27907Y-60032D01*
X27937Y-60056D01*
X27963Y-60085D01*
X27982Y-60119D01*
X27995Y-60156D01*
X27999Y-60195D01*
X28000Y-60200D01*
X27600Y-60000D02*
X28000Y-60400D01*
X28000Y-60000D02*
X27600Y-60400D01*
X29000Y-53200D02*
X28996Y-53238D01*
X28984Y-53276D01*
X28966Y-53310D01*
X28941Y-53340D01*
X28911Y-53365D01*
X28877Y-53384D01*
X28840Y-53395D01*
X28801Y-53399D01*
X28763Y-53396D01*
X28726Y-53385D01*
X28691Y-53367D01*
X28661Y-53342D01*
X28635Y-53312D01*
X28617Y-53278D01*
X28605Y-53241D01*
X28601Y-53202D01*
X28604Y-53164D01*
X28615Y-53127D01*
X28632Y-53092D01*
X28657Y-53062D01*
X28686Y-53036D01*
X28720Y-53017D01*
X28758Y-53005D01*
X28796Y-53001D01*
X28834Y-53004D01*
X28872Y-53014D01*
X28907Y-53032D01*
X28937Y-53056D01*
X28963Y-53085D01*
X28982Y-53119D01*
X28995Y-53156D01*
X28999Y-53195D01*
X29000Y-53200D01*
X28600Y-53000D02*
X29000Y-53400D01*
X29000Y-53000D02*
X28600Y-53400D01*
X29000Y-54200D02*
X28996Y-54238D01*
X28984Y-54276D01*
X28966Y-54310D01*
X28941Y-54340D01*
X28911Y-54365D01*
X28877Y-54384D01*
X28840Y-54395D01*
X28801Y-54399D01*
X28763Y-54396D01*
X28726Y-54385D01*
X28691Y-54367D01*
X28661Y-54342D01*
X28635Y-54312D01*
X28617Y-54278D01*
X28605Y-54241D01*
X28601Y-54202D01*
X28604Y-54164D01*
X28615Y-54127D01*
X28632Y-54092D01*
X28657Y-54062D01*
X28686Y-54036D01*
X28720Y-54017D01*
X28758Y-54005D01*
X28796Y-54001D01*
X28834Y-54004D01*
X28872Y-54014D01*
X28907Y-54032D01*
X28937Y-54056D01*
X28963Y-54085D01*
X28982Y-54119D01*
X28995Y-54156D01*
X28999Y-54195D01*
X29000Y-54200D01*
X28600Y-54000D02*
X29000Y-54400D01*
X29000Y-54000D02*
X28600Y-54400D01*
X29000Y-55200D02*
X28996Y-55238D01*
X28984Y-55276D01*
X28966Y-55310D01*
X28941Y-55340D01*
X28911Y-55365D01*
X28877Y-55384D01*
X28840Y-55395D01*
X28801Y-55399D01*
X28763Y-55396D01*
X28726Y-55385D01*
X28691Y-55367D01*
X28661Y-55342D01*
X28635Y-55312D01*
X28617Y-55278D01*
X28605Y-55241D01*
X28601Y-55202D01*
X28604Y-55164D01*
X28615Y-55127D01*
X28632Y-55092D01*
X28657Y-55062D01*
X28686Y-55036D01*
X28720Y-55017D01*
X28758Y-55005D01*
X28796Y-55001D01*
X28834Y-55004D01*
X28872Y-55014D01*
X28907Y-55032D01*
X28937Y-55056D01*
X28963Y-55085D01*
X28982Y-55119D01*
X28995Y-55156D01*
X28999Y-55195D01*
X29000Y-55200D01*
X28600Y-55000D02*
X29000Y-55400D01*
X29000Y-55000D02*
X28600Y-55400D01*
X29000Y-56200D02*
X28996Y-56238D01*
X28984Y-56276D01*
X28966Y-56310D01*
X28941Y-56340D01*
X28911Y-56365D01*
X28877Y-56384D01*
X28840Y-56395D01*
X28801Y-56399D01*
X28763Y-56396D01*
X28726Y-56385D01*
X28691Y-56367D01*
X28661Y-56342D01*
X28635Y-56312D01*
X28617Y-56278D01*
X28605Y-56241D01*
X28601Y-56202D01*
X28604Y-56164D01*
X28615Y-56127D01*
X28632Y-56092D01*
X28657Y-56062D01*
X28686Y-56036D01*
X28720Y-56017D01*
X28758Y-56005D01*
X28796Y-56001D01*
X28834Y-56004D01*
X28872Y-56014D01*
X28907Y-56032D01*
X28937Y-56056D01*
X28963Y-56085D01*
X28982Y-56119D01*
X28995Y-56156D01*
X28999Y-56195D01*
X29000Y-56200D01*
X28600Y-56000D02*
X29000Y-56400D01*
X29000Y-56000D02*
X28600Y-56400D01*
X29000Y-57200D02*
X28996Y-57238D01*
X28984Y-57276D01*
X28966Y-57310D01*
X28941Y-57340D01*
X28911Y-57365D01*
X28877Y-57384D01*
X28840Y-57395D01*
X28801Y-57399D01*
X28763Y-57396D01*
X28726Y-57385D01*
X28691Y-57367D01*
X28661Y-57342D01*
X28635Y-57312D01*
X28617Y-57278D01*
X28605Y-57241D01*
X28601Y-57202D01*
X28604Y-57164D01*
X28615Y-57127D01*
X28632Y-57092D01*
X28657Y-57062D01*
X28686Y-57036D01*
X28720Y-57017D01*
X28758Y-57005D01*
X28796Y-57001D01*
X28834Y-57004D01*
X28872Y-57014D01*
X28907Y-57032D01*
X28937Y-57056D01*
X28963Y-57085D01*
X28982Y-57119D01*
X28995Y-57156D01*
X28999Y-57195D01*
X29000Y-57200D01*
X28600Y-57000D02*
X29000Y-57400D01*
X29000Y-57000D02*
X28600Y-57400D01*
X29000Y-58200D02*
X28996Y-58238D01*
X28984Y-58276D01*
X28966Y-58310D01*
X28941Y-58340D01*
X28911Y-58365D01*
X28877Y-58384D01*
X28840Y-58395D01*
X28801Y-58399D01*
X28763Y-58396D01*
X28726Y-58385D01*
X28691Y-58367D01*
X28661Y-58342D01*
X28635Y-58312D01*
X28617Y-58278D01*
X28605Y-58241D01*
X28601Y-58202D01*
X28604Y-58164D01*
X28615Y-58127D01*
X28632Y-58092D01*
X28657Y-58062D01*
X28686Y-58036D01*
X28720Y-58017D01*
X28758Y-58005D01*
X28796Y-58001D01*
X28834Y-58004D01*
X28872Y-58014D01*
X28907Y-58032D01*
X28937Y-58056D01*
X28963Y-58085D01*
X28982Y-58119D01*
X28995Y-58156D01*
X28999Y-58195D01*
X29000Y-58200D01*
X28600Y-58000D02*
X29000Y-58400D01*
X29000Y-58000D02*
X28600Y-58400D01*
X29000Y-59200D02*
X28996Y-59238D01*
X28984Y-59276D01*
X28966Y-59310D01*
X28941Y-59340D01*
X28911Y-59365D01*
X28877Y-59384D01*
X28840Y-59395D01*
X28801Y-59399D01*
X28763Y-59396D01*
X28726Y-59385D01*
X28691Y-59367D01*
X28661Y-59342D01*
X28635Y-59312D01*
X28617Y-59278D01*
X28605Y-59241D01*
X28601Y-59202D01*
X28604Y-59164D01*
X28615Y-59127D01*
X28632Y-59092D01*
X28657Y-59062D01*
X28686Y-59036D01*
X28720Y-59017D01*
X28758Y-59005D01*
X28796Y-59001D01*
X28834Y-59004D01*
X28872Y-59014D01*
X28907Y-59032D01*
X28937Y-59056D01*
X28963Y-59085D01*
X28982Y-59119D01*
X28995Y-59156D01*
X28999Y-59195D01*
X29000Y-59200D01*
X28600Y-59000D02*
X29000Y-59400D01*
X29000Y-59000D02*
X28600Y-59400D01*
X29000Y-60200D02*
X28996Y-60238D01*
X28984Y-60276D01*
X28966Y-60310D01*
X28941Y-60340D01*
X28911Y-60365D01*
X28877Y-60384D01*
X28840Y-60395D01*
X28801Y-60399D01*
X28763Y-60396D01*
X28726Y-60385D01*
X28691Y-60367D01*
X28661Y-60342D01*
X28635Y-60312D01*
X28617Y-60278D01*
X28605Y-60241D01*
X28601Y-60202D01*
X28604Y-60164D01*
X28615Y-60127D01*
X28632Y-60092D01*
X28657Y-60062D01*
X28686Y-60036D01*
X28720Y-60017D01*
X28758Y-60005D01*
X28796Y-60001D01*
X28834Y-60004D01*
X28872Y-60014D01*
X28907Y-60032D01*
X28937Y-60056D01*
X28963Y-60085D01*
X28982Y-60119D01*
X28995Y-60156D01*
X28999Y-60195D01*
X29000Y-60200D01*
X28600Y-60000D02*
X29000Y-60400D01*
X29000Y-60000D02*
X28600Y-60400D01*
X75000Y-54900D02*
X74996Y-54938D01*
X74984Y-54976D01*
X74966Y-55010D01*
X74941Y-55040D01*
X74911Y-55065D01*
X74877Y-55084D01*
X74840Y-55095D01*
X74801Y-55099D01*
X74763Y-55096D01*
X74726Y-55085D01*
X74691Y-55067D01*
X74661Y-55042D01*
X74635Y-55012D01*
X74617Y-54978D01*
X74605Y-54941D01*
X74601Y-54902D01*
X74604Y-54864D01*
X74615Y-54827D01*
X74632Y-54792D01*
X74657Y-54762D01*
X74686Y-54736D01*
X74720Y-54717D01*
X74758Y-54705D01*
X74796Y-54701D01*
X74834Y-54704D01*
X74872Y-54714D01*
X74907Y-54732D01*
X74937Y-54756D01*
X74963Y-54785D01*
X74982Y-54819D01*
X74995Y-54856D01*
X74999Y-54895D01*
X75000Y-54900D01*
X74600Y-54700D02*
X75000Y-55100D01*
X75000Y-54700D02*
X74600Y-55100D01*
X75000Y-55900D02*
X74996Y-55938D01*
X74984Y-55976D01*
X74966Y-56010D01*
X74941Y-56040D01*
X74911Y-56065D01*
X74877Y-56084D01*
X74840Y-56095D01*
X74801Y-56099D01*
X74763Y-56096D01*
X74726Y-56085D01*
X74691Y-56067D01*
X74661Y-56042D01*
X74635Y-56012D01*
X74617Y-55978D01*
X74605Y-55941D01*
X74601Y-55902D01*
X74604Y-55864D01*
X74615Y-55827D01*
X74632Y-55792D01*
X74657Y-55762D01*
X74686Y-55736D01*
X74720Y-55717D01*
X74758Y-55705D01*
X74796Y-55701D01*
X74834Y-55704D01*
X74872Y-55714D01*
X74907Y-55732D01*
X74937Y-55756D01*
X74963Y-55785D01*
X74982Y-55819D01*
X74995Y-55856D01*
X74999Y-55895D01*
X75000Y-55900D01*
X74600Y-55700D02*
X75000Y-56100D01*
X75000Y-55700D02*
X74600Y-56100D01*
X75500Y-51575D02*
X75496Y-51613D01*
X75484Y-51651D01*
X75466Y-51685D01*
X75441Y-51715D01*
X75411Y-51740D01*
X75377Y-51759D01*
X75340Y-51770D01*
X75301Y-51774D01*
X75263Y-51771D01*
X75226Y-51760D01*
X75191Y-51742D01*
X75161Y-51717D01*
X75135Y-51687D01*
X75117Y-51653D01*
X75105Y-51616D01*
X75101Y-51577D01*
X75104Y-51539D01*
X75115Y-51502D01*
X75132Y-51467D01*
X75157Y-51437D01*
X75186Y-51411D01*
X75220Y-51392D01*
X75258Y-51380D01*
X75296Y-51376D01*
X75334Y-51379D01*
X75372Y-51389D01*
X75407Y-51407D01*
X75437Y-51431D01*
X75463Y-51460D01*
X75482Y-51494D01*
X75495Y-51531D01*
X75499Y-51570D01*
X75500Y-51575D01*
X75100Y-51375D02*
X75500Y-51775D01*
X75500Y-51375D02*
X75100Y-51775D01*
X75500Y-53325D02*
X75496Y-53363D01*
X75484Y-53401D01*
X75466Y-53435D01*
X75441Y-53465D01*
X75411Y-53490D01*
X75377Y-53509D01*
X75340Y-53520D01*
X75301Y-53524D01*
X75263Y-53521D01*
X75226Y-53510D01*
X75191Y-53492D01*
X75161Y-53467D01*
X75135Y-53437D01*
X75117Y-53403D01*
X75105Y-53366D01*
X75101Y-53327D01*
X75104Y-53289D01*
X75115Y-53252D01*
X75132Y-53217D01*
X75157Y-53187D01*
X75186Y-53161D01*
X75220Y-53142D01*
X75258Y-53130D01*
X75296Y-53126D01*
X75334Y-53129D01*
X75372Y-53139D01*
X75407Y-53157D01*
X75437Y-53181D01*
X75463Y-53210D01*
X75482Y-53244D01*
X75495Y-53281D01*
X75499Y-53320D01*
X75500Y-53325D01*
X75100Y-53125D02*
X75500Y-53525D01*
X75500Y-53125D02*
X75100Y-53525D01*
X76000Y-54900D02*
X75996Y-54938D01*
X75984Y-54976D01*
X75966Y-55010D01*
X75941Y-55040D01*
X75911Y-55065D01*
X75877Y-55084D01*
X75840Y-55095D01*
X75801Y-55099D01*
X75763Y-55096D01*
X75726Y-55085D01*
X75691Y-55067D01*
X75661Y-55042D01*
X75635Y-55012D01*
X75617Y-54978D01*
X75605Y-54941D01*
X75601Y-54902D01*
X75604Y-54864D01*
X75615Y-54827D01*
X75632Y-54792D01*
X75657Y-54762D01*
X75686Y-54736D01*
X75720Y-54717D01*
X75758Y-54705D01*
X75796Y-54701D01*
X75834Y-54704D01*
X75872Y-54714D01*
X75907Y-54732D01*
X75937Y-54756D01*
X75963Y-54785D01*
X75982Y-54819D01*
X75995Y-54856D01*
X75999Y-54895D01*
X76000Y-54900D01*
X75600Y-54700D02*
X76000Y-55100D01*
X76000Y-54700D02*
X75600Y-55100D01*
X76000Y-55900D02*
X75996Y-55938D01*
X75984Y-55976D01*
X75966Y-56010D01*
X75941Y-56040D01*
X75911Y-56065D01*
X75877Y-56084D01*
X75840Y-56095D01*
X75801Y-56099D01*
X75763Y-56096D01*
X75726Y-56085D01*
X75691Y-56067D01*
X75661Y-56042D01*
X75635Y-56012D01*
X75617Y-55978D01*
X75605Y-55941D01*
X75601Y-55902D01*
X75604Y-55864D01*
X75615Y-55827D01*
X75632Y-55792D01*
X75657Y-55762D01*
X75686Y-55736D01*
X75720Y-55717D01*
X75758Y-55705D01*
X75796Y-55701D01*
X75834Y-55704D01*
X75872Y-55714D01*
X75907Y-55732D01*
X75937Y-55756D01*
X75963Y-55785D01*
X75982Y-55819D01*
X75995Y-55856D01*
X75999Y-55895D01*
X76000Y-55900D01*
X75600Y-55700D02*
X76000Y-56100D01*
X76000Y-55700D02*
X75600Y-56100D01*
X77000Y-54900D02*
X76996Y-54938D01*
X76984Y-54976D01*
X76966Y-55010D01*
X76941Y-55040D01*
X76911Y-55065D01*
X76877Y-55084D01*
X76840Y-55095D01*
X76801Y-55099D01*
X76763Y-55096D01*
X76726Y-55085D01*
X76691Y-55067D01*
X76661Y-55042D01*
X76635Y-55012D01*
X76617Y-54978D01*
X76605Y-54941D01*
X76601Y-54902D01*
X76604Y-54864D01*
X76615Y-54827D01*
X76632Y-54792D01*
X76657Y-54762D01*
X76686Y-54736D01*
X76720Y-54717D01*
X76758Y-54705D01*
X76796Y-54701D01*
X76834Y-54704D01*
X76872Y-54714D01*
X76907Y-54732D01*
X76937Y-54756D01*
X76963Y-54785D01*
X76982Y-54819D01*
X76995Y-54856D01*
X76999Y-54895D01*
X77000Y-54900D01*
X76600Y-54700D02*
X77000Y-55100D01*
X77000Y-54700D02*
X76600Y-55100D01*
X77000Y-55900D02*
X76996Y-55938D01*
X76984Y-55976D01*
X76966Y-56010D01*
X76941Y-56040D01*
X76911Y-56065D01*
X76877Y-56084D01*
X76840Y-56095D01*
X76801Y-56099D01*
X76763Y-56096D01*
X76726Y-56085D01*
X76691Y-56067D01*
X76661Y-56042D01*
X76635Y-56012D01*
X76617Y-55978D01*
X76605Y-55941D01*
X76601Y-55902D01*
X76604Y-55864D01*
X76615Y-55827D01*
X76632Y-55792D01*
X76657Y-55762D01*
X76686Y-55736D01*
X76720Y-55717D01*
X76758Y-55705D01*
X76796Y-55701D01*
X76834Y-55704D01*
X76872Y-55714D01*
X76907Y-55732D01*
X76937Y-55756D01*
X76963Y-55785D01*
X76982Y-55819D01*
X76995Y-55856D01*
X76999Y-55895D01*
X77000Y-55900D01*
X76600Y-55700D02*
X77000Y-56100D01*
X77000Y-55700D02*
X76600Y-56100D01*
X78050Y-51575D02*
X78046Y-51613D01*
X78034Y-51651D01*
X78016Y-51685D01*
X77991Y-51715D01*
X77961Y-51740D01*
X77927Y-51759D01*
X77890Y-51770D01*
X77851Y-51774D01*
X77813Y-51771D01*
X77776Y-51760D01*
X77741Y-51742D01*
X77711Y-51717D01*
X77685Y-51687D01*
X77667Y-51653D01*
X77655Y-51616D01*
X77651Y-51577D01*
X77654Y-51539D01*
X77665Y-51502D01*
X77682Y-51467D01*
X77707Y-51437D01*
X77736Y-51411D01*
X77770Y-51392D01*
X77808Y-51380D01*
X77846Y-51376D01*
X77884Y-51379D01*
X77922Y-51389D01*
X77957Y-51407D01*
X77987Y-51431D01*
X78013Y-51460D01*
X78032Y-51494D01*
X78045Y-51531D01*
X78049Y-51570D01*
X78050Y-51575D01*
X77650Y-51375D02*
X78050Y-51775D01*
X78050Y-51375D02*
X77650Y-51775D01*
X78050Y-53325D02*
X78046Y-53363D01*
X78034Y-53401D01*
X78016Y-53435D01*
X77991Y-53465D01*
X77961Y-53490D01*
X77927Y-53509D01*
X77890Y-53520D01*
X77851Y-53524D01*
X77813Y-53521D01*
X77776Y-53510D01*
X77741Y-53492D01*
X77711Y-53467D01*
X77685Y-53437D01*
X77667Y-53403D01*
X77655Y-53366D01*
X77651Y-53327D01*
X77654Y-53289D01*
X77665Y-53252D01*
X77682Y-53217D01*
X77707Y-53187D01*
X77736Y-53161D01*
X77770Y-53142D01*
X77808Y-53130D01*
X77846Y-53126D01*
X77884Y-53129D01*
X77922Y-53139D01*
X77957Y-53157D01*
X77987Y-53181D01*
X78013Y-53210D01*
X78032Y-53244D01*
X78045Y-53281D01*
X78049Y-53320D01*
X78050Y-53325D01*
X77650Y-53125D02*
X78050Y-53525D01*
X78050Y-53125D02*
X77650Y-53525D01*
X80900Y-51575D02*
X80896Y-51613D01*
X80884Y-51651D01*
X80866Y-51685D01*
X80841Y-51715D01*
X80811Y-51740D01*
X80777Y-51759D01*
X80740Y-51770D01*
X80701Y-51774D01*
X80663Y-51771D01*
X80626Y-51760D01*
X80591Y-51742D01*
X80561Y-51717D01*
X80535Y-51687D01*
X80517Y-51653D01*
X80505Y-51616D01*
X80501Y-51577D01*
X80504Y-51539D01*
X80515Y-51502D01*
X80532Y-51467D01*
X80557Y-51437D01*
X80586Y-51411D01*
X80620Y-51392D01*
X80658Y-51380D01*
X80696Y-51376D01*
X80734Y-51379D01*
X80772Y-51389D01*
X80807Y-51407D01*
X80837Y-51431D01*
X80863Y-51460D01*
X80882Y-51494D01*
X80895Y-51531D01*
X80899Y-51570D01*
X80900Y-51575D01*
X80500Y-51375D02*
X80900Y-51775D01*
X80900Y-51375D02*
X80500Y-51775D01*
X80900Y-53325D02*
X80896Y-53363D01*
X80884Y-53401D01*
X80866Y-53435D01*
X80841Y-53465D01*
X80811Y-53490D01*
X80777Y-53509D01*
X80740Y-53520D01*
X80701Y-53524D01*
X80663Y-53521D01*
X80626Y-53510D01*
X80591Y-53492D01*
X80561Y-53467D01*
X80535Y-53437D01*
X80517Y-53403D01*
X80505Y-53366D01*
X80501Y-53327D01*
X80504Y-53289D01*
X80515Y-53252D01*
X80532Y-53217D01*
X80557Y-53187D01*
X80586Y-53161D01*
X80620Y-53142D01*
X80658Y-53130D01*
X80696Y-53126D01*
X80734Y-53129D01*
X80772Y-53139D01*
X80807Y-53157D01*
X80837Y-53181D01*
X80863Y-53210D01*
X80882Y-53244D01*
X80895Y-53281D01*
X80899Y-53320D01*
X80900Y-53325D01*
X80500Y-53125D02*
X80900Y-53525D01*
X80900Y-53125D02*
X80500Y-53525D01*
X83450Y-51575D02*
X83446Y-51613D01*
X83434Y-51651D01*
X83416Y-51685D01*
X83391Y-51715D01*
X83361Y-51740D01*
X83327Y-51759D01*
X83290Y-51770D01*
X83251Y-51774D01*
X83213Y-51771D01*
X83176Y-51760D01*
X83141Y-51742D01*
X83111Y-51717D01*
X83085Y-51687D01*
X83067Y-51653D01*
X83055Y-51616D01*
X83051Y-51577D01*
X83054Y-51539D01*
X83065Y-51502D01*
X83082Y-51467D01*
X83107Y-51437D01*
X83136Y-51411D01*
X83170Y-51392D01*
X83208Y-51380D01*
X83246Y-51376D01*
X83284Y-51379D01*
X83322Y-51389D01*
X83357Y-51407D01*
X83387Y-51431D01*
X83413Y-51460D01*
X83432Y-51494D01*
X83445Y-51531D01*
X83449Y-51570D01*
X83450Y-51575D01*
X83050Y-51375D02*
X83450Y-51775D01*
X83450Y-51375D02*
X83050Y-51775D01*
X83450Y-53325D02*
X83446Y-53363D01*
X83434Y-53401D01*
X83416Y-53435D01*
X83391Y-53465D01*
X83361Y-53490D01*
X83327Y-53509D01*
X83290Y-53520D01*
X83251Y-53524D01*
X83213Y-53521D01*
X83176Y-53510D01*
X83141Y-53492D01*
X83111Y-53467D01*
X83085Y-53437D01*
X83067Y-53403D01*
X83055Y-53366D01*
X83051Y-53327D01*
X83054Y-53289D01*
X83065Y-53252D01*
X83082Y-53217D01*
X83107Y-53187D01*
X83136Y-53161D01*
X83170Y-53142D01*
X83208Y-53130D01*
X83246Y-53126D01*
X83284Y-53129D01*
X83322Y-53139D01*
X83357Y-53157D01*
X83387Y-53181D01*
X83413Y-53210D01*
X83432Y-53244D01*
X83445Y-53281D01*
X83449Y-53320D01*
X83450Y-53325D01*
X83050Y-53125D02*
X83450Y-53525D01*
X83450Y-53125D02*
X83050Y-53525D01*
X86300Y-51575D02*
X86296Y-51613D01*
X86284Y-51651D01*
X86266Y-51685D01*
X86241Y-51715D01*
X86211Y-51740D01*
X86177Y-51759D01*
X86140Y-51770D01*
X86101Y-51774D01*
X86063Y-51771D01*
X86026Y-51760D01*
X85991Y-51742D01*
X85961Y-51717D01*
X85935Y-51687D01*
X85917Y-51653D01*
X85905Y-51616D01*
X85901Y-51577D01*
X85904Y-51539D01*
X85915Y-51502D01*
X85932Y-51467D01*
X85957Y-51437D01*
X85986Y-51411D01*
X86020Y-51392D01*
X86058Y-51380D01*
X86096Y-51376D01*
X86134Y-51379D01*
X86172Y-51389D01*
X86207Y-51407D01*
X86237Y-51431D01*
X86263Y-51460D01*
X86282Y-51494D01*
X86295Y-51531D01*
X86299Y-51570D01*
X86300Y-51575D01*
X85900Y-51375D02*
X86300Y-51775D01*
X86300Y-51375D02*
X85900Y-51775D01*
X86300Y-53325D02*
X86296Y-53363D01*
X86284Y-53401D01*
X86266Y-53435D01*
X86241Y-53465D01*
X86211Y-53490D01*
X86177Y-53509D01*
X86140Y-53520D01*
X86101Y-53524D01*
X86063Y-53521D01*
X86026Y-53510D01*
X85991Y-53492D01*
X85961Y-53467D01*
X85935Y-53437D01*
X85917Y-53403D01*
X85905Y-53366D01*
X85901Y-53327D01*
X85904Y-53289D01*
X85915Y-53252D01*
X85932Y-53217D01*
X85957Y-53187D01*
X85986Y-53161D01*
X86020Y-53142D01*
X86058Y-53130D01*
X86096Y-53126D01*
X86134Y-53129D01*
X86172Y-53139D01*
X86207Y-53157D01*
X86237Y-53181D01*
X86263Y-53210D01*
X86282Y-53244D01*
X86295Y-53281D01*
X86299Y-53320D01*
X86300Y-53325D01*
X85900Y-53125D02*
X86300Y-53525D01*
X86300Y-53125D02*
X85900Y-53525D01*
X88850Y-51575D02*
X88846Y-51613D01*
X88834Y-51651D01*
X88816Y-51685D01*
X88791Y-51715D01*
X88761Y-51740D01*
X88727Y-51759D01*
X88690Y-51770D01*
X88651Y-51774D01*
X88613Y-51771D01*
X88576Y-51760D01*
X88541Y-51742D01*
X88511Y-51717D01*
X88485Y-51687D01*
X88467Y-51653D01*
X88455Y-51616D01*
X88451Y-51577D01*
X88454Y-51539D01*
X88465Y-51502D01*
X88482Y-51467D01*
X88507Y-51437D01*
X88536Y-51411D01*
X88570Y-51392D01*
X88608Y-51380D01*
X88646Y-51376D01*
X88684Y-51379D01*
X88722Y-51389D01*
X88757Y-51407D01*
X88787Y-51431D01*
X88813Y-51460D01*
X88832Y-51494D01*
X88845Y-51531D01*
X88849Y-51570D01*
X88850Y-51575D01*
X88450Y-51375D02*
X88850Y-51775D01*
X88850Y-51375D02*
X88450Y-51775D01*
X88850Y-53325D02*
X88846Y-53363D01*
X88834Y-53401D01*
X88816Y-53435D01*
X88791Y-53465D01*
X88761Y-53490D01*
X88727Y-53509D01*
X88690Y-53520D01*
X88651Y-53524D01*
X88613Y-53521D01*
X88576Y-53510D01*
X88541Y-53492D01*
X88511Y-53467D01*
X88485Y-53437D01*
X88467Y-53403D01*
X88455Y-53366D01*
X88451Y-53327D01*
X88454Y-53289D01*
X88465Y-53252D01*
X88482Y-53217D01*
X88507Y-53187D01*
X88536Y-53161D01*
X88570Y-53142D01*
X88608Y-53130D01*
X88646Y-53126D01*
X88684Y-53129D01*
X88722Y-53139D01*
X88757Y-53157D01*
X88787Y-53181D01*
X88813Y-53210D01*
X88832Y-53244D01*
X88845Y-53281D01*
X88849Y-53320D01*
X88850Y-53325D01*
X88450Y-53125D02*
X88850Y-53525D01*
X88850Y-53125D02*
X88450Y-53525D01*
X135500Y-53200D02*
X135496Y-53238D01*
X135484Y-53276D01*
X135466Y-53310D01*
X135441Y-53340D01*
X135411Y-53365D01*
X135377Y-53384D01*
X135340Y-53395D01*
X135301Y-53399D01*
X135263Y-53396D01*
X135226Y-53385D01*
X135191Y-53367D01*
X135161Y-53342D01*
X135135Y-53312D01*
X135117Y-53278D01*
X135105Y-53241D01*
X135101Y-53202D01*
X135104Y-53164D01*
X135115Y-53127D01*
X135132Y-53092D01*
X135157Y-53062D01*
X135186Y-53036D01*
X135220Y-53017D01*
X135258Y-53005D01*
X135296Y-53001D01*
X135334Y-53004D01*
X135372Y-53014D01*
X135407Y-53032D01*
X135437Y-53056D01*
X135463Y-53085D01*
X135482Y-53119D01*
X135495Y-53156D01*
X135499Y-53195D01*
X135500Y-53200D01*
X135100Y-53000D02*
X135500Y-53400D01*
X135500Y-53000D02*
X135100Y-53400D01*
X135500Y-54200D02*
X135496Y-54238D01*
X135484Y-54276D01*
X135466Y-54310D01*
X135441Y-54340D01*
X135411Y-54365D01*
X135377Y-54384D01*
X135340Y-54395D01*
X135301Y-54399D01*
X135263Y-54396D01*
X135226Y-54385D01*
X135191Y-54367D01*
X135161Y-54342D01*
X135135Y-54312D01*
X135117Y-54278D01*
X135105Y-54241D01*
X135101Y-54202D01*
X135104Y-54164D01*
X135115Y-54127D01*
X135132Y-54092D01*
X135157Y-54062D01*
X135186Y-54036D01*
X135220Y-54017D01*
X135258Y-54005D01*
X135296Y-54001D01*
X135334Y-54004D01*
X135372Y-54014D01*
X135407Y-54032D01*
X135437Y-54056D01*
X135463Y-54085D01*
X135482Y-54119D01*
X135495Y-54156D01*
X135499Y-54195D01*
X135500Y-54200D01*
X135100Y-54000D02*
X135500Y-54400D01*
X135500Y-54000D02*
X135100Y-54400D01*
X135500Y-55200D02*
X135496Y-55238D01*
X135484Y-55276D01*
X135466Y-55310D01*
X135441Y-55340D01*
X135411Y-55365D01*
X135377Y-55384D01*
X135340Y-55395D01*
X135301Y-55399D01*
X135263Y-55396D01*
X135226Y-55385D01*
X135191Y-55367D01*
X135161Y-55342D01*
X135135Y-55312D01*
X135117Y-55278D01*
X135105Y-55241D01*
X135101Y-55202D01*
X135104Y-55164D01*
X135115Y-55127D01*
X135132Y-55092D01*
X135157Y-55062D01*
X135186Y-55036D01*
X135220Y-55017D01*
X135258Y-55005D01*
X135296Y-55001D01*
X135334Y-55004D01*
X135372Y-55014D01*
X135407Y-55032D01*
X135437Y-55056D01*
X135463Y-55085D01*
X135482Y-55119D01*
X135495Y-55156D01*
X135499Y-55195D01*
X135500Y-55200D01*
X135100Y-55000D02*
X135500Y-55400D01*
X135500Y-55000D02*
X135100Y-55400D01*
X135500Y-56200D02*
X135496Y-56238D01*
X135484Y-56276D01*
X135466Y-56310D01*
X135441Y-56340D01*
X135411Y-56365D01*
X135377Y-56384D01*
X135340Y-56395D01*
X135301Y-56399D01*
X135263Y-56396D01*
X135226Y-56385D01*
X135191Y-56367D01*
X135161Y-56342D01*
X135135Y-56312D01*
X135117Y-56278D01*
X135105Y-56241D01*
X135101Y-56202D01*
X135104Y-56164D01*
X135115Y-56127D01*
X135132Y-56092D01*
X135157Y-56062D01*
X135186Y-56036D01*
X135220Y-56017D01*
X135258Y-56005D01*
X135296Y-56001D01*
X135334Y-56004D01*
X135372Y-56014D01*
X135407Y-56032D01*
X135437Y-56056D01*
X135463Y-56085D01*
X135482Y-56119D01*
X135495Y-56156D01*
X135499Y-56195D01*
X135500Y-56200D01*
X135100Y-56000D02*
X135500Y-56400D01*
X135500Y-56000D02*
X135100Y-56400D01*
X135500Y-57200D02*
X135496Y-57238D01*
X135484Y-57276D01*
X135466Y-57310D01*
X135441Y-57340D01*
X135411Y-57365D01*
X135377Y-57384D01*
X135340Y-57395D01*
X135301Y-57399D01*
X135263Y-57396D01*
X135226Y-57385D01*
X135191Y-57367D01*
X135161Y-57342D01*
X135135Y-57312D01*
X135117Y-57278D01*
X135105Y-57241D01*
X135101Y-57202D01*
X135104Y-57164D01*
X135115Y-57127D01*
X135132Y-57092D01*
X135157Y-57062D01*
X135186Y-57036D01*
X135220Y-57017D01*
X135258Y-57005D01*
X135296Y-57001D01*
X135334Y-57004D01*
X135372Y-57014D01*
X135407Y-57032D01*
X135437Y-57056D01*
X135463Y-57085D01*
X135482Y-57119D01*
X135495Y-57156D01*
X135499Y-57195D01*
X135500Y-57200D01*
X135100Y-57000D02*
X135500Y-57400D01*
X135500Y-57000D02*
X135100Y-57400D01*
X135500Y-58200D02*
X135496Y-58238D01*
X135484Y-58276D01*
X135466Y-58310D01*
X135441Y-58340D01*
X135411Y-58365D01*
X135377Y-58384D01*
X135340Y-58395D01*
X135301Y-58399D01*
X135263Y-58396D01*
X135226Y-58385D01*
X135191Y-58367D01*
X135161Y-58342D01*
X135135Y-58312D01*
X135117Y-58278D01*
X135105Y-58241D01*
X135101Y-58202D01*
X135104Y-58164D01*
X135115Y-58127D01*
X135132Y-58092D01*
X135157Y-58062D01*
X135186Y-58036D01*
X135220Y-58017D01*
X135258Y-58005D01*
X135296Y-58001D01*
X135334Y-58004D01*
X135372Y-58014D01*
X135407Y-58032D01*
X135437Y-58056D01*
X135463Y-58085D01*
X135482Y-58119D01*
X135495Y-58156D01*
X135499Y-58195D01*
X135500Y-58200D01*
X135100Y-58000D02*
X135500Y-58400D01*
X135500Y-58000D02*
X135100Y-58400D01*
X135500Y-59200D02*
X135496Y-59238D01*
X135484Y-59276D01*
X135466Y-59310D01*
X135441Y-59340D01*
X135411Y-59365D01*
X135377Y-59384D01*
X135340Y-59395D01*
X135301Y-59399D01*
X135263Y-59396D01*
X135226Y-59385D01*
X135191Y-59367D01*
X135161Y-59342D01*
X135135Y-59312D01*
X135117Y-59278D01*
X135105Y-59241D01*
X135101Y-59202D01*
X135104Y-59164D01*
X135115Y-59127D01*
X135132Y-59092D01*
X135157Y-59062D01*
X135186Y-59036D01*
X135220Y-59017D01*
X135258Y-59005D01*
X135296Y-59001D01*
X135334Y-59004D01*
X135372Y-59014D01*
X135407Y-59032D01*
X135437Y-59056D01*
X135463Y-59085D01*
X135482Y-59119D01*
X135495Y-59156D01*
X135499Y-59195D01*
X135500Y-59200D01*
X135100Y-59000D02*
X135500Y-59400D01*
X135500Y-59000D02*
X135100Y-59400D01*
X135500Y-60200D02*
X135496Y-60238D01*
X135484Y-60276D01*
X135466Y-60310D01*
X135441Y-60340D01*
X135411Y-60365D01*
X135377Y-60384D01*
X135340Y-60395D01*
X135301Y-60399D01*
X135263Y-60396D01*
X135226Y-60385D01*
X135191Y-60367D01*
X135161Y-60342D01*
X135135Y-60312D01*
X135117Y-60278D01*
X135105Y-60241D01*
X135101Y-60202D01*
X135104Y-60164D01*
X135115Y-60127D01*
X135132Y-60092D01*
X135157Y-60062D01*
X135186Y-60036D01*
X135220Y-60017D01*
X135258Y-60005D01*
X135296Y-60001D01*
X135334Y-60004D01*
X135372Y-60014D01*
X135407Y-60032D01*
X135437Y-60056D01*
X135463Y-60085D01*
X135482Y-60119D01*
X135495Y-60156D01*
X135499Y-60195D01*
X135500Y-60200D01*
X135100Y-60000D02*
X135500Y-60400D01*
X135500Y-60000D02*
X135100Y-60400D01*
X136500Y-53200D02*
X136496Y-53238D01*
X136484Y-53276D01*
X136466Y-53310D01*
X136441Y-53340D01*
X136411Y-53365D01*
X136377Y-53384D01*
X136340Y-53395D01*
X136301Y-53399D01*
X136263Y-53396D01*
X136226Y-53385D01*
X136191Y-53367D01*
X136161Y-53342D01*
X136135Y-53312D01*
X136117Y-53278D01*
X136105Y-53241D01*
X136101Y-53202D01*
X136104Y-53164D01*
X136115Y-53127D01*
X136132Y-53092D01*
X136157Y-53062D01*
X136186Y-53036D01*
X136220Y-53017D01*
X136258Y-53005D01*
X136296Y-53001D01*
X136334Y-53004D01*
X136372Y-53014D01*
X136407Y-53032D01*
X136437Y-53056D01*
X136463Y-53085D01*
X136482Y-53119D01*
X136495Y-53156D01*
X136499Y-53195D01*
X136500Y-53200D01*
X136100Y-53000D02*
X136500Y-53400D01*
X136500Y-53000D02*
X136100Y-53400D01*
X136500Y-54200D02*
X136496Y-54238D01*
X136484Y-54276D01*
X136466Y-54310D01*
X136441Y-54340D01*
X136411Y-54365D01*
X136377Y-54384D01*
X136340Y-54395D01*
X136301Y-54399D01*
X136263Y-54396D01*
X136226Y-54385D01*
X136191Y-54367D01*
X136161Y-54342D01*
X136135Y-54312D01*
X136117Y-54278D01*
X136105Y-54241D01*
X136101Y-54202D01*
X136104Y-54164D01*
X136115Y-54127D01*
X136132Y-54092D01*
X136157Y-54062D01*
X136186Y-54036D01*
X136220Y-54017D01*
X136258Y-54005D01*
X136296Y-54001D01*
X136334Y-54004D01*
X136372Y-54014D01*
X136407Y-54032D01*
X136437Y-54056D01*
X136463Y-54085D01*
X136482Y-54119D01*
X136495Y-54156D01*
X136499Y-54195D01*
X136500Y-54200D01*
X136100Y-54000D02*
X136500Y-54400D01*
X136500Y-54000D02*
X136100Y-54400D01*
X136500Y-55200D02*
X136496Y-55238D01*
X136484Y-55276D01*
X136466Y-55310D01*
X136441Y-55340D01*
X136411Y-55365D01*
X136377Y-55384D01*
X136340Y-55395D01*
X136301Y-55399D01*
X136263Y-55396D01*
X136226Y-55385D01*
X136191Y-55367D01*
X136161Y-55342D01*
X136135Y-55312D01*
X136117Y-55278D01*
X136105Y-55241D01*
X136101Y-55202D01*
X136104Y-55164D01*
X136115Y-55127D01*
X136132Y-55092D01*
X136157Y-55062D01*
X136186Y-55036D01*
X136220Y-55017D01*
X136258Y-55005D01*
X136296Y-55001D01*
X136334Y-55004D01*
X136372Y-55014D01*
X136407Y-55032D01*
X136437Y-55056D01*
X136463Y-55085D01*
X136482Y-55119D01*
X136495Y-55156D01*
X136499Y-55195D01*
X136500Y-55200D01*
X136100Y-55000D02*
X136500Y-55400D01*
X136500Y-55000D02*
X136100Y-55400D01*
X136500Y-56200D02*
X136496Y-56238D01*
X136484Y-56276D01*
X136466Y-56310D01*
X136441Y-56340D01*
X136411Y-56365D01*
X136377Y-56384D01*
X136340Y-56395D01*
X136301Y-56399D01*
X136263Y-56396D01*
X136226Y-56385D01*
X136191Y-56367D01*
X136161Y-56342D01*
X136135Y-56312D01*
X136117Y-56278D01*
X136105Y-56241D01*
X136101Y-56202D01*
X136104Y-56164D01*
X136115Y-56127D01*
X136132Y-56092D01*
X136157Y-56062D01*
X136186Y-56036D01*
X136220Y-56017D01*
X136258Y-56005D01*
X136296Y-56001D01*
X136334Y-56004D01*
X136372Y-56014D01*
X136407Y-56032D01*
X136437Y-56056D01*
X136463Y-56085D01*
X136482Y-56119D01*
X136495Y-56156D01*
X136499Y-56195D01*
X136500Y-56200D01*
X136100Y-56000D02*
X136500Y-56400D01*
X136500Y-56000D02*
X136100Y-56400D01*
X136500Y-57200D02*
X136496Y-57238D01*
X136484Y-57276D01*
X136466Y-57310D01*
X136441Y-57340D01*
X136411Y-57365D01*
X136377Y-57384D01*
X136340Y-57395D01*
X136301Y-57399D01*
X136263Y-57396D01*
X136226Y-57385D01*
X136191Y-57367D01*
X136161Y-57342D01*
X136135Y-57312D01*
X136117Y-57278D01*
X136105Y-57241D01*
X136101Y-57202D01*
X136104Y-57164D01*
X136115Y-57127D01*
X136132Y-57092D01*
X136157Y-57062D01*
X136186Y-57036D01*
X136220Y-57017D01*
X136258Y-57005D01*
X136296Y-57001D01*
X136334Y-57004D01*
X136372Y-57014D01*
X136407Y-57032D01*
X136437Y-57056D01*
X136463Y-57085D01*
X136482Y-57119D01*
X136495Y-57156D01*
X136499Y-57195D01*
X136500Y-57200D01*
X136100Y-57000D02*
X136500Y-57400D01*
X136500Y-57000D02*
X136100Y-57400D01*
X136500Y-58200D02*
X136496Y-58238D01*
X136484Y-58276D01*
X136466Y-58310D01*
X136441Y-58340D01*
X136411Y-58365D01*
X136377Y-58384D01*
X136340Y-58395D01*
X136301Y-58399D01*
X136263Y-58396D01*
X136226Y-58385D01*
X136191Y-58367D01*
X136161Y-58342D01*
X136135Y-58312D01*
X136117Y-58278D01*
X136105Y-58241D01*
X136101Y-58202D01*
X136104Y-58164D01*
X136115Y-58127D01*
X136132Y-58092D01*
X136157Y-58062D01*
X136186Y-58036D01*
X136220Y-58017D01*
X136258Y-58005D01*
X136296Y-58001D01*
X136334Y-58004D01*
X136372Y-58014D01*
X136407Y-58032D01*
X136437Y-58056D01*
X136463Y-58085D01*
X136482Y-58119D01*
X136495Y-58156D01*
X136499Y-58195D01*
X136500Y-58200D01*
X136100Y-58000D02*
X136500Y-58400D01*
X136500Y-58000D02*
X136100Y-58400D01*
X136500Y-59200D02*
X136496Y-59238D01*
X136484Y-59276D01*
X136466Y-59310D01*
X136441Y-59340D01*
X136411Y-59365D01*
X136377Y-59384D01*
X136340Y-59395D01*
X136301Y-59399D01*
X136263Y-59396D01*
X136226Y-59385D01*
X136191Y-59367D01*
X136161Y-59342D01*
X136135Y-59312D01*
X136117Y-59278D01*
X136105Y-59241D01*
X136101Y-59202D01*
X136104Y-59164D01*
X136115Y-59127D01*
X136132Y-59092D01*
X136157Y-59062D01*
X136186Y-59036D01*
X136220Y-59017D01*
X136258Y-59005D01*
X136296Y-59001D01*
X136334Y-59004D01*
X136372Y-59014D01*
X136407Y-59032D01*
X136437Y-59056D01*
X136463Y-59085D01*
X136482Y-59119D01*
X136495Y-59156D01*
X136499Y-59195D01*
X136500Y-59200D01*
X136100Y-59000D02*
X136500Y-59400D01*
X136500Y-59000D02*
X136100Y-59400D01*
X136500Y-60200D02*
X136496Y-60238D01*
X136484Y-60276D01*
X136466Y-60310D01*
X136441Y-60340D01*
X136411Y-60365D01*
X136377Y-60384D01*
X136340Y-60395D01*
X136301Y-60399D01*
X136263Y-60396D01*
X136226Y-60385D01*
X136191Y-60367D01*
X136161Y-60342D01*
X136135Y-60312D01*
X136117Y-60278D01*
X136105Y-60241D01*
X136101Y-60202D01*
X136104Y-60164D01*
X136115Y-60127D01*
X136132Y-60092D01*
X136157Y-60062D01*
X136186Y-60036D01*
X136220Y-60017D01*
X136258Y-60005D01*
X136296Y-60001D01*
X136334Y-60004D01*
X136372Y-60014D01*
X136407Y-60032D01*
X136437Y-60056D01*
X136463Y-60085D01*
X136482Y-60119D01*
X136495Y-60156D01*
X136499Y-60195D01*
X136500Y-60200D01*
X136100Y-60000D02*
X136500Y-60400D01*
X136500Y-60000D02*
X136100Y-60400D01*
X85350Y-57800D02*
X85345Y-57848D01*
X85331Y-57895D01*
X85308Y-57938D01*
X85277Y-57976D01*
X85239Y-58007D01*
X85196Y-58030D01*
X85150Y-58044D01*
X85101Y-58049D01*
X85054Y-58045D01*
X85007Y-58031D01*
X84964Y-58009D01*
X84926Y-57978D01*
X84894Y-57941D01*
X84871Y-57898D01*
X84856Y-57851D01*
X84851Y-57803D01*
X84855Y-57755D01*
X84868Y-57708D01*
X84890Y-57665D01*
X84921Y-57627D01*
X84958Y-57595D01*
X85000Y-57571D01*
X85047Y-57556D01*
X85095Y-57551D01*
X85143Y-57554D01*
X85190Y-57567D01*
X85233Y-57589D01*
X85272Y-57619D01*
X85304Y-57656D01*
X85328Y-57699D01*
X85343Y-57745D01*
X85349Y-57794D01*
X85350Y-57800D01*
X84850Y-57800D02*
X85350Y-57800D01*
X89350Y-56800D02*
X89345Y-56848D01*
X89331Y-56895D01*
X89308Y-56938D01*
X89277Y-56976D01*
X89239Y-57007D01*
X89196Y-57030D01*
X89150Y-57044D01*
X89101Y-57049D01*
X89054Y-57045D01*
X89007Y-57031D01*
X88964Y-57009D01*
X88926Y-56978D01*
X88894Y-56941D01*
X88871Y-56898D01*
X88856Y-56851D01*
X88851Y-56803D01*
X88855Y-56755D01*
X88868Y-56708D01*
X88890Y-56665D01*
X88921Y-56627D01*
X88958Y-56595D01*
X89000Y-56571D01*
X89047Y-56556D01*
X89095Y-56551D01*
X89143Y-56554D01*
X89190Y-56567D01*
X89233Y-56589D01*
X89272Y-56619D01*
X89304Y-56656D01*
X89328Y-56699D01*
X89343Y-56745D01*
X89349Y-56794D01*
X89350Y-56800D01*
X88850Y-56800D02*
X89350Y-56800D01*
X89350Y-58800D02*
X89345Y-58848D01*
X89331Y-58895D01*
X89308Y-58938D01*
X89277Y-58976D01*
X89239Y-59007D01*
X89196Y-59030D01*
X89150Y-59044D01*
X89101Y-59049D01*
X89054Y-59045D01*
X89007Y-59031D01*
X88964Y-59009D01*
X88926Y-58978D01*
X88894Y-58941D01*
X88871Y-58898D01*
X88856Y-58851D01*
X88851Y-58803D01*
X88855Y-58755D01*
X88868Y-58708D01*
X88890Y-58665D01*
X88921Y-58627D01*
X88958Y-58595D01*
X89000Y-58571D01*
X89047Y-58556D01*
X89095Y-58551D01*
X89143Y-58554D01*
X89190Y-58567D01*
X89233Y-58589D01*
X89272Y-58619D01*
X89304Y-58656D01*
X89328Y-58699D01*
X89343Y-58745D01*
X89349Y-58794D01*
X89350Y-58800D01*
X88850Y-58800D02*
X89350Y-58800D01*
X37100Y-52000D02*
X37088Y-52116D01*
X37054Y-52228D01*
X36999Y-52332D01*
X36925Y-52422D01*
X36835Y-52497D01*
X36732Y-52553D01*
X36620Y-52587D01*
X36504Y-52599D01*
X36388Y-52589D01*
X36276Y-52556D01*
X36172Y-52502D01*
X36081Y-52428D01*
X36005Y-52338D01*
X35949Y-52236D01*
X35914Y-52124D01*
X35901Y-52008D01*
X35910Y-51892D01*
X35943Y-51780D01*
X35996Y-51675D01*
X36069Y-51584D01*
X36158Y-51508D01*
X36260Y-51451D01*
X36372Y-51414D01*
X36488Y-51401D01*
X36604Y-51410D01*
X36716Y-51441D01*
X36821Y-51494D01*
X36913Y-51566D01*
X36990Y-51655D01*
X37048Y-51756D01*
X37085Y-51868D01*
X37099Y-51984D01*
X37100Y-52000D01*
X36500Y-51400D02*
X36500Y-52600D01*
X37100Y-61500D02*
X37088Y-61616D01*
X37054Y-61728D01*
X36999Y-61832D01*
X36925Y-61922D01*
X36835Y-61997D01*
X36732Y-62053D01*
X36620Y-62087D01*
X36504Y-62099D01*
X36388Y-62089D01*
X36276Y-62056D01*
X36172Y-62002D01*
X36081Y-61928D01*
X36005Y-61838D01*
X35949Y-61736D01*
X35914Y-61624D01*
X35901Y-61508D01*
X35910Y-61392D01*
X35943Y-61280D01*
X35996Y-61175D01*
X36069Y-61084D01*
X36158Y-61008D01*
X36260Y-60951D01*
X36372Y-60914D01*
X36488Y-60901D01*
X36604Y-60910D01*
X36716Y-60941D01*
X36821Y-60994D01*
X36913Y-61066D01*
X36990Y-61155D01*
X37048Y-61256D01*
X37085Y-61368D01*
X37099Y-61484D01*
X37100Y-61500D01*
X36500Y-60900D02*
X36500Y-62100D01*
X69100Y-52000D02*
X69088Y-52116D01*
X69054Y-52228D01*
X68999Y-52332D01*
X68925Y-52422D01*
X68835Y-52497D01*
X68732Y-52553D01*
X68620Y-52587D01*
X68504Y-52599D01*
X68388Y-52589D01*
X68276Y-52556D01*
X68172Y-52502D01*
X68081Y-52428D01*
X68005Y-52338D01*
X67949Y-52236D01*
X67914Y-52124D01*
X67901Y-52008D01*
X67910Y-51892D01*
X67943Y-51780D01*
X67996Y-51675D01*
X68069Y-51584D01*
X68158Y-51508D01*
X68260Y-51451D01*
X68372Y-51414D01*
X68488Y-51401D01*
X68604Y-51410D01*
X68716Y-51441D01*
X68821Y-51494D01*
X68913Y-51566D01*
X68990Y-51655D01*
X69048Y-51756D01*
X69085Y-51868D01*
X69099Y-51984D01*
X69100Y-52000D01*
X68500Y-51400D02*
X68500Y-52600D01*
X69100Y-61500D02*
X69088Y-61616D01*
X69054Y-61728D01*
X68999Y-61832D01*
X68925Y-61922D01*
X68835Y-61997D01*
X68732Y-62053D01*
X68620Y-62087D01*
X68504Y-62099D01*
X68388Y-62089D01*
X68276Y-62056D01*
X68172Y-62002D01*
X68081Y-61928D01*
X68005Y-61838D01*
X67949Y-61736D01*
X67914Y-61624D01*
X67901Y-61508D01*
X67910Y-61392D01*
X67943Y-61280D01*
X67996Y-61175D01*
X68069Y-61084D01*
X68158Y-61008D01*
X68260Y-60951D01*
X68372Y-60914D01*
X68488Y-60901D01*
X68604Y-60910D01*
X68716Y-60941D01*
X68821Y-60994D01*
X68913Y-61066D01*
X68990Y-61155D01*
X69048Y-61256D01*
X69085Y-61368D01*
X69099Y-61484D01*
X69100Y-61500D01*
X68500Y-60900D02*
X68500Y-62100D01*
X96100Y-52000D02*
X96088Y-52116D01*
X96054Y-52228D01*
X95999Y-52332D01*
X95925Y-52422D01*
X95835Y-52497D01*
X95732Y-52553D01*
X95620Y-52587D01*
X95504Y-52599D01*
X95388Y-52589D01*
X95276Y-52556D01*
X95172Y-52502D01*
X95081Y-52428D01*
X95005Y-52338D01*
X94949Y-52236D01*
X94914Y-52124D01*
X94901Y-52008D01*
X94910Y-51892D01*
X94943Y-51780D01*
X94996Y-51675D01*
X95069Y-51584D01*
X95158Y-51508D01*
X95260Y-51451D01*
X95372Y-51414D01*
X95488Y-51401D01*
X95604Y-51410D01*
X95716Y-51441D01*
X95821Y-51494D01*
X95913Y-51566D01*
X95990Y-51655D01*
X96048Y-51756D01*
X96085Y-51868D01*
X96099Y-51984D01*
X96100Y-52000D01*
X95500Y-51400D02*
X95500Y-52600D01*
X96100Y-61500D02*
X96088Y-61616D01*
X96054Y-61728D01*
X95999Y-61832D01*
X95925Y-61922D01*
X95835Y-61997D01*
X95732Y-62053D01*
X95620Y-62087D01*
X95504Y-62099D01*
X95388Y-62089D01*
X95276Y-62056D01*
X95172Y-62002D01*
X95081Y-61928D01*
X95005Y-61838D01*
X94949Y-61736D01*
X94914Y-61624D01*
X94901Y-61508D01*
X94910Y-61392D01*
X94943Y-61280D01*
X94996Y-61175D01*
X95069Y-61084D01*
X95158Y-61008D01*
X95260Y-60951D01*
X95372Y-60914D01*
X95488Y-60901D01*
X95604Y-60910D01*
X95716Y-60941D01*
X95821Y-60994D01*
X95913Y-61066D01*
X95990Y-61155D01*
X96048Y-61256D01*
X96085Y-61368D01*
X96099Y-61484D01*
X96100Y-61500D01*
X95500Y-60900D02*
X95500Y-62100D01*
X128100Y-52000D02*
X128088Y-52116D01*
X128054Y-52228D01*
X127999Y-52332D01*
X127925Y-52422D01*
X127835Y-52497D01*
X127732Y-52553D01*
X127620Y-52587D01*
X127504Y-52599D01*
X127388Y-52589D01*
X127276Y-52556D01*
X127172Y-52502D01*
X127081Y-52428D01*
X127005Y-52338D01*
X126949Y-52236D01*
X126914Y-52124D01*
X126901Y-52008D01*
X126910Y-51892D01*
X126943Y-51780D01*
X126996Y-51675D01*
X127069Y-51584D01*
X127158Y-51508D01*
X127260Y-51451D01*
X127372Y-51414D01*
X127488Y-51401D01*
X127604Y-51410D01*
X127716Y-51441D01*
X127821Y-51494D01*
X127913Y-51566D01*
X127990Y-51655D01*
X128048Y-51756D01*
X128085Y-51868D01*
X128099Y-51984D01*
X128100Y-52000D01*
X127500Y-51400D02*
X127500Y-52600D01*
X128100Y-61500D02*
X128088Y-61616D01*
X128054Y-61728D01*
X127999Y-61832D01*
X127925Y-61922D01*
X127835Y-61997D01*
X127732Y-62053D01*
X127620Y-62087D01*
X127504Y-62099D01*
X127388Y-62089D01*
X127276Y-62056D01*
X127172Y-62002D01*
X127081Y-61928D01*
X127005Y-61838D01*
X126949Y-61736D01*
X126914Y-61624D01*
X126901Y-61508D01*
X126910Y-61392D01*
X126943Y-61280D01*
X126996Y-61175D01*
X127069Y-61084D01*
X127158Y-61008D01*
X127260Y-60951D01*
X127372Y-60914D01*
X127488Y-60901D01*
X127604Y-60910D01*
X127716Y-60941D01*
X127821Y-60994D01*
X127913Y-61066D01*
X127990Y-61155D01*
X128048Y-61256D01*
X128085Y-61368D01*
X128099Y-61484D01*
X128100Y-61500D01*
X127500Y-60900D02*
X127500Y-62100D01*
G54D12*
X26514Y-67982D02*
X26514Y-67182D01*
X26705Y-67182D01*
X26819Y-67220D01*
X26895Y-67296D01*
X26934Y-67372D01*
X26972Y-67525D01*
X26972Y-67639D01*
X26934Y-67791D01*
X26895Y-67868D01*
X26819Y-67944D01*
X26705Y-67982D01*
X26514Y-67982D01*
X27314Y-67982D02*
X27314Y-67448D01*
X27314Y-67601D02*
X27353Y-67525D01*
X27391Y-67487D01*
X27467Y-67448D01*
X27543Y-67448D01*
X27809Y-67982D02*
X27809Y-67448D01*
X27809Y-67182D02*
X27771Y-67220D01*
X27809Y-67258D01*
X27848Y-67220D01*
X27809Y-67182D01*
X27809Y-67258D01*
X28305Y-67982D02*
X28229Y-67944D01*
X28190Y-67868D01*
X28190Y-67182D01*
X28724Y-67982D02*
X28648Y-67944D01*
X28609Y-67868D01*
X28609Y-67182D01*
X29638Y-67982D02*
X29638Y-67182D01*
X29905Y-67753D01*
X30172Y-67182D01*
X30172Y-67982D01*
X30895Y-67982D02*
X30895Y-67563D01*
X30857Y-67487D01*
X30781Y-67448D01*
X30629Y-67448D01*
X30552Y-67487D01*
X30895Y-67944D02*
X30819Y-67982D01*
X30629Y-67982D01*
X30552Y-67944D01*
X30514Y-67868D01*
X30514Y-67791D01*
X30552Y-67715D01*
X30629Y-67677D01*
X30819Y-67677D01*
X30895Y-67639D01*
X31276Y-67448D02*
X31276Y-68248D01*
X31276Y-67487D02*
X31353Y-67448D01*
X31505Y-67448D01*
X31581Y-67487D01*
X31619Y-67525D01*
X31657Y-67601D01*
X31657Y-67829D01*
X31619Y-67906D01*
X31581Y-67944D01*
X31505Y-67982D01*
X31353Y-67982D01*
X31276Y-67944D01*
X32000Y-67906D02*
X32039Y-67944D01*
X32000Y-67982D01*
X31962Y-67944D01*
X32000Y-67906D01*
X32000Y-67982D01*
X32000Y-67487D02*
X32039Y-67525D01*
X32000Y-67563D01*
X31962Y-67525D01*
X32000Y-67487D01*
X32000Y-67563D01*
X25874Y-69213D02*
X26124Y-69463D01*
X26124Y-69213D02*
X25874Y-69463D01*
X26667Y-68862D02*
X26743Y-68862D01*
X26819Y-68900D01*
X26857Y-68938D01*
X26895Y-69014D01*
X26934Y-69167D01*
X26934Y-69357D01*
X26895Y-69509D01*
X26857Y-69586D01*
X26819Y-69624D01*
X26743Y-69662D01*
X26667Y-69662D01*
X26591Y-69624D01*
X26553Y-69586D01*
X26514Y-69509D01*
X26476Y-69357D01*
X26476Y-69167D01*
X26514Y-69014D01*
X26553Y-68938D01*
X26591Y-68900D01*
X26667Y-68862D01*
X27276Y-69586D02*
X27315Y-69624D01*
X27276Y-69662D01*
X27238Y-69624D01*
X27276Y-69586D01*
X27276Y-69662D01*
X27810Y-68862D02*
X27886Y-68862D01*
X27962Y-68900D01*
X28000Y-68938D01*
X28038Y-69014D01*
X28077Y-69167D01*
X28077Y-69357D01*
X28038Y-69509D01*
X28000Y-69586D01*
X27962Y-69624D01*
X27886Y-69662D01*
X27810Y-69662D01*
X27734Y-69624D01*
X27696Y-69586D01*
X27657Y-69509D01*
X27619Y-69357D01*
X27619Y-69167D01*
X27657Y-69014D01*
X27696Y-68938D01*
X27734Y-68900D01*
X27810Y-68862D01*
X28381Y-68938D02*
X28419Y-68900D01*
X28496Y-68862D01*
X28686Y-68862D01*
X28762Y-68900D01*
X28800Y-68938D01*
X28839Y-69014D01*
X28839Y-69090D01*
X28800Y-69205D01*
X28343Y-69662D01*
X28839Y-69662D01*
X29562Y-68862D02*
X29181Y-68862D01*
X29143Y-69243D01*
X29181Y-69205D01*
X29258Y-69167D01*
X29448Y-69167D01*
X29524Y-69205D01*
X29562Y-69243D01*
X29601Y-69319D01*
X29601Y-69509D01*
X29562Y-69586D01*
X29524Y-69624D01*
X29448Y-69662D01*
X29258Y-69662D01*
X29181Y-69624D01*
X29143Y-69586D01*
X29905Y-68862D02*
X29905Y-69014D01*
X30210Y-68862D02*
X30210Y-69014D01*
X31735Y-68824D02*
X31049Y-69852D01*
X32764Y-68862D02*
X32840Y-68862D01*
X32916Y-68900D01*
X32954Y-68938D01*
X32992Y-69014D01*
X33031Y-69167D01*
X33031Y-69357D01*
X32992Y-69509D01*
X32954Y-69586D01*
X32916Y-69624D01*
X32840Y-69662D01*
X32764Y-69662D01*
X32688Y-69624D01*
X32650Y-69586D01*
X32611Y-69509D01*
X32573Y-69357D01*
X32573Y-69167D01*
X32611Y-69014D01*
X32650Y-68938D01*
X32688Y-68900D01*
X32764Y-68862D01*
X33373Y-69586D02*
X33412Y-69624D01*
X33373Y-69662D01*
X33335Y-69624D01*
X33373Y-69586D01*
X33373Y-69662D01*
X34097Y-68862D02*
X33945Y-68862D01*
X33869Y-68900D01*
X33831Y-68938D01*
X33754Y-69052D01*
X33716Y-69205D01*
X33716Y-69509D01*
X33754Y-69586D01*
X33793Y-69624D01*
X33869Y-69662D01*
X34021Y-69662D01*
X34097Y-69624D01*
X34135Y-69586D01*
X34174Y-69509D01*
X34174Y-69319D01*
X34135Y-69243D01*
X34097Y-69205D01*
X34021Y-69167D01*
X33869Y-69167D01*
X33793Y-69205D01*
X33754Y-69243D01*
X33716Y-69319D01*
X34859Y-69128D02*
X34859Y-69662D01*
X34669Y-68824D02*
X34478Y-69395D01*
X34974Y-69395D01*
X35278Y-69662D02*
X35278Y-69128D01*
X35278Y-69205D02*
X35317Y-69167D01*
X35393Y-69128D01*
X35507Y-69128D01*
X35583Y-69167D01*
X35621Y-69243D01*
X35621Y-69662D01*
X35621Y-69243D02*
X35659Y-69167D01*
X35736Y-69128D01*
X35850Y-69128D01*
X35926Y-69167D01*
X35964Y-69243D01*
X35964Y-69662D01*
X36345Y-69662D02*
X36345Y-69128D01*
X36345Y-69205D02*
X36384Y-69167D01*
X36460Y-69128D01*
X36574Y-69128D01*
X36650Y-69167D01*
X36688Y-69243D01*
X36688Y-69662D01*
X36688Y-69243D02*
X36726Y-69167D01*
X36803Y-69128D01*
X36917Y-69128D01*
X36993Y-69167D01*
X37031Y-69243D01*
X37031Y-69662D01*
X38251Y-69967D02*
X38213Y-69928D01*
X38137Y-69814D01*
X38099Y-69738D01*
X38061Y-69624D01*
X38022Y-69433D01*
X38022Y-69281D01*
X38061Y-69090D01*
X38099Y-68976D01*
X38137Y-68900D01*
X38213Y-68786D01*
X38251Y-68748D01*
X38479Y-68862D02*
X38975Y-68862D01*
X38708Y-69167D01*
X38822Y-69167D01*
X38898Y-69205D01*
X38936Y-69243D01*
X38975Y-69319D01*
X38975Y-69509D01*
X38936Y-69586D01*
X38898Y-69624D01*
X38822Y-69662D01*
X38594Y-69662D01*
X38517Y-69624D01*
X38479Y-69586D01*
X39660Y-68862D02*
X39508Y-68862D01*
X39432Y-68900D01*
X39394Y-68938D01*
X39317Y-69052D01*
X39279Y-69205D01*
X39279Y-69509D01*
X39317Y-69586D01*
X39356Y-69624D01*
X39432Y-69662D01*
X39584Y-69662D01*
X39660Y-69624D01*
X39698Y-69586D01*
X39737Y-69509D01*
X39737Y-69319D01*
X39698Y-69243D01*
X39660Y-69205D01*
X39584Y-69167D01*
X39432Y-69167D01*
X39356Y-69205D01*
X39317Y-69243D01*
X39279Y-69319D01*
X40689Y-69662D02*
X40689Y-68862D01*
X41032Y-69662D02*
X41032Y-69243D01*
X40994Y-69167D01*
X40918Y-69128D01*
X40804Y-69128D01*
X40728Y-69167D01*
X40689Y-69205D01*
X41528Y-69662D02*
X41452Y-69624D01*
X41413Y-69586D01*
X41375Y-69509D01*
X41375Y-69281D01*
X41413Y-69205D01*
X41452Y-69167D01*
X41528Y-69128D01*
X41642Y-69128D01*
X41718Y-69167D01*
X41756Y-69205D01*
X41794Y-69281D01*
X41794Y-69509D01*
X41756Y-69586D01*
X41718Y-69624D01*
X41642Y-69662D01*
X41528Y-69662D01*
X42252Y-69662D02*
X42176Y-69624D01*
X42137Y-69548D01*
X42137Y-68862D01*
X42861Y-69624D02*
X42785Y-69662D01*
X42633Y-69662D01*
X42556Y-69624D01*
X42518Y-69548D01*
X42518Y-69243D01*
X42556Y-69167D01*
X42633Y-69128D01*
X42785Y-69128D01*
X42861Y-69167D01*
X42899Y-69243D01*
X42899Y-69319D01*
X42518Y-69395D01*
X43204Y-69624D02*
X43281Y-69662D01*
X43433Y-69662D01*
X43509Y-69624D01*
X43547Y-69548D01*
X43547Y-69509D01*
X43509Y-69433D01*
X43433Y-69395D01*
X43319Y-69395D01*
X43242Y-69357D01*
X43204Y-69281D01*
X43204Y-69243D01*
X43242Y-69167D01*
X43319Y-69128D01*
X43433Y-69128D01*
X43509Y-69167D01*
X43814Y-69967D02*
X43852Y-69928D01*
X43929Y-69814D01*
X43967Y-69738D01*
X44005Y-69624D01*
X44043Y-69433D01*
X44043Y-69281D01*
X44005Y-69090D01*
X43967Y-68976D01*
X43929Y-68900D01*
X43852Y-68786D01*
X43814Y-68748D01*
G54D10*
X26124Y-70393D02*
X26120Y-70424D01*
X26111Y-70453D01*
X26097Y-70481D01*
X26077Y-70505D01*
X26053Y-70525D01*
X26026Y-70540D01*
X25996Y-70549D01*
X25965Y-70552D01*
X25935Y-70550D01*
X25905Y-70541D01*
X25877Y-70526D01*
X25853Y-70507D01*
X25832Y-70483D01*
X25817Y-70456D01*
X25808Y-70426D01*
X25805Y-70395D01*
X25807Y-70365D01*
X25816Y-70335D01*
X25830Y-70307D01*
X25849Y-70282D01*
X25873Y-70262D01*
X25900Y-70247D01*
X25930Y-70237D01*
X25961Y-70234D01*
X25991Y-70236D01*
X26021Y-70244D01*
X26049Y-70258D01*
X26074Y-70278D01*
X26094Y-70301D01*
X26110Y-70328D01*
X26120Y-70358D01*
X26123Y-70389D01*
X26124Y-70393D01*
G54D12*
X26667Y-69917D02*
X26743Y-69917D01*
X26819Y-69955D01*
X26857Y-69993D01*
X26895Y-70069D01*
X26934Y-70222D01*
X26934Y-70412D01*
X26895Y-70564D01*
X26857Y-70641D01*
X26819Y-70679D01*
X26743Y-70717D01*
X26667Y-70717D01*
X26591Y-70679D01*
X26553Y-70641D01*
X26514Y-70564D01*
X26476Y-70412D01*
X26476Y-70222D01*
X26514Y-70069D01*
X26553Y-69993D01*
X26591Y-69955D01*
X26667Y-69917D01*
X27276Y-70641D02*
X27315Y-70679D01*
X27276Y-70717D01*
X27238Y-70679D01*
X27276Y-70641D01*
X27276Y-70717D01*
X27810Y-69917D02*
X27886Y-69917D01*
X27962Y-69955D01*
X28000Y-69993D01*
X28038Y-70069D01*
X28077Y-70222D01*
X28077Y-70412D01*
X28038Y-70564D01*
X28000Y-70641D01*
X27962Y-70679D01*
X27886Y-70717D01*
X27810Y-70717D01*
X27734Y-70679D01*
X27696Y-70641D01*
X27657Y-70564D01*
X27619Y-70412D01*
X27619Y-70222D01*
X27657Y-70069D01*
X27696Y-69993D01*
X27734Y-69955D01*
X27810Y-69917D01*
X28343Y-69917D02*
X28839Y-69917D01*
X28572Y-70222D01*
X28686Y-70222D01*
X28762Y-70260D01*
X28800Y-70298D01*
X28839Y-70374D01*
X28839Y-70564D01*
X28800Y-70641D01*
X28762Y-70679D01*
X28686Y-70717D01*
X28458Y-70717D01*
X28381Y-70679D01*
X28343Y-70641D01*
X29143Y-69993D02*
X29181Y-69955D01*
X29258Y-69917D01*
X29448Y-69917D01*
X29524Y-69955D01*
X29562Y-69993D01*
X29601Y-70069D01*
X29601Y-70145D01*
X29562Y-70260D01*
X29105Y-70717D01*
X29601Y-70717D01*
X29905Y-69917D02*
X29905Y-70069D01*
X30210Y-69917D02*
X30210Y-70069D01*
X31735Y-69879D02*
X31049Y-70907D01*
X32764Y-69917D02*
X32840Y-69917D01*
X32916Y-69955D01*
X32954Y-69993D01*
X32992Y-70069D01*
X33031Y-70222D01*
X33031Y-70412D01*
X32992Y-70564D01*
X32954Y-70641D01*
X32916Y-70679D01*
X32840Y-70717D01*
X32764Y-70717D01*
X32688Y-70679D01*
X32650Y-70641D01*
X32611Y-70564D01*
X32573Y-70412D01*
X32573Y-70222D01*
X32611Y-70069D01*
X32650Y-69993D01*
X32688Y-69955D01*
X32764Y-69917D01*
X33373Y-70641D02*
X33412Y-70679D01*
X33373Y-70717D01*
X33335Y-70679D01*
X33373Y-70641D01*
X33373Y-70717D01*
X33869Y-70260D02*
X33793Y-70222D01*
X33754Y-70183D01*
X33716Y-70107D01*
X33716Y-70069D01*
X33754Y-69993D01*
X33793Y-69955D01*
X33869Y-69917D01*
X34021Y-69917D01*
X34097Y-69955D01*
X34135Y-69993D01*
X34174Y-70069D01*
X34174Y-70107D01*
X34135Y-70183D01*
X34097Y-70222D01*
X34021Y-70260D01*
X33869Y-70260D01*
X33793Y-70298D01*
X33754Y-70336D01*
X33716Y-70412D01*
X33716Y-70564D01*
X33754Y-70641D01*
X33793Y-70679D01*
X33869Y-70717D01*
X34021Y-70717D01*
X34097Y-70679D01*
X34135Y-70641D01*
X34174Y-70564D01*
X34174Y-70412D01*
X34135Y-70336D01*
X34097Y-70298D01*
X34021Y-70260D01*
X34936Y-70717D02*
X34478Y-70717D01*
X34707Y-70717D02*
X34707Y-69917D01*
X34631Y-70031D01*
X34555Y-70107D01*
X34478Y-70145D01*
X35278Y-70717D02*
X35278Y-70183D01*
X35278Y-70260D02*
X35317Y-70222D01*
X35393Y-70183D01*
X35507Y-70183D01*
X35583Y-70222D01*
X35621Y-70298D01*
X35621Y-70717D01*
X35621Y-70298D02*
X35659Y-70222D01*
X35736Y-70183D01*
X35850Y-70183D01*
X35926Y-70222D01*
X35964Y-70298D01*
X35964Y-70717D01*
X36345Y-70717D02*
X36345Y-70183D01*
X36345Y-70260D02*
X36384Y-70222D01*
X36460Y-70183D01*
X36574Y-70183D01*
X36650Y-70222D01*
X36688Y-70298D01*
X36688Y-70717D01*
X36688Y-70298D02*
X36726Y-70222D01*
X36803Y-70183D01*
X36917Y-70183D01*
X36993Y-70222D01*
X37031Y-70298D01*
X37031Y-70717D01*
X38251Y-71022D02*
X38213Y-70983D01*
X38137Y-70869D01*
X38099Y-70793D01*
X38061Y-70679D01*
X38022Y-70488D01*
X38022Y-70336D01*
X38061Y-70145D01*
X38099Y-70031D01*
X38137Y-69955D01*
X38213Y-69841D01*
X38251Y-69803D01*
X38517Y-69993D02*
X38555Y-69955D01*
X38632Y-69917D01*
X38822Y-69917D01*
X38898Y-69955D01*
X38936Y-69993D01*
X38975Y-70069D01*
X38975Y-70145D01*
X38936Y-70260D01*
X38479Y-70717D01*
X38975Y-70717D01*
X39927Y-70717D02*
X39927Y-69917D01*
X40270Y-70717D02*
X40270Y-70298D01*
X40232Y-70222D01*
X40156Y-70183D01*
X40042Y-70183D01*
X39966Y-70222D01*
X39927Y-70260D01*
X40766Y-70717D02*
X40690Y-70679D01*
X40651Y-70641D01*
X40613Y-70564D01*
X40613Y-70336D01*
X40651Y-70260D01*
X40690Y-70222D01*
X40766Y-70183D01*
X40880Y-70183D01*
X40956Y-70222D01*
X40994Y-70260D01*
X41032Y-70336D01*
X41032Y-70564D01*
X40994Y-70641D01*
X40956Y-70679D01*
X40880Y-70717D01*
X40766Y-70717D01*
X41490Y-70717D02*
X41414Y-70679D01*
X41375Y-70603D01*
X41375Y-69917D01*
X42099Y-70679D02*
X42023Y-70717D01*
X41871Y-70717D01*
X41794Y-70679D01*
X41756Y-70603D01*
X41756Y-70298D01*
X41794Y-70222D01*
X41871Y-70183D01*
X42023Y-70183D01*
X42099Y-70222D01*
X42137Y-70298D01*
X42137Y-70374D01*
X41756Y-70450D01*
X42442Y-70679D02*
X42519Y-70717D01*
X42671Y-70717D01*
X42747Y-70679D01*
X42785Y-70603D01*
X42785Y-70564D01*
X42747Y-70488D01*
X42671Y-70450D01*
X42557Y-70450D01*
X42480Y-70412D01*
X42442Y-70336D01*
X42442Y-70298D01*
X42480Y-70222D01*
X42557Y-70183D01*
X42671Y-70183D01*
X42747Y-70222D01*
X43052Y-71022D02*
X43090Y-70983D01*
X43167Y-70869D01*
X43205Y-70793D01*
X43243Y-70679D01*
X43281Y-70488D01*
X43281Y-70336D01*
X43243Y-70145D01*
X43205Y-70031D01*
X43167Y-69955D01*
X43090Y-69841D01*
X43052Y-69803D01*
X25927Y-71251D02*
X25927Y-71645D01*
X26124Y-71448D02*
X25730Y-71448D01*
X26667Y-70972D02*
X26743Y-70972D01*
X26819Y-71010D01*
X26857Y-71048D01*
X26895Y-71124D01*
X26934Y-71277D01*
X26934Y-71467D01*
X26895Y-71619D01*
X26857Y-71696D01*
X26819Y-71734D01*
X26743Y-71772D01*
X26667Y-71772D01*
X26591Y-71734D01*
X26553Y-71696D01*
X26514Y-71619D01*
X26476Y-71467D01*
X26476Y-71277D01*
X26514Y-71124D01*
X26553Y-71048D01*
X26591Y-71010D01*
X26667Y-70972D01*
X27276Y-71696D02*
X27315Y-71734D01*
X27276Y-71772D01*
X27238Y-71734D01*
X27276Y-71696D01*
X27276Y-71772D01*
X27810Y-70972D02*
X27886Y-70972D01*
X27962Y-71010D01*
X28000Y-71048D01*
X28038Y-71124D01*
X28077Y-71277D01*
X28077Y-71467D01*
X28038Y-71619D01*
X28000Y-71696D01*
X27962Y-71734D01*
X27886Y-71772D01*
X27810Y-71772D01*
X27734Y-71734D01*
X27696Y-71696D01*
X27657Y-71619D01*
X27619Y-71467D01*
X27619Y-71277D01*
X27657Y-71124D01*
X27696Y-71048D01*
X27734Y-71010D01*
X27810Y-70972D01*
X28343Y-70972D02*
X28839Y-70972D01*
X28572Y-71277D01*
X28686Y-71277D01*
X28762Y-71315D01*
X28800Y-71353D01*
X28839Y-71429D01*
X28839Y-71619D01*
X28800Y-71696D01*
X28762Y-71734D01*
X28686Y-71772D01*
X28458Y-71772D01*
X28381Y-71734D01*
X28343Y-71696D01*
X29220Y-71772D02*
X29372Y-71772D01*
X29448Y-71734D01*
X29486Y-71696D01*
X29562Y-71581D01*
X29601Y-71429D01*
X29601Y-71124D01*
X29562Y-71048D01*
X29524Y-71010D01*
X29448Y-70972D01*
X29296Y-70972D01*
X29220Y-71010D01*
X29181Y-71048D01*
X29143Y-71124D01*
X29143Y-71315D01*
X29181Y-71391D01*
X29220Y-71429D01*
X29296Y-71467D01*
X29448Y-71467D01*
X29524Y-71429D01*
X29562Y-71391D01*
X29601Y-71315D01*
X29905Y-70972D02*
X29905Y-71124D01*
X30210Y-70972D02*
X30210Y-71124D01*
X31735Y-70934D02*
X31049Y-71962D01*
X33031Y-71772D02*
X32573Y-71772D01*
X32802Y-71772D02*
X32802Y-70972D01*
X32726Y-71086D01*
X32650Y-71162D01*
X32573Y-71200D01*
X33373Y-71696D02*
X33412Y-71734D01*
X33373Y-71772D01*
X33335Y-71734D01*
X33373Y-71696D01*
X33373Y-71772D01*
X33907Y-70972D02*
X33983Y-70972D01*
X34059Y-71010D01*
X34097Y-71048D01*
X34135Y-71124D01*
X34174Y-71277D01*
X34174Y-71467D01*
X34135Y-71619D01*
X34097Y-71696D01*
X34059Y-71734D01*
X33983Y-71772D01*
X33907Y-71772D01*
X33831Y-71734D01*
X33793Y-71696D01*
X33754Y-71619D01*
X33716Y-71467D01*
X33716Y-71277D01*
X33754Y-71124D01*
X33793Y-71048D01*
X33831Y-71010D01*
X33907Y-70972D01*
X34669Y-70972D02*
X34745Y-70972D01*
X34821Y-71010D01*
X34859Y-71048D01*
X34897Y-71124D01*
X34936Y-71277D01*
X34936Y-71467D01*
X34897Y-71619D01*
X34859Y-71696D01*
X34821Y-71734D01*
X34745Y-71772D01*
X34669Y-71772D01*
X34593Y-71734D01*
X34555Y-71696D01*
X34516Y-71619D01*
X34478Y-71467D01*
X34478Y-71277D01*
X34516Y-71124D01*
X34555Y-71048D01*
X34593Y-71010D01*
X34669Y-70972D01*
X35278Y-71772D02*
X35278Y-71238D01*
X35278Y-71315D02*
X35317Y-71277D01*
X35393Y-71238D01*
X35507Y-71238D01*
X35583Y-71277D01*
X35621Y-71353D01*
X35621Y-71772D01*
X35621Y-71353D02*
X35659Y-71277D01*
X35736Y-71238D01*
X35850Y-71238D01*
X35926Y-71277D01*
X35964Y-71353D01*
X35964Y-71772D01*
X36345Y-71772D02*
X36345Y-71238D01*
X36345Y-71315D02*
X36384Y-71277D01*
X36460Y-71238D01*
X36574Y-71238D01*
X36650Y-71277D01*
X36688Y-71353D01*
X36688Y-71772D01*
X36688Y-71353D02*
X36726Y-71277D01*
X36803Y-71238D01*
X36917Y-71238D01*
X36993Y-71277D01*
X37031Y-71353D01*
X37031Y-71772D01*
X38251Y-72077D02*
X38213Y-72038D01*
X38137Y-71924D01*
X38099Y-71848D01*
X38061Y-71734D01*
X38022Y-71543D01*
X38022Y-71391D01*
X38061Y-71200D01*
X38099Y-71086D01*
X38137Y-71010D01*
X38213Y-70896D01*
X38251Y-70858D01*
X38898Y-70972D02*
X38746Y-70972D01*
X38670Y-71010D01*
X38632Y-71048D01*
X38555Y-71162D01*
X38517Y-71315D01*
X38517Y-71619D01*
X38555Y-71696D01*
X38594Y-71734D01*
X38670Y-71772D01*
X38822Y-71772D01*
X38898Y-71734D01*
X38936Y-71696D01*
X38975Y-71619D01*
X38975Y-71429D01*
X38936Y-71353D01*
X38898Y-71315D01*
X38822Y-71277D01*
X38670Y-71277D01*
X38594Y-71315D01*
X38555Y-71353D01*
X38517Y-71429D01*
X39432Y-71315D02*
X39356Y-71277D01*
X39317Y-71238D01*
X39279Y-71162D01*
X39279Y-71124D01*
X39317Y-71048D01*
X39356Y-71010D01*
X39432Y-70972D01*
X39584Y-70972D01*
X39660Y-71010D01*
X39698Y-71048D01*
X39737Y-71124D01*
X39737Y-71162D01*
X39698Y-71238D01*
X39660Y-71277D01*
X39584Y-71315D01*
X39432Y-71315D01*
X39356Y-71353D01*
X39317Y-71391D01*
X39279Y-71467D01*
X39279Y-71619D01*
X39317Y-71696D01*
X39356Y-71734D01*
X39432Y-71772D01*
X39584Y-71772D01*
X39660Y-71734D01*
X39698Y-71696D01*
X39737Y-71619D01*
X39737Y-71467D01*
X39698Y-71391D01*
X39660Y-71353D01*
X39584Y-71315D01*
X40689Y-71772D02*
X40689Y-70972D01*
X41032Y-71772D02*
X41032Y-71353D01*
X40994Y-71277D01*
X40918Y-71238D01*
X40804Y-71238D01*
X40728Y-71277D01*
X40689Y-71315D01*
X41528Y-71772D02*
X41452Y-71734D01*
X41413Y-71696D01*
X41375Y-71619D01*
X41375Y-71391D01*
X41413Y-71315D01*
X41452Y-71277D01*
X41528Y-71238D01*
X41642Y-71238D01*
X41718Y-71277D01*
X41756Y-71315D01*
X41794Y-71391D01*
X41794Y-71619D01*
X41756Y-71696D01*
X41718Y-71734D01*
X41642Y-71772D01*
X41528Y-71772D01*
X42252Y-71772D02*
X42176Y-71734D01*
X42137Y-71658D01*
X42137Y-70972D01*
X42861Y-71734D02*
X42785Y-71772D01*
X42633Y-71772D01*
X42556Y-71734D01*
X42518Y-71658D01*
X42518Y-71353D01*
X42556Y-71277D01*
X42633Y-71238D01*
X42785Y-71238D01*
X42861Y-71277D01*
X42899Y-71353D01*
X42899Y-71429D01*
X42518Y-71505D01*
X43204Y-71734D02*
X43281Y-71772D01*
X43433Y-71772D01*
X43509Y-71734D01*
X43547Y-71658D01*
X43547Y-71619D01*
X43509Y-71543D01*
X43433Y-71505D01*
X43319Y-71505D01*
X43242Y-71467D01*
X43204Y-71391D01*
X43204Y-71353D01*
X43242Y-71277D01*
X43319Y-71238D01*
X43433Y-71238D01*
X43509Y-71277D01*
X43814Y-72077D02*
X43852Y-72038D01*
X43929Y-71924D01*
X43967Y-71848D01*
X44005Y-71734D01*
X44043Y-71543D01*
X44043Y-71391D01*
X44005Y-71200D01*
X43967Y-71086D01*
X43929Y-71010D01*
X43852Y-70896D01*
X43814Y-70858D01*
G54D10*
X26124Y-72503D02*
X26120Y-72541D01*
X26108Y-72579D01*
X26090Y-72613D01*
X26065Y-72643D01*
X26035Y-72668D01*
X26001Y-72687D01*
X25964Y-72698D01*
X25925Y-72702D01*
X25887Y-72699D01*
X25850Y-72688D01*
X25815Y-72670D01*
X25785Y-72645D01*
X25759Y-72615D01*
X25741Y-72581D01*
X25729Y-72544D01*
X25725Y-72505D01*
X25728Y-72467D01*
X25739Y-72430D01*
X25756Y-72395D01*
X25781Y-72365D01*
X25810Y-72339D01*
X25844Y-72320D01*
X25882Y-72308D01*
X25920Y-72304D01*
X25958Y-72307D01*
X25996Y-72317D01*
X26031Y-72335D01*
X26061Y-72359D01*
X26087Y-72388D01*
X26106Y-72422D01*
X26119Y-72459D01*
X26123Y-72498D01*
X26124Y-72503D01*
X25724Y-72303D02*
X26124Y-72703D01*
X26124Y-72303D02*
X25724Y-72703D01*
G54D12*
X26667Y-72027D02*
X26743Y-72027D01*
X26819Y-72065D01*
X26857Y-72103D01*
X26895Y-72179D01*
X26934Y-72332D01*
X26934Y-72522D01*
X26895Y-72674D01*
X26857Y-72751D01*
X26819Y-72789D01*
X26743Y-72827D01*
X26667Y-72827D01*
X26591Y-72789D01*
X26553Y-72751D01*
X26514Y-72674D01*
X26476Y-72522D01*
X26476Y-72332D01*
X26514Y-72179D01*
X26553Y-72103D01*
X26591Y-72065D01*
X26667Y-72027D01*
X27276Y-72751D02*
X27315Y-72789D01*
X27276Y-72827D01*
X27238Y-72789D01*
X27276Y-72751D01*
X27276Y-72827D01*
X27810Y-72027D02*
X27886Y-72027D01*
X27962Y-72065D01*
X28000Y-72103D01*
X28038Y-72179D01*
X28077Y-72332D01*
X28077Y-72522D01*
X28038Y-72674D01*
X28000Y-72751D01*
X27962Y-72789D01*
X27886Y-72827D01*
X27810Y-72827D01*
X27734Y-72789D01*
X27696Y-72751D01*
X27657Y-72674D01*
X27619Y-72522D01*
X27619Y-72332D01*
X27657Y-72179D01*
X27696Y-72103D01*
X27734Y-72065D01*
X27810Y-72027D01*
X28762Y-72293D02*
X28762Y-72827D01*
X28572Y-71989D02*
X28381Y-72560D01*
X28877Y-72560D01*
X29334Y-72027D02*
X29410Y-72027D01*
X29486Y-72065D01*
X29524Y-72103D01*
X29562Y-72179D01*
X29601Y-72332D01*
X29601Y-72522D01*
X29562Y-72674D01*
X29524Y-72751D01*
X29486Y-72789D01*
X29410Y-72827D01*
X29334Y-72827D01*
X29258Y-72789D01*
X29220Y-72751D01*
X29181Y-72674D01*
X29143Y-72522D01*
X29143Y-72332D01*
X29181Y-72179D01*
X29220Y-72103D01*
X29258Y-72065D01*
X29334Y-72027D01*
X29905Y-72027D02*
X29905Y-72179D01*
X30210Y-72027D02*
X30210Y-72179D01*
X31735Y-71989D02*
X31049Y-73017D01*
X33031Y-72827D02*
X32573Y-72827D01*
X32802Y-72827D02*
X32802Y-72027D01*
X32726Y-72141D01*
X32650Y-72217D01*
X32573Y-72255D01*
X33373Y-72751D02*
X33412Y-72789D01*
X33373Y-72827D01*
X33335Y-72789D01*
X33373Y-72751D01*
X33373Y-72827D01*
X33907Y-72027D02*
X33983Y-72027D01*
X34059Y-72065D01*
X34097Y-72103D01*
X34135Y-72179D01*
X34174Y-72332D01*
X34174Y-72522D01*
X34135Y-72674D01*
X34097Y-72751D01*
X34059Y-72789D01*
X33983Y-72827D01*
X33907Y-72827D01*
X33831Y-72789D01*
X33793Y-72751D01*
X33754Y-72674D01*
X33716Y-72522D01*
X33716Y-72332D01*
X33754Y-72179D01*
X33793Y-72103D01*
X33831Y-72065D01*
X33907Y-72027D01*
X34478Y-72103D02*
X34516Y-72065D01*
X34593Y-72027D01*
X34783Y-72027D01*
X34859Y-72065D01*
X34897Y-72103D01*
X34936Y-72179D01*
X34936Y-72255D01*
X34897Y-72370D01*
X34440Y-72827D01*
X34936Y-72827D01*
X35278Y-72827D02*
X35278Y-72293D01*
X35278Y-72370D02*
X35317Y-72332D01*
X35393Y-72293D01*
X35507Y-72293D01*
X35583Y-72332D01*
X35621Y-72408D01*
X35621Y-72827D01*
X35621Y-72408D02*
X35659Y-72332D01*
X35736Y-72293D01*
X35850Y-72293D01*
X35926Y-72332D01*
X35964Y-72408D01*
X35964Y-72827D01*
X36345Y-72827D02*
X36345Y-72293D01*
X36345Y-72370D02*
X36384Y-72332D01*
X36460Y-72293D01*
X36574Y-72293D01*
X36650Y-72332D01*
X36688Y-72408D01*
X36688Y-72827D01*
X36688Y-72408D02*
X36726Y-72332D01*
X36803Y-72293D01*
X36917Y-72293D01*
X36993Y-72332D01*
X37031Y-72408D01*
X37031Y-72827D01*
X38251Y-73132D02*
X38213Y-73093D01*
X38137Y-72979D01*
X38099Y-72903D01*
X38061Y-72789D01*
X38022Y-72598D01*
X38022Y-72446D01*
X38061Y-72255D01*
X38099Y-72141D01*
X38137Y-72065D01*
X38213Y-71951D01*
X38251Y-71913D01*
X38936Y-72027D02*
X38555Y-72027D01*
X38517Y-72408D01*
X38555Y-72370D01*
X38632Y-72332D01*
X38822Y-72332D01*
X38898Y-72370D01*
X38936Y-72408D01*
X38975Y-72484D01*
X38975Y-72674D01*
X38936Y-72751D01*
X38898Y-72789D01*
X38822Y-72827D01*
X38632Y-72827D01*
X38555Y-72789D01*
X38517Y-72751D01*
X39470Y-72027D02*
X39546Y-72027D01*
X39622Y-72065D01*
X39660Y-72103D01*
X39698Y-72179D01*
X39737Y-72332D01*
X39737Y-72522D01*
X39698Y-72674D01*
X39660Y-72751D01*
X39622Y-72789D01*
X39546Y-72827D01*
X39470Y-72827D01*
X39394Y-72789D01*
X39356Y-72751D01*
X39317Y-72674D01*
X39279Y-72522D01*
X39279Y-72332D01*
X39317Y-72179D01*
X39356Y-72103D01*
X39394Y-72065D01*
X39470Y-72027D01*
X40689Y-72827D02*
X40689Y-72027D01*
X41032Y-72827D02*
X41032Y-72408D01*
X40994Y-72332D01*
X40918Y-72293D01*
X40804Y-72293D01*
X40728Y-72332D01*
X40689Y-72370D01*
X41528Y-72827D02*
X41452Y-72789D01*
X41413Y-72751D01*
X41375Y-72674D01*
X41375Y-72446D01*
X41413Y-72370D01*
X41452Y-72332D01*
X41528Y-72293D01*
X41642Y-72293D01*
X41718Y-72332D01*
X41756Y-72370D01*
X41794Y-72446D01*
X41794Y-72674D01*
X41756Y-72751D01*
X41718Y-72789D01*
X41642Y-72827D01*
X41528Y-72827D01*
X42252Y-72827D02*
X42176Y-72789D01*
X42137Y-72713D01*
X42137Y-72027D01*
X42861Y-72789D02*
X42785Y-72827D01*
X42633Y-72827D01*
X42556Y-72789D01*
X42518Y-72713D01*
X42518Y-72408D01*
X42556Y-72332D01*
X42633Y-72293D01*
X42785Y-72293D01*
X42861Y-72332D01*
X42899Y-72408D01*
X42899Y-72484D01*
X42518Y-72560D01*
X43204Y-72789D02*
X43281Y-72827D01*
X43433Y-72827D01*
X43509Y-72789D01*
X43547Y-72713D01*
X43547Y-72674D01*
X43509Y-72598D01*
X43433Y-72560D01*
X43319Y-72560D01*
X43242Y-72522D01*
X43204Y-72446D01*
X43204Y-72408D01*
X43242Y-72332D01*
X43319Y-72293D01*
X43433Y-72293D01*
X43509Y-72332D01*
X43814Y-73132D02*
X43852Y-73093D01*
X43929Y-72979D01*
X43967Y-72903D01*
X44005Y-72789D01*
X44043Y-72598D01*
X44043Y-72446D01*
X44005Y-72255D01*
X43967Y-72141D01*
X43929Y-72065D01*
X43852Y-71951D01*
X43814Y-71913D01*
G54D10*
X26124Y-73558D02*
X26119Y-73606D01*
X26105Y-73653D01*
X26082Y-73696D01*
X26051Y-73734D01*
X26013Y-73765D01*
X25970Y-73788D01*
X25924Y-73802D01*
X25875Y-73807D01*
X25828Y-73803D01*
X25781Y-73789D01*
X25738Y-73767D01*
X25700Y-73736D01*
X25668Y-73699D01*
X25645Y-73656D01*
X25630Y-73609D01*
X25625Y-73561D01*
X25629Y-73513D01*
X25642Y-73466D01*
X25664Y-73423D01*
X25695Y-73385D01*
X25732Y-73353D01*
X25774Y-73329D01*
X25821Y-73314D01*
X25869Y-73309D01*
X25917Y-73312D01*
X25964Y-73325D01*
X26007Y-73347D01*
X26046Y-73377D01*
X26078Y-73414D01*
X26102Y-73457D01*
X26117Y-73503D01*
X26123Y-73552D01*
X26124Y-73558D01*
X25624Y-73558D02*
X26124Y-73558D01*
G54D12*
X26667Y-73082D02*
X26743Y-73082D01*
X26819Y-73120D01*
X26857Y-73158D01*
X26895Y-73234D01*
X26934Y-73387D01*
X26934Y-73577D01*
X26895Y-73729D01*
X26857Y-73806D01*
X26819Y-73844D01*
X26743Y-73882D01*
X26667Y-73882D01*
X26591Y-73844D01*
X26553Y-73806D01*
X26514Y-73729D01*
X26476Y-73577D01*
X26476Y-73387D01*
X26514Y-73234D01*
X26553Y-73158D01*
X26591Y-73120D01*
X26667Y-73082D01*
X27276Y-73806D02*
X27315Y-73844D01*
X27276Y-73882D01*
X27238Y-73844D01*
X27276Y-73806D01*
X27276Y-73882D01*
X27810Y-73082D02*
X27886Y-73082D01*
X27962Y-73120D01*
X28000Y-73158D01*
X28038Y-73234D01*
X28077Y-73387D01*
X28077Y-73577D01*
X28038Y-73729D01*
X28000Y-73806D01*
X27962Y-73844D01*
X27886Y-73882D01*
X27810Y-73882D01*
X27734Y-73844D01*
X27696Y-73806D01*
X27657Y-73729D01*
X27619Y-73577D01*
X27619Y-73387D01*
X27657Y-73234D01*
X27696Y-73158D01*
X27734Y-73120D01*
X27810Y-73082D01*
X28800Y-73082D02*
X28419Y-73082D01*
X28381Y-73463D01*
X28419Y-73425D01*
X28496Y-73387D01*
X28686Y-73387D01*
X28762Y-73425D01*
X28800Y-73463D01*
X28839Y-73539D01*
X28839Y-73729D01*
X28800Y-73806D01*
X28762Y-73844D01*
X28686Y-73882D01*
X28496Y-73882D01*
X28419Y-73844D01*
X28381Y-73806D01*
X29334Y-73082D02*
X29410Y-73082D01*
X29486Y-73120D01*
X29524Y-73158D01*
X29562Y-73234D01*
X29601Y-73387D01*
X29601Y-73577D01*
X29562Y-73729D01*
X29524Y-73806D01*
X29486Y-73844D01*
X29410Y-73882D01*
X29334Y-73882D01*
X29258Y-73844D01*
X29220Y-73806D01*
X29181Y-73729D01*
X29143Y-73577D01*
X29143Y-73387D01*
X29181Y-73234D01*
X29220Y-73158D01*
X29258Y-73120D01*
X29334Y-73082D01*
X29905Y-73082D02*
X29905Y-73234D01*
X30210Y-73082D02*
X30210Y-73234D01*
X31735Y-73044D02*
X31049Y-74072D01*
X33031Y-73882D02*
X32573Y-73882D01*
X32802Y-73882D02*
X32802Y-73082D01*
X32726Y-73196D01*
X32650Y-73272D01*
X32573Y-73310D01*
X33373Y-73806D02*
X33412Y-73844D01*
X33373Y-73882D01*
X33335Y-73844D01*
X33373Y-73806D01*
X33373Y-73882D01*
X33716Y-73158D02*
X33754Y-73120D01*
X33831Y-73082D01*
X34021Y-73082D01*
X34097Y-73120D01*
X34135Y-73158D01*
X34174Y-73234D01*
X34174Y-73310D01*
X34135Y-73425D01*
X33678Y-73882D01*
X34174Y-73882D01*
X34440Y-73082D02*
X34974Y-73082D01*
X34631Y-73882D01*
X35278Y-73882D02*
X35278Y-73348D01*
X35278Y-73425D02*
X35317Y-73387D01*
X35393Y-73348D01*
X35507Y-73348D01*
X35583Y-73387D01*
X35621Y-73463D01*
X35621Y-73882D01*
X35621Y-73463D02*
X35659Y-73387D01*
X35736Y-73348D01*
X35850Y-73348D01*
X35926Y-73387D01*
X35964Y-73463D01*
X35964Y-73882D01*
X36345Y-73882D02*
X36345Y-73348D01*
X36345Y-73425D02*
X36384Y-73387D01*
X36460Y-73348D01*
X36574Y-73348D01*
X36650Y-73387D01*
X36688Y-73463D01*
X36688Y-73882D01*
X36688Y-73463D02*
X36726Y-73387D01*
X36803Y-73348D01*
X36917Y-73348D01*
X36993Y-73387D01*
X37031Y-73463D01*
X37031Y-73882D01*
X38251Y-74187D02*
X38213Y-74148D01*
X38137Y-74034D01*
X38099Y-73958D01*
X38061Y-73844D01*
X38022Y-73653D01*
X38022Y-73501D01*
X38061Y-73310D01*
X38099Y-73196D01*
X38137Y-73120D01*
X38213Y-73006D01*
X38251Y-72968D01*
X38479Y-73082D02*
X38975Y-73082D01*
X38708Y-73387D01*
X38822Y-73387D01*
X38898Y-73425D01*
X38936Y-73463D01*
X38975Y-73539D01*
X38975Y-73729D01*
X38936Y-73806D01*
X38898Y-73844D01*
X38822Y-73882D01*
X38594Y-73882D01*
X38517Y-73844D01*
X38479Y-73806D01*
X39927Y-73882D02*
X39927Y-73082D01*
X40270Y-73882D02*
X40270Y-73463D01*
X40232Y-73387D01*
X40156Y-73348D01*
X40042Y-73348D01*
X39966Y-73387D01*
X39927Y-73425D01*
X40766Y-73882D02*
X40690Y-73844D01*
X40651Y-73806D01*
X40613Y-73729D01*
X40613Y-73501D01*
X40651Y-73425D01*
X40690Y-73387D01*
X40766Y-73348D01*
X40880Y-73348D01*
X40956Y-73387D01*
X40994Y-73425D01*
X41032Y-73501D01*
X41032Y-73729D01*
X40994Y-73806D01*
X40956Y-73844D01*
X40880Y-73882D01*
X40766Y-73882D01*
X41490Y-73882D02*
X41414Y-73844D01*
X41375Y-73768D01*
X41375Y-73082D01*
X42099Y-73844D02*
X42023Y-73882D01*
X41871Y-73882D01*
X41794Y-73844D01*
X41756Y-73768D01*
X41756Y-73463D01*
X41794Y-73387D01*
X41871Y-73348D01*
X42023Y-73348D01*
X42099Y-73387D01*
X42137Y-73463D01*
X42137Y-73539D01*
X41756Y-73615D01*
X42442Y-73844D02*
X42519Y-73882D01*
X42671Y-73882D01*
X42747Y-73844D01*
X42785Y-73768D01*
X42785Y-73729D01*
X42747Y-73653D01*
X42671Y-73615D01*
X42557Y-73615D01*
X42480Y-73577D01*
X42442Y-73501D01*
X42442Y-73463D01*
X42480Y-73387D01*
X42557Y-73348D01*
X42671Y-73348D01*
X42747Y-73387D01*
X43052Y-74187D02*
X43090Y-74148D01*
X43167Y-74034D01*
X43205Y-73958D01*
X43243Y-73844D01*
X43281Y-73653D01*
X43281Y-73501D01*
X43243Y-73310D01*
X43205Y-73196D01*
X43167Y-73120D01*
X43090Y-73006D01*
X43052Y-72968D01*
G54D10*
X26124Y-74613D02*
X26112Y-74729D01*
X26078Y-74841D01*
X26023Y-74945D01*
X25949Y-75035D01*
X25859Y-75110D01*
X25756Y-75166D01*
X25644Y-75200D01*
X25528Y-75212D01*
X25412Y-75202D01*
X25300Y-75169D01*
X25196Y-75115D01*
X25105Y-75041D01*
X25029Y-74951D01*
X24973Y-74849D01*
X24938Y-74737D01*
X24925Y-74621D01*
X24934Y-74505D01*
X24967Y-74393D01*
X25020Y-74288D01*
X25093Y-74197D01*
X25182Y-74121D01*
X25284Y-74064D01*
X25396Y-74027D01*
X25512Y-74014D01*
X25628Y-74023D01*
X25740Y-74054D01*
X25845Y-74107D01*
X25937Y-74179D01*
X26014Y-74268D01*
X26072Y-74369D01*
X26109Y-74481D01*
X26123Y-74597D01*
X26124Y-74613D01*
X25524Y-74013D02*
X25524Y-75213D01*
G54D12*
X26667Y-74137D02*
X26743Y-74137D01*
X26819Y-74175D01*
X26857Y-74213D01*
X26895Y-74289D01*
X26934Y-74442D01*
X26934Y-74632D01*
X26895Y-74784D01*
X26857Y-74861D01*
X26819Y-74899D01*
X26743Y-74937D01*
X26667Y-74937D01*
X26591Y-74899D01*
X26553Y-74861D01*
X26514Y-74784D01*
X26476Y-74632D01*
X26476Y-74442D01*
X26514Y-74289D01*
X26553Y-74213D01*
X26591Y-74175D01*
X26667Y-74137D01*
X27276Y-74861D02*
X27315Y-74899D01*
X27276Y-74937D01*
X27238Y-74899D01*
X27276Y-74861D01*
X27276Y-74937D01*
X28077Y-74937D02*
X27619Y-74937D01*
X27848Y-74937D02*
X27848Y-74137D01*
X27772Y-74251D01*
X27696Y-74327D01*
X27619Y-74365D01*
X28381Y-74213D02*
X28419Y-74175D01*
X28496Y-74137D01*
X28686Y-74137D01*
X28762Y-74175D01*
X28800Y-74213D01*
X28839Y-74289D01*
X28839Y-74365D01*
X28800Y-74480D01*
X28343Y-74937D01*
X28839Y-74937D01*
X29334Y-74137D02*
X29410Y-74137D01*
X29486Y-74175D01*
X29524Y-74213D01*
X29562Y-74289D01*
X29601Y-74442D01*
X29601Y-74632D01*
X29562Y-74784D01*
X29524Y-74861D01*
X29486Y-74899D01*
X29410Y-74937D01*
X29334Y-74937D01*
X29258Y-74899D01*
X29220Y-74861D01*
X29181Y-74784D01*
X29143Y-74632D01*
X29143Y-74442D01*
X29181Y-74289D01*
X29220Y-74213D01*
X29258Y-74175D01*
X29334Y-74137D01*
X29905Y-74137D02*
X29905Y-74289D01*
X30210Y-74137D02*
X30210Y-74289D01*
X31735Y-74099D02*
X31049Y-75127D01*
X32535Y-74137D02*
X33031Y-74137D01*
X32764Y-74442D01*
X32878Y-74442D01*
X32954Y-74480D01*
X32992Y-74518D01*
X33031Y-74594D01*
X33031Y-74784D01*
X32992Y-74861D01*
X32954Y-74899D01*
X32878Y-74937D01*
X32650Y-74937D01*
X32573Y-74899D01*
X32535Y-74861D01*
X33373Y-74861D02*
X33412Y-74899D01*
X33373Y-74937D01*
X33335Y-74899D01*
X33373Y-74861D01*
X33373Y-74937D01*
X33907Y-74137D02*
X33983Y-74137D01*
X34059Y-74175D01*
X34097Y-74213D01*
X34135Y-74289D01*
X34174Y-74442D01*
X34174Y-74632D01*
X34135Y-74784D01*
X34097Y-74861D01*
X34059Y-74899D01*
X33983Y-74937D01*
X33907Y-74937D01*
X33831Y-74899D01*
X33793Y-74861D01*
X33754Y-74784D01*
X33716Y-74632D01*
X33716Y-74442D01*
X33754Y-74289D01*
X33793Y-74213D01*
X33831Y-74175D01*
X33907Y-74137D01*
X34897Y-74137D02*
X34516Y-74137D01*
X34478Y-74518D01*
X34516Y-74480D01*
X34593Y-74442D01*
X34783Y-74442D01*
X34859Y-74480D01*
X34897Y-74518D01*
X34936Y-74594D01*
X34936Y-74784D01*
X34897Y-74861D01*
X34859Y-74899D01*
X34783Y-74937D01*
X34593Y-74937D01*
X34516Y-74899D01*
X34478Y-74861D01*
X35278Y-74937D02*
X35278Y-74403D01*
X35278Y-74480D02*
X35317Y-74442D01*
X35393Y-74403D01*
X35507Y-74403D01*
X35583Y-74442D01*
X35621Y-74518D01*
X35621Y-74937D01*
X35621Y-74518D02*
X35659Y-74442D01*
X35736Y-74403D01*
X35850Y-74403D01*
X35926Y-74442D01*
X35964Y-74518D01*
X35964Y-74937D01*
X36345Y-74937D02*
X36345Y-74403D01*
X36345Y-74480D02*
X36384Y-74442D01*
X36460Y-74403D01*
X36574Y-74403D01*
X36650Y-74442D01*
X36688Y-74518D01*
X36688Y-74937D01*
X36688Y-74518D02*
X36726Y-74442D01*
X36803Y-74403D01*
X36917Y-74403D01*
X36993Y-74442D01*
X37031Y-74518D01*
X37031Y-74937D01*
X38251Y-75242D02*
X38213Y-75203D01*
X38137Y-75089D01*
X38099Y-75013D01*
X38061Y-74899D01*
X38022Y-74708D01*
X38022Y-74556D01*
X38061Y-74365D01*
X38099Y-74251D01*
X38137Y-74175D01*
X38213Y-74061D01*
X38251Y-74023D01*
X38670Y-74480D02*
X38594Y-74442D01*
X38555Y-74403D01*
X38517Y-74327D01*
X38517Y-74289D01*
X38555Y-74213D01*
X38594Y-74175D01*
X38670Y-74137D01*
X38822Y-74137D01*
X38898Y-74175D01*
X38936Y-74213D01*
X38975Y-74289D01*
X38975Y-74327D01*
X38936Y-74403D01*
X38898Y-74442D01*
X38822Y-74480D01*
X38670Y-74480D01*
X38594Y-74518D01*
X38555Y-74556D01*
X38517Y-74632D01*
X38517Y-74784D01*
X38555Y-74861D01*
X38594Y-74899D01*
X38670Y-74937D01*
X38822Y-74937D01*
X38898Y-74899D01*
X38936Y-74861D01*
X38975Y-74784D01*
X38975Y-74632D01*
X38936Y-74556D01*
X38898Y-74518D01*
X38822Y-74480D01*
X39927Y-74937D02*
X39927Y-74137D01*
X40270Y-74937D02*
X40270Y-74518D01*
X40232Y-74442D01*
X40156Y-74403D01*
X40042Y-74403D01*
X39966Y-74442D01*
X39927Y-74480D01*
X40766Y-74937D02*
X40690Y-74899D01*
X40651Y-74861D01*
X40613Y-74784D01*
X40613Y-74556D01*
X40651Y-74480D01*
X40690Y-74442D01*
X40766Y-74403D01*
X40880Y-74403D01*
X40956Y-74442D01*
X40994Y-74480D01*
X41032Y-74556D01*
X41032Y-74784D01*
X40994Y-74861D01*
X40956Y-74899D01*
X40880Y-74937D01*
X40766Y-74937D01*
X41490Y-74937D02*
X41414Y-74899D01*
X41375Y-74823D01*
X41375Y-74137D01*
X42099Y-74899D02*
X42023Y-74937D01*
X41871Y-74937D01*
X41794Y-74899D01*
X41756Y-74823D01*
X41756Y-74518D01*
X41794Y-74442D01*
X41871Y-74403D01*
X42023Y-74403D01*
X42099Y-74442D01*
X42137Y-74518D01*
X42137Y-74594D01*
X41756Y-74670D01*
X42442Y-74899D02*
X42519Y-74937D01*
X42671Y-74937D01*
X42747Y-74899D01*
X42785Y-74823D01*
X42785Y-74784D01*
X42747Y-74708D01*
X42671Y-74670D01*
X42557Y-74670D01*
X42480Y-74632D01*
X42442Y-74556D01*
X42442Y-74518D01*
X42480Y-74442D01*
X42557Y-74403D01*
X42671Y-74403D01*
X42747Y-74442D01*
X43052Y-75242D02*
X43090Y-75203D01*
X43167Y-75089D01*
X43205Y-75013D01*
X43243Y-74899D01*
X43281Y-74708D01*
X43281Y-74556D01*
X43243Y-74365D01*
X43205Y-74251D01*
X43167Y-74175D01*
X43090Y-74061D01*
X43052Y-74023D01*
M02*
