G04 (created by PCBNEW (2010-04-21 BZR 23xx)-stable) date Sun 20 Mar 2011 12:37:56 AM CET*
G01*
G70*
G90*
%MOIN*%
G04 Gerber Fmt 3.4, Leading zero omitted, Abs format*
%FSLAX34Y34*%
G04 APERTURE LIST*
%ADD10C,0.001000*%
%ADD11C,0.015000*%
%ADD12C,0.008000*%
G04 APERTURE END LIST*
G54D10*
G54D11*
X105000Y-11600D02*
X11000Y-11600D01*
X105000Y-23900D02*
X105000Y-11600D01*
X11000Y-23900D02*
X105000Y-23900D01*
X11000Y-11600D02*
X11000Y-23900D01*
G54D10*
X13055Y-17009D02*
X13305Y-17259D01*
X13305Y-17009D02*
X13055Y-17259D01*
X45625Y-20309D02*
X45875Y-20559D01*
X45875Y-20309D02*
X45625Y-20559D01*
X49321Y-16707D02*
X49571Y-16957D01*
X49571Y-16707D02*
X49321Y-16957D01*
X49802Y-21657D02*
X50052Y-21907D01*
X50052Y-21657D02*
X49802Y-21907D01*
X49808Y-17541D02*
X50058Y-17791D01*
X50058Y-17541D02*
X49808Y-17791D01*
X50073Y-12313D02*
X50323Y-12563D01*
X50323Y-12313D02*
X50073Y-12563D01*
X50641Y-15157D02*
X50891Y-15407D01*
X50891Y-15157D02*
X50641Y-15407D01*
X51146Y-13062D02*
X51396Y-13312D01*
X51396Y-13062D02*
X51146Y-13312D01*
X51539Y-18148D02*
X51789Y-18398D01*
X51789Y-18148D02*
X51539Y-18398D01*
X51618Y-14956D02*
X51868Y-15206D01*
X51868Y-14956D02*
X51618Y-15206D01*
X52597Y-15130D02*
X52847Y-15380D01*
X52847Y-15130D02*
X52597Y-15380D01*
X53069Y-14227D02*
X53319Y-14477D01*
X53319Y-14227D02*
X53069Y-14477D01*
X53349Y-15652D02*
X53599Y-15902D01*
X53599Y-15652D02*
X53349Y-15902D01*
X53416Y-17215D02*
X53666Y-17465D01*
X53666Y-17215D02*
X53416Y-17465D01*
X53453Y-13325D02*
X53703Y-13575D01*
X53703Y-13325D02*
X53453Y-13575D01*
X53975Y-17883D02*
X54225Y-18133D01*
X54225Y-17883D02*
X53975Y-18133D01*
X54142Y-20944D02*
X54392Y-21194D01*
X54392Y-20944D02*
X54142Y-21194D01*
X54153Y-18670D02*
X54403Y-18920D01*
X54403Y-18670D02*
X54153Y-18920D01*
X54180Y-22536D02*
X54430Y-22786D01*
X54430Y-22536D02*
X54180Y-22786D01*
X54189Y-20194D02*
X54439Y-20444D01*
X54439Y-20194D02*
X54189Y-20444D01*
X54219Y-21430D02*
X54469Y-21680D01*
X54469Y-21430D02*
X54219Y-21680D01*
X54224Y-21884D02*
X54474Y-22134D01*
X54474Y-21884D02*
X54224Y-22134D01*
X54327Y-15571D02*
X54577Y-15821D01*
X54577Y-15571D02*
X54327Y-15821D01*
X54377Y-12357D02*
X54627Y-12607D01*
X54627Y-12357D02*
X54377Y-12607D01*
X55334Y-19842D02*
X55584Y-20092D01*
X55584Y-19842D02*
X55334Y-20092D01*
X55625Y-22746D02*
X55875Y-22996D01*
X55875Y-22746D02*
X55625Y-22996D01*
X55719Y-21187D02*
X55969Y-21437D01*
X55969Y-21187D02*
X55719Y-21437D01*
X55875Y-16875D02*
X56125Y-17125D01*
X56125Y-16875D02*
X55875Y-17125D01*
X55875Y-18575D02*
X56125Y-18825D01*
X56125Y-18575D02*
X55875Y-18825D01*
X55986Y-20103D02*
X56236Y-20353D01*
X56236Y-20103D02*
X55986Y-20353D01*
X56040Y-21990D02*
X56290Y-22240D01*
X56290Y-21990D02*
X56040Y-22240D01*
X57641Y-18387D02*
X57891Y-18637D01*
X57891Y-18387D02*
X57641Y-18637D01*
X58170Y-21964D02*
X58420Y-22214D01*
X58420Y-21964D02*
X58170Y-22214D01*
X59652Y-16957D02*
X59902Y-17207D01*
X59902Y-16957D02*
X59652Y-17207D01*
X59690Y-19075D02*
X59940Y-19325D01*
X59940Y-19075D02*
X59690Y-19325D01*
X59739Y-21615D02*
X59989Y-21865D01*
X59989Y-21615D02*
X59739Y-21865D01*
X60429Y-21098D02*
X60679Y-21348D01*
X60679Y-21098D02*
X60429Y-21348D01*
X67066Y-19096D02*
X67316Y-19346D01*
X67316Y-19096D02*
X67066Y-19346D01*
X72250Y-16483D02*
X72500Y-16733D01*
X72500Y-16483D02*
X72250Y-16733D01*
X73222Y-19673D02*
X73472Y-19923D01*
X73472Y-19673D02*
X73222Y-19923D01*
X54960Y-13400D02*
X54956Y-13431D01*
X54947Y-13460D01*
X54933Y-13488D01*
X54913Y-13512D01*
X54889Y-13532D01*
X54862Y-13547D01*
X54832Y-13556D01*
X54801Y-13559D01*
X54771Y-13557D01*
X54741Y-13548D01*
X54713Y-13533D01*
X54689Y-13514D01*
X54668Y-13490D01*
X54653Y-13463D01*
X54644Y-13433D01*
X54641Y-13402D01*
X54643Y-13372D01*
X54652Y-13342D01*
X54666Y-13314D01*
X54685Y-13289D01*
X54709Y-13269D01*
X54736Y-13254D01*
X54766Y-13244D01*
X54797Y-13241D01*
X54827Y-13243D01*
X54857Y-13251D01*
X54885Y-13265D01*
X54910Y-13285D01*
X54930Y-13308D01*
X54946Y-13335D01*
X54956Y-13365D01*
X54959Y-13396D01*
X54960Y-13400D01*
X55960Y-13400D02*
X55956Y-13431D01*
X55947Y-13460D01*
X55933Y-13488D01*
X55913Y-13512D01*
X55889Y-13532D01*
X55862Y-13547D01*
X55832Y-13556D01*
X55801Y-13559D01*
X55771Y-13557D01*
X55741Y-13548D01*
X55713Y-13533D01*
X55689Y-13514D01*
X55668Y-13490D01*
X55653Y-13463D01*
X55644Y-13433D01*
X55641Y-13402D01*
X55643Y-13372D01*
X55652Y-13342D01*
X55666Y-13314D01*
X55685Y-13289D01*
X55709Y-13269D01*
X55736Y-13254D01*
X55766Y-13244D01*
X55797Y-13241D01*
X55827Y-13243D01*
X55857Y-13251D01*
X55885Y-13265D01*
X55910Y-13285D01*
X55930Y-13308D01*
X55946Y-13335D01*
X55956Y-13365D01*
X55959Y-13396D01*
X55960Y-13400D01*
X15499Y-14303D02*
X15499Y-14697D01*
X15696Y-14500D02*
X15302Y-14500D01*
X15499Y-16303D02*
X15499Y-16697D01*
X15696Y-16500D02*
X15302Y-16500D01*
X15500Y-18803D02*
X15500Y-19197D01*
X15697Y-19000D02*
X15303Y-19000D01*
X15500Y-20803D02*
X15500Y-21197D01*
X15697Y-21000D02*
X15303Y-21000D01*
X20000Y-14303D02*
X20000Y-14697D01*
X20197Y-14500D02*
X19803Y-14500D01*
X20000Y-16303D02*
X20000Y-16697D01*
X20197Y-16500D02*
X19803Y-16500D01*
X20000Y-18803D02*
X20000Y-19197D01*
X20197Y-19000D02*
X19803Y-19000D01*
X20000Y-20803D02*
X20000Y-21197D01*
X20197Y-21000D02*
X19803Y-21000D01*
X24500Y-14303D02*
X24500Y-14697D01*
X24697Y-14500D02*
X24303Y-14500D01*
X24500Y-16303D02*
X24500Y-16697D01*
X24697Y-16500D02*
X24303Y-16500D01*
X24500Y-18803D02*
X24500Y-19197D01*
X24697Y-19000D02*
X24303Y-19000D01*
X24500Y-20803D02*
X24500Y-21197D01*
X24697Y-21000D02*
X24303Y-21000D01*
X29000Y-14303D02*
X29000Y-14697D01*
X29197Y-14500D02*
X28803Y-14500D01*
X29000Y-16303D02*
X29000Y-16697D01*
X29197Y-16500D02*
X28803Y-16500D01*
X29000Y-18803D02*
X29000Y-19197D01*
X29197Y-19000D02*
X28803Y-19000D01*
X29000Y-20803D02*
X29000Y-21197D01*
X29197Y-21000D02*
X28803Y-21000D01*
X33500Y-14303D02*
X33500Y-14697D01*
X33697Y-14500D02*
X33303Y-14500D01*
X33500Y-16303D02*
X33500Y-16697D01*
X33697Y-16500D02*
X33303Y-16500D01*
X33500Y-18803D02*
X33500Y-19197D01*
X33697Y-19000D02*
X33303Y-19000D01*
X33500Y-20803D02*
X33500Y-21197D01*
X33697Y-21000D02*
X33303Y-21000D01*
X38000Y-14303D02*
X38000Y-14697D01*
X38197Y-14500D02*
X37803Y-14500D01*
X38000Y-16303D02*
X38000Y-16697D01*
X38197Y-16500D02*
X37803Y-16500D01*
X38000Y-18803D02*
X38000Y-19197D01*
X38197Y-19000D02*
X37803Y-19000D01*
X38000Y-20803D02*
X38000Y-21197D01*
X38197Y-21000D02*
X37803Y-21000D01*
X42500Y-14303D02*
X42500Y-14697D01*
X42697Y-14500D02*
X42303Y-14500D01*
X42500Y-16303D02*
X42500Y-16697D01*
X42697Y-16500D02*
X42303Y-16500D01*
X42500Y-18803D02*
X42500Y-19197D01*
X42697Y-19000D02*
X42303Y-19000D01*
X42500Y-20803D02*
X42500Y-21197D01*
X42697Y-21000D02*
X42303Y-21000D01*
X47000Y-14303D02*
X47000Y-14697D01*
X47197Y-14500D02*
X46803Y-14500D01*
X47000Y-16303D02*
X47000Y-16697D01*
X47197Y-16500D02*
X46803Y-16500D01*
X47000Y-18803D02*
X47000Y-19197D01*
X47197Y-19000D02*
X46803Y-19000D01*
X47000Y-20803D02*
X47000Y-21197D01*
X47197Y-21000D02*
X46803Y-21000D01*
X69000Y-14303D02*
X69000Y-14697D01*
X69197Y-14500D02*
X68803Y-14500D01*
X69000Y-16303D02*
X69000Y-16697D01*
X69197Y-16500D02*
X68803Y-16500D01*
X69000Y-18803D02*
X69000Y-19197D01*
X69197Y-19000D02*
X68803Y-19000D01*
X69000Y-20803D02*
X69000Y-21197D01*
X69197Y-21000D02*
X68803Y-21000D01*
X73500Y-14303D02*
X73500Y-14697D01*
X73697Y-14500D02*
X73303Y-14500D01*
X73500Y-16303D02*
X73500Y-16697D01*
X73697Y-16500D02*
X73303Y-16500D01*
X73500Y-18803D02*
X73500Y-19197D01*
X73697Y-19000D02*
X73303Y-19000D01*
X73500Y-20803D02*
X73500Y-21197D01*
X73697Y-21000D02*
X73303Y-21000D01*
X78000Y-14303D02*
X78000Y-14697D01*
X78197Y-14500D02*
X77803Y-14500D01*
X78000Y-16303D02*
X78000Y-16697D01*
X78197Y-16500D02*
X77803Y-16500D01*
X78000Y-18803D02*
X78000Y-19197D01*
X78197Y-19000D02*
X77803Y-19000D01*
X78000Y-20803D02*
X78000Y-21197D01*
X78197Y-21000D02*
X77803Y-21000D01*
X82500Y-14303D02*
X82500Y-14697D01*
X82697Y-14500D02*
X82303Y-14500D01*
X82500Y-16303D02*
X82500Y-16697D01*
X82697Y-16500D02*
X82303Y-16500D01*
X82500Y-18803D02*
X82500Y-19197D01*
X82697Y-19000D02*
X82303Y-19000D01*
X82500Y-20803D02*
X82500Y-21197D01*
X82697Y-21000D02*
X82303Y-21000D01*
X87000Y-14303D02*
X87000Y-14697D01*
X87197Y-14500D02*
X86803Y-14500D01*
X87000Y-16303D02*
X87000Y-16697D01*
X87197Y-16500D02*
X86803Y-16500D01*
X87000Y-18703D02*
X87000Y-19097D01*
X87197Y-18900D02*
X86803Y-18900D01*
X87000Y-20703D02*
X87000Y-21097D01*
X87197Y-20900D02*
X86803Y-20900D01*
X91600Y-14303D02*
X91600Y-14697D01*
X91797Y-14500D02*
X91403Y-14500D01*
X91600Y-16303D02*
X91600Y-16697D01*
X91797Y-16500D02*
X91403Y-16500D01*
X91600Y-18803D02*
X91600Y-19197D01*
X91797Y-19000D02*
X91403Y-19000D01*
X91600Y-20803D02*
X91600Y-21197D01*
X91797Y-21000D02*
X91403Y-21000D01*
X96000Y-14303D02*
X96000Y-14697D01*
X96197Y-14500D02*
X95803Y-14500D01*
X96000Y-16303D02*
X96000Y-16697D01*
X96197Y-16500D02*
X95803Y-16500D01*
X96000Y-18803D02*
X96000Y-19197D01*
X96197Y-19000D02*
X95803Y-19000D01*
X96000Y-20803D02*
X96000Y-21197D01*
X96197Y-21000D02*
X95803Y-21000D01*
X100500Y-14303D02*
X100500Y-14697D01*
X100697Y-14500D02*
X100303Y-14500D01*
X100500Y-16303D02*
X100500Y-16697D01*
X100697Y-16500D02*
X100303Y-16500D01*
X100500Y-18803D02*
X100500Y-19197D01*
X100697Y-19000D02*
X100303Y-19000D01*
X100500Y-20803D02*
X100500Y-21197D01*
X100697Y-21000D02*
X100303Y-21000D01*
X12200Y-15100D02*
X12196Y-15138D01*
X12184Y-15176D01*
X12166Y-15210D01*
X12141Y-15240D01*
X12111Y-15265D01*
X12077Y-15284D01*
X12040Y-15295D01*
X12001Y-15299D01*
X11963Y-15296D01*
X11926Y-15285D01*
X11891Y-15267D01*
X11861Y-15242D01*
X11835Y-15212D01*
X11817Y-15178D01*
X11805Y-15141D01*
X11801Y-15102D01*
X11804Y-15064D01*
X11815Y-15027D01*
X11832Y-14992D01*
X11857Y-14962D01*
X11886Y-14936D01*
X11920Y-14917D01*
X11958Y-14905D01*
X11996Y-14901D01*
X12034Y-14904D01*
X12072Y-14914D01*
X12107Y-14932D01*
X12137Y-14956D01*
X12163Y-14985D01*
X12182Y-15019D01*
X12195Y-15056D01*
X12199Y-15095D01*
X12200Y-15100D01*
X11800Y-14900D02*
X12200Y-15300D01*
X12200Y-14900D02*
X11800Y-15300D01*
X12200Y-16100D02*
X12196Y-16138D01*
X12184Y-16176D01*
X12166Y-16210D01*
X12141Y-16240D01*
X12111Y-16265D01*
X12077Y-16284D01*
X12040Y-16295D01*
X12001Y-16299D01*
X11963Y-16296D01*
X11926Y-16285D01*
X11891Y-16267D01*
X11861Y-16242D01*
X11835Y-16212D01*
X11817Y-16178D01*
X11805Y-16141D01*
X11801Y-16102D01*
X11804Y-16064D01*
X11815Y-16027D01*
X11832Y-15992D01*
X11857Y-15962D01*
X11886Y-15936D01*
X11920Y-15917D01*
X11958Y-15905D01*
X11996Y-15901D01*
X12034Y-15904D01*
X12072Y-15914D01*
X12107Y-15932D01*
X12137Y-15956D01*
X12163Y-15985D01*
X12182Y-16019D01*
X12195Y-16056D01*
X12199Y-16095D01*
X12200Y-16100D01*
X11800Y-15900D02*
X12200Y-16300D01*
X12200Y-15900D02*
X11800Y-16300D01*
X12200Y-17100D02*
X12196Y-17138D01*
X12184Y-17176D01*
X12166Y-17210D01*
X12141Y-17240D01*
X12111Y-17265D01*
X12077Y-17284D01*
X12040Y-17295D01*
X12001Y-17299D01*
X11963Y-17296D01*
X11926Y-17285D01*
X11891Y-17267D01*
X11861Y-17242D01*
X11835Y-17212D01*
X11817Y-17178D01*
X11805Y-17141D01*
X11801Y-17102D01*
X11804Y-17064D01*
X11815Y-17027D01*
X11832Y-16992D01*
X11857Y-16962D01*
X11886Y-16936D01*
X11920Y-16917D01*
X11958Y-16905D01*
X11996Y-16901D01*
X12034Y-16904D01*
X12072Y-16914D01*
X12107Y-16932D01*
X12137Y-16956D01*
X12163Y-16985D01*
X12182Y-17019D01*
X12195Y-17056D01*
X12199Y-17095D01*
X12200Y-17100D01*
X11800Y-16900D02*
X12200Y-17300D01*
X12200Y-16900D02*
X11800Y-17300D01*
X12200Y-18100D02*
X12196Y-18138D01*
X12184Y-18176D01*
X12166Y-18210D01*
X12141Y-18240D01*
X12111Y-18265D01*
X12077Y-18284D01*
X12040Y-18295D01*
X12001Y-18299D01*
X11963Y-18296D01*
X11926Y-18285D01*
X11891Y-18267D01*
X11861Y-18242D01*
X11835Y-18212D01*
X11817Y-18178D01*
X11805Y-18141D01*
X11801Y-18102D01*
X11804Y-18064D01*
X11815Y-18027D01*
X11832Y-17992D01*
X11857Y-17962D01*
X11886Y-17936D01*
X11920Y-17917D01*
X11958Y-17905D01*
X11996Y-17901D01*
X12034Y-17904D01*
X12072Y-17914D01*
X12107Y-17932D01*
X12137Y-17956D01*
X12163Y-17985D01*
X12182Y-18019D01*
X12195Y-18056D01*
X12199Y-18095D01*
X12200Y-18100D01*
X11800Y-17900D02*
X12200Y-18300D01*
X12200Y-17900D02*
X11800Y-18300D01*
X12200Y-19100D02*
X12196Y-19138D01*
X12184Y-19176D01*
X12166Y-19210D01*
X12141Y-19240D01*
X12111Y-19265D01*
X12077Y-19284D01*
X12040Y-19295D01*
X12001Y-19299D01*
X11963Y-19296D01*
X11926Y-19285D01*
X11891Y-19267D01*
X11861Y-19242D01*
X11835Y-19212D01*
X11817Y-19178D01*
X11805Y-19141D01*
X11801Y-19102D01*
X11804Y-19064D01*
X11815Y-19027D01*
X11832Y-18992D01*
X11857Y-18962D01*
X11886Y-18936D01*
X11920Y-18917D01*
X11958Y-18905D01*
X11996Y-18901D01*
X12034Y-18904D01*
X12072Y-18914D01*
X12107Y-18932D01*
X12137Y-18956D01*
X12163Y-18985D01*
X12182Y-19019D01*
X12195Y-19056D01*
X12199Y-19095D01*
X12200Y-19100D01*
X11800Y-18900D02*
X12200Y-19300D01*
X12200Y-18900D02*
X11800Y-19300D01*
X12200Y-20100D02*
X12196Y-20138D01*
X12184Y-20176D01*
X12166Y-20210D01*
X12141Y-20240D01*
X12111Y-20265D01*
X12077Y-20284D01*
X12040Y-20295D01*
X12001Y-20299D01*
X11963Y-20296D01*
X11926Y-20285D01*
X11891Y-20267D01*
X11861Y-20242D01*
X11835Y-20212D01*
X11817Y-20178D01*
X11805Y-20141D01*
X11801Y-20102D01*
X11804Y-20064D01*
X11815Y-20027D01*
X11832Y-19992D01*
X11857Y-19962D01*
X11886Y-19936D01*
X11920Y-19917D01*
X11958Y-19905D01*
X11996Y-19901D01*
X12034Y-19904D01*
X12072Y-19914D01*
X12107Y-19932D01*
X12137Y-19956D01*
X12163Y-19985D01*
X12182Y-20019D01*
X12195Y-20056D01*
X12199Y-20095D01*
X12200Y-20100D01*
X11800Y-19900D02*
X12200Y-20300D01*
X12200Y-19900D02*
X11800Y-20300D01*
X50900Y-20100D02*
X50896Y-20138D01*
X50884Y-20176D01*
X50866Y-20210D01*
X50841Y-20240D01*
X50811Y-20265D01*
X50777Y-20284D01*
X50740Y-20295D01*
X50701Y-20299D01*
X50663Y-20296D01*
X50626Y-20285D01*
X50591Y-20267D01*
X50561Y-20242D01*
X50535Y-20212D01*
X50517Y-20178D01*
X50505Y-20141D01*
X50501Y-20102D01*
X50504Y-20064D01*
X50515Y-20027D01*
X50532Y-19992D01*
X50557Y-19962D01*
X50586Y-19936D01*
X50620Y-19917D01*
X50658Y-19905D01*
X50696Y-19901D01*
X50734Y-19904D01*
X50772Y-19914D01*
X50807Y-19932D01*
X50837Y-19956D01*
X50863Y-19985D01*
X50882Y-20019D01*
X50895Y-20056D01*
X50899Y-20095D01*
X50900Y-20100D01*
X50500Y-19900D02*
X50900Y-20300D01*
X50900Y-19900D02*
X50500Y-20300D01*
X50900Y-21100D02*
X50896Y-21138D01*
X50884Y-21176D01*
X50866Y-21210D01*
X50841Y-21240D01*
X50811Y-21265D01*
X50777Y-21284D01*
X50740Y-21295D01*
X50701Y-21299D01*
X50663Y-21296D01*
X50626Y-21285D01*
X50591Y-21267D01*
X50561Y-21242D01*
X50535Y-21212D01*
X50517Y-21178D01*
X50505Y-21141D01*
X50501Y-21102D01*
X50504Y-21064D01*
X50515Y-21027D01*
X50532Y-20992D01*
X50557Y-20962D01*
X50586Y-20936D01*
X50620Y-20917D01*
X50658Y-20905D01*
X50696Y-20901D01*
X50734Y-20904D01*
X50772Y-20914D01*
X50807Y-20932D01*
X50837Y-20956D01*
X50863Y-20985D01*
X50882Y-21019D01*
X50895Y-21056D01*
X50899Y-21095D01*
X50900Y-21100D01*
X50500Y-20900D02*
X50900Y-21300D01*
X50900Y-20900D02*
X50500Y-21300D01*
X51500Y-12575D02*
X51496Y-12613D01*
X51484Y-12651D01*
X51466Y-12685D01*
X51441Y-12715D01*
X51411Y-12740D01*
X51377Y-12759D01*
X51340Y-12770D01*
X51301Y-12774D01*
X51263Y-12771D01*
X51226Y-12760D01*
X51191Y-12742D01*
X51161Y-12717D01*
X51135Y-12687D01*
X51117Y-12653D01*
X51105Y-12616D01*
X51101Y-12577D01*
X51104Y-12539D01*
X51115Y-12502D01*
X51132Y-12467D01*
X51157Y-12437D01*
X51186Y-12411D01*
X51220Y-12392D01*
X51258Y-12380D01*
X51296Y-12376D01*
X51334Y-12379D01*
X51372Y-12389D01*
X51407Y-12407D01*
X51437Y-12431D01*
X51463Y-12460D01*
X51482Y-12494D01*
X51495Y-12531D01*
X51499Y-12570D01*
X51500Y-12575D01*
X51100Y-12375D02*
X51500Y-12775D01*
X51500Y-12375D02*
X51100Y-12775D01*
X51500Y-14325D02*
X51496Y-14363D01*
X51484Y-14401D01*
X51466Y-14435D01*
X51441Y-14465D01*
X51411Y-14490D01*
X51377Y-14509D01*
X51340Y-14520D01*
X51301Y-14524D01*
X51263Y-14521D01*
X51226Y-14510D01*
X51191Y-14492D01*
X51161Y-14467D01*
X51135Y-14437D01*
X51117Y-14403D01*
X51105Y-14366D01*
X51101Y-14327D01*
X51104Y-14289D01*
X51115Y-14252D01*
X51132Y-14217D01*
X51157Y-14187D01*
X51186Y-14161D01*
X51220Y-14142D01*
X51258Y-14130D01*
X51296Y-14126D01*
X51334Y-14129D01*
X51372Y-14139D01*
X51407Y-14157D01*
X51437Y-14181D01*
X51463Y-14210D01*
X51482Y-14244D01*
X51495Y-14281D01*
X51499Y-14320D01*
X51500Y-14325D01*
X51100Y-14125D02*
X51500Y-14525D01*
X51500Y-14125D02*
X51100Y-14525D01*
X51900Y-20100D02*
X51896Y-20138D01*
X51884Y-20176D01*
X51866Y-20210D01*
X51841Y-20240D01*
X51811Y-20265D01*
X51777Y-20284D01*
X51740Y-20295D01*
X51701Y-20299D01*
X51663Y-20296D01*
X51626Y-20285D01*
X51591Y-20267D01*
X51561Y-20242D01*
X51535Y-20212D01*
X51517Y-20178D01*
X51505Y-20141D01*
X51501Y-20102D01*
X51504Y-20064D01*
X51515Y-20027D01*
X51532Y-19992D01*
X51557Y-19962D01*
X51586Y-19936D01*
X51620Y-19917D01*
X51658Y-19905D01*
X51696Y-19901D01*
X51734Y-19904D01*
X51772Y-19914D01*
X51807Y-19932D01*
X51837Y-19956D01*
X51863Y-19985D01*
X51882Y-20019D01*
X51895Y-20056D01*
X51899Y-20095D01*
X51900Y-20100D01*
X51500Y-19900D02*
X51900Y-20300D01*
X51900Y-19900D02*
X51500Y-20300D01*
X51900Y-21100D02*
X51896Y-21138D01*
X51884Y-21176D01*
X51866Y-21210D01*
X51841Y-21240D01*
X51811Y-21265D01*
X51777Y-21284D01*
X51740Y-21295D01*
X51701Y-21299D01*
X51663Y-21296D01*
X51626Y-21285D01*
X51591Y-21267D01*
X51561Y-21242D01*
X51535Y-21212D01*
X51517Y-21178D01*
X51505Y-21141D01*
X51501Y-21102D01*
X51504Y-21064D01*
X51515Y-21027D01*
X51532Y-20992D01*
X51557Y-20962D01*
X51586Y-20936D01*
X51620Y-20917D01*
X51658Y-20905D01*
X51696Y-20901D01*
X51734Y-20904D01*
X51772Y-20914D01*
X51807Y-20932D01*
X51837Y-20956D01*
X51863Y-20985D01*
X51882Y-21019D01*
X51895Y-21056D01*
X51899Y-21095D01*
X51900Y-21100D01*
X51500Y-20900D02*
X51900Y-21300D01*
X51900Y-20900D02*
X51500Y-21300D01*
X52900Y-20100D02*
X52896Y-20138D01*
X52884Y-20176D01*
X52866Y-20210D01*
X52841Y-20240D01*
X52811Y-20265D01*
X52777Y-20284D01*
X52740Y-20295D01*
X52701Y-20299D01*
X52663Y-20296D01*
X52626Y-20285D01*
X52591Y-20267D01*
X52561Y-20242D01*
X52535Y-20212D01*
X52517Y-20178D01*
X52505Y-20141D01*
X52501Y-20102D01*
X52504Y-20064D01*
X52515Y-20027D01*
X52532Y-19992D01*
X52557Y-19962D01*
X52586Y-19936D01*
X52620Y-19917D01*
X52658Y-19905D01*
X52696Y-19901D01*
X52734Y-19904D01*
X52772Y-19914D01*
X52807Y-19932D01*
X52837Y-19956D01*
X52863Y-19985D01*
X52882Y-20019D01*
X52895Y-20056D01*
X52899Y-20095D01*
X52900Y-20100D01*
X52500Y-19900D02*
X52900Y-20300D01*
X52900Y-19900D02*
X52500Y-20300D01*
X52900Y-21100D02*
X52896Y-21138D01*
X52884Y-21176D01*
X52866Y-21210D01*
X52841Y-21240D01*
X52811Y-21265D01*
X52777Y-21284D01*
X52740Y-21295D01*
X52701Y-21299D01*
X52663Y-21296D01*
X52626Y-21285D01*
X52591Y-21267D01*
X52561Y-21242D01*
X52535Y-21212D01*
X52517Y-21178D01*
X52505Y-21141D01*
X52501Y-21102D01*
X52504Y-21064D01*
X52515Y-21027D01*
X52532Y-20992D01*
X52557Y-20962D01*
X52586Y-20936D01*
X52620Y-20917D01*
X52658Y-20905D01*
X52696Y-20901D01*
X52734Y-20904D01*
X52772Y-20914D01*
X52807Y-20932D01*
X52837Y-20956D01*
X52863Y-20985D01*
X52882Y-21019D01*
X52895Y-21056D01*
X52899Y-21095D01*
X52900Y-21100D01*
X52500Y-20900D02*
X52900Y-21300D01*
X52900Y-20900D02*
X52500Y-21300D01*
X54050Y-12575D02*
X54046Y-12613D01*
X54034Y-12651D01*
X54016Y-12685D01*
X53991Y-12715D01*
X53961Y-12740D01*
X53927Y-12759D01*
X53890Y-12770D01*
X53851Y-12774D01*
X53813Y-12771D01*
X53776Y-12760D01*
X53741Y-12742D01*
X53711Y-12717D01*
X53685Y-12687D01*
X53667Y-12653D01*
X53655Y-12616D01*
X53651Y-12577D01*
X53654Y-12539D01*
X53665Y-12502D01*
X53682Y-12467D01*
X53707Y-12437D01*
X53736Y-12411D01*
X53770Y-12392D01*
X53808Y-12380D01*
X53846Y-12376D01*
X53884Y-12379D01*
X53922Y-12389D01*
X53957Y-12407D01*
X53987Y-12431D01*
X54013Y-12460D01*
X54032Y-12494D01*
X54045Y-12531D01*
X54049Y-12570D01*
X54050Y-12575D01*
X53650Y-12375D02*
X54050Y-12775D01*
X54050Y-12375D02*
X53650Y-12775D01*
X54050Y-14325D02*
X54046Y-14363D01*
X54034Y-14401D01*
X54016Y-14435D01*
X53991Y-14465D01*
X53961Y-14490D01*
X53927Y-14509D01*
X53890Y-14520D01*
X53851Y-14524D01*
X53813Y-14521D01*
X53776Y-14510D01*
X53741Y-14492D01*
X53711Y-14467D01*
X53685Y-14437D01*
X53667Y-14403D01*
X53655Y-14366D01*
X53651Y-14327D01*
X53654Y-14289D01*
X53665Y-14252D01*
X53682Y-14217D01*
X53707Y-14187D01*
X53736Y-14161D01*
X53770Y-14142D01*
X53808Y-14130D01*
X53846Y-14126D01*
X53884Y-14129D01*
X53922Y-14139D01*
X53957Y-14157D01*
X53987Y-14181D01*
X54013Y-14210D01*
X54032Y-14244D01*
X54045Y-14281D01*
X54049Y-14320D01*
X54050Y-14325D01*
X53650Y-14125D02*
X54050Y-14525D01*
X54050Y-14125D02*
X53650Y-14525D01*
X56900Y-12575D02*
X56896Y-12613D01*
X56884Y-12651D01*
X56866Y-12685D01*
X56841Y-12715D01*
X56811Y-12740D01*
X56777Y-12759D01*
X56740Y-12770D01*
X56701Y-12774D01*
X56663Y-12771D01*
X56626Y-12760D01*
X56591Y-12742D01*
X56561Y-12717D01*
X56535Y-12687D01*
X56517Y-12653D01*
X56505Y-12616D01*
X56501Y-12577D01*
X56504Y-12539D01*
X56515Y-12502D01*
X56532Y-12467D01*
X56557Y-12437D01*
X56586Y-12411D01*
X56620Y-12392D01*
X56658Y-12380D01*
X56696Y-12376D01*
X56734Y-12379D01*
X56772Y-12389D01*
X56807Y-12407D01*
X56837Y-12431D01*
X56863Y-12460D01*
X56882Y-12494D01*
X56895Y-12531D01*
X56899Y-12570D01*
X56900Y-12575D01*
X56500Y-12375D02*
X56900Y-12775D01*
X56900Y-12375D02*
X56500Y-12775D01*
X56900Y-14325D02*
X56896Y-14363D01*
X56884Y-14401D01*
X56866Y-14435D01*
X56841Y-14465D01*
X56811Y-14490D01*
X56777Y-14509D01*
X56740Y-14520D01*
X56701Y-14524D01*
X56663Y-14521D01*
X56626Y-14510D01*
X56591Y-14492D01*
X56561Y-14467D01*
X56535Y-14437D01*
X56517Y-14403D01*
X56505Y-14366D01*
X56501Y-14327D01*
X56504Y-14289D01*
X56515Y-14252D01*
X56532Y-14217D01*
X56557Y-14187D01*
X56586Y-14161D01*
X56620Y-14142D01*
X56658Y-14130D01*
X56696Y-14126D01*
X56734Y-14129D01*
X56772Y-14139D01*
X56807Y-14157D01*
X56837Y-14181D01*
X56863Y-14210D01*
X56882Y-14244D01*
X56895Y-14281D01*
X56899Y-14320D01*
X56900Y-14325D01*
X56500Y-14125D02*
X56900Y-14525D01*
X56900Y-14125D02*
X56500Y-14525D01*
X59450Y-12575D02*
X59446Y-12613D01*
X59434Y-12651D01*
X59416Y-12685D01*
X59391Y-12715D01*
X59361Y-12740D01*
X59327Y-12759D01*
X59290Y-12770D01*
X59251Y-12774D01*
X59213Y-12771D01*
X59176Y-12760D01*
X59141Y-12742D01*
X59111Y-12717D01*
X59085Y-12687D01*
X59067Y-12653D01*
X59055Y-12616D01*
X59051Y-12577D01*
X59054Y-12539D01*
X59065Y-12502D01*
X59082Y-12467D01*
X59107Y-12437D01*
X59136Y-12411D01*
X59170Y-12392D01*
X59208Y-12380D01*
X59246Y-12376D01*
X59284Y-12379D01*
X59322Y-12389D01*
X59357Y-12407D01*
X59387Y-12431D01*
X59413Y-12460D01*
X59432Y-12494D01*
X59445Y-12531D01*
X59449Y-12570D01*
X59450Y-12575D01*
X59050Y-12375D02*
X59450Y-12775D01*
X59450Y-12375D02*
X59050Y-12775D01*
X59450Y-14325D02*
X59446Y-14363D01*
X59434Y-14401D01*
X59416Y-14435D01*
X59391Y-14465D01*
X59361Y-14490D01*
X59327Y-14509D01*
X59290Y-14520D01*
X59251Y-14524D01*
X59213Y-14521D01*
X59176Y-14510D01*
X59141Y-14492D01*
X59111Y-14467D01*
X59085Y-14437D01*
X59067Y-14403D01*
X59055Y-14366D01*
X59051Y-14327D01*
X59054Y-14289D01*
X59065Y-14252D01*
X59082Y-14217D01*
X59107Y-14187D01*
X59136Y-14161D01*
X59170Y-14142D01*
X59208Y-14130D01*
X59246Y-14126D01*
X59284Y-14129D01*
X59322Y-14139D01*
X59357Y-14157D01*
X59387Y-14181D01*
X59413Y-14210D01*
X59432Y-14244D01*
X59445Y-14281D01*
X59449Y-14320D01*
X59450Y-14325D01*
X59050Y-14125D02*
X59450Y-14525D01*
X59450Y-14125D02*
X59050Y-14525D01*
X61000Y-16200D02*
X60996Y-16238D01*
X60984Y-16276D01*
X60966Y-16310D01*
X60941Y-16340D01*
X60911Y-16365D01*
X60877Y-16384D01*
X60840Y-16395D01*
X60801Y-16399D01*
X60763Y-16396D01*
X60726Y-16385D01*
X60691Y-16367D01*
X60661Y-16342D01*
X60635Y-16312D01*
X60617Y-16278D01*
X60605Y-16241D01*
X60601Y-16202D01*
X60604Y-16164D01*
X60615Y-16127D01*
X60632Y-16092D01*
X60657Y-16062D01*
X60686Y-16036D01*
X60720Y-16017D01*
X60758Y-16005D01*
X60796Y-16001D01*
X60834Y-16004D01*
X60872Y-16014D01*
X60907Y-16032D01*
X60937Y-16056D01*
X60963Y-16085D01*
X60982Y-16119D01*
X60995Y-16156D01*
X60999Y-16195D01*
X61000Y-16200D01*
X60600Y-16000D02*
X61000Y-16400D01*
X61000Y-16000D02*
X60600Y-16400D01*
X61000Y-17200D02*
X60996Y-17238D01*
X60984Y-17276D01*
X60966Y-17310D01*
X60941Y-17340D01*
X60911Y-17365D01*
X60877Y-17384D01*
X60840Y-17395D01*
X60801Y-17399D01*
X60763Y-17396D01*
X60726Y-17385D01*
X60691Y-17367D01*
X60661Y-17342D01*
X60635Y-17312D01*
X60617Y-17278D01*
X60605Y-17241D01*
X60601Y-17202D01*
X60604Y-17164D01*
X60615Y-17127D01*
X60632Y-17092D01*
X60657Y-17062D01*
X60686Y-17036D01*
X60720Y-17017D01*
X60758Y-17005D01*
X60796Y-17001D01*
X60834Y-17004D01*
X60872Y-17014D01*
X60907Y-17032D01*
X60937Y-17056D01*
X60963Y-17085D01*
X60982Y-17119D01*
X60995Y-17156D01*
X60999Y-17195D01*
X61000Y-17200D01*
X60600Y-17000D02*
X61000Y-17400D01*
X61000Y-17000D02*
X60600Y-17400D01*
X61000Y-18200D02*
X60996Y-18238D01*
X60984Y-18276D01*
X60966Y-18310D01*
X60941Y-18340D01*
X60911Y-18365D01*
X60877Y-18384D01*
X60840Y-18395D01*
X60801Y-18399D01*
X60763Y-18396D01*
X60726Y-18385D01*
X60691Y-18367D01*
X60661Y-18342D01*
X60635Y-18312D01*
X60617Y-18278D01*
X60605Y-18241D01*
X60601Y-18202D01*
X60604Y-18164D01*
X60615Y-18127D01*
X60632Y-18092D01*
X60657Y-18062D01*
X60686Y-18036D01*
X60720Y-18017D01*
X60758Y-18005D01*
X60796Y-18001D01*
X60834Y-18004D01*
X60872Y-18014D01*
X60907Y-18032D01*
X60937Y-18056D01*
X60963Y-18085D01*
X60982Y-18119D01*
X60995Y-18156D01*
X60999Y-18195D01*
X61000Y-18200D01*
X60600Y-18000D02*
X61000Y-18400D01*
X61000Y-18000D02*
X60600Y-18400D01*
X61000Y-19200D02*
X60996Y-19238D01*
X60984Y-19276D01*
X60966Y-19310D01*
X60941Y-19340D01*
X60911Y-19365D01*
X60877Y-19384D01*
X60840Y-19395D01*
X60801Y-19399D01*
X60763Y-19396D01*
X60726Y-19385D01*
X60691Y-19367D01*
X60661Y-19342D01*
X60635Y-19312D01*
X60617Y-19278D01*
X60605Y-19241D01*
X60601Y-19202D01*
X60604Y-19164D01*
X60615Y-19127D01*
X60632Y-19092D01*
X60657Y-19062D01*
X60686Y-19036D01*
X60720Y-19017D01*
X60758Y-19005D01*
X60796Y-19001D01*
X60834Y-19004D01*
X60872Y-19014D01*
X60907Y-19032D01*
X60937Y-19056D01*
X60963Y-19085D01*
X60982Y-19119D01*
X60995Y-19156D01*
X60999Y-19195D01*
X61000Y-19200D01*
X60600Y-19000D02*
X61000Y-19400D01*
X61000Y-19000D02*
X60600Y-19400D01*
X62000Y-16200D02*
X61996Y-16238D01*
X61984Y-16276D01*
X61966Y-16310D01*
X61941Y-16340D01*
X61911Y-16365D01*
X61877Y-16384D01*
X61840Y-16395D01*
X61801Y-16399D01*
X61763Y-16396D01*
X61726Y-16385D01*
X61691Y-16367D01*
X61661Y-16342D01*
X61635Y-16312D01*
X61617Y-16278D01*
X61605Y-16241D01*
X61601Y-16202D01*
X61604Y-16164D01*
X61615Y-16127D01*
X61632Y-16092D01*
X61657Y-16062D01*
X61686Y-16036D01*
X61720Y-16017D01*
X61758Y-16005D01*
X61796Y-16001D01*
X61834Y-16004D01*
X61872Y-16014D01*
X61907Y-16032D01*
X61937Y-16056D01*
X61963Y-16085D01*
X61982Y-16119D01*
X61995Y-16156D01*
X61999Y-16195D01*
X62000Y-16200D01*
X61600Y-16000D02*
X62000Y-16400D01*
X62000Y-16000D02*
X61600Y-16400D01*
X62000Y-17200D02*
X61996Y-17238D01*
X61984Y-17276D01*
X61966Y-17310D01*
X61941Y-17340D01*
X61911Y-17365D01*
X61877Y-17384D01*
X61840Y-17395D01*
X61801Y-17399D01*
X61763Y-17396D01*
X61726Y-17385D01*
X61691Y-17367D01*
X61661Y-17342D01*
X61635Y-17312D01*
X61617Y-17278D01*
X61605Y-17241D01*
X61601Y-17202D01*
X61604Y-17164D01*
X61615Y-17127D01*
X61632Y-17092D01*
X61657Y-17062D01*
X61686Y-17036D01*
X61720Y-17017D01*
X61758Y-17005D01*
X61796Y-17001D01*
X61834Y-17004D01*
X61872Y-17014D01*
X61907Y-17032D01*
X61937Y-17056D01*
X61963Y-17085D01*
X61982Y-17119D01*
X61995Y-17156D01*
X61999Y-17195D01*
X62000Y-17200D01*
X61600Y-17000D02*
X62000Y-17400D01*
X62000Y-17000D02*
X61600Y-17400D01*
X62000Y-18200D02*
X61996Y-18238D01*
X61984Y-18276D01*
X61966Y-18310D01*
X61941Y-18340D01*
X61911Y-18365D01*
X61877Y-18384D01*
X61840Y-18395D01*
X61801Y-18399D01*
X61763Y-18396D01*
X61726Y-18385D01*
X61691Y-18367D01*
X61661Y-18342D01*
X61635Y-18312D01*
X61617Y-18278D01*
X61605Y-18241D01*
X61601Y-18202D01*
X61604Y-18164D01*
X61615Y-18127D01*
X61632Y-18092D01*
X61657Y-18062D01*
X61686Y-18036D01*
X61720Y-18017D01*
X61758Y-18005D01*
X61796Y-18001D01*
X61834Y-18004D01*
X61872Y-18014D01*
X61907Y-18032D01*
X61937Y-18056D01*
X61963Y-18085D01*
X61982Y-18119D01*
X61995Y-18156D01*
X61999Y-18195D01*
X62000Y-18200D01*
X61600Y-18000D02*
X62000Y-18400D01*
X62000Y-18000D02*
X61600Y-18400D01*
X62000Y-19200D02*
X61996Y-19238D01*
X61984Y-19276D01*
X61966Y-19310D01*
X61941Y-19340D01*
X61911Y-19365D01*
X61877Y-19384D01*
X61840Y-19395D01*
X61801Y-19399D01*
X61763Y-19396D01*
X61726Y-19385D01*
X61691Y-19367D01*
X61661Y-19342D01*
X61635Y-19312D01*
X61617Y-19278D01*
X61605Y-19241D01*
X61601Y-19202D01*
X61604Y-19164D01*
X61615Y-19127D01*
X61632Y-19092D01*
X61657Y-19062D01*
X61686Y-19036D01*
X61720Y-19017D01*
X61758Y-19005D01*
X61796Y-19001D01*
X61834Y-19004D01*
X61872Y-19014D01*
X61907Y-19032D01*
X61937Y-19056D01*
X61963Y-19085D01*
X61982Y-19119D01*
X61995Y-19156D01*
X61999Y-19195D01*
X62000Y-19200D01*
X61600Y-19000D02*
X62000Y-19400D01*
X62000Y-19000D02*
X61600Y-19400D01*
X62500Y-12575D02*
X62496Y-12613D01*
X62484Y-12651D01*
X62466Y-12685D01*
X62441Y-12715D01*
X62411Y-12740D01*
X62377Y-12759D01*
X62340Y-12770D01*
X62301Y-12774D01*
X62263Y-12771D01*
X62226Y-12760D01*
X62191Y-12742D01*
X62161Y-12717D01*
X62135Y-12687D01*
X62117Y-12653D01*
X62105Y-12616D01*
X62101Y-12577D01*
X62104Y-12539D01*
X62115Y-12502D01*
X62132Y-12467D01*
X62157Y-12437D01*
X62186Y-12411D01*
X62220Y-12392D01*
X62258Y-12380D01*
X62296Y-12376D01*
X62334Y-12379D01*
X62372Y-12389D01*
X62407Y-12407D01*
X62437Y-12431D01*
X62463Y-12460D01*
X62482Y-12494D01*
X62495Y-12531D01*
X62499Y-12570D01*
X62500Y-12575D01*
X62100Y-12375D02*
X62500Y-12775D01*
X62500Y-12375D02*
X62100Y-12775D01*
X62500Y-14325D02*
X62496Y-14363D01*
X62484Y-14401D01*
X62466Y-14435D01*
X62441Y-14465D01*
X62411Y-14490D01*
X62377Y-14509D01*
X62340Y-14520D01*
X62301Y-14524D01*
X62263Y-14521D01*
X62226Y-14510D01*
X62191Y-14492D01*
X62161Y-14467D01*
X62135Y-14437D01*
X62117Y-14403D01*
X62105Y-14366D01*
X62101Y-14327D01*
X62104Y-14289D01*
X62115Y-14252D01*
X62132Y-14217D01*
X62157Y-14187D01*
X62186Y-14161D01*
X62220Y-14142D01*
X62258Y-14130D01*
X62296Y-14126D01*
X62334Y-14129D01*
X62372Y-14139D01*
X62407Y-14157D01*
X62437Y-14181D01*
X62463Y-14210D01*
X62482Y-14244D01*
X62495Y-14281D01*
X62499Y-14320D01*
X62500Y-14325D01*
X62100Y-14125D02*
X62500Y-14525D01*
X62500Y-14125D02*
X62100Y-14525D01*
X63000Y-16200D02*
X62996Y-16238D01*
X62984Y-16276D01*
X62966Y-16310D01*
X62941Y-16340D01*
X62911Y-16365D01*
X62877Y-16384D01*
X62840Y-16395D01*
X62801Y-16399D01*
X62763Y-16396D01*
X62726Y-16385D01*
X62691Y-16367D01*
X62661Y-16342D01*
X62635Y-16312D01*
X62617Y-16278D01*
X62605Y-16241D01*
X62601Y-16202D01*
X62604Y-16164D01*
X62615Y-16127D01*
X62632Y-16092D01*
X62657Y-16062D01*
X62686Y-16036D01*
X62720Y-16017D01*
X62758Y-16005D01*
X62796Y-16001D01*
X62834Y-16004D01*
X62872Y-16014D01*
X62907Y-16032D01*
X62937Y-16056D01*
X62963Y-16085D01*
X62982Y-16119D01*
X62995Y-16156D01*
X62999Y-16195D01*
X63000Y-16200D01*
X62600Y-16000D02*
X63000Y-16400D01*
X63000Y-16000D02*
X62600Y-16400D01*
X63000Y-17200D02*
X62996Y-17238D01*
X62984Y-17276D01*
X62966Y-17310D01*
X62941Y-17340D01*
X62911Y-17365D01*
X62877Y-17384D01*
X62840Y-17395D01*
X62801Y-17399D01*
X62763Y-17396D01*
X62726Y-17385D01*
X62691Y-17367D01*
X62661Y-17342D01*
X62635Y-17312D01*
X62617Y-17278D01*
X62605Y-17241D01*
X62601Y-17202D01*
X62604Y-17164D01*
X62615Y-17127D01*
X62632Y-17092D01*
X62657Y-17062D01*
X62686Y-17036D01*
X62720Y-17017D01*
X62758Y-17005D01*
X62796Y-17001D01*
X62834Y-17004D01*
X62872Y-17014D01*
X62907Y-17032D01*
X62937Y-17056D01*
X62963Y-17085D01*
X62982Y-17119D01*
X62995Y-17156D01*
X62999Y-17195D01*
X63000Y-17200D01*
X62600Y-17000D02*
X63000Y-17400D01*
X63000Y-17000D02*
X62600Y-17400D01*
X63000Y-18200D02*
X62996Y-18238D01*
X62984Y-18276D01*
X62966Y-18310D01*
X62941Y-18340D01*
X62911Y-18365D01*
X62877Y-18384D01*
X62840Y-18395D01*
X62801Y-18399D01*
X62763Y-18396D01*
X62726Y-18385D01*
X62691Y-18367D01*
X62661Y-18342D01*
X62635Y-18312D01*
X62617Y-18278D01*
X62605Y-18241D01*
X62601Y-18202D01*
X62604Y-18164D01*
X62615Y-18127D01*
X62632Y-18092D01*
X62657Y-18062D01*
X62686Y-18036D01*
X62720Y-18017D01*
X62758Y-18005D01*
X62796Y-18001D01*
X62834Y-18004D01*
X62872Y-18014D01*
X62907Y-18032D01*
X62937Y-18056D01*
X62963Y-18085D01*
X62982Y-18119D01*
X62995Y-18156D01*
X62999Y-18195D01*
X63000Y-18200D01*
X62600Y-18000D02*
X63000Y-18400D01*
X63000Y-18000D02*
X62600Y-18400D01*
X63000Y-19200D02*
X62996Y-19238D01*
X62984Y-19276D01*
X62966Y-19310D01*
X62941Y-19340D01*
X62911Y-19365D01*
X62877Y-19384D01*
X62840Y-19395D01*
X62801Y-19399D01*
X62763Y-19396D01*
X62726Y-19385D01*
X62691Y-19367D01*
X62661Y-19342D01*
X62635Y-19312D01*
X62617Y-19278D01*
X62605Y-19241D01*
X62601Y-19202D01*
X62604Y-19164D01*
X62615Y-19127D01*
X62632Y-19092D01*
X62657Y-19062D01*
X62686Y-19036D01*
X62720Y-19017D01*
X62758Y-19005D01*
X62796Y-19001D01*
X62834Y-19004D01*
X62872Y-19014D01*
X62907Y-19032D01*
X62937Y-19056D01*
X62963Y-19085D01*
X62982Y-19119D01*
X62995Y-19156D01*
X62999Y-19195D01*
X63000Y-19200D01*
X62600Y-19000D02*
X63000Y-19400D01*
X63000Y-19000D02*
X62600Y-19400D01*
X64000Y-16200D02*
X63996Y-16238D01*
X63984Y-16276D01*
X63966Y-16310D01*
X63941Y-16340D01*
X63911Y-16365D01*
X63877Y-16384D01*
X63840Y-16395D01*
X63801Y-16399D01*
X63763Y-16396D01*
X63726Y-16385D01*
X63691Y-16367D01*
X63661Y-16342D01*
X63635Y-16312D01*
X63617Y-16278D01*
X63605Y-16241D01*
X63601Y-16202D01*
X63604Y-16164D01*
X63615Y-16127D01*
X63632Y-16092D01*
X63657Y-16062D01*
X63686Y-16036D01*
X63720Y-16017D01*
X63758Y-16005D01*
X63796Y-16001D01*
X63834Y-16004D01*
X63872Y-16014D01*
X63907Y-16032D01*
X63937Y-16056D01*
X63963Y-16085D01*
X63982Y-16119D01*
X63995Y-16156D01*
X63999Y-16195D01*
X64000Y-16200D01*
X63600Y-16000D02*
X64000Y-16400D01*
X64000Y-16000D02*
X63600Y-16400D01*
X64000Y-17200D02*
X63996Y-17238D01*
X63984Y-17276D01*
X63966Y-17310D01*
X63941Y-17340D01*
X63911Y-17365D01*
X63877Y-17384D01*
X63840Y-17395D01*
X63801Y-17399D01*
X63763Y-17396D01*
X63726Y-17385D01*
X63691Y-17367D01*
X63661Y-17342D01*
X63635Y-17312D01*
X63617Y-17278D01*
X63605Y-17241D01*
X63601Y-17202D01*
X63604Y-17164D01*
X63615Y-17127D01*
X63632Y-17092D01*
X63657Y-17062D01*
X63686Y-17036D01*
X63720Y-17017D01*
X63758Y-17005D01*
X63796Y-17001D01*
X63834Y-17004D01*
X63872Y-17014D01*
X63907Y-17032D01*
X63937Y-17056D01*
X63963Y-17085D01*
X63982Y-17119D01*
X63995Y-17156D01*
X63999Y-17195D01*
X64000Y-17200D01*
X63600Y-17000D02*
X64000Y-17400D01*
X64000Y-17000D02*
X63600Y-17400D01*
X64000Y-18200D02*
X63996Y-18238D01*
X63984Y-18276D01*
X63966Y-18310D01*
X63941Y-18340D01*
X63911Y-18365D01*
X63877Y-18384D01*
X63840Y-18395D01*
X63801Y-18399D01*
X63763Y-18396D01*
X63726Y-18385D01*
X63691Y-18367D01*
X63661Y-18342D01*
X63635Y-18312D01*
X63617Y-18278D01*
X63605Y-18241D01*
X63601Y-18202D01*
X63604Y-18164D01*
X63615Y-18127D01*
X63632Y-18092D01*
X63657Y-18062D01*
X63686Y-18036D01*
X63720Y-18017D01*
X63758Y-18005D01*
X63796Y-18001D01*
X63834Y-18004D01*
X63872Y-18014D01*
X63907Y-18032D01*
X63937Y-18056D01*
X63963Y-18085D01*
X63982Y-18119D01*
X63995Y-18156D01*
X63999Y-18195D01*
X64000Y-18200D01*
X63600Y-18000D02*
X64000Y-18400D01*
X64000Y-18000D02*
X63600Y-18400D01*
X64000Y-19200D02*
X63996Y-19238D01*
X63984Y-19276D01*
X63966Y-19310D01*
X63941Y-19340D01*
X63911Y-19365D01*
X63877Y-19384D01*
X63840Y-19395D01*
X63801Y-19399D01*
X63763Y-19396D01*
X63726Y-19385D01*
X63691Y-19367D01*
X63661Y-19342D01*
X63635Y-19312D01*
X63617Y-19278D01*
X63605Y-19241D01*
X63601Y-19202D01*
X63604Y-19164D01*
X63615Y-19127D01*
X63632Y-19092D01*
X63657Y-19062D01*
X63686Y-19036D01*
X63720Y-19017D01*
X63758Y-19005D01*
X63796Y-19001D01*
X63834Y-19004D01*
X63872Y-19014D01*
X63907Y-19032D01*
X63937Y-19056D01*
X63963Y-19085D01*
X63982Y-19119D01*
X63995Y-19156D01*
X63999Y-19195D01*
X64000Y-19200D01*
X63600Y-19000D02*
X64000Y-19400D01*
X64000Y-19000D02*
X63600Y-19400D01*
X65000Y-16200D02*
X64996Y-16238D01*
X64984Y-16276D01*
X64966Y-16310D01*
X64941Y-16340D01*
X64911Y-16365D01*
X64877Y-16384D01*
X64840Y-16395D01*
X64801Y-16399D01*
X64763Y-16396D01*
X64726Y-16385D01*
X64691Y-16367D01*
X64661Y-16342D01*
X64635Y-16312D01*
X64617Y-16278D01*
X64605Y-16241D01*
X64601Y-16202D01*
X64604Y-16164D01*
X64615Y-16127D01*
X64632Y-16092D01*
X64657Y-16062D01*
X64686Y-16036D01*
X64720Y-16017D01*
X64758Y-16005D01*
X64796Y-16001D01*
X64834Y-16004D01*
X64872Y-16014D01*
X64907Y-16032D01*
X64937Y-16056D01*
X64963Y-16085D01*
X64982Y-16119D01*
X64995Y-16156D01*
X64999Y-16195D01*
X65000Y-16200D01*
X64600Y-16000D02*
X65000Y-16400D01*
X65000Y-16000D02*
X64600Y-16400D01*
X65000Y-17200D02*
X64996Y-17238D01*
X64984Y-17276D01*
X64966Y-17310D01*
X64941Y-17340D01*
X64911Y-17365D01*
X64877Y-17384D01*
X64840Y-17395D01*
X64801Y-17399D01*
X64763Y-17396D01*
X64726Y-17385D01*
X64691Y-17367D01*
X64661Y-17342D01*
X64635Y-17312D01*
X64617Y-17278D01*
X64605Y-17241D01*
X64601Y-17202D01*
X64604Y-17164D01*
X64615Y-17127D01*
X64632Y-17092D01*
X64657Y-17062D01*
X64686Y-17036D01*
X64720Y-17017D01*
X64758Y-17005D01*
X64796Y-17001D01*
X64834Y-17004D01*
X64872Y-17014D01*
X64907Y-17032D01*
X64937Y-17056D01*
X64963Y-17085D01*
X64982Y-17119D01*
X64995Y-17156D01*
X64999Y-17195D01*
X65000Y-17200D01*
X64600Y-17000D02*
X65000Y-17400D01*
X65000Y-17000D02*
X64600Y-17400D01*
X65000Y-18200D02*
X64996Y-18238D01*
X64984Y-18276D01*
X64966Y-18310D01*
X64941Y-18340D01*
X64911Y-18365D01*
X64877Y-18384D01*
X64840Y-18395D01*
X64801Y-18399D01*
X64763Y-18396D01*
X64726Y-18385D01*
X64691Y-18367D01*
X64661Y-18342D01*
X64635Y-18312D01*
X64617Y-18278D01*
X64605Y-18241D01*
X64601Y-18202D01*
X64604Y-18164D01*
X64615Y-18127D01*
X64632Y-18092D01*
X64657Y-18062D01*
X64686Y-18036D01*
X64720Y-18017D01*
X64758Y-18005D01*
X64796Y-18001D01*
X64834Y-18004D01*
X64872Y-18014D01*
X64907Y-18032D01*
X64937Y-18056D01*
X64963Y-18085D01*
X64982Y-18119D01*
X64995Y-18156D01*
X64999Y-18195D01*
X65000Y-18200D01*
X64600Y-18000D02*
X65000Y-18400D01*
X65000Y-18000D02*
X64600Y-18400D01*
X65000Y-19200D02*
X64996Y-19238D01*
X64984Y-19276D01*
X64966Y-19310D01*
X64941Y-19340D01*
X64911Y-19365D01*
X64877Y-19384D01*
X64840Y-19395D01*
X64801Y-19399D01*
X64763Y-19396D01*
X64726Y-19385D01*
X64691Y-19367D01*
X64661Y-19342D01*
X64635Y-19312D01*
X64617Y-19278D01*
X64605Y-19241D01*
X64601Y-19202D01*
X64604Y-19164D01*
X64615Y-19127D01*
X64632Y-19092D01*
X64657Y-19062D01*
X64686Y-19036D01*
X64720Y-19017D01*
X64758Y-19005D01*
X64796Y-19001D01*
X64834Y-19004D01*
X64872Y-19014D01*
X64907Y-19032D01*
X64937Y-19056D01*
X64963Y-19085D01*
X64982Y-19119D01*
X64995Y-19156D01*
X64999Y-19195D01*
X65000Y-19200D01*
X64600Y-19000D02*
X65000Y-19400D01*
X65000Y-19000D02*
X64600Y-19400D01*
X65050Y-12575D02*
X65046Y-12613D01*
X65034Y-12651D01*
X65016Y-12685D01*
X64991Y-12715D01*
X64961Y-12740D01*
X64927Y-12759D01*
X64890Y-12770D01*
X64851Y-12774D01*
X64813Y-12771D01*
X64776Y-12760D01*
X64741Y-12742D01*
X64711Y-12717D01*
X64685Y-12687D01*
X64667Y-12653D01*
X64655Y-12616D01*
X64651Y-12577D01*
X64654Y-12539D01*
X64665Y-12502D01*
X64682Y-12467D01*
X64707Y-12437D01*
X64736Y-12411D01*
X64770Y-12392D01*
X64808Y-12380D01*
X64846Y-12376D01*
X64884Y-12379D01*
X64922Y-12389D01*
X64957Y-12407D01*
X64987Y-12431D01*
X65013Y-12460D01*
X65032Y-12494D01*
X65045Y-12531D01*
X65049Y-12570D01*
X65050Y-12575D01*
X64650Y-12375D02*
X65050Y-12775D01*
X65050Y-12375D02*
X64650Y-12775D01*
X65050Y-14325D02*
X65046Y-14363D01*
X65034Y-14401D01*
X65016Y-14435D01*
X64991Y-14465D01*
X64961Y-14490D01*
X64927Y-14509D01*
X64890Y-14520D01*
X64851Y-14524D01*
X64813Y-14521D01*
X64776Y-14510D01*
X64741Y-14492D01*
X64711Y-14467D01*
X64685Y-14437D01*
X64667Y-14403D01*
X64655Y-14366D01*
X64651Y-14327D01*
X64654Y-14289D01*
X64665Y-14252D01*
X64682Y-14217D01*
X64707Y-14187D01*
X64736Y-14161D01*
X64770Y-14142D01*
X64808Y-14130D01*
X64846Y-14126D01*
X64884Y-14129D01*
X64922Y-14139D01*
X64957Y-14157D01*
X64987Y-14181D01*
X65013Y-14210D01*
X65032Y-14244D01*
X65045Y-14281D01*
X65049Y-14320D01*
X65050Y-14325D01*
X64650Y-14125D02*
X65050Y-14525D01*
X65050Y-14125D02*
X64650Y-14525D01*
X66000Y-16200D02*
X65996Y-16238D01*
X65984Y-16276D01*
X65966Y-16310D01*
X65941Y-16340D01*
X65911Y-16365D01*
X65877Y-16384D01*
X65840Y-16395D01*
X65801Y-16399D01*
X65763Y-16396D01*
X65726Y-16385D01*
X65691Y-16367D01*
X65661Y-16342D01*
X65635Y-16312D01*
X65617Y-16278D01*
X65605Y-16241D01*
X65601Y-16202D01*
X65604Y-16164D01*
X65615Y-16127D01*
X65632Y-16092D01*
X65657Y-16062D01*
X65686Y-16036D01*
X65720Y-16017D01*
X65758Y-16005D01*
X65796Y-16001D01*
X65834Y-16004D01*
X65872Y-16014D01*
X65907Y-16032D01*
X65937Y-16056D01*
X65963Y-16085D01*
X65982Y-16119D01*
X65995Y-16156D01*
X65999Y-16195D01*
X66000Y-16200D01*
X65600Y-16000D02*
X66000Y-16400D01*
X66000Y-16000D02*
X65600Y-16400D01*
X66000Y-17200D02*
X65996Y-17238D01*
X65984Y-17276D01*
X65966Y-17310D01*
X65941Y-17340D01*
X65911Y-17365D01*
X65877Y-17384D01*
X65840Y-17395D01*
X65801Y-17399D01*
X65763Y-17396D01*
X65726Y-17385D01*
X65691Y-17367D01*
X65661Y-17342D01*
X65635Y-17312D01*
X65617Y-17278D01*
X65605Y-17241D01*
X65601Y-17202D01*
X65604Y-17164D01*
X65615Y-17127D01*
X65632Y-17092D01*
X65657Y-17062D01*
X65686Y-17036D01*
X65720Y-17017D01*
X65758Y-17005D01*
X65796Y-17001D01*
X65834Y-17004D01*
X65872Y-17014D01*
X65907Y-17032D01*
X65937Y-17056D01*
X65963Y-17085D01*
X65982Y-17119D01*
X65995Y-17156D01*
X65999Y-17195D01*
X66000Y-17200D01*
X65600Y-17000D02*
X66000Y-17400D01*
X66000Y-17000D02*
X65600Y-17400D01*
X66000Y-18200D02*
X65996Y-18238D01*
X65984Y-18276D01*
X65966Y-18310D01*
X65941Y-18340D01*
X65911Y-18365D01*
X65877Y-18384D01*
X65840Y-18395D01*
X65801Y-18399D01*
X65763Y-18396D01*
X65726Y-18385D01*
X65691Y-18367D01*
X65661Y-18342D01*
X65635Y-18312D01*
X65617Y-18278D01*
X65605Y-18241D01*
X65601Y-18202D01*
X65604Y-18164D01*
X65615Y-18127D01*
X65632Y-18092D01*
X65657Y-18062D01*
X65686Y-18036D01*
X65720Y-18017D01*
X65758Y-18005D01*
X65796Y-18001D01*
X65834Y-18004D01*
X65872Y-18014D01*
X65907Y-18032D01*
X65937Y-18056D01*
X65963Y-18085D01*
X65982Y-18119D01*
X65995Y-18156D01*
X65999Y-18195D01*
X66000Y-18200D01*
X65600Y-18000D02*
X66000Y-18400D01*
X66000Y-18000D02*
X65600Y-18400D01*
X66000Y-19200D02*
X65996Y-19238D01*
X65984Y-19276D01*
X65966Y-19310D01*
X65941Y-19340D01*
X65911Y-19365D01*
X65877Y-19384D01*
X65840Y-19395D01*
X65801Y-19399D01*
X65763Y-19396D01*
X65726Y-19385D01*
X65691Y-19367D01*
X65661Y-19342D01*
X65635Y-19312D01*
X65617Y-19278D01*
X65605Y-19241D01*
X65601Y-19202D01*
X65604Y-19164D01*
X65615Y-19127D01*
X65632Y-19092D01*
X65657Y-19062D01*
X65686Y-19036D01*
X65720Y-19017D01*
X65758Y-19005D01*
X65796Y-19001D01*
X65834Y-19004D01*
X65872Y-19014D01*
X65907Y-19032D01*
X65937Y-19056D01*
X65963Y-19085D01*
X65982Y-19119D01*
X65995Y-19156D01*
X65999Y-19195D01*
X66000Y-19200D01*
X65600Y-19000D02*
X66000Y-19400D01*
X66000Y-19000D02*
X65600Y-19400D01*
X104200Y-15100D02*
X104196Y-15138D01*
X104184Y-15176D01*
X104166Y-15210D01*
X104141Y-15240D01*
X104111Y-15265D01*
X104077Y-15284D01*
X104040Y-15295D01*
X104001Y-15299D01*
X103963Y-15296D01*
X103926Y-15285D01*
X103891Y-15267D01*
X103861Y-15242D01*
X103835Y-15212D01*
X103817Y-15178D01*
X103805Y-15141D01*
X103801Y-15102D01*
X103804Y-15064D01*
X103815Y-15027D01*
X103832Y-14992D01*
X103857Y-14962D01*
X103886Y-14936D01*
X103920Y-14917D01*
X103958Y-14905D01*
X103996Y-14901D01*
X104034Y-14904D01*
X104072Y-14914D01*
X104107Y-14932D01*
X104137Y-14956D01*
X104163Y-14985D01*
X104182Y-15019D01*
X104195Y-15056D01*
X104199Y-15095D01*
X104200Y-15100D01*
X103800Y-14900D02*
X104200Y-15300D01*
X104200Y-14900D02*
X103800Y-15300D01*
X104200Y-16100D02*
X104196Y-16138D01*
X104184Y-16176D01*
X104166Y-16210D01*
X104141Y-16240D01*
X104111Y-16265D01*
X104077Y-16284D01*
X104040Y-16295D01*
X104001Y-16299D01*
X103963Y-16296D01*
X103926Y-16285D01*
X103891Y-16267D01*
X103861Y-16242D01*
X103835Y-16212D01*
X103817Y-16178D01*
X103805Y-16141D01*
X103801Y-16102D01*
X103804Y-16064D01*
X103815Y-16027D01*
X103832Y-15992D01*
X103857Y-15962D01*
X103886Y-15936D01*
X103920Y-15917D01*
X103958Y-15905D01*
X103996Y-15901D01*
X104034Y-15904D01*
X104072Y-15914D01*
X104107Y-15932D01*
X104137Y-15956D01*
X104163Y-15985D01*
X104182Y-16019D01*
X104195Y-16056D01*
X104199Y-16095D01*
X104200Y-16100D01*
X103800Y-15900D02*
X104200Y-16300D01*
X104200Y-15900D02*
X103800Y-16300D01*
X104200Y-17100D02*
X104196Y-17138D01*
X104184Y-17176D01*
X104166Y-17210D01*
X104141Y-17240D01*
X104111Y-17265D01*
X104077Y-17284D01*
X104040Y-17295D01*
X104001Y-17299D01*
X103963Y-17296D01*
X103926Y-17285D01*
X103891Y-17267D01*
X103861Y-17242D01*
X103835Y-17212D01*
X103817Y-17178D01*
X103805Y-17141D01*
X103801Y-17102D01*
X103804Y-17064D01*
X103815Y-17027D01*
X103832Y-16992D01*
X103857Y-16962D01*
X103886Y-16936D01*
X103920Y-16917D01*
X103958Y-16905D01*
X103996Y-16901D01*
X104034Y-16904D01*
X104072Y-16914D01*
X104107Y-16932D01*
X104137Y-16956D01*
X104163Y-16985D01*
X104182Y-17019D01*
X104195Y-17056D01*
X104199Y-17095D01*
X104200Y-17100D01*
X103800Y-16900D02*
X104200Y-17300D01*
X104200Y-16900D02*
X103800Y-17300D01*
X104200Y-18100D02*
X104196Y-18138D01*
X104184Y-18176D01*
X104166Y-18210D01*
X104141Y-18240D01*
X104111Y-18265D01*
X104077Y-18284D01*
X104040Y-18295D01*
X104001Y-18299D01*
X103963Y-18296D01*
X103926Y-18285D01*
X103891Y-18267D01*
X103861Y-18242D01*
X103835Y-18212D01*
X103817Y-18178D01*
X103805Y-18141D01*
X103801Y-18102D01*
X103804Y-18064D01*
X103815Y-18027D01*
X103832Y-17992D01*
X103857Y-17962D01*
X103886Y-17936D01*
X103920Y-17917D01*
X103958Y-17905D01*
X103996Y-17901D01*
X104034Y-17904D01*
X104072Y-17914D01*
X104107Y-17932D01*
X104137Y-17956D01*
X104163Y-17985D01*
X104182Y-18019D01*
X104195Y-18056D01*
X104199Y-18095D01*
X104200Y-18100D01*
X103800Y-17900D02*
X104200Y-18300D01*
X104200Y-17900D02*
X103800Y-18300D01*
X104200Y-19100D02*
X104196Y-19138D01*
X104184Y-19176D01*
X104166Y-19210D01*
X104141Y-19240D01*
X104111Y-19265D01*
X104077Y-19284D01*
X104040Y-19295D01*
X104001Y-19299D01*
X103963Y-19296D01*
X103926Y-19285D01*
X103891Y-19267D01*
X103861Y-19242D01*
X103835Y-19212D01*
X103817Y-19178D01*
X103805Y-19141D01*
X103801Y-19102D01*
X103804Y-19064D01*
X103815Y-19027D01*
X103832Y-18992D01*
X103857Y-18962D01*
X103886Y-18936D01*
X103920Y-18917D01*
X103958Y-18905D01*
X103996Y-18901D01*
X104034Y-18904D01*
X104072Y-18914D01*
X104107Y-18932D01*
X104137Y-18956D01*
X104163Y-18985D01*
X104182Y-19019D01*
X104195Y-19056D01*
X104199Y-19095D01*
X104200Y-19100D01*
X103800Y-18900D02*
X104200Y-19300D01*
X104200Y-18900D02*
X103800Y-19300D01*
X104200Y-20100D02*
X104196Y-20138D01*
X104184Y-20176D01*
X104166Y-20210D01*
X104141Y-20240D01*
X104111Y-20265D01*
X104077Y-20284D01*
X104040Y-20295D01*
X104001Y-20299D01*
X103963Y-20296D01*
X103926Y-20285D01*
X103891Y-20267D01*
X103861Y-20242D01*
X103835Y-20212D01*
X103817Y-20178D01*
X103805Y-20141D01*
X103801Y-20102D01*
X103804Y-20064D01*
X103815Y-20027D01*
X103832Y-19992D01*
X103857Y-19962D01*
X103886Y-19936D01*
X103920Y-19917D01*
X103958Y-19905D01*
X103996Y-19901D01*
X104034Y-19904D01*
X104072Y-19914D01*
X104107Y-19932D01*
X104137Y-19956D01*
X104163Y-19985D01*
X104182Y-20019D01*
X104195Y-20056D01*
X104199Y-20095D01*
X104200Y-20100D01*
X103800Y-19900D02*
X104200Y-20300D01*
X104200Y-19900D02*
X103800Y-20300D01*
X61350Y-21800D02*
X61345Y-21848D01*
X61331Y-21895D01*
X61308Y-21938D01*
X61277Y-21976D01*
X61239Y-22007D01*
X61196Y-22030D01*
X61150Y-22044D01*
X61101Y-22049D01*
X61054Y-22045D01*
X61007Y-22031D01*
X60964Y-22009D01*
X60926Y-21978D01*
X60894Y-21941D01*
X60871Y-21898D01*
X60856Y-21851D01*
X60851Y-21803D01*
X60855Y-21755D01*
X60868Y-21708D01*
X60890Y-21665D01*
X60921Y-21627D01*
X60958Y-21595D01*
X61000Y-21571D01*
X61047Y-21556D01*
X61095Y-21551D01*
X61143Y-21554D01*
X61190Y-21567D01*
X61233Y-21589D01*
X61272Y-21619D01*
X61304Y-21656D01*
X61328Y-21699D01*
X61343Y-21745D01*
X61349Y-21794D01*
X61350Y-21800D01*
X60850Y-21800D02*
X61350Y-21800D01*
X65350Y-20800D02*
X65345Y-20848D01*
X65331Y-20895D01*
X65308Y-20938D01*
X65277Y-20976D01*
X65239Y-21007D01*
X65196Y-21030D01*
X65150Y-21044D01*
X65101Y-21049D01*
X65054Y-21045D01*
X65007Y-21031D01*
X64964Y-21009D01*
X64926Y-20978D01*
X64894Y-20941D01*
X64871Y-20898D01*
X64856Y-20851D01*
X64851Y-20803D01*
X64855Y-20755D01*
X64868Y-20708D01*
X64890Y-20665D01*
X64921Y-20627D01*
X64958Y-20595D01*
X65000Y-20571D01*
X65047Y-20556D01*
X65095Y-20551D01*
X65143Y-20554D01*
X65190Y-20567D01*
X65233Y-20589D01*
X65272Y-20619D01*
X65304Y-20656D01*
X65328Y-20699D01*
X65343Y-20745D01*
X65349Y-20794D01*
X65350Y-20800D01*
X64850Y-20800D02*
X65350Y-20800D01*
X65350Y-22800D02*
X65345Y-22848D01*
X65331Y-22895D01*
X65308Y-22938D01*
X65277Y-22976D01*
X65239Y-23007D01*
X65196Y-23030D01*
X65150Y-23044D01*
X65101Y-23049D01*
X65054Y-23045D01*
X65007Y-23031D01*
X64964Y-23009D01*
X64926Y-22978D01*
X64894Y-22941D01*
X64871Y-22898D01*
X64856Y-22851D01*
X64851Y-22803D01*
X64855Y-22755D01*
X64868Y-22708D01*
X64890Y-22665D01*
X64921Y-22627D01*
X64958Y-22595D01*
X65000Y-22571D01*
X65047Y-22556D01*
X65095Y-22551D01*
X65143Y-22554D01*
X65190Y-22567D01*
X65233Y-22589D01*
X65272Y-22619D01*
X65304Y-22656D01*
X65328Y-22699D01*
X65343Y-22745D01*
X65349Y-22794D01*
X65350Y-22800D01*
X64850Y-22800D02*
X65350Y-22800D01*
X13100Y-13000D02*
X13088Y-13116D01*
X13054Y-13228D01*
X12999Y-13332D01*
X12925Y-13422D01*
X12835Y-13497D01*
X12732Y-13553D01*
X12620Y-13587D01*
X12504Y-13599D01*
X12388Y-13589D01*
X12276Y-13556D01*
X12172Y-13502D01*
X12081Y-13428D01*
X12005Y-13338D01*
X11949Y-13236D01*
X11914Y-13124D01*
X11901Y-13008D01*
X11910Y-12892D01*
X11943Y-12780D01*
X11996Y-12675D01*
X12069Y-12584D01*
X12158Y-12508D01*
X12260Y-12451D01*
X12372Y-12414D01*
X12488Y-12401D01*
X12604Y-12410D01*
X12716Y-12441D01*
X12821Y-12494D01*
X12913Y-12566D01*
X12990Y-12655D01*
X13048Y-12756D01*
X13085Y-12868D01*
X13099Y-12984D01*
X13100Y-13000D01*
X12500Y-12400D02*
X12500Y-13600D01*
X13100Y-22500D02*
X13088Y-22616D01*
X13054Y-22728D01*
X12999Y-22832D01*
X12925Y-22922D01*
X12835Y-22997D01*
X12732Y-23053D01*
X12620Y-23087D01*
X12504Y-23099D01*
X12388Y-23089D01*
X12276Y-23056D01*
X12172Y-23002D01*
X12081Y-22928D01*
X12005Y-22838D01*
X11949Y-22736D01*
X11914Y-22624D01*
X11901Y-22508D01*
X11910Y-22392D01*
X11943Y-22280D01*
X11996Y-22175D01*
X12069Y-22084D01*
X12158Y-22008D01*
X12260Y-21951D01*
X12372Y-21914D01*
X12488Y-21901D01*
X12604Y-21910D01*
X12716Y-21941D01*
X12821Y-21994D01*
X12913Y-22066D01*
X12990Y-22155D01*
X13048Y-22256D01*
X13085Y-22368D01*
X13099Y-22484D01*
X13100Y-22500D01*
X12500Y-21900D02*
X12500Y-23100D01*
X45100Y-13000D02*
X45088Y-13116D01*
X45054Y-13228D01*
X44999Y-13332D01*
X44925Y-13422D01*
X44835Y-13497D01*
X44732Y-13553D01*
X44620Y-13587D01*
X44504Y-13599D01*
X44388Y-13589D01*
X44276Y-13556D01*
X44172Y-13502D01*
X44081Y-13428D01*
X44005Y-13338D01*
X43949Y-13236D01*
X43914Y-13124D01*
X43901Y-13008D01*
X43910Y-12892D01*
X43943Y-12780D01*
X43996Y-12675D01*
X44069Y-12584D01*
X44158Y-12508D01*
X44260Y-12451D01*
X44372Y-12414D01*
X44488Y-12401D01*
X44604Y-12410D01*
X44716Y-12441D01*
X44821Y-12494D01*
X44913Y-12566D01*
X44990Y-12655D01*
X45048Y-12756D01*
X45085Y-12868D01*
X45099Y-12984D01*
X45100Y-13000D01*
X44500Y-12400D02*
X44500Y-13600D01*
X45100Y-22500D02*
X45088Y-22616D01*
X45054Y-22728D01*
X44999Y-22832D01*
X44925Y-22922D01*
X44835Y-22997D01*
X44732Y-23053D01*
X44620Y-23087D01*
X44504Y-23099D01*
X44388Y-23089D01*
X44276Y-23056D01*
X44172Y-23002D01*
X44081Y-22928D01*
X44005Y-22838D01*
X43949Y-22736D01*
X43914Y-22624D01*
X43901Y-22508D01*
X43910Y-22392D01*
X43943Y-22280D01*
X43996Y-22175D01*
X44069Y-22084D01*
X44158Y-22008D01*
X44260Y-21951D01*
X44372Y-21914D01*
X44488Y-21901D01*
X44604Y-21910D01*
X44716Y-21941D01*
X44821Y-21994D01*
X44913Y-22066D01*
X44990Y-22155D01*
X45048Y-22256D01*
X45085Y-22368D01*
X45099Y-22484D01*
X45100Y-22500D01*
X44500Y-21900D02*
X44500Y-23100D01*
X72100Y-13000D02*
X72088Y-13116D01*
X72054Y-13228D01*
X71999Y-13332D01*
X71925Y-13422D01*
X71835Y-13497D01*
X71732Y-13553D01*
X71620Y-13587D01*
X71504Y-13599D01*
X71388Y-13589D01*
X71276Y-13556D01*
X71172Y-13502D01*
X71081Y-13428D01*
X71005Y-13338D01*
X70949Y-13236D01*
X70914Y-13124D01*
X70901Y-13008D01*
X70910Y-12892D01*
X70943Y-12780D01*
X70996Y-12675D01*
X71069Y-12584D01*
X71158Y-12508D01*
X71260Y-12451D01*
X71372Y-12414D01*
X71488Y-12401D01*
X71604Y-12410D01*
X71716Y-12441D01*
X71821Y-12494D01*
X71913Y-12566D01*
X71990Y-12655D01*
X72048Y-12756D01*
X72085Y-12868D01*
X72099Y-12984D01*
X72100Y-13000D01*
X71500Y-12400D02*
X71500Y-13600D01*
X72100Y-22500D02*
X72088Y-22616D01*
X72054Y-22728D01*
X71999Y-22832D01*
X71925Y-22922D01*
X71835Y-22997D01*
X71732Y-23053D01*
X71620Y-23087D01*
X71504Y-23099D01*
X71388Y-23089D01*
X71276Y-23056D01*
X71172Y-23002D01*
X71081Y-22928D01*
X71005Y-22838D01*
X70949Y-22736D01*
X70914Y-22624D01*
X70901Y-22508D01*
X70910Y-22392D01*
X70943Y-22280D01*
X70996Y-22175D01*
X71069Y-22084D01*
X71158Y-22008D01*
X71260Y-21951D01*
X71372Y-21914D01*
X71488Y-21901D01*
X71604Y-21910D01*
X71716Y-21941D01*
X71821Y-21994D01*
X71913Y-22066D01*
X71990Y-22155D01*
X72048Y-22256D01*
X72085Y-22368D01*
X72099Y-22484D01*
X72100Y-22500D01*
X71500Y-21900D02*
X71500Y-23100D01*
X104100Y-13000D02*
X104088Y-13116D01*
X104054Y-13228D01*
X103999Y-13332D01*
X103925Y-13422D01*
X103835Y-13497D01*
X103732Y-13553D01*
X103620Y-13587D01*
X103504Y-13599D01*
X103388Y-13589D01*
X103276Y-13556D01*
X103172Y-13502D01*
X103081Y-13428D01*
X103005Y-13338D01*
X102949Y-13236D01*
X102914Y-13124D01*
X102901Y-13008D01*
X102910Y-12892D01*
X102943Y-12780D01*
X102996Y-12675D01*
X103069Y-12584D01*
X103158Y-12508D01*
X103260Y-12451D01*
X103372Y-12414D01*
X103488Y-12401D01*
X103604Y-12410D01*
X103716Y-12441D01*
X103821Y-12494D01*
X103913Y-12566D01*
X103990Y-12655D01*
X104048Y-12756D01*
X104085Y-12868D01*
X104099Y-12984D01*
X104100Y-13000D01*
X103500Y-12400D02*
X103500Y-13600D01*
X104100Y-22500D02*
X104088Y-22616D01*
X104054Y-22728D01*
X103999Y-22832D01*
X103925Y-22922D01*
X103835Y-22997D01*
X103732Y-23053D01*
X103620Y-23087D01*
X103504Y-23099D01*
X103388Y-23089D01*
X103276Y-23056D01*
X103172Y-23002D01*
X103081Y-22928D01*
X103005Y-22838D01*
X102949Y-22736D01*
X102914Y-22624D01*
X102901Y-22508D01*
X102910Y-22392D01*
X102943Y-22280D01*
X102996Y-22175D01*
X103069Y-22084D01*
X103158Y-22008D01*
X103260Y-21951D01*
X103372Y-21914D01*
X103488Y-21901D01*
X103604Y-21910D01*
X103716Y-21941D01*
X103821Y-21994D01*
X103913Y-22066D01*
X103990Y-22155D01*
X104048Y-22256D01*
X104085Y-22368D01*
X104099Y-22484D01*
X104100Y-22500D01*
X103500Y-21900D02*
X103500Y-23100D01*
G54D12*
X11200Y-25419D02*
X11200Y-24619D01*
X11391Y-24619D01*
X11505Y-24657D01*
X11581Y-24733D01*
X11620Y-24809D01*
X11658Y-24962D01*
X11658Y-25076D01*
X11620Y-25228D01*
X11581Y-25305D01*
X11505Y-25381D01*
X11391Y-25419D01*
X11200Y-25419D01*
X12000Y-25419D02*
X12000Y-24885D01*
X12000Y-25038D02*
X12039Y-24962D01*
X12077Y-24924D01*
X12153Y-24885D01*
X12229Y-24885D01*
X12495Y-25419D02*
X12495Y-24885D01*
X12495Y-24619D02*
X12457Y-24657D01*
X12495Y-24695D01*
X12534Y-24657D01*
X12495Y-24619D01*
X12495Y-24695D01*
X12991Y-25419D02*
X12915Y-25381D01*
X12876Y-25305D01*
X12876Y-24619D01*
X13410Y-25419D02*
X13334Y-25381D01*
X13295Y-25305D01*
X13295Y-24619D01*
X14324Y-25419D02*
X14324Y-24619D01*
X14591Y-25190D01*
X14858Y-24619D01*
X14858Y-25419D01*
X15581Y-25419D02*
X15581Y-25000D01*
X15543Y-24924D01*
X15467Y-24885D01*
X15315Y-24885D01*
X15238Y-24924D01*
X15581Y-25381D02*
X15505Y-25419D01*
X15315Y-25419D01*
X15238Y-25381D01*
X15200Y-25305D01*
X15200Y-25228D01*
X15238Y-25152D01*
X15315Y-25114D01*
X15505Y-25114D01*
X15581Y-25076D01*
X15962Y-24885D02*
X15962Y-25685D01*
X15962Y-24924D02*
X16039Y-24885D01*
X16191Y-24885D01*
X16267Y-24924D01*
X16305Y-24962D01*
X16343Y-25038D01*
X16343Y-25266D01*
X16305Y-25343D01*
X16267Y-25381D01*
X16191Y-25419D01*
X16039Y-25419D01*
X15962Y-25381D01*
X16686Y-25343D02*
X16725Y-25381D01*
X16686Y-25419D01*
X16648Y-25381D01*
X16686Y-25343D01*
X16686Y-25419D01*
X16686Y-24924D02*
X16725Y-24962D01*
X16686Y-25000D01*
X16648Y-24962D01*
X16686Y-24924D01*
X16686Y-25000D01*
X10560Y-26650D02*
X10810Y-26900D01*
X10810Y-26650D02*
X10560Y-26900D01*
X11353Y-26299D02*
X11429Y-26299D01*
X11505Y-26337D01*
X11543Y-26375D01*
X11581Y-26451D01*
X11620Y-26604D01*
X11620Y-26794D01*
X11581Y-26946D01*
X11543Y-27023D01*
X11505Y-27061D01*
X11429Y-27099D01*
X11353Y-27099D01*
X11277Y-27061D01*
X11239Y-27023D01*
X11200Y-26946D01*
X11162Y-26794D01*
X11162Y-26604D01*
X11200Y-26451D01*
X11239Y-26375D01*
X11277Y-26337D01*
X11353Y-26299D01*
X11962Y-27023D02*
X12001Y-27061D01*
X11962Y-27099D01*
X11924Y-27061D01*
X11962Y-27023D01*
X11962Y-27099D01*
X12496Y-26299D02*
X12572Y-26299D01*
X12648Y-26337D01*
X12686Y-26375D01*
X12724Y-26451D01*
X12763Y-26604D01*
X12763Y-26794D01*
X12724Y-26946D01*
X12686Y-27023D01*
X12648Y-27061D01*
X12572Y-27099D01*
X12496Y-27099D01*
X12420Y-27061D01*
X12382Y-27023D01*
X12343Y-26946D01*
X12305Y-26794D01*
X12305Y-26604D01*
X12343Y-26451D01*
X12382Y-26375D01*
X12420Y-26337D01*
X12496Y-26299D01*
X13067Y-26375D02*
X13105Y-26337D01*
X13182Y-26299D01*
X13372Y-26299D01*
X13448Y-26337D01*
X13486Y-26375D01*
X13525Y-26451D01*
X13525Y-26527D01*
X13486Y-26642D01*
X13029Y-27099D01*
X13525Y-27099D01*
X14248Y-26299D02*
X13867Y-26299D01*
X13829Y-26680D01*
X13867Y-26642D01*
X13944Y-26604D01*
X14134Y-26604D01*
X14210Y-26642D01*
X14248Y-26680D01*
X14287Y-26756D01*
X14287Y-26946D01*
X14248Y-27023D01*
X14210Y-27061D01*
X14134Y-27099D01*
X13944Y-27099D01*
X13867Y-27061D01*
X13829Y-27023D01*
X14591Y-26299D02*
X14591Y-26451D01*
X14896Y-26299D02*
X14896Y-26451D01*
X16421Y-26261D02*
X15735Y-27289D01*
X17450Y-26299D02*
X17526Y-26299D01*
X17602Y-26337D01*
X17640Y-26375D01*
X17678Y-26451D01*
X17717Y-26604D01*
X17717Y-26794D01*
X17678Y-26946D01*
X17640Y-27023D01*
X17602Y-27061D01*
X17526Y-27099D01*
X17450Y-27099D01*
X17374Y-27061D01*
X17336Y-27023D01*
X17297Y-26946D01*
X17259Y-26794D01*
X17259Y-26604D01*
X17297Y-26451D01*
X17336Y-26375D01*
X17374Y-26337D01*
X17450Y-26299D01*
X18059Y-27023D02*
X18098Y-27061D01*
X18059Y-27099D01*
X18021Y-27061D01*
X18059Y-27023D01*
X18059Y-27099D01*
X18783Y-26299D02*
X18631Y-26299D01*
X18555Y-26337D01*
X18517Y-26375D01*
X18440Y-26489D01*
X18402Y-26642D01*
X18402Y-26946D01*
X18440Y-27023D01*
X18479Y-27061D01*
X18555Y-27099D01*
X18707Y-27099D01*
X18783Y-27061D01*
X18821Y-27023D01*
X18860Y-26946D01*
X18860Y-26756D01*
X18821Y-26680D01*
X18783Y-26642D01*
X18707Y-26604D01*
X18555Y-26604D01*
X18479Y-26642D01*
X18440Y-26680D01*
X18402Y-26756D01*
X19545Y-26565D02*
X19545Y-27099D01*
X19355Y-26261D02*
X19164Y-26832D01*
X19660Y-26832D01*
X19964Y-27099D02*
X19964Y-26565D01*
X19964Y-26642D02*
X20003Y-26604D01*
X20079Y-26565D01*
X20193Y-26565D01*
X20269Y-26604D01*
X20307Y-26680D01*
X20307Y-27099D01*
X20307Y-26680D02*
X20345Y-26604D01*
X20422Y-26565D01*
X20536Y-26565D01*
X20612Y-26604D01*
X20650Y-26680D01*
X20650Y-27099D01*
X21031Y-27099D02*
X21031Y-26565D01*
X21031Y-26642D02*
X21070Y-26604D01*
X21146Y-26565D01*
X21260Y-26565D01*
X21336Y-26604D01*
X21374Y-26680D01*
X21374Y-27099D01*
X21374Y-26680D02*
X21412Y-26604D01*
X21489Y-26565D01*
X21603Y-26565D01*
X21679Y-26604D01*
X21717Y-26680D01*
X21717Y-27099D01*
X22937Y-27404D02*
X22899Y-27365D01*
X22823Y-27251D01*
X22785Y-27175D01*
X22747Y-27061D01*
X22708Y-26870D01*
X22708Y-26718D01*
X22747Y-26527D01*
X22785Y-26413D01*
X22823Y-26337D01*
X22899Y-26223D01*
X22937Y-26185D01*
X23584Y-26565D02*
X23584Y-27099D01*
X23394Y-26261D02*
X23203Y-26832D01*
X23699Y-26832D01*
X24156Y-26299D02*
X24232Y-26299D01*
X24308Y-26337D01*
X24346Y-26375D01*
X24384Y-26451D01*
X24423Y-26604D01*
X24423Y-26794D01*
X24384Y-26946D01*
X24346Y-27023D01*
X24308Y-27061D01*
X24232Y-27099D01*
X24156Y-27099D01*
X24080Y-27061D01*
X24042Y-27023D01*
X24003Y-26946D01*
X23965Y-26794D01*
X23965Y-26604D01*
X24003Y-26451D01*
X24042Y-26375D01*
X24080Y-26337D01*
X24156Y-26299D01*
X25375Y-27099D02*
X25375Y-26299D01*
X25718Y-27099D02*
X25718Y-26680D01*
X25680Y-26604D01*
X25604Y-26565D01*
X25490Y-26565D01*
X25414Y-26604D01*
X25375Y-26642D01*
X26214Y-27099D02*
X26138Y-27061D01*
X26099Y-27023D01*
X26061Y-26946D01*
X26061Y-26718D01*
X26099Y-26642D01*
X26138Y-26604D01*
X26214Y-26565D01*
X26328Y-26565D01*
X26404Y-26604D01*
X26442Y-26642D01*
X26480Y-26718D01*
X26480Y-26946D01*
X26442Y-27023D01*
X26404Y-27061D01*
X26328Y-27099D01*
X26214Y-27099D01*
X26938Y-27099D02*
X26862Y-27061D01*
X26823Y-26985D01*
X26823Y-26299D01*
X27547Y-27061D02*
X27471Y-27099D01*
X27319Y-27099D01*
X27242Y-27061D01*
X27204Y-26985D01*
X27204Y-26680D01*
X27242Y-26604D01*
X27319Y-26565D01*
X27471Y-26565D01*
X27547Y-26604D01*
X27585Y-26680D01*
X27585Y-26756D01*
X27204Y-26832D01*
X27890Y-27061D02*
X27967Y-27099D01*
X28119Y-27099D01*
X28195Y-27061D01*
X28233Y-26985D01*
X28233Y-26946D01*
X28195Y-26870D01*
X28119Y-26832D01*
X28005Y-26832D01*
X27928Y-26794D01*
X27890Y-26718D01*
X27890Y-26680D01*
X27928Y-26604D01*
X28005Y-26565D01*
X28119Y-26565D01*
X28195Y-26604D01*
X28500Y-27404D02*
X28538Y-27365D01*
X28615Y-27251D01*
X28653Y-27175D01*
X28691Y-27061D01*
X28729Y-26870D01*
X28729Y-26718D01*
X28691Y-26527D01*
X28653Y-26413D01*
X28615Y-26337D01*
X28538Y-26223D01*
X28500Y-26185D01*
G54D10*
X10810Y-27830D02*
X10806Y-27861D01*
X10797Y-27890D01*
X10783Y-27918D01*
X10763Y-27942D01*
X10739Y-27962D01*
X10712Y-27977D01*
X10682Y-27986D01*
X10651Y-27989D01*
X10621Y-27987D01*
X10591Y-27978D01*
X10563Y-27963D01*
X10539Y-27944D01*
X10518Y-27920D01*
X10503Y-27893D01*
X10494Y-27863D01*
X10491Y-27832D01*
X10493Y-27802D01*
X10502Y-27772D01*
X10516Y-27744D01*
X10535Y-27719D01*
X10559Y-27699D01*
X10586Y-27684D01*
X10616Y-27674D01*
X10647Y-27671D01*
X10677Y-27673D01*
X10707Y-27681D01*
X10735Y-27695D01*
X10760Y-27715D01*
X10780Y-27738D01*
X10796Y-27765D01*
X10806Y-27795D01*
X10809Y-27826D01*
X10810Y-27830D01*
G54D12*
X11353Y-27354D02*
X11429Y-27354D01*
X11505Y-27392D01*
X11543Y-27430D01*
X11581Y-27506D01*
X11620Y-27659D01*
X11620Y-27849D01*
X11581Y-28001D01*
X11543Y-28078D01*
X11505Y-28116D01*
X11429Y-28154D01*
X11353Y-28154D01*
X11277Y-28116D01*
X11239Y-28078D01*
X11200Y-28001D01*
X11162Y-27849D01*
X11162Y-27659D01*
X11200Y-27506D01*
X11239Y-27430D01*
X11277Y-27392D01*
X11353Y-27354D01*
X11962Y-28078D02*
X12001Y-28116D01*
X11962Y-28154D01*
X11924Y-28116D01*
X11962Y-28078D01*
X11962Y-28154D01*
X12496Y-27354D02*
X12572Y-27354D01*
X12648Y-27392D01*
X12686Y-27430D01*
X12724Y-27506D01*
X12763Y-27659D01*
X12763Y-27849D01*
X12724Y-28001D01*
X12686Y-28078D01*
X12648Y-28116D01*
X12572Y-28154D01*
X12496Y-28154D01*
X12420Y-28116D01*
X12382Y-28078D01*
X12343Y-28001D01*
X12305Y-27849D01*
X12305Y-27659D01*
X12343Y-27506D01*
X12382Y-27430D01*
X12420Y-27392D01*
X12496Y-27354D01*
X13029Y-27354D02*
X13525Y-27354D01*
X13258Y-27659D01*
X13372Y-27659D01*
X13448Y-27697D01*
X13486Y-27735D01*
X13525Y-27811D01*
X13525Y-28001D01*
X13486Y-28078D01*
X13448Y-28116D01*
X13372Y-28154D01*
X13144Y-28154D01*
X13067Y-28116D01*
X13029Y-28078D01*
X13829Y-27430D02*
X13867Y-27392D01*
X13944Y-27354D01*
X14134Y-27354D01*
X14210Y-27392D01*
X14248Y-27430D01*
X14287Y-27506D01*
X14287Y-27582D01*
X14248Y-27697D01*
X13791Y-28154D01*
X14287Y-28154D01*
X14591Y-27354D02*
X14591Y-27506D01*
X14896Y-27354D02*
X14896Y-27506D01*
X16421Y-27316D02*
X15735Y-28344D01*
X17450Y-27354D02*
X17526Y-27354D01*
X17602Y-27392D01*
X17640Y-27430D01*
X17678Y-27506D01*
X17717Y-27659D01*
X17717Y-27849D01*
X17678Y-28001D01*
X17640Y-28078D01*
X17602Y-28116D01*
X17526Y-28154D01*
X17450Y-28154D01*
X17374Y-28116D01*
X17336Y-28078D01*
X17297Y-28001D01*
X17259Y-27849D01*
X17259Y-27659D01*
X17297Y-27506D01*
X17336Y-27430D01*
X17374Y-27392D01*
X17450Y-27354D01*
X18059Y-28078D02*
X18098Y-28116D01*
X18059Y-28154D01*
X18021Y-28116D01*
X18059Y-28078D01*
X18059Y-28154D01*
X18555Y-27697D02*
X18479Y-27659D01*
X18440Y-27620D01*
X18402Y-27544D01*
X18402Y-27506D01*
X18440Y-27430D01*
X18479Y-27392D01*
X18555Y-27354D01*
X18707Y-27354D01*
X18783Y-27392D01*
X18821Y-27430D01*
X18860Y-27506D01*
X18860Y-27544D01*
X18821Y-27620D01*
X18783Y-27659D01*
X18707Y-27697D01*
X18555Y-27697D01*
X18479Y-27735D01*
X18440Y-27773D01*
X18402Y-27849D01*
X18402Y-28001D01*
X18440Y-28078D01*
X18479Y-28116D01*
X18555Y-28154D01*
X18707Y-28154D01*
X18783Y-28116D01*
X18821Y-28078D01*
X18860Y-28001D01*
X18860Y-27849D01*
X18821Y-27773D01*
X18783Y-27735D01*
X18707Y-27697D01*
X19622Y-28154D02*
X19164Y-28154D01*
X19393Y-28154D02*
X19393Y-27354D01*
X19317Y-27468D01*
X19241Y-27544D01*
X19164Y-27582D01*
X19964Y-28154D02*
X19964Y-27620D01*
X19964Y-27697D02*
X20003Y-27659D01*
X20079Y-27620D01*
X20193Y-27620D01*
X20269Y-27659D01*
X20307Y-27735D01*
X20307Y-28154D01*
X20307Y-27735D02*
X20345Y-27659D01*
X20422Y-27620D01*
X20536Y-27620D01*
X20612Y-27659D01*
X20650Y-27735D01*
X20650Y-28154D01*
X21031Y-28154D02*
X21031Y-27620D01*
X21031Y-27697D02*
X21070Y-27659D01*
X21146Y-27620D01*
X21260Y-27620D01*
X21336Y-27659D01*
X21374Y-27735D01*
X21374Y-28154D01*
X21374Y-27735D02*
X21412Y-27659D01*
X21489Y-27620D01*
X21603Y-27620D01*
X21679Y-27659D01*
X21717Y-27735D01*
X21717Y-28154D01*
X22937Y-28459D02*
X22899Y-28420D01*
X22823Y-28306D01*
X22785Y-28230D01*
X22747Y-28116D01*
X22708Y-27925D01*
X22708Y-27773D01*
X22747Y-27582D01*
X22785Y-27468D01*
X22823Y-27392D01*
X22899Y-27278D01*
X22937Y-27240D01*
X23203Y-27430D02*
X23241Y-27392D01*
X23318Y-27354D01*
X23508Y-27354D01*
X23584Y-27392D01*
X23622Y-27430D01*
X23661Y-27506D01*
X23661Y-27582D01*
X23622Y-27697D01*
X23165Y-28154D01*
X23661Y-28154D01*
X24613Y-28154D02*
X24613Y-27354D01*
X24956Y-28154D02*
X24956Y-27735D01*
X24918Y-27659D01*
X24842Y-27620D01*
X24728Y-27620D01*
X24652Y-27659D01*
X24613Y-27697D01*
X25452Y-28154D02*
X25376Y-28116D01*
X25337Y-28078D01*
X25299Y-28001D01*
X25299Y-27773D01*
X25337Y-27697D01*
X25376Y-27659D01*
X25452Y-27620D01*
X25566Y-27620D01*
X25642Y-27659D01*
X25680Y-27697D01*
X25718Y-27773D01*
X25718Y-28001D01*
X25680Y-28078D01*
X25642Y-28116D01*
X25566Y-28154D01*
X25452Y-28154D01*
X26176Y-28154D02*
X26100Y-28116D01*
X26061Y-28040D01*
X26061Y-27354D01*
X26785Y-28116D02*
X26709Y-28154D01*
X26557Y-28154D01*
X26480Y-28116D01*
X26442Y-28040D01*
X26442Y-27735D01*
X26480Y-27659D01*
X26557Y-27620D01*
X26709Y-27620D01*
X26785Y-27659D01*
X26823Y-27735D01*
X26823Y-27811D01*
X26442Y-27887D01*
X27128Y-28116D02*
X27205Y-28154D01*
X27357Y-28154D01*
X27433Y-28116D01*
X27471Y-28040D01*
X27471Y-28001D01*
X27433Y-27925D01*
X27357Y-27887D01*
X27243Y-27887D01*
X27166Y-27849D01*
X27128Y-27773D01*
X27128Y-27735D01*
X27166Y-27659D01*
X27243Y-27620D01*
X27357Y-27620D01*
X27433Y-27659D01*
X27738Y-28459D02*
X27776Y-28420D01*
X27853Y-28306D01*
X27891Y-28230D01*
X27929Y-28116D01*
X27967Y-27925D01*
X27967Y-27773D01*
X27929Y-27582D01*
X27891Y-27468D01*
X27853Y-27392D01*
X27776Y-27278D01*
X27738Y-27240D01*
X10613Y-28688D02*
X10613Y-29082D01*
X10810Y-28885D02*
X10416Y-28885D01*
X11353Y-28409D02*
X11429Y-28409D01*
X11505Y-28447D01*
X11543Y-28485D01*
X11581Y-28561D01*
X11620Y-28714D01*
X11620Y-28904D01*
X11581Y-29056D01*
X11543Y-29133D01*
X11505Y-29171D01*
X11429Y-29209D01*
X11353Y-29209D01*
X11277Y-29171D01*
X11239Y-29133D01*
X11200Y-29056D01*
X11162Y-28904D01*
X11162Y-28714D01*
X11200Y-28561D01*
X11239Y-28485D01*
X11277Y-28447D01*
X11353Y-28409D01*
X11962Y-29133D02*
X12001Y-29171D01*
X11962Y-29209D01*
X11924Y-29171D01*
X11962Y-29133D01*
X11962Y-29209D01*
X12496Y-28409D02*
X12572Y-28409D01*
X12648Y-28447D01*
X12686Y-28485D01*
X12724Y-28561D01*
X12763Y-28714D01*
X12763Y-28904D01*
X12724Y-29056D01*
X12686Y-29133D01*
X12648Y-29171D01*
X12572Y-29209D01*
X12496Y-29209D01*
X12420Y-29171D01*
X12382Y-29133D01*
X12343Y-29056D01*
X12305Y-28904D01*
X12305Y-28714D01*
X12343Y-28561D01*
X12382Y-28485D01*
X12420Y-28447D01*
X12496Y-28409D01*
X13029Y-28409D02*
X13525Y-28409D01*
X13258Y-28714D01*
X13372Y-28714D01*
X13448Y-28752D01*
X13486Y-28790D01*
X13525Y-28866D01*
X13525Y-29056D01*
X13486Y-29133D01*
X13448Y-29171D01*
X13372Y-29209D01*
X13144Y-29209D01*
X13067Y-29171D01*
X13029Y-29133D01*
X13906Y-29209D02*
X14058Y-29209D01*
X14134Y-29171D01*
X14172Y-29133D01*
X14248Y-29018D01*
X14287Y-28866D01*
X14287Y-28561D01*
X14248Y-28485D01*
X14210Y-28447D01*
X14134Y-28409D01*
X13982Y-28409D01*
X13906Y-28447D01*
X13867Y-28485D01*
X13829Y-28561D01*
X13829Y-28752D01*
X13867Y-28828D01*
X13906Y-28866D01*
X13982Y-28904D01*
X14134Y-28904D01*
X14210Y-28866D01*
X14248Y-28828D01*
X14287Y-28752D01*
X14591Y-28409D02*
X14591Y-28561D01*
X14896Y-28409D02*
X14896Y-28561D01*
X16421Y-28371D02*
X15735Y-29399D01*
X17717Y-29209D02*
X17259Y-29209D01*
X17488Y-29209D02*
X17488Y-28409D01*
X17412Y-28523D01*
X17336Y-28599D01*
X17259Y-28637D01*
X18059Y-29133D02*
X18098Y-29171D01*
X18059Y-29209D01*
X18021Y-29171D01*
X18059Y-29133D01*
X18059Y-29209D01*
X18593Y-28409D02*
X18669Y-28409D01*
X18745Y-28447D01*
X18783Y-28485D01*
X18821Y-28561D01*
X18860Y-28714D01*
X18860Y-28904D01*
X18821Y-29056D01*
X18783Y-29133D01*
X18745Y-29171D01*
X18669Y-29209D01*
X18593Y-29209D01*
X18517Y-29171D01*
X18479Y-29133D01*
X18440Y-29056D01*
X18402Y-28904D01*
X18402Y-28714D01*
X18440Y-28561D01*
X18479Y-28485D01*
X18517Y-28447D01*
X18593Y-28409D01*
X19355Y-28409D02*
X19431Y-28409D01*
X19507Y-28447D01*
X19545Y-28485D01*
X19583Y-28561D01*
X19622Y-28714D01*
X19622Y-28904D01*
X19583Y-29056D01*
X19545Y-29133D01*
X19507Y-29171D01*
X19431Y-29209D01*
X19355Y-29209D01*
X19279Y-29171D01*
X19241Y-29133D01*
X19202Y-29056D01*
X19164Y-28904D01*
X19164Y-28714D01*
X19202Y-28561D01*
X19241Y-28485D01*
X19279Y-28447D01*
X19355Y-28409D01*
X19964Y-29209D02*
X19964Y-28675D01*
X19964Y-28752D02*
X20003Y-28714D01*
X20079Y-28675D01*
X20193Y-28675D01*
X20269Y-28714D01*
X20307Y-28790D01*
X20307Y-29209D01*
X20307Y-28790D02*
X20345Y-28714D01*
X20422Y-28675D01*
X20536Y-28675D01*
X20612Y-28714D01*
X20650Y-28790D01*
X20650Y-29209D01*
X21031Y-29209D02*
X21031Y-28675D01*
X21031Y-28752D02*
X21070Y-28714D01*
X21146Y-28675D01*
X21260Y-28675D01*
X21336Y-28714D01*
X21374Y-28790D01*
X21374Y-29209D01*
X21374Y-28790D02*
X21412Y-28714D01*
X21489Y-28675D01*
X21603Y-28675D01*
X21679Y-28714D01*
X21717Y-28790D01*
X21717Y-29209D01*
X22937Y-29514D02*
X22899Y-29475D01*
X22823Y-29361D01*
X22785Y-29285D01*
X22747Y-29171D01*
X22708Y-28980D01*
X22708Y-28828D01*
X22747Y-28637D01*
X22785Y-28523D01*
X22823Y-28447D01*
X22899Y-28333D01*
X22937Y-28295D01*
X23584Y-28409D02*
X23432Y-28409D01*
X23356Y-28447D01*
X23318Y-28485D01*
X23241Y-28599D01*
X23203Y-28752D01*
X23203Y-29056D01*
X23241Y-29133D01*
X23280Y-29171D01*
X23356Y-29209D01*
X23508Y-29209D01*
X23584Y-29171D01*
X23622Y-29133D01*
X23661Y-29056D01*
X23661Y-28866D01*
X23622Y-28790D01*
X23584Y-28752D01*
X23508Y-28714D01*
X23356Y-28714D01*
X23280Y-28752D01*
X23241Y-28790D01*
X23203Y-28866D01*
X24346Y-28675D02*
X24346Y-29209D01*
X24156Y-28371D02*
X23965Y-28942D01*
X24461Y-28942D01*
X25375Y-29209D02*
X25375Y-28409D01*
X25718Y-29209D02*
X25718Y-28790D01*
X25680Y-28714D01*
X25604Y-28675D01*
X25490Y-28675D01*
X25414Y-28714D01*
X25375Y-28752D01*
X26214Y-29209D02*
X26138Y-29171D01*
X26099Y-29133D01*
X26061Y-29056D01*
X26061Y-28828D01*
X26099Y-28752D01*
X26138Y-28714D01*
X26214Y-28675D01*
X26328Y-28675D01*
X26404Y-28714D01*
X26442Y-28752D01*
X26480Y-28828D01*
X26480Y-29056D01*
X26442Y-29133D01*
X26404Y-29171D01*
X26328Y-29209D01*
X26214Y-29209D01*
X26938Y-29209D02*
X26862Y-29171D01*
X26823Y-29095D01*
X26823Y-28409D01*
X27547Y-29171D02*
X27471Y-29209D01*
X27319Y-29209D01*
X27242Y-29171D01*
X27204Y-29095D01*
X27204Y-28790D01*
X27242Y-28714D01*
X27319Y-28675D01*
X27471Y-28675D01*
X27547Y-28714D01*
X27585Y-28790D01*
X27585Y-28866D01*
X27204Y-28942D01*
X27890Y-29171D02*
X27967Y-29209D01*
X28119Y-29209D01*
X28195Y-29171D01*
X28233Y-29095D01*
X28233Y-29056D01*
X28195Y-28980D01*
X28119Y-28942D01*
X28005Y-28942D01*
X27928Y-28904D01*
X27890Y-28828D01*
X27890Y-28790D01*
X27928Y-28714D01*
X28005Y-28675D01*
X28119Y-28675D01*
X28195Y-28714D01*
X28500Y-29514D02*
X28538Y-29475D01*
X28615Y-29361D01*
X28653Y-29285D01*
X28691Y-29171D01*
X28729Y-28980D01*
X28729Y-28828D01*
X28691Y-28637D01*
X28653Y-28523D01*
X28615Y-28447D01*
X28538Y-28333D01*
X28500Y-28295D01*
G54D10*
X10810Y-29940D02*
X10806Y-29978D01*
X10794Y-30016D01*
X10776Y-30050D01*
X10751Y-30080D01*
X10721Y-30105D01*
X10687Y-30124D01*
X10650Y-30135D01*
X10611Y-30139D01*
X10573Y-30136D01*
X10536Y-30125D01*
X10501Y-30107D01*
X10471Y-30082D01*
X10445Y-30052D01*
X10427Y-30018D01*
X10415Y-29981D01*
X10411Y-29942D01*
X10414Y-29904D01*
X10425Y-29867D01*
X10442Y-29832D01*
X10467Y-29802D01*
X10496Y-29776D01*
X10530Y-29757D01*
X10568Y-29745D01*
X10606Y-29741D01*
X10644Y-29744D01*
X10682Y-29754D01*
X10717Y-29772D01*
X10747Y-29796D01*
X10773Y-29825D01*
X10792Y-29859D01*
X10805Y-29896D01*
X10809Y-29935D01*
X10810Y-29940D01*
X10410Y-29740D02*
X10810Y-30140D01*
X10810Y-29740D02*
X10410Y-30140D01*
G54D12*
X11353Y-29464D02*
X11429Y-29464D01*
X11505Y-29502D01*
X11543Y-29540D01*
X11581Y-29616D01*
X11620Y-29769D01*
X11620Y-29959D01*
X11581Y-30111D01*
X11543Y-30188D01*
X11505Y-30226D01*
X11429Y-30264D01*
X11353Y-30264D01*
X11277Y-30226D01*
X11239Y-30188D01*
X11200Y-30111D01*
X11162Y-29959D01*
X11162Y-29769D01*
X11200Y-29616D01*
X11239Y-29540D01*
X11277Y-29502D01*
X11353Y-29464D01*
X11962Y-30188D02*
X12001Y-30226D01*
X11962Y-30264D01*
X11924Y-30226D01*
X11962Y-30188D01*
X11962Y-30264D01*
X12496Y-29464D02*
X12572Y-29464D01*
X12648Y-29502D01*
X12686Y-29540D01*
X12724Y-29616D01*
X12763Y-29769D01*
X12763Y-29959D01*
X12724Y-30111D01*
X12686Y-30188D01*
X12648Y-30226D01*
X12572Y-30264D01*
X12496Y-30264D01*
X12420Y-30226D01*
X12382Y-30188D01*
X12343Y-30111D01*
X12305Y-29959D01*
X12305Y-29769D01*
X12343Y-29616D01*
X12382Y-29540D01*
X12420Y-29502D01*
X12496Y-29464D01*
X13448Y-29730D02*
X13448Y-30264D01*
X13258Y-29426D02*
X13067Y-29997D01*
X13563Y-29997D01*
X14020Y-29464D02*
X14096Y-29464D01*
X14172Y-29502D01*
X14210Y-29540D01*
X14248Y-29616D01*
X14287Y-29769D01*
X14287Y-29959D01*
X14248Y-30111D01*
X14210Y-30188D01*
X14172Y-30226D01*
X14096Y-30264D01*
X14020Y-30264D01*
X13944Y-30226D01*
X13906Y-30188D01*
X13867Y-30111D01*
X13829Y-29959D01*
X13829Y-29769D01*
X13867Y-29616D01*
X13906Y-29540D01*
X13944Y-29502D01*
X14020Y-29464D01*
X14591Y-29464D02*
X14591Y-29616D01*
X14896Y-29464D02*
X14896Y-29616D01*
X16421Y-29426D02*
X15735Y-30454D01*
X17717Y-30264D02*
X17259Y-30264D01*
X17488Y-30264D02*
X17488Y-29464D01*
X17412Y-29578D01*
X17336Y-29654D01*
X17259Y-29692D01*
X18059Y-30188D02*
X18098Y-30226D01*
X18059Y-30264D01*
X18021Y-30226D01*
X18059Y-30188D01*
X18059Y-30264D01*
X18593Y-29464D02*
X18669Y-29464D01*
X18745Y-29502D01*
X18783Y-29540D01*
X18821Y-29616D01*
X18860Y-29769D01*
X18860Y-29959D01*
X18821Y-30111D01*
X18783Y-30188D01*
X18745Y-30226D01*
X18669Y-30264D01*
X18593Y-30264D01*
X18517Y-30226D01*
X18479Y-30188D01*
X18440Y-30111D01*
X18402Y-29959D01*
X18402Y-29769D01*
X18440Y-29616D01*
X18479Y-29540D01*
X18517Y-29502D01*
X18593Y-29464D01*
X19164Y-29540D02*
X19202Y-29502D01*
X19279Y-29464D01*
X19469Y-29464D01*
X19545Y-29502D01*
X19583Y-29540D01*
X19622Y-29616D01*
X19622Y-29692D01*
X19583Y-29807D01*
X19126Y-30264D01*
X19622Y-30264D01*
X19964Y-30264D02*
X19964Y-29730D01*
X19964Y-29807D02*
X20003Y-29769D01*
X20079Y-29730D01*
X20193Y-29730D01*
X20269Y-29769D01*
X20307Y-29845D01*
X20307Y-30264D01*
X20307Y-29845D02*
X20345Y-29769D01*
X20422Y-29730D01*
X20536Y-29730D01*
X20612Y-29769D01*
X20650Y-29845D01*
X20650Y-30264D01*
X21031Y-30264D02*
X21031Y-29730D01*
X21031Y-29807D02*
X21070Y-29769D01*
X21146Y-29730D01*
X21260Y-29730D01*
X21336Y-29769D01*
X21374Y-29845D01*
X21374Y-30264D01*
X21374Y-29845D02*
X21412Y-29769D01*
X21489Y-29730D01*
X21603Y-29730D01*
X21679Y-29769D01*
X21717Y-29845D01*
X21717Y-30264D01*
X22937Y-30569D02*
X22899Y-30530D01*
X22823Y-30416D01*
X22785Y-30340D01*
X22747Y-30226D01*
X22708Y-30035D01*
X22708Y-29883D01*
X22747Y-29692D01*
X22785Y-29578D01*
X22823Y-29502D01*
X22899Y-29388D01*
X22937Y-29350D01*
X23622Y-29464D02*
X23241Y-29464D01*
X23203Y-29845D01*
X23241Y-29807D01*
X23318Y-29769D01*
X23508Y-29769D01*
X23584Y-29807D01*
X23622Y-29845D01*
X23661Y-29921D01*
X23661Y-30111D01*
X23622Y-30188D01*
X23584Y-30226D01*
X23508Y-30264D01*
X23318Y-30264D01*
X23241Y-30226D01*
X23203Y-30188D01*
X24346Y-29730D02*
X24346Y-30264D01*
X24156Y-29426D02*
X23965Y-29997D01*
X24461Y-29997D01*
X25375Y-30264D02*
X25375Y-29464D01*
X25718Y-30264D02*
X25718Y-29845D01*
X25680Y-29769D01*
X25604Y-29730D01*
X25490Y-29730D01*
X25414Y-29769D01*
X25375Y-29807D01*
X26214Y-30264D02*
X26138Y-30226D01*
X26099Y-30188D01*
X26061Y-30111D01*
X26061Y-29883D01*
X26099Y-29807D01*
X26138Y-29769D01*
X26214Y-29730D01*
X26328Y-29730D01*
X26404Y-29769D01*
X26442Y-29807D01*
X26480Y-29883D01*
X26480Y-30111D01*
X26442Y-30188D01*
X26404Y-30226D01*
X26328Y-30264D01*
X26214Y-30264D01*
X26938Y-30264D02*
X26862Y-30226D01*
X26823Y-30150D01*
X26823Y-29464D01*
X27547Y-30226D02*
X27471Y-30264D01*
X27319Y-30264D01*
X27242Y-30226D01*
X27204Y-30150D01*
X27204Y-29845D01*
X27242Y-29769D01*
X27319Y-29730D01*
X27471Y-29730D01*
X27547Y-29769D01*
X27585Y-29845D01*
X27585Y-29921D01*
X27204Y-29997D01*
X27890Y-30226D02*
X27967Y-30264D01*
X28119Y-30264D01*
X28195Y-30226D01*
X28233Y-30150D01*
X28233Y-30111D01*
X28195Y-30035D01*
X28119Y-29997D01*
X28005Y-29997D01*
X27928Y-29959D01*
X27890Y-29883D01*
X27890Y-29845D01*
X27928Y-29769D01*
X28005Y-29730D01*
X28119Y-29730D01*
X28195Y-29769D01*
X28500Y-30569D02*
X28538Y-30530D01*
X28615Y-30416D01*
X28653Y-30340D01*
X28691Y-30226D01*
X28729Y-30035D01*
X28729Y-29883D01*
X28691Y-29692D01*
X28653Y-29578D01*
X28615Y-29502D01*
X28538Y-29388D01*
X28500Y-29350D01*
G54D10*
X10810Y-30995D02*
X10805Y-31043D01*
X10791Y-31090D01*
X10768Y-31133D01*
X10737Y-31171D01*
X10699Y-31202D01*
X10656Y-31225D01*
X10610Y-31239D01*
X10561Y-31244D01*
X10514Y-31240D01*
X10467Y-31226D01*
X10424Y-31204D01*
X10386Y-31173D01*
X10354Y-31136D01*
X10331Y-31093D01*
X10316Y-31046D01*
X10311Y-30998D01*
X10315Y-30950D01*
X10328Y-30903D01*
X10350Y-30860D01*
X10381Y-30822D01*
X10418Y-30790D01*
X10460Y-30766D01*
X10507Y-30751D01*
X10555Y-30746D01*
X10603Y-30749D01*
X10650Y-30762D01*
X10693Y-30784D01*
X10732Y-30814D01*
X10764Y-30851D01*
X10788Y-30894D01*
X10803Y-30940D01*
X10809Y-30989D01*
X10810Y-30995D01*
X10310Y-30995D02*
X10810Y-30995D01*
G54D12*
X11353Y-30519D02*
X11429Y-30519D01*
X11505Y-30557D01*
X11543Y-30595D01*
X11581Y-30671D01*
X11620Y-30824D01*
X11620Y-31014D01*
X11581Y-31166D01*
X11543Y-31243D01*
X11505Y-31281D01*
X11429Y-31319D01*
X11353Y-31319D01*
X11277Y-31281D01*
X11239Y-31243D01*
X11200Y-31166D01*
X11162Y-31014D01*
X11162Y-30824D01*
X11200Y-30671D01*
X11239Y-30595D01*
X11277Y-30557D01*
X11353Y-30519D01*
X11962Y-31243D02*
X12001Y-31281D01*
X11962Y-31319D01*
X11924Y-31281D01*
X11962Y-31243D01*
X11962Y-31319D01*
X12496Y-30519D02*
X12572Y-30519D01*
X12648Y-30557D01*
X12686Y-30595D01*
X12724Y-30671D01*
X12763Y-30824D01*
X12763Y-31014D01*
X12724Y-31166D01*
X12686Y-31243D01*
X12648Y-31281D01*
X12572Y-31319D01*
X12496Y-31319D01*
X12420Y-31281D01*
X12382Y-31243D01*
X12343Y-31166D01*
X12305Y-31014D01*
X12305Y-30824D01*
X12343Y-30671D01*
X12382Y-30595D01*
X12420Y-30557D01*
X12496Y-30519D01*
X13486Y-30519D02*
X13105Y-30519D01*
X13067Y-30900D01*
X13105Y-30862D01*
X13182Y-30824D01*
X13372Y-30824D01*
X13448Y-30862D01*
X13486Y-30900D01*
X13525Y-30976D01*
X13525Y-31166D01*
X13486Y-31243D01*
X13448Y-31281D01*
X13372Y-31319D01*
X13182Y-31319D01*
X13105Y-31281D01*
X13067Y-31243D01*
X14020Y-30519D02*
X14096Y-30519D01*
X14172Y-30557D01*
X14210Y-30595D01*
X14248Y-30671D01*
X14287Y-30824D01*
X14287Y-31014D01*
X14248Y-31166D01*
X14210Y-31243D01*
X14172Y-31281D01*
X14096Y-31319D01*
X14020Y-31319D01*
X13944Y-31281D01*
X13906Y-31243D01*
X13867Y-31166D01*
X13829Y-31014D01*
X13829Y-30824D01*
X13867Y-30671D01*
X13906Y-30595D01*
X13944Y-30557D01*
X14020Y-30519D01*
X14591Y-30519D02*
X14591Y-30671D01*
X14896Y-30519D02*
X14896Y-30671D01*
X16421Y-30481D02*
X15735Y-31509D01*
X17717Y-31319D02*
X17259Y-31319D01*
X17488Y-31319D02*
X17488Y-30519D01*
X17412Y-30633D01*
X17336Y-30709D01*
X17259Y-30747D01*
X18059Y-31243D02*
X18098Y-31281D01*
X18059Y-31319D01*
X18021Y-31281D01*
X18059Y-31243D01*
X18059Y-31319D01*
X18402Y-30595D02*
X18440Y-30557D01*
X18517Y-30519D01*
X18707Y-30519D01*
X18783Y-30557D01*
X18821Y-30595D01*
X18860Y-30671D01*
X18860Y-30747D01*
X18821Y-30862D01*
X18364Y-31319D01*
X18860Y-31319D01*
X19126Y-30519D02*
X19660Y-30519D01*
X19317Y-31319D01*
X19964Y-31319D02*
X19964Y-30785D01*
X19964Y-30862D02*
X20003Y-30824D01*
X20079Y-30785D01*
X20193Y-30785D01*
X20269Y-30824D01*
X20307Y-30900D01*
X20307Y-31319D01*
X20307Y-30900D02*
X20345Y-30824D01*
X20422Y-30785D01*
X20536Y-30785D01*
X20612Y-30824D01*
X20650Y-30900D01*
X20650Y-31319D01*
X21031Y-31319D02*
X21031Y-30785D01*
X21031Y-30862D02*
X21070Y-30824D01*
X21146Y-30785D01*
X21260Y-30785D01*
X21336Y-30824D01*
X21374Y-30900D01*
X21374Y-31319D01*
X21374Y-30900D02*
X21412Y-30824D01*
X21489Y-30785D01*
X21603Y-30785D01*
X21679Y-30824D01*
X21717Y-30900D01*
X21717Y-31319D01*
X22937Y-31624D02*
X22899Y-31585D01*
X22823Y-31471D01*
X22785Y-31395D01*
X22747Y-31281D01*
X22708Y-31090D01*
X22708Y-30938D01*
X22747Y-30747D01*
X22785Y-30633D01*
X22823Y-30557D01*
X22899Y-30443D01*
X22937Y-30405D01*
X23165Y-30519D02*
X23661Y-30519D01*
X23394Y-30824D01*
X23508Y-30824D01*
X23584Y-30862D01*
X23622Y-30900D01*
X23661Y-30976D01*
X23661Y-31166D01*
X23622Y-31243D01*
X23584Y-31281D01*
X23508Y-31319D01*
X23280Y-31319D01*
X23203Y-31281D01*
X23165Y-31243D01*
X24613Y-31319D02*
X24613Y-30519D01*
X24956Y-31319D02*
X24956Y-30900D01*
X24918Y-30824D01*
X24842Y-30785D01*
X24728Y-30785D01*
X24652Y-30824D01*
X24613Y-30862D01*
X25452Y-31319D02*
X25376Y-31281D01*
X25337Y-31243D01*
X25299Y-31166D01*
X25299Y-30938D01*
X25337Y-30862D01*
X25376Y-30824D01*
X25452Y-30785D01*
X25566Y-30785D01*
X25642Y-30824D01*
X25680Y-30862D01*
X25718Y-30938D01*
X25718Y-31166D01*
X25680Y-31243D01*
X25642Y-31281D01*
X25566Y-31319D01*
X25452Y-31319D01*
X26176Y-31319D02*
X26100Y-31281D01*
X26061Y-31205D01*
X26061Y-30519D01*
X26785Y-31281D02*
X26709Y-31319D01*
X26557Y-31319D01*
X26480Y-31281D01*
X26442Y-31205D01*
X26442Y-30900D01*
X26480Y-30824D01*
X26557Y-30785D01*
X26709Y-30785D01*
X26785Y-30824D01*
X26823Y-30900D01*
X26823Y-30976D01*
X26442Y-31052D01*
X27128Y-31281D02*
X27205Y-31319D01*
X27357Y-31319D01*
X27433Y-31281D01*
X27471Y-31205D01*
X27471Y-31166D01*
X27433Y-31090D01*
X27357Y-31052D01*
X27243Y-31052D01*
X27166Y-31014D01*
X27128Y-30938D01*
X27128Y-30900D01*
X27166Y-30824D01*
X27243Y-30785D01*
X27357Y-30785D01*
X27433Y-30824D01*
X27738Y-31624D02*
X27776Y-31585D01*
X27853Y-31471D01*
X27891Y-31395D01*
X27929Y-31281D01*
X27967Y-31090D01*
X27967Y-30938D01*
X27929Y-30747D01*
X27891Y-30633D01*
X27853Y-30557D01*
X27776Y-30443D01*
X27738Y-30405D01*
G54D10*
X10810Y-32050D02*
X10798Y-32166D01*
X10764Y-32278D01*
X10709Y-32382D01*
X10635Y-32472D01*
X10545Y-32547D01*
X10442Y-32603D01*
X10330Y-32637D01*
X10214Y-32649D01*
X10098Y-32639D01*
X09986Y-32606D01*
X09882Y-32552D01*
X09791Y-32478D01*
X09715Y-32388D01*
X09659Y-32286D01*
X09624Y-32174D01*
X09611Y-32058D01*
X09620Y-31942D01*
X09653Y-31830D01*
X09706Y-31725D01*
X09779Y-31634D01*
X09868Y-31558D01*
X09970Y-31501D01*
X10082Y-31464D01*
X10198Y-31451D01*
X10314Y-31460D01*
X10426Y-31491D01*
X10531Y-31544D01*
X10623Y-31616D01*
X10700Y-31705D01*
X10758Y-31806D01*
X10795Y-31918D01*
X10809Y-32034D01*
X10810Y-32050D01*
X10210Y-31450D02*
X10210Y-32650D01*
G54D12*
X11353Y-31574D02*
X11429Y-31574D01*
X11505Y-31612D01*
X11543Y-31650D01*
X11581Y-31726D01*
X11620Y-31879D01*
X11620Y-32069D01*
X11581Y-32221D01*
X11543Y-32298D01*
X11505Y-32336D01*
X11429Y-32374D01*
X11353Y-32374D01*
X11277Y-32336D01*
X11239Y-32298D01*
X11200Y-32221D01*
X11162Y-32069D01*
X11162Y-31879D01*
X11200Y-31726D01*
X11239Y-31650D01*
X11277Y-31612D01*
X11353Y-31574D01*
X11962Y-32298D02*
X12001Y-32336D01*
X11962Y-32374D01*
X11924Y-32336D01*
X11962Y-32298D01*
X11962Y-32374D01*
X12763Y-32374D02*
X12305Y-32374D01*
X12534Y-32374D02*
X12534Y-31574D01*
X12458Y-31688D01*
X12382Y-31764D01*
X12305Y-31802D01*
X13067Y-31650D02*
X13105Y-31612D01*
X13182Y-31574D01*
X13372Y-31574D01*
X13448Y-31612D01*
X13486Y-31650D01*
X13525Y-31726D01*
X13525Y-31802D01*
X13486Y-31917D01*
X13029Y-32374D01*
X13525Y-32374D01*
X14020Y-31574D02*
X14096Y-31574D01*
X14172Y-31612D01*
X14210Y-31650D01*
X14248Y-31726D01*
X14287Y-31879D01*
X14287Y-32069D01*
X14248Y-32221D01*
X14210Y-32298D01*
X14172Y-32336D01*
X14096Y-32374D01*
X14020Y-32374D01*
X13944Y-32336D01*
X13906Y-32298D01*
X13867Y-32221D01*
X13829Y-32069D01*
X13829Y-31879D01*
X13867Y-31726D01*
X13906Y-31650D01*
X13944Y-31612D01*
X14020Y-31574D01*
X14591Y-31574D02*
X14591Y-31726D01*
X14896Y-31574D02*
X14896Y-31726D01*
X16421Y-31536D02*
X15735Y-32564D01*
X17221Y-31574D02*
X17717Y-31574D01*
X17450Y-31879D01*
X17564Y-31879D01*
X17640Y-31917D01*
X17678Y-31955D01*
X17717Y-32031D01*
X17717Y-32221D01*
X17678Y-32298D01*
X17640Y-32336D01*
X17564Y-32374D01*
X17336Y-32374D01*
X17259Y-32336D01*
X17221Y-32298D01*
X18059Y-32298D02*
X18098Y-32336D01*
X18059Y-32374D01*
X18021Y-32336D01*
X18059Y-32298D01*
X18059Y-32374D01*
X18593Y-31574D02*
X18669Y-31574D01*
X18745Y-31612D01*
X18783Y-31650D01*
X18821Y-31726D01*
X18860Y-31879D01*
X18860Y-32069D01*
X18821Y-32221D01*
X18783Y-32298D01*
X18745Y-32336D01*
X18669Y-32374D01*
X18593Y-32374D01*
X18517Y-32336D01*
X18479Y-32298D01*
X18440Y-32221D01*
X18402Y-32069D01*
X18402Y-31879D01*
X18440Y-31726D01*
X18479Y-31650D01*
X18517Y-31612D01*
X18593Y-31574D01*
X19583Y-31574D02*
X19202Y-31574D01*
X19164Y-31955D01*
X19202Y-31917D01*
X19279Y-31879D01*
X19469Y-31879D01*
X19545Y-31917D01*
X19583Y-31955D01*
X19622Y-32031D01*
X19622Y-32221D01*
X19583Y-32298D01*
X19545Y-32336D01*
X19469Y-32374D01*
X19279Y-32374D01*
X19202Y-32336D01*
X19164Y-32298D01*
X19964Y-32374D02*
X19964Y-31840D01*
X19964Y-31917D02*
X20003Y-31879D01*
X20079Y-31840D01*
X20193Y-31840D01*
X20269Y-31879D01*
X20307Y-31955D01*
X20307Y-32374D01*
X20307Y-31955D02*
X20345Y-31879D01*
X20422Y-31840D01*
X20536Y-31840D01*
X20612Y-31879D01*
X20650Y-31955D01*
X20650Y-32374D01*
X21031Y-32374D02*
X21031Y-31840D01*
X21031Y-31917D02*
X21070Y-31879D01*
X21146Y-31840D01*
X21260Y-31840D01*
X21336Y-31879D01*
X21374Y-31955D01*
X21374Y-32374D01*
X21374Y-31955D02*
X21412Y-31879D01*
X21489Y-31840D01*
X21603Y-31840D01*
X21679Y-31879D01*
X21717Y-31955D01*
X21717Y-32374D01*
X22937Y-32679D02*
X22899Y-32640D01*
X22823Y-32526D01*
X22785Y-32450D01*
X22747Y-32336D01*
X22708Y-32145D01*
X22708Y-31993D01*
X22747Y-31802D01*
X22785Y-31688D01*
X22823Y-31612D01*
X22899Y-31498D01*
X22937Y-31460D01*
X23356Y-31917D02*
X23280Y-31879D01*
X23241Y-31840D01*
X23203Y-31764D01*
X23203Y-31726D01*
X23241Y-31650D01*
X23280Y-31612D01*
X23356Y-31574D01*
X23508Y-31574D01*
X23584Y-31612D01*
X23622Y-31650D01*
X23661Y-31726D01*
X23661Y-31764D01*
X23622Y-31840D01*
X23584Y-31879D01*
X23508Y-31917D01*
X23356Y-31917D01*
X23280Y-31955D01*
X23241Y-31993D01*
X23203Y-32069D01*
X23203Y-32221D01*
X23241Y-32298D01*
X23280Y-32336D01*
X23356Y-32374D01*
X23508Y-32374D01*
X23584Y-32336D01*
X23622Y-32298D01*
X23661Y-32221D01*
X23661Y-32069D01*
X23622Y-31993D01*
X23584Y-31955D01*
X23508Y-31917D01*
X24613Y-32374D02*
X24613Y-31574D01*
X24956Y-32374D02*
X24956Y-31955D01*
X24918Y-31879D01*
X24842Y-31840D01*
X24728Y-31840D01*
X24652Y-31879D01*
X24613Y-31917D01*
X25452Y-32374D02*
X25376Y-32336D01*
X25337Y-32298D01*
X25299Y-32221D01*
X25299Y-31993D01*
X25337Y-31917D01*
X25376Y-31879D01*
X25452Y-31840D01*
X25566Y-31840D01*
X25642Y-31879D01*
X25680Y-31917D01*
X25718Y-31993D01*
X25718Y-32221D01*
X25680Y-32298D01*
X25642Y-32336D01*
X25566Y-32374D01*
X25452Y-32374D01*
X26176Y-32374D02*
X26100Y-32336D01*
X26061Y-32260D01*
X26061Y-31574D01*
X26785Y-32336D02*
X26709Y-32374D01*
X26557Y-32374D01*
X26480Y-32336D01*
X26442Y-32260D01*
X26442Y-31955D01*
X26480Y-31879D01*
X26557Y-31840D01*
X26709Y-31840D01*
X26785Y-31879D01*
X26823Y-31955D01*
X26823Y-32031D01*
X26442Y-32107D01*
X27128Y-32336D02*
X27205Y-32374D01*
X27357Y-32374D01*
X27433Y-32336D01*
X27471Y-32260D01*
X27471Y-32221D01*
X27433Y-32145D01*
X27357Y-32107D01*
X27243Y-32107D01*
X27166Y-32069D01*
X27128Y-31993D01*
X27128Y-31955D01*
X27166Y-31879D01*
X27243Y-31840D01*
X27357Y-31840D01*
X27433Y-31879D01*
X27738Y-32679D02*
X27776Y-32640D01*
X27853Y-32526D01*
X27891Y-32450D01*
X27929Y-32336D01*
X27967Y-32145D01*
X27967Y-31993D01*
X27929Y-31802D01*
X27891Y-31688D01*
X27853Y-31612D01*
X27776Y-31498D01*
X27738Y-31460D01*
M02*
