G04 (created by PCBNEW-RS274X (2011-04-28)-stable) date Fri 29 Jul 2011 03:05:10 AM CEST*
G01*
G70*
G90*
%MOIN*%
G04 Gerber Fmt 3.4, Leading zero omitted, Abs format*
%FSLAX34Y34*%
G04 APERTURE LIST*
%ADD10C,0.010000*%
%ADD11C,0.012000*%
%ADD12C,0.002600*%
%ADD13C,0.006000*%
%ADD14C,0.002000*%
%ADD15C,0.004000*%
%ADD16C,0.008000*%
%ADD17R,0.068000X0.068000*%
%ADD18C,0.068000*%
%ADD19C,0.108000*%
%ADD20R,0.067000X0.059100*%
%ADD21R,0.059100X0.067000*%
%ADD22R,0.063000X0.063000*%
%ADD23C,0.063000*%
%ADD24R,0.078800X0.070900*%
%ADD25R,0.070900X0.078800*%
%ADD26C,0.088000*%
%ADD27C,0.168000*%
%ADD28R,0.108000X0.108000*%
G04 APERTURE END LIST*
G54D10*
X04000Y-04000D02*
X161350Y-04000D01*
X161350Y-113000D01*
X04000Y-113000D01*
X04000Y-04000D01*
X04700Y-04700D02*
X160650Y-04700D01*
X160650Y-112300D01*
X04700Y-112300D01*
X04700Y-04700D01*
X26470Y-04000D02*
X26470Y-04700D01*
X15383Y-04552D02*
X15097Y-04552D01*
X15240Y-04552D02*
X15240Y-04052D01*
X15192Y-04124D01*
X15145Y-04171D01*
X15097Y-04195D01*
X26470Y-113000D02*
X26470Y-112300D01*
X15383Y-112852D02*
X15097Y-112852D01*
X15240Y-112852D02*
X15240Y-112352D01*
X15192Y-112424D01*
X15145Y-112471D01*
X15097Y-112495D01*
X48940Y-04000D02*
X48940Y-04700D01*
X37567Y-04100D02*
X37591Y-04076D01*
X37639Y-04052D01*
X37758Y-04052D01*
X37805Y-04076D01*
X37829Y-04100D01*
X37853Y-04148D01*
X37853Y-04195D01*
X37829Y-04267D01*
X37543Y-04552D01*
X37853Y-04552D01*
X48940Y-113000D02*
X48940Y-112300D01*
X37567Y-112400D02*
X37591Y-112376D01*
X37639Y-112352D01*
X37758Y-112352D01*
X37805Y-112376D01*
X37829Y-112400D01*
X37853Y-112448D01*
X37853Y-112495D01*
X37829Y-112567D01*
X37543Y-112852D01*
X37853Y-112852D01*
X71410Y-04000D02*
X71410Y-04700D01*
X60013Y-04052D02*
X60323Y-04052D01*
X60156Y-04243D01*
X60228Y-04243D01*
X60275Y-04267D01*
X60299Y-04290D01*
X60323Y-04338D01*
X60323Y-04457D01*
X60299Y-04505D01*
X60275Y-04529D01*
X60228Y-04552D01*
X60085Y-04552D01*
X60037Y-04529D01*
X60013Y-04505D01*
X71410Y-113000D02*
X71410Y-112300D01*
X60013Y-112352D02*
X60323Y-112352D01*
X60156Y-112543D01*
X60228Y-112543D01*
X60275Y-112567D01*
X60299Y-112590D01*
X60323Y-112638D01*
X60323Y-112757D01*
X60299Y-112805D01*
X60275Y-112829D01*
X60228Y-112852D01*
X60085Y-112852D01*
X60037Y-112829D01*
X60013Y-112805D01*
X93880Y-04000D02*
X93880Y-04700D01*
X82745Y-04219D02*
X82745Y-04552D01*
X82626Y-04029D02*
X82507Y-04386D01*
X82817Y-04386D01*
X93880Y-113000D02*
X93880Y-112300D01*
X82745Y-112519D02*
X82745Y-112852D01*
X82626Y-112329D02*
X82507Y-112686D01*
X82817Y-112686D01*
X116350Y-04000D02*
X116350Y-04700D01*
X105239Y-04052D02*
X105001Y-04052D01*
X104977Y-04290D01*
X105001Y-04267D01*
X105049Y-04243D01*
X105168Y-04243D01*
X105215Y-04267D01*
X105239Y-04290D01*
X105263Y-04338D01*
X105263Y-04457D01*
X105239Y-04505D01*
X105215Y-04529D01*
X105168Y-04552D01*
X105049Y-04552D01*
X105001Y-04529D01*
X104977Y-04505D01*
X116350Y-113000D02*
X116350Y-112300D01*
X105239Y-112352D02*
X105001Y-112352D01*
X104977Y-112590D01*
X105001Y-112567D01*
X105049Y-112543D01*
X105168Y-112543D01*
X105215Y-112567D01*
X105239Y-112590D01*
X105263Y-112638D01*
X105263Y-112757D01*
X105239Y-112805D01*
X105215Y-112829D01*
X105168Y-112852D01*
X105049Y-112852D01*
X105001Y-112829D01*
X104977Y-112805D01*
X138820Y-04000D02*
X138820Y-04700D01*
X127685Y-04052D02*
X127590Y-04052D01*
X127542Y-04076D01*
X127519Y-04100D01*
X127471Y-04171D01*
X127447Y-04267D01*
X127447Y-04457D01*
X127471Y-04505D01*
X127495Y-04529D01*
X127542Y-04552D01*
X127638Y-04552D01*
X127685Y-04529D01*
X127709Y-04505D01*
X127733Y-04457D01*
X127733Y-04338D01*
X127709Y-04290D01*
X127685Y-04267D01*
X127638Y-04243D01*
X127542Y-04243D01*
X127495Y-04267D01*
X127471Y-04290D01*
X127447Y-04338D01*
X138820Y-113000D02*
X138820Y-112300D01*
X127685Y-112352D02*
X127590Y-112352D01*
X127542Y-112376D01*
X127519Y-112400D01*
X127471Y-112471D01*
X127447Y-112567D01*
X127447Y-112757D01*
X127471Y-112805D01*
X127495Y-112829D01*
X127542Y-112852D01*
X127638Y-112852D01*
X127685Y-112829D01*
X127709Y-112805D01*
X127733Y-112757D01*
X127733Y-112638D01*
X127709Y-112590D01*
X127685Y-112567D01*
X127638Y-112543D01*
X127542Y-112543D01*
X127495Y-112567D01*
X127471Y-112590D01*
X127447Y-112638D01*
X149893Y-04052D02*
X150227Y-04052D01*
X150012Y-04552D01*
X149893Y-112352D02*
X150227Y-112352D01*
X150012Y-112852D01*
X04000Y-25800D02*
X04700Y-25800D01*
X04231Y-14960D02*
X04469Y-14960D01*
X04184Y-15102D02*
X04350Y-14602D01*
X04517Y-15102D01*
X161350Y-25800D02*
X160650Y-25800D01*
X160881Y-14960D02*
X161119Y-14960D01*
X160834Y-15102D02*
X161000Y-14602D01*
X161167Y-15102D01*
X04000Y-47600D02*
X04700Y-47600D01*
X04386Y-36640D02*
X04457Y-36664D01*
X04481Y-36688D01*
X04505Y-36736D01*
X04505Y-36807D01*
X04481Y-36855D01*
X04457Y-36879D01*
X04410Y-36902D01*
X04219Y-36902D01*
X04219Y-36402D01*
X04386Y-36402D01*
X04433Y-36426D01*
X04457Y-36450D01*
X04481Y-36498D01*
X04481Y-36545D01*
X04457Y-36593D01*
X04433Y-36617D01*
X04386Y-36640D01*
X04219Y-36640D01*
X161350Y-47600D02*
X160650Y-47600D01*
X161036Y-36640D02*
X161107Y-36664D01*
X161131Y-36688D01*
X161155Y-36736D01*
X161155Y-36807D01*
X161131Y-36855D01*
X161107Y-36879D01*
X161060Y-36902D01*
X160869Y-36902D01*
X160869Y-36402D01*
X161036Y-36402D01*
X161083Y-36426D01*
X161107Y-36450D01*
X161131Y-36498D01*
X161131Y-36545D01*
X161107Y-36593D01*
X161083Y-36617D01*
X161036Y-36640D01*
X160869Y-36640D01*
X04000Y-69400D02*
X04700Y-69400D01*
X04505Y-58655D02*
X04481Y-58679D01*
X04410Y-58702D01*
X04362Y-58702D01*
X04290Y-58679D01*
X04243Y-58631D01*
X04219Y-58583D01*
X04195Y-58488D01*
X04195Y-58417D01*
X04219Y-58321D01*
X04243Y-58274D01*
X04290Y-58226D01*
X04362Y-58202D01*
X04410Y-58202D01*
X04481Y-58226D01*
X04505Y-58250D01*
X161350Y-69400D02*
X160650Y-69400D01*
X161155Y-58655D02*
X161131Y-58679D01*
X161060Y-58702D01*
X161012Y-58702D01*
X160940Y-58679D01*
X160893Y-58631D01*
X160869Y-58583D01*
X160845Y-58488D01*
X160845Y-58417D01*
X160869Y-58321D01*
X160893Y-58274D01*
X160940Y-58226D01*
X161012Y-58202D01*
X161060Y-58202D01*
X161131Y-58226D01*
X161155Y-58250D01*
X04000Y-91200D02*
X04700Y-91200D01*
X04219Y-80502D02*
X04219Y-80002D01*
X04338Y-80002D01*
X04410Y-80026D01*
X04457Y-80074D01*
X04481Y-80121D01*
X04505Y-80217D01*
X04505Y-80288D01*
X04481Y-80383D01*
X04457Y-80431D01*
X04410Y-80479D01*
X04338Y-80502D01*
X04219Y-80502D01*
X161350Y-91200D02*
X160650Y-91200D01*
X160869Y-80502D02*
X160869Y-80002D01*
X160988Y-80002D01*
X161060Y-80026D01*
X161107Y-80074D01*
X161131Y-80121D01*
X161155Y-80217D01*
X161155Y-80288D01*
X161131Y-80383D01*
X161107Y-80431D01*
X161060Y-80479D01*
X160988Y-80502D01*
X160869Y-80502D01*
X04243Y-102040D02*
X04410Y-102040D01*
X04481Y-102302D02*
X04243Y-102302D01*
X04243Y-101802D01*
X04481Y-101802D01*
X160893Y-102040D02*
X161060Y-102040D01*
X161131Y-102302D02*
X160893Y-102302D01*
X160893Y-101802D01*
X161131Y-101802D01*
G54D11*
X127793Y-110743D02*
X127793Y-110143D01*
X127936Y-110143D01*
X128021Y-110171D01*
X128079Y-110229D01*
X128107Y-110286D01*
X128136Y-110400D01*
X128136Y-110486D01*
X128107Y-110600D01*
X128079Y-110657D01*
X128021Y-110714D01*
X127936Y-110743D01*
X127793Y-110743D01*
X128650Y-110743D02*
X128650Y-110429D01*
X128621Y-110371D01*
X128564Y-110343D01*
X128450Y-110343D01*
X128393Y-110371D01*
X128650Y-110714D02*
X128593Y-110743D01*
X128450Y-110743D01*
X128393Y-110714D01*
X128364Y-110657D01*
X128364Y-110600D01*
X128393Y-110543D01*
X128450Y-110514D01*
X128593Y-110514D01*
X128650Y-110486D01*
X128850Y-110343D02*
X129079Y-110343D01*
X128936Y-110143D02*
X128936Y-110657D01*
X128964Y-110714D01*
X129022Y-110743D01*
X129079Y-110743D01*
X129507Y-110714D02*
X129450Y-110743D01*
X129336Y-110743D01*
X129279Y-110714D01*
X129250Y-110657D01*
X129250Y-110429D01*
X129279Y-110371D01*
X129336Y-110343D01*
X129450Y-110343D01*
X129507Y-110371D01*
X129536Y-110429D01*
X129536Y-110486D01*
X129250Y-110543D01*
X129793Y-110686D02*
X129821Y-110714D01*
X129793Y-110743D01*
X129764Y-110714D01*
X129793Y-110686D01*
X129793Y-110743D01*
X129793Y-110371D02*
X129821Y-110400D01*
X129793Y-110429D01*
X129764Y-110400D01*
X129793Y-110371D01*
X129793Y-110429D01*
X130507Y-110200D02*
X130536Y-110171D01*
X130593Y-110143D01*
X130736Y-110143D01*
X130793Y-110171D01*
X130822Y-110200D01*
X130850Y-110257D01*
X130850Y-110314D01*
X130822Y-110400D01*
X130479Y-110743D01*
X130850Y-110743D01*
X131135Y-110743D02*
X131250Y-110743D01*
X131307Y-110714D01*
X131335Y-110686D01*
X131393Y-110600D01*
X131421Y-110486D01*
X131421Y-110257D01*
X131393Y-110200D01*
X131364Y-110171D01*
X131307Y-110143D01*
X131193Y-110143D01*
X131135Y-110171D01*
X131107Y-110200D01*
X131078Y-110257D01*
X131078Y-110400D01*
X131107Y-110457D01*
X131135Y-110486D01*
X131193Y-110514D01*
X131307Y-110514D01*
X131364Y-110486D01*
X131393Y-110457D01*
X131421Y-110400D01*
X132135Y-110343D02*
X132135Y-110857D01*
X132106Y-110914D01*
X132049Y-110943D01*
X132021Y-110943D01*
X132135Y-110143D02*
X132106Y-110171D01*
X132135Y-110200D01*
X132163Y-110171D01*
X132135Y-110143D01*
X132135Y-110200D01*
X132678Y-110343D02*
X132678Y-110743D01*
X132421Y-110343D02*
X132421Y-110657D01*
X132449Y-110714D01*
X132507Y-110743D01*
X132592Y-110743D01*
X132649Y-110714D01*
X132678Y-110686D01*
X133050Y-110743D02*
X132992Y-110714D01*
X132964Y-110657D01*
X132964Y-110143D01*
X133706Y-110200D02*
X133735Y-110171D01*
X133792Y-110143D01*
X133935Y-110143D01*
X133992Y-110171D01*
X134021Y-110200D01*
X134049Y-110257D01*
X134049Y-110314D01*
X134021Y-110400D01*
X133678Y-110743D01*
X134049Y-110743D01*
X134420Y-110143D02*
X134477Y-110143D01*
X134534Y-110171D01*
X134563Y-110200D01*
X134592Y-110257D01*
X134620Y-110371D01*
X134620Y-110514D01*
X134592Y-110629D01*
X134563Y-110686D01*
X134534Y-110714D01*
X134477Y-110743D01*
X134420Y-110743D01*
X134363Y-110714D01*
X134334Y-110686D01*
X134306Y-110629D01*
X134277Y-110514D01*
X134277Y-110371D01*
X134306Y-110257D01*
X134334Y-110200D01*
X134363Y-110171D01*
X134420Y-110143D01*
X135191Y-110743D02*
X134848Y-110743D01*
X135020Y-110743D02*
X135020Y-110143D01*
X134963Y-110229D01*
X134905Y-110286D01*
X134848Y-110314D01*
X135762Y-110743D02*
X135419Y-110743D01*
X135591Y-110743D02*
X135591Y-110143D01*
X135534Y-110229D01*
X135476Y-110286D01*
X135419Y-110314D01*
G54D10*
X119393Y-111943D02*
X119393Y-111343D01*
X119736Y-111943D02*
X119479Y-111600D01*
X119736Y-111343D02*
X119393Y-111686D01*
X119993Y-111943D02*
X119993Y-111543D01*
X119993Y-111343D02*
X119964Y-111371D01*
X119993Y-111400D01*
X120021Y-111371D01*
X119993Y-111343D01*
X119993Y-111400D01*
X120622Y-111886D02*
X120593Y-111914D01*
X120507Y-111943D01*
X120450Y-111943D01*
X120365Y-111914D01*
X120307Y-111857D01*
X120279Y-111800D01*
X120250Y-111686D01*
X120250Y-111600D01*
X120279Y-111486D01*
X120307Y-111429D01*
X120365Y-111371D01*
X120450Y-111343D01*
X120507Y-111343D01*
X120593Y-111371D01*
X120622Y-111400D01*
X121136Y-111943D02*
X121136Y-111629D01*
X121107Y-111571D01*
X121050Y-111543D01*
X120936Y-111543D01*
X120879Y-111571D01*
X121136Y-111914D02*
X121079Y-111943D01*
X120936Y-111943D01*
X120879Y-111914D01*
X120850Y-111857D01*
X120850Y-111800D01*
X120879Y-111743D01*
X120936Y-111714D01*
X121079Y-111714D01*
X121136Y-111686D01*
X121679Y-111943D02*
X121679Y-111343D01*
X121679Y-111914D02*
X121622Y-111943D01*
X121508Y-111943D01*
X121450Y-111914D01*
X121422Y-111886D01*
X121393Y-111829D01*
X121393Y-111657D01*
X121422Y-111600D01*
X121450Y-111571D01*
X121508Y-111543D01*
X121622Y-111543D01*
X121679Y-111571D01*
X122422Y-111629D02*
X122622Y-111629D01*
X122708Y-111943D02*
X122422Y-111943D01*
X122422Y-111343D01*
X122708Y-111343D01*
X122965Y-111886D02*
X122993Y-111914D01*
X122965Y-111943D01*
X122936Y-111914D01*
X122965Y-111886D01*
X122965Y-111943D01*
X123251Y-111943D02*
X123251Y-111343D01*
X123394Y-111343D01*
X123479Y-111371D01*
X123537Y-111429D01*
X123565Y-111486D01*
X123594Y-111600D01*
X123594Y-111686D01*
X123565Y-111800D01*
X123537Y-111857D01*
X123479Y-111914D01*
X123394Y-111943D01*
X123251Y-111943D01*
X123851Y-111886D02*
X123879Y-111914D01*
X123851Y-111943D01*
X123822Y-111914D01*
X123851Y-111886D01*
X123851Y-111943D01*
X124108Y-111771D02*
X124394Y-111771D01*
X124051Y-111943D02*
X124251Y-111343D01*
X124451Y-111943D01*
X124651Y-111886D02*
X124679Y-111914D01*
X124651Y-111943D01*
X124622Y-111914D01*
X124651Y-111886D01*
X124651Y-111943D01*
G54D11*
X152936Y-110743D02*
X152736Y-110457D01*
X152593Y-110743D02*
X152593Y-110143D01*
X152821Y-110143D01*
X152879Y-110171D01*
X152907Y-110200D01*
X152936Y-110257D01*
X152936Y-110343D01*
X152907Y-110400D01*
X152879Y-110429D01*
X152821Y-110457D01*
X152593Y-110457D01*
X153421Y-110714D02*
X153364Y-110743D01*
X153250Y-110743D01*
X153193Y-110714D01*
X153164Y-110657D01*
X153164Y-110429D01*
X153193Y-110371D01*
X153250Y-110343D01*
X153364Y-110343D01*
X153421Y-110371D01*
X153450Y-110429D01*
X153450Y-110486D01*
X153164Y-110543D01*
X153650Y-110343D02*
X153793Y-110743D01*
X153935Y-110343D01*
X154164Y-110686D02*
X154192Y-110714D01*
X154164Y-110743D01*
X154135Y-110714D01*
X154164Y-110686D01*
X154164Y-110743D01*
X154164Y-110371D02*
X154192Y-110400D01*
X154164Y-110429D01*
X154135Y-110400D01*
X154164Y-110371D01*
X154164Y-110429D01*
X155221Y-110743D02*
X154878Y-110743D01*
X155050Y-110743D02*
X155050Y-110143D01*
X154993Y-110229D01*
X154935Y-110286D01*
X154878Y-110314D01*
X155478Y-110686D02*
X155506Y-110714D01*
X155478Y-110743D01*
X155449Y-110714D01*
X155478Y-110686D01*
X155478Y-110743D01*
X156078Y-110743D02*
X155735Y-110743D01*
X155907Y-110743D02*
X155907Y-110143D01*
X155850Y-110229D01*
X155792Y-110286D01*
X155735Y-110314D01*
X156449Y-110143D02*
X156506Y-110143D01*
X156563Y-110171D01*
X156592Y-110200D01*
X156621Y-110257D01*
X156649Y-110371D01*
X156649Y-110514D01*
X156621Y-110629D01*
X156592Y-110686D01*
X156563Y-110714D01*
X156506Y-110743D01*
X156449Y-110743D01*
X156392Y-110714D01*
X156363Y-110686D01*
X156335Y-110629D01*
X156306Y-110514D01*
X156306Y-110371D01*
X156335Y-110257D01*
X156363Y-110200D01*
X156392Y-110171D01*
X156449Y-110143D01*
G54D10*
X119364Y-110714D02*
X119450Y-110743D01*
X119593Y-110743D01*
X119650Y-110714D01*
X119679Y-110686D01*
X119707Y-110629D01*
X119707Y-110571D01*
X119679Y-110514D01*
X119650Y-110486D01*
X119593Y-110457D01*
X119479Y-110429D01*
X119421Y-110400D01*
X119393Y-110371D01*
X119364Y-110314D01*
X119364Y-110257D01*
X119393Y-110200D01*
X119421Y-110171D01*
X119479Y-110143D01*
X119621Y-110143D01*
X119707Y-110171D01*
X119964Y-110743D02*
X119964Y-110343D01*
X119964Y-110143D02*
X119935Y-110171D01*
X119964Y-110200D01*
X119992Y-110171D01*
X119964Y-110143D01*
X119964Y-110200D01*
X120193Y-110343D02*
X120507Y-110343D01*
X120193Y-110743D01*
X120507Y-110743D01*
X120964Y-110714D02*
X120907Y-110743D01*
X120793Y-110743D01*
X120736Y-110714D01*
X120707Y-110657D01*
X120707Y-110429D01*
X120736Y-110371D01*
X120793Y-110343D01*
X120907Y-110343D01*
X120964Y-110371D01*
X120993Y-110429D01*
X120993Y-110486D01*
X120707Y-110543D01*
X121250Y-110686D02*
X121278Y-110714D01*
X121250Y-110743D01*
X121221Y-110714D01*
X121250Y-110686D01*
X121250Y-110743D01*
X121250Y-110371D02*
X121278Y-110400D01*
X121250Y-110429D01*
X121221Y-110400D01*
X121250Y-110371D01*
X121250Y-110429D01*
X121964Y-110571D02*
X122250Y-110571D01*
X121907Y-110743D02*
X122107Y-110143D01*
X122307Y-110743D01*
X122450Y-110143D02*
X122821Y-110143D01*
X122621Y-110371D01*
X122707Y-110371D01*
X122764Y-110400D01*
X122793Y-110429D01*
X122821Y-110486D01*
X122821Y-110629D01*
X122793Y-110686D01*
X122764Y-110714D01*
X122707Y-110743D01*
X122535Y-110743D01*
X122478Y-110714D01*
X122450Y-110686D01*
X152593Y-111943D02*
X152593Y-111343D01*
X153136Y-111943D02*
X153136Y-111343D01*
X153136Y-111914D02*
X153079Y-111943D01*
X152965Y-111943D01*
X152907Y-111914D01*
X152879Y-111886D01*
X152850Y-111829D01*
X152850Y-111657D01*
X152879Y-111600D01*
X152907Y-111571D01*
X152965Y-111543D01*
X153079Y-111543D01*
X153136Y-111571D01*
X153422Y-111886D02*
X153450Y-111914D01*
X153422Y-111943D01*
X153393Y-111914D01*
X153422Y-111886D01*
X153422Y-111943D01*
X153422Y-111571D02*
X153450Y-111600D01*
X153422Y-111629D01*
X153393Y-111600D01*
X153422Y-111571D01*
X153422Y-111629D01*
X154479Y-111943D02*
X154136Y-111943D01*
X154308Y-111943D02*
X154308Y-111343D01*
X154251Y-111429D01*
X154193Y-111486D01*
X154136Y-111514D01*
X155164Y-111314D02*
X154650Y-112086D01*
X155679Y-111943D02*
X155336Y-111943D01*
X155508Y-111943D02*
X155508Y-111343D01*
X155451Y-111429D01*
X155393Y-111486D01*
X155336Y-111514D01*
G54D11*
X119307Y-108943D02*
X119650Y-108943D01*
X119479Y-109543D02*
X119479Y-108943D01*
X119850Y-109543D02*
X119850Y-109143D01*
X119850Y-108943D02*
X119821Y-108971D01*
X119850Y-109000D01*
X119878Y-108971D01*
X119850Y-108943D01*
X119850Y-109000D01*
X120050Y-109143D02*
X120279Y-109143D01*
X120136Y-108943D02*
X120136Y-109457D01*
X120164Y-109514D01*
X120222Y-109543D01*
X120279Y-109543D01*
X120565Y-109543D02*
X120507Y-109514D01*
X120479Y-109457D01*
X120479Y-108943D01*
X121021Y-109514D02*
X120964Y-109543D01*
X120850Y-109543D01*
X120793Y-109514D01*
X120764Y-109457D01*
X120764Y-109229D01*
X120793Y-109171D01*
X120850Y-109143D01*
X120964Y-109143D01*
X121021Y-109171D01*
X121050Y-109229D01*
X121050Y-109286D01*
X120764Y-109343D01*
X121307Y-109486D02*
X121335Y-109514D01*
X121307Y-109543D01*
X121278Y-109514D01*
X121307Y-109486D01*
X121307Y-109543D01*
X121307Y-109171D02*
X121335Y-109200D01*
X121307Y-109229D01*
X121278Y-109200D01*
X121307Y-109171D01*
X121307Y-109229D01*
X122250Y-109229D02*
X122336Y-109257D01*
X122364Y-109286D01*
X122393Y-109343D01*
X122393Y-109429D01*
X122364Y-109486D01*
X122336Y-109514D01*
X122278Y-109543D01*
X122050Y-109543D01*
X122050Y-108943D01*
X122250Y-108943D01*
X122307Y-108971D01*
X122336Y-109000D01*
X122364Y-109057D01*
X122364Y-109114D01*
X122336Y-109171D01*
X122307Y-109200D01*
X122250Y-109229D01*
X122050Y-109229D01*
X122878Y-109514D02*
X122821Y-109543D01*
X122707Y-109543D01*
X122650Y-109514D01*
X122621Y-109457D01*
X122621Y-109229D01*
X122650Y-109171D01*
X122707Y-109143D01*
X122821Y-109143D01*
X122878Y-109171D01*
X122907Y-109229D01*
X122907Y-109286D01*
X122621Y-109343D01*
X123135Y-109514D02*
X123192Y-109543D01*
X123307Y-109543D01*
X123364Y-109514D01*
X123392Y-109457D01*
X123392Y-109429D01*
X123364Y-109371D01*
X123307Y-109343D01*
X123221Y-109343D01*
X123164Y-109314D01*
X123135Y-109257D01*
X123135Y-109229D01*
X123164Y-109171D01*
X123221Y-109143D01*
X123307Y-109143D01*
X123364Y-109171D01*
X123564Y-109143D02*
X123793Y-109143D01*
X123650Y-108943D02*
X123650Y-109457D01*
X123678Y-109514D01*
X123736Y-109543D01*
X123793Y-109543D01*
X123993Y-109543D02*
X123993Y-108943D01*
X124336Y-109543D02*
X124079Y-109200D01*
X124336Y-108943D02*
X123993Y-109286D01*
X124593Y-109543D02*
X124593Y-109143D01*
X124593Y-108943D02*
X124564Y-108971D01*
X124593Y-109000D01*
X124621Y-108971D01*
X124593Y-108943D01*
X124593Y-109000D01*
X124793Y-109143D02*
X125022Y-109143D01*
X124879Y-108943D02*
X124879Y-109457D01*
X124907Y-109514D01*
X124965Y-109543D01*
X125022Y-109543D01*
X125479Y-109514D02*
X125422Y-109543D01*
X125308Y-109543D01*
X125250Y-109514D01*
X125222Y-109486D01*
X125193Y-109429D01*
X125193Y-109257D01*
X125222Y-109200D01*
X125250Y-109171D01*
X125308Y-109143D01*
X125422Y-109143D01*
X125479Y-109171D01*
X125736Y-109543D02*
X125736Y-108943D01*
X125993Y-109543D02*
X125993Y-109229D01*
X125964Y-109171D01*
X125907Y-109143D01*
X125822Y-109143D01*
X125764Y-109171D01*
X125736Y-109200D01*
X126507Y-109514D02*
X126450Y-109543D01*
X126336Y-109543D01*
X126279Y-109514D01*
X126250Y-109457D01*
X126250Y-109229D01*
X126279Y-109171D01*
X126336Y-109143D01*
X126450Y-109143D01*
X126507Y-109171D01*
X126536Y-109229D01*
X126536Y-109286D01*
X126250Y-109343D01*
X126793Y-109143D02*
X126793Y-109543D01*
X126793Y-109200D02*
X126821Y-109171D01*
X126879Y-109143D01*
X126964Y-109143D01*
X127021Y-109171D01*
X127050Y-109229D01*
X127050Y-109543D01*
X127622Y-109543D02*
X127336Y-109543D01*
X127336Y-108943D01*
X127822Y-109543D02*
X127822Y-109143D01*
X127822Y-108943D02*
X127793Y-108971D01*
X127822Y-109000D01*
X127850Y-108971D01*
X127822Y-108943D01*
X127822Y-109000D01*
X128365Y-109143D02*
X128365Y-109629D01*
X128336Y-109686D01*
X128308Y-109714D01*
X128251Y-109743D01*
X128165Y-109743D01*
X128108Y-109714D01*
X128365Y-109514D02*
X128308Y-109543D01*
X128194Y-109543D01*
X128136Y-109514D01*
X128108Y-109486D01*
X128079Y-109429D01*
X128079Y-109257D01*
X128108Y-109200D01*
X128136Y-109171D01*
X128194Y-109143D01*
X128308Y-109143D01*
X128365Y-109171D01*
X128651Y-109543D02*
X128651Y-108943D01*
X128908Y-109543D02*
X128908Y-109229D01*
X128879Y-109171D01*
X128822Y-109143D01*
X128737Y-109143D01*
X128679Y-109171D01*
X128651Y-109200D01*
X129108Y-109143D02*
X129337Y-109143D01*
X129194Y-108943D02*
X129194Y-109457D01*
X129222Y-109514D01*
X129280Y-109543D01*
X129337Y-109543D01*
X129508Y-109514D02*
X129565Y-109543D01*
X129680Y-109543D01*
X129737Y-109514D01*
X129765Y-109457D01*
X129765Y-109429D01*
X129737Y-109371D01*
X129680Y-109343D01*
X129594Y-109343D01*
X129537Y-109314D01*
X129508Y-109257D01*
X129508Y-109229D01*
X129537Y-109171D01*
X129594Y-109143D01*
X129680Y-109143D01*
X129737Y-109171D01*
X130023Y-109229D02*
X130223Y-109229D01*
X130309Y-109543D02*
X130023Y-109543D01*
X130023Y-108943D01*
X130309Y-108943D01*
X130509Y-109143D02*
X130652Y-109543D01*
X130794Y-109143D01*
X131251Y-109514D02*
X131194Y-109543D01*
X131080Y-109543D01*
X131023Y-109514D01*
X130994Y-109457D01*
X130994Y-109229D01*
X131023Y-109171D01*
X131080Y-109143D01*
X131194Y-109143D01*
X131251Y-109171D01*
X131280Y-109229D01*
X131280Y-109286D01*
X130994Y-109343D01*
X131537Y-109543D02*
X131537Y-109143D01*
X131537Y-109257D02*
X131565Y-109200D01*
X131594Y-109171D01*
X131651Y-109143D01*
X131708Y-109143D01*
X132079Y-109771D02*
X132051Y-109743D01*
X131994Y-109657D01*
X131965Y-109600D01*
X131936Y-109514D01*
X131908Y-109371D01*
X131908Y-109257D01*
X131936Y-109114D01*
X131965Y-109029D01*
X131994Y-108971D01*
X132051Y-108886D01*
X132079Y-108857D01*
X132222Y-109143D02*
X132451Y-109143D01*
X132308Y-108943D02*
X132308Y-109457D01*
X132336Y-109514D01*
X132394Y-109543D01*
X132451Y-109543D01*
X132651Y-109543D02*
X132651Y-109143D01*
X132651Y-109200D02*
X132679Y-109171D01*
X132737Y-109143D01*
X132822Y-109143D01*
X132879Y-109171D01*
X132908Y-109229D01*
X132908Y-109543D01*
X132908Y-109229D02*
X132937Y-109171D01*
X132994Y-109143D01*
X133079Y-109143D01*
X133137Y-109171D01*
X133165Y-109229D01*
X133165Y-109543D01*
X133394Y-109771D02*
X133422Y-109743D01*
X133479Y-109657D01*
X133508Y-109600D01*
X133537Y-109514D01*
X133565Y-109371D01*
X133565Y-109257D01*
X133537Y-109114D01*
X133508Y-109029D01*
X133479Y-108971D01*
X133422Y-108886D01*
X133394Y-108857D01*
G54D10*
X119593Y-106829D02*
X119393Y-106829D01*
X119393Y-107143D02*
X119393Y-106543D01*
X119679Y-106543D01*
X119907Y-107143D02*
X119907Y-106743D01*
X119907Y-106543D02*
X119878Y-106571D01*
X119907Y-106600D01*
X119935Y-106571D01*
X119907Y-106543D01*
X119907Y-106600D01*
X120279Y-107143D02*
X120221Y-107114D01*
X120193Y-107057D01*
X120193Y-106543D01*
X120735Y-107114D02*
X120678Y-107143D01*
X120564Y-107143D01*
X120507Y-107114D01*
X120478Y-107057D01*
X120478Y-106829D01*
X120507Y-106771D01*
X120564Y-106743D01*
X120678Y-106743D01*
X120735Y-106771D01*
X120764Y-106829D01*
X120764Y-106886D01*
X120478Y-106943D01*
X121021Y-107086D02*
X121049Y-107114D01*
X121021Y-107143D01*
X120992Y-107114D01*
X121021Y-107086D01*
X121021Y-107143D01*
X121021Y-106771D02*
X121049Y-106800D01*
X121021Y-106829D01*
X120992Y-106800D01*
X121021Y-106771D01*
X121021Y-106829D01*
X121764Y-107143D02*
X121764Y-106543D01*
X121821Y-106914D02*
X121992Y-107143D01*
X121992Y-106743D02*
X121764Y-106971D01*
X122250Y-107143D02*
X122250Y-106743D01*
X122250Y-106543D02*
X122221Y-106571D01*
X122250Y-106600D01*
X122278Y-106571D01*
X122250Y-106543D01*
X122250Y-106600D01*
X122450Y-106743D02*
X122679Y-106743D01*
X122536Y-106543D02*
X122536Y-107057D01*
X122564Y-107114D01*
X122622Y-107143D01*
X122679Y-107143D01*
X123136Y-107114D02*
X123079Y-107143D01*
X122965Y-107143D01*
X122907Y-107114D01*
X122879Y-107086D01*
X122850Y-107029D01*
X122850Y-106857D01*
X122879Y-106800D01*
X122907Y-106771D01*
X122965Y-106743D01*
X123079Y-106743D01*
X123136Y-106771D01*
X123393Y-107143D02*
X123393Y-106543D01*
X123650Y-107143D02*
X123650Y-106829D01*
X123621Y-106771D01*
X123564Y-106743D01*
X123479Y-106743D01*
X123421Y-106771D01*
X123393Y-106800D01*
X124164Y-107114D02*
X124107Y-107143D01*
X123993Y-107143D01*
X123936Y-107114D01*
X123907Y-107057D01*
X123907Y-106829D01*
X123936Y-106771D01*
X123993Y-106743D01*
X124107Y-106743D01*
X124164Y-106771D01*
X124193Y-106829D01*
X124193Y-106886D01*
X123907Y-106943D01*
X124450Y-106743D02*
X124450Y-107143D01*
X124450Y-106800D02*
X124478Y-106771D01*
X124536Y-106743D01*
X124621Y-106743D01*
X124678Y-106771D01*
X124707Y-106829D01*
X124707Y-107143D01*
X124850Y-107200D02*
X125307Y-107200D01*
X125536Y-107143D02*
X125478Y-107114D01*
X125450Y-107057D01*
X125450Y-106543D01*
X125764Y-107143D02*
X125764Y-106743D01*
X125764Y-106543D02*
X125735Y-106571D01*
X125764Y-106600D01*
X125792Y-106571D01*
X125764Y-106543D01*
X125764Y-106600D01*
X126307Y-106743D02*
X126307Y-107229D01*
X126278Y-107286D01*
X126250Y-107314D01*
X126193Y-107343D01*
X126107Y-107343D01*
X126050Y-107314D01*
X126307Y-107114D02*
X126250Y-107143D01*
X126136Y-107143D01*
X126078Y-107114D01*
X126050Y-107086D01*
X126021Y-107029D01*
X126021Y-106857D01*
X126050Y-106800D01*
X126078Y-106771D01*
X126136Y-106743D01*
X126250Y-106743D01*
X126307Y-106771D01*
X126593Y-107143D02*
X126593Y-106543D01*
X126850Y-107143D02*
X126850Y-106829D01*
X126821Y-106771D01*
X126764Y-106743D01*
X126679Y-106743D01*
X126621Y-106771D01*
X126593Y-106800D01*
X127050Y-106743D02*
X127279Y-106743D01*
X127136Y-106543D02*
X127136Y-107057D01*
X127164Y-107114D01*
X127222Y-107143D01*
X127279Y-107143D01*
X127450Y-107114D02*
X127507Y-107143D01*
X127622Y-107143D01*
X127679Y-107114D01*
X127707Y-107057D01*
X127707Y-107029D01*
X127679Y-106971D01*
X127622Y-106943D01*
X127536Y-106943D01*
X127479Y-106914D01*
X127450Y-106857D01*
X127450Y-106829D01*
X127479Y-106771D01*
X127536Y-106743D01*
X127622Y-106743D01*
X127679Y-106771D01*
X127965Y-107086D02*
X127993Y-107114D01*
X127965Y-107143D01*
X127936Y-107114D01*
X127965Y-107086D01*
X127965Y-107143D01*
X128251Y-107143D02*
X128251Y-106543D01*
X128251Y-106771D02*
X128308Y-106743D01*
X128422Y-106743D01*
X128479Y-106771D01*
X128508Y-106800D01*
X128537Y-106857D01*
X128537Y-107029D01*
X128508Y-107086D01*
X128479Y-107114D01*
X128422Y-107143D01*
X128308Y-107143D01*
X128251Y-107114D01*
X128794Y-107143D02*
X128794Y-106743D01*
X128794Y-106857D02*
X128822Y-106800D01*
X128851Y-106771D01*
X128908Y-106743D01*
X128965Y-106743D01*
X129422Y-107143D02*
X129422Y-106543D01*
X129422Y-107114D02*
X129365Y-107143D01*
X129251Y-107143D01*
X129193Y-107114D01*
X129165Y-107086D01*
X129136Y-107029D01*
X129136Y-106857D01*
X129165Y-106800D01*
X129193Y-106771D01*
X129251Y-106743D01*
X129365Y-106743D01*
X129422Y-106771D01*
X119364Y-108314D02*
X119450Y-108343D01*
X119593Y-108343D01*
X119650Y-108314D01*
X119679Y-108286D01*
X119707Y-108229D01*
X119707Y-108171D01*
X119679Y-108114D01*
X119650Y-108086D01*
X119593Y-108057D01*
X119479Y-108029D01*
X119421Y-108000D01*
X119393Y-107971D01*
X119364Y-107914D01*
X119364Y-107857D01*
X119393Y-107800D01*
X119421Y-107771D01*
X119479Y-107743D01*
X119621Y-107743D01*
X119707Y-107771D01*
X119964Y-108343D02*
X119964Y-107743D01*
X120221Y-108343D02*
X120221Y-108029D01*
X120192Y-107971D01*
X120135Y-107943D01*
X120050Y-107943D01*
X119992Y-107971D01*
X119964Y-108000D01*
X120735Y-108314D02*
X120678Y-108343D01*
X120564Y-108343D01*
X120507Y-108314D01*
X120478Y-108257D01*
X120478Y-108029D01*
X120507Y-107971D01*
X120564Y-107943D01*
X120678Y-107943D01*
X120735Y-107971D01*
X120764Y-108029D01*
X120764Y-108086D01*
X120478Y-108143D01*
X121249Y-108314D02*
X121192Y-108343D01*
X121078Y-108343D01*
X121021Y-108314D01*
X120992Y-108257D01*
X120992Y-108029D01*
X121021Y-107971D01*
X121078Y-107943D01*
X121192Y-107943D01*
X121249Y-107971D01*
X121278Y-108029D01*
X121278Y-108086D01*
X120992Y-108143D01*
X121449Y-107943D02*
X121678Y-107943D01*
X121535Y-107743D02*
X121535Y-108257D01*
X121563Y-108314D01*
X121621Y-108343D01*
X121678Y-108343D01*
X121878Y-108286D02*
X121906Y-108314D01*
X121878Y-108343D01*
X121849Y-108314D01*
X121878Y-108286D01*
X121878Y-108343D01*
X121878Y-107971D02*
X121906Y-108000D01*
X121878Y-108029D01*
X121849Y-108000D01*
X121878Y-107971D01*
X121878Y-108029D01*
X122935Y-108343D02*
X122592Y-108343D01*
X122764Y-108343D02*
X122764Y-107743D01*
X122707Y-107829D01*
X122649Y-107886D01*
X122592Y-107914D01*
X123620Y-107714D02*
X123106Y-108486D01*
X124135Y-108343D02*
X123792Y-108343D01*
X123964Y-108343D02*
X123964Y-107743D01*
X123907Y-107829D01*
X123849Y-107886D01*
X123792Y-107914D01*
G54D11*
X119393Y-105943D02*
X119393Y-105343D01*
X119593Y-105771D01*
X119793Y-105343D01*
X119793Y-105943D01*
X120022Y-105543D02*
X120165Y-105943D01*
X120307Y-105543D02*
X120165Y-105943D01*
X120107Y-106086D01*
X120079Y-106114D01*
X120022Y-106143D01*
X120964Y-105400D02*
X120993Y-105371D01*
X121050Y-105343D01*
X121193Y-105343D01*
X121250Y-105371D01*
X121279Y-105400D01*
X121307Y-105457D01*
X121307Y-105514D01*
X121279Y-105600D01*
X120936Y-105943D01*
X121307Y-105943D01*
X121564Y-105543D02*
X121564Y-106143D01*
X121850Y-105857D02*
X121878Y-105914D01*
X121935Y-105943D01*
X121564Y-105857D02*
X121592Y-105914D01*
X121650Y-105943D01*
X121764Y-105943D01*
X121821Y-105914D01*
X121850Y-105857D01*
X121850Y-105543D01*
X122393Y-105629D02*
X122193Y-105629D01*
X122193Y-105943D02*
X122193Y-105343D01*
X122479Y-105343D01*
X123364Y-105629D02*
X123450Y-105657D01*
X123478Y-105686D01*
X123507Y-105743D01*
X123507Y-105829D01*
X123478Y-105886D01*
X123450Y-105914D01*
X123392Y-105943D01*
X123164Y-105943D01*
X123164Y-105343D01*
X123364Y-105343D01*
X123421Y-105371D01*
X123450Y-105400D01*
X123478Y-105457D01*
X123478Y-105514D01*
X123450Y-105571D01*
X123421Y-105600D01*
X123364Y-105629D01*
X123164Y-105629D01*
X123850Y-105943D02*
X123792Y-105914D01*
X123764Y-105857D01*
X123764Y-105343D01*
X124164Y-105943D02*
X124106Y-105914D01*
X124078Y-105886D01*
X124049Y-105829D01*
X124049Y-105657D01*
X124078Y-105600D01*
X124106Y-105571D01*
X124164Y-105543D01*
X124249Y-105543D01*
X124306Y-105571D01*
X124335Y-105600D01*
X124364Y-105657D01*
X124364Y-105829D01*
X124335Y-105886D01*
X124306Y-105914D01*
X124249Y-105943D01*
X124164Y-105943D01*
X124878Y-105543D02*
X124878Y-106029D01*
X124849Y-106086D01*
X124821Y-106114D01*
X124764Y-106143D01*
X124678Y-106143D01*
X124621Y-106114D01*
X124878Y-105914D02*
X124821Y-105943D01*
X124707Y-105943D01*
X124649Y-105914D01*
X124621Y-105886D01*
X124592Y-105829D01*
X124592Y-105657D01*
X124621Y-105600D01*
X124649Y-105571D01*
X124707Y-105543D01*
X124821Y-105543D01*
X124878Y-105571D01*
X118650Y-105100D02*
X118650Y-112300D01*
X118650Y-106300D02*
X160650Y-106300D01*
X118650Y-105100D02*
X160650Y-105100D01*
X118650Y-108700D02*
X160650Y-108700D01*
X151850Y-109900D02*
X151850Y-112300D01*
X118650Y-111100D02*
X160650Y-111100D01*
X118650Y-109900D02*
X160650Y-109900D01*
X125250Y-109900D02*
X125250Y-111100D01*
G54D12*
X84925Y-52240D02*
X84925Y-51985D01*
X84925Y-51985D02*
X85476Y-51985D01*
X85476Y-52240D02*
X85476Y-51985D01*
X84925Y-52240D02*
X85476Y-52240D01*
X84925Y-52820D02*
X84925Y-52564D01*
X84925Y-52564D02*
X85476Y-52564D01*
X85476Y-52820D02*
X85476Y-52564D01*
X84925Y-52820D02*
X85476Y-52820D01*
X85004Y-52478D02*
X85004Y-52322D01*
X85004Y-52322D02*
X85396Y-52322D01*
X85396Y-52478D02*
X85396Y-52322D01*
X85004Y-52478D02*
X85396Y-52478D01*
G54D13*
X85450Y-52561D02*
X85450Y-52239D01*
X84950Y-52561D02*
X84950Y-52239D01*
G54D14*
X85587Y-53176D02*
X85587Y-51624D01*
X85587Y-51624D02*
X84813Y-51624D01*
X84813Y-51624D02*
X84813Y-53176D01*
X84813Y-53176D02*
X85587Y-53176D01*
G54D12*
X87175Y-52560D02*
X87175Y-52815D01*
X87175Y-52815D02*
X86624Y-52815D01*
X86624Y-52560D02*
X86624Y-52815D01*
X87175Y-52560D02*
X86624Y-52560D01*
X87175Y-51980D02*
X87175Y-52236D01*
X87175Y-52236D02*
X86624Y-52236D01*
X86624Y-51980D02*
X86624Y-52236D01*
X87175Y-51980D02*
X86624Y-51980D01*
X87096Y-52322D02*
X87096Y-52478D01*
X87096Y-52478D02*
X86704Y-52478D01*
X86704Y-52322D02*
X86704Y-52478D01*
X87096Y-52322D02*
X86704Y-52322D01*
G54D13*
X86650Y-52239D02*
X86650Y-52561D01*
X87150Y-52239D02*
X87150Y-52561D01*
G54D14*
X86513Y-51624D02*
X86513Y-53176D01*
X86513Y-53176D02*
X87287Y-53176D01*
X87287Y-53176D02*
X87287Y-51624D01*
X87287Y-51624D02*
X86513Y-51624D01*
G54D12*
X88075Y-52560D02*
X88075Y-52815D01*
X88075Y-52815D02*
X87524Y-52815D01*
X87524Y-52560D02*
X87524Y-52815D01*
X88075Y-52560D02*
X87524Y-52560D01*
X88075Y-51980D02*
X88075Y-52236D01*
X88075Y-52236D02*
X87524Y-52236D01*
X87524Y-51980D02*
X87524Y-52236D01*
X88075Y-51980D02*
X87524Y-51980D01*
X87996Y-52322D02*
X87996Y-52478D01*
X87996Y-52478D02*
X87604Y-52478D01*
X87604Y-52322D02*
X87604Y-52478D01*
X87996Y-52322D02*
X87604Y-52322D01*
G54D13*
X87550Y-52239D02*
X87550Y-52561D01*
X88050Y-52239D02*
X88050Y-52561D01*
G54D14*
X87413Y-51624D02*
X87413Y-53176D01*
X87413Y-53176D02*
X88187Y-53176D01*
X88187Y-53176D02*
X88187Y-51624D01*
X88187Y-51624D02*
X87413Y-51624D01*
G54D12*
X89225Y-52240D02*
X89225Y-51985D01*
X89225Y-51985D02*
X89776Y-51985D01*
X89776Y-52240D02*
X89776Y-51985D01*
X89225Y-52240D02*
X89776Y-52240D01*
X89225Y-52820D02*
X89225Y-52564D01*
X89225Y-52564D02*
X89776Y-52564D01*
X89776Y-52820D02*
X89776Y-52564D01*
X89225Y-52820D02*
X89776Y-52820D01*
X89304Y-52478D02*
X89304Y-52322D01*
X89304Y-52322D02*
X89696Y-52322D01*
X89696Y-52478D02*
X89696Y-52322D01*
X89304Y-52478D02*
X89696Y-52478D01*
G54D13*
X89750Y-52561D02*
X89750Y-52239D01*
X89250Y-52561D02*
X89250Y-52239D01*
G54D14*
X89887Y-53176D02*
X89887Y-51624D01*
X89887Y-51624D02*
X89113Y-51624D01*
X89113Y-51624D02*
X89113Y-53176D01*
X89113Y-53176D02*
X89887Y-53176D01*
G54D12*
X82675Y-52560D02*
X82675Y-52815D01*
X82675Y-52815D02*
X82124Y-52815D01*
X82124Y-52560D02*
X82124Y-52815D01*
X82675Y-52560D02*
X82124Y-52560D01*
X82675Y-51980D02*
X82675Y-52236D01*
X82675Y-52236D02*
X82124Y-52236D01*
X82124Y-51980D02*
X82124Y-52236D01*
X82675Y-51980D02*
X82124Y-51980D01*
X82596Y-52322D02*
X82596Y-52478D01*
X82596Y-52478D02*
X82204Y-52478D01*
X82204Y-52322D02*
X82204Y-52478D01*
X82596Y-52322D02*
X82204Y-52322D01*
G54D13*
X82150Y-52239D02*
X82150Y-52561D01*
X82650Y-52239D02*
X82650Y-52561D01*
G54D14*
X82013Y-51624D02*
X82013Y-53176D01*
X82013Y-53176D02*
X82787Y-53176D01*
X82787Y-53176D02*
X82787Y-51624D01*
X82787Y-51624D02*
X82013Y-51624D01*
G54D12*
X81225Y-52240D02*
X81225Y-51985D01*
X81225Y-51985D02*
X81776Y-51985D01*
X81776Y-52240D02*
X81776Y-51985D01*
X81225Y-52240D02*
X81776Y-52240D01*
X81225Y-52820D02*
X81225Y-52564D01*
X81225Y-52564D02*
X81776Y-52564D01*
X81776Y-52820D02*
X81776Y-52564D01*
X81225Y-52820D02*
X81776Y-52820D01*
X81304Y-52478D02*
X81304Y-52322D01*
X81304Y-52322D02*
X81696Y-52322D01*
X81696Y-52478D02*
X81696Y-52322D01*
X81304Y-52478D02*
X81696Y-52478D01*
G54D13*
X81750Y-52561D02*
X81750Y-52239D01*
X81250Y-52561D02*
X81250Y-52239D01*
G54D14*
X81887Y-53176D02*
X81887Y-51624D01*
X81887Y-51624D02*
X81113Y-51624D01*
X81113Y-51624D02*
X81113Y-53176D01*
X81113Y-53176D02*
X81887Y-53176D01*
G54D12*
X76725Y-52240D02*
X76725Y-51985D01*
X76725Y-51985D02*
X77276Y-51985D01*
X77276Y-52240D02*
X77276Y-51985D01*
X76725Y-52240D02*
X77276Y-52240D01*
X76725Y-52820D02*
X76725Y-52564D01*
X76725Y-52564D02*
X77276Y-52564D01*
X77276Y-52820D02*
X77276Y-52564D01*
X76725Y-52820D02*
X77276Y-52820D01*
X76804Y-52478D02*
X76804Y-52322D01*
X76804Y-52322D02*
X77196Y-52322D01*
X77196Y-52478D02*
X77196Y-52322D01*
X76804Y-52478D02*
X77196Y-52478D01*
G54D13*
X77250Y-52561D02*
X77250Y-52239D01*
X76750Y-52561D02*
X76750Y-52239D01*
G54D14*
X77387Y-53176D02*
X77387Y-51624D01*
X77387Y-51624D02*
X76613Y-51624D01*
X76613Y-51624D02*
X76613Y-53176D01*
X76613Y-53176D02*
X77387Y-53176D01*
G54D12*
X75825Y-52240D02*
X75825Y-51985D01*
X75825Y-51985D02*
X76376Y-51985D01*
X76376Y-52240D02*
X76376Y-51985D01*
X75825Y-52240D02*
X76376Y-52240D01*
X75825Y-52820D02*
X75825Y-52564D01*
X75825Y-52564D02*
X76376Y-52564D01*
X76376Y-52820D02*
X76376Y-52564D01*
X75825Y-52820D02*
X76376Y-52820D01*
X75904Y-52478D02*
X75904Y-52322D01*
X75904Y-52322D02*
X76296Y-52322D01*
X76296Y-52478D02*
X76296Y-52322D01*
X75904Y-52478D02*
X76296Y-52478D01*
G54D13*
X76350Y-52561D02*
X76350Y-52239D01*
X75850Y-52561D02*
X75850Y-52239D01*
G54D14*
X76487Y-53176D02*
X76487Y-51624D01*
X76487Y-51624D02*
X75713Y-51624D01*
X75713Y-51624D02*
X75713Y-53176D01*
X75713Y-53176D02*
X76487Y-53176D01*
G54D12*
X75860Y-60425D02*
X76115Y-60425D01*
X76115Y-60425D02*
X76115Y-60976D01*
X75860Y-60976D02*
X76115Y-60976D01*
X75860Y-60425D02*
X75860Y-60976D01*
X75280Y-60425D02*
X75536Y-60425D01*
X75536Y-60425D02*
X75536Y-60976D01*
X75280Y-60976D02*
X75536Y-60976D01*
X75280Y-60425D02*
X75280Y-60976D01*
X75622Y-60504D02*
X75778Y-60504D01*
X75778Y-60504D02*
X75778Y-60896D01*
X75622Y-60896D02*
X75778Y-60896D01*
X75622Y-60504D02*
X75622Y-60896D01*
G54D13*
X75539Y-60950D02*
X75861Y-60950D01*
X75539Y-60450D02*
X75861Y-60450D01*
G54D14*
X74924Y-61087D02*
X76476Y-61087D01*
X76476Y-61087D02*
X76476Y-60313D01*
X76476Y-60313D02*
X74924Y-60313D01*
X74924Y-60313D02*
X74924Y-61087D01*
G54D12*
X74675Y-52560D02*
X74675Y-52815D01*
X74675Y-52815D02*
X74124Y-52815D01*
X74124Y-52560D02*
X74124Y-52815D01*
X74675Y-52560D02*
X74124Y-52560D01*
X74675Y-51980D02*
X74675Y-52236D01*
X74675Y-52236D02*
X74124Y-52236D01*
X74124Y-51980D02*
X74124Y-52236D01*
X74675Y-51980D02*
X74124Y-51980D01*
X74596Y-52322D02*
X74596Y-52478D01*
X74596Y-52478D02*
X74204Y-52478D01*
X74204Y-52322D02*
X74204Y-52478D01*
X74596Y-52322D02*
X74204Y-52322D01*
G54D13*
X74150Y-52239D02*
X74150Y-52561D01*
X74650Y-52239D02*
X74650Y-52561D01*
G54D14*
X74013Y-51624D02*
X74013Y-53176D01*
X74013Y-53176D02*
X74787Y-53176D01*
X74787Y-53176D02*
X74787Y-51624D01*
X74787Y-51624D02*
X74013Y-51624D01*
G54D12*
X81715Y-62029D02*
X81715Y-61734D01*
X81715Y-61734D02*
X82285Y-61734D01*
X82285Y-62029D02*
X82285Y-61734D01*
X81715Y-62029D02*
X82285Y-62029D01*
X81715Y-61460D02*
X81715Y-61165D01*
X81715Y-61165D02*
X82285Y-61165D01*
X82285Y-61460D02*
X82285Y-61165D01*
X81715Y-61460D02*
X82285Y-61460D01*
X81843Y-61639D02*
X81843Y-61561D01*
X81843Y-61561D02*
X82157Y-61561D01*
X82157Y-61639D02*
X82157Y-61561D01*
X81843Y-61639D02*
X82157Y-61639D01*
G54D14*
X82387Y-62376D02*
X82387Y-60824D01*
X81613Y-60824D02*
X81613Y-62376D01*
X81613Y-62376D02*
X82387Y-62376D01*
G54D15*
X82259Y-61750D02*
X82259Y-61450D01*
X81741Y-61740D02*
X81741Y-61450D01*
G54D14*
X82387Y-60824D02*
X81613Y-60824D01*
G54D12*
X75271Y-57915D02*
X75566Y-57915D01*
X75566Y-57915D02*
X75566Y-58485D01*
X75271Y-58485D02*
X75566Y-58485D01*
X75271Y-57915D02*
X75271Y-58485D01*
X75840Y-57915D02*
X76135Y-57915D01*
X76135Y-57915D02*
X76135Y-58485D01*
X75840Y-58485D02*
X76135Y-58485D01*
X75840Y-57915D02*
X75840Y-58485D01*
X75661Y-58043D02*
X75739Y-58043D01*
X75739Y-58043D02*
X75739Y-58357D01*
X75661Y-58357D02*
X75739Y-58357D01*
X75661Y-58043D02*
X75661Y-58357D01*
G54D14*
X74924Y-58587D02*
X76476Y-58587D01*
X76476Y-57813D02*
X74924Y-57813D01*
X74924Y-57813D02*
X74924Y-58587D01*
G54D15*
X75550Y-58459D02*
X75850Y-58459D01*
X75560Y-57941D02*
X75850Y-57941D01*
G54D14*
X76476Y-58587D02*
X76476Y-57813D01*
G54D12*
X81665Y-56470D02*
X81665Y-56174D01*
X81665Y-56174D02*
X82334Y-56174D01*
X82334Y-56470D02*
X82334Y-56174D01*
X81665Y-56470D02*
X82334Y-56470D01*
X81666Y-55426D02*
X81666Y-55130D01*
X81666Y-55130D02*
X82335Y-55130D01*
X82335Y-55426D02*
X82335Y-55130D01*
X81666Y-55426D02*
X82335Y-55426D01*
X81843Y-55878D02*
X81843Y-55722D01*
X81843Y-55722D02*
X82157Y-55722D01*
X82157Y-55878D02*
X82157Y-55722D01*
X81843Y-55878D02*
X82157Y-55878D01*
G54D14*
X82387Y-56773D02*
X82387Y-54827D01*
X81613Y-54827D02*
X81613Y-56773D01*
X81613Y-56773D02*
X82387Y-56773D01*
X82387Y-54827D02*
X81613Y-54827D01*
G54D15*
X82309Y-56179D02*
X82309Y-55421D01*
X81691Y-56179D02*
X81691Y-55421D01*
G54D12*
X82335Y-59030D02*
X82335Y-59326D01*
X82335Y-59326D02*
X81666Y-59326D01*
X81666Y-59030D02*
X81666Y-59326D01*
X82335Y-59030D02*
X81666Y-59030D01*
X82334Y-60074D02*
X82334Y-60370D01*
X82334Y-60370D02*
X81665Y-60370D01*
X81665Y-60074D02*
X81665Y-60370D01*
X82334Y-60074D02*
X81665Y-60074D01*
X82157Y-59622D02*
X82157Y-59778D01*
X82157Y-59778D02*
X81843Y-59778D01*
X81843Y-59622D02*
X81843Y-59778D01*
X82157Y-59622D02*
X81843Y-59622D01*
G54D14*
X81613Y-58727D02*
X81613Y-60673D01*
X82387Y-60673D02*
X82387Y-58727D01*
X82387Y-58727D02*
X81613Y-58727D01*
X81613Y-60673D02*
X82387Y-60673D01*
G54D15*
X81691Y-59321D02*
X81691Y-60079D01*
X82309Y-59321D02*
X82309Y-60079D01*
G54D12*
X75030Y-59165D02*
X75326Y-59165D01*
X75326Y-59165D02*
X75326Y-59834D01*
X75030Y-59834D02*
X75326Y-59834D01*
X75030Y-59165D02*
X75030Y-59834D01*
X76074Y-59166D02*
X76370Y-59166D01*
X76370Y-59166D02*
X76370Y-59835D01*
X76074Y-59835D02*
X76370Y-59835D01*
X76074Y-59166D02*
X76074Y-59835D01*
X75622Y-59343D02*
X75778Y-59343D01*
X75778Y-59343D02*
X75778Y-59657D01*
X75622Y-59657D02*
X75778Y-59657D01*
X75622Y-59343D02*
X75622Y-59657D01*
G54D14*
X74727Y-59887D02*
X76673Y-59887D01*
X76673Y-59113D02*
X74727Y-59113D01*
X74727Y-59113D02*
X74727Y-59887D01*
X76673Y-59887D02*
X76673Y-59113D01*
G54D15*
X75321Y-59809D02*
X76079Y-59809D01*
X75321Y-59191D02*
X76079Y-59191D01*
G54D16*
X85283Y-51402D02*
X85450Y-51164D01*
X85569Y-51402D02*
X85569Y-50902D01*
X85378Y-50902D01*
X85331Y-50926D01*
X85307Y-50950D01*
X85283Y-50998D01*
X85283Y-51069D01*
X85307Y-51117D01*
X85331Y-51140D01*
X85378Y-51164D01*
X85569Y-51164D01*
X85045Y-51402D02*
X84950Y-51402D01*
X84902Y-51379D01*
X84878Y-51355D01*
X84831Y-51283D01*
X84807Y-51188D01*
X84807Y-50998D01*
X84831Y-50950D01*
X84855Y-50926D01*
X84902Y-50902D01*
X84998Y-50902D01*
X85045Y-50926D01*
X85069Y-50950D01*
X85093Y-50998D01*
X85093Y-51117D01*
X85069Y-51164D01*
X85045Y-51188D01*
X84998Y-51212D01*
X84902Y-51212D01*
X84855Y-51188D01*
X84831Y-51164D01*
X84807Y-51117D01*
X86983Y-51402D02*
X87150Y-51164D01*
X87269Y-51402D02*
X87269Y-50902D01*
X87078Y-50902D01*
X87031Y-50926D01*
X87007Y-50950D01*
X86983Y-50998D01*
X86983Y-51069D01*
X87007Y-51117D01*
X87031Y-51140D01*
X87078Y-51164D01*
X87269Y-51164D01*
X86698Y-51117D02*
X86745Y-51093D01*
X86769Y-51069D01*
X86793Y-51021D01*
X86793Y-50998D01*
X86769Y-50950D01*
X86745Y-50926D01*
X86698Y-50902D01*
X86602Y-50902D01*
X86555Y-50926D01*
X86531Y-50950D01*
X86507Y-50998D01*
X86507Y-51021D01*
X86531Y-51069D01*
X86555Y-51093D01*
X86602Y-51117D01*
X86698Y-51117D01*
X86745Y-51140D01*
X86769Y-51164D01*
X86793Y-51212D01*
X86793Y-51307D01*
X86769Y-51355D01*
X86745Y-51379D01*
X86698Y-51402D01*
X86602Y-51402D01*
X86555Y-51379D01*
X86531Y-51355D01*
X86507Y-51307D01*
X86507Y-51212D01*
X86531Y-51164D01*
X86555Y-51140D01*
X86602Y-51117D01*
X87883Y-51402D02*
X88050Y-51164D01*
X88169Y-51402D02*
X88169Y-50902D01*
X87978Y-50902D01*
X87931Y-50926D01*
X87907Y-50950D01*
X87883Y-50998D01*
X87883Y-51069D01*
X87907Y-51117D01*
X87931Y-51140D01*
X87978Y-51164D01*
X88169Y-51164D01*
X87717Y-50902D02*
X87383Y-50902D01*
X87598Y-51402D01*
X89583Y-51402D02*
X89750Y-51164D01*
X89869Y-51402D02*
X89869Y-50902D01*
X89678Y-50902D01*
X89631Y-50926D01*
X89607Y-50950D01*
X89583Y-50998D01*
X89583Y-51069D01*
X89607Y-51117D01*
X89631Y-51140D01*
X89678Y-51164D01*
X89869Y-51164D01*
X89155Y-50902D02*
X89250Y-50902D01*
X89298Y-50926D01*
X89321Y-50950D01*
X89369Y-51021D01*
X89393Y-51117D01*
X89393Y-51307D01*
X89369Y-51355D01*
X89345Y-51379D01*
X89298Y-51402D01*
X89202Y-51402D01*
X89155Y-51379D01*
X89131Y-51355D01*
X89107Y-51307D01*
X89107Y-51188D01*
X89131Y-51140D01*
X89155Y-51117D01*
X89202Y-51093D01*
X89298Y-51093D01*
X89345Y-51117D01*
X89369Y-51140D01*
X89393Y-51188D01*
X82483Y-51502D02*
X82650Y-51264D01*
X82769Y-51502D02*
X82769Y-51002D01*
X82578Y-51002D01*
X82531Y-51026D01*
X82507Y-51050D01*
X82483Y-51098D01*
X82483Y-51169D01*
X82507Y-51217D01*
X82531Y-51240D01*
X82578Y-51264D01*
X82769Y-51264D01*
X82031Y-51002D02*
X82269Y-51002D01*
X82293Y-51240D01*
X82269Y-51217D01*
X82221Y-51193D01*
X82102Y-51193D01*
X82055Y-51217D01*
X82031Y-51240D01*
X82007Y-51288D01*
X82007Y-51407D01*
X82031Y-51455D01*
X82055Y-51479D01*
X82102Y-51502D01*
X82221Y-51502D01*
X82269Y-51479D01*
X82293Y-51455D01*
X81583Y-51502D02*
X81750Y-51264D01*
X81869Y-51502D02*
X81869Y-51002D01*
X81678Y-51002D01*
X81631Y-51026D01*
X81607Y-51050D01*
X81583Y-51098D01*
X81583Y-51169D01*
X81607Y-51217D01*
X81631Y-51240D01*
X81678Y-51264D01*
X81869Y-51264D01*
X81155Y-51169D02*
X81155Y-51502D01*
X81274Y-50979D02*
X81393Y-51336D01*
X81083Y-51336D01*
X77083Y-51402D02*
X77250Y-51164D01*
X77369Y-51402D02*
X77369Y-50902D01*
X77178Y-50902D01*
X77131Y-50926D01*
X77107Y-50950D01*
X77083Y-50998D01*
X77083Y-51069D01*
X77107Y-51117D01*
X77131Y-51140D01*
X77178Y-51164D01*
X77369Y-51164D01*
X76917Y-50902D02*
X76607Y-50902D01*
X76774Y-51093D01*
X76702Y-51093D01*
X76655Y-51117D01*
X76631Y-51140D01*
X76607Y-51188D01*
X76607Y-51307D01*
X76631Y-51355D01*
X76655Y-51379D01*
X76702Y-51402D01*
X76845Y-51402D01*
X76893Y-51379D01*
X76917Y-51355D01*
X76183Y-51402D02*
X76350Y-51164D01*
X76469Y-51402D02*
X76469Y-50902D01*
X76278Y-50902D01*
X76231Y-50926D01*
X76207Y-50950D01*
X76183Y-50998D01*
X76183Y-51069D01*
X76207Y-51117D01*
X76231Y-51140D01*
X76278Y-51164D01*
X76469Y-51164D01*
X75993Y-50950D02*
X75969Y-50926D01*
X75921Y-50902D01*
X75802Y-50902D01*
X75755Y-50926D01*
X75731Y-50950D01*
X75707Y-50998D01*
X75707Y-51045D01*
X75731Y-51117D01*
X76017Y-51402D01*
X75707Y-51402D01*
X77183Y-61002D02*
X77350Y-60764D01*
X77469Y-61002D02*
X77469Y-60502D01*
X77278Y-60502D01*
X77231Y-60526D01*
X77207Y-60550D01*
X77183Y-60598D01*
X77183Y-60669D01*
X77207Y-60717D01*
X77231Y-60740D01*
X77278Y-60764D01*
X77469Y-60764D01*
X76707Y-61002D02*
X76993Y-61002D01*
X76850Y-61002D02*
X76850Y-60502D01*
X76898Y-60574D01*
X76945Y-60621D01*
X76993Y-60645D01*
X74521Y-51402D02*
X74688Y-51164D01*
X74807Y-51402D02*
X74807Y-50902D01*
X74616Y-50902D01*
X74569Y-50926D01*
X74545Y-50950D01*
X74521Y-50998D01*
X74521Y-51069D01*
X74545Y-51117D01*
X74569Y-51140D01*
X74616Y-51164D01*
X74807Y-51164D01*
X74045Y-51402D02*
X74331Y-51402D01*
X74188Y-51402D02*
X74188Y-50902D01*
X74236Y-50974D01*
X74283Y-51021D01*
X74331Y-51045D01*
X73736Y-50902D02*
X73688Y-50902D01*
X73640Y-50926D01*
X73617Y-50950D01*
X73593Y-50998D01*
X73569Y-51093D01*
X73569Y-51212D01*
X73593Y-51307D01*
X73617Y-51355D01*
X73640Y-51379D01*
X73688Y-51402D01*
X73736Y-51402D01*
X73783Y-51379D01*
X73807Y-51355D01*
X73831Y-51307D01*
X73855Y-51212D01*
X73855Y-51093D01*
X73831Y-50998D01*
X73807Y-50950D01*
X73783Y-50926D01*
X73736Y-50902D01*
X83055Y-59617D02*
X83079Y-59593D01*
X83102Y-59522D01*
X83102Y-59474D01*
X83079Y-59402D01*
X83031Y-59355D01*
X82983Y-59331D01*
X82888Y-59307D01*
X82817Y-59307D01*
X82721Y-59331D01*
X82674Y-59355D01*
X82626Y-59402D01*
X82602Y-59474D01*
X82602Y-59522D01*
X82626Y-59593D01*
X82650Y-59617D01*
X82602Y-59783D02*
X82602Y-60093D01*
X82793Y-59926D01*
X82793Y-59998D01*
X82817Y-60045D01*
X82840Y-60069D01*
X82888Y-60093D01*
X83007Y-60093D01*
X83055Y-60069D01*
X83079Y-60045D01*
X83102Y-59998D01*
X83102Y-59855D01*
X83079Y-59807D01*
X83055Y-59783D01*
X77083Y-58355D02*
X77107Y-58379D01*
X77178Y-58402D01*
X77226Y-58402D01*
X77298Y-58379D01*
X77345Y-58331D01*
X77369Y-58283D01*
X77393Y-58188D01*
X77393Y-58117D01*
X77369Y-58021D01*
X77345Y-57974D01*
X77298Y-57926D01*
X77226Y-57902D01*
X77178Y-57902D01*
X77107Y-57926D01*
X77083Y-57950D01*
X76607Y-58402D02*
X76893Y-58402D01*
X76750Y-58402D02*
X76750Y-57902D01*
X76798Y-57974D01*
X76845Y-58021D01*
X76893Y-58045D01*
X82060Y-57467D02*
X82084Y-57491D01*
X82155Y-57514D01*
X82203Y-57514D01*
X82275Y-57491D01*
X82322Y-57443D01*
X82346Y-57395D01*
X82370Y-57300D01*
X82370Y-57229D01*
X82346Y-57133D01*
X82322Y-57086D01*
X82275Y-57038D01*
X82203Y-57014D01*
X82155Y-57014D01*
X82084Y-57038D01*
X82060Y-57062D01*
X81632Y-57014D02*
X81727Y-57014D01*
X81775Y-57038D01*
X81798Y-57062D01*
X81846Y-57133D01*
X81870Y-57229D01*
X81870Y-57419D01*
X81846Y-57467D01*
X81822Y-57491D01*
X81775Y-57514D01*
X81679Y-57514D01*
X81632Y-57491D01*
X81608Y-57467D01*
X81584Y-57419D01*
X81584Y-57300D01*
X81608Y-57252D01*
X81632Y-57229D01*
X81679Y-57205D01*
X81775Y-57205D01*
X81822Y-57229D01*
X81846Y-57252D01*
X81870Y-57300D01*
X83055Y-61517D02*
X83079Y-61493D01*
X83102Y-61422D01*
X83102Y-61374D01*
X83079Y-61302D01*
X83031Y-61255D01*
X82983Y-61231D01*
X82888Y-61207D01*
X82817Y-61207D01*
X82721Y-61231D01*
X82674Y-61255D01*
X82626Y-61302D01*
X82602Y-61374D01*
X82602Y-61422D01*
X82626Y-61493D01*
X82650Y-61517D01*
X82769Y-61945D02*
X83102Y-61945D01*
X82579Y-61826D02*
X82936Y-61707D01*
X82936Y-62017D01*
X77283Y-59655D02*
X77307Y-59679D01*
X77378Y-59702D01*
X77426Y-59702D01*
X77498Y-59679D01*
X77545Y-59631D01*
X77569Y-59583D01*
X77593Y-59488D01*
X77593Y-59417D01*
X77569Y-59321D01*
X77545Y-59274D01*
X77498Y-59226D01*
X77426Y-59202D01*
X77378Y-59202D01*
X77307Y-59226D01*
X77283Y-59250D01*
X77093Y-59250D02*
X77069Y-59226D01*
X77021Y-59202D01*
X76902Y-59202D01*
X76855Y-59226D01*
X76831Y-59250D01*
X76807Y-59298D01*
X76807Y-59345D01*
X76831Y-59417D01*
X77117Y-59702D01*
X76807Y-59702D01*
%LPC*%
G54D17*
X74800Y-55900D03*
G54D18*
X74800Y-54900D03*
X75800Y-55900D03*
X75800Y-54900D03*
X76800Y-55900D03*
X76800Y-54900D03*
G54D19*
X71000Y-60000D03*
X71000Y-58000D03*
X39500Y-58000D03*
X39500Y-60000D03*
X39499Y-53500D03*
X39499Y-55500D03*
X44000Y-55500D03*
X44000Y-53500D03*
X44000Y-60000D03*
X44000Y-58000D03*
X48500Y-58000D03*
X48500Y-60000D03*
X48500Y-53500D03*
X48500Y-55500D03*
X53000Y-55500D03*
X53000Y-53500D03*
X53000Y-60000D03*
X53000Y-58000D03*
X57500Y-58000D03*
X57500Y-60000D03*
X57500Y-53500D03*
X57500Y-55500D03*
X62000Y-55500D03*
X62000Y-53500D03*
X62000Y-60000D03*
X62000Y-58000D03*
X66500Y-58000D03*
X66500Y-60000D03*
X66500Y-53500D03*
X66500Y-55500D03*
X71000Y-55500D03*
X71000Y-53500D03*
G54D20*
X85200Y-52774D03*
X85200Y-52026D03*
X86900Y-52026D03*
X86900Y-52774D03*
X87800Y-52026D03*
X87800Y-52774D03*
X89500Y-52774D03*
X89500Y-52026D03*
X82400Y-52026D03*
X82400Y-52774D03*
X81500Y-52774D03*
X81500Y-52026D03*
X77000Y-52774D03*
X77000Y-52026D03*
X76100Y-52774D03*
X76100Y-52026D03*
G54D21*
X75326Y-60700D03*
X76074Y-60700D03*
G54D18*
X86100Y-51575D03*
X88650Y-51575D03*
X86100Y-53325D03*
X88650Y-53325D03*
X80700Y-51575D03*
X83250Y-51575D03*
X80700Y-53325D03*
X83250Y-53325D03*
X75300Y-51575D03*
X77850Y-51575D03*
X75300Y-53325D03*
X77850Y-53325D03*
G54D20*
X74400Y-52026D03*
X74400Y-52774D03*
G54D19*
X120000Y-60000D03*
X120000Y-58000D03*
X120000Y-55500D03*
X120000Y-53500D03*
X124500Y-53500D03*
X124500Y-55500D03*
X124500Y-58000D03*
X124500Y-60000D03*
X111000Y-59900D03*
X111000Y-57900D03*
X111000Y-55500D03*
X111000Y-53500D03*
X115600Y-53500D03*
X115600Y-55500D03*
X115600Y-58000D03*
X115600Y-60000D03*
X106500Y-58000D03*
X106500Y-60000D03*
X106500Y-53500D03*
X106500Y-55500D03*
X102000Y-55500D03*
X102000Y-53500D03*
X102000Y-60000D03*
X102000Y-58000D03*
X97500Y-58000D03*
X97500Y-60000D03*
X97500Y-53500D03*
X97500Y-55500D03*
X93000Y-55500D03*
X93000Y-53500D03*
X93000Y-60000D03*
X93000Y-58000D03*
G54D22*
X79800Y-52400D03*
G54D23*
X78800Y-52400D03*
G54D20*
X82000Y-61974D03*
X82000Y-61226D03*
G54D21*
X75326Y-58200D03*
X76074Y-58200D03*
G54D24*
X82000Y-56351D03*
X82000Y-55249D03*
X82000Y-59149D03*
X82000Y-60251D03*
G54D25*
X75149Y-59500D03*
X76251Y-59500D03*
G54D26*
X89100Y-58800D03*
X85100Y-57800D03*
X89100Y-56800D03*
G54D27*
X36500Y-52000D03*
X127500Y-61500D03*
X127500Y-52000D03*
X95500Y-61500D03*
X95500Y-52000D03*
X68500Y-61500D03*
X68500Y-52000D03*
X36500Y-61500D03*
G54D28*
X130500Y-58200D03*
G54D19*
X130500Y-55200D03*
G54D28*
X33600Y-58200D03*
G54D19*
X33600Y-55200D03*
G54D17*
X135300Y-53200D03*
G54D18*
X136300Y-53200D03*
X135300Y-54200D03*
X136300Y-54200D03*
X135300Y-55200D03*
X136300Y-55200D03*
X135300Y-56200D03*
X136300Y-56200D03*
X135300Y-57200D03*
X136300Y-57200D03*
X135300Y-58200D03*
X136300Y-58200D03*
X135300Y-59200D03*
X136300Y-59200D03*
X135300Y-60200D03*
X136300Y-60200D03*
G54D17*
X27800Y-53200D03*
G54D18*
X28800Y-53200D03*
X27800Y-54200D03*
X28800Y-54200D03*
X27800Y-55200D03*
X28800Y-55200D03*
X27800Y-56200D03*
X28800Y-56200D03*
X27800Y-57200D03*
X28800Y-57200D03*
X27800Y-58200D03*
X28800Y-58200D03*
X27800Y-59200D03*
X28800Y-59200D03*
X27800Y-60200D03*
X28800Y-60200D03*
M02*
