M48
INCH,TZ
T1C0.025
T2C0.032
T3C0.039
T4C0.040
T5C0.050
T6C0.120
%
G05
T1
X44756Y-22825
X46249Y-18295
X50205Y-12441
X50655Y-23327
X56499Y-16323
X57373Y-14307
X57977Y-19842
X58214Y-16893
X58763Y-19851
X60320Y-21731
X60389Y-19796
X60456Y-20317
X63720Y-18581
X64051Y-17903
X64737Y-17177
X66197Y-15541
X66318Y-14487
X66906Y-17301
X67421Y-17011
X67630Y-19283
X70727Y-15965
X70895Y-17492
X70983Y-22743
X105329Y-18500
T2
X55285Y-16021
X55285Y-17021
X65468Y-21035
X66452Y-21035
X67436Y-21035
T3
X12500Y-14500
X12500Y-16500
X12500Y-19000
X12500Y-21000
X17000Y-14500
X17000Y-16500
X17000Y-19000
X17000Y-21000
X21500Y-14500
X21500Y-16500
X21500Y-19000
X21500Y-21000
X26000Y-14500
X26000Y-16500
X26000Y-19000
X26000Y-21000
X30500Y-14500
X30500Y-16500
X30500Y-19000
X30500Y-21000
X35000Y-14500
X35000Y-16500
X35000Y-19000
X35000Y-21000
X39500Y-14500
X39500Y-16500
X39500Y-19000
X39500Y-21000
X44000Y-14500
X44000Y-16500
X44000Y-19000
X44000Y-21000
X72000Y-14500
X72000Y-16500
X72000Y-19000
X72000Y-21000
X76500Y-14500
X76500Y-16500
X76500Y-19000
X76500Y-21000
X81000Y-14500
X81000Y-16500
X81000Y-19000
X81000Y-21000
X85500Y-14500
X85500Y-16500
X85500Y-19000
X85500Y-21000
X90000Y-14500
X90000Y-16500
X90000Y-19000
X90000Y-21000
X94500Y-14500
X94500Y-16500
X94500Y-19000
X94500Y-21000
X99000Y-14500
X99000Y-16500
X99000Y-19000
X99000Y-21000
X103500Y-14500
X103500Y-16500
X103500Y-19000
X103500Y-21000
T4
X9000Y-15500
X9000Y-16500
X9000Y-17500
X9000Y-18500
X9000Y-19500
X9000Y-20500
X55700Y-12575
X55700Y-14325
X58250Y-12575
X58250Y-14325
X59200Y-12575
X59200Y-14325
X59500Y-16300
X59500Y-17300
X60500Y-16300
X60500Y-17300
X61500Y-16300
X61500Y-17300
X61750Y-12575
X61750Y-14325
X62700Y-12575
X62700Y-14325
X65250Y-12575
X65250Y-14325
X107000Y-15500
X107000Y-16500
X107000Y-17500
X107000Y-18500
X107000Y-19500
X107000Y-20500
T5
X48495Y-20720
X52495Y-19720
X52495Y-21720
T6
X9500Y-13000
X9500Y-22500
X41500Y-13000
X74500Y-13000
X106500Y-13000
X106500Y-22500
T0
M30
