G04 (created by PCBNEW-RS274X (2011-04-28)-stable) date Sat 30 Jul 2011 05:30:18 PM CEST*
G01*
G70*
G90*
%MOIN*%
G04 Gerber Fmt 3.4, Leading zero omitted, Abs format*
%FSLAX34Y34*%
G04 APERTURE LIST*
%ADD10C,0.010000*%
%ADD11C,0.012000*%
%ADD12C,0.008000*%
%ADD13C,0.015000*%
%ADD14C,0.002600*%
%ADD15C,0.002000*%
%ADD16C,0.004000*%
%ADD17C,0.007800*%
%ADD18C,0.005000*%
%ADD19C,0.006000*%
%ADD20C,0.004500*%
%ADD21R,0.078000X0.078000*%
%ADD22C,0.078000*%
%ADD23R,0.068000X0.068000*%
%ADD24C,0.068000*%
%ADD25R,0.088000X0.088000*%
%ADD26C,0.088000*%
%ADD27R,0.063000X0.063000*%
%ADD28C,0.063000*%
%ADD29R,0.059100X0.067000*%
%ADD30R,0.067000X0.059100*%
%ADD31R,0.078800X0.070900*%
%ADD32R,0.070900X0.078800*%
%ADD33R,0.094600X0.031600*%
%ADD34C,0.168000*%
%ADD35R,0.053000X0.033000*%
%ADD36R,0.033000X0.053000*%
G04 APERTURE END LIST*
G54D10*
X04000Y-04000D02*
X161350Y-04000D01*
X161350Y-113000D01*
X04000Y-113000D01*
X04000Y-04000D01*
X04700Y-04700D02*
X160650Y-04700D01*
X160650Y-112300D01*
X04700Y-112300D01*
X04700Y-04700D01*
X26470Y-04000D02*
X26470Y-04700D01*
X15383Y-04552D02*
X15097Y-04552D01*
X15240Y-04552D02*
X15240Y-04052D01*
X15192Y-04124D01*
X15145Y-04171D01*
X15097Y-04195D01*
X26470Y-113000D02*
X26470Y-112300D01*
X15383Y-112852D02*
X15097Y-112852D01*
X15240Y-112852D02*
X15240Y-112352D01*
X15192Y-112424D01*
X15145Y-112471D01*
X15097Y-112495D01*
X48940Y-04000D02*
X48940Y-04700D01*
X37567Y-04100D02*
X37591Y-04076D01*
X37639Y-04052D01*
X37758Y-04052D01*
X37805Y-04076D01*
X37829Y-04100D01*
X37853Y-04148D01*
X37853Y-04195D01*
X37829Y-04267D01*
X37543Y-04552D01*
X37853Y-04552D01*
X48940Y-113000D02*
X48940Y-112300D01*
X37567Y-112400D02*
X37591Y-112376D01*
X37639Y-112352D01*
X37758Y-112352D01*
X37805Y-112376D01*
X37829Y-112400D01*
X37853Y-112448D01*
X37853Y-112495D01*
X37829Y-112567D01*
X37543Y-112852D01*
X37853Y-112852D01*
X71410Y-04000D02*
X71410Y-04700D01*
X60013Y-04052D02*
X60323Y-04052D01*
X60156Y-04243D01*
X60228Y-04243D01*
X60275Y-04267D01*
X60299Y-04290D01*
X60323Y-04338D01*
X60323Y-04457D01*
X60299Y-04505D01*
X60275Y-04529D01*
X60228Y-04552D01*
X60085Y-04552D01*
X60037Y-04529D01*
X60013Y-04505D01*
X71410Y-113000D02*
X71410Y-112300D01*
X60013Y-112352D02*
X60323Y-112352D01*
X60156Y-112543D01*
X60228Y-112543D01*
X60275Y-112567D01*
X60299Y-112590D01*
X60323Y-112638D01*
X60323Y-112757D01*
X60299Y-112805D01*
X60275Y-112829D01*
X60228Y-112852D01*
X60085Y-112852D01*
X60037Y-112829D01*
X60013Y-112805D01*
X93880Y-04000D02*
X93880Y-04700D01*
X82745Y-04219D02*
X82745Y-04552D01*
X82626Y-04029D02*
X82507Y-04386D01*
X82817Y-04386D01*
X93880Y-113000D02*
X93880Y-112300D01*
X82745Y-112519D02*
X82745Y-112852D01*
X82626Y-112329D02*
X82507Y-112686D01*
X82817Y-112686D01*
X116350Y-04000D02*
X116350Y-04700D01*
X105239Y-04052D02*
X105001Y-04052D01*
X104977Y-04290D01*
X105001Y-04267D01*
X105049Y-04243D01*
X105168Y-04243D01*
X105215Y-04267D01*
X105239Y-04290D01*
X105263Y-04338D01*
X105263Y-04457D01*
X105239Y-04505D01*
X105215Y-04529D01*
X105168Y-04552D01*
X105049Y-04552D01*
X105001Y-04529D01*
X104977Y-04505D01*
X116350Y-113000D02*
X116350Y-112300D01*
X105239Y-112352D02*
X105001Y-112352D01*
X104977Y-112590D01*
X105001Y-112567D01*
X105049Y-112543D01*
X105168Y-112543D01*
X105215Y-112567D01*
X105239Y-112590D01*
X105263Y-112638D01*
X105263Y-112757D01*
X105239Y-112805D01*
X105215Y-112829D01*
X105168Y-112852D01*
X105049Y-112852D01*
X105001Y-112829D01*
X104977Y-112805D01*
X138820Y-04000D02*
X138820Y-04700D01*
X127685Y-04052D02*
X127590Y-04052D01*
X127542Y-04076D01*
X127519Y-04100D01*
X127471Y-04171D01*
X127447Y-04267D01*
X127447Y-04457D01*
X127471Y-04505D01*
X127495Y-04529D01*
X127542Y-04552D01*
X127638Y-04552D01*
X127685Y-04529D01*
X127709Y-04505D01*
X127733Y-04457D01*
X127733Y-04338D01*
X127709Y-04290D01*
X127685Y-04267D01*
X127638Y-04243D01*
X127542Y-04243D01*
X127495Y-04267D01*
X127471Y-04290D01*
X127447Y-04338D01*
X138820Y-113000D02*
X138820Y-112300D01*
X127685Y-112352D02*
X127590Y-112352D01*
X127542Y-112376D01*
X127519Y-112400D01*
X127471Y-112471D01*
X127447Y-112567D01*
X127447Y-112757D01*
X127471Y-112805D01*
X127495Y-112829D01*
X127542Y-112852D01*
X127638Y-112852D01*
X127685Y-112829D01*
X127709Y-112805D01*
X127733Y-112757D01*
X127733Y-112638D01*
X127709Y-112590D01*
X127685Y-112567D01*
X127638Y-112543D01*
X127542Y-112543D01*
X127495Y-112567D01*
X127471Y-112590D01*
X127447Y-112638D01*
X149893Y-04052D02*
X150227Y-04052D01*
X150012Y-04552D01*
X149893Y-112352D02*
X150227Y-112352D01*
X150012Y-112852D01*
X04000Y-25800D02*
X04700Y-25800D01*
X04231Y-14960D02*
X04469Y-14960D01*
X04184Y-15102D02*
X04350Y-14602D01*
X04517Y-15102D01*
X161350Y-25800D02*
X160650Y-25800D01*
X160881Y-14960D02*
X161119Y-14960D01*
X160834Y-15102D02*
X161000Y-14602D01*
X161167Y-15102D01*
X04000Y-47600D02*
X04700Y-47600D01*
X04386Y-36640D02*
X04457Y-36664D01*
X04481Y-36688D01*
X04505Y-36736D01*
X04505Y-36807D01*
X04481Y-36855D01*
X04457Y-36879D01*
X04410Y-36902D01*
X04219Y-36902D01*
X04219Y-36402D01*
X04386Y-36402D01*
X04433Y-36426D01*
X04457Y-36450D01*
X04481Y-36498D01*
X04481Y-36545D01*
X04457Y-36593D01*
X04433Y-36617D01*
X04386Y-36640D01*
X04219Y-36640D01*
X161350Y-47600D02*
X160650Y-47600D01*
X161036Y-36640D02*
X161107Y-36664D01*
X161131Y-36688D01*
X161155Y-36736D01*
X161155Y-36807D01*
X161131Y-36855D01*
X161107Y-36879D01*
X161060Y-36902D01*
X160869Y-36902D01*
X160869Y-36402D01*
X161036Y-36402D01*
X161083Y-36426D01*
X161107Y-36450D01*
X161131Y-36498D01*
X161131Y-36545D01*
X161107Y-36593D01*
X161083Y-36617D01*
X161036Y-36640D01*
X160869Y-36640D01*
X04000Y-69400D02*
X04700Y-69400D01*
X04505Y-58655D02*
X04481Y-58679D01*
X04410Y-58702D01*
X04362Y-58702D01*
X04290Y-58679D01*
X04243Y-58631D01*
X04219Y-58583D01*
X04195Y-58488D01*
X04195Y-58417D01*
X04219Y-58321D01*
X04243Y-58274D01*
X04290Y-58226D01*
X04362Y-58202D01*
X04410Y-58202D01*
X04481Y-58226D01*
X04505Y-58250D01*
X161350Y-69400D02*
X160650Y-69400D01*
X161155Y-58655D02*
X161131Y-58679D01*
X161060Y-58702D01*
X161012Y-58702D01*
X160940Y-58679D01*
X160893Y-58631D01*
X160869Y-58583D01*
X160845Y-58488D01*
X160845Y-58417D01*
X160869Y-58321D01*
X160893Y-58274D01*
X160940Y-58226D01*
X161012Y-58202D01*
X161060Y-58202D01*
X161131Y-58226D01*
X161155Y-58250D01*
X04000Y-91200D02*
X04700Y-91200D01*
X04219Y-80502D02*
X04219Y-80002D01*
X04338Y-80002D01*
X04410Y-80026D01*
X04457Y-80074D01*
X04481Y-80121D01*
X04505Y-80217D01*
X04505Y-80288D01*
X04481Y-80383D01*
X04457Y-80431D01*
X04410Y-80479D01*
X04338Y-80502D01*
X04219Y-80502D01*
X161350Y-91200D02*
X160650Y-91200D01*
X160869Y-80502D02*
X160869Y-80002D01*
X160988Y-80002D01*
X161060Y-80026D01*
X161107Y-80074D01*
X161131Y-80121D01*
X161155Y-80217D01*
X161155Y-80288D01*
X161131Y-80383D01*
X161107Y-80431D01*
X161060Y-80479D01*
X160988Y-80502D01*
X160869Y-80502D01*
X04243Y-102040D02*
X04410Y-102040D01*
X04481Y-102302D02*
X04243Y-102302D01*
X04243Y-101802D01*
X04481Y-101802D01*
X160893Y-102040D02*
X161060Y-102040D01*
X161131Y-102302D02*
X160893Y-102302D01*
X160893Y-101802D01*
X161131Y-101802D01*
G54D11*
X127793Y-110743D02*
X127793Y-110143D01*
X127936Y-110143D01*
X128021Y-110171D01*
X128079Y-110229D01*
X128107Y-110286D01*
X128136Y-110400D01*
X128136Y-110486D01*
X128107Y-110600D01*
X128079Y-110657D01*
X128021Y-110714D01*
X127936Y-110743D01*
X127793Y-110743D01*
X128650Y-110743D02*
X128650Y-110429D01*
X128621Y-110371D01*
X128564Y-110343D01*
X128450Y-110343D01*
X128393Y-110371D01*
X128650Y-110714D02*
X128593Y-110743D01*
X128450Y-110743D01*
X128393Y-110714D01*
X128364Y-110657D01*
X128364Y-110600D01*
X128393Y-110543D01*
X128450Y-110514D01*
X128593Y-110514D01*
X128650Y-110486D01*
X128850Y-110343D02*
X129079Y-110343D01*
X128936Y-110143D02*
X128936Y-110657D01*
X128964Y-110714D01*
X129022Y-110743D01*
X129079Y-110743D01*
X129507Y-110714D02*
X129450Y-110743D01*
X129336Y-110743D01*
X129279Y-110714D01*
X129250Y-110657D01*
X129250Y-110429D01*
X129279Y-110371D01*
X129336Y-110343D01*
X129450Y-110343D01*
X129507Y-110371D01*
X129536Y-110429D01*
X129536Y-110486D01*
X129250Y-110543D01*
X129793Y-110686D02*
X129821Y-110714D01*
X129793Y-110743D01*
X129764Y-110714D01*
X129793Y-110686D01*
X129793Y-110743D01*
X129793Y-110371D02*
X129821Y-110400D01*
X129793Y-110429D01*
X129764Y-110400D01*
X129793Y-110371D01*
X129793Y-110429D01*
X130479Y-110143D02*
X130850Y-110143D01*
X130650Y-110371D01*
X130736Y-110371D01*
X130793Y-110400D01*
X130822Y-110429D01*
X130850Y-110486D01*
X130850Y-110629D01*
X130822Y-110686D01*
X130793Y-110714D01*
X130736Y-110743D01*
X130564Y-110743D01*
X130507Y-110714D01*
X130479Y-110686D01*
X131221Y-110143D02*
X131278Y-110143D01*
X131335Y-110171D01*
X131364Y-110200D01*
X131393Y-110257D01*
X131421Y-110371D01*
X131421Y-110514D01*
X131393Y-110629D01*
X131364Y-110686D01*
X131335Y-110714D01*
X131278Y-110743D01*
X131221Y-110743D01*
X131164Y-110714D01*
X131135Y-110686D01*
X131107Y-110629D01*
X131078Y-110514D01*
X131078Y-110371D01*
X131107Y-110257D01*
X131135Y-110200D01*
X131164Y-110171D01*
X131221Y-110143D01*
X132135Y-110343D02*
X132135Y-110857D01*
X132106Y-110914D01*
X132049Y-110943D01*
X132021Y-110943D01*
X132135Y-110143D02*
X132106Y-110171D01*
X132135Y-110200D01*
X132163Y-110171D01*
X132135Y-110143D01*
X132135Y-110200D01*
X132678Y-110343D02*
X132678Y-110743D01*
X132421Y-110343D02*
X132421Y-110657D01*
X132449Y-110714D01*
X132507Y-110743D01*
X132592Y-110743D01*
X132649Y-110714D01*
X132678Y-110686D01*
X133050Y-110743D02*
X132992Y-110714D01*
X132964Y-110657D01*
X132964Y-110143D01*
X133706Y-110200D02*
X133735Y-110171D01*
X133792Y-110143D01*
X133935Y-110143D01*
X133992Y-110171D01*
X134021Y-110200D01*
X134049Y-110257D01*
X134049Y-110314D01*
X134021Y-110400D01*
X133678Y-110743D01*
X134049Y-110743D01*
X134420Y-110143D02*
X134477Y-110143D01*
X134534Y-110171D01*
X134563Y-110200D01*
X134592Y-110257D01*
X134620Y-110371D01*
X134620Y-110514D01*
X134592Y-110629D01*
X134563Y-110686D01*
X134534Y-110714D01*
X134477Y-110743D01*
X134420Y-110743D01*
X134363Y-110714D01*
X134334Y-110686D01*
X134306Y-110629D01*
X134277Y-110514D01*
X134277Y-110371D01*
X134306Y-110257D01*
X134334Y-110200D01*
X134363Y-110171D01*
X134420Y-110143D01*
X135191Y-110743D02*
X134848Y-110743D01*
X135020Y-110743D02*
X135020Y-110143D01*
X134963Y-110229D01*
X134905Y-110286D01*
X134848Y-110314D01*
X135762Y-110743D02*
X135419Y-110743D01*
X135591Y-110743D02*
X135591Y-110143D01*
X135534Y-110229D01*
X135476Y-110286D01*
X135419Y-110314D01*
G54D10*
X119393Y-111943D02*
X119393Y-111343D01*
X119736Y-111943D02*
X119479Y-111600D01*
X119736Y-111343D02*
X119393Y-111686D01*
X119993Y-111943D02*
X119993Y-111543D01*
X119993Y-111343D02*
X119964Y-111371D01*
X119993Y-111400D01*
X120021Y-111371D01*
X119993Y-111343D01*
X119993Y-111400D01*
X120622Y-111886D02*
X120593Y-111914D01*
X120507Y-111943D01*
X120450Y-111943D01*
X120365Y-111914D01*
X120307Y-111857D01*
X120279Y-111800D01*
X120250Y-111686D01*
X120250Y-111600D01*
X120279Y-111486D01*
X120307Y-111429D01*
X120365Y-111371D01*
X120450Y-111343D01*
X120507Y-111343D01*
X120593Y-111371D01*
X120622Y-111400D01*
X121136Y-111943D02*
X121136Y-111629D01*
X121107Y-111571D01*
X121050Y-111543D01*
X120936Y-111543D01*
X120879Y-111571D01*
X121136Y-111914D02*
X121079Y-111943D01*
X120936Y-111943D01*
X120879Y-111914D01*
X120850Y-111857D01*
X120850Y-111800D01*
X120879Y-111743D01*
X120936Y-111714D01*
X121079Y-111714D01*
X121136Y-111686D01*
X121679Y-111943D02*
X121679Y-111343D01*
X121679Y-111914D02*
X121622Y-111943D01*
X121508Y-111943D01*
X121450Y-111914D01*
X121422Y-111886D01*
X121393Y-111829D01*
X121393Y-111657D01*
X121422Y-111600D01*
X121450Y-111571D01*
X121508Y-111543D01*
X121622Y-111543D01*
X121679Y-111571D01*
X122422Y-111629D02*
X122622Y-111629D01*
X122708Y-111943D02*
X122422Y-111943D01*
X122422Y-111343D01*
X122708Y-111343D01*
X122965Y-111886D02*
X122993Y-111914D01*
X122965Y-111943D01*
X122936Y-111914D01*
X122965Y-111886D01*
X122965Y-111943D01*
X123251Y-111943D02*
X123251Y-111343D01*
X123394Y-111343D01*
X123479Y-111371D01*
X123537Y-111429D01*
X123565Y-111486D01*
X123594Y-111600D01*
X123594Y-111686D01*
X123565Y-111800D01*
X123537Y-111857D01*
X123479Y-111914D01*
X123394Y-111943D01*
X123251Y-111943D01*
X123851Y-111886D02*
X123879Y-111914D01*
X123851Y-111943D01*
X123822Y-111914D01*
X123851Y-111886D01*
X123851Y-111943D01*
X124108Y-111771D02*
X124394Y-111771D01*
X124051Y-111943D02*
X124251Y-111343D01*
X124451Y-111943D01*
X124651Y-111886D02*
X124679Y-111914D01*
X124651Y-111943D01*
X124622Y-111914D01*
X124651Y-111886D01*
X124651Y-111943D01*
G54D11*
X152936Y-110743D02*
X152736Y-110457D01*
X152593Y-110743D02*
X152593Y-110143D01*
X152821Y-110143D01*
X152879Y-110171D01*
X152907Y-110200D01*
X152936Y-110257D01*
X152936Y-110343D01*
X152907Y-110400D01*
X152879Y-110429D01*
X152821Y-110457D01*
X152593Y-110457D01*
X153421Y-110714D02*
X153364Y-110743D01*
X153250Y-110743D01*
X153193Y-110714D01*
X153164Y-110657D01*
X153164Y-110429D01*
X153193Y-110371D01*
X153250Y-110343D01*
X153364Y-110343D01*
X153421Y-110371D01*
X153450Y-110429D01*
X153450Y-110486D01*
X153164Y-110543D01*
X153650Y-110343D02*
X153793Y-110743D01*
X153935Y-110343D01*
X154164Y-110686D02*
X154192Y-110714D01*
X154164Y-110743D01*
X154135Y-110714D01*
X154164Y-110686D01*
X154164Y-110743D01*
X154164Y-110371D02*
X154192Y-110400D01*
X154164Y-110429D01*
X154135Y-110400D01*
X154164Y-110371D01*
X154164Y-110429D01*
X155221Y-110743D02*
X154878Y-110743D01*
X155050Y-110743D02*
X155050Y-110143D01*
X154993Y-110229D01*
X154935Y-110286D01*
X154878Y-110314D01*
X155478Y-110686D02*
X155506Y-110714D01*
X155478Y-110743D01*
X155449Y-110714D01*
X155478Y-110686D01*
X155478Y-110743D01*
X156078Y-110743D02*
X155735Y-110743D01*
X155907Y-110743D02*
X155907Y-110143D01*
X155850Y-110229D01*
X155792Y-110286D01*
X155735Y-110314D01*
X156449Y-110143D02*
X156506Y-110143D01*
X156563Y-110171D01*
X156592Y-110200D01*
X156621Y-110257D01*
X156649Y-110371D01*
X156649Y-110514D01*
X156621Y-110629D01*
X156592Y-110686D01*
X156563Y-110714D01*
X156506Y-110743D01*
X156449Y-110743D01*
X156392Y-110714D01*
X156363Y-110686D01*
X156335Y-110629D01*
X156306Y-110514D01*
X156306Y-110371D01*
X156335Y-110257D01*
X156363Y-110200D01*
X156392Y-110171D01*
X156449Y-110143D01*
G54D10*
X119364Y-110714D02*
X119450Y-110743D01*
X119593Y-110743D01*
X119650Y-110714D01*
X119679Y-110686D01*
X119707Y-110629D01*
X119707Y-110571D01*
X119679Y-110514D01*
X119650Y-110486D01*
X119593Y-110457D01*
X119479Y-110429D01*
X119421Y-110400D01*
X119393Y-110371D01*
X119364Y-110314D01*
X119364Y-110257D01*
X119393Y-110200D01*
X119421Y-110171D01*
X119479Y-110143D01*
X119621Y-110143D01*
X119707Y-110171D01*
X119964Y-110743D02*
X119964Y-110343D01*
X119964Y-110143D02*
X119935Y-110171D01*
X119964Y-110200D01*
X119992Y-110171D01*
X119964Y-110143D01*
X119964Y-110200D01*
X120193Y-110343D02*
X120507Y-110343D01*
X120193Y-110743D01*
X120507Y-110743D01*
X120964Y-110714D02*
X120907Y-110743D01*
X120793Y-110743D01*
X120736Y-110714D01*
X120707Y-110657D01*
X120707Y-110429D01*
X120736Y-110371D01*
X120793Y-110343D01*
X120907Y-110343D01*
X120964Y-110371D01*
X120993Y-110429D01*
X120993Y-110486D01*
X120707Y-110543D01*
X121250Y-110686D02*
X121278Y-110714D01*
X121250Y-110743D01*
X121221Y-110714D01*
X121250Y-110686D01*
X121250Y-110743D01*
X121250Y-110371D02*
X121278Y-110400D01*
X121250Y-110429D01*
X121221Y-110400D01*
X121250Y-110371D01*
X121250Y-110429D01*
X121964Y-110571D02*
X122250Y-110571D01*
X121907Y-110743D02*
X122107Y-110143D01*
X122307Y-110743D01*
X122450Y-110143D02*
X122821Y-110143D01*
X122621Y-110371D01*
X122707Y-110371D01*
X122764Y-110400D01*
X122793Y-110429D01*
X122821Y-110486D01*
X122821Y-110629D01*
X122793Y-110686D01*
X122764Y-110714D01*
X122707Y-110743D01*
X122535Y-110743D01*
X122478Y-110714D01*
X122450Y-110686D01*
X152593Y-111943D02*
X152593Y-111343D01*
X153136Y-111943D02*
X153136Y-111343D01*
X153136Y-111914D02*
X153079Y-111943D01*
X152965Y-111943D01*
X152907Y-111914D01*
X152879Y-111886D01*
X152850Y-111829D01*
X152850Y-111657D01*
X152879Y-111600D01*
X152907Y-111571D01*
X152965Y-111543D01*
X153079Y-111543D01*
X153136Y-111571D01*
X153422Y-111886D02*
X153450Y-111914D01*
X153422Y-111943D01*
X153393Y-111914D01*
X153422Y-111886D01*
X153422Y-111943D01*
X153422Y-111571D02*
X153450Y-111600D01*
X153422Y-111629D01*
X153393Y-111600D01*
X153422Y-111571D01*
X153422Y-111629D01*
X154479Y-111943D02*
X154136Y-111943D01*
X154308Y-111943D02*
X154308Y-111343D01*
X154251Y-111429D01*
X154193Y-111486D01*
X154136Y-111514D01*
X155164Y-111314D02*
X154650Y-112086D01*
X155679Y-111943D02*
X155336Y-111943D01*
X155508Y-111943D02*
X155508Y-111343D01*
X155451Y-111429D01*
X155393Y-111486D01*
X155336Y-111514D01*
G54D11*
X119307Y-108943D02*
X119650Y-108943D01*
X119479Y-109543D02*
X119479Y-108943D01*
X119850Y-109543D02*
X119850Y-109143D01*
X119850Y-108943D02*
X119821Y-108971D01*
X119850Y-109000D01*
X119878Y-108971D01*
X119850Y-108943D01*
X119850Y-109000D01*
X120050Y-109143D02*
X120279Y-109143D01*
X120136Y-108943D02*
X120136Y-109457D01*
X120164Y-109514D01*
X120222Y-109543D01*
X120279Y-109543D01*
X120565Y-109543D02*
X120507Y-109514D01*
X120479Y-109457D01*
X120479Y-108943D01*
X121021Y-109514D02*
X120964Y-109543D01*
X120850Y-109543D01*
X120793Y-109514D01*
X120764Y-109457D01*
X120764Y-109229D01*
X120793Y-109171D01*
X120850Y-109143D01*
X120964Y-109143D01*
X121021Y-109171D01*
X121050Y-109229D01*
X121050Y-109286D01*
X120764Y-109343D01*
X121307Y-109486D02*
X121335Y-109514D01*
X121307Y-109543D01*
X121278Y-109514D01*
X121307Y-109486D01*
X121307Y-109543D01*
X121307Y-109171D02*
X121335Y-109200D01*
X121307Y-109229D01*
X121278Y-109200D01*
X121307Y-109171D01*
X121307Y-109229D01*
X122250Y-109229D02*
X122336Y-109257D01*
X122364Y-109286D01*
X122393Y-109343D01*
X122393Y-109429D01*
X122364Y-109486D01*
X122336Y-109514D01*
X122278Y-109543D01*
X122050Y-109543D01*
X122050Y-108943D01*
X122250Y-108943D01*
X122307Y-108971D01*
X122336Y-109000D01*
X122364Y-109057D01*
X122364Y-109114D01*
X122336Y-109171D01*
X122307Y-109200D01*
X122250Y-109229D01*
X122050Y-109229D01*
X122878Y-109514D02*
X122821Y-109543D01*
X122707Y-109543D01*
X122650Y-109514D01*
X122621Y-109457D01*
X122621Y-109229D01*
X122650Y-109171D01*
X122707Y-109143D01*
X122821Y-109143D01*
X122878Y-109171D01*
X122907Y-109229D01*
X122907Y-109286D01*
X122621Y-109343D01*
X123135Y-109514D02*
X123192Y-109543D01*
X123307Y-109543D01*
X123364Y-109514D01*
X123392Y-109457D01*
X123392Y-109429D01*
X123364Y-109371D01*
X123307Y-109343D01*
X123221Y-109343D01*
X123164Y-109314D01*
X123135Y-109257D01*
X123135Y-109229D01*
X123164Y-109171D01*
X123221Y-109143D01*
X123307Y-109143D01*
X123364Y-109171D01*
X123564Y-109143D02*
X123793Y-109143D01*
X123650Y-108943D02*
X123650Y-109457D01*
X123678Y-109514D01*
X123736Y-109543D01*
X123793Y-109543D01*
X123993Y-109543D02*
X123993Y-108943D01*
X124336Y-109543D02*
X124079Y-109200D01*
X124336Y-108943D02*
X123993Y-109286D01*
X124593Y-109543D02*
X124593Y-109143D01*
X124593Y-108943D02*
X124564Y-108971D01*
X124593Y-109000D01*
X124621Y-108971D01*
X124593Y-108943D01*
X124593Y-109000D01*
X124793Y-109143D02*
X125022Y-109143D01*
X124879Y-108943D02*
X124879Y-109457D01*
X124907Y-109514D01*
X124965Y-109543D01*
X125022Y-109543D01*
X125479Y-109514D02*
X125422Y-109543D01*
X125308Y-109543D01*
X125250Y-109514D01*
X125222Y-109486D01*
X125193Y-109429D01*
X125193Y-109257D01*
X125222Y-109200D01*
X125250Y-109171D01*
X125308Y-109143D01*
X125422Y-109143D01*
X125479Y-109171D01*
X125736Y-109543D02*
X125736Y-108943D01*
X125993Y-109543D02*
X125993Y-109229D01*
X125964Y-109171D01*
X125907Y-109143D01*
X125822Y-109143D01*
X125764Y-109171D01*
X125736Y-109200D01*
X126507Y-109514D02*
X126450Y-109543D01*
X126336Y-109543D01*
X126279Y-109514D01*
X126250Y-109457D01*
X126250Y-109229D01*
X126279Y-109171D01*
X126336Y-109143D01*
X126450Y-109143D01*
X126507Y-109171D01*
X126536Y-109229D01*
X126536Y-109286D01*
X126250Y-109343D01*
X126793Y-109143D02*
X126793Y-109543D01*
X126793Y-109200D02*
X126821Y-109171D01*
X126879Y-109143D01*
X126964Y-109143D01*
X127021Y-109171D01*
X127050Y-109229D01*
X127050Y-109543D01*
X127622Y-109543D02*
X127336Y-109543D01*
X127336Y-108943D01*
X127822Y-109543D02*
X127822Y-109143D01*
X127822Y-108943D02*
X127793Y-108971D01*
X127822Y-109000D01*
X127850Y-108971D01*
X127822Y-108943D01*
X127822Y-109000D01*
X128365Y-109143D02*
X128365Y-109629D01*
X128336Y-109686D01*
X128308Y-109714D01*
X128251Y-109743D01*
X128165Y-109743D01*
X128108Y-109714D01*
X128365Y-109514D02*
X128308Y-109543D01*
X128194Y-109543D01*
X128136Y-109514D01*
X128108Y-109486D01*
X128079Y-109429D01*
X128079Y-109257D01*
X128108Y-109200D01*
X128136Y-109171D01*
X128194Y-109143D01*
X128308Y-109143D01*
X128365Y-109171D01*
X128651Y-109543D02*
X128651Y-108943D01*
X128908Y-109543D02*
X128908Y-109229D01*
X128879Y-109171D01*
X128822Y-109143D01*
X128737Y-109143D01*
X128679Y-109171D01*
X128651Y-109200D01*
X129108Y-109143D02*
X129337Y-109143D01*
X129194Y-108943D02*
X129194Y-109457D01*
X129222Y-109514D01*
X129280Y-109543D01*
X129337Y-109543D01*
X129508Y-109514D02*
X129565Y-109543D01*
X129680Y-109543D01*
X129737Y-109514D01*
X129765Y-109457D01*
X129765Y-109429D01*
X129737Y-109371D01*
X129680Y-109343D01*
X129594Y-109343D01*
X129537Y-109314D01*
X129508Y-109257D01*
X129508Y-109229D01*
X129537Y-109171D01*
X129594Y-109143D01*
X129680Y-109143D01*
X129737Y-109171D01*
X130023Y-109229D02*
X130223Y-109229D01*
X130309Y-109543D02*
X130023Y-109543D01*
X130023Y-108943D01*
X130309Y-108943D01*
X130509Y-109143D02*
X130652Y-109543D01*
X130794Y-109143D01*
X131251Y-109514D02*
X131194Y-109543D01*
X131080Y-109543D01*
X131023Y-109514D01*
X130994Y-109457D01*
X130994Y-109229D01*
X131023Y-109171D01*
X131080Y-109143D01*
X131194Y-109143D01*
X131251Y-109171D01*
X131280Y-109229D01*
X131280Y-109286D01*
X130994Y-109343D01*
X131537Y-109543D02*
X131537Y-109143D01*
X131537Y-109257D02*
X131565Y-109200D01*
X131594Y-109171D01*
X131651Y-109143D01*
X131708Y-109143D01*
X132079Y-109771D02*
X132051Y-109743D01*
X131994Y-109657D01*
X131965Y-109600D01*
X131936Y-109514D01*
X131908Y-109371D01*
X131908Y-109257D01*
X131936Y-109114D01*
X131965Y-109029D01*
X131994Y-108971D01*
X132051Y-108886D01*
X132079Y-108857D01*
X132222Y-109143D02*
X132451Y-109143D01*
X132308Y-108943D02*
X132308Y-109457D01*
X132336Y-109514D01*
X132394Y-109543D01*
X132451Y-109543D01*
X132651Y-109543D02*
X132651Y-109143D01*
X132651Y-109200D02*
X132679Y-109171D01*
X132737Y-109143D01*
X132822Y-109143D01*
X132879Y-109171D01*
X132908Y-109229D01*
X132908Y-109543D01*
X132908Y-109229D02*
X132937Y-109171D01*
X132994Y-109143D01*
X133079Y-109143D01*
X133137Y-109171D01*
X133165Y-109229D01*
X133165Y-109543D01*
X133394Y-109771D02*
X133422Y-109743D01*
X133479Y-109657D01*
X133508Y-109600D01*
X133537Y-109514D01*
X133565Y-109371D01*
X133565Y-109257D01*
X133537Y-109114D01*
X133508Y-109029D01*
X133479Y-108971D01*
X133422Y-108886D01*
X133394Y-108857D01*
G54D10*
X119593Y-106829D02*
X119393Y-106829D01*
X119393Y-107143D02*
X119393Y-106543D01*
X119679Y-106543D01*
X119907Y-107143D02*
X119907Y-106743D01*
X119907Y-106543D02*
X119878Y-106571D01*
X119907Y-106600D01*
X119935Y-106571D01*
X119907Y-106543D01*
X119907Y-106600D01*
X120279Y-107143D02*
X120221Y-107114D01*
X120193Y-107057D01*
X120193Y-106543D01*
X120735Y-107114D02*
X120678Y-107143D01*
X120564Y-107143D01*
X120507Y-107114D01*
X120478Y-107057D01*
X120478Y-106829D01*
X120507Y-106771D01*
X120564Y-106743D01*
X120678Y-106743D01*
X120735Y-106771D01*
X120764Y-106829D01*
X120764Y-106886D01*
X120478Y-106943D01*
X121021Y-107086D02*
X121049Y-107114D01*
X121021Y-107143D01*
X120992Y-107114D01*
X121021Y-107086D01*
X121021Y-107143D01*
X121021Y-106771D02*
X121049Y-106800D01*
X121021Y-106829D01*
X120992Y-106800D01*
X121021Y-106771D01*
X121021Y-106829D01*
X121764Y-107143D02*
X121764Y-106543D01*
X121821Y-106914D02*
X121992Y-107143D01*
X121992Y-106743D02*
X121764Y-106971D01*
X122250Y-107143D02*
X122250Y-106743D01*
X122250Y-106543D02*
X122221Y-106571D01*
X122250Y-106600D01*
X122278Y-106571D01*
X122250Y-106543D01*
X122250Y-106600D01*
X122450Y-106743D02*
X122679Y-106743D01*
X122536Y-106543D02*
X122536Y-107057D01*
X122564Y-107114D01*
X122622Y-107143D01*
X122679Y-107143D01*
X123136Y-107114D02*
X123079Y-107143D01*
X122965Y-107143D01*
X122907Y-107114D01*
X122879Y-107086D01*
X122850Y-107029D01*
X122850Y-106857D01*
X122879Y-106800D01*
X122907Y-106771D01*
X122965Y-106743D01*
X123079Y-106743D01*
X123136Y-106771D01*
X123393Y-107143D02*
X123393Y-106543D01*
X123650Y-107143D02*
X123650Y-106829D01*
X123621Y-106771D01*
X123564Y-106743D01*
X123479Y-106743D01*
X123421Y-106771D01*
X123393Y-106800D01*
X124164Y-107114D02*
X124107Y-107143D01*
X123993Y-107143D01*
X123936Y-107114D01*
X123907Y-107057D01*
X123907Y-106829D01*
X123936Y-106771D01*
X123993Y-106743D01*
X124107Y-106743D01*
X124164Y-106771D01*
X124193Y-106829D01*
X124193Y-106886D01*
X123907Y-106943D01*
X124450Y-106743D02*
X124450Y-107143D01*
X124450Y-106800D02*
X124478Y-106771D01*
X124536Y-106743D01*
X124621Y-106743D01*
X124678Y-106771D01*
X124707Y-106829D01*
X124707Y-107143D01*
X124850Y-107200D02*
X125307Y-107200D01*
X125536Y-107143D02*
X125478Y-107114D01*
X125450Y-107057D01*
X125450Y-106543D01*
X125764Y-107143D02*
X125764Y-106743D01*
X125764Y-106543D02*
X125735Y-106571D01*
X125764Y-106600D01*
X125792Y-106571D01*
X125764Y-106543D01*
X125764Y-106600D01*
X126307Y-106743D02*
X126307Y-107229D01*
X126278Y-107286D01*
X126250Y-107314D01*
X126193Y-107343D01*
X126107Y-107343D01*
X126050Y-107314D01*
X126307Y-107114D02*
X126250Y-107143D01*
X126136Y-107143D01*
X126078Y-107114D01*
X126050Y-107086D01*
X126021Y-107029D01*
X126021Y-106857D01*
X126050Y-106800D01*
X126078Y-106771D01*
X126136Y-106743D01*
X126250Y-106743D01*
X126307Y-106771D01*
X126593Y-107143D02*
X126593Y-106543D01*
X126850Y-107143D02*
X126850Y-106829D01*
X126821Y-106771D01*
X126764Y-106743D01*
X126679Y-106743D01*
X126621Y-106771D01*
X126593Y-106800D01*
X127050Y-106743D02*
X127279Y-106743D01*
X127136Y-106543D02*
X127136Y-107057D01*
X127164Y-107114D01*
X127222Y-107143D01*
X127279Y-107143D01*
X127450Y-107114D02*
X127507Y-107143D01*
X127622Y-107143D01*
X127679Y-107114D01*
X127707Y-107057D01*
X127707Y-107029D01*
X127679Y-106971D01*
X127622Y-106943D01*
X127536Y-106943D01*
X127479Y-106914D01*
X127450Y-106857D01*
X127450Y-106829D01*
X127479Y-106771D01*
X127536Y-106743D01*
X127622Y-106743D01*
X127679Y-106771D01*
X127965Y-107086D02*
X127993Y-107114D01*
X127965Y-107143D01*
X127936Y-107114D01*
X127965Y-107086D01*
X127965Y-107143D01*
X128251Y-107143D02*
X128251Y-106543D01*
X128251Y-106771D02*
X128308Y-106743D01*
X128422Y-106743D01*
X128479Y-106771D01*
X128508Y-106800D01*
X128537Y-106857D01*
X128537Y-107029D01*
X128508Y-107086D01*
X128479Y-107114D01*
X128422Y-107143D01*
X128308Y-107143D01*
X128251Y-107114D01*
X128794Y-107143D02*
X128794Y-106743D01*
X128794Y-106857D02*
X128822Y-106800D01*
X128851Y-106771D01*
X128908Y-106743D01*
X128965Y-106743D01*
X129422Y-107143D02*
X129422Y-106543D01*
X129422Y-107114D02*
X129365Y-107143D01*
X129251Y-107143D01*
X129193Y-107114D01*
X129165Y-107086D01*
X129136Y-107029D01*
X129136Y-106857D01*
X129165Y-106800D01*
X129193Y-106771D01*
X129251Y-106743D01*
X129365Y-106743D01*
X129422Y-106771D01*
X119364Y-108314D02*
X119450Y-108343D01*
X119593Y-108343D01*
X119650Y-108314D01*
X119679Y-108286D01*
X119707Y-108229D01*
X119707Y-108171D01*
X119679Y-108114D01*
X119650Y-108086D01*
X119593Y-108057D01*
X119479Y-108029D01*
X119421Y-108000D01*
X119393Y-107971D01*
X119364Y-107914D01*
X119364Y-107857D01*
X119393Y-107800D01*
X119421Y-107771D01*
X119479Y-107743D01*
X119621Y-107743D01*
X119707Y-107771D01*
X119964Y-108343D02*
X119964Y-107743D01*
X120221Y-108343D02*
X120221Y-108029D01*
X120192Y-107971D01*
X120135Y-107943D01*
X120050Y-107943D01*
X119992Y-107971D01*
X119964Y-108000D01*
X120735Y-108314D02*
X120678Y-108343D01*
X120564Y-108343D01*
X120507Y-108314D01*
X120478Y-108257D01*
X120478Y-108029D01*
X120507Y-107971D01*
X120564Y-107943D01*
X120678Y-107943D01*
X120735Y-107971D01*
X120764Y-108029D01*
X120764Y-108086D01*
X120478Y-108143D01*
X121249Y-108314D02*
X121192Y-108343D01*
X121078Y-108343D01*
X121021Y-108314D01*
X120992Y-108257D01*
X120992Y-108029D01*
X121021Y-107971D01*
X121078Y-107943D01*
X121192Y-107943D01*
X121249Y-107971D01*
X121278Y-108029D01*
X121278Y-108086D01*
X120992Y-108143D01*
X121449Y-107943D02*
X121678Y-107943D01*
X121535Y-107743D02*
X121535Y-108257D01*
X121563Y-108314D01*
X121621Y-108343D01*
X121678Y-108343D01*
X121878Y-108286D02*
X121906Y-108314D01*
X121878Y-108343D01*
X121849Y-108314D01*
X121878Y-108286D01*
X121878Y-108343D01*
X121878Y-107971D02*
X121906Y-108000D01*
X121878Y-108029D01*
X121849Y-108000D01*
X121878Y-107971D01*
X121878Y-108029D01*
X122935Y-108343D02*
X122592Y-108343D01*
X122764Y-108343D02*
X122764Y-107743D01*
X122707Y-107829D01*
X122649Y-107886D01*
X122592Y-107914D01*
X123620Y-107714D02*
X123106Y-108486D01*
X124135Y-108343D02*
X123792Y-108343D01*
X123964Y-108343D02*
X123964Y-107743D01*
X123907Y-107829D01*
X123849Y-107886D01*
X123792Y-107914D01*
G54D11*
X119393Y-105943D02*
X119393Y-105343D01*
X119593Y-105771D01*
X119793Y-105343D01*
X119793Y-105943D01*
X120022Y-105543D02*
X120165Y-105943D01*
X120307Y-105543D02*
X120165Y-105943D01*
X120107Y-106086D01*
X120079Y-106114D01*
X120022Y-106143D01*
X120964Y-105400D02*
X120993Y-105371D01*
X121050Y-105343D01*
X121193Y-105343D01*
X121250Y-105371D01*
X121279Y-105400D01*
X121307Y-105457D01*
X121307Y-105514D01*
X121279Y-105600D01*
X120936Y-105943D01*
X121307Y-105943D01*
X121564Y-105543D02*
X121564Y-106143D01*
X121850Y-105857D02*
X121878Y-105914D01*
X121935Y-105943D01*
X121564Y-105857D02*
X121592Y-105914D01*
X121650Y-105943D01*
X121764Y-105943D01*
X121821Y-105914D01*
X121850Y-105857D01*
X121850Y-105543D01*
X122393Y-105629D02*
X122193Y-105629D01*
X122193Y-105943D02*
X122193Y-105343D01*
X122479Y-105343D01*
X123364Y-105629D02*
X123450Y-105657D01*
X123478Y-105686D01*
X123507Y-105743D01*
X123507Y-105829D01*
X123478Y-105886D01*
X123450Y-105914D01*
X123392Y-105943D01*
X123164Y-105943D01*
X123164Y-105343D01*
X123364Y-105343D01*
X123421Y-105371D01*
X123450Y-105400D01*
X123478Y-105457D01*
X123478Y-105514D01*
X123450Y-105571D01*
X123421Y-105600D01*
X123364Y-105629D01*
X123164Y-105629D01*
X123850Y-105943D02*
X123792Y-105914D01*
X123764Y-105857D01*
X123764Y-105343D01*
X124164Y-105943D02*
X124106Y-105914D01*
X124078Y-105886D01*
X124049Y-105829D01*
X124049Y-105657D01*
X124078Y-105600D01*
X124106Y-105571D01*
X124164Y-105543D01*
X124249Y-105543D01*
X124306Y-105571D01*
X124335Y-105600D01*
X124364Y-105657D01*
X124364Y-105829D01*
X124335Y-105886D01*
X124306Y-105914D01*
X124249Y-105943D01*
X124164Y-105943D01*
X124878Y-105543D02*
X124878Y-106029D01*
X124849Y-106086D01*
X124821Y-106114D01*
X124764Y-106143D01*
X124678Y-106143D01*
X124621Y-106114D01*
X124878Y-105914D02*
X124821Y-105943D01*
X124707Y-105943D01*
X124649Y-105914D01*
X124621Y-105886D01*
X124592Y-105829D01*
X124592Y-105657D01*
X124621Y-105600D01*
X124649Y-105571D01*
X124707Y-105543D01*
X124821Y-105543D01*
X124878Y-105571D01*
X118650Y-105100D02*
X118650Y-112300D01*
X118650Y-106300D02*
X160650Y-106300D01*
X118650Y-105100D02*
X160650Y-105100D01*
X118650Y-108700D02*
X160650Y-108700D01*
X151850Y-109900D02*
X151850Y-112300D01*
X118650Y-111100D02*
X160650Y-111100D01*
X118650Y-109900D02*
X160650Y-109900D01*
X125250Y-109900D02*
X125250Y-111100D01*
G54D12*
X53347Y-61902D02*
X53513Y-62402D01*
X53680Y-61902D01*
X54109Y-62402D02*
X53823Y-62402D01*
X53966Y-62402D02*
X53966Y-61902D01*
X53918Y-61974D01*
X53871Y-62021D01*
X53823Y-62045D01*
X54323Y-62355D02*
X54347Y-62379D01*
X54323Y-62402D01*
X54299Y-62379D01*
X54323Y-62355D01*
X54323Y-62402D01*
X54823Y-62402D02*
X54537Y-62402D01*
X54680Y-62402D02*
X54680Y-61902D01*
X54632Y-61974D01*
X54585Y-62021D01*
X54537Y-62045D01*
X55132Y-61902D02*
X55180Y-61902D01*
X55228Y-61926D01*
X55251Y-61950D01*
X55275Y-61998D01*
X55299Y-62093D01*
X55299Y-62212D01*
X55275Y-62307D01*
X55251Y-62355D01*
X55228Y-62379D01*
X55180Y-62402D01*
X55132Y-62402D01*
X55085Y-62379D01*
X55061Y-62355D01*
X55037Y-62307D01*
X55013Y-62212D01*
X55013Y-62093D01*
X55037Y-61998D01*
X55061Y-61950D01*
X55085Y-61926D01*
X55132Y-61902D01*
X55894Y-62212D02*
X56275Y-62212D01*
X56870Y-61950D02*
X56894Y-61926D01*
X56942Y-61902D01*
X57061Y-61902D01*
X57108Y-61926D01*
X57132Y-61950D01*
X57156Y-61998D01*
X57156Y-62045D01*
X57132Y-62117D01*
X56846Y-62402D01*
X57156Y-62402D01*
X57465Y-61902D02*
X57513Y-61902D01*
X57561Y-61926D01*
X57584Y-61950D01*
X57608Y-61998D01*
X57632Y-62093D01*
X57632Y-62212D01*
X57608Y-62307D01*
X57584Y-62355D01*
X57561Y-62379D01*
X57513Y-62402D01*
X57465Y-62402D01*
X57418Y-62379D01*
X57394Y-62355D01*
X57370Y-62307D01*
X57346Y-62212D01*
X57346Y-62093D01*
X57370Y-61998D01*
X57394Y-61950D01*
X57418Y-61926D01*
X57465Y-61902D01*
X58108Y-62402D02*
X57822Y-62402D01*
X57965Y-62402D02*
X57965Y-61902D01*
X57917Y-61974D01*
X57870Y-62021D01*
X57822Y-62045D01*
X58584Y-62402D02*
X58298Y-62402D01*
X58441Y-62402D02*
X58441Y-61902D01*
X58393Y-61974D01*
X58346Y-62021D01*
X58298Y-62045D01*
X59179Y-62402D02*
X59179Y-61902D01*
X59179Y-62093D02*
X59227Y-62069D01*
X59322Y-62069D01*
X59370Y-62093D01*
X59393Y-62117D01*
X59417Y-62164D01*
X59417Y-62307D01*
X59393Y-62355D01*
X59370Y-62379D01*
X59322Y-62402D01*
X59227Y-62402D01*
X59179Y-62379D01*
X59702Y-62402D02*
X59655Y-62379D01*
X59631Y-62331D01*
X59631Y-61902D01*
X59964Y-62402D02*
X59917Y-62379D01*
X59893Y-62355D01*
X59869Y-62307D01*
X59869Y-62164D01*
X59893Y-62117D01*
X59917Y-62093D01*
X59964Y-62069D01*
X60036Y-62069D01*
X60084Y-62093D01*
X60107Y-62117D01*
X60131Y-62164D01*
X60131Y-62307D01*
X60107Y-62355D01*
X60084Y-62379D01*
X60036Y-62402D01*
X59964Y-62402D01*
X60559Y-62069D02*
X60559Y-62474D01*
X60536Y-62521D01*
X60512Y-62545D01*
X60464Y-62569D01*
X60393Y-62569D01*
X60345Y-62545D01*
X60559Y-62379D02*
X60512Y-62402D01*
X60416Y-62402D01*
X60369Y-62379D01*
X60345Y-62355D01*
X60321Y-62307D01*
X60321Y-62164D01*
X60345Y-62117D01*
X60369Y-62093D01*
X60416Y-62069D01*
X60512Y-62069D01*
X60559Y-62093D01*
X60797Y-62355D02*
X60821Y-62379D01*
X60797Y-62402D01*
X60773Y-62379D01*
X60797Y-62355D01*
X60797Y-62402D01*
X61011Y-62379D02*
X61059Y-62402D01*
X61154Y-62402D01*
X61202Y-62379D01*
X61226Y-62331D01*
X61226Y-62307D01*
X61202Y-62260D01*
X61154Y-62236D01*
X61083Y-62236D01*
X61035Y-62212D01*
X61011Y-62164D01*
X61011Y-62140D01*
X61035Y-62093D01*
X61083Y-62069D01*
X61154Y-62069D01*
X61202Y-62093D01*
X61440Y-62069D02*
X61440Y-62569D01*
X61440Y-62093D02*
X61488Y-62069D01*
X61583Y-62069D01*
X61631Y-62093D01*
X61654Y-62117D01*
X61678Y-62164D01*
X61678Y-62307D01*
X61654Y-62355D01*
X61631Y-62379D01*
X61583Y-62402D01*
X61488Y-62402D01*
X61440Y-62379D01*
X61892Y-62402D02*
X61892Y-62069D01*
X61892Y-61902D02*
X61868Y-61926D01*
X61892Y-61950D01*
X61916Y-61926D01*
X61892Y-61902D01*
X61892Y-61950D01*
X62059Y-62069D02*
X62249Y-62069D01*
X62130Y-61902D02*
X62130Y-62331D01*
X62154Y-62379D01*
X62201Y-62402D01*
X62249Y-62402D01*
X62368Y-62069D02*
X62630Y-62069D01*
X62368Y-62402D01*
X62630Y-62402D01*
X63012Y-62379D02*
X62964Y-62402D01*
X62869Y-62402D01*
X62821Y-62379D01*
X62797Y-62331D01*
X62797Y-62140D01*
X62821Y-62093D01*
X62869Y-62069D01*
X62964Y-62069D01*
X63012Y-62093D01*
X63035Y-62140D01*
X63035Y-62188D01*
X62797Y-62236D01*
X63250Y-62069D02*
X63250Y-62402D01*
X63250Y-62117D02*
X63274Y-62093D01*
X63321Y-62069D01*
X63393Y-62069D01*
X63441Y-62093D01*
X63464Y-62140D01*
X63464Y-62402D01*
X63702Y-62069D02*
X63702Y-62569D01*
X63702Y-62093D02*
X63750Y-62069D01*
X63845Y-62069D01*
X63893Y-62093D01*
X63916Y-62117D01*
X63940Y-62164D01*
X63940Y-62307D01*
X63916Y-62355D01*
X63893Y-62379D01*
X63845Y-62402D01*
X63750Y-62402D01*
X63702Y-62379D01*
X64083Y-62069D02*
X64273Y-62069D01*
X64154Y-62402D02*
X64154Y-61974D01*
X64178Y-61926D01*
X64225Y-61902D01*
X64273Y-61902D01*
X64631Y-62379D02*
X64583Y-62402D01*
X64488Y-62402D01*
X64440Y-62379D01*
X64416Y-62331D01*
X64416Y-62140D01*
X64440Y-62093D01*
X64488Y-62069D01*
X64583Y-62069D01*
X64631Y-62093D01*
X64654Y-62140D01*
X64654Y-62188D01*
X64416Y-62236D01*
X64869Y-62402D02*
X64869Y-62069D01*
X64869Y-61902D02*
X64845Y-61926D01*
X64869Y-61950D01*
X64893Y-61926D01*
X64869Y-61902D01*
X64869Y-61950D01*
X65178Y-62402D02*
X65131Y-62379D01*
X65107Y-62331D01*
X65107Y-61902D01*
X65369Y-62355D02*
X65393Y-62379D01*
X65369Y-62402D01*
X65345Y-62379D01*
X65369Y-62355D01*
X65369Y-62402D01*
X65678Y-62402D02*
X65631Y-62379D01*
X65607Y-62355D01*
X65583Y-62307D01*
X65583Y-62164D01*
X65607Y-62117D01*
X65631Y-62093D01*
X65678Y-62069D01*
X65750Y-62069D01*
X65798Y-62093D01*
X65821Y-62117D01*
X65845Y-62164D01*
X65845Y-62307D01*
X65821Y-62355D01*
X65798Y-62379D01*
X65750Y-62402D01*
X65678Y-62402D01*
X66059Y-62402D02*
X66059Y-62069D01*
X66059Y-62164D02*
X66083Y-62117D01*
X66107Y-62093D01*
X66154Y-62069D01*
X66202Y-62069D01*
X66583Y-62069D02*
X66583Y-62474D01*
X66560Y-62521D01*
X66536Y-62545D01*
X66488Y-62569D01*
X66417Y-62569D01*
X66369Y-62545D01*
X66583Y-62379D02*
X66536Y-62402D01*
X66440Y-62402D01*
X66393Y-62379D01*
X66369Y-62355D01*
X66345Y-62307D01*
X66345Y-62164D01*
X66369Y-62117D01*
X66393Y-62093D01*
X66440Y-62069D01*
X66536Y-62069D01*
X66583Y-62093D01*
G54D13*
X113650Y-60800D02*
X113649Y-60809D01*
X113646Y-60819D01*
X113641Y-60827D01*
X113635Y-60835D01*
X113627Y-60841D01*
X113619Y-60846D01*
X113610Y-60848D01*
X113600Y-60849D01*
X113591Y-60849D01*
X113582Y-60846D01*
X113573Y-60841D01*
X113566Y-60835D01*
X113559Y-60828D01*
X113555Y-60819D01*
X113552Y-60810D01*
X113551Y-60800D01*
X113551Y-60791D01*
X113554Y-60782D01*
X113558Y-60773D01*
X113565Y-60766D01*
X113572Y-60759D01*
X113580Y-60755D01*
X113590Y-60752D01*
X113599Y-60751D01*
X113608Y-60751D01*
X113618Y-60754D01*
X113626Y-60758D01*
X113634Y-60764D01*
X113640Y-60772D01*
X113645Y-60780D01*
X113648Y-60789D01*
X113649Y-60799D01*
X113650Y-60800D01*
X113900Y-60800D02*
X113899Y-60809D01*
X113896Y-60819D01*
X113891Y-60827D01*
X113885Y-60835D01*
X113877Y-60841D01*
X113869Y-60846D01*
X113860Y-60848D01*
X113850Y-60849D01*
X113841Y-60849D01*
X113832Y-60846D01*
X113823Y-60841D01*
X113816Y-60835D01*
X113809Y-60828D01*
X113805Y-60819D01*
X113802Y-60810D01*
X113801Y-60800D01*
X113801Y-60791D01*
X113804Y-60782D01*
X113808Y-60773D01*
X113815Y-60766D01*
X113822Y-60759D01*
X113830Y-60755D01*
X113840Y-60752D01*
X113849Y-60751D01*
X113858Y-60751D01*
X113868Y-60754D01*
X113876Y-60758D01*
X113884Y-60764D01*
X113890Y-60772D01*
X113895Y-60780D01*
X113898Y-60789D01*
X113899Y-60799D01*
X113900Y-60800D01*
X113650Y-61050D02*
X113649Y-61059D01*
X113646Y-61069D01*
X113641Y-61077D01*
X113635Y-61085D01*
X113627Y-61091D01*
X113619Y-61096D01*
X113610Y-61098D01*
X113600Y-61099D01*
X113591Y-61099D01*
X113582Y-61096D01*
X113573Y-61091D01*
X113566Y-61085D01*
X113559Y-61078D01*
X113555Y-61069D01*
X113552Y-61060D01*
X113551Y-61050D01*
X113551Y-61041D01*
X113554Y-61032D01*
X113558Y-61023D01*
X113565Y-61016D01*
X113572Y-61009D01*
X113580Y-61005D01*
X113590Y-61002D01*
X113599Y-61001D01*
X113608Y-61001D01*
X113618Y-61004D01*
X113626Y-61008D01*
X113634Y-61014D01*
X113640Y-61022D01*
X113645Y-61030D01*
X113648Y-61039D01*
X113649Y-61049D01*
X113650Y-61050D01*
X113900Y-61050D02*
X113899Y-61059D01*
X113896Y-61069D01*
X113891Y-61077D01*
X113885Y-61085D01*
X113877Y-61091D01*
X113869Y-61096D01*
X113860Y-61098D01*
X113850Y-61099D01*
X113841Y-61099D01*
X113832Y-61096D01*
X113823Y-61091D01*
X113816Y-61085D01*
X113809Y-61078D01*
X113805Y-61069D01*
X113802Y-61060D01*
X113801Y-61050D01*
X113801Y-61041D01*
X113804Y-61032D01*
X113808Y-61023D01*
X113815Y-61016D01*
X113822Y-61009D01*
X113830Y-61005D01*
X113840Y-61002D01*
X113849Y-61001D01*
X113858Y-61001D01*
X113868Y-61004D01*
X113876Y-61008D01*
X113884Y-61014D01*
X113890Y-61022D01*
X113895Y-61030D01*
X113898Y-61039D01*
X113899Y-61049D01*
X113900Y-61050D01*
X112900Y-61050D02*
X112899Y-61059D01*
X112896Y-61069D01*
X112891Y-61077D01*
X112885Y-61085D01*
X112877Y-61091D01*
X112869Y-61096D01*
X112860Y-61098D01*
X112850Y-61099D01*
X112841Y-61099D01*
X112832Y-61096D01*
X112823Y-61091D01*
X112816Y-61085D01*
X112809Y-61078D01*
X112805Y-61069D01*
X112802Y-61060D01*
X112801Y-61050D01*
X112801Y-61041D01*
X112804Y-61032D01*
X112808Y-61023D01*
X112815Y-61016D01*
X112822Y-61009D01*
X112830Y-61005D01*
X112840Y-61002D01*
X112849Y-61001D01*
X112858Y-61001D01*
X112868Y-61004D01*
X112876Y-61008D01*
X112884Y-61014D01*
X112890Y-61022D01*
X112895Y-61030D01*
X112898Y-61039D01*
X112899Y-61049D01*
X112900Y-61050D01*
X112650Y-61050D02*
X112649Y-61059D01*
X112646Y-61069D01*
X112641Y-61077D01*
X112635Y-61085D01*
X112627Y-61091D01*
X112619Y-61096D01*
X112610Y-61098D01*
X112600Y-61099D01*
X112591Y-61099D01*
X112582Y-61096D01*
X112573Y-61091D01*
X112566Y-61085D01*
X112559Y-61078D01*
X112555Y-61069D01*
X112552Y-61060D01*
X112551Y-61050D01*
X112551Y-61041D01*
X112554Y-61032D01*
X112558Y-61023D01*
X112565Y-61016D01*
X112572Y-61009D01*
X112580Y-61005D01*
X112590Y-61002D01*
X112599Y-61001D01*
X112608Y-61001D01*
X112618Y-61004D01*
X112626Y-61008D01*
X112634Y-61014D01*
X112640Y-61022D01*
X112645Y-61030D01*
X112648Y-61039D01*
X112649Y-61049D01*
X112650Y-61050D01*
X112650Y-60800D02*
X112649Y-60809D01*
X112646Y-60819D01*
X112641Y-60827D01*
X112635Y-60835D01*
X112627Y-60841D01*
X112619Y-60846D01*
X112610Y-60848D01*
X112600Y-60849D01*
X112591Y-60849D01*
X112582Y-60846D01*
X112573Y-60841D01*
X112566Y-60835D01*
X112559Y-60828D01*
X112555Y-60819D01*
X112552Y-60810D01*
X112551Y-60800D01*
X112551Y-60791D01*
X112554Y-60782D01*
X112558Y-60773D01*
X112565Y-60766D01*
X112572Y-60759D01*
X112580Y-60755D01*
X112590Y-60752D01*
X112599Y-60751D01*
X112608Y-60751D01*
X112618Y-60754D01*
X112626Y-60758D01*
X112634Y-60764D01*
X112640Y-60772D01*
X112645Y-60780D01*
X112648Y-60789D01*
X112649Y-60799D01*
X112650Y-60800D01*
X112900Y-60800D02*
X112899Y-60809D01*
X112896Y-60819D01*
X112891Y-60827D01*
X112885Y-60835D01*
X112877Y-60841D01*
X112869Y-60846D01*
X112860Y-60848D01*
X112850Y-60849D01*
X112841Y-60849D01*
X112832Y-60846D01*
X112823Y-60841D01*
X112816Y-60835D01*
X112809Y-60828D01*
X112805Y-60819D01*
X112802Y-60810D01*
X112801Y-60800D01*
X112801Y-60791D01*
X112804Y-60782D01*
X112808Y-60773D01*
X112815Y-60766D01*
X112822Y-60759D01*
X112830Y-60755D01*
X112840Y-60752D01*
X112849Y-60751D01*
X112858Y-60751D01*
X112868Y-60754D01*
X112876Y-60758D01*
X112884Y-60764D01*
X112890Y-60772D01*
X112895Y-60780D01*
X112898Y-60789D01*
X112899Y-60799D01*
X112900Y-60800D01*
X113150Y-61550D02*
X113149Y-61559D01*
X113146Y-61569D01*
X113141Y-61577D01*
X113135Y-61585D01*
X113127Y-61591D01*
X113119Y-61596D01*
X113110Y-61598D01*
X113100Y-61599D01*
X113091Y-61599D01*
X113082Y-61596D01*
X113073Y-61591D01*
X113066Y-61585D01*
X113059Y-61578D01*
X113055Y-61569D01*
X113052Y-61560D01*
X113051Y-61550D01*
X113051Y-61541D01*
X113054Y-61532D01*
X113058Y-61523D01*
X113065Y-61516D01*
X113072Y-61509D01*
X113080Y-61505D01*
X113090Y-61502D01*
X113099Y-61501D01*
X113108Y-61501D01*
X113118Y-61504D01*
X113126Y-61508D01*
X113134Y-61514D01*
X113140Y-61522D01*
X113145Y-61530D01*
X113148Y-61539D01*
X113149Y-61549D01*
X113150Y-61550D01*
X113400Y-61550D02*
X113399Y-61559D01*
X113396Y-61569D01*
X113391Y-61577D01*
X113385Y-61585D01*
X113377Y-61591D01*
X113369Y-61596D01*
X113360Y-61598D01*
X113350Y-61599D01*
X113341Y-61599D01*
X113332Y-61596D01*
X113323Y-61591D01*
X113316Y-61585D01*
X113309Y-61578D01*
X113305Y-61569D01*
X113302Y-61560D01*
X113301Y-61550D01*
X113301Y-61541D01*
X113304Y-61532D01*
X113308Y-61523D01*
X113315Y-61516D01*
X113322Y-61509D01*
X113330Y-61505D01*
X113340Y-61502D01*
X113349Y-61501D01*
X113358Y-61501D01*
X113368Y-61504D01*
X113376Y-61508D01*
X113384Y-61514D01*
X113390Y-61522D01*
X113395Y-61530D01*
X113398Y-61539D01*
X113399Y-61549D01*
X113400Y-61550D01*
X113150Y-61800D02*
X113149Y-61809D01*
X113146Y-61819D01*
X113141Y-61827D01*
X113135Y-61835D01*
X113127Y-61841D01*
X113119Y-61846D01*
X113110Y-61848D01*
X113100Y-61849D01*
X113091Y-61849D01*
X113082Y-61846D01*
X113073Y-61841D01*
X113066Y-61835D01*
X113059Y-61828D01*
X113055Y-61819D01*
X113052Y-61810D01*
X113051Y-61800D01*
X113051Y-61791D01*
X113054Y-61782D01*
X113058Y-61773D01*
X113065Y-61766D01*
X113072Y-61759D01*
X113080Y-61755D01*
X113090Y-61752D01*
X113099Y-61751D01*
X113108Y-61751D01*
X113118Y-61754D01*
X113126Y-61758D01*
X113134Y-61764D01*
X113140Y-61772D01*
X113145Y-61780D01*
X113148Y-61789D01*
X113149Y-61799D01*
X113150Y-61800D01*
X113400Y-61800D02*
X113399Y-61809D01*
X113396Y-61819D01*
X113391Y-61827D01*
X113385Y-61835D01*
X113377Y-61841D01*
X113369Y-61846D01*
X113360Y-61848D01*
X113350Y-61849D01*
X113341Y-61849D01*
X113332Y-61846D01*
X113323Y-61841D01*
X113316Y-61835D01*
X113309Y-61828D01*
X113305Y-61819D01*
X113302Y-61810D01*
X113301Y-61800D01*
X113301Y-61791D01*
X113304Y-61782D01*
X113308Y-61773D01*
X113315Y-61766D01*
X113322Y-61759D01*
X113330Y-61755D01*
X113340Y-61752D01*
X113349Y-61751D01*
X113358Y-61751D01*
X113368Y-61754D01*
X113376Y-61758D01*
X113384Y-61764D01*
X113390Y-61772D01*
X113395Y-61780D01*
X113398Y-61789D01*
X113399Y-61799D01*
X113400Y-61800D01*
X113150Y-62300D02*
X113149Y-62309D01*
X113146Y-62319D01*
X113141Y-62327D01*
X113135Y-62335D01*
X113127Y-62341D01*
X113119Y-62346D01*
X113110Y-62348D01*
X113100Y-62349D01*
X113091Y-62349D01*
X113082Y-62346D01*
X113073Y-62341D01*
X113066Y-62335D01*
X113059Y-62328D01*
X113055Y-62319D01*
X113052Y-62310D01*
X113051Y-62300D01*
X113051Y-62291D01*
X113054Y-62282D01*
X113058Y-62273D01*
X113065Y-62266D01*
X113072Y-62259D01*
X113080Y-62255D01*
X113090Y-62252D01*
X113099Y-62251D01*
X113108Y-62251D01*
X113118Y-62254D01*
X113126Y-62258D01*
X113134Y-62264D01*
X113140Y-62272D01*
X113145Y-62280D01*
X113148Y-62289D01*
X113149Y-62299D01*
X113150Y-62300D01*
X113400Y-62300D02*
X113399Y-62309D01*
X113396Y-62319D01*
X113391Y-62327D01*
X113385Y-62335D01*
X113377Y-62341D01*
X113369Y-62346D01*
X113360Y-62348D01*
X113350Y-62349D01*
X113341Y-62349D01*
X113332Y-62346D01*
X113323Y-62341D01*
X113316Y-62335D01*
X113309Y-62328D01*
X113305Y-62319D01*
X113302Y-62310D01*
X113301Y-62300D01*
X113301Y-62291D01*
X113304Y-62282D01*
X113308Y-62273D01*
X113315Y-62266D01*
X113322Y-62259D01*
X113330Y-62255D01*
X113340Y-62252D01*
X113349Y-62251D01*
X113358Y-62251D01*
X113368Y-62254D01*
X113376Y-62258D01*
X113384Y-62264D01*
X113390Y-62272D01*
X113395Y-62280D01*
X113398Y-62289D01*
X113399Y-62299D01*
X113400Y-62300D01*
X113650Y-62300D02*
X113649Y-62309D01*
X113646Y-62319D01*
X113641Y-62327D01*
X113635Y-62335D01*
X113627Y-62341D01*
X113619Y-62346D01*
X113610Y-62348D01*
X113600Y-62349D01*
X113591Y-62349D01*
X113582Y-62346D01*
X113573Y-62341D01*
X113566Y-62335D01*
X113559Y-62328D01*
X113555Y-62319D01*
X113552Y-62310D01*
X113551Y-62300D01*
X113551Y-62291D01*
X113554Y-62282D01*
X113558Y-62273D01*
X113565Y-62266D01*
X113572Y-62259D01*
X113580Y-62255D01*
X113590Y-62252D01*
X113599Y-62251D01*
X113608Y-62251D01*
X113618Y-62254D01*
X113626Y-62258D01*
X113634Y-62264D01*
X113640Y-62272D01*
X113645Y-62280D01*
X113648Y-62289D01*
X113649Y-62299D01*
X113650Y-62300D01*
X113900Y-62050D02*
X113899Y-62059D01*
X113896Y-62069D01*
X113891Y-62077D01*
X113885Y-62085D01*
X113877Y-62091D01*
X113869Y-62096D01*
X113860Y-62098D01*
X113850Y-62099D01*
X113841Y-62099D01*
X113832Y-62096D01*
X113823Y-62091D01*
X113816Y-62085D01*
X113809Y-62078D01*
X113805Y-62069D01*
X113802Y-62060D01*
X113801Y-62050D01*
X113801Y-62041D01*
X113804Y-62032D01*
X113808Y-62023D01*
X113815Y-62016D01*
X113822Y-62009D01*
X113830Y-62005D01*
X113840Y-62002D01*
X113849Y-62001D01*
X113858Y-62001D01*
X113868Y-62004D01*
X113876Y-62008D01*
X113884Y-62014D01*
X113890Y-62022D01*
X113895Y-62030D01*
X113898Y-62039D01*
X113899Y-62049D01*
X113900Y-62050D01*
X114150Y-61800D02*
X114149Y-61809D01*
X114146Y-61819D01*
X114141Y-61827D01*
X114135Y-61835D01*
X114127Y-61841D01*
X114119Y-61846D01*
X114110Y-61848D01*
X114100Y-61849D01*
X114091Y-61849D01*
X114082Y-61846D01*
X114073Y-61841D01*
X114066Y-61835D01*
X114059Y-61828D01*
X114055Y-61819D01*
X114052Y-61810D01*
X114051Y-61800D01*
X114051Y-61791D01*
X114054Y-61782D01*
X114058Y-61773D01*
X114065Y-61766D01*
X114072Y-61759D01*
X114080Y-61755D01*
X114090Y-61752D01*
X114099Y-61751D01*
X114108Y-61751D01*
X114118Y-61754D01*
X114126Y-61758D01*
X114134Y-61764D01*
X114140Y-61772D01*
X114145Y-61780D01*
X114148Y-61789D01*
X114149Y-61799D01*
X114150Y-61800D01*
X112900Y-62300D02*
X112899Y-62309D01*
X112896Y-62319D01*
X112891Y-62327D01*
X112885Y-62335D01*
X112877Y-62341D01*
X112869Y-62346D01*
X112860Y-62348D01*
X112850Y-62349D01*
X112841Y-62349D01*
X112832Y-62346D01*
X112823Y-62341D01*
X112816Y-62335D01*
X112809Y-62328D01*
X112805Y-62319D01*
X112802Y-62310D01*
X112801Y-62300D01*
X112801Y-62291D01*
X112804Y-62282D01*
X112808Y-62273D01*
X112815Y-62266D01*
X112822Y-62259D01*
X112830Y-62255D01*
X112840Y-62252D01*
X112849Y-62251D01*
X112858Y-62251D01*
X112868Y-62254D01*
X112876Y-62258D01*
X112884Y-62264D01*
X112890Y-62272D01*
X112895Y-62280D01*
X112898Y-62289D01*
X112899Y-62299D01*
X112900Y-62300D01*
X112650Y-62050D02*
X112649Y-62059D01*
X112646Y-62069D01*
X112641Y-62077D01*
X112635Y-62085D01*
X112627Y-62091D01*
X112619Y-62096D01*
X112610Y-62098D01*
X112600Y-62099D01*
X112591Y-62099D01*
X112582Y-62096D01*
X112573Y-62091D01*
X112566Y-62085D01*
X112559Y-62078D01*
X112555Y-62069D01*
X112552Y-62060D01*
X112551Y-62050D01*
X112551Y-62041D01*
X112554Y-62032D01*
X112558Y-62023D01*
X112565Y-62016D01*
X112572Y-62009D01*
X112580Y-62005D01*
X112590Y-62002D01*
X112599Y-62001D01*
X112608Y-62001D01*
X112618Y-62004D01*
X112626Y-62008D01*
X112634Y-62014D01*
X112640Y-62022D01*
X112645Y-62030D01*
X112648Y-62039D01*
X112649Y-62049D01*
X112650Y-62050D01*
X112400Y-61800D02*
X112399Y-61809D01*
X112396Y-61819D01*
X112391Y-61827D01*
X112385Y-61835D01*
X112377Y-61841D01*
X112369Y-61846D01*
X112360Y-61848D01*
X112350Y-61849D01*
X112341Y-61849D01*
X112332Y-61846D01*
X112323Y-61841D01*
X112316Y-61835D01*
X112309Y-61828D01*
X112305Y-61819D01*
X112302Y-61810D01*
X112301Y-61800D01*
X112301Y-61791D01*
X112304Y-61782D01*
X112308Y-61773D01*
X112315Y-61766D01*
X112322Y-61759D01*
X112330Y-61755D01*
X112340Y-61752D01*
X112349Y-61751D01*
X112358Y-61751D01*
X112368Y-61754D01*
X112376Y-61758D01*
X112384Y-61764D01*
X112390Y-61772D01*
X112395Y-61780D01*
X112398Y-61789D01*
X112399Y-61799D01*
X112400Y-61800D01*
X49900Y-61850D02*
X49899Y-61859D01*
X49896Y-61869D01*
X49891Y-61877D01*
X49885Y-61885D01*
X49877Y-61891D01*
X49869Y-61896D01*
X49860Y-61898D01*
X49850Y-61899D01*
X49841Y-61899D01*
X49832Y-61896D01*
X49823Y-61891D01*
X49816Y-61885D01*
X49809Y-61878D01*
X49805Y-61869D01*
X49802Y-61860D01*
X49801Y-61850D01*
X49801Y-61841D01*
X49804Y-61832D01*
X49808Y-61823D01*
X49815Y-61816D01*
X49822Y-61809D01*
X49830Y-61805D01*
X49840Y-61802D01*
X49849Y-61801D01*
X49858Y-61801D01*
X49868Y-61804D01*
X49876Y-61808D01*
X49884Y-61814D01*
X49890Y-61822D01*
X49895Y-61830D01*
X49898Y-61839D01*
X49899Y-61849D01*
X49900Y-61850D01*
X50150Y-62100D02*
X50149Y-62109D01*
X50146Y-62119D01*
X50141Y-62127D01*
X50135Y-62135D01*
X50127Y-62141D01*
X50119Y-62146D01*
X50110Y-62148D01*
X50100Y-62149D01*
X50091Y-62149D01*
X50082Y-62146D01*
X50073Y-62141D01*
X50066Y-62135D01*
X50059Y-62128D01*
X50055Y-62119D01*
X50052Y-62110D01*
X50051Y-62100D01*
X50051Y-62091D01*
X50054Y-62082D01*
X50058Y-62073D01*
X50065Y-62066D01*
X50072Y-62059D01*
X50080Y-62055D01*
X50090Y-62052D01*
X50099Y-62051D01*
X50108Y-62051D01*
X50118Y-62054D01*
X50126Y-62058D01*
X50134Y-62064D01*
X50140Y-62072D01*
X50145Y-62080D01*
X50148Y-62089D01*
X50149Y-62099D01*
X50150Y-62100D01*
X50400Y-62350D02*
X50399Y-62359D01*
X50396Y-62369D01*
X50391Y-62377D01*
X50385Y-62385D01*
X50377Y-62391D01*
X50369Y-62396D01*
X50360Y-62398D01*
X50350Y-62399D01*
X50341Y-62399D01*
X50332Y-62396D01*
X50323Y-62391D01*
X50316Y-62385D01*
X50309Y-62378D01*
X50305Y-62369D01*
X50302Y-62360D01*
X50301Y-62350D01*
X50301Y-62341D01*
X50304Y-62332D01*
X50308Y-62323D01*
X50315Y-62316D01*
X50322Y-62309D01*
X50330Y-62305D01*
X50340Y-62302D01*
X50349Y-62301D01*
X50358Y-62301D01*
X50368Y-62304D01*
X50376Y-62308D01*
X50384Y-62314D01*
X50390Y-62322D01*
X50395Y-62330D01*
X50398Y-62339D01*
X50399Y-62349D01*
X50400Y-62350D01*
X51650Y-61850D02*
X51649Y-61859D01*
X51646Y-61869D01*
X51641Y-61877D01*
X51635Y-61885D01*
X51627Y-61891D01*
X51619Y-61896D01*
X51610Y-61898D01*
X51600Y-61899D01*
X51591Y-61899D01*
X51582Y-61896D01*
X51573Y-61891D01*
X51566Y-61885D01*
X51559Y-61878D01*
X51555Y-61869D01*
X51552Y-61860D01*
X51551Y-61850D01*
X51551Y-61841D01*
X51554Y-61832D01*
X51558Y-61823D01*
X51565Y-61816D01*
X51572Y-61809D01*
X51580Y-61805D01*
X51590Y-61802D01*
X51599Y-61801D01*
X51608Y-61801D01*
X51618Y-61804D01*
X51626Y-61808D01*
X51634Y-61814D01*
X51640Y-61822D01*
X51645Y-61830D01*
X51648Y-61839D01*
X51649Y-61849D01*
X51650Y-61850D01*
X51400Y-62100D02*
X51399Y-62109D01*
X51396Y-62119D01*
X51391Y-62127D01*
X51385Y-62135D01*
X51377Y-62141D01*
X51369Y-62146D01*
X51360Y-62148D01*
X51350Y-62149D01*
X51341Y-62149D01*
X51332Y-62146D01*
X51323Y-62141D01*
X51316Y-62135D01*
X51309Y-62128D01*
X51305Y-62119D01*
X51302Y-62110D01*
X51301Y-62100D01*
X51301Y-62091D01*
X51304Y-62082D01*
X51308Y-62073D01*
X51315Y-62066D01*
X51322Y-62059D01*
X51330Y-62055D01*
X51340Y-62052D01*
X51349Y-62051D01*
X51358Y-62051D01*
X51368Y-62054D01*
X51376Y-62058D01*
X51384Y-62064D01*
X51390Y-62072D01*
X51395Y-62080D01*
X51398Y-62089D01*
X51399Y-62099D01*
X51400Y-62100D01*
X51150Y-62350D02*
X51149Y-62359D01*
X51146Y-62369D01*
X51141Y-62377D01*
X51135Y-62385D01*
X51127Y-62391D01*
X51119Y-62396D01*
X51110Y-62398D01*
X51100Y-62399D01*
X51091Y-62399D01*
X51082Y-62396D01*
X51073Y-62391D01*
X51066Y-62385D01*
X51059Y-62378D01*
X51055Y-62369D01*
X51052Y-62360D01*
X51051Y-62350D01*
X51051Y-62341D01*
X51054Y-62332D01*
X51058Y-62323D01*
X51065Y-62316D01*
X51072Y-62309D01*
X51080Y-62305D01*
X51090Y-62302D01*
X51099Y-62301D01*
X51108Y-62301D01*
X51118Y-62304D01*
X51126Y-62308D01*
X51134Y-62314D01*
X51140Y-62322D01*
X51145Y-62330D01*
X51148Y-62339D01*
X51149Y-62349D01*
X51150Y-62350D01*
X50900Y-62350D02*
X50899Y-62359D01*
X50896Y-62369D01*
X50891Y-62377D01*
X50885Y-62385D01*
X50877Y-62391D01*
X50869Y-62396D01*
X50860Y-62398D01*
X50850Y-62399D01*
X50841Y-62399D01*
X50832Y-62396D01*
X50823Y-62391D01*
X50816Y-62385D01*
X50809Y-62378D01*
X50805Y-62369D01*
X50802Y-62360D01*
X50801Y-62350D01*
X50801Y-62341D01*
X50804Y-62332D01*
X50808Y-62323D01*
X50815Y-62316D01*
X50822Y-62309D01*
X50830Y-62305D01*
X50840Y-62302D01*
X50849Y-62301D01*
X50858Y-62301D01*
X50868Y-62304D01*
X50876Y-62308D01*
X50884Y-62314D01*
X50890Y-62322D01*
X50895Y-62330D01*
X50898Y-62339D01*
X50899Y-62349D01*
X50900Y-62350D01*
X50650Y-62350D02*
X50649Y-62359D01*
X50646Y-62369D01*
X50641Y-62377D01*
X50635Y-62385D01*
X50627Y-62391D01*
X50619Y-62396D01*
X50610Y-62398D01*
X50600Y-62399D01*
X50591Y-62399D01*
X50582Y-62396D01*
X50573Y-62391D01*
X50566Y-62385D01*
X50559Y-62378D01*
X50555Y-62369D01*
X50552Y-62360D01*
X50551Y-62350D01*
X50551Y-62341D01*
X50554Y-62332D01*
X50558Y-62323D01*
X50565Y-62316D01*
X50572Y-62309D01*
X50580Y-62305D01*
X50590Y-62302D01*
X50599Y-62301D01*
X50608Y-62301D01*
X50618Y-62304D01*
X50626Y-62308D01*
X50634Y-62314D01*
X50640Y-62322D01*
X50645Y-62330D01*
X50648Y-62339D01*
X50649Y-62349D01*
X50650Y-62350D01*
X50900Y-61850D02*
X50899Y-61859D01*
X50896Y-61869D01*
X50891Y-61877D01*
X50885Y-61885D01*
X50877Y-61891D01*
X50869Y-61896D01*
X50860Y-61898D01*
X50850Y-61899D01*
X50841Y-61899D01*
X50832Y-61896D01*
X50823Y-61891D01*
X50816Y-61885D01*
X50809Y-61878D01*
X50805Y-61869D01*
X50802Y-61860D01*
X50801Y-61850D01*
X50801Y-61841D01*
X50804Y-61832D01*
X50808Y-61823D01*
X50815Y-61816D01*
X50822Y-61809D01*
X50830Y-61805D01*
X50840Y-61802D01*
X50849Y-61801D01*
X50858Y-61801D01*
X50868Y-61804D01*
X50876Y-61808D01*
X50884Y-61814D01*
X50890Y-61822D01*
X50895Y-61830D01*
X50898Y-61839D01*
X50899Y-61849D01*
X50900Y-61850D01*
X50650Y-61850D02*
X50649Y-61859D01*
X50646Y-61869D01*
X50641Y-61877D01*
X50635Y-61885D01*
X50627Y-61891D01*
X50619Y-61896D01*
X50610Y-61898D01*
X50600Y-61899D01*
X50591Y-61899D01*
X50582Y-61896D01*
X50573Y-61891D01*
X50566Y-61885D01*
X50559Y-61878D01*
X50555Y-61869D01*
X50552Y-61860D01*
X50551Y-61850D01*
X50551Y-61841D01*
X50554Y-61832D01*
X50558Y-61823D01*
X50565Y-61816D01*
X50572Y-61809D01*
X50580Y-61805D01*
X50590Y-61802D01*
X50599Y-61801D01*
X50608Y-61801D01*
X50618Y-61804D01*
X50626Y-61808D01*
X50634Y-61814D01*
X50640Y-61822D01*
X50645Y-61830D01*
X50648Y-61839D01*
X50649Y-61849D01*
X50650Y-61850D01*
X50900Y-61600D02*
X50899Y-61609D01*
X50896Y-61619D01*
X50891Y-61627D01*
X50885Y-61635D01*
X50877Y-61641D01*
X50869Y-61646D01*
X50860Y-61648D01*
X50850Y-61649D01*
X50841Y-61649D01*
X50832Y-61646D01*
X50823Y-61641D01*
X50816Y-61635D01*
X50809Y-61628D01*
X50805Y-61619D01*
X50802Y-61610D01*
X50801Y-61600D01*
X50801Y-61591D01*
X50804Y-61582D01*
X50808Y-61573D01*
X50815Y-61566D01*
X50822Y-61559D01*
X50830Y-61555D01*
X50840Y-61552D01*
X50849Y-61551D01*
X50858Y-61551D01*
X50868Y-61554D01*
X50876Y-61558D01*
X50884Y-61564D01*
X50890Y-61572D01*
X50895Y-61580D01*
X50898Y-61589D01*
X50899Y-61599D01*
X50900Y-61600D01*
X50650Y-61600D02*
X50649Y-61609D01*
X50646Y-61619D01*
X50641Y-61627D01*
X50635Y-61635D01*
X50627Y-61641D01*
X50619Y-61646D01*
X50610Y-61648D01*
X50600Y-61649D01*
X50591Y-61649D01*
X50582Y-61646D01*
X50573Y-61641D01*
X50566Y-61635D01*
X50559Y-61628D01*
X50555Y-61619D01*
X50552Y-61610D01*
X50551Y-61600D01*
X50551Y-61591D01*
X50554Y-61582D01*
X50558Y-61573D01*
X50565Y-61566D01*
X50572Y-61559D01*
X50580Y-61555D01*
X50590Y-61552D01*
X50599Y-61551D01*
X50608Y-61551D01*
X50618Y-61554D01*
X50626Y-61558D01*
X50634Y-61564D01*
X50640Y-61572D01*
X50645Y-61580D01*
X50648Y-61589D01*
X50649Y-61599D01*
X50650Y-61600D01*
X50400Y-60850D02*
X50399Y-60859D01*
X50396Y-60869D01*
X50391Y-60877D01*
X50385Y-60885D01*
X50377Y-60891D01*
X50369Y-60896D01*
X50360Y-60898D01*
X50350Y-60899D01*
X50341Y-60899D01*
X50332Y-60896D01*
X50323Y-60891D01*
X50316Y-60885D01*
X50309Y-60878D01*
X50305Y-60869D01*
X50302Y-60860D01*
X50301Y-60850D01*
X50301Y-60841D01*
X50304Y-60832D01*
X50308Y-60823D01*
X50315Y-60816D01*
X50322Y-60809D01*
X50330Y-60805D01*
X50340Y-60802D01*
X50349Y-60801D01*
X50358Y-60801D01*
X50368Y-60804D01*
X50376Y-60808D01*
X50384Y-60814D01*
X50390Y-60822D01*
X50395Y-60830D01*
X50398Y-60839D01*
X50399Y-60849D01*
X50400Y-60850D01*
X50150Y-60850D02*
X50149Y-60859D01*
X50146Y-60869D01*
X50141Y-60877D01*
X50135Y-60885D01*
X50127Y-60891D01*
X50119Y-60896D01*
X50110Y-60898D01*
X50100Y-60899D01*
X50091Y-60899D01*
X50082Y-60896D01*
X50073Y-60891D01*
X50066Y-60885D01*
X50059Y-60878D01*
X50055Y-60869D01*
X50052Y-60860D01*
X50051Y-60850D01*
X50051Y-60841D01*
X50054Y-60832D01*
X50058Y-60823D01*
X50065Y-60816D01*
X50072Y-60809D01*
X50080Y-60805D01*
X50090Y-60802D01*
X50099Y-60801D01*
X50108Y-60801D01*
X50118Y-60804D01*
X50126Y-60808D01*
X50134Y-60814D01*
X50140Y-60822D01*
X50145Y-60830D01*
X50148Y-60839D01*
X50149Y-60849D01*
X50150Y-60850D01*
X50150Y-61100D02*
X50149Y-61109D01*
X50146Y-61119D01*
X50141Y-61127D01*
X50135Y-61135D01*
X50127Y-61141D01*
X50119Y-61146D01*
X50110Y-61148D01*
X50100Y-61149D01*
X50091Y-61149D01*
X50082Y-61146D01*
X50073Y-61141D01*
X50066Y-61135D01*
X50059Y-61128D01*
X50055Y-61119D01*
X50052Y-61110D01*
X50051Y-61100D01*
X50051Y-61091D01*
X50054Y-61082D01*
X50058Y-61073D01*
X50065Y-61066D01*
X50072Y-61059D01*
X50080Y-61055D01*
X50090Y-61052D01*
X50099Y-61051D01*
X50108Y-61051D01*
X50118Y-61054D01*
X50126Y-61058D01*
X50134Y-61064D01*
X50140Y-61072D01*
X50145Y-61080D01*
X50148Y-61089D01*
X50149Y-61099D01*
X50150Y-61100D01*
X50400Y-61100D02*
X50399Y-61109D01*
X50396Y-61119D01*
X50391Y-61127D01*
X50385Y-61135D01*
X50377Y-61141D01*
X50369Y-61146D01*
X50360Y-61148D01*
X50350Y-61149D01*
X50341Y-61149D01*
X50332Y-61146D01*
X50323Y-61141D01*
X50316Y-61135D01*
X50309Y-61128D01*
X50305Y-61119D01*
X50302Y-61110D01*
X50301Y-61100D01*
X50301Y-61091D01*
X50304Y-61082D01*
X50308Y-61073D01*
X50315Y-61066D01*
X50322Y-61059D01*
X50330Y-61055D01*
X50340Y-61052D01*
X50349Y-61051D01*
X50358Y-61051D01*
X50368Y-61054D01*
X50376Y-61058D01*
X50384Y-61064D01*
X50390Y-61072D01*
X50395Y-61080D01*
X50398Y-61089D01*
X50399Y-61099D01*
X50400Y-61100D01*
X51400Y-61100D02*
X51399Y-61109D01*
X51396Y-61119D01*
X51391Y-61127D01*
X51385Y-61135D01*
X51377Y-61141D01*
X51369Y-61146D01*
X51360Y-61148D01*
X51350Y-61149D01*
X51341Y-61149D01*
X51332Y-61146D01*
X51323Y-61141D01*
X51316Y-61135D01*
X51309Y-61128D01*
X51305Y-61119D01*
X51302Y-61110D01*
X51301Y-61100D01*
X51301Y-61091D01*
X51304Y-61082D01*
X51308Y-61073D01*
X51315Y-61066D01*
X51322Y-61059D01*
X51330Y-61055D01*
X51340Y-61052D01*
X51349Y-61051D01*
X51358Y-61051D01*
X51368Y-61054D01*
X51376Y-61058D01*
X51384Y-61064D01*
X51390Y-61072D01*
X51395Y-61080D01*
X51398Y-61089D01*
X51399Y-61099D01*
X51400Y-61100D01*
X51150Y-61100D02*
X51149Y-61109D01*
X51146Y-61119D01*
X51141Y-61127D01*
X51135Y-61135D01*
X51127Y-61141D01*
X51119Y-61146D01*
X51110Y-61148D01*
X51100Y-61149D01*
X51091Y-61149D01*
X51082Y-61146D01*
X51073Y-61141D01*
X51066Y-61135D01*
X51059Y-61128D01*
X51055Y-61119D01*
X51052Y-61110D01*
X51051Y-61100D01*
X51051Y-61091D01*
X51054Y-61082D01*
X51058Y-61073D01*
X51065Y-61066D01*
X51072Y-61059D01*
X51080Y-61055D01*
X51090Y-61052D01*
X51099Y-61051D01*
X51108Y-61051D01*
X51118Y-61054D01*
X51126Y-61058D01*
X51134Y-61064D01*
X51140Y-61072D01*
X51145Y-61080D01*
X51148Y-61089D01*
X51149Y-61099D01*
X51150Y-61100D01*
X51400Y-60850D02*
X51399Y-60859D01*
X51396Y-60869D01*
X51391Y-60877D01*
X51385Y-60885D01*
X51377Y-60891D01*
X51369Y-60896D01*
X51360Y-60898D01*
X51350Y-60899D01*
X51341Y-60899D01*
X51332Y-60896D01*
X51323Y-60891D01*
X51316Y-60885D01*
X51309Y-60878D01*
X51305Y-60869D01*
X51302Y-60860D01*
X51301Y-60850D01*
X51301Y-60841D01*
X51304Y-60832D01*
X51308Y-60823D01*
X51315Y-60816D01*
X51322Y-60809D01*
X51330Y-60805D01*
X51340Y-60802D01*
X51349Y-60801D01*
X51358Y-60801D01*
X51368Y-60804D01*
X51376Y-60808D01*
X51384Y-60814D01*
X51390Y-60822D01*
X51395Y-60830D01*
X51398Y-60839D01*
X51399Y-60849D01*
X51400Y-60850D01*
X51150Y-60850D02*
X51149Y-60859D01*
X51146Y-60869D01*
X51141Y-60877D01*
X51135Y-60885D01*
X51127Y-60891D01*
X51119Y-60896D01*
X51110Y-60898D01*
X51100Y-60899D01*
X51091Y-60899D01*
X51082Y-60896D01*
X51073Y-60891D01*
X51066Y-60885D01*
X51059Y-60878D01*
X51055Y-60869D01*
X51052Y-60860D01*
X51051Y-60850D01*
X51051Y-60841D01*
X51054Y-60832D01*
X51058Y-60823D01*
X51065Y-60816D01*
X51072Y-60809D01*
X51080Y-60805D01*
X51090Y-60802D01*
X51099Y-60801D01*
X51108Y-60801D01*
X51118Y-60804D01*
X51126Y-60808D01*
X51134Y-60814D01*
X51140Y-60822D01*
X51145Y-60830D01*
X51148Y-60839D01*
X51149Y-60849D01*
X51150Y-60850D01*
G54D11*
X130050Y-56550D02*
X128550Y-56550D01*
X128550Y-56600D02*
X130050Y-56600D01*
X128550Y-56700D02*
X128550Y-56450D01*
X128550Y-56450D02*
X130050Y-56450D01*
X130050Y-56450D02*
X130050Y-56700D01*
X130050Y-56700D02*
X128550Y-56700D01*
X128550Y-56950D02*
X130050Y-56950D01*
X129300Y-56200D02*
X129300Y-56450D01*
X129300Y-57200D02*
X129300Y-56950D01*
X131495Y-56700D02*
X131453Y-57126D01*
X131329Y-57536D01*
X131128Y-57914D01*
X130857Y-58246D01*
X130527Y-58519D01*
X130150Y-58723D01*
X129741Y-58850D01*
X129315Y-58894D01*
X128889Y-58856D01*
X128478Y-58735D01*
X128099Y-58536D01*
X127765Y-58268D01*
X127489Y-57940D01*
X127283Y-57564D01*
X127153Y-57156D01*
X127106Y-56730D01*
X127142Y-56304D01*
X127260Y-55892D01*
X127455Y-55511D01*
X127722Y-55176D01*
X128048Y-54898D01*
X128422Y-54689D01*
X128829Y-54557D01*
X129255Y-54506D01*
X129681Y-54539D01*
X130093Y-54654D01*
X130476Y-54847D01*
X130813Y-55111D01*
X131093Y-55435D01*
X131305Y-55808D01*
X131440Y-56214D01*
X131494Y-56639D01*
X131495Y-56700D01*
X35550Y-56550D02*
X34100Y-56550D01*
X34050Y-56600D02*
X35550Y-56600D01*
X34800Y-56450D02*
X34800Y-56200D01*
X34050Y-56700D02*
X34050Y-56450D01*
X34050Y-56450D02*
X35550Y-56450D01*
X35550Y-56450D02*
X35550Y-56700D01*
X35550Y-56700D02*
X34050Y-56700D01*
X34800Y-57200D02*
X34800Y-56950D01*
X34050Y-56950D02*
X35550Y-56950D01*
X36995Y-56700D02*
X36953Y-57126D01*
X36829Y-57536D01*
X36628Y-57914D01*
X36357Y-58246D01*
X36027Y-58519D01*
X35650Y-58723D01*
X35241Y-58850D01*
X34815Y-58894D01*
X34389Y-58856D01*
X33978Y-58735D01*
X33599Y-58536D01*
X33265Y-58268D01*
X32989Y-57940D01*
X32783Y-57564D01*
X32653Y-57156D01*
X32606Y-56730D01*
X32642Y-56304D01*
X32760Y-55892D01*
X32955Y-55511D01*
X33222Y-55176D01*
X33548Y-54898D01*
X33922Y-54689D01*
X34329Y-54557D01*
X34755Y-54506D01*
X35181Y-54539D01*
X35593Y-54654D01*
X35976Y-54847D01*
X36313Y-55111D01*
X36593Y-55435D01*
X36805Y-55808D01*
X36940Y-56214D01*
X36994Y-56639D01*
X36995Y-56700D01*
X30500Y-52450D02*
X29250Y-52450D01*
X29250Y-52450D02*
X29250Y-53700D01*
X29600Y-52800D02*
X31400Y-52800D01*
X31400Y-52800D02*
X31400Y-60600D01*
X31400Y-60600D02*
X29600Y-60600D01*
X29600Y-60600D02*
X29600Y-52800D01*
X133600Y-52450D02*
X132350Y-52450D01*
X132350Y-52450D02*
X132350Y-53700D01*
X132700Y-52800D02*
X134500Y-52800D01*
X134500Y-52800D02*
X134500Y-60600D01*
X134500Y-60600D02*
X132700Y-60600D01*
X132700Y-60600D02*
X132700Y-52800D01*
X57500Y-59500D02*
X57500Y-60250D01*
X57500Y-58750D02*
X57500Y-57750D01*
X58000Y-58750D02*
X57000Y-58750D01*
X58000Y-59500D02*
X57500Y-58750D01*
X57500Y-58750D02*
X57000Y-59500D01*
X57000Y-59500D02*
X58000Y-59500D01*
X59000Y-60500D02*
X56000Y-60500D01*
X56000Y-60500D02*
X56000Y-58000D01*
X56000Y-58000D02*
X56500Y-57500D01*
X56500Y-57500D02*
X59000Y-57500D01*
X59000Y-57500D02*
X59000Y-60500D01*
X57500Y-55000D02*
X57500Y-55750D01*
X57500Y-54250D02*
X57500Y-53250D01*
X58000Y-54250D02*
X57000Y-54250D01*
X58000Y-55000D02*
X57500Y-54250D01*
X57500Y-54250D02*
X57000Y-55000D01*
X57000Y-55000D02*
X58000Y-55000D01*
X59000Y-56000D02*
X56000Y-56000D01*
X56000Y-56000D02*
X56000Y-53500D01*
X56000Y-53500D02*
X56500Y-53000D01*
X56500Y-53000D02*
X59000Y-53000D01*
X59000Y-53000D02*
X59000Y-56000D01*
X39500Y-55000D02*
X39500Y-55750D01*
X39500Y-54250D02*
X39500Y-53250D01*
X40000Y-54250D02*
X39000Y-54250D01*
X40000Y-55000D02*
X39500Y-54250D01*
X39500Y-54250D02*
X39000Y-55000D01*
X39000Y-55000D02*
X40000Y-55000D01*
X41000Y-56000D02*
X38000Y-56000D01*
X38000Y-56000D02*
X38000Y-53500D01*
X38000Y-53500D02*
X38500Y-53000D01*
X38500Y-53000D02*
X41000Y-53000D01*
X41000Y-53000D02*
X41000Y-56000D01*
X39500Y-59500D02*
X39500Y-60250D01*
X39500Y-58750D02*
X39500Y-57750D01*
X40000Y-58750D02*
X39000Y-58750D01*
X40000Y-59500D02*
X39500Y-58750D01*
X39500Y-58750D02*
X39000Y-59500D01*
X39000Y-59500D02*
X40000Y-59500D01*
X41000Y-60500D02*
X38000Y-60500D01*
X38000Y-60500D02*
X38000Y-58000D01*
X38000Y-58000D02*
X38500Y-57500D01*
X38500Y-57500D02*
X41000Y-57500D01*
X41000Y-57500D02*
X41000Y-60500D01*
X44000Y-54000D02*
X44000Y-53250D01*
X44000Y-54750D02*
X44000Y-55750D01*
X43500Y-54750D02*
X44500Y-54750D01*
X43500Y-54000D02*
X44000Y-54750D01*
X44000Y-54750D02*
X44500Y-54000D01*
X44500Y-54000D02*
X43500Y-54000D01*
X42500Y-53000D02*
X45500Y-53000D01*
X45500Y-53000D02*
X45500Y-55500D01*
X45500Y-55500D02*
X45000Y-56000D01*
X45000Y-56000D02*
X42500Y-56000D01*
X42500Y-56000D02*
X42500Y-53000D01*
X44000Y-58500D02*
X44000Y-57750D01*
X44000Y-59250D02*
X44000Y-60250D01*
X43500Y-59250D02*
X44500Y-59250D01*
X43500Y-58500D02*
X44000Y-59250D01*
X44000Y-59250D02*
X44500Y-58500D01*
X44500Y-58500D02*
X43500Y-58500D01*
X42500Y-57500D02*
X45500Y-57500D01*
X45500Y-57500D02*
X45500Y-60000D01*
X45500Y-60000D02*
X45000Y-60500D01*
X45000Y-60500D02*
X42500Y-60500D01*
X42500Y-60500D02*
X42500Y-57500D01*
G54D13*
X83900Y-54200D02*
X83900Y-55500D01*
X83900Y-54200D02*
X82600Y-54200D01*
G54D12*
X80600Y-54500D02*
X83600Y-54500D01*
X83600Y-56500D02*
X80600Y-56500D01*
X80600Y-56500D02*
X80600Y-54500D01*
X83600Y-54500D02*
X83600Y-56500D01*
G54D13*
X88560Y-52025D02*
X88560Y-52875D01*
X86525Y-53625D02*
X88225Y-53625D01*
X86200Y-52025D02*
X86200Y-52875D01*
X86525Y-51275D02*
X88225Y-51275D01*
X88050Y-52475D02*
X88037Y-52601D01*
X88000Y-52722D01*
X87941Y-52834D01*
X87861Y-52933D01*
X87763Y-53013D01*
X87651Y-53074D01*
X87530Y-53111D01*
X87404Y-53124D01*
X87279Y-53113D01*
X87157Y-53077D01*
X87045Y-53018D01*
X86946Y-52939D01*
X86864Y-52842D01*
X86803Y-52731D01*
X86765Y-52610D01*
X86751Y-52484D01*
X86761Y-52358D01*
X86796Y-52236D01*
X86854Y-52123D01*
X86933Y-52024D01*
X87030Y-51942D01*
X87140Y-51880D01*
X87261Y-51841D01*
X87387Y-51826D01*
X87512Y-51835D01*
X87635Y-51869D01*
X87748Y-51927D01*
X87848Y-52005D01*
X87931Y-52101D01*
X87993Y-52211D01*
X88033Y-52331D01*
X88049Y-52457D01*
X88050Y-52475D01*
X83160Y-52025D02*
X83160Y-52875D01*
X81125Y-53625D02*
X82825Y-53625D01*
X80800Y-52025D02*
X80800Y-52875D01*
X81125Y-51275D02*
X82825Y-51275D01*
X82650Y-52475D02*
X82637Y-52601D01*
X82600Y-52722D01*
X82541Y-52834D01*
X82461Y-52933D01*
X82363Y-53013D01*
X82251Y-53074D01*
X82130Y-53111D01*
X82004Y-53124D01*
X81879Y-53113D01*
X81757Y-53077D01*
X81645Y-53018D01*
X81546Y-52939D01*
X81464Y-52842D01*
X81403Y-52731D01*
X81365Y-52610D01*
X81351Y-52484D01*
X81361Y-52358D01*
X81396Y-52236D01*
X81454Y-52123D01*
X81533Y-52024D01*
X81630Y-51942D01*
X81740Y-51880D01*
X81861Y-51841D01*
X81987Y-51826D01*
X82112Y-51835D01*
X82235Y-51869D01*
X82348Y-51927D01*
X82448Y-52005D01*
X82531Y-52101D01*
X82593Y-52211D01*
X82633Y-52331D01*
X82649Y-52457D01*
X82650Y-52475D01*
X77760Y-52025D02*
X77760Y-52875D01*
X75725Y-53625D02*
X77425Y-53625D01*
X75400Y-52025D02*
X75400Y-52875D01*
X75725Y-51275D02*
X77425Y-51275D01*
X77250Y-52475D02*
X77237Y-52601D01*
X77200Y-52722D01*
X77141Y-52834D01*
X77061Y-52933D01*
X76963Y-53013D01*
X76851Y-53074D01*
X76730Y-53111D01*
X76604Y-53124D01*
X76479Y-53113D01*
X76357Y-53077D01*
X76245Y-53018D01*
X76146Y-52939D01*
X76064Y-52842D01*
X76003Y-52731D01*
X75965Y-52610D01*
X75951Y-52484D01*
X75961Y-52358D01*
X75996Y-52236D01*
X76054Y-52123D01*
X76133Y-52024D01*
X76230Y-51942D01*
X76340Y-51880D01*
X76461Y-51841D01*
X76587Y-51826D01*
X76712Y-51835D01*
X76835Y-51869D01*
X76948Y-51927D01*
X77048Y-52005D01*
X77131Y-52101D01*
X77193Y-52211D01*
X77233Y-52331D01*
X77249Y-52457D01*
X77250Y-52475D01*
G54D11*
X80300Y-52400D02*
X80280Y-52594D01*
X80224Y-52781D01*
X80132Y-52953D01*
X80009Y-53104D01*
X79859Y-53229D01*
X79687Y-53321D01*
X79501Y-53379D01*
X79306Y-53399D01*
X79113Y-53382D01*
X78926Y-53327D01*
X78753Y-53236D01*
X78601Y-53114D01*
X78475Y-52964D01*
X78381Y-52793D01*
X78322Y-52607D01*
X78301Y-52413D01*
X78317Y-52220D01*
X78371Y-52032D01*
X78460Y-51859D01*
X78581Y-51706D01*
X78730Y-51579D01*
X78900Y-51484D01*
X79086Y-51424D01*
X79280Y-51401D01*
X79473Y-51416D01*
X79661Y-51468D01*
X79835Y-51556D01*
X79989Y-51676D01*
X80117Y-51824D01*
X80213Y-51994D01*
X80275Y-52179D01*
X80299Y-52373D01*
X80300Y-52400D01*
X78300Y-52650D02*
X78550Y-52650D01*
X78550Y-52650D02*
X78550Y-52150D01*
X78550Y-52150D02*
X78300Y-52150D01*
G54D14*
X82571Y-57985D02*
X82866Y-57985D01*
X82866Y-57985D02*
X82866Y-57415D01*
X82571Y-57415D02*
X82866Y-57415D01*
X82571Y-57985D02*
X82571Y-57415D01*
X83140Y-57985D02*
X83435Y-57985D01*
X83435Y-57985D02*
X83435Y-57415D01*
X83140Y-57415D02*
X83435Y-57415D01*
X83140Y-57985D02*
X83140Y-57415D01*
X82961Y-57857D02*
X83039Y-57857D01*
X83039Y-57857D02*
X83039Y-57543D01*
X82961Y-57543D02*
X83039Y-57543D01*
X82961Y-57857D02*
X82961Y-57543D01*
G54D15*
X82224Y-57313D02*
X83776Y-57313D01*
X83776Y-58087D02*
X82224Y-58087D01*
X82224Y-58087D02*
X82224Y-57313D01*
G54D16*
X82850Y-57441D02*
X83150Y-57441D01*
X82860Y-57959D02*
X83150Y-57959D01*
G54D15*
X83776Y-57313D02*
X83776Y-58087D01*
G54D14*
X84585Y-52829D02*
X84585Y-52534D01*
X84585Y-52534D02*
X84015Y-52534D01*
X84015Y-52829D02*
X84015Y-52534D01*
X84585Y-52829D02*
X84015Y-52829D01*
X84585Y-52260D02*
X84585Y-51965D01*
X84585Y-51965D02*
X84015Y-51965D01*
X84015Y-52260D02*
X84015Y-51965D01*
X84585Y-52260D02*
X84015Y-52260D01*
X84457Y-52439D02*
X84457Y-52361D01*
X84457Y-52361D02*
X84143Y-52361D01*
X84143Y-52439D02*
X84143Y-52361D01*
X84457Y-52439D02*
X84143Y-52439D01*
G54D15*
X83913Y-53176D02*
X83913Y-51624D01*
X84687Y-51624D02*
X84687Y-53176D01*
X84687Y-53176D02*
X83913Y-53176D01*
G54D16*
X84041Y-52550D02*
X84041Y-52250D01*
X84559Y-52540D02*
X84559Y-52250D01*
G54D15*
X83913Y-51624D02*
X84687Y-51624D01*
G54D14*
X90335Y-56370D02*
X90335Y-56074D01*
X90335Y-56074D02*
X89666Y-56074D01*
X89666Y-56370D02*
X89666Y-56074D01*
X90335Y-56370D02*
X89666Y-56370D01*
X90334Y-55326D02*
X90334Y-55030D01*
X90334Y-55030D02*
X89665Y-55030D01*
X89665Y-55326D02*
X89665Y-55030D01*
X90334Y-55326D02*
X89665Y-55326D01*
X90157Y-55778D02*
X90157Y-55622D01*
X90157Y-55622D02*
X89843Y-55622D01*
X89843Y-55778D02*
X89843Y-55622D01*
X90157Y-55778D02*
X89843Y-55778D01*
G54D15*
X89613Y-56673D02*
X89613Y-54727D01*
X90387Y-54727D02*
X90387Y-56673D01*
X90387Y-56673D02*
X89613Y-56673D01*
X89613Y-54727D02*
X90387Y-54727D01*
G54D16*
X89691Y-56079D02*
X89691Y-55321D01*
X90309Y-56079D02*
X90309Y-55321D01*
G54D14*
X85935Y-56370D02*
X85935Y-56074D01*
X85935Y-56074D02*
X85266Y-56074D01*
X85266Y-56370D02*
X85266Y-56074D01*
X85935Y-56370D02*
X85266Y-56370D01*
X85934Y-55326D02*
X85934Y-55030D01*
X85934Y-55030D02*
X85265Y-55030D01*
X85265Y-55326D02*
X85265Y-55030D01*
X85934Y-55326D02*
X85265Y-55326D01*
X85757Y-55778D02*
X85757Y-55622D01*
X85757Y-55622D02*
X85443Y-55622D01*
X85443Y-55778D02*
X85443Y-55622D01*
X85757Y-55778D02*
X85443Y-55778D01*
G54D15*
X85213Y-56673D02*
X85213Y-54727D01*
X85987Y-54727D02*
X85987Y-56673D01*
X85987Y-56673D02*
X85213Y-56673D01*
X85213Y-54727D02*
X85987Y-54727D01*
G54D16*
X85291Y-56079D02*
X85291Y-55321D01*
X85909Y-56079D02*
X85909Y-55321D01*
G54D14*
X81770Y-57365D02*
X81474Y-57365D01*
X81474Y-57365D02*
X81474Y-58034D01*
X81770Y-58034D02*
X81474Y-58034D01*
X81770Y-57365D02*
X81770Y-58034D01*
X80726Y-57366D02*
X80430Y-57366D01*
X80430Y-57366D02*
X80430Y-58035D01*
X80726Y-58035D02*
X80430Y-58035D01*
X80726Y-57366D02*
X80726Y-58035D01*
X81178Y-57543D02*
X81022Y-57543D01*
X81022Y-57543D02*
X81022Y-57857D01*
X81178Y-57857D02*
X81022Y-57857D01*
X81178Y-57543D02*
X81178Y-57857D01*
G54D15*
X82073Y-58087D02*
X80127Y-58087D01*
X80127Y-57313D02*
X82073Y-57313D01*
X82073Y-57313D02*
X82073Y-58087D01*
X80127Y-58087D02*
X80127Y-57313D01*
G54D16*
X81479Y-58009D02*
X80721Y-58009D01*
X81479Y-57391D02*
X80721Y-57391D01*
G54D14*
X84265Y-55030D02*
X84265Y-55326D01*
X84265Y-55326D02*
X84934Y-55326D01*
X84934Y-55030D02*
X84934Y-55326D01*
X84265Y-55030D02*
X84934Y-55030D01*
X84266Y-56074D02*
X84266Y-56370D01*
X84266Y-56370D02*
X84935Y-56370D01*
X84935Y-56074D02*
X84935Y-56370D01*
X84266Y-56074D02*
X84935Y-56074D01*
X84443Y-55622D02*
X84443Y-55778D01*
X84443Y-55778D02*
X84757Y-55778D01*
X84757Y-55622D02*
X84757Y-55778D01*
X84443Y-55622D02*
X84757Y-55622D01*
G54D15*
X84987Y-54727D02*
X84987Y-56673D01*
X84213Y-56673D02*
X84213Y-54727D01*
X84213Y-54727D02*
X84987Y-54727D01*
X84987Y-56673D02*
X84213Y-56673D01*
G54D16*
X84909Y-55321D02*
X84909Y-56079D01*
X84291Y-55321D02*
X84291Y-56079D01*
G54D11*
X90100Y-60600D02*
X85600Y-60600D01*
X85600Y-60600D02*
X84600Y-59600D01*
X84600Y-59600D02*
X84600Y-58600D01*
X84600Y-58600D02*
X85600Y-57600D01*
X85600Y-57600D02*
X90100Y-57600D01*
X90100Y-57600D02*
X90100Y-60600D01*
X86800Y-60600D02*
X86350Y-60600D01*
X86450Y-57600D02*
X86800Y-57600D01*
X88100Y-59300D02*
X85150Y-59300D01*
X88100Y-58900D02*
X85150Y-58900D01*
X88120Y-59100D02*
X88091Y-59395D01*
X88005Y-59679D01*
X87866Y-59941D01*
X87678Y-60171D01*
X87449Y-60360D01*
X87189Y-60501D01*
X86905Y-60588D01*
X86610Y-60619D01*
X86316Y-60593D01*
X86031Y-60509D01*
X85768Y-60371D01*
X85537Y-60185D01*
X85346Y-59958D01*
X85203Y-59698D01*
X85114Y-59416D01*
X85081Y-59121D01*
X85105Y-58826D01*
X85187Y-58541D01*
X85323Y-58277D01*
X85507Y-58045D01*
X85733Y-57852D01*
X85992Y-57708D01*
X86274Y-57616D01*
X86569Y-57581D01*
X86863Y-57604D01*
X87149Y-57683D01*
X87414Y-57817D01*
X87648Y-58000D01*
X87842Y-58224D01*
X87988Y-58482D01*
X88082Y-58764D01*
X88119Y-59058D01*
X88120Y-59100D01*
G54D13*
X81650Y-59000D02*
X82000Y-59000D01*
X81650Y-59000D02*
X82000Y-58850D01*
X82000Y-58850D02*
X82000Y-59150D01*
X82000Y-59150D02*
X81650Y-59000D01*
X80780Y-58754D02*
X80780Y-58947D01*
X80780Y-58947D02*
X81213Y-58947D01*
X81213Y-58754D02*
X81213Y-58947D01*
X80780Y-58754D02*
X81213Y-58754D01*
X80780Y-59254D02*
X80780Y-59447D01*
X80780Y-59447D02*
X81213Y-59447D01*
X81213Y-59254D02*
X81213Y-59447D01*
X80780Y-59254D02*
X81213Y-59254D01*
X80780Y-59754D02*
X80780Y-59947D01*
X80780Y-59947D02*
X81213Y-59947D01*
X81213Y-59754D02*
X81213Y-59947D01*
X80780Y-59754D02*
X81213Y-59754D01*
X80780Y-60254D02*
X80780Y-60447D01*
X80780Y-60447D02*
X81213Y-60447D01*
X81213Y-60254D02*
X81213Y-60447D01*
X80780Y-60254D02*
X81213Y-60254D01*
X82787Y-61253D02*
X82787Y-61446D01*
X82787Y-61446D02*
X83220Y-61446D01*
X83220Y-61253D02*
X83220Y-61446D01*
X82787Y-61253D02*
X83220Y-61253D01*
X82787Y-60753D02*
X82787Y-60946D01*
X82787Y-60946D02*
X83220Y-60946D01*
X83220Y-60753D02*
X83220Y-60946D01*
X82787Y-60753D02*
X83220Y-60753D01*
X82787Y-60254D02*
X82787Y-60447D01*
X82787Y-60447D02*
X83220Y-60447D01*
X83220Y-60254D02*
X83220Y-60447D01*
X82787Y-60254D02*
X83220Y-60254D01*
X82787Y-59754D02*
X82787Y-59947D01*
X82787Y-59947D02*
X83220Y-59947D01*
X83220Y-59754D02*
X83220Y-59947D01*
X82787Y-59754D02*
X83220Y-59754D01*
X80780Y-60753D02*
X80780Y-60946D01*
X80780Y-60946D02*
X81213Y-60946D01*
X81213Y-60753D02*
X81213Y-60946D01*
X80780Y-60753D02*
X81213Y-60753D01*
X80780Y-61253D02*
X80780Y-61446D01*
X80780Y-61446D02*
X81213Y-61446D01*
X81213Y-61253D02*
X81213Y-61446D01*
X80780Y-61253D02*
X81213Y-61253D01*
X80780Y-61753D02*
X80780Y-61946D01*
X80780Y-61946D02*
X81213Y-61946D01*
X81213Y-61753D02*
X81213Y-61946D01*
X80780Y-61753D02*
X81213Y-61753D01*
X80780Y-62253D02*
X80780Y-62446D01*
X80780Y-62446D02*
X81213Y-62446D01*
X81213Y-62253D02*
X81213Y-62446D01*
X80780Y-62253D02*
X81213Y-62253D01*
X82787Y-62253D02*
X82787Y-62446D01*
X82787Y-62446D02*
X83220Y-62446D01*
X83220Y-62253D02*
X83220Y-62446D01*
X82787Y-62253D02*
X83220Y-62253D01*
X82787Y-61753D02*
X82787Y-61946D01*
X82787Y-61946D02*
X83220Y-61946D01*
X83220Y-61753D02*
X83220Y-61946D01*
X82787Y-61753D02*
X83220Y-61753D01*
X82787Y-59254D02*
X82787Y-59447D01*
X82787Y-59447D02*
X83220Y-59447D01*
X83220Y-59254D02*
X83220Y-59447D01*
X82787Y-59254D02*
X83220Y-59254D01*
X82787Y-58754D02*
X82787Y-58947D01*
X82787Y-58947D02*
X83220Y-58947D01*
X83220Y-58754D02*
X83220Y-58947D01*
X82787Y-58754D02*
X83220Y-58754D01*
X83535Y-58476D02*
X83535Y-62724D01*
X80465Y-62724D02*
X80465Y-58476D01*
X80465Y-58476D02*
X83535Y-58476D01*
X81252Y-62544D02*
X81252Y-58656D01*
X81252Y-58656D02*
X81449Y-58656D01*
X81449Y-58656D02*
X82748Y-58656D01*
X82748Y-58656D02*
X82748Y-62544D01*
X81449Y-62544D02*
X81449Y-58656D01*
X82748Y-62544D02*
X81449Y-62544D01*
X81449Y-62544D02*
X81252Y-62544D01*
X83535Y-62724D02*
X80465Y-62724D01*
X37400Y-52000D02*
X37382Y-52174D01*
X37332Y-52342D01*
X37249Y-52498D01*
X37138Y-52634D01*
X37003Y-52746D01*
X36848Y-52829D01*
X36680Y-52881D01*
X36506Y-52899D01*
X36332Y-52884D01*
X36163Y-52834D01*
X36008Y-52753D01*
X35871Y-52643D01*
X35758Y-52508D01*
X35673Y-52354D01*
X35620Y-52187D01*
X35601Y-52012D01*
X35615Y-51838D01*
X35664Y-51669D01*
X35744Y-51513D01*
X35853Y-51375D01*
X35987Y-51261D01*
X36140Y-51176D01*
X36307Y-51121D01*
X36482Y-51101D01*
X36656Y-51114D01*
X36825Y-51161D01*
X36982Y-51241D01*
X37120Y-51349D01*
X37235Y-51482D01*
X37322Y-51634D01*
X37377Y-51801D01*
X37399Y-51975D01*
X37400Y-52000D01*
G54D14*
X89020Y-56546D02*
X89020Y-56353D01*
X89020Y-56353D02*
X88587Y-56353D01*
X88587Y-56546D02*
X88587Y-56353D01*
X89020Y-56546D02*
X88587Y-56546D01*
X89020Y-56046D02*
X89020Y-55853D01*
X89020Y-55853D02*
X88587Y-55853D01*
X88587Y-56046D02*
X88587Y-55853D01*
X89020Y-56046D02*
X88587Y-56046D01*
X89020Y-55547D02*
X89020Y-55354D01*
X89020Y-55354D02*
X88587Y-55354D01*
X88587Y-55547D02*
X88587Y-55354D01*
X89020Y-55547D02*
X88587Y-55547D01*
X89020Y-55047D02*
X89020Y-54854D01*
X89020Y-54854D02*
X88587Y-54854D01*
X88587Y-55047D02*
X88587Y-54854D01*
X89020Y-55047D02*
X88587Y-55047D01*
X87013Y-55047D02*
X87013Y-54854D01*
X87013Y-54854D02*
X86580Y-54854D01*
X86580Y-55047D02*
X86580Y-54854D01*
X87013Y-55047D02*
X86580Y-55047D01*
X87013Y-55547D02*
X87013Y-55354D01*
X87013Y-55354D02*
X86580Y-55354D01*
X86580Y-55547D02*
X86580Y-55354D01*
X87013Y-55547D02*
X86580Y-55547D01*
X87013Y-56046D02*
X87013Y-55853D01*
X87013Y-55853D02*
X86580Y-55853D01*
X86580Y-56046D02*
X86580Y-55853D01*
X87013Y-56046D02*
X86580Y-56046D01*
X87013Y-56546D02*
X87013Y-56353D01*
X87013Y-56353D02*
X86580Y-56353D01*
X86580Y-56546D02*
X86580Y-56353D01*
X87013Y-56546D02*
X86580Y-56546D01*
X88193Y-56093D02*
X88193Y-55307D01*
X88193Y-55307D02*
X87407Y-55307D01*
X87407Y-56093D02*
X87407Y-55307D01*
X88193Y-56093D02*
X87407Y-56093D01*
G54D17*
X86265Y-56841D02*
X86265Y-54559D01*
X86265Y-54559D02*
X89335Y-54559D01*
X89335Y-54559D02*
X89335Y-56841D01*
X89335Y-56841D02*
X86265Y-56841D01*
G54D12*
X87052Y-54756D02*
X88351Y-54756D01*
X88351Y-54756D02*
X88548Y-54756D01*
X88548Y-54756D02*
X88548Y-56644D01*
X88548Y-56644D02*
X88351Y-56644D01*
X88351Y-56644D02*
X87052Y-56644D01*
X87052Y-56644D02*
X87052Y-54756D01*
X88351Y-54756D02*
X88351Y-56644D01*
G54D13*
X128400Y-61500D02*
X128382Y-61674D01*
X128332Y-61842D01*
X128249Y-61998D01*
X128138Y-62134D01*
X128003Y-62246D01*
X127848Y-62329D01*
X127680Y-62381D01*
X127506Y-62399D01*
X127332Y-62384D01*
X127163Y-62334D01*
X127008Y-62253D01*
X126871Y-62143D01*
X126758Y-62008D01*
X126673Y-61854D01*
X126620Y-61687D01*
X126601Y-61512D01*
X126615Y-61338D01*
X126664Y-61169D01*
X126744Y-61013D01*
X126853Y-60875D01*
X126987Y-60761D01*
X127140Y-60676D01*
X127307Y-60621D01*
X127482Y-60601D01*
X127656Y-60614D01*
X127825Y-60661D01*
X127982Y-60741D01*
X128120Y-60849D01*
X128235Y-60982D01*
X128322Y-61134D01*
X128377Y-61301D01*
X128399Y-61475D01*
X128400Y-61500D01*
X128400Y-52000D02*
X128382Y-52174D01*
X128332Y-52342D01*
X128249Y-52498D01*
X128138Y-52634D01*
X128003Y-52746D01*
X127848Y-52829D01*
X127680Y-52881D01*
X127506Y-52899D01*
X127332Y-52884D01*
X127163Y-52834D01*
X127008Y-52753D01*
X126871Y-52643D01*
X126758Y-52508D01*
X126673Y-52354D01*
X126620Y-52187D01*
X126601Y-52012D01*
X126615Y-51838D01*
X126664Y-51669D01*
X126744Y-51513D01*
X126853Y-51375D01*
X126987Y-51261D01*
X127140Y-51176D01*
X127307Y-51121D01*
X127482Y-51101D01*
X127656Y-51114D01*
X127825Y-51161D01*
X127982Y-51241D01*
X128120Y-51349D01*
X128235Y-51482D01*
X128322Y-51634D01*
X128377Y-51801D01*
X128399Y-51975D01*
X128400Y-52000D01*
X96400Y-61500D02*
X96382Y-61674D01*
X96332Y-61842D01*
X96249Y-61998D01*
X96138Y-62134D01*
X96003Y-62246D01*
X95848Y-62329D01*
X95680Y-62381D01*
X95506Y-62399D01*
X95332Y-62384D01*
X95163Y-62334D01*
X95008Y-62253D01*
X94871Y-62143D01*
X94758Y-62008D01*
X94673Y-61854D01*
X94620Y-61687D01*
X94601Y-61512D01*
X94615Y-61338D01*
X94664Y-61169D01*
X94744Y-61013D01*
X94853Y-60875D01*
X94987Y-60761D01*
X95140Y-60676D01*
X95307Y-60621D01*
X95482Y-60601D01*
X95656Y-60614D01*
X95825Y-60661D01*
X95982Y-60741D01*
X96120Y-60849D01*
X96235Y-60982D01*
X96322Y-61134D01*
X96377Y-61301D01*
X96399Y-61475D01*
X96400Y-61500D01*
X96400Y-52000D02*
X96382Y-52174D01*
X96332Y-52342D01*
X96249Y-52498D01*
X96138Y-52634D01*
X96003Y-52746D01*
X95848Y-52829D01*
X95680Y-52881D01*
X95506Y-52899D01*
X95332Y-52884D01*
X95163Y-52834D01*
X95008Y-52753D01*
X94871Y-52643D01*
X94758Y-52508D01*
X94673Y-52354D01*
X94620Y-52187D01*
X94601Y-52012D01*
X94615Y-51838D01*
X94664Y-51669D01*
X94744Y-51513D01*
X94853Y-51375D01*
X94987Y-51261D01*
X95140Y-51176D01*
X95307Y-51121D01*
X95482Y-51101D01*
X95656Y-51114D01*
X95825Y-51161D01*
X95982Y-51241D01*
X96120Y-51349D01*
X96235Y-51482D01*
X96322Y-51634D01*
X96377Y-51801D01*
X96399Y-51975D01*
X96400Y-52000D01*
X69400Y-61500D02*
X69382Y-61674D01*
X69332Y-61842D01*
X69249Y-61998D01*
X69138Y-62134D01*
X69003Y-62246D01*
X68848Y-62329D01*
X68680Y-62381D01*
X68506Y-62399D01*
X68332Y-62384D01*
X68163Y-62334D01*
X68008Y-62253D01*
X67871Y-62143D01*
X67758Y-62008D01*
X67673Y-61854D01*
X67620Y-61687D01*
X67601Y-61512D01*
X67615Y-61338D01*
X67664Y-61169D01*
X67744Y-61013D01*
X67853Y-60875D01*
X67987Y-60761D01*
X68140Y-60676D01*
X68307Y-60621D01*
X68482Y-60601D01*
X68656Y-60614D01*
X68825Y-60661D01*
X68982Y-60741D01*
X69120Y-60849D01*
X69235Y-60982D01*
X69322Y-61134D01*
X69377Y-61301D01*
X69399Y-61475D01*
X69400Y-61500D01*
X69400Y-52000D02*
X69382Y-52174D01*
X69332Y-52342D01*
X69249Y-52498D01*
X69138Y-52634D01*
X69003Y-52746D01*
X68848Y-52829D01*
X68680Y-52881D01*
X68506Y-52899D01*
X68332Y-52884D01*
X68163Y-52834D01*
X68008Y-52753D01*
X67871Y-52643D01*
X67758Y-52508D01*
X67673Y-52354D01*
X67620Y-52187D01*
X67601Y-52012D01*
X67615Y-51838D01*
X67664Y-51669D01*
X67744Y-51513D01*
X67853Y-51375D01*
X67987Y-51261D01*
X68140Y-51176D01*
X68307Y-51121D01*
X68482Y-51101D01*
X68656Y-51114D01*
X68825Y-51161D01*
X68982Y-51241D01*
X69120Y-51349D01*
X69235Y-51482D01*
X69322Y-51634D01*
X69377Y-51801D01*
X69399Y-51975D01*
X69400Y-52000D01*
X37400Y-61500D02*
X37382Y-61674D01*
X37332Y-61842D01*
X37249Y-61998D01*
X37138Y-62134D01*
X37003Y-62246D01*
X36848Y-62329D01*
X36680Y-62381D01*
X36506Y-62399D01*
X36332Y-62384D01*
X36163Y-62334D01*
X36008Y-62253D01*
X35871Y-62143D01*
X35758Y-62008D01*
X35673Y-61854D01*
X35620Y-61687D01*
X35601Y-61512D01*
X35615Y-61338D01*
X35664Y-61169D01*
X35744Y-61013D01*
X35853Y-60875D01*
X35987Y-60761D01*
X36140Y-60676D01*
X36307Y-60621D01*
X36482Y-60601D01*
X36656Y-60614D01*
X36825Y-60661D01*
X36982Y-60741D01*
X37120Y-60849D01*
X37235Y-60982D01*
X37322Y-61134D01*
X37377Y-61301D01*
X37399Y-61475D01*
X37400Y-61500D01*
G54D14*
X74506Y-55254D02*
X74506Y-55447D01*
X74506Y-55447D02*
X75104Y-55447D01*
X75104Y-55254D02*
X75104Y-55447D01*
X74506Y-55254D02*
X75104Y-55254D01*
X74506Y-55754D02*
X74506Y-55947D01*
X74506Y-55947D02*
X75104Y-55947D01*
X75104Y-55754D02*
X75104Y-55947D01*
X74506Y-55754D02*
X75104Y-55754D01*
X74506Y-56254D02*
X74506Y-56447D01*
X74506Y-56447D02*
X75104Y-56447D01*
X75104Y-56254D02*
X75104Y-56447D01*
X74506Y-56254D02*
X75104Y-56254D01*
X74506Y-56754D02*
X74506Y-56947D01*
X74506Y-56947D02*
X75104Y-56947D01*
X75104Y-56754D02*
X75104Y-56947D01*
X74506Y-56754D02*
X75104Y-56754D01*
X74506Y-57254D02*
X74506Y-57447D01*
X74506Y-57447D02*
X75104Y-57447D01*
X75104Y-57254D02*
X75104Y-57447D01*
X74506Y-57254D02*
X75104Y-57254D01*
X74506Y-57753D02*
X74506Y-57946D01*
X74506Y-57946D02*
X75104Y-57946D01*
X75104Y-57753D02*
X75104Y-57946D01*
X74506Y-57753D02*
X75104Y-57753D01*
X74506Y-58253D02*
X74506Y-58446D01*
X74506Y-58446D02*
X75104Y-58446D01*
X75104Y-58253D02*
X75104Y-58446D01*
X74506Y-58253D02*
X75104Y-58253D01*
X74506Y-58753D02*
X74506Y-58946D01*
X74506Y-58946D02*
X75104Y-58946D01*
X75104Y-58753D02*
X75104Y-58946D01*
X74506Y-58753D02*
X75104Y-58753D01*
X74506Y-59253D02*
X74506Y-59446D01*
X74506Y-59446D02*
X75104Y-59446D01*
X75104Y-59253D02*
X75104Y-59446D01*
X74506Y-59253D02*
X75104Y-59253D01*
X74506Y-59753D02*
X74506Y-59946D01*
X74506Y-59946D02*
X75104Y-59946D01*
X75104Y-59753D02*
X75104Y-59946D01*
X74506Y-59753D02*
X75104Y-59753D01*
X78096Y-59753D02*
X78096Y-59946D01*
X78096Y-59946D02*
X78694Y-59946D01*
X78694Y-59753D02*
X78694Y-59946D01*
X78096Y-59753D02*
X78694Y-59753D01*
X78096Y-59253D02*
X78096Y-59446D01*
X78096Y-59446D02*
X78694Y-59446D01*
X78694Y-59253D02*
X78694Y-59446D01*
X78096Y-59253D02*
X78694Y-59253D01*
X78096Y-58753D02*
X78096Y-58946D01*
X78096Y-58946D02*
X78694Y-58946D01*
X78694Y-58753D02*
X78694Y-58946D01*
X78096Y-58753D02*
X78694Y-58753D01*
X78096Y-58253D02*
X78096Y-58446D01*
X78096Y-58446D02*
X78694Y-58446D01*
X78694Y-58253D02*
X78694Y-58446D01*
X78096Y-58253D02*
X78694Y-58253D01*
X78096Y-57753D02*
X78096Y-57946D01*
X78096Y-57946D02*
X78694Y-57946D01*
X78694Y-57753D02*
X78694Y-57946D01*
X78096Y-57753D02*
X78694Y-57753D01*
X78096Y-57254D02*
X78096Y-57447D01*
X78096Y-57447D02*
X78694Y-57447D01*
X78694Y-57254D02*
X78694Y-57447D01*
X78096Y-57254D02*
X78694Y-57254D01*
X78096Y-56754D02*
X78096Y-56947D01*
X78096Y-56947D02*
X78694Y-56947D01*
X78694Y-56754D02*
X78694Y-56947D01*
X78096Y-56754D02*
X78694Y-56754D01*
X78096Y-56254D02*
X78096Y-56447D01*
X78096Y-56447D02*
X78694Y-56447D01*
X78694Y-56254D02*
X78694Y-56447D01*
X78096Y-56254D02*
X78694Y-56254D01*
X78096Y-55754D02*
X78096Y-55947D01*
X78096Y-55947D02*
X78694Y-55947D01*
X78694Y-55754D02*
X78694Y-55947D01*
X78096Y-55754D02*
X78694Y-55754D01*
X78096Y-55254D02*
X78096Y-55447D01*
X78096Y-55447D02*
X78694Y-55447D01*
X78694Y-55254D02*
X78694Y-55447D01*
X78096Y-55254D02*
X78694Y-55254D01*
G54D17*
X78922Y-54886D02*
X78922Y-60314D01*
X74278Y-60314D02*
X74278Y-54886D01*
X74278Y-54886D02*
X78922Y-54886D01*
G54D12*
X75144Y-60143D02*
X75144Y-55057D01*
X75144Y-55057D02*
X78056Y-55057D01*
X78056Y-55057D02*
X78056Y-60143D01*
X75341Y-60143D02*
X75341Y-55057D01*
X78056Y-60143D02*
X75144Y-60143D01*
G54D17*
X78922Y-60314D02*
X74278Y-60314D01*
G54D11*
X48500Y-59500D02*
X48500Y-60250D01*
X48500Y-58750D02*
X48500Y-57750D01*
X49000Y-58750D02*
X48000Y-58750D01*
X49000Y-59500D02*
X48500Y-58750D01*
X48500Y-58750D02*
X48000Y-59500D01*
X48000Y-59500D02*
X49000Y-59500D01*
X50000Y-60500D02*
X47000Y-60500D01*
X47000Y-60500D02*
X47000Y-58000D01*
X47000Y-58000D02*
X47500Y-57500D01*
X47500Y-57500D02*
X50000Y-57500D01*
X50000Y-57500D02*
X50000Y-60500D01*
X48500Y-55000D02*
X48500Y-55750D01*
X48500Y-54250D02*
X48500Y-53250D01*
X49000Y-54250D02*
X48000Y-54250D01*
X49000Y-55000D02*
X48500Y-54250D01*
X48500Y-54250D02*
X48000Y-55000D01*
X48000Y-55000D02*
X49000Y-55000D01*
X50000Y-56000D02*
X47000Y-56000D01*
X47000Y-56000D02*
X47000Y-53500D01*
X47000Y-53500D02*
X47500Y-53000D01*
X47500Y-53000D02*
X50000Y-53000D01*
X50000Y-53000D02*
X50000Y-56000D01*
X53000Y-54000D02*
X53000Y-53250D01*
X53000Y-54750D02*
X53000Y-55750D01*
X52500Y-54750D02*
X53500Y-54750D01*
X52500Y-54000D02*
X53000Y-54750D01*
X53000Y-54750D02*
X53500Y-54000D01*
X53500Y-54000D02*
X52500Y-54000D01*
X51500Y-53000D02*
X54500Y-53000D01*
X54500Y-53000D02*
X54500Y-55500D01*
X54500Y-55500D02*
X54000Y-56000D01*
X54000Y-56000D02*
X51500Y-56000D01*
X51500Y-56000D02*
X51500Y-53000D01*
X53000Y-58500D02*
X53000Y-57750D01*
X53000Y-59250D02*
X53000Y-60250D01*
X52500Y-59250D02*
X53500Y-59250D01*
X52500Y-58500D02*
X53000Y-59250D01*
X53000Y-59250D02*
X53500Y-58500D01*
X53500Y-58500D02*
X52500Y-58500D01*
X51500Y-57500D02*
X54500Y-57500D01*
X54500Y-57500D02*
X54500Y-60000D01*
X54500Y-60000D02*
X54000Y-60500D01*
X54000Y-60500D02*
X51500Y-60500D01*
X51500Y-60500D02*
X51500Y-57500D01*
X62000Y-54000D02*
X62000Y-53250D01*
X62000Y-54750D02*
X62000Y-55750D01*
X61500Y-54750D02*
X62500Y-54750D01*
X61500Y-54000D02*
X62000Y-54750D01*
X62000Y-54750D02*
X62500Y-54000D01*
X62500Y-54000D02*
X61500Y-54000D01*
X60500Y-53000D02*
X63500Y-53000D01*
X63500Y-53000D02*
X63500Y-55500D01*
X63500Y-55500D02*
X63000Y-56000D01*
X63000Y-56000D02*
X60500Y-56000D01*
X60500Y-56000D02*
X60500Y-53000D01*
X62000Y-58500D02*
X62000Y-57750D01*
X62000Y-59250D02*
X62000Y-60250D01*
X61500Y-59250D02*
X62500Y-59250D01*
X61500Y-58500D02*
X62000Y-59250D01*
X62000Y-59250D02*
X62500Y-58500D01*
X62500Y-58500D02*
X61500Y-58500D01*
X60500Y-57500D02*
X63500Y-57500D01*
X63500Y-57500D02*
X63500Y-60000D01*
X63500Y-60000D02*
X63000Y-60500D01*
X63000Y-60500D02*
X60500Y-60500D01*
X60500Y-60500D02*
X60500Y-57500D01*
X66500Y-59500D02*
X66500Y-60250D01*
X66500Y-58750D02*
X66500Y-57750D01*
X67000Y-58750D02*
X66000Y-58750D01*
X67000Y-59500D02*
X66500Y-58750D01*
X66500Y-58750D02*
X66000Y-59500D01*
X66000Y-59500D02*
X67000Y-59500D01*
X68000Y-60500D02*
X65000Y-60500D01*
X65000Y-60500D02*
X65000Y-58000D01*
X65000Y-58000D02*
X65500Y-57500D01*
X65500Y-57500D02*
X68000Y-57500D01*
X68000Y-57500D02*
X68000Y-60500D01*
X66500Y-55000D02*
X66500Y-55750D01*
X66500Y-54250D02*
X66500Y-53250D01*
X67000Y-54250D02*
X66000Y-54250D01*
X67000Y-55000D02*
X66500Y-54250D01*
X66500Y-54250D02*
X66000Y-55000D01*
X66000Y-55000D02*
X67000Y-55000D01*
X68000Y-56000D02*
X65000Y-56000D01*
X65000Y-56000D02*
X65000Y-53500D01*
X65000Y-53500D02*
X65500Y-53000D01*
X65500Y-53000D02*
X68000Y-53000D01*
X68000Y-53000D02*
X68000Y-56000D01*
X71000Y-54000D02*
X71000Y-53250D01*
X71000Y-54750D02*
X71000Y-55750D01*
X70500Y-54750D02*
X71500Y-54750D01*
X70500Y-54000D02*
X71000Y-54750D01*
X71000Y-54750D02*
X71500Y-54000D01*
X71500Y-54000D02*
X70500Y-54000D01*
X69500Y-53000D02*
X72500Y-53000D01*
X72500Y-53000D02*
X72500Y-55500D01*
X72500Y-55500D02*
X72000Y-56000D01*
X72000Y-56000D02*
X69500Y-56000D01*
X69500Y-56000D02*
X69500Y-53000D01*
X71000Y-58500D02*
X71000Y-57750D01*
X71000Y-59250D02*
X71000Y-60250D01*
X70500Y-59250D02*
X71500Y-59250D01*
X70500Y-58500D02*
X71000Y-59250D01*
X71000Y-59250D02*
X71500Y-58500D01*
X71500Y-58500D02*
X70500Y-58500D01*
X69500Y-57500D02*
X72500Y-57500D01*
X72500Y-57500D02*
X72500Y-60000D01*
X72500Y-60000D02*
X72000Y-60500D01*
X72000Y-60500D02*
X69500Y-60500D01*
X69500Y-60500D02*
X69500Y-57500D01*
X93000Y-59500D02*
X93000Y-60250D01*
X93000Y-58750D02*
X93000Y-57750D01*
X93500Y-58750D02*
X92500Y-58750D01*
X93500Y-59500D02*
X93000Y-58750D01*
X93000Y-58750D02*
X92500Y-59500D01*
X92500Y-59500D02*
X93500Y-59500D01*
X94500Y-60500D02*
X91500Y-60500D01*
X91500Y-60500D02*
X91500Y-58000D01*
X91500Y-58000D02*
X92000Y-57500D01*
X92000Y-57500D02*
X94500Y-57500D01*
X94500Y-57500D02*
X94500Y-60500D01*
X93000Y-55000D02*
X93000Y-55750D01*
X93000Y-54250D02*
X93000Y-53250D01*
X93500Y-54250D02*
X92500Y-54250D01*
X93500Y-55000D02*
X93000Y-54250D01*
X93000Y-54250D02*
X92500Y-55000D01*
X92500Y-55000D02*
X93500Y-55000D01*
X94500Y-56000D02*
X91500Y-56000D01*
X91500Y-56000D02*
X91500Y-53500D01*
X91500Y-53500D02*
X92000Y-53000D01*
X92000Y-53000D02*
X94500Y-53000D01*
X94500Y-53000D02*
X94500Y-56000D01*
X97500Y-54000D02*
X97500Y-53250D01*
X97500Y-54750D02*
X97500Y-55750D01*
X97000Y-54750D02*
X98000Y-54750D01*
X97000Y-54000D02*
X97500Y-54750D01*
X97500Y-54750D02*
X98000Y-54000D01*
X98000Y-54000D02*
X97000Y-54000D01*
X96000Y-53000D02*
X99000Y-53000D01*
X99000Y-53000D02*
X99000Y-55500D01*
X99000Y-55500D02*
X98500Y-56000D01*
X98500Y-56000D02*
X96000Y-56000D01*
X96000Y-56000D02*
X96000Y-53000D01*
X97500Y-58500D02*
X97500Y-57750D01*
X97500Y-59250D02*
X97500Y-60250D01*
X97000Y-59250D02*
X98000Y-59250D01*
X97000Y-58500D02*
X97500Y-59250D01*
X97500Y-59250D02*
X98000Y-58500D01*
X98000Y-58500D02*
X97000Y-58500D01*
X96000Y-57500D02*
X99000Y-57500D01*
X99000Y-57500D02*
X99000Y-60000D01*
X99000Y-60000D02*
X98500Y-60500D01*
X98500Y-60500D02*
X96000Y-60500D01*
X96000Y-60500D02*
X96000Y-57500D01*
X101900Y-59500D02*
X101900Y-60250D01*
X101900Y-58750D02*
X101900Y-57750D01*
X102400Y-58750D02*
X101400Y-58750D01*
X102400Y-59500D02*
X101900Y-58750D01*
X101900Y-58750D02*
X101400Y-59500D01*
X101400Y-59500D02*
X102400Y-59500D01*
X103400Y-60500D02*
X100400Y-60500D01*
X100400Y-60500D02*
X100400Y-58000D01*
X100400Y-58000D02*
X100900Y-57500D01*
X100900Y-57500D02*
X103400Y-57500D01*
X103400Y-57500D02*
X103400Y-60500D01*
X101900Y-55000D02*
X101900Y-55750D01*
X101900Y-54250D02*
X101900Y-53250D01*
X102400Y-54250D02*
X101400Y-54250D01*
X102400Y-55000D02*
X101900Y-54250D01*
X101900Y-54250D02*
X101400Y-55000D01*
X101400Y-55000D02*
X102400Y-55000D01*
X103400Y-56000D02*
X100400Y-56000D01*
X100400Y-56000D02*
X100400Y-53500D01*
X100400Y-53500D02*
X100900Y-53000D01*
X100900Y-53000D02*
X103400Y-53000D01*
X103400Y-53000D02*
X103400Y-56000D01*
X106500Y-54000D02*
X106500Y-53250D01*
X106500Y-54750D02*
X106500Y-55750D01*
X106000Y-54750D02*
X107000Y-54750D01*
X106000Y-54000D02*
X106500Y-54750D01*
X106500Y-54750D02*
X107000Y-54000D01*
X107000Y-54000D02*
X106000Y-54000D01*
X105000Y-53000D02*
X108000Y-53000D01*
X108000Y-53000D02*
X108000Y-55500D01*
X108000Y-55500D02*
X107500Y-56000D01*
X107500Y-56000D02*
X105000Y-56000D01*
X105000Y-56000D02*
X105000Y-53000D01*
X106500Y-58500D02*
X106500Y-57750D01*
X106500Y-59250D02*
X106500Y-60250D01*
X106000Y-59250D02*
X107000Y-59250D01*
X106000Y-58500D02*
X106500Y-59250D01*
X106500Y-59250D02*
X107000Y-58500D01*
X107000Y-58500D02*
X106000Y-58500D01*
X105000Y-57500D02*
X108000Y-57500D01*
X108000Y-57500D02*
X108000Y-60000D01*
X108000Y-60000D02*
X107500Y-60500D01*
X107500Y-60500D02*
X105000Y-60500D01*
X105000Y-60500D02*
X105000Y-57500D01*
X111000Y-59500D02*
X111000Y-60250D01*
X111000Y-58750D02*
X111000Y-57750D01*
X111500Y-58750D02*
X110500Y-58750D01*
X111500Y-59500D02*
X111000Y-58750D01*
X111000Y-58750D02*
X110500Y-59500D01*
X110500Y-59500D02*
X111500Y-59500D01*
X112500Y-60500D02*
X109500Y-60500D01*
X109500Y-60500D02*
X109500Y-58000D01*
X109500Y-58000D02*
X110000Y-57500D01*
X110000Y-57500D02*
X112500Y-57500D01*
X112500Y-57500D02*
X112500Y-60500D01*
X111000Y-55000D02*
X111000Y-55750D01*
X111000Y-54250D02*
X111000Y-53250D01*
X111500Y-54250D02*
X110500Y-54250D01*
X111500Y-55000D02*
X111000Y-54250D01*
X111000Y-54250D02*
X110500Y-55000D01*
X110500Y-55000D02*
X111500Y-55000D01*
X112500Y-56000D02*
X109500Y-56000D01*
X109500Y-56000D02*
X109500Y-53500D01*
X109500Y-53500D02*
X110000Y-53000D01*
X110000Y-53000D02*
X112500Y-53000D01*
X112500Y-53000D02*
X112500Y-56000D01*
X115600Y-54000D02*
X115600Y-53250D01*
X115600Y-54750D02*
X115600Y-55750D01*
X115100Y-54750D02*
X116100Y-54750D01*
X115100Y-54000D02*
X115600Y-54750D01*
X115600Y-54750D02*
X116100Y-54000D01*
X116100Y-54000D02*
X115100Y-54000D01*
X114100Y-53000D02*
X117100Y-53000D01*
X117100Y-53000D02*
X117100Y-55500D01*
X117100Y-55500D02*
X116600Y-56000D01*
X116600Y-56000D02*
X114100Y-56000D01*
X114100Y-56000D02*
X114100Y-53000D01*
X115600Y-58500D02*
X115600Y-57750D01*
X115600Y-59250D02*
X115600Y-60250D01*
X115100Y-59250D02*
X116100Y-59250D01*
X115100Y-58500D02*
X115600Y-59250D01*
X115600Y-59250D02*
X116100Y-58500D01*
X116100Y-58500D02*
X115100Y-58500D01*
X114100Y-57500D02*
X117100Y-57500D01*
X117100Y-57500D02*
X117100Y-60000D01*
X117100Y-60000D02*
X116600Y-60500D01*
X116600Y-60500D02*
X114100Y-60500D01*
X114100Y-60500D02*
X114100Y-57500D01*
X120000Y-59500D02*
X120000Y-60250D01*
X120000Y-58750D02*
X120000Y-57750D01*
X120500Y-58750D02*
X119500Y-58750D01*
X120500Y-59500D02*
X120000Y-58750D01*
X120000Y-58750D02*
X119500Y-59500D01*
X119500Y-59500D02*
X120500Y-59500D01*
X121500Y-60500D02*
X118500Y-60500D01*
X118500Y-60500D02*
X118500Y-58000D01*
X118500Y-58000D02*
X119000Y-57500D01*
X119000Y-57500D02*
X121500Y-57500D01*
X121500Y-57500D02*
X121500Y-60500D01*
X120000Y-55000D02*
X120000Y-55750D01*
X120000Y-54250D02*
X120000Y-53250D01*
X120500Y-54250D02*
X119500Y-54250D01*
X120500Y-55000D02*
X120000Y-54250D01*
X120000Y-54250D02*
X119500Y-55000D01*
X119500Y-55000D02*
X120500Y-55000D01*
X121500Y-56000D02*
X118500Y-56000D01*
X118500Y-56000D02*
X118500Y-53500D01*
X118500Y-53500D02*
X119000Y-53000D01*
X119000Y-53000D02*
X121500Y-53000D01*
X121500Y-53000D02*
X121500Y-56000D01*
X124500Y-54000D02*
X124500Y-53250D01*
X124500Y-54750D02*
X124500Y-55750D01*
X124000Y-54750D02*
X125000Y-54750D01*
X124000Y-54000D02*
X124500Y-54750D01*
X124500Y-54750D02*
X125000Y-54000D01*
X125000Y-54000D02*
X124000Y-54000D01*
X123000Y-53000D02*
X126000Y-53000D01*
X126000Y-53000D02*
X126000Y-55500D01*
X126000Y-55500D02*
X125500Y-56000D01*
X125500Y-56000D02*
X123000Y-56000D01*
X123000Y-56000D02*
X123000Y-53000D01*
X124500Y-58500D02*
X124500Y-57750D01*
X124500Y-59250D02*
X124500Y-60250D01*
X124000Y-59250D02*
X125000Y-59250D01*
X124000Y-58500D02*
X124500Y-59250D01*
X124500Y-59250D02*
X125000Y-58500D01*
X125000Y-58500D02*
X124000Y-58500D01*
X123000Y-57500D02*
X126000Y-57500D01*
X126000Y-57500D02*
X126000Y-60000D01*
X126000Y-60000D02*
X125500Y-60500D01*
X125500Y-60500D02*
X123000Y-60500D01*
X123000Y-60500D02*
X123000Y-57500D01*
X134100Y-61700D02*
X133800Y-61700D01*
X133800Y-61700D02*
X133800Y-61300D01*
X133800Y-61300D02*
X131400Y-61300D01*
X131400Y-61300D02*
X131400Y-61700D01*
X131400Y-61700D02*
X131100Y-61700D01*
X131400Y-61700D02*
X131400Y-62100D01*
X131400Y-62100D02*
X133800Y-62100D01*
X133800Y-62100D02*
X133800Y-61700D01*
X133600Y-61300D02*
X133600Y-62100D01*
X133500Y-62100D02*
X133500Y-61300D01*
X30000Y-61700D02*
X30300Y-61700D01*
X30300Y-61700D02*
X30300Y-62100D01*
X30300Y-62100D02*
X32700Y-62100D01*
X32700Y-62100D02*
X32700Y-61700D01*
X32700Y-61700D02*
X33000Y-61700D01*
X32700Y-61700D02*
X32700Y-61300D01*
X32700Y-61300D02*
X30300Y-61300D01*
X30300Y-61300D02*
X30300Y-61700D01*
X30500Y-62100D02*
X30500Y-61300D01*
X30600Y-61300D02*
X30600Y-62100D01*
G54D18*
X84950Y-52950D02*
X84950Y-52050D01*
X84950Y-52050D02*
X85450Y-52050D01*
X85450Y-52050D02*
X85450Y-52950D01*
X85450Y-52950D02*
X84950Y-52950D01*
X73250Y-55550D02*
X74150Y-55550D01*
X74150Y-55550D02*
X74150Y-56050D01*
X74150Y-56050D02*
X73250Y-56050D01*
X73250Y-56050D02*
X73250Y-55550D01*
X73250Y-58150D02*
X74150Y-58150D01*
X74150Y-58150D02*
X74150Y-58650D01*
X74150Y-58650D02*
X73250Y-58650D01*
X73250Y-58650D02*
X73250Y-58150D01*
X73250Y-59150D02*
X74150Y-59150D01*
X74150Y-59150D02*
X74150Y-59650D01*
X74150Y-59650D02*
X73250Y-59650D01*
X73250Y-59650D02*
X73250Y-59150D01*
X79950Y-60150D02*
X79050Y-60150D01*
X79050Y-60150D02*
X79050Y-59650D01*
X79050Y-59650D02*
X79950Y-59650D01*
X79950Y-59650D02*
X79950Y-60150D01*
X79950Y-59150D02*
X79050Y-59150D01*
X79050Y-59150D02*
X79050Y-58650D01*
X79050Y-58650D02*
X79950Y-58650D01*
X79950Y-58650D02*
X79950Y-59150D01*
X79950Y-58050D02*
X79050Y-58050D01*
X79050Y-58050D02*
X79050Y-57550D01*
X79050Y-57550D02*
X79950Y-57550D01*
X79950Y-57550D02*
X79950Y-58050D01*
X79950Y-57050D02*
X79050Y-57050D01*
X79050Y-57050D02*
X79050Y-56550D01*
X79050Y-56550D02*
X79950Y-56550D01*
X79950Y-56550D02*
X79950Y-57050D01*
X79950Y-56050D02*
X79050Y-56050D01*
X79050Y-56050D02*
X79050Y-55550D01*
X79050Y-55550D02*
X79950Y-55550D01*
X79950Y-55550D02*
X79950Y-56050D01*
X78850Y-53650D02*
X79750Y-53650D01*
X79750Y-53650D02*
X79750Y-54150D01*
X79750Y-54150D02*
X78850Y-54150D01*
X78850Y-54150D02*
X78850Y-53650D01*
G54D19*
X132600Y-52100D02*
X132600Y-51100D01*
X132600Y-51100D02*
X134600Y-51100D01*
X134600Y-51100D02*
X134600Y-52100D01*
X134600Y-52100D02*
X132600Y-52100D01*
G54D12*
X129217Y-59555D02*
X129193Y-59579D01*
X129122Y-59602D01*
X129074Y-59602D01*
X129002Y-59579D01*
X128955Y-59531D01*
X128931Y-59483D01*
X128907Y-59388D01*
X128907Y-59317D01*
X128931Y-59221D01*
X128955Y-59174D01*
X129002Y-59126D01*
X129074Y-59102D01*
X129122Y-59102D01*
X129193Y-59126D01*
X129217Y-59150D01*
X129502Y-59317D02*
X129455Y-59293D01*
X129431Y-59269D01*
X129407Y-59221D01*
X129407Y-59198D01*
X129431Y-59150D01*
X129455Y-59126D01*
X129502Y-59102D01*
X129598Y-59102D01*
X129645Y-59126D01*
X129669Y-59150D01*
X129693Y-59198D01*
X129693Y-59221D01*
X129669Y-59269D01*
X129645Y-59293D01*
X129598Y-59317D01*
X129502Y-59317D01*
X129455Y-59340D01*
X129431Y-59364D01*
X129407Y-59412D01*
X129407Y-59507D01*
X129431Y-59555D01*
X129455Y-59579D01*
X129502Y-59602D01*
X129598Y-59602D01*
X129645Y-59579D01*
X129669Y-59555D01*
X129693Y-59507D01*
X129693Y-59412D01*
X129669Y-59364D01*
X129645Y-59340D01*
X129598Y-59317D01*
X128895Y-54302D02*
X128609Y-54302D01*
X128752Y-54302D02*
X128752Y-53802D01*
X128704Y-53874D01*
X128657Y-53921D01*
X128609Y-53945D01*
X129109Y-54302D02*
X129109Y-53969D01*
X129109Y-54017D02*
X129133Y-53993D01*
X129180Y-53969D01*
X129252Y-53969D01*
X129300Y-53993D01*
X129323Y-54040D01*
X129323Y-54302D01*
X129323Y-54040D02*
X129347Y-53993D01*
X129395Y-53969D01*
X129466Y-53969D01*
X129514Y-53993D01*
X129538Y-54040D01*
X129538Y-54302D01*
X129943Y-54040D02*
X129776Y-54040D01*
X129776Y-54302D02*
X129776Y-53802D01*
X130014Y-53802D01*
X128312Y-57890D02*
X128312Y-57509D01*
X128502Y-57699D02*
X128121Y-57699D01*
X34717Y-59555D02*
X34693Y-59579D01*
X34622Y-59602D01*
X34574Y-59602D01*
X34502Y-59579D01*
X34455Y-59531D01*
X34431Y-59483D01*
X34407Y-59388D01*
X34407Y-59317D01*
X34431Y-59221D01*
X34455Y-59174D01*
X34502Y-59126D01*
X34574Y-59102D01*
X34622Y-59102D01*
X34693Y-59126D01*
X34717Y-59150D01*
X34883Y-59102D02*
X35217Y-59102D01*
X35002Y-59602D01*
X34395Y-54302D02*
X34109Y-54302D01*
X34252Y-54302D02*
X34252Y-53802D01*
X34204Y-53874D01*
X34157Y-53921D01*
X34109Y-53945D01*
X34609Y-54302D02*
X34609Y-53969D01*
X34609Y-54017D02*
X34633Y-53993D01*
X34680Y-53969D01*
X34752Y-53969D01*
X34800Y-53993D01*
X34823Y-54040D01*
X34823Y-54302D01*
X34823Y-54040D02*
X34847Y-53993D01*
X34895Y-53969D01*
X34966Y-53969D01*
X35014Y-53993D01*
X35038Y-54040D01*
X35038Y-54302D01*
X35443Y-54040D02*
X35276Y-54040D01*
X35276Y-54302D02*
X35276Y-53802D01*
X35514Y-53802D01*
X33812Y-57890D02*
X33812Y-57509D01*
X34002Y-57699D02*
X33621Y-57699D01*
X57131Y-61302D02*
X57131Y-60802D01*
X57250Y-60802D01*
X57322Y-60826D01*
X57369Y-60874D01*
X57393Y-60921D01*
X57417Y-61017D01*
X57417Y-61088D01*
X57393Y-61183D01*
X57369Y-61231D01*
X57322Y-61279D01*
X57250Y-61302D01*
X57131Y-61302D01*
X57655Y-61302D02*
X57750Y-61302D01*
X57798Y-61279D01*
X57822Y-61255D01*
X57869Y-61183D01*
X57893Y-61088D01*
X57893Y-60898D01*
X57869Y-60850D01*
X57845Y-60826D01*
X57798Y-60802D01*
X57702Y-60802D01*
X57655Y-60826D01*
X57631Y-60850D01*
X57607Y-60898D01*
X57607Y-61017D01*
X57631Y-61064D01*
X57655Y-61088D01*
X57702Y-61112D01*
X57798Y-61112D01*
X57845Y-61088D01*
X57869Y-61064D01*
X57893Y-61017D01*
X56893Y-52802D02*
X56893Y-52302D01*
X57012Y-52302D01*
X57084Y-52326D01*
X57131Y-52374D01*
X57155Y-52421D01*
X57179Y-52517D01*
X57179Y-52588D01*
X57155Y-52683D01*
X57131Y-52731D01*
X57084Y-52779D01*
X57012Y-52802D01*
X56893Y-52802D01*
X57655Y-52802D02*
X57369Y-52802D01*
X57512Y-52802D02*
X57512Y-52302D01*
X57464Y-52374D01*
X57417Y-52421D01*
X57369Y-52445D01*
X57964Y-52302D02*
X58012Y-52302D01*
X58060Y-52326D01*
X58083Y-52350D01*
X58107Y-52398D01*
X58131Y-52493D01*
X58131Y-52612D01*
X58107Y-52707D01*
X58083Y-52755D01*
X58060Y-52779D01*
X58012Y-52802D01*
X57964Y-52802D01*
X57917Y-52779D01*
X57893Y-52755D01*
X57869Y-52707D01*
X57845Y-52612D01*
X57845Y-52493D01*
X57869Y-52398D01*
X57893Y-52350D01*
X57917Y-52326D01*
X57964Y-52302D01*
X39131Y-52702D02*
X39131Y-52202D01*
X39250Y-52202D01*
X39322Y-52226D01*
X39369Y-52274D01*
X39393Y-52321D01*
X39417Y-52417D01*
X39417Y-52488D01*
X39393Y-52583D01*
X39369Y-52631D01*
X39322Y-52679D01*
X39250Y-52702D01*
X39131Y-52702D01*
X39607Y-52250D02*
X39631Y-52226D01*
X39679Y-52202D01*
X39798Y-52202D01*
X39845Y-52226D01*
X39869Y-52250D01*
X39893Y-52298D01*
X39893Y-52345D01*
X39869Y-52417D01*
X39583Y-52702D01*
X39893Y-52702D01*
X39131Y-61302D02*
X39131Y-60802D01*
X39250Y-60802D01*
X39322Y-60826D01*
X39369Y-60874D01*
X39393Y-60921D01*
X39417Y-61017D01*
X39417Y-61088D01*
X39393Y-61183D01*
X39369Y-61231D01*
X39322Y-61279D01*
X39250Y-61302D01*
X39131Y-61302D01*
X39893Y-61302D02*
X39607Y-61302D01*
X39750Y-61302D02*
X39750Y-60802D01*
X39702Y-60874D01*
X39655Y-60921D01*
X39607Y-60945D01*
X43631Y-52702D02*
X43631Y-52202D01*
X43750Y-52202D01*
X43822Y-52226D01*
X43869Y-52274D01*
X43893Y-52321D01*
X43917Y-52417D01*
X43917Y-52488D01*
X43893Y-52583D01*
X43869Y-52631D01*
X43822Y-52679D01*
X43750Y-52702D01*
X43631Y-52702D01*
X44083Y-52202D02*
X44393Y-52202D01*
X44226Y-52393D01*
X44298Y-52393D01*
X44345Y-52417D01*
X44369Y-52440D01*
X44393Y-52488D01*
X44393Y-52607D01*
X44369Y-52655D01*
X44345Y-52679D01*
X44298Y-52702D01*
X44155Y-52702D01*
X44107Y-52679D01*
X44083Y-52655D01*
X43631Y-61302D02*
X43631Y-60802D01*
X43750Y-60802D01*
X43822Y-60826D01*
X43869Y-60874D01*
X43893Y-60921D01*
X43917Y-61017D01*
X43917Y-61088D01*
X43893Y-61183D01*
X43869Y-61231D01*
X43822Y-61279D01*
X43750Y-61302D01*
X43631Y-61302D01*
X44345Y-60969D02*
X44345Y-61302D01*
X44226Y-60779D02*
X44107Y-61136D01*
X44417Y-61136D01*
X80612Y-54402D02*
X80612Y-53902D01*
X80826Y-54379D02*
X80898Y-54402D01*
X81017Y-54402D01*
X81064Y-54379D01*
X81088Y-54355D01*
X81112Y-54307D01*
X81112Y-54260D01*
X81088Y-54212D01*
X81064Y-54188D01*
X81017Y-54164D01*
X80921Y-54140D01*
X80874Y-54117D01*
X80850Y-54093D01*
X80826Y-54045D01*
X80826Y-53998D01*
X80850Y-53950D01*
X80874Y-53926D01*
X80921Y-53902D01*
X81041Y-53902D01*
X81112Y-53926D01*
X81326Y-54402D02*
X81326Y-53902D01*
X81517Y-53902D01*
X81564Y-53926D01*
X81588Y-53950D01*
X81612Y-53998D01*
X81612Y-54069D01*
X81588Y-54117D01*
X81564Y-54140D01*
X81517Y-54164D01*
X81326Y-54164D01*
X78693Y-51202D02*
X78693Y-50702D01*
X78812Y-50702D01*
X78884Y-50726D01*
X78931Y-50774D01*
X78955Y-50821D01*
X78979Y-50917D01*
X78979Y-50988D01*
X78955Y-51083D01*
X78931Y-51131D01*
X78884Y-51179D01*
X78812Y-51202D01*
X78693Y-51202D01*
X79145Y-50702D02*
X79455Y-50702D01*
X79288Y-50893D01*
X79360Y-50893D01*
X79407Y-50917D01*
X79431Y-50940D01*
X79455Y-50988D01*
X79455Y-51107D01*
X79431Y-51155D01*
X79407Y-51179D01*
X79360Y-51202D01*
X79217Y-51202D01*
X79169Y-51179D01*
X79145Y-51155D01*
X79621Y-50702D02*
X79931Y-50702D01*
X79764Y-50893D01*
X79836Y-50893D01*
X79883Y-50917D01*
X79907Y-50940D01*
X79931Y-50988D01*
X79931Y-51107D01*
X79907Y-51155D01*
X79883Y-51179D01*
X79836Y-51202D01*
X79693Y-51202D01*
X79645Y-51179D01*
X79621Y-51155D01*
X82917Y-57155D02*
X82893Y-57179D01*
X82822Y-57202D01*
X82774Y-57202D01*
X82702Y-57179D01*
X82655Y-57131D01*
X82631Y-57083D01*
X82607Y-56988D01*
X82607Y-56917D01*
X82631Y-56821D01*
X82655Y-56774D01*
X82702Y-56726D01*
X82774Y-56702D01*
X82822Y-56702D01*
X82893Y-56726D01*
X82917Y-56750D01*
X83083Y-56702D02*
X83393Y-56702D01*
X83226Y-56893D01*
X83298Y-56893D01*
X83345Y-56917D01*
X83369Y-56940D01*
X83393Y-56988D01*
X83393Y-57107D01*
X83369Y-57155D01*
X83345Y-57179D01*
X83298Y-57202D01*
X83155Y-57202D01*
X83107Y-57179D01*
X83083Y-57155D01*
X84217Y-51455D02*
X84193Y-51479D01*
X84122Y-51502D01*
X84074Y-51502D01*
X84002Y-51479D01*
X83955Y-51431D01*
X83931Y-51383D01*
X83907Y-51288D01*
X83907Y-51217D01*
X83931Y-51121D01*
X83955Y-51074D01*
X84002Y-51026D01*
X84074Y-51002D01*
X84122Y-51002D01*
X84193Y-51026D01*
X84217Y-51050D01*
X84693Y-51502D02*
X84407Y-51502D01*
X84550Y-51502D02*
X84550Y-51002D01*
X84502Y-51074D01*
X84455Y-51121D01*
X84407Y-51145D01*
X91055Y-55783D02*
X91079Y-55807D01*
X91102Y-55878D01*
X91102Y-55926D01*
X91079Y-55998D01*
X91031Y-56045D01*
X90983Y-56069D01*
X90888Y-56093D01*
X90817Y-56093D01*
X90721Y-56069D01*
X90674Y-56045D01*
X90626Y-55998D01*
X90602Y-55926D01*
X90602Y-55878D01*
X90626Y-55807D01*
X90650Y-55783D01*
X90602Y-55355D02*
X90602Y-55450D01*
X90626Y-55498D01*
X90650Y-55521D01*
X90721Y-55569D01*
X90817Y-55593D01*
X91007Y-55593D01*
X91055Y-55569D01*
X91079Y-55545D01*
X91102Y-55498D01*
X91102Y-55402D01*
X91079Y-55355D01*
X91055Y-55331D01*
X91007Y-55307D01*
X90888Y-55307D01*
X90840Y-55331D01*
X90817Y-55355D01*
X90793Y-55402D01*
X90793Y-55498D01*
X90817Y-55545D01*
X90840Y-55569D01*
X90888Y-55593D01*
X85517Y-54455D02*
X85493Y-54479D01*
X85422Y-54502D01*
X85374Y-54502D01*
X85302Y-54479D01*
X85255Y-54431D01*
X85231Y-54383D01*
X85207Y-54288D01*
X85207Y-54217D01*
X85231Y-54121D01*
X85255Y-54074D01*
X85302Y-54026D01*
X85374Y-54002D01*
X85422Y-54002D01*
X85493Y-54026D01*
X85517Y-54050D01*
X85969Y-54002D02*
X85731Y-54002D01*
X85707Y-54240D01*
X85731Y-54217D01*
X85779Y-54193D01*
X85898Y-54193D01*
X85945Y-54217D01*
X85969Y-54240D01*
X85993Y-54288D01*
X85993Y-54407D01*
X85969Y-54455D01*
X85945Y-54479D01*
X85898Y-54502D01*
X85779Y-54502D01*
X85731Y-54479D01*
X85707Y-54455D01*
X81017Y-57155D02*
X80993Y-57179D01*
X80922Y-57202D01*
X80874Y-57202D01*
X80802Y-57179D01*
X80755Y-57131D01*
X80731Y-57083D01*
X80707Y-56988D01*
X80707Y-56917D01*
X80731Y-56821D01*
X80755Y-56774D01*
X80802Y-56726D01*
X80874Y-56702D01*
X80922Y-56702D01*
X80993Y-56726D01*
X81017Y-56750D01*
X81445Y-56869D02*
X81445Y-57202D01*
X81326Y-56679D02*
X81207Y-57036D01*
X81517Y-57036D01*
X84517Y-54455D02*
X84493Y-54479D01*
X84422Y-54502D01*
X84374Y-54502D01*
X84302Y-54479D01*
X84255Y-54431D01*
X84231Y-54383D01*
X84207Y-54288D01*
X84207Y-54217D01*
X84231Y-54121D01*
X84255Y-54074D01*
X84302Y-54026D01*
X84374Y-54002D01*
X84422Y-54002D01*
X84493Y-54026D01*
X84517Y-54050D01*
X84707Y-54050D02*
X84731Y-54026D01*
X84779Y-54002D01*
X84898Y-54002D01*
X84945Y-54026D01*
X84969Y-54050D01*
X84993Y-54098D01*
X84993Y-54145D01*
X84969Y-54217D01*
X84683Y-54502D01*
X84993Y-54502D01*
X86419Y-61402D02*
X86419Y-60902D01*
X86538Y-61450D02*
X86919Y-61450D01*
X87324Y-61402D02*
X87157Y-61164D01*
X87038Y-61402D02*
X87038Y-60902D01*
X87229Y-60902D01*
X87276Y-60926D01*
X87300Y-60950D01*
X87324Y-60998D01*
X87324Y-61069D01*
X87300Y-61117D01*
X87276Y-61140D01*
X87229Y-61164D01*
X87038Y-61164D01*
X87538Y-61140D02*
X87705Y-61140D01*
X87776Y-61402D02*
X87538Y-61402D01*
X87538Y-60902D01*
X87776Y-60902D01*
X88157Y-61140D02*
X87990Y-61140D01*
X87990Y-61402D02*
X87990Y-60902D01*
X88228Y-60902D01*
X80202Y-62688D02*
X79702Y-62688D01*
X80155Y-62164D02*
X80179Y-62188D01*
X80202Y-62259D01*
X80202Y-62307D01*
X80179Y-62379D01*
X80131Y-62426D01*
X80083Y-62450D01*
X79988Y-62474D01*
X79917Y-62474D01*
X79821Y-62450D01*
X79774Y-62426D01*
X79726Y-62379D01*
X79702Y-62307D01*
X79702Y-62259D01*
X79726Y-62188D01*
X79750Y-62164D01*
X79750Y-61974D02*
X79726Y-61950D01*
X79702Y-61902D01*
X79702Y-61783D01*
X79726Y-61736D01*
X79750Y-61712D01*
X79798Y-61688D01*
X79845Y-61688D01*
X79917Y-61712D01*
X80202Y-61998D01*
X80202Y-61688D01*
X88312Y-54402D02*
X88312Y-53902D01*
X88836Y-54355D02*
X88812Y-54379D01*
X88741Y-54402D01*
X88693Y-54402D01*
X88621Y-54379D01*
X88574Y-54331D01*
X88550Y-54283D01*
X88526Y-54188D01*
X88526Y-54117D01*
X88550Y-54021D01*
X88574Y-53974D01*
X88621Y-53926D01*
X88693Y-53902D01*
X88741Y-53902D01*
X88812Y-53926D01*
X88836Y-53950D01*
X89002Y-53902D02*
X89312Y-53902D01*
X89145Y-54093D01*
X89217Y-54093D01*
X89264Y-54117D01*
X89288Y-54140D01*
X89312Y-54188D01*
X89312Y-54307D01*
X89288Y-54355D01*
X89264Y-54379D01*
X89217Y-54402D01*
X89074Y-54402D01*
X89026Y-54379D01*
X89002Y-54355D01*
X74312Y-54702D02*
X74312Y-54202D01*
X74836Y-54655D02*
X74812Y-54679D01*
X74741Y-54702D01*
X74693Y-54702D01*
X74621Y-54679D01*
X74574Y-54631D01*
X74550Y-54583D01*
X74526Y-54488D01*
X74526Y-54417D01*
X74550Y-54321D01*
X74574Y-54274D01*
X74621Y-54226D01*
X74693Y-54202D01*
X74741Y-54202D01*
X74812Y-54226D01*
X74836Y-54250D01*
X75312Y-54702D02*
X75026Y-54702D01*
X75169Y-54702D02*
X75169Y-54202D01*
X75121Y-54274D01*
X75074Y-54321D01*
X75026Y-54345D01*
X48131Y-61302D02*
X48131Y-60802D01*
X48250Y-60802D01*
X48322Y-60826D01*
X48369Y-60874D01*
X48393Y-60921D01*
X48417Y-61017D01*
X48417Y-61088D01*
X48393Y-61183D01*
X48369Y-61231D01*
X48322Y-61279D01*
X48250Y-61302D01*
X48131Y-61302D01*
X48869Y-60802D02*
X48631Y-60802D01*
X48607Y-61040D01*
X48631Y-61017D01*
X48679Y-60993D01*
X48798Y-60993D01*
X48845Y-61017D01*
X48869Y-61040D01*
X48893Y-61088D01*
X48893Y-61207D01*
X48869Y-61255D01*
X48845Y-61279D01*
X48798Y-61302D01*
X48679Y-61302D01*
X48631Y-61279D01*
X48607Y-61255D01*
X48131Y-52702D02*
X48131Y-52202D01*
X48250Y-52202D01*
X48322Y-52226D01*
X48369Y-52274D01*
X48393Y-52321D01*
X48417Y-52417D01*
X48417Y-52488D01*
X48393Y-52583D01*
X48369Y-52631D01*
X48322Y-52679D01*
X48250Y-52702D01*
X48131Y-52702D01*
X48845Y-52202D02*
X48750Y-52202D01*
X48702Y-52226D01*
X48679Y-52250D01*
X48631Y-52321D01*
X48607Y-52417D01*
X48607Y-52607D01*
X48631Y-52655D01*
X48655Y-52679D01*
X48702Y-52702D01*
X48798Y-52702D01*
X48845Y-52679D01*
X48869Y-52655D01*
X48893Y-52607D01*
X48893Y-52488D01*
X48869Y-52440D01*
X48845Y-52417D01*
X48798Y-52393D01*
X48702Y-52393D01*
X48655Y-52417D01*
X48631Y-52440D01*
X48607Y-52488D01*
X52631Y-52702D02*
X52631Y-52202D01*
X52750Y-52202D01*
X52822Y-52226D01*
X52869Y-52274D01*
X52893Y-52321D01*
X52917Y-52417D01*
X52917Y-52488D01*
X52893Y-52583D01*
X52869Y-52631D01*
X52822Y-52679D01*
X52750Y-52702D01*
X52631Y-52702D01*
X53083Y-52202D02*
X53417Y-52202D01*
X53202Y-52702D01*
X52631Y-61302D02*
X52631Y-60802D01*
X52750Y-60802D01*
X52822Y-60826D01*
X52869Y-60874D01*
X52893Y-60921D01*
X52917Y-61017D01*
X52917Y-61088D01*
X52893Y-61183D01*
X52869Y-61231D01*
X52822Y-61279D01*
X52750Y-61302D01*
X52631Y-61302D01*
X53202Y-61017D02*
X53155Y-60993D01*
X53131Y-60969D01*
X53107Y-60921D01*
X53107Y-60898D01*
X53131Y-60850D01*
X53155Y-60826D01*
X53202Y-60802D01*
X53298Y-60802D01*
X53345Y-60826D01*
X53369Y-60850D01*
X53393Y-60898D01*
X53393Y-60921D01*
X53369Y-60969D01*
X53345Y-60993D01*
X53298Y-61017D01*
X53202Y-61017D01*
X53155Y-61040D01*
X53131Y-61064D01*
X53107Y-61112D01*
X53107Y-61207D01*
X53131Y-61255D01*
X53155Y-61279D01*
X53202Y-61302D01*
X53298Y-61302D01*
X53345Y-61279D01*
X53369Y-61255D01*
X53393Y-61207D01*
X53393Y-61112D01*
X53369Y-61064D01*
X53345Y-61040D01*
X53298Y-61017D01*
X61393Y-52702D02*
X61393Y-52202D01*
X61512Y-52202D01*
X61584Y-52226D01*
X61631Y-52274D01*
X61655Y-52321D01*
X61679Y-52417D01*
X61679Y-52488D01*
X61655Y-52583D01*
X61631Y-52631D01*
X61584Y-52679D01*
X61512Y-52702D01*
X61393Y-52702D01*
X62155Y-52702D02*
X61869Y-52702D01*
X62012Y-52702D02*
X62012Y-52202D01*
X61964Y-52274D01*
X61917Y-52321D01*
X61869Y-52345D01*
X62631Y-52702D02*
X62345Y-52702D01*
X62488Y-52702D02*
X62488Y-52202D01*
X62440Y-52274D01*
X62393Y-52321D01*
X62345Y-52345D01*
X61393Y-61302D02*
X61393Y-60802D01*
X61512Y-60802D01*
X61584Y-60826D01*
X61631Y-60874D01*
X61655Y-60921D01*
X61679Y-61017D01*
X61679Y-61088D01*
X61655Y-61183D01*
X61631Y-61231D01*
X61584Y-61279D01*
X61512Y-61302D01*
X61393Y-61302D01*
X62155Y-61302D02*
X61869Y-61302D01*
X62012Y-61302D02*
X62012Y-60802D01*
X61964Y-60874D01*
X61917Y-60921D01*
X61869Y-60945D01*
X62345Y-60850D02*
X62369Y-60826D01*
X62417Y-60802D01*
X62536Y-60802D01*
X62583Y-60826D01*
X62607Y-60850D01*
X62631Y-60898D01*
X62631Y-60945D01*
X62607Y-61017D01*
X62321Y-61302D01*
X62631Y-61302D01*
X65893Y-61302D02*
X65893Y-60802D01*
X66012Y-60802D01*
X66084Y-60826D01*
X66131Y-60874D01*
X66155Y-60921D01*
X66179Y-61017D01*
X66179Y-61088D01*
X66155Y-61183D01*
X66131Y-61231D01*
X66084Y-61279D01*
X66012Y-61302D01*
X65893Y-61302D01*
X66655Y-61302D02*
X66369Y-61302D01*
X66512Y-61302D02*
X66512Y-60802D01*
X66464Y-60874D01*
X66417Y-60921D01*
X66369Y-60945D01*
X66821Y-60802D02*
X67131Y-60802D01*
X66964Y-60993D01*
X67036Y-60993D01*
X67083Y-61017D01*
X67107Y-61040D01*
X67131Y-61088D01*
X67131Y-61207D01*
X67107Y-61255D01*
X67083Y-61279D01*
X67036Y-61302D01*
X66893Y-61302D01*
X66845Y-61279D01*
X66821Y-61255D01*
X65893Y-52702D02*
X65893Y-52202D01*
X66012Y-52202D01*
X66084Y-52226D01*
X66131Y-52274D01*
X66155Y-52321D01*
X66179Y-52417D01*
X66179Y-52488D01*
X66155Y-52583D01*
X66131Y-52631D01*
X66084Y-52679D01*
X66012Y-52702D01*
X65893Y-52702D01*
X66655Y-52702D02*
X66369Y-52702D01*
X66512Y-52702D02*
X66512Y-52202D01*
X66464Y-52274D01*
X66417Y-52321D01*
X66369Y-52345D01*
X67083Y-52369D02*
X67083Y-52702D01*
X66964Y-52179D02*
X66845Y-52536D01*
X67155Y-52536D01*
X70393Y-52702D02*
X70393Y-52202D01*
X70512Y-52202D01*
X70584Y-52226D01*
X70631Y-52274D01*
X70655Y-52321D01*
X70679Y-52417D01*
X70679Y-52488D01*
X70655Y-52583D01*
X70631Y-52631D01*
X70584Y-52679D01*
X70512Y-52702D01*
X70393Y-52702D01*
X71155Y-52702D02*
X70869Y-52702D01*
X71012Y-52702D02*
X71012Y-52202D01*
X70964Y-52274D01*
X70917Y-52321D01*
X70869Y-52345D01*
X71607Y-52202D02*
X71369Y-52202D01*
X71345Y-52440D01*
X71369Y-52417D01*
X71417Y-52393D01*
X71536Y-52393D01*
X71583Y-52417D01*
X71607Y-52440D01*
X71631Y-52488D01*
X71631Y-52607D01*
X71607Y-52655D01*
X71583Y-52679D01*
X71536Y-52702D01*
X71417Y-52702D01*
X71369Y-52679D01*
X71345Y-52655D01*
X70393Y-61302D02*
X70393Y-60802D01*
X70512Y-60802D01*
X70584Y-60826D01*
X70631Y-60874D01*
X70655Y-60921D01*
X70679Y-61017D01*
X70679Y-61088D01*
X70655Y-61183D01*
X70631Y-61231D01*
X70584Y-61279D01*
X70512Y-61302D01*
X70393Y-61302D01*
X71155Y-61302D02*
X70869Y-61302D01*
X71012Y-61302D02*
X71012Y-60802D01*
X70964Y-60874D01*
X70917Y-60921D01*
X70869Y-60945D01*
X71583Y-60802D02*
X71488Y-60802D01*
X71440Y-60826D01*
X71417Y-60850D01*
X71369Y-60921D01*
X71345Y-61017D01*
X71345Y-61207D01*
X71369Y-61255D01*
X71393Y-61279D01*
X71440Y-61302D01*
X71536Y-61302D01*
X71583Y-61279D01*
X71607Y-61255D01*
X71631Y-61207D01*
X71631Y-61088D01*
X71607Y-61040D01*
X71583Y-61017D01*
X71536Y-60993D01*
X71440Y-60993D01*
X71393Y-61017D01*
X71369Y-61040D01*
X71345Y-61088D01*
X92393Y-61302D02*
X92393Y-60802D01*
X92512Y-60802D01*
X92584Y-60826D01*
X92631Y-60874D01*
X92655Y-60921D01*
X92679Y-61017D01*
X92679Y-61088D01*
X92655Y-61183D01*
X92631Y-61231D01*
X92584Y-61279D01*
X92512Y-61302D01*
X92393Y-61302D01*
X93155Y-61302D02*
X92869Y-61302D01*
X93012Y-61302D02*
X93012Y-60802D01*
X92964Y-60874D01*
X92917Y-60921D01*
X92869Y-60945D01*
X93321Y-60802D02*
X93655Y-60802D01*
X93440Y-61302D01*
X92393Y-52702D02*
X92393Y-52202D01*
X92512Y-52202D01*
X92584Y-52226D01*
X92631Y-52274D01*
X92655Y-52321D01*
X92679Y-52417D01*
X92679Y-52488D01*
X92655Y-52583D01*
X92631Y-52631D01*
X92584Y-52679D01*
X92512Y-52702D01*
X92393Y-52702D01*
X93155Y-52702D02*
X92869Y-52702D01*
X93012Y-52702D02*
X93012Y-52202D01*
X92964Y-52274D01*
X92917Y-52321D01*
X92869Y-52345D01*
X93440Y-52417D02*
X93393Y-52393D01*
X93369Y-52369D01*
X93345Y-52321D01*
X93345Y-52298D01*
X93369Y-52250D01*
X93393Y-52226D01*
X93440Y-52202D01*
X93536Y-52202D01*
X93583Y-52226D01*
X93607Y-52250D01*
X93631Y-52298D01*
X93631Y-52321D01*
X93607Y-52369D01*
X93583Y-52393D01*
X93536Y-52417D01*
X93440Y-52417D01*
X93393Y-52440D01*
X93369Y-52464D01*
X93345Y-52512D01*
X93345Y-52607D01*
X93369Y-52655D01*
X93393Y-52679D01*
X93440Y-52702D01*
X93536Y-52702D01*
X93583Y-52679D01*
X93607Y-52655D01*
X93631Y-52607D01*
X93631Y-52512D01*
X93607Y-52464D01*
X93583Y-52440D01*
X93536Y-52417D01*
X96893Y-52702D02*
X96893Y-52202D01*
X97012Y-52202D01*
X97084Y-52226D01*
X97131Y-52274D01*
X97155Y-52321D01*
X97179Y-52417D01*
X97179Y-52488D01*
X97155Y-52583D01*
X97131Y-52631D01*
X97084Y-52679D01*
X97012Y-52702D01*
X96893Y-52702D01*
X97655Y-52702D02*
X97369Y-52702D01*
X97512Y-52702D02*
X97512Y-52202D01*
X97464Y-52274D01*
X97417Y-52321D01*
X97369Y-52345D01*
X97893Y-52702D02*
X97988Y-52702D01*
X98036Y-52679D01*
X98060Y-52655D01*
X98107Y-52583D01*
X98131Y-52488D01*
X98131Y-52298D01*
X98107Y-52250D01*
X98083Y-52226D01*
X98036Y-52202D01*
X97940Y-52202D01*
X97893Y-52226D01*
X97869Y-52250D01*
X97845Y-52298D01*
X97845Y-52417D01*
X97869Y-52464D01*
X97893Y-52488D01*
X97940Y-52512D01*
X98036Y-52512D01*
X98083Y-52488D01*
X98107Y-52464D01*
X98131Y-52417D01*
X96893Y-61302D02*
X96893Y-60802D01*
X97012Y-60802D01*
X97084Y-60826D01*
X97131Y-60874D01*
X97155Y-60921D01*
X97179Y-61017D01*
X97179Y-61088D01*
X97155Y-61183D01*
X97131Y-61231D01*
X97084Y-61279D01*
X97012Y-61302D01*
X96893Y-61302D01*
X97369Y-60850D02*
X97393Y-60826D01*
X97441Y-60802D01*
X97560Y-60802D01*
X97607Y-60826D01*
X97631Y-60850D01*
X97655Y-60898D01*
X97655Y-60945D01*
X97631Y-61017D01*
X97345Y-61302D01*
X97655Y-61302D01*
X97964Y-60802D02*
X98012Y-60802D01*
X98060Y-60826D01*
X98083Y-60850D01*
X98107Y-60898D01*
X98131Y-60993D01*
X98131Y-61112D01*
X98107Y-61207D01*
X98083Y-61255D01*
X98060Y-61279D01*
X98012Y-61302D01*
X97964Y-61302D01*
X97917Y-61279D01*
X97893Y-61255D01*
X97869Y-61207D01*
X97845Y-61112D01*
X97845Y-60993D01*
X97869Y-60898D01*
X97893Y-60850D01*
X97917Y-60826D01*
X97964Y-60802D01*
X101293Y-61302D02*
X101293Y-60802D01*
X101412Y-60802D01*
X101484Y-60826D01*
X101531Y-60874D01*
X101555Y-60921D01*
X101579Y-61017D01*
X101579Y-61088D01*
X101555Y-61183D01*
X101531Y-61231D01*
X101484Y-61279D01*
X101412Y-61302D01*
X101293Y-61302D01*
X101769Y-60850D02*
X101793Y-60826D01*
X101841Y-60802D01*
X101960Y-60802D01*
X102007Y-60826D01*
X102031Y-60850D01*
X102055Y-60898D01*
X102055Y-60945D01*
X102031Y-61017D01*
X101745Y-61302D01*
X102055Y-61302D01*
X102531Y-61302D02*
X102245Y-61302D01*
X102388Y-61302D02*
X102388Y-60802D01*
X102340Y-60874D01*
X102293Y-60921D01*
X102245Y-60945D01*
X101293Y-52702D02*
X101293Y-52202D01*
X101412Y-52202D01*
X101484Y-52226D01*
X101531Y-52274D01*
X101555Y-52321D01*
X101579Y-52417D01*
X101579Y-52488D01*
X101555Y-52583D01*
X101531Y-52631D01*
X101484Y-52679D01*
X101412Y-52702D01*
X101293Y-52702D01*
X101769Y-52250D02*
X101793Y-52226D01*
X101841Y-52202D01*
X101960Y-52202D01*
X102007Y-52226D01*
X102031Y-52250D01*
X102055Y-52298D01*
X102055Y-52345D01*
X102031Y-52417D01*
X101745Y-52702D01*
X102055Y-52702D01*
X102245Y-52250D02*
X102269Y-52226D01*
X102317Y-52202D01*
X102436Y-52202D01*
X102483Y-52226D01*
X102507Y-52250D01*
X102531Y-52298D01*
X102531Y-52345D01*
X102507Y-52417D01*
X102221Y-52702D01*
X102531Y-52702D01*
X105893Y-52702D02*
X105893Y-52202D01*
X106012Y-52202D01*
X106084Y-52226D01*
X106131Y-52274D01*
X106155Y-52321D01*
X106179Y-52417D01*
X106179Y-52488D01*
X106155Y-52583D01*
X106131Y-52631D01*
X106084Y-52679D01*
X106012Y-52702D01*
X105893Y-52702D01*
X106369Y-52250D02*
X106393Y-52226D01*
X106441Y-52202D01*
X106560Y-52202D01*
X106607Y-52226D01*
X106631Y-52250D01*
X106655Y-52298D01*
X106655Y-52345D01*
X106631Y-52417D01*
X106345Y-52702D01*
X106655Y-52702D01*
X106821Y-52202D02*
X107131Y-52202D01*
X106964Y-52393D01*
X107036Y-52393D01*
X107083Y-52417D01*
X107107Y-52440D01*
X107131Y-52488D01*
X107131Y-52607D01*
X107107Y-52655D01*
X107083Y-52679D01*
X107036Y-52702D01*
X106893Y-52702D01*
X106845Y-52679D01*
X106821Y-52655D01*
X105893Y-61302D02*
X105893Y-60802D01*
X106012Y-60802D01*
X106084Y-60826D01*
X106131Y-60874D01*
X106155Y-60921D01*
X106179Y-61017D01*
X106179Y-61088D01*
X106155Y-61183D01*
X106131Y-61231D01*
X106084Y-61279D01*
X106012Y-61302D01*
X105893Y-61302D01*
X106369Y-60850D02*
X106393Y-60826D01*
X106441Y-60802D01*
X106560Y-60802D01*
X106607Y-60826D01*
X106631Y-60850D01*
X106655Y-60898D01*
X106655Y-60945D01*
X106631Y-61017D01*
X106345Y-61302D01*
X106655Y-61302D01*
X107083Y-60969D02*
X107083Y-61302D01*
X106964Y-60779D02*
X106845Y-61136D01*
X107155Y-61136D01*
X110393Y-61302D02*
X110393Y-60802D01*
X110512Y-60802D01*
X110584Y-60826D01*
X110631Y-60874D01*
X110655Y-60921D01*
X110679Y-61017D01*
X110679Y-61088D01*
X110655Y-61183D01*
X110631Y-61231D01*
X110584Y-61279D01*
X110512Y-61302D01*
X110393Y-61302D01*
X110869Y-60850D02*
X110893Y-60826D01*
X110941Y-60802D01*
X111060Y-60802D01*
X111107Y-60826D01*
X111131Y-60850D01*
X111155Y-60898D01*
X111155Y-60945D01*
X111131Y-61017D01*
X110845Y-61302D01*
X111155Y-61302D01*
X111607Y-60802D02*
X111369Y-60802D01*
X111345Y-61040D01*
X111369Y-61017D01*
X111417Y-60993D01*
X111536Y-60993D01*
X111583Y-61017D01*
X111607Y-61040D01*
X111631Y-61088D01*
X111631Y-61207D01*
X111607Y-61255D01*
X111583Y-61279D01*
X111536Y-61302D01*
X111417Y-61302D01*
X111369Y-61279D01*
X111345Y-61255D01*
X110393Y-52702D02*
X110393Y-52202D01*
X110512Y-52202D01*
X110584Y-52226D01*
X110631Y-52274D01*
X110655Y-52321D01*
X110679Y-52417D01*
X110679Y-52488D01*
X110655Y-52583D01*
X110631Y-52631D01*
X110584Y-52679D01*
X110512Y-52702D01*
X110393Y-52702D01*
X110869Y-52250D02*
X110893Y-52226D01*
X110941Y-52202D01*
X111060Y-52202D01*
X111107Y-52226D01*
X111131Y-52250D01*
X111155Y-52298D01*
X111155Y-52345D01*
X111131Y-52417D01*
X110845Y-52702D01*
X111155Y-52702D01*
X111583Y-52202D02*
X111488Y-52202D01*
X111440Y-52226D01*
X111417Y-52250D01*
X111369Y-52321D01*
X111345Y-52417D01*
X111345Y-52607D01*
X111369Y-52655D01*
X111393Y-52679D01*
X111440Y-52702D01*
X111536Y-52702D01*
X111583Y-52679D01*
X111607Y-52655D01*
X111631Y-52607D01*
X111631Y-52488D01*
X111607Y-52440D01*
X111583Y-52417D01*
X111536Y-52393D01*
X111440Y-52393D01*
X111393Y-52417D01*
X111369Y-52440D01*
X111345Y-52488D01*
X114993Y-52702D02*
X114993Y-52202D01*
X115112Y-52202D01*
X115184Y-52226D01*
X115231Y-52274D01*
X115255Y-52321D01*
X115279Y-52417D01*
X115279Y-52488D01*
X115255Y-52583D01*
X115231Y-52631D01*
X115184Y-52679D01*
X115112Y-52702D01*
X114993Y-52702D01*
X115469Y-52250D02*
X115493Y-52226D01*
X115541Y-52202D01*
X115660Y-52202D01*
X115707Y-52226D01*
X115731Y-52250D01*
X115755Y-52298D01*
X115755Y-52345D01*
X115731Y-52417D01*
X115445Y-52702D01*
X115755Y-52702D01*
X115921Y-52202D02*
X116255Y-52202D01*
X116040Y-52702D01*
X114993Y-61302D02*
X114993Y-60802D01*
X115112Y-60802D01*
X115184Y-60826D01*
X115231Y-60874D01*
X115255Y-60921D01*
X115279Y-61017D01*
X115279Y-61088D01*
X115255Y-61183D01*
X115231Y-61231D01*
X115184Y-61279D01*
X115112Y-61302D01*
X114993Y-61302D01*
X115469Y-60850D02*
X115493Y-60826D01*
X115541Y-60802D01*
X115660Y-60802D01*
X115707Y-60826D01*
X115731Y-60850D01*
X115755Y-60898D01*
X115755Y-60945D01*
X115731Y-61017D01*
X115445Y-61302D01*
X115755Y-61302D01*
X116040Y-61017D02*
X115993Y-60993D01*
X115969Y-60969D01*
X115945Y-60921D01*
X115945Y-60898D01*
X115969Y-60850D01*
X115993Y-60826D01*
X116040Y-60802D01*
X116136Y-60802D01*
X116183Y-60826D01*
X116207Y-60850D01*
X116231Y-60898D01*
X116231Y-60921D01*
X116207Y-60969D01*
X116183Y-60993D01*
X116136Y-61017D01*
X116040Y-61017D01*
X115993Y-61040D01*
X115969Y-61064D01*
X115945Y-61112D01*
X115945Y-61207D01*
X115969Y-61255D01*
X115993Y-61279D01*
X116040Y-61302D01*
X116136Y-61302D01*
X116183Y-61279D01*
X116207Y-61255D01*
X116231Y-61207D01*
X116231Y-61112D01*
X116207Y-61064D01*
X116183Y-61040D01*
X116136Y-61017D01*
X119393Y-61302D02*
X119393Y-60802D01*
X119512Y-60802D01*
X119584Y-60826D01*
X119631Y-60874D01*
X119655Y-60921D01*
X119679Y-61017D01*
X119679Y-61088D01*
X119655Y-61183D01*
X119631Y-61231D01*
X119584Y-61279D01*
X119512Y-61302D01*
X119393Y-61302D01*
X119869Y-60850D02*
X119893Y-60826D01*
X119941Y-60802D01*
X120060Y-60802D01*
X120107Y-60826D01*
X120131Y-60850D01*
X120155Y-60898D01*
X120155Y-60945D01*
X120131Y-61017D01*
X119845Y-61302D01*
X120155Y-61302D01*
X120393Y-61302D02*
X120488Y-61302D01*
X120536Y-61279D01*
X120560Y-61255D01*
X120607Y-61183D01*
X120631Y-61088D01*
X120631Y-60898D01*
X120607Y-60850D01*
X120583Y-60826D01*
X120536Y-60802D01*
X120440Y-60802D01*
X120393Y-60826D01*
X120369Y-60850D01*
X120345Y-60898D01*
X120345Y-61017D01*
X120369Y-61064D01*
X120393Y-61088D01*
X120440Y-61112D01*
X120536Y-61112D01*
X120583Y-61088D01*
X120607Y-61064D01*
X120631Y-61017D01*
X119393Y-52702D02*
X119393Y-52202D01*
X119512Y-52202D01*
X119584Y-52226D01*
X119631Y-52274D01*
X119655Y-52321D01*
X119679Y-52417D01*
X119679Y-52488D01*
X119655Y-52583D01*
X119631Y-52631D01*
X119584Y-52679D01*
X119512Y-52702D01*
X119393Y-52702D01*
X119845Y-52202D02*
X120155Y-52202D01*
X119988Y-52393D01*
X120060Y-52393D01*
X120107Y-52417D01*
X120131Y-52440D01*
X120155Y-52488D01*
X120155Y-52607D01*
X120131Y-52655D01*
X120107Y-52679D01*
X120060Y-52702D01*
X119917Y-52702D01*
X119869Y-52679D01*
X119845Y-52655D01*
X120464Y-52202D02*
X120512Y-52202D01*
X120560Y-52226D01*
X120583Y-52250D01*
X120607Y-52298D01*
X120631Y-52393D01*
X120631Y-52512D01*
X120607Y-52607D01*
X120583Y-52655D01*
X120560Y-52679D01*
X120512Y-52702D01*
X120464Y-52702D01*
X120417Y-52679D01*
X120393Y-52655D01*
X120369Y-52607D01*
X120345Y-52512D01*
X120345Y-52393D01*
X120369Y-52298D01*
X120393Y-52250D01*
X120417Y-52226D01*
X120464Y-52202D01*
X123893Y-52702D02*
X123893Y-52202D01*
X124012Y-52202D01*
X124084Y-52226D01*
X124131Y-52274D01*
X124155Y-52321D01*
X124179Y-52417D01*
X124179Y-52488D01*
X124155Y-52583D01*
X124131Y-52631D01*
X124084Y-52679D01*
X124012Y-52702D01*
X123893Y-52702D01*
X124345Y-52202D02*
X124655Y-52202D01*
X124488Y-52393D01*
X124560Y-52393D01*
X124607Y-52417D01*
X124631Y-52440D01*
X124655Y-52488D01*
X124655Y-52607D01*
X124631Y-52655D01*
X124607Y-52679D01*
X124560Y-52702D01*
X124417Y-52702D01*
X124369Y-52679D01*
X124345Y-52655D01*
X125131Y-52702D02*
X124845Y-52702D01*
X124988Y-52702D02*
X124988Y-52202D01*
X124940Y-52274D01*
X124893Y-52321D01*
X124845Y-52345D01*
X123893Y-61302D02*
X123893Y-60802D01*
X124012Y-60802D01*
X124084Y-60826D01*
X124131Y-60874D01*
X124155Y-60921D01*
X124179Y-61017D01*
X124179Y-61088D01*
X124155Y-61183D01*
X124131Y-61231D01*
X124084Y-61279D01*
X124012Y-61302D01*
X123893Y-61302D01*
X124345Y-60802D02*
X124655Y-60802D01*
X124488Y-60993D01*
X124560Y-60993D01*
X124607Y-61017D01*
X124631Y-61040D01*
X124655Y-61088D01*
X124655Y-61207D01*
X124631Y-61255D01*
X124607Y-61279D01*
X124560Y-61302D01*
X124417Y-61302D01*
X124369Y-61279D01*
X124345Y-61255D01*
X124845Y-60850D02*
X124869Y-60826D01*
X124917Y-60802D01*
X125036Y-60802D01*
X125083Y-60826D01*
X125107Y-60850D01*
X125131Y-60898D01*
X125131Y-60945D01*
X125107Y-61017D01*
X124821Y-61302D01*
X125131Y-61302D01*
X131993Y-62802D02*
X131993Y-62302D01*
X132112Y-62302D01*
X132184Y-62326D01*
X132231Y-62374D01*
X132255Y-62421D01*
X132279Y-62517D01*
X132279Y-62588D01*
X132255Y-62683D01*
X132231Y-62731D01*
X132184Y-62779D01*
X132112Y-62802D01*
X131993Y-62802D01*
X132469Y-62779D02*
X132541Y-62802D01*
X132660Y-62802D01*
X132707Y-62779D01*
X132731Y-62755D01*
X132755Y-62707D01*
X132755Y-62660D01*
X132731Y-62612D01*
X132707Y-62588D01*
X132660Y-62564D01*
X132564Y-62540D01*
X132517Y-62517D01*
X132493Y-62493D01*
X132469Y-62445D01*
X132469Y-62398D01*
X132493Y-62350D01*
X132517Y-62326D01*
X132564Y-62302D01*
X132684Y-62302D01*
X132755Y-62326D01*
X132945Y-62350D02*
X132969Y-62326D01*
X133017Y-62302D01*
X133136Y-62302D01*
X133183Y-62326D01*
X133207Y-62350D01*
X133231Y-62398D01*
X133231Y-62445D01*
X133207Y-62517D01*
X132921Y-62802D01*
X133231Y-62802D01*
X30893Y-62802D02*
X30893Y-62302D01*
X31012Y-62302D01*
X31084Y-62326D01*
X31131Y-62374D01*
X31155Y-62421D01*
X31179Y-62517D01*
X31179Y-62588D01*
X31155Y-62683D01*
X31131Y-62731D01*
X31084Y-62779D01*
X31012Y-62802D01*
X30893Y-62802D01*
X31369Y-62779D02*
X31441Y-62802D01*
X31560Y-62802D01*
X31607Y-62779D01*
X31631Y-62755D01*
X31655Y-62707D01*
X31655Y-62660D01*
X31631Y-62612D01*
X31607Y-62588D01*
X31560Y-62564D01*
X31464Y-62540D01*
X31417Y-62517D01*
X31393Y-62493D01*
X31369Y-62445D01*
X31369Y-62398D01*
X31393Y-62350D01*
X31417Y-62326D01*
X31464Y-62302D01*
X31584Y-62302D01*
X31655Y-62326D01*
X32131Y-62802D02*
X31845Y-62802D01*
X31988Y-62802D02*
X31988Y-62302D01*
X31940Y-62374D01*
X31893Y-62421D01*
X31845Y-62445D01*
G54D20*
X85313Y-52529D02*
X85180Y-52589D01*
X85313Y-52632D02*
X85033Y-52632D01*
X85033Y-52564D01*
X85047Y-52546D01*
X85060Y-52538D01*
X85087Y-52529D01*
X85127Y-52529D01*
X85153Y-52538D01*
X85167Y-52546D01*
X85180Y-52564D01*
X85180Y-52632D01*
X85313Y-52358D02*
X85313Y-52461D01*
X85313Y-52409D02*
X85033Y-52409D01*
X85073Y-52426D01*
X85100Y-52444D01*
X85113Y-52461D01*
X73671Y-55513D02*
X73611Y-55380D01*
X73568Y-55513D02*
X73568Y-55233D01*
X73636Y-55233D01*
X73654Y-55247D01*
X73662Y-55260D01*
X73671Y-55287D01*
X73671Y-55327D01*
X73662Y-55353D01*
X73654Y-55367D01*
X73636Y-55380D01*
X73568Y-55380D01*
X73731Y-55233D02*
X73842Y-55233D01*
X73782Y-55340D01*
X73808Y-55340D01*
X73825Y-55353D01*
X73834Y-55367D01*
X73842Y-55393D01*
X73842Y-55460D01*
X73834Y-55487D01*
X73825Y-55500D01*
X73808Y-55513D01*
X73756Y-55513D01*
X73739Y-55500D01*
X73731Y-55487D01*
X73671Y-58113D02*
X73611Y-57980D01*
X73568Y-58113D02*
X73568Y-57833D01*
X73636Y-57833D01*
X73654Y-57847D01*
X73662Y-57860D01*
X73671Y-57887D01*
X73671Y-57927D01*
X73662Y-57953D01*
X73654Y-57967D01*
X73636Y-57980D01*
X73568Y-57980D01*
X73825Y-57833D02*
X73791Y-57833D01*
X73774Y-57847D01*
X73765Y-57860D01*
X73748Y-57900D01*
X73739Y-57953D01*
X73739Y-58060D01*
X73748Y-58087D01*
X73756Y-58100D01*
X73774Y-58113D01*
X73808Y-58113D01*
X73825Y-58100D01*
X73834Y-58087D01*
X73842Y-58060D01*
X73842Y-57993D01*
X73834Y-57967D01*
X73825Y-57953D01*
X73808Y-57940D01*
X73774Y-57940D01*
X73756Y-57953D01*
X73748Y-57967D01*
X73739Y-57993D01*
X73671Y-59113D02*
X73611Y-58980D01*
X73568Y-59113D02*
X73568Y-58833D01*
X73636Y-58833D01*
X73654Y-58847D01*
X73662Y-58860D01*
X73671Y-58887D01*
X73671Y-58927D01*
X73662Y-58953D01*
X73654Y-58967D01*
X73636Y-58980D01*
X73568Y-58980D01*
X73774Y-58953D02*
X73756Y-58940D01*
X73748Y-58927D01*
X73739Y-58900D01*
X73739Y-58887D01*
X73748Y-58860D01*
X73756Y-58847D01*
X73774Y-58833D01*
X73808Y-58833D01*
X73825Y-58847D01*
X73834Y-58860D01*
X73842Y-58887D01*
X73842Y-58900D01*
X73834Y-58927D01*
X73825Y-58940D01*
X73808Y-58953D01*
X73774Y-58953D01*
X73756Y-58967D01*
X73748Y-58980D01*
X73739Y-59007D01*
X73739Y-59060D01*
X73748Y-59087D01*
X73756Y-59100D01*
X73774Y-59113D01*
X73808Y-59113D01*
X73825Y-59100D01*
X73834Y-59087D01*
X73842Y-59060D01*
X73842Y-59007D01*
X73834Y-58980D01*
X73825Y-58967D01*
X73808Y-58953D01*
X79471Y-59613D02*
X79411Y-59480D01*
X79368Y-59613D02*
X79368Y-59333D01*
X79436Y-59333D01*
X79454Y-59347D01*
X79462Y-59360D01*
X79471Y-59387D01*
X79471Y-59427D01*
X79462Y-59453D01*
X79454Y-59467D01*
X79436Y-59480D01*
X79368Y-59480D01*
X79556Y-59613D02*
X79591Y-59613D01*
X79608Y-59600D01*
X79616Y-59587D01*
X79634Y-59547D01*
X79642Y-59493D01*
X79642Y-59387D01*
X79634Y-59360D01*
X79625Y-59347D01*
X79608Y-59333D01*
X79574Y-59333D01*
X79556Y-59347D01*
X79548Y-59360D01*
X79539Y-59387D01*
X79539Y-59453D01*
X79548Y-59480D01*
X79556Y-59493D01*
X79574Y-59507D01*
X79608Y-59507D01*
X79625Y-59493D01*
X79634Y-59480D01*
X79642Y-59453D01*
X79585Y-58613D02*
X79525Y-58480D01*
X79482Y-58613D02*
X79482Y-58333D01*
X79550Y-58333D01*
X79568Y-58347D01*
X79576Y-58360D01*
X79585Y-58387D01*
X79585Y-58427D01*
X79576Y-58453D01*
X79568Y-58467D01*
X79550Y-58480D01*
X79482Y-58480D01*
X79756Y-58613D02*
X79653Y-58613D01*
X79705Y-58613D02*
X79705Y-58333D01*
X79688Y-58373D01*
X79670Y-58400D01*
X79653Y-58413D01*
X79927Y-58613D02*
X79824Y-58613D01*
X79876Y-58613D02*
X79876Y-58333D01*
X79859Y-58373D01*
X79841Y-58400D01*
X79824Y-58413D01*
X79385Y-57513D02*
X79325Y-57380D01*
X79282Y-57513D02*
X79282Y-57233D01*
X79350Y-57233D01*
X79368Y-57247D01*
X79376Y-57260D01*
X79385Y-57287D01*
X79385Y-57327D01*
X79376Y-57353D01*
X79368Y-57367D01*
X79350Y-57380D01*
X79282Y-57380D01*
X79556Y-57513D02*
X79453Y-57513D01*
X79505Y-57513D02*
X79505Y-57233D01*
X79488Y-57273D01*
X79470Y-57300D01*
X79453Y-57313D01*
X79616Y-57233D02*
X79727Y-57233D01*
X79667Y-57340D01*
X79693Y-57340D01*
X79710Y-57353D01*
X79719Y-57367D01*
X79727Y-57393D01*
X79727Y-57460D01*
X79719Y-57487D01*
X79710Y-57500D01*
X79693Y-57513D01*
X79641Y-57513D01*
X79624Y-57500D01*
X79616Y-57487D01*
X79385Y-56513D02*
X79325Y-56380D01*
X79282Y-56513D02*
X79282Y-56233D01*
X79350Y-56233D01*
X79368Y-56247D01*
X79376Y-56260D01*
X79385Y-56287D01*
X79385Y-56327D01*
X79376Y-56353D01*
X79368Y-56367D01*
X79350Y-56380D01*
X79282Y-56380D01*
X79556Y-56513D02*
X79453Y-56513D01*
X79505Y-56513D02*
X79505Y-56233D01*
X79488Y-56273D01*
X79470Y-56300D01*
X79453Y-56313D01*
X79719Y-56233D02*
X79633Y-56233D01*
X79624Y-56367D01*
X79633Y-56353D01*
X79650Y-56340D01*
X79693Y-56340D01*
X79710Y-56353D01*
X79719Y-56367D01*
X79727Y-56393D01*
X79727Y-56460D01*
X79719Y-56487D01*
X79710Y-56500D01*
X79693Y-56513D01*
X79650Y-56513D01*
X79633Y-56500D01*
X79624Y-56487D01*
X79385Y-55513D02*
X79325Y-55380D01*
X79282Y-55513D02*
X79282Y-55233D01*
X79350Y-55233D01*
X79368Y-55247D01*
X79376Y-55260D01*
X79385Y-55287D01*
X79385Y-55327D01*
X79376Y-55353D01*
X79368Y-55367D01*
X79350Y-55380D01*
X79282Y-55380D01*
X79556Y-55513D02*
X79453Y-55513D01*
X79505Y-55513D02*
X79505Y-55233D01*
X79488Y-55273D01*
X79470Y-55300D01*
X79453Y-55313D01*
X79616Y-55233D02*
X79736Y-55233D01*
X79659Y-55513D01*
X79185Y-54513D02*
X79125Y-54380D01*
X79082Y-54513D02*
X79082Y-54233D01*
X79150Y-54233D01*
X79168Y-54247D01*
X79176Y-54260D01*
X79185Y-54287D01*
X79185Y-54327D01*
X79176Y-54353D01*
X79168Y-54367D01*
X79150Y-54380D01*
X79082Y-54380D01*
X79356Y-54513D02*
X79253Y-54513D01*
X79305Y-54513D02*
X79305Y-54233D01*
X79288Y-54273D01*
X79270Y-54300D01*
X79253Y-54313D01*
X79459Y-54353D02*
X79441Y-54340D01*
X79433Y-54327D01*
X79424Y-54300D01*
X79424Y-54287D01*
X79433Y-54260D01*
X79441Y-54247D01*
X79459Y-54233D01*
X79493Y-54233D01*
X79510Y-54247D01*
X79519Y-54260D01*
X79527Y-54287D01*
X79527Y-54300D01*
X79519Y-54327D01*
X79510Y-54340D01*
X79493Y-54353D01*
X79459Y-54353D01*
X79441Y-54367D01*
X79433Y-54380D01*
X79424Y-54407D01*
X79424Y-54460D01*
X79433Y-54487D01*
X79441Y-54500D01*
X79459Y-54513D01*
X79493Y-54513D01*
X79510Y-54500D01*
X79519Y-54487D01*
X79527Y-54460D01*
X79527Y-54407D01*
X79519Y-54380D01*
X79510Y-54367D01*
X79493Y-54353D01*
G54D12*
X129503Y-51802D02*
X129336Y-51564D01*
X129217Y-51802D02*
X129217Y-51302D01*
X129408Y-51302D01*
X129455Y-51326D01*
X129479Y-51350D01*
X129503Y-51398D01*
X129503Y-51469D01*
X129479Y-51517D01*
X129455Y-51540D01*
X129408Y-51564D01*
X129217Y-51564D01*
X130074Y-51279D02*
X129646Y-51921D01*
X130170Y-51302D02*
X130455Y-51302D01*
X130312Y-51802D02*
X130312Y-51302D01*
X130503Y-51850D02*
X130884Y-51850D01*
X131074Y-51802D02*
X131027Y-51779D01*
X131003Y-51731D01*
X131003Y-51302D01*
X131336Y-51802D02*
X131289Y-51779D01*
X131265Y-51755D01*
X131241Y-51707D01*
X131241Y-51564D01*
X131265Y-51517D01*
X131289Y-51493D01*
X131336Y-51469D01*
X131408Y-51469D01*
X131456Y-51493D01*
X131479Y-51517D01*
X131503Y-51564D01*
X131503Y-51707D01*
X131479Y-51755D01*
X131456Y-51779D01*
X131408Y-51802D01*
X131336Y-51802D01*
X131788Y-51802D02*
X131741Y-51779D01*
X131717Y-51755D01*
X131693Y-51707D01*
X131693Y-51564D01*
X131717Y-51517D01*
X131741Y-51493D01*
X131788Y-51469D01*
X131860Y-51469D01*
X131908Y-51493D01*
X131931Y-51517D01*
X131955Y-51564D01*
X131955Y-51707D01*
X131931Y-51755D01*
X131908Y-51779D01*
X131860Y-51802D01*
X131788Y-51802D01*
X132169Y-51469D02*
X132169Y-51969D01*
X132169Y-51493D02*
X132217Y-51469D01*
X132312Y-51469D01*
X132360Y-51493D01*
X132383Y-51517D01*
X132407Y-51564D01*
X132407Y-51707D01*
X132383Y-51755D01*
X132360Y-51779D01*
X132312Y-51802D01*
X132217Y-51802D01*
X132169Y-51779D01*
%LPC*%
G54D21*
X129300Y-57700D03*
G54D22*
X129300Y-55700D03*
G54D21*
X34800Y-57700D03*
G54D22*
X34800Y-55700D03*
G54D23*
X30000Y-53200D03*
G54D24*
X31000Y-53200D03*
X30000Y-54200D03*
X31000Y-54200D03*
X30000Y-55200D03*
X31000Y-55200D03*
X30000Y-56200D03*
X31000Y-56200D03*
X30000Y-57200D03*
X31000Y-57200D03*
X30000Y-58200D03*
X31000Y-58200D03*
X30000Y-59200D03*
X31000Y-59200D03*
X30000Y-60200D03*
X31000Y-60200D03*
G54D23*
X133100Y-53200D03*
G54D24*
X134100Y-53200D03*
X133100Y-54200D03*
X134100Y-54200D03*
X133100Y-55200D03*
X134100Y-55200D03*
X133100Y-56200D03*
X134100Y-56200D03*
X133100Y-57200D03*
X134100Y-57200D03*
X133100Y-58200D03*
X134100Y-58200D03*
X133100Y-59200D03*
X134100Y-59200D03*
X133100Y-60200D03*
X134100Y-60200D03*
G54D25*
X56500Y-58000D03*
G54D26*
X56500Y-60000D03*
X58500Y-60000D03*
X58500Y-58000D03*
G54D25*
X56500Y-53500D03*
G54D26*
X56500Y-55500D03*
X58500Y-55500D03*
X58500Y-53500D03*
G54D25*
X38500Y-53500D03*
G54D26*
X38500Y-55500D03*
X40500Y-55500D03*
X40500Y-53500D03*
G54D25*
X38500Y-58000D03*
G54D26*
X38500Y-60000D03*
X40500Y-60000D03*
X40500Y-58000D03*
G54D25*
X45000Y-55500D03*
G54D26*
X45000Y-53500D03*
X43000Y-53500D03*
X43000Y-55500D03*
G54D25*
X45000Y-60000D03*
G54D26*
X45000Y-58000D03*
X43000Y-58000D03*
X43000Y-60000D03*
G54D23*
X83100Y-55000D03*
G54D24*
X83100Y-56000D03*
X82100Y-55000D03*
X82100Y-56000D03*
X81100Y-55000D03*
X81100Y-56000D03*
X86100Y-51575D03*
X88650Y-51575D03*
X86100Y-53325D03*
X88650Y-53325D03*
X80700Y-51575D03*
X83250Y-51575D03*
X80700Y-53325D03*
X83250Y-53325D03*
X75300Y-51575D03*
X77850Y-51575D03*
X75300Y-53325D03*
X77850Y-53325D03*
G54D27*
X79800Y-52400D03*
G54D28*
X78800Y-52400D03*
G54D29*
X82626Y-57700D03*
X83374Y-57700D03*
G54D30*
X84300Y-52774D03*
X84300Y-52026D03*
G54D31*
X90000Y-56251D03*
X90000Y-55149D03*
X85600Y-56251D03*
X85600Y-55149D03*
G54D32*
X81651Y-57700D03*
X80549Y-57700D03*
G54D31*
X84600Y-55149D03*
X84600Y-56251D03*
G54D26*
X89100Y-60100D03*
X85100Y-59100D03*
X89100Y-58100D03*
G54D33*
X80977Y-58850D03*
X80977Y-59350D03*
X80977Y-59850D03*
X80977Y-60350D03*
X80977Y-60850D03*
X80977Y-61350D03*
X80977Y-61850D03*
X80977Y-62350D03*
X83023Y-62350D03*
X83023Y-61850D03*
X83023Y-61350D03*
X83023Y-60850D03*
X83023Y-60350D03*
X83023Y-59850D03*
X83023Y-59350D03*
X83023Y-58850D03*
G54D34*
X36500Y-52000D03*
G54D33*
X88823Y-56450D03*
X88823Y-55950D03*
X88823Y-55450D03*
X88823Y-54950D03*
X86777Y-54950D03*
X86777Y-55450D03*
X86777Y-55950D03*
X86777Y-56450D03*
G54D34*
X127500Y-61500D03*
X127500Y-52000D03*
X95500Y-61500D03*
X95500Y-52000D03*
X68500Y-61500D03*
X68500Y-52000D03*
X36500Y-61500D03*
G54D33*
X74789Y-55350D03*
X74789Y-55850D03*
X74789Y-56350D03*
X74789Y-56850D03*
X74789Y-57350D03*
X74789Y-57850D03*
X74789Y-58350D03*
X74789Y-58850D03*
X74789Y-59350D03*
X74789Y-59850D03*
X78411Y-59850D03*
X78411Y-59350D03*
X78411Y-58850D03*
X78411Y-58350D03*
X78411Y-57850D03*
X78411Y-57350D03*
X78411Y-56850D03*
X78411Y-56350D03*
X78411Y-55850D03*
X78411Y-55350D03*
G54D25*
X47500Y-58000D03*
G54D26*
X47500Y-60000D03*
X49500Y-60000D03*
X49500Y-58000D03*
G54D25*
X47500Y-53500D03*
G54D26*
X47500Y-55500D03*
X49500Y-55500D03*
X49500Y-53500D03*
G54D25*
X54000Y-55500D03*
G54D26*
X54000Y-53500D03*
X52000Y-53500D03*
X52000Y-55500D03*
G54D25*
X54000Y-60000D03*
G54D26*
X54000Y-58000D03*
X52000Y-58000D03*
X52000Y-60000D03*
G54D25*
X63000Y-55500D03*
G54D26*
X63000Y-53500D03*
X61000Y-53500D03*
X61000Y-55500D03*
G54D25*
X63000Y-60000D03*
G54D26*
X63000Y-58000D03*
X61000Y-58000D03*
X61000Y-60000D03*
G54D25*
X65500Y-58000D03*
G54D26*
X65500Y-60000D03*
X67500Y-60000D03*
X67500Y-58000D03*
G54D25*
X65500Y-53500D03*
G54D26*
X65500Y-55500D03*
X67500Y-55500D03*
X67500Y-53500D03*
G54D25*
X72000Y-55500D03*
G54D26*
X72000Y-53500D03*
X70000Y-53500D03*
X70000Y-55500D03*
G54D25*
X72000Y-60000D03*
G54D26*
X72000Y-58000D03*
X70000Y-58000D03*
X70000Y-60000D03*
G54D25*
X92000Y-58000D03*
G54D26*
X92000Y-60000D03*
X94000Y-60000D03*
X94000Y-58000D03*
G54D25*
X92000Y-53500D03*
G54D26*
X92000Y-55500D03*
X94000Y-55500D03*
X94000Y-53500D03*
G54D25*
X98500Y-55500D03*
G54D26*
X98500Y-53500D03*
X96500Y-53500D03*
X96500Y-55500D03*
G54D25*
X98500Y-60000D03*
G54D26*
X98500Y-58000D03*
X96500Y-58000D03*
X96500Y-60000D03*
G54D25*
X100900Y-58000D03*
G54D26*
X100900Y-60000D03*
X102900Y-60000D03*
X102900Y-58000D03*
G54D25*
X100900Y-53500D03*
G54D26*
X100900Y-55500D03*
X102900Y-55500D03*
X102900Y-53500D03*
G54D25*
X107500Y-55500D03*
G54D26*
X107500Y-53500D03*
X105500Y-53500D03*
X105500Y-55500D03*
G54D25*
X107500Y-60000D03*
G54D26*
X107500Y-58000D03*
X105500Y-58000D03*
X105500Y-60000D03*
G54D25*
X110000Y-58000D03*
G54D26*
X110000Y-60000D03*
X112000Y-60000D03*
X112000Y-58000D03*
G54D25*
X110000Y-53500D03*
G54D26*
X110000Y-55500D03*
X112000Y-55500D03*
X112000Y-53500D03*
G54D25*
X116600Y-55500D03*
G54D26*
X116600Y-53500D03*
X114600Y-53500D03*
X114600Y-55500D03*
G54D25*
X116600Y-60000D03*
G54D26*
X116600Y-58000D03*
X114600Y-58000D03*
X114600Y-60000D03*
G54D25*
X119000Y-58000D03*
G54D26*
X119000Y-60000D03*
X121000Y-60000D03*
X121000Y-58000D03*
G54D25*
X119000Y-53500D03*
G54D26*
X119000Y-55500D03*
X121000Y-55500D03*
X121000Y-53500D03*
G54D25*
X125500Y-55500D03*
G54D26*
X125500Y-53500D03*
X123500Y-53500D03*
X123500Y-55500D03*
G54D25*
X125500Y-60000D03*
G54D26*
X125500Y-58000D03*
X123500Y-58000D03*
X123500Y-60000D03*
G54D27*
X134100Y-61700D03*
G54D28*
X131100Y-61700D03*
G54D27*
X30000Y-61700D03*
G54D28*
X33000Y-61700D03*
G54D35*
X85200Y-52800D03*
X85200Y-52200D03*
G54D36*
X73400Y-55800D03*
X74000Y-55800D03*
X73400Y-58400D03*
X74000Y-58400D03*
X73400Y-59400D03*
X74000Y-59400D03*
X79800Y-59900D03*
X79200Y-59900D03*
X79800Y-58900D03*
X79200Y-58900D03*
X79800Y-57800D03*
X79200Y-57800D03*
X79800Y-56800D03*
X79200Y-56800D03*
X79800Y-55800D03*
X79200Y-55800D03*
X79000Y-53900D03*
X79600Y-53900D03*
G54D23*
X133100Y-51600D03*
G54D24*
X134100Y-51600D03*
M02*
