G04 (created by PCBNEW-RS274X (2010-04-21 BZR 23xx)-stable) date Tue 15 Mar 2011 06:31:09 AM CET*
G01*
G70*
G90*
%MOIN*%
G04 Gerber Fmt 3.4, Leading zero omitted, Abs format*
%FSLAX34Y34*%
G04 APERTURE LIST*
%ADD10C,0.006000*%
%ADD11C,0.015000*%
%ADD12R,0.060000X0.060000*%
%ADD13C,0.060000*%
%ADD14C,0.100000*%
%ADD15O,0.052000X0.104000*%
%ADD16R,0.059000X0.051100*%
%ADD17R,0.051100X0.059000*%
%ADD18R,0.055000X0.055000*%
%ADD19C,0.055000*%
%ADD20R,0.070800X0.062900*%
%ADD21R,0.062900X0.070800*%
%ADD22R,0.078700X0.031400*%
%ADD23C,0.080000*%
%ADD24R,0.086600X0.023600*%
%ADD25R,0.023600X0.086600*%
%ADD26C,0.160000*%
%ADD27C,0.035000*%
%ADD28C,0.012000*%
%ADD29C,0.028000*%
%ADD30C,0.080000*%
%ADD31C,0.031200*%
%ADD32C,0.023400*%
%ADD33C,0.050800*%
%ADD34C,0.010000*%
G04 APERTURE END LIST*
G54D10*
G54D11*
X08000Y-11500D02*
X108000Y-11500D01*
X08000Y-24000D02*
X08000Y-11500D01*
X09000Y-24000D02*
X08000Y-24000D01*
X108000Y-24000D02*
X107000Y-24000D01*
X108000Y-11500D02*
X108000Y-24000D01*
X107000Y-24000D02*
X09000Y-24000D01*
G54D12*
X61500Y-16500D03*
G54D13*
X61500Y-17500D03*
X60500Y-16500D03*
X60500Y-17500D03*
X59500Y-16500D03*
X59500Y-17500D03*
G54D14*
X44000Y-21000D03*
X44000Y-19000D03*
X12500Y-19000D03*
X12500Y-21000D03*
X12500Y-14500D03*
X12500Y-16500D03*
X17000Y-16500D03*
X17000Y-14500D03*
X17000Y-21000D03*
X17000Y-19000D03*
X21500Y-19000D03*
X21500Y-21000D03*
X21500Y-14500D03*
X21500Y-16500D03*
X26000Y-16500D03*
X26000Y-14500D03*
X26000Y-21000D03*
X26000Y-19000D03*
X30500Y-19000D03*
X30500Y-21000D03*
X30500Y-14500D03*
X30500Y-16500D03*
X35000Y-16500D03*
X35000Y-14500D03*
X35000Y-21000D03*
X35000Y-19000D03*
X39500Y-19000D03*
X39500Y-21000D03*
X39500Y-14500D03*
X39500Y-16500D03*
X44000Y-16500D03*
X44000Y-14500D03*
G54D15*
X67484Y-20800D03*
X66500Y-20800D03*
X65516Y-20800D03*
G54D16*
X51000Y-13774D03*
X51000Y-13026D03*
X52100Y-13026D03*
X52100Y-13774D03*
X53200Y-13026D03*
X53200Y-13774D03*
X54300Y-13774D03*
X54300Y-13026D03*
X49900Y-13774D03*
X49900Y-13026D03*
X48800Y-13026D03*
X48800Y-13774D03*
X46600Y-13026D03*
X46600Y-13774D03*
X47700Y-13774D03*
X47700Y-13026D03*
G54D17*
X67574Y-13600D03*
X66826Y-13600D03*
G54D13*
X62700Y-12575D03*
X65250Y-12575D03*
X62700Y-14325D03*
X65250Y-14325D03*
X59200Y-12575D03*
X61750Y-12575D03*
X59200Y-14325D03*
X61750Y-14325D03*
X55700Y-12575D03*
X58250Y-12575D03*
X55700Y-14325D03*
X58250Y-14325D03*
G54D16*
X57200Y-15977D03*
X57200Y-16725D03*
G54D14*
X103500Y-21000D03*
X103500Y-19000D03*
X103500Y-16500D03*
X103500Y-14500D03*
X99000Y-14500D03*
X99000Y-16500D03*
X99000Y-19000D03*
X99000Y-21000D03*
X94500Y-21000D03*
X94500Y-19000D03*
X94500Y-16500D03*
X94500Y-14500D03*
X90000Y-14500D03*
X90000Y-16500D03*
X90000Y-19000D03*
X90000Y-21000D03*
X85500Y-21000D03*
X85500Y-19000D03*
X85500Y-16500D03*
X85500Y-14500D03*
X81000Y-14500D03*
X81000Y-16500D03*
X81000Y-19000D03*
X81000Y-21000D03*
X76500Y-21000D03*
X76500Y-19000D03*
X76500Y-16500D03*
X76500Y-14500D03*
X72000Y-14500D03*
X72000Y-16500D03*
X72000Y-19000D03*
X72000Y-21000D03*
G54D18*
X55285Y-16021D03*
G54D19*
X55285Y-17021D03*
G54D16*
X63300Y-19126D03*
X63300Y-19874D03*
X63300Y-17674D03*
X63300Y-16926D03*
G54D20*
X53477Y-16939D03*
X53477Y-15837D03*
X46400Y-17551D03*
X46400Y-16449D03*
G54D21*
X55949Y-19800D03*
X57051Y-19800D03*
G54D20*
X69300Y-16649D03*
X69300Y-17751D03*
G54D22*
X51614Y-17022D03*
X51614Y-16522D03*
X51614Y-16022D03*
X51614Y-15522D03*
X47800Y-15522D03*
X47800Y-16022D03*
X47800Y-16522D03*
X47800Y-17022D03*
G54D23*
X52495Y-21720D03*
X48495Y-20720D03*
X52495Y-19720D03*
G54D24*
X59477Y-19250D03*
X59477Y-19750D03*
X59477Y-20250D03*
X59477Y-20750D03*
X59477Y-21250D03*
X59477Y-21750D03*
X59477Y-22250D03*
X59477Y-22750D03*
X61523Y-22750D03*
X61523Y-22250D03*
X61523Y-21750D03*
X61523Y-21250D03*
X61523Y-20750D03*
X61523Y-20250D03*
X61523Y-19750D03*
X61523Y-19250D03*
G54D25*
X67900Y-16277D03*
X67400Y-16277D03*
X66900Y-16277D03*
X66400Y-16277D03*
X65900Y-16277D03*
X65400Y-16277D03*
X64900Y-16277D03*
X64900Y-18323D03*
X65400Y-18323D03*
X65900Y-18323D03*
X66400Y-18323D03*
X66900Y-18323D03*
X67400Y-18323D03*
X67900Y-18323D03*
G54D12*
X09000Y-20500D03*
G54D13*
X09000Y-19500D03*
X09000Y-18500D03*
X09000Y-17500D03*
X09000Y-16500D03*
X09000Y-15500D03*
G54D12*
X107000Y-20500D03*
G54D13*
X107000Y-19500D03*
X107000Y-18500D03*
X107000Y-17500D03*
X107000Y-16500D03*
X107000Y-15500D03*
G54D26*
X106500Y-22500D03*
X09500Y-13000D03*
X09500Y-22500D03*
X106500Y-13000D03*
X74500Y-13000D03*
X41500Y-13000D03*
G54D27*
X58580Y-20233D03*
X61175Y-18642D03*
X62335Y-18312D03*
X58692Y-19740D03*
X29398Y-22684D03*
X47671Y-22965D03*
X58471Y-22704D03*
X72750Y-22931D03*
X62865Y-22385D03*
X63599Y-21118D03*
X65576Y-22207D03*
X73996Y-19672D03*
X71170Y-23236D03*
X69669Y-20264D03*
X69873Y-14132D03*
X47595Y-17928D03*
X67946Y-17256D03*
X66163Y-17496D03*
X63911Y-16628D03*
X67950Y-19210D03*
X54517Y-20541D03*
X57384Y-20498D03*
X64195Y-19637D03*
X105300Y-18912D03*
X49346Y-15947D03*
X47101Y-14755D03*
X50243Y-12427D03*
X27101Y-17035D03*
X66858Y-17341D03*
X68474Y-15337D03*
X60516Y-21980D03*
X66728Y-15157D03*
X64235Y-17092D03*
X61630Y-18588D03*
G54D28*
X58864Y-20233D02*
X58881Y-20250D01*
X58580Y-20233D02*
X58864Y-20233D01*
X59477Y-20250D02*
X58881Y-20250D01*
X61175Y-18402D02*
X61175Y-18642D01*
X61328Y-18249D02*
X61175Y-18402D01*
X61949Y-18249D02*
X61328Y-18249D01*
X61983Y-18283D02*
X61949Y-18249D01*
X61983Y-18555D02*
X61983Y-18283D01*
X62135Y-18707D02*
X61983Y-18555D01*
X64191Y-18707D02*
X62135Y-18707D01*
X64403Y-18919D02*
X64191Y-18707D01*
X65400Y-18919D02*
X64403Y-18919D01*
X65400Y-18323D02*
X65400Y-18919D01*
X62346Y-18323D02*
X62335Y-18312D01*
X64900Y-18323D02*
X62346Y-18323D01*
X58871Y-19740D02*
X58881Y-19750D01*
X58692Y-19740D02*
X58871Y-19740D01*
X59477Y-19750D02*
X58881Y-19750D01*
X65900Y-18323D02*
X65900Y-18919D01*
X64069Y-20750D02*
X65900Y-18919D01*
X61523Y-20750D02*
X64069Y-20750D01*
X65400Y-16277D02*
X65400Y-16873D01*
X59477Y-20750D02*
X60073Y-20750D01*
X60073Y-19187D02*
X60073Y-20750D01*
X61286Y-17974D02*
X60073Y-19187D01*
X62476Y-17974D02*
X61286Y-17974D01*
X62595Y-18093D02*
X62476Y-17974D01*
X64180Y-18093D02*
X62595Y-18093D01*
X65400Y-16873D02*
X64180Y-18093D01*
X64900Y-16277D02*
X64900Y-16873D01*
X61036Y-16964D02*
X60500Y-17500D01*
X62417Y-16964D02*
X61036Y-16964D01*
X63091Y-16290D02*
X62417Y-16964D01*
X64052Y-16290D02*
X63091Y-16290D01*
X64635Y-16873D02*
X64052Y-16290D01*
X64900Y-16873D02*
X64635Y-16873D01*
G54D29*
X59477Y-21250D02*
X58801Y-21250D01*
X58596Y-21045D02*
X58801Y-21250D01*
X52234Y-21045D02*
X58596Y-21045D01*
X51389Y-21890D02*
X52234Y-21045D01*
X17890Y-21890D02*
X51389Y-21890D01*
X17000Y-21000D02*
X17890Y-21890D01*
X29536Y-22546D02*
X29398Y-22684D01*
X56178Y-22546D02*
X29536Y-22546D01*
X56974Y-21750D02*
X56178Y-22546D01*
X59477Y-21750D02*
X56974Y-21750D01*
X59477Y-22250D02*
X58801Y-22250D01*
X57619Y-22965D02*
X47671Y-22965D01*
X58334Y-22250D02*
X57619Y-22965D01*
X58801Y-22250D02*
X58334Y-22250D01*
X58755Y-22704D02*
X58471Y-22704D01*
X58801Y-22750D02*
X58755Y-22704D01*
X59477Y-22750D02*
X58801Y-22750D01*
X72636Y-22817D02*
X72750Y-22931D01*
X62266Y-22817D02*
X72636Y-22817D01*
X62199Y-22750D02*
X62266Y-22817D01*
X61523Y-22750D02*
X62199Y-22750D01*
X62730Y-22250D02*
X62865Y-22385D01*
X61523Y-22250D02*
X62730Y-22250D01*
X61523Y-21750D02*
X62199Y-21750D01*
X93750Y-21750D02*
X62199Y-21750D01*
X94500Y-21000D02*
X93750Y-21750D01*
X62331Y-21118D02*
X63599Y-21118D01*
X62199Y-21250D02*
X62331Y-21118D01*
X102293Y-22207D02*
X103500Y-21000D01*
X65576Y-22207D02*
X102293Y-22207D01*
X61523Y-21250D02*
X62199Y-21250D01*
G54D28*
X08536Y-19964D02*
X09000Y-19500D01*
X08536Y-20956D02*
X08536Y-19964D01*
X08570Y-20990D02*
X08536Y-20956D01*
X09636Y-20990D02*
X08570Y-20990D01*
X12105Y-23459D02*
X09636Y-20990D01*
X70947Y-23459D02*
X12105Y-23459D01*
X71170Y-23236D02*
X70947Y-23459D01*
X106828Y-19672D02*
X73996Y-19672D01*
X107000Y-19500D02*
X106828Y-19672D01*
X67400Y-19243D02*
X67400Y-18323D01*
X67829Y-19672D02*
X67400Y-19243D01*
X73996Y-19672D02*
X67829Y-19672D01*
X66400Y-16277D02*
X66400Y-15681D01*
X66826Y-13600D02*
X66407Y-13600D01*
X66400Y-15681D02*
X66229Y-15510D01*
X66229Y-13778D02*
X66407Y-13600D01*
X66229Y-15510D02*
X66229Y-13778D01*
X60490Y-15510D02*
X59500Y-16500D01*
X66229Y-15510D02*
X60490Y-15510D01*
X47700Y-13026D02*
X46600Y-13026D01*
X09000Y-20500D02*
X09463Y-20500D01*
X47700Y-13026D02*
X48158Y-13026D01*
X51000Y-13774D02*
X50542Y-13774D01*
X48800Y-13026D02*
X48158Y-13026D01*
X48800Y-13026D02*
X48800Y-12608D01*
X107000Y-20500D02*
X106537Y-20500D01*
X51103Y-11764D02*
X50581Y-12286D01*
X67505Y-11764D02*
X51103Y-11764D01*
X69873Y-14132D02*
X67505Y-11764D01*
X50581Y-12568D02*
X50581Y-12286D01*
X50542Y-12607D02*
X50581Y-12568D01*
X50542Y-13774D02*
X50542Y-12607D01*
X49319Y-12089D02*
X48800Y-12608D01*
X50384Y-12089D02*
X49319Y-12089D01*
X50581Y-12286D02*
X50384Y-12089D01*
X69521Y-20116D02*
X69669Y-20264D01*
X67203Y-20116D02*
X69521Y-20116D01*
X66400Y-19313D02*
X67203Y-20116D01*
X66400Y-18323D02*
X66400Y-19313D01*
X106301Y-20264D02*
X106537Y-20500D01*
X69669Y-20264D02*
X106301Y-20264D01*
X10656Y-21693D02*
X09463Y-20500D01*
X15368Y-21693D02*
X10656Y-21693D01*
X19492Y-17569D02*
X15368Y-21693D01*
X26090Y-17569D02*
X19492Y-17569D01*
X30039Y-13620D02*
X26090Y-17569D01*
X39962Y-13620D02*
X30039Y-13620D01*
X40306Y-13964D02*
X39962Y-13620D01*
X42862Y-13964D02*
X40306Y-13964D01*
X43800Y-13026D02*
X42862Y-13964D01*
X46600Y-13026D02*
X43800Y-13026D01*
G54D30*
X10000Y-18500D02*
X09000Y-18500D01*
X12500Y-21000D02*
X10000Y-18500D01*
X46400Y-17551D02*
X47031Y-17551D01*
G54D31*
X47800Y-17022D02*
X47147Y-17022D01*
X47147Y-17551D02*
X47147Y-17022D01*
G54D30*
X47031Y-17551D02*
X47147Y-17551D01*
X47218Y-17551D02*
X47595Y-17928D01*
X47147Y-17551D02*
X47218Y-17551D01*
G54D28*
X67563Y-16873D02*
X67946Y-17256D01*
X67400Y-16873D02*
X67563Y-16873D01*
X67400Y-16277D02*
X67400Y-16873D01*
X66786Y-16873D02*
X66163Y-17496D01*
X66900Y-16873D02*
X66786Y-16873D01*
X66900Y-16277D02*
X66900Y-16873D01*
X51614Y-16022D02*
X51892Y-16022D01*
X51614Y-16522D02*
X52170Y-16522D01*
X53477Y-15837D02*
X52960Y-15837D01*
X52170Y-16180D02*
X52170Y-16522D01*
X52012Y-16022D02*
X52170Y-16180D01*
X51892Y-16022D02*
X52012Y-16022D01*
X52617Y-16180D02*
X52960Y-15837D01*
X52170Y-16180D02*
X52617Y-16180D01*
X54101Y-15837D02*
X53477Y-15837D01*
X55285Y-17021D02*
X54101Y-15837D01*
X63758Y-16781D02*
X63758Y-16926D01*
X63911Y-16628D02*
X63758Y-16781D01*
X63300Y-16926D02*
X63758Y-16926D01*
X68759Y-17727D02*
X68783Y-17751D01*
X67900Y-17727D02*
X68759Y-17727D01*
X67900Y-18323D02*
X67900Y-17727D01*
X67950Y-18969D02*
X67900Y-18919D01*
X67950Y-19210D02*
X67950Y-18969D01*
X67900Y-18323D02*
X67900Y-18919D01*
X69300Y-17751D02*
X69299Y-17751D01*
X69299Y-17751D02*
X68783Y-17751D01*
X57341Y-20541D02*
X54517Y-20541D01*
X57384Y-20498D02*
X57341Y-20541D01*
X58837Y-11988D02*
X58250Y-12575D01*
X61163Y-11988D02*
X58837Y-11988D01*
X61750Y-12575D02*
X61163Y-11988D01*
X69826Y-17224D02*
X69299Y-17751D01*
X69826Y-14563D02*
X69826Y-17224D01*
X67838Y-12575D02*
X69826Y-14563D01*
X65250Y-12575D02*
X67838Y-12575D01*
G54D32*
X59477Y-19250D02*
X58824Y-19250D01*
G54D31*
X47639Y-16361D02*
X47800Y-16522D01*
G54D30*
X46488Y-16361D02*
X47639Y-16361D01*
X46400Y-16449D02*
X46488Y-16361D01*
G54D31*
X47639Y-16183D02*
X47800Y-16022D01*
X47639Y-16361D02*
X47639Y-16183D01*
G54D32*
X58824Y-18821D02*
X58824Y-19250D01*
G54D30*
X57051Y-19800D02*
X57051Y-18943D01*
X63946Y-19886D02*
X63312Y-19886D01*
X64195Y-19637D02*
X63946Y-19886D01*
G54D33*
X63312Y-19886D02*
X63300Y-19874D01*
G54D30*
X105596Y-16500D02*
X107000Y-16500D01*
X105300Y-16796D02*
X105596Y-16500D01*
X105300Y-18912D02*
X105300Y-16796D01*
X57051Y-18821D02*
X57051Y-18943D01*
X58824Y-18821D02*
X57051Y-18821D01*
X51596Y-18408D02*
X49346Y-16158D01*
X56638Y-18408D02*
X51596Y-18408D01*
X57051Y-18821D02*
X56638Y-18408D01*
X49346Y-15947D02*
X49346Y-16158D01*
X49321Y-16183D02*
X47961Y-16183D01*
X49346Y-16158D02*
X49321Y-16183D01*
G54D31*
X47961Y-16183D02*
X47800Y-16022D01*
G54D29*
X90000Y-14500D02*
X94500Y-14500D01*
X99000Y-14500D02*
X103500Y-14500D01*
X103500Y-16500D02*
X103500Y-19000D01*
X85500Y-16500D02*
X85500Y-19000D01*
X81000Y-14500D02*
X85500Y-14500D01*
G54D28*
X46600Y-14254D02*
X46600Y-13774D01*
X47101Y-14755D02*
X46600Y-14254D01*
G54D29*
X76500Y-16500D02*
X76500Y-19000D01*
G54D28*
X54300Y-13026D02*
X53200Y-13026D01*
X50063Y-12607D02*
X49900Y-12607D01*
X50243Y-12427D02*
X50063Y-12607D01*
X49900Y-13026D02*
X49900Y-12607D01*
X48800Y-13774D02*
X49900Y-13774D01*
X52100Y-13026D02*
X51000Y-13026D01*
G54D29*
X72000Y-14500D02*
X76500Y-14500D01*
G54D28*
X56698Y-16021D02*
X56742Y-15977D01*
X55285Y-16021D02*
X56698Y-16021D01*
X57200Y-15977D02*
X56742Y-15977D01*
G54D29*
X26000Y-14500D02*
X21500Y-14500D01*
X26000Y-18136D02*
X27101Y-17035D01*
X26000Y-19000D02*
X26000Y-18136D01*
X44000Y-16500D02*
X44000Y-19000D01*
X44000Y-14500D02*
X39500Y-14500D01*
X39500Y-16500D02*
X39500Y-19000D01*
X35000Y-19000D02*
X35000Y-16500D01*
X35000Y-14500D02*
X30500Y-14500D01*
X30500Y-16500D02*
X30500Y-19000D01*
G54D28*
X66900Y-17383D02*
X66858Y-17341D01*
X66900Y-18323D02*
X66900Y-17383D01*
X58029Y-16725D02*
X57200Y-16725D01*
X59965Y-14789D02*
X58029Y-16725D01*
X63976Y-14789D02*
X59965Y-14789D01*
X65643Y-13122D02*
X63976Y-14789D01*
X67965Y-13122D02*
X65643Y-13122D01*
X68474Y-13631D02*
X67965Y-13122D01*
X68474Y-15337D02*
X68474Y-13631D01*
G54D29*
X17000Y-14500D02*
X12500Y-14500D01*
G54D28*
X52742Y-12639D02*
X52742Y-13774D01*
X52775Y-12606D02*
X52742Y-12639D01*
X54916Y-12606D02*
X52775Y-12606D01*
X55529Y-13219D02*
X54916Y-12606D01*
X61594Y-13219D02*
X55529Y-13219D01*
X62700Y-14325D02*
X61594Y-13219D01*
X53200Y-13774D02*
X52742Y-13774D01*
X54299Y-14193D02*
X52100Y-14193D01*
X54300Y-14192D02*
X54299Y-14193D01*
X54300Y-13774D02*
X54300Y-14192D01*
X52100Y-13774D02*
X52100Y-14193D01*
X60516Y-20160D02*
X60516Y-21980D01*
X60926Y-19750D02*
X60516Y-20160D01*
X61523Y-19750D02*
X60926Y-19750D01*
X67574Y-13600D02*
X67574Y-14058D01*
X63300Y-17674D02*
X62898Y-17674D01*
X61500Y-17674D02*
X61500Y-17500D01*
X62898Y-17674D02*
X61500Y-17674D01*
X47700Y-13774D02*
X47700Y-14192D01*
X53477Y-16939D02*
X53477Y-17416D01*
X52877Y-17022D02*
X52960Y-16939D01*
X51614Y-17022D02*
X52877Y-17022D01*
X53477Y-16939D02*
X52960Y-16939D01*
X67900Y-16277D02*
X67900Y-16197D01*
X67900Y-16197D02*
X67900Y-15681D01*
X68352Y-16649D02*
X68783Y-16649D01*
X67900Y-16197D02*
X68352Y-16649D01*
X69300Y-16649D02*
X68783Y-16649D01*
X63300Y-19126D02*
X62842Y-19126D01*
X62718Y-19250D02*
X62842Y-19126D01*
X61821Y-19250D02*
X62718Y-19250D01*
X63758Y-17569D02*
X63758Y-17674D01*
X64235Y-17092D02*
X63758Y-17569D01*
X63300Y-17674D02*
X63758Y-17674D01*
X67574Y-15157D02*
X66728Y-15157D01*
X67574Y-14058D02*
X67574Y-15157D01*
X67574Y-15355D02*
X67900Y-15681D01*
X67574Y-15157D02*
X67574Y-15355D01*
X55949Y-19800D02*
X55472Y-19800D01*
X47766Y-14258D02*
X47766Y-14695D01*
X47700Y-14192D02*
X47766Y-14258D01*
X48891Y-14695D02*
X47766Y-14695D01*
X51057Y-16861D02*
X48891Y-14695D01*
X51057Y-17022D02*
X51057Y-16861D01*
X51614Y-17022D02*
X51057Y-17022D01*
X54667Y-18995D02*
X55472Y-19800D01*
X46742Y-18995D02*
X54667Y-18995D01*
X45828Y-18081D02*
X46742Y-18995D01*
X45828Y-15831D02*
X45828Y-18081D01*
X45870Y-15789D02*
X45828Y-15831D01*
X46672Y-15789D02*
X45870Y-15789D01*
X47766Y-14695D02*
X46672Y-15789D01*
X53593Y-17532D02*
X53477Y-17416D01*
X58485Y-17532D02*
X53593Y-17532D01*
X58990Y-18037D02*
X58485Y-17532D01*
X60795Y-18037D02*
X58990Y-18037D01*
X61158Y-17674D02*
X60795Y-18037D01*
X61500Y-17674D02*
X61158Y-17674D01*
X61630Y-18588D02*
X61630Y-19250D01*
X61523Y-19250D02*
X61630Y-19250D01*
X61630Y-19250D02*
X61821Y-19250D01*
G54D10*
G36*
X107725Y-23725D02*
X107725Y-11775D01*
X67954Y-11775D01*
X69886Y-13707D01*
X69917Y-13707D01*
X69999Y-13724D01*
X70076Y-13756D01*
X70145Y-13803D01*
X70204Y-13862D01*
X70250Y-13931D01*
X70282Y-14008D01*
X70298Y-14090D01*
X70297Y-14185D01*
X70278Y-14266D01*
X70244Y-14343D01*
X70197Y-14411D01*
X70136Y-14468D01*
X70122Y-14476D01*
X70130Y-14503D01*
X70136Y-14563D01*
X70136Y-17228D01*
X70134Y-17241D01*
X70130Y-17285D01*
X70112Y-17344D01*
X70111Y-17345D01*
X70111Y-17346D01*
X70082Y-17399D01*
X70056Y-17429D01*
X70045Y-17443D01*
X69904Y-17584D01*
X69904Y-18092D01*
X69894Y-18140D01*
X69875Y-18185D01*
X69847Y-18225D01*
X69812Y-18260D01*
X69771Y-18287D01*
X69726Y-18306D01*
X69678Y-18315D01*
X68919Y-18315D01*
X68871Y-18305D01*
X68826Y-18286D01*
X68786Y-18258D01*
X68751Y-18223D01*
X68724Y-18182D01*
X68705Y-18137D01*
X68696Y-18089D01*
X68696Y-18046D01*
X68680Y-18041D01*
X68663Y-18037D01*
X68268Y-18037D01*
X68268Y-18783D01*
X68258Y-18831D01*
X68242Y-18868D01*
X68254Y-18909D01*
X68254Y-18913D01*
X68281Y-18940D01*
X68327Y-19009D01*
X68359Y-19086D01*
X68375Y-19168D01*
X68374Y-19263D01*
X68355Y-19344D01*
X68347Y-19362D01*
X71341Y-19362D01*
X71330Y-19344D01*
X71276Y-19207D01*
X71250Y-19063D01*
X71252Y-18916D01*
X71283Y-18772D01*
X71341Y-18637D01*
X71424Y-18516D01*
X71529Y-18413D01*
X71652Y-18333D01*
X71788Y-18278D01*
X71932Y-18251D01*
X72057Y-18251D01*
X72057Y-17250D01*
X71910Y-17247D01*
X71767Y-17216D01*
X71632Y-17157D01*
X71512Y-17073D01*
X71410Y-16967D01*
X71330Y-16844D01*
X71276Y-16707D01*
X71250Y-16563D01*
X71252Y-16416D01*
X71283Y-16272D01*
X71341Y-16137D01*
X71424Y-16016D01*
X71529Y-15913D01*
X71652Y-15833D01*
X71788Y-15778D01*
X71932Y-15751D01*
X72079Y-15752D01*
X72223Y-15781D01*
X72358Y-15838D01*
X72480Y-15920D01*
X72583Y-16025D01*
X72665Y-16147D01*
X72721Y-16283D01*
X72749Y-16427D01*
X72747Y-16595D01*
X72714Y-16738D01*
X72654Y-16872D01*
X72569Y-16992D01*
X72463Y-17093D01*
X72339Y-17172D01*
X72202Y-17225D01*
X72057Y-17250D01*
X72057Y-18251D01*
X72079Y-18252D01*
X72223Y-18281D01*
X72358Y-18338D01*
X72480Y-18420D01*
X72583Y-18525D01*
X72665Y-18647D01*
X72721Y-18783D01*
X72749Y-18927D01*
X72747Y-19095D01*
X72714Y-19238D01*
X72658Y-19362D01*
X73705Y-19362D01*
X73728Y-19339D01*
X73798Y-19294D01*
X73875Y-19262D01*
X73957Y-19247D01*
X74040Y-19247D01*
X74122Y-19264D01*
X74199Y-19296D01*
X74268Y-19343D01*
X74287Y-19362D01*
X75841Y-19362D01*
X75830Y-19344D01*
X75776Y-19207D01*
X75750Y-19063D01*
X75752Y-18916D01*
X75783Y-18772D01*
X75841Y-18637D01*
X75924Y-18516D01*
X76029Y-18413D01*
X76110Y-18360D01*
X76110Y-17141D01*
X76012Y-17073D01*
X75910Y-16967D01*
X75830Y-16844D01*
X75776Y-16707D01*
X75750Y-16563D01*
X75752Y-16416D01*
X75783Y-16272D01*
X75841Y-16137D01*
X75924Y-16016D01*
X76029Y-15913D01*
X76152Y-15833D01*
X76288Y-15778D01*
X76432Y-15751D01*
X76557Y-15751D01*
X76557Y-15250D01*
X76410Y-15247D01*
X76267Y-15216D01*
X76132Y-15157D01*
X76012Y-15073D01*
X75910Y-14967D01*
X75859Y-14890D01*
X72641Y-14890D01*
X72569Y-14992D01*
X72463Y-15093D01*
X72339Y-15172D01*
X72202Y-15225D01*
X72057Y-15250D01*
X71910Y-15247D01*
X71767Y-15216D01*
X71632Y-15157D01*
X71512Y-15073D01*
X71410Y-14967D01*
X71330Y-14844D01*
X71276Y-14707D01*
X71250Y-14563D01*
X71252Y-14416D01*
X71283Y-14272D01*
X71341Y-14137D01*
X71424Y-14016D01*
X71529Y-13913D01*
X71652Y-13833D01*
X71788Y-13778D01*
X71932Y-13751D01*
X72079Y-13752D01*
X72223Y-13781D01*
X72358Y-13838D01*
X72480Y-13920D01*
X72583Y-14025D01*
X72640Y-14110D01*
X74581Y-14110D01*
X74581Y-14052D01*
X74375Y-14048D01*
X74174Y-14003D01*
X73985Y-13921D01*
X73816Y-13803D01*
X73673Y-13655D01*
X73562Y-13482D01*
X73486Y-13291D01*
X73449Y-13088D01*
X73452Y-12882D01*
X73494Y-12681D01*
X73575Y-12492D01*
X73692Y-12322D01*
X73839Y-12178D01*
X74011Y-12065D01*
X74202Y-11988D01*
X74404Y-11949D01*
X74610Y-11951D01*
X74812Y-11992D01*
X75002Y-12072D01*
X75172Y-12187D01*
X75318Y-12333D01*
X75432Y-12505D01*
X75510Y-12695D01*
X75550Y-12897D01*
X75547Y-13132D01*
X75501Y-13333D01*
X75417Y-13521D01*
X75299Y-13689D01*
X75150Y-13831D01*
X74976Y-13942D01*
X74784Y-14016D01*
X74581Y-14052D01*
X74581Y-14110D01*
X75859Y-14110D01*
X75924Y-14016D01*
X76029Y-13913D01*
X76152Y-13833D01*
X76288Y-13778D01*
X76432Y-13751D01*
X76579Y-13752D01*
X76723Y-13781D01*
X76858Y-13838D01*
X76980Y-13920D01*
X77083Y-14025D01*
X77165Y-14147D01*
X77221Y-14283D01*
X77249Y-14427D01*
X77247Y-14595D01*
X77214Y-14738D01*
X77154Y-14872D01*
X77069Y-14992D01*
X76963Y-15093D01*
X76839Y-15172D01*
X76702Y-15225D01*
X76557Y-15250D01*
X76557Y-15751D01*
X76579Y-15752D01*
X76723Y-15781D01*
X76858Y-15838D01*
X76980Y-15920D01*
X77083Y-16025D01*
X77165Y-16147D01*
X77221Y-16283D01*
X77249Y-16427D01*
X77247Y-16595D01*
X77214Y-16738D01*
X77154Y-16872D01*
X77069Y-16992D01*
X76963Y-17093D01*
X76890Y-17139D01*
X76890Y-18359D01*
X76980Y-18420D01*
X77083Y-18525D01*
X77165Y-18647D01*
X77221Y-18783D01*
X77249Y-18927D01*
X77247Y-19095D01*
X77214Y-19238D01*
X77158Y-19362D01*
X80341Y-19362D01*
X80330Y-19344D01*
X80276Y-19207D01*
X80250Y-19063D01*
X80252Y-18916D01*
X80283Y-18772D01*
X80341Y-18637D01*
X80424Y-18516D01*
X80529Y-18413D01*
X80652Y-18333D01*
X80788Y-18278D01*
X80932Y-18251D01*
X81057Y-18251D01*
X81057Y-17250D01*
X80910Y-17247D01*
X80767Y-17216D01*
X80632Y-17157D01*
X80512Y-17073D01*
X80410Y-16967D01*
X80330Y-16844D01*
X80276Y-16707D01*
X80250Y-16563D01*
X80252Y-16416D01*
X80283Y-16272D01*
X80341Y-16137D01*
X80424Y-16016D01*
X80529Y-15913D01*
X80652Y-15833D01*
X80788Y-15778D01*
X80932Y-15751D01*
X81079Y-15752D01*
X81223Y-15781D01*
X81358Y-15838D01*
X81480Y-15920D01*
X81583Y-16025D01*
X81665Y-16147D01*
X81721Y-16283D01*
X81749Y-16427D01*
X81747Y-16595D01*
X81714Y-16738D01*
X81654Y-16872D01*
X81569Y-16992D01*
X81463Y-17093D01*
X81339Y-17172D01*
X81202Y-17225D01*
X81057Y-17250D01*
X81057Y-18251D01*
X81079Y-18252D01*
X81223Y-18281D01*
X81358Y-18338D01*
X81480Y-18420D01*
X81583Y-18525D01*
X81665Y-18647D01*
X81721Y-18783D01*
X81749Y-18927D01*
X81747Y-19095D01*
X81714Y-19238D01*
X81658Y-19362D01*
X84841Y-19362D01*
X84830Y-19344D01*
X84776Y-19207D01*
X84750Y-19063D01*
X84752Y-18916D01*
X84783Y-18772D01*
X84841Y-18637D01*
X84924Y-18516D01*
X85029Y-18413D01*
X85110Y-18360D01*
X85110Y-17141D01*
X85012Y-17073D01*
X84910Y-16967D01*
X84830Y-16844D01*
X84776Y-16707D01*
X84750Y-16563D01*
X84752Y-16416D01*
X84783Y-16272D01*
X84841Y-16137D01*
X84924Y-16016D01*
X85029Y-15913D01*
X85152Y-15833D01*
X85288Y-15778D01*
X85432Y-15751D01*
X85557Y-15751D01*
X85557Y-15250D01*
X85410Y-15247D01*
X85267Y-15216D01*
X85132Y-15157D01*
X85012Y-15073D01*
X84910Y-14967D01*
X84859Y-14890D01*
X81641Y-14890D01*
X81569Y-14992D01*
X81463Y-15093D01*
X81339Y-15172D01*
X81202Y-15225D01*
X81057Y-15250D01*
X80910Y-15247D01*
X80767Y-15216D01*
X80632Y-15157D01*
X80512Y-15073D01*
X80410Y-14967D01*
X80330Y-14844D01*
X80276Y-14707D01*
X80250Y-14563D01*
X80252Y-14416D01*
X80283Y-14272D01*
X80341Y-14137D01*
X80424Y-14016D01*
X80529Y-13913D01*
X80652Y-13833D01*
X80788Y-13778D01*
X80932Y-13751D01*
X81079Y-13752D01*
X81223Y-13781D01*
X81358Y-13838D01*
X81480Y-13920D01*
X81583Y-14025D01*
X81640Y-14110D01*
X84859Y-14110D01*
X84924Y-14016D01*
X85029Y-13913D01*
X85152Y-13833D01*
X85288Y-13778D01*
X85432Y-13751D01*
X85579Y-13752D01*
X85723Y-13781D01*
X85858Y-13838D01*
X85980Y-13920D01*
X86083Y-14025D01*
X86165Y-14147D01*
X86221Y-14283D01*
X86249Y-14427D01*
X86247Y-14595D01*
X86214Y-14738D01*
X86154Y-14872D01*
X86069Y-14992D01*
X85963Y-15093D01*
X85839Y-15172D01*
X85702Y-15225D01*
X85557Y-15250D01*
X85557Y-15751D01*
X85579Y-15752D01*
X85723Y-15781D01*
X85858Y-15838D01*
X85980Y-15920D01*
X86083Y-16025D01*
X86165Y-16147D01*
X86221Y-16283D01*
X86249Y-16427D01*
X86247Y-16595D01*
X86214Y-16738D01*
X86154Y-16872D01*
X86069Y-16992D01*
X85963Y-17093D01*
X85890Y-17139D01*
X85890Y-18359D01*
X85980Y-18420D01*
X86083Y-18525D01*
X86165Y-18647D01*
X86221Y-18783D01*
X86249Y-18927D01*
X86247Y-19095D01*
X86214Y-19238D01*
X86158Y-19362D01*
X89341Y-19362D01*
X89330Y-19344D01*
X89276Y-19207D01*
X89250Y-19063D01*
X89252Y-18916D01*
X89283Y-18772D01*
X89341Y-18637D01*
X89424Y-18516D01*
X89529Y-18413D01*
X89652Y-18333D01*
X89788Y-18278D01*
X89932Y-18251D01*
X90057Y-18251D01*
X90057Y-17250D01*
X89910Y-17247D01*
X89767Y-17216D01*
X89632Y-17157D01*
X89512Y-17073D01*
X89410Y-16967D01*
X89330Y-16844D01*
X89276Y-16707D01*
X89250Y-16563D01*
X89252Y-16416D01*
X89283Y-16272D01*
X89341Y-16137D01*
X89424Y-16016D01*
X89529Y-15913D01*
X89652Y-15833D01*
X89788Y-15778D01*
X89932Y-15751D01*
X90079Y-15752D01*
X90223Y-15781D01*
X90358Y-15838D01*
X90480Y-15920D01*
X90583Y-16025D01*
X90665Y-16147D01*
X90721Y-16283D01*
X90749Y-16427D01*
X90747Y-16595D01*
X90714Y-16738D01*
X90654Y-16872D01*
X90569Y-16992D01*
X90463Y-17093D01*
X90339Y-17172D01*
X90202Y-17225D01*
X90057Y-17250D01*
X90057Y-18251D01*
X90079Y-18252D01*
X90223Y-18281D01*
X90358Y-18338D01*
X90480Y-18420D01*
X90583Y-18525D01*
X90665Y-18647D01*
X90721Y-18783D01*
X90749Y-18927D01*
X90747Y-19095D01*
X90714Y-19238D01*
X90658Y-19362D01*
X93841Y-19362D01*
X93830Y-19344D01*
X93776Y-19207D01*
X93750Y-19063D01*
X93752Y-18916D01*
X93783Y-18772D01*
X93841Y-18637D01*
X93924Y-18516D01*
X94029Y-18413D01*
X94152Y-18333D01*
X94288Y-18278D01*
X94432Y-18251D01*
X94557Y-18251D01*
X94557Y-17250D01*
X94410Y-17247D01*
X94267Y-17216D01*
X94132Y-17157D01*
X94012Y-17073D01*
X93910Y-16967D01*
X93830Y-16844D01*
X93776Y-16707D01*
X93750Y-16563D01*
X93752Y-16416D01*
X93783Y-16272D01*
X93841Y-16137D01*
X93924Y-16016D01*
X94029Y-15913D01*
X94152Y-15833D01*
X94288Y-15778D01*
X94432Y-15751D01*
X94557Y-15751D01*
X94557Y-15250D01*
X94410Y-15247D01*
X94267Y-15216D01*
X94132Y-15157D01*
X94012Y-15073D01*
X93910Y-14967D01*
X93859Y-14890D01*
X90641Y-14890D01*
X90569Y-14992D01*
X90463Y-15093D01*
X90339Y-15172D01*
X90202Y-15225D01*
X90057Y-15250D01*
X89910Y-15247D01*
X89767Y-15216D01*
X89632Y-15157D01*
X89512Y-15073D01*
X89410Y-14967D01*
X89330Y-14844D01*
X89276Y-14707D01*
X89250Y-14563D01*
X89252Y-14416D01*
X89283Y-14272D01*
X89341Y-14137D01*
X89424Y-14016D01*
X89529Y-13913D01*
X89652Y-13833D01*
X89788Y-13778D01*
X89932Y-13751D01*
X90079Y-13752D01*
X90223Y-13781D01*
X90358Y-13838D01*
X90480Y-13920D01*
X90583Y-14025D01*
X90640Y-14110D01*
X93859Y-14110D01*
X93924Y-14016D01*
X94029Y-13913D01*
X94152Y-13833D01*
X94288Y-13778D01*
X94432Y-13751D01*
X94579Y-13752D01*
X94723Y-13781D01*
X94858Y-13838D01*
X94980Y-13920D01*
X95083Y-14025D01*
X95165Y-14147D01*
X95221Y-14283D01*
X95249Y-14427D01*
X95247Y-14595D01*
X95214Y-14738D01*
X95154Y-14872D01*
X95069Y-14992D01*
X94963Y-15093D01*
X94839Y-15172D01*
X94702Y-15225D01*
X94557Y-15250D01*
X94557Y-15751D01*
X94579Y-15752D01*
X94723Y-15781D01*
X94858Y-15838D01*
X94980Y-15920D01*
X95083Y-16025D01*
X95165Y-16147D01*
X95221Y-16283D01*
X95249Y-16427D01*
X95247Y-16595D01*
X95214Y-16738D01*
X95154Y-16872D01*
X95069Y-16992D01*
X94963Y-17093D01*
X94839Y-17172D01*
X94702Y-17225D01*
X94557Y-17250D01*
X94557Y-18251D01*
X94579Y-18252D01*
X94723Y-18281D01*
X94858Y-18338D01*
X94980Y-18420D01*
X95083Y-18525D01*
X95165Y-18647D01*
X95221Y-18783D01*
X95249Y-18927D01*
X95247Y-19095D01*
X95214Y-19238D01*
X95158Y-19362D01*
X98341Y-19362D01*
X98330Y-19344D01*
X98276Y-19207D01*
X98250Y-19063D01*
X98252Y-18916D01*
X98283Y-18772D01*
X98341Y-18637D01*
X98424Y-18516D01*
X98529Y-18413D01*
X98652Y-18333D01*
X98788Y-18278D01*
X98932Y-18251D01*
X99057Y-18251D01*
X99057Y-17250D01*
X98910Y-17247D01*
X98767Y-17216D01*
X98632Y-17157D01*
X98512Y-17073D01*
X98410Y-16967D01*
X98330Y-16844D01*
X98276Y-16707D01*
X98250Y-16563D01*
X98252Y-16416D01*
X98283Y-16272D01*
X98341Y-16137D01*
X98424Y-16016D01*
X98529Y-15913D01*
X98652Y-15833D01*
X98788Y-15778D01*
X98932Y-15751D01*
X99079Y-15752D01*
X99223Y-15781D01*
X99358Y-15838D01*
X99480Y-15920D01*
X99583Y-16025D01*
X99665Y-16147D01*
X99721Y-16283D01*
X99749Y-16427D01*
X99747Y-16595D01*
X99714Y-16738D01*
X99654Y-16872D01*
X99569Y-16992D01*
X99463Y-17093D01*
X99339Y-17172D01*
X99202Y-17225D01*
X99057Y-17250D01*
X99057Y-18251D01*
X99079Y-18252D01*
X99223Y-18281D01*
X99358Y-18338D01*
X99480Y-18420D01*
X99583Y-18525D01*
X99665Y-18647D01*
X99721Y-18783D01*
X99749Y-18927D01*
X99747Y-19095D01*
X99714Y-19238D01*
X99658Y-19362D01*
X102841Y-19362D01*
X102830Y-19344D01*
X102776Y-19207D01*
X102750Y-19063D01*
X102752Y-18916D01*
X102783Y-18772D01*
X102841Y-18637D01*
X102924Y-18516D01*
X103029Y-18413D01*
X103110Y-18360D01*
X103110Y-17141D01*
X103012Y-17073D01*
X102910Y-16967D01*
X102830Y-16844D01*
X102776Y-16707D01*
X102750Y-16563D01*
X102752Y-16416D01*
X102783Y-16272D01*
X102841Y-16137D01*
X102924Y-16016D01*
X103029Y-15913D01*
X103152Y-15833D01*
X103288Y-15778D01*
X103432Y-15751D01*
X103557Y-15751D01*
X103557Y-15250D01*
X103410Y-15247D01*
X103267Y-15216D01*
X103132Y-15157D01*
X103012Y-15073D01*
X102910Y-14967D01*
X102859Y-14890D01*
X99641Y-14890D01*
X99569Y-14992D01*
X99463Y-15093D01*
X99339Y-15172D01*
X99202Y-15225D01*
X99057Y-15250D01*
X98910Y-15247D01*
X98767Y-15216D01*
X98632Y-15157D01*
X98512Y-15073D01*
X98410Y-14967D01*
X98330Y-14844D01*
X98276Y-14707D01*
X98250Y-14563D01*
X98252Y-14416D01*
X98283Y-14272D01*
X98341Y-14137D01*
X98424Y-14016D01*
X98529Y-13913D01*
X98652Y-13833D01*
X98788Y-13778D01*
X98932Y-13751D01*
X99079Y-13752D01*
X99223Y-13781D01*
X99358Y-13838D01*
X99480Y-13920D01*
X99583Y-14025D01*
X99640Y-14110D01*
X102859Y-14110D01*
X102924Y-14016D01*
X103029Y-13913D01*
X103152Y-13833D01*
X103288Y-13778D01*
X103432Y-13751D01*
X103579Y-13752D01*
X103723Y-13781D01*
X103858Y-13838D01*
X103980Y-13920D01*
X104083Y-14025D01*
X104165Y-14147D01*
X104221Y-14283D01*
X104249Y-14427D01*
X104247Y-14595D01*
X104214Y-14738D01*
X104154Y-14872D01*
X104069Y-14992D01*
X103963Y-15093D01*
X103839Y-15172D01*
X103702Y-15225D01*
X103557Y-15250D01*
X103557Y-15751D01*
X103579Y-15752D01*
X103723Y-15781D01*
X103858Y-15838D01*
X103980Y-15920D01*
X104083Y-16025D01*
X104165Y-16147D01*
X104221Y-16283D01*
X104249Y-16427D01*
X104247Y-16595D01*
X104214Y-16738D01*
X104154Y-16872D01*
X104069Y-16992D01*
X103963Y-17093D01*
X103890Y-17139D01*
X103890Y-18359D01*
X103980Y-18420D01*
X104083Y-18525D01*
X104165Y-18647D01*
X104221Y-18783D01*
X104249Y-18927D01*
X104247Y-19095D01*
X104214Y-19238D01*
X104158Y-19362D01*
X104832Y-19362D01*
X104759Y-19272D01*
X104699Y-19160D01*
X104662Y-19038D01*
X104650Y-18912D01*
X104650Y-16787D01*
X104660Y-16696D01*
X104663Y-16668D01*
X104663Y-16666D01*
X104664Y-16661D01*
X104683Y-16602D01*
X104700Y-16546D01*
X104702Y-16541D01*
X104703Y-16540D01*
X104711Y-16524D01*
X104760Y-16434D01*
X104763Y-16429D01*
X104764Y-16429D01*
X104767Y-16424D01*
X104840Y-16336D01*
X105136Y-16041D01*
X105142Y-16034D01*
X105241Y-15955D01*
X105299Y-15924D01*
X105348Y-15899D01*
X105353Y-15897D01*
X105354Y-15897D01*
X105364Y-15893D01*
X105470Y-15862D01*
X105596Y-15850D01*
X106574Y-15850D01*
X106568Y-15843D01*
X106509Y-15752D01*
X106470Y-15652D01*
X106450Y-15546D01*
X106452Y-15439D01*
X106474Y-15333D01*
X106517Y-15234D01*
X106577Y-15146D01*
X106581Y-15142D01*
X106581Y-14052D01*
X106375Y-14048D01*
X106174Y-14003D01*
X105985Y-13921D01*
X105816Y-13803D01*
X105673Y-13655D01*
X105562Y-13482D01*
X105486Y-13291D01*
X105449Y-13088D01*
X105452Y-12882D01*
X105494Y-12681D01*
X105575Y-12492D01*
X105692Y-12322D01*
X105839Y-12178D01*
X106011Y-12065D01*
X106202Y-11988D01*
X106404Y-11949D01*
X106610Y-11951D01*
X106812Y-11992D01*
X107002Y-12072D01*
X107172Y-12187D01*
X107318Y-12333D01*
X107432Y-12505D01*
X107510Y-12695D01*
X107550Y-12897D01*
X107547Y-13132D01*
X107501Y-13333D01*
X107417Y-13521D01*
X107299Y-13689D01*
X107150Y-13831D01*
X106976Y-13942D01*
X106784Y-14016D01*
X106581Y-14052D01*
X106581Y-15142D01*
X106654Y-15070D01*
X106744Y-15011D01*
X106844Y-14971D01*
X106950Y-14951D01*
X107057Y-14951D01*
X107163Y-14973D01*
X107262Y-15015D01*
X107352Y-15075D01*
X107427Y-15151D01*
X107487Y-15241D01*
X107528Y-15340D01*
X107549Y-15446D01*
X107547Y-15569D01*
X107524Y-15674D01*
X107480Y-15772D01*
X107418Y-15860D01*
X107340Y-15935D01*
X107327Y-15942D01*
X107367Y-15964D01*
X107464Y-16045D01*
X107544Y-16144D01*
X107603Y-16257D01*
X107638Y-16378D01*
X107650Y-16505D01*
X107637Y-16631D01*
X107599Y-16752D01*
X107539Y-16863D01*
X107458Y-16961D01*
X107360Y-17041D01*
X107327Y-17058D01*
X107352Y-17075D01*
X107427Y-17151D01*
X107487Y-17241D01*
X107528Y-17340D01*
X107549Y-17446D01*
X107547Y-17569D01*
X107524Y-17674D01*
X107480Y-17772D01*
X107418Y-17860D01*
X107340Y-17935D01*
X107249Y-17992D01*
X107227Y-18000D01*
X107262Y-18015D01*
X107352Y-18075D01*
X107427Y-18151D01*
X107487Y-18241D01*
X107528Y-18340D01*
X107549Y-18446D01*
X107547Y-18569D01*
X107524Y-18674D01*
X107480Y-18772D01*
X107418Y-18860D01*
X107340Y-18935D01*
X107249Y-18992D01*
X107227Y-19000D01*
X107262Y-19015D01*
X107352Y-19075D01*
X107427Y-19151D01*
X107487Y-19241D01*
X107528Y-19340D01*
X107549Y-19446D01*
X107547Y-19569D01*
X107524Y-19674D01*
X107480Y-19772D01*
X107418Y-19860D01*
X107340Y-19935D01*
X107316Y-19950D01*
X107327Y-19950D01*
X107375Y-19960D01*
X107420Y-19979D01*
X107460Y-20007D01*
X107495Y-20042D01*
X107522Y-20083D01*
X107541Y-20128D01*
X107550Y-20176D01*
X107550Y-20827D01*
X107540Y-20875D01*
X107521Y-20920D01*
X107493Y-20960D01*
X107458Y-20995D01*
X107417Y-21022D01*
X107372Y-21041D01*
X107324Y-21050D01*
X106673Y-21050D01*
X106625Y-21040D01*
X106580Y-21021D01*
X106540Y-20993D01*
X106505Y-20958D01*
X106478Y-20917D01*
X106459Y-20872D01*
X106450Y-20824D01*
X106450Y-20796D01*
X106417Y-20786D01*
X106415Y-20785D01*
X106362Y-20756D01*
X106346Y-20742D01*
X106317Y-20719D01*
X106172Y-20574D01*
X104115Y-20574D01*
X104165Y-20647D01*
X104221Y-20783D01*
X104249Y-20927D01*
X104247Y-21095D01*
X104214Y-21238D01*
X104154Y-21372D01*
X104069Y-21492D01*
X103963Y-21593D01*
X103839Y-21672D01*
X103702Y-21725D01*
X103557Y-21750D01*
X103410Y-21747D01*
X103323Y-21728D01*
X102569Y-22483D01*
X102568Y-22483D01*
X102568Y-22484D01*
X102509Y-22532D01*
X102442Y-22568D01*
X102369Y-22590D01*
X102293Y-22597D01*
X73014Y-22597D01*
X73022Y-22602D01*
X73081Y-22661D01*
X73127Y-22730D01*
X73159Y-22807D01*
X73175Y-22889D01*
X73174Y-22984D01*
X73155Y-23065D01*
X73121Y-23142D01*
X73074Y-23210D01*
X73013Y-23267D01*
X72943Y-23312D01*
X72865Y-23342D01*
X72783Y-23357D01*
X72700Y-23355D01*
X72618Y-23337D01*
X72542Y-23304D01*
X72473Y-23256D01*
X72425Y-23207D01*
X71594Y-23207D01*
X71594Y-23289D01*
X71575Y-23370D01*
X71541Y-23447D01*
X71494Y-23515D01*
X71433Y-23572D01*
X71363Y-23617D01*
X71285Y-23647D01*
X71203Y-23662D01*
X71182Y-23661D01*
X71165Y-23679D01*
X71163Y-23681D01*
X71143Y-23697D01*
X71119Y-23717D01*
X71117Y-23717D01*
X71116Y-23719D01*
X71104Y-23725D01*
X106581Y-23725D01*
X106581Y-23552D01*
X106375Y-23548D01*
X106174Y-23503D01*
X105985Y-23421D01*
X105816Y-23303D01*
X105673Y-23155D01*
X105562Y-22982D01*
X105486Y-22791D01*
X105449Y-22588D01*
X105452Y-22382D01*
X105494Y-22181D01*
X105575Y-21992D01*
X105692Y-21822D01*
X105839Y-21678D01*
X106011Y-21565D01*
X106202Y-21488D01*
X106404Y-21449D01*
X106610Y-21451D01*
X106812Y-21492D01*
X107002Y-21572D01*
X107172Y-21687D01*
X107318Y-21833D01*
X107432Y-22005D01*
X107510Y-22195D01*
X107550Y-22397D01*
X107547Y-22632D01*
X107501Y-22833D01*
X107417Y-23021D01*
X107299Y-23189D01*
X107150Y-23331D01*
X106976Y-23442D01*
X106784Y-23516D01*
X106581Y-23552D01*
X106581Y-23725D01*
X107725Y-23725D01*
X107725Y-23725D01*
G37*
G54D34*
X107725Y-23725D02*
X107725Y-11775D01*
X67954Y-11775D01*
X69886Y-13707D01*
X69917Y-13707D01*
X69999Y-13724D01*
X70076Y-13756D01*
X70145Y-13803D01*
X70204Y-13862D01*
X70250Y-13931D01*
X70282Y-14008D01*
X70298Y-14090D01*
X70297Y-14185D01*
X70278Y-14266D01*
X70244Y-14343D01*
X70197Y-14411D01*
X70136Y-14468D01*
X70122Y-14476D01*
X70130Y-14503D01*
X70136Y-14563D01*
X70136Y-17228D01*
X70134Y-17241D01*
X70130Y-17285D01*
X70112Y-17344D01*
X70111Y-17345D01*
X70111Y-17346D01*
X70082Y-17399D01*
X70056Y-17429D01*
X70045Y-17443D01*
X69904Y-17584D01*
X69904Y-18092D01*
X69894Y-18140D01*
X69875Y-18185D01*
X69847Y-18225D01*
X69812Y-18260D01*
X69771Y-18287D01*
X69726Y-18306D01*
X69678Y-18315D01*
X68919Y-18315D01*
X68871Y-18305D01*
X68826Y-18286D01*
X68786Y-18258D01*
X68751Y-18223D01*
X68724Y-18182D01*
X68705Y-18137D01*
X68696Y-18089D01*
X68696Y-18046D01*
X68680Y-18041D01*
X68663Y-18037D01*
X68268Y-18037D01*
X68268Y-18783D01*
X68258Y-18831D01*
X68242Y-18868D01*
X68254Y-18909D01*
X68254Y-18913D01*
X68281Y-18940D01*
X68327Y-19009D01*
X68359Y-19086D01*
X68375Y-19168D01*
X68374Y-19263D01*
X68355Y-19344D01*
X68347Y-19362D01*
X71341Y-19362D01*
X71330Y-19344D01*
X71276Y-19207D01*
X71250Y-19063D01*
X71252Y-18916D01*
X71283Y-18772D01*
X71341Y-18637D01*
X71424Y-18516D01*
X71529Y-18413D01*
X71652Y-18333D01*
X71788Y-18278D01*
X71932Y-18251D01*
X72057Y-18251D01*
X72057Y-17250D01*
X71910Y-17247D01*
X71767Y-17216D01*
X71632Y-17157D01*
X71512Y-17073D01*
X71410Y-16967D01*
X71330Y-16844D01*
X71276Y-16707D01*
X71250Y-16563D01*
X71252Y-16416D01*
X71283Y-16272D01*
X71341Y-16137D01*
X71424Y-16016D01*
X71529Y-15913D01*
X71652Y-15833D01*
X71788Y-15778D01*
X71932Y-15751D01*
X72079Y-15752D01*
X72223Y-15781D01*
X72358Y-15838D01*
X72480Y-15920D01*
X72583Y-16025D01*
X72665Y-16147D01*
X72721Y-16283D01*
X72749Y-16427D01*
X72747Y-16595D01*
X72714Y-16738D01*
X72654Y-16872D01*
X72569Y-16992D01*
X72463Y-17093D01*
X72339Y-17172D01*
X72202Y-17225D01*
X72057Y-17250D01*
X72057Y-18251D01*
X72079Y-18252D01*
X72223Y-18281D01*
X72358Y-18338D01*
X72480Y-18420D01*
X72583Y-18525D01*
X72665Y-18647D01*
X72721Y-18783D01*
X72749Y-18927D01*
X72747Y-19095D01*
X72714Y-19238D01*
X72658Y-19362D01*
X73705Y-19362D01*
X73728Y-19339D01*
X73798Y-19294D01*
X73875Y-19262D01*
X73957Y-19247D01*
X74040Y-19247D01*
X74122Y-19264D01*
X74199Y-19296D01*
X74268Y-19343D01*
X74287Y-19362D01*
X75841Y-19362D01*
X75830Y-19344D01*
X75776Y-19207D01*
X75750Y-19063D01*
X75752Y-18916D01*
X75783Y-18772D01*
X75841Y-18637D01*
X75924Y-18516D01*
X76029Y-18413D01*
X76110Y-18360D01*
X76110Y-17141D01*
X76012Y-17073D01*
X75910Y-16967D01*
X75830Y-16844D01*
X75776Y-16707D01*
X75750Y-16563D01*
X75752Y-16416D01*
X75783Y-16272D01*
X75841Y-16137D01*
X75924Y-16016D01*
X76029Y-15913D01*
X76152Y-15833D01*
X76288Y-15778D01*
X76432Y-15751D01*
X76557Y-15751D01*
X76557Y-15250D01*
X76410Y-15247D01*
X76267Y-15216D01*
X76132Y-15157D01*
X76012Y-15073D01*
X75910Y-14967D01*
X75859Y-14890D01*
X72641Y-14890D01*
X72569Y-14992D01*
X72463Y-15093D01*
X72339Y-15172D01*
X72202Y-15225D01*
X72057Y-15250D01*
X71910Y-15247D01*
X71767Y-15216D01*
X71632Y-15157D01*
X71512Y-15073D01*
X71410Y-14967D01*
X71330Y-14844D01*
X71276Y-14707D01*
X71250Y-14563D01*
X71252Y-14416D01*
X71283Y-14272D01*
X71341Y-14137D01*
X71424Y-14016D01*
X71529Y-13913D01*
X71652Y-13833D01*
X71788Y-13778D01*
X71932Y-13751D01*
X72079Y-13752D01*
X72223Y-13781D01*
X72358Y-13838D01*
X72480Y-13920D01*
X72583Y-14025D01*
X72640Y-14110D01*
X74581Y-14110D01*
X74581Y-14052D01*
X74375Y-14048D01*
X74174Y-14003D01*
X73985Y-13921D01*
X73816Y-13803D01*
X73673Y-13655D01*
X73562Y-13482D01*
X73486Y-13291D01*
X73449Y-13088D01*
X73452Y-12882D01*
X73494Y-12681D01*
X73575Y-12492D01*
X73692Y-12322D01*
X73839Y-12178D01*
X74011Y-12065D01*
X74202Y-11988D01*
X74404Y-11949D01*
X74610Y-11951D01*
X74812Y-11992D01*
X75002Y-12072D01*
X75172Y-12187D01*
X75318Y-12333D01*
X75432Y-12505D01*
X75510Y-12695D01*
X75550Y-12897D01*
X75547Y-13132D01*
X75501Y-13333D01*
X75417Y-13521D01*
X75299Y-13689D01*
X75150Y-13831D01*
X74976Y-13942D01*
X74784Y-14016D01*
X74581Y-14052D01*
X74581Y-14110D01*
X75859Y-14110D01*
X75924Y-14016D01*
X76029Y-13913D01*
X76152Y-13833D01*
X76288Y-13778D01*
X76432Y-13751D01*
X76579Y-13752D01*
X76723Y-13781D01*
X76858Y-13838D01*
X76980Y-13920D01*
X77083Y-14025D01*
X77165Y-14147D01*
X77221Y-14283D01*
X77249Y-14427D01*
X77247Y-14595D01*
X77214Y-14738D01*
X77154Y-14872D01*
X77069Y-14992D01*
X76963Y-15093D01*
X76839Y-15172D01*
X76702Y-15225D01*
X76557Y-15250D01*
X76557Y-15751D01*
X76579Y-15752D01*
X76723Y-15781D01*
X76858Y-15838D01*
X76980Y-15920D01*
X77083Y-16025D01*
X77165Y-16147D01*
X77221Y-16283D01*
X77249Y-16427D01*
X77247Y-16595D01*
X77214Y-16738D01*
X77154Y-16872D01*
X77069Y-16992D01*
X76963Y-17093D01*
X76890Y-17139D01*
X76890Y-18359D01*
X76980Y-18420D01*
X77083Y-18525D01*
X77165Y-18647D01*
X77221Y-18783D01*
X77249Y-18927D01*
X77247Y-19095D01*
X77214Y-19238D01*
X77158Y-19362D01*
X80341Y-19362D01*
X80330Y-19344D01*
X80276Y-19207D01*
X80250Y-19063D01*
X80252Y-18916D01*
X80283Y-18772D01*
X80341Y-18637D01*
X80424Y-18516D01*
X80529Y-18413D01*
X80652Y-18333D01*
X80788Y-18278D01*
X80932Y-18251D01*
X81057Y-18251D01*
X81057Y-17250D01*
X80910Y-17247D01*
X80767Y-17216D01*
X80632Y-17157D01*
X80512Y-17073D01*
X80410Y-16967D01*
X80330Y-16844D01*
X80276Y-16707D01*
X80250Y-16563D01*
X80252Y-16416D01*
X80283Y-16272D01*
X80341Y-16137D01*
X80424Y-16016D01*
X80529Y-15913D01*
X80652Y-15833D01*
X80788Y-15778D01*
X80932Y-15751D01*
X81079Y-15752D01*
X81223Y-15781D01*
X81358Y-15838D01*
X81480Y-15920D01*
X81583Y-16025D01*
X81665Y-16147D01*
X81721Y-16283D01*
X81749Y-16427D01*
X81747Y-16595D01*
X81714Y-16738D01*
X81654Y-16872D01*
X81569Y-16992D01*
X81463Y-17093D01*
X81339Y-17172D01*
X81202Y-17225D01*
X81057Y-17250D01*
X81057Y-18251D01*
X81079Y-18252D01*
X81223Y-18281D01*
X81358Y-18338D01*
X81480Y-18420D01*
X81583Y-18525D01*
X81665Y-18647D01*
X81721Y-18783D01*
X81749Y-18927D01*
X81747Y-19095D01*
X81714Y-19238D01*
X81658Y-19362D01*
X84841Y-19362D01*
X84830Y-19344D01*
X84776Y-19207D01*
X84750Y-19063D01*
X84752Y-18916D01*
X84783Y-18772D01*
X84841Y-18637D01*
X84924Y-18516D01*
X85029Y-18413D01*
X85110Y-18360D01*
X85110Y-17141D01*
X85012Y-17073D01*
X84910Y-16967D01*
X84830Y-16844D01*
X84776Y-16707D01*
X84750Y-16563D01*
X84752Y-16416D01*
X84783Y-16272D01*
X84841Y-16137D01*
X84924Y-16016D01*
X85029Y-15913D01*
X85152Y-15833D01*
X85288Y-15778D01*
X85432Y-15751D01*
X85557Y-15751D01*
X85557Y-15250D01*
X85410Y-15247D01*
X85267Y-15216D01*
X85132Y-15157D01*
X85012Y-15073D01*
X84910Y-14967D01*
X84859Y-14890D01*
X81641Y-14890D01*
X81569Y-14992D01*
X81463Y-15093D01*
X81339Y-15172D01*
X81202Y-15225D01*
X81057Y-15250D01*
X80910Y-15247D01*
X80767Y-15216D01*
X80632Y-15157D01*
X80512Y-15073D01*
X80410Y-14967D01*
X80330Y-14844D01*
X80276Y-14707D01*
X80250Y-14563D01*
X80252Y-14416D01*
X80283Y-14272D01*
X80341Y-14137D01*
X80424Y-14016D01*
X80529Y-13913D01*
X80652Y-13833D01*
X80788Y-13778D01*
X80932Y-13751D01*
X81079Y-13752D01*
X81223Y-13781D01*
X81358Y-13838D01*
X81480Y-13920D01*
X81583Y-14025D01*
X81640Y-14110D01*
X84859Y-14110D01*
X84924Y-14016D01*
X85029Y-13913D01*
X85152Y-13833D01*
X85288Y-13778D01*
X85432Y-13751D01*
X85579Y-13752D01*
X85723Y-13781D01*
X85858Y-13838D01*
X85980Y-13920D01*
X86083Y-14025D01*
X86165Y-14147D01*
X86221Y-14283D01*
X86249Y-14427D01*
X86247Y-14595D01*
X86214Y-14738D01*
X86154Y-14872D01*
X86069Y-14992D01*
X85963Y-15093D01*
X85839Y-15172D01*
X85702Y-15225D01*
X85557Y-15250D01*
X85557Y-15751D01*
X85579Y-15752D01*
X85723Y-15781D01*
X85858Y-15838D01*
X85980Y-15920D01*
X86083Y-16025D01*
X86165Y-16147D01*
X86221Y-16283D01*
X86249Y-16427D01*
X86247Y-16595D01*
X86214Y-16738D01*
X86154Y-16872D01*
X86069Y-16992D01*
X85963Y-17093D01*
X85890Y-17139D01*
X85890Y-18359D01*
X85980Y-18420D01*
X86083Y-18525D01*
X86165Y-18647D01*
X86221Y-18783D01*
X86249Y-18927D01*
X86247Y-19095D01*
X86214Y-19238D01*
X86158Y-19362D01*
X89341Y-19362D01*
X89330Y-19344D01*
X89276Y-19207D01*
X89250Y-19063D01*
X89252Y-18916D01*
X89283Y-18772D01*
X89341Y-18637D01*
X89424Y-18516D01*
X89529Y-18413D01*
X89652Y-18333D01*
X89788Y-18278D01*
X89932Y-18251D01*
X90057Y-18251D01*
X90057Y-17250D01*
X89910Y-17247D01*
X89767Y-17216D01*
X89632Y-17157D01*
X89512Y-17073D01*
X89410Y-16967D01*
X89330Y-16844D01*
X89276Y-16707D01*
X89250Y-16563D01*
X89252Y-16416D01*
X89283Y-16272D01*
X89341Y-16137D01*
X89424Y-16016D01*
X89529Y-15913D01*
X89652Y-15833D01*
X89788Y-15778D01*
X89932Y-15751D01*
X90079Y-15752D01*
X90223Y-15781D01*
X90358Y-15838D01*
X90480Y-15920D01*
X90583Y-16025D01*
X90665Y-16147D01*
X90721Y-16283D01*
X90749Y-16427D01*
X90747Y-16595D01*
X90714Y-16738D01*
X90654Y-16872D01*
X90569Y-16992D01*
X90463Y-17093D01*
X90339Y-17172D01*
X90202Y-17225D01*
X90057Y-17250D01*
X90057Y-18251D01*
X90079Y-18252D01*
X90223Y-18281D01*
X90358Y-18338D01*
X90480Y-18420D01*
X90583Y-18525D01*
X90665Y-18647D01*
X90721Y-18783D01*
X90749Y-18927D01*
X90747Y-19095D01*
X90714Y-19238D01*
X90658Y-19362D01*
X93841Y-19362D01*
X93830Y-19344D01*
X93776Y-19207D01*
X93750Y-19063D01*
X93752Y-18916D01*
X93783Y-18772D01*
X93841Y-18637D01*
X93924Y-18516D01*
X94029Y-18413D01*
X94152Y-18333D01*
X94288Y-18278D01*
X94432Y-18251D01*
X94557Y-18251D01*
X94557Y-17250D01*
X94410Y-17247D01*
X94267Y-17216D01*
X94132Y-17157D01*
X94012Y-17073D01*
X93910Y-16967D01*
X93830Y-16844D01*
X93776Y-16707D01*
X93750Y-16563D01*
X93752Y-16416D01*
X93783Y-16272D01*
X93841Y-16137D01*
X93924Y-16016D01*
X94029Y-15913D01*
X94152Y-15833D01*
X94288Y-15778D01*
X94432Y-15751D01*
X94557Y-15751D01*
X94557Y-15250D01*
X94410Y-15247D01*
X94267Y-15216D01*
X94132Y-15157D01*
X94012Y-15073D01*
X93910Y-14967D01*
X93859Y-14890D01*
X90641Y-14890D01*
X90569Y-14992D01*
X90463Y-15093D01*
X90339Y-15172D01*
X90202Y-15225D01*
X90057Y-15250D01*
X89910Y-15247D01*
X89767Y-15216D01*
X89632Y-15157D01*
X89512Y-15073D01*
X89410Y-14967D01*
X89330Y-14844D01*
X89276Y-14707D01*
X89250Y-14563D01*
X89252Y-14416D01*
X89283Y-14272D01*
X89341Y-14137D01*
X89424Y-14016D01*
X89529Y-13913D01*
X89652Y-13833D01*
X89788Y-13778D01*
X89932Y-13751D01*
X90079Y-13752D01*
X90223Y-13781D01*
X90358Y-13838D01*
X90480Y-13920D01*
X90583Y-14025D01*
X90640Y-14110D01*
X93859Y-14110D01*
X93924Y-14016D01*
X94029Y-13913D01*
X94152Y-13833D01*
X94288Y-13778D01*
X94432Y-13751D01*
X94579Y-13752D01*
X94723Y-13781D01*
X94858Y-13838D01*
X94980Y-13920D01*
X95083Y-14025D01*
X95165Y-14147D01*
X95221Y-14283D01*
X95249Y-14427D01*
X95247Y-14595D01*
X95214Y-14738D01*
X95154Y-14872D01*
X95069Y-14992D01*
X94963Y-15093D01*
X94839Y-15172D01*
X94702Y-15225D01*
X94557Y-15250D01*
X94557Y-15751D01*
X94579Y-15752D01*
X94723Y-15781D01*
X94858Y-15838D01*
X94980Y-15920D01*
X95083Y-16025D01*
X95165Y-16147D01*
X95221Y-16283D01*
X95249Y-16427D01*
X95247Y-16595D01*
X95214Y-16738D01*
X95154Y-16872D01*
X95069Y-16992D01*
X94963Y-17093D01*
X94839Y-17172D01*
X94702Y-17225D01*
X94557Y-17250D01*
X94557Y-18251D01*
X94579Y-18252D01*
X94723Y-18281D01*
X94858Y-18338D01*
X94980Y-18420D01*
X95083Y-18525D01*
X95165Y-18647D01*
X95221Y-18783D01*
X95249Y-18927D01*
X95247Y-19095D01*
X95214Y-19238D01*
X95158Y-19362D01*
X98341Y-19362D01*
X98330Y-19344D01*
X98276Y-19207D01*
X98250Y-19063D01*
X98252Y-18916D01*
X98283Y-18772D01*
X98341Y-18637D01*
X98424Y-18516D01*
X98529Y-18413D01*
X98652Y-18333D01*
X98788Y-18278D01*
X98932Y-18251D01*
X99057Y-18251D01*
X99057Y-17250D01*
X98910Y-17247D01*
X98767Y-17216D01*
X98632Y-17157D01*
X98512Y-17073D01*
X98410Y-16967D01*
X98330Y-16844D01*
X98276Y-16707D01*
X98250Y-16563D01*
X98252Y-16416D01*
X98283Y-16272D01*
X98341Y-16137D01*
X98424Y-16016D01*
X98529Y-15913D01*
X98652Y-15833D01*
X98788Y-15778D01*
X98932Y-15751D01*
X99079Y-15752D01*
X99223Y-15781D01*
X99358Y-15838D01*
X99480Y-15920D01*
X99583Y-16025D01*
X99665Y-16147D01*
X99721Y-16283D01*
X99749Y-16427D01*
X99747Y-16595D01*
X99714Y-16738D01*
X99654Y-16872D01*
X99569Y-16992D01*
X99463Y-17093D01*
X99339Y-17172D01*
X99202Y-17225D01*
X99057Y-17250D01*
X99057Y-18251D01*
X99079Y-18252D01*
X99223Y-18281D01*
X99358Y-18338D01*
X99480Y-18420D01*
X99583Y-18525D01*
X99665Y-18647D01*
X99721Y-18783D01*
X99749Y-18927D01*
X99747Y-19095D01*
X99714Y-19238D01*
X99658Y-19362D01*
X102841Y-19362D01*
X102830Y-19344D01*
X102776Y-19207D01*
X102750Y-19063D01*
X102752Y-18916D01*
X102783Y-18772D01*
X102841Y-18637D01*
X102924Y-18516D01*
X103029Y-18413D01*
X103110Y-18360D01*
X103110Y-17141D01*
X103012Y-17073D01*
X102910Y-16967D01*
X102830Y-16844D01*
X102776Y-16707D01*
X102750Y-16563D01*
X102752Y-16416D01*
X102783Y-16272D01*
X102841Y-16137D01*
X102924Y-16016D01*
X103029Y-15913D01*
X103152Y-15833D01*
X103288Y-15778D01*
X103432Y-15751D01*
X103557Y-15751D01*
X103557Y-15250D01*
X103410Y-15247D01*
X103267Y-15216D01*
X103132Y-15157D01*
X103012Y-15073D01*
X102910Y-14967D01*
X102859Y-14890D01*
X99641Y-14890D01*
X99569Y-14992D01*
X99463Y-15093D01*
X99339Y-15172D01*
X99202Y-15225D01*
X99057Y-15250D01*
X98910Y-15247D01*
X98767Y-15216D01*
X98632Y-15157D01*
X98512Y-15073D01*
X98410Y-14967D01*
X98330Y-14844D01*
X98276Y-14707D01*
X98250Y-14563D01*
X98252Y-14416D01*
X98283Y-14272D01*
X98341Y-14137D01*
X98424Y-14016D01*
X98529Y-13913D01*
X98652Y-13833D01*
X98788Y-13778D01*
X98932Y-13751D01*
X99079Y-13752D01*
X99223Y-13781D01*
X99358Y-13838D01*
X99480Y-13920D01*
X99583Y-14025D01*
X99640Y-14110D01*
X102859Y-14110D01*
X102924Y-14016D01*
X103029Y-13913D01*
X103152Y-13833D01*
X103288Y-13778D01*
X103432Y-13751D01*
X103579Y-13752D01*
X103723Y-13781D01*
X103858Y-13838D01*
X103980Y-13920D01*
X104083Y-14025D01*
X104165Y-14147D01*
X104221Y-14283D01*
X104249Y-14427D01*
X104247Y-14595D01*
X104214Y-14738D01*
X104154Y-14872D01*
X104069Y-14992D01*
X103963Y-15093D01*
X103839Y-15172D01*
X103702Y-15225D01*
X103557Y-15250D01*
X103557Y-15751D01*
X103579Y-15752D01*
X103723Y-15781D01*
X103858Y-15838D01*
X103980Y-15920D01*
X104083Y-16025D01*
X104165Y-16147D01*
X104221Y-16283D01*
X104249Y-16427D01*
X104247Y-16595D01*
X104214Y-16738D01*
X104154Y-16872D01*
X104069Y-16992D01*
X103963Y-17093D01*
X103890Y-17139D01*
X103890Y-18359D01*
X103980Y-18420D01*
X104083Y-18525D01*
X104165Y-18647D01*
X104221Y-18783D01*
X104249Y-18927D01*
X104247Y-19095D01*
X104214Y-19238D01*
X104158Y-19362D01*
X104832Y-19362D01*
X104759Y-19272D01*
X104699Y-19160D01*
X104662Y-19038D01*
X104650Y-18912D01*
X104650Y-16787D01*
X104660Y-16696D01*
X104663Y-16668D01*
X104663Y-16666D01*
X104664Y-16661D01*
X104683Y-16602D01*
X104700Y-16546D01*
X104702Y-16541D01*
X104703Y-16540D01*
X104711Y-16524D01*
X104760Y-16434D01*
X104763Y-16429D01*
X104764Y-16429D01*
X104767Y-16424D01*
X104840Y-16336D01*
X105136Y-16041D01*
X105142Y-16034D01*
X105241Y-15955D01*
X105299Y-15924D01*
X105348Y-15899D01*
X105353Y-15897D01*
X105354Y-15897D01*
X105364Y-15893D01*
X105470Y-15862D01*
X105596Y-15850D01*
X106574Y-15850D01*
X106568Y-15843D01*
X106509Y-15752D01*
X106470Y-15652D01*
X106450Y-15546D01*
X106452Y-15439D01*
X106474Y-15333D01*
X106517Y-15234D01*
X106577Y-15146D01*
X106581Y-15142D01*
X106581Y-14052D01*
X106375Y-14048D01*
X106174Y-14003D01*
X105985Y-13921D01*
X105816Y-13803D01*
X105673Y-13655D01*
X105562Y-13482D01*
X105486Y-13291D01*
X105449Y-13088D01*
X105452Y-12882D01*
X105494Y-12681D01*
X105575Y-12492D01*
X105692Y-12322D01*
X105839Y-12178D01*
X106011Y-12065D01*
X106202Y-11988D01*
X106404Y-11949D01*
X106610Y-11951D01*
X106812Y-11992D01*
X107002Y-12072D01*
X107172Y-12187D01*
X107318Y-12333D01*
X107432Y-12505D01*
X107510Y-12695D01*
X107550Y-12897D01*
X107547Y-13132D01*
X107501Y-13333D01*
X107417Y-13521D01*
X107299Y-13689D01*
X107150Y-13831D01*
X106976Y-13942D01*
X106784Y-14016D01*
X106581Y-14052D01*
X106581Y-15142D01*
X106654Y-15070D01*
X106744Y-15011D01*
X106844Y-14971D01*
X106950Y-14951D01*
X107057Y-14951D01*
X107163Y-14973D01*
X107262Y-15015D01*
X107352Y-15075D01*
X107427Y-15151D01*
X107487Y-15241D01*
X107528Y-15340D01*
X107549Y-15446D01*
X107547Y-15569D01*
X107524Y-15674D01*
X107480Y-15772D01*
X107418Y-15860D01*
X107340Y-15935D01*
X107327Y-15942D01*
X107367Y-15964D01*
X107464Y-16045D01*
X107544Y-16144D01*
X107603Y-16257D01*
X107638Y-16378D01*
X107650Y-16505D01*
X107637Y-16631D01*
X107599Y-16752D01*
X107539Y-16863D01*
X107458Y-16961D01*
X107360Y-17041D01*
X107327Y-17058D01*
X107352Y-17075D01*
X107427Y-17151D01*
X107487Y-17241D01*
X107528Y-17340D01*
X107549Y-17446D01*
X107547Y-17569D01*
X107524Y-17674D01*
X107480Y-17772D01*
X107418Y-17860D01*
X107340Y-17935D01*
X107249Y-17992D01*
X107227Y-18000D01*
X107262Y-18015D01*
X107352Y-18075D01*
X107427Y-18151D01*
X107487Y-18241D01*
X107528Y-18340D01*
X107549Y-18446D01*
X107547Y-18569D01*
X107524Y-18674D01*
X107480Y-18772D01*
X107418Y-18860D01*
X107340Y-18935D01*
X107249Y-18992D01*
X107227Y-19000D01*
X107262Y-19015D01*
X107352Y-19075D01*
X107427Y-19151D01*
X107487Y-19241D01*
X107528Y-19340D01*
X107549Y-19446D01*
X107547Y-19569D01*
X107524Y-19674D01*
X107480Y-19772D01*
X107418Y-19860D01*
X107340Y-19935D01*
X107316Y-19950D01*
X107327Y-19950D01*
X107375Y-19960D01*
X107420Y-19979D01*
X107460Y-20007D01*
X107495Y-20042D01*
X107522Y-20083D01*
X107541Y-20128D01*
X107550Y-20176D01*
X107550Y-20827D01*
X107540Y-20875D01*
X107521Y-20920D01*
X107493Y-20960D01*
X107458Y-20995D01*
X107417Y-21022D01*
X107372Y-21041D01*
X107324Y-21050D01*
X106673Y-21050D01*
X106625Y-21040D01*
X106580Y-21021D01*
X106540Y-20993D01*
X106505Y-20958D01*
X106478Y-20917D01*
X106459Y-20872D01*
X106450Y-20824D01*
X106450Y-20796D01*
X106417Y-20786D01*
X106415Y-20785D01*
X106362Y-20756D01*
X106346Y-20742D01*
X106317Y-20719D01*
X106172Y-20574D01*
X104115Y-20574D01*
X104165Y-20647D01*
X104221Y-20783D01*
X104249Y-20927D01*
X104247Y-21095D01*
X104214Y-21238D01*
X104154Y-21372D01*
X104069Y-21492D01*
X103963Y-21593D01*
X103839Y-21672D01*
X103702Y-21725D01*
X103557Y-21750D01*
X103410Y-21747D01*
X103323Y-21728D01*
X102569Y-22483D01*
X102568Y-22483D01*
X102568Y-22484D01*
X102509Y-22532D01*
X102442Y-22568D01*
X102369Y-22590D01*
X102293Y-22597D01*
X73014Y-22597D01*
X73022Y-22602D01*
X73081Y-22661D01*
X73127Y-22730D01*
X73159Y-22807D01*
X73175Y-22889D01*
X73174Y-22984D01*
X73155Y-23065D01*
X73121Y-23142D01*
X73074Y-23210D01*
X73013Y-23267D01*
X72943Y-23312D01*
X72865Y-23342D01*
X72783Y-23357D01*
X72700Y-23355D01*
X72618Y-23337D01*
X72542Y-23304D01*
X72473Y-23256D01*
X72425Y-23207D01*
X71594Y-23207D01*
X71594Y-23289D01*
X71575Y-23370D01*
X71541Y-23447D01*
X71494Y-23515D01*
X71433Y-23572D01*
X71363Y-23617D01*
X71285Y-23647D01*
X71203Y-23662D01*
X71182Y-23661D01*
X71165Y-23679D01*
X71163Y-23681D01*
X71143Y-23697D01*
X71119Y-23717D01*
X71117Y-23717D01*
X71116Y-23719D01*
X71104Y-23725D01*
X106581Y-23725D01*
X106581Y-23552D01*
X106375Y-23548D01*
X106174Y-23503D01*
X105985Y-23421D01*
X105816Y-23303D01*
X105673Y-23155D01*
X105562Y-22982D01*
X105486Y-22791D01*
X105449Y-22588D01*
X105452Y-22382D01*
X105494Y-22181D01*
X105575Y-21992D01*
X105692Y-21822D01*
X105839Y-21678D01*
X106011Y-21565D01*
X106202Y-21488D01*
X106404Y-21449D01*
X106610Y-21451D01*
X106812Y-21492D01*
X107002Y-21572D01*
X107172Y-21687D01*
X107318Y-21833D01*
X107432Y-22005D01*
X107510Y-22195D01*
X107550Y-22397D01*
X107547Y-22632D01*
X107501Y-22833D01*
X107417Y-23021D01*
X107299Y-23189D01*
X107150Y-23331D01*
X106976Y-23442D01*
X106784Y-23516D01*
X106581Y-23552D01*
X106581Y-23725D01*
X107725Y-23725D01*
G54D10*
G36*
X11948Y-23725D02*
X11930Y-23715D01*
X11914Y-23701D01*
X11885Y-23678D01*
X10536Y-22328D01*
X10550Y-22397D01*
X10547Y-22632D01*
X10501Y-22833D01*
X10417Y-23021D01*
X10299Y-23189D01*
X10150Y-23331D01*
X09976Y-23442D01*
X09784Y-23516D01*
X09581Y-23552D01*
X09375Y-23548D01*
X09174Y-23503D01*
X08985Y-23421D01*
X08816Y-23303D01*
X08673Y-23155D01*
X08562Y-22982D01*
X08486Y-22791D01*
X08449Y-22588D01*
X08452Y-22382D01*
X08494Y-22181D01*
X08575Y-21992D01*
X08692Y-21822D01*
X08839Y-21678D01*
X09011Y-21565D01*
X09202Y-21488D01*
X09404Y-21449D01*
X09610Y-21451D01*
X09671Y-21463D01*
X09507Y-21300D01*
X08566Y-21300D01*
X08547Y-21297D01*
X08509Y-21294D01*
X08450Y-21276D01*
X08448Y-21275D01*
X08395Y-21246D01*
X08365Y-21220D01*
X08351Y-21209D01*
X08314Y-21172D01*
X08298Y-21152D01*
X08278Y-21128D01*
X08277Y-21126D01*
X08276Y-21125D01*
X08275Y-21123D01*
X08275Y-23725D01*
X11948Y-23725D01*
X11948Y-23725D01*
G37*
G54D34*
X11948Y-23725D02*
X11930Y-23715D01*
X11914Y-23701D01*
X11885Y-23678D01*
X10536Y-22328D01*
X10550Y-22397D01*
X10547Y-22632D01*
X10501Y-22833D01*
X10417Y-23021D01*
X10299Y-23189D01*
X10150Y-23331D01*
X09976Y-23442D01*
X09784Y-23516D01*
X09581Y-23552D01*
X09375Y-23548D01*
X09174Y-23503D01*
X08985Y-23421D01*
X08816Y-23303D01*
X08673Y-23155D01*
X08562Y-22982D01*
X08486Y-22791D01*
X08449Y-22588D01*
X08452Y-22382D01*
X08494Y-22181D01*
X08575Y-21992D01*
X08692Y-21822D01*
X08839Y-21678D01*
X09011Y-21565D01*
X09202Y-21488D01*
X09404Y-21449D01*
X09610Y-21451D01*
X09671Y-21463D01*
X09507Y-21300D01*
X08566Y-21300D01*
X08547Y-21297D01*
X08509Y-21294D01*
X08450Y-21276D01*
X08448Y-21275D01*
X08395Y-21246D01*
X08365Y-21220D01*
X08351Y-21209D01*
X08314Y-21172D01*
X08298Y-21152D01*
X08278Y-21128D01*
X08277Y-21126D01*
X08276Y-21125D01*
X08275Y-21123D01*
X08275Y-23725D01*
X11948Y-23725D01*
G54D10*
G36*
X62063Y-23149D02*
X62048Y-23141D01*
X62046Y-23140D01*
X61518Y-23140D01*
X61442Y-23131D01*
X61400Y-23118D01*
X61063Y-23118D01*
X61015Y-23108D01*
X60970Y-23089D01*
X60930Y-23061D01*
X60895Y-23026D01*
X60868Y-22985D01*
X60849Y-22940D01*
X60840Y-22892D01*
X60840Y-22605D01*
X60850Y-22557D01*
X60869Y-22512D01*
X60877Y-22499D01*
X60868Y-22485D01*
X60849Y-22440D01*
X60840Y-22392D01*
X60840Y-22259D01*
X60779Y-22316D01*
X60709Y-22361D01*
X60631Y-22391D01*
X60549Y-22406D01*
X60466Y-22404D01*
X60384Y-22386D01*
X60308Y-22353D01*
X60239Y-22305D01*
X60182Y-22246D01*
X60160Y-22212D01*
X60160Y-22395D01*
X60150Y-22443D01*
X60131Y-22488D01*
X60122Y-22500D01*
X60132Y-22515D01*
X60151Y-22560D01*
X60160Y-22608D01*
X60160Y-22895D01*
X60150Y-22943D01*
X60131Y-22988D01*
X60103Y-23028D01*
X60068Y-23063D01*
X60027Y-23090D01*
X59982Y-23109D01*
X59934Y-23118D01*
X59602Y-23118D01*
X59553Y-23133D01*
X59477Y-23140D01*
X58796Y-23140D01*
X58782Y-23138D01*
X58724Y-23133D01*
X58651Y-23111D01*
X58628Y-23098D01*
X58586Y-23115D01*
X58504Y-23130D01*
X58421Y-23128D01*
X58339Y-23110D01*
X58263Y-23077D01*
X58194Y-23029D01*
X58151Y-22984D01*
X57987Y-23149D01*
X62063Y-23149D01*
X62063Y-23149D01*
G37*
G54D34*
X62063Y-23149D02*
X62048Y-23141D01*
X62046Y-23140D01*
X61518Y-23140D01*
X61442Y-23131D01*
X61400Y-23118D01*
X61063Y-23118D01*
X61015Y-23108D01*
X60970Y-23089D01*
X60930Y-23061D01*
X60895Y-23026D01*
X60868Y-22985D01*
X60849Y-22940D01*
X60840Y-22892D01*
X60840Y-22605D01*
X60850Y-22557D01*
X60869Y-22512D01*
X60877Y-22499D01*
X60868Y-22485D01*
X60849Y-22440D01*
X60840Y-22392D01*
X60840Y-22259D01*
X60779Y-22316D01*
X60709Y-22361D01*
X60631Y-22391D01*
X60549Y-22406D01*
X60466Y-22404D01*
X60384Y-22386D01*
X60308Y-22353D01*
X60239Y-22305D01*
X60182Y-22246D01*
X60160Y-22212D01*
X60160Y-22395D01*
X60150Y-22443D01*
X60131Y-22488D01*
X60122Y-22500D01*
X60132Y-22515D01*
X60151Y-22560D01*
X60160Y-22608D01*
X60160Y-22895D01*
X60150Y-22943D01*
X60131Y-22988D01*
X60103Y-23028D01*
X60068Y-23063D01*
X60027Y-23090D01*
X59982Y-23109D01*
X59934Y-23118D01*
X59602Y-23118D01*
X59553Y-23133D01*
X59477Y-23140D01*
X58796Y-23140D01*
X58782Y-23138D01*
X58724Y-23133D01*
X58651Y-23111D01*
X58628Y-23098D01*
X58586Y-23115D01*
X58504Y-23130D01*
X58421Y-23128D01*
X58339Y-23110D01*
X58263Y-23077D01*
X58194Y-23029D01*
X58151Y-22984D01*
X57987Y-23149D01*
X62063Y-23149D01*
G54D10*
G36*
X47286Y-23149D02*
X47261Y-23083D01*
X47245Y-23001D01*
X47246Y-22936D01*
X29740Y-22936D01*
X29722Y-22963D01*
X29661Y-23020D01*
X29591Y-23065D01*
X29513Y-23095D01*
X29431Y-23110D01*
X29348Y-23108D01*
X29266Y-23090D01*
X29190Y-23057D01*
X29121Y-23009D01*
X29064Y-22950D01*
X29018Y-22880D01*
X28988Y-22802D01*
X28972Y-22720D01*
X28974Y-22637D01*
X28991Y-22555D01*
X29024Y-22479D01*
X29071Y-22410D01*
X29130Y-22351D01*
X29200Y-22306D01*
X29241Y-22288D01*
X29250Y-22280D01*
X17885Y-22280D01*
X17860Y-22277D01*
X17812Y-22272D01*
X17740Y-22250D01*
X17728Y-22244D01*
X17672Y-22214D01*
X17648Y-22194D01*
X17611Y-22163D01*
X17607Y-22158D01*
X17177Y-21729D01*
X17057Y-21750D01*
X16910Y-21747D01*
X16767Y-21716D01*
X16632Y-21657D01*
X16512Y-21573D01*
X16410Y-21467D01*
X16330Y-21344D01*
X16280Y-21218D01*
X15586Y-21913D01*
X15584Y-21915D01*
X15564Y-21931D01*
X15540Y-21951D01*
X15538Y-21951D01*
X15537Y-21953D01*
X15515Y-21963D01*
X15486Y-21980D01*
X15483Y-21980D01*
X15483Y-21981D01*
X15425Y-21998D01*
X15382Y-22001D01*
X15368Y-22003D01*
X11087Y-22003D01*
X12233Y-23149D01*
X47286Y-23149D01*
X47286Y-23149D01*
G37*
G54D34*
X47286Y-23149D02*
X47261Y-23083D01*
X47245Y-23001D01*
X47246Y-22936D01*
X29740Y-22936D01*
X29722Y-22963D01*
X29661Y-23020D01*
X29591Y-23065D01*
X29513Y-23095D01*
X29431Y-23110D01*
X29348Y-23108D01*
X29266Y-23090D01*
X29190Y-23057D01*
X29121Y-23009D01*
X29064Y-22950D01*
X29018Y-22880D01*
X28988Y-22802D01*
X28972Y-22720D01*
X28974Y-22637D01*
X28991Y-22555D01*
X29024Y-22479D01*
X29071Y-22410D01*
X29130Y-22351D01*
X29200Y-22306D01*
X29241Y-22288D01*
X29250Y-22280D01*
X17885Y-22280D01*
X17860Y-22277D01*
X17812Y-22272D01*
X17740Y-22250D01*
X17728Y-22244D01*
X17672Y-22214D01*
X17648Y-22194D01*
X17611Y-22163D01*
X17607Y-22158D01*
X17177Y-21729D01*
X17057Y-21750D01*
X16910Y-21747D01*
X16767Y-21716D01*
X16632Y-21657D01*
X16512Y-21573D01*
X16410Y-21467D01*
X16330Y-21344D01*
X16280Y-21218D01*
X15586Y-21913D01*
X15584Y-21915D01*
X15564Y-21931D01*
X15540Y-21951D01*
X15538Y-21951D01*
X15537Y-21953D01*
X15515Y-21963D01*
X15486Y-21980D01*
X15483Y-21980D01*
X15483Y-21981D01*
X15425Y-21998D01*
X15382Y-22001D01*
X15368Y-22003D01*
X11087Y-22003D01*
X12233Y-23149D01*
X47286Y-23149D01*
G54D10*
G36*
X57457Y-22575D02*
X57892Y-22140D01*
X57135Y-22140D01*
X56700Y-22575D01*
X57457Y-22575D01*
X57457Y-22575D01*
G37*
G54D34*
X57457Y-22575D02*
X57892Y-22140D01*
X57135Y-22140D01*
X56700Y-22575D01*
X57457Y-22575D01*
G54D10*
G36*
X65211Y-22427D02*
X65196Y-22403D01*
X65166Y-22325D01*
X65150Y-22243D01*
X65152Y-22160D01*
X65156Y-22140D01*
X63212Y-22140D01*
X63242Y-22184D01*
X63274Y-22261D01*
X63290Y-22343D01*
X63289Y-22427D01*
X65211Y-22427D01*
X65211Y-22427D01*
G37*
G54D34*
X65211Y-22427D02*
X65196Y-22403D01*
X65166Y-22325D01*
X65150Y-22243D01*
X65152Y-22160D01*
X65156Y-22140D01*
X63212Y-22140D01*
X63242Y-22184D01*
X63274Y-22261D01*
X63290Y-22343D01*
X63289Y-22427D01*
X65211Y-22427D01*
G54D10*
G36*
X56016Y-22156D02*
X56699Y-21473D01*
X56700Y-21471D01*
X56701Y-21471D01*
X56713Y-21461D01*
X56745Y-21435D01*
X53080Y-21435D01*
X53120Y-21531D01*
X53145Y-21656D01*
X53143Y-21802D01*
X53115Y-21926D01*
X53063Y-22042D01*
X52990Y-22147D01*
X52980Y-22156D01*
X56016Y-22156D01*
X56016Y-22156D01*
G37*
G54D34*
X56016Y-22156D02*
X56699Y-21473D01*
X56700Y-21471D01*
X56701Y-21471D01*
X56713Y-21461D01*
X56745Y-21435D01*
X53080Y-21435D01*
X53120Y-21531D01*
X53145Y-21656D01*
X53143Y-21802D01*
X53115Y-21926D01*
X53063Y-22042D01*
X52990Y-22147D01*
X52980Y-22156D01*
X56016Y-22156D01*
G54D10*
G36*
X52012Y-22156D02*
X51983Y-22126D01*
X51914Y-22019D01*
X51885Y-21945D01*
X51675Y-22156D01*
X52012Y-22156D01*
X52012Y-22156D01*
G37*
G54D34*
X52012Y-22156D02*
X51983Y-22126D01*
X51914Y-22019D01*
X51885Y-21945D01*
X51675Y-22156D01*
X52012Y-22156D01*
G54D10*
G36*
X102131Y-21817D02*
X102770Y-21177D01*
X102750Y-21063D01*
X102752Y-20916D01*
X102783Y-20772D01*
X102841Y-20637D01*
X102884Y-20574D01*
X99615Y-20574D01*
X99665Y-20647D01*
X99721Y-20783D01*
X99749Y-20927D01*
X99747Y-21095D01*
X99714Y-21238D01*
X99654Y-21372D01*
X99569Y-21492D01*
X99463Y-21593D01*
X99339Y-21672D01*
X99202Y-21725D01*
X99057Y-21750D01*
X98910Y-21747D01*
X98767Y-21716D01*
X98632Y-21657D01*
X98512Y-21573D01*
X98410Y-21467D01*
X98330Y-21344D01*
X98276Y-21207D01*
X98250Y-21063D01*
X98252Y-20916D01*
X98283Y-20772D01*
X98341Y-20637D01*
X98384Y-20574D01*
X95115Y-20574D01*
X95165Y-20647D01*
X95221Y-20783D01*
X95249Y-20927D01*
X95247Y-21095D01*
X95214Y-21238D01*
X95154Y-21372D01*
X95069Y-21492D01*
X94963Y-21593D01*
X94839Y-21672D01*
X94702Y-21725D01*
X94557Y-21750D01*
X94410Y-21747D01*
X94323Y-21728D01*
X94234Y-21817D01*
X102131Y-21817D01*
X102131Y-21817D01*
G37*
G54D34*
X102131Y-21817D02*
X102770Y-21177D01*
X102750Y-21063D01*
X102752Y-20916D01*
X102783Y-20772D01*
X102841Y-20637D01*
X102884Y-20574D01*
X99615Y-20574D01*
X99665Y-20647D01*
X99721Y-20783D01*
X99749Y-20927D01*
X99747Y-21095D01*
X99714Y-21238D01*
X99654Y-21372D01*
X99569Y-21492D01*
X99463Y-21593D01*
X99339Y-21672D01*
X99202Y-21725D01*
X99057Y-21750D01*
X98910Y-21747D01*
X98767Y-21716D01*
X98632Y-21657D01*
X98512Y-21573D01*
X98410Y-21467D01*
X98330Y-21344D01*
X98276Y-21207D01*
X98250Y-21063D01*
X98252Y-20916D01*
X98283Y-20772D01*
X98341Y-20637D01*
X98384Y-20574D01*
X95115Y-20574D01*
X95165Y-20647D01*
X95221Y-20783D01*
X95249Y-20927D01*
X95247Y-21095D01*
X95214Y-21238D01*
X95154Y-21372D01*
X95069Y-21492D01*
X94963Y-21593D01*
X94839Y-21672D01*
X94702Y-21725D01*
X94557Y-21750D01*
X94410Y-21747D01*
X94323Y-21728D01*
X94234Y-21817D01*
X102131Y-21817D01*
G54D10*
G36*
X60160Y-21748D02*
X60189Y-21706D01*
X60206Y-21689D01*
X60206Y-21028D01*
X60191Y-21037D01*
X60154Y-21047D01*
X60146Y-21050D01*
X60151Y-21060D01*
X60160Y-21108D01*
X60160Y-21395D01*
X60150Y-21443D01*
X60131Y-21488D01*
X60122Y-21500D01*
X60132Y-21515D01*
X60151Y-21560D01*
X60160Y-21608D01*
X60160Y-21748D01*
X60160Y-21748D01*
G37*
G54D34*
X60160Y-21748D02*
X60189Y-21706D01*
X60206Y-21689D01*
X60206Y-21028D01*
X60191Y-21037D01*
X60154Y-21047D01*
X60146Y-21050D01*
X60151Y-21060D01*
X60160Y-21108D01*
X60160Y-21395D01*
X60150Y-21443D01*
X60131Y-21488D01*
X60122Y-21500D01*
X60132Y-21515D01*
X60151Y-21560D01*
X60160Y-21608D01*
X60160Y-21748D01*
G54D10*
G36*
X60840Y-21703D02*
X60840Y-21605D01*
X60850Y-21557D01*
X60869Y-21512D01*
X60877Y-21499D01*
X60868Y-21485D01*
X60849Y-21440D01*
X60840Y-21392D01*
X60840Y-21105D01*
X60850Y-21057D01*
X60869Y-21012D01*
X60877Y-20999D01*
X60868Y-20985D01*
X60849Y-20940D01*
X60840Y-20892D01*
X60840Y-20605D01*
X60850Y-20557D01*
X60869Y-20512D01*
X60877Y-20499D01*
X60868Y-20485D01*
X60849Y-20440D01*
X60840Y-20392D01*
X60840Y-20274D01*
X60826Y-20288D01*
X60826Y-21689D01*
X60840Y-21703D01*
X60840Y-21703D01*
G37*
G54D34*
X60840Y-21703D02*
X60840Y-21605D01*
X60850Y-21557D01*
X60869Y-21512D01*
X60877Y-21499D01*
X60868Y-21485D01*
X60849Y-21440D01*
X60840Y-21392D01*
X60840Y-21105D01*
X60850Y-21057D01*
X60869Y-21012D01*
X60877Y-20999D01*
X60868Y-20985D01*
X60849Y-20940D01*
X60840Y-20892D01*
X60840Y-20605D01*
X60850Y-20557D01*
X60869Y-20512D01*
X60877Y-20499D01*
X60868Y-20485D01*
X60849Y-20440D01*
X60840Y-20392D01*
X60840Y-20274D01*
X60826Y-20288D01*
X60826Y-21689D01*
X60840Y-21703D01*
G54D10*
G36*
X51227Y-21500D02*
X51958Y-20769D01*
X51958Y-20768D01*
X51959Y-20768D01*
X52018Y-20720D01*
X52085Y-20684D01*
X52158Y-20662D01*
X52234Y-20655D01*
X54106Y-20655D01*
X54091Y-20577D01*
X54093Y-20494D01*
X54110Y-20412D01*
X54143Y-20336D01*
X54190Y-20267D01*
X54249Y-20208D01*
X54319Y-20163D01*
X54396Y-20131D01*
X54478Y-20116D01*
X54561Y-20116D01*
X54643Y-20133D01*
X54720Y-20165D01*
X54789Y-20212D01*
X54808Y-20231D01*
X55396Y-20231D01*
X55394Y-20226D01*
X55385Y-20178D01*
X55385Y-20096D01*
X55352Y-20086D01*
X55350Y-20085D01*
X55297Y-20056D01*
X55281Y-20042D01*
X55252Y-20019D01*
X54538Y-19305D01*
X52999Y-19305D01*
X53001Y-19307D01*
X53072Y-19413D01*
X53120Y-19531D01*
X53127Y-19570D01*
X53145Y-19656D01*
X53144Y-19693D01*
X53145Y-19697D01*
X53144Y-19708D01*
X53143Y-19802D01*
X53115Y-19926D01*
X53063Y-20042D01*
X52990Y-20147D01*
X52897Y-20235D01*
X52790Y-20303D01*
X52671Y-20349D01*
X52545Y-20371D01*
X52418Y-20369D01*
X52293Y-20341D01*
X52177Y-20290D01*
X52072Y-20218D01*
X51983Y-20126D01*
X51914Y-20019D01*
X51867Y-19900D01*
X51844Y-19775D01*
X51846Y-19647D01*
X51872Y-19523D01*
X51923Y-19406D01*
X51990Y-19305D01*
X46738Y-19305D01*
X46701Y-19300D01*
X46681Y-19299D01*
X46622Y-19281D01*
X46620Y-19280D01*
X46567Y-19251D01*
X46551Y-19237D01*
X46522Y-19214D01*
X45608Y-18299D01*
X45606Y-18297D01*
X45589Y-18277D01*
X45570Y-18253D01*
X45569Y-18251D01*
X45568Y-18250D01*
X45557Y-18228D01*
X45541Y-18199D01*
X45540Y-18196D01*
X45523Y-18138D01*
X45519Y-18095D01*
X45518Y-18081D01*
X45518Y-15827D01*
X45520Y-15809D01*
X45524Y-15770D01*
X45542Y-15711D01*
X45542Y-15709D01*
X45543Y-15709D01*
X45572Y-15656D01*
X45597Y-15626D01*
X45609Y-15612D01*
X45651Y-15570D01*
X45653Y-15567D01*
X45674Y-15550D01*
X45698Y-15531D01*
X45752Y-15502D01*
X45752Y-15501D01*
X45754Y-15501D01*
X45778Y-15494D01*
X45810Y-15485D01*
X45870Y-15479D01*
X46544Y-15479D01*
X46894Y-15128D01*
X46893Y-15128D01*
X46824Y-15080D01*
X46767Y-15021D01*
X46721Y-14951D01*
X46691Y-14873D01*
X46675Y-14791D01*
X46675Y-14768D01*
X46381Y-14473D01*
X46378Y-14470D01*
X46362Y-14450D01*
X46342Y-14426D01*
X46341Y-14424D01*
X46340Y-14423D01*
X46329Y-14401D01*
X46313Y-14372D01*
X46312Y-14369D01*
X46295Y-14311D01*
X46292Y-14279D01*
X46278Y-14279D01*
X46230Y-14269D01*
X46185Y-14250D01*
X46145Y-14222D01*
X46110Y-14187D01*
X46083Y-14146D01*
X46064Y-14101D01*
X46055Y-14053D01*
X46055Y-13492D01*
X46065Y-13444D01*
X46083Y-13399D01*
X46083Y-13398D01*
X46064Y-13353D01*
X46060Y-13336D01*
X43928Y-13336D01*
X43154Y-14110D01*
X43359Y-14110D01*
X43424Y-14016D01*
X43529Y-13913D01*
X43652Y-13833D01*
X43788Y-13778D01*
X43932Y-13751D01*
X44079Y-13752D01*
X44223Y-13781D01*
X44358Y-13838D01*
X44480Y-13920D01*
X44583Y-14025D01*
X44665Y-14147D01*
X44721Y-14283D01*
X44749Y-14427D01*
X44747Y-14595D01*
X44714Y-14738D01*
X44654Y-14872D01*
X44569Y-14992D01*
X44463Y-15093D01*
X44339Y-15172D01*
X44202Y-15225D01*
X44057Y-15250D01*
X43910Y-15247D01*
X43767Y-15216D01*
X43632Y-15157D01*
X43512Y-15073D01*
X43410Y-14967D01*
X43359Y-14890D01*
X40141Y-14890D01*
X40069Y-14992D01*
X39963Y-15093D01*
X39839Y-15172D01*
X39702Y-15225D01*
X39557Y-15250D01*
X39410Y-15247D01*
X39267Y-15216D01*
X39132Y-15157D01*
X39012Y-15073D01*
X38910Y-14967D01*
X38830Y-14844D01*
X38776Y-14707D01*
X38750Y-14563D01*
X38752Y-14416D01*
X38783Y-14272D01*
X38841Y-14137D01*
X38924Y-14016D01*
X39011Y-13930D01*
X35489Y-13930D01*
X35583Y-14025D01*
X35665Y-14147D01*
X35721Y-14283D01*
X35749Y-14427D01*
X35747Y-14595D01*
X35714Y-14738D01*
X35654Y-14872D01*
X35569Y-14992D01*
X35463Y-15093D01*
X35339Y-15172D01*
X35202Y-15225D01*
X35057Y-15250D01*
X34910Y-15247D01*
X34767Y-15216D01*
X34632Y-15157D01*
X34512Y-15073D01*
X34410Y-14967D01*
X34359Y-14890D01*
X31141Y-14890D01*
X31069Y-14992D01*
X30963Y-15093D01*
X30839Y-15172D01*
X30702Y-15225D01*
X30557Y-15250D01*
X30410Y-15247D01*
X30267Y-15216D01*
X30132Y-15157D01*
X30012Y-15073D01*
X29910Y-14967D01*
X29830Y-14844D01*
X29776Y-14707D01*
X29750Y-14563D01*
X29752Y-14416D01*
X29771Y-14326D01*
X27382Y-16715D01*
X27432Y-16765D01*
X27478Y-16834D01*
X27510Y-16911D01*
X27526Y-16993D01*
X27525Y-17088D01*
X27506Y-17169D01*
X27472Y-17246D01*
X27425Y-17314D01*
X27364Y-17371D01*
X27294Y-17416D01*
X27258Y-17429D01*
X26390Y-18298D01*
X26390Y-18359D01*
X26480Y-18420D01*
X26583Y-18525D01*
X26665Y-18647D01*
X26721Y-18783D01*
X26749Y-18927D01*
X26747Y-19095D01*
X26714Y-19238D01*
X26654Y-19372D01*
X26569Y-19492D01*
X26463Y-19593D01*
X26339Y-19672D01*
X26202Y-19725D01*
X26057Y-19750D01*
X25910Y-19747D01*
X25767Y-19716D01*
X25632Y-19657D01*
X25512Y-19573D01*
X25410Y-19467D01*
X25330Y-19344D01*
X25276Y-19207D01*
X25250Y-19063D01*
X25252Y-18916D01*
X25283Y-18772D01*
X25341Y-18637D01*
X25424Y-18516D01*
X25529Y-18413D01*
X25610Y-18360D01*
X25610Y-18131D01*
X25611Y-18116D01*
X25617Y-18059D01*
X25639Y-17986D01*
X25675Y-17919D01*
X25708Y-17879D01*
X19620Y-17879D01*
X17218Y-20280D01*
X17223Y-20281D01*
X17358Y-20338D01*
X17480Y-20420D01*
X17583Y-20525D01*
X17665Y-20647D01*
X17721Y-20783D01*
X17749Y-20927D01*
X17747Y-21095D01*
X17728Y-21176D01*
X18051Y-21500D01*
X20941Y-21500D01*
X20910Y-21467D01*
X20830Y-21344D01*
X20776Y-21207D01*
X20750Y-21063D01*
X20752Y-20916D01*
X20783Y-20772D01*
X20841Y-20637D01*
X20924Y-20516D01*
X21029Y-20413D01*
X21152Y-20333D01*
X21288Y-20278D01*
X21432Y-20251D01*
X21557Y-20251D01*
X21557Y-19750D01*
X21410Y-19747D01*
X21267Y-19716D01*
X21132Y-19657D01*
X21012Y-19573D01*
X20910Y-19467D01*
X20830Y-19344D01*
X20776Y-19207D01*
X20750Y-19063D01*
X20752Y-18916D01*
X20783Y-18772D01*
X20841Y-18637D01*
X20924Y-18516D01*
X21029Y-18413D01*
X21152Y-18333D01*
X21288Y-18278D01*
X21432Y-18251D01*
X21579Y-18252D01*
X21723Y-18281D01*
X21858Y-18338D01*
X21980Y-18420D01*
X22083Y-18525D01*
X22165Y-18647D01*
X22221Y-18783D01*
X22249Y-18927D01*
X22247Y-19095D01*
X22214Y-19238D01*
X22154Y-19372D01*
X22069Y-19492D01*
X21963Y-19593D01*
X21839Y-19672D01*
X21702Y-19725D01*
X21557Y-19750D01*
X21557Y-20251D01*
X21579Y-20252D01*
X21723Y-20281D01*
X21858Y-20338D01*
X21980Y-20420D01*
X22083Y-20525D01*
X22165Y-20647D01*
X22221Y-20783D01*
X22249Y-20927D01*
X22247Y-21095D01*
X22214Y-21238D01*
X22154Y-21372D01*
X22069Y-21492D01*
X22060Y-21500D01*
X25441Y-21500D01*
X25410Y-21467D01*
X25330Y-21344D01*
X25276Y-21207D01*
X25250Y-21063D01*
X25252Y-20916D01*
X25283Y-20772D01*
X25341Y-20637D01*
X25424Y-20516D01*
X25529Y-20413D01*
X25652Y-20333D01*
X25788Y-20278D01*
X25932Y-20251D01*
X26079Y-20252D01*
X26223Y-20281D01*
X26358Y-20338D01*
X26480Y-20420D01*
X26583Y-20525D01*
X26665Y-20647D01*
X26721Y-20783D01*
X26749Y-20927D01*
X26747Y-21095D01*
X26714Y-21238D01*
X26654Y-21372D01*
X26569Y-21492D01*
X26560Y-21500D01*
X29941Y-21500D01*
X29910Y-21467D01*
X29830Y-21344D01*
X29776Y-21207D01*
X29750Y-21063D01*
X29752Y-20916D01*
X29783Y-20772D01*
X29841Y-20637D01*
X29924Y-20516D01*
X30029Y-20413D01*
X30152Y-20333D01*
X30288Y-20278D01*
X30432Y-20251D01*
X30557Y-20251D01*
X30557Y-19750D01*
X30410Y-19747D01*
X30267Y-19716D01*
X30132Y-19657D01*
X30012Y-19573D01*
X29910Y-19467D01*
X29830Y-19344D01*
X29776Y-19207D01*
X29750Y-19063D01*
X29752Y-18916D01*
X29783Y-18772D01*
X29841Y-18637D01*
X29924Y-18516D01*
X30029Y-18413D01*
X30110Y-18360D01*
X30110Y-17141D01*
X30012Y-17073D01*
X29910Y-16967D01*
X29830Y-16844D01*
X29776Y-16707D01*
X29750Y-16563D01*
X29752Y-16416D01*
X29783Y-16272D01*
X29841Y-16137D01*
X29924Y-16016D01*
X30029Y-15913D01*
X30152Y-15833D01*
X30288Y-15778D01*
X30432Y-15751D01*
X30579Y-15752D01*
X30723Y-15781D01*
X30858Y-15838D01*
X30980Y-15920D01*
X31083Y-16025D01*
X31165Y-16147D01*
X31221Y-16283D01*
X31249Y-16427D01*
X31247Y-16595D01*
X31214Y-16738D01*
X31154Y-16872D01*
X31069Y-16992D01*
X30963Y-17093D01*
X30890Y-17139D01*
X30890Y-18359D01*
X30980Y-18420D01*
X31083Y-18525D01*
X31165Y-18647D01*
X31221Y-18783D01*
X31249Y-18927D01*
X31247Y-19095D01*
X31214Y-19238D01*
X31154Y-19372D01*
X31069Y-19492D01*
X30963Y-19593D01*
X30839Y-19672D01*
X30702Y-19725D01*
X30557Y-19750D01*
X30557Y-20251D01*
X30579Y-20252D01*
X30723Y-20281D01*
X30858Y-20338D01*
X30980Y-20420D01*
X31083Y-20525D01*
X31165Y-20647D01*
X31221Y-20783D01*
X31249Y-20927D01*
X31247Y-21095D01*
X31214Y-21238D01*
X31154Y-21372D01*
X31069Y-21492D01*
X31060Y-21500D01*
X34441Y-21500D01*
X34410Y-21467D01*
X34330Y-21344D01*
X34276Y-21207D01*
X34250Y-21063D01*
X34252Y-20916D01*
X34283Y-20772D01*
X34341Y-20637D01*
X34424Y-20516D01*
X34529Y-20413D01*
X34652Y-20333D01*
X34788Y-20278D01*
X34932Y-20251D01*
X35057Y-20251D01*
X35057Y-19750D01*
X34910Y-19747D01*
X34767Y-19716D01*
X34632Y-19657D01*
X34512Y-19573D01*
X34410Y-19467D01*
X34330Y-19344D01*
X34276Y-19207D01*
X34250Y-19063D01*
X34252Y-18916D01*
X34283Y-18772D01*
X34341Y-18637D01*
X34424Y-18516D01*
X34529Y-18413D01*
X34610Y-18360D01*
X34610Y-17141D01*
X34512Y-17073D01*
X34410Y-16967D01*
X34330Y-16844D01*
X34276Y-16707D01*
X34250Y-16563D01*
X34252Y-16416D01*
X34283Y-16272D01*
X34341Y-16137D01*
X34424Y-16016D01*
X34529Y-15913D01*
X34652Y-15833D01*
X34788Y-15778D01*
X34932Y-15751D01*
X35079Y-15752D01*
X35223Y-15781D01*
X35358Y-15838D01*
X35480Y-15920D01*
X35583Y-16025D01*
X35665Y-16147D01*
X35721Y-16283D01*
X35749Y-16427D01*
X35747Y-16595D01*
X35714Y-16738D01*
X35654Y-16872D01*
X35569Y-16992D01*
X35463Y-17093D01*
X35390Y-17139D01*
X35390Y-18359D01*
X35480Y-18420D01*
X35583Y-18525D01*
X35665Y-18647D01*
X35721Y-18783D01*
X35749Y-18927D01*
X35747Y-19095D01*
X35714Y-19238D01*
X35654Y-19372D01*
X35569Y-19492D01*
X35463Y-19593D01*
X35339Y-19672D01*
X35202Y-19725D01*
X35057Y-19750D01*
X35057Y-20251D01*
X35079Y-20252D01*
X35223Y-20281D01*
X35358Y-20338D01*
X35480Y-20420D01*
X35583Y-20525D01*
X35665Y-20647D01*
X35721Y-20783D01*
X35749Y-20927D01*
X35747Y-21095D01*
X35714Y-21238D01*
X35654Y-21372D01*
X35569Y-21492D01*
X35560Y-21500D01*
X38941Y-21500D01*
X38910Y-21467D01*
X38830Y-21344D01*
X38776Y-21207D01*
X38750Y-21063D01*
X38752Y-20916D01*
X38783Y-20772D01*
X38841Y-20637D01*
X38924Y-20516D01*
X39029Y-20413D01*
X39152Y-20333D01*
X39288Y-20278D01*
X39432Y-20251D01*
X39557Y-20251D01*
X39557Y-19750D01*
X39410Y-19747D01*
X39267Y-19716D01*
X39132Y-19657D01*
X39012Y-19573D01*
X38910Y-19467D01*
X38830Y-19344D01*
X38776Y-19207D01*
X38750Y-19063D01*
X38752Y-18916D01*
X38783Y-18772D01*
X38841Y-18637D01*
X38924Y-18516D01*
X39029Y-18413D01*
X39110Y-18360D01*
X39110Y-17141D01*
X39012Y-17073D01*
X38910Y-16967D01*
X38830Y-16844D01*
X38776Y-16707D01*
X38750Y-16563D01*
X38752Y-16416D01*
X38783Y-16272D01*
X38841Y-16137D01*
X38924Y-16016D01*
X39029Y-15913D01*
X39152Y-15833D01*
X39288Y-15778D01*
X39432Y-15751D01*
X39579Y-15752D01*
X39723Y-15781D01*
X39858Y-15838D01*
X39980Y-15920D01*
X40083Y-16025D01*
X40165Y-16147D01*
X40221Y-16283D01*
X40249Y-16427D01*
X40247Y-16595D01*
X40214Y-16738D01*
X40154Y-16872D01*
X40069Y-16992D01*
X39963Y-17093D01*
X39890Y-17139D01*
X39890Y-18359D01*
X39980Y-18420D01*
X40083Y-18525D01*
X40165Y-18647D01*
X40221Y-18783D01*
X40249Y-18927D01*
X40247Y-19095D01*
X40214Y-19238D01*
X40154Y-19372D01*
X40069Y-19492D01*
X39963Y-19593D01*
X39839Y-19672D01*
X39702Y-19725D01*
X39557Y-19750D01*
X39557Y-20251D01*
X39579Y-20252D01*
X39723Y-20281D01*
X39858Y-20338D01*
X39980Y-20420D01*
X40083Y-20525D01*
X40165Y-20647D01*
X40221Y-20783D01*
X40249Y-20927D01*
X40247Y-21095D01*
X40214Y-21238D01*
X40154Y-21372D01*
X40069Y-21492D01*
X40060Y-21500D01*
X43441Y-21500D01*
X43410Y-21467D01*
X43330Y-21344D01*
X43276Y-21207D01*
X43250Y-21063D01*
X43252Y-20916D01*
X43283Y-20772D01*
X43341Y-20637D01*
X43424Y-20516D01*
X43529Y-20413D01*
X43652Y-20333D01*
X43788Y-20278D01*
X43932Y-20251D01*
X44057Y-20251D01*
X44057Y-19750D01*
X43910Y-19747D01*
X43767Y-19716D01*
X43632Y-19657D01*
X43512Y-19573D01*
X43410Y-19467D01*
X43330Y-19344D01*
X43276Y-19207D01*
X43250Y-19063D01*
X43252Y-18916D01*
X43283Y-18772D01*
X43341Y-18637D01*
X43424Y-18516D01*
X43529Y-18413D01*
X43610Y-18360D01*
X43610Y-17141D01*
X43512Y-17073D01*
X43410Y-16967D01*
X43330Y-16844D01*
X43276Y-16707D01*
X43250Y-16563D01*
X43252Y-16416D01*
X43283Y-16272D01*
X43341Y-16137D01*
X43424Y-16016D01*
X43529Y-15913D01*
X43652Y-15833D01*
X43788Y-15778D01*
X43932Y-15751D01*
X44079Y-15752D01*
X44223Y-15781D01*
X44358Y-15838D01*
X44480Y-15920D01*
X44583Y-16025D01*
X44665Y-16147D01*
X44721Y-16283D01*
X44749Y-16427D01*
X44747Y-16595D01*
X44714Y-16738D01*
X44654Y-16872D01*
X44569Y-16992D01*
X44463Y-17093D01*
X44390Y-17139D01*
X44390Y-18359D01*
X44480Y-18420D01*
X44583Y-18525D01*
X44665Y-18647D01*
X44721Y-18783D01*
X44749Y-18927D01*
X44747Y-19095D01*
X44714Y-19238D01*
X44654Y-19372D01*
X44569Y-19492D01*
X44463Y-19593D01*
X44339Y-19672D01*
X44202Y-19725D01*
X44057Y-19750D01*
X44057Y-20251D01*
X44079Y-20252D01*
X44223Y-20281D01*
X44358Y-20338D01*
X44480Y-20420D01*
X44583Y-20525D01*
X44665Y-20647D01*
X44721Y-20783D01*
X44749Y-20927D01*
X44747Y-21095D01*
X44714Y-21238D01*
X44654Y-21372D01*
X44569Y-21492D01*
X44560Y-21500D01*
X48545Y-21500D01*
X48545Y-21371D01*
X48418Y-21369D01*
X48293Y-21341D01*
X48177Y-21290D01*
X48072Y-21218D01*
X47983Y-21126D01*
X47914Y-21019D01*
X47867Y-20900D01*
X47844Y-20775D01*
X47846Y-20647D01*
X47872Y-20523D01*
X47923Y-20406D01*
X47994Y-20300D01*
X48086Y-20211D01*
X48192Y-20141D01*
X48310Y-20094D01*
X48436Y-20070D01*
X48563Y-20070D01*
X48688Y-20096D01*
X48805Y-20145D01*
X48911Y-20217D01*
X49001Y-20307D01*
X49072Y-20413D01*
X49120Y-20531D01*
X49145Y-20656D01*
X49143Y-20802D01*
X49115Y-20926D01*
X49063Y-21042D01*
X48990Y-21147D01*
X48897Y-21235D01*
X48790Y-21303D01*
X48671Y-21349D01*
X48545Y-21371D01*
X48545Y-21500D01*
X51227Y-21500D01*
X51227Y-21500D01*
G37*
G54D34*
X51227Y-21500D02*
X51958Y-20769D01*
X51958Y-20768D01*
X51959Y-20768D01*
X52018Y-20720D01*
X52085Y-20684D01*
X52158Y-20662D01*
X52234Y-20655D01*
X54106Y-20655D01*
X54091Y-20577D01*
X54093Y-20494D01*
X54110Y-20412D01*
X54143Y-20336D01*
X54190Y-20267D01*
X54249Y-20208D01*
X54319Y-20163D01*
X54396Y-20131D01*
X54478Y-20116D01*
X54561Y-20116D01*
X54643Y-20133D01*
X54720Y-20165D01*
X54789Y-20212D01*
X54808Y-20231D01*
X55396Y-20231D01*
X55394Y-20226D01*
X55385Y-20178D01*
X55385Y-20096D01*
X55352Y-20086D01*
X55350Y-20085D01*
X55297Y-20056D01*
X55281Y-20042D01*
X55252Y-20019D01*
X54538Y-19305D01*
X52999Y-19305D01*
X53001Y-19307D01*
X53072Y-19413D01*
X53120Y-19531D01*
X53127Y-19570D01*
X53145Y-19656D01*
X53144Y-19693D01*
X53145Y-19697D01*
X53144Y-19708D01*
X53143Y-19802D01*
X53115Y-19926D01*
X53063Y-20042D01*
X52990Y-20147D01*
X52897Y-20235D01*
X52790Y-20303D01*
X52671Y-20349D01*
X52545Y-20371D01*
X52418Y-20369D01*
X52293Y-20341D01*
X52177Y-20290D01*
X52072Y-20218D01*
X51983Y-20126D01*
X51914Y-20019D01*
X51867Y-19900D01*
X51844Y-19775D01*
X51846Y-19647D01*
X51872Y-19523D01*
X51923Y-19406D01*
X51990Y-19305D01*
X46738Y-19305D01*
X46701Y-19300D01*
X46681Y-19299D01*
X46622Y-19281D01*
X46620Y-19280D01*
X46567Y-19251D01*
X46551Y-19237D01*
X46522Y-19214D01*
X45608Y-18299D01*
X45606Y-18297D01*
X45589Y-18277D01*
X45570Y-18253D01*
X45569Y-18251D01*
X45568Y-18250D01*
X45557Y-18228D01*
X45541Y-18199D01*
X45540Y-18196D01*
X45523Y-18138D01*
X45519Y-18095D01*
X45518Y-18081D01*
X45518Y-15827D01*
X45520Y-15809D01*
X45524Y-15770D01*
X45542Y-15711D01*
X45542Y-15709D01*
X45543Y-15709D01*
X45572Y-15656D01*
X45597Y-15626D01*
X45609Y-15612D01*
X45651Y-15570D01*
X45653Y-15567D01*
X45674Y-15550D01*
X45698Y-15531D01*
X45752Y-15502D01*
X45752Y-15501D01*
X45754Y-15501D01*
X45778Y-15494D01*
X45810Y-15485D01*
X45870Y-15479D01*
X46544Y-15479D01*
X46894Y-15128D01*
X46893Y-15128D01*
X46824Y-15080D01*
X46767Y-15021D01*
X46721Y-14951D01*
X46691Y-14873D01*
X46675Y-14791D01*
X46675Y-14768D01*
X46381Y-14473D01*
X46378Y-14470D01*
X46362Y-14450D01*
X46342Y-14426D01*
X46341Y-14424D01*
X46340Y-14423D01*
X46329Y-14401D01*
X46313Y-14372D01*
X46312Y-14369D01*
X46295Y-14311D01*
X46292Y-14279D01*
X46278Y-14279D01*
X46230Y-14269D01*
X46185Y-14250D01*
X46145Y-14222D01*
X46110Y-14187D01*
X46083Y-14146D01*
X46064Y-14101D01*
X46055Y-14053D01*
X46055Y-13492D01*
X46065Y-13444D01*
X46083Y-13399D01*
X46083Y-13398D01*
X46064Y-13353D01*
X46060Y-13336D01*
X43928Y-13336D01*
X43154Y-14110D01*
X43359Y-14110D01*
X43424Y-14016D01*
X43529Y-13913D01*
X43652Y-13833D01*
X43788Y-13778D01*
X43932Y-13751D01*
X44079Y-13752D01*
X44223Y-13781D01*
X44358Y-13838D01*
X44480Y-13920D01*
X44583Y-14025D01*
X44665Y-14147D01*
X44721Y-14283D01*
X44749Y-14427D01*
X44747Y-14595D01*
X44714Y-14738D01*
X44654Y-14872D01*
X44569Y-14992D01*
X44463Y-15093D01*
X44339Y-15172D01*
X44202Y-15225D01*
X44057Y-15250D01*
X43910Y-15247D01*
X43767Y-15216D01*
X43632Y-15157D01*
X43512Y-15073D01*
X43410Y-14967D01*
X43359Y-14890D01*
X40141Y-14890D01*
X40069Y-14992D01*
X39963Y-15093D01*
X39839Y-15172D01*
X39702Y-15225D01*
X39557Y-15250D01*
X39410Y-15247D01*
X39267Y-15216D01*
X39132Y-15157D01*
X39012Y-15073D01*
X38910Y-14967D01*
X38830Y-14844D01*
X38776Y-14707D01*
X38750Y-14563D01*
X38752Y-14416D01*
X38783Y-14272D01*
X38841Y-14137D01*
X38924Y-14016D01*
X39011Y-13930D01*
X35489Y-13930D01*
X35583Y-14025D01*
X35665Y-14147D01*
X35721Y-14283D01*
X35749Y-14427D01*
X35747Y-14595D01*
X35714Y-14738D01*
X35654Y-14872D01*
X35569Y-14992D01*
X35463Y-15093D01*
X35339Y-15172D01*
X35202Y-15225D01*
X35057Y-15250D01*
X34910Y-15247D01*
X34767Y-15216D01*
X34632Y-15157D01*
X34512Y-15073D01*
X34410Y-14967D01*
X34359Y-14890D01*
X31141Y-14890D01*
X31069Y-14992D01*
X30963Y-15093D01*
X30839Y-15172D01*
X30702Y-15225D01*
X30557Y-15250D01*
X30410Y-15247D01*
X30267Y-15216D01*
X30132Y-15157D01*
X30012Y-15073D01*
X29910Y-14967D01*
X29830Y-14844D01*
X29776Y-14707D01*
X29750Y-14563D01*
X29752Y-14416D01*
X29771Y-14326D01*
X27382Y-16715D01*
X27432Y-16765D01*
X27478Y-16834D01*
X27510Y-16911D01*
X27526Y-16993D01*
X27525Y-17088D01*
X27506Y-17169D01*
X27472Y-17246D01*
X27425Y-17314D01*
X27364Y-17371D01*
X27294Y-17416D01*
X27258Y-17429D01*
X26390Y-18298D01*
X26390Y-18359D01*
X26480Y-18420D01*
X26583Y-18525D01*
X26665Y-18647D01*
X26721Y-18783D01*
X26749Y-18927D01*
X26747Y-19095D01*
X26714Y-19238D01*
X26654Y-19372D01*
X26569Y-19492D01*
X26463Y-19593D01*
X26339Y-19672D01*
X26202Y-19725D01*
X26057Y-19750D01*
X25910Y-19747D01*
X25767Y-19716D01*
X25632Y-19657D01*
X25512Y-19573D01*
X25410Y-19467D01*
X25330Y-19344D01*
X25276Y-19207D01*
X25250Y-19063D01*
X25252Y-18916D01*
X25283Y-18772D01*
X25341Y-18637D01*
X25424Y-18516D01*
X25529Y-18413D01*
X25610Y-18360D01*
X25610Y-18131D01*
X25611Y-18116D01*
X25617Y-18059D01*
X25639Y-17986D01*
X25675Y-17919D01*
X25708Y-17879D01*
X19620Y-17879D01*
X17218Y-20280D01*
X17223Y-20281D01*
X17358Y-20338D01*
X17480Y-20420D01*
X17583Y-20525D01*
X17665Y-20647D01*
X17721Y-20783D01*
X17749Y-20927D01*
X17747Y-21095D01*
X17728Y-21176D01*
X18051Y-21500D01*
X20941Y-21500D01*
X20910Y-21467D01*
X20830Y-21344D01*
X20776Y-21207D01*
X20750Y-21063D01*
X20752Y-20916D01*
X20783Y-20772D01*
X20841Y-20637D01*
X20924Y-20516D01*
X21029Y-20413D01*
X21152Y-20333D01*
X21288Y-20278D01*
X21432Y-20251D01*
X21557Y-20251D01*
X21557Y-19750D01*
X21410Y-19747D01*
X21267Y-19716D01*
X21132Y-19657D01*
X21012Y-19573D01*
X20910Y-19467D01*
X20830Y-19344D01*
X20776Y-19207D01*
X20750Y-19063D01*
X20752Y-18916D01*
X20783Y-18772D01*
X20841Y-18637D01*
X20924Y-18516D01*
X21029Y-18413D01*
X21152Y-18333D01*
X21288Y-18278D01*
X21432Y-18251D01*
X21579Y-18252D01*
X21723Y-18281D01*
X21858Y-18338D01*
X21980Y-18420D01*
X22083Y-18525D01*
X22165Y-18647D01*
X22221Y-18783D01*
X22249Y-18927D01*
X22247Y-19095D01*
X22214Y-19238D01*
X22154Y-19372D01*
X22069Y-19492D01*
X21963Y-19593D01*
X21839Y-19672D01*
X21702Y-19725D01*
X21557Y-19750D01*
X21557Y-20251D01*
X21579Y-20252D01*
X21723Y-20281D01*
X21858Y-20338D01*
X21980Y-20420D01*
X22083Y-20525D01*
X22165Y-20647D01*
X22221Y-20783D01*
X22249Y-20927D01*
X22247Y-21095D01*
X22214Y-21238D01*
X22154Y-21372D01*
X22069Y-21492D01*
X22060Y-21500D01*
X25441Y-21500D01*
X25410Y-21467D01*
X25330Y-21344D01*
X25276Y-21207D01*
X25250Y-21063D01*
X25252Y-20916D01*
X25283Y-20772D01*
X25341Y-20637D01*
X25424Y-20516D01*
X25529Y-20413D01*
X25652Y-20333D01*
X25788Y-20278D01*
X25932Y-20251D01*
X26079Y-20252D01*
X26223Y-20281D01*
X26358Y-20338D01*
X26480Y-20420D01*
X26583Y-20525D01*
X26665Y-20647D01*
X26721Y-20783D01*
X26749Y-20927D01*
X26747Y-21095D01*
X26714Y-21238D01*
X26654Y-21372D01*
X26569Y-21492D01*
X26560Y-21500D01*
X29941Y-21500D01*
X29910Y-21467D01*
X29830Y-21344D01*
X29776Y-21207D01*
X29750Y-21063D01*
X29752Y-20916D01*
X29783Y-20772D01*
X29841Y-20637D01*
X29924Y-20516D01*
X30029Y-20413D01*
X30152Y-20333D01*
X30288Y-20278D01*
X30432Y-20251D01*
X30557Y-20251D01*
X30557Y-19750D01*
X30410Y-19747D01*
X30267Y-19716D01*
X30132Y-19657D01*
X30012Y-19573D01*
X29910Y-19467D01*
X29830Y-19344D01*
X29776Y-19207D01*
X29750Y-19063D01*
X29752Y-18916D01*
X29783Y-18772D01*
X29841Y-18637D01*
X29924Y-18516D01*
X30029Y-18413D01*
X30110Y-18360D01*
X30110Y-17141D01*
X30012Y-17073D01*
X29910Y-16967D01*
X29830Y-16844D01*
X29776Y-16707D01*
X29750Y-16563D01*
X29752Y-16416D01*
X29783Y-16272D01*
X29841Y-16137D01*
X29924Y-16016D01*
X30029Y-15913D01*
X30152Y-15833D01*
X30288Y-15778D01*
X30432Y-15751D01*
X30579Y-15752D01*
X30723Y-15781D01*
X30858Y-15838D01*
X30980Y-15920D01*
X31083Y-16025D01*
X31165Y-16147D01*
X31221Y-16283D01*
X31249Y-16427D01*
X31247Y-16595D01*
X31214Y-16738D01*
X31154Y-16872D01*
X31069Y-16992D01*
X30963Y-17093D01*
X30890Y-17139D01*
X30890Y-18359D01*
X30980Y-18420D01*
X31083Y-18525D01*
X31165Y-18647D01*
X31221Y-18783D01*
X31249Y-18927D01*
X31247Y-19095D01*
X31214Y-19238D01*
X31154Y-19372D01*
X31069Y-19492D01*
X30963Y-19593D01*
X30839Y-19672D01*
X30702Y-19725D01*
X30557Y-19750D01*
X30557Y-20251D01*
X30579Y-20252D01*
X30723Y-20281D01*
X30858Y-20338D01*
X30980Y-20420D01*
X31083Y-20525D01*
X31165Y-20647D01*
X31221Y-20783D01*
X31249Y-20927D01*
X31247Y-21095D01*
X31214Y-21238D01*
X31154Y-21372D01*
X31069Y-21492D01*
X31060Y-21500D01*
X34441Y-21500D01*
X34410Y-21467D01*
X34330Y-21344D01*
X34276Y-21207D01*
X34250Y-21063D01*
X34252Y-20916D01*
X34283Y-20772D01*
X34341Y-20637D01*
X34424Y-20516D01*
X34529Y-20413D01*
X34652Y-20333D01*
X34788Y-20278D01*
X34932Y-20251D01*
X35057Y-20251D01*
X35057Y-19750D01*
X34910Y-19747D01*
X34767Y-19716D01*
X34632Y-19657D01*
X34512Y-19573D01*
X34410Y-19467D01*
X34330Y-19344D01*
X34276Y-19207D01*
X34250Y-19063D01*
X34252Y-18916D01*
X34283Y-18772D01*
X34341Y-18637D01*
X34424Y-18516D01*
X34529Y-18413D01*
X34610Y-18360D01*
X34610Y-17141D01*
X34512Y-17073D01*
X34410Y-16967D01*
X34330Y-16844D01*
X34276Y-16707D01*
X34250Y-16563D01*
X34252Y-16416D01*
X34283Y-16272D01*
X34341Y-16137D01*
X34424Y-16016D01*
X34529Y-15913D01*
X34652Y-15833D01*
X34788Y-15778D01*
X34932Y-15751D01*
X35079Y-15752D01*
X35223Y-15781D01*
X35358Y-15838D01*
X35480Y-15920D01*
X35583Y-16025D01*
X35665Y-16147D01*
X35721Y-16283D01*
X35749Y-16427D01*
X35747Y-16595D01*
X35714Y-16738D01*
X35654Y-16872D01*
X35569Y-16992D01*
X35463Y-17093D01*
X35390Y-17139D01*
X35390Y-18359D01*
X35480Y-18420D01*
X35583Y-18525D01*
X35665Y-18647D01*
X35721Y-18783D01*
X35749Y-18927D01*
X35747Y-19095D01*
X35714Y-19238D01*
X35654Y-19372D01*
X35569Y-19492D01*
X35463Y-19593D01*
X35339Y-19672D01*
X35202Y-19725D01*
X35057Y-19750D01*
X35057Y-20251D01*
X35079Y-20252D01*
X35223Y-20281D01*
X35358Y-20338D01*
X35480Y-20420D01*
X35583Y-20525D01*
X35665Y-20647D01*
X35721Y-20783D01*
X35749Y-20927D01*
X35747Y-21095D01*
X35714Y-21238D01*
X35654Y-21372D01*
X35569Y-21492D01*
X35560Y-21500D01*
X38941Y-21500D01*
X38910Y-21467D01*
X38830Y-21344D01*
X38776Y-21207D01*
X38750Y-21063D01*
X38752Y-20916D01*
X38783Y-20772D01*
X38841Y-20637D01*
X38924Y-20516D01*
X39029Y-20413D01*
X39152Y-20333D01*
X39288Y-20278D01*
X39432Y-20251D01*
X39557Y-20251D01*
X39557Y-19750D01*
X39410Y-19747D01*
X39267Y-19716D01*
X39132Y-19657D01*
X39012Y-19573D01*
X38910Y-19467D01*
X38830Y-19344D01*
X38776Y-19207D01*
X38750Y-19063D01*
X38752Y-18916D01*
X38783Y-18772D01*
X38841Y-18637D01*
X38924Y-18516D01*
X39029Y-18413D01*
X39110Y-18360D01*
X39110Y-17141D01*
X39012Y-17073D01*
X38910Y-16967D01*
X38830Y-16844D01*
X38776Y-16707D01*
X38750Y-16563D01*
X38752Y-16416D01*
X38783Y-16272D01*
X38841Y-16137D01*
X38924Y-16016D01*
X39029Y-15913D01*
X39152Y-15833D01*
X39288Y-15778D01*
X39432Y-15751D01*
X39579Y-15752D01*
X39723Y-15781D01*
X39858Y-15838D01*
X39980Y-15920D01*
X40083Y-16025D01*
X40165Y-16147D01*
X40221Y-16283D01*
X40249Y-16427D01*
X40247Y-16595D01*
X40214Y-16738D01*
X40154Y-16872D01*
X40069Y-16992D01*
X39963Y-17093D01*
X39890Y-17139D01*
X39890Y-18359D01*
X39980Y-18420D01*
X40083Y-18525D01*
X40165Y-18647D01*
X40221Y-18783D01*
X40249Y-18927D01*
X40247Y-19095D01*
X40214Y-19238D01*
X40154Y-19372D01*
X40069Y-19492D01*
X39963Y-19593D01*
X39839Y-19672D01*
X39702Y-19725D01*
X39557Y-19750D01*
X39557Y-20251D01*
X39579Y-20252D01*
X39723Y-20281D01*
X39858Y-20338D01*
X39980Y-20420D01*
X40083Y-20525D01*
X40165Y-20647D01*
X40221Y-20783D01*
X40249Y-20927D01*
X40247Y-21095D01*
X40214Y-21238D01*
X40154Y-21372D01*
X40069Y-21492D01*
X40060Y-21500D01*
X43441Y-21500D01*
X43410Y-21467D01*
X43330Y-21344D01*
X43276Y-21207D01*
X43250Y-21063D01*
X43252Y-20916D01*
X43283Y-20772D01*
X43341Y-20637D01*
X43424Y-20516D01*
X43529Y-20413D01*
X43652Y-20333D01*
X43788Y-20278D01*
X43932Y-20251D01*
X44057Y-20251D01*
X44057Y-19750D01*
X43910Y-19747D01*
X43767Y-19716D01*
X43632Y-19657D01*
X43512Y-19573D01*
X43410Y-19467D01*
X43330Y-19344D01*
X43276Y-19207D01*
X43250Y-19063D01*
X43252Y-18916D01*
X43283Y-18772D01*
X43341Y-18637D01*
X43424Y-18516D01*
X43529Y-18413D01*
X43610Y-18360D01*
X43610Y-17141D01*
X43512Y-17073D01*
X43410Y-16967D01*
X43330Y-16844D01*
X43276Y-16707D01*
X43250Y-16563D01*
X43252Y-16416D01*
X43283Y-16272D01*
X43341Y-16137D01*
X43424Y-16016D01*
X43529Y-15913D01*
X43652Y-15833D01*
X43788Y-15778D01*
X43932Y-15751D01*
X44079Y-15752D01*
X44223Y-15781D01*
X44358Y-15838D01*
X44480Y-15920D01*
X44583Y-16025D01*
X44665Y-16147D01*
X44721Y-16283D01*
X44749Y-16427D01*
X44747Y-16595D01*
X44714Y-16738D01*
X44654Y-16872D01*
X44569Y-16992D01*
X44463Y-17093D01*
X44390Y-17139D01*
X44390Y-18359D01*
X44480Y-18420D01*
X44583Y-18525D01*
X44665Y-18647D01*
X44721Y-18783D01*
X44749Y-18927D01*
X44747Y-19095D01*
X44714Y-19238D01*
X44654Y-19372D01*
X44569Y-19492D01*
X44463Y-19593D01*
X44339Y-19672D01*
X44202Y-19725D01*
X44057Y-19750D01*
X44057Y-20251D01*
X44079Y-20252D01*
X44223Y-20281D01*
X44358Y-20338D01*
X44480Y-20420D01*
X44583Y-20525D01*
X44665Y-20647D01*
X44721Y-20783D01*
X44749Y-20927D01*
X44747Y-21095D01*
X44714Y-21238D01*
X44654Y-21372D01*
X44569Y-21492D01*
X44560Y-21500D01*
X48545Y-21500D01*
X48545Y-21371D01*
X48418Y-21369D01*
X48293Y-21341D01*
X48177Y-21290D01*
X48072Y-21218D01*
X47983Y-21126D01*
X47914Y-21019D01*
X47867Y-20900D01*
X47844Y-20775D01*
X47846Y-20647D01*
X47872Y-20523D01*
X47923Y-20406D01*
X47994Y-20300D01*
X48086Y-20211D01*
X48192Y-20141D01*
X48310Y-20094D01*
X48436Y-20070D01*
X48563Y-20070D01*
X48688Y-20096D01*
X48805Y-20145D01*
X48911Y-20217D01*
X49001Y-20307D01*
X49072Y-20413D01*
X49120Y-20531D01*
X49145Y-20656D01*
X49143Y-20802D01*
X49115Y-20926D01*
X49063Y-21042D01*
X48990Y-21147D01*
X48897Y-21235D01*
X48790Y-21303D01*
X48671Y-21349D01*
X48545Y-21371D01*
X48545Y-21500D01*
X51227Y-21500D01*
G54D10*
G36*
X15240Y-21383D02*
X16882Y-19740D01*
X16767Y-19716D01*
X16632Y-19657D01*
X16512Y-19573D01*
X16410Y-19467D01*
X16330Y-19344D01*
X16276Y-19207D01*
X16250Y-19063D01*
X16252Y-18916D01*
X16283Y-18772D01*
X16341Y-18637D01*
X16424Y-18516D01*
X16529Y-18413D01*
X16652Y-18333D01*
X16788Y-18278D01*
X16932Y-18251D01*
X17057Y-18251D01*
X17057Y-17250D01*
X16910Y-17247D01*
X16767Y-17216D01*
X16632Y-17157D01*
X16512Y-17073D01*
X16410Y-16967D01*
X16330Y-16844D01*
X16276Y-16707D01*
X16250Y-16563D01*
X16252Y-16416D01*
X16283Y-16272D01*
X16341Y-16137D01*
X16424Y-16016D01*
X16529Y-15913D01*
X16652Y-15833D01*
X16788Y-15778D01*
X16932Y-15751D01*
X17057Y-15751D01*
X17057Y-15250D01*
X16910Y-15247D01*
X16767Y-15216D01*
X16632Y-15157D01*
X16512Y-15073D01*
X16410Y-14967D01*
X16359Y-14890D01*
X13141Y-14890D01*
X13069Y-14992D01*
X12963Y-15093D01*
X12839Y-15172D01*
X12702Y-15225D01*
X12557Y-15250D01*
X12410Y-15247D01*
X12267Y-15216D01*
X12132Y-15157D01*
X12012Y-15073D01*
X11910Y-14967D01*
X11830Y-14844D01*
X11776Y-14707D01*
X11750Y-14563D01*
X11752Y-14416D01*
X11783Y-14272D01*
X11841Y-14137D01*
X11924Y-14016D01*
X12029Y-13913D01*
X12152Y-13833D01*
X12288Y-13778D01*
X12432Y-13751D01*
X12579Y-13752D01*
X12723Y-13781D01*
X12858Y-13838D01*
X12980Y-13920D01*
X13083Y-14025D01*
X13140Y-14110D01*
X16359Y-14110D01*
X16424Y-14016D01*
X16529Y-13913D01*
X16652Y-13833D01*
X16788Y-13778D01*
X16932Y-13751D01*
X17079Y-13752D01*
X17223Y-13781D01*
X17358Y-13838D01*
X17480Y-13920D01*
X17583Y-14025D01*
X17665Y-14147D01*
X17721Y-14283D01*
X17749Y-14427D01*
X17747Y-14595D01*
X17714Y-14738D01*
X17654Y-14872D01*
X17569Y-14992D01*
X17463Y-15093D01*
X17339Y-15172D01*
X17202Y-15225D01*
X17057Y-15250D01*
X17057Y-15751D01*
X17079Y-15752D01*
X17223Y-15781D01*
X17358Y-15838D01*
X17480Y-15920D01*
X17583Y-16025D01*
X17665Y-16147D01*
X17721Y-16283D01*
X17749Y-16427D01*
X17747Y-16595D01*
X17714Y-16738D01*
X17654Y-16872D01*
X17569Y-16992D01*
X17463Y-17093D01*
X17339Y-17172D01*
X17202Y-17225D01*
X17057Y-17250D01*
X17057Y-18251D01*
X17079Y-18252D01*
X17223Y-18281D01*
X17358Y-18338D01*
X17480Y-18420D01*
X17583Y-18525D01*
X17665Y-18647D01*
X17721Y-18783D01*
X17740Y-18882D01*
X19273Y-17350D01*
X19275Y-17347D01*
X19296Y-17330D01*
X19320Y-17311D01*
X19374Y-17282D01*
X19376Y-17281D01*
X19377Y-17281D01*
X19435Y-17264D01*
X19477Y-17260D01*
X19492Y-17259D01*
X21557Y-17259D01*
X21557Y-17250D01*
X21410Y-17247D01*
X21267Y-17216D01*
X21132Y-17157D01*
X21012Y-17073D01*
X20910Y-16967D01*
X20830Y-16844D01*
X20776Y-16707D01*
X20750Y-16563D01*
X20752Y-16416D01*
X20783Y-16272D01*
X20841Y-16137D01*
X20924Y-16016D01*
X21029Y-15913D01*
X21152Y-15833D01*
X21288Y-15778D01*
X21432Y-15751D01*
X21579Y-15752D01*
X21723Y-15781D01*
X21858Y-15838D01*
X21980Y-15920D01*
X22083Y-16025D01*
X22165Y-16147D01*
X22221Y-16283D01*
X22249Y-16427D01*
X22247Y-16595D01*
X22214Y-16738D01*
X22154Y-16872D01*
X22069Y-16992D01*
X21963Y-17093D01*
X21839Y-17172D01*
X21702Y-17225D01*
X21557Y-17250D01*
X21557Y-17259D01*
X25961Y-17259D01*
X25972Y-17248D01*
X25910Y-17247D01*
X25767Y-17216D01*
X25632Y-17157D01*
X25512Y-17073D01*
X25410Y-16967D01*
X25330Y-16844D01*
X25276Y-16707D01*
X25250Y-16563D01*
X25252Y-16416D01*
X25283Y-16272D01*
X25341Y-16137D01*
X25424Y-16016D01*
X25529Y-15913D01*
X25652Y-15833D01*
X25788Y-15778D01*
X25932Y-15751D01*
X26057Y-15751D01*
X26057Y-15250D01*
X25910Y-15247D01*
X25767Y-15216D01*
X25632Y-15157D01*
X25512Y-15073D01*
X25410Y-14967D01*
X25359Y-14890D01*
X22141Y-14890D01*
X22069Y-14992D01*
X21963Y-15093D01*
X21839Y-15172D01*
X21702Y-15225D01*
X21557Y-15250D01*
X21410Y-15247D01*
X21267Y-15216D01*
X21132Y-15157D01*
X21012Y-15073D01*
X20910Y-14967D01*
X20830Y-14844D01*
X20776Y-14707D01*
X20750Y-14563D01*
X20752Y-14416D01*
X20783Y-14272D01*
X20841Y-14137D01*
X20924Y-14016D01*
X21029Y-13913D01*
X21152Y-13833D01*
X21288Y-13778D01*
X21432Y-13751D01*
X21579Y-13752D01*
X21723Y-13781D01*
X21858Y-13838D01*
X21980Y-13920D01*
X22083Y-14025D01*
X22140Y-14110D01*
X25359Y-14110D01*
X25424Y-14016D01*
X25529Y-13913D01*
X25652Y-13833D01*
X25788Y-13778D01*
X25932Y-13751D01*
X26079Y-13752D01*
X26223Y-13781D01*
X26358Y-13838D01*
X26480Y-13920D01*
X26583Y-14025D01*
X26665Y-14147D01*
X26721Y-14283D01*
X26749Y-14427D01*
X26747Y-14595D01*
X26714Y-14738D01*
X26654Y-14872D01*
X26569Y-14992D01*
X26463Y-15093D01*
X26339Y-15172D01*
X26202Y-15225D01*
X26057Y-15250D01*
X26057Y-15751D01*
X26079Y-15752D01*
X26223Y-15781D01*
X26358Y-15838D01*
X26480Y-15920D01*
X26583Y-16025D01*
X26665Y-16147D01*
X26721Y-16283D01*
X26749Y-16427D01*
X26748Y-16472D01*
X29822Y-13398D01*
X29867Y-13362D01*
X29921Y-13333D01*
X29979Y-13316D01*
X30039Y-13310D01*
X39966Y-13310D01*
X39983Y-13312D01*
X40023Y-13316D01*
X40082Y-13334D01*
X40083Y-13334D01*
X40084Y-13335D01*
X40137Y-13364D01*
X40167Y-13389D01*
X40181Y-13401D01*
X40434Y-13654D01*
X40672Y-13654D01*
X40562Y-13482D01*
X40486Y-13291D01*
X40449Y-13088D01*
X40452Y-12882D01*
X40494Y-12681D01*
X40575Y-12492D01*
X40692Y-12322D01*
X40839Y-12178D01*
X41011Y-12065D01*
X41202Y-11988D01*
X41404Y-11949D01*
X41610Y-11951D01*
X41812Y-11992D01*
X42002Y-12072D01*
X42172Y-12187D01*
X42318Y-12333D01*
X42432Y-12505D01*
X42510Y-12695D01*
X42550Y-12897D01*
X42547Y-13132D01*
X42501Y-13333D01*
X42417Y-13521D01*
X42323Y-13654D01*
X42733Y-13654D01*
X43583Y-12804D01*
X43604Y-12787D01*
X43628Y-12768D01*
X43682Y-12739D01*
X43740Y-12722D01*
X43800Y-12716D01*
X46060Y-12716D01*
X46065Y-12696D01*
X46084Y-12651D01*
X46112Y-12611D01*
X46147Y-12576D01*
X46188Y-12549D01*
X46233Y-12530D01*
X46281Y-12521D01*
X46922Y-12521D01*
X46970Y-12531D01*
X47015Y-12550D01*
X47055Y-12578D01*
X47090Y-12613D01*
X47117Y-12654D01*
X47136Y-12699D01*
X47139Y-12716D01*
X47160Y-12716D01*
X47165Y-12696D01*
X47184Y-12651D01*
X47212Y-12611D01*
X47247Y-12576D01*
X47288Y-12549D01*
X47333Y-12530D01*
X47381Y-12521D01*
X48022Y-12521D01*
X48070Y-12531D01*
X48115Y-12550D01*
X48155Y-12578D01*
X48190Y-12613D01*
X48217Y-12654D01*
X48236Y-12699D01*
X48239Y-12716D01*
X48260Y-12716D01*
X48265Y-12696D01*
X48284Y-12651D01*
X48312Y-12611D01*
X48347Y-12576D01*
X48388Y-12549D01*
X48433Y-12530D01*
X48481Y-12521D01*
X48503Y-12521D01*
X48514Y-12488D01*
X48514Y-12486D01*
X48515Y-12486D01*
X48544Y-12433D01*
X48569Y-12402D01*
X48581Y-12389D01*
X49099Y-11870D01*
X49102Y-11868D01*
X49111Y-11859D01*
X49147Y-11831D01*
X49201Y-11802D01*
X49259Y-11785D01*
X49319Y-11779D01*
X50388Y-11779D01*
X50405Y-11781D01*
X50445Y-11785D01*
X50504Y-11803D01*
X50505Y-11803D01*
X50506Y-11804D01*
X50559Y-11833D01*
X50579Y-11849D01*
X50653Y-11775D01*
X08275Y-11775D01*
X08275Y-19798D01*
X08280Y-19789D01*
X08305Y-19758D01*
X08317Y-19745D01*
X08319Y-19743D01*
X08460Y-19601D01*
X08450Y-19546D01*
X08452Y-19439D01*
X08474Y-19333D01*
X08517Y-19234D01*
X08577Y-19146D01*
X08654Y-19070D01*
X08672Y-19057D01*
X08633Y-19036D01*
X08536Y-18955D01*
X08456Y-18856D01*
X08397Y-18743D01*
X08362Y-18622D01*
X08350Y-18495D01*
X08363Y-18369D01*
X08401Y-18248D01*
X08461Y-18137D01*
X08542Y-18039D01*
X08640Y-17959D01*
X08673Y-17941D01*
X08643Y-17920D01*
X08568Y-17843D01*
X08509Y-17752D01*
X08470Y-17652D01*
X08450Y-17546D01*
X08452Y-17439D01*
X08474Y-17333D01*
X08517Y-17234D01*
X08577Y-17146D01*
X08654Y-17070D01*
X08744Y-17011D01*
X08771Y-16999D01*
X08731Y-16982D01*
X08643Y-16920D01*
X08568Y-16843D01*
X08509Y-16752D01*
X08470Y-16652D01*
X08450Y-16546D01*
X08452Y-16439D01*
X08474Y-16333D01*
X08517Y-16234D01*
X08577Y-16146D01*
X08654Y-16070D01*
X08744Y-16011D01*
X08771Y-15999D01*
X08731Y-15982D01*
X08643Y-15920D01*
X08568Y-15843D01*
X08509Y-15752D01*
X08470Y-15652D01*
X08450Y-15546D01*
X08452Y-15439D01*
X08474Y-15333D01*
X08517Y-15234D01*
X08577Y-15146D01*
X08654Y-15070D01*
X08744Y-15011D01*
X08844Y-14971D01*
X08950Y-14951D01*
X09057Y-14951D01*
X09163Y-14973D01*
X09262Y-15015D01*
X09352Y-15075D01*
X09427Y-15151D01*
X09487Y-15241D01*
X09528Y-15340D01*
X09549Y-15446D01*
X09547Y-15569D01*
X09524Y-15674D01*
X09480Y-15772D01*
X09418Y-15860D01*
X09340Y-15935D01*
X09249Y-15992D01*
X09227Y-16000D01*
X09262Y-16015D01*
X09352Y-16075D01*
X09427Y-16151D01*
X09487Y-16241D01*
X09528Y-16340D01*
X09549Y-16446D01*
X09547Y-16569D01*
X09524Y-16674D01*
X09480Y-16772D01*
X09418Y-16860D01*
X09340Y-16935D01*
X09249Y-16992D01*
X09227Y-17000D01*
X09262Y-17015D01*
X09352Y-17075D01*
X09427Y-17151D01*
X09487Y-17241D01*
X09528Y-17340D01*
X09549Y-17446D01*
X09547Y-17569D01*
X09524Y-17674D01*
X09480Y-17772D01*
X09425Y-17850D01*
X09581Y-17850D01*
X09581Y-14052D01*
X09375Y-14048D01*
X09174Y-14003D01*
X08985Y-13921D01*
X08816Y-13803D01*
X08673Y-13655D01*
X08562Y-13482D01*
X08486Y-13291D01*
X08449Y-13088D01*
X08452Y-12882D01*
X08494Y-12681D01*
X08575Y-12492D01*
X08692Y-12322D01*
X08839Y-12178D01*
X09011Y-12065D01*
X09202Y-11988D01*
X09404Y-11949D01*
X09610Y-11951D01*
X09812Y-11992D01*
X10002Y-12072D01*
X10172Y-12187D01*
X10318Y-12333D01*
X10432Y-12505D01*
X10510Y-12695D01*
X10550Y-12897D01*
X10547Y-13132D01*
X10501Y-13333D01*
X10417Y-13521D01*
X10299Y-13689D01*
X10150Y-13831D01*
X09976Y-13942D01*
X09784Y-14016D01*
X09581Y-14052D01*
X09581Y-17850D01*
X10009Y-17850D01*
X10100Y-17860D01*
X10128Y-17863D01*
X10129Y-17863D01*
X10135Y-17864D01*
X10193Y-17883D01*
X10250Y-17900D01*
X10256Y-17903D01*
X10271Y-17911D01*
X10362Y-17960D01*
X10366Y-17963D01*
X10367Y-17964D01*
X10371Y-17967D01*
X10460Y-18040D01*
X12557Y-20137D01*
X12557Y-19750D01*
X12410Y-19747D01*
X12267Y-19716D01*
X12132Y-19657D01*
X12012Y-19573D01*
X11910Y-19467D01*
X11830Y-19344D01*
X11776Y-19207D01*
X11750Y-19063D01*
X11752Y-18916D01*
X11783Y-18772D01*
X11841Y-18637D01*
X11924Y-18516D01*
X12029Y-18413D01*
X12152Y-18333D01*
X12288Y-18278D01*
X12432Y-18251D01*
X12557Y-18251D01*
X12557Y-17250D01*
X12410Y-17247D01*
X12267Y-17216D01*
X12132Y-17157D01*
X12012Y-17073D01*
X11910Y-16967D01*
X11830Y-16844D01*
X11776Y-16707D01*
X11750Y-16563D01*
X11752Y-16416D01*
X11783Y-16272D01*
X11841Y-16137D01*
X11924Y-16016D01*
X12029Y-15913D01*
X12152Y-15833D01*
X12288Y-15778D01*
X12432Y-15751D01*
X12579Y-15752D01*
X12723Y-15781D01*
X12858Y-15838D01*
X12980Y-15920D01*
X13083Y-16025D01*
X13165Y-16147D01*
X13221Y-16283D01*
X13249Y-16427D01*
X13247Y-16595D01*
X13214Y-16738D01*
X13154Y-16872D01*
X13069Y-16992D01*
X12963Y-17093D01*
X12839Y-17172D01*
X12702Y-17225D01*
X12557Y-17250D01*
X12557Y-18251D01*
X12579Y-18252D01*
X12723Y-18281D01*
X12858Y-18338D01*
X12980Y-18420D01*
X13083Y-18525D01*
X13165Y-18647D01*
X13221Y-18783D01*
X13249Y-18927D01*
X13247Y-19095D01*
X13214Y-19238D01*
X13154Y-19372D01*
X13069Y-19492D01*
X12963Y-19593D01*
X12839Y-19672D01*
X12702Y-19725D01*
X12557Y-19750D01*
X12557Y-20137D01*
X12694Y-20275D01*
X12723Y-20281D01*
X12858Y-20338D01*
X12980Y-20420D01*
X13083Y-20525D01*
X13165Y-20647D01*
X13221Y-20783D01*
X13249Y-20927D01*
X13247Y-21095D01*
X13214Y-21238D01*
X13154Y-21372D01*
X13146Y-21383D01*
X15240Y-21383D01*
X15240Y-21383D01*
G37*
G54D34*
X15240Y-21383D02*
X16882Y-19740D01*
X16767Y-19716D01*
X16632Y-19657D01*
X16512Y-19573D01*
X16410Y-19467D01*
X16330Y-19344D01*
X16276Y-19207D01*
X16250Y-19063D01*
X16252Y-18916D01*
X16283Y-18772D01*
X16341Y-18637D01*
X16424Y-18516D01*
X16529Y-18413D01*
X16652Y-18333D01*
X16788Y-18278D01*
X16932Y-18251D01*
X17057Y-18251D01*
X17057Y-17250D01*
X16910Y-17247D01*
X16767Y-17216D01*
X16632Y-17157D01*
X16512Y-17073D01*
X16410Y-16967D01*
X16330Y-16844D01*
X16276Y-16707D01*
X16250Y-16563D01*
X16252Y-16416D01*
X16283Y-16272D01*
X16341Y-16137D01*
X16424Y-16016D01*
X16529Y-15913D01*
X16652Y-15833D01*
X16788Y-15778D01*
X16932Y-15751D01*
X17057Y-15751D01*
X17057Y-15250D01*
X16910Y-15247D01*
X16767Y-15216D01*
X16632Y-15157D01*
X16512Y-15073D01*
X16410Y-14967D01*
X16359Y-14890D01*
X13141Y-14890D01*
X13069Y-14992D01*
X12963Y-15093D01*
X12839Y-15172D01*
X12702Y-15225D01*
X12557Y-15250D01*
X12410Y-15247D01*
X12267Y-15216D01*
X12132Y-15157D01*
X12012Y-15073D01*
X11910Y-14967D01*
X11830Y-14844D01*
X11776Y-14707D01*
X11750Y-14563D01*
X11752Y-14416D01*
X11783Y-14272D01*
X11841Y-14137D01*
X11924Y-14016D01*
X12029Y-13913D01*
X12152Y-13833D01*
X12288Y-13778D01*
X12432Y-13751D01*
X12579Y-13752D01*
X12723Y-13781D01*
X12858Y-13838D01*
X12980Y-13920D01*
X13083Y-14025D01*
X13140Y-14110D01*
X16359Y-14110D01*
X16424Y-14016D01*
X16529Y-13913D01*
X16652Y-13833D01*
X16788Y-13778D01*
X16932Y-13751D01*
X17079Y-13752D01*
X17223Y-13781D01*
X17358Y-13838D01*
X17480Y-13920D01*
X17583Y-14025D01*
X17665Y-14147D01*
X17721Y-14283D01*
X17749Y-14427D01*
X17747Y-14595D01*
X17714Y-14738D01*
X17654Y-14872D01*
X17569Y-14992D01*
X17463Y-15093D01*
X17339Y-15172D01*
X17202Y-15225D01*
X17057Y-15250D01*
X17057Y-15751D01*
X17079Y-15752D01*
X17223Y-15781D01*
X17358Y-15838D01*
X17480Y-15920D01*
X17583Y-16025D01*
X17665Y-16147D01*
X17721Y-16283D01*
X17749Y-16427D01*
X17747Y-16595D01*
X17714Y-16738D01*
X17654Y-16872D01*
X17569Y-16992D01*
X17463Y-17093D01*
X17339Y-17172D01*
X17202Y-17225D01*
X17057Y-17250D01*
X17057Y-18251D01*
X17079Y-18252D01*
X17223Y-18281D01*
X17358Y-18338D01*
X17480Y-18420D01*
X17583Y-18525D01*
X17665Y-18647D01*
X17721Y-18783D01*
X17740Y-18882D01*
X19273Y-17350D01*
X19275Y-17347D01*
X19296Y-17330D01*
X19320Y-17311D01*
X19374Y-17282D01*
X19376Y-17281D01*
X19377Y-17281D01*
X19435Y-17264D01*
X19477Y-17260D01*
X19492Y-17259D01*
X21557Y-17259D01*
X21557Y-17250D01*
X21410Y-17247D01*
X21267Y-17216D01*
X21132Y-17157D01*
X21012Y-17073D01*
X20910Y-16967D01*
X20830Y-16844D01*
X20776Y-16707D01*
X20750Y-16563D01*
X20752Y-16416D01*
X20783Y-16272D01*
X20841Y-16137D01*
X20924Y-16016D01*
X21029Y-15913D01*
X21152Y-15833D01*
X21288Y-15778D01*
X21432Y-15751D01*
X21579Y-15752D01*
X21723Y-15781D01*
X21858Y-15838D01*
X21980Y-15920D01*
X22083Y-16025D01*
X22165Y-16147D01*
X22221Y-16283D01*
X22249Y-16427D01*
X22247Y-16595D01*
X22214Y-16738D01*
X22154Y-16872D01*
X22069Y-16992D01*
X21963Y-17093D01*
X21839Y-17172D01*
X21702Y-17225D01*
X21557Y-17250D01*
X21557Y-17259D01*
X25961Y-17259D01*
X25972Y-17248D01*
X25910Y-17247D01*
X25767Y-17216D01*
X25632Y-17157D01*
X25512Y-17073D01*
X25410Y-16967D01*
X25330Y-16844D01*
X25276Y-16707D01*
X25250Y-16563D01*
X25252Y-16416D01*
X25283Y-16272D01*
X25341Y-16137D01*
X25424Y-16016D01*
X25529Y-15913D01*
X25652Y-15833D01*
X25788Y-15778D01*
X25932Y-15751D01*
X26057Y-15751D01*
X26057Y-15250D01*
X25910Y-15247D01*
X25767Y-15216D01*
X25632Y-15157D01*
X25512Y-15073D01*
X25410Y-14967D01*
X25359Y-14890D01*
X22141Y-14890D01*
X22069Y-14992D01*
X21963Y-15093D01*
X21839Y-15172D01*
X21702Y-15225D01*
X21557Y-15250D01*
X21410Y-15247D01*
X21267Y-15216D01*
X21132Y-15157D01*
X21012Y-15073D01*
X20910Y-14967D01*
X20830Y-14844D01*
X20776Y-14707D01*
X20750Y-14563D01*
X20752Y-14416D01*
X20783Y-14272D01*
X20841Y-14137D01*
X20924Y-14016D01*
X21029Y-13913D01*
X21152Y-13833D01*
X21288Y-13778D01*
X21432Y-13751D01*
X21579Y-13752D01*
X21723Y-13781D01*
X21858Y-13838D01*
X21980Y-13920D01*
X22083Y-14025D01*
X22140Y-14110D01*
X25359Y-14110D01*
X25424Y-14016D01*
X25529Y-13913D01*
X25652Y-13833D01*
X25788Y-13778D01*
X25932Y-13751D01*
X26079Y-13752D01*
X26223Y-13781D01*
X26358Y-13838D01*
X26480Y-13920D01*
X26583Y-14025D01*
X26665Y-14147D01*
X26721Y-14283D01*
X26749Y-14427D01*
X26747Y-14595D01*
X26714Y-14738D01*
X26654Y-14872D01*
X26569Y-14992D01*
X26463Y-15093D01*
X26339Y-15172D01*
X26202Y-15225D01*
X26057Y-15250D01*
X26057Y-15751D01*
X26079Y-15752D01*
X26223Y-15781D01*
X26358Y-15838D01*
X26480Y-15920D01*
X26583Y-16025D01*
X26665Y-16147D01*
X26721Y-16283D01*
X26749Y-16427D01*
X26748Y-16472D01*
X29822Y-13398D01*
X29867Y-13362D01*
X29921Y-13333D01*
X29979Y-13316D01*
X30039Y-13310D01*
X39966Y-13310D01*
X39983Y-13312D01*
X40023Y-13316D01*
X40082Y-13334D01*
X40083Y-13334D01*
X40084Y-13335D01*
X40137Y-13364D01*
X40167Y-13389D01*
X40181Y-13401D01*
X40434Y-13654D01*
X40672Y-13654D01*
X40562Y-13482D01*
X40486Y-13291D01*
X40449Y-13088D01*
X40452Y-12882D01*
X40494Y-12681D01*
X40575Y-12492D01*
X40692Y-12322D01*
X40839Y-12178D01*
X41011Y-12065D01*
X41202Y-11988D01*
X41404Y-11949D01*
X41610Y-11951D01*
X41812Y-11992D01*
X42002Y-12072D01*
X42172Y-12187D01*
X42318Y-12333D01*
X42432Y-12505D01*
X42510Y-12695D01*
X42550Y-12897D01*
X42547Y-13132D01*
X42501Y-13333D01*
X42417Y-13521D01*
X42323Y-13654D01*
X42733Y-13654D01*
X43583Y-12804D01*
X43604Y-12787D01*
X43628Y-12768D01*
X43682Y-12739D01*
X43740Y-12722D01*
X43800Y-12716D01*
X46060Y-12716D01*
X46065Y-12696D01*
X46084Y-12651D01*
X46112Y-12611D01*
X46147Y-12576D01*
X46188Y-12549D01*
X46233Y-12530D01*
X46281Y-12521D01*
X46922Y-12521D01*
X46970Y-12531D01*
X47015Y-12550D01*
X47055Y-12578D01*
X47090Y-12613D01*
X47117Y-12654D01*
X47136Y-12699D01*
X47139Y-12716D01*
X47160Y-12716D01*
X47165Y-12696D01*
X47184Y-12651D01*
X47212Y-12611D01*
X47247Y-12576D01*
X47288Y-12549D01*
X47333Y-12530D01*
X47381Y-12521D01*
X48022Y-12521D01*
X48070Y-12531D01*
X48115Y-12550D01*
X48155Y-12578D01*
X48190Y-12613D01*
X48217Y-12654D01*
X48236Y-12699D01*
X48239Y-12716D01*
X48260Y-12716D01*
X48265Y-12696D01*
X48284Y-12651D01*
X48312Y-12611D01*
X48347Y-12576D01*
X48388Y-12549D01*
X48433Y-12530D01*
X48481Y-12521D01*
X48503Y-12521D01*
X48514Y-12488D01*
X48514Y-12486D01*
X48515Y-12486D01*
X48544Y-12433D01*
X48569Y-12402D01*
X48581Y-12389D01*
X49099Y-11870D01*
X49102Y-11868D01*
X49111Y-11859D01*
X49147Y-11831D01*
X49201Y-11802D01*
X49259Y-11785D01*
X49319Y-11779D01*
X50388Y-11779D01*
X50405Y-11781D01*
X50445Y-11785D01*
X50504Y-11803D01*
X50505Y-11803D01*
X50506Y-11804D01*
X50559Y-11833D01*
X50579Y-11849D01*
X50653Y-11775D01*
X08275Y-11775D01*
X08275Y-19798D01*
X08280Y-19789D01*
X08305Y-19758D01*
X08317Y-19745D01*
X08319Y-19743D01*
X08460Y-19601D01*
X08450Y-19546D01*
X08452Y-19439D01*
X08474Y-19333D01*
X08517Y-19234D01*
X08577Y-19146D01*
X08654Y-19070D01*
X08672Y-19057D01*
X08633Y-19036D01*
X08536Y-18955D01*
X08456Y-18856D01*
X08397Y-18743D01*
X08362Y-18622D01*
X08350Y-18495D01*
X08363Y-18369D01*
X08401Y-18248D01*
X08461Y-18137D01*
X08542Y-18039D01*
X08640Y-17959D01*
X08673Y-17941D01*
X08643Y-17920D01*
X08568Y-17843D01*
X08509Y-17752D01*
X08470Y-17652D01*
X08450Y-17546D01*
X08452Y-17439D01*
X08474Y-17333D01*
X08517Y-17234D01*
X08577Y-17146D01*
X08654Y-17070D01*
X08744Y-17011D01*
X08771Y-16999D01*
X08731Y-16982D01*
X08643Y-16920D01*
X08568Y-16843D01*
X08509Y-16752D01*
X08470Y-16652D01*
X08450Y-16546D01*
X08452Y-16439D01*
X08474Y-16333D01*
X08517Y-16234D01*
X08577Y-16146D01*
X08654Y-16070D01*
X08744Y-16011D01*
X08771Y-15999D01*
X08731Y-15982D01*
X08643Y-15920D01*
X08568Y-15843D01*
X08509Y-15752D01*
X08470Y-15652D01*
X08450Y-15546D01*
X08452Y-15439D01*
X08474Y-15333D01*
X08517Y-15234D01*
X08577Y-15146D01*
X08654Y-15070D01*
X08744Y-15011D01*
X08844Y-14971D01*
X08950Y-14951D01*
X09057Y-14951D01*
X09163Y-14973D01*
X09262Y-15015D01*
X09352Y-15075D01*
X09427Y-15151D01*
X09487Y-15241D01*
X09528Y-15340D01*
X09549Y-15446D01*
X09547Y-15569D01*
X09524Y-15674D01*
X09480Y-15772D01*
X09418Y-15860D01*
X09340Y-15935D01*
X09249Y-15992D01*
X09227Y-16000D01*
X09262Y-16015D01*
X09352Y-16075D01*
X09427Y-16151D01*
X09487Y-16241D01*
X09528Y-16340D01*
X09549Y-16446D01*
X09547Y-16569D01*
X09524Y-16674D01*
X09480Y-16772D01*
X09418Y-16860D01*
X09340Y-16935D01*
X09249Y-16992D01*
X09227Y-17000D01*
X09262Y-17015D01*
X09352Y-17075D01*
X09427Y-17151D01*
X09487Y-17241D01*
X09528Y-17340D01*
X09549Y-17446D01*
X09547Y-17569D01*
X09524Y-17674D01*
X09480Y-17772D01*
X09425Y-17850D01*
X09581Y-17850D01*
X09581Y-14052D01*
X09375Y-14048D01*
X09174Y-14003D01*
X08985Y-13921D01*
X08816Y-13803D01*
X08673Y-13655D01*
X08562Y-13482D01*
X08486Y-13291D01*
X08449Y-13088D01*
X08452Y-12882D01*
X08494Y-12681D01*
X08575Y-12492D01*
X08692Y-12322D01*
X08839Y-12178D01*
X09011Y-12065D01*
X09202Y-11988D01*
X09404Y-11949D01*
X09610Y-11951D01*
X09812Y-11992D01*
X10002Y-12072D01*
X10172Y-12187D01*
X10318Y-12333D01*
X10432Y-12505D01*
X10510Y-12695D01*
X10550Y-12897D01*
X10547Y-13132D01*
X10501Y-13333D01*
X10417Y-13521D01*
X10299Y-13689D01*
X10150Y-13831D01*
X09976Y-13942D01*
X09784Y-14016D01*
X09581Y-14052D01*
X09581Y-17850D01*
X10009Y-17850D01*
X10100Y-17860D01*
X10128Y-17863D01*
X10129Y-17863D01*
X10135Y-17864D01*
X10193Y-17883D01*
X10250Y-17900D01*
X10256Y-17903D01*
X10271Y-17911D01*
X10362Y-17960D01*
X10366Y-17963D01*
X10367Y-17964D01*
X10371Y-17967D01*
X10460Y-18040D01*
X12557Y-20137D01*
X12557Y-19750D01*
X12410Y-19747D01*
X12267Y-19716D01*
X12132Y-19657D01*
X12012Y-19573D01*
X11910Y-19467D01*
X11830Y-19344D01*
X11776Y-19207D01*
X11750Y-19063D01*
X11752Y-18916D01*
X11783Y-18772D01*
X11841Y-18637D01*
X11924Y-18516D01*
X12029Y-18413D01*
X12152Y-18333D01*
X12288Y-18278D01*
X12432Y-18251D01*
X12557Y-18251D01*
X12557Y-17250D01*
X12410Y-17247D01*
X12267Y-17216D01*
X12132Y-17157D01*
X12012Y-17073D01*
X11910Y-16967D01*
X11830Y-16844D01*
X11776Y-16707D01*
X11750Y-16563D01*
X11752Y-16416D01*
X11783Y-16272D01*
X11841Y-16137D01*
X11924Y-16016D01*
X12029Y-15913D01*
X12152Y-15833D01*
X12288Y-15778D01*
X12432Y-15751D01*
X12579Y-15752D01*
X12723Y-15781D01*
X12858Y-15838D01*
X12980Y-15920D01*
X13083Y-16025D01*
X13165Y-16147D01*
X13221Y-16283D01*
X13249Y-16427D01*
X13247Y-16595D01*
X13214Y-16738D01*
X13154Y-16872D01*
X13069Y-16992D01*
X12963Y-17093D01*
X12839Y-17172D01*
X12702Y-17225D01*
X12557Y-17250D01*
X12557Y-18251D01*
X12579Y-18252D01*
X12723Y-18281D01*
X12858Y-18338D01*
X12980Y-18420D01*
X13083Y-18525D01*
X13165Y-18647D01*
X13221Y-18783D01*
X13249Y-18927D01*
X13247Y-19095D01*
X13214Y-19238D01*
X13154Y-19372D01*
X13069Y-19492D01*
X12963Y-19593D01*
X12839Y-19672D01*
X12702Y-19725D01*
X12557Y-19750D01*
X12557Y-20137D01*
X12694Y-20275D01*
X12723Y-20281D01*
X12858Y-20338D01*
X12980Y-20420D01*
X13083Y-20525D01*
X13165Y-20647D01*
X13221Y-20783D01*
X13249Y-20927D01*
X13247Y-21095D01*
X13214Y-21238D01*
X13154Y-21372D01*
X13146Y-21383D01*
X15240Y-21383D01*
G54D10*
G36*
X11855Y-21383D02*
X11830Y-21344D01*
X11776Y-21207D01*
X11773Y-21192D01*
X09730Y-19150D01*
X09426Y-19150D01*
X09427Y-19151D01*
X09487Y-19241D01*
X09528Y-19340D01*
X09549Y-19446D01*
X09547Y-19569D01*
X09524Y-19674D01*
X09480Y-19772D01*
X09418Y-19860D01*
X09340Y-19935D01*
X09316Y-19950D01*
X09327Y-19950D01*
X09375Y-19960D01*
X09420Y-19979D01*
X09460Y-20007D01*
X09495Y-20042D01*
X09522Y-20083D01*
X09541Y-20128D01*
X09550Y-20176D01*
X09550Y-20203D01*
X09583Y-20214D01*
X09584Y-20214D01*
X09585Y-20215D01*
X09638Y-20244D01*
X09668Y-20269D01*
X09682Y-20281D01*
X10783Y-21383D01*
X11855Y-21383D01*
X11855Y-21383D01*
G37*
G54D34*
X11855Y-21383D02*
X11830Y-21344D01*
X11776Y-21207D01*
X11773Y-21192D01*
X09730Y-19150D01*
X09426Y-19150D01*
X09427Y-19151D01*
X09487Y-19241D01*
X09528Y-19340D01*
X09549Y-19446D01*
X09547Y-19569D01*
X09524Y-19674D01*
X09480Y-19772D01*
X09418Y-19860D01*
X09340Y-19935D01*
X09316Y-19950D01*
X09327Y-19950D01*
X09375Y-19960D01*
X09420Y-19979D01*
X09460Y-20007D01*
X09495Y-20042D01*
X09522Y-20083D01*
X09541Y-20128D01*
X09550Y-20176D01*
X09550Y-20203D01*
X09583Y-20214D01*
X09584Y-20214D01*
X09585Y-20215D01*
X09638Y-20244D01*
X09668Y-20269D01*
X09682Y-20281D01*
X10783Y-21383D01*
X11855Y-21383D01*
G54D10*
G36*
X93588Y-21360D02*
X93770Y-21177D01*
X93750Y-21063D01*
X93752Y-20916D01*
X93783Y-20772D01*
X93841Y-20637D01*
X93884Y-20574D01*
X90615Y-20574D01*
X90665Y-20647D01*
X90721Y-20783D01*
X90749Y-20927D01*
X90747Y-21095D01*
X90714Y-21238D01*
X90659Y-21360D01*
X93588Y-21360D01*
X93588Y-21360D01*
G37*
G54D34*
X93588Y-21360D02*
X93770Y-21177D01*
X93750Y-21063D01*
X93752Y-20916D01*
X93783Y-20772D01*
X93841Y-20637D01*
X93884Y-20574D01*
X90615Y-20574D01*
X90665Y-20647D01*
X90721Y-20783D01*
X90749Y-20927D01*
X90747Y-21095D01*
X90714Y-21238D01*
X90659Y-21360D01*
X93588Y-21360D01*
G54D10*
G36*
X89340Y-21360D02*
X89330Y-21344D01*
X89276Y-21207D01*
X89250Y-21063D01*
X89252Y-20916D01*
X89283Y-20772D01*
X89341Y-20637D01*
X89384Y-20574D01*
X86115Y-20574D01*
X86165Y-20647D01*
X86221Y-20783D01*
X86249Y-20927D01*
X86247Y-21095D01*
X86214Y-21238D01*
X86159Y-21360D01*
X89340Y-21360D01*
X89340Y-21360D01*
G37*
G54D34*
X89340Y-21360D02*
X89330Y-21344D01*
X89276Y-21207D01*
X89250Y-21063D01*
X89252Y-20916D01*
X89283Y-20772D01*
X89341Y-20637D01*
X89384Y-20574D01*
X86115Y-20574D01*
X86165Y-20647D01*
X86221Y-20783D01*
X86249Y-20927D01*
X86247Y-21095D01*
X86214Y-21238D01*
X86159Y-21360D01*
X89340Y-21360D01*
G54D10*
G36*
X84840Y-21360D02*
X84830Y-21344D01*
X84776Y-21207D01*
X84750Y-21063D01*
X84752Y-20916D01*
X84783Y-20772D01*
X84841Y-20637D01*
X84884Y-20574D01*
X81615Y-20574D01*
X81665Y-20647D01*
X81721Y-20783D01*
X81749Y-20927D01*
X81747Y-21095D01*
X81714Y-21238D01*
X81659Y-21360D01*
X84840Y-21360D01*
X84840Y-21360D01*
G37*
G54D34*
X84840Y-21360D02*
X84830Y-21344D01*
X84776Y-21207D01*
X84750Y-21063D01*
X84752Y-20916D01*
X84783Y-20772D01*
X84841Y-20637D01*
X84884Y-20574D01*
X81615Y-20574D01*
X81665Y-20647D01*
X81721Y-20783D01*
X81749Y-20927D01*
X81747Y-21095D01*
X81714Y-21238D01*
X81659Y-21360D01*
X84840Y-21360D01*
G54D10*
G36*
X80340Y-21360D02*
X80330Y-21344D01*
X80276Y-21207D01*
X80250Y-21063D01*
X80252Y-20916D01*
X80283Y-20772D01*
X80341Y-20637D01*
X80384Y-20574D01*
X77115Y-20574D01*
X77165Y-20647D01*
X77221Y-20783D01*
X77249Y-20927D01*
X77247Y-21095D01*
X77214Y-21238D01*
X77159Y-21360D01*
X80340Y-21360D01*
X80340Y-21360D01*
G37*
G54D34*
X80340Y-21360D02*
X80330Y-21344D01*
X80276Y-21207D01*
X80250Y-21063D01*
X80252Y-20916D01*
X80283Y-20772D01*
X80341Y-20637D01*
X80384Y-20574D01*
X77115Y-20574D01*
X77165Y-20647D01*
X77221Y-20783D01*
X77249Y-20927D01*
X77247Y-21095D01*
X77214Y-21238D01*
X77159Y-21360D01*
X80340Y-21360D01*
G54D10*
G36*
X75840Y-21360D02*
X75830Y-21344D01*
X75776Y-21207D01*
X75750Y-21063D01*
X75752Y-20916D01*
X75783Y-20772D01*
X75841Y-20637D01*
X75884Y-20574D01*
X72615Y-20574D01*
X72665Y-20647D01*
X72721Y-20783D01*
X72749Y-20927D01*
X72747Y-21095D01*
X72714Y-21238D01*
X72659Y-21360D01*
X75840Y-21360D01*
X75840Y-21360D01*
G37*
G54D34*
X75840Y-21360D02*
X75830Y-21344D01*
X75776Y-21207D01*
X75750Y-21063D01*
X75752Y-20916D01*
X75783Y-20772D01*
X75841Y-20637D01*
X75884Y-20574D01*
X72615Y-20574D01*
X72665Y-20647D01*
X72721Y-20783D01*
X72749Y-20927D01*
X72747Y-21095D01*
X72714Y-21238D01*
X72659Y-21360D01*
X75840Y-21360D01*
G54D10*
G36*
X71340Y-21360D02*
X71330Y-21344D01*
X71276Y-21207D01*
X71250Y-21063D01*
X71252Y-20916D01*
X71283Y-20772D01*
X71341Y-20637D01*
X71384Y-20574D01*
X69959Y-20574D01*
X69932Y-20600D01*
X69862Y-20645D01*
X69784Y-20675D01*
X69702Y-20690D01*
X69619Y-20688D01*
X69537Y-20670D01*
X69461Y-20637D01*
X69392Y-20589D01*
X69335Y-20530D01*
X69289Y-20460D01*
X69275Y-20426D01*
X67980Y-20426D01*
X67992Y-20487D01*
X67993Y-21020D01*
X67991Y-21120D01*
X67971Y-21217D01*
X67931Y-21309D01*
X67896Y-21360D01*
X71340Y-21360D01*
X71340Y-21360D01*
G37*
G54D34*
X71340Y-21360D02*
X71330Y-21344D01*
X71276Y-21207D01*
X71250Y-21063D01*
X71252Y-20916D01*
X71283Y-20772D01*
X71341Y-20637D01*
X71384Y-20574D01*
X69959Y-20574D01*
X69932Y-20600D01*
X69862Y-20645D01*
X69784Y-20675D01*
X69702Y-20690D01*
X69619Y-20688D01*
X69537Y-20670D01*
X69461Y-20637D01*
X69392Y-20589D01*
X69335Y-20530D01*
X69289Y-20460D01*
X69275Y-20426D01*
X67980Y-20426D01*
X67992Y-20487D01*
X67993Y-21020D01*
X67991Y-21120D01*
X67971Y-21217D01*
X67931Y-21309D01*
X67896Y-21360D01*
X71340Y-21360D01*
G54D10*
G36*
X67071Y-21360D02*
X67033Y-21303D01*
X66995Y-21211D01*
X66991Y-21194D01*
X66987Y-21217D01*
X66947Y-21309D01*
X66912Y-21360D01*
X67071Y-21360D01*
X67071Y-21360D01*
G37*
G54D34*
X67071Y-21360D02*
X67033Y-21303D01*
X66995Y-21211D01*
X66991Y-21194D01*
X66987Y-21217D01*
X66947Y-21309D01*
X66912Y-21360D01*
X67071Y-21360D01*
G54D10*
G36*
X66087Y-21360D02*
X66049Y-21303D01*
X66011Y-21211D01*
X66007Y-21194D01*
X66003Y-21217D01*
X65963Y-21309D01*
X65928Y-21360D01*
X66087Y-21360D01*
X66087Y-21360D01*
G37*
G54D34*
X66087Y-21360D02*
X66049Y-21303D01*
X66011Y-21211D01*
X66007Y-21194D01*
X66003Y-21217D01*
X65963Y-21309D01*
X65928Y-21360D01*
X66087Y-21360D01*
G54D10*
G36*
X65103Y-21360D02*
X65065Y-21303D01*
X65027Y-21211D01*
X65008Y-21113D01*
X65007Y-20580D01*
X65009Y-20480D01*
X65029Y-20383D01*
X65069Y-20291D01*
X65125Y-20209D01*
X65196Y-20139D01*
X65279Y-20085D01*
X65372Y-20047D01*
X65470Y-20029D01*
X65569Y-20029D01*
X65667Y-20049D01*
X65759Y-20088D01*
X65841Y-20144D01*
X65911Y-20214D01*
X65967Y-20297D01*
X66005Y-20389D01*
X66008Y-20405D01*
X66013Y-20383D01*
X66053Y-20291D01*
X66109Y-20209D01*
X66180Y-20139D01*
X66263Y-20085D01*
X66356Y-20047D01*
X66454Y-20029D01*
X66553Y-20029D01*
X66651Y-20049D01*
X66731Y-20083D01*
X66181Y-19532D01*
X66178Y-19529D01*
X66162Y-19509D01*
X66142Y-19485D01*
X66141Y-19483D01*
X66140Y-19482D01*
X66129Y-19461D01*
X66113Y-19431D01*
X66112Y-19428D01*
X66095Y-19370D01*
X66091Y-19328D01*
X66090Y-19313D01*
X66090Y-19167D01*
X64288Y-20969D01*
X64286Y-20970D01*
X64285Y-20972D01*
X64265Y-20987D01*
X64241Y-21008D01*
X64239Y-21008D01*
X64238Y-21010D01*
X64217Y-21020D01*
X64187Y-21037D01*
X64184Y-21037D01*
X64184Y-21038D01*
X64126Y-21055D01*
X64084Y-21058D01*
X64069Y-21060D01*
X64020Y-21060D01*
X64024Y-21076D01*
X64023Y-21171D01*
X64004Y-21252D01*
X63970Y-21329D01*
X63948Y-21360D01*
X65103Y-21360D01*
X65103Y-21360D01*
G37*
G54D34*
X65103Y-21360D02*
X65065Y-21303D01*
X65027Y-21211D01*
X65008Y-21113D01*
X65007Y-20580D01*
X65009Y-20480D01*
X65029Y-20383D01*
X65069Y-20291D01*
X65125Y-20209D01*
X65196Y-20139D01*
X65279Y-20085D01*
X65372Y-20047D01*
X65470Y-20029D01*
X65569Y-20029D01*
X65667Y-20049D01*
X65759Y-20088D01*
X65841Y-20144D01*
X65911Y-20214D01*
X65967Y-20297D01*
X66005Y-20389D01*
X66008Y-20405D01*
X66013Y-20383D01*
X66053Y-20291D01*
X66109Y-20209D01*
X66180Y-20139D01*
X66263Y-20085D01*
X66356Y-20047D01*
X66454Y-20029D01*
X66553Y-20029D01*
X66651Y-20049D01*
X66731Y-20083D01*
X66181Y-19532D01*
X66178Y-19529D01*
X66162Y-19509D01*
X66142Y-19485D01*
X66141Y-19483D01*
X66140Y-19482D01*
X66129Y-19461D01*
X66113Y-19431D01*
X66112Y-19428D01*
X66095Y-19370D01*
X66091Y-19328D01*
X66090Y-19313D01*
X66090Y-19167D01*
X64288Y-20969D01*
X64286Y-20970D01*
X64285Y-20972D01*
X64265Y-20987D01*
X64241Y-21008D01*
X64239Y-21008D01*
X64238Y-21010D01*
X64217Y-21020D01*
X64187Y-21037D01*
X64184Y-21037D01*
X64184Y-21038D01*
X64126Y-21055D01*
X64084Y-21058D01*
X64069Y-21060D01*
X64020Y-21060D01*
X64024Y-21076D01*
X64023Y-21171D01*
X64004Y-21252D01*
X63970Y-21329D01*
X63948Y-21360D01*
X65103Y-21360D01*
G54D10*
G36*
X58794Y-20709D02*
X58794Y-20605D01*
X58795Y-20599D01*
X58773Y-20614D01*
X58695Y-20644D01*
X58622Y-20657D01*
X58673Y-20662D01*
X58746Y-20684D01*
X58794Y-20709D01*
X58794Y-20709D01*
G37*
G54D34*
X58794Y-20709D02*
X58794Y-20605D01*
X58795Y-20599D01*
X58773Y-20614D01*
X58695Y-20644D01*
X58622Y-20657D01*
X58673Y-20662D01*
X58746Y-20684D01*
X58794Y-20709D01*
G54D10*
G36*
X58520Y-20655D02*
X58448Y-20639D01*
X58372Y-20606D01*
X58303Y-20558D01*
X58246Y-20499D01*
X58200Y-20429D01*
X58170Y-20351D01*
X58154Y-20269D01*
X58156Y-20186D01*
X58173Y-20104D01*
X58206Y-20028D01*
X58253Y-19959D01*
X58302Y-19910D01*
X58282Y-19858D01*
X58266Y-19776D01*
X58268Y-19693D01*
X58285Y-19611D01*
X58318Y-19535D01*
X58361Y-19471D01*
X57701Y-19471D01*
X57701Y-19809D01*
X57687Y-19935D01*
X57648Y-20056D01*
X57615Y-20116D01*
X57615Y-20141D01*
X57656Y-20169D01*
X57715Y-20228D01*
X57761Y-20297D01*
X57793Y-20374D01*
X57809Y-20456D01*
X57808Y-20551D01*
X57789Y-20632D01*
X57778Y-20655D01*
X58520Y-20655D01*
X58520Y-20655D01*
G37*
G54D34*
X58520Y-20655D02*
X58448Y-20639D01*
X58372Y-20606D01*
X58303Y-20558D01*
X58246Y-20499D01*
X58200Y-20429D01*
X58170Y-20351D01*
X58154Y-20269D01*
X58156Y-20186D01*
X58173Y-20104D01*
X58206Y-20028D01*
X58253Y-19959D01*
X58302Y-19910D01*
X58282Y-19858D01*
X58266Y-19776D01*
X58268Y-19693D01*
X58285Y-19611D01*
X58318Y-19535D01*
X58361Y-19471D01*
X57701Y-19471D01*
X57701Y-19809D01*
X57687Y-19935D01*
X57648Y-20056D01*
X57615Y-20116D01*
X57615Y-20141D01*
X57656Y-20169D01*
X57715Y-20228D01*
X57761Y-20297D01*
X57793Y-20374D01*
X57809Y-20456D01*
X57808Y-20551D01*
X57789Y-20632D01*
X57778Y-20655D01*
X58520Y-20655D01*
G54D10*
G36*
X62977Y-20440D02*
X62945Y-20422D01*
X62848Y-20341D01*
X62768Y-20242D01*
X62709Y-20129D01*
X62674Y-20008D01*
X62662Y-19881D01*
X62675Y-19755D01*
X62713Y-19634D01*
X62754Y-19556D01*
X62732Y-19558D01*
X62718Y-19560D01*
X62197Y-19560D01*
X62206Y-19608D01*
X62206Y-19895D01*
X62196Y-19943D01*
X62177Y-19988D01*
X62168Y-19999D01*
X62178Y-20015D01*
X62197Y-20060D01*
X62206Y-20108D01*
X62206Y-20395D01*
X62202Y-20411D01*
X62197Y-20440D01*
X62977Y-20440D01*
X62977Y-20440D01*
G37*
G54D34*
X62977Y-20440D02*
X62945Y-20422D01*
X62848Y-20341D01*
X62768Y-20242D01*
X62709Y-20129D01*
X62674Y-20008D01*
X62662Y-19881D01*
X62675Y-19755D01*
X62713Y-19634D01*
X62754Y-19556D01*
X62732Y-19558D01*
X62718Y-19560D01*
X62197Y-19560D01*
X62206Y-19608D01*
X62206Y-19895D01*
X62196Y-19943D01*
X62177Y-19988D01*
X62168Y-19999D01*
X62178Y-20015D01*
X62197Y-20060D01*
X62206Y-20108D01*
X62206Y-20395D01*
X62202Y-20411D01*
X62197Y-20440D01*
X62977Y-20440D01*
G54D10*
G36*
X66992Y-20405D02*
X66997Y-20383D01*
X67008Y-20355D01*
X66983Y-20335D01*
X66955Y-20307D01*
X66989Y-20389D01*
X66992Y-20405D01*
X66992Y-20405D01*
G37*
G54D34*
X66992Y-20405D02*
X66997Y-20383D01*
X67008Y-20355D01*
X66983Y-20335D01*
X66955Y-20307D01*
X66989Y-20389D01*
X66992Y-20405D01*
G54D10*
G36*
X106510Y-20036D02*
X106542Y-20005D01*
X106576Y-19982D01*
X106428Y-19982D01*
X106476Y-20008D01*
X106505Y-20033D01*
X106510Y-20036D01*
X106510Y-20036D01*
G37*
G54D34*
X106510Y-20036D02*
X106542Y-20005D01*
X106576Y-19982D01*
X106428Y-19982D01*
X106476Y-20008D01*
X106505Y-20033D01*
X106510Y-20036D01*
G54D10*
G36*
X60383Y-19854D02*
X60706Y-19531D01*
X60709Y-19529D01*
X60718Y-19520D01*
X60754Y-19492D01*
X60808Y-19463D01*
X60853Y-19449D01*
X60849Y-19440D01*
X60840Y-19392D01*
X60840Y-19105D01*
X60850Y-19057D01*
X60869Y-19012D01*
X60897Y-18972D01*
X60900Y-18968D01*
X60898Y-18967D01*
X60841Y-18908D01*
X60820Y-18877D01*
X60383Y-19315D01*
X60383Y-19854D01*
X60383Y-19854D01*
G37*
G54D34*
X60383Y-19854D02*
X60706Y-19531D01*
X60709Y-19529D01*
X60718Y-19520D01*
X60754Y-19492D01*
X60808Y-19463D01*
X60853Y-19449D01*
X60849Y-19440D01*
X60840Y-19392D01*
X60840Y-19105D01*
X60850Y-19057D01*
X60869Y-19012D01*
X60897Y-18972D01*
X60900Y-18968D01*
X60898Y-18967D01*
X60841Y-18908D01*
X60820Y-18877D01*
X60383Y-19315D01*
X60383Y-19854D01*
G54D10*
G36*
X67331Y-19806D02*
X67524Y-19806D01*
X67181Y-19462D01*
X67178Y-19459D01*
X67162Y-19439D01*
X67142Y-19415D01*
X67141Y-19413D01*
X67140Y-19412D01*
X67129Y-19390D01*
X67113Y-19361D01*
X67112Y-19358D01*
X67095Y-19300D01*
X67091Y-19258D01*
X67090Y-19243D01*
X67090Y-18997D01*
X67042Y-19006D01*
X66755Y-19006D01*
X66710Y-18996D01*
X66710Y-19184D01*
X67331Y-19806D01*
X67331Y-19806D01*
G37*
G54D34*
X67331Y-19806D02*
X67524Y-19806D01*
X67181Y-19462D01*
X67178Y-19459D01*
X67162Y-19439D01*
X67142Y-19415D01*
X67141Y-19413D01*
X67140Y-19412D01*
X67129Y-19390D01*
X67113Y-19361D01*
X67112Y-19358D01*
X67095Y-19300D01*
X67091Y-19258D01*
X67090Y-19243D01*
X67090Y-18997D01*
X67042Y-19006D01*
X66755Y-19006D01*
X66710Y-18996D01*
X66710Y-19184D01*
X67331Y-19806D01*
G54D10*
G36*
X64835Y-19544D02*
X65151Y-19229D01*
X64697Y-19229D01*
X64738Y-19279D01*
X64797Y-19392D01*
X64833Y-19513D01*
X64835Y-19544D01*
X64835Y-19544D01*
G37*
G54D34*
X64835Y-19544D02*
X65151Y-19229D01*
X64697Y-19229D01*
X64738Y-19279D01*
X64797Y-19392D01*
X64833Y-19513D01*
X64835Y-19544D01*
G54D10*
G36*
X106467Y-19362D02*
X106474Y-19333D01*
X106517Y-19234D01*
X106577Y-19146D01*
X106654Y-19070D01*
X106744Y-19011D01*
X106771Y-18999D01*
X106731Y-18982D01*
X106643Y-18920D01*
X106568Y-18843D01*
X106509Y-18752D01*
X106470Y-18652D01*
X106450Y-18546D01*
X106452Y-18439D01*
X106474Y-18333D01*
X106517Y-18234D01*
X106577Y-18146D01*
X106654Y-18070D01*
X106744Y-18011D01*
X106771Y-17999D01*
X106731Y-17982D01*
X106643Y-17920D01*
X106568Y-17843D01*
X106509Y-17752D01*
X106470Y-17652D01*
X106450Y-17546D01*
X106452Y-17439D01*
X106474Y-17333D01*
X106517Y-17234D01*
X106574Y-17150D01*
X105950Y-17150D01*
X105950Y-18921D01*
X105936Y-19047D01*
X105897Y-19168D01*
X105836Y-19279D01*
X105766Y-19362D01*
X106467Y-19362D01*
X106467Y-19362D01*
G37*
G54D34*
X106467Y-19362D02*
X106474Y-19333D01*
X106517Y-19234D01*
X106577Y-19146D01*
X106654Y-19070D01*
X106744Y-19011D01*
X106771Y-18999D01*
X106731Y-18982D01*
X106643Y-18920D01*
X106568Y-18843D01*
X106509Y-18752D01*
X106470Y-18652D01*
X106450Y-18546D01*
X106452Y-18439D01*
X106474Y-18333D01*
X106517Y-18234D01*
X106577Y-18146D01*
X106654Y-18070D01*
X106744Y-18011D01*
X106771Y-17999D01*
X106731Y-17982D01*
X106643Y-17920D01*
X106568Y-17843D01*
X106509Y-17752D01*
X106470Y-17652D01*
X106450Y-17546D01*
X106452Y-17439D01*
X106474Y-17333D01*
X106517Y-17234D01*
X106574Y-17150D01*
X105950Y-17150D01*
X105950Y-18921D01*
X105936Y-19047D01*
X105897Y-19168D01*
X105836Y-19279D01*
X105766Y-19362D01*
X106467Y-19362D01*
G54D10*
G36*
X55423Y-19312D02*
X55442Y-19286D01*
X55477Y-19251D01*
X55518Y-19224D01*
X55563Y-19205D01*
X55611Y-19196D01*
X56290Y-19196D01*
X56338Y-19206D01*
X56383Y-19225D01*
X56401Y-19237D01*
X56401Y-19091D01*
X56368Y-19058D01*
X55168Y-19058D01*
X55423Y-19312D01*
X55423Y-19312D01*
G37*
G54D34*
X55423Y-19312D02*
X55442Y-19286D01*
X55477Y-19251D01*
X55518Y-19224D01*
X55563Y-19205D01*
X55611Y-19196D01*
X56290Y-19196D01*
X56338Y-19206D01*
X56383Y-19225D01*
X56401Y-19237D01*
X56401Y-19091D01*
X56368Y-19058D01*
X55168Y-19058D01*
X55423Y-19312D01*
G54D10*
G36*
X63845Y-19089D02*
X63954Y-19034D01*
X64012Y-19017D01*
X63845Y-19017D01*
X63845Y-19089D01*
X63845Y-19089D01*
G37*
G54D34*
X63845Y-19089D02*
X63954Y-19034D01*
X64012Y-19017D01*
X63845Y-19017D01*
X63845Y-19089D01*
G54D10*
G36*
X59939Y-18882D02*
X60474Y-18347D01*
X59265Y-18347D01*
X59288Y-18366D01*
X59368Y-18465D01*
X59427Y-18578D01*
X59462Y-18699D01*
X59474Y-18826D01*
X59468Y-18882D01*
X59939Y-18882D01*
X59939Y-18882D01*
G37*
G54D34*
X59939Y-18882D02*
X60474Y-18347D01*
X59265Y-18347D01*
X59288Y-18366D01*
X59368Y-18465D01*
X59427Y-18578D01*
X59462Y-18699D01*
X59474Y-18826D01*
X59468Y-18882D01*
X59939Y-18882D01*
G54D10*
G36*
X50953Y-18685D02*
X49101Y-16833D01*
X48441Y-16833D01*
X48443Y-16841D01*
X48443Y-17206D01*
X48433Y-17254D01*
X48414Y-17299D01*
X48386Y-17339D01*
X48351Y-17374D01*
X48310Y-17401D01*
X48265Y-17420D01*
X48217Y-17429D01*
X48016Y-17429D01*
X48055Y-17468D01*
X48061Y-17475D01*
X48140Y-17574D01*
X48198Y-17687D01*
X48233Y-17808D01*
X48245Y-17934D01*
X48231Y-18061D01*
X48193Y-18182D01*
X48132Y-18293D01*
X48051Y-18391D01*
X47953Y-18471D01*
X47840Y-18530D01*
X47719Y-18566D01*
X47593Y-18578D01*
X47467Y-18565D01*
X47345Y-18528D01*
X47233Y-18468D01*
X47135Y-18388D01*
X46948Y-18201D01*
X46391Y-18201D01*
X46385Y-18200D01*
X46870Y-18685D01*
X50953Y-18685D01*
X50953Y-18685D01*
G37*
G54D34*
X50953Y-18685D02*
X49101Y-16833D01*
X48441Y-16833D01*
X48443Y-16841D01*
X48443Y-17206D01*
X48433Y-17254D01*
X48414Y-17299D01*
X48386Y-17339D01*
X48351Y-17374D01*
X48310Y-17401D01*
X48265Y-17420D01*
X48217Y-17429D01*
X48016Y-17429D01*
X48055Y-17468D01*
X48061Y-17475D01*
X48140Y-17574D01*
X48198Y-17687D01*
X48233Y-17808D01*
X48245Y-17934D01*
X48231Y-18061D01*
X48193Y-18182D01*
X48132Y-18293D01*
X48051Y-18391D01*
X47953Y-18471D01*
X47840Y-18530D01*
X47719Y-18566D01*
X47593Y-18578D01*
X47467Y-18565D01*
X47345Y-18528D01*
X47233Y-18468D01*
X47135Y-18388D01*
X46948Y-18201D01*
X46391Y-18201D01*
X46385Y-18200D01*
X46870Y-18685D01*
X50953Y-18685D01*
G54D10*
G36*
X58686Y-18171D02*
X58357Y-17842D01*
X56951Y-17842D01*
X57000Y-17868D01*
X57004Y-17871D01*
X57005Y-17872D01*
X57009Y-17875D01*
X57098Y-17948D01*
X57321Y-18171D01*
X58686Y-18171D01*
X58686Y-18171D01*
G37*
G54D34*
X58686Y-18171D02*
X58357Y-17842D01*
X56951Y-17842D01*
X57000Y-17868D01*
X57004Y-17871D01*
X57005Y-17872D01*
X57009Y-17875D01*
X57098Y-17948D01*
X57321Y-18171D01*
X58686Y-18171D01*
G54D10*
G36*
X64052Y-17783D02*
X64327Y-17507D01*
X64268Y-17518D01*
X64248Y-17517D01*
X64065Y-17699D01*
X64062Y-17736D01*
X64047Y-17783D01*
X64052Y-17783D01*
X64052Y-17783D01*
G37*
G54D34*
X64052Y-17783D02*
X64327Y-17507D01*
X64268Y-17518D01*
X64248Y-17517D01*
X64065Y-17699D01*
X64062Y-17736D01*
X64047Y-17783D01*
X64052Y-17783D01*
G54D10*
G36*
X53382Y-17758D02*
X53374Y-17751D01*
X53255Y-17632D01*
X53239Y-17612D01*
X53219Y-17588D01*
X53218Y-17586D01*
X53217Y-17585D01*
X53206Y-17564D01*
X53190Y-17534D01*
X53189Y-17531D01*
X53180Y-17503D01*
X53096Y-17503D01*
X53048Y-17493D01*
X53003Y-17474D01*
X52963Y-17446D01*
X52928Y-17411D01*
X52901Y-17370D01*
X52884Y-17331D01*
X52877Y-17332D01*
X52204Y-17332D01*
X52200Y-17339D01*
X52165Y-17374D01*
X52124Y-17401D01*
X52079Y-17420D01*
X52031Y-17429D01*
X51536Y-17429D01*
X51865Y-17758D01*
X53382Y-17758D01*
X53382Y-17758D01*
G37*
G54D34*
X53382Y-17758D02*
X53374Y-17751D01*
X53255Y-17632D01*
X53239Y-17612D01*
X53219Y-17588D01*
X53218Y-17586D01*
X53217Y-17585D01*
X53206Y-17564D01*
X53190Y-17534D01*
X53189Y-17531D01*
X53180Y-17503D01*
X53096Y-17503D01*
X53048Y-17493D01*
X53003Y-17474D01*
X52963Y-17446D01*
X52928Y-17411D01*
X52901Y-17370D01*
X52884Y-17331D01*
X52877Y-17332D01*
X52204Y-17332D01*
X52200Y-17339D01*
X52165Y-17374D01*
X52124Y-17401D01*
X52079Y-17420D01*
X52031Y-17429D01*
X51536Y-17429D01*
X51865Y-17758D01*
X53382Y-17758D01*
G54D10*
G36*
X65650Y-17677D02*
X65665Y-17668D01*
X65710Y-17649D01*
X65758Y-17640D01*
X65763Y-17640D01*
X65753Y-17614D01*
X65737Y-17532D01*
X65739Y-17449D01*
X65756Y-17367D01*
X65789Y-17291D01*
X65836Y-17222D01*
X65895Y-17163D01*
X65965Y-17118D01*
X66042Y-17086D01*
X66124Y-17071D01*
X66150Y-17071D01*
X66261Y-16960D01*
X66255Y-16960D01*
X66207Y-16950D01*
X66162Y-16931D01*
X66149Y-16922D01*
X66135Y-16932D01*
X66090Y-16951D01*
X66042Y-16960D01*
X65755Y-16960D01*
X65728Y-16954D01*
X65710Y-16951D01*
X65708Y-16950D01*
X65707Y-16950D01*
X65700Y-16947D01*
X65686Y-16993D01*
X65685Y-16994D01*
X65685Y-16995D01*
X65656Y-17048D01*
X65630Y-17078D01*
X65619Y-17092D01*
X65617Y-17094D01*
X65066Y-17644D01*
X65093Y-17650D01*
X65138Y-17669D01*
X65150Y-17677D01*
X65165Y-17668D01*
X65210Y-17649D01*
X65258Y-17640D01*
X65545Y-17640D01*
X65593Y-17650D01*
X65638Y-17669D01*
X65650Y-17677D01*
X65650Y-17677D01*
G37*
G54D34*
X65650Y-17677D02*
X65665Y-17668D01*
X65710Y-17649D01*
X65758Y-17640D01*
X65763Y-17640D01*
X65753Y-17614D01*
X65737Y-17532D01*
X65739Y-17449D01*
X65756Y-17367D01*
X65789Y-17291D01*
X65836Y-17222D01*
X65895Y-17163D01*
X65965Y-17118D01*
X66042Y-17086D01*
X66124Y-17071D01*
X66150Y-17071D01*
X66261Y-16960D01*
X66255Y-16960D01*
X66207Y-16950D01*
X66162Y-16931D01*
X66149Y-16922D01*
X66135Y-16932D01*
X66090Y-16951D01*
X66042Y-16960D01*
X65755Y-16960D01*
X65728Y-16954D01*
X65710Y-16951D01*
X65708Y-16950D01*
X65707Y-16950D01*
X65700Y-16947D01*
X65686Y-16993D01*
X65685Y-16994D01*
X65685Y-16995D01*
X65656Y-17048D01*
X65630Y-17078D01*
X65619Y-17092D01*
X65617Y-17094D01*
X65066Y-17644D01*
X65093Y-17650D01*
X65138Y-17669D01*
X65150Y-17677D01*
X65165Y-17668D01*
X65210Y-17649D01*
X65258Y-17640D01*
X65545Y-17640D01*
X65593Y-17650D01*
X65638Y-17669D01*
X65650Y-17677D01*
G54D10*
G36*
X67599Y-17652D02*
X67614Y-17607D01*
X67614Y-17605D01*
X67615Y-17605D01*
X67642Y-17553D01*
X67612Y-17522D01*
X67566Y-17452D01*
X67536Y-17374D01*
X67520Y-17292D01*
X67520Y-17269D01*
X67434Y-17183D01*
X67396Y-17183D01*
X67383Y-17181D01*
X67338Y-17177D01*
X67280Y-17159D01*
X67278Y-17158D01*
X67229Y-17131D01*
X67235Y-17140D01*
X67267Y-17217D01*
X67283Y-17299D01*
X67282Y-17394D01*
X67263Y-17475D01*
X67229Y-17552D01*
X67210Y-17579D01*
X67210Y-17649D01*
X67258Y-17640D01*
X67545Y-17640D01*
X67593Y-17650D01*
X67599Y-17652D01*
X67599Y-17652D01*
G37*
G54D34*
X67599Y-17652D02*
X67614Y-17607D01*
X67614Y-17605D01*
X67615Y-17605D01*
X67642Y-17553D01*
X67612Y-17522D01*
X67566Y-17452D01*
X67536Y-17374D01*
X67520Y-17292D01*
X67520Y-17269D01*
X67434Y-17183D01*
X67396Y-17183D01*
X67383Y-17181D01*
X67338Y-17177D01*
X67280Y-17159D01*
X67278Y-17158D01*
X67229Y-17131D01*
X67235Y-17140D01*
X67267Y-17217D01*
X67283Y-17299D01*
X67282Y-17394D01*
X67263Y-17475D01*
X67229Y-17552D01*
X67210Y-17579D01*
X67210Y-17649D01*
X67258Y-17640D01*
X67545Y-17640D01*
X67593Y-17650D01*
X67599Y-17652D01*
G54D10*
G36*
X58953Y-17562D02*
X58950Y-17546D01*
X58952Y-17439D01*
X58974Y-17333D01*
X59017Y-17234D01*
X59077Y-17146D01*
X59154Y-17070D01*
X59244Y-17011D01*
X59271Y-16999D01*
X59231Y-16982D01*
X59143Y-16920D01*
X59068Y-16843D01*
X59009Y-16752D01*
X58970Y-16652D01*
X58950Y-16546D01*
X58952Y-16439D01*
X58974Y-16333D01*
X59017Y-16234D01*
X59077Y-16146D01*
X59154Y-16070D01*
X59244Y-16011D01*
X59344Y-15971D01*
X59450Y-15951D01*
X59557Y-15951D01*
X59601Y-15960D01*
X60272Y-15290D01*
X60282Y-15280D01*
X60318Y-15252D01*
X60372Y-15223D01*
X60374Y-15222D01*
X60375Y-15222D01*
X60433Y-15205D01*
X60475Y-15201D01*
X60490Y-15200D01*
X65919Y-15200D01*
X65919Y-13774D01*
X65921Y-13756D01*
X65925Y-13717D01*
X65943Y-13658D01*
X65943Y-13656D01*
X65944Y-13656D01*
X65973Y-13603D01*
X65998Y-13572D01*
X66010Y-13559D01*
X66136Y-13432D01*
X65771Y-13432D01*
X65406Y-13796D01*
X65413Y-13798D01*
X65512Y-13840D01*
X65602Y-13900D01*
X65677Y-13976D01*
X65737Y-14066D01*
X65778Y-14165D01*
X65799Y-14271D01*
X65798Y-14295D01*
X65799Y-14298D01*
X65798Y-14312D01*
X65797Y-14394D01*
X65774Y-14499D01*
X65730Y-14597D01*
X65668Y-14685D01*
X65590Y-14760D01*
X65531Y-14796D01*
X65531Y-14797D01*
X65530Y-14797D01*
X65499Y-14817D01*
X65399Y-14856D01*
X65292Y-14875D01*
X65185Y-14873D01*
X65080Y-14850D01*
X64981Y-14807D01*
X64893Y-14745D01*
X64818Y-14668D01*
X64759Y-14577D01*
X64721Y-14481D01*
X64195Y-15008D01*
X64192Y-15011D01*
X64172Y-15027D01*
X64148Y-15047D01*
X64146Y-15047D01*
X64145Y-15049D01*
X64124Y-15059D01*
X64094Y-15076D01*
X64091Y-15076D01*
X64091Y-15077D01*
X64033Y-15094D01*
X63991Y-15097D01*
X63976Y-15099D01*
X60093Y-15099D01*
X58245Y-16947D01*
X58225Y-16962D01*
X58201Y-16983D01*
X58199Y-16983D01*
X58198Y-16985D01*
X58176Y-16995D01*
X58147Y-17012D01*
X58144Y-17012D01*
X58144Y-17013D01*
X58086Y-17030D01*
X58043Y-17033D01*
X58029Y-17035D01*
X57739Y-17035D01*
X57735Y-17055D01*
X57716Y-17100D01*
X57688Y-17140D01*
X57653Y-17175D01*
X57612Y-17202D01*
X57567Y-17221D01*
X57561Y-17222D01*
X58489Y-17222D01*
X58506Y-17224D01*
X58546Y-17228D01*
X58605Y-17246D01*
X58606Y-17246D01*
X58607Y-17247D01*
X58660Y-17276D01*
X58690Y-17301D01*
X58704Y-17313D01*
X58953Y-17562D01*
X58953Y-17562D01*
G37*
G54D34*
X58953Y-17562D02*
X58950Y-17546D01*
X58952Y-17439D01*
X58974Y-17333D01*
X59017Y-17234D01*
X59077Y-17146D01*
X59154Y-17070D01*
X59244Y-17011D01*
X59271Y-16999D01*
X59231Y-16982D01*
X59143Y-16920D01*
X59068Y-16843D01*
X59009Y-16752D01*
X58970Y-16652D01*
X58950Y-16546D01*
X58952Y-16439D01*
X58974Y-16333D01*
X59017Y-16234D01*
X59077Y-16146D01*
X59154Y-16070D01*
X59244Y-16011D01*
X59344Y-15971D01*
X59450Y-15951D01*
X59557Y-15951D01*
X59601Y-15960D01*
X60272Y-15290D01*
X60282Y-15280D01*
X60318Y-15252D01*
X60372Y-15223D01*
X60374Y-15222D01*
X60375Y-15222D01*
X60433Y-15205D01*
X60475Y-15201D01*
X60490Y-15200D01*
X65919Y-15200D01*
X65919Y-13774D01*
X65921Y-13756D01*
X65925Y-13717D01*
X65943Y-13658D01*
X65943Y-13656D01*
X65944Y-13656D01*
X65973Y-13603D01*
X65998Y-13572D01*
X66010Y-13559D01*
X66136Y-13432D01*
X65771Y-13432D01*
X65406Y-13796D01*
X65413Y-13798D01*
X65512Y-13840D01*
X65602Y-13900D01*
X65677Y-13976D01*
X65737Y-14066D01*
X65778Y-14165D01*
X65799Y-14271D01*
X65798Y-14295D01*
X65799Y-14298D01*
X65798Y-14312D01*
X65797Y-14394D01*
X65774Y-14499D01*
X65730Y-14597D01*
X65668Y-14685D01*
X65590Y-14760D01*
X65531Y-14796D01*
X65531Y-14797D01*
X65530Y-14797D01*
X65499Y-14817D01*
X65399Y-14856D01*
X65292Y-14875D01*
X65185Y-14873D01*
X65080Y-14850D01*
X64981Y-14807D01*
X64893Y-14745D01*
X64818Y-14668D01*
X64759Y-14577D01*
X64721Y-14481D01*
X64195Y-15008D01*
X64192Y-15011D01*
X64172Y-15027D01*
X64148Y-15047D01*
X64146Y-15047D01*
X64145Y-15049D01*
X64124Y-15059D01*
X64094Y-15076D01*
X64091Y-15076D01*
X64091Y-15077D01*
X64033Y-15094D01*
X63991Y-15097D01*
X63976Y-15099D01*
X60093Y-15099D01*
X58245Y-16947D01*
X58225Y-16962D01*
X58201Y-16983D01*
X58199Y-16983D01*
X58198Y-16985D01*
X58176Y-16995D01*
X58147Y-17012D01*
X58144Y-17012D01*
X58144Y-17013D01*
X58086Y-17030D01*
X58043Y-17033D01*
X58029Y-17035D01*
X57739Y-17035D01*
X57735Y-17055D01*
X57716Y-17100D01*
X57688Y-17140D01*
X57653Y-17175D01*
X57612Y-17202D01*
X57567Y-17221D01*
X57561Y-17222D01*
X58489Y-17222D01*
X58506Y-17224D01*
X58546Y-17228D01*
X58605Y-17246D01*
X58606Y-17246D01*
X58607Y-17247D01*
X58660Y-17276D01*
X58690Y-17301D01*
X58704Y-17313D01*
X58953Y-17562D01*
G54D10*
G36*
X68696Y-17417D02*
X68696Y-17410D01*
X68706Y-17362D01*
X68725Y-17317D01*
X68753Y-17277D01*
X68788Y-17242D01*
X68829Y-17215D01*
X68864Y-17200D01*
X68826Y-17184D01*
X68786Y-17156D01*
X68751Y-17121D01*
X68724Y-17080D01*
X68705Y-17035D01*
X68696Y-16987D01*
X68696Y-16959D01*
X68348Y-16959D01*
X68334Y-16957D01*
X68291Y-16953D01*
X68232Y-16935D01*
X68230Y-16934D01*
X68218Y-16927D01*
X68277Y-16986D01*
X68323Y-17055D01*
X68355Y-17132D01*
X68371Y-17214D01*
X68370Y-17309D01*
X68351Y-17390D01*
X68339Y-17417D01*
X68696Y-17417D01*
X68696Y-17417D01*
G37*
G54D34*
X68696Y-17417D02*
X68696Y-17410D01*
X68706Y-17362D01*
X68725Y-17317D01*
X68753Y-17277D01*
X68788Y-17242D01*
X68829Y-17215D01*
X68864Y-17200D01*
X68826Y-17184D01*
X68786Y-17156D01*
X68751Y-17121D01*
X68724Y-17080D01*
X68705Y-17035D01*
X68696Y-16987D01*
X68696Y-16959D01*
X68348Y-16959D01*
X68334Y-16957D01*
X68291Y-16953D01*
X68232Y-16935D01*
X68230Y-16934D01*
X68218Y-16927D01*
X68277Y-16986D01*
X68323Y-17055D01*
X68355Y-17132D01*
X68371Y-17214D01*
X68370Y-17309D01*
X68351Y-17390D01*
X68339Y-17417D01*
X68696Y-17417D01*
G54D10*
G36*
X62760Y-17364D02*
X62765Y-17344D01*
X62783Y-17299D01*
X62783Y-17298D01*
X62764Y-17253D01*
X62755Y-17205D01*
X62755Y-17064D01*
X62633Y-17186D01*
X62613Y-17201D01*
X62589Y-17222D01*
X62587Y-17222D01*
X62586Y-17224D01*
X62565Y-17234D01*
X62535Y-17251D01*
X62532Y-17251D01*
X62532Y-17252D01*
X62474Y-17269D01*
X62432Y-17272D01*
X62417Y-17274D01*
X62000Y-17274D01*
X62028Y-17340D01*
X62032Y-17364D01*
X62760Y-17364D01*
X62760Y-17364D01*
G37*
G54D34*
X62760Y-17364D02*
X62765Y-17344D01*
X62783Y-17299D01*
X62783Y-17298D01*
X62764Y-17253D01*
X62755Y-17205D01*
X62755Y-17064D01*
X62633Y-17186D01*
X62613Y-17201D01*
X62589Y-17222D01*
X62587Y-17222D01*
X62586Y-17224D01*
X62565Y-17234D01*
X62535Y-17251D01*
X62532Y-17251D01*
X62532Y-17252D01*
X62474Y-17269D01*
X62432Y-17272D01*
X62417Y-17274D01*
X62000Y-17274D01*
X62028Y-17340D01*
X62032Y-17364D01*
X62760Y-17364D01*
G54D10*
G36*
X60000Y-17272D02*
X60017Y-17234D01*
X60077Y-17146D01*
X60154Y-17070D01*
X60244Y-17011D01*
X60271Y-16999D01*
X60231Y-16982D01*
X60143Y-16920D01*
X60068Y-16843D01*
X60009Y-16752D01*
X59999Y-16728D01*
X59980Y-16772D01*
X59918Y-16860D01*
X59840Y-16935D01*
X59749Y-16992D01*
X59727Y-17000D01*
X59762Y-17015D01*
X59852Y-17075D01*
X59927Y-17151D01*
X59987Y-17241D01*
X60000Y-17272D01*
X60000Y-17272D01*
G37*
G54D34*
X60000Y-17272D02*
X60017Y-17234D01*
X60077Y-17146D01*
X60154Y-17070D01*
X60244Y-17011D01*
X60271Y-16999D01*
X60231Y-16982D01*
X60143Y-16920D01*
X60068Y-16843D01*
X60009Y-16752D01*
X59999Y-16728D01*
X59980Y-16772D01*
X59918Y-16860D01*
X59840Y-16935D01*
X59749Y-16992D01*
X59727Y-17000D01*
X59762Y-17015D01*
X59852Y-17075D01*
X59927Y-17151D01*
X59987Y-17241D01*
X60000Y-17272D01*
G54D10*
G36*
X56839Y-17222D02*
X56830Y-17220D01*
X56785Y-17201D01*
X56745Y-17173D01*
X56710Y-17138D01*
X56683Y-17097D01*
X56664Y-17052D01*
X56655Y-17004D01*
X56655Y-16443D01*
X56665Y-16395D01*
X56683Y-16350D01*
X56683Y-16349D01*
X56675Y-16331D01*
X55808Y-16331D01*
X55800Y-16371D01*
X55781Y-16416D01*
X55753Y-16456D01*
X55718Y-16491D01*
X55677Y-16518D01*
X55632Y-16537D01*
X55584Y-16546D01*
X55507Y-16546D01*
X55536Y-16558D01*
X55621Y-16616D01*
X55693Y-16689D01*
X55750Y-16774D01*
X55789Y-16869D01*
X55809Y-16970D01*
X55807Y-17087D01*
X55784Y-17188D01*
X55769Y-17222D01*
X56839Y-17222D01*
X56839Y-17222D01*
G37*
G54D34*
X56839Y-17222D02*
X56830Y-17220D01*
X56785Y-17201D01*
X56745Y-17173D01*
X56710Y-17138D01*
X56683Y-17097D01*
X56664Y-17052D01*
X56655Y-17004D01*
X56655Y-16443D01*
X56665Y-16395D01*
X56683Y-16350D01*
X56683Y-16349D01*
X56675Y-16331D01*
X55808Y-16331D01*
X55800Y-16371D01*
X55781Y-16416D01*
X55753Y-16456D01*
X55718Y-16491D01*
X55677Y-16518D01*
X55632Y-16537D01*
X55584Y-16546D01*
X55507Y-16546D01*
X55536Y-16558D01*
X55621Y-16616D01*
X55693Y-16689D01*
X55750Y-16774D01*
X55789Y-16869D01*
X55809Y-16970D01*
X55807Y-17087D01*
X55784Y-17188D01*
X55769Y-17222D01*
X56839Y-17222D01*
G54D10*
G36*
X54801Y-17222D02*
X54779Y-17166D01*
X54760Y-17065D01*
X54762Y-16962D01*
X54766Y-16941D01*
X54065Y-16239D01*
X54052Y-16271D01*
X54024Y-16311D01*
X53989Y-16346D01*
X53948Y-16373D01*
X53912Y-16387D01*
X53951Y-16404D01*
X53991Y-16432D01*
X54026Y-16467D01*
X54053Y-16508D01*
X54072Y-16553D01*
X54081Y-16601D01*
X54081Y-17222D01*
X54801Y-17222D01*
X54801Y-17222D01*
G37*
G54D34*
X54801Y-17222D02*
X54779Y-17166D01*
X54760Y-17065D01*
X54762Y-16962D01*
X54766Y-16941D01*
X54065Y-16239D01*
X54052Y-16271D01*
X54024Y-16311D01*
X53989Y-16346D01*
X53948Y-16373D01*
X53912Y-16387D01*
X53951Y-16404D01*
X53991Y-16432D01*
X54026Y-16467D01*
X54053Y-16508D01*
X54072Y-16553D01*
X54081Y-16601D01*
X54081Y-17222D01*
X54801Y-17222D01*
G54D10*
G36*
X64649Y-17185D02*
X64652Y-17183D01*
X64650Y-17183D01*
X64649Y-17185D01*
X64649Y-17185D01*
G37*
G54D34*
X64649Y-17185D02*
X64652Y-17183D01*
X64650Y-17183D01*
X64649Y-17185D01*
G54D10*
G36*
X52749Y-16712D02*
X52764Y-16700D01*
X52788Y-16681D01*
X52842Y-16652D01*
X52842Y-16651D01*
X52844Y-16651D01*
X52867Y-16644D01*
X52873Y-16642D01*
X52873Y-16598D01*
X52883Y-16550D01*
X52902Y-16505D01*
X52930Y-16465D01*
X52965Y-16430D01*
X53006Y-16403D01*
X53041Y-16388D01*
X53003Y-16372D01*
X52963Y-16344D01*
X52928Y-16309D01*
X52927Y-16307D01*
X52835Y-16400D01*
X52833Y-16402D01*
X52813Y-16418D01*
X52789Y-16438D01*
X52787Y-16438D01*
X52786Y-16440D01*
X52765Y-16450D01*
X52735Y-16467D01*
X52732Y-16467D01*
X52732Y-16468D01*
X52674Y-16485D01*
X52631Y-16488D01*
X52617Y-16490D01*
X52480Y-16490D01*
X52480Y-16526D01*
X52478Y-16537D01*
X52474Y-16584D01*
X52456Y-16642D01*
X52455Y-16643D01*
X52455Y-16644D01*
X52426Y-16697D01*
X52413Y-16712D01*
X52749Y-16712D01*
X52749Y-16712D01*
G37*
G54D34*
X52749Y-16712D02*
X52764Y-16700D01*
X52788Y-16681D01*
X52842Y-16652D01*
X52842Y-16651D01*
X52844Y-16651D01*
X52867Y-16644D01*
X52873Y-16642D01*
X52873Y-16598D01*
X52883Y-16550D01*
X52902Y-16505D01*
X52930Y-16465D01*
X52965Y-16430D01*
X53006Y-16403D01*
X53041Y-16388D01*
X53003Y-16372D01*
X52963Y-16344D01*
X52928Y-16309D01*
X52927Y-16307D01*
X52835Y-16400D01*
X52833Y-16402D01*
X52813Y-16418D01*
X52789Y-16438D01*
X52787Y-16438D01*
X52786Y-16440D01*
X52765Y-16450D01*
X52735Y-16467D01*
X52732Y-16467D01*
X52732Y-16468D01*
X52674Y-16485D01*
X52631Y-16488D01*
X52617Y-16490D01*
X52480Y-16490D01*
X52480Y-16526D01*
X52478Y-16537D01*
X52474Y-16584D01*
X52456Y-16642D01*
X52455Y-16643D01*
X52455Y-16644D01*
X52426Y-16697D01*
X52413Y-16712D01*
X52749Y-16712D01*
G54D10*
G36*
X62289Y-16654D02*
X62872Y-16071D01*
X62874Y-16068D01*
X62895Y-16051D01*
X62919Y-16032D01*
X62973Y-16003D01*
X62975Y-16002D01*
X62976Y-16002D01*
X63034Y-15985D01*
X63075Y-15981D01*
X63091Y-15980D01*
X64056Y-15980D01*
X64074Y-15982D01*
X64113Y-15986D01*
X64172Y-16004D01*
X64173Y-16004D01*
X64174Y-16005D01*
X64227Y-16034D01*
X64256Y-16059D01*
X64271Y-16071D01*
X64532Y-16331D01*
X64532Y-15820D01*
X60618Y-15820D01*
X60487Y-15951D01*
X60557Y-15951D01*
X60663Y-15973D01*
X60762Y-16015D01*
X60852Y-16075D01*
X60927Y-16151D01*
X60950Y-16185D01*
X60950Y-16173D01*
X60960Y-16125D01*
X60979Y-16080D01*
X61007Y-16040D01*
X61042Y-16005D01*
X61083Y-15978D01*
X61128Y-15959D01*
X61176Y-15950D01*
X61827Y-15950D01*
X61875Y-15960D01*
X61920Y-15979D01*
X61960Y-16007D01*
X61995Y-16042D01*
X62022Y-16083D01*
X62041Y-16128D01*
X62050Y-16176D01*
X62050Y-16654D01*
X62289Y-16654D01*
X62289Y-16654D01*
G37*
G54D34*
X62289Y-16654D02*
X62872Y-16071D01*
X62874Y-16068D01*
X62895Y-16051D01*
X62919Y-16032D01*
X62973Y-16003D01*
X62975Y-16002D01*
X62976Y-16002D01*
X63034Y-15985D01*
X63075Y-15981D01*
X63091Y-15980D01*
X64056Y-15980D01*
X64074Y-15982D01*
X64113Y-15986D01*
X64172Y-16004D01*
X64173Y-16004D01*
X64174Y-16005D01*
X64227Y-16034D01*
X64256Y-16059D01*
X64271Y-16071D01*
X64532Y-16331D01*
X64532Y-15820D01*
X60618Y-15820D01*
X60487Y-15951D01*
X60557Y-15951D01*
X60663Y-15973D01*
X60762Y-16015D01*
X60852Y-16075D01*
X60927Y-16151D01*
X60950Y-16185D01*
X60950Y-16173D01*
X60960Y-16125D01*
X60979Y-16080D01*
X61007Y-16040D01*
X61042Y-16005D01*
X61083Y-15978D01*
X61128Y-15959D01*
X61176Y-15950D01*
X61827Y-15950D01*
X61875Y-15960D01*
X61920Y-15979D01*
X61960Y-16007D01*
X61995Y-16042D01*
X62022Y-16083D01*
X62041Y-16128D01*
X62050Y-16176D01*
X62050Y-16654D01*
X62289Y-16654D01*
G54D10*
G36*
X57900Y-16415D02*
X59242Y-15073D01*
X59242Y-14875D01*
X59135Y-14873D01*
X59030Y-14850D01*
X58931Y-14807D01*
X58843Y-14745D01*
X58768Y-14668D01*
X58725Y-14602D01*
X58668Y-14685D01*
X58590Y-14760D01*
X58531Y-14796D01*
X58531Y-14797D01*
X58530Y-14797D01*
X58499Y-14817D01*
X58399Y-14856D01*
X58292Y-14875D01*
X58185Y-14873D01*
X58080Y-14850D01*
X57981Y-14807D01*
X57893Y-14745D01*
X57818Y-14668D01*
X57759Y-14577D01*
X57720Y-14477D01*
X57700Y-14371D01*
X57702Y-14264D01*
X57724Y-14158D01*
X57767Y-14059D01*
X57827Y-13971D01*
X57904Y-13895D01*
X57994Y-13836D01*
X58094Y-13796D01*
X58200Y-13776D01*
X58307Y-13776D01*
X58413Y-13798D01*
X58512Y-13840D01*
X58602Y-13900D01*
X58677Y-13976D01*
X58724Y-14047D01*
X58777Y-13971D01*
X58854Y-13895D01*
X58944Y-13836D01*
X59044Y-13796D01*
X59150Y-13776D01*
X59257Y-13776D01*
X59363Y-13798D01*
X59462Y-13840D01*
X59552Y-13900D01*
X59627Y-13976D01*
X59687Y-14066D01*
X59728Y-14165D01*
X59749Y-14271D01*
X59747Y-14394D01*
X59724Y-14499D01*
X59680Y-14597D01*
X59618Y-14685D01*
X59540Y-14760D01*
X59449Y-14817D01*
X59349Y-14856D01*
X59242Y-14875D01*
X59242Y-15073D01*
X59745Y-14570D01*
X59748Y-14568D01*
X59757Y-14560D01*
X59793Y-14531D01*
X59847Y-14502D01*
X59905Y-14485D01*
X59965Y-14479D01*
X61220Y-14479D01*
X61220Y-14477D01*
X61200Y-14371D01*
X61202Y-14264D01*
X61224Y-14158D01*
X61267Y-14059D01*
X61327Y-13971D01*
X61404Y-13895D01*
X61494Y-13836D01*
X61594Y-13796D01*
X61700Y-13776D01*
X61713Y-13776D01*
X61466Y-13529D01*
X55525Y-13529D01*
X55465Y-13522D01*
X55426Y-13509D01*
X55409Y-13505D01*
X55407Y-13504D01*
X55354Y-13475D01*
X55338Y-13461D01*
X55309Y-13438D01*
X54845Y-12973D01*
X54845Y-13308D01*
X54835Y-13356D01*
X54816Y-13400D01*
X54817Y-13402D01*
X54836Y-13447D01*
X54845Y-13495D01*
X54845Y-14056D01*
X54835Y-14104D01*
X54816Y-14149D01*
X54788Y-14189D01*
X54753Y-14224D01*
X54712Y-14251D01*
X54667Y-14270D01*
X54619Y-14279D01*
X54596Y-14279D01*
X54586Y-14312D01*
X54585Y-14313D01*
X54585Y-14314D01*
X54556Y-14367D01*
X54530Y-14397D01*
X54519Y-14411D01*
X54515Y-14415D01*
X54495Y-14430D01*
X54471Y-14451D01*
X54469Y-14451D01*
X54468Y-14453D01*
X54447Y-14463D01*
X54417Y-14480D01*
X54414Y-14480D01*
X54414Y-14481D01*
X54356Y-14498D01*
X54313Y-14501D01*
X54299Y-14503D01*
X52096Y-14503D01*
X52084Y-14501D01*
X52038Y-14497D01*
X51980Y-14479D01*
X51978Y-14478D01*
X51925Y-14449D01*
X51888Y-14417D01*
X51880Y-14411D01*
X51879Y-14410D01*
X51871Y-14400D01*
X51842Y-14365D01*
X51813Y-14311D01*
X51803Y-14279D01*
X51778Y-14279D01*
X51730Y-14269D01*
X51685Y-14250D01*
X51645Y-14222D01*
X51610Y-14187D01*
X51583Y-14146D01*
X51564Y-14101D01*
X51555Y-14053D01*
X51555Y-13492D01*
X51565Y-13444D01*
X51583Y-13399D01*
X51583Y-13398D01*
X51564Y-13353D01*
X51560Y-13336D01*
X51539Y-13336D01*
X51535Y-13356D01*
X51516Y-13400D01*
X51517Y-13402D01*
X51536Y-13447D01*
X51545Y-13495D01*
X51545Y-14056D01*
X51535Y-14104D01*
X51516Y-14149D01*
X51488Y-14189D01*
X51453Y-14224D01*
X51412Y-14251D01*
X51367Y-14270D01*
X51319Y-14279D01*
X50678Y-14279D01*
X50630Y-14269D01*
X50585Y-14250D01*
X50545Y-14222D01*
X50510Y-14187D01*
X50483Y-14146D01*
X50464Y-14101D01*
X50458Y-14071D01*
X50442Y-14066D01*
X50435Y-14104D01*
X50416Y-14149D01*
X50388Y-14189D01*
X50353Y-14224D01*
X50312Y-14251D01*
X50267Y-14270D01*
X50219Y-14279D01*
X49578Y-14279D01*
X49530Y-14269D01*
X49485Y-14250D01*
X49445Y-14222D01*
X49410Y-14187D01*
X49383Y-14146D01*
X49364Y-14101D01*
X49360Y-14084D01*
X49339Y-14084D01*
X49335Y-14104D01*
X49316Y-14149D01*
X49288Y-14189D01*
X49253Y-14224D01*
X49212Y-14251D01*
X49167Y-14270D01*
X49119Y-14279D01*
X48478Y-14279D01*
X48430Y-14269D01*
X48385Y-14250D01*
X48345Y-14222D01*
X48310Y-14187D01*
X48283Y-14146D01*
X48264Y-14101D01*
X48255Y-14053D01*
X48255Y-13492D01*
X48265Y-13444D01*
X48283Y-13399D01*
X48283Y-13398D01*
X48264Y-13353D01*
X48260Y-13336D01*
X48239Y-13336D01*
X48235Y-13356D01*
X48216Y-13400D01*
X48217Y-13402D01*
X48236Y-13447D01*
X48245Y-13495D01*
X48245Y-14056D01*
X48235Y-14104D01*
X48216Y-14149D01*
X48188Y-14189D01*
X48153Y-14224D01*
X48112Y-14251D01*
X48076Y-14266D01*
X48076Y-14385D01*
X48895Y-14385D01*
X48913Y-14387D01*
X48952Y-14391D01*
X49011Y-14409D01*
X49012Y-14409D01*
X49013Y-14410D01*
X49066Y-14439D01*
X49096Y-14464D01*
X49110Y-14476D01*
X50971Y-16337D01*
X50981Y-16290D01*
X50988Y-16271D01*
X50980Y-16251D01*
X50971Y-16203D01*
X50971Y-15838D01*
X50981Y-15790D01*
X50988Y-15771D01*
X50980Y-15751D01*
X50971Y-15703D01*
X50971Y-15338D01*
X50976Y-15311D01*
X50980Y-15293D01*
X50980Y-15291D01*
X50981Y-15290D01*
X51000Y-15245D01*
X51016Y-15221D01*
X51026Y-15207D01*
X51063Y-15170D01*
X51077Y-15160D01*
X51101Y-15144D01*
X51146Y-15125D01*
X51147Y-15124D01*
X51149Y-15124D01*
X51167Y-15120D01*
X51194Y-15115D01*
X52034Y-15115D01*
X52082Y-15125D01*
X52127Y-15144D01*
X52167Y-15172D01*
X52202Y-15207D01*
X52229Y-15248D01*
X52248Y-15293D01*
X52257Y-15341D01*
X52257Y-15706D01*
X52251Y-15733D01*
X52248Y-15751D01*
X52247Y-15752D01*
X52247Y-15754D01*
X52241Y-15766D01*
X52239Y-15772D01*
X52248Y-15793D01*
X52254Y-15826D01*
X52298Y-15870D01*
X52489Y-15870D01*
X52752Y-15607D01*
X52788Y-15579D01*
X52842Y-15550D01*
X52844Y-15549D01*
X52845Y-15549D01*
X52873Y-15540D01*
X52873Y-15496D01*
X52883Y-15448D01*
X52902Y-15403D01*
X52930Y-15363D01*
X52965Y-15328D01*
X53006Y-15301D01*
X53051Y-15282D01*
X53099Y-15273D01*
X53858Y-15273D01*
X53906Y-15283D01*
X53951Y-15302D01*
X53991Y-15330D01*
X54026Y-15365D01*
X54053Y-15406D01*
X54072Y-15451D01*
X54081Y-15499D01*
X54081Y-15527D01*
X54105Y-15527D01*
X54123Y-15529D01*
X54162Y-15533D01*
X54221Y-15551D01*
X54222Y-15551D01*
X54223Y-15552D01*
X54276Y-15581D01*
X54305Y-15606D01*
X54320Y-15618D01*
X54760Y-16057D01*
X54760Y-15719D01*
X54770Y-15671D01*
X54789Y-15626D01*
X54817Y-15586D01*
X54852Y-15551D01*
X54893Y-15524D01*
X54938Y-15505D01*
X54986Y-15496D01*
X55587Y-15496D01*
X55635Y-15506D01*
X55680Y-15525D01*
X55720Y-15553D01*
X55742Y-15575D01*
X55742Y-14875D01*
X55635Y-14873D01*
X55530Y-14850D01*
X55431Y-14807D01*
X55343Y-14745D01*
X55268Y-14668D01*
X55209Y-14577D01*
X55170Y-14477D01*
X55150Y-14371D01*
X55152Y-14264D01*
X55174Y-14158D01*
X55217Y-14059D01*
X55277Y-13971D01*
X55354Y-13895D01*
X55444Y-13836D01*
X55544Y-13796D01*
X55650Y-13776D01*
X55757Y-13776D01*
X55863Y-13798D01*
X55962Y-13840D01*
X56052Y-13900D01*
X56127Y-13976D01*
X56187Y-14066D01*
X56228Y-14165D01*
X56249Y-14271D01*
X56247Y-14394D01*
X56224Y-14499D01*
X56180Y-14597D01*
X56118Y-14685D01*
X56040Y-14760D01*
X55949Y-14817D01*
X55849Y-14856D01*
X55742Y-14875D01*
X55742Y-15575D01*
X55755Y-15588D01*
X55782Y-15629D01*
X55801Y-15674D01*
X55807Y-15711D01*
X56584Y-15711D01*
X56624Y-15690D01*
X56626Y-15689D01*
X56627Y-15689D01*
X56658Y-15679D01*
X56665Y-15647D01*
X56684Y-15602D01*
X56712Y-15562D01*
X56747Y-15527D01*
X56788Y-15500D01*
X56833Y-15481D01*
X56881Y-15472D01*
X57522Y-15472D01*
X57570Y-15482D01*
X57615Y-15501D01*
X57655Y-15529D01*
X57690Y-15564D01*
X57717Y-15605D01*
X57736Y-15650D01*
X57745Y-15698D01*
X57745Y-16259D01*
X57735Y-16307D01*
X57716Y-16351D01*
X57717Y-16353D01*
X57736Y-16398D01*
X57739Y-16415D01*
X57900Y-16415D01*
X57900Y-16415D01*
G37*
G54D34*
X57900Y-16415D02*
X59242Y-15073D01*
X59242Y-14875D01*
X59135Y-14873D01*
X59030Y-14850D01*
X58931Y-14807D01*
X58843Y-14745D01*
X58768Y-14668D01*
X58725Y-14602D01*
X58668Y-14685D01*
X58590Y-14760D01*
X58531Y-14796D01*
X58531Y-14797D01*
X58530Y-14797D01*
X58499Y-14817D01*
X58399Y-14856D01*
X58292Y-14875D01*
X58185Y-14873D01*
X58080Y-14850D01*
X57981Y-14807D01*
X57893Y-14745D01*
X57818Y-14668D01*
X57759Y-14577D01*
X57720Y-14477D01*
X57700Y-14371D01*
X57702Y-14264D01*
X57724Y-14158D01*
X57767Y-14059D01*
X57827Y-13971D01*
X57904Y-13895D01*
X57994Y-13836D01*
X58094Y-13796D01*
X58200Y-13776D01*
X58307Y-13776D01*
X58413Y-13798D01*
X58512Y-13840D01*
X58602Y-13900D01*
X58677Y-13976D01*
X58724Y-14047D01*
X58777Y-13971D01*
X58854Y-13895D01*
X58944Y-13836D01*
X59044Y-13796D01*
X59150Y-13776D01*
X59257Y-13776D01*
X59363Y-13798D01*
X59462Y-13840D01*
X59552Y-13900D01*
X59627Y-13976D01*
X59687Y-14066D01*
X59728Y-14165D01*
X59749Y-14271D01*
X59747Y-14394D01*
X59724Y-14499D01*
X59680Y-14597D01*
X59618Y-14685D01*
X59540Y-14760D01*
X59449Y-14817D01*
X59349Y-14856D01*
X59242Y-14875D01*
X59242Y-15073D01*
X59745Y-14570D01*
X59748Y-14568D01*
X59757Y-14560D01*
X59793Y-14531D01*
X59847Y-14502D01*
X59905Y-14485D01*
X59965Y-14479D01*
X61220Y-14479D01*
X61220Y-14477D01*
X61200Y-14371D01*
X61202Y-14264D01*
X61224Y-14158D01*
X61267Y-14059D01*
X61327Y-13971D01*
X61404Y-13895D01*
X61494Y-13836D01*
X61594Y-13796D01*
X61700Y-13776D01*
X61713Y-13776D01*
X61466Y-13529D01*
X55525Y-13529D01*
X55465Y-13522D01*
X55426Y-13509D01*
X55409Y-13505D01*
X55407Y-13504D01*
X55354Y-13475D01*
X55338Y-13461D01*
X55309Y-13438D01*
X54845Y-12973D01*
X54845Y-13308D01*
X54835Y-13356D01*
X54816Y-13400D01*
X54817Y-13402D01*
X54836Y-13447D01*
X54845Y-13495D01*
X54845Y-14056D01*
X54835Y-14104D01*
X54816Y-14149D01*
X54788Y-14189D01*
X54753Y-14224D01*
X54712Y-14251D01*
X54667Y-14270D01*
X54619Y-14279D01*
X54596Y-14279D01*
X54586Y-14312D01*
X54585Y-14313D01*
X54585Y-14314D01*
X54556Y-14367D01*
X54530Y-14397D01*
X54519Y-14411D01*
X54515Y-14415D01*
X54495Y-14430D01*
X54471Y-14451D01*
X54469Y-14451D01*
X54468Y-14453D01*
X54447Y-14463D01*
X54417Y-14480D01*
X54414Y-14480D01*
X54414Y-14481D01*
X54356Y-14498D01*
X54313Y-14501D01*
X54299Y-14503D01*
X52096Y-14503D01*
X52084Y-14501D01*
X52038Y-14497D01*
X51980Y-14479D01*
X51978Y-14478D01*
X51925Y-14449D01*
X51888Y-14417D01*
X51880Y-14411D01*
X51879Y-14410D01*
X51871Y-14400D01*
X51842Y-14365D01*
X51813Y-14311D01*
X51803Y-14279D01*
X51778Y-14279D01*
X51730Y-14269D01*
X51685Y-14250D01*
X51645Y-14222D01*
X51610Y-14187D01*
X51583Y-14146D01*
X51564Y-14101D01*
X51555Y-14053D01*
X51555Y-13492D01*
X51565Y-13444D01*
X51583Y-13399D01*
X51583Y-13398D01*
X51564Y-13353D01*
X51560Y-13336D01*
X51539Y-13336D01*
X51535Y-13356D01*
X51516Y-13400D01*
X51517Y-13402D01*
X51536Y-13447D01*
X51545Y-13495D01*
X51545Y-14056D01*
X51535Y-14104D01*
X51516Y-14149D01*
X51488Y-14189D01*
X51453Y-14224D01*
X51412Y-14251D01*
X51367Y-14270D01*
X51319Y-14279D01*
X50678Y-14279D01*
X50630Y-14269D01*
X50585Y-14250D01*
X50545Y-14222D01*
X50510Y-14187D01*
X50483Y-14146D01*
X50464Y-14101D01*
X50458Y-14071D01*
X50442Y-14066D01*
X50435Y-14104D01*
X50416Y-14149D01*
X50388Y-14189D01*
X50353Y-14224D01*
X50312Y-14251D01*
X50267Y-14270D01*
X50219Y-14279D01*
X49578Y-14279D01*
X49530Y-14269D01*
X49485Y-14250D01*
X49445Y-14222D01*
X49410Y-14187D01*
X49383Y-14146D01*
X49364Y-14101D01*
X49360Y-14084D01*
X49339Y-14084D01*
X49335Y-14104D01*
X49316Y-14149D01*
X49288Y-14189D01*
X49253Y-14224D01*
X49212Y-14251D01*
X49167Y-14270D01*
X49119Y-14279D01*
X48478Y-14279D01*
X48430Y-14269D01*
X48385Y-14250D01*
X48345Y-14222D01*
X48310Y-14187D01*
X48283Y-14146D01*
X48264Y-14101D01*
X48255Y-14053D01*
X48255Y-13492D01*
X48265Y-13444D01*
X48283Y-13399D01*
X48283Y-13398D01*
X48264Y-13353D01*
X48260Y-13336D01*
X48239Y-13336D01*
X48235Y-13356D01*
X48216Y-13400D01*
X48217Y-13402D01*
X48236Y-13447D01*
X48245Y-13495D01*
X48245Y-14056D01*
X48235Y-14104D01*
X48216Y-14149D01*
X48188Y-14189D01*
X48153Y-14224D01*
X48112Y-14251D01*
X48076Y-14266D01*
X48076Y-14385D01*
X48895Y-14385D01*
X48913Y-14387D01*
X48952Y-14391D01*
X49011Y-14409D01*
X49012Y-14409D01*
X49013Y-14410D01*
X49066Y-14439D01*
X49096Y-14464D01*
X49110Y-14476D01*
X50971Y-16337D01*
X50981Y-16290D01*
X50988Y-16271D01*
X50980Y-16251D01*
X50971Y-16203D01*
X50971Y-15838D01*
X50981Y-15790D01*
X50988Y-15771D01*
X50980Y-15751D01*
X50971Y-15703D01*
X50971Y-15338D01*
X50976Y-15311D01*
X50980Y-15293D01*
X50980Y-15291D01*
X50981Y-15290D01*
X51000Y-15245D01*
X51016Y-15221D01*
X51026Y-15207D01*
X51063Y-15170D01*
X51077Y-15160D01*
X51101Y-15144D01*
X51146Y-15125D01*
X51147Y-15124D01*
X51149Y-15124D01*
X51167Y-15120D01*
X51194Y-15115D01*
X52034Y-15115D01*
X52082Y-15125D01*
X52127Y-15144D01*
X52167Y-15172D01*
X52202Y-15207D01*
X52229Y-15248D01*
X52248Y-15293D01*
X52257Y-15341D01*
X52257Y-15706D01*
X52251Y-15733D01*
X52248Y-15751D01*
X52247Y-15752D01*
X52247Y-15754D01*
X52241Y-15766D01*
X52239Y-15772D01*
X52248Y-15793D01*
X52254Y-15826D01*
X52298Y-15870D01*
X52489Y-15870D01*
X52752Y-15607D01*
X52788Y-15579D01*
X52842Y-15550D01*
X52844Y-15549D01*
X52845Y-15549D01*
X52873Y-15540D01*
X52873Y-15496D01*
X52883Y-15448D01*
X52902Y-15403D01*
X52930Y-15363D01*
X52965Y-15328D01*
X53006Y-15301D01*
X53051Y-15282D01*
X53099Y-15273D01*
X53858Y-15273D01*
X53906Y-15283D01*
X53951Y-15302D01*
X53991Y-15330D01*
X54026Y-15365D01*
X54053Y-15406D01*
X54072Y-15451D01*
X54081Y-15499D01*
X54081Y-15527D01*
X54105Y-15527D01*
X54123Y-15529D01*
X54162Y-15533D01*
X54221Y-15551D01*
X54222Y-15551D01*
X54223Y-15552D01*
X54276Y-15581D01*
X54305Y-15606D01*
X54320Y-15618D01*
X54760Y-16057D01*
X54760Y-15719D01*
X54770Y-15671D01*
X54789Y-15626D01*
X54817Y-15586D01*
X54852Y-15551D01*
X54893Y-15524D01*
X54938Y-15505D01*
X54986Y-15496D01*
X55587Y-15496D01*
X55635Y-15506D01*
X55680Y-15525D01*
X55720Y-15553D01*
X55742Y-15575D01*
X55742Y-14875D01*
X55635Y-14873D01*
X55530Y-14850D01*
X55431Y-14807D01*
X55343Y-14745D01*
X55268Y-14668D01*
X55209Y-14577D01*
X55170Y-14477D01*
X55150Y-14371D01*
X55152Y-14264D01*
X55174Y-14158D01*
X55217Y-14059D01*
X55277Y-13971D01*
X55354Y-13895D01*
X55444Y-13836D01*
X55544Y-13796D01*
X55650Y-13776D01*
X55757Y-13776D01*
X55863Y-13798D01*
X55962Y-13840D01*
X56052Y-13900D01*
X56127Y-13976D01*
X56187Y-14066D01*
X56228Y-14165D01*
X56249Y-14271D01*
X56247Y-14394D01*
X56224Y-14499D01*
X56180Y-14597D01*
X56118Y-14685D01*
X56040Y-14760D01*
X55949Y-14817D01*
X55849Y-14856D01*
X55742Y-14875D01*
X55742Y-15575D01*
X55755Y-15588D01*
X55782Y-15629D01*
X55801Y-15674D01*
X55807Y-15711D01*
X56584Y-15711D01*
X56624Y-15690D01*
X56626Y-15689D01*
X56627Y-15689D01*
X56658Y-15679D01*
X56665Y-15647D01*
X56684Y-15602D01*
X56712Y-15562D01*
X56747Y-15527D01*
X56788Y-15500D01*
X56833Y-15481D01*
X56881Y-15472D01*
X57522Y-15472D01*
X57570Y-15482D01*
X57615Y-15501D01*
X57655Y-15529D01*
X57690Y-15564D01*
X57717Y-15605D01*
X57736Y-15650D01*
X57745Y-15698D01*
X57745Y-16259D01*
X57735Y-16307D01*
X57716Y-16351D01*
X57717Y-16353D01*
X57736Y-16398D01*
X57739Y-16415D01*
X57900Y-16415D01*
G54D10*
G36*
X68696Y-16339D02*
X68696Y-16308D01*
X68706Y-16260D01*
X68725Y-16215D01*
X68753Y-16175D01*
X68788Y-16140D01*
X68829Y-16113D01*
X68874Y-16094D01*
X68922Y-16085D01*
X69516Y-16085D01*
X69516Y-14691D01*
X68784Y-13959D01*
X68784Y-15046D01*
X68805Y-15067D01*
X68851Y-15136D01*
X68883Y-15213D01*
X68899Y-15295D01*
X68898Y-15390D01*
X68879Y-15471D01*
X68845Y-15548D01*
X68798Y-15616D01*
X68737Y-15673D01*
X68667Y-15718D01*
X68589Y-15748D01*
X68507Y-15763D01*
X68424Y-15761D01*
X68342Y-15743D01*
X68266Y-15710D01*
X68208Y-15670D01*
X68210Y-15681D01*
X68210Y-15683D01*
X68213Y-15686D01*
X68240Y-15727D01*
X68259Y-15772D01*
X68268Y-15820D01*
X68268Y-16127D01*
X68480Y-16339D01*
X68696Y-16339D01*
X68696Y-16339D01*
G37*
G54D34*
X68696Y-16339D02*
X68696Y-16308D01*
X68706Y-16260D01*
X68725Y-16215D01*
X68753Y-16175D01*
X68788Y-16140D01*
X68829Y-16113D01*
X68874Y-16094D01*
X68922Y-16085D01*
X69516Y-16085D01*
X69516Y-14691D01*
X68784Y-13959D01*
X68784Y-15046D01*
X68805Y-15067D01*
X68851Y-15136D01*
X68883Y-15213D01*
X68899Y-15295D01*
X68898Y-15390D01*
X68879Y-15471D01*
X68845Y-15548D01*
X68798Y-15616D01*
X68737Y-15673D01*
X68667Y-15718D01*
X68589Y-15748D01*
X68507Y-15763D01*
X68424Y-15761D01*
X68342Y-15743D01*
X68266Y-15710D01*
X68208Y-15670D01*
X68210Y-15681D01*
X68210Y-15683D01*
X68213Y-15686D01*
X68240Y-15727D01*
X68259Y-15772D01*
X68268Y-15820D01*
X68268Y-16127D01*
X68480Y-16339D01*
X68696Y-16339D01*
G54D10*
G36*
X67150Y-15631D02*
X67165Y-15622D01*
X67210Y-15603D01*
X67258Y-15594D01*
X67375Y-15594D01*
X67352Y-15571D01*
X67336Y-15551D01*
X67316Y-15527D01*
X67315Y-15525D01*
X67314Y-15524D01*
X67303Y-15503D01*
X67287Y-15473D01*
X67285Y-15467D01*
X67018Y-15467D01*
X66991Y-15493D01*
X66921Y-15538D01*
X66843Y-15568D01*
X66761Y-15583D01*
X66692Y-15581D01*
X66699Y-15607D01*
X66710Y-15603D01*
X66758Y-15594D01*
X67045Y-15594D01*
X67093Y-15604D01*
X67138Y-15623D01*
X67150Y-15631D01*
X67150Y-15631D01*
G37*
G54D34*
X67150Y-15631D02*
X67165Y-15622D01*
X67210Y-15603D01*
X67258Y-15594D01*
X67375Y-15594D01*
X67352Y-15571D01*
X67336Y-15551D01*
X67316Y-15527D01*
X67315Y-15525D01*
X67314Y-15524D01*
X67303Y-15503D01*
X67287Y-15473D01*
X67285Y-15467D01*
X67018Y-15467D01*
X66991Y-15493D01*
X66921Y-15538D01*
X66843Y-15568D01*
X66761Y-15583D01*
X66692Y-15581D01*
X66699Y-15607D01*
X66710Y-15603D01*
X66758Y-15594D01*
X67045Y-15594D01*
X67093Y-15604D01*
X67138Y-15623D01*
X67150Y-15631D01*
G54D10*
G36*
X48849Y-15533D02*
X48891Y-15483D01*
X48990Y-15403D01*
X49102Y-15344D01*
X48763Y-15005D01*
X47894Y-15005D01*
X47784Y-15115D01*
X48220Y-15115D01*
X48268Y-15125D01*
X48313Y-15144D01*
X48353Y-15172D01*
X48388Y-15207D01*
X48415Y-15248D01*
X48434Y-15293D01*
X48443Y-15341D01*
X48443Y-15533D01*
X48849Y-15533D01*
X48849Y-15533D01*
G37*
G54D34*
X48849Y-15533D02*
X48891Y-15483D01*
X48990Y-15403D01*
X49102Y-15344D01*
X48763Y-15005D01*
X47894Y-15005D01*
X47784Y-15115D01*
X48220Y-15115D01*
X48268Y-15125D01*
X48313Y-15144D01*
X48353Y-15172D01*
X48388Y-15207D01*
X48415Y-15248D01*
X48434Y-15293D01*
X48443Y-15341D01*
X48443Y-15533D01*
X48849Y-15533D01*
G54D10*
G36*
X68052Y-15395D02*
X68048Y-15373D01*
X68050Y-15290D01*
X68067Y-15208D01*
X68100Y-15132D01*
X68147Y-15063D01*
X68164Y-15046D01*
X68164Y-13759D01*
X68079Y-13674D01*
X68079Y-13922D01*
X68069Y-13970D01*
X68050Y-14015D01*
X68022Y-14055D01*
X67987Y-14090D01*
X67946Y-14117D01*
X67901Y-14136D01*
X67884Y-14139D01*
X67884Y-15227D01*
X68052Y-15395D01*
X68052Y-15395D01*
G37*
G54D34*
X68052Y-15395D02*
X68048Y-15373D01*
X68050Y-15290D01*
X68067Y-15208D01*
X68100Y-15132D01*
X68147Y-15063D01*
X68164Y-15046D01*
X68164Y-13759D01*
X68079Y-13674D01*
X68079Y-13922D01*
X68069Y-13970D01*
X68050Y-14015D01*
X68022Y-14055D01*
X67987Y-14090D01*
X67946Y-14117D01*
X67901Y-14136D01*
X67884Y-14139D01*
X67884Y-15227D01*
X68052Y-15395D01*
G54D10*
G36*
X67264Y-14847D02*
X67264Y-14139D01*
X67244Y-14135D01*
X67199Y-14116D01*
X67198Y-14117D01*
X67153Y-14136D01*
X67105Y-14145D01*
X66544Y-14145D01*
X66539Y-14143D01*
X66539Y-14775D01*
X66607Y-14747D01*
X66689Y-14732D01*
X66772Y-14732D01*
X66854Y-14749D01*
X66931Y-14781D01*
X67000Y-14828D01*
X67019Y-14847D01*
X67264Y-14847D01*
X67264Y-14847D01*
G37*
G54D34*
X67264Y-14847D02*
X67264Y-14139D01*
X67244Y-14135D01*
X67199Y-14116D01*
X67198Y-14117D01*
X67153Y-14136D01*
X67105Y-14145D01*
X66544Y-14145D01*
X66539Y-14143D01*
X66539Y-14775D01*
X66607Y-14747D01*
X66689Y-14732D01*
X66772Y-14732D01*
X66854Y-14749D01*
X66931Y-14781D01*
X67000Y-14828D01*
X67019Y-14847D01*
X67264Y-14847D01*
G54D10*
G36*
X47456Y-14521D02*
X47456Y-14380D01*
X47442Y-14364D01*
X47441Y-14362D01*
X47440Y-14361D01*
X47429Y-14340D01*
X47413Y-14310D01*
X47412Y-14307D01*
X47403Y-14279D01*
X47378Y-14279D01*
X47330Y-14269D01*
X47285Y-14250D01*
X47245Y-14222D01*
X47210Y-14187D01*
X47183Y-14146D01*
X47164Y-14101D01*
X47155Y-14053D01*
X47155Y-13492D01*
X47165Y-13444D01*
X47183Y-13399D01*
X47183Y-13398D01*
X47164Y-13353D01*
X47160Y-13336D01*
X47139Y-13336D01*
X47135Y-13356D01*
X47116Y-13400D01*
X47117Y-13402D01*
X47136Y-13447D01*
X47145Y-13495D01*
X47145Y-14056D01*
X47135Y-14104D01*
X47116Y-14149D01*
X47088Y-14189D01*
X47053Y-14224D01*
X47026Y-14241D01*
X47114Y-14330D01*
X47145Y-14330D01*
X47227Y-14347D01*
X47304Y-14379D01*
X47373Y-14426D01*
X47432Y-14485D01*
X47456Y-14521D01*
X47456Y-14521D01*
G37*
G54D34*
X47456Y-14521D02*
X47456Y-14380D01*
X47442Y-14364D01*
X47441Y-14362D01*
X47440Y-14361D01*
X47429Y-14340D01*
X47413Y-14310D01*
X47412Y-14307D01*
X47403Y-14279D01*
X47378Y-14279D01*
X47330Y-14269D01*
X47285Y-14250D01*
X47245Y-14222D01*
X47210Y-14187D01*
X47183Y-14146D01*
X47164Y-14101D01*
X47155Y-14053D01*
X47155Y-13492D01*
X47165Y-13444D01*
X47183Y-13399D01*
X47183Y-13398D01*
X47164Y-13353D01*
X47160Y-13336D01*
X47139Y-13336D01*
X47135Y-13356D01*
X47116Y-13400D01*
X47117Y-13402D01*
X47136Y-13447D01*
X47145Y-13495D01*
X47145Y-14056D01*
X47135Y-14104D01*
X47116Y-14149D01*
X47088Y-14189D01*
X47053Y-14224D01*
X47026Y-14241D01*
X47114Y-14330D01*
X47145Y-14330D01*
X47227Y-14347D01*
X47304Y-14379D01*
X47373Y-14426D01*
X47432Y-14485D01*
X47456Y-14521D01*
G54D10*
G36*
X63847Y-14479D02*
X65202Y-13123D01*
X65185Y-13123D01*
X65080Y-13100D01*
X64981Y-13057D01*
X64893Y-12995D01*
X64818Y-12918D01*
X64759Y-12827D01*
X64720Y-12727D01*
X64700Y-12621D01*
X64702Y-12514D01*
X64724Y-12408D01*
X64767Y-12309D01*
X64827Y-12221D01*
X64904Y-12145D01*
X64994Y-12086D01*
X65024Y-12074D01*
X62924Y-12074D01*
X62962Y-12090D01*
X63052Y-12150D01*
X63127Y-12226D01*
X63187Y-12316D01*
X63228Y-12415D01*
X63249Y-12521D01*
X63248Y-12545D01*
X63249Y-12548D01*
X63248Y-12562D01*
X63247Y-12644D01*
X63224Y-12749D01*
X63180Y-12847D01*
X63118Y-12935D01*
X63040Y-13010D01*
X62981Y-13046D01*
X62981Y-13047D01*
X62980Y-13047D01*
X62949Y-13067D01*
X62849Y-13106D01*
X62742Y-13125D01*
X62635Y-13123D01*
X62530Y-13100D01*
X62431Y-13057D01*
X62343Y-12995D01*
X62268Y-12918D01*
X62225Y-12852D01*
X62168Y-12935D01*
X62090Y-13010D01*
X61999Y-13067D01*
X61913Y-13100D01*
X62598Y-13785D01*
X62650Y-13776D01*
X62757Y-13776D01*
X62863Y-13798D01*
X62962Y-13840D01*
X63052Y-13900D01*
X63127Y-13976D01*
X63187Y-14066D01*
X63228Y-14165D01*
X63249Y-14271D01*
X63247Y-14394D01*
X63228Y-14479D01*
X63847Y-14479D01*
X63847Y-14479D01*
G37*
G54D34*
X63847Y-14479D02*
X65202Y-13123D01*
X65185Y-13123D01*
X65080Y-13100D01*
X64981Y-13057D01*
X64893Y-12995D01*
X64818Y-12918D01*
X64759Y-12827D01*
X64720Y-12727D01*
X64700Y-12621D01*
X64702Y-12514D01*
X64724Y-12408D01*
X64767Y-12309D01*
X64827Y-12221D01*
X64904Y-12145D01*
X64994Y-12086D01*
X65024Y-12074D01*
X62924Y-12074D01*
X62962Y-12090D01*
X63052Y-12150D01*
X63127Y-12226D01*
X63187Y-12316D01*
X63228Y-12415D01*
X63249Y-12521D01*
X63248Y-12545D01*
X63249Y-12548D01*
X63248Y-12562D01*
X63247Y-12644D01*
X63224Y-12749D01*
X63180Y-12847D01*
X63118Y-12935D01*
X63040Y-13010D01*
X62981Y-13046D01*
X62981Y-13047D01*
X62980Y-13047D01*
X62949Y-13067D01*
X62849Y-13106D01*
X62742Y-13125D01*
X62635Y-13123D01*
X62530Y-13100D01*
X62431Y-13057D01*
X62343Y-12995D01*
X62268Y-12918D01*
X62225Y-12852D01*
X62168Y-12935D01*
X62090Y-13010D01*
X61999Y-13067D01*
X61913Y-13100D01*
X62598Y-13785D01*
X62650Y-13776D01*
X62757Y-13776D01*
X62863Y-13798D01*
X62962Y-13840D01*
X63052Y-13900D01*
X63127Y-13976D01*
X63187Y-14066D01*
X63228Y-14165D01*
X63249Y-14271D01*
X63247Y-14394D01*
X63228Y-14479D01*
X63847Y-14479D01*
G54D10*
G36*
X34359Y-14110D02*
X34424Y-14016D01*
X34511Y-13930D01*
X30989Y-13930D01*
X31083Y-14025D01*
X31140Y-14110D01*
X34359Y-14110D01*
X34359Y-14110D01*
G37*
G54D34*
X34359Y-14110D02*
X34424Y-14016D01*
X34511Y-13930D01*
X30989Y-13930D01*
X31083Y-14025D01*
X31140Y-14110D01*
X34359Y-14110D01*
G54D10*
G36*
X53755Y-13883D02*
X53755Y-13492D01*
X53765Y-13444D01*
X53783Y-13399D01*
X53783Y-13398D01*
X53764Y-13353D01*
X53760Y-13336D01*
X53739Y-13336D01*
X53735Y-13356D01*
X53716Y-13400D01*
X53717Y-13402D01*
X53736Y-13447D01*
X53745Y-13495D01*
X53745Y-13883D01*
X53755Y-13883D01*
X53755Y-13883D01*
G37*
G54D34*
X53755Y-13883D02*
X53755Y-13492D01*
X53765Y-13444D01*
X53783Y-13399D01*
X53783Y-13398D01*
X53764Y-13353D01*
X53760Y-13336D01*
X53739Y-13336D01*
X53735Y-13356D01*
X53716Y-13400D01*
X53717Y-13402D01*
X53736Y-13447D01*
X53745Y-13495D01*
X53745Y-13883D01*
X53755Y-13883D01*
G54D10*
G36*
X49360Y-13464D02*
X49365Y-13444D01*
X49383Y-13399D01*
X49383Y-13398D01*
X49364Y-13353D01*
X49355Y-13305D01*
X49355Y-12744D01*
X49365Y-12696D01*
X49384Y-12651D01*
X49412Y-12611D01*
X49447Y-12576D01*
X49488Y-12549D01*
X49533Y-12530D01*
X49581Y-12521D01*
X49603Y-12521D01*
X49614Y-12487D01*
X49614Y-12485D01*
X49615Y-12485D01*
X49644Y-12432D01*
X49671Y-12399D01*
X49447Y-12399D01*
X49261Y-12584D01*
X49290Y-12613D01*
X49317Y-12654D01*
X49336Y-12699D01*
X49345Y-12747D01*
X49345Y-13308D01*
X49335Y-13356D01*
X49316Y-13400D01*
X49317Y-13402D01*
X49336Y-13447D01*
X49339Y-13464D01*
X49360Y-13464D01*
X49360Y-13464D01*
G37*
G54D34*
X49360Y-13464D02*
X49365Y-13444D01*
X49383Y-13399D01*
X49383Y-13398D01*
X49364Y-13353D01*
X49355Y-13305D01*
X49355Y-12744D01*
X49365Y-12696D01*
X49384Y-12651D01*
X49412Y-12611D01*
X49447Y-12576D01*
X49488Y-12549D01*
X49533Y-12530D01*
X49581Y-12521D01*
X49603Y-12521D01*
X49614Y-12487D01*
X49614Y-12485D01*
X49615Y-12485D01*
X49644Y-12432D01*
X49671Y-12399D01*
X49447Y-12399D01*
X49261Y-12584D01*
X49290Y-12613D01*
X49317Y-12654D01*
X49336Y-12699D01*
X49345Y-12747D01*
X49345Y-13308D01*
X49335Y-13356D01*
X49316Y-13400D01*
X49317Y-13402D01*
X49336Y-13447D01*
X49339Y-13464D01*
X49360Y-13464D01*
G54D10*
G36*
X61312Y-12909D02*
X61259Y-12827D01*
X61220Y-12727D01*
X61200Y-12621D01*
X61202Y-12514D01*
X61210Y-12473D01*
X61035Y-12298D01*
X59675Y-12298D01*
X59687Y-12316D01*
X59728Y-12415D01*
X59749Y-12521D01*
X59748Y-12545D01*
X59749Y-12548D01*
X59748Y-12562D01*
X59747Y-12644D01*
X59724Y-12749D01*
X59680Y-12847D01*
X59636Y-12909D01*
X61312Y-12909D01*
X61312Y-12909D01*
G37*
G54D34*
X61312Y-12909D02*
X61259Y-12827D01*
X61220Y-12727D01*
X61200Y-12621D01*
X61202Y-12514D01*
X61210Y-12473D01*
X61035Y-12298D01*
X59675Y-12298D01*
X59687Y-12316D01*
X59728Y-12415D01*
X59749Y-12521D01*
X59748Y-12545D01*
X59749Y-12548D01*
X59748Y-12562D01*
X59747Y-12644D01*
X59724Y-12749D01*
X59680Y-12847D01*
X59636Y-12909D01*
X61312Y-12909D01*
G54D10*
G36*
X58762Y-12909D02*
X58725Y-12852D01*
X58686Y-12909D01*
X58762Y-12909D01*
X58762Y-12909D01*
G37*
G54D34*
X58762Y-12909D02*
X58725Y-12852D01*
X58686Y-12909D01*
X58762Y-12909D01*
G54D10*
G36*
X57812Y-12909D02*
X57759Y-12827D01*
X57720Y-12727D01*
X57700Y-12621D01*
X57702Y-12514D01*
X57724Y-12408D01*
X57767Y-12309D01*
X57827Y-12221D01*
X57904Y-12145D01*
X57994Y-12086D01*
X58024Y-12074D01*
X55924Y-12074D01*
X55962Y-12090D01*
X56052Y-12150D01*
X56127Y-12226D01*
X56187Y-12316D01*
X56228Y-12415D01*
X56249Y-12521D01*
X56248Y-12545D01*
X56249Y-12548D01*
X56248Y-12562D01*
X56247Y-12644D01*
X56224Y-12749D01*
X56180Y-12847D01*
X56136Y-12909D01*
X57812Y-12909D01*
X57812Y-12909D01*
G37*
G54D34*
X57812Y-12909D02*
X57759Y-12827D01*
X57720Y-12727D01*
X57700Y-12621D01*
X57702Y-12514D01*
X57724Y-12408D01*
X57767Y-12309D01*
X57827Y-12221D01*
X57904Y-12145D01*
X57994Y-12086D01*
X58024Y-12074D01*
X55924Y-12074D01*
X55962Y-12090D01*
X56052Y-12150D01*
X56127Y-12226D01*
X56187Y-12316D01*
X56228Y-12415D01*
X56249Y-12521D01*
X56248Y-12545D01*
X56249Y-12548D01*
X56248Y-12562D01*
X56247Y-12644D01*
X56224Y-12749D01*
X56180Y-12847D01*
X56136Y-12909D01*
X57812Y-12909D01*
G54D10*
G36*
X51560Y-12716D02*
X51565Y-12696D01*
X51584Y-12651D01*
X51612Y-12611D01*
X51647Y-12576D01*
X51688Y-12549D01*
X51733Y-12530D01*
X51781Y-12521D01*
X52422Y-12521D01*
X52453Y-12527D01*
X52456Y-12519D01*
X52456Y-12517D01*
X52457Y-12517D01*
X52486Y-12464D01*
X52511Y-12434D01*
X52523Y-12420D01*
X52555Y-12387D01*
X52558Y-12384D01*
X52579Y-12367D01*
X52603Y-12348D01*
X52657Y-12319D01*
X52715Y-12302D01*
X52775Y-12296D01*
X54920Y-12296D01*
X54937Y-12298D01*
X54977Y-12302D01*
X55036Y-12320D01*
X55037Y-12320D01*
X55038Y-12321D01*
X55091Y-12350D01*
X55120Y-12375D01*
X55135Y-12387D01*
X55170Y-12422D01*
X55174Y-12408D01*
X55217Y-12309D01*
X55277Y-12221D01*
X55354Y-12145D01*
X55444Y-12086D01*
X55474Y-12074D01*
X51231Y-12074D01*
X50891Y-12414D01*
X50891Y-12521D01*
X51322Y-12521D01*
X51370Y-12531D01*
X51415Y-12550D01*
X51455Y-12578D01*
X51490Y-12613D01*
X51517Y-12654D01*
X51536Y-12699D01*
X51539Y-12716D01*
X51560Y-12716D01*
X51560Y-12716D01*
G37*
G54D34*
X51560Y-12716D02*
X51565Y-12696D01*
X51584Y-12651D01*
X51612Y-12611D01*
X51647Y-12576D01*
X51688Y-12549D01*
X51733Y-12530D01*
X51781Y-12521D01*
X52422Y-12521D01*
X52453Y-12527D01*
X52456Y-12519D01*
X52456Y-12517D01*
X52457Y-12517D01*
X52486Y-12464D01*
X52511Y-12434D01*
X52523Y-12420D01*
X52555Y-12387D01*
X52558Y-12384D01*
X52579Y-12367D01*
X52603Y-12348D01*
X52657Y-12319D01*
X52715Y-12302D01*
X52775Y-12296D01*
X54920Y-12296D01*
X54937Y-12298D01*
X54977Y-12302D01*
X55036Y-12320D01*
X55037Y-12320D01*
X55038Y-12321D01*
X55091Y-12350D01*
X55120Y-12375D01*
X55135Y-12387D01*
X55170Y-12422D01*
X55174Y-12408D01*
X55217Y-12309D01*
X55277Y-12221D01*
X55354Y-12145D01*
X55444Y-12086D01*
X55474Y-12074D01*
X51231Y-12074D01*
X50891Y-12414D01*
X50891Y-12521D01*
X51322Y-12521D01*
X51370Y-12531D01*
X51415Y-12550D01*
X51455Y-12578D01*
X51490Y-12613D01*
X51517Y-12654D01*
X51536Y-12699D01*
X51539Y-12716D01*
X51560Y-12716D01*
G54D10*
G36*
X62224Y-12297D02*
X62277Y-12221D01*
X62354Y-12145D01*
X62444Y-12086D01*
X62474Y-12074D01*
X61974Y-12074D01*
X62012Y-12090D01*
X62102Y-12150D01*
X62177Y-12226D01*
X62224Y-12297D01*
X62224Y-12297D01*
G37*
G54D34*
X62224Y-12297D02*
X62277Y-12221D01*
X62354Y-12145D01*
X62444Y-12086D01*
X62474Y-12074D01*
X61974Y-12074D01*
X62012Y-12090D01*
X62102Y-12150D01*
X62177Y-12226D01*
X62224Y-12297D01*
G54D10*
G36*
X67567Y-12265D02*
X67376Y-12074D01*
X65474Y-12074D01*
X65512Y-12090D01*
X65602Y-12150D01*
X65677Y-12226D01*
X65703Y-12265D01*
X67567Y-12265D01*
X67567Y-12265D01*
G37*
G54D34*
X67567Y-12265D02*
X67376Y-12074D01*
X65474Y-12074D01*
X65512Y-12090D01*
X65602Y-12150D01*
X65677Y-12226D01*
X65703Y-12265D01*
X67567Y-12265D01*
M02*
