G04 (created by PCBNEW-RS274X (2011-04-28)-stable) date Sat 30 Jul 2011 07:03:46 PM CEST*
G01*
G70*
G90*
%MOIN*%
G04 Gerber Fmt 3.4, Leading zero omitted, Abs format*
%FSLAX34Y34*%
G04 APERTURE LIST*
%ADD10C,0.010000*%
%ADD11C,0.015000*%
%ADD12C,0.005000*%
%ADD13C,0.004500*%
%ADD14R,0.070000X0.070000*%
%ADD15C,0.070000*%
%ADD16R,0.060000X0.060000*%
%ADD17C,0.060000*%
%ADD18R,0.080000X0.080000*%
%ADD19C,0.080000*%
%ADD20R,0.055000X0.055000*%
%ADD21C,0.055000*%
%ADD22C,0.160000*%
%ADD23R,0.045000X0.025000*%
%ADD24R,0.025000X0.045000*%
G04 APERTURE END LIST*
G54D10*
G54D11*
X110500Y-51400D02*
X124500Y-51400D01*
X124500Y-52300D02*
X110500Y-52300D01*
X110500Y-50500D02*
X124500Y-50500D01*
X124500Y-50500D02*
X124500Y-52300D01*
X123100Y-50500D02*
X123100Y-52300D01*
X121300Y-50500D02*
X121300Y-52300D01*
X119600Y-50500D02*
X119600Y-52300D01*
X117900Y-50500D02*
X117900Y-52300D01*
X116200Y-50500D02*
X116200Y-52300D01*
X114200Y-50500D02*
X114200Y-52300D01*
X112100Y-50500D02*
X112100Y-52300D01*
X110200Y-50200D02*
X111300Y-50200D01*
X110200Y-51400D02*
X110200Y-50200D01*
X110500Y-50500D02*
X110500Y-52300D01*
G54D12*
X75750Y-55250D02*
X75750Y-56150D01*
X75750Y-56150D02*
X76250Y-56150D01*
X76250Y-56150D02*
X76250Y-55250D01*
X76250Y-55250D02*
X75750Y-55250D01*
X75750Y-57150D02*
X75750Y-58050D01*
X75750Y-58050D02*
X76250Y-58050D01*
X76250Y-58050D02*
X76250Y-57150D01*
X76250Y-57150D02*
X75750Y-57150D01*
X76250Y-59950D02*
X76250Y-59050D01*
X76250Y-59050D02*
X75750Y-59050D01*
X75750Y-59050D02*
X75750Y-59950D01*
X75750Y-59950D02*
X76250Y-59950D01*
X77050Y-59050D02*
X77050Y-59950D01*
X77050Y-59950D02*
X77550Y-59950D01*
X77550Y-59950D02*
X77550Y-59050D01*
X77550Y-59050D02*
X77050Y-59050D01*
X76850Y-58450D02*
X77750Y-58450D01*
X77750Y-58450D02*
X77750Y-57950D01*
X77750Y-57950D02*
X76850Y-57950D01*
X76850Y-57950D02*
X76850Y-58450D01*
X76850Y-57250D02*
X77750Y-57250D01*
X77750Y-57250D02*
X77750Y-56750D01*
X77750Y-56750D02*
X76850Y-56750D01*
X76850Y-56750D02*
X76850Y-57250D01*
X77050Y-55250D02*
X77050Y-56150D01*
X77050Y-56150D02*
X77550Y-56150D01*
X77550Y-56150D02*
X77550Y-55250D01*
X77550Y-55250D02*
X77050Y-55250D01*
G54D13*
X76029Y-55213D02*
X76089Y-55080D01*
X76132Y-55213D02*
X76132Y-54933D01*
X76064Y-54933D01*
X76046Y-54947D01*
X76038Y-54960D01*
X76029Y-54987D01*
X76029Y-55027D01*
X76038Y-55053D01*
X76046Y-55067D01*
X76064Y-55080D01*
X76132Y-55080D01*
X75875Y-55027D02*
X75875Y-55213D01*
X75918Y-54920D02*
X75961Y-55120D01*
X75849Y-55120D01*
X76129Y-57113D02*
X76189Y-56980D01*
X76232Y-57113D02*
X76232Y-56833D01*
X76164Y-56833D01*
X76146Y-56847D01*
X76138Y-56860D01*
X76129Y-56887D01*
X76129Y-56927D01*
X76138Y-56953D01*
X76146Y-56967D01*
X76164Y-56980D01*
X76232Y-56980D01*
X75966Y-56833D02*
X76052Y-56833D01*
X76061Y-56967D01*
X76052Y-56953D01*
X76035Y-56940D01*
X75992Y-56940D01*
X75975Y-56953D01*
X75966Y-56967D01*
X75958Y-56993D01*
X75958Y-57060D01*
X75966Y-57087D01*
X75975Y-57100D01*
X75992Y-57113D01*
X76035Y-57113D01*
X76052Y-57100D01*
X76061Y-57087D01*
X75529Y-59613D02*
X75589Y-59480D01*
X75632Y-59613D02*
X75632Y-59333D01*
X75564Y-59333D01*
X75546Y-59347D01*
X75538Y-59360D01*
X75529Y-59387D01*
X75529Y-59427D01*
X75538Y-59453D01*
X75546Y-59467D01*
X75564Y-59480D01*
X75632Y-59480D01*
X75469Y-59333D02*
X75349Y-59333D01*
X75426Y-59613D01*
X77415Y-59013D02*
X77475Y-58880D01*
X77518Y-59013D02*
X77518Y-58733D01*
X77450Y-58733D01*
X77432Y-58747D01*
X77424Y-58760D01*
X77415Y-58787D01*
X77415Y-58827D01*
X77424Y-58853D01*
X77432Y-58867D01*
X77450Y-58880D01*
X77518Y-58880D01*
X77244Y-59013D02*
X77347Y-59013D01*
X77295Y-59013D02*
X77295Y-58733D01*
X77312Y-58773D01*
X77330Y-58800D01*
X77347Y-58813D01*
X77133Y-58733D02*
X77116Y-58733D01*
X77099Y-58747D01*
X77090Y-58760D01*
X77081Y-58787D01*
X77073Y-58840D01*
X77073Y-58907D01*
X77081Y-58960D01*
X77090Y-58987D01*
X77099Y-59000D01*
X77116Y-59013D01*
X77133Y-59013D01*
X77150Y-59000D01*
X77159Y-58987D01*
X77167Y-58960D01*
X77176Y-58907D01*
X77176Y-58840D01*
X77167Y-58787D01*
X77159Y-58760D01*
X77150Y-58747D01*
X77133Y-58733D01*
X76713Y-58085D02*
X76580Y-58025D01*
X76713Y-57982D02*
X76433Y-57982D01*
X76433Y-58050D01*
X76447Y-58068D01*
X76460Y-58076D01*
X76487Y-58085D01*
X76527Y-58085D01*
X76553Y-58076D01*
X76567Y-58068D01*
X76580Y-58050D01*
X76580Y-57982D01*
X76713Y-58256D02*
X76713Y-58153D01*
X76713Y-58205D02*
X76433Y-58205D01*
X76473Y-58188D01*
X76500Y-58170D01*
X76513Y-58153D01*
X76460Y-58324D02*
X76447Y-58333D01*
X76433Y-58350D01*
X76433Y-58393D01*
X76447Y-58410D01*
X76460Y-58419D01*
X76487Y-58427D01*
X76513Y-58427D01*
X76553Y-58419D01*
X76713Y-58316D01*
X76713Y-58427D01*
X77415Y-56713D02*
X77475Y-56580D01*
X77518Y-56713D02*
X77518Y-56433D01*
X77450Y-56433D01*
X77432Y-56447D01*
X77424Y-56460D01*
X77415Y-56487D01*
X77415Y-56527D01*
X77424Y-56553D01*
X77432Y-56567D01*
X77450Y-56580D01*
X77518Y-56580D01*
X77244Y-56713D02*
X77347Y-56713D01*
X77295Y-56713D02*
X77295Y-56433D01*
X77312Y-56473D01*
X77330Y-56500D01*
X77347Y-56513D01*
X77090Y-56527D02*
X77090Y-56713D01*
X77133Y-56420D02*
X77176Y-56620D01*
X77064Y-56620D01*
X77415Y-55213D02*
X77475Y-55080D01*
X77518Y-55213D02*
X77518Y-54933D01*
X77450Y-54933D01*
X77432Y-54947D01*
X77424Y-54960D01*
X77415Y-54987D01*
X77415Y-55027D01*
X77424Y-55053D01*
X77432Y-55067D01*
X77450Y-55080D01*
X77518Y-55080D01*
X77244Y-55213D02*
X77347Y-55213D01*
X77295Y-55213D02*
X77295Y-54933D01*
X77312Y-54973D01*
X77330Y-55000D01*
X77347Y-55013D01*
X77090Y-54933D02*
X77124Y-54933D01*
X77141Y-54947D01*
X77150Y-54960D01*
X77167Y-55000D01*
X77176Y-55053D01*
X77176Y-55160D01*
X77167Y-55187D01*
X77159Y-55200D01*
X77141Y-55213D01*
X77107Y-55213D01*
X77090Y-55200D01*
X77081Y-55187D01*
X77073Y-55160D01*
X77073Y-55093D01*
X77081Y-55067D01*
X77090Y-55053D01*
X77107Y-55040D01*
X77141Y-55040D01*
X77159Y-55053D01*
X77167Y-55067D01*
X77176Y-55093D01*
%LPC*%
G54D14*
X129300Y-57700D03*
G54D15*
X129300Y-55700D03*
G54D14*
X34800Y-57700D03*
G54D15*
X34800Y-55700D03*
G54D16*
X30000Y-53200D03*
G54D17*
X31000Y-53200D03*
X30000Y-54200D03*
X31000Y-54200D03*
X30000Y-55200D03*
X31000Y-55200D03*
X30000Y-56200D03*
X31000Y-56200D03*
X30000Y-57200D03*
X31000Y-57200D03*
X30000Y-58200D03*
X31000Y-58200D03*
X30000Y-59200D03*
X31000Y-59200D03*
X30000Y-60200D03*
X31000Y-60200D03*
G54D16*
X133100Y-53200D03*
G54D17*
X134100Y-53200D03*
X133100Y-54200D03*
X134100Y-54200D03*
X133100Y-55200D03*
X134100Y-55200D03*
X133100Y-56200D03*
X134100Y-56200D03*
X133100Y-57200D03*
X134100Y-57200D03*
X133100Y-58200D03*
X134100Y-58200D03*
X133100Y-59200D03*
X134100Y-59200D03*
X133100Y-60200D03*
X134100Y-60200D03*
G54D18*
X56500Y-58000D03*
G54D19*
X56500Y-60000D03*
X58500Y-60000D03*
X58500Y-58000D03*
G54D18*
X56500Y-53500D03*
G54D19*
X56500Y-55500D03*
X58500Y-55500D03*
X58500Y-53500D03*
G54D18*
X38500Y-53500D03*
G54D19*
X38500Y-55500D03*
X40500Y-55500D03*
X40500Y-53500D03*
G54D18*
X38500Y-58000D03*
G54D19*
X38500Y-60000D03*
X40500Y-60000D03*
X40500Y-58000D03*
G54D18*
X45000Y-55500D03*
G54D19*
X45000Y-53500D03*
X43000Y-53500D03*
X43000Y-55500D03*
G54D18*
X45000Y-60000D03*
G54D19*
X45000Y-58000D03*
X43000Y-58000D03*
X43000Y-60000D03*
G54D16*
X83100Y-55000D03*
G54D17*
X83100Y-56000D03*
X82100Y-55000D03*
X82100Y-56000D03*
X81100Y-55000D03*
X81100Y-56000D03*
X86100Y-51575D03*
X88650Y-51575D03*
X86100Y-53325D03*
X88650Y-53325D03*
X80700Y-51575D03*
X83250Y-51575D03*
X80700Y-53325D03*
X83250Y-53325D03*
X75300Y-51575D03*
X77850Y-51575D03*
X75300Y-53325D03*
X77850Y-53325D03*
G54D20*
X79800Y-52400D03*
G54D21*
X78800Y-52400D03*
G54D19*
X89100Y-60100D03*
X85100Y-59100D03*
X89100Y-58100D03*
G54D22*
X36500Y-52000D03*
X127500Y-61500D03*
X127500Y-52000D03*
X95500Y-61500D03*
X95500Y-52000D03*
X68500Y-61500D03*
X68500Y-52000D03*
X36500Y-61500D03*
G54D18*
X47500Y-58000D03*
G54D19*
X47500Y-60000D03*
X49500Y-60000D03*
X49500Y-58000D03*
G54D18*
X47500Y-53500D03*
G54D19*
X47500Y-55500D03*
X49500Y-55500D03*
X49500Y-53500D03*
G54D18*
X54000Y-55500D03*
G54D19*
X54000Y-53500D03*
X52000Y-53500D03*
X52000Y-55500D03*
G54D18*
X54000Y-60000D03*
G54D19*
X54000Y-58000D03*
X52000Y-58000D03*
X52000Y-60000D03*
G54D18*
X63000Y-55500D03*
G54D19*
X63000Y-53500D03*
X61000Y-53500D03*
X61000Y-55500D03*
G54D18*
X63000Y-60000D03*
G54D19*
X63000Y-58000D03*
X61000Y-58000D03*
X61000Y-60000D03*
G54D18*
X65515Y-57471D03*
G54D19*
X65515Y-59471D03*
X67515Y-59471D03*
X67515Y-57471D03*
G54D18*
X65500Y-53500D03*
G54D19*
X65500Y-55500D03*
X67500Y-55500D03*
X67500Y-53500D03*
G54D18*
X72000Y-55500D03*
G54D19*
X72000Y-53500D03*
X70000Y-53500D03*
X70000Y-55500D03*
G54D18*
X72000Y-60000D03*
G54D19*
X72000Y-58000D03*
X70000Y-58000D03*
X70000Y-60000D03*
G54D18*
X92000Y-58000D03*
G54D19*
X92000Y-60000D03*
X94000Y-60000D03*
X94000Y-58000D03*
G54D18*
X92000Y-53500D03*
G54D19*
X92000Y-55500D03*
X94000Y-55500D03*
X94000Y-53500D03*
G54D18*
X98500Y-55500D03*
G54D19*
X98500Y-53500D03*
X96500Y-53500D03*
X96500Y-55500D03*
G54D18*
X98500Y-60000D03*
G54D19*
X98500Y-58000D03*
X96500Y-58000D03*
X96500Y-60000D03*
G54D18*
X100900Y-58000D03*
G54D19*
X100900Y-60000D03*
X102900Y-60000D03*
X102900Y-58000D03*
G54D18*
X100900Y-53500D03*
G54D19*
X100900Y-55500D03*
X102900Y-55500D03*
X102900Y-53500D03*
G54D18*
X107500Y-55500D03*
G54D19*
X107500Y-53500D03*
X105500Y-53500D03*
X105500Y-55500D03*
G54D18*
X107500Y-60000D03*
G54D19*
X107500Y-58000D03*
X105500Y-58000D03*
X105500Y-60000D03*
G54D18*
X110000Y-58000D03*
G54D19*
X110000Y-60000D03*
X112000Y-60000D03*
X112000Y-58000D03*
G54D18*
X110000Y-53500D03*
G54D19*
X110000Y-55500D03*
X112000Y-55500D03*
X112000Y-53500D03*
G54D18*
X116600Y-55500D03*
G54D19*
X116600Y-53500D03*
X114600Y-53500D03*
X114600Y-55500D03*
G54D18*
X116600Y-60000D03*
G54D19*
X116600Y-58000D03*
X114600Y-58000D03*
X114600Y-60000D03*
G54D18*
X119000Y-58000D03*
G54D19*
X119000Y-60000D03*
X121000Y-60000D03*
X121000Y-58000D03*
G54D18*
X119000Y-53500D03*
G54D19*
X119000Y-55500D03*
X121000Y-55500D03*
X121000Y-53500D03*
G54D18*
X125500Y-55500D03*
G54D19*
X125500Y-53500D03*
X123500Y-53500D03*
X123500Y-55500D03*
G54D18*
X125500Y-60000D03*
G54D19*
X125500Y-58000D03*
X123500Y-58000D03*
X123500Y-60000D03*
G54D20*
X134100Y-61700D03*
G54D21*
X131100Y-61700D03*
G54D20*
X30000Y-61700D03*
G54D21*
X33000Y-61700D03*
G54D23*
X76000Y-55400D03*
X76000Y-56000D03*
X76000Y-57300D03*
X76000Y-57900D03*
X76000Y-59800D03*
X76000Y-59200D03*
X77300Y-59200D03*
X77300Y-59800D03*
G54D24*
X77000Y-58200D03*
X77600Y-58200D03*
X77000Y-57000D03*
X77600Y-57000D03*
G54D23*
X77300Y-55400D03*
X77300Y-56000D03*
G54D16*
X133100Y-51600D03*
G54D17*
X134100Y-51600D03*
M02*
