G04 (created by PCBNEW-RS274X (2010-04-21 BZR 23xx)-stable) date Wed 04 May 2011 07:28:19 PM CEST*
G01*
G70*
G90*
%MOIN*%
G04 Gerber Fmt 3.4, Leading zero omitted, Abs format*
%FSLAX34Y34*%
G04 APERTURE LIST*
%ADD10C,0.006000*%
%ADD11R,0.060000X0.060000*%
%ADD12C,0.060000*%
%ADD13C,0.100000*%
%ADD14R,0.059000X0.051100*%
%ADD15R,0.051100X0.059000*%
%ADD16R,0.055000X0.055000*%
%ADD17C,0.055000*%
%ADD18R,0.070800X0.062900*%
%ADD19R,0.062900X0.070800*%
%ADD20C,0.080000*%
%ADD21C,0.160000*%
%ADD22R,0.100000X0.100000*%
%ADD23C,0.035000*%
%ADD24C,0.010000*%
%ADD25C,0.020000*%
%ADD26C,0.080000*%
%ADD27C,0.012000*%
G04 APERTURE END LIST*
G54D10*
G54D11*
X76700Y-59900D03*
G54D12*
X76700Y-60900D03*
X75700Y-59900D03*
X75700Y-60900D03*
X74700Y-59900D03*
X74700Y-60900D03*
G54D13*
X71000Y-60000D03*
X71000Y-58000D03*
X39500Y-58000D03*
X39500Y-60000D03*
X39499Y-53500D03*
X39499Y-55500D03*
X44000Y-55500D03*
X44000Y-53500D03*
X44000Y-60000D03*
X44000Y-58000D03*
X48500Y-58000D03*
X48500Y-60000D03*
X48500Y-53500D03*
X48500Y-55500D03*
X53000Y-55500D03*
X53000Y-53500D03*
X53000Y-60000D03*
X53000Y-58000D03*
X57500Y-58000D03*
X57500Y-60000D03*
X57500Y-53500D03*
X57500Y-55500D03*
X62000Y-55500D03*
X62000Y-53500D03*
X62000Y-60000D03*
X62000Y-58000D03*
X66500Y-58000D03*
X66500Y-60000D03*
X66500Y-53500D03*
X66500Y-55500D03*
X71000Y-55500D03*
X71000Y-53500D03*
G54D14*
X85200Y-52774D03*
X85200Y-52026D03*
X86900Y-52026D03*
X86900Y-52774D03*
X87800Y-52026D03*
X87800Y-52774D03*
X89500Y-52774D03*
X89500Y-52026D03*
X82400Y-52026D03*
X82400Y-52774D03*
X81500Y-52774D03*
X81500Y-52026D03*
X77000Y-52774D03*
X77000Y-52026D03*
X76100Y-52774D03*
X76100Y-52026D03*
G54D15*
X76074Y-56700D03*
X75326Y-56700D03*
G54D12*
X86100Y-51575D03*
X88650Y-51575D03*
X86100Y-53325D03*
X88650Y-53325D03*
X80700Y-51575D03*
X83250Y-51575D03*
X80700Y-53325D03*
X83250Y-53325D03*
X75300Y-51575D03*
X77850Y-51575D03*
X75300Y-53325D03*
X77850Y-53325D03*
G54D14*
X74400Y-52026D03*
X74400Y-52774D03*
G54D13*
X120000Y-60000D03*
X120000Y-58000D03*
X120000Y-55500D03*
X120000Y-53500D03*
X124500Y-53500D03*
X124500Y-55500D03*
X124500Y-58000D03*
X124500Y-60000D03*
X111000Y-59900D03*
X111000Y-57900D03*
X111000Y-55500D03*
X111000Y-53500D03*
X115600Y-53500D03*
X115600Y-55500D03*
X115600Y-58000D03*
X115600Y-60000D03*
X106500Y-58000D03*
X106500Y-60000D03*
X106500Y-53500D03*
X106500Y-55500D03*
X102000Y-55500D03*
X102000Y-53500D03*
X102000Y-60000D03*
X102000Y-58000D03*
X97500Y-58000D03*
X97500Y-60000D03*
X97500Y-53500D03*
X97500Y-55500D03*
X93000Y-55500D03*
X93000Y-53500D03*
X93000Y-60000D03*
X93000Y-58000D03*
G54D16*
X79800Y-52400D03*
G54D17*
X78800Y-52400D03*
G54D15*
X82374Y-59100D03*
X81626Y-59100D03*
X75326Y-54700D03*
X76074Y-54700D03*
G54D18*
X82000Y-55249D03*
X82000Y-56351D03*
G54D19*
X82551Y-58100D03*
X81449Y-58100D03*
X75149Y-55700D03*
X76251Y-55700D03*
G54D20*
X89100Y-61200D03*
X85100Y-60200D03*
X89100Y-59200D03*
G54D21*
X36500Y-52000D03*
X127500Y-61500D03*
X127500Y-52000D03*
X95500Y-61500D03*
X95500Y-52000D03*
X68500Y-61500D03*
X68500Y-52000D03*
X36500Y-61500D03*
G54D11*
X89800Y-56200D03*
G54D12*
X88800Y-56200D03*
X87800Y-56200D03*
X86800Y-56200D03*
X85800Y-56200D03*
X84800Y-56200D03*
G54D11*
X84800Y-55200D03*
G54D12*
X85800Y-55200D03*
X86800Y-55200D03*
X87800Y-55200D03*
X88800Y-55200D03*
X89800Y-55200D03*
G54D11*
X89800Y-57200D03*
G54D12*
X88800Y-57200D03*
X87800Y-57200D03*
X86800Y-57200D03*
X85800Y-57200D03*
X84800Y-57200D03*
G54D16*
X136300Y-60200D03*
G54D17*
X136300Y-59200D03*
X136300Y-58200D03*
X136300Y-57200D03*
X136300Y-56200D03*
X136300Y-55200D03*
X136300Y-54200D03*
X136300Y-53200D03*
G54D16*
X27800Y-60200D03*
G54D17*
X27800Y-59200D03*
X27800Y-58200D03*
X27800Y-57200D03*
X27800Y-56200D03*
X27800Y-55200D03*
X27800Y-54200D03*
X27800Y-53200D03*
G54D22*
X130500Y-58200D03*
G54D13*
X130500Y-55200D03*
G54D22*
X33600Y-58200D03*
G54D13*
X33600Y-55200D03*
G54D23*
X78516Y-57860D03*
X80147Y-58854D03*
X75915Y-57562D03*
X78311Y-58498D03*
X80197Y-58291D03*
X76673Y-58455D03*
X72321Y-56536D03*
X83887Y-59188D03*
X71886Y-58317D03*
X77150Y-61723D03*
X78721Y-59733D03*
X82137Y-59980D03*
X73906Y-56346D03*
X74227Y-58215D03*
X72516Y-62037D03*
X78515Y-61742D03*
X80144Y-61626D03*
X78699Y-59076D03*
X80172Y-59661D03*
X78078Y-62521D03*
X81702Y-60736D03*
X78347Y-60249D03*
X80204Y-60939D03*
X84368Y-61669D03*
X84084Y-59798D03*
X59751Y-56259D03*
X90654Y-54753D03*
X71714Y-54746D03*
X78237Y-55640D03*
X77482Y-56205D03*
X87295Y-54583D03*
X29544Y-56699D03*
X134270Y-57237D03*
X75032Y-58237D03*
X73452Y-56373D03*
X80000Y-56600D03*
X82000Y-57100D03*
X75357Y-52199D03*
X78126Y-52737D03*
X73719Y-59504D03*
X73961Y-54780D03*
X81428Y-57060D03*
G54D24*
X79153Y-57860D02*
X78516Y-57860D01*
X80147Y-58854D02*
X79153Y-57860D01*
X75700Y-57777D02*
X75915Y-57562D01*
X75700Y-59900D02*
X75700Y-57777D01*
X79236Y-58498D02*
X78311Y-58498D01*
X79921Y-59183D02*
X79236Y-58498D01*
X80306Y-59183D02*
X79921Y-59183D01*
X80501Y-58988D02*
X80306Y-59183D01*
X80501Y-58595D02*
X80501Y-58988D01*
X80197Y-58291D02*
X80501Y-58595D01*
X76700Y-59900D02*
X76700Y-59447D01*
X76673Y-59420D02*
X76700Y-59447D01*
X76673Y-58455D02*
X76673Y-59420D01*
X72321Y-59223D02*
X72321Y-56536D01*
X74452Y-61354D02*
X72321Y-59223D01*
X77142Y-61354D02*
X74452Y-61354D01*
X77170Y-61326D02*
X77142Y-61354D01*
X77170Y-58327D02*
X77170Y-61326D01*
X79299Y-56198D02*
X77170Y-58327D01*
X80153Y-56198D02*
X79299Y-56198D01*
X80980Y-57025D02*
X80153Y-56198D01*
X80980Y-59343D02*
X80980Y-57025D01*
X81289Y-59652D02*
X80980Y-59343D01*
X83423Y-59652D02*
X81289Y-59652D01*
X83887Y-59188D02*
X83423Y-59652D01*
X81936Y-60181D02*
X82137Y-59980D01*
X79169Y-60181D02*
X81936Y-60181D01*
X78721Y-59733D02*
X79169Y-60181D01*
X71886Y-59077D02*
X71886Y-58317D01*
X74532Y-61723D02*
X71886Y-59077D01*
X77150Y-61723D02*
X74532Y-61723D01*
X73051Y-54532D02*
X74400Y-53183D01*
X73051Y-56603D02*
X73051Y-54532D01*
X73149Y-56701D02*
X73051Y-56603D01*
X73589Y-56701D02*
X73149Y-56701D01*
X73906Y-56384D02*
X73589Y-56701D01*
X73906Y-56346D02*
X73906Y-56384D01*
X74400Y-52774D02*
X74400Y-53183D01*
X74227Y-60129D02*
X74227Y-58215D01*
X74452Y-60354D02*
X74227Y-60129D01*
X75154Y-60354D02*
X74452Y-60354D01*
X75700Y-60900D02*
X75154Y-60354D01*
G54D25*
X45042Y-58958D02*
X44000Y-60000D01*
X67790Y-58958D02*
X45042Y-58958D01*
X70869Y-62037D02*
X67790Y-58958D01*
X72516Y-62037D02*
X70869Y-62037D01*
X80028Y-61742D02*
X78515Y-61742D01*
X80144Y-61626D02*
X80028Y-61742D01*
X79284Y-59661D02*
X78699Y-59076D01*
X80172Y-59661D02*
X79284Y-59661D01*
X79917Y-62521D02*
X78078Y-62521D01*
X81702Y-60736D02*
X79917Y-62521D01*
X79037Y-60939D02*
X78347Y-60249D01*
X80204Y-60939D02*
X79037Y-60939D01*
X91139Y-61861D02*
X93000Y-60000D01*
X84560Y-61861D02*
X91139Y-61861D01*
X84368Y-61669D02*
X84560Y-61861D01*
X119290Y-59290D02*
X120000Y-60000D01*
X111704Y-59290D02*
X119290Y-59290D01*
X111579Y-59165D02*
X111704Y-59290D01*
X91206Y-59165D02*
X111579Y-59165D01*
X89886Y-60485D02*
X91206Y-59165D01*
X87327Y-60485D02*
X89886Y-60485D01*
X85932Y-59090D02*
X87327Y-60485D01*
X84792Y-59090D02*
X85932Y-59090D01*
X84084Y-59798D02*
X84792Y-59090D01*
G54D24*
X27800Y-60200D02*
X28228Y-60200D01*
X58139Y-56259D02*
X59751Y-56259D01*
X55694Y-58704D02*
X58139Y-56259D01*
X38236Y-58704D02*
X55694Y-58704D01*
X37078Y-57546D02*
X38236Y-58704D01*
X30882Y-57546D02*
X37078Y-57546D01*
X28228Y-60200D02*
X30882Y-57546D01*
X129008Y-54753D02*
X90654Y-54753D01*
X134455Y-60200D02*
X129008Y-54753D01*
X136300Y-60200D02*
X134455Y-60200D01*
X71281Y-54313D02*
X71714Y-54746D01*
X32687Y-54313D02*
X71281Y-54313D01*
X27800Y-59200D02*
X32687Y-54313D01*
X84800Y-55200D02*
X84347Y-55200D01*
X83928Y-54781D02*
X84347Y-55200D01*
X79096Y-54781D02*
X83928Y-54781D01*
X78237Y-55640D02*
X79096Y-54781D01*
X84800Y-55200D02*
X84800Y-55653D01*
X84800Y-55653D02*
X84800Y-56200D01*
X84800Y-56200D02*
X84800Y-57200D01*
X85800Y-56200D02*
X85800Y-57200D01*
X85800Y-55200D02*
X85800Y-56200D01*
X85790Y-54578D02*
X85800Y-54588D01*
X78835Y-54578D02*
X85790Y-54578D01*
X77482Y-55931D02*
X78835Y-54578D01*
X77482Y-56205D02*
X77482Y-55931D01*
X85800Y-54588D02*
X85800Y-55200D01*
X87290Y-54588D02*
X87295Y-54583D01*
X85800Y-54588D02*
X87290Y-54588D01*
X29301Y-56699D02*
X29544Y-56699D01*
X27800Y-58200D02*
X29301Y-56699D01*
X86800Y-56200D02*
X86800Y-55200D01*
X86800Y-57200D02*
X86800Y-56200D01*
X136263Y-57237D02*
X136300Y-57200D01*
X134270Y-57237D02*
X136263Y-57237D01*
X74700Y-58569D02*
X75032Y-58237D01*
X74700Y-59900D02*
X74700Y-58569D01*
X75032Y-57442D02*
X75326Y-57148D01*
X75032Y-58237D02*
X75032Y-57442D01*
X75326Y-56700D02*
X75326Y-57148D01*
X87800Y-56200D02*
X87800Y-55200D01*
X87800Y-57200D02*
X87800Y-56200D01*
X76477Y-57148D02*
X75326Y-57148D01*
X76504Y-57121D02*
X76477Y-57148D01*
X76504Y-56581D02*
X76504Y-57121D01*
X79071Y-54014D02*
X76504Y-56581D01*
X87430Y-54014D02*
X79071Y-54014D01*
X87800Y-54384D02*
X87430Y-54014D01*
X87800Y-55200D02*
X87800Y-54384D01*
X77000Y-52774D02*
X76552Y-52774D01*
X76552Y-52310D02*
X76552Y-52774D01*
X76268Y-52026D02*
X76552Y-52310D01*
X76268Y-51987D02*
X76268Y-52026D01*
X77269Y-50986D02*
X76268Y-51987D01*
X79264Y-50986D02*
X77269Y-50986D01*
X80679Y-52401D02*
X79264Y-50986D01*
X85200Y-52774D02*
X85200Y-53182D01*
X84572Y-53810D02*
X85200Y-53182D01*
X80299Y-53810D02*
X84572Y-53810D01*
X80240Y-53751D02*
X80299Y-53810D01*
X80240Y-52840D02*
X80240Y-53751D01*
X80679Y-52401D02*
X80240Y-52840D01*
X80679Y-52401D02*
X81052Y-52774D01*
X81500Y-52774D02*
X81052Y-52774D01*
X76100Y-52026D02*
X76268Y-52026D01*
X73452Y-54531D02*
X73452Y-56373D01*
X75456Y-52527D02*
X73452Y-54531D01*
X75494Y-52527D02*
X75456Y-52527D01*
X75685Y-52336D02*
X75494Y-52527D01*
X75685Y-52062D02*
X75685Y-52336D01*
X75652Y-52029D02*
X75685Y-52062D01*
X75652Y-52026D02*
X75652Y-52029D01*
X76100Y-52026D02*
X75652Y-52026D01*
G54D26*
X137300Y-55200D02*
X137300Y-56200D01*
X137300Y-50200D02*
X137300Y-55200D01*
X26700Y-50200D02*
X137300Y-50200D01*
X26700Y-55200D02*
X26700Y-50200D01*
X26700Y-55200D02*
X27800Y-55200D01*
X26700Y-56200D02*
X26700Y-55200D01*
X77700Y-63300D02*
X97500Y-63300D01*
X66500Y-63300D02*
X77700Y-63300D01*
X57600Y-63300D02*
X66500Y-63300D01*
X57500Y-63300D02*
X57600Y-63300D01*
X33600Y-63300D02*
X39500Y-63300D01*
X26700Y-63300D02*
X33600Y-63300D01*
X26700Y-56200D02*
X26700Y-63300D01*
X39500Y-63300D02*
X48500Y-63300D01*
X48500Y-63300D02*
X57500Y-63300D01*
X97500Y-63300D02*
X106500Y-63300D01*
X106500Y-63300D02*
X115600Y-63300D01*
X115600Y-63300D02*
X124500Y-63300D01*
X124500Y-63300D02*
X130500Y-63300D01*
X27800Y-55200D02*
X27800Y-56200D01*
X136300Y-56200D02*
X136300Y-55200D01*
X26700Y-56200D02*
X27800Y-56200D01*
X136300Y-56200D02*
X137300Y-56200D01*
X137300Y-63300D02*
X130500Y-63300D01*
X137300Y-56200D02*
X137300Y-63300D01*
X124500Y-60000D02*
X124500Y-63300D01*
X115600Y-63300D02*
X115600Y-60000D01*
X106500Y-63300D02*
X106500Y-60000D01*
X97500Y-63300D02*
X97500Y-60000D01*
X66500Y-63300D02*
X66500Y-60000D01*
X57600Y-63200D02*
X57600Y-63300D01*
X57500Y-63300D02*
X57600Y-63200D01*
X57500Y-60000D02*
X57500Y-63300D01*
X48500Y-60000D02*
X48500Y-63300D01*
X39500Y-60000D02*
X39500Y-63300D01*
X33600Y-58200D02*
X33600Y-63300D01*
X130500Y-58200D02*
X130500Y-63300D01*
G54D27*
X79200Y-56600D02*
X80000Y-56600D01*
X77700Y-58100D02*
X79200Y-56600D01*
X77700Y-63300D02*
X77700Y-58100D01*
G54D26*
X136300Y-55200D02*
X137300Y-55200D01*
G54D24*
X74651Y-60900D02*
X74700Y-60900D01*
X72741Y-58990D02*
X74651Y-60900D01*
X72741Y-52395D02*
X72741Y-58990D01*
X74382Y-50754D02*
X72741Y-52395D01*
X82429Y-50754D02*
X74382Y-50754D01*
X83250Y-51575D02*
X82429Y-50754D01*
X87939Y-50864D02*
X88650Y-51575D01*
X83961Y-50864D02*
X87939Y-50864D01*
X83250Y-51575D02*
X83961Y-50864D01*
X78675Y-52400D02*
X78800Y-52400D01*
X77850Y-51575D02*
X78675Y-52400D01*
X78675Y-53534D02*
X78675Y-52400D01*
X77285Y-54924D02*
X78675Y-53534D01*
X76074Y-54924D02*
X77285Y-54924D01*
X76074Y-54924D02*
X76074Y-55148D01*
X76074Y-54700D02*
X76074Y-54924D01*
X89908Y-51575D02*
X88650Y-51575D01*
X89949Y-51616D02*
X89908Y-51575D01*
X89949Y-54051D02*
X89949Y-51616D01*
X88800Y-55200D02*
X89949Y-54051D01*
X88800Y-56200D02*
X88800Y-55200D01*
X83412Y-57763D02*
X88800Y-57763D01*
X82000Y-56351D02*
X83412Y-57763D01*
X88800Y-58900D02*
X89100Y-59200D01*
X88800Y-57763D02*
X88800Y-58900D01*
X88800Y-57200D02*
X88800Y-57763D01*
X76251Y-55700D02*
X76251Y-55193D01*
X76206Y-55148D02*
X76074Y-55148D01*
X76251Y-55193D02*
X76206Y-55148D01*
X88800Y-56200D02*
X88800Y-57200D01*
G54D27*
X81449Y-58923D02*
X81626Y-59100D01*
X81449Y-58100D02*
X81449Y-58923D01*
X81449Y-57651D02*
X81449Y-58100D01*
X82000Y-57100D02*
X81449Y-57651D01*
G54D25*
X120000Y-55500D02*
X120000Y-58000D01*
X102000Y-55500D02*
X102000Y-58000D01*
X111000Y-55500D02*
X111000Y-57900D01*
X111000Y-53500D02*
X115600Y-53500D01*
G54D24*
X74400Y-52026D02*
X74848Y-52026D01*
X75021Y-52199D02*
X74848Y-52026D01*
X75357Y-52199D02*
X75021Y-52199D01*
G54D25*
X93000Y-53500D02*
X97500Y-53500D01*
X93000Y-55500D02*
X93000Y-58000D01*
X62000Y-58000D02*
X62000Y-55500D01*
X66500Y-53500D02*
X71000Y-53500D01*
X71000Y-58000D02*
X71000Y-55500D01*
X53000Y-58000D02*
X53000Y-55500D01*
X48500Y-53500D02*
X53000Y-53500D01*
X44000Y-58000D02*
X44000Y-55500D01*
G54D24*
X77000Y-52026D02*
X77448Y-52026D01*
X77448Y-52059D02*
X77448Y-52026D01*
X78126Y-52737D02*
X77448Y-52059D01*
X85200Y-52026D02*
X85648Y-52026D01*
X86900Y-52026D02*
X86452Y-52026D01*
X85657Y-52035D02*
X85648Y-52026D01*
X86443Y-52035D02*
X85657Y-52035D01*
X86452Y-52026D02*
X86443Y-52035D01*
X81500Y-52026D02*
X82400Y-52026D01*
X82400Y-52774D02*
X82400Y-53183D01*
X82258Y-53325D02*
X82400Y-53183D01*
X80700Y-53325D02*
X82258Y-53325D01*
X87800Y-52774D02*
X87800Y-53183D01*
X86242Y-53183D02*
X86100Y-53325D01*
X87800Y-53183D02*
X86242Y-53183D01*
X87800Y-52026D02*
X88248Y-52026D01*
X89500Y-52026D02*
X89052Y-52026D01*
X88252Y-52030D02*
X88248Y-52026D01*
X89048Y-52030D02*
X88252Y-52030D01*
X89052Y-52026D02*
X89048Y-52030D01*
X89500Y-52774D02*
X89500Y-53182D01*
X85986Y-52774D02*
X86900Y-52774D01*
X85610Y-53150D02*
X85986Y-52774D01*
X85610Y-53740D02*
X85610Y-53150D01*
X85674Y-53804D02*
X85610Y-53740D01*
X86669Y-53804D02*
X85674Y-53804D01*
X87083Y-53390D02*
X86669Y-53804D01*
X87534Y-53390D02*
X87083Y-53390D01*
X87929Y-53785D02*
X87534Y-53390D01*
X88897Y-53785D02*
X87929Y-53785D01*
X89500Y-53182D02*
X88897Y-53785D01*
X75149Y-55700D02*
X74682Y-55700D01*
X74682Y-56167D02*
X74682Y-55700D01*
X73719Y-57130D02*
X74682Y-56167D01*
X73719Y-59504D02*
X73719Y-57130D01*
X80362Y-55994D02*
X81428Y-57060D01*
X78670Y-55994D02*
X80362Y-55994D01*
X76247Y-58417D02*
X78670Y-55994D01*
X76247Y-60447D02*
X76247Y-58417D01*
X76700Y-60900D02*
X76247Y-60447D01*
X80873Y-55483D02*
X80362Y-55994D01*
X82000Y-55483D02*
X80873Y-55483D01*
X75326Y-54700D02*
X75326Y-54252D01*
X76100Y-53478D02*
X76100Y-52774D01*
X75326Y-54252D02*
X76100Y-53478D01*
X75326Y-54924D02*
X75326Y-54700D01*
X74586Y-55405D02*
X73961Y-54780D01*
X75149Y-55405D02*
X74586Y-55405D01*
X75149Y-55405D02*
X75149Y-55193D01*
X75149Y-55700D02*
X75149Y-55405D01*
X75617Y-56168D02*
X75617Y-55700D01*
X75752Y-56303D02*
X75617Y-56168D01*
X76074Y-56303D02*
X75752Y-56303D01*
X87197Y-58607D02*
X82551Y-58607D01*
X88494Y-59904D02*
X87197Y-58607D01*
X89245Y-59904D02*
X88494Y-59904D01*
X89800Y-59349D02*
X89245Y-59904D01*
X89800Y-57200D02*
X89800Y-59349D01*
X76074Y-56700D02*
X76074Y-56303D01*
X75225Y-55700D02*
X75149Y-55700D01*
X75225Y-55700D02*
X75301Y-55700D01*
X75383Y-55700D02*
X75617Y-55700D01*
X75383Y-55700D02*
X75301Y-55700D01*
X82000Y-55249D02*
X82000Y-55483D01*
X75326Y-54924D02*
X75326Y-55148D01*
X82506Y-58652D02*
X82374Y-58652D01*
X82551Y-58607D02*
X82506Y-58652D01*
X82551Y-58100D02*
X82551Y-58607D01*
X82374Y-59100D02*
X82374Y-58652D01*
X75194Y-55148D02*
X75326Y-55148D01*
X75149Y-55193D02*
X75194Y-55148D01*
X89800Y-55200D02*
X89800Y-56200D01*
M02*
