G04 (created by PCBNEW-RS274X (2010-04-21 BZR 23xx)-stable) date Mon 25 Apr 2011 12:09:09 AM CEST*
G01*
G70*
G90*
%MOIN*%
G04 Gerber Fmt 3.4, Leading zero omitted, Abs format*
%FSLAX34Y34*%
G04 APERTURE LIST*
%ADD10C,0.006000*%
%ADD11R,0.060000X0.060000*%
%ADD12C,0.060000*%
%ADD13C,0.160000*%
%ADD14R,0.100000X0.100000*%
%ADD15C,0.100000*%
%ADD16C,0.012000*%
%ADD17C,0.010000*%
G04 APERTURE END LIST*
G54D10*
G54D11*
X12000Y-15100D03*
G54D12*
X12000Y-16100D03*
X12000Y-17100D03*
X12000Y-18100D03*
X12000Y-19100D03*
X12000Y-20100D03*
G54D11*
X22300Y-15100D03*
G54D12*
X22300Y-16100D03*
X22300Y-17100D03*
X22300Y-18100D03*
X22300Y-19100D03*
X22300Y-20100D03*
G54D13*
X21800Y-22500D03*
X12500Y-13000D03*
X12500Y-22500D03*
X21800Y-13000D03*
G54D14*
X17100Y-19200D03*
G54D15*
X17100Y-16200D03*
G54D16*
X22300Y-16100D02*
X17200Y-16100D01*
X17200Y-16100D02*
X17100Y-16200D01*
X12000Y-16100D02*
X17000Y-16100D01*
X17000Y-16100D02*
X17100Y-16200D01*
X22300Y-16100D02*
X22300Y-15100D01*
X12000Y-15100D02*
X12000Y-16100D01*
G54D17*
X11275Y-11875D02*
X23025Y-11875D01*
X11275Y-11955D02*
X12373Y-11955D01*
X12630Y-11955D02*
X21673Y-11955D01*
X21930Y-11955D02*
X23025Y-11955D01*
X11275Y-12035D02*
X12086Y-12035D01*
X12915Y-12035D02*
X21386Y-12035D01*
X22215Y-12035D02*
X23025Y-12035D01*
X11275Y-12115D02*
X11935Y-12115D01*
X13066Y-12115D02*
X21235Y-12115D01*
X22366Y-12115D02*
X23025Y-12115D01*
X11275Y-12195D02*
X11822Y-12195D01*
X13180Y-12195D02*
X21122Y-12195D01*
X22480Y-12195D02*
X23025Y-12195D01*
X11275Y-12275D02*
X11740Y-12275D01*
X13260Y-12275D02*
X21040Y-12275D01*
X22560Y-12275D02*
X23025Y-12275D01*
X11275Y-12355D02*
X11670Y-12355D01*
X13333Y-12355D02*
X20970Y-12355D01*
X22633Y-12355D02*
X23025Y-12355D01*
X11275Y-12435D02*
X11615Y-12435D01*
X13386Y-12435D02*
X20915Y-12435D01*
X22686Y-12435D02*
X23025Y-12435D01*
X11275Y-12515D02*
X11566Y-12515D01*
X13437Y-12515D02*
X20866Y-12515D01*
X22737Y-12515D02*
X23025Y-12515D01*
X11275Y-12595D02*
X11531Y-12595D01*
X13469Y-12595D02*
X20831Y-12595D01*
X22769Y-12595D02*
X23025Y-12595D01*
X11275Y-12675D02*
X11497Y-12675D01*
X13502Y-12675D02*
X20797Y-12675D01*
X22802Y-12675D02*
X23025Y-12675D01*
X11275Y-12755D02*
X11479Y-12755D01*
X13522Y-12755D02*
X20779Y-12755D01*
X22822Y-12755D02*
X23025Y-12755D01*
X11275Y-12835D02*
X11462Y-12835D01*
X13538Y-12835D02*
X20762Y-12835D01*
X22838Y-12835D02*
X23025Y-12835D01*
X11275Y-12915D02*
X11452Y-12915D01*
X13549Y-12915D02*
X20752Y-12915D01*
X22849Y-12915D02*
X23025Y-12915D01*
X11275Y-12995D02*
X11451Y-12995D01*
X13548Y-12995D02*
X20751Y-12995D01*
X22848Y-12995D02*
X23025Y-12995D01*
X11275Y-13075D02*
X11450Y-13075D01*
X13547Y-13075D02*
X20750Y-13075D01*
X22847Y-13075D02*
X23025Y-13075D01*
X11275Y-13155D02*
X11461Y-13155D01*
X13541Y-13155D02*
X20761Y-13155D01*
X22841Y-13155D02*
X23025Y-13155D01*
X11275Y-13235D02*
X11475Y-13235D01*
X13523Y-13235D02*
X20775Y-13235D01*
X22823Y-13235D02*
X23025Y-13235D01*
X11275Y-13315D02*
X11495Y-13315D01*
X13505Y-13315D02*
X20795Y-13315D01*
X22805Y-13315D02*
X23025Y-13315D01*
X11275Y-13395D02*
X11527Y-13395D01*
X13473Y-13395D02*
X20827Y-13395D01*
X22773Y-13395D02*
X23025Y-13395D01*
X11275Y-13475D02*
X11559Y-13475D01*
X13437Y-13475D02*
X20859Y-13475D01*
X22737Y-13475D02*
X23025Y-13475D01*
X11275Y-13555D02*
X11608Y-13555D01*
X13393Y-13555D02*
X20908Y-13555D01*
X22693Y-13555D02*
X23025Y-13555D01*
X11275Y-13635D02*
X11660Y-13635D01*
X13336Y-13635D02*
X20960Y-13635D01*
X22636Y-13635D02*
X23025Y-13635D01*
X11275Y-13715D02*
X11730Y-13715D01*
X13271Y-13715D02*
X21030Y-13715D01*
X22571Y-13715D02*
X23025Y-13715D01*
X11275Y-13795D02*
X11808Y-13795D01*
X13187Y-13795D02*
X21108Y-13795D01*
X22487Y-13795D02*
X23025Y-13795D01*
X11275Y-13875D02*
X11919Y-13875D01*
X13081Y-13875D02*
X21219Y-13875D01*
X22381Y-13875D02*
X23025Y-13875D01*
X11275Y-13955D02*
X12063Y-13955D01*
X12942Y-13955D02*
X21363Y-13955D01*
X22242Y-13955D02*
X23025Y-13955D01*
X11275Y-14035D02*
X12316Y-14035D01*
X12676Y-14035D02*
X21616Y-14035D01*
X21976Y-14035D02*
X23025Y-14035D01*
X11275Y-14115D02*
X23025Y-14115D01*
X11275Y-14195D02*
X23025Y-14195D01*
X11275Y-14275D02*
X23025Y-14275D01*
X11275Y-14355D02*
X23025Y-14355D01*
X11275Y-14435D02*
X23025Y-14435D01*
X11275Y-14515D02*
X23025Y-14515D01*
X11275Y-14595D02*
X23025Y-14595D01*
X11275Y-14675D02*
X23025Y-14675D01*
X11275Y-14755D02*
X23025Y-14755D01*
X11275Y-14835D02*
X23025Y-14835D01*
X11275Y-14915D02*
X23025Y-14915D01*
X11275Y-14995D02*
X23025Y-14995D01*
X11275Y-15075D02*
X23025Y-15075D01*
X11275Y-15155D02*
X23025Y-15155D01*
X11275Y-15235D02*
X23025Y-15235D01*
X11275Y-15315D02*
X23025Y-15315D01*
X11275Y-15395D02*
X23025Y-15395D01*
X11275Y-15475D02*
X23025Y-15475D01*
X11275Y-15555D02*
X23025Y-15555D01*
X11275Y-15635D02*
X23025Y-15635D01*
X11275Y-15715D02*
X23025Y-15715D01*
X11275Y-15795D02*
X23025Y-15795D01*
X11275Y-15875D02*
X23025Y-15875D01*
X11275Y-15955D02*
X23025Y-15955D01*
X11275Y-16035D02*
X23025Y-16035D01*
X11275Y-16115D02*
X23025Y-16115D01*
X11275Y-16195D02*
X23025Y-16195D01*
X11275Y-16275D02*
X23025Y-16275D01*
X11275Y-16355D02*
X23025Y-16355D01*
X11275Y-16435D02*
X23025Y-16435D01*
X11275Y-16515D02*
X23025Y-16515D01*
X11275Y-16595D02*
X11784Y-16595D01*
X12215Y-16595D02*
X22084Y-16595D01*
X22515Y-16595D02*
X23025Y-16595D01*
X11275Y-16675D02*
X11649Y-16675D01*
X12352Y-16675D02*
X21949Y-16675D01*
X22652Y-16675D02*
X23025Y-16675D01*
X11275Y-16755D02*
X11571Y-16755D01*
X12430Y-16755D02*
X21871Y-16755D01*
X22730Y-16755D02*
X23025Y-16755D01*
X11275Y-16835D02*
X11517Y-16835D01*
X12483Y-16835D02*
X21817Y-16835D01*
X22783Y-16835D02*
X23025Y-16835D01*
X11275Y-16915D02*
X11482Y-16915D01*
X12518Y-16915D02*
X21782Y-16915D01*
X22818Y-16915D02*
X23025Y-16915D01*
X11275Y-16995D02*
X11462Y-16995D01*
X12539Y-16995D02*
X21762Y-16995D01*
X22839Y-16995D02*
X23025Y-16995D01*
X11275Y-17075D02*
X11452Y-17075D01*
X12548Y-17075D02*
X21752Y-17075D01*
X22848Y-17075D02*
X23025Y-17075D01*
X11275Y-17155D02*
X11451Y-17155D01*
X12547Y-17155D02*
X21751Y-17155D01*
X22847Y-17155D02*
X23025Y-17155D01*
X11275Y-17235D02*
X11466Y-17235D01*
X12532Y-17235D02*
X21766Y-17235D01*
X22832Y-17235D02*
X23025Y-17235D01*
X11275Y-17315D02*
X11494Y-17315D01*
X12505Y-17315D02*
X21794Y-17315D01*
X22805Y-17315D02*
X23025Y-17315D01*
X11275Y-17395D02*
X11536Y-17395D01*
X12463Y-17395D02*
X21836Y-17395D01*
X22763Y-17395D02*
X23025Y-17395D01*
X11275Y-17475D02*
X11599Y-17475D01*
X12402Y-17475D02*
X21899Y-17475D01*
X22702Y-17475D02*
X23025Y-17475D01*
X11275Y-17555D02*
X11692Y-17555D01*
X12308Y-17555D02*
X21992Y-17555D01*
X22608Y-17555D02*
X23025Y-17555D01*
X11275Y-17635D02*
X11708Y-17635D01*
X12292Y-17635D02*
X22008Y-17635D01*
X22592Y-17635D02*
X23025Y-17635D01*
X11275Y-17715D02*
X11609Y-17715D01*
X12392Y-17715D02*
X21909Y-17715D01*
X22692Y-17715D02*
X23025Y-17715D01*
X11275Y-17795D02*
X11544Y-17795D01*
X12457Y-17795D02*
X21844Y-17795D01*
X22757Y-17795D02*
X23025Y-17795D01*
X11275Y-17875D02*
X11500Y-17875D01*
X12502Y-17875D02*
X21800Y-17875D01*
X22802Y-17875D02*
X23025Y-17875D01*
X11275Y-17955D02*
X11470Y-17955D01*
X12531Y-17955D02*
X21770Y-17955D01*
X22831Y-17955D02*
X23025Y-17955D01*
X11275Y-18035D02*
X11453Y-18035D01*
X12547Y-18035D02*
X21753Y-18035D01*
X22847Y-18035D02*
X23025Y-18035D01*
X11275Y-18115D02*
X11451Y-18115D01*
X12547Y-18115D02*
X21751Y-18115D01*
X22847Y-18115D02*
X23025Y-18115D01*
X11275Y-18195D02*
X11459Y-18195D01*
X12541Y-18195D02*
X21759Y-18195D01*
X22841Y-18195D02*
X23025Y-18195D01*
X11275Y-18275D02*
X11478Y-18275D01*
X12523Y-18275D02*
X21778Y-18275D01*
X22823Y-18275D02*
X23025Y-18275D01*
X11275Y-18355D02*
X11510Y-18355D01*
X12487Y-18355D02*
X21810Y-18355D01*
X22787Y-18355D02*
X23025Y-18355D01*
X11275Y-18435D02*
X11562Y-18435D01*
X12435Y-18435D02*
X21862Y-18435D01*
X22735Y-18435D02*
X23025Y-18435D01*
X11275Y-18515D02*
X11638Y-18515D01*
X12360Y-18515D02*
X16432Y-18515D01*
X17768Y-18515D02*
X21938Y-18515D01*
X22660Y-18515D02*
X23025Y-18515D01*
X11275Y-18595D02*
X11761Y-18595D01*
X12240Y-18595D02*
X16373Y-18595D01*
X17828Y-18595D02*
X22061Y-18595D01*
X22540Y-18595D02*
X23025Y-18595D01*
X11275Y-18675D02*
X11649Y-18675D01*
X12352Y-18675D02*
X16350Y-18675D01*
X17850Y-18675D02*
X21949Y-18675D01*
X22652Y-18675D02*
X23025Y-18675D01*
X11275Y-18755D02*
X11571Y-18755D01*
X12430Y-18755D02*
X16350Y-18755D01*
X17850Y-18755D02*
X21871Y-18755D01*
X22730Y-18755D02*
X23025Y-18755D01*
X11275Y-18835D02*
X11517Y-18835D01*
X12483Y-18835D02*
X16350Y-18835D01*
X17850Y-18835D02*
X21817Y-18835D01*
X22783Y-18835D02*
X23025Y-18835D01*
X11275Y-18915D02*
X11482Y-18915D01*
X12518Y-18915D02*
X16350Y-18915D01*
X17850Y-18915D02*
X21782Y-18915D01*
X22818Y-18915D02*
X23025Y-18915D01*
X11275Y-18995D02*
X11462Y-18995D01*
X12539Y-18995D02*
X16350Y-18995D01*
X17850Y-18995D02*
X21762Y-18995D01*
X22839Y-18995D02*
X23025Y-18995D01*
X11275Y-19075D02*
X11452Y-19075D01*
X12548Y-19075D02*
X16350Y-19075D01*
X17850Y-19075D02*
X21752Y-19075D01*
X22848Y-19075D02*
X23025Y-19075D01*
X11275Y-19155D02*
X11451Y-19155D01*
X12547Y-19155D02*
X16350Y-19155D01*
X17850Y-19155D02*
X21751Y-19155D01*
X22847Y-19155D02*
X23025Y-19155D01*
X11275Y-19235D02*
X11466Y-19235D01*
X12532Y-19235D02*
X16350Y-19235D01*
X17850Y-19235D02*
X21766Y-19235D01*
X22832Y-19235D02*
X23025Y-19235D01*
X11275Y-19315D02*
X11494Y-19315D01*
X12505Y-19315D02*
X16350Y-19315D01*
X17850Y-19315D02*
X21794Y-19315D01*
X22805Y-19315D02*
X23025Y-19315D01*
X11275Y-19395D02*
X11536Y-19395D01*
X12463Y-19395D02*
X16350Y-19395D01*
X17850Y-19395D02*
X21836Y-19395D01*
X22763Y-19395D02*
X23025Y-19395D01*
X11275Y-19475D02*
X11599Y-19475D01*
X12402Y-19475D02*
X16350Y-19475D01*
X17850Y-19475D02*
X21899Y-19475D01*
X22702Y-19475D02*
X23025Y-19475D01*
X11275Y-19555D02*
X11692Y-19555D01*
X12308Y-19555D02*
X16350Y-19555D01*
X17850Y-19555D02*
X21992Y-19555D01*
X22608Y-19555D02*
X23025Y-19555D01*
X11275Y-19635D02*
X11708Y-19635D01*
X12292Y-19635D02*
X16350Y-19635D01*
X17850Y-19635D02*
X22008Y-19635D01*
X22592Y-19635D02*
X23025Y-19635D01*
X11275Y-19715D02*
X11609Y-19715D01*
X12392Y-19715D02*
X16350Y-19715D01*
X17850Y-19715D02*
X21909Y-19715D01*
X22692Y-19715D02*
X23025Y-19715D01*
X11275Y-19795D02*
X11544Y-19795D01*
X12457Y-19795D02*
X16368Y-19795D01*
X17831Y-19795D02*
X21844Y-19795D01*
X22757Y-19795D02*
X23025Y-19795D01*
X11275Y-19875D02*
X11500Y-19875D01*
X12502Y-19875D02*
X16422Y-19875D01*
X17778Y-19875D02*
X21800Y-19875D01*
X22802Y-19875D02*
X23025Y-19875D01*
X11275Y-19955D02*
X11470Y-19955D01*
X12531Y-19955D02*
X21770Y-19955D01*
X22831Y-19955D02*
X23025Y-19955D01*
X11275Y-20035D02*
X11453Y-20035D01*
X12547Y-20035D02*
X21753Y-20035D01*
X22847Y-20035D02*
X23025Y-20035D01*
X11275Y-20115D02*
X11451Y-20115D01*
X12547Y-20115D02*
X21751Y-20115D01*
X22847Y-20115D02*
X23025Y-20115D01*
X11275Y-20195D02*
X11459Y-20195D01*
X12541Y-20195D02*
X21759Y-20195D01*
X22841Y-20195D02*
X23025Y-20195D01*
X11275Y-20275D02*
X11478Y-20275D01*
X12523Y-20275D02*
X21778Y-20275D01*
X22823Y-20275D02*
X23025Y-20275D01*
X11275Y-20355D02*
X11510Y-20355D01*
X12487Y-20355D02*
X21810Y-20355D01*
X22787Y-20355D02*
X23025Y-20355D01*
X11275Y-20435D02*
X11562Y-20435D01*
X12435Y-20435D02*
X21862Y-20435D01*
X22735Y-20435D02*
X23025Y-20435D01*
X11275Y-20515D02*
X11638Y-20515D01*
X12360Y-20515D02*
X21938Y-20515D01*
X22660Y-20515D02*
X23025Y-20515D01*
X11275Y-20595D02*
X11760Y-20595D01*
X12241Y-20595D02*
X22060Y-20595D01*
X22541Y-20595D02*
X23025Y-20595D01*
X11275Y-20675D02*
X23025Y-20675D01*
X11275Y-20755D02*
X23025Y-20755D01*
X11275Y-20835D02*
X23025Y-20835D01*
X11275Y-20915D02*
X23025Y-20915D01*
X11275Y-20995D02*
X23025Y-20995D01*
X11275Y-21075D02*
X23025Y-21075D01*
X11275Y-21155D02*
X23025Y-21155D01*
X11275Y-21235D02*
X23025Y-21235D01*
X11275Y-21315D02*
X23025Y-21315D01*
X11275Y-21395D02*
X23025Y-21395D01*
X11275Y-21475D02*
X12270Y-21475D01*
X12729Y-21475D02*
X21570Y-21475D01*
X22029Y-21475D02*
X23025Y-21475D01*
X11275Y-21555D02*
X12035Y-21555D01*
X12962Y-21555D02*
X21336Y-21555D01*
X22262Y-21555D02*
X23025Y-21555D01*
X11275Y-21635D02*
X11905Y-21635D01*
X13096Y-21635D02*
X21205Y-21635D01*
X22396Y-21635D02*
X23025Y-21635D01*
X11275Y-21715D02*
X11802Y-21715D01*
X13200Y-21715D02*
X21102Y-21715D01*
X22500Y-21715D02*
X23025Y-21715D01*
X11275Y-21795D02*
X11720Y-21795D01*
X13280Y-21795D02*
X21020Y-21795D01*
X22580Y-21795D02*
X23025Y-21795D01*
X11275Y-21875D02*
X11656Y-21875D01*
X13346Y-21875D02*
X20956Y-21875D01*
X22646Y-21875D02*
X23025Y-21875D01*
X11275Y-21955D02*
X11601Y-21955D01*
X13399Y-21955D02*
X20901Y-21955D01*
X22699Y-21955D02*
X23025Y-21955D01*
X11275Y-22035D02*
X11557Y-22035D01*
X13445Y-22035D02*
X20857Y-22035D01*
X22745Y-22035D02*
X23025Y-22035D01*
X11275Y-22115D02*
X11523Y-22115D01*
X13478Y-22115D02*
X20823Y-22115D01*
X22778Y-22115D02*
X23025Y-22115D01*
X11275Y-22195D02*
X11492Y-22195D01*
X13510Y-22195D02*
X20792Y-22195D01*
X22810Y-22195D02*
X23025Y-22195D01*
X11275Y-22275D02*
X11475Y-22275D01*
X13526Y-22275D02*
X20775Y-22275D01*
X22826Y-22275D02*
X23025Y-22275D01*
X11275Y-22355D02*
X11458Y-22355D01*
X13542Y-22355D02*
X20758Y-22355D01*
X22842Y-22355D02*
X23025Y-22355D01*
X11275Y-22435D02*
X11452Y-22435D01*
X13549Y-22435D02*
X20752Y-22435D01*
X22849Y-22435D02*
X23025Y-22435D01*
X11275Y-22515D02*
X11451Y-22515D01*
X13548Y-22515D02*
X20751Y-22515D01*
X22848Y-22515D02*
X23025Y-22515D01*
X11275Y-22595D02*
X11450Y-22595D01*
X13547Y-22595D02*
X20750Y-22595D01*
X22847Y-22595D02*
X23025Y-22595D01*
X11275Y-22675D02*
X11464Y-22675D01*
X13537Y-22675D02*
X20764Y-22675D01*
X22837Y-22675D02*
X23025Y-22675D01*
X11275Y-22755D02*
X11479Y-22755D01*
X13518Y-22755D02*
X20779Y-22755D01*
X22818Y-22755D02*
X23025Y-22755D01*
X11275Y-22835D02*
X11503Y-22835D01*
X13500Y-22835D02*
X20803Y-22835D01*
X22800Y-22835D02*
X23025Y-22835D01*
X11275Y-22915D02*
X11535Y-22915D01*
X13464Y-22915D02*
X20835Y-22915D01*
X22764Y-22915D02*
X23025Y-22915D01*
X11275Y-22995D02*
X11570Y-22995D01*
X13428Y-22995D02*
X20870Y-22995D01*
X22728Y-22995D02*
X23025Y-22995D01*
X11275Y-23075D02*
X11621Y-23075D01*
X13379Y-23075D02*
X20921Y-23075D01*
X22679Y-23075D02*
X23025Y-23075D01*
X11275Y-23155D02*
X11673Y-23155D01*
X13322Y-23155D02*
X20973Y-23155D01*
X22622Y-23155D02*
X23025Y-23155D01*
X11275Y-23235D02*
X11750Y-23235D01*
X13250Y-23235D02*
X21050Y-23235D01*
X22550Y-23235D02*
X23025Y-23235D01*
X11275Y-23315D02*
X11833Y-23315D01*
X13166Y-23315D02*
X21133Y-23315D01*
X22466Y-23315D02*
X23025Y-23315D01*
X11275Y-23395D02*
X11947Y-23395D01*
X13049Y-23395D02*
X21247Y-23395D01*
X22349Y-23395D02*
X23025Y-23395D01*
X11275Y-23475D02*
X12109Y-23475D01*
X12890Y-23475D02*
X21409Y-23475D01*
X22190Y-23475D02*
X23025Y-23475D01*
X11275Y-23555D02*
X23025Y-23555D01*
X23025Y-23625D02*
X23025Y-11875D01*
X11275Y-11875D01*
X11275Y-23625D01*
X12581Y-23625D01*
X12581Y-23552D01*
X12375Y-23548D01*
X12174Y-23503D01*
X11985Y-23421D01*
X11816Y-23303D01*
X11673Y-23155D01*
X11562Y-22982D01*
X11486Y-22791D01*
X11449Y-22588D01*
X11452Y-22382D01*
X11494Y-22181D01*
X11575Y-21992D01*
X11692Y-21822D01*
X11839Y-21678D01*
X12011Y-21565D01*
X12042Y-21552D01*
X12042Y-20650D01*
X11935Y-20648D01*
X11830Y-20625D01*
X11731Y-20582D01*
X11643Y-20520D01*
X11568Y-20443D01*
X11509Y-20352D01*
X11470Y-20252D01*
X11450Y-20146D01*
X11452Y-20039D01*
X11474Y-19933D01*
X11517Y-19834D01*
X11577Y-19746D01*
X11654Y-19670D01*
X11744Y-19611D01*
X11771Y-19599D01*
X11731Y-19582D01*
X11643Y-19520D01*
X11568Y-19443D01*
X11509Y-19352D01*
X11470Y-19252D01*
X11450Y-19146D01*
X11452Y-19039D01*
X11474Y-18933D01*
X11517Y-18834D01*
X11577Y-18746D01*
X11654Y-18670D01*
X11744Y-18611D01*
X11771Y-18599D01*
X11731Y-18582D01*
X11643Y-18520D01*
X11568Y-18443D01*
X11509Y-18352D01*
X11470Y-18252D01*
X11450Y-18146D01*
X11452Y-18039D01*
X11474Y-17933D01*
X11517Y-17834D01*
X11577Y-17746D01*
X11654Y-17670D01*
X11744Y-17611D01*
X11771Y-17599D01*
X11731Y-17582D01*
X11643Y-17520D01*
X11568Y-17443D01*
X11509Y-17352D01*
X11470Y-17252D01*
X11450Y-17146D01*
X11452Y-17039D01*
X11474Y-16933D01*
X11517Y-16834D01*
X11577Y-16746D01*
X11654Y-16670D01*
X11744Y-16611D01*
X11844Y-16571D01*
X11950Y-16551D01*
X12057Y-16551D01*
X12163Y-16573D01*
X12262Y-16615D01*
X12352Y-16675D01*
X12427Y-16751D01*
X12487Y-16841D01*
X12528Y-16940D01*
X12549Y-17046D01*
X12547Y-17169D01*
X12524Y-17274D01*
X12480Y-17372D01*
X12418Y-17460D01*
X12340Y-17535D01*
X12249Y-17592D01*
X12227Y-17600D01*
X12262Y-17615D01*
X12352Y-17675D01*
X12427Y-17751D01*
X12487Y-17841D01*
X12528Y-17940D01*
X12549Y-18046D01*
X12547Y-18169D01*
X12524Y-18274D01*
X12480Y-18372D01*
X12418Y-18460D01*
X12340Y-18535D01*
X12249Y-18592D01*
X12227Y-18600D01*
X12262Y-18615D01*
X12352Y-18675D01*
X12427Y-18751D01*
X12487Y-18841D01*
X12528Y-18940D01*
X12549Y-19046D01*
X12547Y-19169D01*
X12524Y-19274D01*
X12480Y-19372D01*
X12418Y-19460D01*
X12340Y-19535D01*
X12249Y-19592D01*
X12227Y-19600D01*
X12262Y-19615D01*
X12352Y-19675D01*
X12427Y-19751D01*
X12487Y-19841D01*
X12528Y-19940D01*
X12549Y-20046D01*
X12547Y-20169D01*
X12524Y-20274D01*
X12480Y-20372D01*
X12418Y-20460D01*
X12340Y-20535D01*
X12249Y-20592D01*
X12149Y-20631D01*
X12042Y-20650D01*
X12042Y-21552D01*
X12202Y-21488D01*
X12404Y-21449D01*
X12581Y-21450D01*
X12581Y-14052D01*
X12375Y-14048D01*
X12174Y-14003D01*
X11985Y-13921D01*
X11816Y-13803D01*
X11673Y-13655D01*
X11562Y-13482D01*
X11486Y-13291D01*
X11449Y-13088D01*
X11452Y-12882D01*
X11494Y-12681D01*
X11575Y-12492D01*
X11692Y-12322D01*
X11839Y-12178D01*
X12011Y-12065D01*
X12202Y-11988D01*
X12404Y-11949D01*
X12610Y-11951D01*
X12812Y-11992D01*
X13002Y-12072D01*
X13172Y-12187D01*
X13318Y-12333D01*
X13432Y-12505D01*
X13510Y-12695D01*
X13550Y-12897D01*
X13547Y-13132D01*
X13501Y-13333D01*
X13417Y-13521D01*
X13299Y-13689D01*
X13150Y-13831D01*
X12976Y-13942D01*
X12784Y-14016D01*
X12581Y-14052D01*
X12581Y-21450D01*
X12610Y-21451D01*
X12812Y-21492D01*
X13002Y-21572D01*
X13172Y-21687D01*
X13318Y-21833D01*
X13432Y-22005D01*
X13510Y-22195D01*
X13550Y-22397D01*
X13547Y-22632D01*
X13501Y-22833D01*
X13417Y-23021D01*
X13299Y-23189D01*
X13150Y-23331D01*
X12976Y-23442D01*
X12784Y-23516D01*
X12581Y-23552D01*
X12581Y-23625D01*
X16573Y-23625D01*
X16573Y-19950D01*
X16525Y-19940D01*
X16480Y-19921D01*
X16440Y-19893D01*
X16405Y-19858D01*
X16378Y-19817D01*
X16359Y-19772D01*
X16350Y-19724D01*
X16350Y-18673D01*
X16360Y-18625D01*
X16379Y-18580D01*
X16407Y-18540D01*
X16442Y-18505D01*
X16483Y-18478D01*
X16528Y-18459D01*
X16576Y-18450D01*
X17627Y-18450D01*
X17675Y-18460D01*
X17720Y-18479D01*
X17760Y-18507D01*
X17795Y-18542D01*
X17822Y-18583D01*
X17841Y-18628D01*
X17850Y-18676D01*
X17850Y-19727D01*
X17840Y-19775D01*
X17821Y-19820D01*
X17793Y-19860D01*
X17758Y-19895D01*
X17717Y-19922D01*
X17672Y-19941D01*
X17624Y-19950D01*
X16573Y-19950D01*
X16573Y-23625D01*
X21881Y-23625D01*
X21881Y-23552D01*
X21675Y-23548D01*
X21474Y-23503D01*
X21285Y-23421D01*
X21116Y-23303D01*
X20973Y-23155D01*
X20862Y-22982D01*
X20786Y-22791D01*
X20749Y-22588D01*
X20752Y-22382D01*
X20794Y-22181D01*
X20875Y-21992D01*
X20992Y-21822D01*
X21139Y-21678D01*
X21311Y-21565D01*
X21502Y-21488D01*
X21704Y-21449D01*
X21910Y-21451D01*
X22112Y-21492D01*
X22302Y-21572D01*
X22342Y-21599D01*
X22342Y-20650D01*
X22235Y-20648D01*
X22130Y-20625D01*
X22031Y-20582D01*
X21943Y-20520D01*
X21868Y-20443D01*
X21809Y-20352D01*
X21770Y-20252D01*
X21750Y-20146D01*
X21752Y-20039D01*
X21774Y-19933D01*
X21817Y-19834D01*
X21877Y-19746D01*
X21954Y-19670D01*
X22044Y-19611D01*
X22071Y-19599D01*
X22031Y-19582D01*
X21943Y-19520D01*
X21868Y-19443D01*
X21809Y-19352D01*
X21770Y-19252D01*
X21750Y-19146D01*
X21752Y-19039D01*
X21774Y-18933D01*
X21817Y-18834D01*
X21877Y-18746D01*
X21954Y-18670D01*
X22044Y-18611D01*
X22071Y-18599D01*
X22031Y-18582D01*
X21943Y-18520D01*
X21868Y-18443D01*
X21809Y-18352D01*
X21770Y-18252D01*
X21750Y-18146D01*
X21752Y-18039D01*
X21774Y-17933D01*
X21817Y-17834D01*
X21877Y-17746D01*
X21954Y-17670D01*
X22044Y-17611D01*
X22071Y-17599D01*
X22031Y-17582D01*
X21943Y-17520D01*
X21868Y-17443D01*
X21809Y-17352D01*
X21770Y-17252D01*
X21750Y-17146D01*
X21752Y-17039D01*
X21774Y-16933D01*
X21817Y-16834D01*
X21877Y-16746D01*
X21881Y-16742D01*
X21881Y-14052D01*
X21675Y-14048D01*
X21474Y-14003D01*
X21285Y-13921D01*
X21116Y-13803D01*
X20973Y-13655D01*
X20862Y-13482D01*
X20786Y-13291D01*
X20749Y-13088D01*
X20752Y-12882D01*
X20794Y-12681D01*
X20875Y-12492D01*
X20992Y-12322D01*
X21139Y-12178D01*
X21311Y-12065D01*
X21502Y-11988D01*
X21704Y-11949D01*
X21910Y-11951D01*
X22112Y-11992D01*
X22302Y-12072D01*
X22472Y-12187D01*
X22618Y-12333D01*
X22732Y-12505D01*
X22810Y-12695D01*
X22850Y-12897D01*
X22847Y-13132D01*
X22801Y-13333D01*
X22717Y-13521D01*
X22599Y-13689D01*
X22450Y-13831D01*
X22276Y-13942D01*
X22084Y-14016D01*
X21881Y-14052D01*
X21881Y-16742D01*
X21954Y-16670D01*
X22044Y-16611D01*
X22144Y-16571D01*
X22250Y-16551D01*
X22357Y-16551D01*
X22463Y-16573D01*
X22562Y-16615D01*
X22652Y-16675D01*
X22727Y-16751D01*
X22787Y-16841D01*
X22828Y-16940D01*
X22849Y-17046D01*
X22847Y-17169D01*
X22824Y-17274D01*
X22780Y-17372D01*
X22718Y-17460D01*
X22640Y-17535D01*
X22549Y-17592D01*
X22527Y-17600D01*
X22562Y-17615D01*
X22652Y-17675D01*
X22727Y-17751D01*
X22787Y-17841D01*
X22828Y-17940D01*
X22849Y-18046D01*
X22847Y-18169D01*
X22824Y-18274D01*
X22780Y-18372D01*
X22718Y-18460D01*
X22640Y-18535D01*
X22549Y-18592D01*
X22527Y-18600D01*
X22562Y-18615D01*
X22652Y-18675D01*
X22727Y-18751D01*
X22787Y-18841D01*
X22828Y-18940D01*
X22849Y-19046D01*
X22847Y-19169D01*
X22824Y-19274D01*
X22780Y-19372D01*
X22718Y-19460D01*
X22640Y-19535D01*
X22549Y-19592D01*
X22527Y-19600D01*
X22562Y-19615D01*
X22652Y-19675D01*
X22727Y-19751D01*
X22787Y-19841D01*
X22828Y-19940D01*
X22849Y-20046D01*
X22847Y-20169D01*
X22824Y-20274D01*
X22780Y-20372D01*
X22718Y-20460D01*
X22640Y-20535D01*
X22549Y-20592D01*
X22449Y-20631D01*
X22342Y-20650D01*
X22342Y-21599D01*
X22472Y-21687D01*
X22618Y-21833D01*
X22732Y-22005D01*
X22810Y-22195D01*
X22850Y-22397D01*
X22847Y-22632D01*
X22801Y-22833D01*
X22717Y-23021D01*
X22599Y-23189D01*
X22450Y-23331D01*
X22276Y-23442D01*
X22084Y-23516D01*
X21881Y-23552D01*
X21881Y-23625D01*
X23025Y-23625D01*
M02*
